M48
INCH,TZ
T1C0.025
T2C0.039
T3C0.040
T4C0.046
T5C0.050
T6C0.060
T7C0.080
T8C0.118
T9C0.120
T10C0.138
%
G90
G05
T1
X013612Y-062707
X014980Y-060719
X019547Y-059006
X019813Y-058573
X021063Y-056486
X021329Y-038100
X021339Y-033720
X022352Y-056486
X024745Y-057270
X029872Y-060719
X031860Y-027825
X031860Y-031112
X037352Y-048514
X044941Y-052687
X045679Y-027037
X050370Y-051173
X050440Y-061830
X050699Y-048219
X051323Y-048720
X051460Y-062260
X051870Y-052114
X052392Y-050630
X052717Y-048750
X052904Y-050522
X053356Y-049114
X053543Y-044256
X053551Y-040236
X053957Y-048494
X054272Y-047628
X054724Y-048337
X054920Y-062320
X055173Y-041256
X055177Y-043258
X055285Y-048681
X055953Y-052126
X056020Y-041950
X056020Y-042540
X056260Y-064437
X056420Y-067410
X056437Y-047520
X056880Y-062320
X057106Y-052224
X057106Y-054252
X057461Y-052579
X057461Y-053583
X057559Y-042756
X057579Y-051752
X057579Y-054370
X057669Y-044256
X058346Y-051496
X060390Y-046490
X060710Y-051030
X060827Y-050207
X061790Y-046900
X061890Y-047606
X061939Y-053100
X062020Y-044450
X062490Y-046080
X062598Y-050138
X062707Y-048652
X062972Y-048140
X063012Y-050394
X063012Y-054439
X063287Y-067205
X063327Y-054970
X063435Y-050148
X063494Y-064094
X063770Y-048140
X063770Y-055285
X063937Y-046545
X064063Y-053811
X064300Y-048160
X064350Y-051270
X064370Y-050522
X065000Y-045039
X066004Y-049547
X066004Y-051496
X066024Y-050551
X066354Y-042957
X066398Y-050039
X066614Y-047726
X066742Y-066329
X067000Y-062300
X067195Y-043957
X067776Y-048110
X068200Y-050000
X069010Y-066400
X069026Y-067205
X069636Y-041949
X069636Y-046742
X069774Y-053622
X070709Y-053199
X070719Y-048602
X071624Y-051772
X073701Y-046801
X074118Y-045315
X074370Y-048602
X074902Y-046801
X075108Y-065413
X075906Y-045315
X075953Y-048646
X076024Y-049213
X076024Y-050207
X076024Y-051181
X077943Y-034990
X077950Y-030250
X078400Y-029850
T2
X014665Y-029921
X014953Y-028921
X015953Y-028921
X016240Y-029921
X025870Y-024539
X025870Y-025539
X026870Y-024252
X026870Y-025827
T3
X012110Y-064657
X012110Y-065657
X013110Y-064657
X013110Y-065657
X014053Y-037321
X014110Y-064657
X014110Y-065657
X015110Y-064657
X015110Y-065657
X016110Y-064657
X016110Y-065657
X016853Y-037321
X017110Y-064657
X017110Y-065657
X018110Y-064657
X018110Y-065657
X019110Y-064657
X019110Y-065657
X020110Y-064657
X020110Y-065657
X021110Y-064657
X021110Y-065657
X022110Y-064657
X022110Y-065657
X023110Y-064657
X023110Y-065657
X023620Y-038790
X024110Y-064657
X024110Y-065657
X024620Y-038790
X025620Y-038790
X033740Y-038790
X034270Y-023639
X034270Y-026439
X034740Y-038790
X035740Y-038790
X046110Y-045364
X047110Y-045364
X048110Y-045364
X049110Y-045364
X050110Y-045364
X052043Y-055906
X052043Y-059843
X053043Y-055906
X053043Y-059843
X054043Y-055906
X054043Y-059843
X055043Y-055906
X055043Y-059843
X058161Y-054630
X058161Y-055614
X058161Y-056598
X058161Y-057598
X058161Y-058598
X058161Y-059598
X058161Y-060598
X058161Y-061598
X058161Y-062598
X058161Y-063598
X058161Y-064598
X058161Y-065598
X058161Y-066598
X058161Y-067598
X058161Y-068598
X059138Y-042256
X059138Y-043256
X059161Y-054630
X059161Y-055614
X059161Y-056598
X059161Y-057598
X059161Y-058598
X059161Y-059598
X059161Y-060598
X059161Y-061598
X059161Y-062598
X059161Y-063598
X059161Y-064598
X059161Y-065598
X059161Y-066598
X059161Y-067598
X059161Y-068598
X060138Y-042256
X060138Y-043256
X061138Y-042256
X061138Y-043256
X078929Y-065591
X079733Y-026684
X079733Y-028434
X079733Y-030621
X079733Y-032371
X079733Y-034558
X079733Y-036308
X079929Y-065591
X080483Y-027059
X080483Y-028059
X080483Y-030996
X080483Y-031996
X080483Y-034933
X080483Y-035933
X081496Y-043169
X081496Y-044169
X081496Y-045169
X081496Y-046169
X081496Y-047169
X081496Y-048169
X082283Y-026684
X082283Y-028434
X082283Y-030621
X082283Y-032371
X082283Y-034558
X082283Y-036308
T5
X081283Y-026184
X081283Y-028934
X081283Y-030121
X081283Y-032871
X081283Y-034058
X081283Y-036808
T6
X013873Y-030921
X017033Y-030921
X027870Y-023459
X027870Y-026619
T7
X080020Y-050535
X080020Y-058835
T8
X053307Y-024134
X053307Y-038307
X058819Y-024134
X058819Y-038307
X064331Y-024134
X064331Y-038307
X069843Y-024134
X069843Y-038307
T9
X011614Y-011575
X011614Y-023386
X011614Y-039921
X011614Y-068268
X021250Y-051781
X043100Y-061821
X047441Y-039921
X047441Y-068268
X058652Y-047451
X072037Y-059459
X077549Y-047451
X083268Y-011575
X083268Y-023386
X083268Y-039921
X083268Y-068268
T10
X064567Y-012362
X072835Y-022598
T4
X077620Y-063405G85X077620Y-062265
G05
X079240Y-060835G85X078300Y-060835
G05
X080020Y-063305G85X080020Y-062365
G05
T0
M30
