G04 (created by PCBNEW (2013-mar-13)-testing) date Friday 06 December 2013 11:39:04 PM IST*
%MOIN*%
G04 Gerber Fmt 3.4, Leading zero omitted, Abs format*
%FSLAX34Y34*%
G01*
G70*
G90*
G04 APERTURE LIST*
%ADD10C,0.005906*%
%ADD11C,0.005000*%
G04 APERTURE END LIST*
G54D10*
G54D11*
X65718Y-18213D02*
X65701Y-18196D01*
X65684Y-18163D01*
X65684Y-18080D01*
X65701Y-18046D01*
X65718Y-18030D01*
X65751Y-18013D01*
X65784Y-18013D01*
X65834Y-18030D01*
X66034Y-18230D01*
X66034Y-18013D01*
X65684Y-17713D02*
X65684Y-17780D01*
X65701Y-17813D01*
X65718Y-17830D01*
X65768Y-17863D01*
X65834Y-17880D01*
X65968Y-17880D01*
X66001Y-17863D01*
X66018Y-17846D01*
X66034Y-17813D01*
X66034Y-17746D01*
X66018Y-17713D01*
X66001Y-17696D01*
X65968Y-17680D01*
X65884Y-17680D01*
X65851Y-17696D01*
X65834Y-17713D01*
X65818Y-17746D01*
X65818Y-17813D01*
X65834Y-17846D01*
X65851Y-17863D01*
X65884Y-17880D01*
X66034Y-17530D02*
X65801Y-17530D01*
X65834Y-17530D02*
X65818Y-17513D01*
X65801Y-17480D01*
X65801Y-17430D01*
X65818Y-17396D01*
X65851Y-17380D01*
X66034Y-17380D01*
X65851Y-17380D02*
X65818Y-17363D01*
X65801Y-17330D01*
X65801Y-17280D01*
X65818Y-17246D01*
X65851Y-17230D01*
X66034Y-17230D01*
X66034Y-17063D02*
X65801Y-17063D01*
X65834Y-17063D02*
X65818Y-17046D01*
X65801Y-17013D01*
X65801Y-16963D01*
X65818Y-16930D01*
X65851Y-16913D01*
X66034Y-16913D01*
X65851Y-16913D02*
X65818Y-16896D01*
X65801Y-16863D01*
X65801Y-16813D01*
X65818Y-16780D01*
X65851Y-16763D01*
X66034Y-16763D01*
X66151Y-22598D02*
X66151Y-12362D01*
X72834Y-22598D02*
X65601Y-22598D01*
X72834Y-12362D02*
X65601Y-12362D01*
X66151Y-12362D02*
X66382Y-12805D01*
X66151Y-12362D02*
X65920Y-12805D01*
X66151Y-22598D02*
X66382Y-22154D01*
X66151Y-22598D02*
X65920Y-22154D01*
X67250Y-20096D02*
X67267Y-20080D01*
X67300Y-20063D01*
X67384Y-20063D01*
X67417Y-20080D01*
X67434Y-20096D01*
X67450Y-20130D01*
X67450Y-20163D01*
X67434Y-20213D01*
X67234Y-20413D01*
X67450Y-20413D01*
X67784Y-20413D02*
X67584Y-20413D01*
X67684Y-20413D02*
X67684Y-20063D01*
X67650Y-20113D01*
X67617Y-20146D01*
X67584Y-20163D01*
X67934Y-20380D02*
X67950Y-20396D01*
X67934Y-20413D01*
X67917Y-20396D01*
X67934Y-20380D01*
X67934Y-20413D01*
X68167Y-20063D02*
X68200Y-20063D01*
X68234Y-20080D01*
X68250Y-20096D01*
X68267Y-20130D01*
X68284Y-20196D01*
X68284Y-20280D01*
X68267Y-20346D01*
X68250Y-20380D01*
X68234Y-20396D01*
X68200Y-20413D01*
X68167Y-20413D01*
X68134Y-20396D01*
X68117Y-20380D01*
X68100Y-20346D01*
X68084Y-20280D01*
X68084Y-20196D01*
X68100Y-20130D01*
X68117Y-20096D01*
X68134Y-20080D01*
X68167Y-20063D01*
X68500Y-20063D02*
X68534Y-20063D01*
X68567Y-20080D01*
X68584Y-20096D01*
X68600Y-20130D01*
X68617Y-20196D01*
X68617Y-20280D01*
X68600Y-20346D01*
X68584Y-20380D01*
X68567Y-20396D01*
X68534Y-20413D01*
X68500Y-20413D01*
X68467Y-20396D01*
X68450Y-20380D01*
X68434Y-20346D01*
X68417Y-20280D01*
X68417Y-20196D01*
X68434Y-20130D01*
X68450Y-20096D01*
X68467Y-20080D01*
X68500Y-20063D01*
X68834Y-20063D02*
X68867Y-20063D01*
X68900Y-20080D01*
X68917Y-20096D01*
X68934Y-20130D01*
X68950Y-20196D01*
X68950Y-20280D01*
X68934Y-20346D01*
X68917Y-20380D01*
X68900Y-20396D01*
X68867Y-20413D01*
X68834Y-20413D01*
X68800Y-20396D01*
X68784Y-20380D01*
X68767Y-20346D01*
X68750Y-20280D01*
X68750Y-20196D01*
X68767Y-20130D01*
X68784Y-20096D01*
X68800Y-20080D01*
X68834Y-20063D01*
X69367Y-20413D02*
X69367Y-20180D01*
X69367Y-20213D02*
X69384Y-20196D01*
X69417Y-20180D01*
X69467Y-20180D01*
X69500Y-20196D01*
X69517Y-20230D01*
X69517Y-20413D01*
X69517Y-20230D02*
X69534Y-20196D01*
X69567Y-20180D01*
X69617Y-20180D01*
X69650Y-20196D01*
X69667Y-20230D01*
X69667Y-20413D01*
X69834Y-20413D02*
X69834Y-20180D01*
X69834Y-20213D02*
X69850Y-20196D01*
X69884Y-20180D01*
X69934Y-20180D01*
X69967Y-20196D01*
X69984Y-20230D01*
X69984Y-20413D01*
X69984Y-20230D02*
X70000Y-20196D01*
X70034Y-20180D01*
X70084Y-20180D01*
X70117Y-20196D01*
X70134Y-20230D01*
X70134Y-20413D01*
X64566Y-19980D02*
X72834Y-19980D01*
X64566Y-12362D02*
X64566Y-20530D01*
X72834Y-12362D02*
X72834Y-20530D01*
X72834Y-19980D02*
X72391Y-20211D01*
X72834Y-19980D02*
X72391Y-19749D01*
X64566Y-19980D02*
X65010Y-20211D01*
X64566Y-19980D02*
X65010Y-19749D01*
X62417Y-11581D02*
X62417Y-11647D01*
X62433Y-11681D01*
X62450Y-11697D01*
X62500Y-11731D01*
X62567Y-11747D01*
X62700Y-11747D01*
X62733Y-11731D01*
X62750Y-11714D01*
X62767Y-11681D01*
X62767Y-11614D01*
X62750Y-11581D01*
X62733Y-11564D01*
X62700Y-11547D01*
X62617Y-11547D01*
X62583Y-11564D01*
X62567Y-11581D01*
X62550Y-11614D01*
X62550Y-11681D01*
X62567Y-11714D01*
X62583Y-11731D01*
X62617Y-11747D01*
X62767Y-11397D02*
X62533Y-11397D01*
X62567Y-11397D02*
X62550Y-11381D01*
X62533Y-11347D01*
X62533Y-11297D01*
X62550Y-11264D01*
X62583Y-11247D01*
X62767Y-11247D01*
X62583Y-11247D02*
X62550Y-11231D01*
X62533Y-11197D01*
X62533Y-11147D01*
X62550Y-11114D01*
X62583Y-11097D01*
X62767Y-11097D01*
X62767Y-10931D02*
X62533Y-10931D01*
X62567Y-10931D02*
X62550Y-10914D01*
X62533Y-10881D01*
X62533Y-10831D01*
X62550Y-10797D01*
X62583Y-10781D01*
X62767Y-10781D01*
X62583Y-10781D02*
X62550Y-10764D01*
X62533Y-10731D01*
X62533Y-10681D01*
X62550Y-10647D01*
X62583Y-10631D01*
X62767Y-10631D01*
X62883Y-12362D02*
X62883Y-10000D01*
X64566Y-12362D02*
X62333Y-12362D01*
X64566Y-10000D02*
X62333Y-10000D01*
X62883Y-10000D02*
X63114Y-10443D01*
X62883Y-10000D02*
X62652Y-10443D01*
X62883Y-12362D02*
X63114Y-11918D01*
X62883Y-12362D02*
X62652Y-11918D01*
X36353Y-14291D02*
X36153Y-14291D01*
X36253Y-14291D02*
X36253Y-13941D01*
X36219Y-13991D01*
X36186Y-14024D01*
X36153Y-14041D01*
X36469Y-13941D02*
X36686Y-13941D01*
X36569Y-14074D01*
X36619Y-14074D01*
X36653Y-14091D01*
X36669Y-14108D01*
X36686Y-14141D01*
X36686Y-14224D01*
X36669Y-14258D01*
X36653Y-14274D01*
X36619Y-14291D01*
X36519Y-14291D01*
X36486Y-14274D01*
X36469Y-14258D01*
X36886Y-14091D02*
X36853Y-14074D01*
X36836Y-14058D01*
X36819Y-14024D01*
X36819Y-14008D01*
X36836Y-13974D01*
X36853Y-13958D01*
X36886Y-13941D01*
X36953Y-13941D01*
X36986Y-13958D01*
X37003Y-13974D01*
X37019Y-14008D01*
X37019Y-14024D01*
X37003Y-14058D01*
X36986Y-14074D01*
X36953Y-14091D01*
X36886Y-14091D01*
X36853Y-14108D01*
X36836Y-14124D01*
X36819Y-14158D01*
X36819Y-14224D01*
X36836Y-14258D01*
X36853Y-14274D01*
X36886Y-14291D01*
X36953Y-14291D01*
X36986Y-14274D01*
X37003Y-14258D01*
X37019Y-14224D01*
X37019Y-14158D01*
X37003Y-14124D01*
X36986Y-14108D01*
X36953Y-14091D01*
X37169Y-14258D02*
X37186Y-14274D01*
X37169Y-14291D01*
X37153Y-14274D01*
X37169Y-14258D01*
X37169Y-14291D01*
X37503Y-13941D02*
X37336Y-13941D01*
X37319Y-14108D01*
X37336Y-14091D01*
X37369Y-14074D01*
X37453Y-14074D01*
X37486Y-14091D01*
X37503Y-14108D01*
X37519Y-14141D01*
X37519Y-14224D01*
X37503Y-14258D01*
X37486Y-14274D01*
X37453Y-14291D01*
X37369Y-14291D01*
X37336Y-14274D01*
X37319Y-14258D01*
X37669Y-14291D02*
X37669Y-14058D01*
X37669Y-14091D02*
X37686Y-14074D01*
X37719Y-14058D01*
X37769Y-14058D01*
X37803Y-14074D01*
X37819Y-14108D01*
X37819Y-14291D01*
X37819Y-14108D02*
X37836Y-14074D01*
X37869Y-14058D01*
X37919Y-14058D01*
X37953Y-14074D01*
X37969Y-14108D01*
X37969Y-14291D01*
X38136Y-14291D02*
X38136Y-14058D01*
X38136Y-14091D02*
X38153Y-14074D01*
X38186Y-14058D01*
X38236Y-14058D01*
X38269Y-14074D01*
X38286Y-14108D01*
X38286Y-14291D01*
X38286Y-14108D02*
X38303Y-14074D01*
X38336Y-14058D01*
X38386Y-14058D01*
X38419Y-14074D01*
X38436Y-14108D01*
X38436Y-14291D01*
X64566Y-13858D02*
X10039Y-13858D01*
X64566Y-12362D02*
X64566Y-14408D01*
X10039Y-12362D02*
X10039Y-14408D01*
X10039Y-13858D02*
X10482Y-13627D01*
X10039Y-13858D02*
X10482Y-14089D01*
X64566Y-13858D02*
X64123Y-13627D01*
X64566Y-13858D02*
X64123Y-14089D01*
X8037Y-68655D02*
X7804Y-68655D01*
X8170Y-68571D02*
X7920Y-68488D01*
X7920Y-68705D01*
X7804Y-68838D02*
X8037Y-68838D01*
X8004Y-68838D02*
X8020Y-68855D01*
X8037Y-68888D01*
X8037Y-68938D01*
X8020Y-68971D01*
X7987Y-68988D01*
X7804Y-68988D01*
X7987Y-68988D02*
X8020Y-69005D01*
X8037Y-69038D01*
X8037Y-69088D01*
X8020Y-69121D01*
X7987Y-69138D01*
X7804Y-69138D01*
X7804Y-69305D02*
X8037Y-69305D01*
X8004Y-69305D02*
X8020Y-69321D01*
X8037Y-69355D01*
X8037Y-69405D01*
X8020Y-69438D01*
X7987Y-69455D01*
X7804Y-69455D01*
X7987Y-69455D02*
X8020Y-69471D01*
X8037Y-69505D01*
X8037Y-69555D01*
X8020Y-69588D01*
X7987Y-69605D01*
X7804Y-69605D01*
X8602Y-68267D02*
X8602Y-69842D01*
X11614Y-68267D02*
X8052Y-68267D01*
X11614Y-69842D02*
X8052Y-69842D01*
X8602Y-69842D02*
X8371Y-69399D01*
X8602Y-69842D02*
X8833Y-69399D01*
X8602Y-68267D02*
X8371Y-68711D01*
X8602Y-68267D02*
X8833Y-68711D01*
X10426Y-71854D02*
X10426Y-72087D01*
X10343Y-71720D02*
X10260Y-71970D01*
X10476Y-71970D01*
X10610Y-72087D02*
X10610Y-71854D01*
X10610Y-71887D02*
X10626Y-71870D01*
X10660Y-71854D01*
X10710Y-71854D01*
X10743Y-71870D01*
X10760Y-71904D01*
X10760Y-72087D01*
X10760Y-71904D02*
X10776Y-71870D01*
X10810Y-71854D01*
X10860Y-71854D01*
X10893Y-71870D01*
X10910Y-71904D01*
X10910Y-72087D01*
X11076Y-72087D02*
X11076Y-71854D01*
X11076Y-71887D02*
X11093Y-71870D01*
X11126Y-71854D01*
X11176Y-71854D01*
X11210Y-71870D01*
X11226Y-71904D01*
X11226Y-72087D01*
X11226Y-71904D02*
X11243Y-71870D01*
X11276Y-71854D01*
X11326Y-71854D01*
X11360Y-71870D01*
X11376Y-71904D01*
X11376Y-72087D01*
X11614Y-71279D02*
X10039Y-71279D01*
X11614Y-68267D02*
X11614Y-71829D01*
X10039Y-68267D02*
X10039Y-71829D01*
X10039Y-71279D02*
X10482Y-71048D01*
X10039Y-71279D02*
X10482Y-71510D01*
X11614Y-71279D02*
X11170Y-71048D01*
X11614Y-71279D02*
X11170Y-71510D01*
X30723Y-22235D02*
X30523Y-22235D01*
X30623Y-22235D02*
X30623Y-21885D01*
X30589Y-21935D01*
X30556Y-21969D01*
X30523Y-21985D01*
X30939Y-21885D02*
X30973Y-21885D01*
X31006Y-21902D01*
X31023Y-21919D01*
X31039Y-21952D01*
X31056Y-22019D01*
X31056Y-22102D01*
X31039Y-22169D01*
X31023Y-22202D01*
X31006Y-22219D01*
X30973Y-22235D01*
X30939Y-22235D01*
X30906Y-22219D01*
X30889Y-22202D01*
X30873Y-22169D01*
X30856Y-22102D01*
X30856Y-22019D01*
X30873Y-21952D01*
X30889Y-21919D01*
X30906Y-21902D01*
X30939Y-21885D01*
X31223Y-22235D02*
X31289Y-22235D01*
X31323Y-22219D01*
X31339Y-22202D01*
X31373Y-22152D01*
X31389Y-22085D01*
X31389Y-21952D01*
X31373Y-21919D01*
X31356Y-21902D01*
X31323Y-21885D01*
X31256Y-21885D01*
X31223Y-21902D01*
X31206Y-21919D01*
X31189Y-21952D01*
X31189Y-22035D01*
X31206Y-22069D01*
X31223Y-22085D01*
X31256Y-22102D01*
X31323Y-22102D01*
X31356Y-22085D01*
X31373Y-22069D01*
X31389Y-22035D01*
X31539Y-22202D02*
X31556Y-22219D01*
X31539Y-22235D01*
X31523Y-22219D01*
X31539Y-22202D01*
X31539Y-22235D01*
X31723Y-22235D02*
X31789Y-22235D01*
X31823Y-22219D01*
X31839Y-22202D01*
X31873Y-22152D01*
X31889Y-22085D01*
X31889Y-21952D01*
X31873Y-21919D01*
X31856Y-21902D01*
X31823Y-21885D01*
X31756Y-21885D01*
X31723Y-21902D01*
X31706Y-21919D01*
X31689Y-21952D01*
X31689Y-22035D01*
X31706Y-22069D01*
X31723Y-22085D01*
X31756Y-22102D01*
X31823Y-22102D01*
X31856Y-22085D01*
X31873Y-22069D01*
X31889Y-22035D01*
X32039Y-22235D02*
X32039Y-22002D01*
X32039Y-22035D02*
X32056Y-22019D01*
X32089Y-22002D01*
X32139Y-22002D01*
X32173Y-22019D01*
X32189Y-22052D01*
X32189Y-22235D01*
X32189Y-22052D02*
X32206Y-22019D01*
X32239Y-22002D01*
X32289Y-22002D01*
X32323Y-22019D01*
X32339Y-22052D01*
X32339Y-22235D01*
X32506Y-22235D02*
X32506Y-22002D01*
X32506Y-22035D02*
X32523Y-22019D01*
X32556Y-22002D01*
X32606Y-22002D01*
X32639Y-22019D01*
X32656Y-22052D01*
X32656Y-22235D01*
X32656Y-22052D02*
X32673Y-22019D01*
X32706Y-22002D01*
X32756Y-22002D01*
X32789Y-22019D01*
X32806Y-22052D01*
X32806Y-22235D01*
X53307Y-22352D02*
X10039Y-22352D01*
X53307Y-24133D02*
X53307Y-21802D01*
X10039Y-24133D02*
X10039Y-21802D01*
X10039Y-22352D02*
X10482Y-22121D01*
X10039Y-22352D02*
X10482Y-22583D01*
X53307Y-22352D02*
X52863Y-22121D01*
X53307Y-22352D02*
X52863Y-22583D01*
X51046Y-53158D02*
X51062Y-53124D01*
X51079Y-53108D01*
X51112Y-53091D01*
X51129Y-53091D01*
X51162Y-53108D01*
X51179Y-53124D01*
X51196Y-53158D01*
X51196Y-53224D01*
X51179Y-53258D01*
X51162Y-53274D01*
X51129Y-53291D01*
X51112Y-53291D01*
X51079Y-53274D01*
X51062Y-53258D01*
X51046Y-53224D01*
X51046Y-53158D01*
X51029Y-53124D01*
X51012Y-53108D01*
X50979Y-53091D01*
X50912Y-53091D01*
X50879Y-53108D01*
X50862Y-53124D01*
X50846Y-53158D01*
X50846Y-53224D01*
X50862Y-53258D01*
X50879Y-53274D01*
X50912Y-53291D01*
X50979Y-53291D01*
X51012Y-53274D01*
X51029Y-53258D01*
X51046Y-53224D01*
X51196Y-53508D02*
X51196Y-53541D01*
X51179Y-53574D01*
X51162Y-53591D01*
X51129Y-53608D01*
X51062Y-53624D01*
X50979Y-53624D01*
X50912Y-53608D01*
X50879Y-53591D01*
X50862Y-53574D01*
X50846Y-53541D01*
X50846Y-53508D01*
X50862Y-53474D01*
X50879Y-53458D01*
X50912Y-53441D01*
X50979Y-53424D01*
X51062Y-53424D01*
X51129Y-53441D01*
X51162Y-53458D01*
X51179Y-53474D01*
X51196Y-53508D01*
X50879Y-53774D02*
X50862Y-53791D01*
X50846Y-53774D01*
X50862Y-53758D01*
X50879Y-53774D01*
X50846Y-53774D01*
X50846Y-54124D02*
X50846Y-53924D01*
X50846Y-54024D02*
X51196Y-54024D01*
X51146Y-53991D01*
X51112Y-53958D01*
X51096Y-53924D01*
X50846Y-54274D02*
X51079Y-54274D01*
X51046Y-54274D02*
X51062Y-54291D01*
X51079Y-54324D01*
X51079Y-54374D01*
X51062Y-54408D01*
X51029Y-54424D01*
X50846Y-54424D01*
X51029Y-54424D02*
X51062Y-54441D01*
X51079Y-54474D01*
X51079Y-54524D01*
X51062Y-54558D01*
X51029Y-54574D01*
X50846Y-54574D01*
X50846Y-54741D02*
X51079Y-54741D01*
X51046Y-54741D02*
X51062Y-54758D01*
X51079Y-54791D01*
X51079Y-54841D01*
X51062Y-54874D01*
X51029Y-54891D01*
X50846Y-54891D01*
X51029Y-54891D02*
X51062Y-54908D01*
X51079Y-54941D01*
X51079Y-54991D01*
X51062Y-55024D01*
X51029Y-55041D01*
X50846Y-55041D01*
X51279Y-38307D02*
X51279Y-69842D01*
X53307Y-38307D02*
X50729Y-38307D01*
X53307Y-69842D02*
X50729Y-69842D01*
X51279Y-69842D02*
X51048Y-69399D01*
X51279Y-69842D02*
X51510Y-69399D01*
X51279Y-38307D02*
X51048Y-38750D01*
X51279Y-38307D02*
X51510Y-38750D01*
X51196Y-30470D02*
X51196Y-30687D01*
X51062Y-30570D01*
X51062Y-30620D01*
X51046Y-30653D01*
X51029Y-30670D01*
X50996Y-30687D01*
X50912Y-30687D01*
X50879Y-30670D01*
X50862Y-30653D01*
X50846Y-30620D01*
X50846Y-30520D01*
X50862Y-30487D01*
X50879Y-30470D01*
X51196Y-30987D02*
X51196Y-30920D01*
X51179Y-30887D01*
X51162Y-30870D01*
X51112Y-30837D01*
X51046Y-30820D01*
X50912Y-30820D01*
X50879Y-30837D01*
X50862Y-30853D01*
X50846Y-30887D01*
X50846Y-30953D01*
X50862Y-30987D01*
X50879Y-31003D01*
X50912Y-31020D01*
X50996Y-31020D01*
X51029Y-31003D01*
X51046Y-30987D01*
X51062Y-30953D01*
X51062Y-30887D01*
X51046Y-30853D01*
X51029Y-30837D01*
X50996Y-30820D01*
X50846Y-31170D02*
X51079Y-31170D01*
X51046Y-31170D02*
X51062Y-31187D01*
X51079Y-31220D01*
X51079Y-31270D01*
X51062Y-31303D01*
X51029Y-31320D01*
X50846Y-31320D01*
X51029Y-31320D02*
X51062Y-31337D01*
X51079Y-31370D01*
X51079Y-31420D01*
X51062Y-31453D01*
X51029Y-31470D01*
X50846Y-31470D01*
X50846Y-31637D02*
X51079Y-31637D01*
X51046Y-31637D02*
X51062Y-31653D01*
X51079Y-31687D01*
X51079Y-31737D01*
X51062Y-31770D01*
X51029Y-31787D01*
X50846Y-31787D01*
X51029Y-31787D02*
X51062Y-31803D01*
X51079Y-31837D01*
X51079Y-31887D01*
X51062Y-31920D01*
X51029Y-31937D01*
X50846Y-31937D01*
X51279Y-24133D02*
X51279Y-38307D01*
X53307Y-24133D02*
X50729Y-24133D01*
X53307Y-38307D02*
X50729Y-38307D01*
X51279Y-38307D02*
X51048Y-37863D01*
X51279Y-38307D02*
X51510Y-37863D01*
X51279Y-24133D02*
X51048Y-24577D01*
X51279Y-24133D02*
X51510Y-24577D01*
X67252Y-22235D02*
X67052Y-22235D01*
X67152Y-22235D02*
X67152Y-21885D01*
X67118Y-21935D01*
X67085Y-21968D01*
X67052Y-21985D01*
X67552Y-22001D02*
X67552Y-22235D01*
X67468Y-21868D02*
X67385Y-22118D01*
X67602Y-22118D01*
X67735Y-22235D02*
X67735Y-22001D01*
X67735Y-22035D02*
X67752Y-22018D01*
X67785Y-22001D01*
X67835Y-22001D01*
X67868Y-22018D01*
X67885Y-22051D01*
X67885Y-22235D01*
X67885Y-22051D02*
X67902Y-22018D01*
X67935Y-22001D01*
X67985Y-22001D01*
X68018Y-22018D01*
X68035Y-22051D01*
X68035Y-22235D01*
X68202Y-22235D02*
X68202Y-22001D01*
X68202Y-22035D02*
X68218Y-22018D01*
X68252Y-22001D01*
X68302Y-22001D01*
X68335Y-22018D01*
X68352Y-22051D01*
X68352Y-22235D01*
X68352Y-22051D02*
X68368Y-22018D01*
X68402Y-22001D01*
X68452Y-22001D01*
X68485Y-22018D01*
X68502Y-22051D01*
X68502Y-22235D01*
X64330Y-22352D02*
X69842Y-22352D01*
X64330Y-24133D02*
X64330Y-21802D01*
X69842Y-24133D02*
X69842Y-21802D01*
X69842Y-22352D02*
X69399Y-22583D01*
X69842Y-22352D02*
X69399Y-22121D01*
X64330Y-22352D02*
X64774Y-22583D01*
X64330Y-22352D02*
X64774Y-22121D01*
X61041Y-22235D02*
X60841Y-22235D01*
X60941Y-22235D02*
X60941Y-21885D01*
X60908Y-21935D01*
X60874Y-21969D01*
X60841Y-21985D01*
X61341Y-22002D02*
X61341Y-22235D01*
X61258Y-21869D02*
X61174Y-22119D01*
X61391Y-22119D01*
X61524Y-22235D02*
X61524Y-22002D01*
X61524Y-22035D02*
X61541Y-22019D01*
X61574Y-22002D01*
X61624Y-22002D01*
X61658Y-22019D01*
X61674Y-22052D01*
X61674Y-22235D01*
X61674Y-22052D02*
X61691Y-22019D01*
X61724Y-22002D01*
X61774Y-22002D01*
X61808Y-22019D01*
X61824Y-22052D01*
X61824Y-22235D01*
X61991Y-22235D02*
X61991Y-22002D01*
X61991Y-22035D02*
X62008Y-22019D01*
X62041Y-22002D01*
X62091Y-22002D01*
X62124Y-22019D01*
X62141Y-22052D01*
X62141Y-22235D01*
X62141Y-22052D02*
X62158Y-22019D01*
X62191Y-22002D01*
X62241Y-22002D01*
X62274Y-22019D01*
X62291Y-22052D01*
X62291Y-22235D01*
X58818Y-22352D02*
X64330Y-22352D01*
X58818Y-24133D02*
X58818Y-21802D01*
X64330Y-24133D02*
X64330Y-21802D01*
X64330Y-22352D02*
X63887Y-22583D01*
X64330Y-22352D02*
X63887Y-22121D01*
X58818Y-22352D02*
X59262Y-22583D01*
X58818Y-22352D02*
X59262Y-22121D01*
X55529Y-22235D02*
X55329Y-22235D01*
X55429Y-22235D02*
X55429Y-21885D01*
X55396Y-21935D01*
X55362Y-21969D01*
X55329Y-21985D01*
X55829Y-22002D02*
X55829Y-22235D01*
X55746Y-21869D02*
X55662Y-22119D01*
X55879Y-22119D01*
X56012Y-22235D02*
X56012Y-22002D01*
X56012Y-22035D02*
X56029Y-22019D01*
X56062Y-22002D01*
X56112Y-22002D01*
X56146Y-22019D01*
X56162Y-22052D01*
X56162Y-22235D01*
X56162Y-22052D02*
X56179Y-22019D01*
X56212Y-22002D01*
X56262Y-22002D01*
X56296Y-22019D01*
X56312Y-22052D01*
X56312Y-22235D01*
X56479Y-22235D02*
X56479Y-22002D01*
X56479Y-22035D02*
X56496Y-22019D01*
X56529Y-22002D01*
X56579Y-22002D01*
X56612Y-22019D01*
X56629Y-22052D01*
X56629Y-22235D01*
X56629Y-22052D02*
X56646Y-22019D01*
X56679Y-22002D01*
X56729Y-22002D01*
X56762Y-22019D01*
X56779Y-22052D01*
X56779Y-22235D01*
X53307Y-22352D02*
X58818Y-22352D01*
X53307Y-24133D02*
X53307Y-21802D01*
X58818Y-24133D02*
X58818Y-21802D01*
X58818Y-22352D02*
X58375Y-22583D01*
X58818Y-22352D02*
X58375Y-22121D01*
X53307Y-22352D02*
X53750Y-22583D01*
X53307Y-22352D02*
X53750Y-22121D01*
X25186Y-58836D02*
X25153Y-58820D01*
X25136Y-58803D01*
X25119Y-58770D01*
X25119Y-58753D01*
X25136Y-58720D01*
X25153Y-58703D01*
X25186Y-58686D01*
X25253Y-58686D01*
X25286Y-58703D01*
X25303Y-58720D01*
X25319Y-58753D01*
X25319Y-58770D01*
X25303Y-58803D01*
X25286Y-58820D01*
X25253Y-58836D01*
X25186Y-58836D01*
X25153Y-58853D01*
X25136Y-58870D01*
X25119Y-58903D01*
X25119Y-58970D01*
X25136Y-59003D01*
X25153Y-59020D01*
X25186Y-59036D01*
X25253Y-59036D01*
X25286Y-59020D01*
X25303Y-59003D01*
X25319Y-58970D01*
X25319Y-58903D01*
X25303Y-58870D01*
X25286Y-58853D01*
X25253Y-58836D01*
X25436Y-58686D02*
X25653Y-58686D01*
X25536Y-58820D01*
X25586Y-58820D01*
X25619Y-58836D01*
X25636Y-58853D01*
X25653Y-58886D01*
X25653Y-58970D01*
X25636Y-59003D01*
X25619Y-59020D01*
X25586Y-59036D01*
X25486Y-59036D01*
X25453Y-59020D01*
X25436Y-59003D01*
X25803Y-59003D02*
X25819Y-59020D01*
X25803Y-59036D01*
X25786Y-59020D01*
X25803Y-59003D01*
X25803Y-59036D01*
X25986Y-59036D02*
X26053Y-59036D01*
X26086Y-59020D01*
X26103Y-59003D01*
X26136Y-58953D01*
X26153Y-58886D01*
X26153Y-58753D01*
X26136Y-58720D01*
X26119Y-58703D01*
X26086Y-58686D01*
X26019Y-58686D01*
X25986Y-58703D01*
X25969Y-58720D01*
X25953Y-58753D01*
X25953Y-58836D01*
X25969Y-58870D01*
X25986Y-58886D01*
X26019Y-58903D01*
X26086Y-58903D01*
X26119Y-58886D01*
X26136Y-58870D01*
X26153Y-58836D01*
X26269Y-58686D02*
X26503Y-58686D01*
X26353Y-59036D01*
X26803Y-58686D02*
X26636Y-58686D01*
X26619Y-58853D01*
X26636Y-58836D01*
X26669Y-58820D01*
X26753Y-58820D01*
X26786Y-58836D01*
X26803Y-58853D01*
X26819Y-58886D01*
X26819Y-58970D01*
X26803Y-59003D01*
X26786Y-59020D01*
X26753Y-59036D01*
X26669Y-59036D01*
X26636Y-59020D01*
X26619Y-59003D01*
X27236Y-59036D02*
X27236Y-58803D01*
X27236Y-58836D02*
X27253Y-58820D01*
X27286Y-58803D01*
X27336Y-58803D01*
X27369Y-58820D01*
X27386Y-58853D01*
X27386Y-59036D01*
X27386Y-58853D02*
X27403Y-58820D01*
X27436Y-58803D01*
X27486Y-58803D01*
X27519Y-58820D01*
X27536Y-58853D01*
X27536Y-59036D01*
X27703Y-59036D02*
X27703Y-58803D01*
X27703Y-58836D02*
X27719Y-58820D01*
X27753Y-58803D01*
X27803Y-58803D01*
X27836Y-58820D01*
X27853Y-58853D01*
X27853Y-59036D01*
X27853Y-58853D02*
X27869Y-58820D01*
X27903Y-58803D01*
X27953Y-58803D01*
X27986Y-58820D01*
X28003Y-58853D01*
X28003Y-59036D01*
X43100Y-59153D02*
X10039Y-59153D01*
X43100Y-61820D02*
X43100Y-58603D01*
X10039Y-61820D02*
X10039Y-58603D01*
X10039Y-59153D02*
X10482Y-58922D01*
X10039Y-59153D02*
X10482Y-59384D01*
X43100Y-59153D02*
X42656Y-58922D01*
X43100Y-59153D02*
X42656Y-59384D01*
X41202Y-64381D02*
X41218Y-64398D01*
X41235Y-64431D01*
X41235Y-64515D01*
X41218Y-64548D01*
X41202Y-64565D01*
X41168Y-64581D01*
X41135Y-64581D01*
X41085Y-64565D01*
X40885Y-64365D01*
X40885Y-64581D01*
X41235Y-64798D02*
X41235Y-64831D01*
X41218Y-64865D01*
X41202Y-64881D01*
X41168Y-64898D01*
X41102Y-64915D01*
X41018Y-64915D01*
X40952Y-64898D01*
X40918Y-64881D01*
X40902Y-64865D01*
X40885Y-64831D01*
X40885Y-64798D01*
X40902Y-64765D01*
X40918Y-64748D01*
X40952Y-64731D01*
X41018Y-64715D01*
X41102Y-64715D01*
X41168Y-64731D01*
X41202Y-64748D01*
X41218Y-64765D01*
X41235Y-64798D01*
X40918Y-65065D02*
X40902Y-65081D01*
X40885Y-65065D01*
X40902Y-65048D01*
X40918Y-65065D01*
X40885Y-65065D01*
X41235Y-65198D02*
X41235Y-65415D01*
X41102Y-65298D01*
X41102Y-65348D01*
X41085Y-65381D01*
X41068Y-65398D01*
X41035Y-65415D01*
X40952Y-65415D01*
X40918Y-65398D01*
X40902Y-65381D01*
X40885Y-65348D01*
X40885Y-65248D01*
X40902Y-65215D01*
X40918Y-65198D01*
X41235Y-65531D02*
X41235Y-65765D01*
X40885Y-65615D01*
X41235Y-66065D02*
X41235Y-65898D01*
X41068Y-65881D01*
X41085Y-65898D01*
X41102Y-65931D01*
X41102Y-66015D01*
X41085Y-66048D01*
X41068Y-66065D01*
X41035Y-66081D01*
X40952Y-66081D01*
X40918Y-66065D01*
X40902Y-66048D01*
X40885Y-66015D01*
X40885Y-65931D01*
X40902Y-65898D01*
X40918Y-65881D01*
X40885Y-66498D02*
X41118Y-66498D01*
X41085Y-66498D02*
X41102Y-66515D01*
X41118Y-66548D01*
X41118Y-66598D01*
X41102Y-66631D01*
X41068Y-66648D01*
X40885Y-66648D01*
X41068Y-66648D02*
X41102Y-66665D01*
X41118Y-66698D01*
X41118Y-66748D01*
X41102Y-66781D01*
X41068Y-66798D01*
X40885Y-66798D01*
X40885Y-66965D02*
X41118Y-66965D01*
X41085Y-66965D02*
X41102Y-66981D01*
X41118Y-67015D01*
X41118Y-67065D01*
X41102Y-67098D01*
X41068Y-67115D01*
X40885Y-67115D01*
X41068Y-67115D02*
X41102Y-67131D01*
X41118Y-67165D01*
X41118Y-67215D01*
X41102Y-67248D01*
X41068Y-67265D01*
X40885Y-67265D01*
X41318Y-61820D02*
X41318Y-69842D01*
X43100Y-61820D02*
X40768Y-61820D01*
X43100Y-69842D02*
X40768Y-69842D01*
X41318Y-69842D02*
X41088Y-69399D01*
X41318Y-69842D02*
X41549Y-69399D01*
X41318Y-61820D02*
X41088Y-62264D01*
X41318Y-61820D02*
X41549Y-62264D01*
X18983Y-59528D02*
X18749Y-59528D01*
X19116Y-59445D02*
X18866Y-59362D01*
X18866Y-59578D01*
X19099Y-59878D02*
X19099Y-59712D01*
X18933Y-59695D01*
X18949Y-59712D01*
X18966Y-59745D01*
X18966Y-59828D01*
X18949Y-59862D01*
X18933Y-59878D01*
X18899Y-59895D01*
X18816Y-59895D01*
X18783Y-59878D01*
X18766Y-59862D01*
X18749Y-59828D01*
X18749Y-59745D01*
X18766Y-59712D01*
X18783Y-59695D01*
X18783Y-60045D02*
X18766Y-60062D01*
X18749Y-60045D01*
X18766Y-60028D01*
X18783Y-60045D01*
X18749Y-60045D01*
X18949Y-60262D02*
X18966Y-60228D01*
X18983Y-60212D01*
X19016Y-60195D01*
X19033Y-60195D01*
X19066Y-60212D01*
X19083Y-60228D01*
X19099Y-60262D01*
X19099Y-60328D01*
X19083Y-60362D01*
X19066Y-60378D01*
X19033Y-60395D01*
X19016Y-60395D01*
X18983Y-60378D01*
X18966Y-60362D01*
X18949Y-60328D01*
X18949Y-60262D01*
X18933Y-60228D01*
X18916Y-60212D01*
X18883Y-60195D01*
X18816Y-60195D01*
X18783Y-60212D01*
X18766Y-60228D01*
X18749Y-60262D01*
X18749Y-60328D01*
X18766Y-60362D01*
X18783Y-60378D01*
X18816Y-60395D01*
X18883Y-60395D01*
X18916Y-60378D01*
X18933Y-60362D01*
X18949Y-60328D01*
X19099Y-60512D02*
X19099Y-60745D01*
X18749Y-60595D01*
X19099Y-61045D02*
X19099Y-60878D01*
X18933Y-60862D01*
X18949Y-60878D01*
X18966Y-60912D01*
X18966Y-60995D01*
X18949Y-61028D01*
X18933Y-61045D01*
X18899Y-61062D01*
X18816Y-61062D01*
X18783Y-61045D01*
X18766Y-61028D01*
X18749Y-60995D01*
X18749Y-60912D01*
X18766Y-60878D01*
X18783Y-60862D01*
X18749Y-61478D02*
X18983Y-61478D01*
X18949Y-61478D02*
X18966Y-61495D01*
X18983Y-61528D01*
X18983Y-61578D01*
X18966Y-61612D01*
X18933Y-61628D01*
X18749Y-61628D01*
X18933Y-61628D02*
X18966Y-61645D01*
X18983Y-61678D01*
X18983Y-61728D01*
X18966Y-61762D01*
X18933Y-61778D01*
X18749Y-61778D01*
X18749Y-61945D02*
X18983Y-61945D01*
X18949Y-61945D02*
X18966Y-61962D01*
X18983Y-61995D01*
X18983Y-62045D01*
X18966Y-62078D01*
X18933Y-62095D01*
X18749Y-62095D01*
X18933Y-62095D02*
X18966Y-62112D01*
X18983Y-62145D01*
X18983Y-62195D01*
X18966Y-62228D01*
X18933Y-62245D01*
X18749Y-62245D01*
X19183Y-51781D02*
X19183Y-69842D01*
X21250Y-51781D02*
X18633Y-51781D01*
X21250Y-69842D02*
X18633Y-69842D01*
X19183Y-69842D02*
X18952Y-69399D01*
X19183Y-69842D02*
X19413Y-69399D01*
X19183Y-51781D02*
X18952Y-52225D01*
X19183Y-51781D02*
X19413Y-52225D01*
X14194Y-49497D02*
X14211Y-49481D01*
X14244Y-49464D01*
X14328Y-49464D01*
X14361Y-49481D01*
X14378Y-49497D01*
X14394Y-49531D01*
X14394Y-49564D01*
X14378Y-49614D01*
X14178Y-49814D01*
X14394Y-49814D01*
X14594Y-49614D02*
X14561Y-49597D01*
X14544Y-49581D01*
X14528Y-49547D01*
X14528Y-49531D01*
X14544Y-49497D01*
X14561Y-49481D01*
X14594Y-49464D01*
X14661Y-49464D01*
X14694Y-49481D01*
X14711Y-49497D01*
X14728Y-49531D01*
X14728Y-49547D01*
X14711Y-49581D01*
X14694Y-49597D01*
X14661Y-49614D01*
X14594Y-49614D01*
X14561Y-49631D01*
X14544Y-49647D01*
X14528Y-49681D01*
X14528Y-49747D01*
X14544Y-49781D01*
X14561Y-49797D01*
X14594Y-49814D01*
X14661Y-49814D01*
X14694Y-49797D01*
X14711Y-49781D01*
X14728Y-49747D01*
X14728Y-49681D01*
X14711Y-49647D01*
X14694Y-49631D01*
X14661Y-49614D01*
X14878Y-49781D02*
X14894Y-49797D01*
X14878Y-49814D01*
X14861Y-49797D01*
X14878Y-49781D01*
X14878Y-49814D01*
X15194Y-49581D02*
X15194Y-49814D01*
X15111Y-49447D02*
X15028Y-49697D01*
X15244Y-49697D01*
X15344Y-49464D02*
X15578Y-49464D01*
X15428Y-49814D01*
X15878Y-49464D02*
X15711Y-49464D01*
X15694Y-49631D01*
X15711Y-49614D01*
X15744Y-49597D01*
X15828Y-49597D01*
X15861Y-49614D01*
X15878Y-49631D01*
X15894Y-49664D01*
X15894Y-49747D01*
X15878Y-49781D01*
X15861Y-49797D01*
X15828Y-49814D01*
X15744Y-49814D01*
X15711Y-49797D01*
X15694Y-49781D01*
X16311Y-49814D02*
X16311Y-49581D01*
X16311Y-49614D02*
X16328Y-49597D01*
X16361Y-49581D01*
X16411Y-49581D01*
X16444Y-49597D01*
X16461Y-49631D01*
X16461Y-49814D01*
X16461Y-49631D02*
X16478Y-49597D01*
X16511Y-49581D01*
X16561Y-49581D01*
X16594Y-49597D01*
X16611Y-49631D01*
X16611Y-49814D01*
X16778Y-49814D02*
X16778Y-49581D01*
X16778Y-49614D02*
X16794Y-49597D01*
X16828Y-49581D01*
X16878Y-49581D01*
X16911Y-49597D01*
X16928Y-49631D01*
X16928Y-49814D01*
X16928Y-49631D02*
X16944Y-49597D01*
X16978Y-49581D01*
X17028Y-49581D01*
X17061Y-49597D01*
X17078Y-49631D01*
X17078Y-49814D01*
X21250Y-49931D02*
X10039Y-49931D01*
X21250Y-51781D02*
X21250Y-49381D01*
X10039Y-51781D02*
X10039Y-49381D01*
X10039Y-49931D02*
X10482Y-49700D01*
X10039Y-49931D02*
X10482Y-50161D01*
X21250Y-49931D02*
X20806Y-49700D01*
X21250Y-49931D02*
X20806Y-50161D01*
X75241Y-57379D02*
X75241Y-57213D01*
X75074Y-57196D01*
X75091Y-57213D01*
X75108Y-57246D01*
X75108Y-57329D01*
X75091Y-57363D01*
X75074Y-57379D01*
X75041Y-57396D01*
X74958Y-57396D01*
X74924Y-57379D01*
X74908Y-57363D01*
X74891Y-57329D01*
X74891Y-57246D01*
X74908Y-57213D01*
X74924Y-57196D01*
X75241Y-57696D02*
X75241Y-57629D01*
X75224Y-57596D01*
X75208Y-57579D01*
X75158Y-57546D01*
X75091Y-57529D01*
X74958Y-57529D01*
X74924Y-57546D01*
X74908Y-57563D01*
X74891Y-57596D01*
X74891Y-57663D01*
X74908Y-57696D01*
X74924Y-57713D01*
X74958Y-57729D01*
X75041Y-57729D01*
X75074Y-57713D01*
X75091Y-57696D01*
X75108Y-57663D01*
X75108Y-57596D01*
X75091Y-57563D01*
X75074Y-57546D01*
X75041Y-57529D01*
X74924Y-57879D02*
X74908Y-57896D01*
X74891Y-57879D01*
X74908Y-57863D01*
X74924Y-57879D01*
X74891Y-57879D01*
X75091Y-58096D02*
X75108Y-58063D01*
X75124Y-58046D01*
X75158Y-58029D01*
X75174Y-58029D01*
X75208Y-58046D01*
X75224Y-58063D01*
X75241Y-58096D01*
X75241Y-58163D01*
X75224Y-58196D01*
X75208Y-58213D01*
X75174Y-58229D01*
X75158Y-58229D01*
X75124Y-58213D01*
X75108Y-58196D01*
X75091Y-58163D01*
X75091Y-58096D01*
X75074Y-58063D01*
X75058Y-58046D01*
X75024Y-58029D01*
X74958Y-58029D01*
X74924Y-58046D01*
X74908Y-58063D01*
X74891Y-58096D01*
X74891Y-58163D01*
X74908Y-58196D01*
X74924Y-58213D01*
X74958Y-58229D01*
X75024Y-58229D01*
X75058Y-58213D01*
X75074Y-58196D01*
X75091Y-58163D01*
X75241Y-58346D02*
X75241Y-58579D01*
X74891Y-58429D01*
X75241Y-58879D02*
X75241Y-58713D01*
X75074Y-58696D01*
X75091Y-58713D01*
X75108Y-58746D01*
X75108Y-58829D01*
X75091Y-58863D01*
X75074Y-58879D01*
X75041Y-58896D01*
X74958Y-58896D01*
X74924Y-58879D01*
X74908Y-58863D01*
X74891Y-58829D01*
X74891Y-58746D01*
X74908Y-58713D01*
X74924Y-58696D01*
X74891Y-59313D02*
X75124Y-59313D01*
X75091Y-59313D02*
X75108Y-59329D01*
X75124Y-59363D01*
X75124Y-59413D01*
X75108Y-59446D01*
X75074Y-59463D01*
X74891Y-59463D01*
X75074Y-59463D02*
X75108Y-59479D01*
X75124Y-59513D01*
X75124Y-59563D01*
X75108Y-59596D01*
X75074Y-59613D01*
X74891Y-59613D01*
X74891Y-59779D02*
X75124Y-59779D01*
X75091Y-59779D02*
X75108Y-59796D01*
X75124Y-59829D01*
X75124Y-59879D01*
X75108Y-59913D01*
X75074Y-59929D01*
X74891Y-59929D01*
X75074Y-59929D02*
X75108Y-59946D01*
X75124Y-59979D01*
X75124Y-60029D01*
X75108Y-60063D01*
X75074Y-60079D01*
X74891Y-60079D01*
X75324Y-47450D02*
X75324Y-69842D01*
X79124Y-47450D02*
X74774Y-47450D01*
X79124Y-69842D02*
X74774Y-69842D01*
X75324Y-69842D02*
X75093Y-69399D01*
X75324Y-69842D02*
X75555Y-69399D01*
X75324Y-47450D02*
X75093Y-47894D01*
X75324Y-47450D02*
X75555Y-47894D01*
X80733Y-45385D02*
X80533Y-45385D01*
X80633Y-45385D02*
X80633Y-45035D01*
X80599Y-45085D01*
X80566Y-45118D01*
X80533Y-45135D01*
X81033Y-45151D02*
X81033Y-45385D01*
X80949Y-45018D02*
X80866Y-45268D01*
X81083Y-45268D01*
X81216Y-45351D02*
X81233Y-45368D01*
X81216Y-45385D01*
X81199Y-45368D01*
X81216Y-45351D01*
X81216Y-45385D01*
X81549Y-45035D02*
X81383Y-45035D01*
X81366Y-45201D01*
X81383Y-45185D01*
X81416Y-45168D01*
X81499Y-45168D01*
X81533Y-45185D01*
X81549Y-45201D01*
X81566Y-45235D01*
X81566Y-45318D01*
X81549Y-45351D01*
X81533Y-45368D01*
X81499Y-45385D01*
X81416Y-45385D01*
X81383Y-45368D01*
X81366Y-45351D01*
X81699Y-45068D02*
X81716Y-45051D01*
X81749Y-45035D01*
X81833Y-45035D01*
X81866Y-45051D01*
X81883Y-45068D01*
X81899Y-45101D01*
X81899Y-45135D01*
X81883Y-45185D01*
X81683Y-45385D01*
X81899Y-45385D01*
X82216Y-45035D02*
X82049Y-45035D01*
X82033Y-45201D01*
X82049Y-45185D01*
X82083Y-45168D01*
X82166Y-45168D01*
X82199Y-45185D01*
X82216Y-45201D01*
X82233Y-45235D01*
X82233Y-45318D01*
X82216Y-45351D01*
X82199Y-45368D01*
X82166Y-45385D01*
X82083Y-45385D01*
X82049Y-45368D01*
X82033Y-45351D01*
X82649Y-45385D02*
X82649Y-45151D01*
X82649Y-45185D02*
X82666Y-45168D01*
X82699Y-45151D01*
X82749Y-45151D01*
X82783Y-45168D01*
X82799Y-45201D01*
X82799Y-45385D01*
X82799Y-45201D02*
X82816Y-45168D01*
X82849Y-45151D01*
X82899Y-45151D01*
X82933Y-45168D01*
X82949Y-45201D01*
X82949Y-45385D01*
X83116Y-45385D02*
X83116Y-45151D01*
X83116Y-45185D02*
X83133Y-45168D01*
X83166Y-45151D01*
X83216Y-45151D01*
X83249Y-45168D01*
X83266Y-45201D01*
X83266Y-45385D01*
X83266Y-45201D02*
X83283Y-45168D01*
X83316Y-45151D01*
X83366Y-45151D01*
X83399Y-45168D01*
X83416Y-45201D01*
X83416Y-45385D01*
X79124Y-45501D02*
X84842Y-45501D01*
X79124Y-47450D02*
X79124Y-44951D01*
X84842Y-47450D02*
X84842Y-44951D01*
X84842Y-45501D02*
X84399Y-45732D01*
X84842Y-45501D02*
X84399Y-45271D01*
X79124Y-45501D02*
X79567Y-45732D01*
X79124Y-45501D02*
X79567Y-45271D01*
X68337Y-45035D02*
X68171Y-45035D01*
X68154Y-45201D01*
X68171Y-45185D01*
X68204Y-45168D01*
X68287Y-45168D01*
X68321Y-45185D01*
X68337Y-45201D01*
X68354Y-45235D01*
X68354Y-45318D01*
X68337Y-45351D01*
X68321Y-45368D01*
X68287Y-45385D01*
X68204Y-45385D01*
X68171Y-45368D01*
X68154Y-45351D01*
X68487Y-45068D02*
X68504Y-45051D01*
X68537Y-45035D01*
X68621Y-45035D01*
X68654Y-45051D01*
X68671Y-45068D01*
X68687Y-45101D01*
X68687Y-45135D01*
X68671Y-45185D01*
X68471Y-45385D01*
X68687Y-45385D01*
X68837Y-45385D02*
X68837Y-45151D01*
X68837Y-45185D02*
X68854Y-45168D01*
X68887Y-45151D01*
X68937Y-45151D01*
X68971Y-45168D01*
X68987Y-45201D01*
X68987Y-45385D01*
X68987Y-45201D02*
X69004Y-45168D01*
X69037Y-45151D01*
X69087Y-45151D01*
X69121Y-45168D01*
X69137Y-45201D01*
X69137Y-45385D01*
X69304Y-45385D02*
X69304Y-45151D01*
X69304Y-45185D02*
X69321Y-45168D01*
X69354Y-45151D01*
X69404Y-45151D01*
X69437Y-45168D01*
X69454Y-45201D01*
X69454Y-45385D01*
X69454Y-45201D02*
X69471Y-45168D01*
X69504Y-45151D01*
X69554Y-45151D01*
X69587Y-45168D01*
X69604Y-45201D01*
X69604Y-45385D01*
X58651Y-45501D02*
X79124Y-45501D01*
X58651Y-47450D02*
X58651Y-44951D01*
X79124Y-47450D02*
X79124Y-44951D01*
X79124Y-45501D02*
X78680Y-45732D01*
X79124Y-45501D02*
X78680Y-45271D01*
X58651Y-45501D02*
X59095Y-45732D01*
X58651Y-45501D02*
X59095Y-45271D01*
X45310Y-53344D02*
X45310Y-53577D01*
X44960Y-53427D01*
X45277Y-53694D02*
X45293Y-53711D01*
X45310Y-53744D01*
X45310Y-53827D01*
X45293Y-53861D01*
X45277Y-53877D01*
X45243Y-53894D01*
X45210Y-53894D01*
X45160Y-53877D01*
X44960Y-53677D01*
X44960Y-53894D01*
X44960Y-54044D02*
X45193Y-54044D01*
X45160Y-54044D02*
X45177Y-54061D01*
X45193Y-54094D01*
X45193Y-54144D01*
X45177Y-54177D01*
X45143Y-54194D01*
X44960Y-54194D01*
X45143Y-54194D02*
X45177Y-54211D01*
X45193Y-54244D01*
X45193Y-54294D01*
X45177Y-54327D01*
X45143Y-54344D01*
X44960Y-54344D01*
X44960Y-54511D02*
X45193Y-54511D01*
X45160Y-54511D02*
X45177Y-54527D01*
X45193Y-54561D01*
X45193Y-54611D01*
X45177Y-54644D01*
X45143Y-54661D01*
X44960Y-54661D01*
X45143Y-54661D02*
X45177Y-54677D01*
X45193Y-54711D01*
X45193Y-54761D01*
X45177Y-54794D01*
X45143Y-54811D01*
X44960Y-54811D01*
X45393Y-39921D02*
X45393Y-68267D01*
X47440Y-39921D02*
X44843Y-39921D01*
X47440Y-68267D02*
X44843Y-68267D01*
X45393Y-68267D02*
X45162Y-67824D01*
X45393Y-68267D02*
X45624Y-67824D01*
X45393Y-39921D02*
X45162Y-40364D01*
X45393Y-39921D02*
X45624Y-40364D01*
X28827Y-36340D02*
X28894Y-36340D01*
X28927Y-36323D01*
X28944Y-36306D01*
X28977Y-36256D01*
X28994Y-36190D01*
X28994Y-36056D01*
X28977Y-36023D01*
X28960Y-36006D01*
X28927Y-35990D01*
X28860Y-35990D01*
X28827Y-36006D01*
X28810Y-36023D01*
X28794Y-36056D01*
X28794Y-36140D01*
X28810Y-36173D01*
X28827Y-36190D01*
X28860Y-36206D01*
X28927Y-36206D01*
X28960Y-36190D01*
X28977Y-36173D01*
X28994Y-36140D01*
X29327Y-36340D02*
X29127Y-36340D01*
X29227Y-36340D02*
X29227Y-35990D01*
X29194Y-36040D01*
X29160Y-36073D01*
X29127Y-36090D01*
X29477Y-36340D02*
X29477Y-36106D01*
X29477Y-36140D02*
X29494Y-36123D01*
X29527Y-36106D01*
X29577Y-36106D01*
X29610Y-36123D01*
X29627Y-36156D01*
X29627Y-36340D01*
X29627Y-36156D02*
X29644Y-36123D01*
X29677Y-36106D01*
X29727Y-36106D01*
X29760Y-36123D01*
X29777Y-36156D01*
X29777Y-36340D01*
X29944Y-36340D02*
X29944Y-36106D01*
X29944Y-36140D02*
X29960Y-36123D01*
X29994Y-36106D01*
X30044Y-36106D01*
X30077Y-36123D01*
X30094Y-36156D01*
X30094Y-36340D01*
X30094Y-36156D02*
X30110Y-36123D01*
X30144Y-36106D01*
X30194Y-36106D01*
X30227Y-36123D01*
X30244Y-36156D01*
X30244Y-36340D01*
X11614Y-36456D02*
X47440Y-36456D01*
X11614Y-39921D02*
X11614Y-35906D01*
X47440Y-39921D02*
X47440Y-35906D01*
X47440Y-36456D02*
X46997Y-36687D01*
X47440Y-36456D02*
X46997Y-36225D01*
X11614Y-36456D02*
X12057Y-36687D01*
X11614Y-36456D02*
X12057Y-36225D01*
X64654Y-71712D02*
X64720Y-71712D01*
X64754Y-71696D01*
X64770Y-71679D01*
X64804Y-71629D01*
X64820Y-71562D01*
X64820Y-71429D01*
X64804Y-71396D01*
X64787Y-71379D01*
X64754Y-71362D01*
X64687Y-71362D01*
X64654Y-71379D01*
X64637Y-71396D01*
X64620Y-71429D01*
X64620Y-71512D01*
X64637Y-71546D01*
X64654Y-71562D01*
X64687Y-71579D01*
X64754Y-71579D01*
X64787Y-71562D01*
X64804Y-71546D01*
X64820Y-71512D01*
X65154Y-71712D02*
X64954Y-71712D01*
X65054Y-71712D02*
X65054Y-71362D01*
X65020Y-71412D01*
X64987Y-71446D01*
X64954Y-71462D01*
X65304Y-71712D02*
X65304Y-71479D01*
X65304Y-71512D02*
X65320Y-71496D01*
X65354Y-71479D01*
X65404Y-71479D01*
X65437Y-71496D01*
X65454Y-71529D01*
X65454Y-71712D01*
X65454Y-71529D02*
X65470Y-71496D01*
X65504Y-71479D01*
X65554Y-71479D01*
X65587Y-71496D01*
X65604Y-71529D01*
X65604Y-71712D01*
X65770Y-71712D02*
X65770Y-71479D01*
X65770Y-71512D02*
X65787Y-71496D01*
X65820Y-71479D01*
X65870Y-71479D01*
X65904Y-71496D01*
X65920Y-71529D01*
X65920Y-71712D01*
X65920Y-71529D02*
X65937Y-71496D01*
X65970Y-71479D01*
X66020Y-71479D01*
X66054Y-71496D01*
X66070Y-71529D01*
X66070Y-71712D01*
X47440Y-71279D02*
X83267Y-71279D01*
X47440Y-68267D02*
X47440Y-71829D01*
X83267Y-68267D02*
X83267Y-71829D01*
X83267Y-71279D02*
X82824Y-71510D01*
X83267Y-71279D02*
X82824Y-71048D01*
X47440Y-71279D02*
X47884Y-71510D01*
X47440Y-71279D02*
X47884Y-71048D01*
X28827Y-71712D02*
X28894Y-71712D01*
X28927Y-71696D01*
X28944Y-71679D01*
X28977Y-71629D01*
X28994Y-71562D01*
X28994Y-71429D01*
X28977Y-71396D01*
X28960Y-71379D01*
X28927Y-71362D01*
X28860Y-71362D01*
X28827Y-71379D01*
X28810Y-71396D01*
X28794Y-71429D01*
X28794Y-71512D01*
X28810Y-71546D01*
X28827Y-71562D01*
X28860Y-71579D01*
X28927Y-71579D01*
X28960Y-71562D01*
X28977Y-71546D01*
X28994Y-71512D01*
X29327Y-71712D02*
X29127Y-71712D01*
X29227Y-71712D02*
X29227Y-71362D01*
X29194Y-71412D01*
X29160Y-71446D01*
X29127Y-71462D01*
X29477Y-71712D02*
X29477Y-71479D01*
X29477Y-71512D02*
X29494Y-71496D01*
X29527Y-71479D01*
X29577Y-71479D01*
X29610Y-71496D01*
X29627Y-71529D01*
X29627Y-71712D01*
X29627Y-71529D02*
X29644Y-71496D01*
X29677Y-71479D01*
X29727Y-71479D01*
X29760Y-71496D01*
X29777Y-71529D01*
X29777Y-71712D01*
X29944Y-71712D02*
X29944Y-71479D01*
X29944Y-71512D02*
X29960Y-71496D01*
X29994Y-71479D01*
X30044Y-71479D01*
X30077Y-71496D01*
X30094Y-71529D01*
X30094Y-71712D01*
X30094Y-71529D02*
X30110Y-71496D01*
X30144Y-71479D01*
X30194Y-71479D01*
X30227Y-71496D01*
X30244Y-71529D01*
X30244Y-71712D01*
X11614Y-71279D02*
X47440Y-71279D01*
X11614Y-68267D02*
X11614Y-71829D01*
X47440Y-68267D02*
X47440Y-71829D01*
X47440Y-71279D02*
X46997Y-71510D01*
X47440Y-71279D02*
X46997Y-71048D01*
X11614Y-71279D02*
X12057Y-71510D01*
X11614Y-71279D02*
X12057Y-71048D01*
X7534Y-16730D02*
X7534Y-16946D01*
X7401Y-16830D01*
X7401Y-16880D01*
X7384Y-16913D01*
X7368Y-16930D01*
X7334Y-16946D01*
X7251Y-16946D01*
X7218Y-16930D01*
X7201Y-16913D01*
X7184Y-16880D01*
X7184Y-16780D01*
X7201Y-16746D01*
X7218Y-16730D01*
X7534Y-17163D02*
X7534Y-17196D01*
X7518Y-17230D01*
X7501Y-17246D01*
X7468Y-17263D01*
X7401Y-17280D01*
X7318Y-17280D01*
X7251Y-17263D01*
X7218Y-17246D01*
X7201Y-17230D01*
X7184Y-17196D01*
X7184Y-17163D01*
X7201Y-17130D01*
X7218Y-17113D01*
X7251Y-17096D01*
X7318Y-17080D01*
X7401Y-17080D01*
X7468Y-17096D01*
X7501Y-17113D01*
X7518Y-17130D01*
X7534Y-17163D01*
X7184Y-17430D02*
X7418Y-17430D01*
X7384Y-17430D02*
X7401Y-17446D01*
X7418Y-17480D01*
X7418Y-17530D01*
X7401Y-17563D01*
X7368Y-17580D01*
X7184Y-17580D01*
X7368Y-17580D02*
X7401Y-17596D01*
X7418Y-17630D01*
X7418Y-17680D01*
X7401Y-17713D01*
X7368Y-17730D01*
X7184Y-17730D01*
X7184Y-17896D02*
X7418Y-17896D01*
X7384Y-17896D02*
X7401Y-17913D01*
X7418Y-17946D01*
X7418Y-17996D01*
X7401Y-18030D01*
X7368Y-18046D01*
X7184Y-18046D01*
X7368Y-18046D02*
X7401Y-18063D01*
X7418Y-18096D01*
X7418Y-18146D01*
X7401Y-18180D01*
X7368Y-18196D01*
X7184Y-18196D01*
X7618Y-11574D02*
X7618Y-23385D01*
X11614Y-11574D02*
X7068Y-11574D01*
X11614Y-23385D02*
X7068Y-23385D01*
X7618Y-23385D02*
X7387Y-22942D01*
X7618Y-23385D02*
X7848Y-22942D01*
X7618Y-11574D02*
X7387Y-12018D01*
X7618Y-11574D02*
X7848Y-12018D01*
X6501Y-53344D02*
X6501Y-53577D01*
X6151Y-53427D01*
X6467Y-53694D02*
X6484Y-53711D01*
X6501Y-53744D01*
X6501Y-53827D01*
X6484Y-53861D01*
X6467Y-53877D01*
X6434Y-53894D01*
X6401Y-53894D01*
X6351Y-53877D01*
X6151Y-53677D01*
X6151Y-53894D01*
X6151Y-54044D02*
X6384Y-54044D01*
X6351Y-54044D02*
X6367Y-54061D01*
X6384Y-54094D01*
X6384Y-54144D01*
X6367Y-54177D01*
X6334Y-54194D01*
X6151Y-54194D01*
X6334Y-54194D02*
X6367Y-54211D01*
X6384Y-54244D01*
X6384Y-54294D01*
X6367Y-54327D01*
X6334Y-54344D01*
X6151Y-54344D01*
X6151Y-54511D02*
X6384Y-54511D01*
X6351Y-54511D02*
X6367Y-54527D01*
X6384Y-54561D01*
X6384Y-54611D01*
X6367Y-54644D01*
X6334Y-54661D01*
X6151Y-54661D01*
X6334Y-54661D02*
X6367Y-54677D01*
X6384Y-54711D01*
X6384Y-54761D01*
X6367Y-54794D01*
X6334Y-54811D01*
X6151Y-54811D01*
X6584Y-39921D02*
X6584Y-68267D01*
X11614Y-39921D02*
X6034Y-39921D01*
X11614Y-68267D02*
X6034Y-68267D01*
X6584Y-68267D02*
X6353Y-67824D01*
X6584Y-68267D02*
X6815Y-67824D01*
X6584Y-39921D02*
X6353Y-40364D01*
X6584Y-39921D02*
X6815Y-40364D01*
X6501Y-24998D02*
X6501Y-25231D01*
X6151Y-25081D01*
X6467Y-25348D02*
X6484Y-25364D01*
X6501Y-25398D01*
X6501Y-25481D01*
X6484Y-25514D01*
X6467Y-25531D01*
X6434Y-25548D01*
X6401Y-25548D01*
X6351Y-25531D01*
X6151Y-25331D01*
X6151Y-25548D01*
X6151Y-25698D02*
X6384Y-25698D01*
X6351Y-25698D02*
X6367Y-25714D01*
X6384Y-25748D01*
X6384Y-25798D01*
X6367Y-25831D01*
X6334Y-25848D01*
X6151Y-25848D01*
X6334Y-25848D02*
X6367Y-25864D01*
X6384Y-25898D01*
X6384Y-25948D01*
X6367Y-25981D01*
X6334Y-25998D01*
X6151Y-25998D01*
X6151Y-26164D02*
X6384Y-26164D01*
X6351Y-26164D02*
X6367Y-26181D01*
X6384Y-26214D01*
X6384Y-26264D01*
X6367Y-26298D01*
X6334Y-26314D01*
X6151Y-26314D01*
X6334Y-26314D02*
X6367Y-26331D01*
X6384Y-26364D01*
X6384Y-26414D01*
X6367Y-26448D01*
X6334Y-26464D01*
X6151Y-26464D01*
X6584Y-11574D02*
X6584Y-39921D01*
X11614Y-11574D02*
X6034Y-11574D01*
X11614Y-39921D02*
X6034Y-39921D01*
X6584Y-39921D02*
X6353Y-39477D01*
X6584Y-39921D02*
X6815Y-39477D01*
X6584Y-11574D02*
X6353Y-12018D01*
X6584Y-11574D02*
X6815Y-12018D01*
X5334Y-39221D02*
X5334Y-39021D01*
X5334Y-39121D02*
X5684Y-39121D01*
X5634Y-39087D01*
X5601Y-39054D01*
X5584Y-39021D01*
X5684Y-39537D02*
X5684Y-39371D01*
X5517Y-39354D01*
X5534Y-39371D01*
X5551Y-39404D01*
X5551Y-39487D01*
X5534Y-39521D01*
X5517Y-39537D01*
X5484Y-39554D01*
X5401Y-39554D01*
X5367Y-39537D01*
X5351Y-39521D01*
X5334Y-39487D01*
X5334Y-39404D01*
X5351Y-39371D01*
X5367Y-39354D01*
X5651Y-39687D02*
X5667Y-39704D01*
X5684Y-39737D01*
X5684Y-39821D01*
X5667Y-39854D01*
X5651Y-39871D01*
X5617Y-39887D01*
X5584Y-39887D01*
X5534Y-39871D01*
X5334Y-39671D01*
X5334Y-39887D01*
X5334Y-40037D02*
X5567Y-40037D01*
X5534Y-40037D02*
X5551Y-40054D01*
X5567Y-40087D01*
X5567Y-40137D01*
X5551Y-40171D01*
X5517Y-40187D01*
X5334Y-40187D01*
X5517Y-40187D02*
X5551Y-40204D01*
X5567Y-40237D01*
X5567Y-40287D01*
X5551Y-40321D01*
X5517Y-40337D01*
X5334Y-40337D01*
X5334Y-40504D02*
X5567Y-40504D01*
X5534Y-40504D02*
X5551Y-40521D01*
X5567Y-40554D01*
X5567Y-40604D01*
X5551Y-40637D01*
X5517Y-40654D01*
X5334Y-40654D01*
X5517Y-40654D02*
X5551Y-40671D01*
X5567Y-40704D01*
X5567Y-40754D01*
X5551Y-40787D01*
X5517Y-40804D01*
X5334Y-40804D01*
X5767Y-9999D02*
X5767Y-69842D01*
X11614Y-10000D02*
X5217Y-9999D01*
X11614Y-69842D02*
X5217Y-69842D01*
X5767Y-69842D02*
X5536Y-69399D01*
X5767Y-69842D02*
X5998Y-69399D01*
X5767Y-9999D02*
X5536Y-10443D01*
X5767Y-9999D02*
X5998Y-10443D01*
X46740Y-6615D02*
X46540Y-6615D01*
X46640Y-6615D02*
X46640Y-6265D01*
X46607Y-6315D01*
X46574Y-6348D01*
X46540Y-6365D01*
X46940Y-6415D02*
X46907Y-6398D01*
X46890Y-6382D01*
X46874Y-6348D01*
X46874Y-6332D01*
X46890Y-6298D01*
X46907Y-6282D01*
X46940Y-6265D01*
X47007Y-6265D01*
X47040Y-6282D01*
X47057Y-6298D01*
X47074Y-6332D01*
X47074Y-6348D01*
X47057Y-6382D01*
X47040Y-6398D01*
X47007Y-6415D01*
X46940Y-6415D01*
X46907Y-6432D01*
X46890Y-6448D01*
X46874Y-6482D01*
X46874Y-6548D01*
X46890Y-6582D01*
X46907Y-6598D01*
X46940Y-6615D01*
X47007Y-6615D01*
X47040Y-6598D01*
X47057Y-6582D01*
X47074Y-6548D01*
X47074Y-6482D01*
X47057Y-6448D01*
X47040Y-6432D01*
X47007Y-6415D01*
X47207Y-6298D02*
X47224Y-6282D01*
X47257Y-6265D01*
X47340Y-6265D01*
X47374Y-6282D01*
X47390Y-6298D01*
X47407Y-6332D01*
X47407Y-6365D01*
X47390Y-6415D01*
X47190Y-6615D01*
X47407Y-6615D01*
X47557Y-6615D02*
X47557Y-6382D01*
X47557Y-6415D02*
X47574Y-6398D01*
X47607Y-6382D01*
X47657Y-6382D01*
X47690Y-6398D01*
X47707Y-6432D01*
X47707Y-6615D01*
X47707Y-6432D02*
X47724Y-6398D01*
X47757Y-6382D01*
X47807Y-6382D01*
X47840Y-6398D01*
X47857Y-6432D01*
X47857Y-6615D01*
X48024Y-6615D02*
X48024Y-6382D01*
X48024Y-6415D02*
X48040Y-6398D01*
X48074Y-6382D01*
X48124Y-6382D01*
X48157Y-6398D01*
X48174Y-6432D01*
X48174Y-6615D01*
X48174Y-6432D02*
X48190Y-6398D01*
X48224Y-6382D01*
X48274Y-6382D01*
X48307Y-6398D01*
X48324Y-6432D01*
X48324Y-6615D01*
X11614Y-6732D02*
X83267Y-6732D01*
X11614Y-11574D02*
X11614Y-6182D01*
X83267Y-11574D02*
X83267Y-6182D01*
X83267Y-6732D02*
X82824Y-6963D01*
X83267Y-6732D02*
X82824Y-6501D01*
X11614Y-6732D02*
X12057Y-6963D01*
X11614Y-6732D02*
X12057Y-6501D01*
X46740Y-5769D02*
X46540Y-5769D01*
X46640Y-5769D02*
X46640Y-5419D01*
X46607Y-5469D01*
X46574Y-5502D01*
X46540Y-5519D01*
X46907Y-5769D02*
X46974Y-5769D01*
X47007Y-5752D01*
X47024Y-5735D01*
X47057Y-5685D01*
X47074Y-5619D01*
X47074Y-5485D01*
X47057Y-5452D01*
X47040Y-5435D01*
X47007Y-5419D01*
X46940Y-5419D01*
X46907Y-5435D01*
X46890Y-5452D01*
X46874Y-5485D01*
X46874Y-5569D01*
X46890Y-5602D01*
X46907Y-5619D01*
X46940Y-5635D01*
X47007Y-5635D01*
X47040Y-5619D01*
X47057Y-5602D01*
X47074Y-5569D01*
X47290Y-5419D02*
X47324Y-5419D01*
X47357Y-5435D01*
X47374Y-5452D01*
X47390Y-5485D01*
X47407Y-5552D01*
X47407Y-5635D01*
X47390Y-5702D01*
X47374Y-5735D01*
X47357Y-5752D01*
X47324Y-5769D01*
X47290Y-5769D01*
X47257Y-5752D01*
X47240Y-5735D01*
X47224Y-5702D01*
X47207Y-5635D01*
X47207Y-5552D01*
X47224Y-5485D01*
X47240Y-5452D01*
X47257Y-5435D01*
X47290Y-5419D01*
X47557Y-5769D02*
X47557Y-5535D01*
X47557Y-5569D02*
X47574Y-5552D01*
X47607Y-5535D01*
X47657Y-5535D01*
X47690Y-5552D01*
X47707Y-5585D01*
X47707Y-5769D01*
X47707Y-5585D02*
X47724Y-5552D01*
X47757Y-5535D01*
X47807Y-5535D01*
X47840Y-5552D01*
X47857Y-5585D01*
X47857Y-5769D01*
X48024Y-5769D02*
X48024Y-5535D01*
X48024Y-5569D02*
X48040Y-5552D01*
X48074Y-5535D01*
X48124Y-5535D01*
X48157Y-5552D01*
X48174Y-5585D01*
X48174Y-5769D01*
X48174Y-5585D02*
X48190Y-5552D01*
X48224Y-5535D01*
X48274Y-5535D01*
X48307Y-5552D01*
X48324Y-5585D01*
X48324Y-5769D01*
X10039Y-5885D02*
X84842Y-5885D01*
X10039Y-11574D02*
X10039Y-5335D01*
X84842Y-11574D02*
X84842Y-5335D01*
X84842Y-5885D02*
X84399Y-6116D01*
X84842Y-5885D02*
X84399Y-5654D01*
X10039Y-5885D02*
X10482Y-6116D01*
X10039Y-5885D02*
X10482Y-5654D01*
X84842Y-50433D02*
X82992Y-52125D01*
X84842Y-11574D02*
X84842Y-50433D01*
X82992Y-54685D02*
X82992Y-52125D01*
X82992Y-57244D02*
X82992Y-54685D01*
X84842Y-58897D02*
X82992Y-57244D01*
X84842Y-68267D02*
X84842Y-58897D01*
X11614Y-69842D02*
X83267Y-69842D01*
X10039Y-11574D02*
X10039Y-68267D01*
X83267Y-10000D02*
X11614Y-10000D01*
X84842Y-11574D02*
G75*
G03X83267Y-10000I-1574J0D01*
G74*
G01*
X83267Y-69842D02*
G75*
G03X84842Y-68267I0J1574D01*
G74*
G01*
X10039Y-68267D02*
G75*
G03X11614Y-69842I1574J0D01*
G74*
G01*
X11614Y-10000D02*
G75*
G03X10039Y-11574I0J-1574D01*
G74*
G01*
M02*
