G04 (created by PCBNEW (2013-03-15 BZR 4003)-stable) date 14-Jun-13 12:24:43 PM*
%MOIN*%
G04 Gerber Fmt 3.4, Leading zero omitted, Abs format*
%FSLAX34Y34*%
G01*
G70*
G90*
G04 APERTURE LIST*
%ADD10C,2.3622e-006*%
%ADD11C,0.005*%
%ADD12R,0.06X0.06*%
%ADD13C,0.06*%
%ADD14R,0.07X0.0875*%
%ADD15R,0.0165X0.0579*%
%ADD16R,0.0512X0.059*%
%ADD17R,0.042X0.056*%
%ADD18R,0.056X0.042*%
%ADD19R,0.059X0.0512*%
%ADD20C,0.04*%
%ADD21R,0.0512X0.0413*%
%ADD22R,0.0236X0.0787*%
%ADD23R,0.18X0.14*%
%ADD24R,0.08X0.05*%
%ADD25O,0.08X0.05*%
%ADD26R,0.054X0.016*%
%ADD27R,0.056X0.063*%
%ADD28R,0.075X0.075*%
%ADD29C,0.075*%
%ADD30C,0.045*%
%ADD31R,0.105X0.1*%
%ADD32R,0.03X0.05*%
%ADD33O,0.12X0.18*%
%ADD34R,0.12X0.18*%
%ADD35O,0.18X0.12*%
%ADD36O,0.03X0.07*%
%ADD37R,0.03X0.03*%
%ADD38C,0.18*%
%ADD39C,0.1*%
%ADD40O,0.06X0.09*%
%ADD41R,0.06X0.09*%
%ADD42C,0.035*%
%ADD43C,0.02*%
%ADD44C,0.015*%
%ADD45C,0.01*%
G04 APERTURE END LIST*
G54D10*
G54D11*
X43500Y-32000D02*
X43500Y-10000D01*
X10000Y-10000D02*
X43500Y-10000D01*
X43500Y-32000D02*
X10000Y-32000D01*
X10000Y-32000D02*
X10000Y-10000D01*
G54D12*
X18000Y-31250D03*
X18000Y-30250D03*
X18000Y-29250D03*
X18000Y-28250D03*
X18000Y-27250D03*
X18000Y-26250D03*
X18000Y-25250D03*
X18000Y-24250D03*
G54D13*
X19000Y-31250D03*
X19000Y-30250D03*
X19000Y-29250D03*
X19000Y-28250D03*
X19000Y-27250D03*
X19000Y-26250D03*
X19000Y-25250D03*
X19000Y-24250D03*
G54D14*
X12325Y-31075D03*
X10825Y-31075D03*
G54D15*
X13747Y-14098D03*
X14003Y-14098D03*
X14259Y-14098D03*
X14515Y-14098D03*
X12983Y-16300D03*
X12979Y-14098D03*
X13235Y-14098D03*
X13491Y-14098D03*
X14771Y-16302D03*
X14515Y-16302D03*
X14259Y-16302D03*
X14003Y-16302D03*
X13747Y-16302D03*
X13491Y-16302D03*
X14771Y-14098D03*
X13235Y-16300D03*
X12723Y-14098D03*
X15027Y-14098D03*
X15027Y-16302D03*
X12723Y-16302D03*
G54D16*
X12075Y-19025D03*
X12825Y-19025D03*
G54D17*
X11025Y-13250D03*
X11825Y-13250D03*
X11025Y-16300D03*
X11825Y-16300D03*
G54D18*
X28800Y-20075D03*
X28800Y-19275D03*
G54D17*
X32400Y-24300D03*
X31600Y-24300D03*
X15100Y-19925D03*
X14300Y-19925D03*
G54D18*
X29850Y-20075D03*
X29850Y-19275D03*
G54D19*
X41075Y-25700D03*
X41075Y-26450D03*
X40075Y-25700D03*
X40075Y-26450D03*
G54D20*
X11675Y-24500D03*
X11025Y-24500D03*
X10375Y-24500D03*
G54D21*
X29775Y-21700D03*
X28875Y-20950D03*
X29775Y-20950D03*
X28875Y-21700D03*
G54D22*
X16125Y-24956D03*
X15625Y-24956D03*
X15125Y-24956D03*
X14625Y-24956D03*
X14125Y-24956D03*
X13625Y-24956D03*
X13125Y-24956D03*
X12625Y-24956D03*
X12625Y-21294D03*
X13125Y-21294D03*
X13625Y-21294D03*
X14125Y-21294D03*
X14625Y-21294D03*
X15125Y-21294D03*
X15625Y-21294D03*
X16125Y-21294D03*
G54D16*
X16775Y-26700D03*
X16025Y-26700D03*
G54D23*
X22600Y-24050D03*
X22600Y-13850D03*
G54D13*
X20000Y-31250D03*
X20000Y-30250D03*
X20000Y-29250D03*
X20000Y-28250D03*
X20000Y-27250D03*
X20000Y-26250D03*
X20000Y-25250D03*
X20000Y-24250D03*
X42950Y-11050D03*
X42950Y-12050D03*
G54D12*
X42950Y-13050D03*
G54D13*
X42950Y-14050D03*
X42950Y-15050D03*
X42950Y-16050D03*
G54D24*
X31000Y-14000D03*
G54D25*
X31000Y-15000D03*
X31000Y-16000D03*
X31000Y-17000D03*
X31000Y-18000D03*
X31000Y-19000D03*
X31000Y-20000D03*
X31000Y-21000D03*
G54D24*
X32000Y-14000D03*
G54D25*
X32000Y-15000D03*
X32000Y-16000D03*
X32000Y-17000D03*
X32000Y-18000D03*
X32000Y-19000D03*
X32000Y-20000D03*
X32000Y-21000D03*
G54D26*
X11625Y-27000D03*
X11625Y-26744D03*
X11625Y-26488D03*
X11625Y-27256D03*
X11625Y-27512D03*
G54D27*
X11525Y-28250D03*
X11525Y-25750D03*
G54D28*
X10575Y-27475D03*
X10575Y-26525D03*
G54D29*
X10575Y-28300D03*
X10575Y-25700D03*
G54D13*
X37575Y-20800D03*
X36575Y-20800D03*
X37575Y-19800D03*
X36575Y-19800D03*
X37575Y-18800D03*
G54D12*
X36575Y-18800D03*
G54D30*
X11800Y-14200D03*
X11800Y-17350D03*
G54D31*
X24650Y-29500D03*
G54D32*
X25575Y-29500D03*
G54D33*
X13100Y-28450D03*
G54D34*
X15500Y-28450D03*
G54D35*
X14350Y-30450D03*
G54D13*
X10700Y-11900D03*
X10700Y-10900D03*
X11700Y-11900D03*
X11700Y-10900D03*
X12700Y-11900D03*
G54D12*
X12700Y-10900D03*
G54D13*
X13700Y-11900D03*
X13700Y-10900D03*
X14700Y-11900D03*
X14700Y-10900D03*
X15700Y-11900D03*
X15700Y-10900D03*
X16700Y-11900D03*
X16700Y-10900D03*
X17700Y-11900D03*
X17700Y-10900D03*
X18700Y-11900D03*
X18700Y-10900D03*
X19700Y-11900D03*
X19700Y-10900D03*
X20700Y-11900D03*
X20700Y-10900D03*
X21700Y-11900D03*
X21700Y-10900D03*
X22700Y-11900D03*
X22700Y-10900D03*
X34575Y-18800D03*
X34575Y-19800D03*
X34575Y-20800D03*
X41575Y-29125D03*
X40575Y-29125D03*
X39575Y-29125D03*
X38575Y-29125D03*
X37575Y-29125D03*
X36575Y-29125D03*
G54D12*
X41575Y-28125D03*
X40575Y-28125D03*
X39575Y-28125D03*
X38575Y-28125D03*
X37575Y-28125D03*
X36575Y-28125D03*
G54D36*
X11950Y-20075D03*
X10950Y-20075D03*
X11450Y-21275D03*
G54D37*
X10950Y-20675D03*
X11450Y-20675D03*
X11950Y-20675D03*
G54D12*
X41575Y-13800D03*
X40575Y-13800D03*
G54D13*
X39575Y-13800D03*
X38575Y-13800D03*
X37575Y-13800D03*
X36575Y-13800D03*
X41575Y-30125D03*
X40575Y-30125D03*
X39575Y-30125D03*
X36575Y-30125D03*
X37575Y-30125D03*
X38575Y-30125D03*
X34575Y-30125D03*
G54D12*
X33575Y-30125D03*
X32575Y-30125D03*
G54D13*
X30575Y-30125D03*
X29575Y-30125D03*
X41575Y-11125D03*
X40575Y-11125D03*
X39575Y-11125D03*
X38575Y-11125D03*
X37575Y-11125D03*
X36575Y-11125D03*
X35575Y-11125D03*
X34575Y-11125D03*
X32975Y-11125D03*
X31975Y-11125D03*
X30975Y-11125D03*
X29975Y-11125D03*
X28975Y-11125D03*
X27975Y-11125D03*
G54D12*
X26975Y-11125D03*
G54D13*
X25975Y-11125D03*
X31575Y-30125D03*
G54D38*
X22075Y-30125D03*
G54D39*
X42575Y-28125D03*
G54D13*
X28575Y-30125D03*
X27575Y-30125D03*
X24975Y-11125D03*
X23975Y-11125D03*
G54D40*
X37400Y-22975D03*
X36400Y-22975D03*
X35400Y-22975D03*
X34400Y-22975D03*
X33400Y-22975D03*
X32400Y-22975D03*
G54D41*
X31400Y-22975D03*
G54D40*
X30400Y-22975D03*
X29400Y-22975D03*
X28400Y-22975D03*
X27400Y-22975D03*
X26400Y-22975D03*
X25400Y-22975D03*
X38400Y-22975D03*
X25400Y-25975D03*
X26400Y-25975D03*
X27400Y-25975D03*
X28400Y-25975D03*
X29400Y-25975D03*
X30400Y-25975D03*
X31400Y-25975D03*
G54D41*
X32400Y-25975D03*
G54D40*
X33400Y-25975D03*
X34400Y-25975D03*
X35400Y-25975D03*
X36400Y-25975D03*
X37400Y-25975D03*
X38400Y-25975D03*
G54D42*
X35825Y-30050D03*
X14499Y-17135D03*
X19500Y-23075D03*
X17025Y-17675D03*
X33975Y-28125D03*
X34575Y-17300D03*
X33375Y-17300D03*
X18750Y-15225D03*
X21300Y-18275D03*
X24125Y-21300D03*
X27800Y-19500D03*
X23025Y-28600D03*
X24650Y-28600D03*
X26100Y-22100D03*
X40350Y-15525D03*
X41675Y-15525D03*
X27625Y-17550D03*
X25925Y-17550D03*
X25575Y-16625D03*
X28175Y-16625D03*
X41675Y-14925D03*
X35400Y-15825D03*
X40350Y-14925D03*
X33400Y-21175D03*
X28900Y-27225D03*
X30900Y-26825D03*
X17075Y-19125D03*
X23150Y-22475D03*
X12350Y-17850D03*
X14700Y-19300D03*
X41575Y-24950D03*
X15275Y-26225D03*
X10350Y-18700D03*
X15625Y-24200D03*
X12625Y-22475D03*
X10825Y-29225D03*
X20800Y-23700D03*
X15500Y-13825D03*
X35825Y-13350D03*
X32975Y-13050D03*
X14225Y-15575D03*
X19550Y-13825D03*
X29425Y-13050D03*
X25400Y-17450D03*
X20550Y-13675D03*
X18150Y-16225D03*
X25925Y-13450D03*
X29350Y-16975D03*
X19775Y-18600D03*
X17775Y-18500D03*
X32950Y-14850D03*
X23800Y-17525D03*
X22200Y-10350D03*
X40175Y-12525D03*
X41075Y-12525D03*
X18000Y-15250D03*
X23375Y-20950D03*
X27275Y-17925D03*
X32875Y-20325D03*
X29700Y-18300D03*
X27925Y-20350D03*
X20000Y-19575D03*
X34925Y-13500D03*
X25275Y-14300D03*
X13225Y-15200D03*
X21275Y-15375D03*
X20950Y-13325D03*
X24450Y-12075D03*
X30450Y-28150D03*
X24450Y-13325D03*
X17525Y-17675D03*
X15025Y-18025D03*
X27825Y-16275D03*
X21300Y-17525D03*
X25100Y-16275D03*
X16975Y-20525D03*
X25275Y-15300D03*
X13800Y-27225D03*
X20400Y-21550D03*
X23725Y-22475D03*
X26850Y-28475D03*
X16650Y-24250D03*
X24625Y-24500D03*
X23350Y-15875D03*
X41750Y-12150D03*
X11050Y-14125D03*
X12300Y-21300D03*
X26550Y-21700D03*
X16600Y-23025D03*
X25950Y-30200D03*
X15200Y-15600D03*
X13350Y-18325D03*
X29325Y-18775D03*
X30075Y-29300D03*
X22600Y-22025D03*
X32400Y-28125D03*
X30550Y-21525D03*
X22200Y-18725D03*
X19500Y-19575D03*
G54D43*
X27800Y-18925D02*
X27800Y-19500D01*
X30325Y-28875D02*
X25925Y-28875D01*
X33100Y-17300D02*
X32900Y-17500D01*
X35675Y-29900D02*
X35825Y-30050D01*
X32900Y-17500D02*
X29225Y-17500D01*
X35250Y-28125D02*
X35675Y-28550D01*
X24125Y-18650D02*
X23750Y-18275D01*
X19800Y-22775D02*
X19500Y-23075D01*
X33375Y-17300D02*
X33100Y-17300D01*
X14499Y-17135D02*
X17025Y-17135D01*
X17025Y-17675D02*
X17025Y-17135D01*
X24125Y-26075D02*
X21575Y-26075D01*
X35675Y-28550D02*
X35675Y-29900D01*
X17025Y-17135D02*
X17867Y-17135D01*
X33975Y-28125D02*
X35250Y-28125D01*
X23750Y-18275D02*
X21300Y-18275D01*
X21250Y-25750D02*
X21250Y-23075D01*
X24125Y-21300D02*
X24125Y-18650D01*
X34575Y-17300D02*
X34575Y-18800D01*
X24125Y-26050D02*
X24125Y-26075D01*
X21250Y-23075D02*
X20950Y-22775D01*
X20950Y-22775D02*
X19800Y-22775D01*
X30575Y-30125D02*
X30575Y-29125D01*
X24125Y-27075D02*
X25925Y-28875D01*
X18750Y-16252D02*
X17867Y-17135D01*
X18750Y-15225D02*
X18750Y-16252D01*
X21575Y-26075D02*
X21250Y-25750D01*
X29225Y-17500D02*
X27800Y-18925D01*
X24125Y-21300D02*
X24125Y-26050D01*
X24125Y-26050D02*
X24125Y-27075D01*
X30325Y-28875D02*
X30575Y-29125D01*
X20000Y-24250D02*
X20000Y-25250D01*
X20800Y-31500D02*
X20800Y-29425D01*
X19000Y-31250D02*
X19000Y-31650D01*
X20800Y-29425D02*
X21625Y-28600D01*
X19000Y-29250D02*
X19000Y-28250D01*
X19000Y-31650D02*
X19125Y-31775D01*
X20525Y-31775D02*
X20800Y-31500D01*
X19000Y-25250D02*
X19000Y-24250D01*
X19000Y-27250D02*
X19000Y-26250D01*
X23025Y-28600D02*
X21625Y-28600D01*
X19000Y-26250D02*
X19000Y-25250D01*
X19125Y-31775D02*
X20525Y-31775D01*
X19000Y-28250D02*
X19000Y-27250D01*
X19000Y-30250D02*
X19000Y-29250D01*
X24650Y-28600D02*
X24650Y-29500D01*
X26300Y-11925D02*
X26150Y-11925D01*
X26550Y-12175D02*
X26300Y-11925D01*
G54D44*
X25725Y-19000D02*
X25725Y-21725D01*
G54D43*
X25975Y-11750D02*
X25975Y-11125D01*
G54D44*
X25725Y-19000D02*
X26550Y-18175D01*
G54D43*
X26150Y-11925D02*
X25975Y-11750D01*
X26550Y-18175D02*
X26550Y-12175D01*
G54D44*
X25725Y-21725D02*
X26100Y-22100D01*
G54D45*
X41675Y-15525D02*
X40350Y-15525D01*
X25250Y-22225D02*
X25250Y-18475D01*
X25925Y-17800D02*
X25925Y-17550D01*
X28525Y-16500D02*
X28525Y-17100D01*
X25400Y-22975D02*
X25400Y-22375D01*
X28525Y-17100D02*
X28075Y-17550D01*
X25400Y-22375D02*
X25250Y-22225D01*
X25250Y-18475D02*
X25925Y-17800D01*
X28525Y-16500D02*
X28525Y-12725D01*
X32975Y-12025D02*
X32975Y-11125D01*
X28900Y-12350D02*
X32650Y-12350D01*
X28075Y-17550D02*
X27625Y-17550D01*
X28900Y-12350D02*
X28525Y-12725D01*
X32650Y-12350D02*
X32975Y-12025D01*
X28175Y-12750D02*
X28800Y-12125D01*
X31975Y-11900D02*
X31975Y-11125D01*
X26675Y-26850D02*
X25575Y-26850D01*
X26900Y-26625D02*
X26900Y-24350D01*
X26700Y-24150D02*
X25275Y-24150D01*
X28175Y-12750D02*
X28175Y-16625D01*
X24800Y-21675D02*
X24800Y-17400D01*
X25400Y-26675D02*
X25400Y-25975D01*
X31750Y-12125D02*
X31975Y-11900D01*
X25275Y-24150D02*
X24588Y-23463D01*
X24588Y-21887D02*
X24800Y-21675D01*
X24588Y-23463D02*
X24588Y-21887D01*
X26900Y-24350D02*
X26700Y-24150D01*
X25575Y-26850D02*
X25400Y-26675D01*
X24800Y-17400D02*
X25575Y-16625D01*
X28800Y-12125D02*
X31750Y-12125D01*
X26900Y-26625D02*
X26675Y-26850D01*
X29850Y-20350D02*
X29850Y-20075D01*
X29775Y-20425D02*
X29850Y-20350D01*
X29775Y-20950D02*
X29775Y-20425D01*
X30400Y-22975D02*
X30400Y-22325D01*
X29775Y-21700D02*
X29775Y-20950D01*
X30400Y-22325D02*
X29775Y-21700D01*
X28800Y-20350D02*
X28800Y-20075D01*
X29400Y-22975D02*
X29400Y-22225D01*
X28875Y-20950D02*
X28875Y-20425D01*
X28875Y-21700D02*
X28875Y-20950D01*
X29400Y-22225D02*
X28875Y-21700D01*
X28875Y-20425D02*
X28800Y-20350D01*
X35975Y-29525D02*
X35975Y-27750D01*
X35975Y-29525D02*
X36575Y-30125D01*
X35975Y-27750D02*
X35825Y-27600D01*
X35825Y-27600D02*
X33650Y-27600D01*
X33400Y-25975D02*
X33400Y-27350D01*
X33650Y-27600D02*
X33400Y-27350D01*
X37075Y-29625D02*
X37075Y-27550D01*
X37075Y-27550D02*
X36900Y-27375D01*
X36900Y-27375D02*
X34550Y-27375D01*
X37075Y-29625D02*
X37575Y-30125D01*
X34550Y-27375D02*
X34400Y-27225D01*
X34400Y-25975D02*
X34400Y-27225D01*
X35625Y-27150D02*
X35400Y-26925D01*
X37875Y-27150D02*
X35625Y-27150D01*
X38075Y-29625D02*
X38575Y-30125D01*
X38075Y-27350D02*
X37875Y-27150D01*
X38075Y-27350D02*
X38075Y-29625D01*
X35400Y-25975D02*
X35400Y-26925D01*
X36600Y-26925D02*
X36400Y-26725D01*
X38875Y-26925D02*
X36600Y-26925D01*
X36400Y-25975D02*
X36400Y-26725D01*
X39075Y-29625D02*
X39075Y-27125D01*
X39075Y-29625D02*
X39575Y-30125D01*
X39075Y-27125D02*
X38875Y-26925D01*
X35400Y-16225D02*
X35600Y-16425D01*
X35400Y-15825D02*
X35400Y-13100D01*
X35400Y-15825D02*
X35400Y-16225D01*
X35400Y-13100D02*
X35825Y-12675D01*
X35400Y-22975D02*
X35400Y-21975D01*
X35400Y-21975D02*
X35600Y-21775D01*
X39575Y-11125D02*
X39575Y-11502D01*
X41675Y-14925D02*
X40350Y-14925D01*
X39575Y-11502D02*
X38402Y-12675D01*
X35600Y-16425D02*
X35600Y-21775D01*
X35825Y-12675D02*
X38402Y-12675D01*
X37575Y-11523D02*
X37575Y-11125D01*
X36898Y-12200D02*
X37575Y-11523D01*
X34825Y-12200D02*
X36898Y-12200D01*
X34225Y-12800D02*
X34225Y-18200D01*
X33400Y-22425D02*
X33400Y-22975D01*
X34000Y-21825D02*
X33400Y-22425D01*
X34225Y-12800D02*
X34825Y-12200D01*
X34225Y-18200D02*
X34000Y-18425D01*
X34000Y-18425D02*
X34000Y-21825D01*
X34698Y-11975D02*
X34000Y-12673D01*
X34000Y-18125D02*
X33775Y-18350D01*
X33775Y-18350D02*
X33775Y-20800D01*
X28900Y-24000D02*
X28900Y-27225D01*
X34698Y-11975D02*
X36125Y-11975D01*
X33775Y-20800D02*
X33400Y-21175D01*
X28400Y-23500D02*
X28900Y-24000D01*
X36125Y-11975D02*
X36575Y-11525D01*
X36575Y-11525D02*
X36575Y-11125D01*
X34000Y-12673D02*
X34000Y-18125D01*
X28400Y-22975D02*
X28400Y-23500D01*
X33550Y-18225D02*
X33550Y-20500D01*
X33775Y-12525D02*
X33775Y-18000D01*
X34550Y-11750D02*
X35300Y-11750D01*
X35575Y-11475D02*
X35575Y-11125D01*
X30900Y-26825D02*
X30900Y-25525D01*
X33550Y-20500D02*
X32900Y-21150D01*
X33775Y-12525D02*
X34550Y-11750D01*
X35300Y-11750D02*
X35575Y-11475D01*
X32750Y-25200D02*
X32900Y-25050D01*
X30900Y-25525D02*
X31225Y-25200D01*
X31225Y-25200D02*
X32750Y-25200D01*
X33775Y-18000D02*
X33550Y-18225D01*
X32900Y-21150D02*
X32900Y-25050D01*
X28752Y-17223D02*
X28752Y-12798D01*
X28752Y-12798D02*
X28975Y-12575D01*
X33700Y-11399D02*
X33974Y-11125D01*
X33974Y-11125D02*
X34575Y-11125D01*
X33700Y-12250D02*
X33700Y-11399D01*
X33375Y-12575D02*
X33700Y-12250D01*
X28975Y-12575D02*
X33375Y-12575D01*
X28752Y-17223D02*
X27700Y-18275D01*
X26900Y-18675D02*
X27300Y-18275D01*
X27300Y-18275D02*
X27700Y-18275D01*
X26400Y-22375D02*
X26900Y-21875D01*
X26400Y-22975D02*
X26400Y-22375D01*
X26900Y-21875D02*
X26900Y-18675D01*
G54D43*
X21275Y-21375D02*
X20675Y-21975D01*
X15625Y-24200D02*
X15625Y-24956D01*
X28575Y-31225D02*
X31575Y-31225D01*
X15275Y-26025D02*
X15625Y-25675D01*
X41075Y-25175D02*
X41300Y-24950D01*
X41075Y-25700D02*
X41075Y-25175D01*
X10350Y-21725D02*
X10350Y-18700D01*
X20800Y-27475D02*
X21275Y-27950D01*
X23500Y-30500D02*
X23500Y-28300D01*
X22675Y-21375D02*
X21275Y-21375D01*
X41075Y-25700D02*
X40075Y-25700D01*
X12350Y-15925D02*
X12525Y-15750D01*
X23150Y-21850D02*
X22675Y-21375D01*
X32300Y-24900D02*
X32400Y-24800D01*
X30400Y-25975D02*
X30400Y-25100D01*
X15625Y-25700D02*
X16775Y-25700D01*
X24225Y-31225D02*
X28575Y-31225D01*
X17350Y-25125D02*
X16775Y-25700D01*
X12350Y-16300D02*
X12350Y-15925D01*
X12925Y-15750D02*
X12525Y-15750D01*
X31575Y-31225D02*
X41525Y-31225D01*
X16775Y-26700D02*
X16775Y-25700D01*
X42050Y-29125D02*
X42275Y-29350D01*
X41300Y-24950D02*
X41575Y-24950D01*
X42275Y-29350D02*
X42275Y-30475D01*
X15625Y-24956D02*
X15625Y-25675D01*
X17350Y-22825D02*
X18200Y-21975D01*
X17350Y-22825D02*
X17350Y-25125D01*
X23150Y-22475D02*
X23150Y-21850D01*
X14875Y-19125D02*
X14700Y-19300D01*
X20675Y-21975D02*
X18200Y-21975D01*
X28575Y-30125D02*
X28575Y-31225D01*
X30400Y-25975D02*
X30400Y-27400D01*
G54D45*
X12983Y-16300D02*
X12983Y-15808D01*
G54D43*
X15275Y-26225D02*
X15275Y-26025D01*
X15625Y-25675D02*
X15625Y-25700D01*
X23500Y-30500D02*
X24225Y-31225D01*
X11100Y-22475D02*
X10350Y-21725D01*
X30400Y-27400D02*
X31575Y-28575D01*
X32400Y-24300D02*
X32400Y-24800D01*
X30400Y-25100D02*
X30600Y-24900D01*
X32400Y-24300D02*
X32400Y-22975D01*
X12350Y-17850D02*
X12350Y-16300D01*
X20800Y-23700D02*
X20800Y-27475D01*
X21275Y-27950D02*
X23150Y-27950D01*
X41575Y-29125D02*
X42050Y-29125D01*
X23150Y-27950D02*
X23500Y-28300D01*
X12625Y-22475D02*
X11100Y-22475D01*
X12983Y-15808D02*
X12925Y-15750D01*
X10825Y-31075D02*
X10825Y-29225D01*
X30600Y-24900D02*
X32300Y-24900D01*
X31575Y-30125D02*
X31575Y-31225D01*
X11825Y-16300D02*
X12350Y-16300D01*
X17075Y-19125D02*
X14875Y-19125D01*
X41525Y-31225D02*
X42275Y-30475D01*
X31575Y-30125D02*
X31575Y-28575D01*
G54D45*
X37075Y-20300D02*
X37575Y-20800D01*
X32975Y-13050D02*
X29425Y-13050D01*
X15500Y-13825D02*
X19550Y-13825D01*
X27900Y-23450D02*
X27900Y-22525D01*
X27175Y-18700D02*
X27375Y-18500D01*
X29425Y-13400D02*
X28975Y-13850D01*
X14515Y-15865D02*
X14225Y-15575D01*
X14515Y-16302D02*
X14515Y-15865D01*
X27375Y-18500D02*
X27800Y-18500D01*
X37075Y-20300D02*
X36050Y-20300D01*
X28400Y-25975D02*
X28400Y-23950D01*
X28975Y-13850D02*
X28975Y-17325D01*
X35825Y-20075D02*
X35825Y-13350D01*
X27900Y-22525D02*
X27175Y-21800D01*
X28975Y-17325D02*
X27800Y-18500D01*
X36050Y-20300D02*
X35825Y-20075D01*
X29425Y-13050D02*
X29425Y-13400D01*
X28400Y-23950D02*
X27900Y-23450D01*
X27175Y-21800D02*
X27175Y-18700D01*
X25925Y-13450D02*
X25925Y-16925D01*
X27200Y-23925D02*
X25375Y-23925D01*
X18350Y-16025D02*
X18150Y-16225D01*
X24791Y-22009D02*
X25025Y-21775D01*
X25400Y-17450D02*
X25925Y-16925D01*
X24791Y-23341D02*
X24791Y-22009D01*
X17575Y-16800D02*
X18150Y-16225D01*
X20000Y-14875D02*
X18523Y-14875D01*
X20550Y-13675D02*
X20550Y-14325D01*
X25025Y-21775D02*
X25025Y-17825D01*
X14375Y-16800D02*
X17575Y-16800D01*
X14259Y-16684D02*
X14375Y-16800D01*
X25375Y-23925D02*
X24791Y-23341D01*
X18350Y-15048D02*
X18350Y-16025D01*
X14259Y-16302D02*
X14259Y-16684D01*
X27400Y-24125D02*
X27200Y-23925D01*
X18350Y-15048D02*
X18523Y-14875D01*
X20550Y-14325D02*
X20000Y-14875D01*
X25025Y-17825D02*
X25400Y-17450D01*
X27400Y-25975D02*
X27400Y-24125D01*
X32725Y-14500D02*
X29575Y-14500D01*
X14003Y-17528D02*
X14003Y-16302D01*
X29350Y-16975D02*
X29350Y-14725D01*
X19775Y-18150D02*
X19775Y-18600D01*
X32950Y-14725D02*
X32725Y-14500D01*
X20025Y-17900D02*
X23425Y-17900D01*
X20025Y-17900D02*
X19775Y-18150D01*
X23425Y-17900D02*
X23800Y-17525D01*
X32950Y-14850D02*
X32950Y-14725D01*
X29575Y-14500D02*
X29350Y-14725D01*
X14975Y-18500D02*
X14003Y-17528D01*
X17775Y-18500D02*
X14975Y-18500D01*
X37750Y-21925D02*
X38100Y-21925D01*
X38450Y-21575D02*
X38450Y-16300D01*
X38450Y-21575D02*
X38100Y-21925D01*
X37400Y-22975D02*
X37400Y-22275D01*
X37400Y-22275D02*
X37750Y-21925D01*
X21875Y-12675D02*
X20573Y-12675D01*
X38450Y-16300D02*
X38650Y-16100D01*
X13491Y-15534D02*
X13491Y-16302D01*
X41075Y-12525D02*
X41075Y-12100D01*
X19727Y-14423D02*
X15891Y-14423D01*
X13491Y-15534D02*
X14202Y-14823D01*
X19899Y-14251D02*
X19727Y-14423D01*
X42375Y-15650D02*
X41925Y-16100D01*
X15491Y-14823D02*
X15891Y-14423D01*
X41075Y-12100D02*
X41575Y-11600D01*
X19899Y-13349D02*
X19899Y-14251D01*
X42375Y-13325D02*
X42375Y-15650D01*
X14202Y-14823D02*
X15491Y-14823D01*
X41575Y-12525D02*
X42375Y-13325D01*
X38875Y-13125D02*
X39575Y-13125D01*
X39575Y-13125D02*
X40175Y-12525D01*
X41075Y-12525D02*
X41575Y-12525D01*
X38575Y-13800D02*
X38575Y-13425D01*
X20573Y-12675D02*
X19899Y-13349D01*
X38650Y-16100D02*
X41925Y-16100D01*
X38575Y-13425D02*
X38875Y-13125D01*
X22200Y-12350D02*
X22200Y-10350D01*
X21875Y-12675D02*
X22200Y-12350D01*
X41575Y-11600D02*
X41575Y-11125D01*
G54D44*
X10300Y-15000D02*
X10300Y-18075D01*
G54D45*
X10825Y-15400D02*
X10550Y-15675D01*
G54D43*
X11950Y-15000D02*
X12375Y-14575D01*
G54D45*
X11450Y-19050D02*
X11450Y-19025D01*
X13275Y-14600D02*
X12475Y-15400D01*
G54D43*
X11825Y-13250D02*
X12125Y-13250D01*
X10950Y-20075D02*
X10950Y-18725D01*
X12125Y-13250D02*
X12375Y-13500D01*
G54D45*
X10550Y-15675D02*
X10550Y-17750D01*
G54D43*
X12375Y-14600D02*
X12850Y-14600D01*
G54D44*
X12850Y-14600D02*
X12979Y-14471D01*
G54D45*
X11450Y-19050D02*
X11450Y-18650D01*
G54D43*
X12375Y-14575D02*
X12375Y-13500D01*
G54D45*
X11450Y-21275D02*
X11450Y-20675D01*
X14975Y-14600D02*
X13275Y-14600D01*
G54D43*
X11950Y-15000D02*
X10300Y-15000D01*
X10300Y-12300D02*
X10700Y-11900D01*
G54D45*
X11450Y-20675D02*
X10950Y-20675D01*
X15027Y-14548D02*
X14975Y-14600D01*
G54D43*
X10300Y-15000D02*
X10300Y-12300D01*
G54D45*
X12979Y-14471D02*
X12979Y-14098D01*
X12475Y-15400D02*
X10825Y-15400D01*
G54D43*
X10950Y-20675D02*
X10950Y-20075D01*
G54D45*
X15027Y-14098D02*
X15027Y-14548D01*
G54D43*
X10950Y-18725D02*
X10300Y-18075D01*
G54D45*
X11450Y-20675D02*
X11450Y-19050D01*
X11450Y-19025D02*
X12075Y-19025D01*
X11450Y-18650D02*
X10550Y-17750D01*
G54D43*
X12375Y-14600D02*
X12375Y-14575D01*
G54D45*
X14515Y-14098D02*
X14515Y-13185D01*
X14515Y-13185D02*
X14625Y-13075D01*
X14625Y-13075D02*
X19525Y-13075D01*
X19525Y-13075D02*
X20700Y-11900D01*
X14525Y-12850D02*
X18750Y-12850D01*
X14259Y-13116D02*
X14525Y-12850D01*
X14259Y-14098D02*
X14259Y-13116D01*
X18750Y-12850D02*
X19700Y-11900D01*
X14003Y-12972D02*
X14375Y-12600D01*
X14003Y-14098D02*
X14003Y-12972D01*
X15200Y-12350D02*
X15200Y-11400D01*
X14950Y-12600D02*
X15200Y-12350D01*
X15200Y-11400D02*
X15700Y-10900D01*
X14375Y-12600D02*
X14950Y-12600D01*
X13747Y-12853D02*
X14200Y-12400D01*
X14200Y-12400D02*
X14200Y-11400D01*
X14200Y-11400D02*
X14700Y-10900D01*
X13747Y-14098D02*
X13747Y-12853D01*
X20473Y-12452D02*
X19450Y-13475D01*
X14771Y-13679D02*
X14975Y-13475D01*
X14771Y-14098D02*
X14771Y-13679D01*
X14975Y-13475D02*
X19450Y-13475D01*
X21148Y-12452D02*
X21700Y-11900D01*
X21148Y-12452D02*
X20473Y-12452D01*
X12700Y-11900D02*
X12700Y-12550D01*
X12700Y-12550D02*
X13235Y-13085D01*
X13235Y-14098D02*
X13235Y-13085D01*
X12723Y-14098D02*
X12723Y-12923D01*
X12723Y-12923D02*
X11700Y-11900D01*
X13491Y-14098D02*
X13491Y-12791D01*
X13491Y-12791D02*
X13200Y-12500D01*
X13200Y-11400D02*
X13700Y-10900D01*
X13200Y-12500D02*
X13200Y-11400D01*
X28200Y-22000D02*
X28400Y-22200D01*
X32875Y-20325D02*
X32875Y-18675D01*
X28200Y-18949D02*
X28849Y-18300D01*
X27275Y-17925D02*
X27275Y-13050D01*
X27925Y-20350D02*
X28200Y-20350D01*
X23375Y-19775D02*
X23175Y-19575D01*
X14771Y-16302D02*
X14771Y-15554D01*
X27275Y-13050D02*
X27975Y-12350D01*
X29700Y-18300D02*
X28849Y-18300D01*
X23375Y-20950D02*
X23375Y-19775D01*
X30275Y-18500D02*
X32700Y-18500D01*
X14771Y-15554D02*
X15075Y-15250D01*
X28200Y-20350D02*
X28200Y-22000D01*
X28900Y-23475D02*
X28900Y-22375D01*
X28900Y-22375D02*
X28725Y-22200D01*
X20000Y-19575D02*
X23175Y-19575D01*
X32875Y-18675D02*
X32700Y-18500D01*
X30075Y-18300D02*
X30275Y-18500D01*
X29400Y-23975D02*
X28900Y-23475D01*
X27975Y-11125D02*
X27975Y-12350D01*
X29700Y-18300D02*
X30075Y-18300D01*
X29400Y-25975D02*
X29400Y-23975D01*
X28200Y-18949D02*
X28200Y-20350D01*
X15075Y-15250D02*
X18000Y-15250D01*
X28725Y-22200D02*
X28400Y-22200D01*
X34900Y-24725D02*
X34900Y-22000D01*
X24625Y-11600D02*
X24125Y-11600D01*
X42050Y-24350D02*
X39075Y-24350D01*
X42250Y-24550D02*
X42050Y-24350D01*
X42250Y-26175D02*
X42250Y-24550D01*
X39075Y-24350D02*
X38400Y-25025D01*
X38400Y-25025D02*
X35200Y-25025D01*
X23975Y-11450D02*
X24125Y-11600D01*
X23975Y-11125D02*
X23975Y-11450D01*
X41075Y-29625D02*
X41075Y-26450D01*
X35350Y-21550D02*
X34900Y-22000D01*
X35350Y-21550D02*
X35350Y-16575D01*
X17950Y-19750D02*
X16300Y-19750D01*
X18350Y-19350D02*
X18350Y-17325D01*
X34925Y-16150D02*
X34925Y-13500D01*
X16125Y-19925D02*
X16125Y-21294D01*
X17950Y-19750D02*
X18350Y-19350D01*
X25275Y-12250D02*
X24625Y-11600D01*
X25275Y-14300D02*
X25275Y-12250D01*
X16300Y-19750D02*
X16125Y-19925D01*
X41975Y-26450D02*
X42250Y-26175D01*
X41075Y-26450D02*
X41975Y-26450D01*
X19188Y-16487D02*
X20200Y-15475D01*
X20200Y-15475D02*
X20300Y-15375D01*
X20200Y-15475D02*
X20200Y-15475D01*
X18350Y-17325D02*
X19188Y-16487D01*
X35350Y-16575D02*
X34925Y-16150D01*
X13235Y-16300D02*
X13235Y-15560D01*
X38400Y-25975D02*
X38400Y-25025D01*
X35200Y-25025D02*
X34900Y-24725D01*
X13235Y-15560D02*
X13225Y-15550D01*
X13225Y-15550D02*
X13225Y-15200D01*
X41075Y-29625D02*
X41575Y-30125D01*
X21275Y-15375D02*
X20300Y-15375D01*
X37400Y-25975D02*
X37400Y-26525D01*
X37400Y-26525D02*
X37575Y-26700D01*
X37575Y-26700D02*
X39300Y-26700D01*
X39550Y-26450D02*
X39300Y-26700D01*
X40075Y-26450D02*
X39550Y-26450D01*
X27900Y-23950D02*
X27900Y-28000D01*
X40075Y-26450D02*
X40075Y-29625D01*
X25625Y-12225D02*
X24975Y-11575D01*
X24450Y-12075D02*
X24450Y-13325D01*
X13750Y-17650D02*
X14813Y-18713D01*
X25475Y-18879D02*
X26275Y-18079D01*
X40075Y-29625D02*
X40575Y-30125D01*
X13750Y-17125D02*
X13750Y-17650D01*
X18125Y-19225D02*
X18125Y-18950D01*
X15625Y-21294D02*
X15625Y-19925D01*
X15625Y-19925D02*
X16038Y-19512D01*
X18125Y-17525D02*
X18125Y-18950D01*
X20950Y-13325D02*
X20950Y-14325D01*
X17838Y-19512D02*
X18125Y-19225D01*
X17675Y-18950D02*
X18125Y-18950D01*
X14813Y-18713D02*
X17438Y-18713D01*
X12723Y-16302D02*
X12723Y-16773D01*
X17438Y-18713D02*
X17675Y-18950D01*
X12723Y-16773D02*
X12875Y-16925D01*
X13550Y-16925D02*
X13750Y-17125D01*
X26050Y-12225D02*
X25625Y-12225D01*
X18125Y-17525D02*
X18125Y-17250D01*
X18125Y-17250D02*
X20950Y-14425D01*
X20950Y-14425D02*
X20950Y-14325D01*
X17838Y-19512D02*
X16038Y-19512D01*
X24975Y-11575D02*
X24975Y-11125D01*
X27900Y-23950D02*
X27650Y-23700D01*
X26275Y-12450D02*
X26050Y-12225D01*
X27650Y-23700D02*
X26100Y-23700D01*
X30450Y-28150D02*
X28050Y-28150D01*
X25900Y-23500D02*
X25900Y-22475D01*
X27900Y-28000D02*
X28050Y-28150D01*
X25900Y-22475D02*
X25475Y-22050D01*
X26100Y-23700D02*
X25900Y-23500D01*
X12875Y-16925D02*
X13550Y-16925D01*
X25475Y-22050D02*
X25475Y-18879D01*
X26275Y-18079D02*
X26275Y-12450D01*
X36400Y-21702D02*
X36677Y-21425D01*
X36400Y-22975D02*
X36400Y-21702D01*
X37876Y-21425D02*
X38200Y-21101D01*
X36677Y-21425D02*
X37876Y-21425D01*
X40425Y-10200D02*
X40575Y-10350D01*
X14300Y-15025D02*
X13747Y-15578D01*
X20150Y-14375D02*
X19875Y-14650D01*
X20675Y-12900D02*
X20150Y-13425D01*
X15950Y-14650D02*
X15575Y-15025D01*
X23375Y-12600D02*
X23375Y-10375D01*
X23075Y-12900D02*
X20675Y-12900D01*
X40825Y-13000D02*
X41675Y-13000D01*
X15575Y-15025D02*
X14300Y-15025D01*
X40575Y-10350D02*
X40575Y-11125D01*
X23550Y-10200D02*
X40425Y-10200D01*
X19875Y-14650D02*
X15950Y-14650D01*
X20150Y-13425D02*
X20150Y-14375D01*
X13747Y-16302D02*
X13747Y-15578D01*
X23375Y-10375D02*
X23550Y-10200D01*
X41675Y-13000D02*
X42150Y-13475D01*
X37800Y-12900D02*
X39175Y-12900D01*
X41825Y-15875D02*
X38550Y-15875D01*
X40575Y-12750D02*
X40825Y-13000D01*
X40575Y-12100D02*
X39975Y-12100D01*
X23075Y-12900D02*
X23375Y-12600D01*
X40575Y-11125D02*
X40575Y-12100D01*
X39175Y-12900D02*
X39975Y-12100D01*
X38200Y-16225D02*
X38550Y-15875D01*
X42150Y-15550D02*
X41825Y-15875D01*
X37575Y-13800D02*
X37575Y-13125D01*
X42150Y-13475D02*
X42150Y-15550D01*
X38200Y-21101D02*
X38200Y-16225D01*
X37575Y-13125D02*
X37800Y-12900D01*
X40575Y-12100D02*
X40575Y-12750D01*
X17525Y-17825D02*
X17325Y-18025D01*
X17525Y-17675D02*
X17525Y-17825D01*
X17325Y-18025D02*
X15025Y-18025D01*
X30800Y-11900D02*
X30975Y-11725D01*
X30975Y-11725D02*
X30975Y-11125D01*
X21300Y-17525D02*
X21300Y-16950D01*
X24385Y-21765D02*
X24575Y-21575D01*
X24575Y-21575D02*
X24575Y-16800D01*
X21450Y-16800D02*
X21300Y-16950D01*
X26250Y-24375D02*
X25200Y-24375D01*
X24385Y-23560D02*
X25200Y-24375D01*
X26400Y-24525D02*
X26250Y-24375D01*
X24575Y-16800D02*
X21450Y-16800D01*
X24575Y-16800D02*
X25100Y-16275D01*
X28725Y-11900D02*
X30800Y-11900D01*
X27825Y-12800D02*
X28725Y-11900D01*
X27825Y-16275D02*
X27825Y-12800D01*
X26400Y-25975D02*
X26400Y-24525D01*
X24385Y-23560D02*
X24385Y-21765D01*
G54D43*
X18929Y-17721D02*
X18929Y-19721D01*
X24600Y-15300D02*
X24225Y-15675D01*
X25275Y-15300D02*
X24600Y-15300D01*
X24225Y-15675D02*
X24225Y-16198D01*
X18125Y-20525D02*
X18929Y-19721D01*
X23948Y-16475D02*
X20175Y-16475D01*
X24225Y-16198D02*
X23948Y-16475D01*
X20175Y-16475D02*
X18929Y-17721D01*
X16975Y-20525D02*
X18125Y-20525D01*
X12300Y-27225D02*
X13800Y-27225D01*
G54D45*
X12013Y-27512D02*
X11625Y-27512D01*
G54D43*
X12013Y-27512D02*
X12300Y-27225D01*
X20400Y-21550D02*
X20400Y-21000D01*
X20575Y-20825D02*
X22600Y-20825D01*
X23725Y-22475D02*
X23725Y-21950D01*
X22600Y-20825D02*
X23725Y-21950D01*
X18075Y-21550D02*
X20400Y-21550D01*
X17000Y-23900D02*
X16650Y-24250D01*
X18075Y-21550D02*
X17000Y-22625D01*
X20400Y-21000D02*
X20575Y-20825D01*
X17000Y-22625D02*
X17000Y-23900D01*
X24625Y-26850D02*
X26250Y-28475D01*
X24625Y-24500D02*
X24625Y-26850D01*
X26250Y-28475D02*
X26850Y-28475D01*
G54D45*
X10375Y-24500D02*
X10375Y-23825D01*
X16125Y-24956D02*
X16125Y-23750D01*
X16125Y-23750D02*
X15900Y-23525D01*
X10375Y-23825D02*
X10675Y-23525D01*
X15900Y-23525D02*
X10675Y-23525D01*
G54D43*
X16686Y-20014D02*
X16575Y-20125D01*
X18614Y-17486D02*
X20225Y-15875D01*
X18614Y-19564D02*
X18164Y-20014D01*
X16230Y-22220D02*
X16575Y-21875D01*
X16575Y-20125D02*
X16575Y-21875D01*
X18164Y-20014D02*
X16686Y-20014D01*
X15125Y-19950D02*
X15100Y-19925D01*
X20225Y-15875D02*
X22600Y-15875D01*
X15125Y-21900D02*
X15445Y-22220D01*
X22600Y-13850D02*
X22600Y-15875D01*
X23350Y-15875D02*
X22600Y-15875D01*
X15125Y-21294D02*
X15125Y-21900D01*
X15125Y-21294D02*
X15125Y-19950D01*
X15445Y-22220D02*
X16230Y-22220D01*
X18614Y-19564D02*
X18614Y-17486D01*
G54D45*
X19500Y-30750D02*
X20000Y-31250D01*
X16725Y-27625D02*
X16025Y-26925D01*
X17075Y-30750D02*
X19500Y-30750D01*
X16725Y-30400D02*
X17075Y-30750D01*
X16725Y-27625D02*
X16725Y-30400D01*
X14900Y-23750D02*
X11200Y-23750D01*
X16025Y-26700D02*
X16025Y-26925D01*
X11025Y-24500D02*
X11025Y-23925D01*
X15125Y-24956D02*
X15125Y-25625D01*
X15125Y-24956D02*
X15125Y-23975D01*
X34975Y-12425D02*
X34550Y-12850D01*
X35100Y-16675D02*
X34550Y-16125D01*
X34400Y-22975D02*
X34400Y-22075D01*
X34975Y-12425D02*
X37672Y-12425D01*
X35100Y-21375D02*
X34400Y-22075D01*
X37672Y-12425D02*
X38575Y-11522D01*
X15125Y-23975D02*
X14900Y-23750D01*
X35100Y-16675D02*
X35100Y-21375D01*
X15200Y-26700D02*
X14900Y-26400D01*
X11200Y-23750D02*
X11025Y-23925D01*
X34550Y-16125D02*
X34550Y-12850D01*
X15125Y-25625D02*
X14900Y-25850D01*
X38575Y-11522D02*
X38575Y-11125D01*
X16025Y-26700D02*
X15200Y-26700D01*
X14900Y-25850D02*
X14900Y-26400D01*
X11675Y-24500D02*
X11675Y-24075D01*
X14625Y-24956D02*
X14625Y-24100D01*
X11775Y-23975D02*
X11675Y-24075D01*
X14500Y-23975D02*
X11775Y-23975D01*
X14625Y-24100D02*
X14500Y-23975D01*
G54D43*
X42950Y-13050D02*
X42650Y-13050D01*
X42650Y-13050D02*
X41750Y-12150D01*
X26975Y-11125D02*
X26975Y-12125D01*
X15575Y-15600D02*
X15200Y-15600D01*
X15700Y-16150D02*
X15700Y-15725D01*
X15548Y-16302D02*
X15700Y-16150D01*
X26975Y-12125D02*
X26875Y-12225D01*
X12625Y-24956D02*
X13125Y-24956D01*
X12825Y-19500D02*
X13125Y-19800D01*
X10625Y-25750D02*
X10575Y-25700D01*
X26875Y-12225D02*
X26875Y-18300D01*
X11625Y-26275D02*
X11525Y-26175D01*
X29300Y-19275D02*
X29850Y-19275D01*
X18275Y-22375D02*
X18000Y-22650D01*
X18000Y-22650D02*
X18000Y-24250D01*
X31400Y-22375D02*
X30550Y-21525D01*
X26025Y-19150D02*
X26025Y-21175D01*
X40575Y-13800D02*
X40575Y-14200D01*
X22600Y-22025D02*
X21250Y-22025D01*
X12825Y-18325D02*
X11925Y-18325D01*
X16875Y-31250D02*
X16075Y-30450D01*
X16600Y-23025D02*
X14700Y-23025D01*
X13350Y-18325D02*
X12825Y-18325D01*
G54D45*
X15027Y-16302D02*
X15548Y-16302D01*
G54D43*
X15700Y-15725D02*
X15575Y-15600D01*
X11525Y-26175D02*
X11525Y-25750D01*
X16075Y-30450D02*
X14350Y-30450D01*
X18000Y-24250D02*
X18000Y-25250D01*
X12200Y-11400D02*
X12700Y-10900D01*
X18000Y-26250D02*
X18000Y-27250D01*
X26875Y-18300D02*
X26025Y-19150D01*
X41575Y-13800D02*
X40575Y-13800D01*
X12825Y-19025D02*
X12825Y-18325D01*
X21250Y-22025D02*
X20900Y-22375D01*
X11525Y-28250D02*
X10625Y-28250D01*
X12300Y-21300D02*
X12306Y-21294D01*
X14350Y-30450D02*
X13375Y-30450D01*
X10575Y-26525D02*
X10575Y-27475D01*
X11525Y-25750D02*
X10625Y-25750D01*
X26025Y-21175D02*
X26550Y-21700D01*
X40575Y-14200D02*
X40300Y-14475D01*
X12306Y-21294D02*
X12625Y-21294D01*
X11925Y-18325D02*
X11025Y-17425D01*
X28800Y-19275D02*
X29300Y-19275D01*
X25950Y-29500D02*
X26650Y-29500D01*
X31400Y-22975D02*
X31400Y-22375D01*
X14300Y-19925D02*
X13850Y-19925D01*
X11025Y-13250D02*
X11025Y-14100D01*
X18000Y-28250D02*
X18000Y-29250D01*
X26850Y-29300D02*
X26650Y-29500D01*
G54D44*
X11325Y-11400D02*
X12200Y-11400D01*
G54D43*
X31600Y-24300D02*
X31600Y-23900D01*
X14350Y-26700D02*
X13550Y-25900D01*
X22600Y-24050D02*
X22600Y-22025D01*
X11200Y-11525D02*
X11325Y-11400D01*
X10575Y-28300D02*
X10575Y-27475D01*
X13625Y-21294D02*
X13125Y-21294D01*
X12575Y-22025D02*
X13700Y-22025D01*
X12475Y-25900D02*
X13550Y-25900D01*
X12200Y-25050D02*
X12200Y-25625D01*
X13125Y-21294D02*
X13125Y-20075D01*
X11950Y-20075D02*
X11950Y-20675D01*
X12825Y-19025D02*
X12825Y-19500D01*
X33575Y-30125D02*
X33075Y-30125D01*
X13125Y-21294D02*
X12625Y-21294D01*
X12300Y-21750D02*
X12575Y-22025D01*
X13700Y-20075D02*
X13850Y-19925D01*
X36575Y-14925D02*
X36575Y-18800D01*
X37025Y-14475D02*
X36575Y-14925D01*
X13125Y-20075D02*
X13700Y-20075D01*
X13125Y-19800D02*
X13125Y-20075D01*
X14625Y-21294D02*
X14125Y-21294D01*
X11025Y-12600D02*
X11200Y-12425D01*
X18000Y-31250D02*
X16875Y-31250D01*
X12950Y-30025D02*
X12325Y-30025D01*
X30075Y-29300D02*
X26850Y-29300D01*
X32400Y-25975D02*
X32400Y-28125D01*
X12200Y-25625D02*
X12475Y-25900D01*
X12300Y-21300D02*
X12300Y-21750D01*
X14125Y-21294D02*
X13625Y-21294D01*
X11950Y-20075D02*
X13125Y-20075D01*
X18000Y-25250D02*
X18000Y-26250D01*
X10575Y-26525D02*
X10575Y-25700D01*
X29325Y-19275D02*
X29300Y-19275D01*
X12294Y-24956D02*
X12200Y-25050D01*
X25575Y-29500D02*
X25950Y-29500D01*
X12325Y-31075D02*
X12325Y-30025D01*
X13125Y-24956D02*
X13625Y-24956D01*
X33075Y-28800D02*
X32400Y-28125D01*
X11025Y-16300D02*
X11025Y-17425D01*
X20900Y-22375D02*
X18275Y-22375D01*
X31600Y-23900D02*
X31400Y-23700D01*
X13375Y-30450D02*
X12950Y-30025D01*
X11525Y-28250D02*
X11525Y-29225D01*
X18000Y-27250D02*
X18000Y-28250D01*
G54D44*
X11200Y-12425D02*
X11200Y-11525D01*
G54D43*
X12325Y-30025D02*
X11525Y-29225D01*
X13100Y-28450D02*
X14350Y-28450D01*
X14350Y-28450D02*
X14350Y-26700D01*
X18000Y-29250D02*
X18000Y-30250D01*
X33075Y-30125D02*
X32575Y-30125D01*
X11025Y-13250D02*
X11025Y-12600D01*
X29325Y-18775D02*
X29325Y-19275D01*
G54D44*
X11625Y-26488D02*
X11625Y-26275D01*
G54D43*
X40300Y-14475D02*
X37025Y-14475D01*
X11025Y-14100D02*
X11050Y-14125D01*
X12625Y-24956D02*
X12294Y-24956D01*
X31400Y-22975D02*
X31400Y-23700D01*
X10625Y-28250D02*
X10575Y-28300D01*
X33075Y-28800D02*
X33075Y-30125D01*
X25950Y-29500D02*
X25950Y-30200D01*
X13700Y-22025D02*
X14700Y-23025D01*
X14125Y-24956D02*
X13625Y-24956D01*
X14350Y-30450D02*
X14350Y-28450D01*
G54D45*
X22200Y-18725D02*
X20350Y-18725D01*
X20350Y-18725D02*
X19500Y-19575D01*
G54D10*
G36*
X10637Y-27530D02*
X10630Y-27530D01*
X10630Y-27537D01*
X10520Y-27537D01*
X10520Y-27530D01*
X10512Y-27530D01*
X10512Y-27420D01*
X10520Y-27420D01*
X10520Y-27125D01*
X10520Y-26875D01*
X10520Y-26580D01*
X10512Y-26580D01*
X10512Y-26470D01*
X10520Y-26470D01*
X10520Y-26462D01*
X10630Y-26462D01*
X10630Y-26470D01*
X10637Y-26470D01*
X10637Y-26580D01*
X10630Y-26580D01*
X10630Y-26875D01*
X10630Y-27125D01*
X10630Y-27420D01*
X10637Y-27420D01*
X10637Y-27530D01*
X10637Y-27530D01*
G37*
G54D45*
X10637Y-27530D02*
X10630Y-27530D01*
X10630Y-27537D01*
X10520Y-27537D01*
X10520Y-27530D01*
X10512Y-27530D01*
X10512Y-27420D01*
X10520Y-27420D01*
X10520Y-27125D01*
X10520Y-26875D01*
X10520Y-26580D01*
X10512Y-26580D01*
X10512Y-26470D01*
X10520Y-26470D01*
X10520Y-26462D01*
X10630Y-26462D01*
X10630Y-26470D01*
X10637Y-26470D01*
X10637Y-26580D01*
X10630Y-26580D01*
X10630Y-26875D01*
X10630Y-27125D01*
X10630Y-27420D01*
X10637Y-27420D01*
X10637Y-27530D01*
G54D10*
G36*
X10658Y-28305D02*
X10580Y-28383D01*
X10575Y-28377D01*
X10569Y-28383D01*
X10491Y-28305D01*
X10497Y-28300D01*
X10491Y-28294D01*
X10569Y-28216D01*
X10575Y-28222D01*
X10580Y-28216D01*
X10658Y-28294D01*
X10652Y-28300D01*
X10658Y-28305D01*
X10658Y-28305D01*
G37*
G54D45*
X10658Y-28305D02*
X10580Y-28383D01*
X10575Y-28377D01*
X10569Y-28383D01*
X10491Y-28305D01*
X10497Y-28300D01*
X10491Y-28294D01*
X10569Y-28216D01*
X10575Y-28222D01*
X10580Y-28216D01*
X10658Y-28294D01*
X10652Y-28300D01*
X10658Y-28305D01*
G54D10*
G36*
X10658Y-25705D02*
X10580Y-25783D01*
X10575Y-25777D01*
X10569Y-25783D01*
X10491Y-25705D01*
X10497Y-25700D01*
X10491Y-25694D01*
X10569Y-25616D01*
X10575Y-25622D01*
X10580Y-25616D01*
X10658Y-25694D01*
X10652Y-25700D01*
X10658Y-25705D01*
X10658Y-25705D01*
G37*
G54D45*
X10658Y-25705D02*
X10580Y-25783D01*
X10575Y-25777D01*
X10569Y-25783D01*
X10491Y-25705D01*
X10497Y-25700D01*
X10491Y-25694D01*
X10569Y-25616D01*
X10575Y-25622D01*
X10580Y-25616D01*
X10658Y-25694D01*
X10652Y-25700D01*
X10658Y-25705D01*
G54D10*
G36*
X11469Y-11399D02*
X11388Y-11433D01*
X11234Y-11588D01*
X11200Y-11669D01*
X11166Y-11588D01*
X11011Y-11434D01*
X10930Y-11400D01*
X11011Y-11366D01*
X11165Y-11211D01*
X11199Y-11130D01*
X11233Y-11211D01*
X11388Y-11365D01*
X11469Y-11399D01*
X11469Y-11399D01*
G37*
G54D45*
X11469Y-11399D02*
X11388Y-11433D01*
X11234Y-11588D01*
X11200Y-11669D01*
X11166Y-11588D01*
X11011Y-11434D01*
X10930Y-11400D01*
X11011Y-11366D01*
X11165Y-11211D01*
X11199Y-11130D01*
X11233Y-11211D01*
X11388Y-11365D01*
X11469Y-11399D01*
G54D10*
G36*
X12103Y-12727D02*
X12084Y-12720D01*
X11985Y-12719D01*
X11565Y-12719D01*
X11473Y-12757D01*
X11460Y-12771D01*
X11404Y-12715D01*
X11294Y-12669D01*
X11155Y-12670D01*
X11080Y-12745D01*
X11080Y-13195D01*
X11087Y-13195D01*
X11087Y-13305D01*
X11080Y-13305D01*
X11080Y-13755D01*
X11155Y-13830D01*
X11294Y-13830D01*
X11404Y-13784D01*
X11460Y-13728D01*
X11473Y-13741D01*
X11565Y-13779D01*
X11572Y-13779D01*
X11531Y-13797D01*
X11397Y-13930D01*
X11325Y-14105D01*
X11324Y-14294D01*
X11397Y-14468D01*
X11530Y-14602D01*
X11645Y-14650D01*
X10650Y-14650D01*
X10650Y-13786D01*
X10755Y-13830D01*
X10895Y-13830D01*
X10970Y-13755D01*
X10970Y-13305D01*
X10962Y-13305D01*
X10962Y-13195D01*
X10970Y-13195D01*
X10970Y-12745D01*
X10895Y-12670D01*
X10755Y-12669D01*
X10650Y-12713D01*
X10650Y-12449D01*
X10808Y-12450D01*
X11011Y-12366D01*
X11165Y-12211D01*
X11199Y-12130D01*
X11233Y-12211D01*
X11388Y-12365D01*
X11590Y-12449D01*
X11808Y-12450D01*
X11820Y-12445D01*
X12103Y-12727D01*
X12103Y-12727D01*
G37*
G54D45*
X12103Y-12727D02*
X12084Y-12720D01*
X11985Y-12719D01*
X11565Y-12719D01*
X11473Y-12757D01*
X11460Y-12771D01*
X11404Y-12715D01*
X11294Y-12669D01*
X11155Y-12670D01*
X11080Y-12745D01*
X11080Y-13195D01*
X11087Y-13195D01*
X11087Y-13305D01*
X11080Y-13305D01*
X11080Y-13755D01*
X11155Y-13830D01*
X11294Y-13830D01*
X11404Y-13784D01*
X11460Y-13728D01*
X11473Y-13741D01*
X11565Y-13779D01*
X11572Y-13779D01*
X11531Y-13797D01*
X11397Y-13930D01*
X11325Y-14105D01*
X11324Y-14294D01*
X11397Y-14468D01*
X11530Y-14602D01*
X11645Y-14650D01*
X10650Y-14650D01*
X10650Y-13786D01*
X10755Y-13830D01*
X10895Y-13830D01*
X10970Y-13755D01*
X10970Y-13305D01*
X10962Y-13305D01*
X10962Y-13195D01*
X10970Y-13195D01*
X10970Y-12745D01*
X10895Y-12670D01*
X10755Y-12669D01*
X10650Y-12713D01*
X10650Y-12449D01*
X10808Y-12450D01*
X11011Y-12366D01*
X11165Y-12211D01*
X11199Y-12130D01*
X11233Y-12211D01*
X11388Y-12365D01*
X11590Y-12449D01*
X11808Y-12450D01*
X11820Y-12445D01*
X12103Y-12727D01*
G54D10*
G36*
X18050Y-15806D02*
X17909Y-15864D01*
X17789Y-15983D01*
X17725Y-16140D01*
X17724Y-16225D01*
X17450Y-16500D01*
X15409Y-16500D01*
X15409Y-16432D01*
X15334Y-16357D01*
X15103Y-16357D01*
X15103Y-16247D01*
X15334Y-16247D01*
X15409Y-16172D01*
X15409Y-16071D01*
X15409Y-15952D01*
X15363Y-15842D01*
X15279Y-15758D01*
X15168Y-15712D01*
X15143Y-15712D01*
X15082Y-15773D01*
X15082Y-15712D01*
X15071Y-15712D01*
X15071Y-15678D01*
X15199Y-15550D01*
X17698Y-15550D01*
X17758Y-15610D01*
X17915Y-15674D01*
X18050Y-15675D01*
X18050Y-15806D01*
X18050Y-15806D01*
G37*
G54D45*
X18050Y-15806D02*
X17909Y-15864D01*
X17789Y-15983D01*
X17725Y-16140D01*
X17724Y-16225D01*
X17450Y-16500D01*
X15409Y-16500D01*
X15409Y-16432D01*
X15334Y-16357D01*
X15103Y-16357D01*
X15103Y-16247D01*
X15334Y-16247D01*
X15409Y-16172D01*
X15409Y-16071D01*
X15409Y-15952D01*
X15363Y-15842D01*
X15279Y-15758D01*
X15168Y-15712D01*
X15143Y-15712D01*
X15082Y-15773D01*
X15082Y-15712D01*
X15071Y-15712D01*
X15071Y-15678D01*
X15199Y-15550D01*
X17698Y-15550D01*
X17758Y-15610D01*
X17915Y-15674D01*
X18050Y-15675D01*
X18050Y-15806D01*
G54D10*
G36*
X18062Y-31305D02*
X18055Y-31305D01*
X18055Y-31312D01*
X17945Y-31312D01*
X17945Y-31305D01*
X17475Y-31305D01*
X17400Y-31380D01*
X17399Y-31609D01*
X17445Y-31719D01*
X17450Y-31725D01*
X15528Y-31725D01*
X15528Y-30644D01*
X15473Y-30505D01*
X14405Y-30505D01*
X14405Y-31350D01*
X14705Y-31350D01*
X15045Y-31260D01*
X15325Y-31047D01*
X15502Y-30743D01*
X15528Y-30644D01*
X15528Y-31725D01*
X14295Y-31725D01*
X14295Y-31350D01*
X14295Y-30505D01*
X14295Y-30395D01*
X14295Y-29550D01*
X14000Y-29550D01*
X14000Y-28805D01*
X14000Y-28505D01*
X13155Y-28505D01*
X13155Y-29573D01*
X13294Y-29628D01*
X13393Y-29602D01*
X13697Y-29425D01*
X13910Y-29145D01*
X14000Y-28805D01*
X14000Y-29550D01*
X13995Y-29550D01*
X13654Y-29639D01*
X13374Y-29852D01*
X13197Y-30156D01*
X13171Y-30255D01*
X13226Y-30395D01*
X14295Y-30395D01*
X14295Y-30505D01*
X13226Y-30505D01*
X13171Y-30644D01*
X13197Y-30743D01*
X13374Y-31047D01*
X13654Y-31260D01*
X13995Y-31350D01*
X14295Y-31350D01*
X14295Y-31725D01*
X13045Y-31725D01*
X13045Y-29573D01*
X13045Y-28505D01*
X12200Y-28505D01*
X12200Y-28805D01*
X12289Y-29145D01*
X12502Y-29425D01*
X12806Y-29602D01*
X12905Y-29628D01*
X13045Y-29573D01*
X13045Y-31725D01*
X12886Y-31725D01*
X12929Y-31682D01*
X12974Y-31572D01*
X12975Y-31453D01*
X12975Y-30696D01*
X12974Y-30577D01*
X12929Y-30467D01*
X12844Y-30383D01*
X12734Y-30337D01*
X12455Y-30337D01*
X12380Y-30412D01*
X12380Y-31020D01*
X12900Y-31020D01*
X12975Y-30945D01*
X12975Y-30696D01*
X12975Y-31453D01*
X12975Y-31205D01*
X12900Y-31130D01*
X12380Y-31130D01*
X12380Y-31137D01*
X12270Y-31137D01*
X12270Y-31130D01*
X12270Y-31020D01*
X12270Y-30412D01*
X12195Y-30337D01*
X12105Y-30337D01*
X12105Y-28505D01*
X12105Y-28380D01*
X12030Y-28305D01*
X11580Y-28305D01*
X11580Y-28790D01*
X11655Y-28865D01*
X11864Y-28865D01*
X11974Y-28819D01*
X12059Y-28735D01*
X12104Y-28624D01*
X12105Y-28505D01*
X12105Y-30337D01*
X11915Y-30337D01*
X11805Y-30383D01*
X11720Y-30467D01*
X11675Y-30577D01*
X11674Y-30696D01*
X11675Y-30945D01*
X11750Y-31020D01*
X12270Y-31020D01*
X12270Y-31130D01*
X11750Y-31130D01*
X11675Y-31205D01*
X11674Y-31453D01*
X11675Y-31572D01*
X11720Y-31682D01*
X11763Y-31725D01*
X11315Y-31725D01*
X11316Y-31724D01*
X11386Y-31654D01*
X11424Y-31562D01*
X11425Y-31462D01*
X11425Y-30587D01*
X11387Y-30496D01*
X11316Y-30425D01*
X11224Y-30387D01*
X11175Y-30387D01*
X11175Y-29476D01*
X11185Y-29466D01*
X11249Y-29309D01*
X11250Y-29140D01*
X11185Y-28984D01*
X11066Y-28864D01*
X10953Y-28818D01*
X10967Y-28770D01*
X11022Y-28824D01*
X11051Y-28795D01*
X11075Y-28819D01*
X11185Y-28865D01*
X11395Y-28865D01*
X11470Y-28790D01*
X11470Y-28305D01*
X11462Y-28305D01*
X11462Y-28195D01*
X11470Y-28195D01*
X11470Y-28187D01*
X11580Y-28187D01*
X11580Y-28195D01*
X12030Y-28195D01*
X12105Y-28120D01*
X12105Y-27994D01*
X12104Y-27875D01*
X12092Y-27846D01*
X12146Y-27835D01*
X12260Y-27759D01*
X12366Y-27653D01*
X12289Y-27754D01*
X12200Y-28095D01*
X12200Y-28395D01*
X13045Y-28395D01*
X13045Y-28387D01*
X13155Y-28387D01*
X13155Y-28395D01*
X14000Y-28395D01*
X14000Y-28095D01*
X13910Y-27754D01*
X13830Y-27650D01*
X13884Y-27650D01*
X14040Y-27585D01*
X14160Y-27466D01*
X14224Y-27309D01*
X14225Y-27140D01*
X14160Y-26984D01*
X14070Y-26893D01*
X14070Y-25574D01*
X14070Y-25011D01*
X13968Y-25011D01*
X13782Y-25011D01*
X13680Y-25011D01*
X13680Y-25574D01*
X13755Y-25649D01*
X13802Y-25649D01*
X13875Y-25619D01*
X13947Y-25649D01*
X13995Y-25649D01*
X14070Y-25574D01*
X14070Y-26893D01*
X14041Y-26864D01*
X13884Y-26800D01*
X13715Y-26799D01*
X13570Y-26860D01*
X13570Y-25574D01*
X13570Y-25011D01*
X13468Y-25011D01*
X13282Y-25011D01*
X13180Y-25011D01*
X13180Y-25574D01*
X13255Y-25649D01*
X13302Y-25649D01*
X13375Y-25619D01*
X13447Y-25649D01*
X13495Y-25649D01*
X13570Y-25574D01*
X13570Y-26860D01*
X13559Y-26864D01*
X13549Y-26875D01*
X13070Y-26875D01*
X13070Y-25574D01*
X13070Y-25011D01*
X12968Y-25011D01*
X12782Y-25011D01*
X12680Y-25011D01*
X12680Y-25574D01*
X12755Y-25649D01*
X12802Y-25649D01*
X12875Y-25619D01*
X12947Y-25649D01*
X12995Y-25649D01*
X13070Y-25574D01*
X13070Y-26875D01*
X12570Y-26875D01*
X12570Y-25574D01*
X12570Y-25011D01*
X12282Y-25011D01*
X12207Y-25086D01*
X12206Y-25290D01*
X12207Y-25409D01*
X12252Y-25519D01*
X12337Y-25603D01*
X12447Y-25649D01*
X12495Y-25649D01*
X12570Y-25574D01*
X12570Y-26875D01*
X12300Y-26875D01*
X12166Y-26901D01*
X12145Y-26915D01*
X12145Y-26870D01*
X12144Y-26870D01*
X12145Y-26774D01*
X12145Y-26742D01*
X12149Y-26738D01*
X12194Y-26627D01*
X12194Y-26602D01*
X12120Y-26528D01*
X12109Y-26528D01*
X12107Y-26522D01*
X12036Y-26452D01*
X12026Y-26448D01*
X12120Y-26448D01*
X12194Y-26373D01*
X12194Y-26348D01*
X12149Y-26237D01*
X12084Y-26173D01*
X12104Y-26124D01*
X12105Y-26005D01*
X12105Y-25494D01*
X12104Y-25375D01*
X12059Y-25264D01*
X11974Y-25180D01*
X11864Y-25134D01*
X11655Y-25135D01*
X11580Y-25210D01*
X11580Y-25695D01*
X12030Y-25695D01*
X12105Y-25620D01*
X12105Y-25494D01*
X12105Y-26005D01*
X12105Y-25880D01*
X12030Y-25805D01*
X11580Y-25805D01*
X11580Y-25812D01*
X11470Y-25812D01*
X11470Y-25805D01*
X11462Y-25805D01*
X11462Y-25695D01*
X11470Y-25695D01*
X11470Y-25210D01*
X11395Y-25135D01*
X11185Y-25134D01*
X11075Y-25180D01*
X11051Y-25204D01*
X11022Y-25175D01*
X10967Y-25229D01*
X10933Y-25112D01*
X10681Y-25020D01*
X10413Y-25031D01*
X10275Y-25088D01*
X10275Y-24945D01*
X10285Y-24949D01*
X10464Y-24950D01*
X10629Y-24881D01*
X10700Y-24811D01*
X10769Y-24881D01*
X10935Y-24949D01*
X11114Y-24950D01*
X11279Y-24881D01*
X11350Y-24811D01*
X11419Y-24881D01*
X11585Y-24949D01*
X11764Y-24950D01*
X11929Y-24881D01*
X12056Y-24755D01*
X12124Y-24589D01*
X12125Y-24410D01*
X12068Y-24275D01*
X12417Y-24275D01*
X12337Y-24308D01*
X12252Y-24392D01*
X12207Y-24502D01*
X12206Y-24621D01*
X12207Y-24826D01*
X12282Y-24901D01*
X12570Y-24901D01*
X12570Y-24893D01*
X12680Y-24893D01*
X12680Y-24901D01*
X12782Y-24901D01*
X12968Y-24901D01*
X13070Y-24901D01*
X13070Y-24893D01*
X13180Y-24893D01*
X13180Y-24901D01*
X13282Y-24901D01*
X13468Y-24901D01*
X13570Y-24901D01*
X13570Y-24893D01*
X13680Y-24893D01*
X13680Y-24901D01*
X13782Y-24901D01*
X13968Y-24901D01*
X14070Y-24901D01*
X14070Y-24893D01*
X14180Y-24893D01*
X14180Y-24901D01*
X14187Y-24901D01*
X14187Y-25011D01*
X14180Y-25011D01*
X14180Y-25574D01*
X14255Y-25649D01*
X14302Y-25649D01*
X14412Y-25603D01*
X14428Y-25587D01*
X14457Y-25599D01*
X14556Y-25599D01*
X14726Y-25599D01*
X14687Y-25637D01*
X14622Y-25735D01*
X14600Y-25850D01*
X14600Y-26400D01*
X14622Y-26514D01*
X14687Y-26612D01*
X14987Y-26912D01*
X14987Y-26912D01*
X15085Y-26977D01*
X15199Y-26999D01*
X15200Y-27000D01*
X15518Y-27000D01*
X15518Y-27044D01*
X15556Y-27136D01*
X15627Y-27206D01*
X15719Y-27244D01*
X15818Y-27245D01*
X15920Y-27245D01*
X15975Y-27299D01*
X14850Y-27299D01*
X14758Y-27337D01*
X14688Y-27408D01*
X14650Y-27500D01*
X14649Y-27599D01*
X14649Y-29399D01*
X14687Y-29491D01*
X14758Y-29561D01*
X14772Y-29567D01*
X14705Y-29550D01*
X14405Y-29550D01*
X14405Y-30395D01*
X15473Y-30395D01*
X15528Y-30255D01*
X15502Y-30156D01*
X15325Y-29852D01*
X15045Y-29639D01*
X14894Y-29599D01*
X14949Y-29600D01*
X16149Y-29600D01*
X16241Y-29562D01*
X16311Y-29491D01*
X16349Y-29399D01*
X16350Y-29300D01*
X16350Y-27674D01*
X16425Y-27749D01*
X16425Y-30400D01*
X16447Y-30514D01*
X16512Y-30612D01*
X16862Y-30962D01*
X16862Y-30962D01*
X16960Y-31027D01*
X17074Y-31049D01*
X17075Y-31050D01*
X17399Y-31050D01*
X17400Y-31120D01*
X17475Y-31195D01*
X17945Y-31195D01*
X17945Y-31187D01*
X18055Y-31187D01*
X18055Y-31195D01*
X18062Y-31195D01*
X18062Y-31305D01*
X18062Y-31305D01*
G37*
G54D45*
X18062Y-31305D02*
X18055Y-31305D01*
X18055Y-31312D01*
X17945Y-31312D01*
X17945Y-31305D01*
X17475Y-31305D01*
X17400Y-31380D01*
X17399Y-31609D01*
X17445Y-31719D01*
X17450Y-31725D01*
X15528Y-31725D01*
X15528Y-30644D01*
X15473Y-30505D01*
X14405Y-30505D01*
X14405Y-31350D01*
X14705Y-31350D01*
X15045Y-31260D01*
X15325Y-31047D01*
X15502Y-30743D01*
X15528Y-30644D01*
X15528Y-31725D01*
X14295Y-31725D01*
X14295Y-31350D01*
X14295Y-30505D01*
X14295Y-30395D01*
X14295Y-29550D01*
X14000Y-29550D01*
X14000Y-28805D01*
X14000Y-28505D01*
X13155Y-28505D01*
X13155Y-29573D01*
X13294Y-29628D01*
X13393Y-29602D01*
X13697Y-29425D01*
X13910Y-29145D01*
X14000Y-28805D01*
X14000Y-29550D01*
X13995Y-29550D01*
X13654Y-29639D01*
X13374Y-29852D01*
X13197Y-30156D01*
X13171Y-30255D01*
X13226Y-30395D01*
X14295Y-30395D01*
X14295Y-30505D01*
X13226Y-30505D01*
X13171Y-30644D01*
X13197Y-30743D01*
X13374Y-31047D01*
X13654Y-31260D01*
X13995Y-31350D01*
X14295Y-31350D01*
X14295Y-31725D01*
X13045Y-31725D01*
X13045Y-29573D01*
X13045Y-28505D01*
X12200Y-28505D01*
X12200Y-28805D01*
X12289Y-29145D01*
X12502Y-29425D01*
X12806Y-29602D01*
X12905Y-29628D01*
X13045Y-29573D01*
X13045Y-31725D01*
X12886Y-31725D01*
X12929Y-31682D01*
X12974Y-31572D01*
X12975Y-31453D01*
X12975Y-30696D01*
X12974Y-30577D01*
X12929Y-30467D01*
X12844Y-30383D01*
X12734Y-30337D01*
X12455Y-30337D01*
X12380Y-30412D01*
X12380Y-31020D01*
X12900Y-31020D01*
X12975Y-30945D01*
X12975Y-30696D01*
X12975Y-31453D01*
X12975Y-31205D01*
X12900Y-31130D01*
X12380Y-31130D01*
X12380Y-31137D01*
X12270Y-31137D01*
X12270Y-31130D01*
X12270Y-31020D01*
X12270Y-30412D01*
X12195Y-30337D01*
X12105Y-30337D01*
X12105Y-28505D01*
X12105Y-28380D01*
X12030Y-28305D01*
X11580Y-28305D01*
X11580Y-28790D01*
X11655Y-28865D01*
X11864Y-28865D01*
X11974Y-28819D01*
X12059Y-28735D01*
X12104Y-28624D01*
X12105Y-28505D01*
X12105Y-30337D01*
X11915Y-30337D01*
X11805Y-30383D01*
X11720Y-30467D01*
X11675Y-30577D01*
X11674Y-30696D01*
X11675Y-30945D01*
X11750Y-31020D01*
X12270Y-31020D01*
X12270Y-31130D01*
X11750Y-31130D01*
X11675Y-31205D01*
X11674Y-31453D01*
X11675Y-31572D01*
X11720Y-31682D01*
X11763Y-31725D01*
X11315Y-31725D01*
X11316Y-31724D01*
X11386Y-31654D01*
X11424Y-31562D01*
X11425Y-31462D01*
X11425Y-30587D01*
X11387Y-30496D01*
X11316Y-30425D01*
X11224Y-30387D01*
X11175Y-30387D01*
X11175Y-29476D01*
X11185Y-29466D01*
X11249Y-29309D01*
X11250Y-29140D01*
X11185Y-28984D01*
X11066Y-28864D01*
X10953Y-28818D01*
X10967Y-28770D01*
X11022Y-28824D01*
X11051Y-28795D01*
X11075Y-28819D01*
X11185Y-28865D01*
X11395Y-28865D01*
X11470Y-28790D01*
X11470Y-28305D01*
X11462Y-28305D01*
X11462Y-28195D01*
X11470Y-28195D01*
X11470Y-28187D01*
X11580Y-28187D01*
X11580Y-28195D01*
X12030Y-28195D01*
X12105Y-28120D01*
X12105Y-27994D01*
X12104Y-27875D01*
X12092Y-27846D01*
X12146Y-27835D01*
X12260Y-27759D01*
X12366Y-27653D01*
X12289Y-27754D01*
X12200Y-28095D01*
X12200Y-28395D01*
X13045Y-28395D01*
X13045Y-28387D01*
X13155Y-28387D01*
X13155Y-28395D01*
X14000Y-28395D01*
X14000Y-28095D01*
X13910Y-27754D01*
X13830Y-27650D01*
X13884Y-27650D01*
X14040Y-27585D01*
X14160Y-27466D01*
X14224Y-27309D01*
X14225Y-27140D01*
X14160Y-26984D01*
X14070Y-26893D01*
X14070Y-25574D01*
X14070Y-25011D01*
X13968Y-25011D01*
X13782Y-25011D01*
X13680Y-25011D01*
X13680Y-25574D01*
X13755Y-25649D01*
X13802Y-25649D01*
X13875Y-25619D01*
X13947Y-25649D01*
X13995Y-25649D01*
X14070Y-25574D01*
X14070Y-26893D01*
X14041Y-26864D01*
X13884Y-26800D01*
X13715Y-26799D01*
X13570Y-26860D01*
X13570Y-25574D01*
X13570Y-25011D01*
X13468Y-25011D01*
X13282Y-25011D01*
X13180Y-25011D01*
X13180Y-25574D01*
X13255Y-25649D01*
X13302Y-25649D01*
X13375Y-25619D01*
X13447Y-25649D01*
X13495Y-25649D01*
X13570Y-25574D01*
X13570Y-26860D01*
X13559Y-26864D01*
X13549Y-26875D01*
X13070Y-26875D01*
X13070Y-25574D01*
X13070Y-25011D01*
X12968Y-25011D01*
X12782Y-25011D01*
X12680Y-25011D01*
X12680Y-25574D01*
X12755Y-25649D01*
X12802Y-25649D01*
X12875Y-25619D01*
X12947Y-25649D01*
X12995Y-25649D01*
X13070Y-25574D01*
X13070Y-26875D01*
X12570Y-26875D01*
X12570Y-25574D01*
X12570Y-25011D01*
X12282Y-25011D01*
X12207Y-25086D01*
X12206Y-25290D01*
X12207Y-25409D01*
X12252Y-25519D01*
X12337Y-25603D01*
X12447Y-25649D01*
X12495Y-25649D01*
X12570Y-25574D01*
X12570Y-26875D01*
X12300Y-26875D01*
X12166Y-26901D01*
X12145Y-26915D01*
X12145Y-26870D01*
X12144Y-26870D01*
X12145Y-26774D01*
X12145Y-26742D01*
X12149Y-26738D01*
X12194Y-26627D01*
X12194Y-26602D01*
X12120Y-26528D01*
X12109Y-26528D01*
X12107Y-26522D01*
X12036Y-26452D01*
X12026Y-26448D01*
X12120Y-26448D01*
X12194Y-26373D01*
X12194Y-26348D01*
X12149Y-26237D01*
X12084Y-26173D01*
X12104Y-26124D01*
X12105Y-26005D01*
X12105Y-25494D01*
X12104Y-25375D01*
X12059Y-25264D01*
X11974Y-25180D01*
X11864Y-25134D01*
X11655Y-25135D01*
X11580Y-25210D01*
X11580Y-25695D01*
X12030Y-25695D01*
X12105Y-25620D01*
X12105Y-25494D01*
X12105Y-26005D01*
X12105Y-25880D01*
X12030Y-25805D01*
X11580Y-25805D01*
X11580Y-25812D01*
X11470Y-25812D01*
X11470Y-25805D01*
X11462Y-25805D01*
X11462Y-25695D01*
X11470Y-25695D01*
X11470Y-25210D01*
X11395Y-25135D01*
X11185Y-25134D01*
X11075Y-25180D01*
X11051Y-25204D01*
X11022Y-25175D01*
X10967Y-25229D01*
X10933Y-25112D01*
X10681Y-25020D01*
X10413Y-25031D01*
X10275Y-25088D01*
X10275Y-24945D01*
X10285Y-24949D01*
X10464Y-24950D01*
X10629Y-24881D01*
X10700Y-24811D01*
X10769Y-24881D01*
X10935Y-24949D01*
X11114Y-24950D01*
X11279Y-24881D01*
X11350Y-24811D01*
X11419Y-24881D01*
X11585Y-24949D01*
X11764Y-24950D01*
X11929Y-24881D01*
X12056Y-24755D01*
X12124Y-24589D01*
X12125Y-24410D01*
X12068Y-24275D01*
X12417Y-24275D01*
X12337Y-24308D01*
X12252Y-24392D01*
X12207Y-24502D01*
X12206Y-24621D01*
X12207Y-24826D01*
X12282Y-24901D01*
X12570Y-24901D01*
X12570Y-24893D01*
X12680Y-24893D01*
X12680Y-24901D01*
X12782Y-24901D01*
X12968Y-24901D01*
X13070Y-24901D01*
X13070Y-24893D01*
X13180Y-24893D01*
X13180Y-24901D01*
X13282Y-24901D01*
X13468Y-24901D01*
X13570Y-24901D01*
X13570Y-24893D01*
X13680Y-24893D01*
X13680Y-24901D01*
X13782Y-24901D01*
X13968Y-24901D01*
X14070Y-24901D01*
X14070Y-24893D01*
X14180Y-24893D01*
X14180Y-24901D01*
X14187Y-24901D01*
X14187Y-25011D01*
X14180Y-25011D01*
X14180Y-25574D01*
X14255Y-25649D01*
X14302Y-25649D01*
X14412Y-25603D01*
X14428Y-25587D01*
X14457Y-25599D01*
X14556Y-25599D01*
X14726Y-25599D01*
X14687Y-25637D01*
X14622Y-25735D01*
X14600Y-25850D01*
X14600Y-26400D01*
X14622Y-26514D01*
X14687Y-26612D01*
X14987Y-26912D01*
X14987Y-26912D01*
X15085Y-26977D01*
X15199Y-26999D01*
X15200Y-27000D01*
X15518Y-27000D01*
X15518Y-27044D01*
X15556Y-27136D01*
X15627Y-27206D01*
X15719Y-27244D01*
X15818Y-27245D01*
X15920Y-27245D01*
X15975Y-27299D01*
X14850Y-27299D01*
X14758Y-27337D01*
X14688Y-27408D01*
X14650Y-27500D01*
X14649Y-27599D01*
X14649Y-29399D01*
X14687Y-29491D01*
X14758Y-29561D01*
X14772Y-29567D01*
X14705Y-29550D01*
X14405Y-29550D01*
X14405Y-30395D01*
X15473Y-30395D01*
X15528Y-30255D01*
X15502Y-30156D01*
X15325Y-29852D01*
X15045Y-29639D01*
X14894Y-29599D01*
X14949Y-29600D01*
X16149Y-29600D01*
X16241Y-29562D01*
X16311Y-29491D01*
X16349Y-29399D01*
X16350Y-29300D01*
X16350Y-27674D01*
X16425Y-27749D01*
X16425Y-30400D01*
X16447Y-30514D01*
X16512Y-30612D01*
X16862Y-30962D01*
X16862Y-30962D01*
X16960Y-31027D01*
X17074Y-31049D01*
X17075Y-31050D01*
X17399Y-31050D01*
X17400Y-31120D01*
X17475Y-31195D01*
X17945Y-31195D01*
X17945Y-31187D01*
X18055Y-31187D01*
X18055Y-31195D01*
X18062Y-31195D01*
X18062Y-31305D01*
G54D10*
G36*
X21775Y-10275D02*
X21774Y-10350D01*
X21591Y-10349D01*
X21388Y-10433D01*
X21234Y-10588D01*
X21200Y-10669D01*
X21166Y-10588D01*
X21011Y-10434D01*
X20809Y-10350D01*
X20591Y-10349D01*
X20388Y-10433D01*
X20234Y-10588D01*
X20200Y-10669D01*
X20166Y-10588D01*
X20011Y-10434D01*
X19809Y-10350D01*
X19591Y-10349D01*
X19388Y-10433D01*
X19234Y-10588D01*
X19200Y-10669D01*
X19166Y-10588D01*
X19011Y-10434D01*
X18809Y-10350D01*
X18591Y-10349D01*
X18388Y-10433D01*
X18234Y-10588D01*
X18200Y-10669D01*
X18166Y-10588D01*
X18011Y-10434D01*
X17809Y-10350D01*
X17591Y-10349D01*
X17388Y-10433D01*
X17234Y-10588D01*
X17200Y-10669D01*
X17166Y-10588D01*
X17011Y-10434D01*
X16809Y-10350D01*
X16591Y-10349D01*
X16388Y-10433D01*
X16234Y-10588D01*
X16200Y-10669D01*
X16166Y-10588D01*
X16011Y-10434D01*
X15809Y-10350D01*
X15591Y-10349D01*
X15388Y-10433D01*
X15234Y-10588D01*
X15200Y-10669D01*
X15166Y-10588D01*
X15011Y-10434D01*
X14809Y-10350D01*
X14591Y-10349D01*
X14388Y-10433D01*
X14234Y-10588D01*
X14200Y-10669D01*
X14166Y-10588D01*
X14011Y-10434D01*
X13809Y-10350D01*
X13591Y-10349D01*
X13388Y-10433D01*
X13294Y-10527D01*
X13254Y-10429D01*
X13169Y-10345D01*
X13059Y-10299D01*
X12830Y-10300D01*
X12755Y-10375D01*
X12755Y-10845D01*
X12762Y-10845D01*
X12762Y-10955D01*
X12755Y-10955D01*
X12755Y-10962D01*
X12645Y-10962D01*
X12645Y-10955D01*
X12637Y-10955D01*
X12637Y-10845D01*
X12645Y-10845D01*
X12645Y-10375D01*
X12570Y-10300D01*
X12340Y-10299D01*
X12230Y-10345D01*
X12145Y-10429D01*
X12105Y-10527D01*
X12011Y-10434D01*
X11809Y-10350D01*
X11591Y-10349D01*
X11388Y-10433D01*
X11234Y-10588D01*
X11200Y-10669D01*
X11166Y-10588D01*
X11011Y-10434D01*
X10809Y-10350D01*
X10591Y-10349D01*
X10388Y-10433D01*
X10275Y-10547D01*
X10275Y-10275D01*
X21775Y-10275D01*
X21775Y-10275D01*
G37*
G54D45*
X21775Y-10275D02*
X21774Y-10350D01*
X21591Y-10349D01*
X21388Y-10433D01*
X21234Y-10588D01*
X21200Y-10669D01*
X21166Y-10588D01*
X21011Y-10434D01*
X20809Y-10350D01*
X20591Y-10349D01*
X20388Y-10433D01*
X20234Y-10588D01*
X20200Y-10669D01*
X20166Y-10588D01*
X20011Y-10434D01*
X19809Y-10350D01*
X19591Y-10349D01*
X19388Y-10433D01*
X19234Y-10588D01*
X19200Y-10669D01*
X19166Y-10588D01*
X19011Y-10434D01*
X18809Y-10350D01*
X18591Y-10349D01*
X18388Y-10433D01*
X18234Y-10588D01*
X18200Y-10669D01*
X18166Y-10588D01*
X18011Y-10434D01*
X17809Y-10350D01*
X17591Y-10349D01*
X17388Y-10433D01*
X17234Y-10588D01*
X17200Y-10669D01*
X17166Y-10588D01*
X17011Y-10434D01*
X16809Y-10350D01*
X16591Y-10349D01*
X16388Y-10433D01*
X16234Y-10588D01*
X16200Y-10669D01*
X16166Y-10588D01*
X16011Y-10434D01*
X15809Y-10350D01*
X15591Y-10349D01*
X15388Y-10433D01*
X15234Y-10588D01*
X15200Y-10669D01*
X15166Y-10588D01*
X15011Y-10434D01*
X14809Y-10350D01*
X14591Y-10349D01*
X14388Y-10433D01*
X14234Y-10588D01*
X14200Y-10669D01*
X14166Y-10588D01*
X14011Y-10434D01*
X13809Y-10350D01*
X13591Y-10349D01*
X13388Y-10433D01*
X13294Y-10527D01*
X13254Y-10429D01*
X13169Y-10345D01*
X13059Y-10299D01*
X12830Y-10300D01*
X12755Y-10375D01*
X12755Y-10845D01*
X12762Y-10845D01*
X12762Y-10955D01*
X12755Y-10955D01*
X12755Y-10962D01*
X12645Y-10962D01*
X12645Y-10955D01*
X12637Y-10955D01*
X12637Y-10845D01*
X12645Y-10845D01*
X12645Y-10375D01*
X12570Y-10300D01*
X12340Y-10299D01*
X12230Y-10345D01*
X12145Y-10429D01*
X12105Y-10527D01*
X12011Y-10434D01*
X11809Y-10350D01*
X11591Y-10349D01*
X11388Y-10433D01*
X11234Y-10588D01*
X11200Y-10669D01*
X11166Y-10588D01*
X11011Y-10434D01*
X10809Y-10350D01*
X10591Y-10349D01*
X10388Y-10433D01*
X10275Y-10547D01*
X10275Y-10275D01*
X21775Y-10275D01*
G54D10*
G36*
X23075Y-20648D02*
X23014Y-20708D01*
X23004Y-20734D01*
X22847Y-20577D01*
X22733Y-20501D01*
X22600Y-20475D01*
X20575Y-20475D01*
X20441Y-20501D01*
X20327Y-20577D01*
X20327Y-20577D01*
X20327Y-20577D01*
X20152Y-20752D01*
X20076Y-20866D01*
X20050Y-21000D01*
X20050Y-21200D01*
X18075Y-21200D01*
X17941Y-21226D01*
X17827Y-21302D01*
X16752Y-22377D01*
X16676Y-22491D01*
X16650Y-22625D01*
X16650Y-23755D01*
X16580Y-23824D01*
X16565Y-23824D01*
X16425Y-23883D01*
X16425Y-23750D01*
X16402Y-23635D01*
X16337Y-23537D01*
X16112Y-23312D01*
X16014Y-23247D01*
X15900Y-23225D01*
X14570Y-23225D01*
X14570Y-21912D01*
X14570Y-21349D01*
X14570Y-21239D01*
X14570Y-20675D01*
X14495Y-20600D01*
X14447Y-20600D01*
X14375Y-20630D01*
X14302Y-20600D01*
X14255Y-20600D01*
X14245Y-20610D01*
X14245Y-20430D01*
X14245Y-19980D01*
X13865Y-19980D01*
X13790Y-20055D01*
X13789Y-20145D01*
X13790Y-20264D01*
X13835Y-20375D01*
X13920Y-20459D01*
X14030Y-20505D01*
X14170Y-20505D01*
X14245Y-20430D01*
X14245Y-20610D01*
X14180Y-20675D01*
X14180Y-21239D01*
X14282Y-21239D01*
X14468Y-21239D01*
X14570Y-21239D01*
X14570Y-21349D01*
X14468Y-21349D01*
X14282Y-21349D01*
X14180Y-21349D01*
X14180Y-21912D01*
X14255Y-21987D01*
X14302Y-21987D01*
X14375Y-21957D01*
X14447Y-21987D01*
X14495Y-21987D01*
X14570Y-21912D01*
X14570Y-23225D01*
X14070Y-23225D01*
X14070Y-21912D01*
X14070Y-21349D01*
X14070Y-21239D01*
X14070Y-20675D01*
X13995Y-20600D01*
X13947Y-20600D01*
X13875Y-20630D01*
X13802Y-20600D01*
X13755Y-20600D01*
X13680Y-20675D01*
X13680Y-21239D01*
X13782Y-21239D01*
X13968Y-21239D01*
X14070Y-21239D01*
X14070Y-21349D01*
X13968Y-21349D01*
X13782Y-21349D01*
X13680Y-21349D01*
X13680Y-21912D01*
X13755Y-21987D01*
X13802Y-21987D01*
X13875Y-21957D01*
X13947Y-21987D01*
X13995Y-21987D01*
X14070Y-21912D01*
X14070Y-23225D01*
X13570Y-23225D01*
X13570Y-21912D01*
X13570Y-21349D01*
X13570Y-21239D01*
X13570Y-20675D01*
X13495Y-20600D01*
X13447Y-20600D01*
X13381Y-20627D01*
X13381Y-19260D01*
X13381Y-18789D01*
X13380Y-18670D01*
X13335Y-18559D01*
X13250Y-18475D01*
X13140Y-18429D01*
X12955Y-18430D01*
X12880Y-18505D01*
X12880Y-18970D01*
X13306Y-18970D01*
X13381Y-18895D01*
X13381Y-18789D01*
X13381Y-19260D01*
X13381Y-19155D01*
X13306Y-19080D01*
X12880Y-19080D01*
X12880Y-19545D01*
X12955Y-19620D01*
X13140Y-19620D01*
X13250Y-19574D01*
X13335Y-19490D01*
X13380Y-19379D01*
X13381Y-19260D01*
X13381Y-20627D01*
X13375Y-20630D01*
X13302Y-20600D01*
X13255Y-20600D01*
X13180Y-20675D01*
X13180Y-21239D01*
X13282Y-21239D01*
X13468Y-21239D01*
X13570Y-21239D01*
X13570Y-21349D01*
X13468Y-21349D01*
X13282Y-21349D01*
X13180Y-21349D01*
X13180Y-21912D01*
X13255Y-21987D01*
X13302Y-21987D01*
X13375Y-21957D01*
X13447Y-21987D01*
X13495Y-21987D01*
X13570Y-21912D01*
X13570Y-23225D01*
X13070Y-23225D01*
X13070Y-21912D01*
X13070Y-21349D01*
X13070Y-21239D01*
X13070Y-20675D01*
X12995Y-20600D01*
X12947Y-20600D01*
X12875Y-20630D01*
X12802Y-20600D01*
X12755Y-20600D01*
X12680Y-20675D01*
X12680Y-21239D01*
X12782Y-21239D01*
X12968Y-21239D01*
X13070Y-21239D01*
X13070Y-21349D01*
X12968Y-21349D01*
X12782Y-21349D01*
X12680Y-21349D01*
X12680Y-21912D01*
X12755Y-21987D01*
X12802Y-21987D01*
X12875Y-21957D01*
X12947Y-21987D01*
X12995Y-21987D01*
X13070Y-21912D01*
X13070Y-23225D01*
X10675Y-23225D01*
X10560Y-23247D01*
X10462Y-23312D01*
X10275Y-23500D01*
X10275Y-22144D01*
X10852Y-22722D01*
X10852Y-22722D01*
X10966Y-22798D01*
X11099Y-22825D01*
X11099Y-22824D01*
X11100Y-22825D01*
X12373Y-22825D01*
X12383Y-22835D01*
X12540Y-22899D01*
X12709Y-22900D01*
X12865Y-22835D01*
X12985Y-22716D01*
X13049Y-22559D01*
X13050Y-22390D01*
X12985Y-22234D01*
X12866Y-22114D01*
X12709Y-22050D01*
X12570Y-22049D01*
X12570Y-21912D01*
X12570Y-21349D01*
X12570Y-21239D01*
X12570Y-20675D01*
X12495Y-20600D01*
X12447Y-20600D01*
X12400Y-20620D01*
X12400Y-20620D01*
X12400Y-20619D01*
X12325Y-20619D01*
X12400Y-20545D01*
X12400Y-20584D01*
X12399Y-20465D01*
X12375Y-20405D01*
X12400Y-20330D01*
X12400Y-20130D01*
X12005Y-20130D01*
X12005Y-20300D01*
X12005Y-20620D01*
X12005Y-20645D01*
X12012Y-20652D01*
X12012Y-20730D01*
X12005Y-20730D01*
X12005Y-21050D01*
X12080Y-21125D01*
X12159Y-21125D01*
X12206Y-21105D01*
X12207Y-21164D01*
X12282Y-21239D01*
X12570Y-21239D01*
X12570Y-21349D01*
X12282Y-21349D01*
X12207Y-21424D01*
X12206Y-21628D01*
X12207Y-21747D01*
X12252Y-21857D01*
X12337Y-21941D01*
X12447Y-21987D01*
X12495Y-21987D01*
X12570Y-21912D01*
X12570Y-22049D01*
X12540Y-22049D01*
X12384Y-22114D01*
X12374Y-22125D01*
X11244Y-22125D01*
X10700Y-21580D01*
X10700Y-21054D01*
X10750Y-21074D01*
X10849Y-21075D01*
X11050Y-21075D01*
X11050Y-21486D01*
X11080Y-21639D01*
X11167Y-21769D01*
X11296Y-21856D01*
X11450Y-21886D01*
X11603Y-21856D01*
X11732Y-21769D01*
X11819Y-21639D01*
X11850Y-21486D01*
X11850Y-21095D01*
X11895Y-21050D01*
X11895Y-20730D01*
X11887Y-20730D01*
X11887Y-20652D01*
X11895Y-20645D01*
X11895Y-20620D01*
X11895Y-20300D01*
X11895Y-20130D01*
X11887Y-20130D01*
X11887Y-20020D01*
X11895Y-20020D01*
X11895Y-20012D01*
X12005Y-20012D01*
X12005Y-20020D01*
X12400Y-20020D01*
X12400Y-19820D01*
X12344Y-19651D01*
X12274Y-19570D01*
X12380Y-19570D01*
X12390Y-19565D01*
X12399Y-19574D01*
X12509Y-19620D01*
X12695Y-19620D01*
X12770Y-19545D01*
X12770Y-19080D01*
X12762Y-19080D01*
X12762Y-18970D01*
X12770Y-18970D01*
X12770Y-18505D01*
X12695Y-18430D01*
X12509Y-18429D01*
X12399Y-18475D01*
X12390Y-18484D01*
X12380Y-18480D01*
X12281Y-18479D01*
X11769Y-18479D01*
X11707Y-18505D01*
X11662Y-18437D01*
X11662Y-18437D01*
X10850Y-17625D01*
X10850Y-16880D01*
X10895Y-16880D01*
X10970Y-16805D01*
X10970Y-16355D01*
X10962Y-16355D01*
X10962Y-16245D01*
X10970Y-16245D01*
X10970Y-15795D01*
X10912Y-15737D01*
X10949Y-15700D01*
X12087Y-15700D01*
X12040Y-15770D01*
X11985Y-15769D01*
X11565Y-15769D01*
X11473Y-15807D01*
X11460Y-15821D01*
X11404Y-15765D01*
X11294Y-15719D01*
X11155Y-15720D01*
X11080Y-15795D01*
X11080Y-16245D01*
X11087Y-16245D01*
X11087Y-16355D01*
X11080Y-16355D01*
X11080Y-16805D01*
X11155Y-16880D01*
X11294Y-16880D01*
X11404Y-16834D01*
X11460Y-16778D01*
X11473Y-16791D01*
X11565Y-16829D01*
X11664Y-16830D01*
X12000Y-16830D01*
X12000Y-16918D01*
X11894Y-16875D01*
X11705Y-16874D01*
X11531Y-16947D01*
X11397Y-17080D01*
X11325Y-17255D01*
X11324Y-17444D01*
X11397Y-17618D01*
X11530Y-17752D01*
X11705Y-17824D01*
X11894Y-17825D01*
X11925Y-17812D01*
X11924Y-17934D01*
X11989Y-18090D01*
X12108Y-18210D01*
X12265Y-18274D01*
X12434Y-18275D01*
X12590Y-18210D01*
X12710Y-18091D01*
X12774Y-17934D01*
X12775Y-17765D01*
X12710Y-17609D01*
X12700Y-17599D01*
X12700Y-17161D01*
X12760Y-17202D01*
X12875Y-17225D01*
X13425Y-17225D01*
X13450Y-17249D01*
X13450Y-17650D01*
X13472Y-17764D01*
X13537Y-17862D01*
X14569Y-18893D01*
X14459Y-18939D01*
X14339Y-19058D01*
X14275Y-19215D01*
X14274Y-19345D01*
X14244Y-19345D01*
X14244Y-19419D01*
X14170Y-19345D01*
X14030Y-19344D01*
X13920Y-19390D01*
X13835Y-19474D01*
X13790Y-19585D01*
X13789Y-19704D01*
X13790Y-19795D01*
X13865Y-19870D01*
X14245Y-19870D01*
X14245Y-19862D01*
X14355Y-19862D01*
X14355Y-19870D01*
X14362Y-19870D01*
X14362Y-19980D01*
X14355Y-19980D01*
X14355Y-20430D01*
X14430Y-20505D01*
X14569Y-20505D01*
X14679Y-20459D01*
X14735Y-20403D01*
X14748Y-20416D01*
X14775Y-20427D01*
X14775Y-20600D01*
X14755Y-20600D01*
X14680Y-20675D01*
X14680Y-21239D01*
X14687Y-21239D01*
X14687Y-21349D01*
X14680Y-21349D01*
X14680Y-21912D01*
X14755Y-21987D01*
X14792Y-21987D01*
X14792Y-21987D01*
X14801Y-22033D01*
X14877Y-22147D01*
X15197Y-22467D01*
X15197Y-22467D01*
X15311Y-22543D01*
X15444Y-22570D01*
X15444Y-22569D01*
X15445Y-22570D01*
X16230Y-22570D01*
X16363Y-22543D01*
X16363Y-22543D01*
X16477Y-22467D01*
X16822Y-22122D01*
X16898Y-22008D01*
X16925Y-21875D01*
X16925Y-20949D01*
X17059Y-20950D01*
X17215Y-20885D01*
X17225Y-20875D01*
X18125Y-20875D01*
X18258Y-20848D01*
X18258Y-20848D01*
X18372Y-20772D01*
X19176Y-19968D01*
X19222Y-19898D01*
X19258Y-19935D01*
X19415Y-19999D01*
X19584Y-20000D01*
X19740Y-19935D01*
X19749Y-19926D01*
X19758Y-19935D01*
X19915Y-19999D01*
X20084Y-20000D01*
X20240Y-19935D01*
X20301Y-19875D01*
X23050Y-19875D01*
X23075Y-19899D01*
X23075Y-20648D01*
X23075Y-20648D01*
G37*
G54D45*
X23075Y-20648D02*
X23014Y-20708D01*
X23004Y-20734D01*
X22847Y-20577D01*
X22733Y-20501D01*
X22600Y-20475D01*
X20575Y-20475D01*
X20441Y-20501D01*
X20327Y-20577D01*
X20327Y-20577D01*
X20327Y-20577D01*
X20152Y-20752D01*
X20076Y-20866D01*
X20050Y-21000D01*
X20050Y-21200D01*
X18075Y-21200D01*
X17941Y-21226D01*
X17827Y-21302D01*
X16752Y-22377D01*
X16676Y-22491D01*
X16650Y-22625D01*
X16650Y-23755D01*
X16580Y-23824D01*
X16565Y-23824D01*
X16425Y-23883D01*
X16425Y-23750D01*
X16402Y-23635D01*
X16337Y-23537D01*
X16112Y-23312D01*
X16014Y-23247D01*
X15900Y-23225D01*
X14570Y-23225D01*
X14570Y-21912D01*
X14570Y-21349D01*
X14570Y-21239D01*
X14570Y-20675D01*
X14495Y-20600D01*
X14447Y-20600D01*
X14375Y-20630D01*
X14302Y-20600D01*
X14255Y-20600D01*
X14245Y-20610D01*
X14245Y-20430D01*
X14245Y-19980D01*
X13865Y-19980D01*
X13790Y-20055D01*
X13789Y-20145D01*
X13790Y-20264D01*
X13835Y-20375D01*
X13920Y-20459D01*
X14030Y-20505D01*
X14170Y-20505D01*
X14245Y-20430D01*
X14245Y-20610D01*
X14180Y-20675D01*
X14180Y-21239D01*
X14282Y-21239D01*
X14468Y-21239D01*
X14570Y-21239D01*
X14570Y-21349D01*
X14468Y-21349D01*
X14282Y-21349D01*
X14180Y-21349D01*
X14180Y-21912D01*
X14255Y-21987D01*
X14302Y-21987D01*
X14375Y-21957D01*
X14447Y-21987D01*
X14495Y-21987D01*
X14570Y-21912D01*
X14570Y-23225D01*
X14070Y-23225D01*
X14070Y-21912D01*
X14070Y-21349D01*
X14070Y-21239D01*
X14070Y-20675D01*
X13995Y-20600D01*
X13947Y-20600D01*
X13875Y-20630D01*
X13802Y-20600D01*
X13755Y-20600D01*
X13680Y-20675D01*
X13680Y-21239D01*
X13782Y-21239D01*
X13968Y-21239D01*
X14070Y-21239D01*
X14070Y-21349D01*
X13968Y-21349D01*
X13782Y-21349D01*
X13680Y-21349D01*
X13680Y-21912D01*
X13755Y-21987D01*
X13802Y-21987D01*
X13875Y-21957D01*
X13947Y-21987D01*
X13995Y-21987D01*
X14070Y-21912D01*
X14070Y-23225D01*
X13570Y-23225D01*
X13570Y-21912D01*
X13570Y-21349D01*
X13570Y-21239D01*
X13570Y-20675D01*
X13495Y-20600D01*
X13447Y-20600D01*
X13381Y-20627D01*
X13381Y-19260D01*
X13381Y-18789D01*
X13380Y-18670D01*
X13335Y-18559D01*
X13250Y-18475D01*
X13140Y-18429D01*
X12955Y-18430D01*
X12880Y-18505D01*
X12880Y-18970D01*
X13306Y-18970D01*
X13381Y-18895D01*
X13381Y-18789D01*
X13381Y-19260D01*
X13381Y-19155D01*
X13306Y-19080D01*
X12880Y-19080D01*
X12880Y-19545D01*
X12955Y-19620D01*
X13140Y-19620D01*
X13250Y-19574D01*
X13335Y-19490D01*
X13380Y-19379D01*
X13381Y-19260D01*
X13381Y-20627D01*
X13375Y-20630D01*
X13302Y-20600D01*
X13255Y-20600D01*
X13180Y-20675D01*
X13180Y-21239D01*
X13282Y-21239D01*
X13468Y-21239D01*
X13570Y-21239D01*
X13570Y-21349D01*
X13468Y-21349D01*
X13282Y-21349D01*
X13180Y-21349D01*
X13180Y-21912D01*
X13255Y-21987D01*
X13302Y-21987D01*
X13375Y-21957D01*
X13447Y-21987D01*
X13495Y-21987D01*
X13570Y-21912D01*
X13570Y-23225D01*
X13070Y-23225D01*
X13070Y-21912D01*
X13070Y-21349D01*
X13070Y-21239D01*
X13070Y-20675D01*
X12995Y-20600D01*
X12947Y-20600D01*
X12875Y-20630D01*
X12802Y-20600D01*
X12755Y-20600D01*
X12680Y-20675D01*
X12680Y-21239D01*
X12782Y-21239D01*
X12968Y-21239D01*
X13070Y-21239D01*
X13070Y-21349D01*
X12968Y-21349D01*
X12782Y-21349D01*
X12680Y-21349D01*
X12680Y-21912D01*
X12755Y-21987D01*
X12802Y-21987D01*
X12875Y-21957D01*
X12947Y-21987D01*
X12995Y-21987D01*
X13070Y-21912D01*
X13070Y-23225D01*
X10675Y-23225D01*
X10560Y-23247D01*
X10462Y-23312D01*
X10275Y-23500D01*
X10275Y-22144D01*
X10852Y-22722D01*
X10852Y-22722D01*
X10966Y-22798D01*
X11099Y-22825D01*
X11099Y-22824D01*
X11100Y-22825D01*
X12373Y-22825D01*
X12383Y-22835D01*
X12540Y-22899D01*
X12709Y-22900D01*
X12865Y-22835D01*
X12985Y-22716D01*
X13049Y-22559D01*
X13050Y-22390D01*
X12985Y-22234D01*
X12866Y-22114D01*
X12709Y-22050D01*
X12570Y-22049D01*
X12570Y-21912D01*
X12570Y-21349D01*
X12570Y-21239D01*
X12570Y-20675D01*
X12495Y-20600D01*
X12447Y-20600D01*
X12400Y-20620D01*
X12400Y-20620D01*
X12400Y-20619D01*
X12325Y-20619D01*
X12400Y-20545D01*
X12400Y-20584D01*
X12399Y-20465D01*
X12375Y-20405D01*
X12400Y-20330D01*
X12400Y-20130D01*
X12005Y-20130D01*
X12005Y-20300D01*
X12005Y-20620D01*
X12005Y-20645D01*
X12012Y-20652D01*
X12012Y-20730D01*
X12005Y-20730D01*
X12005Y-21050D01*
X12080Y-21125D01*
X12159Y-21125D01*
X12206Y-21105D01*
X12207Y-21164D01*
X12282Y-21239D01*
X12570Y-21239D01*
X12570Y-21349D01*
X12282Y-21349D01*
X12207Y-21424D01*
X12206Y-21628D01*
X12207Y-21747D01*
X12252Y-21857D01*
X12337Y-21941D01*
X12447Y-21987D01*
X12495Y-21987D01*
X12570Y-21912D01*
X12570Y-22049D01*
X12540Y-22049D01*
X12384Y-22114D01*
X12374Y-22125D01*
X11244Y-22125D01*
X10700Y-21580D01*
X10700Y-21054D01*
X10750Y-21074D01*
X10849Y-21075D01*
X11050Y-21075D01*
X11050Y-21486D01*
X11080Y-21639D01*
X11167Y-21769D01*
X11296Y-21856D01*
X11450Y-21886D01*
X11603Y-21856D01*
X11732Y-21769D01*
X11819Y-21639D01*
X11850Y-21486D01*
X11850Y-21095D01*
X11895Y-21050D01*
X11895Y-20730D01*
X11887Y-20730D01*
X11887Y-20652D01*
X11895Y-20645D01*
X11895Y-20620D01*
X11895Y-20300D01*
X11895Y-20130D01*
X11887Y-20130D01*
X11887Y-20020D01*
X11895Y-20020D01*
X11895Y-20012D01*
X12005Y-20012D01*
X12005Y-20020D01*
X12400Y-20020D01*
X12400Y-19820D01*
X12344Y-19651D01*
X12274Y-19570D01*
X12380Y-19570D01*
X12390Y-19565D01*
X12399Y-19574D01*
X12509Y-19620D01*
X12695Y-19620D01*
X12770Y-19545D01*
X12770Y-19080D01*
X12762Y-19080D01*
X12762Y-18970D01*
X12770Y-18970D01*
X12770Y-18505D01*
X12695Y-18430D01*
X12509Y-18429D01*
X12399Y-18475D01*
X12390Y-18484D01*
X12380Y-18480D01*
X12281Y-18479D01*
X11769Y-18479D01*
X11707Y-18505D01*
X11662Y-18437D01*
X11662Y-18437D01*
X10850Y-17625D01*
X10850Y-16880D01*
X10895Y-16880D01*
X10970Y-16805D01*
X10970Y-16355D01*
X10962Y-16355D01*
X10962Y-16245D01*
X10970Y-16245D01*
X10970Y-15795D01*
X10912Y-15737D01*
X10949Y-15700D01*
X12087Y-15700D01*
X12040Y-15770D01*
X11985Y-15769D01*
X11565Y-15769D01*
X11473Y-15807D01*
X11460Y-15821D01*
X11404Y-15765D01*
X11294Y-15719D01*
X11155Y-15720D01*
X11080Y-15795D01*
X11080Y-16245D01*
X11087Y-16245D01*
X11087Y-16355D01*
X11080Y-16355D01*
X11080Y-16805D01*
X11155Y-16880D01*
X11294Y-16880D01*
X11404Y-16834D01*
X11460Y-16778D01*
X11473Y-16791D01*
X11565Y-16829D01*
X11664Y-16830D01*
X12000Y-16830D01*
X12000Y-16918D01*
X11894Y-16875D01*
X11705Y-16874D01*
X11531Y-16947D01*
X11397Y-17080D01*
X11325Y-17255D01*
X11324Y-17444D01*
X11397Y-17618D01*
X11530Y-17752D01*
X11705Y-17824D01*
X11894Y-17825D01*
X11925Y-17812D01*
X11924Y-17934D01*
X11989Y-18090D01*
X12108Y-18210D01*
X12265Y-18274D01*
X12434Y-18275D01*
X12590Y-18210D01*
X12710Y-18091D01*
X12774Y-17934D01*
X12775Y-17765D01*
X12710Y-17609D01*
X12700Y-17599D01*
X12700Y-17161D01*
X12760Y-17202D01*
X12875Y-17225D01*
X13425Y-17225D01*
X13450Y-17249D01*
X13450Y-17650D01*
X13472Y-17764D01*
X13537Y-17862D01*
X14569Y-18893D01*
X14459Y-18939D01*
X14339Y-19058D01*
X14275Y-19215D01*
X14274Y-19345D01*
X14244Y-19345D01*
X14244Y-19419D01*
X14170Y-19345D01*
X14030Y-19344D01*
X13920Y-19390D01*
X13835Y-19474D01*
X13790Y-19585D01*
X13789Y-19704D01*
X13790Y-19795D01*
X13865Y-19870D01*
X14245Y-19870D01*
X14245Y-19862D01*
X14355Y-19862D01*
X14355Y-19870D01*
X14362Y-19870D01*
X14362Y-19980D01*
X14355Y-19980D01*
X14355Y-20430D01*
X14430Y-20505D01*
X14569Y-20505D01*
X14679Y-20459D01*
X14735Y-20403D01*
X14748Y-20416D01*
X14775Y-20427D01*
X14775Y-20600D01*
X14755Y-20600D01*
X14680Y-20675D01*
X14680Y-21239D01*
X14687Y-21239D01*
X14687Y-21349D01*
X14680Y-21349D01*
X14680Y-21912D01*
X14755Y-21987D01*
X14792Y-21987D01*
X14792Y-21987D01*
X14801Y-22033D01*
X14877Y-22147D01*
X15197Y-22467D01*
X15197Y-22467D01*
X15311Y-22543D01*
X15444Y-22570D01*
X15444Y-22569D01*
X15445Y-22570D01*
X16230Y-22570D01*
X16363Y-22543D01*
X16363Y-22543D01*
X16477Y-22467D01*
X16822Y-22122D01*
X16898Y-22008D01*
X16925Y-21875D01*
X16925Y-20949D01*
X17059Y-20950D01*
X17215Y-20885D01*
X17225Y-20875D01*
X18125Y-20875D01*
X18258Y-20848D01*
X18258Y-20848D01*
X18372Y-20772D01*
X19176Y-19968D01*
X19222Y-19898D01*
X19258Y-19935D01*
X19415Y-19999D01*
X19584Y-20000D01*
X19740Y-19935D01*
X19749Y-19926D01*
X19758Y-19935D01*
X19915Y-19999D01*
X20084Y-20000D01*
X20240Y-19935D01*
X20301Y-19875D01*
X23050Y-19875D01*
X23075Y-19899D01*
X23075Y-20648D01*
G54D10*
G36*
X23775Y-25725D02*
X21719Y-25725D01*
X21600Y-25605D01*
X21600Y-25033D01*
X21640Y-25049D01*
X21759Y-25050D01*
X22470Y-25050D01*
X22545Y-24975D01*
X22545Y-24105D01*
X22537Y-24105D01*
X22537Y-23995D01*
X22545Y-23995D01*
X22545Y-23125D01*
X22470Y-23050D01*
X21759Y-23049D01*
X21640Y-23050D01*
X21598Y-23067D01*
X21573Y-22941D01*
X21497Y-22827D01*
X21497Y-22827D01*
X21197Y-22527D01*
X21083Y-22451D01*
X20950Y-22425D01*
X19800Y-22425D01*
X19799Y-22425D01*
X19666Y-22451D01*
X19552Y-22527D01*
X19552Y-22527D01*
X19430Y-22649D01*
X19415Y-22649D01*
X19259Y-22714D01*
X19139Y-22833D01*
X19075Y-22990D01*
X19074Y-23159D01*
X19139Y-23315D01*
X19258Y-23435D01*
X19415Y-23499D01*
X19584Y-23500D01*
X19740Y-23435D01*
X19860Y-23316D01*
X19924Y-23159D01*
X19924Y-23145D01*
X19944Y-23125D01*
X20805Y-23125D01*
X20900Y-23219D01*
X20900Y-23281D01*
X20884Y-23275D01*
X20715Y-23274D01*
X20559Y-23339D01*
X20439Y-23458D01*
X20375Y-23615D01*
X20374Y-23784D01*
X20419Y-23891D01*
X20311Y-23784D01*
X20109Y-23700D01*
X19891Y-23699D01*
X19688Y-23783D01*
X19534Y-23938D01*
X19500Y-24019D01*
X19466Y-23938D01*
X19311Y-23784D01*
X19109Y-23700D01*
X18891Y-23699D01*
X18688Y-23783D01*
X18594Y-23877D01*
X18554Y-23780D01*
X18470Y-23695D01*
X18359Y-23650D01*
X18240Y-23649D01*
X18130Y-23650D01*
X18055Y-23725D01*
X18055Y-24195D01*
X18062Y-24195D01*
X18062Y-24305D01*
X18055Y-24305D01*
X18055Y-24725D01*
X18055Y-24775D01*
X18055Y-25195D01*
X18062Y-25195D01*
X18062Y-25305D01*
X18055Y-25305D01*
X18055Y-25725D01*
X18055Y-25775D01*
X18055Y-26195D01*
X18062Y-26195D01*
X18062Y-26305D01*
X18055Y-26305D01*
X18055Y-26725D01*
X18055Y-26775D01*
X18055Y-27195D01*
X18062Y-27195D01*
X18062Y-27305D01*
X18055Y-27305D01*
X18055Y-27725D01*
X18055Y-27775D01*
X18055Y-28195D01*
X18062Y-28195D01*
X18062Y-28305D01*
X18055Y-28305D01*
X18055Y-28725D01*
X18055Y-28775D01*
X18055Y-29195D01*
X18062Y-29195D01*
X18062Y-29305D01*
X18055Y-29305D01*
X18055Y-29725D01*
X18055Y-29775D01*
X18055Y-30195D01*
X18062Y-30195D01*
X18062Y-30305D01*
X18055Y-30305D01*
X18055Y-30312D01*
X17945Y-30312D01*
X17945Y-30305D01*
X17945Y-30195D01*
X17945Y-29775D01*
X17945Y-29725D01*
X17945Y-29305D01*
X17945Y-29195D01*
X17945Y-28775D01*
X17945Y-28725D01*
X17945Y-28305D01*
X17945Y-28195D01*
X17945Y-27775D01*
X17945Y-27725D01*
X17945Y-27305D01*
X17945Y-27195D01*
X17945Y-26775D01*
X17945Y-26725D01*
X17945Y-26305D01*
X17475Y-26305D01*
X17400Y-26380D01*
X17399Y-26609D01*
X17445Y-26719D01*
X17475Y-26750D01*
X17445Y-26780D01*
X17399Y-26890D01*
X17400Y-27120D01*
X17475Y-27195D01*
X17945Y-27195D01*
X17945Y-27305D01*
X17475Y-27305D01*
X17400Y-27380D01*
X17399Y-27609D01*
X17445Y-27719D01*
X17475Y-27750D01*
X17445Y-27780D01*
X17399Y-27890D01*
X17400Y-28120D01*
X17475Y-28195D01*
X17945Y-28195D01*
X17945Y-28305D01*
X17475Y-28305D01*
X17400Y-28380D01*
X17399Y-28609D01*
X17445Y-28719D01*
X17475Y-28750D01*
X17445Y-28780D01*
X17399Y-28890D01*
X17400Y-29120D01*
X17475Y-29195D01*
X17945Y-29195D01*
X17945Y-29305D01*
X17475Y-29305D01*
X17400Y-29380D01*
X17399Y-29609D01*
X17445Y-29719D01*
X17475Y-29750D01*
X17445Y-29780D01*
X17399Y-29890D01*
X17400Y-30120D01*
X17475Y-30195D01*
X17945Y-30195D01*
X17945Y-30305D01*
X17475Y-30305D01*
X17400Y-30380D01*
X17399Y-30450D01*
X17199Y-30450D01*
X17025Y-30275D01*
X17025Y-27625D01*
X17024Y-27624D01*
X17002Y-27510D01*
X16937Y-27412D01*
X16937Y-27412D01*
X16769Y-27245D01*
X17080Y-27245D01*
X17172Y-27207D01*
X17242Y-27136D01*
X17280Y-27044D01*
X17281Y-26945D01*
X17281Y-26355D01*
X17243Y-26263D01*
X17172Y-26193D01*
X17125Y-26173D01*
X17125Y-25844D01*
X17399Y-25570D01*
X17399Y-25609D01*
X17445Y-25719D01*
X17475Y-25750D01*
X17445Y-25780D01*
X17399Y-25890D01*
X17400Y-26120D01*
X17475Y-26195D01*
X17945Y-26195D01*
X17945Y-25775D01*
X17945Y-25725D01*
X17945Y-25305D01*
X17937Y-25305D01*
X17937Y-25195D01*
X17945Y-25195D01*
X17945Y-24775D01*
X17945Y-24725D01*
X17945Y-24305D01*
X17937Y-24305D01*
X17937Y-24195D01*
X17945Y-24195D01*
X17945Y-23725D01*
X17870Y-23650D01*
X17759Y-23649D01*
X17700Y-23649D01*
X17700Y-22969D01*
X18344Y-22325D01*
X20675Y-22325D01*
X20808Y-22298D01*
X20808Y-22298D01*
X20922Y-22222D01*
X21419Y-21725D01*
X22530Y-21725D01*
X22800Y-21994D01*
X22800Y-22223D01*
X22789Y-22233D01*
X22725Y-22390D01*
X22724Y-22559D01*
X22789Y-22715D01*
X22908Y-22835D01*
X23065Y-22899D01*
X23234Y-22900D01*
X23390Y-22835D01*
X23437Y-22788D01*
X23483Y-22835D01*
X23640Y-22899D01*
X23775Y-22900D01*
X23775Y-23229D01*
X23754Y-23180D01*
X23670Y-23095D01*
X23559Y-23050D01*
X23440Y-23049D01*
X22730Y-23050D01*
X22655Y-23125D01*
X22655Y-23995D01*
X22662Y-23995D01*
X22662Y-24105D01*
X22655Y-24105D01*
X22655Y-24975D01*
X22730Y-25050D01*
X23440Y-25050D01*
X23559Y-25049D01*
X23670Y-25004D01*
X23754Y-24919D01*
X23775Y-24870D01*
X23775Y-25725D01*
X23775Y-25725D01*
G37*
G54D45*
X23775Y-25725D02*
X21719Y-25725D01*
X21600Y-25605D01*
X21600Y-25033D01*
X21640Y-25049D01*
X21759Y-25050D01*
X22470Y-25050D01*
X22545Y-24975D01*
X22545Y-24105D01*
X22537Y-24105D01*
X22537Y-23995D01*
X22545Y-23995D01*
X22545Y-23125D01*
X22470Y-23050D01*
X21759Y-23049D01*
X21640Y-23050D01*
X21598Y-23067D01*
X21573Y-22941D01*
X21497Y-22827D01*
X21497Y-22827D01*
X21197Y-22527D01*
X21083Y-22451D01*
X20950Y-22425D01*
X19800Y-22425D01*
X19799Y-22425D01*
X19666Y-22451D01*
X19552Y-22527D01*
X19552Y-22527D01*
X19430Y-22649D01*
X19415Y-22649D01*
X19259Y-22714D01*
X19139Y-22833D01*
X19075Y-22990D01*
X19074Y-23159D01*
X19139Y-23315D01*
X19258Y-23435D01*
X19415Y-23499D01*
X19584Y-23500D01*
X19740Y-23435D01*
X19860Y-23316D01*
X19924Y-23159D01*
X19924Y-23145D01*
X19944Y-23125D01*
X20805Y-23125D01*
X20900Y-23219D01*
X20900Y-23281D01*
X20884Y-23275D01*
X20715Y-23274D01*
X20559Y-23339D01*
X20439Y-23458D01*
X20375Y-23615D01*
X20374Y-23784D01*
X20419Y-23891D01*
X20311Y-23784D01*
X20109Y-23700D01*
X19891Y-23699D01*
X19688Y-23783D01*
X19534Y-23938D01*
X19500Y-24019D01*
X19466Y-23938D01*
X19311Y-23784D01*
X19109Y-23700D01*
X18891Y-23699D01*
X18688Y-23783D01*
X18594Y-23877D01*
X18554Y-23780D01*
X18470Y-23695D01*
X18359Y-23650D01*
X18240Y-23649D01*
X18130Y-23650D01*
X18055Y-23725D01*
X18055Y-24195D01*
X18062Y-24195D01*
X18062Y-24305D01*
X18055Y-24305D01*
X18055Y-24725D01*
X18055Y-24775D01*
X18055Y-25195D01*
X18062Y-25195D01*
X18062Y-25305D01*
X18055Y-25305D01*
X18055Y-25725D01*
X18055Y-25775D01*
X18055Y-26195D01*
X18062Y-26195D01*
X18062Y-26305D01*
X18055Y-26305D01*
X18055Y-26725D01*
X18055Y-26775D01*
X18055Y-27195D01*
X18062Y-27195D01*
X18062Y-27305D01*
X18055Y-27305D01*
X18055Y-27725D01*
X18055Y-27775D01*
X18055Y-28195D01*
X18062Y-28195D01*
X18062Y-28305D01*
X18055Y-28305D01*
X18055Y-28725D01*
X18055Y-28775D01*
X18055Y-29195D01*
X18062Y-29195D01*
X18062Y-29305D01*
X18055Y-29305D01*
X18055Y-29725D01*
X18055Y-29775D01*
X18055Y-30195D01*
X18062Y-30195D01*
X18062Y-30305D01*
X18055Y-30305D01*
X18055Y-30312D01*
X17945Y-30312D01*
X17945Y-30305D01*
X17945Y-30195D01*
X17945Y-29775D01*
X17945Y-29725D01*
X17945Y-29305D01*
X17945Y-29195D01*
X17945Y-28775D01*
X17945Y-28725D01*
X17945Y-28305D01*
X17945Y-28195D01*
X17945Y-27775D01*
X17945Y-27725D01*
X17945Y-27305D01*
X17945Y-27195D01*
X17945Y-26775D01*
X17945Y-26725D01*
X17945Y-26305D01*
X17475Y-26305D01*
X17400Y-26380D01*
X17399Y-26609D01*
X17445Y-26719D01*
X17475Y-26750D01*
X17445Y-26780D01*
X17399Y-26890D01*
X17400Y-27120D01*
X17475Y-27195D01*
X17945Y-27195D01*
X17945Y-27305D01*
X17475Y-27305D01*
X17400Y-27380D01*
X17399Y-27609D01*
X17445Y-27719D01*
X17475Y-27750D01*
X17445Y-27780D01*
X17399Y-27890D01*
X17400Y-28120D01*
X17475Y-28195D01*
X17945Y-28195D01*
X17945Y-28305D01*
X17475Y-28305D01*
X17400Y-28380D01*
X17399Y-28609D01*
X17445Y-28719D01*
X17475Y-28750D01*
X17445Y-28780D01*
X17399Y-28890D01*
X17400Y-29120D01*
X17475Y-29195D01*
X17945Y-29195D01*
X17945Y-29305D01*
X17475Y-29305D01*
X17400Y-29380D01*
X17399Y-29609D01*
X17445Y-29719D01*
X17475Y-29750D01*
X17445Y-29780D01*
X17399Y-29890D01*
X17400Y-30120D01*
X17475Y-30195D01*
X17945Y-30195D01*
X17945Y-30305D01*
X17475Y-30305D01*
X17400Y-30380D01*
X17399Y-30450D01*
X17199Y-30450D01*
X17025Y-30275D01*
X17025Y-27625D01*
X17024Y-27624D01*
X17002Y-27510D01*
X16937Y-27412D01*
X16937Y-27412D01*
X16769Y-27245D01*
X17080Y-27245D01*
X17172Y-27207D01*
X17242Y-27136D01*
X17280Y-27044D01*
X17281Y-26945D01*
X17281Y-26355D01*
X17243Y-26263D01*
X17172Y-26193D01*
X17125Y-26173D01*
X17125Y-25844D01*
X17399Y-25570D01*
X17399Y-25609D01*
X17445Y-25719D01*
X17475Y-25750D01*
X17445Y-25780D01*
X17399Y-25890D01*
X17400Y-26120D01*
X17475Y-26195D01*
X17945Y-26195D01*
X17945Y-25775D01*
X17945Y-25725D01*
X17945Y-25305D01*
X17937Y-25305D01*
X17937Y-25195D01*
X17945Y-25195D01*
X17945Y-24775D01*
X17945Y-24725D01*
X17945Y-24305D01*
X17937Y-24305D01*
X17937Y-24195D01*
X17945Y-24195D01*
X17945Y-23725D01*
X17870Y-23650D01*
X17759Y-23649D01*
X17700Y-23649D01*
X17700Y-22969D01*
X18344Y-22325D01*
X20675Y-22325D01*
X20808Y-22298D01*
X20808Y-22298D01*
X20922Y-22222D01*
X21419Y-21725D01*
X22530Y-21725D01*
X22800Y-21994D01*
X22800Y-22223D01*
X22789Y-22233D01*
X22725Y-22390D01*
X22724Y-22559D01*
X22789Y-22715D01*
X22908Y-22835D01*
X23065Y-22899D01*
X23234Y-22900D01*
X23390Y-22835D01*
X23437Y-22788D01*
X23483Y-22835D01*
X23640Y-22899D01*
X23775Y-22900D01*
X23775Y-23229D01*
X23754Y-23180D01*
X23670Y-23095D01*
X23559Y-23050D01*
X23440Y-23049D01*
X22730Y-23050D01*
X22655Y-23125D01*
X22655Y-23995D01*
X22662Y-23995D01*
X22662Y-24105D01*
X22655Y-24105D01*
X22655Y-24975D01*
X22730Y-25050D01*
X23440Y-25050D01*
X23559Y-25049D01*
X23670Y-25004D01*
X23754Y-24919D01*
X23775Y-24870D01*
X23775Y-25725D01*
G54D10*
G36*
X26622Y-18562D02*
X26600Y-18675D01*
X26600Y-21750D01*
X26469Y-21881D01*
X26460Y-21859D01*
X26341Y-21739D01*
X26184Y-21675D01*
X26134Y-21675D01*
X26050Y-21590D01*
X26050Y-19134D01*
X26622Y-18562D01*
X26622Y-18562D01*
G37*
G54D45*
X26622Y-18562D02*
X26600Y-18675D01*
X26600Y-21750D01*
X26469Y-21881D01*
X26460Y-21859D01*
X26341Y-21739D01*
X26184Y-21675D01*
X26134Y-21675D01*
X26050Y-21590D01*
X26050Y-19134D01*
X26622Y-18562D01*
G54D10*
G36*
X30225Y-29697D02*
X30109Y-29813D01*
X30075Y-29894D01*
X30041Y-29813D01*
X29886Y-29659D01*
X29684Y-29575D01*
X29466Y-29574D01*
X29263Y-29658D01*
X29109Y-29813D01*
X29075Y-29894D01*
X29041Y-29813D01*
X28886Y-29659D01*
X28684Y-29575D01*
X28466Y-29574D01*
X28263Y-29658D01*
X28109Y-29813D01*
X28075Y-29894D01*
X28041Y-29813D01*
X27886Y-29659D01*
X27684Y-29575D01*
X27466Y-29574D01*
X27263Y-29658D01*
X27109Y-29813D01*
X27025Y-30015D01*
X27024Y-30233D01*
X27108Y-30436D01*
X27263Y-30590D01*
X27465Y-30674D01*
X27683Y-30675D01*
X27886Y-30591D01*
X28040Y-30436D01*
X28074Y-30355D01*
X28108Y-30436D01*
X28225Y-30552D01*
X28225Y-30875D01*
X26025Y-30875D01*
X26025Y-29690D01*
X26025Y-29630D01*
X25950Y-29555D01*
X25630Y-29555D01*
X25630Y-29975D01*
X25705Y-30050D01*
X25784Y-30050D01*
X25894Y-30004D01*
X25979Y-29920D01*
X26024Y-29809D01*
X26025Y-29690D01*
X26025Y-30875D01*
X24369Y-30875D01*
X23850Y-30355D01*
X23850Y-28300D01*
X23849Y-28299D01*
X23823Y-28166D01*
X23747Y-28052D01*
X23747Y-28052D01*
X23397Y-27702D01*
X23283Y-27626D01*
X23150Y-27600D01*
X21419Y-27600D01*
X21150Y-27330D01*
X21150Y-26144D01*
X21327Y-26322D01*
X21441Y-26398D01*
X21575Y-26425D01*
X23775Y-26425D01*
X23775Y-27075D01*
X23801Y-27208D01*
X23877Y-27322D01*
X24730Y-28175D01*
X24565Y-28174D01*
X24409Y-28239D01*
X24289Y-28358D01*
X24225Y-28515D01*
X24224Y-28684D01*
X24252Y-28749D01*
X24075Y-28749D01*
X23983Y-28787D01*
X23913Y-28858D01*
X23875Y-28950D01*
X23874Y-29049D01*
X23874Y-30049D01*
X23912Y-30141D01*
X23983Y-30211D01*
X24075Y-30249D01*
X24174Y-30250D01*
X25224Y-30250D01*
X25316Y-30212D01*
X25386Y-30141D01*
X25424Y-30050D01*
X25445Y-30050D01*
X25520Y-29975D01*
X25520Y-29555D01*
X25512Y-29555D01*
X25512Y-29445D01*
X25520Y-29445D01*
X25520Y-29437D01*
X25630Y-29437D01*
X25630Y-29445D01*
X25950Y-29445D01*
X26025Y-29370D01*
X26025Y-29309D01*
X26024Y-29225D01*
X30180Y-29225D01*
X30225Y-29269D01*
X30225Y-29697D01*
X30225Y-29697D01*
G37*
G54D45*
X30225Y-29697D02*
X30109Y-29813D01*
X30075Y-29894D01*
X30041Y-29813D01*
X29886Y-29659D01*
X29684Y-29575D01*
X29466Y-29574D01*
X29263Y-29658D01*
X29109Y-29813D01*
X29075Y-29894D01*
X29041Y-29813D01*
X28886Y-29659D01*
X28684Y-29575D01*
X28466Y-29574D01*
X28263Y-29658D01*
X28109Y-29813D01*
X28075Y-29894D01*
X28041Y-29813D01*
X27886Y-29659D01*
X27684Y-29575D01*
X27466Y-29574D01*
X27263Y-29658D01*
X27109Y-29813D01*
X27025Y-30015D01*
X27024Y-30233D01*
X27108Y-30436D01*
X27263Y-30590D01*
X27465Y-30674D01*
X27683Y-30675D01*
X27886Y-30591D01*
X28040Y-30436D01*
X28074Y-30355D01*
X28108Y-30436D01*
X28225Y-30552D01*
X28225Y-30875D01*
X26025Y-30875D01*
X26025Y-29690D01*
X26025Y-29630D01*
X25950Y-29555D01*
X25630Y-29555D01*
X25630Y-29975D01*
X25705Y-30050D01*
X25784Y-30050D01*
X25894Y-30004D01*
X25979Y-29920D01*
X26024Y-29809D01*
X26025Y-29690D01*
X26025Y-30875D01*
X24369Y-30875D01*
X23850Y-30355D01*
X23850Y-28300D01*
X23849Y-28299D01*
X23823Y-28166D01*
X23747Y-28052D01*
X23747Y-28052D01*
X23397Y-27702D01*
X23283Y-27626D01*
X23150Y-27600D01*
X21419Y-27600D01*
X21150Y-27330D01*
X21150Y-26144D01*
X21327Y-26322D01*
X21441Y-26398D01*
X21575Y-26425D01*
X23775Y-26425D01*
X23775Y-27075D01*
X23801Y-27208D01*
X23877Y-27322D01*
X24730Y-28175D01*
X24565Y-28174D01*
X24409Y-28239D01*
X24289Y-28358D01*
X24225Y-28515D01*
X24224Y-28684D01*
X24252Y-28749D01*
X24075Y-28749D01*
X23983Y-28787D01*
X23913Y-28858D01*
X23875Y-28950D01*
X23874Y-29049D01*
X23874Y-30049D01*
X23912Y-30141D01*
X23983Y-30211D01*
X24075Y-30249D01*
X24174Y-30250D01*
X25224Y-30250D01*
X25316Y-30212D01*
X25386Y-30141D01*
X25424Y-30050D01*
X25445Y-30050D01*
X25520Y-29975D01*
X25520Y-29555D01*
X25512Y-29555D01*
X25512Y-29445D01*
X25520Y-29445D01*
X25520Y-29437D01*
X25630Y-29437D01*
X25630Y-29445D01*
X25950Y-29445D01*
X26025Y-29370D01*
X26025Y-29309D01*
X26024Y-29225D01*
X30180Y-29225D01*
X30225Y-29269D01*
X30225Y-29697D01*
G54D10*
G36*
X30837Y-19500D02*
X30645Y-19538D01*
X30483Y-19646D01*
X30376Y-19806D01*
X30342Y-19723D01*
X30328Y-19710D01*
X30384Y-19654D01*
X30430Y-19544D01*
X30430Y-19405D01*
X30355Y-19330D01*
X29905Y-19330D01*
X29905Y-19337D01*
X29795Y-19337D01*
X29795Y-19330D01*
X29345Y-19330D01*
X29325Y-19350D01*
X29305Y-19330D01*
X28855Y-19330D01*
X28855Y-19337D01*
X28745Y-19337D01*
X28745Y-19330D01*
X28737Y-19330D01*
X28737Y-19220D01*
X28745Y-19220D01*
X28745Y-19212D01*
X28855Y-19212D01*
X28855Y-19220D01*
X29305Y-19220D01*
X29325Y-19200D01*
X29345Y-19220D01*
X29795Y-19220D01*
X29795Y-18840D01*
X29720Y-18765D01*
X29629Y-18764D01*
X29510Y-18765D01*
X29399Y-18810D01*
X29325Y-18885D01*
X29250Y-18810D01*
X29139Y-18765D01*
X29020Y-18764D01*
X28930Y-18765D01*
X28855Y-18839D01*
X28855Y-18765D01*
X28808Y-18765D01*
X28973Y-18600D01*
X29398Y-18600D01*
X29458Y-18660D01*
X29615Y-18724D01*
X29784Y-18725D01*
X29940Y-18660D01*
X29975Y-18625D01*
X30062Y-18712D01*
X30062Y-18712D01*
X30142Y-18765D01*
X30070Y-18764D01*
X29980Y-18765D01*
X29905Y-18840D01*
X29905Y-19220D01*
X30355Y-19220D01*
X30378Y-19196D01*
X30483Y-19353D01*
X30645Y-19461D01*
X30837Y-19500D01*
X30837Y-19500D01*
G37*
G54D45*
X30837Y-19500D02*
X30645Y-19538D01*
X30483Y-19646D01*
X30376Y-19806D01*
X30342Y-19723D01*
X30328Y-19710D01*
X30384Y-19654D01*
X30430Y-19544D01*
X30430Y-19405D01*
X30355Y-19330D01*
X29905Y-19330D01*
X29905Y-19337D01*
X29795Y-19337D01*
X29795Y-19330D01*
X29345Y-19330D01*
X29325Y-19350D01*
X29305Y-19330D01*
X28855Y-19330D01*
X28855Y-19337D01*
X28745Y-19337D01*
X28745Y-19330D01*
X28737Y-19330D01*
X28737Y-19220D01*
X28745Y-19220D01*
X28745Y-19212D01*
X28855Y-19212D01*
X28855Y-19220D01*
X29305Y-19220D01*
X29325Y-19200D01*
X29345Y-19220D01*
X29795Y-19220D01*
X29795Y-18840D01*
X29720Y-18765D01*
X29629Y-18764D01*
X29510Y-18765D01*
X29399Y-18810D01*
X29325Y-18885D01*
X29250Y-18810D01*
X29139Y-18765D01*
X29020Y-18764D01*
X28930Y-18765D01*
X28855Y-18839D01*
X28855Y-18765D01*
X28808Y-18765D01*
X28973Y-18600D01*
X29398Y-18600D01*
X29458Y-18660D01*
X29615Y-18724D01*
X29784Y-18725D01*
X29940Y-18660D01*
X29975Y-18625D01*
X30062Y-18712D01*
X30062Y-18712D01*
X30142Y-18765D01*
X30070Y-18764D01*
X29980Y-18765D01*
X29905Y-18840D01*
X29905Y-19220D01*
X30355Y-19220D01*
X30378Y-19196D01*
X30483Y-19353D01*
X30645Y-19461D01*
X30837Y-19500D01*
G54D10*
G36*
X31662Y-24355D02*
X31655Y-24355D01*
X31655Y-24362D01*
X31545Y-24362D01*
X31545Y-24355D01*
X31165Y-24355D01*
X31090Y-24430D01*
X31089Y-24520D01*
X31089Y-24550D01*
X30600Y-24550D01*
X30466Y-24576D01*
X30352Y-24652D01*
X30152Y-24852D01*
X30076Y-24966D01*
X30050Y-25100D01*
X30050Y-25396D01*
X30011Y-25422D01*
X29900Y-25588D01*
X29788Y-25422D01*
X29700Y-25362D01*
X29700Y-23975D01*
X29677Y-23860D01*
X29612Y-23762D01*
X29612Y-23762D01*
X29515Y-23665D01*
X29610Y-23646D01*
X29788Y-23527D01*
X29900Y-23361D01*
X30011Y-23527D01*
X30189Y-23646D01*
X30400Y-23688D01*
X30610Y-23646D01*
X30788Y-23527D01*
X30806Y-23500D01*
X30845Y-23595D01*
X30930Y-23679D01*
X31040Y-23725D01*
X31270Y-23725D01*
X31344Y-23650D01*
X31344Y-23719D01*
X31330Y-23719D01*
X31220Y-23765D01*
X31135Y-23849D01*
X31090Y-23960D01*
X31089Y-24079D01*
X31090Y-24170D01*
X31165Y-24245D01*
X31545Y-24245D01*
X31545Y-24237D01*
X31655Y-24237D01*
X31655Y-24245D01*
X31662Y-24245D01*
X31662Y-24355D01*
X31662Y-24355D01*
G37*
G54D45*
X31662Y-24355D02*
X31655Y-24355D01*
X31655Y-24362D01*
X31545Y-24362D01*
X31545Y-24355D01*
X31165Y-24355D01*
X31090Y-24430D01*
X31089Y-24520D01*
X31089Y-24550D01*
X30600Y-24550D01*
X30466Y-24576D01*
X30352Y-24652D01*
X30152Y-24852D01*
X30076Y-24966D01*
X30050Y-25100D01*
X30050Y-25396D01*
X30011Y-25422D01*
X29900Y-25588D01*
X29788Y-25422D01*
X29700Y-25362D01*
X29700Y-23975D01*
X29677Y-23860D01*
X29612Y-23762D01*
X29612Y-23762D01*
X29515Y-23665D01*
X29610Y-23646D01*
X29788Y-23527D01*
X29900Y-23361D01*
X30011Y-23527D01*
X30189Y-23646D01*
X30400Y-23688D01*
X30610Y-23646D01*
X30788Y-23527D01*
X30806Y-23500D01*
X30845Y-23595D01*
X30930Y-23679D01*
X31040Y-23725D01*
X31270Y-23725D01*
X31344Y-23650D01*
X31344Y-23719D01*
X31330Y-23719D01*
X31220Y-23765D01*
X31135Y-23849D01*
X31090Y-23960D01*
X31089Y-24079D01*
X31090Y-24170D01*
X31165Y-24245D01*
X31545Y-24245D01*
X31545Y-24237D01*
X31655Y-24237D01*
X31655Y-24245D01*
X31662Y-24245D01*
X31662Y-24355D01*
G54D10*
G36*
X32600Y-22301D02*
X32400Y-22261D01*
X32189Y-22303D01*
X32011Y-22422D01*
X31993Y-22449D01*
X31954Y-22354D01*
X31869Y-22270D01*
X31759Y-22224D01*
X31530Y-22225D01*
X31455Y-22300D01*
X31455Y-22920D01*
X31462Y-22920D01*
X31462Y-23030D01*
X31455Y-23030D01*
X31455Y-23037D01*
X31345Y-23037D01*
X31345Y-23030D01*
X31337Y-23030D01*
X31337Y-22920D01*
X31345Y-22920D01*
X31345Y-22300D01*
X31270Y-22225D01*
X31040Y-22224D01*
X30930Y-22270D01*
X30845Y-22354D01*
X30806Y-22449D01*
X30788Y-22422D01*
X30700Y-22362D01*
X30700Y-22325D01*
X30677Y-22210D01*
X30677Y-22210D01*
X30612Y-22112D01*
X30281Y-21781D01*
X30281Y-21443D01*
X30243Y-21352D01*
X30216Y-21325D01*
X30242Y-21298D01*
X30280Y-21206D01*
X30281Y-21106D01*
X30281Y-20693D01*
X30243Y-20602D01*
X30176Y-20535D01*
X30179Y-20535D01*
X30271Y-20497D01*
X30341Y-20426D01*
X30379Y-20334D01*
X30380Y-20235D01*
X30380Y-20198D01*
X30483Y-20353D01*
X30645Y-20461D01*
X30837Y-20500D01*
X30645Y-20538D01*
X30483Y-20646D01*
X30375Y-20808D01*
X30337Y-21000D01*
X30375Y-21191D01*
X30483Y-21353D01*
X30645Y-21461D01*
X30837Y-21500D01*
X31162Y-21500D01*
X31354Y-21461D01*
X31500Y-21364D01*
X31645Y-21461D01*
X31837Y-21500D01*
X32162Y-21500D01*
X32354Y-21461D01*
X32516Y-21353D01*
X32600Y-21228D01*
X32600Y-22301D01*
X32600Y-22301D01*
G37*
G54D45*
X32600Y-22301D02*
X32400Y-22261D01*
X32189Y-22303D01*
X32011Y-22422D01*
X31993Y-22449D01*
X31954Y-22354D01*
X31869Y-22270D01*
X31759Y-22224D01*
X31530Y-22225D01*
X31455Y-22300D01*
X31455Y-22920D01*
X31462Y-22920D01*
X31462Y-23030D01*
X31455Y-23030D01*
X31455Y-23037D01*
X31345Y-23037D01*
X31345Y-23030D01*
X31337Y-23030D01*
X31337Y-22920D01*
X31345Y-22920D01*
X31345Y-22300D01*
X31270Y-22225D01*
X31040Y-22224D01*
X30930Y-22270D01*
X30845Y-22354D01*
X30806Y-22449D01*
X30788Y-22422D01*
X30700Y-22362D01*
X30700Y-22325D01*
X30677Y-22210D01*
X30677Y-22210D01*
X30612Y-22112D01*
X30281Y-21781D01*
X30281Y-21443D01*
X30243Y-21352D01*
X30216Y-21325D01*
X30242Y-21298D01*
X30280Y-21206D01*
X30281Y-21106D01*
X30281Y-20693D01*
X30243Y-20602D01*
X30176Y-20535D01*
X30179Y-20535D01*
X30271Y-20497D01*
X30341Y-20426D01*
X30379Y-20334D01*
X30380Y-20235D01*
X30380Y-20198D01*
X30483Y-20353D01*
X30645Y-20461D01*
X30837Y-20500D01*
X30645Y-20538D01*
X30483Y-20646D01*
X30375Y-20808D01*
X30337Y-21000D01*
X30375Y-21191D01*
X30483Y-21353D01*
X30645Y-21461D01*
X30837Y-21500D01*
X31162Y-21500D01*
X31354Y-21461D01*
X31500Y-21364D01*
X31645Y-21461D01*
X31837Y-21500D01*
X32162Y-21500D01*
X32354Y-21461D01*
X32516Y-21353D01*
X32600Y-21228D01*
X32600Y-22301D01*
G54D10*
G36*
X36637Y-28180D02*
X36630Y-28180D01*
X36630Y-28187D01*
X36520Y-28187D01*
X36520Y-28180D01*
X36512Y-28180D01*
X36512Y-28070D01*
X36520Y-28070D01*
X36520Y-28062D01*
X36630Y-28062D01*
X36630Y-28070D01*
X36637Y-28070D01*
X36637Y-28180D01*
X36637Y-28180D01*
G37*
G54D45*
X36637Y-28180D02*
X36630Y-28180D01*
X36630Y-28187D01*
X36520Y-28187D01*
X36520Y-28180D01*
X36512Y-28180D01*
X36512Y-28070D01*
X36520Y-28070D01*
X36520Y-28062D01*
X36630Y-28062D01*
X36630Y-28070D01*
X36637Y-28070D01*
X36637Y-28180D01*
G54D10*
G36*
X37775Y-27524D02*
X37705Y-27525D01*
X37630Y-27600D01*
X37630Y-28070D01*
X37637Y-28070D01*
X37637Y-28180D01*
X37630Y-28180D01*
X37630Y-28187D01*
X37520Y-28187D01*
X37520Y-28180D01*
X37512Y-28180D01*
X37512Y-28070D01*
X37520Y-28070D01*
X37520Y-27600D01*
X37445Y-27525D01*
X37370Y-27524D01*
X37355Y-27450D01*
X37750Y-27450D01*
X37775Y-27474D01*
X37775Y-27524D01*
X37775Y-27524D01*
G37*
G54D45*
X37775Y-27524D02*
X37705Y-27525D01*
X37630Y-27600D01*
X37630Y-28070D01*
X37637Y-28070D01*
X37637Y-28180D01*
X37630Y-28180D01*
X37630Y-28187D01*
X37520Y-28187D01*
X37520Y-28180D01*
X37512Y-28180D01*
X37512Y-28070D01*
X37520Y-28070D01*
X37520Y-27600D01*
X37445Y-27525D01*
X37370Y-27524D01*
X37355Y-27450D01*
X37750Y-27450D01*
X37775Y-27474D01*
X37775Y-27524D01*
G54D10*
G36*
X38775Y-27524D02*
X38705Y-27525D01*
X38630Y-27600D01*
X38630Y-28070D01*
X38637Y-28070D01*
X38637Y-28180D01*
X38630Y-28180D01*
X38630Y-28187D01*
X38520Y-28187D01*
X38520Y-28180D01*
X38512Y-28180D01*
X38512Y-28070D01*
X38520Y-28070D01*
X38520Y-27600D01*
X38445Y-27525D01*
X38375Y-27524D01*
X38375Y-27350D01*
X38352Y-27235D01*
X38345Y-27225D01*
X38750Y-27225D01*
X38775Y-27249D01*
X38775Y-27524D01*
X38775Y-27524D01*
G37*
G54D45*
X38775Y-27524D02*
X38705Y-27525D01*
X38630Y-27600D01*
X38630Y-28070D01*
X38637Y-28070D01*
X38637Y-28180D01*
X38630Y-28180D01*
X38630Y-28187D01*
X38520Y-28187D01*
X38520Y-28180D01*
X38512Y-28180D01*
X38512Y-28070D01*
X38520Y-28070D01*
X38520Y-27600D01*
X38445Y-27525D01*
X38375Y-27524D01*
X38375Y-27350D01*
X38352Y-27235D01*
X38345Y-27225D01*
X38750Y-27225D01*
X38775Y-27249D01*
X38775Y-27524D01*
G54D10*
G36*
X39775Y-27524D02*
X39705Y-27525D01*
X39630Y-27600D01*
X39630Y-28070D01*
X39637Y-28070D01*
X39637Y-28180D01*
X39630Y-28180D01*
X39630Y-28187D01*
X39520Y-28187D01*
X39520Y-28180D01*
X39512Y-28180D01*
X39512Y-28070D01*
X39520Y-28070D01*
X39520Y-27600D01*
X39445Y-27525D01*
X39375Y-27524D01*
X39375Y-27125D01*
X39352Y-27010D01*
X39340Y-26992D01*
X39414Y-26977D01*
X39414Y-26977D01*
X39512Y-26912D01*
X39572Y-26851D01*
X39638Y-26917D01*
X39730Y-26955D01*
X39775Y-26955D01*
X39775Y-27524D01*
X39775Y-27524D01*
G37*
G54D45*
X39775Y-27524D02*
X39705Y-27525D01*
X39630Y-27600D01*
X39630Y-28070D01*
X39637Y-28070D01*
X39637Y-28180D01*
X39630Y-28180D01*
X39630Y-28187D01*
X39520Y-28187D01*
X39520Y-28180D01*
X39512Y-28180D01*
X39512Y-28070D01*
X39520Y-28070D01*
X39520Y-27600D01*
X39445Y-27525D01*
X39375Y-27524D01*
X39375Y-27125D01*
X39352Y-27010D01*
X39340Y-26992D01*
X39414Y-26977D01*
X39414Y-26977D01*
X39512Y-26912D01*
X39572Y-26851D01*
X39638Y-26917D01*
X39730Y-26955D01*
X39775Y-26955D01*
X39775Y-27524D01*
G54D10*
G36*
X40275Y-10653D02*
X40263Y-10658D01*
X40109Y-10813D01*
X40075Y-10894D01*
X40041Y-10813D01*
X39886Y-10659D01*
X39684Y-10575D01*
X39466Y-10574D01*
X39263Y-10658D01*
X39109Y-10813D01*
X39075Y-10894D01*
X39041Y-10813D01*
X38886Y-10659D01*
X38684Y-10575D01*
X38466Y-10574D01*
X38263Y-10658D01*
X38109Y-10813D01*
X38075Y-10894D01*
X38041Y-10813D01*
X37886Y-10659D01*
X37684Y-10575D01*
X37466Y-10574D01*
X37263Y-10658D01*
X37109Y-10813D01*
X37075Y-10894D01*
X37041Y-10813D01*
X36886Y-10659D01*
X36684Y-10575D01*
X36466Y-10574D01*
X36263Y-10658D01*
X36109Y-10813D01*
X36075Y-10894D01*
X36041Y-10813D01*
X35886Y-10659D01*
X35684Y-10575D01*
X35466Y-10574D01*
X35263Y-10658D01*
X35109Y-10813D01*
X35075Y-10894D01*
X35041Y-10813D01*
X34886Y-10659D01*
X34684Y-10575D01*
X34466Y-10574D01*
X34263Y-10658D01*
X34109Y-10813D01*
X34104Y-10825D01*
X33974Y-10825D01*
X33859Y-10847D01*
X33761Y-10912D01*
X33524Y-11149D01*
X33525Y-11016D01*
X33441Y-10813D01*
X33286Y-10659D01*
X33084Y-10575D01*
X32866Y-10574D01*
X32663Y-10658D01*
X32509Y-10813D01*
X32475Y-10894D01*
X32441Y-10813D01*
X32286Y-10659D01*
X32084Y-10575D01*
X31866Y-10574D01*
X31663Y-10658D01*
X31509Y-10813D01*
X31475Y-10894D01*
X31441Y-10813D01*
X31286Y-10659D01*
X31084Y-10575D01*
X30866Y-10574D01*
X30663Y-10658D01*
X30509Y-10813D01*
X30475Y-10894D01*
X30441Y-10813D01*
X30286Y-10659D01*
X30084Y-10575D01*
X29866Y-10574D01*
X29663Y-10658D01*
X29509Y-10813D01*
X29475Y-10894D01*
X29441Y-10813D01*
X29286Y-10659D01*
X29084Y-10575D01*
X28866Y-10574D01*
X28663Y-10658D01*
X28509Y-10813D01*
X28475Y-10894D01*
X28441Y-10813D01*
X28286Y-10659D01*
X28084Y-10575D01*
X27866Y-10574D01*
X27663Y-10658D01*
X27569Y-10752D01*
X27529Y-10655D01*
X27445Y-10570D01*
X27334Y-10525D01*
X27215Y-10524D01*
X27105Y-10525D01*
X27030Y-10600D01*
X27030Y-11070D01*
X27037Y-11070D01*
X27037Y-11180D01*
X27030Y-11180D01*
X27030Y-11650D01*
X27105Y-11725D01*
X27215Y-11725D01*
X27334Y-11724D01*
X27445Y-11679D01*
X27529Y-11594D01*
X27569Y-11497D01*
X27663Y-11590D01*
X27675Y-11595D01*
X27675Y-12225D01*
X27062Y-12837D01*
X26997Y-12935D01*
X26975Y-13050D01*
X26975Y-17623D01*
X26914Y-17683D01*
X26900Y-17719D01*
X26900Y-12175D01*
X26873Y-12041D01*
X26797Y-11927D01*
X26797Y-11927D01*
X26580Y-11710D01*
X26615Y-11724D01*
X26734Y-11725D01*
X26845Y-11725D01*
X26920Y-11650D01*
X26920Y-11180D01*
X26912Y-11180D01*
X26912Y-11070D01*
X26920Y-11070D01*
X26920Y-10600D01*
X26845Y-10525D01*
X26734Y-10524D01*
X26615Y-10525D01*
X26504Y-10570D01*
X26420Y-10655D01*
X26380Y-10752D01*
X26286Y-10659D01*
X26084Y-10575D01*
X25866Y-10574D01*
X25663Y-10658D01*
X25509Y-10813D01*
X25475Y-10894D01*
X25441Y-10813D01*
X25286Y-10659D01*
X25084Y-10575D01*
X24866Y-10574D01*
X24663Y-10658D01*
X24509Y-10813D01*
X24475Y-10894D01*
X24441Y-10813D01*
X24286Y-10659D01*
X24084Y-10575D01*
X23866Y-10574D01*
X23675Y-10653D01*
X23675Y-10500D01*
X40275Y-10500D01*
X40275Y-10653D01*
X40275Y-10653D01*
G37*
G54D45*
X40275Y-10653D02*
X40263Y-10658D01*
X40109Y-10813D01*
X40075Y-10894D01*
X40041Y-10813D01*
X39886Y-10659D01*
X39684Y-10575D01*
X39466Y-10574D01*
X39263Y-10658D01*
X39109Y-10813D01*
X39075Y-10894D01*
X39041Y-10813D01*
X38886Y-10659D01*
X38684Y-10575D01*
X38466Y-10574D01*
X38263Y-10658D01*
X38109Y-10813D01*
X38075Y-10894D01*
X38041Y-10813D01*
X37886Y-10659D01*
X37684Y-10575D01*
X37466Y-10574D01*
X37263Y-10658D01*
X37109Y-10813D01*
X37075Y-10894D01*
X37041Y-10813D01*
X36886Y-10659D01*
X36684Y-10575D01*
X36466Y-10574D01*
X36263Y-10658D01*
X36109Y-10813D01*
X36075Y-10894D01*
X36041Y-10813D01*
X35886Y-10659D01*
X35684Y-10575D01*
X35466Y-10574D01*
X35263Y-10658D01*
X35109Y-10813D01*
X35075Y-10894D01*
X35041Y-10813D01*
X34886Y-10659D01*
X34684Y-10575D01*
X34466Y-10574D01*
X34263Y-10658D01*
X34109Y-10813D01*
X34104Y-10825D01*
X33974Y-10825D01*
X33859Y-10847D01*
X33761Y-10912D01*
X33524Y-11149D01*
X33525Y-11016D01*
X33441Y-10813D01*
X33286Y-10659D01*
X33084Y-10575D01*
X32866Y-10574D01*
X32663Y-10658D01*
X32509Y-10813D01*
X32475Y-10894D01*
X32441Y-10813D01*
X32286Y-10659D01*
X32084Y-10575D01*
X31866Y-10574D01*
X31663Y-10658D01*
X31509Y-10813D01*
X31475Y-10894D01*
X31441Y-10813D01*
X31286Y-10659D01*
X31084Y-10575D01*
X30866Y-10574D01*
X30663Y-10658D01*
X30509Y-10813D01*
X30475Y-10894D01*
X30441Y-10813D01*
X30286Y-10659D01*
X30084Y-10575D01*
X29866Y-10574D01*
X29663Y-10658D01*
X29509Y-10813D01*
X29475Y-10894D01*
X29441Y-10813D01*
X29286Y-10659D01*
X29084Y-10575D01*
X28866Y-10574D01*
X28663Y-10658D01*
X28509Y-10813D01*
X28475Y-10894D01*
X28441Y-10813D01*
X28286Y-10659D01*
X28084Y-10575D01*
X27866Y-10574D01*
X27663Y-10658D01*
X27569Y-10752D01*
X27529Y-10655D01*
X27445Y-10570D01*
X27334Y-10525D01*
X27215Y-10524D01*
X27105Y-10525D01*
X27030Y-10600D01*
X27030Y-11070D01*
X27037Y-11070D01*
X27037Y-11180D01*
X27030Y-11180D01*
X27030Y-11650D01*
X27105Y-11725D01*
X27215Y-11725D01*
X27334Y-11724D01*
X27445Y-11679D01*
X27529Y-11594D01*
X27569Y-11497D01*
X27663Y-11590D01*
X27675Y-11595D01*
X27675Y-12225D01*
X27062Y-12837D01*
X26997Y-12935D01*
X26975Y-13050D01*
X26975Y-17623D01*
X26914Y-17683D01*
X26900Y-17719D01*
X26900Y-12175D01*
X26873Y-12041D01*
X26797Y-11927D01*
X26797Y-11927D01*
X26580Y-11710D01*
X26615Y-11724D01*
X26734Y-11725D01*
X26845Y-11725D01*
X26920Y-11650D01*
X26920Y-11180D01*
X26912Y-11180D01*
X26912Y-11070D01*
X26920Y-11070D01*
X26920Y-10600D01*
X26845Y-10525D01*
X26734Y-10524D01*
X26615Y-10525D01*
X26504Y-10570D01*
X26420Y-10655D01*
X26380Y-10752D01*
X26286Y-10659D01*
X26084Y-10575D01*
X25866Y-10574D01*
X25663Y-10658D01*
X25509Y-10813D01*
X25475Y-10894D01*
X25441Y-10813D01*
X25286Y-10659D01*
X25084Y-10575D01*
X24866Y-10574D01*
X24663Y-10658D01*
X24509Y-10813D01*
X24475Y-10894D01*
X24441Y-10813D01*
X24286Y-10659D01*
X24084Y-10575D01*
X23866Y-10574D01*
X23675Y-10653D01*
X23675Y-10500D01*
X40275Y-10500D01*
X40275Y-10653D01*
G54D10*
G36*
X40775Y-27524D02*
X40705Y-27525D01*
X40630Y-27600D01*
X40630Y-28070D01*
X40637Y-28070D01*
X40637Y-28180D01*
X40630Y-28180D01*
X40630Y-28187D01*
X40520Y-28187D01*
X40520Y-28180D01*
X40512Y-28180D01*
X40512Y-28070D01*
X40520Y-28070D01*
X40520Y-27600D01*
X40445Y-27525D01*
X40375Y-27524D01*
X40375Y-26956D01*
X40419Y-26956D01*
X40511Y-26918D01*
X40575Y-26854D01*
X40638Y-26917D01*
X40730Y-26955D01*
X40775Y-26955D01*
X40775Y-27524D01*
X40775Y-27524D01*
G37*
G54D45*
X40775Y-27524D02*
X40705Y-27525D01*
X40630Y-27600D01*
X40630Y-28070D01*
X40637Y-28070D01*
X40637Y-28180D01*
X40630Y-28180D01*
X40630Y-28187D01*
X40520Y-28187D01*
X40520Y-28180D01*
X40512Y-28180D01*
X40512Y-28070D01*
X40520Y-28070D01*
X40520Y-27600D01*
X40445Y-27525D01*
X40375Y-27524D01*
X40375Y-26956D01*
X40419Y-26956D01*
X40511Y-26918D01*
X40575Y-26854D01*
X40638Y-26917D01*
X40730Y-26955D01*
X40775Y-26955D01*
X40775Y-27524D01*
G54D10*
G36*
X41580Y-30675D02*
X41380Y-30875D01*
X35125Y-30875D01*
X35125Y-30016D01*
X35041Y-29813D01*
X34886Y-29659D01*
X34684Y-29575D01*
X34466Y-29574D01*
X34263Y-29658D01*
X34169Y-29752D01*
X34129Y-29655D01*
X34045Y-29570D01*
X33934Y-29525D01*
X33815Y-29524D01*
X33705Y-29525D01*
X33630Y-29600D01*
X33630Y-30070D01*
X33637Y-30070D01*
X33637Y-30180D01*
X33630Y-30180D01*
X33630Y-30650D01*
X33705Y-30725D01*
X33815Y-30725D01*
X33934Y-30724D01*
X34045Y-30679D01*
X34129Y-30594D01*
X34169Y-30497D01*
X34263Y-30590D01*
X34465Y-30674D01*
X34683Y-30675D01*
X34886Y-30591D01*
X35040Y-30436D01*
X35124Y-30234D01*
X35125Y-30016D01*
X35125Y-30875D01*
X33520Y-30875D01*
X33520Y-30650D01*
X33520Y-30180D01*
X33520Y-30070D01*
X33520Y-29600D01*
X33445Y-29525D01*
X33334Y-29524D01*
X33215Y-29525D01*
X33104Y-29570D01*
X33075Y-29600D01*
X33045Y-29570D01*
X32934Y-29525D01*
X32815Y-29524D01*
X32705Y-29525D01*
X32630Y-29600D01*
X32630Y-30070D01*
X33050Y-30070D01*
X33100Y-30070D01*
X33520Y-30070D01*
X33520Y-30180D01*
X33100Y-30180D01*
X33050Y-30180D01*
X32630Y-30180D01*
X32630Y-30650D01*
X32705Y-30725D01*
X32815Y-30725D01*
X32934Y-30724D01*
X33045Y-30679D01*
X33075Y-30649D01*
X33104Y-30679D01*
X33215Y-30724D01*
X33334Y-30725D01*
X33445Y-30725D01*
X33520Y-30650D01*
X33520Y-30875D01*
X31925Y-30875D01*
X31925Y-30552D01*
X31980Y-30497D01*
X32020Y-30594D01*
X32104Y-30679D01*
X32215Y-30724D01*
X32334Y-30725D01*
X32445Y-30725D01*
X32520Y-30650D01*
X32520Y-30180D01*
X32512Y-30180D01*
X32512Y-30070D01*
X32520Y-30070D01*
X32520Y-29600D01*
X32445Y-29525D01*
X32334Y-29524D01*
X32215Y-29525D01*
X32104Y-29570D01*
X32020Y-29655D01*
X31980Y-29752D01*
X31925Y-29697D01*
X31925Y-28575D01*
X31898Y-28441D01*
X31822Y-28327D01*
X30750Y-27255D01*
X30750Y-27222D01*
X30815Y-27249D01*
X30984Y-27250D01*
X31140Y-27185D01*
X31260Y-27066D01*
X31324Y-26909D01*
X31325Y-26740D01*
X31294Y-26667D01*
X31400Y-26688D01*
X31610Y-26646D01*
X31788Y-26527D01*
X31806Y-26500D01*
X31845Y-26595D01*
X31930Y-26679D01*
X32040Y-26725D01*
X32270Y-26725D01*
X32345Y-26650D01*
X32345Y-26030D01*
X32337Y-26030D01*
X32337Y-25920D01*
X32345Y-25920D01*
X32345Y-25912D01*
X32455Y-25912D01*
X32455Y-25920D01*
X32462Y-25920D01*
X32462Y-26030D01*
X32455Y-26030D01*
X32455Y-26650D01*
X32530Y-26725D01*
X32759Y-26725D01*
X32869Y-26679D01*
X32954Y-26595D01*
X32993Y-26500D01*
X33011Y-26527D01*
X33100Y-26587D01*
X33100Y-27350D01*
X33122Y-27464D01*
X33187Y-27562D01*
X33437Y-27812D01*
X33437Y-27812D01*
X33535Y-27877D01*
X33611Y-27892D01*
X33550Y-28040D01*
X33549Y-28209D01*
X33614Y-28365D01*
X33733Y-28485D01*
X33890Y-28549D01*
X34059Y-28550D01*
X34215Y-28485D01*
X34225Y-28475D01*
X35105Y-28475D01*
X35325Y-28694D01*
X35325Y-29900D01*
X35351Y-30033D01*
X35399Y-30106D01*
X35399Y-30134D01*
X35464Y-30290D01*
X35583Y-30410D01*
X35740Y-30474D01*
X35909Y-30475D01*
X36065Y-30410D01*
X36088Y-30387D01*
X36108Y-30436D01*
X36263Y-30590D01*
X36465Y-30674D01*
X36683Y-30675D01*
X36886Y-30591D01*
X37040Y-30436D01*
X37074Y-30355D01*
X37108Y-30436D01*
X37263Y-30590D01*
X37465Y-30674D01*
X37683Y-30675D01*
X37886Y-30591D01*
X38040Y-30436D01*
X38074Y-30355D01*
X38108Y-30436D01*
X38263Y-30590D01*
X38465Y-30674D01*
X38683Y-30675D01*
X38886Y-30591D01*
X39040Y-30436D01*
X39074Y-30355D01*
X39108Y-30436D01*
X39263Y-30590D01*
X39465Y-30674D01*
X39683Y-30675D01*
X39886Y-30591D01*
X40040Y-30436D01*
X40074Y-30355D01*
X40108Y-30436D01*
X40263Y-30590D01*
X40465Y-30674D01*
X40683Y-30675D01*
X40886Y-30591D01*
X41040Y-30436D01*
X41074Y-30355D01*
X41108Y-30436D01*
X41263Y-30590D01*
X41465Y-30674D01*
X41580Y-30675D01*
X41580Y-30675D01*
G37*
G54D45*
X41580Y-30675D02*
X41380Y-30875D01*
X35125Y-30875D01*
X35125Y-30016D01*
X35041Y-29813D01*
X34886Y-29659D01*
X34684Y-29575D01*
X34466Y-29574D01*
X34263Y-29658D01*
X34169Y-29752D01*
X34129Y-29655D01*
X34045Y-29570D01*
X33934Y-29525D01*
X33815Y-29524D01*
X33705Y-29525D01*
X33630Y-29600D01*
X33630Y-30070D01*
X33637Y-30070D01*
X33637Y-30180D01*
X33630Y-30180D01*
X33630Y-30650D01*
X33705Y-30725D01*
X33815Y-30725D01*
X33934Y-30724D01*
X34045Y-30679D01*
X34129Y-30594D01*
X34169Y-30497D01*
X34263Y-30590D01*
X34465Y-30674D01*
X34683Y-30675D01*
X34886Y-30591D01*
X35040Y-30436D01*
X35124Y-30234D01*
X35125Y-30016D01*
X35125Y-30875D01*
X33520Y-30875D01*
X33520Y-30650D01*
X33520Y-30180D01*
X33520Y-30070D01*
X33520Y-29600D01*
X33445Y-29525D01*
X33334Y-29524D01*
X33215Y-29525D01*
X33104Y-29570D01*
X33075Y-29600D01*
X33045Y-29570D01*
X32934Y-29525D01*
X32815Y-29524D01*
X32705Y-29525D01*
X32630Y-29600D01*
X32630Y-30070D01*
X33050Y-30070D01*
X33100Y-30070D01*
X33520Y-30070D01*
X33520Y-30180D01*
X33100Y-30180D01*
X33050Y-30180D01*
X32630Y-30180D01*
X32630Y-30650D01*
X32705Y-30725D01*
X32815Y-30725D01*
X32934Y-30724D01*
X33045Y-30679D01*
X33075Y-30649D01*
X33104Y-30679D01*
X33215Y-30724D01*
X33334Y-30725D01*
X33445Y-30725D01*
X33520Y-30650D01*
X33520Y-30875D01*
X31925Y-30875D01*
X31925Y-30552D01*
X31980Y-30497D01*
X32020Y-30594D01*
X32104Y-30679D01*
X32215Y-30724D01*
X32334Y-30725D01*
X32445Y-30725D01*
X32520Y-30650D01*
X32520Y-30180D01*
X32512Y-30180D01*
X32512Y-30070D01*
X32520Y-30070D01*
X32520Y-29600D01*
X32445Y-29525D01*
X32334Y-29524D01*
X32215Y-29525D01*
X32104Y-29570D01*
X32020Y-29655D01*
X31980Y-29752D01*
X31925Y-29697D01*
X31925Y-28575D01*
X31898Y-28441D01*
X31822Y-28327D01*
X30750Y-27255D01*
X30750Y-27222D01*
X30815Y-27249D01*
X30984Y-27250D01*
X31140Y-27185D01*
X31260Y-27066D01*
X31324Y-26909D01*
X31325Y-26740D01*
X31294Y-26667D01*
X31400Y-26688D01*
X31610Y-26646D01*
X31788Y-26527D01*
X31806Y-26500D01*
X31845Y-26595D01*
X31930Y-26679D01*
X32040Y-26725D01*
X32270Y-26725D01*
X32345Y-26650D01*
X32345Y-26030D01*
X32337Y-26030D01*
X32337Y-25920D01*
X32345Y-25920D01*
X32345Y-25912D01*
X32455Y-25912D01*
X32455Y-25920D01*
X32462Y-25920D01*
X32462Y-26030D01*
X32455Y-26030D01*
X32455Y-26650D01*
X32530Y-26725D01*
X32759Y-26725D01*
X32869Y-26679D01*
X32954Y-26595D01*
X32993Y-26500D01*
X33011Y-26527D01*
X33100Y-26587D01*
X33100Y-27350D01*
X33122Y-27464D01*
X33187Y-27562D01*
X33437Y-27812D01*
X33437Y-27812D01*
X33535Y-27877D01*
X33611Y-27892D01*
X33550Y-28040D01*
X33549Y-28209D01*
X33614Y-28365D01*
X33733Y-28485D01*
X33890Y-28549D01*
X34059Y-28550D01*
X34215Y-28485D01*
X34225Y-28475D01*
X35105Y-28475D01*
X35325Y-28694D01*
X35325Y-29900D01*
X35351Y-30033D01*
X35399Y-30106D01*
X35399Y-30134D01*
X35464Y-30290D01*
X35583Y-30410D01*
X35740Y-30474D01*
X35909Y-30475D01*
X36065Y-30410D01*
X36088Y-30387D01*
X36108Y-30436D01*
X36263Y-30590D01*
X36465Y-30674D01*
X36683Y-30675D01*
X36886Y-30591D01*
X37040Y-30436D01*
X37074Y-30355D01*
X37108Y-30436D01*
X37263Y-30590D01*
X37465Y-30674D01*
X37683Y-30675D01*
X37886Y-30591D01*
X38040Y-30436D01*
X38074Y-30355D01*
X38108Y-30436D01*
X38263Y-30590D01*
X38465Y-30674D01*
X38683Y-30675D01*
X38886Y-30591D01*
X39040Y-30436D01*
X39074Y-30355D01*
X39108Y-30436D01*
X39263Y-30590D01*
X39465Y-30674D01*
X39683Y-30675D01*
X39886Y-30591D01*
X40040Y-30436D01*
X40074Y-30355D01*
X40108Y-30436D01*
X40263Y-30590D01*
X40465Y-30674D01*
X40683Y-30675D01*
X40886Y-30591D01*
X41040Y-30436D01*
X41074Y-30355D01*
X41108Y-30436D01*
X41263Y-30590D01*
X41465Y-30674D01*
X41580Y-30675D01*
G54D10*
G36*
X41850Y-14537D02*
X41759Y-14500D01*
X41590Y-14499D01*
X41520Y-14529D01*
X41520Y-14325D01*
X41520Y-13855D01*
X41100Y-13855D01*
X41050Y-13855D01*
X40630Y-13855D01*
X40630Y-14325D01*
X40705Y-14400D01*
X40934Y-14400D01*
X41044Y-14354D01*
X41075Y-14324D01*
X41105Y-14354D01*
X41215Y-14400D01*
X41445Y-14400D01*
X41520Y-14325D01*
X41520Y-14529D01*
X41434Y-14564D01*
X41373Y-14625D01*
X40651Y-14625D01*
X40591Y-14564D01*
X40434Y-14500D01*
X40265Y-14499D01*
X40109Y-14564D01*
X39989Y-14683D01*
X39925Y-14840D01*
X39924Y-15009D01*
X39989Y-15165D01*
X40048Y-15224D01*
X39989Y-15283D01*
X39925Y-15440D01*
X39924Y-15575D01*
X38550Y-15575D01*
X38435Y-15597D01*
X38337Y-15662D01*
X37987Y-16012D01*
X37922Y-16110D01*
X37900Y-16225D01*
X37900Y-18347D01*
X37886Y-18334D01*
X37684Y-18250D01*
X37466Y-18249D01*
X37263Y-18333D01*
X37169Y-18427D01*
X37129Y-18330D01*
X37045Y-18245D01*
X36934Y-18200D01*
X36815Y-18199D01*
X36705Y-18200D01*
X36630Y-18275D01*
X36630Y-18745D01*
X36637Y-18745D01*
X36637Y-18855D01*
X36630Y-18855D01*
X36630Y-18862D01*
X36520Y-18862D01*
X36520Y-18855D01*
X36512Y-18855D01*
X36512Y-18745D01*
X36520Y-18745D01*
X36520Y-18275D01*
X36445Y-18200D01*
X36334Y-18199D01*
X36215Y-18200D01*
X36125Y-18237D01*
X36125Y-14127D01*
X36263Y-14265D01*
X36465Y-14349D01*
X36683Y-14350D01*
X36886Y-14266D01*
X37040Y-14111D01*
X37074Y-14030D01*
X37108Y-14111D01*
X37263Y-14265D01*
X37465Y-14349D01*
X37683Y-14350D01*
X37886Y-14266D01*
X38040Y-14111D01*
X38074Y-14030D01*
X38108Y-14111D01*
X38263Y-14265D01*
X38465Y-14349D01*
X38683Y-14350D01*
X38886Y-14266D01*
X39040Y-14111D01*
X39074Y-14030D01*
X39108Y-14111D01*
X39263Y-14265D01*
X39465Y-14349D01*
X39683Y-14350D01*
X39886Y-14266D01*
X39980Y-14172D01*
X40020Y-14270D01*
X40105Y-14354D01*
X40215Y-14400D01*
X40445Y-14400D01*
X40520Y-14325D01*
X40520Y-13855D01*
X40512Y-13855D01*
X40512Y-13745D01*
X40520Y-13745D01*
X40520Y-13275D01*
X40445Y-13200D01*
X40215Y-13199D01*
X40105Y-13245D01*
X40020Y-13329D01*
X39980Y-13427D01*
X39886Y-13334D01*
X39818Y-13305D01*
X40174Y-12949D01*
X40259Y-12950D01*
X40334Y-12919D01*
X40362Y-12962D01*
X40612Y-13212D01*
X40612Y-13212D01*
X40660Y-13244D01*
X40630Y-13275D01*
X40630Y-13745D01*
X41050Y-13745D01*
X41100Y-13745D01*
X41520Y-13745D01*
X41520Y-13737D01*
X41630Y-13737D01*
X41630Y-13745D01*
X41637Y-13745D01*
X41637Y-13855D01*
X41630Y-13855D01*
X41630Y-14325D01*
X41705Y-14400D01*
X41850Y-14400D01*
X41850Y-14537D01*
X41850Y-14537D01*
G37*
G54D45*
X41850Y-14537D02*
X41759Y-14500D01*
X41590Y-14499D01*
X41520Y-14529D01*
X41520Y-14325D01*
X41520Y-13855D01*
X41100Y-13855D01*
X41050Y-13855D01*
X40630Y-13855D01*
X40630Y-14325D01*
X40705Y-14400D01*
X40934Y-14400D01*
X41044Y-14354D01*
X41075Y-14324D01*
X41105Y-14354D01*
X41215Y-14400D01*
X41445Y-14400D01*
X41520Y-14325D01*
X41520Y-14529D01*
X41434Y-14564D01*
X41373Y-14625D01*
X40651Y-14625D01*
X40591Y-14564D01*
X40434Y-14500D01*
X40265Y-14499D01*
X40109Y-14564D01*
X39989Y-14683D01*
X39925Y-14840D01*
X39924Y-15009D01*
X39989Y-15165D01*
X40048Y-15224D01*
X39989Y-15283D01*
X39925Y-15440D01*
X39924Y-15575D01*
X38550Y-15575D01*
X38435Y-15597D01*
X38337Y-15662D01*
X37987Y-16012D01*
X37922Y-16110D01*
X37900Y-16225D01*
X37900Y-18347D01*
X37886Y-18334D01*
X37684Y-18250D01*
X37466Y-18249D01*
X37263Y-18333D01*
X37169Y-18427D01*
X37129Y-18330D01*
X37045Y-18245D01*
X36934Y-18200D01*
X36815Y-18199D01*
X36705Y-18200D01*
X36630Y-18275D01*
X36630Y-18745D01*
X36637Y-18745D01*
X36637Y-18855D01*
X36630Y-18855D01*
X36630Y-18862D01*
X36520Y-18862D01*
X36520Y-18855D01*
X36512Y-18855D01*
X36512Y-18745D01*
X36520Y-18745D01*
X36520Y-18275D01*
X36445Y-18200D01*
X36334Y-18199D01*
X36215Y-18200D01*
X36125Y-18237D01*
X36125Y-14127D01*
X36263Y-14265D01*
X36465Y-14349D01*
X36683Y-14350D01*
X36886Y-14266D01*
X37040Y-14111D01*
X37074Y-14030D01*
X37108Y-14111D01*
X37263Y-14265D01*
X37465Y-14349D01*
X37683Y-14350D01*
X37886Y-14266D01*
X38040Y-14111D01*
X38074Y-14030D01*
X38108Y-14111D01*
X38263Y-14265D01*
X38465Y-14349D01*
X38683Y-14350D01*
X38886Y-14266D01*
X39040Y-14111D01*
X39074Y-14030D01*
X39108Y-14111D01*
X39263Y-14265D01*
X39465Y-14349D01*
X39683Y-14350D01*
X39886Y-14266D01*
X39980Y-14172D01*
X40020Y-14270D01*
X40105Y-14354D01*
X40215Y-14400D01*
X40445Y-14400D01*
X40520Y-14325D01*
X40520Y-13855D01*
X40512Y-13855D01*
X40512Y-13745D01*
X40520Y-13745D01*
X40520Y-13275D01*
X40445Y-13200D01*
X40215Y-13199D01*
X40105Y-13245D01*
X40020Y-13329D01*
X39980Y-13427D01*
X39886Y-13334D01*
X39818Y-13305D01*
X40174Y-12949D01*
X40259Y-12950D01*
X40334Y-12919D01*
X40362Y-12962D01*
X40612Y-13212D01*
X40612Y-13212D01*
X40660Y-13244D01*
X40630Y-13275D01*
X40630Y-13745D01*
X41050Y-13745D01*
X41100Y-13745D01*
X41520Y-13745D01*
X41520Y-13737D01*
X41630Y-13737D01*
X41630Y-13745D01*
X41637Y-13745D01*
X41637Y-13855D01*
X41630Y-13855D01*
X41630Y-14325D01*
X41705Y-14400D01*
X41850Y-14400D01*
X41850Y-14537D01*
G54D10*
G36*
X43012Y-13105D02*
X43005Y-13105D01*
X43005Y-13112D01*
X42895Y-13112D01*
X42895Y-13105D01*
X42887Y-13105D01*
X42887Y-12995D01*
X42895Y-12995D01*
X42895Y-12987D01*
X43005Y-12987D01*
X43005Y-12995D01*
X43012Y-12995D01*
X43012Y-13105D01*
X43012Y-13105D01*
G37*
G54D45*
X43012Y-13105D02*
X43005Y-13105D01*
X43005Y-13112D01*
X42895Y-13112D01*
X42895Y-13105D01*
X42887Y-13105D01*
X42887Y-12995D01*
X42895Y-12995D01*
X42895Y-12987D01*
X43005Y-12987D01*
X43005Y-12995D01*
X43012Y-12995D01*
X43012Y-13105D01*
G54D10*
G36*
X43225Y-27734D02*
X43211Y-27700D01*
X43000Y-27489D01*
X42724Y-27375D01*
X42426Y-27374D01*
X42150Y-27488D01*
X42056Y-27582D01*
X42044Y-27570D01*
X41934Y-27524D01*
X41705Y-27525D01*
X41630Y-27600D01*
X41630Y-28070D01*
X41637Y-28070D01*
X41637Y-28180D01*
X41630Y-28180D01*
X41630Y-28187D01*
X41520Y-28187D01*
X41520Y-28180D01*
X41512Y-28180D01*
X41512Y-28070D01*
X41520Y-28070D01*
X41520Y-27600D01*
X41445Y-27525D01*
X41375Y-27524D01*
X41375Y-26956D01*
X41419Y-26956D01*
X41511Y-26918D01*
X41581Y-26847D01*
X41619Y-26755D01*
X41619Y-26750D01*
X41975Y-26750D01*
X41975Y-26749D01*
X42089Y-26727D01*
X42089Y-26727D01*
X42187Y-26662D01*
X42462Y-26387D01*
X42527Y-26289D01*
X42549Y-26175D01*
X42550Y-26175D01*
X42550Y-24550D01*
X42527Y-24435D01*
X42462Y-24337D01*
X42462Y-24337D01*
X42262Y-24137D01*
X42164Y-24072D01*
X42050Y-24050D01*
X39075Y-24050D01*
X38960Y-24072D01*
X38862Y-24137D01*
X38275Y-24725D01*
X35324Y-24725D01*
X35200Y-24600D01*
X35200Y-23648D01*
X35400Y-23688D01*
X35610Y-23646D01*
X35788Y-23527D01*
X35900Y-23361D01*
X36011Y-23527D01*
X36189Y-23646D01*
X36400Y-23688D01*
X36610Y-23646D01*
X36788Y-23527D01*
X36900Y-23361D01*
X37011Y-23527D01*
X37189Y-23646D01*
X37400Y-23688D01*
X37610Y-23646D01*
X37788Y-23527D01*
X37900Y-23361D01*
X38011Y-23527D01*
X38189Y-23646D01*
X38400Y-23688D01*
X38610Y-23646D01*
X38788Y-23527D01*
X38908Y-23349D01*
X38950Y-23138D01*
X38950Y-22811D01*
X38942Y-22775D01*
X43225Y-22775D01*
X43225Y-27734D01*
X43225Y-27734D01*
G37*
G54D45*
X43225Y-27734D02*
X43211Y-27700D01*
X43000Y-27489D01*
X42724Y-27375D01*
X42426Y-27374D01*
X42150Y-27488D01*
X42056Y-27582D01*
X42044Y-27570D01*
X41934Y-27524D01*
X41705Y-27525D01*
X41630Y-27600D01*
X41630Y-28070D01*
X41637Y-28070D01*
X41637Y-28180D01*
X41630Y-28180D01*
X41630Y-28187D01*
X41520Y-28187D01*
X41520Y-28180D01*
X41512Y-28180D01*
X41512Y-28070D01*
X41520Y-28070D01*
X41520Y-27600D01*
X41445Y-27525D01*
X41375Y-27524D01*
X41375Y-26956D01*
X41419Y-26956D01*
X41511Y-26918D01*
X41581Y-26847D01*
X41619Y-26755D01*
X41619Y-26750D01*
X41975Y-26750D01*
X41975Y-26749D01*
X42089Y-26727D01*
X42089Y-26727D01*
X42187Y-26662D01*
X42462Y-26387D01*
X42527Y-26289D01*
X42549Y-26175D01*
X42550Y-26175D01*
X42550Y-24550D01*
X42527Y-24435D01*
X42462Y-24337D01*
X42462Y-24337D01*
X42262Y-24137D01*
X42164Y-24072D01*
X42050Y-24050D01*
X39075Y-24050D01*
X38960Y-24072D01*
X38862Y-24137D01*
X38275Y-24725D01*
X35324Y-24725D01*
X35200Y-24600D01*
X35200Y-23648D01*
X35400Y-23688D01*
X35610Y-23646D01*
X35788Y-23527D01*
X35900Y-23361D01*
X36011Y-23527D01*
X36189Y-23646D01*
X36400Y-23688D01*
X36610Y-23646D01*
X36788Y-23527D01*
X36900Y-23361D01*
X37011Y-23527D01*
X37189Y-23646D01*
X37400Y-23688D01*
X37610Y-23646D01*
X37788Y-23527D01*
X37900Y-23361D01*
X38011Y-23527D01*
X38189Y-23646D01*
X38400Y-23688D01*
X38610Y-23646D01*
X38788Y-23527D01*
X38908Y-23349D01*
X38950Y-23138D01*
X38950Y-22811D01*
X38942Y-22775D01*
X43225Y-22775D01*
X43225Y-27734D01*
M02*
