G04 (created by PCBNEW (2013-03-15 BZR 4003)-stable) date 12-Jun-13 3:11:27 PM*
%MOIN*%
G04 Gerber Fmt 3.4, Leading zero omitted, Abs format*
%FSLAX34Y34*%
G01*
G70*
G90*
G04 APERTURE LIST*
%ADD10C,2.3622e-006*%
%ADD11C,0.005*%
%ADD12R,0.06X0.06*%
%ADD13C,0.06*%
%ADD14R,0.056X0.042*%
%ADD15R,0.05X0.04*%
%ADD16R,0.061X0.0197*%
%ADD17R,0.0394X0.0591*%
%ADD18R,0.042X0.056*%
%ADD19R,0.0512X0.059*%
%ADD20R,0.059X0.0512*%
%ADD21C,0.04*%
%ADD22R,0.044X0.0236*%
%ADD23R,0.08X0.15*%
%ADD24R,0.08X0.06*%
%ADD25R,0.0315X0.0472*%
%ADD26R,0.024X0.08*%
%ADD27R,0.12X0.064*%
%ADD28R,0.08X0.05*%
%ADD29O,0.08X0.05*%
%ADD30C,0.075*%
%ADD31R,0.06X0.03*%
%ADD32R,0.06X0.04*%
%ADD33C,0.045*%
%ADD34R,0.03X0.03*%
%ADD35R,0.06X0.08*%
%ADD36R,0.1X0.105*%
%ADD37R,0.05X0.03*%
%ADD38O,0.12X0.18*%
%ADD39R,0.12X0.18*%
%ADD40O,0.18X0.12*%
%ADD41O,0.07X0.03*%
%ADD42C,0.18*%
%ADD43C,0.1*%
%ADD44O,0.06X0.09*%
%ADD45R,0.06X0.09*%
%ADD46C,0.035*%
%ADD47C,0.02*%
%ADD48C,0.015*%
%ADD49C,0.01*%
G04 APERTURE END LIST*
G54D10*
G54D11*
X43500Y-32000D02*
X43500Y-10000D01*
X10000Y-10000D02*
X43500Y-10000D01*
X43500Y-32000D02*
X10000Y-32000D01*
X10000Y-32000D02*
X10000Y-10000D01*
G54D12*
X18000Y-31250D03*
X18000Y-30250D03*
X18000Y-29250D03*
X18000Y-28250D03*
X18000Y-27250D03*
X18000Y-26250D03*
X18000Y-25250D03*
X18000Y-24250D03*
G54D13*
X19000Y-31250D03*
X19000Y-30250D03*
X19000Y-29250D03*
X19000Y-28250D03*
X19000Y-27250D03*
X19000Y-26250D03*
X19000Y-25250D03*
X19000Y-24250D03*
G54D14*
X11925Y-26225D03*
X11925Y-25425D03*
X17400Y-21525D03*
X17400Y-22325D03*
G54D15*
X23225Y-19475D03*
X23225Y-20275D03*
X26175Y-20275D03*
X26175Y-19475D03*
X25175Y-20275D03*
X25175Y-19475D03*
G54D14*
X20550Y-16650D03*
X20550Y-15850D03*
G54D16*
X17325Y-14225D03*
X17325Y-14725D03*
X17325Y-15225D03*
X17325Y-15725D03*
X17325Y-16225D03*
X17325Y-16725D03*
X17325Y-17225D03*
X19425Y-17225D03*
X19425Y-16725D03*
X19425Y-16225D03*
X19425Y-15725D03*
X19425Y-15225D03*
X19425Y-14725D03*
X19425Y-14225D03*
G54D17*
X22075Y-14425D03*
X22075Y-16475D03*
X22775Y-16475D03*
X22775Y-14425D03*
G54D14*
X34875Y-14050D03*
X34875Y-14850D03*
G54D18*
X15475Y-23525D03*
X16275Y-23525D03*
X16275Y-19875D03*
X15475Y-19875D03*
X15475Y-22525D03*
X16275Y-22525D03*
G54D19*
X18750Y-13150D03*
X18000Y-13150D03*
G54D20*
X20550Y-14950D03*
X20550Y-14200D03*
X20550Y-18275D03*
X20550Y-17525D03*
X23225Y-18275D03*
X23225Y-17525D03*
X24200Y-19500D03*
X24200Y-20250D03*
X27175Y-19500D03*
X27175Y-20250D03*
G54D21*
X11675Y-24500D03*
X11025Y-24500D03*
X10375Y-24500D03*
G54D20*
X20875Y-21550D03*
X20875Y-22300D03*
X21850Y-22300D03*
X21850Y-21550D03*
X22200Y-19500D03*
X22200Y-20250D03*
G54D22*
X15225Y-20775D03*
X15225Y-21525D03*
X15225Y-21150D03*
X16275Y-21525D03*
X16275Y-20775D03*
G54D23*
X13300Y-22475D03*
G54D24*
X10800Y-22475D03*
X10800Y-23375D03*
X10800Y-21575D03*
G54D25*
X17825Y-19575D03*
X17450Y-20525D03*
X17075Y-19575D03*
G54D26*
X18500Y-20250D03*
X18500Y-22150D03*
X19000Y-20250D03*
X19500Y-20250D03*
X20000Y-20250D03*
X19000Y-22150D03*
X19500Y-22150D03*
X20000Y-22150D03*
G54D14*
X21150Y-19475D03*
X21150Y-20275D03*
G54D27*
X23925Y-29525D03*
X25725Y-29500D03*
X15025Y-25425D03*
X13225Y-25450D03*
G54D13*
X20000Y-31250D03*
X20000Y-30250D03*
X20000Y-29250D03*
X20000Y-28250D03*
X20000Y-27250D03*
X20000Y-26250D03*
X20000Y-25250D03*
X20000Y-24250D03*
X42950Y-11050D03*
X42950Y-12050D03*
G54D12*
X42950Y-13050D03*
G54D13*
X42950Y-14050D03*
X42950Y-15050D03*
X42950Y-16050D03*
G54D28*
X31000Y-14000D03*
G54D29*
X31000Y-15000D03*
X31000Y-16000D03*
X31000Y-17000D03*
X31000Y-18000D03*
X31000Y-19000D03*
X31000Y-20000D03*
X31000Y-21000D03*
G54D28*
X32000Y-14000D03*
G54D29*
X32000Y-15000D03*
X32000Y-16000D03*
X32000Y-17000D03*
X32000Y-18000D03*
X32000Y-19000D03*
X32000Y-20000D03*
X32000Y-21000D03*
G54D30*
X10575Y-28300D03*
X10575Y-25700D03*
G54D13*
X37575Y-20800D03*
X36575Y-20800D03*
X37575Y-19800D03*
X36575Y-19800D03*
X37575Y-18800D03*
G54D12*
X36575Y-18800D03*
G54D31*
X16100Y-15225D03*
X16100Y-14792D03*
X16100Y-14359D03*
X16100Y-13926D03*
X16100Y-13493D03*
X16100Y-15658D03*
X16100Y-16091D03*
X16100Y-16524D03*
X16100Y-16957D03*
G54D32*
X15864Y-12963D03*
G54D24*
X12016Y-13099D03*
G54D32*
X12016Y-19162D03*
G54D12*
X15946Y-18840D03*
G54D33*
X11800Y-14200D03*
X11800Y-17350D03*
G54D34*
X37825Y-17100D03*
X37825Y-16625D03*
X37025Y-17100D03*
X37025Y-16625D03*
G54D35*
X12325Y-31075D03*
X10825Y-31075D03*
G54D24*
X21725Y-23725D03*
X21725Y-25225D03*
G54D36*
X16650Y-25425D03*
G54D37*
X16650Y-26350D03*
G54D38*
X13100Y-28450D03*
G54D39*
X15500Y-28450D03*
G54D40*
X14350Y-30450D03*
G54D13*
X10700Y-11900D03*
X10700Y-10900D03*
X11700Y-11900D03*
X11700Y-10900D03*
X12700Y-11900D03*
G54D12*
X12700Y-10900D03*
G54D13*
X13700Y-11900D03*
X13700Y-10900D03*
X14700Y-11900D03*
X14700Y-10900D03*
X15700Y-11900D03*
X15700Y-10900D03*
X16700Y-11900D03*
X16700Y-10900D03*
X17700Y-11900D03*
X17700Y-10900D03*
X18700Y-11900D03*
X18700Y-10900D03*
X19700Y-11900D03*
X19700Y-10900D03*
X20700Y-11900D03*
X20700Y-10900D03*
X21700Y-11900D03*
X21700Y-10900D03*
X22700Y-11900D03*
X22700Y-10900D03*
X34575Y-18800D03*
X34575Y-19800D03*
X34575Y-20800D03*
X41575Y-29125D03*
X40575Y-29125D03*
X39575Y-29125D03*
X38575Y-29125D03*
X37575Y-29125D03*
X36575Y-29125D03*
G54D12*
X41575Y-28125D03*
X40575Y-28125D03*
X39575Y-28125D03*
X38575Y-28125D03*
X37575Y-28125D03*
X36575Y-28125D03*
G54D41*
X13550Y-19675D03*
X13550Y-20675D03*
X12350Y-20175D03*
G54D34*
X12950Y-20675D03*
X12950Y-20175D03*
X12950Y-19675D03*
G54D20*
X11900Y-23375D03*
X11900Y-22625D03*
G54D12*
X41575Y-13800D03*
X40575Y-13800D03*
G54D13*
X39575Y-13800D03*
X38575Y-13800D03*
X37575Y-13800D03*
X36575Y-13800D03*
X41575Y-30125D03*
X40575Y-30125D03*
X39575Y-30125D03*
X36575Y-30125D03*
X37575Y-30125D03*
X38575Y-30125D03*
X34575Y-30125D03*
G54D12*
X33575Y-30125D03*
X32575Y-30125D03*
G54D13*
X30575Y-30125D03*
X29575Y-30125D03*
X41575Y-11125D03*
X40575Y-11125D03*
X39575Y-11125D03*
X38575Y-11125D03*
X37575Y-11125D03*
X36575Y-11125D03*
X35575Y-11125D03*
X34575Y-11125D03*
X32975Y-11125D03*
X31975Y-11125D03*
X30975Y-11125D03*
X29975Y-11125D03*
X28975Y-11125D03*
X27975Y-11125D03*
G54D12*
X26975Y-11125D03*
G54D13*
X25975Y-11125D03*
X31575Y-30125D03*
G54D42*
X22075Y-30125D03*
G54D43*
X42575Y-28125D03*
G54D13*
X28575Y-30125D03*
X27575Y-30125D03*
X24975Y-11125D03*
X23975Y-11125D03*
G54D44*
X37400Y-22975D03*
X36400Y-22975D03*
X35400Y-22975D03*
X34400Y-22975D03*
X33400Y-22975D03*
X32400Y-22975D03*
G54D45*
X31400Y-22975D03*
G54D44*
X30400Y-22975D03*
X29400Y-22975D03*
X28400Y-22975D03*
X27400Y-22975D03*
X26400Y-22975D03*
X25400Y-22975D03*
X38400Y-22975D03*
X25400Y-25975D03*
X26400Y-25975D03*
X27400Y-25975D03*
X28400Y-25975D03*
X29400Y-25975D03*
X30400Y-25975D03*
X31400Y-25975D03*
G54D45*
X32400Y-25975D03*
G54D44*
X33400Y-25975D03*
X34400Y-25975D03*
X35400Y-25975D03*
X36400Y-25975D03*
X37400Y-25975D03*
X38400Y-25975D03*
G54D46*
X35825Y-30050D03*
X14499Y-17135D03*
X19500Y-23075D03*
X17025Y-17675D03*
X33975Y-28125D03*
X34575Y-17300D03*
X33375Y-17300D03*
X18750Y-15225D03*
X21300Y-18275D03*
X24125Y-21300D03*
X27800Y-19500D03*
X23025Y-28600D03*
X24650Y-28600D03*
X26100Y-22100D03*
X40350Y-15525D03*
X41675Y-15525D03*
X27625Y-17550D03*
X25925Y-17550D03*
X25575Y-16625D03*
X28175Y-16625D03*
X41675Y-14925D03*
X35400Y-15825D03*
X40350Y-14925D03*
X33400Y-21175D03*
X28900Y-27225D03*
X30900Y-26825D03*
X17075Y-19125D03*
X23150Y-22475D03*
X12350Y-17850D03*
X14700Y-19300D03*
X41575Y-24950D03*
X15275Y-26225D03*
X10350Y-18700D03*
X15625Y-24200D03*
X12625Y-22475D03*
X10825Y-29225D03*
X20800Y-23700D03*
X15500Y-13825D03*
X35825Y-13350D03*
X32975Y-13050D03*
X14225Y-15575D03*
X19550Y-13825D03*
X29425Y-13050D03*
X25400Y-17450D03*
X20550Y-13675D03*
X18150Y-16225D03*
X25925Y-13450D03*
X29350Y-16975D03*
X19775Y-18600D03*
X17775Y-18500D03*
X32950Y-14850D03*
X23800Y-17525D03*
X22200Y-10350D03*
X40175Y-12525D03*
X41075Y-12525D03*
X18000Y-15250D03*
X23375Y-20950D03*
X27275Y-17925D03*
X32875Y-20325D03*
X29700Y-18300D03*
X27925Y-20350D03*
X20000Y-19575D03*
X34925Y-13500D03*
X25275Y-14300D03*
X13225Y-15200D03*
X21275Y-15375D03*
X20950Y-13325D03*
X24450Y-12075D03*
X30450Y-28150D03*
X24450Y-13325D03*
X17525Y-17675D03*
X15025Y-18025D03*
X27825Y-16275D03*
X21300Y-17525D03*
X25100Y-16275D03*
X16975Y-20525D03*
X25275Y-15300D03*
X13800Y-27225D03*
X20400Y-21550D03*
X23725Y-22475D03*
X26850Y-28475D03*
X16650Y-24250D03*
X24625Y-24500D03*
X23350Y-15875D03*
X11050Y-14125D03*
X12300Y-21300D03*
X26550Y-21700D03*
X16600Y-23025D03*
X25950Y-30200D03*
X15200Y-15600D03*
X13350Y-18325D03*
X29325Y-18775D03*
X30075Y-29300D03*
X22600Y-22025D03*
X32400Y-28125D03*
X30550Y-21525D03*
X22200Y-18725D03*
X19500Y-19575D03*
G54D47*
X37575Y-29125D02*
X38575Y-29125D01*
X19000Y-22150D02*
X19000Y-22575D01*
X15499Y-16176D02*
X15000Y-16675D01*
X38125Y-17625D02*
X36675Y-17625D01*
X36575Y-29125D02*
X36375Y-29125D01*
X20550Y-15425D02*
X20550Y-14950D01*
X16275Y-19650D02*
X16575Y-19350D01*
X40850Y-15700D02*
X40625Y-15925D01*
X40850Y-14825D02*
X40850Y-15700D01*
X41163Y-14512D02*
X40850Y-14825D01*
X42950Y-14050D02*
X42500Y-14050D01*
X40625Y-15925D02*
X38750Y-15925D01*
X42500Y-14050D02*
X42038Y-14512D01*
X20050Y-15425D02*
X20550Y-15425D01*
X15499Y-15848D02*
X15689Y-15658D01*
X36575Y-29125D02*
X37575Y-29125D01*
X31575Y-28575D02*
X30575Y-29575D01*
X38375Y-16300D02*
X38750Y-15925D01*
X27175Y-19500D02*
X27850Y-19500D01*
X38375Y-17375D02*
X38375Y-16625D01*
X35825Y-29675D02*
X35825Y-30050D01*
X33975Y-28125D02*
X33025Y-28125D01*
X27800Y-19500D02*
X27175Y-19500D01*
X16275Y-19875D02*
X16275Y-19650D01*
X19850Y-15225D02*
X20050Y-15425D01*
X14499Y-17135D02*
X14499Y-16848D01*
X20550Y-15850D02*
X20550Y-15425D01*
X19425Y-15225D02*
X19850Y-15225D01*
X18750Y-15225D02*
X18750Y-13150D01*
X20225Y-18275D02*
X20025Y-18075D01*
X19000Y-22575D02*
X19500Y-23075D01*
X17025Y-18075D02*
X17025Y-17675D01*
X36375Y-29125D02*
X35825Y-29675D01*
X19425Y-15225D02*
X18750Y-15225D01*
X27872Y-21300D02*
X28375Y-20797D01*
X15689Y-15658D02*
X16100Y-15658D01*
X16575Y-19350D02*
X16575Y-18525D01*
X16575Y-18525D02*
X17025Y-18075D01*
X30575Y-29575D02*
X30575Y-30125D01*
X19425Y-14225D02*
X19425Y-14725D01*
X32575Y-28575D02*
X31575Y-28575D01*
X21300Y-18275D02*
X20550Y-18275D01*
X34575Y-17300D02*
X36350Y-17300D01*
X34575Y-17300D02*
X33375Y-17300D01*
X14675Y-16675D02*
X14675Y-16672D01*
X24125Y-21300D02*
X27872Y-21300D01*
X19425Y-14725D02*
X19425Y-15225D01*
X20025Y-18075D02*
X17025Y-18075D01*
X33025Y-28125D02*
X32575Y-28575D01*
X15000Y-16675D02*
X14675Y-16675D01*
X37825Y-16625D02*
X38375Y-16625D01*
X15499Y-15848D02*
X15499Y-16176D01*
X20550Y-18275D02*
X20225Y-18275D01*
X27850Y-19500D02*
X28375Y-20025D01*
X14499Y-16848D02*
X14675Y-16672D01*
X42038Y-14512D02*
X41163Y-14512D01*
X16275Y-20775D02*
X16275Y-19875D01*
X28375Y-20025D02*
X28375Y-20797D01*
X38375Y-16625D02*
X38375Y-16300D01*
X38125Y-17625D02*
X38375Y-17375D01*
X36675Y-17625D02*
X36350Y-17300D01*
X20675Y-25250D02*
X20000Y-25250D01*
X20700Y-25225D02*
X20675Y-25250D01*
X21725Y-25225D02*
X20700Y-25225D01*
X23925Y-28600D02*
X23025Y-28600D01*
X19000Y-30250D02*
X19000Y-31250D01*
X24650Y-28600D02*
X23925Y-28600D01*
X23925Y-29525D02*
X23925Y-28600D01*
X31400Y-25075D02*
X30425Y-24100D01*
G54D48*
X27900Y-23800D02*
X27900Y-22100D01*
G54D47*
X28200Y-24100D02*
X27900Y-23800D01*
X31950Y-21950D02*
X34100Y-19800D01*
X31400Y-25975D02*
X31400Y-25075D01*
X28350Y-21950D02*
X31950Y-21950D01*
X34100Y-19800D02*
X34575Y-19800D01*
X30425Y-24100D02*
X28200Y-24100D01*
X27875Y-22100D02*
X28200Y-22100D01*
X26100Y-22100D02*
X27875Y-22100D01*
X27900Y-22100D02*
X27875Y-22100D01*
X28350Y-21950D02*
X28200Y-22100D01*
G54D49*
X42950Y-15050D02*
X42150Y-15050D01*
X42150Y-15050D02*
X41675Y-15525D01*
X40350Y-15525D02*
X37775Y-15525D01*
X37425Y-15875D02*
X37425Y-17100D01*
X37775Y-15525D02*
X37425Y-15875D01*
X37425Y-17100D02*
X37825Y-17100D01*
X37025Y-17100D02*
X37825Y-17100D01*
X25925Y-17550D02*
X27625Y-17550D01*
X25400Y-26775D02*
X25200Y-26975D01*
X25400Y-25975D02*
X25400Y-26775D01*
X21275Y-26975D02*
X20000Y-28250D01*
X25200Y-26975D02*
X21275Y-26975D01*
X28175Y-16625D02*
X25575Y-16625D01*
X42950Y-16050D02*
X41450Y-16050D01*
X36000Y-15825D02*
X36900Y-14925D01*
X41450Y-16050D02*
X41275Y-15875D01*
X35400Y-15825D02*
X36000Y-15825D01*
X41275Y-15325D02*
X41675Y-14925D01*
X40350Y-14925D02*
X36900Y-14925D01*
X41275Y-15875D02*
X41275Y-15325D01*
X41800Y-11800D02*
X37850Y-11800D01*
X42950Y-11050D02*
X42550Y-11050D01*
X37575Y-11525D02*
X37575Y-11125D01*
X37850Y-11800D02*
X37575Y-11525D01*
X42550Y-11050D02*
X41800Y-11800D01*
X28575Y-22275D02*
X28400Y-22450D01*
X28400Y-22450D02*
X28400Y-22975D01*
X20575Y-29250D02*
X20575Y-29675D01*
X22275Y-27550D02*
X20575Y-29250D01*
X27825Y-27550D02*
X22275Y-27550D01*
X20575Y-29675D02*
X20000Y-30250D01*
X27825Y-27550D02*
X28150Y-27225D01*
X28575Y-22275D02*
X32300Y-22275D01*
X28150Y-27225D02*
X28900Y-27225D01*
X32300Y-22275D02*
X33400Y-21175D01*
X27575Y-27200D02*
X27900Y-26875D01*
X22050Y-27200D02*
X20000Y-29250D01*
X27900Y-24650D02*
X27400Y-24150D01*
X27900Y-24650D02*
X27900Y-26875D01*
X27575Y-27200D02*
X27950Y-26825D01*
X27575Y-27200D02*
X22050Y-27200D01*
X42950Y-12050D02*
X35850Y-12050D01*
X27950Y-26825D02*
X30900Y-26825D01*
X27400Y-22975D02*
X27400Y-24150D01*
X35850Y-12050D02*
X35575Y-11775D01*
X35575Y-11775D02*
X35575Y-11125D01*
G54D47*
X11925Y-26225D02*
X15275Y-26225D01*
X32100Y-29075D02*
X31575Y-29600D01*
X31575Y-30125D02*
X31575Y-29600D01*
X34575Y-21575D02*
X34575Y-20800D01*
X32400Y-22673D02*
X33048Y-22025D01*
X10350Y-18075D02*
X10350Y-18700D01*
X15475Y-23025D02*
X15475Y-23525D01*
X15225Y-21800D02*
X15225Y-21525D01*
X18500Y-19125D02*
X18475Y-19125D01*
X15225Y-21525D02*
X14700Y-21525D01*
X33048Y-22025D02*
X34125Y-22025D01*
X23225Y-18275D02*
X22025Y-18275D01*
X11900Y-22625D02*
X12475Y-22625D01*
X13300Y-22475D02*
X12625Y-22475D01*
X32975Y-29075D02*
X32100Y-29075D01*
X36575Y-20800D02*
X34575Y-20800D01*
X24200Y-18650D02*
X23825Y-18275D01*
X14700Y-21525D02*
X14700Y-20675D01*
X34125Y-22025D02*
X34575Y-21575D01*
X40575Y-29125D02*
X41575Y-29125D01*
X15475Y-22525D02*
X15475Y-22050D01*
X24200Y-19500D02*
X24200Y-18650D01*
X15475Y-23525D02*
X15475Y-24000D01*
X21450Y-18850D02*
X21150Y-18850D01*
X11250Y-27425D02*
X11250Y-28800D01*
X35425Y-27525D02*
X41250Y-27525D01*
X20825Y-23725D02*
X20800Y-23700D01*
X21725Y-23725D02*
X20825Y-23725D01*
X17075Y-19575D02*
X17075Y-19125D01*
X18500Y-20250D02*
X18500Y-19125D01*
X14225Y-20675D02*
X13550Y-20675D01*
X10825Y-31075D02*
X10825Y-29225D01*
X14050Y-22475D02*
X14600Y-23025D01*
X41575Y-24950D02*
X41575Y-27200D01*
X41575Y-27200D02*
X41250Y-27525D01*
X11925Y-26750D02*
X11925Y-26225D01*
X15475Y-23025D02*
X14600Y-23025D01*
X33350Y-28700D02*
X32975Y-29075D01*
X15475Y-24000D02*
X15625Y-24200D01*
X22875Y-23725D02*
X21725Y-23725D01*
X12350Y-17850D02*
X10575Y-17850D01*
X14700Y-20775D02*
X14700Y-20675D01*
X11525Y-22625D02*
X11375Y-22475D01*
X19950Y-19125D02*
X20225Y-18850D01*
X21150Y-19475D02*
X21150Y-18850D01*
X14325Y-20775D02*
X14225Y-20675D01*
X18475Y-19125D02*
X17075Y-19125D01*
X22025Y-18275D02*
X21450Y-18850D01*
X15475Y-22050D02*
X15225Y-21800D01*
X10575Y-17850D02*
X10350Y-18075D01*
X23150Y-22475D02*
X23150Y-23450D01*
X32400Y-22975D02*
X32400Y-22673D01*
X19950Y-19125D02*
X18475Y-19125D01*
X14700Y-19300D02*
X14700Y-20675D01*
X11250Y-28800D02*
X10825Y-29225D01*
X11375Y-22475D02*
X10800Y-22475D01*
X11900Y-22625D02*
X11525Y-22625D01*
X23825Y-18275D02*
X23225Y-18275D01*
X11250Y-27425D02*
X11925Y-26750D01*
X21150Y-18850D02*
X20225Y-18850D01*
X23150Y-23450D02*
X22875Y-23725D01*
X15475Y-22525D02*
X15475Y-23025D01*
X39575Y-29125D02*
X40575Y-29125D01*
X12475Y-22625D02*
X12625Y-22475D01*
X13550Y-20675D02*
X12950Y-20675D01*
X14050Y-22475D02*
X13300Y-22475D01*
X15225Y-20775D02*
X14700Y-20775D01*
X14700Y-20775D02*
X14325Y-20775D01*
X34250Y-28700D02*
X33350Y-28700D01*
X35425Y-27525D02*
X34250Y-28700D01*
G54D49*
X15659Y-14359D02*
X15500Y-14200D01*
X28975Y-13050D02*
X25250Y-13050D01*
X24950Y-12750D02*
X25250Y-13050D01*
X14750Y-15050D02*
X14225Y-15575D01*
X19750Y-12750D02*
X24950Y-12750D01*
X28975Y-13050D02*
X28975Y-11125D01*
X32975Y-13050D02*
X35525Y-13050D01*
X19550Y-12950D02*
X19750Y-12750D01*
X19550Y-13825D02*
X19550Y-12950D01*
X35525Y-13050D02*
X35825Y-13350D01*
X15500Y-14200D02*
X15500Y-13825D01*
X29425Y-13050D02*
X28975Y-13050D01*
X16100Y-14359D02*
X15659Y-14359D01*
X14975Y-13825D02*
X15500Y-13825D01*
X14750Y-14050D02*
X14750Y-15050D01*
X14750Y-14050D02*
X14975Y-13825D01*
X17325Y-16225D02*
X18150Y-16225D01*
X29975Y-11125D02*
X29975Y-13100D01*
X22850Y-25850D02*
X20400Y-25850D01*
X25400Y-17450D02*
X25400Y-17325D01*
X29625Y-13450D02*
X25925Y-13450D01*
X20550Y-14200D02*
X20550Y-13675D01*
X27400Y-25975D02*
X27400Y-25125D01*
X23725Y-24975D02*
X22850Y-25850D01*
X27250Y-24975D02*
X23725Y-24975D01*
X25925Y-13450D02*
X25225Y-13450D01*
X20400Y-25850D02*
X20000Y-26250D01*
X20550Y-13200D02*
X20775Y-12975D01*
X36075Y-17900D02*
X36325Y-18150D01*
X30075Y-17400D02*
X30250Y-17575D01*
X32450Y-18500D02*
X30425Y-18500D01*
X27400Y-25125D02*
X27250Y-24975D01*
X28575Y-17200D02*
X28775Y-17400D01*
X28775Y-17400D02*
X30075Y-17400D01*
X30425Y-18500D02*
X30250Y-18325D01*
X33050Y-17900D02*
X32450Y-18500D01*
X33050Y-17900D02*
X36075Y-17900D01*
X30250Y-18325D02*
X30250Y-17575D01*
X25525Y-17200D02*
X28575Y-17200D01*
X36950Y-18150D02*
X37075Y-18275D01*
X20775Y-12975D02*
X24750Y-12975D01*
X36325Y-18150D02*
X36950Y-18150D01*
X20550Y-13675D02*
X20550Y-13200D01*
X37075Y-18275D02*
X37075Y-19300D01*
X37075Y-19300D02*
X36575Y-19800D01*
X24750Y-12975D02*
X25225Y-13450D01*
X25400Y-17325D02*
X25525Y-17200D01*
X29975Y-13100D02*
X29625Y-13450D01*
X38400Y-22975D02*
X38400Y-24450D01*
X38400Y-22975D02*
X38400Y-19075D01*
X38175Y-24675D02*
X38400Y-24450D01*
X34125Y-24675D02*
X38175Y-24675D01*
X33900Y-24900D02*
X34125Y-24675D01*
X29575Y-27850D02*
X29575Y-30125D01*
X32950Y-17675D02*
X32775Y-17500D01*
X33900Y-24900D02*
X33900Y-27200D01*
X24350Y-16975D02*
X23800Y-17525D01*
X19250Y-18600D02*
X19775Y-18600D01*
X22775Y-16475D02*
X22775Y-14425D01*
X29350Y-16975D02*
X24350Y-16975D01*
X23800Y-17525D02*
X23225Y-17525D01*
X17775Y-18500D02*
X19150Y-18500D01*
X32950Y-17675D02*
X36350Y-17675D01*
X22775Y-16475D02*
X22775Y-16675D01*
X36350Y-17675D02*
X36575Y-17900D01*
X30075Y-16975D02*
X30600Y-17500D01*
X37400Y-17900D02*
X36575Y-17900D01*
X38125Y-18800D02*
X37575Y-18800D01*
X19150Y-18500D02*
X19250Y-18600D01*
X30000Y-27425D02*
X29575Y-27850D01*
X23225Y-17125D02*
X23225Y-17525D01*
X30000Y-27425D02*
X33675Y-27425D01*
X22775Y-16675D02*
X23225Y-17125D01*
X30600Y-17500D02*
X32775Y-17500D01*
X32950Y-14850D02*
X34875Y-14850D01*
X37575Y-18800D02*
X37575Y-18075D01*
X38400Y-19075D02*
X38125Y-18800D01*
X33900Y-27200D02*
X33675Y-27425D01*
X37575Y-18075D02*
X37400Y-17900D01*
X29350Y-16975D02*
X30075Y-16975D01*
X41350Y-10200D02*
X22350Y-10200D01*
X41575Y-10425D02*
X41575Y-11125D01*
X40175Y-12525D02*
X41075Y-12525D01*
X22350Y-10200D02*
X22200Y-10350D01*
X41350Y-10200D02*
X41575Y-10425D01*
G54D47*
X11600Y-18450D02*
X12625Y-18450D01*
X11200Y-16725D02*
X11050Y-16575D01*
X12950Y-18125D02*
X12950Y-17000D01*
X12350Y-20175D02*
X11575Y-20175D01*
X11575Y-20175D02*
X11325Y-19925D01*
X12950Y-17000D02*
X12675Y-16725D01*
X10150Y-12225D02*
X10150Y-11450D01*
X11325Y-19925D02*
X11325Y-18725D01*
X10150Y-11450D02*
X10700Y-10900D01*
X12950Y-20175D02*
X12350Y-20175D01*
X12675Y-16725D02*
X11200Y-16725D01*
X11050Y-16000D02*
X11050Y-16575D01*
X11325Y-18725D02*
X11600Y-18450D01*
X10300Y-12375D02*
X10300Y-15250D01*
X10300Y-15250D02*
X11050Y-16000D01*
X12625Y-18450D02*
X12950Y-18125D01*
X10150Y-12225D02*
X10300Y-12375D01*
G54D49*
X27975Y-12425D02*
X27975Y-11125D01*
X35175Y-19300D02*
X35400Y-19525D01*
X33275Y-19300D02*
X35175Y-19300D01*
X29325Y-17925D02*
X29700Y-18300D01*
X32875Y-20325D02*
X32875Y-19700D01*
X25325Y-12700D02*
X27700Y-12700D01*
X32875Y-19700D02*
X33275Y-19300D01*
X35400Y-20125D02*
X35575Y-20300D01*
X18200Y-12525D02*
X18000Y-12725D01*
X35400Y-19525D02*
X35400Y-20125D01*
X27700Y-12700D02*
X27975Y-12425D01*
X20000Y-20250D02*
X20000Y-19575D01*
X18200Y-12525D02*
X25150Y-12525D01*
X37075Y-20300D02*
X35575Y-20300D01*
X18000Y-13150D02*
X18000Y-14725D01*
X18000Y-12725D02*
X18000Y-13150D01*
X25150Y-12525D02*
X25325Y-12700D01*
X27925Y-20700D02*
X27925Y-20350D01*
X23375Y-20950D02*
X27675Y-20950D01*
X37075Y-20300D02*
X37575Y-19800D01*
X27275Y-17925D02*
X29325Y-17925D01*
X17325Y-14725D02*
X18000Y-14725D01*
X27675Y-20950D02*
X27925Y-20700D01*
X18000Y-15250D02*
X18000Y-14725D01*
X23175Y-11400D02*
X15400Y-11400D01*
X15200Y-11600D02*
X15400Y-11400D01*
X15200Y-12275D02*
X15200Y-11600D01*
X34925Y-13500D02*
X30050Y-13500D01*
X14950Y-12525D02*
X15200Y-12275D01*
X30050Y-13500D02*
X29250Y-14300D01*
X29250Y-14300D02*
X25275Y-14300D01*
X23175Y-11400D02*
X23450Y-11125D01*
X10900Y-15200D02*
X10600Y-14900D01*
X14950Y-12525D02*
X11275Y-12525D01*
X23450Y-11125D02*
X23975Y-11125D01*
X23850Y-13700D02*
X21450Y-13700D01*
X24450Y-14300D02*
X23850Y-13700D01*
X21275Y-13875D02*
X21275Y-15375D01*
X13225Y-15200D02*
X10900Y-15200D01*
X10600Y-14900D02*
X10600Y-13200D01*
X11275Y-12525D02*
X10600Y-13200D01*
X21450Y-13700D02*
X21275Y-13875D01*
X25275Y-14300D02*
X24450Y-14300D01*
X37400Y-25975D02*
X37400Y-26725D01*
X37200Y-26925D02*
X35052Y-26925D01*
X37400Y-26725D02*
X37200Y-26925D01*
X24975Y-11125D02*
X24975Y-11875D01*
X24450Y-13325D02*
X20950Y-13325D01*
X30575Y-27650D02*
X34327Y-27650D01*
X24450Y-12075D02*
X24775Y-12075D01*
X24775Y-12075D02*
X24975Y-11875D01*
X30575Y-27650D02*
X30450Y-27775D01*
X35052Y-26925D02*
X34900Y-27077D01*
X30450Y-27775D02*
X30450Y-28150D01*
X34900Y-27077D02*
X34327Y-27650D01*
X16100Y-15225D02*
X17325Y-15225D01*
X15475Y-16650D02*
X15475Y-17575D01*
X16100Y-16524D02*
X15601Y-16524D01*
X17525Y-17675D02*
X18425Y-17675D01*
X15475Y-17575D02*
X15025Y-18025D01*
X15601Y-16524D02*
X15475Y-16650D01*
X18875Y-17225D02*
X19425Y-17225D01*
X18425Y-17675D02*
X18875Y-17225D01*
X16825Y-16725D02*
X16725Y-16625D01*
X16725Y-16175D02*
X16641Y-16091D01*
X16641Y-16091D02*
X16100Y-16091D01*
X16725Y-16625D02*
X16725Y-16175D01*
X17325Y-16725D02*
X16825Y-16725D01*
X22675Y-26400D02*
X20850Y-26400D01*
X27825Y-16275D02*
X25100Y-16275D01*
X20550Y-17525D02*
X21300Y-17525D01*
X26275Y-25225D02*
X23850Y-25225D01*
X19425Y-16725D02*
X19750Y-16725D01*
X26400Y-25975D02*
X26400Y-25350D01*
X23850Y-25225D02*
X22675Y-26400D01*
X20850Y-26400D02*
X20000Y-27250D01*
X26400Y-25350D02*
X26275Y-25225D01*
X19750Y-16725D02*
X20550Y-17525D01*
X19725Y-22825D02*
X20700Y-22825D01*
X19500Y-22600D02*
X19725Y-22825D01*
X20875Y-22650D02*
X20700Y-22825D01*
X19500Y-22150D02*
X19500Y-22600D01*
X20875Y-22300D02*
X21850Y-22300D01*
X20875Y-22300D02*
X20875Y-22650D01*
X17825Y-19575D02*
X17825Y-19850D01*
X18500Y-22150D02*
X18500Y-21300D01*
X17825Y-19850D02*
X18025Y-20050D01*
X18025Y-20825D02*
X18025Y-20050D01*
X18500Y-21300D02*
X18025Y-20825D01*
G54D47*
X15700Y-26975D02*
X15500Y-27175D01*
X16650Y-26750D02*
X16425Y-26975D01*
X16650Y-26350D02*
X16650Y-26750D01*
X15500Y-27175D02*
X15500Y-28450D01*
X16425Y-26975D02*
X15700Y-26975D01*
X25275Y-15300D02*
X30250Y-15300D01*
X30450Y-15500D02*
X30250Y-15300D01*
X35750Y-15300D02*
X32650Y-15300D01*
X35900Y-15150D02*
X35900Y-14700D01*
X36200Y-14400D02*
X38975Y-14400D01*
X32450Y-15500D02*
X30450Y-15500D01*
X35750Y-15300D02*
X35900Y-15150D01*
X16975Y-20525D02*
X17450Y-20525D01*
X38975Y-14400D02*
X39575Y-13800D01*
X32650Y-15300D02*
X32450Y-15500D01*
X36200Y-14400D02*
X35900Y-14700D01*
X13800Y-27225D02*
X13625Y-27050D01*
X12400Y-27050D02*
X12050Y-27400D01*
X12050Y-29475D02*
X12325Y-29750D01*
X12050Y-27400D02*
X12050Y-29475D01*
X13625Y-27050D02*
X12400Y-27050D01*
X12325Y-29750D02*
X12325Y-31075D01*
X11925Y-24000D02*
X12525Y-24600D01*
X24225Y-22475D02*
X23725Y-22475D01*
X14750Y-24600D02*
X12525Y-24600D01*
X11900Y-23375D02*
X10800Y-23375D01*
X10800Y-23775D02*
X11025Y-24000D01*
X15025Y-25425D02*
X16650Y-25425D01*
X16650Y-25425D02*
X16650Y-24250D01*
X20875Y-21550D02*
X20400Y-21550D01*
X10800Y-23375D02*
X10800Y-23775D01*
X15025Y-24875D02*
X14750Y-24600D01*
X15025Y-25425D02*
X15025Y-24875D01*
X11025Y-24000D02*
X11925Y-24000D01*
X24625Y-24500D02*
X24625Y-22875D01*
X24625Y-22875D02*
X24225Y-22475D01*
X26850Y-30725D02*
X26850Y-28475D01*
X34575Y-30500D02*
X34575Y-30125D01*
X33975Y-31100D02*
X27225Y-31100D01*
X27225Y-31100D02*
X26850Y-30725D01*
X34575Y-30500D02*
X33975Y-31100D01*
X37025Y-16625D02*
X33000Y-16625D01*
X30000Y-15875D02*
X30625Y-16500D01*
X23350Y-15875D02*
X30000Y-15875D01*
X30625Y-16500D02*
X32875Y-16500D01*
X33000Y-16625D02*
X32875Y-16500D01*
G54D49*
X32900Y-24550D02*
X33100Y-24350D01*
X20850Y-29624D02*
X20850Y-30400D01*
X20850Y-30400D02*
X20000Y-31250D01*
X22549Y-27925D02*
X20850Y-29624D01*
X29600Y-27200D02*
X28875Y-27925D01*
X32750Y-27200D02*
X29600Y-27200D01*
X32900Y-24550D02*
X32900Y-27050D01*
X34225Y-24350D02*
X34400Y-24175D01*
X34400Y-22975D02*
X34400Y-24175D01*
X33100Y-24350D02*
X34225Y-24350D01*
X32750Y-27200D02*
X32900Y-27050D01*
X28875Y-27925D02*
X22549Y-27925D01*
X35925Y-13800D02*
X35675Y-14050D01*
X35675Y-14050D02*
X34875Y-14050D01*
X36575Y-13800D02*
X35925Y-13800D01*
G54D47*
X35325Y-28125D02*
X34400Y-29050D01*
X34400Y-29050D02*
X33850Y-29050D01*
X33850Y-29050D02*
X33575Y-29325D01*
X25950Y-30200D02*
X25950Y-29725D01*
X42950Y-13050D02*
X42325Y-13050D01*
X42325Y-13050D02*
X41575Y-13800D01*
X22600Y-22025D02*
X25125Y-22025D01*
X16100Y-14792D02*
X16508Y-14792D01*
X17325Y-17225D02*
X18375Y-17225D01*
X23225Y-20350D02*
X22600Y-20975D01*
X25450Y-21700D02*
X26550Y-21700D01*
X21850Y-21550D02*
X21850Y-20975D01*
X15225Y-21150D02*
X15625Y-21150D01*
X16508Y-14792D02*
X16692Y-14608D01*
X26550Y-21700D02*
X28001Y-21700D01*
X16600Y-23025D02*
X16275Y-23025D01*
X21275Y-16475D02*
X21100Y-16650D01*
X14100Y-13099D02*
X14100Y-14500D01*
X22600Y-20975D02*
X21900Y-20975D01*
X29325Y-21525D02*
X29300Y-21525D01*
X19800Y-16225D02*
X19425Y-16225D01*
X15946Y-18840D02*
X15475Y-18840D01*
X23225Y-20275D02*
X23225Y-20350D01*
X17400Y-22325D02*
X17400Y-23025D01*
X13550Y-25425D02*
X13225Y-25450D01*
X20375Y-20975D02*
X21150Y-20975D01*
X33575Y-29325D02*
X33575Y-30125D01*
X31250Y-28125D02*
X30075Y-29300D01*
X28001Y-21700D02*
X28176Y-21525D01*
X22600Y-22025D02*
X22600Y-20975D01*
X14550Y-16250D02*
X15200Y-15600D01*
X15946Y-17579D02*
X16075Y-17450D01*
X14100Y-18325D02*
X13350Y-18325D01*
X13650Y-14950D02*
X14100Y-14500D01*
X14676Y-13099D02*
X14812Y-12963D01*
X10800Y-21575D02*
X12025Y-21575D01*
X29325Y-19500D02*
X29325Y-21525D01*
X15750Y-20575D02*
X15475Y-20300D01*
X37575Y-28125D02*
X38575Y-28125D01*
X20000Y-22150D02*
X20000Y-21350D01*
X15200Y-15150D02*
X15200Y-15600D01*
X15475Y-20300D02*
X15475Y-19875D01*
X31400Y-24025D02*
X31400Y-22975D01*
X32400Y-28125D02*
X31250Y-28125D01*
X38575Y-28125D02*
X39575Y-28125D01*
X18000Y-24250D02*
X18000Y-23375D01*
X40575Y-28125D02*
X41575Y-28125D01*
X29325Y-18775D02*
X29325Y-19500D01*
X26175Y-19475D02*
X26175Y-19000D01*
X33675Y-18200D02*
X32375Y-19500D01*
X18000Y-30250D02*
X18000Y-31250D01*
X16100Y-14792D02*
X15558Y-14792D01*
X16275Y-22525D02*
X16275Y-23025D01*
X11925Y-25425D02*
X13550Y-25425D01*
X14100Y-13099D02*
X14676Y-13099D01*
X12025Y-21575D02*
X12300Y-21300D01*
X11375Y-25425D02*
X11100Y-25700D01*
X15750Y-21025D02*
X15750Y-20575D01*
X32375Y-19500D02*
X29325Y-19500D01*
X15558Y-14792D02*
X15200Y-15150D01*
X25450Y-21700D02*
X25125Y-22025D01*
X14812Y-12963D02*
X15864Y-12963D01*
X12713Y-19162D02*
X12016Y-19162D01*
X17325Y-15725D02*
X18375Y-15725D01*
X20225Y-16650D02*
X19800Y-16225D01*
X17400Y-23025D02*
X17375Y-23025D01*
X22075Y-16475D02*
X21275Y-16475D01*
X12016Y-13099D02*
X14100Y-13099D01*
X36575Y-28125D02*
X35325Y-28125D01*
X15625Y-21150D02*
X15750Y-21025D01*
X22075Y-14425D02*
X22075Y-16475D01*
X21100Y-16650D02*
X20550Y-16650D01*
X14100Y-18840D02*
X14350Y-18840D01*
X18600Y-17000D02*
X18600Y-16225D01*
X13850Y-16250D02*
X14100Y-16250D01*
X39575Y-28125D02*
X40575Y-28125D01*
X11100Y-25700D02*
X10575Y-25700D01*
X21150Y-20975D02*
X21900Y-20975D01*
X13650Y-14950D02*
X13650Y-16050D01*
X36575Y-28125D02*
X37575Y-28125D01*
X11925Y-25425D02*
X11375Y-25425D01*
X16750Y-17225D02*
X16525Y-17450D01*
X17325Y-17225D02*
X16750Y-17225D01*
X29300Y-21525D02*
X28176Y-21525D01*
X25950Y-29725D02*
X25725Y-29500D01*
X20000Y-21350D02*
X20375Y-20975D01*
X36575Y-18800D02*
X35475Y-18800D01*
X21150Y-20275D02*
X21150Y-20975D01*
X13650Y-16050D02*
X13850Y-16250D01*
X13035Y-18840D02*
X12713Y-19162D01*
X11050Y-13475D02*
X11050Y-14125D01*
X33675Y-18200D02*
X34875Y-18200D01*
X15475Y-18840D02*
X14350Y-18840D01*
X15475Y-19875D02*
X15475Y-18840D01*
X16600Y-23025D02*
X17375Y-23025D01*
X16275Y-23025D02*
X16275Y-23525D01*
X18600Y-16225D02*
X18600Y-15950D01*
X32400Y-25025D02*
X31400Y-24025D01*
X14100Y-16250D02*
X14550Y-16250D01*
X18600Y-16225D02*
X19425Y-16225D01*
X14100Y-18325D02*
X14100Y-18840D01*
X14100Y-16250D02*
X14100Y-18325D01*
X16075Y-17450D02*
X16525Y-17450D01*
X30550Y-21525D02*
X29300Y-21525D01*
X16692Y-14458D02*
X16692Y-14608D01*
X32400Y-25975D02*
X32400Y-25025D01*
X20550Y-16650D02*
X20225Y-16650D01*
X18000Y-23375D02*
X17650Y-23025D01*
X18375Y-17225D02*
X18600Y-17000D01*
X12016Y-13099D02*
X11426Y-13099D01*
X11426Y-13099D02*
X11050Y-13475D01*
X21850Y-20975D02*
X21900Y-20975D01*
X18375Y-15725D02*
X18600Y-15950D01*
X14350Y-18840D02*
X13035Y-18840D01*
X15946Y-18840D02*
X15946Y-17579D01*
X29325Y-18775D02*
X26400Y-18775D01*
X17375Y-23025D02*
X17650Y-23025D01*
X16925Y-14225D02*
X16692Y-14458D01*
X17325Y-14225D02*
X16925Y-14225D01*
X26400Y-18775D02*
X26175Y-19000D01*
X35475Y-18800D02*
X34875Y-18200D01*
X25175Y-19475D02*
X26175Y-19475D01*
G54D49*
X17400Y-21525D02*
X16275Y-21525D01*
X25150Y-20250D02*
X25175Y-20275D01*
X24200Y-20250D02*
X25150Y-20250D01*
X22200Y-20250D02*
X22450Y-20250D01*
X22450Y-20250D02*
X23225Y-19475D01*
X22200Y-19500D02*
X22200Y-18725D01*
X19500Y-19575D02*
X19500Y-20250D01*
X19000Y-20250D02*
X19500Y-20250D01*
X27175Y-20250D02*
X26200Y-20250D01*
X26200Y-20250D02*
X26175Y-20275D01*
G54D10*
G36*
X15750Y-24325D02*
X15420Y-24325D01*
X15420Y-24030D01*
X15420Y-23580D01*
X15420Y-23470D01*
X15420Y-23030D01*
X15420Y-23020D01*
X15420Y-22580D01*
X15420Y-22470D01*
X15420Y-22020D01*
X15345Y-21945D01*
X15205Y-21944D01*
X15095Y-21990D01*
X15010Y-22074D01*
X14965Y-22185D01*
X14964Y-22304D01*
X14965Y-22395D01*
X15040Y-22470D01*
X15420Y-22470D01*
X15420Y-22580D01*
X15040Y-22580D01*
X14965Y-22655D01*
X14964Y-22745D01*
X14965Y-22864D01*
X15010Y-22975D01*
X15060Y-23025D01*
X15010Y-23074D01*
X14965Y-23185D01*
X14964Y-23304D01*
X14965Y-23395D01*
X15040Y-23470D01*
X15420Y-23470D01*
X15420Y-23580D01*
X15040Y-23580D01*
X14965Y-23655D01*
X14964Y-23745D01*
X14965Y-23864D01*
X15010Y-23975D01*
X15095Y-24059D01*
X15205Y-24105D01*
X15345Y-24105D01*
X15420Y-24030D01*
X15420Y-24325D01*
X14956Y-24325D01*
X14883Y-24276D01*
X14750Y-24250D01*
X14182Y-24250D01*
X14182Y-20799D01*
X14182Y-20550D01*
X14107Y-20395D01*
X13973Y-20280D01*
X13805Y-20225D01*
X13605Y-20225D01*
X13605Y-20620D01*
X14120Y-20620D01*
X14182Y-20550D01*
X14182Y-20799D01*
X14120Y-20730D01*
X13605Y-20730D01*
X13605Y-21125D01*
X13805Y-21125D01*
X13973Y-21069D01*
X14107Y-20954D01*
X14182Y-20799D01*
X14182Y-24250D01*
X14000Y-24250D01*
X14000Y-23284D01*
X14000Y-21665D01*
X13954Y-21555D01*
X13870Y-21470D01*
X13759Y-21425D01*
X13640Y-21424D01*
X13495Y-21424D01*
X13495Y-21125D01*
X13495Y-20730D01*
X13325Y-20730D01*
X13005Y-20730D01*
X12979Y-20730D01*
X12917Y-20799D01*
X12992Y-20954D01*
X13005Y-20964D01*
X13005Y-21050D01*
X13080Y-21125D01*
X13040Y-21125D01*
X13159Y-21124D01*
X13219Y-21100D01*
X13295Y-21125D01*
X13495Y-21125D01*
X13495Y-21424D01*
X13430Y-21425D01*
X13355Y-21500D01*
X13355Y-22420D01*
X13925Y-22420D01*
X14000Y-22345D01*
X14000Y-21665D01*
X14000Y-23284D01*
X14000Y-22605D01*
X13925Y-22530D01*
X13355Y-22530D01*
X13355Y-23450D01*
X13430Y-23525D01*
X13640Y-23525D01*
X13759Y-23524D01*
X13870Y-23479D01*
X13954Y-23394D01*
X14000Y-23284D01*
X14000Y-24250D01*
X13245Y-24250D01*
X13245Y-23450D01*
X13245Y-22530D01*
X12675Y-22530D01*
X12600Y-22605D01*
X12599Y-23284D01*
X12645Y-23394D01*
X12729Y-23479D01*
X12840Y-23524D01*
X12959Y-23525D01*
X13170Y-23525D01*
X13245Y-23450D01*
X13245Y-24250D01*
X12669Y-24250D01*
X12284Y-23864D01*
X12336Y-23843D01*
X12406Y-23772D01*
X12444Y-23680D01*
X12445Y-23581D01*
X12445Y-23069D01*
X12440Y-23059D01*
X12449Y-23050D01*
X12495Y-22940D01*
X12495Y-22309D01*
X12449Y-22199D01*
X12365Y-22114D01*
X12254Y-22069D01*
X12135Y-22068D01*
X12030Y-22069D01*
X11955Y-22144D01*
X11955Y-22570D01*
X12420Y-22570D01*
X12495Y-22495D01*
X12495Y-22309D01*
X12495Y-22940D01*
X12495Y-22755D01*
X12420Y-22680D01*
X11955Y-22680D01*
X11955Y-22687D01*
X11845Y-22687D01*
X11845Y-22680D01*
X11837Y-22680D01*
X11837Y-22570D01*
X11845Y-22570D01*
X11845Y-22144D01*
X11770Y-22069D01*
X11664Y-22068D01*
X11545Y-22069D01*
X11490Y-22091D01*
X11454Y-22005D01*
X11427Y-21978D01*
X11449Y-21925D01*
X12025Y-21925D01*
X12158Y-21898D01*
X12158Y-21898D01*
X12272Y-21822D01*
X12369Y-21725D01*
X12384Y-21725D01*
X12540Y-21660D01*
X12645Y-21555D01*
X12599Y-21665D01*
X12600Y-22345D01*
X12675Y-22420D01*
X13245Y-22420D01*
X13245Y-21500D01*
X13170Y-21425D01*
X12959Y-21424D01*
X12840Y-21425D01*
X12729Y-21470D01*
X12660Y-21540D01*
X12724Y-21384D01*
X12725Y-21215D01*
X12676Y-21098D01*
X12740Y-21124D01*
X12859Y-21125D01*
X12820Y-21125D01*
X12895Y-21050D01*
X12895Y-20730D01*
X12575Y-20730D01*
X12500Y-20805D01*
X12499Y-20884D01*
X12519Y-20930D01*
X12384Y-20875D01*
X12215Y-20874D01*
X12059Y-20939D01*
X11939Y-21058D01*
X11875Y-21215D01*
X11875Y-21225D01*
X11449Y-21225D01*
X11412Y-21133D01*
X11350Y-21071D01*
X11350Y-20575D01*
X12138Y-20575D01*
X12530Y-20575D01*
X12575Y-20620D01*
X12895Y-20620D01*
X12895Y-20612D01*
X12972Y-20612D01*
X12979Y-20620D01*
X13005Y-20620D01*
X13325Y-20620D01*
X13495Y-20620D01*
X13495Y-20225D01*
X13350Y-20225D01*
X13350Y-20075D01*
X13761Y-20075D01*
X13914Y-20044D01*
X14044Y-19957D01*
X14131Y-19828D01*
X14161Y-19675D01*
X14131Y-19521D01*
X14044Y-19392D01*
X13914Y-19305D01*
X13761Y-19275D01*
X13338Y-19275D01*
X13250Y-19292D01*
X13250Y-19190D01*
X14100Y-19190D01*
X14350Y-19190D01*
X14900Y-19190D01*
X14900Y-20375D01*
X14834Y-20402D01*
X14750Y-20487D01*
X14704Y-20597D01*
X14705Y-20645D01*
X14780Y-20720D01*
X14900Y-20720D01*
X14900Y-20804D01*
X14863Y-20819D01*
X14853Y-20830D01*
X14780Y-20830D01*
X14705Y-20905D01*
X14704Y-20952D01*
X14750Y-21062D01*
X14754Y-21067D01*
X14754Y-21081D01*
X14754Y-21232D01*
X14750Y-21237D01*
X14704Y-21347D01*
X14705Y-21395D01*
X14780Y-21470D01*
X14853Y-21470D01*
X14863Y-21479D01*
X14900Y-21495D01*
X14900Y-21580D01*
X14780Y-21580D01*
X14705Y-21655D01*
X14704Y-21702D01*
X14750Y-21812D01*
X14834Y-21897D01*
X14945Y-21942D01*
X15064Y-21943D01*
X15095Y-21943D01*
X15170Y-21868D01*
X15170Y-21750D01*
X15280Y-21750D01*
X15280Y-21868D01*
X15355Y-21943D01*
X15385Y-21943D01*
X15504Y-21942D01*
X15615Y-21897D01*
X15699Y-21812D01*
X15725Y-21750D01*
X15750Y-21750D01*
X15750Y-21947D01*
X15744Y-21944D01*
X15605Y-21945D01*
X15530Y-22020D01*
X15530Y-22470D01*
X15537Y-22470D01*
X15537Y-22580D01*
X15530Y-22580D01*
X15530Y-23020D01*
X15530Y-23030D01*
X15530Y-23470D01*
X15537Y-23470D01*
X15537Y-23580D01*
X15530Y-23580D01*
X15530Y-24030D01*
X15605Y-24105D01*
X15744Y-24105D01*
X15750Y-24102D01*
X15750Y-24325D01*
X15750Y-24325D01*
G37*
G54D49*
X15750Y-24325D02*
X15420Y-24325D01*
X15420Y-24030D01*
X15420Y-23580D01*
X15420Y-23470D01*
X15420Y-23030D01*
X15420Y-23020D01*
X15420Y-22580D01*
X15420Y-22470D01*
X15420Y-22020D01*
X15345Y-21945D01*
X15205Y-21944D01*
X15095Y-21990D01*
X15010Y-22074D01*
X14965Y-22185D01*
X14964Y-22304D01*
X14965Y-22395D01*
X15040Y-22470D01*
X15420Y-22470D01*
X15420Y-22580D01*
X15040Y-22580D01*
X14965Y-22655D01*
X14964Y-22745D01*
X14965Y-22864D01*
X15010Y-22975D01*
X15060Y-23025D01*
X15010Y-23074D01*
X14965Y-23185D01*
X14964Y-23304D01*
X14965Y-23395D01*
X15040Y-23470D01*
X15420Y-23470D01*
X15420Y-23580D01*
X15040Y-23580D01*
X14965Y-23655D01*
X14964Y-23745D01*
X14965Y-23864D01*
X15010Y-23975D01*
X15095Y-24059D01*
X15205Y-24105D01*
X15345Y-24105D01*
X15420Y-24030D01*
X15420Y-24325D01*
X14956Y-24325D01*
X14883Y-24276D01*
X14750Y-24250D01*
X14182Y-24250D01*
X14182Y-20799D01*
X14182Y-20550D01*
X14107Y-20395D01*
X13973Y-20280D01*
X13805Y-20225D01*
X13605Y-20225D01*
X13605Y-20620D01*
X14120Y-20620D01*
X14182Y-20550D01*
X14182Y-20799D01*
X14120Y-20730D01*
X13605Y-20730D01*
X13605Y-21125D01*
X13805Y-21125D01*
X13973Y-21069D01*
X14107Y-20954D01*
X14182Y-20799D01*
X14182Y-24250D01*
X14000Y-24250D01*
X14000Y-23284D01*
X14000Y-21665D01*
X13954Y-21555D01*
X13870Y-21470D01*
X13759Y-21425D01*
X13640Y-21424D01*
X13495Y-21424D01*
X13495Y-21125D01*
X13495Y-20730D01*
X13325Y-20730D01*
X13005Y-20730D01*
X12979Y-20730D01*
X12917Y-20799D01*
X12992Y-20954D01*
X13005Y-20964D01*
X13005Y-21050D01*
X13080Y-21125D01*
X13040Y-21125D01*
X13159Y-21124D01*
X13219Y-21100D01*
X13295Y-21125D01*
X13495Y-21125D01*
X13495Y-21424D01*
X13430Y-21425D01*
X13355Y-21500D01*
X13355Y-22420D01*
X13925Y-22420D01*
X14000Y-22345D01*
X14000Y-21665D01*
X14000Y-23284D01*
X14000Y-22605D01*
X13925Y-22530D01*
X13355Y-22530D01*
X13355Y-23450D01*
X13430Y-23525D01*
X13640Y-23525D01*
X13759Y-23524D01*
X13870Y-23479D01*
X13954Y-23394D01*
X14000Y-23284D01*
X14000Y-24250D01*
X13245Y-24250D01*
X13245Y-23450D01*
X13245Y-22530D01*
X12675Y-22530D01*
X12600Y-22605D01*
X12599Y-23284D01*
X12645Y-23394D01*
X12729Y-23479D01*
X12840Y-23524D01*
X12959Y-23525D01*
X13170Y-23525D01*
X13245Y-23450D01*
X13245Y-24250D01*
X12669Y-24250D01*
X12284Y-23864D01*
X12336Y-23843D01*
X12406Y-23772D01*
X12444Y-23680D01*
X12445Y-23581D01*
X12445Y-23069D01*
X12440Y-23059D01*
X12449Y-23050D01*
X12495Y-22940D01*
X12495Y-22309D01*
X12449Y-22199D01*
X12365Y-22114D01*
X12254Y-22069D01*
X12135Y-22068D01*
X12030Y-22069D01*
X11955Y-22144D01*
X11955Y-22570D01*
X12420Y-22570D01*
X12495Y-22495D01*
X12495Y-22309D01*
X12495Y-22940D01*
X12495Y-22755D01*
X12420Y-22680D01*
X11955Y-22680D01*
X11955Y-22687D01*
X11845Y-22687D01*
X11845Y-22680D01*
X11837Y-22680D01*
X11837Y-22570D01*
X11845Y-22570D01*
X11845Y-22144D01*
X11770Y-22069D01*
X11664Y-22068D01*
X11545Y-22069D01*
X11490Y-22091D01*
X11454Y-22005D01*
X11427Y-21978D01*
X11449Y-21925D01*
X12025Y-21925D01*
X12158Y-21898D01*
X12158Y-21898D01*
X12272Y-21822D01*
X12369Y-21725D01*
X12384Y-21725D01*
X12540Y-21660D01*
X12645Y-21555D01*
X12599Y-21665D01*
X12600Y-22345D01*
X12675Y-22420D01*
X13245Y-22420D01*
X13245Y-21500D01*
X13170Y-21425D01*
X12959Y-21424D01*
X12840Y-21425D01*
X12729Y-21470D01*
X12660Y-21540D01*
X12724Y-21384D01*
X12725Y-21215D01*
X12676Y-21098D01*
X12740Y-21124D01*
X12859Y-21125D01*
X12820Y-21125D01*
X12895Y-21050D01*
X12895Y-20730D01*
X12575Y-20730D01*
X12500Y-20805D01*
X12499Y-20884D01*
X12519Y-20930D01*
X12384Y-20875D01*
X12215Y-20874D01*
X12059Y-20939D01*
X11939Y-21058D01*
X11875Y-21215D01*
X11875Y-21225D01*
X11449Y-21225D01*
X11412Y-21133D01*
X11350Y-21071D01*
X11350Y-20575D01*
X12138Y-20575D01*
X12530Y-20575D01*
X12575Y-20620D01*
X12895Y-20620D01*
X12895Y-20612D01*
X12972Y-20612D01*
X12979Y-20620D01*
X13005Y-20620D01*
X13325Y-20620D01*
X13495Y-20620D01*
X13495Y-20225D01*
X13350Y-20225D01*
X13350Y-20075D01*
X13761Y-20075D01*
X13914Y-20044D01*
X14044Y-19957D01*
X14131Y-19828D01*
X14161Y-19675D01*
X14131Y-19521D01*
X14044Y-19392D01*
X13914Y-19305D01*
X13761Y-19275D01*
X13338Y-19275D01*
X13250Y-19292D01*
X13250Y-19190D01*
X14100Y-19190D01*
X14350Y-19190D01*
X14900Y-19190D01*
X14900Y-20375D01*
X14834Y-20402D01*
X14750Y-20487D01*
X14704Y-20597D01*
X14705Y-20645D01*
X14780Y-20720D01*
X14900Y-20720D01*
X14900Y-20804D01*
X14863Y-20819D01*
X14853Y-20830D01*
X14780Y-20830D01*
X14705Y-20905D01*
X14704Y-20952D01*
X14750Y-21062D01*
X14754Y-21067D01*
X14754Y-21081D01*
X14754Y-21232D01*
X14750Y-21237D01*
X14704Y-21347D01*
X14705Y-21395D01*
X14780Y-21470D01*
X14853Y-21470D01*
X14863Y-21479D01*
X14900Y-21495D01*
X14900Y-21580D01*
X14780Y-21580D01*
X14705Y-21655D01*
X14704Y-21702D01*
X14750Y-21812D01*
X14834Y-21897D01*
X14945Y-21942D01*
X15064Y-21943D01*
X15095Y-21943D01*
X15170Y-21868D01*
X15170Y-21750D01*
X15280Y-21750D01*
X15280Y-21868D01*
X15355Y-21943D01*
X15385Y-21943D01*
X15504Y-21942D01*
X15615Y-21897D01*
X15699Y-21812D01*
X15725Y-21750D01*
X15750Y-21750D01*
X15750Y-21947D01*
X15744Y-21944D01*
X15605Y-21945D01*
X15530Y-22020D01*
X15530Y-22470D01*
X15537Y-22470D01*
X15537Y-22580D01*
X15530Y-22580D01*
X15530Y-23020D01*
X15530Y-23030D01*
X15530Y-23470D01*
X15537Y-23470D01*
X15537Y-23580D01*
X15530Y-23580D01*
X15530Y-24030D01*
X15605Y-24105D01*
X15744Y-24105D01*
X15750Y-24102D01*
X15750Y-24325D01*
M02*
