<?xml version="1.0" standalone="no"?>
 <!DOCTYPE svg PUBLIC "-//W3C//DTD SVG 1.1//EN" 
 "http://www.w3.org/Graphics/SVG/1.1/DTD/svg11.dtd"> 
<svg xmlns="http://www.w3.org/2000/svg" version="1.1" 
    width="10.0127cm" height="8.1788cm" viewBox="0 0 39420 32200 ">
<title>SVG Picture created as aLaMode_v3--brd.svg date 2013/12/11 20:36:59 </title>
  <desc>Picture generated by PCBNEW </desc>
<g style="fill:#000000; fill-opacity:1;stroke:#000000; stroke-opacity:1;
stroke-linecap:round; stroke-linejoin:round; "
 transform="translate(0 0) scale(1 1)">
</g>
<g style="fill:#840084; fill-opacity:0.0; 
stroke:#840084; stroke-width:100; stroke-opacity:1; 
stroke-linecap:round; stroke-linejoin:round;">
<path d="M19151 31481
L19460 31481
L19294 31671
L19365 31671
L19413 31695
L19437 31719
L19460 31766
L19460 31885
L19437 31933
L19413 31957
L19365 31981
L19222 31981
L19175 31957
L19151 31933
" />
<path d="M19675 31933
L19699 31957
L19675 31981
L19651 31957
L19675 31933
L19675 31981
" />
<path d="M19865 31481
L20175 31481
L20008 31671
L20080 31671
L20127 31695
L20151 31719
L20175 31766
L20175 31885
L20151 31933
L20127 31957
L20080 31981
L19937 31981
L19889 31957
L19865 31933
" />
<path d="M20627 31481
L20389 31481
L20365 31719
L20389 31695
L20437 31671
L20556 31671
L20603 31695
L20627 31719
L20651 31766
L20651 31885
L20627 31933
L20603 31957
L20556 31981
L20437 31981
L20389 31957
L20365 31933
" />
<path d="M20960 31481
L21008 31481
L21056 31505
L21080 31528
L21103 31576
L21127 31671
L21127 31790
L21103 31885
L21080 31933
L21056 31957
L21008 31981
L20960 31981
L20913 31957
L20889 31933
L20865 31885
L20841 31790
L20841 31671
L20865 31576
L20889 31528
L20913 31505
L20960 31481
" />
<path d="M21437 31481
L21484 31481
L21532 31505
L21556 31528
L21580 31576
L21603 31671
L21603 31790
L21580 31885
L21556 31933
L21532 31957
L21484 31981
L21437 31981
L21389 31957
L21365 31933
L21341 31885
L21318 31790
L21318 31671
L21341 31576
L21365 31528
L21389 31505
L21437 31481
" />
<path d="M22199 31981
L22199 31647
" />
<path d="M22199 31481
L22175 31505
L22199 31528
L22222 31505
L22199 31481
L22199 31528
" />
<path d="M22437 31647
L22437 31981
" />
<path d="M22437 31695
L22460 31671
L22508 31647
L22580 31647
L22627 31671
L22651 31719
L22651 31981
" />
<path d="M4175 31305
L37675 31305
" />
<path d="M4175 26585
L4175 32205
" />
<path d="M37675 26585
L37675 32205
" />
<path d="M37675 31305
L37231 31535
" />
<path d="M37675 31305
L37231 31074
" />
<path d="M4175 31305
L4618 31535
" />
<path d="M4175 31305
L4618 31074
" />
<path d="M2121 13835
L2145 13858
L2169 13906
L2169 14025
L2145 14073
L2121 14096
L2073 14120
L2026 14120
L1954 14096
L1669 13811
L1669 14120
" />
<path d="M1716 14335
L1692 14358
L1669 14335
L1692 14311
L1716 14335
L1669 14335
" />
<path d="M2121 14549
L2145 14573
L2169 14620
L2169 14739
L2145 14787
L2121 14811
L2073 14835
L2026 14835
L1954 14811
L1669 14525
L1669 14835
" />
<path d="M2169 15144
L2169 15192
L2145 15239
L2121 15263
L2073 15287
L1978 15311
L1859 15311
L1764 15287
L1716 15263
L1692 15239
L1669 15192
L1669 15144
L1692 15096
L1716 15073
L1764 15049
L1859 15025
L1978 15025
L2073 15049
L2121 15073
L2145 15096
L2169 15144
" />
<path d="M2169 15620
L2169 15668
L2145 15715
L2121 15739
L2073 15763
L1978 15787
L1859 15787
L1764 15763
L1716 15739
L1692 15715
L1669 15668
L1669 15620
L1692 15573
L1716 15549
L1764 15525
L1859 15501
L1978 15501
L2073 15525
L2121 15549
L2145 15573
L2169 15620
" />
<path d="M2169 16096
L2169 16144
L2145 16192
L2121 16215
L2073 16239
L1978 16263
L1859 16263
L1764 16239
L1716 16215
L1692 16192
L1669 16144
L1669 16096
L1692 16049
L1716 16025
L1764 16001
L1859 15977
L1978 15977
L2073 16001
L2121 16025
L2145 16049
L2169 16096
" />
<path d="M1669 16858
L2002 16858
" />
<path d="M2169 16858
L2145 16835
L2121 16858
L2145 16882
L2169 16858
L2121 16858
" />
<path d="M2002 17096
L1669 17096
" />
<path d="M1954 17096
L1978 17120
L2002 17168
L2002 17239
L1978 17287
L1930 17311
L1669 17311
" />
<path d="M2345 4585
L2345 26585
" />
<path d="M4175 4585
L1445 4585
" />
<path d="M4175 26585
L1445 26585
" />
<path d="M2345 26585
L2114 26141
" />
<path d="M2345 26585
L2576 26141
" />
<path d="M2345 4585
L2114 5028
" />
<path d="M2345 4585
L2576 5028
" />
<path d="M28956 11035
L28956 10988
L28980 10940
L29004 10916
L29051 10893
L29146 10869
L29265 10869
L29361 10893
L29408 10916
L29432 10940
L29456 10988
L29456 11035
L29432 11083
L29408 11107
L29361 11131
L29265 11155
L29146 11155
L29051 11131
L29004 11107
L28980 11083
L28956 11035
" />
<path d="M29408 10655
L29432 10631
L29456 10655
L29432 10678
L29408 10655
L29456 10655
" />
<path d="M29004 10440
L28980 10416
L28956 10369
L28956 10250
L28980 10202
L29004 10178
L29051 10155
L29099 10155
L29170 10178
L29456 10464
L29456 10155
" />
<path d="M28956 9726
L28956 9821
L28980 9869
L29004 9893
L29075 9940
L29170 9964
L29361 9964
L29408 9940
L29432 9916
L29456 9869
L29456 9774
L29432 9726
L29408 9702
L29361 9678
L29242 9678
L29194 9702
L29170 9726
L29146 9774
L29146 9869
L29170 9916
L29194 9940
L29242 9964
" />
<path d="M28956 9512
L28956 9178
L29456 9393
" />
<path d="M28956 8750
L28956 8988
L29194 9012
L29170 8988
L29146 8940
L29146 8821
L29170 8774
L29194 8750
L29242 8726
L29361 8726
L29408 8750
L29432 8774
L29456 8821
L29456 8940
L29432 8988
L29408 9012
" />
<path d="M29456 8131
L29123 8131
" />
<path d="M28956 8131
L28980 8154
L29004 8131
L28980 8107
L28956 8131
L29004 8131
" />
<path d="M29123 7893
L29456 7893
" />
<path d="M29170 7893
L29146 7869
L29123 7821
L29123 7750
L29146 7702
L29194 7678
L29456 7678
" />
<path d="M29890 8385
L29890 5710
" />
<path d="M30750 8385
L28990 8385
" />
<path d="M30750 5710
L28990 5710
" />
<path d="M29890 5710
L30121 6153
" />
<path d="M29890 5710
L29659 6153
" />
<path d="M29890 8385
L30121 7941
" />
<path d="M29890 8385
L29659 7941
" />
<path d="M27531 3985
L27531 3938
L27555 3890
L27579 3866
L27626 3843
L27721 3819
L27840 3819
L27936 3843
L27983 3866
L28007 3890
L28031 3938
L28031 3985
L28007 4033
L27983 4057
L27936 4081
L27840 4105
L27721 4105
L27626 4081
L27579 4057
L27555 4033
L27531 3985
" />
<path d="M27983 3605
L28007 3581
L28031 3605
L28007 3628
L27983 3605
L28031 3605
" />
<path d="M28031 3105
L28031 3390
" />
<path d="M28031 3247
L27531 3247
L27602 3295
L27650 3343
L27674 3390
" />
<path d="M28031 2628
L28031 2914
" />
<path d="M28031 2771
L27531 2771
L27602 2819
L27650 2866
L27674 2914
" />
<path d="M27579 2438
L27555 2414
L27531 2366
L27531 2247
L27555 2200
L27579 2176
L27626 2152
L27674 2152
L27745 2176
L28031 2462
L28031 2152
" />
<path d="M27531 1700
L27531 1938
L27769 1962
L27745 1938
L27721 1890
L27721 1771
L27745 1724
L27769 1700
L27817 1676
L27936 1676
L27983 1700
L28007 1724
L28031 1771
L28031 1890
L28007 1938
L27983 1962
" />
<path d="M28031 1081
L27698 1081
" />
<path d="M27531 1081
L27555 1104
L27579 1081
L27555 1057
L27531 1081
L27579 1081
" />
<path d="M27698 843
L28031 843
" />
<path d="M27745 843
L27721 819
L27698 771
L27698 700
L27721 652
L27769 628
L28031 628
" />
<path d="M27775 5710
L27775 4585
" />
<path d="M27150 5710
L28675 5710
" />
<path d="M27150 4585
L28675 4585
" />
<path d="M27775 4585
L28006 5028
" />
<path d="M27775 4585
L27544 5028
" />
<path d="M27775 5710
L28006 5266
" />
<path d="M27775 5710
L27544 5266
" />
<path d="M29879 27014
L29879 27061
L29855 27109
L29831 27133
L29783 27156
L29688 27180
L29569 27180
L29474 27156
L29426 27133
L29402 27109
L29379 27061
L29379 27014
L29402 26966
L29426 26942
L29474 26918
L29569 26895
L29688 26895
L29783 26918
L29831 26942
L29855 26966
L29879 27014
" />
<path d="M29426 27395
L29402 27418
L29379 27395
L29402 27371
L29426 27395
L29379 27395
" />
<path d="M29379 27895
L29379 27609
" />
<path d="M29379 27752
L29879 27752
L29807 27704
L29760 27656
L29736 27609
" />
<path d="M29664 28180
L29688 28133
L29712 28109
L29760 28085
L29783 28085
L29831 28109
L29855 28133
L29879 28180
L29879 28275
L29855 28323
L29831 28347
L29783 28371
L29760 28371
L29712 28347
L29688 28323
L29664 28275
L29664 28180
L29640 28133
L29617 28109
L29569 28085
L29474 28085
L29426 28109
L29402 28133
L29379 28180
L29379 28275
L29402 28323
L29426 28347
L29474 28371
L29569 28371
L29617 28347
L29640 28323
L29664 28275
" />
<path d="M29879 28537
L29879 28871
L29379 28656
" />
<path d="M29879 29299
L29879 29061
L29640 29037
L29664 29061
L29688 29109
L29688 29228
L29664 29275
L29640 29299
L29593 29323
L29474 29323
L29426 29299
L29402 29275
L29379 29228
L29379 29109
L29402 29061
L29426 29037
" />
<path d="M29379 29918
L29712 29918
" />
<path d="M29879 29918
L29855 29895
L29831 29918
L29855 29942
L29879 29918
L29831 29918
" />
<path d="M29712 30156
L29379 30156
" />
<path d="M29664 30156
L29688 30180
L29712 30228
L29712 30299
L29688 30347
L29640 30371
L29379 30371
" />
<path d="M29645 24710
L29645 26585
" />
<path d="M28750 24710
L30545 24710
" />
<path d="M28750 26585
L30545 26585
" />
<path d="M29645 26585
L29414 26141
" />
<path d="M29645 26585
L29876 26141
" />
<path d="M29645 24710
L29414 25153
" />
<path d="M29645 24710
L29876 25153
" />
<path d="M17790 29101
L17505 29101
" />
<path d="M17648 29101
L17648 28601
L17600 28672
L17552 28720
L17505 28744
" />
<path d="M18005 29053
L18029 29077
L18005 29101
L17981 29077
L18005 29053
L18005 29101
" />
<path d="M18195 28601
L18529 28601
L18314 29101
" />
<path d="M18957 28601
L18719 28601
L18695 28839
L18719 28815
L18767 28791
L18886 28791
L18933 28815
L18957 28839
L18981 28886
L18981 29005
L18957 29053
L18933 29077
L18886 29101
L18767 29101
L18719 29077
L18695 29053
" />
<path d="M19148 28601
L19481 28601
L19267 29101
" />
<path d="M19910 28601
L19671 28601
L19648 28839
L19671 28815
L19719 28791
L19838 28791
L19886 28815
L19910 28839
L19933 28886
L19933 29005
L19910 29053
L19886 29077
L19838 29101
L19719 29101
L19671 29077
L19648 29053
" />
<path d="M20529 29101
L20529 28767
" />
<path d="M20529 28601
L20505 28625
L20529 28648
L20552 28625
L20529 28601
L20529 28648
" />
<path d="M20767 28767
L20767 29101
" />
<path d="M20767 28815
L20790 28791
L20838 28767
L20910 28767
L20957 28791
L20981 28839
L20981 29101
" />
<path d="M21750 28315
L4175 28315
" />
<path d="M21750 24710
L21750 29215
" />
<path d="M4175 24710
L4175 29215
" />
<path d="M4175 28315
L4618 28084
" />
<path d="M4175 28315
L4618 28545
" />
<path d="M21750 28315
L21306 28084
" />
<path d="M21750 28315
L21306 28545
" />
<path d="M15089 26994
L15089 27041
L15065 27089
L15041 27113
L14993 27136
L14898 27160
L14779 27160
L14684 27136
L14636 27113
L14612 27089
L14589 27041
L14589 26994
L14612 26946
L14636 26922
L14684 26898
L14779 26875
L14898 26875
L14993 26898
L15041 26922
L15065 26946
L15089 26994
" />
<path d="M14636 27375
L14612 27398
L14589 27375
L14612 27351
L14636 27375
L14589 27375
" />
<path d="M15089 27708
L15089 27755
L15065 27803
L15041 27827
L14993 27851
L14898 27875
L14779 27875
L14684 27851
L14636 27827
L14612 27803
L14589 27755
L14589 27708
L14612 27660
L14636 27636
L14684 27613
L14779 27589
L14898 27589
L14993 27613
L15041 27636
L15065 27660
L15089 27708
" />
<path d="M15089 28041
L15089 28375
L14589 28160
" />
<path d="M15089 28803
L15089 28565
L14850 28541
L14874 28565
L14898 28613
L14898 28732
L14874 28779
L14850 28803
L14803 28827
L14684 28827
L14636 28803
L14612 28779
L14589 28732
L14589 28613
L14612 28565
L14636 28541
" />
<path d="M15089 29136
L15089 29184
L15065 29232
L15041 29255
L14993 29279
L14898 29303
L14779 29303
L14684 29279
L14636 29255
L14612 29232
L14589 29184
L14589 29136
L14612 29089
L14636 29065
L14684 29041
L14779 29017
L14898 29017
L14993 29041
L15041 29065
L15065 29089
L15089 29136
" />
<path d="M14589 29898
L14922 29898
" />
<path d="M15089 29898
L15065 29875
L15041 29898
L15065 29922
L15089 29898
L15041 29898
" />
<path d="M14922 30136
L14589 30136
" />
<path d="M14874 30136
L14898 30160
L14922 30208
L14922 30279
L14898 30327
L14850 30351
L14589 30351
" />
<path d="M14865 25835
L14865 26585
" />
<path d="M14175 25835
L15765 25835
" />
<path d="M14175 26585
L15765 26585
" />
<path d="M14865 26585
L14634 26141
" />
<path d="M14865 26585
L15096 26141
" />
<path d="M14865 25835
L14634 26278
" />
<path d="M14865 25835
L15096 26278
" />
<path d="M6544 27251
L6591 27251
L6639 27275
L6663 27298
L6687 27346
L6710 27441
L6710 27560
L6687 27655
L6663 27703
L6639 27727
L6591 27751
L6544 27751
L6496 27727
L6472 27703
L6449 27655
L6425 27560
L6425 27441
L6449 27346
L6472 27298
L6496 27275
L6544 27251
" />
<path d="M6925 27703
L6949 27727
L6925 27751
L6901 27727
L6925 27703
L6925 27751
" />
<path d="M7234 27465
L7187 27441
L7163 27417
L7139 27370
L7139 27346
L7163 27298
L7187 27275
L7234 27251
L7330 27251
L7377 27275
L7401 27298
L7425 27346
L7425 27370
L7401 27417
L7377 27441
L7330 27465
L7234 27465
L7187 27489
L7163 27513
L7139 27560
L7139 27655
L7163 27703
L7187 27727
L7234 27751
L7330 27751
L7377 27727
L7401 27703
L7425 27655
L7425 27560
L7401 27513
L7377 27489
L7330 27465
" />
<path d="M7734 27251
L7782 27251
L7830 27275
L7853 27298
L7877 27346
L7901 27441
L7901 27560
L7877 27655
L7853 27703
L7830 27727
L7782 27751
L7734 27751
L7687 27727
L7663 27703
L7639 27655
L7615 27560
L7615 27441
L7639 27346
L7663 27298
L7687 27275
L7734 27251
" />
<path d="M8210 27251
L8258 27251
L8306 27275
L8330 27298
L8353 27346
L8377 27441
L8377 27560
L8353 27655
L8330 27703
L8306 27727
L8258 27751
L8210 27751
L8163 27727
L8139 27703
L8115 27655
L8091 27560
L8091 27441
L8115 27346
L8139 27298
L8163 27275
L8210 27251
" />
<path d="M8687 27251
L8734 27251
L8782 27275
L8806 27298
L8830 27346
L8853 27441
L8853 27560
L8830 27655
L8806 27703
L8782 27727
L8734 27751
L8687 27751
L8639 27727
L8615 27703
L8591 27655
L8568 27560
L8568 27441
L8591 27346
L8615 27298
L8639 27275
L8687 27251
" />
<path d="M9449 27751
L9449 27417
" />
<path d="M9449 27251
L9425 27275
L9449 27298
L9472 27275
L9449 27251
L9449 27298
" />
<path d="M9687 27417
L9687 27751
" />
<path d="M9687 27465
L9710 27441
L9758 27417
L9830 27417
L9877 27441
L9901 27489
L9901 27751
" />
<path d="M12175 27075
L4175 27075
" />
<path d="M12175 25835
L12175 27975
" />
<path d="M4175 25835
L4175 27975
" />
<path d="M4175 27075
L4618 26844
" />
<path d="M4175 27075
L4618 27305
" />
<path d="M12175 27075
L11731 26844
" />
<path d="M12175 27075
L11731 27305
" />
<path d="M14712 413
L14736 390
L14784 366
L14903 366
L14950 390
L14974 413
L14998 461
L14998 509
L14974 580
L14688 866
L14998 866
" />
<path d="M15212 818
L15236 842
L15212 866
L15188 842
L15212 818
L15212 866
" />
<path d="M15665 532
L15665 866
" />
<path d="M15546 342
L15427 699
L15736 699
" />
<path d="M16165 366
L15927 366
L15903 604
L15927 580
L15974 556
L16093 556
L16141 580
L16165 604
L16188 651
L16188 770
L16165 818
L16141 842
L16093 866
L15974 866
L15927 842
L15903 818
" />
<path d="M16355 366
L16688 366
L16474 866
" />
<path d="M17117 366
L16879 366
L16855 604
L16879 580
L16927 556
L17046 556
L17093 580
L17117 604
L17141 651
L17141 770
L17117 818
L17093 842
L17046 866
L16927 866
L16879 842
L16855 818
" />
<path d="M17736 866
L17736 532
" />
<path d="M17736 366
L17712 390
L17736 413
L17760 390
L17736 366
L17736 413
" />
<path d="M17974 532
L17974 866
" />
<path d="M17974 580
L17998 556
L18046 532
L18117 532
L18165 556
L18188 604
L18188 866
" />
<path d="M4175 1280
L28750 1280
" />
<path d="M4175 5710
L4175 0
" />
<path d="M28750 5710
L28750 0
" />
<path d="M28750 1280
L28306 1510
" />
<path d="M28750 1280
L28306 1049
" />
<path d="M4175 1280
L4618 1510
" />
<path d="M4175 1280
L4618 1049
" />
<path d="M9853 2636
L9567 2636
" />
<path d="M9710 2636
L9710 2136
L9662 2207
L9615 2255
L9567 2279
" />
<path d="M10067 2588
L10091 2612
L10067 2636
L10043 2612
L10067 2588
L10067 2636
" />
<path d="M10257 2136
L10567 2136
L10400 2326
L10472 2326
L10519 2350
L10543 2374
L10567 2421
L10567 2540
L10543 2588
L10519 2612
L10472 2636
L10329 2636
L10281 2612
L10257 2588
" />
<path d="M10805 2636
L10900 2636
L10948 2612
L10972 2588
L11019 2517
L11043 2421
L11043 2231
L11019 2183
L10996 2160
L10948 2136
L10853 2136
L10805 2160
L10781 2183
L10757 2231
L10757 2350
L10781 2398
L10805 2421
L10853 2445
L10948 2445
L10996 2421
L11019 2398
L11043 2350
" />
<path d="M11210 2136
L11543 2136
L11329 2636
" />
<path d="M11972 2136
L11734 2136
L11710 2374
L11734 2350
L11781 2326
L11900 2326
L11948 2350
L11972 2374
L11996 2421
L11996 2540
L11972 2588
L11948 2612
L11900 2636
L11781 2636
L11734 2612
L11710 2588
" />
<path d="M12567 2136
L12567 2231
" />
<path d="M12757 2136
L12757 2231
" />
<path d="M4175 3050
L18150 3050
" />
<path d="M4175 5710
L4175 1770
" />
<path d="M18150 5710
L18150 1770
" />
<path d="M18150 3050
L17706 3280
" />
<path d="M18150 3050
L17706 2819
" />
<path d="M4175 3050
L4618 3280
" />
<path d="M4175 3050
L4618 2819
" />
<path d="M5425 3611
L5472 3611
L5520 3635
L5544 3658
L5568 3706
L5591 3801
L5591 3920
L5568 4015
L5544 4063
L5520 4087
L5472 4111
L5425 4111
L5377 4087
L5353 4063
L5330 4015
L5306 3920
L5306 3801
L5330 3706
L5353 3658
L5377 3635
L5425 3611
" />
<path d="M5806 4063
L5830 4087
L5806 4111
L5782 4087
L5806 4063
L5806 4111
" />
<path d="M6139 3611
L6187 3611
L6234 3635
L6258 3658
L6282 3706
L6306 3801
L6306 3920
L6282 4015
L6258 4063
L6234 4087
L6187 4111
L6139 4111
L6091 4087
L6068 4063
L6044 4015
L6020 3920
L6020 3801
L6044 3706
L6068 3658
L6091 3635
L6139 3611
" />
<path d="M6472 3611
L6806 3611
L6591 4111
" />
<path d="M7353 3611
L7353 3706
" />
<path d="M7544 3611
L7544 3706
" />
<path d="M4175 3935
L4875 3935
" />
<path d="M4175 5485
L4175 2655
" />
<path d="M4875 5485
L4875 2655
" />
<path d="M4875 3935
L4431 4165
" />
<path d="M4875 3935
L4431 3704
" />
<path d="M4175 3935
L4618 4165
" />
<path d="M4175 3935
L4618 3704
" />
<path d="M3554 5930
L3554 5977
L3530 6025
L3506 6049
L3458 6072
L3363 6096
L3244 6096
L3149 6072
L3101 6049
L3077 6025
L3054 5977
L3054 5930
L3077 5882
L3101 5858
L3149 5834
L3244 5810
L3363 5810
L3458 5834
L3506 5858
L3530 5882
L3554 5930
" />
<path d="M3101 6310
L3077 6334
L3054 6310
L3077 6287
L3101 6310
L3054 6310
" />
<path d="M3554 6644
L3554 6691
L3530 6739
L3506 6763
L3458 6787
L3363 6810
L3244 6810
L3149 6787
L3101 6763
L3077 6739
L3054 6691
L3054 6644
L3077 6596
L3101 6572
L3149 6549
L3244 6525
L3363 6525
L3458 6549
L3506 6572
L3530 6596
L3554 6644
" />
<path d="M3054 7049
L3054 7144
L3077 7191
L3101 7215
L3173 7263
L3268 7287
L3458 7287
L3506 7263
L3530 7239
L3554 7191
L3554 7096
L3530 7049
L3506 7025
L3458 7001
L3339 7001
L3292 7025
L3268 7049
L3244 7096
L3244 7191
L3268 7239
L3292 7263
L3339 7287
" />
<path d="M3554 7858
L3458 7858
" />
<path d="M3554 8049
L3458 8049
" />
<path d="M3375 4585
L3375 5485
" />
<path d="M4875 4585
L2095 4585
" />
<path d="M4875 5485
L2095 5485
" />
<path d="M3375 5485
L3144 5041
" />
<path d="M3375 5485
L3606 5041
" />
<path d="M3375 4585
L3144 5028
" />
<path d="M3375 4585
L3606 5028
" />
</g>
<g style="fill:#C1C100; fill-opacity:0.0; 
stroke:#C1C100; stroke-width:50; stroke-opacity:1; 
stroke-linecap:round; stroke-linejoin:round;">
<path d="M37675 26585
L37675 4585
" />
<path d="M4175 4585
L37675 4585
" />
<path d="M37675 26585
L4175 26585
" />
<path d="M4175 26585
L4175 4585
" />
</g>
<g style="fill:#840000; fill-opacity:0.0; 
stroke:#840000; stroke-width:20; stroke-opacity:1; 
stroke-linecap:round; stroke-linejoin:round;">
</g>
<g style="fill:#840000; fill-opacity:1.0; 
stroke:#840000; stroke-width:20; stroke-opacity:1; 
stroke-linecap:round; stroke-linejoin:round;">
<polyline style="fill-rule:evenodd;"
points="12465,26125
11885,26125
11885,25545
12465,25545
12465,26125
" /> 
<polyline style="fill-rule:evenodd;"
points="12465,25125
11885,25125
11885,24545
12465,24545
12465,25125
" /> 
<polyline style="fill-rule:evenodd;"
points="12465,24125
11885,24125
11885,23545
12465,23545
12465,24125
" /> 
<polyline style="fill-rule:evenodd;"
points="12465,23125
11885,23125
11885,22545
12465,22545
12465,23125
" /> 
<polyline style="fill-rule:evenodd;"
points="12465,22125
11885,22125
11885,21545
12465,21545
12465,22125
" /> 
<polyline style="fill-rule:evenodd;"
points="12465,21125
11885,21125
11885,20545
12465,20545
12465,21125
" /> 
<polyline style="fill-rule:evenodd;"
points="12465,20125
11885,20125
11885,19545
12465,19545
12465,20125
" /> 
<polyline style="fill-rule:evenodd;"
points="12465,19125
11885,19125
11885,18545
12465,18545
12465,19125
" /> 
<circle cx="13175.2" cy="25835" r="290" /> 
<circle cx="13175.2" cy="24835" r="290" /> 
<circle cx="13175.2" cy="23835" r="290" /> 
<circle cx="13175.2" cy="22835" r="290" /> 
<circle cx="13175.2" cy="21835" r="290" /> 
<circle cx="13175.2" cy="20835" r="290" /> 
<circle cx="13175.2" cy="19835" r="290" /> 
<circle cx="13175.2" cy="18835" r="290" /> 
<polyline style="fill-rule:evenodd;"
points="5830,20610
6370,20610
6370,21010
5830,21010
5830,20610
" /> 
<polyline style="fill-rule:evenodd;"
points="5830,19810
6370,19810
6370,20210
5830,20210
5830,19810
" /> 
<polyline style="fill-rule:evenodd;"
points="11845,16310
11305,16310
11305,15910
11845,15910
11845,16310
" /> 
<polyline style="fill-rule:evenodd;"
points="11845,17110
11305,17110
11305,16710
11845,16710
11845,17110
" /> 
<polyline style="fill-rule:evenodd;"
points="17640,14250
17160,14250
17160,13870
17640,13870
17640,14250
" /> 
<polyline style="fill-rule:evenodd;"
points="17640,15050
17160,15050
17160,14670
17640,14670
17640,15050
" /> 
<polyline style="fill-rule:evenodd;"
points="20110,14670
20590,14670
20590,15050
20110,15050
20110,14670
" /> 
<polyline style="fill-rule:evenodd;"
points="20110,13870
20590,13870
20590,14250
20110,14250
20110,13870
" /> 
<polyline style="fill-rule:evenodd;"
points="19110,14670
19590,14670
19590,15050
19110,15050
19110,14670
" /> 
<polyline style="fill-rule:evenodd;"
points="19110,13870
19590,13870
19590,14250
19110,14250
19110,13870
" /> 
<polyline style="fill-rule:evenodd;"
points="14455,11035
14995,11035
14995,11435
14455,11435
14455,11035
" /> 
<polyline style="fill-rule:evenodd;"
points="14455,10235
14995,10235
14995,10635
14455,10635
14455,10235
" /> 
<polyline style="fill-rule:evenodd;"
points="11205,8721
11795,8721
11795,8898
11205,8898
11205,8721
" /> 
<polyline style="fill-rule:evenodd;"
points="11205,9221
11795,9221
11795,9398
11205,9398
11205,9221
" /> 
<polyline style="fill-rule:evenodd;"
points="11205,9721
11795,9721
11795,9898
11205,9898
11205,9721
" /> 
<polyline style="fill-rule:evenodd;"
points="11205,10221
11795,10221
11795,10398
11205,10398
11205,10221
" /> 
<polyline style="fill-rule:evenodd;"
points="11205,10721
11795,10721
11795,10898
11205,10898
11205,10721
" /> 
<polyline style="fill-rule:evenodd;"
points="11205,11221
11795,11221
11795,11398
11205,11398
11205,11221
" /> 
<polyline style="fill-rule:evenodd;"
points="11205,11721
11795,11721
11795,11898
11205,11898
11205,11721
" /> 
<polyline style="fill-rule:evenodd;"
points="13305,11721
13895,11721
13895,11898
13305,11898
13305,11721
" /> 
<polyline style="fill-rule:evenodd;"
points="13305,11221
13895,11221
13895,11398
13305,11398
13305,11221
" /> 
<polyline style="fill-rule:evenodd;"
points="13305,10721
13895,10721
13895,10898
13305,10898
13305,10721
" /> 
<polyline style="fill-rule:evenodd;"
points="13305,10221
13895,10221
13895,10398
13305,10398
13305,10221
" /> 
<polyline style="fill-rule:evenodd;"
points="13305,9721
13895,9721
13895,9898
13305,9898
13305,9721
" /> 
<polyline style="fill-rule:evenodd;"
points="13305,9221
13895,9221
13895,9398
13305,9398
13305,9221
" /> 
<polyline style="fill-rule:evenodd;"
points="13305,8721
13895,8721
13895,8898
13305,8898
13305,8721
" /> 
<polyline style="fill-rule:evenodd;"
points="16063,8724
16437,8724
16437,9295
16063,9295
16063,8724
" /> 
<polyline style="fill-rule:evenodd;"
points="16063,10774
16437,10774
16437,11345
16063,11345
16063,10774
" /> 
<polyline style="fill-rule:evenodd;"
points="16763,10774
17137,10774
17137,11345
16763,11345
16763,10774
" /> 
<polyline style="fill-rule:evenodd;"
points="16763,8724
17137,8724
17137,9295
16763,9295
16763,8724
" /> 
<polyline style="fill-rule:evenodd;"
points="29320,8835
28780,8835
28780,8435
29320,8435
29320,8835
" /> 
<polyline style="fill-rule:evenodd;"
points="29320,9635
28780,9635
28780,9235
29320,9235
29320,9635
" /> 
<polyline style="fill-rule:evenodd;"
points="9850,17840
9850,18380
9450,18380
9450,17840
9850,17840
" /> 
<polyline style="fill-rule:evenodd;"
points="10650,17840
10650,18380
10250,18380
10250,17840
10650,17840
" /> 
<polyline style="fill-rule:evenodd;"
points="10250,14730
10250,14190
10650,14190
10650,14730
10250,14730
" /> 
<polyline style="fill-rule:evenodd;"
points="9450,14730
9450,14190
9850,14190
9850,14730
9450,14730
" /> 
<polyline style="fill-rule:evenodd;"
points="9850,16840
9850,17380
9450,17380
9450,16840
9850,16840
" /> 
<polyline style="fill-rule:evenodd;"
points="10650,16840
10650,17380
10250,17380
10250,16840
10650,16840
" /> 
<polyline style="fill-rule:evenodd;"
points="12679,8020
12679,7450
13171,7450
13171,8020
12679,8020
" /> 
<polyline style="fill-rule:evenodd;"
points="11929,8020
11929,7450
12421,7450
12421,8020
11929,8020
" /> 
<polyline style="fill-rule:evenodd;"
points="14440,9289
15010,9289
15010,9781
14440,9781
14440,9289
" /> 
<polyline style="fill-rule:evenodd;"
points="14440,8539
15010,8539
15010,9031
14440,9031
14440,8539
" /> 
<polyline style="fill-rule:evenodd;"
points="14440,12614
15010,12614
15010,13106
14440,13106
14440,12614
" /> 
<polyline style="fill-rule:evenodd;"
points="14440,11864
15010,11864
15010,12356
14440,12356
14440,11864
" /> 
<polyline style="fill-rule:evenodd;"
points="17115,12614
17685,12614
17685,13106
17115,13106
17115,12614
" /> 
<polyline style="fill-rule:evenodd;"
points="17115,11864
17685,11864
17685,12356
17115,12356
17115,11864
" /> 
<polyline style="fill-rule:evenodd;"
points="18660,14331
18090,14331
18090,13839
18660,13839
18660,14331
" /> 
<polyline style="fill-rule:evenodd;"
points="18660,15081
18090,15081
18090,14589
18660,14589
18660,15081
" /> 
<polyline style="fill-rule:evenodd;"
points="21635,14331
21065,14331
21065,13839
21635,13839
21635,14331
" /> 
<polyline style="fill-rule:evenodd;"
points="21635,15081
21065,15081
21065,14589
21635,14589
21635,15081
" /> 
<circle cx="5850.24" cy="19085" r="190" /> 
<circle cx="5200.24" cy="19085" r="190" /> 
<circle cx="4550.24" cy="19085" r="190" /> 
<polyline style="fill-rule:evenodd;"
points="15335,16381
14765,16381
14765,15889
15335,15889
15335,16381
" /> 
<polyline style="fill-rule:evenodd;"
points="15335,17131
14765,17131
14765,16639
15335,16639
15335,17131
" /> 
<polyline style="fill-rule:evenodd;"
points="15740,16639
16310,16639
16310,17131
15740,17131
15740,16639
" /> 
<polyline style="fill-rule:evenodd;"
points="15740,15889
16310,15889
16310,16381
15740,16381
15740,15889
" /> 
<polyline style="fill-rule:evenodd;"
points="16660,14331
16090,14331
16090,13839
16660,13839
16660,14331
" /> 
<polyline style="fill-rule:evenodd;"
points="16660,15081
16090,15081
16090,14589
16660,14589
16660,15081
" /> 
<polyline style="fill-rule:evenodd;"
points="9190,15252
9610,15252
9610,15468
9190,15468
9190,15252
" /> 
<polyline style="fill-rule:evenodd;"
points="9190,16002
9610,16002
9610,16218
9190,16218
9190,16002
" /> 
<polyline style="fill-rule:evenodd;"
points="9190,15627
9610,15627
9610,15843
9190,15843
9190,15627
" /> 
<polyline style="fill-rule:evenodd;"
points="10240,16002
10660,16002
10660,16218
10240,16218
10240,16002
" /> 
<polyline style="fill-rule:evenodd;"
points="10240,15252
10660,15252
10660,15468
10240,15468
10240,15252
" /> 
<polyline style="fill-rule:evenodd;"
points="7085,16320
7865,16320
7865,17800
7085,17800
7085,16320
" /> 
<polyline style="fill-rule:evenodd;"
points="4585,16770
5365,16770
5365,17350
4585,17350
4585,16770
" /> 
<polyline style="fill-rule:evenodd;"
points="4585,17670
5365,17670
5365,18250
4585,18250
4585,17670
" /> 
<polyline style="fill-rule:evenodd;"
points="4585,15870
5365,15870
5365,16450
4585,16450
4585,15870
" /> 
<polyline style="fill-rule:evenodd;"
points="12147,13934
12147,14386
11852,14386
11852,13934
12147,13934
" /> 
<polyline style="fill-rule:evenodd;"
points="11772,14884
11772,15336
11477,15336
11477,14884
11772,14884
" /> 
<polyline style="fill-rule:evenodd;"
points="11397,13934
11397,14386
11102,14386
11102,13934
11397,13934
" /> 
<polyline style="fill-rule:evenodd;"
points="12565,15225
12565,14445
12785,14445
12785,15225
12565,15225
" /> 
<polyline style="fill-rule:evenodd;"
points="12565,17125
12565,16345
12785,16345
12785,17125
12565,17125
" /> 
<polyline style="fill-rule:evenodd;"
points="13065,15225
13065,14445
13285,14445
13285,15225
13065,15225
" /> 
<polyline style="fill-rule:evenodd;"
points="13565,15225
13565,14445
13785,14445
13785,15225
13565,15225
" /> 
<polyline style="fill-rule:evenodd;"
points="14065,15225
14065,14445
14285,14445
14285,15225
14065,15225
" /> 
<polyline style="fill-rule:evenodd;"
points="13065,17125
13065,16345
13285,16345
13285,17125
13065,17125
" /> 
<polyline style="fill-rule:evenodd;"
points="13565,17125
13565,16345
13785,16345
13785,17125
13565,17125
" /> 
<polyline style="fill-rule:evenodd;"
points="14065,17125
14065,16345
14285,16345
14285,17125
14065,17125
" /> 
<polyline style="fill-rule:evenodd;"
points="15595,14260
15055,14260
15055,13860
15595,13860
15595,14260
" /> 
<polyline style="fill-rule:evenodd;"
points="15595,15060
15055,15060
15055,14660
15595,14660
15595,15060
" /> 
<polyline style="fill-rule:evenodd;"
points="17510,23800
18690,23800
18690,24420
17510,24420
17510,23800
" /> 
<polyline style="fill-rule:evenodd;"
points="19310,23775
20490,23775
20490,24395
19310,24395
19310,23775
" /> 
<polyline style="fill-rule:evenodd;"
points="9790,20320
8610,20320
8610,19700
9790,19700
9790,20320
" /> 
<polyline style="fill-rule:evenodd;"
points="7990,20345
6810,20345
6810,19725
7990,19725
7990,20345
" /> 
<circle cx="14175.2" cy="25835" r="290" /> 
<circle cx="14175.2" cy="24835" r="290" /> 
<circle cx="14175.2" cy="23835" r="290" /> 
<circle cx="14175.2" cy="22835" r="290" /> 
<circle cx="14175.2" cy="21835" r="290" /> 
<circle cx="14175.2" cy="20835" r="290" /> 
<circle cx="14175.2" cy="19835" r="290" /> 
<circle cx="14175.2" cy="18835" r="290" /> 
<circle cx="37125.2" cy="5635" r="290" /> 
<circle cx="37125.2" cy="6635" r="290" /> 
<polyline style="fill-rule:evenodd;"
points="36835,7345
37415,7345
37415,7925
36835,7925
36835,7345
" /> 
<circle cx="37125.2" cy="8635" r="290" /> 
<circle cx="37125.2" cy="9635" r="290" /> 
<circle cx="37125.2" cy="10635" r="290" /> 
<polyline style="fill-rule:evenodd;"
points="24785,8345
25565,8345
25565,8825
24785,8825
24785,8345
" /> 
</g>
<g style="fill:#840000; fill-opacity:1.0; 
stroke:#840000; stroke-width:500; stroke-opacity:1; 
stroke-linecap:round; stroke-linejoin:round;">
<path d="M25325 9585
L25025 9585
" />
<path d="M25325 10585
L25025 10585
" />
<path d="M25325 11585
L25025 11585
" />
<path d="M25325 12585
L25025 12585
" />
<path d="M25325 13585
L25025 13585
" />
<path d="M25325 14585
L25025 14585
" />
<path d="M25325 15585
L25025 15585
" />
</g>
<g style="fill:#840000; fill-opacity:1.0; 
stroke:#840000; stroke-width:20; stroke-opacity:1; 
stroke-linecap:round; stroke-linejoin:round;">
<polyline style="fill-rule:evenodd;"
points="25785,8345
26565,8345
26565,8825
25785,8825
25785,8345
" /> 
</g>
<g style="fill:#840000; fill-opacity:1.0; 
stroke:#840000; stroke-width:500; stroke-opacity:1; 
stroke-linecap:round; stroke-linejoin:round;">
<path d="M26325 9585
L26025 9585
" />
<path d="M26325 10585
L26025 10585
" />
<path d="M26325 11585
L26025 11585
" />
<path d="M26325 12585
L26025 12585
" />
<path d="M26325 13585
L26025 13585
" />
<path d="M26325 14585
L26025 14585
" />
<path d="M26325 15585
L26025 15585
" />
</g>
<g style="fill:#840000; fill-opacity:1.0; 
stroke:#840000; stroke-width:20; stroke-opacity:1; 
stroke-linecap:round; stroke-linejoin:round;">
<circle cx="4750.24" cy="22885" r="365" /> 
<circle cx="4750.24" cy="20285" r="365" /> 
<circle cx="31750.2" cy="15385" r="290" /> 
<circle cx="30750.2" cy="15385" r="290" /> 
<circle cx="31750.2" cy="14385" r="290" /> 
<circle cx="30750.2" cy="14385" r="290" /> 
<circle cx="31750.2" cy="13385" r="290" /> 
<polyline style="fill-rule:evenodd;"
points="31040,13675
30460,13675
30460,13095
31040,13095
31040,13675
" /> 
<polyline style="fill-rule:evenodd;"
points="10565,9670
10565,9950
9985,9950
9985,9670
10565,9670
" /> 
<polyline style="fill-rule:evenodd;"
points="10565,9237
10565,9517
9985,9517
9985,9237
10565,9237
" /> 
<polyline style="fill-rule:evenodd;"
points="10565,8804
10565,9084
9985,9084
9985,8804
10565,8804
" /> 
<polyline style="fill-rule:evenodd;"
points="10565,8371
10565,8651
9985,8651
9985,8371
10565,8371
" /> 
<polyline style="fill-rule:evenodd;"
points="10565,7938
10565,8218
9985,8218
9985,7938
10565,7938
" /> 
<polyline style="fill-rule:evenodd;"
points="10565,10103
10565,10383
9985,10383
9985,10103
10565,10103
" /> 
<polyline style="fill-rule:evenodd;"
points="10565,10536
10565,10816
9985,10816
9985,10536
10565,10536
" /> 
<polyline style="fill-rule:evenodd;"
points="10565,10969
10565,11249
9985,11249
9985,10969
10565,10969
" /> 
<polyline style="fill-rule:evenodd;"
points="10565,11402
10565,11682
9985,11682
9985,11402
10565,11402
" /> 
<polyline style="fill-rule:evenodd;"
points="10329,7358
10329,7738
9749,7738
9749,7358
10329,7358
" /> 
<polyline style="fill-rule:evenodd;"
points="6581,7394
6581,7974
5801,7974
5801,7394
6581,7394
" /> 
<polyline style="fill-rule:evenodd;"
points="6481,13557
6481,13937
5901,13937
5901,13557
6481,13557
" /> 
<polyline style="fill-rule:evenodd;"
points="10411,13135
10411,13715
9831,13715
9831,13135
10411,13135
" /> 
<circle cx="5975.24" cy="8785" r="215" /> 
<circle cx="5975.24" cy="11935" r="215" /> 
<polyline style="fill-rule:evenodd;"
points="31860,11545
32140,11545
32140,11825
31860,11825
31860,11545
" /> 
<polyline style="fill-rule:evenodd;"
points="31860,11070
32140,11070
32140,11350
31860,11350
31860,11070
" /> 
<polyline style="fill-rule:evenodd;"
points="31060,11545
31340,11545
31340,11825
31060,11825
31060,11545
" /> 
<polyline style="fill-rule:evenodd;"
points="31060,11070
31340,11070
31340,11350
31060,11350
31060,11070
" /> 
<polyline style="fill-rule:evenodd;"
points="6210,26050
6210,25270
6790,25270
6790,26050
6210,26050
" /> 
<polyline style="fill-rule:evenodd;"
points="4710,26050
4710,25270
5290,25270
5290,26050
4710,26050
" /> 
<polyline style="fill-rule:evenodd;"
points="16290,18600
15510,18600
15510,18020
16290,18020
16290,18600
" /> 
<polyline style="fill-rule:evenodd;"
points="16290,20100
15510,20100
15510,19520
16290,19520
16290,20100
" /> 
<polyline style="fill-rule:evenodd;"
points="11315,20525
10335,20525
10335,19495
11315,19495
11315,20525
" /> 
<polyline style="fill-rule:evenodd;"
points="11065,21075
10585,21075
10585,20795
11065,20795
11065,21075
" /> 
</g>
<g style="fill:#840000; fill-opacity:1.0; 
stroke:#840000; stroke-width:1200; stroke-opacity:1; 
stroke-linecap:round; stroke-linejoin:round;">
<path d="M7275 22735
L7275 23335
" />
</g>
<g style="fill:#840000; fill-opacity:1.0; 
stroke:#840000; stroke-width:20; stroke-opacity:1; 
stroke-linecap:round; stroke-linejoin:round;">
<polyline style="fill-rule:evenodd;"
points="9085,23925
9085,22145
10265,22145
10265,23925
9085,23925
" /> 
</g>
<g style="fill:#840000; fill-opacity:1.0; 
stroke:#840000; stroke-width:1200; stroke-opacity:1; 
stroke-linecap:round; stroke-linejoin:round;">
<path d="M8225 25035
L8825 25035
" />
</g>
<g style="fill:#840000; fill-opacity:1.0; 
stroke:#840000; stroke-width:20; stroke-opacity:1; 
stroke-linecap:round; stroke-linejoin:round;">
<circle cx="4875.24" cy="6485" r="290" /> 
<circle cx="4875.24" cy="5485" r="290" /> 
<circle cx="5875.24" cy="6485" r="290" /> 
<circle cx="5875.24" cy="5485" r="290" /> 
<circle cx="6875.24" cy="6485" r="290" /> 
<polyline style="fill-rule:evenodd;"
points="6585,5775
6585,5195
7165,5195
7165,5775
6585,5775
" /> 
<circle cx="7875.24" cy="6485" r="290" /> 
<circle cx="7875.24" cy="5485" r="290" /> 
<circle cx="8875.24" cy="6485" r="290" /> 
<circle cx="8875.24" cy="5485" r="290" /> 
<circle cx="9875.24" cy="6485" r="290" /> 
<circle cx="9875.24" cy="5485" r="290" /> 
<circle cx="10875.2" cy="6485" r="290" /> 
<circle cx="10875.2" cy="5485" r="290" /> 
<circle cx="11875.2" cy="6485" r="290" /> 
<circle cx="11875.2" cy="5485" r="290" /> 
<circle cx="12875.2" cy="6485" r="290" /> 
<circle cx="12875.2" cy="5485" r="290" /> 
<circle cx="13875.2" cy="6485" r="290" /> 
<circle cx="13875.2" cy="5485" r="290" /> 
<circle cx="14875.2" cy="6485" r="290" /> 
<circle cx="14875.2" cy="5485" r="290" /> 
<circle cx="15875.2" cy="6485" r="290" /> 
<circle cx="15875.2" cy="5485" r="290" /> 
<circle cx="16875.2" cy="6485" r="290" /> 
<circle cx="16875.2" cy="5485" r="290" /> 
<circle cx="28750.2" cy="13385" r="290" /> 
<circle cx="28750.2" cy="14385" r="290" /> 
<circle cx="28750.2" cy="15385" r="290" /> 
<circle cx="35750.2" cy="23710" r="290" /> 
<circle cx="34750.2" cy="23710" r="290" /> 
<circle cx="33750.2" cy="23710" r="290" /> 
<circle cx="32750.2" cy="23710" r="290" /> 
<circle cx="31750.2" cy="23710" r="290" /> 
<circle cx="30750.2" cy="23710" r="290" /> 
<polyline style="fill-rule:evenodd;"
points="36040,22420
36040,23000
35460,23000
35460,22420
36040,22420
" /> 
<polyline style="fill-rule:evenodd;"
points="35040,22420
35040,23000
34460,23000
34460,22420
35040,22420
" /> 
<polyline style="fill-rule:evenodd;"
points="34040,22420
34040,23000
33460,23000
33460,22420
34040,22420
" /> 
<polyline style="fill-rule:evenodd;"
points="33040,22420
33040,23000
32460,23000
32460,22420
33040,22420
" /> 
<polyline style="fill-rule:evenodd;"
points="32040,22420
32040,23000
31460,23000
31460,22420
32040,22420
" /> 
<polyline style="fill-rule:evenodd;"
points="31040,22420
31040,23000
30460,23000
30460,22420
31040,22420
" /> 
</g>
<g style="fill:#840000; fill-opacity:1.0; 
stroke:#840000; stroke-width:300; stroke-opacity:1; 
stroke-linecap:round; stroke-linejoin:round;">
<path d="M7925 14260
L7525 14260
" />
<path d="M7925 15260
L7525 15260
" />
<path d="M6725 14760
L6325 14760
" />
</g>
<g style="fill:#840000; fill-opacity:1.0; 
stroke:#840000; stroke-width:20; stroke-opacity:1; 
stroke-linecap:round; stroke-linejoin:round;">
<polyline style="fill-rule:evenodd;"
points="6985,15120
7265,15120
7265,15400
6985,15400
6985,15120
" /> 
<polyline style="fill-rule:evenodd;"
points="6985,14620
7265,14620
7265,14900
6985,14900
6985,14620
" /> 
<polyline style="fill-rule:evenodd;"
points="6985,14120
7265,14120
7265,14400
6985,14400
6985,14120
" /> 
<polyline style="fill-rule:evenodd;"
points="5790,17714
6360,17714
6360,18206
5790,18206
5790,17714
" /> 
<polyline style="fill-rule:evenodd;"
points="5790,16964
6360,16964
6360,17456
5790,17456
5790,16964
" /> 
<polyline style="fill-rule:evenodd;"
points="36040,8095
36040,8675
35460,8675
35460,8095
36040,8095
" /> 
<polyline style="fill-rule:evenodd;"
points="35040,8095
35040,8675
34460,8675
34460,8095
35040,8095
" /> 
<circle cx="33750.2" cy="8385" r="290" /> 
<circle cx="32750.2" cy="8385" r="290" /> 
<circle cx="31750.2" cy="8385" r="290" /> 
<circle cx="30750.2" cy="8385" r="290" /> 
<circle cx="35750.2" cy="24710" r="290" /> 
<circle cx="34750.2" cy="24710" r="290" /> 
<circle cx="33750.2" cy="24710" r="290" /> 
<circle cx="30750.2" cy="24710" r="290" /> 
<circle cx="31750.2" cy="24710" r="290" /> 
<circle cx="32750.2" cy="24710" r="290" /> 
<circle cx="28750.2" cy="24710" r="290" /> 
<polyline style="fill-rule:evenodd;"
points="28040,25000
27460,25000
27460,24420
28040,24420
28040,25000
" /> 
<polyline style="fill-rule:evenodd;"
points="27040,25000
26460,25000
26460,24420
27040,24420
27040,25000
" /> 
<circle cx="24750.2" cy="24710" r="290" /> 
<circle cx="23750.2" cy="24710" r="290" /> 
<circle cx="35750.2" cy="5710" r="290" /> 
<circle cx="34750.2" cy="5710" r="290" /> 
<circle cx="33750.2" cy="5710" r="290" /> 
<circle cx="32750.2" cy="5710" r="290" /> 
<circle cx="31750.2" cy="5710" r="290" /> 
<circle cx="30750.2" cy="5710" r="290" /> 
<circle cx="29750.2" cy="5710" r="290" /> 
<circle cx="28750.2" cy="5710" r="290" /> 
<circle cx="27150.2" cy="5710" r="290" /> 
<circle cx="26150.2" cy="5710" r="290" /> 
<circle cx="25150.2" cy="5710" r="290" /> 
<circle cx="24150.2" cy="5710" r="290" /> 
<circle cx="23150.2" cy="5710" r="290" /> 
<circle cx="22150.2" cy="5710" r="290" /> 
<polyline style="fill-rule:evenodd;"
points="21440,6000
20860,6000
20860,5420
21440,5420
21440,6000
" /> 
<circle cx="20150.2" cy="5710" r="290" /> 
<circle cx="25750.2" cy="24710" r="290" /> 
<circle cx="16250.2" cy="24710" r="890" /> 
<circle cx="36750.2" cy="22710" r="490" /> 
<circle cx="22750.2" cy="24710" r="290" /> 
<circle cx="21750.2" cy="24710" r="290" /> 
<circle cx="19150.2" cy="5710" r="290" /> 
<circle cx="18150.2" cy="5710" r="290" /> 
</g>
<g style="fill:#840000; fill-opacity:1.0; 
stroke:#840000; stroke-width:600; stroke-opacity:1; 
stroke-linecap:round; stroke-linejoin:round;">
<path d="M31575 17710
L31575 17410
" />
<path d="M30575 17710
L30575 17410
" />
<path d="M29575 17710
L29575 17410
" />
<path d="M28575 17710
L28575 17410
" />
<path d="M27575 17710
L27575 17410
" />
<path d="M26575 17710
L26575 17410
" />
</g>
<g style="fill:#840000; fill-opacity:1.0; 
stroke:#840000; stroke-width:20; stroke-opacity:1; 
stroke-linecap:round; stroke-linejoin:round;">
<polyline style="fill-rule:evenodd;"
points="25865,17120
25865,18000
25285,18000
25285,17120
25865,17120
" /> 
</g>
<g style="fill:#840000; fill-opacity:1.0; 
stroke:#840000; stroke-width:600; stroke-opacity:1; 
stroke-linecap:round; stroke-linejoin:round;">
<path d="M24575 17710
L24575 17410
" />
<path d="M23575 17710
L23575 17410
" />
<path d="M22575 17710
L22575 17410
" />
<path d="M21575 17710
L21575 17410
" />
<path d="M20575 17710
L20575 17410
" />
<path d="M19575 17710
L19575 17410
" />
<path d="M32575 17710
L32575 17410
" />
<path d="M19575 20710
L19575 20410
" />
<path d="M20575 20710
L20575 20410
" />
<path d="M21575 20710
L21575 20410
" />
<path d="M22575 20710
L22575 20410
" />
<path d="M23575 20710
L23575 20410
" />
<path d="M24575 20710
L24575 20410
" />
<path d="M25575 20710
L25575 20410
" />
</g>
<g style="fill:#840000; fill-opacity:1.0; 
stroke:#840000; stroke-width:20; stroke-opacity:1; 
stroke-linecap:round; stroke-linejoin:round;">
<polyline style="fill-rule:evenodd;"
points="26865,20120
26865,21000
26285,21000
26285,20120
26865,20120
" /> 
</g>
<g style="fill:#840000; fill-opacity:1.0; 
stroke:#840000; stroke-width:600; stroke-opacity:1; 
stroke-linecap:round; stroke-linejoin:round;">
<path d="M27575 20710
L27575 20410
" />
<path d="M28575 20710
L28575 20410
" />
<path d="M29575 20710
L29575 20410
" />
<path d="M30575 20710
L30575 20410
" />
<path d="M31575 20710
L31575 20410
" />
<path d="M32575 20710
L32575 20410
" />
</g>
<g style="fill:#840000; fill-opacity:1.0; 
stroke:#840000; stroke-width:20; stroke-opacity:1; 
stroke-linecap:round; stroke-linejoin:round;">
<polyline style="fill-rule:evenodd;"
points="31321,6550
31321,7120
30829,7120
30829,6550
31321,6550
" /> 
<polyline style="fill-rule:evenodd;"
points="32071,6550
32071,7120
31579,7120
31579,6550
32071,6550
" /> 
<polyline style="fill-rule:evenodd;"
points="32846,6550
32846,7120
32354,7120
32354,6550
32846,6550
" /> 
<polyline style="fill-rule:evenodd;"
points="33596,6550
33596,7120
33104,7120
33104,6550
33596,6550
" /> 
</g>
<g style="fill:#C1C1C1; fill-opacity:1.0; 
stroke:#C1C1C1; stroke-width:20; stroke-opacity:1; 
stroke-linecap:round; stroke-linejoin:round;">
<circle cx="30000.2" cy="24635" r="165" /> 
<circle cx="8674.24" cy="11720" r="165" /> 
<circle cx="13675.2" cy="17660" r="165" /> 
<circle cx="11200.2" cy="12260" r="165" /> 
<circle cx="28150.2" cy="22710" r="165" /> 
<circle cx="28750.2" cy="11885" r="165" /> 
<circle cx="27550.2" cy="11885" r="165" /> 
<circle cx="12925.2" cy="9810" r="165" /> 
<circle cx="15475.2" cy="12860" r="165" /> 
<circle cx="18300.2" cy="15885" r="165" /> 
<circle cx="21975.2" cy="14085" r="165" /> 
<circle cx="17200.2" cy="23185" r="165" /> 
<circle cx="18825.2" cy="23185" r="165" /> 
<circle cx="20275.2" cy="16685" r="165" /> 
<circle cx="34525.2" cy="10110" r="165" /> 
<circle cx="35850.2" cy="10110" r="165" /> 
<circle cx="21800.2" cy="12135" r="165" /> 
<circle cx="20100.2" cy="12135" r="165" /> 
<circle cx="19750.2" cy="11210" r="165" /> 
<circle cx="22350.2" cy="11210" r="165" /> 
<circle cx="35850.2" cy="9510" r="165" /> 
<circle cx="29575.2" cy="10410" r="165" /> 
<circle cx="34525.2" cy="9510" r="165" /> 
<circle cx="27575.2" cy="15760" r="165" /> 
<circle cx="23075.2" cy="21810" r="165" /> 
<circle cx="25075.2" cy="21410" r="165" /> 
<circle cx="11250.2" cy="13710" r="165" /> 
<circle cx="17325.2" cy="17060" r="165" /> 
<circle cx="6525.24" cy="12435" r="165" /> 
<circle cx="8875.24" cy="13885" r="165" /> 
<circle cx="35750.2" cy="19535" r="165" /> 
<circle cx="9450.24" cy="20810" r="165" /> 
<circle cx="4525.24" cy="13285" r="165" /> 
<circle cx="9800.24" cy="18785" r="165" /> 
<circle cx="6800.24" cy="17060" r="165" /> 
<circle cx="5000.24" cy="23810" r="165" /> 
<circle cx="14975.2" cy="18285" r="165" /> 
<circle cx="9675.24" cy="8410" r="165" /> 
<circle cx="30000.2" cy="7935" r="165" /> 
<circle cx="27150.2" cy="7635" r="165" /> 
<circle cx="8400.24" cy="10160" r="165" /> 
<circle cx="13725.2" cy="8410" r="165" /> 
<circle cx="23600.2" cy="7635" r="165" /> 
<circle cx="19575.2" cy="12035" r="165" /> 
<circle cx="14725.2" cy="8260" r="165" /> 
<circle cx="12325.2" cy="10810" r="165" /> 
<circle cx="20100.2" cy="8035" r="165" /> 
<circle cx="23525.2" cy="11560" r="165" /> 
<circle cx="13950.2" cy="13185" r="165" /> 
<circle cx="11950.2" cy="13085" r="165" /> 
<circle cx="27125.2" cy="9435" r="165" /> 
<circle cx="17975.2" cy="12110" r="165" /> 
<circle cx="16375.2" cy="4935" r="165" /> 
<circle cx="34350.2" cy="7110" r="165" /> 
<circle cx="35250.2" cy="7110" r="165" /> 
<circle cx="12175.2" cy="9835" r="165" /> 
<circle cx="17550.2" cy="15535" r="165" /> 
<circle cx="21450.2" cy="12510" r="165" /> 
<circle cx="27050.2" cy="14910" r="165" /> 
<circle cx="23875.2" cy="12885" r="165" /> 
<circle cx="22100.2" cy="14935" r="165" /> 
<circle cx="14175.2" cy="14160" r="165" /> 
<circle cx="29100.2" cy="8085" r="165" /> 
<circle cx="19450.2" cy="8885" r="165" /> 
<circle cx="7400.24" cy="9785" r="165" /> 
<circle cx="15450.2" cy="9960" r="165" /> 
<circle cx="15125.2" cy="7910" r="165" /> 
<circle cx="18625.2" cy="6660" r="165" /> 
<circle cx="24625.2" cy="22735" r="165" /> 
<circle cx="18625.2" cy="7910" r="165" /> 
<circle cx="11700.2" cy="12260" r="165" /> 
<circle cx="9200.24" cy="12610" r="165" /> 
<circle cx="22000.2" cy="10860" r="165" /> 
<circle cx="15475.2" cy="12110" r="165" /> 
<circle cx="19275.2" cy="10860" r="165" /> 
<circle cx="11150.2" cy="15110" r="165" /> 
<circle cx="19450.2" cy="9885" r="165" /> 
<circle cx="7975.24" cy="21810" r="165" /> 
<circle cx="14575.2" cy="16135" r="165" /> 
<circle cx="17900.2" cy="17060" r="165" /> 
<circle cx="21025.2" cy="23060" r="165" /> 
<circle cx="10825.2" cy="18835" r="165" /> 
<circle cx="18800.2" cy="19085" r="165" /> 
<circle cx="17525.2" cy="10460" r="165" /> 
<circle cx="35925.2" cy="6735" r="165" /> 
<circle cx="5225.24" cy="8710" r="165" /> 
<circle cx="6475.24" cy="15885" r="165" /> 
<circle cx="20725.2" cy="16285" r="165" /> 
<circle cx="10775.2" cy="17610" r="165" /> 
<circle cx="20125.2" cy="24785" r="165" /> 
<circle cx="9375.24" cy="10185" r="165" /> 
<circle cx="7525.24" cy="12910" r="165" /> 
<circle cx="23500.2" cy="13360" r="165" /> 
<circle cx="24250.2" cy="23885" r="165" /> 
<circle cx="16775.2" cy="16610" r="165" /> 
<circle cx="26575.2" cy="22710" r="165" /> 
<circle cx="24725.2" cy="16110" r="165" /> 
<circle cx="16375.2" cy="13310" r="165" /> 
<circle cx="13675.2" cy="14160" r="165" /> 
</g>
<g style="fill:#840000; fill-opacity:1.0; 
stroke:#840000; stroke-width:200; stroke-opacity:1; 
stroke-linecap:round; stroke-linejoin:round;">
<path d="M35900 9097
L36663 9097
" />
<path d="M36663 9097
L37125 8635
" />
<path d="M31750 23710
L32750 23710
" />
<path d="M13175 16735
L13175 17160
" />
<path d="M9674 10761
L9175 11260
" />
<path d="M32300 12210
L30850 12210
" />
<path d="M30750 23710
L30550 23710
" />
<path d="M14725 10010
L14725 9535
" />
<path d="M10450 14235
L10750 13935
" />
<path d="M35025 10285
L34800 10510
" />
<path d="M35025 9410
L35025 10285
" />
<path d="M35338 9097
L35025 9410
" />
<path d="M34800 10510
L32925 10510
" />
<path d="M14225 10010
L14725 10010
" />
<path d="M9674 10433
L9864 10243
" />
<path d="M30750 23710
L31750 23710
" />
<path d="M25750 23160
L24750 24160
" />
<path d="M32550 10885
L32925 10510
" />
<path d="M21350 14085
L22025 14085
" />
<path d="M32550 11960
L32550 11210
" />
<path d="M30000 24260
L30000 24635
" />
<path d="M28150 22710
L27200 22710
" />
<path d="M21975 14085
L21350 14085
" />
<path d="M10450 14460
L10450 14235
" />
<path d="M14025 9810
L14225 10010
" />
<path d="M8674 11720
L8674 11433
" />
<path d="M14725 10435
L14725 10010
" />
<path d="M13600 9810
L14025 9810
" />
<path d="M12925 9810
L12925 7735
" />
<path d="M14400 12860
L14200 12660
" />
<path d="M13175 17160
L13675 17660
" />
<path d="M11200 12660
L11200 12260
" />
<path d="M30550 23710
L30000 24260
" />
<path d="M13600 9810
L12925 9810
" />
<path d="M22047 15885
L22550 15382
" />
<path d="M9864 10243
L10275 10243
" />
<path d="M10750 13935
L10750 13110
" />
<path d="M10750 13110
L11200 12660
" />
<path d="M24750 24160
L24750 24710
" />
<path d="M13600 8810
L13600 9310
" />
<path d="M26750 23160
L25750 23160
" />
<path d="M15475 12860
L14725 12860
" />
<path d="M28750 11885
L30525 11885
" />
<path d="M28750 11885
L27550 11885
" />
<path d="M8850 11260
L8850 11257
" />
<path d="M18300 15885
L22047 15885
" />
<path d="M13600 9310
L13600 9810
" />
<path d="M14200 12660
L11200 12660
" />
<path d="M27200 22710
L26750 23160
" />
<path d="M9175 11260
L8850 11260
" />
<path d="M32000 11210
L32550 11210
" />
<path d="M9674 10433
L9674 10761
" />
<path d="M14725 12860
L14400 12860
" />
<path d="M22025 14085
L22550 14610
" />
<path d="M8674 11433
L8850 11257
" />
<path d="M35900 9097
L35338 9097
" />
<path d="M10450 15360
L10450 14460
" />
<path d="M22550 14610
L22550 15382
" />
<path d="M32550 11210
L32550 10885
" />
<path d="M32300 12210
L32550 11960
" />
<path d="M30850 12210
L30525 11885
" />
<path d="M14850 19835
L14175 19835
" />
<path d="M14875 19810
L14850 19835
" />
<path d="M15900 19810
L14875 19810
" />
<path d="M18100 23185
L17200 23185
" />
<path d="M13175 24835
L13175 25835
" />
<path d="M18825 23185
L18100 23185
" />
<path d="M18100 24110
L18100 23185
" />
<path d="M25575 19660
L24600 18685
" />
</g>
<g style="fill:#840000; fill-opacity:1.0; 
stroke:#840000; stroke-width:150; stroke-opacity:1; 
stroke-linecap:round; stroke-linejoin:round;">
<path d="M22075 18385
L22075 16685
" />
</g>
<g style="fill:#840000; fill-opacity:1.0; 
stroke:#840000; stroke-width:200; stroke-opacity:1; 
stroke-linecap:round; stroke-linejoin:round;">
<path d="M22375 18685
L22075 18385
" />
<path d="M26125 16535
L28275 14385
" />
<path d="M25575 20560
L25575 19660
" />
<path d="M22525 16535
L26125 16535
" />
<path d="M28275 14385
L28750 14385
" />
<path d="M24600 18685
L22375 18685
" />
<path d="M22050 16685
L22375 16685
" />
<path d="M20275 16685
L22050 16685
" />
<path d="M22075 16685
L22050 16685
" />
<path d="M22525 16535
L22375 16685
" />
</g>
<g style="fill:#840000; fill-opacity:1.0; 
stroke:#840000; stroke-width:100; stroke-opacity:1; 
stroke-linecap:round; stroke-linejoin:round;">
<path d="M35850 10110
L36650 10110
" />
<path d="M36650 10110
L37125 9635
" />
<path d="M34525 10110
L31950 10110
" />
<path d="M31600 10460
L31600 11685
" />
<path d="M31950 10110
L31600 10460
" />
<path d="M31600 11685
L32000 11685
" />
<path d="M31200 11685
L32000 11685
" />
<path d="M37125 5635
L36550 5635
" />
<path d="M36550 5635
L35925 6260
" />
<path d="M32600 6835
L32600 6410
" />
<path d="M32600 6410
L32750 6260
" />
<path d="M32750 6260
L35925 6260
" />
<path d="M32600 6835
L31825 6835
" />
<path d="M20100 12135
L21800 12135
" />
<path d="M19575 21360
L19375 21560
" />
<path d="M19575 20560
L19575 21360
" />
<path d="M15450 21560
L14175 22835
" />
<path d="M19375 21560
L15450 21560
" />
<path d="M22350 11210
L19750 11210
" />
<path d="M37125 10635
L35625 10635
" />
<path d="M30175 10410
L31075 9510
" />
<path d="M35625 10635
L35450 10460
" />
<path d="M29575 10410
L30175 10410
" />
<path d="M35450 9910
L35850 9510
" />
<path d="M34525 9510
L31075 9510
" />
<path d="M35450 10460
L35450 9910
" />
<path d="M31075 6835
L31075 6385
" />
<path d="M31075 6385
L31750 5710
" />
<path d="M22750 16860
L22575 17035
" />
<path d="M22575 17035
L22575 17560
" />
<path d="M14750 23835
L14750 24260
" />
<path d="M16450 22135
L14750 23835
" />
<path d="M22000 22135
L16450 22135
" />
<path d="M14750 24260
L14175 24835
" />
<path d="M22000 22135
L22325 21810
" />
<path d="M22750 16860
L26475 16860
" />
<path d="M22325 21810
L23075 21810
" />
<path d="M26475 16860
L27575 15760
" />
<path d="M37125 6635
L36600 6635
" />
<path d="M35550 7685
L32900 7685
" />
<path d="M36600 6635
L35550 7685
" />
<path d="M29750 6810
L29750 5710
" />
<path d="M30625 7685
L29750 6810
" />
<path d="M32900 7685
L30625 7685
" />
<path d="M21750 21785
L22075 21460
" />
<path d="M16225 21785
L14175 23835
" />
<path d="M22075 19235
L21575 18735
" />
<path d="M22075 19235
L22075 21460
" />
<path d="M22125 21410
L25075 21410
" />
<path d="M21750 21785
L22125 21410
" />
<path d="M21750 21785
L16225 21785
" />
<path d="M21575 17560
L21575 18735
" />
</g>
<g style="fill:#840000; fill-opacity:1.0; 
stroke:#840000; stroke-width:200; stroke-opacity:1; 
stroke-linecap:round; stroke-linejoin:round;">
<path d="M6100 20810
L9450 20810
" />
<path d="M26275 23660
L25750 24185
" />
<path d="M25750 24710
L25750 24185
" />
<path d="M28750 16160
L28750 15385
" />
<path d="M26575 17258
L27223 16610
" />
<path d="M4525 12660
L4525 13285
" />
<path d="M9650 17610
L9650 18110
" />
<path d="M9400 16385
L9400 16110
" />
<path d="M12675 13710
L12650 13710
" />
<path d="M9400 16110
L8875 16110
" />
<path d="M27223 16610
L28300 16610
" />
<path d="M17400 12860
L16200 12860
" />
<path d="M6075 17210
L6650 17210
" />
<path d="M7475 17060
L6800 17060
" />
<path d="M27150 23660
L26275 23660
" />
<path d="M30750 15385
L28750 15385
" />
<path d="M18375 13235
L18000 12860
" />
<path d="M8875 16110
L8875 15260
" />
<path d="M28300 16610
L28750 16160
" />
<path d="M34750 23710
L35750 23710
" />
<path d="M9650 17110
L9650 16635
" />
<path d="M18375 14085
L18375 13235
" />
<path d="M9650 18110
L9650 18585
" />
<path d="M15625 13435
L15325 13435
" />
<path d="M5425 22010
L5425 23385
" />
<path d="M29600 22110
L35425 22110
" />
<path d="M15000 18310
L14975 18285
" />
<path d="M15900 18310
L15000 18310
" />
<path d="M11250 14160
L11250 13710
" />
<path d="M12675 14835
L12675 13710
" />
<path d="M8400 15260
L7725 15260
" />
<path d="M5000 25660
L5000 23810
" />
<path d="M8225 17060
L8775 17610
" />
<path d="M35750 19535
L35750 21785
" />
<path d="M35750 21785
L35425 22110
" />
<path d="M6100 21335
L6100 20810
" />
<path d="M9650 17610
L8775 17610
" />
<path d="M27525 23285
L27150 23660
" />
<path d="M9650 18585
L9800 18785
" />
<path d="M17050 18310
L15900 18310
" />
<path d="M6525 12435
L4750 12435
" />
<path d="M8875 15360
L8875 15260
" />
<path d="M5700 17210
L5550 17060
" />
<path d="M14125 13710
L14400 13435
" />
<path d="M15325 14060
L15325 13435
" />
<path d="M8500 15360
L8400 15260
" />
<path d="M12650 13710
L11250 13710
" />
<path d="M16200 12860
L15625 13435
" />
<path d="M9650 16635
L9400 16385
" />
<path d="M4750 12435
L4525 12660
" />
<path d="M17325 17060
L17325 18035
" />
<path d="M26575 17560
L26575 17258
" />
<path d="M14125 13710
L12650 13710
" />
<path d="M8875 13885
L8875 15260
" />
<path d="M5425 23385
L5000 23810
" />
<path d="M5550 17060
L4975 17060
" />
<path d="M6075 17210
L5700 17210
" />
<path d="M18000 12860
L17400 12860
" />
<path d="M5425 22010
L6100 21335
" />
<path d="M15325 13435
L14400 13435
" />
<path d="M17325 18035
L17050 18310
" />
<path d="M9650 17110
L9650 17610
" />
<path d="M33750 23710
L34750 23710
" />
<path d="M6650 17210
L6800 17060
" />
<path d="M7725 15260
L7125 15260
" />
<path d="M8225 17060
L7475 17060
" />
<path d="M9400 15360
L8875 15360
" />
<path d="M8875 15360
L8500 15360
" />
<path d="M28425 23285
L27525 23285
" />
<path d="M29600 22110
L28425 23285
" />
</g>
<g style="fill:#840000; fill-opacity:1.0; 
stroke:#840000; stroke-width:100; stroke-opacity:1; 
stroke-linecap:round; stroke-linejoin:round;">
<path d="M9834 8944
L9675 8785
" />
<path d="M23150 7635
L19425 7635
" />
<path d="M19125 7335
L19425 7635
" />
<path d="M8925 9635
L8400 10160
" />
<path d="M13925 7335
L19125 7335
" />
<path d="M23150 7635
L23150 5710
" />
<path d="M27150 7635
L29700 7635
" />
<path d="M13725 7535
L13925 7335
" />
<path d="M13725 8410
L13725 7535
" />
<path d="M29700 7635
L30000 7935
" />
<path d="M9675 8785
L9675 8410
" />
<path d="M23600 7635
L23150 7635
" />
<path d="M10275 8944
L9834 8944
" />
<path d="M9150 8410
L9675 8410
" />
<path d="M8925 8635
L8925 9635
" />
<path d="M8925 8635
L9150 8410
" />
<path d="M11500 10810
L12325 10810
" />
<path d="M24150 5710
L24150 7685
" />
<path d="M17025 20435
L14575 20435
" />
<path d="M19575 12035
L19575 11910
" />
<path d="M23800 8035
L20100 8035
" />
<path d="M14725 8785
L14725 8260
" />
<path d="M21575 20560
L21575 19710
" />
<path d="M17900 19560
L17025 20435
" />
<path d="M21425 19560
L17900 19560
" />
<path d="M20100 8035
L19400 8035
" />
<path d="M14575 20435
L14175 20835
" />
<path d="M14725 7785
L14950 7560
" />
<path d="M30250 12485
L30500 12735
" />
<path d="M24250 11985
L24425 12160
" />
<path d="M26625 13085
L24600 13085
" />
<path d="M21575 19710
L21425 19560
" />
<path d="M22750 11785
L22950 11985
" />
<path d="M22950 11985
L24250 11985
" />
<path d="M24600 13085
L24425 12910
" />
<path d="M27225 12485
L26625 13085
" />
<path d="M27225 12485
L30250 12485
" />
<path d="M24425 12910
L24425 12160
" />
<path d="M19700 11785
L22750 11785
" />
<path d="M31125 12735
L31250 12860
" />
<path d="M14950 7560
L18925 7560
" />
<path d="M30500 12735
L31125 12735
" />
<path d="M14725 8260
L14725 7785
" />
<path d="M31250 12860
L31250 13885
" />
<path d="M31250 13885
L30750 14385
" />
<path d="M18925 7560
L19400 8035
" />
<path d="M19575 11910
L19700 11785
" />
<path d="M24150 7685
L23800 8035
" />
<path d="M32575 17560
L32575 19035
" />
<path d="M32575 17560
L32575 13660
" />
<path d="M32350 19260
L32575 19035
" />
<path d="M28300 19260
L32350 19260
" />
<path d="M28075 19485
L28300 19260
" />
<path d="M23750 22435
L23750 24710
" />
<path d="M27125 12260
L26950 12085
" />
<path d="M28075 19485
L28075 21785
" />
<path d="M18525 11560
L17975 12110
" />
<path d="M13425 13185
L13950 13185
" />
<path d="M16950 11060
L16950 9010
" />
<path d="M23525 11560
L18525 11560
" />
<path d="M17975 12110
L17400 12110
" />
<path d="M11950 13085
L13325 13085
" />
<path d="M27125 12260
L30525 12260
" />
<path d="M16950 11060
L16950 11260
" />
<path d="M30525 12260
L30750 12485
" />
<path d="M24250 11560
L24775 12085
" />
<path d="M31575 12485
L30750 12485
" />
<path d="M32300 13385
L31750 13385
" />
<path d="M13325 13085
L13425 13185
" />
<path d="M24175 22010
L23750 22435
" />
<path d="M17400 11710
L17400 12110
" />
<path d="M24175 22010
L27850 22010
" />
<path d="M16950 11260
L17400 11710
" />
<path d="M24775 12085
L26950 12085
" />
<path d="M27125 9435
L29050 9435
" />
<path d="M31750 13385
L31750 12660
" />
<path d="M32575 13660
L32300 13385
" />
<path d="M28075 21785
L27850 22010
" />
<path d="M31750 12660
L31575 12485
" />
<path d="M23525 11560
L24250 11560
" />
<path d="M35525 4785
L16525 4785
" />
<path d="M35750 5010
L35750 5710
" />
<path d="M34350 7110
L35250 7110
" />
<path d="M16525 4785
L16375 4935
" />
<path d="M35525 4785
L35750 5010
" />
</g>
<g style="fill:#840000; fill-opacity:1.0; 
stroke:#840000; stroke-width:200; stroke-opacity:1; 
stroke-linecap:round; stroke-linejoin:round;">
<path d="M5775 13035
L6800 13035
" />
<path d="M5375 11310
L5225 11160
" />
<path d="M7125 12710
L7125 11585
" />
<path d="M6525 14760
L5750 14760
" />
<path d="M5750 14760
L5500 14510
" />
<path d="M7125 11585
L6850 11310
" />
<path d="M4325 6810
L4325 6035
" />
<path d="M5500 14510
L5500 13310
" />
<path d="M4325 6035
L4875 5485
" />
<path d="M7125 14760
L6525 14760
" />
<path d="M6850 11310
L5375 11310
" />
<path d="M5225 10585
L5225 11160
" />
<path d="M5500 13310
L5775 13035
" />
<path d="M4475 6960
L4475 9835
" />
<path d="M4475 9835
L5225 10585
" />
<path d="M6800 13035
L7125 12710
" />
<path d="M4325 6810
L4475 6960
" />
</g>
<g style="fill:#840000; fill-opacity:1.0; 
stroke:#840000; stroke-width:100; stroke-opacity:1; 
stroke-linecap:round; stroke-linejoin:round;">
<path d="M22150 7010
L22150 5710
" />
<path d="M29350 13885
L29575 14110
" />
<path d="M27450 13885
L29350 13885
" />
<path d="M23500 12510
L23875 12885
" />
<path d="M27050 14910
L27050 14285
" />
<path d="M19500 7285
L21875 7285
" />
<path d="M27050 14285
L27450 13885
" />
<path d="M29575 14710
L29750 14885
" />
<path d="M12375 7110
L12175 7310
" />
<path d="M29575 14110
L29575 14710
" />
<path d="M21875 7285
L22150 7010
" />
<path d="M14175 14835
L14175 14160
" />
<path d="M12375 7110
L19325 7110
" />
<path d="M31250 14885
L29750 14885
" />
<path d="M12175 7735
L12175 9310
" />
<path d="M12175 7310
L12175 7735
" />
<path d="M19325 7110
L19500 7285
" />
<path d="M22100 15285
L22100 14935
" />
<path d="M17550 15535
L21850 15535
" />
<path d="M31250 14885
L31750 14385
" />
<path d="M21450 12510
L23500 12510
" />
<path d="M11500 9310
L12175 9310
" />
<path d="M21850 15535
L22100 15285
" />
<path d="M12175 9835
L12175 9310
" />
<path d="M17350 5985
L9575 5985
" />
<path d="M9375 6185
L9575 5985
" />
<path d="M9375 6860
L9375 6185
" />
<path d="M29100 8085
L24225 8085
" />
<path d="M9125 7110
L9375 6860
" />
<path d="M24225 8085
L23425 8885
" />
<path d="M23425 8885
L19450 8885
" />
<path d="M17350 5985
L17625 5710
" />
<path d="M5075 9785
L4775 9485
" />
<path d="M9125 7110
L5450 7110
" />
<path d="M17625 5710
L18150 5710
" />
<path d="M18025 8285
L15625 8285
" />
<path d="M18625 8885
L18025 8285
" />
<path d="M15450 8460
L15450 9960
" />
<path d="M7400 9785
L5075 9785
" />
<path d="M4775 9485
L4775 7785
" />
<path d="M5450 7110
L4775 7785
" />
<path d="M15625 8285
L15450 8460
" />
<path d="M19450 8885
L18625 8885
" />
<path d="M31575 20560
L31575 21310
" />
<path d="M31375 21510
L29227 21510
" />
<path d="M31575 21310
L31375 21510
" />
<path d="M19150 5710
L19150 6460
" />
<path d="M18625 7910
L15125 7910
" />
<path d="M24750 22235
L28502 22235
" />
<path d="M18625 6660
L18950 6660
" />
<path d="M18950 6660
L19150 6460
" />
<path d="M24750 22235
L24625 22360
" />
<path d="M29227 21510
L29075 21662
" />
<path d="M24625 22360
L24625 22735
" />
<path d="M29075 21662
L28502 22235
" />
<path d="M10275 9810
L11500 9810
" />
<path d="M9650 11235
L9650 12160
" />
<path d="M10275 11109
L9776 11109
" />
<path d="M11700 12260
L12600 12260
" />
<path d="M9650 12160
L9200 12610
" />
<path d="M9776 11109
L9650 11235
" />
<path d="M13050 11810
L13600 11810
" />
<path d="M12600 12260
L13050 11810
" />
<path d="M11000 11310
L10900 11210
" />
<path d="M10900 10760
L10816 10676
" />
<path d="M10816 10676
L10275 10676
" />
<path d="M10900 11210
L10900 10760
" />
<path d="M11500 11310
L11000 11310
" />
<path d="M16850 20985
L15025 20985
" />
<path d="M22000 10860
L19275 10860
" />
<path d="M14725 12110
L15475 12110
" />
<path d="M20450 19810
L18025 19810
" />
<path d="M13600 11310
L13925 11310
" />
<path d="M20575 20560
L20575 19935
" />
<path d="M18025 19810
L16850 20985
" />
<path d="M15025 20985
L14175 21835
" />
<path d="M20575 19935
L20450 19810
" />
<path d="M13925 11310
L14725 12110
" />
<path d="M13900 17410
L14875 17410
" />
<path d="M13675 17185
L13900 17410
" />
<path d="M15050 17235
L14875 17410
" />
<path d="M13675 16735
L13675 17185
" />
<path d="M15050 16885
L16025 16885
" />
<path d="M15050 16885
L15050 17235
" />
<path d="M12000 14160
L12000 14435
" />
<path d="M12675 16735
L12675 15885
" />
<path d="M12000 14435
L12200 14635
" />
<path d="M12200 15410
L12200 14635
" />
<path d="M12675 15885
L12200 15410
" />
</g>
<g style="fill:#840000; fill-opacity:1.0; 
stroke:#840000; stroke-width:200; stroke-opacity:1; 
stroke-linecap:round; stroke-linejoin:round;">
<path d="M9875 21560
L9675 21760
" />
<path d="M10825 21335
L10600 21560
" />
<path d="M10825 20935
L10825 21335
" />
<path d="M9675 21760
L9675 23035
" />
<path d="M10600 21560
L9875 21560
" />
<path d="M19450 9885
L24425 9885
" />
<path d="M24625 10085
L24425 9885
" />
<path d="M29925 9885
L26825 9885
" />
<path d="M30075 9735
L30075 9285
" />
<path d="M30375 8985
L33150 8985
" />
<path d="M26625 10085
L24625 10085
" />
<path d="M29925 9885
L30075 9735
" />
<path d="M11150 15110
L11625 15110
" />
<path d="M33150 8985
L33750 8385
" />
<path d="M26825 9885
L26625 10085
" />
<path d="M30375 8985
L30075 9285
" />
<path d="M7975 21810
L7800 21635
" />
<path d="M6575 21635
L6225 21985
" />
<path d="M6225 24060
L6500 24335
" />
<path d="M6225 21985
L6225 24060
" />
<path d="M7800 21635
L6575 21635
" />
<path d="M6500 24335
L6500 25660
" />
<path d="M6100 18585
L6700 19185
" />
<path d="M18400 17060
L17900 17060
" />
<path d="M8925 19185
L6700 19185
" />
<path d="M6075 17960
L4975 17960
" />
<path d="M4975 18360
L5200 18585
" />
<path d="M9200 20010
L10825 20010
" />
<path d="M10825 20010
L10825 18835
" />
<path d="M15050 16135
L14575 16135
" />
<path d="M4975 17960
L4975 18360
" />
<path d="M9200 19460
L8925 19185
" />
<path d="M9200 20010
L9200 19460
" />
<path d="M5200 18585
L6100 18585
" />
<path d="M18800 19085
L18800 17460
" />
<path d="M18800 17460
L18400 17060
" />
<path d="M21025 25310
L21025 23060
" />
<path d="M28750 25085
L28750 24710
" />
<path d="M28150 25685
L21400 25685
" />
<path d="M21400 25685
L21025 25310
" />
<path d="M28750 25085
L28150 25685
" />
<path d="M31200 11210
L27175 11210
" />
<path d="M24175 10460
L24800 11085
" />
<path d="M17525 10460
L24175 10460
" />
<path d="M24800 11085
L27050 11085
" />
<path d="M27175 11210
L27050 11085
" />
</g>
<g style="fill:#840000; fill-opacity:1.0; 
stroke:#840000; stroke-width:100; stroke-opacity:1; 
stroke-linecap:round; stroke-linejoin:round;">
<path d="M27075 19135
L27275 18935
" />
<path d="M15025 24209
L15025 24985
" />
<path d="M15025 24985
L14175 25835
" />
<path d="M16724 22510
L15025 24209
" />
<path d="M23775 21785
L23050 22510
" />
<path d="M26925 21785
L23775 21785
" />
<path d="M27075 19135
L27075 21635
" />
<path d="M28400 18935
L28575 18760
" />
<path d="M28575 17560
L28575 18760
" />
<path d="M27275 18935
L28400 18935
" />
<path d="M26925 21785
L27075 21635
" />
<path d="M23050 22510
L16724 22510
" />
<path d="M30100 8385
L29850 8635
" />
<path d="M29850 8635
L29050 8635
" />
<path d="M30750 8385
L30100 8385
" />
</g>
<g style="fill:#840000; fill-opacity:1.0; 
stroke:#840000; stroke-width:200; stroke-opacity:1; 
stroke-linecap:round; stroke-linejoin:round;">
<path d="M33950 6835
L33350 6835
" />
<path d="M34225 6560
L33950 6835
" />
<path d="M35750 6560
L34225 6560
" />
<path d="M35925 6735
L35750 6560
" />
<path d="M29500 22710
L28575 23635
" />
<path d="M28575 23635
L28025 23635
" />
<path d="M28025 23635
L27750 23910
" />
<path d="M20125 24785
L20125 24310
" />
<path d="M37125 7635
L36500 7635
" />
<path d="M36500 7635
L35750 8385
" />
<path d="M16775 16610
L19300 16610
" />
<path d="M10275 9377
L10683 9377
" />
<path d="M11500 11810
L12550 11810
" />
<path d="M17400 14935
L16775 15560
" />
<path d="M19625 16285
L20725 16285
" />
<path d="M16025 16135
L16025 15560
" />
<path d="M9400 15735
L9800 15735
" />
<path d="M10683 9377
L10867 9193
" />
<path d="M20725 16285
L22176 16285
" />
<path d="M10775 17610
L10450 17610
" />
<path d="M15450 11060
L15275 11235
" />
<path d="M8275 7684
L8275 9085
" />
<path d="M16775 15560
L16075 15560
" />
<path d="M23500 16110
L23475 16110
" />
<path d="M13975 10810
L13600 10810
" />
<path d="M10121 13425
L9650 13425
" />
<path d="M17400 14860
L17400 14935
" />
<path d="M11575 16910
L11575 17610
" />
<path d="M7725 20010
L7400 20035
" />
<path d="M14550 15560
L15325 15560
" />
<path d="M27750 23910
L27750 24710
" />
<path d="M25425 22710
L24250 23885
" />
<path d="M22176 16285
L22351 16110
" />
<path d="M16775 16610
L16775 15560
" />
<path d="M8725 10835
L9375 10185
" />
<path d="M10121 12164
L10250 12035
" />
<path d="M8275 12910
L7525 12910
" />
<path d="M7825 9535
L8275 9085
" />
<path d="M8851 7684
L8987 7548
" />
<path d="M4975 16160
L6200 16160
" />
<path d="M23500 14085
L23500 16110
" />
<path d="M9925 15160
L9650 14885
" />
<path d="M31750 22710
L32750 22710
" />
<path d="M14175 16735
L14175 15935
" />
<path d="M9375 9735
L9375 10185
" />
<path d="M9650 14885
L9650 14460
" />
<path d="M25575 18610
L25575 17560
" />
<path d="M26575 22710
L25425 22710
" />
<path d="M32750 22710
L33750 22710
" />
<path d="M12175 18835
L12175 17960
" />
<path d="M34750 22710
L35750 22710
" />
<path d="M23500 13360
L23500 14085
" />
<path d="M20350 14060
L20350 13585
" />
<path d="M27850 12785
L26550 14085
" />
<path d="M12175 24835
L12175 25835
" />
<path d="M10275 9377
L9733 9377
" />
<path d="M10450 17110
L10450 17610
" />
<path d="M6100 20010
L7725 20010
" />
<path d="M8275 7684
L8851 7684
" />
<path d="M6200 16160
L6475 15885
" />
<path d="M5550 20010
L5275 20285
" />
<path d="M9925 15610
L9925 15160
" />
<path d="M26550 14085
L23500 14085
" />
<path d="M9733 9377
L9375 9735
" />
<path d="M19625 16285
L19300 16610
" />
<path d="M8987 7548
L10039 7548
" />
<path d="M6888 13747
L6191 13747
" />
<path d="M11500 10310
L12550 10310
" />
<path d="M14400 11235
L13975 10810
" />
<path d="M11575 17610
L11550 17610
" />
<path d="M16250 11060
L15450 11060
" />
<path d="M6191 7684
L8275 7684
" />
<path d="M30750 22710
L29500 22710
" />
<path d="M9800 15735
L9925 15610
" />
<path d="M16250 9010
L16250 11060
" />
<path d="M15275 11235
L14725 11235
" />
<path d="M8275 13425
L8525 13425
" />
<path d="M12775 11585
L12775 10810
" />
<path d="M8025 10835
L8275 10835
" />
<path d="M33750 22710
L34750 22710
" />
<path d="M5275 20285
L4750 20285
" />
<path d="M15325 15560
L16075 15560
" />
<path d="M7825 9535
L7825 10635
" />
<path d="M30750 22710
L31750 22710
" />
<path d="M6100 20010
L5550 20010
" />
<path d="M10925 11810
L10700 12035
" />
<path d="M11500 11810
L10925 11810
" />
<path d="M23475 16110
L22351 16110
" />
<path d="M20125 24310
L19900 24085
" />
<path d="M14175 15935
L14550 15560
" />
<path d="M30750 13385
L29650 13385
" />
<path d="M15325 14860
L15325 15560
" />
<path d="M7825 10635
L8025 10835
" />
<path d="M7210 13425
L6888 13747
" />
<path d="M5225 8060
L5225 8710
" />
<path d="M27850 12785
L29050 12785
" />
<path d="M9650 13425
L8525 13425
" />
<path d="M9650 14460
L9650 13425
" />
<path d="M10775 17610
L11550 17610
" />
<path d="M10450 17610
L10450 18110
" />
<path d="M12775 10810
L12775 10535
" />
<path d="M26575 19610
L25575 18610
" />
<path d="M8275 10835
L8725 10835
" />
<path d="M12775 10810
L13600 10810
" />
<path d="M8275 12910
L8275 13425
" />
<path d="M8275 10835
L8275 12910
" />
<path d="M10250 12035
L10700 12035
" />
<path d="M24725 16110
L23475 16110
" />
<path d="M10867 9043
L10867 9193
" />
<path d="M26575 20560
L26575 19610
" />
<path d="M14725 11235
L14400 11235
" />
<path d="M12175 17960
L11825 17610
" />
<path d="M12550 11810
L12775 11585
" />
<path d="M6191 7684
L5601 7684
" />
<path d="M5601 7684
L5225 8060
" />
<path d="M16025 15560
L16075 15560
" />
<path d="M12550 10310
L12775 10535
" />
<path d="M8525 13425
L7210 13425
" />
<path d="M10121 13425
L10121 12164
" />
<path d="M23500 13360
L20575 13360
" />
<path d="M11550 17610
L11825 17610
" />
<path d="M11100 8810
L10867 9043
" />
<path d="M11500 8810
L11100 8810
" />
<path d="M20575 13360
L20350 13585
" />
<path d="M29650 13385
L29050 12785
" />
<path d="M19350 14060
L20350 14060
" />
</g>
<g style="fill:#840000; fill-opacity:1.0; 
stroke:#840000; stroke-width:100; stroke-opacity:1; 
stroke-linecap:round; stroke-linejoin:round;">
<path d="M11575 16110
L10450 16110
" />
<path d="M19325 14835
L19350 14860
" />
<path d="M18375 14835
L19325 14835
" />
<path d="M16375 14835
L16625 14835
" />
<path d="M16625 14835
L17400 14060
" />
<path d="M16375 14085
L16375 13310
" />
<path d="M13675 14160
L13675 14835
" />
<path d="M13175 14835
L13675 14835
" />
<path d="M21350 14835
L20375 14835
" />
<path d="M20375 14835
L20350 14860
" />
</g>
<g style="fill:#840000; fill-opacity:1.0; 
stroke:#840000; stroke-width:20; stroke-opacity:1; 
stroke-linecap:round; stroke-linejoin:round;">
<polyline style="fill-rule:evenodd;"
points="9925,18910
9595,18910
9595,18615
9595,18165
9595,18055
9595,17615
9595,17605
9595,17165
9595,17055
9595,16605
9520,16530
9380,16529
9270,16575
9186,16659
9140,16770
9140,16889
9140,16980
9215,17055
9595,17055
9595,17165
9215,17165
9140,17240
9140,17330
9140,17449
9186,17560
9235,17610
9186,17659
9140,17770
9140,17889
9140,17980
9215,18055
9595,18055
9595,18165
9215,18165
9140,18240
9140,18330
9140,18449
9186,18560
9270,18644
9380,18690
9520,18690
9595,18615
9595,18910
9131,18910
9059,18861
8925,18835
8357,18835
8357,15384
8357,15135
8282,14980
8148,14865
7980,14810
7780,14810
7780,15205
8296,15205
8357,15135
8357,15384
8296,15315
7780,15315
7780,15710
7980,15710
8148,15654
8282,15539
8357,15384
8357,18835
8175,18835
8175,17869
8175,16250
8129,16140
8045,16055
7935,16010
7815,16009
7670,16009
7670,15710
7670,15315
7500,15315
7180,15315
7154,15315
7092,15384
7168,15539
7180,15549
7180,15635
7255,15710
7215,15710
7335,15709
7394,15685
7470,15710
7670,15710
7670,16009
7605,16010
7530,16085
7530,17005
8100,17005
8175,16930
8175,16250
8175,17869
8175,17190
8100,17115
7530,17115
7530,18035
7605,18110
7815,18110
7935,18109
8045,18064
8129,17979
8175,17869
8175,18835
7420,18835
7420,18035
7420,17115
6850,17115
6775,17190
6775,17869
6820,17979
6905,18064
7015,18109
7134,18110
7345,18110
7420,18035
7420,18835
6845,18835
6459,18449
6511,18428
6582,18357
6620,18265
6620,18166
6620,17654
6616,17644
6624,17635
6670,17525
6670,16894
6624,16784
6540,16699
6430,16654
6310,16653
6205,16654
6130,16729
6130,17155
6595,17155
6670,17080
6670,16894
6670,17525
6670,17340
6595,17265
6130,17265
6130,17272
6020,17272
6020,17265
6012,17265
6012,17155
6020,17155
6020,16729
5945,16654
5839,16653
5720,16654
5665,16676
5629,16590
5602,16563
5625,16510
6200,16510
6334,16483
6334,16483
6447,16407
6545,16310
6559,16310
6715,16245
6820,16140
6775,16250
6775,16930
6850,17005
7420,17005
7420,16085
7345,16010
7134,16009
7015,16010
6905,16055
6835,16125
6900,15969
6900,15800
6851,15683
6915,15709
7034,15710
6995,15710
7070,15635
7070,15315
6750,15315
6675,15390
6675,15469
6694,15515
6560,15460
6391,15459
6234,15524
6115,15643
6050,15800
6050,15810
5625,15810
5587,15718
5525,15656
5525,15160
6313,15160
6705,15160
6750,15205
7070,15205
7070,15197
7147,15197
7154,15205
7180,15205
7500,15205
7670,15205
7670,14810
7525,14810
7525,14660
7936,14660
8090,14629
8219,14542
8306,14413
8336,14260
8306,14106
8219,13977
8090,13890
7936,13860
7513,13860
7425,13877
7425,13775
8275,13775
8525,13775
9075,13775
9075,14960
9010,14987
8925,15072
8880,15182
8880,15230
8955,15305
9075,15305
9075,15389
9038,15404
9028,15415
8955,15415
8880,15490
8880,15537
8925,15647
8930,15652
8930,15666
8930,15817
8925,15822
8880,15932
8880,15980
8955,16055
9028,16055
9038,16064
9075,16080
9075,16165
8955,16165
8880,16240
8880,16287
8925,16397
9010,16482
9120,16527
9239,16528
9270,16528
9345,16453
9345,16335
9455,16335
9455,16453
9530,16528
9560,16528
9680,16527
9790,16482
9874,16397
9900,16335
9925,16335
9925,16532
9919,16529
9780,16530
9705,16605
9705,17055
9713,17055
9713,17165
9705,17165
9705,17605
9705,17615
9705,18055
9713,18055
9713,18165
9705,18165
9705,18615
9780,18690
9919,18690
9925,18687
9925,18910
" /> 
</g>
<g style="fill:#840000; fill-opacity:0.0; 
stroke:#840000; stroke-width:100; stroke-opacity:1; 
stroke-linecap:round; stroke-linejoin:round;">
<polyline fill="none;"
points="9925,18910
9595,18910
9595,18615
9595,18165
9595,18055
9595,17615
9595,17605
9595,17165
9595,17055
9595,16605
9520,16530
9380,16529
9270,16575
9186,16659
9140,16770
9140,16889
9140,16980
9215,17055
9595,17055
9595,17165
9215,17165
9140,17240
9140,17330
9140,17449
9186,17560
9235,17610
9186,17659
9140,17770
9140,17889
9140,17980
9215,18055
9595,18055
9595,18165
9215,18165
9140,18240
9140,18330
9140,18449
9186,18560
9270,18644
9380,18690
9520,18690
9595,18615
9595,18910
9131,18910
9059,18861
8925,18835
8357,18835
8357,15384
8357,15135
8282,14980
8148,14865
7980,14810
7780,14810
7780,15205
8296,15205
8357,15135
8357,15384
8296,15315
7780,15315
7780,15710
7980,15710
8148,15654
8282,15539
8357,15384
8357,18835
8175,18835
8175,17869
8175,16250
8129,16140
8045,16055
7935,16010
7815,16009
7670,16009
7670,15710
7670,15315
7500,15315
7180,15315
7154,15315
7092,15384
7168,15539
7180,15549
7180,15635
7255,15710
7215,15710
7335,15709
7394,15685
7470,15710
7670,15710
7670,16009
7605,16010
7530,16085
7530,17005
8100,17005
8175,16930
8175,16250
8175,17869
8175,17190
8100,17115
7530,17115
7530,18035
7605,18110
7815,18110
7935,18109
8045,18064
8129,17979
8175,17869
8175,18835
7420,18835
7420,18035
7420,17115
6850,17115
6775,17190
6775,17869
6820,17979
6905,18064
7015,18109
7134,18110
7345,18110
7420,18035
7420,18835
6845,18835
6459,18449
6511,18428
6582,18357
6620,18265
6620,18166
6620,17654
6616,17644
6624,17635
6670,17525
6670,16894
6624,16784
6540,16699
6430,16654
6310,16653
6205,16654
6130,16729
6130,17155
6595,17155
6670,17080
6670,16894
6670,17525
6670,17340
6595,17265
6130,17265
6130,17272
6020,17272
6020,17265
6012,17265
6012,17155
6020,17155
6020,16729
5945,16654
5839,16653
5720,16654
5665,16676
5629,16590
5602,16563
5625,16510
6200,16510
6334,16483
6334,16483
6447,16407
6545,16310
6559,16310
6715,16245
6820,16140
6775,16250
6775,16930
6850,17005
7420,17005
7420,16085
7345,16010
7134,16009
7015,16010
6905,16055
6835,16125
6900,15969
6900,15800
6851,15683
6915,15709
7034,15710
6995,15710
7070,15635
7070,15315
6750,15315
6675,15390
6675,15469
6694,15515
6560,15460
6391,15459
6234,15524
6115,15643
6050,15800
6050,15810
5625,15810
5587,15718
5525,15656
5525,15160
6313,15160
6705,15160
6750,15205
7070,15205
7070,15197
7147,15197
7154,15205
7180,15205
7500,15205
7670,15205
7670,14810
7525,14810
7525,14660
7936,14660
8090,14629
8219,14542
8306,14413
8336,14260
8306,14106
8219,13977
8090,13890
7936,13860
7513,13860
7425,13877
7425,13775
8275,13775
8525,13775
9075,13775
9075,14960
9010,14987
8925,15072
8880,15182
8880,15230
8955,15305
9075,15305
9075,15389
9038,15404
9028,15415
8955,15415
8880,15490
8880,15537
8925,15647
8930,15652
8930,15666
8930,15817
8925,15822
8880,15932
8880,15980
8955,16055
9028,16055
9038,16064
9075,16080
9075,16165
8955,16165
8880,16240
8880,16287
8925,16397
9010,16482
9120,16527
9239,16528
9270,16528
9345,16453
9345,16335
9455,16335
9455,16453
9530,16528
9560,16528
9680,16527
9790,16482
9874,16397
9900,16335
9925,16335
9925,16532
9919,16529
9780,16530
9705,16605
9705,17055
9713,17055
9713,17165
9705,17165
9705,17605
9705,17615
9705,18055
9713,18055
9713,18165
9705,18165
9705,18615
9780,18690
9919,18690
9925,18687
9925,18910
" /> 
</g>
<g style="fill:#FFFFFF; fill-opacity:0.0; 
stroke:#FFFFFF; stroke-width:20; stroke-opacity:1; 
stroke-linecap:round; stroke-linejoin:round;">
</g>
<g style="fill:#FFFFFF; fill-opacity:1.0; 
stroke:#FFFFFF; stroke-width:20; stroke-opacity:1; 
stroke-linecap:round; stroke-linejoin:round;">
<circle cx="30000.2" cy="24635" r="115" /> 
<circle cx="8674.24" cy="11720" r="115" /> 
<circle cx="13675.2" cy="17660" r="115" /> 
<circle cx="11200.2" cy="12260" r="115" /> 
<circle cx="28150.2" cy="22710" r="115" /> 
<circle cx="28750.2" cy="11885" r="115" /> 
<circle cx="27550.2" cy="11885" r="115" /> 
<circle cx="12925.2" cy="9810" r="115" /> 
<circle cx="15475.2" cy="12860" r="115" /> 
<circle cx="18300.2" cy="15885" r="115" /> 
<circle cx="21975.2" cy="14085" r="115" /> 
<circle cx="17200.2" cy="23185" r="115" /> 
<circle cx="18825.2" cy="23185" r="115" /> 
<circle cx="20275.2" cy="16685" r="115" /> 
<circle cx="34525.2" cy="10110" r="115" /> 
<circle cx="35850.2" cy="10110" r="115" /> 
<circle cx="21800.2" cy="12135" r="115" /> 
<circle cx="20100.2" cy="12135" r="115" /> 
<circle cx="19750.2" cy="11210" r="115" /> 
<circle cx="22350.2" cy="11210" r="115" /> 
<circle cx="35850.2" cy="9510" r="115" /> 
<circle cx="29575.2" cy="10410" r="115" /> 
<circle cx="34525.2" cy="9510" r="115" /> 
<circle cx="27575.2" cy="15760" r="115" /> 
<circle cx="23075.2" cy="21810" r="115" /> 
<circle cx="25075.2" cy="21410" r="115" /> 
<circle cx="11250.2" cy="13710" r="115" /> 
<circle cx="17325.2" cy="17060" r="115" /> 
<circle cx="6525.24" cy="12435" r="115" /> 
<circle cx="8875.24" cy="13885" r="115" /> 
<circle cx="35750.2" cy="19535" r="115" /> 
<circle cx="9450.24" cy="20810" r="115" /> 
<circle cx="4525.24" cy="13285" r="115" /> 
<circle cx="9800.24" cy="18785" r="115" /> 
<circle cx="6800.24" cy="17060" r="115" /> 
<circle cx="5000.24" cy="23810" r="115" /> 
<circle cx="14975.2" cy="18285" r="115" /> 
<circle cx="9675.24" cy="8410" r="115" /> 
<circle cx="30000.2" cy="7935" r="115" /> 
<circle cx="27150.2" cy="7635" r="115" /> 
<circle cx="8400.24" cy="10160" r="115" /> 
<circle cx="13725.2" cy="8410" r="115" /> 
<circle cx="23600.2" cy="7635" r="115" /> 
<circle cx="19575.2" cy="12035" r="115" /> 
<circle cx="14725.2" cy="8260" r="115" /> 
<circle cx="12325.2" cy="10810" r="115" /> 
<circle cx="20100.2" cy="8035" r="115" /> 
<circle cx="23525.2" cy="11560" r="115" /> 
<circle cx="13950.2" cy="13185" r="115" /> 
<circle cx="11950.2" cy="13085" r="115" /> 
<circle cx="27125.2" cy="9435" r="115" /> 
<circle cx="17975.2" cy="12110" r="115" /> 
<circle cx="16375.2" cy="4935" r="115" /> 
<circle cx="34350.2" cy="7110" r="115" /> 
<circle cx="35250.2" cy="7110" r="115" /> 
<circle cx="12175.2" cy="9835" r="115" /> 
<circle cx="17550.2" cy="15535" r="115" /> 
<circle cx="21450.2" cy="12510" r="115" /> 
<circle cx="27050.2" cy="14910" r="115" /> 
<circle cx="23875.2" cy="12885" r="115" /> 
<circle cx="22100.2" cy="14935" r="115" /> 
<circle cx="14175.2" cy="14160" r="115" /> 
<circle cx="29100.2" cy="8085" r="115" /> 
<circle cx="19450.2" cy="8885" r="115" /> 
<circle cx="7400.24" cy="9785" r="115" /> 
<circle cx="15450.2" cy="9960" r="115" /> 
<circle cx="15125.2" cy="7910" r="115" /> 
<circle cx="18625.2" cy="6660" r="115" /> 
<circle cx="24625.2" cy="22735" r="115" /> 
<circle cx="18625.2" cy="7910" r="115" /> 
<circle cx="11700.2" cy="12260" r="115" /> 
<circle cx="9200.24" cy="12610" r="115" /> 
<circle cx="22000.2" cy="10860" r="115" /> 
<circle cx="15475.2" cy="12110" r="115" /> 
<circle cx="19275.2" cy="10860" r="115" /> 
<circle cx="11150.2" cy="15110" r="115" /> 
<circle cx="19450.2" cy="9885" r="115" /> 
<circle cx="7975.24" cy="21810" r="115" /> 
<circle cx="14575.2" cy="16135" r="115" /> 
<circle cx="17900.2" cy="17060" r="115" /> 
<circle cx="21025.2" cy="23060" r="115" /> 
<circle cx="10825.2" cy="18835" r="115" /> 
<circle cx="18800.2" cy="19085" r="115" /> 
<circle cx="17525.2" cy="10460" r="115" /> 
<circle cx="35925.2" cy="6735" r="115" /> 
<circle cx="5225.24" cy="8710" r="115" /> 
<circle cx="6475.24" cy="15885" r="115" /> 
<circle cx="20725.2" cy="16285" r="115" /> 
<circle cx="10775.2" cy="17610" r="115" /> 
<circle cx="20125.2" cy="24785" r="115" /> 
<circle cx="9375.24" cy="10185" r="115" /> 
<circle cx="7525.24" cy="12910" r="115" /> 
<circle cx="23500.2" cy="13360" r="115" /> 
<circle cx="24250.2" cy="23885" r="115" /> 
<circle cx="16775.2" cy="16610" r="115" /> 
<circle cx="26575.2" cy="22710" r="115" /> 
<circle cx="24725.2" cy="16110" r="115" /> 
<circle cx="16375.2" cy="13310" r="115" /> 
<circle cx="13675.2" cy="14160" r="115" /> 
<circle cx="12175.2" cy="25835" r="190" /> 
<circle cx="12175.2" cy="24835" r="190" /> 
<circle cx="12175.2" cy="23835" r="190" /> 
<circle cx="12175.2" cy="22835" r="190" /> 
<circle cx="12175.2" cy="21835" r="190" /> 
<circle cx="12175.2" cy="20835" r="190" /> 
<circle cx="12175.2" cy="19835" r="190" /> 
<circle cx="12175.2" cy="18835" r="190" /> 
<circle cx="13175.2" cy="25835" r="190" /> 
<circle cx="13175.2" cy="24835" r="190" /> 
<circle cx="13175.2" cy="23835" r="190" /> 
<circle cx="13175.2" cy="22835" r="190" /> 
<circle cx="13175.2" cy="21835" r="190" /> 
<circle cx="13175.2" cy="20835" r="190" /> 
<circle cx="13175.2" cy="19835" r="190" /> 
<circle cx="13175.2" cy="18835" r="190" /> 
<circle cx="5850.24" cy="19085" r="115" /> 
<circle cx="5200.24" cy="19085" r="115" /> 
<circle cx="4550.24" cy="19085" r="115" /> 
<circle cx="14175.2" cy="25835" r="190" /> 
<circle cx="14175.2" cy="24835" r="190" /> 
<circle cx="14175.2" cy="23835" r="190" /> 
<circle cx="14175.2" cy="22835" r="190" /> 
<circle cx="14175.2" cy="21835" r="190" /> 
<circle cx="14175.2" cy="20835" r="190" /> 
<circle cx="14175.2" cy="19835" r="190" /> 
<circle cx="14175.2" cy="18835" r="190" /> 
<circle cx="37125.2" cy="5635" r="190" /> 
<circle cx="37125.2" cy="6635" r="190" /> 
<circle cx="37125.2" cy="7635" r="190" /> 
<circle cx="37125.2" cy="8635" r="190" /> 
<circle cx="37125.2" cy="9635" r="190" /> 
<circle cx="37125.2" cy="10635" r="190" /> 
<circle cx="25175.2" cy="8585" r="190" /> 
<circle cx="25175.2" cy="9585" r="190" /> 
<circle cx="25175.2" cy="10585" r="190" /> 
<circle cx="25175.2" cy="11585" r="190" /> 
<circle cx="25175.2" cy="12585" r="190" /> 
<circle cx="25175.2" cy="13585" r="190" /> 
<circle cx="25175.2" cy="14585" r="190" /> 
<circle cx="25175.2" cy="15585" r="190" /> 
<circle cx="26175.2" cy="8585" r="190" /> 
<circle cx="26175.2" cy="9585" r="190" /> 
<circle cx="26175.2" cy="10585" r="190" /> 
<circle cx="26175.2" cy="11585" r="190" /> 
<circle cx="26175.2" cy="12585" r="190" /> 
<circle cx="26175.2" cy="13585" r="190" /> 
<circle cx="26175.2" cy="14585" r="190" /> 
<circle cx="26175.2" cy="15585" r="190" /> 
<circle cx="4750.24" cy="22885" r="240" /> 
<circle cx="4750.24" cy="20285" r="240" /> 
<circle cx="31750.2" cy="15385" r="190" /> 
<circle cx="30750.2" cy="15385" r="190" /> 
<circle cx="31750.2" cy="14385" r="190" /> 
<circle cx="30750.2" cy="14385" r="190" /> 
<circle cx="31750.2" cy="13385" r="190" /> 
<circle cx="30750.2" cy="13385" r="190" /> 
<circle cx="5975.24" cy="8785" r="165" /> 
<circle cx="5975.24" cy="11935" r="165" /> 
</g>
<g style="fill:#FFFFFF; fill-opacity:1.0; 
stroke:#FFFFFF; stroke-width:460; stroke-opacity:1; 
stroke-linecap:round; stroke-linejoin:round;">
<path d="M7275 22565
L7275 23505
" />
<path d="M9675 22465
L9675 23605
" />
<path d="M8055 25035
L8995 25035
" />
</g>
<g style="fill:#FFFFFF; fill-opacity:1.0; 
stroke:#FFFFFF; stroke-width:20; stroke-opacity:1; 
stroke-linecap:round; stroke-linejoin:round;">
<circle cx="4875.24" cy="6485" r="190" /> 
<circle cx="4875.24" cy="5485" r="190" /> 
<circle cx="5875.24" cy="6485" r="190" /> 
<circle cx="5875.24" cy="5485" r="190" /> 
<circle cx="6875.24" cy="6485" r="190" /> 
<circle cx="6875.24" cy="5485" r="190" /> 
<circle cx="7875.24" cy="6485" r="190" /> 
<circle cx="7875.24" cy="5485" r="190" /> 
<circle cx="8875.24" cy="6485" r="190" /> 
<circle cx="8875.24" cy="5485" r="190" /> 
<circle cx="9875.24" cy="6485" r="190" /> 
<circle cx="9875.24" cy="5485" r="190" /> 
<circle cx="10875.2" cy="6485" r="190" /> 
<circle cx="10875.2" cy="5485" r="190" /> 
<circle cx="11875.2" cy="6485" r="190" /> 
<circle cx="11875.2" cy="5485" r="190" /> 
<circle cx="12875.2" cy="6485" r="190" /> 
<circle cx="12875.2" cy="5485" r="190" /> 
<circle cx="13875.2" cy="6485" r="190" /> 
<circle cx="13875.2" cy="5485" r="190" /> 
<circle cx="14875.2" cy="6485" r="190" /> 
<circle cx="14875.2" cy="5485" r="190" /> 
<circle cx="15875.2" cy="6485" r="190" /> 
<circle cx="15875.2" cy="5485" r="190" /> 
<circle cx="16875.2" cy="6485" r="190" /> 
<circle cx="16875.2" cy="5485" r="190" /> 
<circle cx="28750.2" cy="13385" r="190" /> 
<circle cx="28750.2" cy="14385" r="190" /> 
<circle cx="28750.2" cy="15385" r="190" /> 
<circle cx="35750.2" cy="23710" r="190" /> 
<circle cx="34750.2" cy="23710" r="190" /> 
<circle cx="33750.2" cy="23710" r="190" /> 
<circle cx="32750.2" cy="23710" r="190" /> 
<circle cx="31750.2" cy="23710" r="190" /> 
<circle cx="30750.2" cy="23710" r="190" /> 
<circle cx="35750.2" cy="22710" r="190" /> 
<circle cx="34750.2" cy="22710" r="190" /> 
<circle cx="33750.2" cy="22710" r="190" /> 
<circle cx="32750.2" cy="22710" r="190" /> 
<circle cx="31750.2" cy="22710" r="190" /> 
<circle cx="30750.2" cy="22710" r="190" /> 
<circle cx="35750.2" cy="8385" r="190" /> 
<circle cx="34750.2" cy="8385" r="190" /> 
<circle cx="33750.2" cy="8385" r="190" /> 
<circle cx="32750.2" cy="8385" r="190" /> 
<circle cx="31750.2" cy="8385" r="190" /> 
<circle cx="30750.2" cy="8385" r="190" /> 
<circle cx="35750.2" cy="24710" r="190" /> 
<circle cx="34750.2" cy="24710" r="190" /> 
<circle cx="33750.2" cy="24710" r="190" /> 
<circle cx="30750.2" cy="24710" r="190" /> 
<circle cx="31750.2" cy="24710" r="190" /> 
<circle cx="32750.2" cy="24710" r="190" /> 
<circle cx="28750.2" cy="24710" r="190" /> 
<circle cx="27750.2" cy="24710" r="190" /> 
<circle cx="26750.2" cy="24710" r="190" /> 
<circle cx="24750.2" cy="24710" r="190" /> 
<circle cx="23750.2" cy="24710" r="190" /> 
<circle cx="35750.2" cy="5710" r="190" /> 
<circle cx="34750.2" cy="5710" r="190" /> 
<circle cx="33750.2" cy="5710" r="190" /> 
<circle cx="32750.2" cy="5710" r="190" /> 
<circle cx="31750.2" cy="5710" r="190" /> 
<circle cx="30750.2" cy="5710" r="190" /> 
<circle cx="29750.2" cy="5710" r="190" /> 
<circle cx="28750.2" cy="5710" r="190" /> 
<circle cx="27150.2" cy="5710" r="190" /> 
<circle cx="26150.2" cy="5710" r="190" /> 
<circle cx="25150.2" cy="5710" r="190" /> 
<circle cx="24150.2" cy="5710" r="190" /> 
<circle cx="23150.2" cy="5710" r="190" /> 
<circle cx="22150.2" cy="5710" r="190" /> 
<circle cx="21150.2" cy="5710" r="190" /> 
<circle cx="20150.2" cy="5710" r="190" /> 
<circle cx="25750.2" cy="24710" r="190" /> 
<circle cx="16250.2" cy="24710" r="590" /> 
<circle cx="36750.2" cy="22710" r="390" /> 
<circle cx="22750.2" cy="24710" r="190" /> 
<circle cx="21750.2" cy="24710" r="190" /> 
<circle cx="19150.2" cy="5710" r="190" /> 
<circle cx="18150.2" cy="5710" r="190" /> 
<circle cx="31575.2" cy="17560" r="165" /> 
<circle cx="30575.2" cy="17560" r="165" /> 
<circle cx="29575.2" cy="17560" r="165" /> 
<circle cx="28575.2" cy="17560" r="165" /> 
<circle cx="27575.2" cy="17560" r="165" /> 
<circle cx="26575.2" cy="17560" r="165" /> 
<circle cx="25575.2" cy="17560" r="165" /> 
<circle cx="24575.2" cy="17560" r="165" /> 
<circle cx="23575.2" cy="17560" r="165" /> 
<circle cx="22575.2" cy="17560" r="165" /> 
<circle cx="21575.2" cy="17560" r="165" /> 
<circle cx="20575.2" cy="17560" r="165" /> 
<circle cx="19575.2" cy="17560" r="165" /> 
<circle cx="32575.2" cy="17560" r="165" /> 
<circle cx="19575.2" cy="20560" r="165" /> 
<circle cx="20575.2" cy="20560" r="165" /> 
<circle cx="21575.2" cy="20560" r="165" /> 
<circle cx="22575.2" cy="20560" r="165" /> 
<circle cx="23575.2" cy="20560" r="165" /> 
<circle cx="24575.2" cy="20560" r="165" /> 
<circle cx="25575.2" cy="20560" r="165" /> 
<circle cx="26575.2" cy="20560" r="165" /> 
<circle cx="27575.2" cy="20560" r="165" /> 
<circle cx="28575.2" cy="20560" r="165" /> 
<circle cx="29575.2" cy="20560" r="165" /> 
<circle cx="30575.2" cy="20560" r="165" /> 
<circle cx="31575.2" cy="20560" r="165" /> 
<circle cx="32575.2" cy="20560" r="165" /> 
</g> 
</svg>
