M48
INCH,TZ
T1C0.040
%
G90
G05
T1
X15500Y-19500
X15500Y-20500
X16500Y-19500
X16500Y-20500
X17500Y-19500
X17500Y-20500
X18000Y-17000
X18000Y-18000
X18500Y-19500
X18500Y-20500
X19000Y-17000
X19000Y-18000
X19500Y-19500
X19500Y-20500
X20000Y-17000
X20000Y-18000
X20500Y-19500
X20500Y-20500
X21000Y-17000
X21000Y-18000
X21500Y-19500
X21500Y-20500
X22000Y-17000
X22000Y-18000
X22500Y-19500
X22500Y-20500
X23500Y-19500
X23500Y-20500
X24500Y-19500
X24500Y-20500
T0
M30
