<?xml version="1.0" standalone="no"?>
 <!DOCTYPE svg PUBLIC "-//W3C//DTD SVG 1.1//EN" 
 "http://www.w3.org/Graphics/SVG/1.1/DTD/svg11.dtd"> 
<svg xmlns="http://www.w3.org/2000/svg" version="1.1" 
    width="29.7002cm" height="21.0007cm" viewBox="0 0 116930 82680 ">
<title>SVG Picture created as uControl_v3-B_SilkS.svg date 2013/12/15 12:31:40 </title>
  <desc>Picture generated by PCBNEW </desc>
<g style="fill:#000000; fill-opacity:1;stroke:#000000; stroke-opacity:1;
stroke-linecap:round; stroke-linejoin:round; "
 transform="translate(0 0) scale(1 1)">
</g>
<g style="fill:#000000; fill-opacity:0.0; 
stroke:#000000; stroke-width:1000; stroke-opacity:1; 
stroke-linecap:round; stroke-linejoin:round;">
<path d="M66130 29968
L66130 33301
" />
<path d="M68273 29968
L68273 32587
L68035 33063
L67559 33301
L66844 33301
L66368 33063
L66130 32825
" />
<path d="M60892 32825
L61130 33063
L61844 33301
L62320 33301
L63035 33063
L63511 32587
L63749 32111
L63987 31159
L63987 30444
L63749 29492
L63511 29016
L63035 28540
L62320 28301
L61844 28301
L61130 28540
L60892 28778
" />
<path d="M58035 33301
L58511 33063
L58749 32825
L58987 32349
L58987 30920
L58749 30444
L58511 30206
L58035 29968
L57320 29968
L56844 30206
L56606 30444
L56368 30920
L56368 32349
L56606 32825
L56844 33063
L57320 33301
L58035 33301
" />
<path d="M54225 29968
L54225 33301
" />
<path d="M54225 30444
L53987 30206
L53511 29968
L52797 29968
L52320 30206
L52082 30682
L52082 33301
" />
<path d="M50416 29968
L48511 29968
" />
<path d="M49701 28301
L49701 32587
L49463 33063
L48987 33301
L48511 33301
" />
<path d="M46844 33301
L46844 29968
" />
<path d="M46844 30920
L46606 30444
L46368 30206
L45892 29968
L45416 29968
" />
<path d="M43035 33301
L43511 33063
L43749 32825
L43987 32349
L43987 30920
L43749 30444
L43511 30206
L43035 29968
L42320 29968
L41844 30206
L41606 30444
L41368 30920
L41368 32349
L41606 32825
L41844 33063
L42320 33301
L43035 33301
" />
<path d="M38511 33301
L38987 33063
L39225 32587
L39225 28301
" />
<path d="M37797 33778
L33987 33778
" />
<path d="M33273 29968
L32082 33301
L30892 29968
" />
<path d="M29225 28778
L28987 28540
L28511 28301
L27320 28301
L26844 28540
L26606 28778
L26368 29254
L26368 29730
L26606 30444
L29463 33301
L26368 33301
" />
</g>
<g style="fill:#000000; fill-opacity:0.0; 
stroke:#000000; stroke-width:50; stroke-opacity:1; 
stroke-linecap:round; stroke-linejoin:round;">
<path d="M84842 50433
L82992 52125
" />
<path d="M84842 11574
L84842 50433
" />
<path d="M82992 54685
L82992 52125
" />
<path d="M82992 57244
L82992 54685
" />
<path d="M84842 58897
L82992 57244
" />
<path d="M84842 68267
L84842 58897
" />
<path d="M11614 69842
L83267 69842
" />
<path d="M10039 11574
L10039 68267
" />
<path d="M83267 10000
L11614 10000
" />
<path d="M84842.5 11574.8 A1574.8 1574.8 0.0 0 0 83267.7 10000 " />
<path d="M83267.7 69842.5 A1574.8 1574.8 0.0 0 0 84842.5 68267.7 " />
<path d="M10039.4 68267.7 A1574.8 1574.8 0.0 0 0 11614.2 69842.5 " />
<path d="M11614.2 10000 A1574.8 1574.8 0.0 0 0 10039.4 11574.8 " />
</g>
<g style="fill:#000000; fill-opacity:0.0; 
stroke:#000000; stroke-width:120; stroke-opacity:1; 
stroke-linecap:round; stroke-linejoin:round;">
<path d="M50430 65098
L50430 65631
" />
<path d="M50773 65098
L50773 65517
L50735 65593
L50659 65631
L50544 65631
L50468 65593
L50430 65555
" />
<path d="M49592 65555
L49630 65593
L49744 65631
L49820 65631
L49935 65593
L50011 65517
L50049 65441
L50087 65289
L50087 65174
L50049 65022
L50011 64946
L49935 64870
L49820 64831
L49744 64831
L49630 64870
L49592 64908
" />
<path d="M49135 65631
L49211 65593
L49249 65555
L49287 65479
L49287 65250
L49249 65174
L49211 65136
L49135 65098
L49020 65098
L48944 65136
L48906 65174
L48868 65250
L48868 65479
L48906 65555
L48944 65593
L49020 65631
L49135 65631
" />
<path d="M48525 65098
L48525 65631
" />
<path d="M48525 65174
L48487 65136
L48411 65098
L48297 65098
L48220 65136
L48182 65212
L48182 65631
" />
<path d="M47916 65098
L47611 65098
" />
<path d="M47801 64831
L47801 65517
L47763 65593
L47687 65631
L47611 65631
" />
<path d="M47344 65631
L47344 65098
" />
<path d="M47344 65250
L47306 65174
L47268 65136
L47192 65098
L47116 65098
" />
<path d="M46735 65631
L46811 65593
L46849 65555
L46887 65479
L46887 65250
L46849 65174
L46811 65136
L46735 65098
L46620 65098
L46544 65136
L46506 65174
L46468 65250
L46468 65479
L46506 65555
L46544 65593
L46620 65631
L46735 65631
" />
<path d="M46011 65631
L46087 65593
L46125 65517
L46125 64831
" />
<path d="M45897 65708
L45287 65708
" />
<path d="M45173 65098
L44982 65631
L44792 65098
" />
<path d="M44525 64908
L44487 64870
L44411 64831
L44220 64831
L44144 64870
L44106 64908
L44068 64984
L44068 65060
L44106 65174
L44563 65631
L44068 65631
" />
</g>
<g style="fill:#000000; fill-opacity:0.0; 
stroke:#000000; stroke-width:60; stroke-opacity:1; 
stroke-linecap:round; stroke-linejoin:round;">
<path d="M49192 66184
L49116 66450
L49040 66260
L48963 66450
L48887 66184
" />
<path d="M48773 66184
L48678 66450
" />
<path d="M48582 66184
L48678 66450
L48716 66546
L48735 66565
L48773 66584
" />
<path d="M48373 66450
L48411 66431
L48430 66412
L48449 66374
L48449 66260
L48430 66222
L48411 66203
L48373 66184
L48316 66184
L48278 66203
L48259 66222
L48240 66260
L48240 66374
L48259 66412
L48278 66431
L48316 66450
L48373 66450
" />
<path d="M48011 66450
L48049 66431
L48068 66393
L48068 66050
" />
<path d="M47687 66184
L47687 66450
" />
<path d="M47859 66184
L47859 66393
L47840 66431
L47801 66450
L47744 66450
L47706 66431
L47687 66412
" />
<path d="M47497 66450
L47497 66184
" />
<path d="M47497 66222
L47478 66203
L47440 66184
L47382 66184
L47344 66203
L47325 66241
L47325 66450
" />
<path d="M47325 66241
L47306 66203
L47268 66184
L47211 66184
L47173 66203
L47154 66241
L47154 66450
" />
<path d="M46963 66412
L46944 66431
L46963 66450
L46982 66431
L46963 66412
L46963 66450
" />
<path d="M46601 66431
L46640 66450
L46716 66450
L46754 66431
L46773 66412
L46792 66374
L46792 66260
L46773 66222
L46754 66203
L46716 66184
L46640 66184
L46601 66203
" />
<path d="M46373 66450
L46411 66431
L46430 66412
L46449 66374
L46449 66260
L46430 66222
L46411 66203
L46373 66184
L46316 66184
L46278 66203
L46259 66222
L46240 66260
L46240 66374
L46259 66412
L46278 66431
L46316 66450
L46373 66450
" />
<path d="M46068 66450
L46068 66184
" />
<path d="M46068 66222
L46049 66203
L46011 66184
L45954 66184
L45916 66203
L45897 66241
L45897 66450
" />
<path d="M45897 66241
L45878 66203
L45840 66184
L45782 66184
L45744 66203
L45725 66241
L45725 66450
" />
</g>
<g style="fill:#000000; fill-opacity:1.0; 
stroke:#000000; stroke-width:1; stroke-opacity:1; 
stroke-linecap:round; stroke-linejoin:round;">
<polyline style="fill-rule:evenodd;"
points="46643,63451
46657,63443
46688,63424
46732,63395
46784,63361
46836,63325
46879,63297
46909,63277
46921,63270
46928,63273
46953,63285
46988,63303
47009,63314
47042,63328
47059,63331
47061,63327
47073,63302
47092,63259
47117,63202
47146,63135
47176,63063
47207,62990
47236,62920
47261,62857
47282,62805
47296,62770
47301,62755
47299,62751
47283,62735
47254,62714
47192,62663
47130,62587
47093,62500
47080,62403
47091,62313
47126,62227
47186,62150
47259,62092
47344,62056
47440,62044
47531,62054
47619,62089
47697,62148
47730,62186
47775,62264
47800,62348
47803,62370
47799,62462
47772,62550
47723,62629
47656,62694
47647,62700
47616,62724
47595,62740
47578,62753
47696,63036
47715,63081
47747,63159
47775,63225
47798,63278
47814,63314
47821,63328
47821,63329
47832,63331
47853,63323
47893,63304
47919,63290
47949,63276
47963,63270
47974,63277
48003,63295
48045,63323
48096,63358
48144,63391
48188,63420
48220,63441
48236,63449
48238,63449
48252,63441
48278,63420
48316,63384
48371,63330
48379,63321
48424,63276
48460,63238
48485,63210
48494,63198
48494,63198
48486,63183
48465,63150
48436,63105
48400,63053
48306,62917
48358,62788
48374,62749
48394,62701
48409,62667
48416,62652
48430,62647
48465,62639
48516,62628
48577,62617
48635,62606
48687,62596
48725,62589
48742,62586
48746,62583
48750,62575
48752,62557
48753,62525
48754,62475
48754,62403
48754,62395
48753,62326
48752,62271
48750,62235
48748,62221
48748,62221
48731,62217
48694,62209
48642,62199
48580,62187
48576,62186
48514,62174
48461,62163
48425,62155
48410,62150
48406,62146
48394,62121
48376,62083
48355,62036
48335,61987
48318,61943
48306,61910
48302,61895
48302,61895
48312,61880
48333,61848
48363,61803
48400,61750
48402,61746
48438,61694
48467,61649
48486,61617
48494,61603
48493,61602
48482,61587
48455,61557
48417,61517
48371,61470
48356,61456
48305,61406
48269,61373
48247,61356
48237,61352
48236,61352
48220,61362
48187,61384
48142,61414
48089,61450
48085,61453
48033,61489
47989,61518
47958,61539
47944,61547
47942,61547
47920,61541
47883,61528
47837,61510
47788,61490
47744,61472
47711,61457
47696,61448
47695,61447
47690,61428
47681,61389
47669,61335
47657,61270
47655,61260
47643,61197
47633,61146
47626,61110
47622,61095
47613,61093
47583,61091
47536,61090
47480,61089
47420,61089
47362,61091
47313,61092
47277,61095
47262,61098
47262,61099
47256,61118
47248,61157
47237,61212
47224,61276
47222,61288
47210,61350
47200,61401
47192,61437
47188,61451
47183,61454
47157,61465
47115,61482
47063,61503
46943,61552
46795,61451
46782,61442
46729,61405
46685,61376
46655,61357
46642,61350
46641,61350
46626,61363
46597,61390
46557,61429
46511,61476
46476,61510
46436,61551
46410,61579
46396,61597
46391,61608
46392,61615
46402,61630
46423,61663
46454,61707
46490,61760
46519,61803
46551,61853
46572,61888
46579,61905
46577,61913
46567,61941
46550,61985
46527,62037
46476,62154
46400,62169
46353,62177
46288,62190
46226,62202
46129,62221
46126,62577
46141,62583
46155,62587
46191,62595
46242,62605
46303,62616
46354,62626
46406,62636
46444,62643
46460,62647
46464,62652
46477,62677
46496,62717
46516,62765
46537,62815
46555,62861
46568,62896
46573,62915
46566,62928
46546,62959
46518,63002
46482,63054
46447,63105
46417,63150
46397,63181
46388,63196
46392,63206
46413,63231
46452,63271
46510,63328
46519,63337
46565,63382
46604,63418
46631,63442
46643,63451
" /> 
</g>
<g style="fill:#000000; fill-opacity:0.0; 
stroke:#000000; stroke-width:50; stroke-opacity:1; 
stroke-linecap:round; stroke-linejoin:round;">
<path d="M48611 60455
L48565 60455
L48542 60470
L48520 60498
L48508 60555
L48508 60655
L48520 60712
L48542 60741
L48565 60755
L48611 60755
L48634 60741
L48657 60712
L48668 60655
L48668 60555
L48657 60498
L48634 60470
L48611 60455
" />
<path d="M48405 60555
L48405 60855
" />
<path d="M48405 60570
L48382 60555
L48337 60555
L48314 60570
L48302 60584
L48291 60612
L48291 60698
L48302 60727
L48314 60741
L48337 60755
L48382 60755
L48405 60741
" />
<path d="M48097 60741
L48120 60755
L48165 60755
L48188 60741
L48200 60712
L48200 60598
L48188 60570
L48165 60555
L48120 60555
L48097 60570
L48085 60598
L48085 60627
L48200 60655
" />
<path d="M47982 60555
L47982 60755
" />
<path d="M47982 60584
L47971 60570
L47948 60555
L47914 60555
L47891 60570
L47880 60598
L47880 60755
" />
<path d="M47765 60755
L47765 60455
" />
<path d="M47765 60598
L47628 60598
" />
<path d="M47628 60755
L47628 60455
" />
<path d="M47411 60755
L47411 60598
L47422 60570
L47445 60555
L47491 60555
L47514 60570
" />
<path d="M47411 60741
L47434 60755
L47491 60755
L47514 60741
L47525 60712
L47525 60684
L47514 60655
L47491 60641
L47434 60641
L47411 60627
" />
<path d="M47297 60755
L47297 60555
" />
<path d="M47297 60612
L47285 60584
L47274 60570
L47251 60555
L47228 60555
" />
<path d="M47045 60755
L47045 60455
" />
<path d="M47045 60741
L47068 60755
L47114 60755
L47137 60741
L47148 60727
L47160 60698
L47160 60612
L47148 60584
L47137 60570
L47114 60555
L47068 60555
L47045 60570
" />
<path d="M46954 60555
L46908 60755
L46862 60612
L46817 60755
L46771 60555
" />
<path d="M46577 60755
L46577 60598
L46588 60570
L46611 60555
L46657 60555
L46679 60570
" />
<path d="M46577 60741
L46599 60755
L46657 60755
L46679 60741
L46691 60712
L46691 60684
L46679 60655
L46657 60641
L46599 60641
L46577 60627
" />
<path d="M46462 60755
L46462 60555
" />
<path d="M46462 60612
L46451 60584
L46439 60570
L46417 60555
L46394 60555
" />
<path d="M46222 60741
L46245 60755
L46291 60755
L46314 60741
L46325 60712
L46325 60598
L46314 60570
L46291 60555
L46245 60555
L46222 60570
L46211 60598
L46211 60627
L46325 60655
" />
</g> 
</svg>
