G04 (created by PCBNEW-RS274X (2012-01-19 BZR 3256)-stable) date 21-Mar-13 5:54:53 PM*
G01*
G70*
G90*
%MOIN*%
G04 Gerber Fmt 3.4, Leading zero omitted, Abs format*
%FSLAX34Y34*%
G04 APERTURE LIST*
%ADD10C,0.006000*%
%ADD11C,0.005000*%
%ADD12C,0.080000*%
%ADD13R,0.080000X0.080000*%
%ADD14R,0.072000X0.100000*%
%ADD15O,0.072000X0.100000*%
%ADD16R,0.120000X0.320000*%
%ADD17C,0.140000*%
%ADD18C,0.270000*%
G04 APERTURE END LIST*
G54D10*
G54D11*
X23000Y-10000D02*
X10000Y-10000D01*
X10000Y-23000D02*
X10000Y-10000D01*
X23000Y-23000D02*
X10000Y-23000D01*
X23000Y-10000D02*
X23000Y-23000D01*
G54D12*
X10500Y-11800D03*
X10500Y-10800D03*
X11500Y-11800D03*
X11500Y-10800D03*
X12500Y-11800D03*
G54D13*
X12500Y-10800D03*
G54D12*
X13500Y-11800D03*
X13500Y-10800D03*
X14500Y-11800D03*
X14500Y-10800D03*
X15500Y-11800D03*
X15500Y-10800D03*
X16500Y-11800D03*
X16500Y-10800D03*
X17500Y-11800D03*
X17500Y-10800D03*
X18500Y-11800D03*
X18500Y-10800D03*
X19500Y-11800D03*
X19500Y-10800D03*
X20500Y-11800D03*
X20500Y-10800D03*
X21500Y-11800D03*
X21500Y-10800D03*
X22500Y-11800D03*
X22500Y-10800D03*
X10750Y-12975D03*
X10750Y-13975D03*
X12750Y-20275D03*
X12750Y-19275D03*
G54D14*
X10750Y-18075D03*
G54D15*
X11750Y-18075D03*
X12750Y-18075D03*
X13750Y-18075D03*
X13750Y-15075D03*
X12750Y-15075D03*
X11750Y-15075D03*
X10750Y-15075D03*
G54D12*
X10750Y-19175D03*
X11750Y-19175D03*
G54D16*
X11250Y-21275D03*
G54D12*
X14750Y-13975D03*
X12750Y-13975D03*
X12750Y-12975D03*
X13750Y-13975D03*
X13750Y-12975D03*
X11750Y-13975D03*
X11750Y-12975D03*
G54D17*
X19400Y-13350D03*
X19400Y-21650D03*
G54D18*
X19400Y-17500D03*
M02*
