M48
INCH,TZ
T1C0.025
T2C0.035
T3C0.040
T4C0.080
%
G90
G05
T1
X019400Y-017500
T2
X010750Y-012975
X010750Y-013975
X010750Y-015075
X010750Y-018075
X010750Y-019175
X011250Y-020275
X011750Y-012975
X011750Y-013975
X011750Y-015075
X011750Y-018075
X011750Y-019175
X012750Y-012975
X012750Y-013975
X012750Y-015075
X012750Y-018075
X012750Y-019275
X012750Y-020275
X013750Y-012975
X013750Y-013975
X013750Y-015075
X013750Y-018075
X014750Y-013975
T3
X010500Y-010800
X010500Y-011800
X011500Y-010800
X011500Y-011800
X012500Y-010800
X012500Y-011800
X013500Y-010800
X013500Y-011800
X014500Y-010800
X014500Y-011800
X015500Y-010800
X015500Y-011800
X016500Y-010800
X016500Y-011800
X017500Y-010800
X017500Y-011800
X018500Y-010800
X018500Y-011800
X019500Y-010800
X019500Y-011800
X020500Y-010800
X020500Y-011800
X021500Y-010800
X021500Y-011800
X022500Y-010800
X022500Y-011800
T4
X019400Y-013350
X019400Y-021650
T0
M30
