M48
INCH,TZ
T1C0.020
T2C0.025
T3C0.035
T4C0.040
T5C0.080
%
G90
G05
T1
X019400Y-017500
T2
X014225Y-016825
X014225Y-018875
X015200Y-014400
X015950Y-020625
X015950Y-021575
X015950Y-022650
X018000Y-022050
X021050Y-017500
T3
X010750Y-015075
X010750Y-018075
X010750Y-018975
X011250Y-020075
X011500Y-012825
X011500Y-013825
X011750Y-015075
X011750Y-018075
X011750Y-018975
X012650Y-020050
X012650Y-021100
X012650Y-022150
X012750Y-015075
X012750Y-018075
X013000Y-012825
X013000Y-013825
X013650Y-020050
X013650Y-021100
X013650Y-022150
X013750Y-015075
X013750Y-018075
X014500Y-012825
X014500Y-013825
X016000Y-012825
X016000Y-013825
T4
X010500Y-010800
X010500Y-011800
X011500Y-010800
X011500Y-011800
X012500Y-010800
X012500Y-011800
X013500Y-010800
X013500Y-011800
X014500Y-010800
X014500Y-011800
X014900Y-020050
X014900Y-021100
X014900Y-022150
X015500Y-010800
X015500Y-011800
X016500Y-010800
X016500Y-011800
X017500Y-010800
X017500Y-011800
X018500Y-010800
X018500Y-011800
X019500Y-010800
X019500Y-011800
X020500Y-010800
X020500Y-011800
X021500Y-010800
X021500Y-011800
X022500Y-010800
X022500Y-011800
T5
X019400Y-013350
X019400Y-021650
T0
M30
