G04 (created by PCBNEW-RS274X (2012-01-19 BZR 3256)-stable) date 15-Mar-13 12:04:21 PM*
G01*
G70*
G90*
%MOIN*%
G04 Gerber Fmt 3.4, Leading zero omitted, Abs format*
%FSLAX34Y34*%
G04 APERTURE LIST*
%ADD10C,0.006000*%
%ADD11C,0.005000*%
%ADD12C,0.070000*%
%ADD13C,0.060000*%
%ADD14R,0.060000X0.060000*%
%ADD15C,0.250000*%
%ADD16R,0.052000X0.080000*%
%ADD17O,0.052000X0.080000*%
%ADD18R,0.100000X0.300000*%
%ADD19C,0.035000*%
%ADD20C,0.010000*%
%ADD21C,0.015000*%
G04 APERTURE END LIST*
G54D10*
G54D11*
X23000Y-10000D02*
X10000Y-10000D01*
X10000Y-23000D02*
X10000Y-10000D01*
X23000Y-23000D02*
X10000Y-23000D01*
X23000Y-10000D02*
X23000Y-23000D01*
G54D12*
X14900Y-20050D03*
X14900Y-22150D03*
X14900Y-21100D03*
G54D13*
X10500Y-11800D03*
X10500Y-10800D03*
X11500Y-11800D03*
X11500Y-10800D03*
X12500Y-11800D03*
G54D14*
X12500Y-10800D03*
G54D13*
X13500Y-11800D03*
X13500Y-10800D03*
X14500Y-11800D03*
X14500Y-10800D03*
X15500Y-11800D03*
X15500Y-10800D03*
X16500Y-11800D03*
X16500Y-10800D03*
X17500Y-11800D03*
X17500Y-10800D03*
X18500Y-11800D03*
X18500Y-10800D03*
X19500Y-11800D03*
X19500Y-10800D03*
X20500Y-11800D03*
X20500Y-10800D03*
X21500Y-11800D03*
X21500Y-10800D03*
X22500Y-11800D03*
X22500Y-10800D03*
X11500Y-13825D03*
X11500Y-12825D03*
X16000Y-13825D03*
X16000Y-12825D03*
X12650Y-21100D03*
X13650Y-21100D03*
X13000Y-12825D03*
X13000Y-13825D03*
X14500Y-12825D03*
X14500Y-13825D03*
X12650Y-22150D03*
X13650Y-22150D03*
X12650Y-20050D03*
X13650Y-20050D03*
G54D15*
X19400Y-17500D03*
G54D16*
X10750Y-18075D03*
G54D17*
X11750Y-18075D03*
X12750Y-18075D03*
X13750Y-18075D03*
X13750Y-15075D03*
X12750Y-15075D03*
X11750Y-15075D03*
X10750Y-15075D03*
G54D13*
X10750Y-18975D03*
X11750Y-18975D03*
G54D18*
X11250Y-21075D03*
G54D13*
X13650Y-19050D03*
X12650Y-19050D03*
G54D19*
X18000Y-22050D03*
X15950Y-20625D03*
X14375Y-16825D03*
X14375Y-18875D03*
X15950Y-22650D03*
X15950Y-21575D03*
X21050Y-17500D03*
G54D20*
X15950Y-20625D02*
X16575Y-20625D01*
X16575Y-20625D02*
X18000Y-22050D01*
G54D21*
X14375Y-16825D02*
X14375Y-18875D01*
X11000Y-12325D02*
X11500Y-12825D01*
X11000Y-11300D02*
X11000Y-12325D01*
X11000Y-11300D02*
X10500Y-10800D01*
G54D20*
X12500Y-12225D02*
X12450Y-12275D01*
X12450Y-14075D02*
X12450Y-12275D01*
X12750Y-14375D02*
X12450Y-14075D01*
X12750Y-15075D02*
X12750Y-14375D01*
X12500Y-11800D02*
X12500Y-12225D01*
X13550Y-13375D02*
X13000Y-12825D01*
X13750Y-14750D02*
X13550Y-14550D01*
X13550Y-14550D02*
X13550Y-13375D01*
X13750Y-15075D02*
X13750Y-14750D01*
X15950Y-21575D02*
X15950Y-22650D01*
X11600Y-15725D02*
X10400Y-15725D01*
X11750Y-15575D02*
X11600Y-15725D01*
X10450Y-22675D02*
X10600Y-22825D01*
X10400Y-15725D02*
X10250Y-15875D01*
X10250Y-15875D02*
X10250Y-19375D01*
X10250Y-19375D02*
X10450Y-19575D01*
X10450Y-19575D02*
X10450Y-22675D01*
X10600Y-22825D02*
X13950Y-22825D01*
X13950Y-22825D02*
X14250Y-22525D01*
X14250Y-22525D02*
X14250Y-21750D01*
X14250Y-21750D02*
X14900Y-21100D01*
X11750Y-15075D02*
X11750Y-15575D01*
G54D21*
X15200Y-13825D02*
X15200Y-12600D01*
X13000Y-11300D02*
X12500Y-10800D01*
X15000Y-11450D02*
X14850Y-11300D01*
X13750Y-18075D02*
X13750Y-16375D01*
X14350Y-15775D02*
X13750Y-16375D01*
X15000Y-12400D02*
X15000Y-11450D01*
X14800Y-14400D02*
X14575Y-14400D01*
X14850Y-11300D02*
X13000Y-11300D01*
X15200Y-14000D02*
X15200Y-13825D01*
X15200Y-12600D02*
X15000Y-12400D01*
X11250Y-20075D02*
X12025Y-20075D01*
X12025Y-20075D02*
X12025Y-19750D01*
X13150Y-19550D02*
X13650Y-19050D01*
X12225Y-19550D02*
X13150Y-19550D01*
X12025Y-19750D02*
X12225Y-19550D01*
X14575Y-14400D02*
X14350Y-14625D01*
X13750Y-16375D02*
X12575Y-16375D01*
X12250Y-14575D02*
X11500Y-13825D01*
X12250Y-16050D02*
X12250Y-14575D01*
X12575Y-16375D02*
X12250Y-16050D01*
X14800Y-14400D02*
X15200Y-14000D01*
X14350Y-15775D02*
X14350Y-14625D01*
X13750Y-18575D02*
X13750Y-18075D01*
X13650Y-18675D02*
X13750Y-18575D01*
X16000Y-13825D02*
X15200Y-13825D01*
X13650Y-19050D02*
X13650Y-18675D01*
X19400Y-17500D02*
X21050Y-17500D01*
G54D10*
G36*
X12450Y-14515D02*
X12326Y-14639D01*
X12250Y-14823D01*
X12250Y-14824D01*
X12174Y-14640D01*
X12040Y-14505D01*
X12040Y-13929D01*
X12038Y-13714D01*
X11959Y-13523D01*
X11862Y-13498D01*
X11535Y-13825D01*
X11862Y-14152D01*
X11959Y-14127D01*
X12040Y-13929D01*
X12040Y-14505D01*
X12034Y-14499D01*
X11850Y-14423D01*
X11827Y-14423D01*
X11827Y-14187D01*
X11500Y-13860D01*
X11465Y-13895D01*
X11465Y-13825D01*
X11138Y-13498D01*
X11041Y-13523D01*
X10960Y-13721D01*
X10962Y-13936D01*
X11041Y-14127D01*
X11138Y-14152D01*
X11465Y-13825D01*
X11465Y-13895D01*
X11173Y-14187D01*
X11198Y-14284D01*
X11396Y-14365D01*
X11611Y-14363D01*
X11802Y-14284D01*
X11827Y-14187D01*
X11827Y-14423D01*
X11651Y-14423D01*
X11467Y-14499D01*
X11326Y-14639D01*
X11250Y-14823D01*
X11250Y-14824D01*
X11174Y-14640D01*
X11034Y-14499D01*
X10850Y-14423D01*
X10651Y-14423D01*
X10467Y-14499D01*
X10326Y-14639D01*
X10275Y-14762D01*
X10275Y-12300D01*
X10391Y-12349D01*
X10609Y-12349D01*
X10675Y-12321D01*
X10675Y-12325D01*
X10700Y-12449D01*
X10770Y-12555D01*
X10951Y-12736D01*
X10951Y-12934D01*
X11035Y-13136D01*
X11189Y-13290D01*
X11285Y-13329D01*
X11198Y-13366D01*
X11173Y-13463D01*
X11500Y-13790D01*
X11827Y-13463D01*
X11802Y-13366D01*
X11714Y-13330D01*
X11811Y-13290D01*
X11965Y-13136D01*
X12049Y-12934D01*
X12049Y-12716D01*
X11965Y-12514D01*
X11811Y-12360D01*
X11696Y-12312D01*
X11811Y-12265D01*
X11965Y-12111D01*
X12000Y-12026D01*
X12035Y-12111D01*
X12158Y-12234D01*
X12150Y-12275D01*
X12150Y-14075D01*
X12173Y-14190D01*
X12238Y-14287D01*
X12450Y-14499D01*
X12450Y-14515D01*
X12450Y-14515D01*
G37*
G54D20*
X12450Y-14515D02*
X12326Y-14639D01*
X12250Y-14823D01*
X12250Y-14824D01*
X12174Y-14640D01*
X12040Y-14505D01*
X12040Y-13929D01*
X12038Y-13714D01*
X11959Y-13523D01*
X11862Y-13498D01*
X11535Y-13825D01*
X11862Y-14152D01*
X11959Y-14127D01*
X12040Y-13929D01*
X12040Y-14505D01*
X12034Y-14499D01*
X11850Y-14423D01*
X11827Y-14423D01*
X11827Y-14187D01*
X11500Y-13860D01*
X11465Y-13895D01*
X11465Y-13825D01*
X11138Y-13498D01*
X11041Y-13523D01*
X10960Y-13721D01*
X10962Y-13936D01*
X11041Y-14127D01*
X11138Y-14152D01*
X11465Y-13825D01*
X11465Y-13895D01*
X11173Y-14187D01*
X11198Y-14284D01*
X11396Y-14365D01*
X11611Y-14363D01*
X11802Y-14284D01*
X11827Y-14187D01*
X11827Y-14423D01*
X11651Y-14423D01*
X11467Y-14499D01*
X11326Y-14639D01*
X11250Y-14823D01*
X11250Y-14824D01*
X11174Y-14640D01*
X11034Y-14499D01*
X10850Y-14423D01*
X10651Y-14423D01*
X10467Y-14499D01*
X10326Y-14639D01*
X10275Y-14762D01*
X10275Y-12300D01*
X10391Y-12349D01*
X10609Y-12349D01*
X10675Y-12321D01*
X10675Y-12325D01*
X10700Y-12449D01*
X10770Y-12555D01*
X10951Y-12736D01*
X10951Y-12934D01*
X11035Y-13136D01*
X11189Y-13290D01*
X11285Y-13329D01*
X11198Y-13366D01*
X11173Y-13463D01*
X11500Y-13790D01*
X11827Y-13463D01*
X11802Y-13366D01*
X11714Y-13330D01*
X11811Y-13290D01*
X11965Y-13136D01*
X12049Y-12934D01*
X12049Y-12716D01*
X11965Y-12514D01*
X11811Y-12360D01*
X11696Y-12312D01*
X11811Y-12265D01*
X11965Y-12111D01*
X12000Y-12026D01*
X12035Y-12111D01*
X12158Y-12234D01*
X12150Y-12275D01*
X12150Y-14075D01*
X12173Y-14190D01*
X12238Y-14287D01*
X12450Y-14499D01*
X12450Y-14515D01*
G54D10*
G36*
X12483Y-21625D02*
X12339Y-21685D01*
X12185Y-21839D01*
X12101Y-22041D01*
X12101Y-22259D01*
X12185Y-22461D01*
X12249Y-22525D01*
X11999Y-22525D01*
X12000Y-21162D01*
X11938Y-21100D01*
X11325Y-21100D01*
X11275Y-21100D01*
X11225Y-21100D01*
X11225Y-21050D01*
X11225Y-21000D01*
X11225Y-19387D01*
X11169Y-19331D01*
X11215Y-19286D01*
X11250Y-19201D01*
X11285Y-19286D01*
X11330Y-19331D01*
X11275Y-19387D01*
X11275Y-21050D01*
X11938Y-21050D01*
X12000Y-20988D01*
X11999Y-19624D01*
X11999Y-19525D01*
X11977Y-19474D01*
X12061Y-19440D01*
X12171Y-19329D01*
X12185Y-19361D01*
X12339Y-19515D01*
X12423Y-19550D01*
X12339Y-19585D01*
X12185Y-19739D01*
X12101Y-19941D01*
X12101Y-20159D01*
X12185Y-20361D01*
X12339Y-20515D01*
X12483Y-20575D01*
X12339Y-20635D01*
X12185Y-20789D01*
X12101Y-20991D01*
X12101Y-21209D01*
X12185Y-21411D01*
X12339Y-21565D01*
X12483Y-21625D01*
X12483Y-21625D01*
G37*
G54D20*
X12483Y-21625D02*
X12339Y-21685D01*
X12185Y-21839D01*
X12101Y-22041D01*
X12101Y-22259D01*
X12185Y-22461D01*
X12249Y-22525D01*
X11999Y-22525D01*
X12000Y-21162D01*
X11938Y-21100D01*
X11325Y-21100D01*
X11275Y-21100D01*
X11225Y-21100D01*
X11225Y-21050D01*
X11225Y-21000D01*
X11225Y-19387D01*
X11169Y-19331D01*
X11215Y-19286D01*
X11250Y-19201D01*
X11285Y-19286D01*
X11330Y-19331D01*
X11275Y-19387D01*
X11275Y-21050D01*
X11938Y-21050D01*
X12000Y-20988D01*
X11999Y-19624D01*
X11999Y-19525D01*
X11977Y-19474D01*
X12061Y-19440D01*
X12171Y-19329D01*
X12185Y-19361D01*
X12339Y-19515D01*
X12423Y-19550D01*
X12339Y-19585D01*
X12185Y-19739D01*
X12101Y-19941D01*
X12101Y-20159D01*
X12185Y-20361D01*
X12339Y-20515D01*
X12483Y-20575D01*
X12339Y-20635D01*
X12185Y-20789D01*
X12101Y-20991D01*
X12101Y-21209D01*
X12185Y-21411D01*
X12339Y-21565D01*
X12483Y-21625D01*
G54D10*
G36*
X12525Y-10825D02*
X12475Y-10825D01*
X12475Y-10775D01*
X12525Y-10775D01*
X12525Y-10825D01*
X12525Y-10825D01*
G37*
G54D20*
X12525Y-10825D02*
X12475Y-10825D01*
X12475Y-10775D01*
X12525Y-10775D01*
X12525Y-10825D01*
G54D10*
G36*
X13273Y-11300D02*
X13189Y-11335D01*
X13035Y-11489D01*
X13000Y-11573D01*
X12965Y-11489D01*
X12825Y-11349D01*
X12849Y-11349D01*
X12941Y-11311D01*
X13011Y-11241D01*
X13049Y-11150D01*
X13049Y-11125D01*
X13189Y-11265D01*
X13273Y-11300D01*
X13273Y-11300D01*
G37*
G54D20*
X13273Y-11300D02*
X13189Y-11335D01*
X13035Y-11489D01*
X13000Y-11573D01*
X12965Y-11489D01*
X12825Y-11349D01*
X12849Y-11349D01*
X12941Y-11311D01*
X13011Y-11241D01*
X13049Y-11150D01*
X13049Y-11125D01*
X13189Y-11265D01*
X13273Y-11300D01*
G54D10*
G36*
X14602Y-20575D02*
X14561Y-20592D01*
X14392Y-20761D01*
X14301Y-20981D01*
X14301Y-21219D01*
X14317Y-21258D01*
X14038Y-21538D01*
X13973Y-21635D01*
X13962Y-21686D01*
X13961Y-21685D01*
X13816Y-21625D01*
X13961Y-21565D01*
X14115Y-21411D01*
X14199Y-21209D01*
X14199Y-20991D01*
X14115Y-20789D01*
X13961Y-20635D01*
X13816Y-20575D01*
X13961Y-20515D01*
X14115Y-20361D01*
X14199Y-20159D01*
X14199Y-19941D01*
X14115Y-19739D01*
X13961Y-19585D01*
X13864Y-19545D01*
X13952Y-19509D01*
X13977Y-19412D01*
X13650Y-19085D01*
X13323Y-19412D01*
X13348Y-19509D01*
X13435Y-19544D01*
X13339Y-19585D01*
X13185Y-19739D01*
X13150Y-19823D01*
X13115Y-19739D01*
X12961Y-19585D01*
X12876Y-19550D01*
X12961Y-19515D01*
X13115Y-19361D01*
X13154Y-19264D01*
X13191Y-19352D01*
X13288Y-19377D01*
X13615Y-19050D01*
X13288Y-18723D01*
X13191Y-18748D01*
X13155Y-18835D01*
X13115Y-18739D01*
X13028Y-18652D01*
X13033Y-18651D01*
X13174Y-18511D01*
X13250Y-18327D01*
X13250Y-18294D01*
X13296Y-18452D01*
X13392Y-18572D01*
X13348Y-18591D01*
X13323Y-18688D01*
X13650Y-19015D01*
X13650Y-19014D01*
X13685Y-19049D01*
X13685Y-19050D01*
X14012Y-19377D01*
X14109Y-19352D01*
X14153Y-19243D01*
X14290Y-19300D01*
X14459Y-19300D01*
X14525Y-19272D01*
X14525Y-19578D01*
X14392Y-19711D01*
X14301Y-19931D01*
X14301Y-20169D01*
X14392Y-20389D01*
X14525Y-20522D01*
X14525Y-20550D01*
X14553Y-20550D01*
X14561Y-20558D01*
X14602Y-20575D01*
X14602Y-20575D01*
G37*
G54D20*
X14602Y-20575D02*
X14561Y-20592D01*
X14392Y-20761D01*
X14301Y-20981D01*
X14301Y-21219D01*
X14317Y-21258D01*
X14038Y-21538D01*
X13973Y-21635D01*
X13962Y-21686D01*
X13961Y-21685D01*
X13816Y-21625D01*
X13961Y-21565D01*
X14115Y-21411D01*
X14199Y-21209D01*
X14199Y-20991D01*
X14115Y-20789D01*
X13961Y-20635D01*
X13816Y-20575D01*
X13961Y-20515D01*
X14115Y-20361D01*
X14199Y-20159D01*
X14199Y-19941D01*
X14115Y-19739D01*
X13961Y-19585D01*
X13864Y-19545D01*
X13952Y-19509D01*
X13977Y-19412D01*
X13650Y-19085D01*
X13323Y-19412D01*
X13348Y-19509D01*
X13435Y-19544D01*
X13339Y-19585D01*
X13185Y-19739D01*
X13150Y-19823D01*
X13115Y-19739D01*
X12961Y-19585D01*
X12876Y-19550D01*
X12961Y-19515D01*
X13115Y-19361D01*
X13154Y-19264D01*
X13191Y-19352D01*
X13288Y-19377D01*
X13615Y-19050D01*
X13288Y-18723D01*
X13191Y-18748D01*
X13155Y-18835D01*
X13115Y-18739D01*
X13028Y-18652D01*
X13033Y-18651D01*
X13174Y-18511D01*
X13250Y-18327D01*
X13250Y-18294D01*
X13296Y-18452D01*
X13392Y-18572D01*
X13348Y-18591D01*
X13323Y-18688D01*
X13650Y-19015D01*
X13650Y-19014D01*
X13685Y-19049D01*
X13685Y-19050D01*
X14012Y-19377D01*
X14109Y-19352D01*
X14153Y-19243D01*
X14290Y-19300D01*
X14459Y-19300D01*
X14525Y-19272D01*
X14525Y-19578D01*
X14392Y-19711D01*
X14301Y-19931D01*
X14301Y-20169D01*
X14392Y-20389D01*
X14525Y-20522D01*
X14525Y-20550D01*
X14553Y-20550D01*
X14561Y-20558D01*
X14602Y-20575D01*
G54D10*
G36*
X15273Y-11300D02*
X15189Y-11335D01*
X15035Y-11489D01*
X15000Y-11573D01*
X14965Y-11489D01*
X14811Y-11335D01*
X14726Y-11300D01*
X14811Y-11265D01*
X14965Y-11111D01*
X15000Y-11026D01*
X15035Y-11111D01*
X15189Y-11265D01*
X15273Y-11300D01*
X15273Y-11300D01*
G37*
G54D20*
X15273Y-11300D02*
X15189Y-11335D01*
X15035Y-11489D01*
X15000Y-11573D01*
X14965Y-11489D01*
X14811Y-11335D01*
X14726Y-11300D01*
X14811Y-11265D01*
X14965Y-11111D01*
X15000Y-11026D01*
X15035Y-11111D01*
X15189Y-11265D01*
X15273Y-11300D01*
G54D10*
G36*
X22725Y-22725D02*
X20877Y-22725D01*
X20877Y-17240D01*
X20666Y-16695D01*
X20628Y-16639D01*
X20450Y-16513D01*
X20450Y-14250D01*
X20450Y-12450D01*
X18350Y-12450D01*
X18350Y-14250D01*
X20450Y-14250D01*
X20450Y-16513D01*
X20434Y-16502D01*
X20398Y-16537D01*
X20398Y-16466D01*
X20261Y-16272D01*
X19725Y-16036D01*
X19140Y-16023D01*
X18595Y-16234D01*
X18539Y-16272D01*
X18402Y-16466D01*
X19400Y-17465D01*
X20398Y-16466D01*
X20398Y-16537D01*
X19435Y-17500D01*
X20434Y-18498D01*
X20450Y-18486D01*
X20628Y-18361D01*
X20864Y-17825D01*
X20877Y-17240D01*
X20877Y-22725D01*
X20450Y-22725D01*
X16375Y-22725D01*
X16375Y-22566D01*
X16311Y-22410D01*
X16250Y-22349D01*
X16250Y-21876D01*
X16310Y-21816D01*
X16375Y-21660D01*
X16375Y-21491D01*
X16311Y-21335D01*
X16191Y-21215D01*
X16035Y-21150D01*
X15866Y-21150D01*
X15710Y-21214D01*
X15590Y-21334D01*
X15550Y-21430D01*
X15525Y-21490D01*
X15525Y-21659D01*
X15550Y-21719D01*
X15589Y-21815D01*
X15650Y-21876D01*
X15650Y-22349D01*
X15590Y-22409D01*
X15550Y-22505D01*
X15525Y-22565D01*
X15525Y-22725D01*
X15077Y-22725D01*
X15239Y-22658D01*
X15408Y-22489D01*
X15499Y-22269D01*
X15499Y-22031D01*
X15408Y-21811D01*
X15239Y-21642D01*
X15197Y-21625D01*
X15239Y-21608D01*
X15408Y-21439D01*
X15499Y-21219D01*
X15499Y-20981D01*
X15408Y-20761D01*
X15239Y-20592D01*
X15197Y-20575D01*
X15239Y-20558D01*
X15247Y-20550D01*
X15525Y-20550D01*
X15525Y-20709D01*
X15550Y-20769D01*
X15589Y-20865D01*
X15709Y-20985D01*
X15865Y-21050D01*
X16034Y-21050D01*
X16190Y-20986D01*
X16251Y-20925D01*
X16451Y-20925D01*
X17575Y-22049D01*
X17575Y-22134D01*
X17639Y-22290D01*
X17759Y-22410D01*
X17915Y-22475D01*
X18084Y-22475D01*
X18240Y-22411D01*
X18350Y-22301D01*
X18350Y-22550D01*
X20450Y-22550D01*
X20450Y-20750D01*
X20398Y-20750D01*
X20398Y-18534D01*
X19400Y-17535D01*
X19365Y-17570D01*
X19365Y-17500D01*
X18366Y-16502D01*
X18172Y-16639D01*
X17936Y-17175D01*
X17923Y-17760D01*
X18134Y-18305D01*
X18172Y-18361D01*
X18366Y-18498D01*
X19365Y-17500D01*
X19365Y-17570D01*
X18402Y-18534D01*
X18539Y-18728D01*
X19075Y-18964D01*
X19660Y-18977D01*
X20205Y-18766D01*
X20261Y-18728D01*
X20398Y-18534D01*
X20398Y-20750D01*
X18350Y-20750D01*
X18350Y-21799D01*
X18241Y-21690D01*
X18085Y-21625D01*
X17999Y-21625D01*
X16787Y-20413D01*
X16690Y-20348D01*
X16575Y-20325D01*
X16549Y-20325D01*
X16549Y-12934D01*
X16549Y-12716D01*
X16465Y-12514D01*
X16311Y-12360D01*
X16109Y-12276D01*
X15891Y-12276D01*
X15689Y-12360D01*
X15535Y-12514D01*
X15451Y-12716D01*
X15451Y-12934D01*
X15535Y-13136D01*
X15689Y-13290D01*
X15785Y-13329D01*
X15698Y-13366D01*
X15673Y-13463D01*
X16000Y-13790D01*
X16327Y-13463D01*
X16302Y-13366D01*
X16214Y-13330D01*
X16311Y-13290D01*
X16465Y-13136D01*
X16549Y-12934D01*
X16549Y-20325D01*
X16540Y-20325D01*
X16540Y-13929D01*
X16538Y-13714D01*
X16459Y-13523D01*
X16362Y-13498D01*
X16035Y-13825D01*
X16362Y-14152D01*
X16459Y-14127D01*
X16540Y-13929D01*
X16540Y-20325D01*
X16327Y-20325D01*
X16327Y-14187D01*
X16000Y-13860D01*
X15965Y-13895D01*
X15965Y-13825D01*
X15638Y-13498D01*
X15541Y-13523D01*
X15460Y-13721D01*
X15462Y-13936D01*
X15541Y-14127D01*
X15638Y-14152D01*
X15965Y-13825D01*
X15965Y-13895D01*
X15673Y-14187D01*
X15698Y-14284D01*
X15896Y-14365D01*
X16111Y-14363D01*
X16302Y-14284D01*
X16327Y-14187D01*
X16327Y-20325D01*
X16251Y-20325D01*
X16191Y-20265D01*
X16035Y-20200D01*
X15866Y-20200D01*
X15710Y-20264D01*
X15590Y-20384D01*
X15550Y-20480D01*
X15550Y-14450D01*
X14525Y-14450D01*
X14525Y-16427D01*
X14460Y-16400D01*
X14291Y-16400D01*
X14135Y-16464D01*
X14015Y-16584D01*
X13950Y-16740D01*
X13950Y-16909D01*
X14014Y-17065D01*
X14050Y-17101D01*
X14050Y-17526D01*
X13904Y-17446D01*
X13854Y-17436D01*
X13775Y-17488D01*
X13775Y-18000D01*
X13775Y-18050D01*
X13775Y-18100D01*
X13725Y-18100D01*
X13725Y-18050D01*
X13725Y-18000D01*
X13725Y-17488D01*
X13646Y-17436D01*
X13596Y-17446D01*
X13421Y-17542D01*
X13296Y-17698D01*
X13250Y-17855D01*
X13250Y-17824D01*
X13174Y-17640D01*
X13034Y-17499D01*
X12850Y-17423D01*
X12651Y-17423D01*
X12467Y-17499D01*
X12326Y-17639D01*
X12250Y-17823D01*
X12250Y-17824D01*
X12174Y-17640D01*
X12034Y-17499D01*
X11850Y-17423D01*
X11651Y-17423D01*
X11467Y-17499D01*
X11326Y-17639D01*
X11259Y-17801D01*
X11259Y-17626D01*
X11221Y-17534D01*
X11151Y-17464D01*
X11060Y-17426D01*
X10961Y-17426D01*
X10550Y-17426D01*
X10550Y-16025D01*
X11600Y-16025D01*
X11715Y-16002D01*
X11812Y-15937D01*
X11962Y-15787D01*
X12027Y-15690D01*
X12035Y-15648D01*
X12174Y-15511D01*
X12250Y-15327D01*
X12326Y-15510D01*
X12466Y-15651D01*
X12650Y-15727D01*
X12849Y-15727D01*
X13033Y-15651D01*
X13174Y-15511D01*
X13250Y-15327D01*
X13326Y-15510D01*
X13466Y-15651D01*
X13650Y-15727D01*
X13849Y-15727D01*
X14033Y-15651D01*
X14174Y-15511D01*
X14250Y-15327D01*
X14250Y-15128D01*
X14250Y-14824D01*
X14174Y-14640D01*
X14034Y-14499D01*
X13850Y-14423D01*
X13850Y-13375D01*
X13849Y-13374D01*
X13827Y-13260D01*
X13762Y-13163D01*
X13762Y-13162D01*
X13544Y-12944D01*
X13549Y-12934D01*
X13549Y-12716D01*
X13465Y-12514D01*
X13311Y-12360D01*
X13109Y-12276D01*
X12891Y-12276D01*
X12780Y-12321D01*
X12790Y-12273D01*
X12811Y-12265D01*
X12965Y-12111D01*
X13000Y-12026D01*
X13035Y-12111D01*
X13189Y-12265D01*
X13391Y-12349D01*
X13609Y-12349D01*
X13811Y-12265D01*
X13965Y-12111D01*
X14000Y-12026D01*
X14035Y-12111D01*
X14189Y-12265D01*
X14303Y-12312D01*
X14189Y-12360D01*
X14035Y-12514D01*
X13951Y-12716D01*
X13951Y-12934D01*
X14035Y-13136D01*
X14189Y-13290D01*
X14273Y-13325D01*
X14189Y-13360D01*
X14035Y-13514D01*
X13951Y-13716D01*
X13951Y-13934D01*
X14035Y-14136D01*
X14189Y-14290D01*
X14391Y-14374D01*
X14609Y-14374D01*
X14811Y-14290D01*
X14965Y-14136D01*
X15049Y-13934D01*
X15049Y-13716D01*
X14965Y-13514D01*
X14811Y-13360D01*
X14726Y-13325D01*
X14811Y-13290D01*
X14965Y-13136D01*
X15049Y-12934D01*
X15049Y-12716D01*
X14965Y-12514D01*
X14811Y-12360D01*
X14696Y-12312D01*
X14811Y-12265D01*
X14965Y-12111D01*
X15000Y-12026D01*
X15035Y-12111D01*
X15189Y-12265D01*
X15391Y-12349D01*
X15609Y-12349D01*
X15811Y-12265D01*
X15965Y-12111D01*
X16000Y-12026D01*
X16035Y-12111D01*
X16189Y-12265D01*
X16391Y-12349D01*
X16609Y-12349D01*
X16811Y-12265D01*
X16965Y-12111D01*
X17000Y-12026D01*
X17035Y-12111D01*
X17189Y-12265D01*
X17391Y-12349D01*
X17609Y-12349D01*
X17811Y-12265D01*
X17965Y-12111D01*
X18000Y-12026D01*
X18035Y-12111D01*
X18189Y-12265D01*
X18391Y-12349D01*
X18609Y-12349D01*
X18811Y-12265D01*
X18965Y-12111D01*
X19000Y-12026D01*
X19035Y-12111D01*
X19189Y-12265D01*
X19391Y-12349D01*
X19609Y-12349D01*
X19811Y-12265D01*
X19965Y-12111D01*
X20000Y-12026D01*
X20035Y-12111D01*
X20189Y-12265D01*
X20391Y-12349D01*
X20609Y-12349D01*
X20811Y-12265D01*
X20965Y-12111D01*
X21000Y-12026D01*
X21035Y-12111D01*
X21189Y-12265D01*
X21391Y-12349D01*
X21609Y-12349D01*
X21811Y-12265D01*
X21965Y-12111D01*
X22000Y-12026D01*
X22035Y-12111D01*
X22189Y-12265D01*
X22391Y-12349D01*
X22609Y-12349D01*
X22725Y-12300D01*
X22725Y-22725D01*
X22725Y-22725D01*
G37*
G54D20*
X22725Y-22725D02*
X20877Y-22725D01*
X20877Y-17240D01*
X20666Y-16695D01*
X20628Y-16639D01*
X20450Y-16513D01*
X20450Y-14250D01*
X20450Y-12450D01*
X18350Y-12450D01*
X18350Y-14250D01*
X20450Y-14250D01*
X20450Y-16513D01*
X20434Y-16502D01*
X20398Y-16537D01*
X20398Y-16466D01*
X20261Y-16272D01*
X19725Y-16036D01*
X19140Y-16023D01*
X18595Y-16234D01*
X18539Y-16272D01*
X18402Y-16466D01*
X19400Y-17465D01*
X20398Y-16466D01*
X20398Y-16537D01*
X19435Y-17500D01*
X20434Y-18498D01*
X20450Y-18486D01*
X20628Y-18361D01*
X20864Y-17825D01*
X20877Y-17240D01*
X20877Y-22725D01*
X20450Y-22725D01*
X16375Y-22725D01*
X16375Y-22566D01*
X16311Y-22410D01*
X16250Y-22349D01*
X16250Y-21876D01*
X16310Y-21816D01*
X16375Y-21660D01*
X16375Y-21491D01*
X16311Y-21335D01*
X16191Y-21215D01*
X16035Y-21150D01*
X15866Y-21150D01*
X15710Y-21214D01*
X15590Y-21334D01*
X15550Y-21430D01*
X15525Y-21490D01*
X15525Y-21659D01*
X15550Y-21719D01*
X15589Y-21815D01*
X15650Y-21876D01*
X15650Y-22349D01*
X15590Y-22409D01*
X15550Y-22505D01*
X15525Y-22565D01*
X15525Y-22725D01*
X15077Y-22725D01*
X15239Y-22658D01*
X15408Y-22489D01*
X15499Y-22269D01*
X15499Y-22031D01*
X15408Y-21811D01*
X15239Y-21642D01*
X15197Y-21625D01*
X15239Y-21608D01*
X15408Y-21439D01*
X15499Y-21219D01*
X15499Y-20981D01*
X15408Y-20761D01*
X15239Y-20592D01*
X15197Y-20575D01*
X15239Y-20558D01*
X15247Y-20550D01*
X15525Y-20550D01*
X15525Y-20709D01*
X15550Y-20769D01*
X15589Y-20865D01*
X15709Y-20985D01*
X15865Y-21050D01*
X16034Y-21050D01*
X16190Y-20986D01*
X16251Y-20925D01*
X16451Y-20925D01*
X17575Y-22049D01*
X17575Y-22134D01*
X17639Y-22290D01*
X17759Y-22410D01*
X17915Y-22475D01*
X18084Y-22475D01*
X18240Y-22411D01*
X18350Y-22301D01*
X18350Y-22550D01*
X20450Y-22550D01*
X20450Y-20750D01*
X20398Y-20750D01*
X20398Y-18534D01*
X19400Y-17535D01*
X19365Y-17570D01*
X19365Y-17500D01*
X18366Y-16502D01*
X18172Y-16639D01*
X17936Y-17175D01*
X17923Y-17760D01*
X18134Y-18305D01*
X18172Y-18361D01*
X18366Y-18498D01*
X19365Y-17500D01*
X19365Y-17570D01*
X18402Y-18534D01*
X18539Y-18728D01*
X19075Y-18964D01*
X19660Y-18977D01*
X20205Y-18766D01*
X20261Y-18728D01*
X20398Y-18534D01*
X20398Y-20750D01*
X18350Y-20750D01*
X18350Y-21799D01*
X18241Y-21690D01*
X18085Y-21625D01*
X17999Y-21625D01*
X16787Y-20413D01*
X16690Y-20348D01*
X16575Y-20325D01*
X16549Y-20325D01*
X16549Y-12934D01*
X16549Y-12716D01*
X16465Y-12514D01*
X16311Y-12360D01*
X16109Y-12276D01*
X15891Y-12276D01*
X15689Y-12360D01*
X15535Y-12514D01*
X15451Y-12716D01*
X15451Y-12934D01*
X15535Y-13136D01*
X15689Y-13290D01*
X15785Y-13329D01*
X15698Y-13366D01*
X15673Y-13463D01*
X16000Y-13790D01*
X16327Y-13463D01*
X16302Y-13366D01*
X16214Y-13330D01*
X16311Y-13290D01*
X16465Y-13136D01*
X16549Y-12934D01*
X16549Y-20325D01*
X16540Y-20325D01*
X16540Y-13929D01*
X16538Y-13714D01*
X16459Y-13523D01*
X16362Y-13498D01*
X16035Y-13825D01*
X16362Y-14152D01*
X16459Y-14127D01*
X16540Y-13929D01*
X16540Y-20325D01*
X16327Y-20325D01*
X16327Y-14187D01*
X16000Y-13860D01*
X15965Y-13895D01*
X15965Y-13825D01*
X15638Y-13498D01*
X15541Y-13523D01*
X15460Y-13721D01*
X15462Y-13936D01*
X15541Y-14127D01*
X15638Y-14152D01*
X15965Y-13825D01*
X15965Y-13895D01*
X15673Y-14187D01*
X15698Y-14284D01*
X15896Y-14365D01*
X16111Y-14363D01*
X16302Y-14284D01*
X16327Y-14187D01*
X16327Y-20325D01*
X16251Y-20325D01*
X16191Y-20265D01*
X16035Y-20200D01*
X15866Y-20200D01*
X15710Y-20264D01*
X15590Y-20384D01*
X15550Y-20480D01*
X15550Y-14450D01*
X14525Y-14450D01*
X14525Y-16427D01*
X14460Y-16400D01*
X14291Y-16400D01*
X14135Y-16464D01*
X14015Y-16584D01*
X13950Y-16740D01*
X13950Y-16909D01*
X14014Y-17065D01*
X14050Y-17101D01*
X14050Y-17526D01*
X13904Y-17446D01*
X13854Y-17436D01*
X13775Y-17488D01*
X13775Y-18000D01*
X13775Y-18050D01*
X13775Y-18100D01*
X13725Y-18100D01*
X13725Y-18050D01*
X13725Y-18000D01*
X13725Y-17488D01*
X13646Y-17436D01*
X13596Y-17446D01*
X13421Y-17542D01*
X13296Y-17698D01*
X13250Y-17855D01*
X13250Y-17824D01*
X13174Y-17640D01*
X13034Y-17499D01*
X12850Y-17423D01*
X12651Y-17423D01*
X12467Y-17499D01*
X12326Y-17639D01*
X12250Y-17823D01*
X12250Y-17824D01*
X12174Y-17640D01*
X12034Y-17499D01*
X11850Y-17423D01*
X11651Y-17423D01*
X11467Y-17499D01*
X11326Y-17639D01*
X11259Y-17801D01*
X11259Y-17626D01*
X11221Y-17534D01*
X11151Y-17464D01*
X11060Y-17426D01*
X10961Y-17426D01*
X10550Y-17426D01*
X10550Y-16025D01*
X11600Y-16025D01*
X11715Y-16002D01*
X11812Y-15937D01*
X11962Y-15787D01*
X12027Y-15690D01*
X12035Y-15648D01*
X12174Y-15511D01*
X12250Y-15327D01*
X12326Y-15510D01*
X12466Y-15651D01*
X12650Y-15727D01*
X12849Y-15727D01*
X13033Y-15651D01*
X13174Y-15511D01*
X13250Y-15327D01*
X13326Y-15510D01*
X13466Y-15651D01*
X13650Y-15727D01*
X13849Y-15727D01*
X14033Y-15651D01*
X14174Y-15511D01*
X14250Y-15327D01*
X14250Y-15128D01*
X14250Y-14824D01*
X14174Y-14640D01*
X14034Y-14499D01*
X13850Y-14423D01*
X13850Y-13375D01*
X13849Y-13374D01*
X13827Y-13260D01*
X13762Y-13163D01*
X13762Y-13162D01*
X13544Y-12944D01*
X13549Y-12934D01*
X13549Y-12716D01*
X13465Y-12514D01*
X13311Y-12360D01*
X13109Y-12276D01*
X12891Y-12276D01*
X12780Y-12321D01*
X12790Y-12273D01*
X12811Y-12265D01*
X12965Y-12111D01*
X13000Y-12026D01*
X13035Y-12111D01*
X13189Y-12265D01*
X13391Y-12349D01*
X13609Y-12349D01*
X13811Y-12265D01*
X13965Y-12111D01*
X14000Y-12026D01*
X14035Y-12111D01*
X14189Y-12265D01*
X14303Y-12312D01*
X14189Y-12360D01*
X14035Y-12514D01*
X13951Y-12716D01*
X13951Y-12934D01*
X14035Y-13136D01*
X14189Y-13290D01*
X14273Y-13325D01*
X14189Y-13360D01*
X14035Y-13514D01*
X13951Y-13716D01*
X13951Y-13934D01*
X14035Y-14136D01*
X14189Y-14290D01*
X14391Y-14374D01*
X14609Y-14374D01*
X14811Y-14290D01*
X14965Y-14136D01*
X15049Y-13934D01*
X15049Y-13716D01*
X14965Y-13514D01*
X14811Y-13360D01*
X14726Y-13325D01*
X14811Y-13290D01*
X14965Y-13136D01*
X15049Y-12934D01*
X15049Y-12716D01*
X14965Y-12514D01*
X14811Y-12360D01*
X14696Y-12312D01*
X14811Y-12265D01*
X14965Y-12111D01*
X15000Y-12026D01*
X15035Y-12111D01*
X15189Y-12265D01*
X15391Y-12349D01*
X15609Y-12349D01*
X15811Y-12265D01*
X15965Y-12111D01*
X16000Y-12026D01*
X16035Y-12111D01*
X16189Y-12265D01*
X16391Y-12349D01*
X16609Y-12349D01*
X16811Y-12265D01*
X16965Y-12111D01*
X17000Y-12026D01*
X17035Y-12111D01*
X17189Y-12265D01*
X17391Y-12349D01*
X17609Y-12349D01*
X17811Y-12265D01*
X17965Y-12111D01*
X18000Y-12026D01*
X18035Y-12111D01*
X18189Y-12265D01*
X18391Y-12349D01*
X18609Y-12349D01*
X18811Y-12265D01*
X18965Y-12111D01*
X19000Y-12026D01*
X19035Y-12111D01*
X19189Y-12265D01*
X19391Y-12349D01*
X19609Y-12349D01*
X19811Y-12265D01*
X19965Y-12111D01*
X20000Y-12026D01*
X20035Y-12111D01*
X20189Y-12265D01*
X20391Y-12349D01*
X20609Y-12349D01*
X20811Y-12265D01*
X20965Y-12111D01*
X21000Y-12026D01*
X21035Y-12111D01*
X21189Y-12265D01*
X21391Y-12349D01*
X21609Y-12349D01*
X21811Y-12265D01*
X21965Y-12111D01*
X22000Y-12026D01*
X22035Y-12111D01*
X22189Y-12265D01*
X22391Y-12349D01*
X22609Y-12349D01*
X22725Y-12300D01*
X22725Y-22725D01*
M02*
