G04 (created by PCBNEW-RS274X (2012-01-19 BZR 3256)-stable) date 15-Mar-13 12:04:22 PM*
G01*
G70*
G90*
%MOIN*%
G04 Gerber Fmt 3.4, Leading zero omitted, Abs format*
%FSLAX34Y34*%
G04 APERTURE LIST*
%ADD10C,0.006000*%
%ADD11C,0.005000*%
%ADD12C,0.090000*%
%ADD13C,0.080000*%
%ADD14R,0.080000X0.080000*%
%ADD15R,0.043600X0.098700*%
%ADD16C,0.140000*%
%ADD17R,0.072000X0.100000*%
%ADD18O,0.072000X0.100000*%
%ADD19R,0.120000X0.320000*%
G04 APERTURE END LIST*
G54D10*
G54D11*
X23000Y-10000D02*
X10000Y-10000D01*
X10000Y-23000D02*
X10000Y-10000D01*
X23000Y-23000D02*
X10000Y-23000D01*
X23000Y-10000D02*
X23000Y-23000D01*
G54D12*
X14900Y-20050D03*
X14900Y-22150D03*
X14900Y-21100D03*
G54D13*
X10500Y-11800D03*
X10500Y-10800D03*
X11500Y-11800D03*
X11500Y-10800D03*
X12500Y-11800D03*
G54D14*
X12500Y-10800D03*
G54D13*
X13500Y-11800D03*
X13500Y-10800D03*
X14500Y-11800D03*
X14500Y-10800D03*
X15500Y-11800D03*
X15500Y-10800D03*
X16500Y-11800D03*
X16500Y-10800D03*
X17500Y-11800D03*
X17500Y-10800D03*
X18500Y-11800D03*
X18500Y-10800D03*
X19500Y-11800D03*
X19500Y-10800D03*
X20500Y-11800D03*
X20500Y-10800D03*
X21500Y-11800D03*
X21500Y-10800D03*
X22500Y-11800D03*
X22500Y-10800D03*
G54D15*
X16900Y-19331D03*
X17400Y-19331D03*
X17900Y-19331D03*
X18400Y-19331D03*
X18900Y-19331D03*
X19400Y-19331D03*
X19900Y-19331D03*
X20400Y-19331D03*
X20400Y-15669D03*
X19900Y-15669D03*
X19400Y-15669D03*
X18900Y-15669D03*
X18400Y-15669D03*
X17900Y-15669D03*
X17400Y-15669D03*
X16900Y-15669D03*
G54D10*
G36*
X16075Y-20747D02*
X16075Y-20503D01*
X16875Y-20237D01*
X16875Y-21013D01*
X16075Y-20747D01*
X16075Y-20747D01*
G37*
G36*
X16775Y-21013D02*
X16775Y-20237D01*
X17575Y-20503D01*
X17575Y-20747D01*
X16775Y-21013D01*
X16775Y-21013D01*
G37*
G36*
X16075Y-21697D02*
X16075Y-21453D01*
X16875Y-21187D01*
X16875Y-21963D01*
X16075Y-21697D01*
X16075Y-21697D01*
G37*
G36*
X16775Y-21963D02*
X16775Y-21187D01*
X17575Y-21453D01*
X17575Y-21697D01*
X16775Y-21963D01*
X16775Y-21963D01*
G37*
G54D13*
X11500Y-13825D03*
X11500Y-12825D03*
X16000Y-13825D03*
X16000Y-12825D03*
X12650Y-21100D03*
X13650Y-21100D03*
X13000Y-12825D03*
X13000Y-13825D03*
X14500Y-12825D03*
X14500Y-13825D03*
X12650Y-22150D03*
X13650Y-22150D03*
X12650Y-20050D03*
X13650Y-20050D03*
G54D16*
X19400Y-21650D03*
X19400Y-13350D03*
G54D17*
X10750Y-18075D03*
G54D18*
X11750Y-18075D03*
X12750Y-18075D03*
X13750Y-18075D03*
X13750Y-15075D03*
X12750Y-15075D03*
X11750Y-15075D03*
X10750Y-15075D03*
G54D13*
X10750Y-18975D03*
X11750Y-18975D03*
G54D19*
X11250Y-21075D03*
G54D13*
X13650Y-19050D03*
X12650Y-19050D03*
M02*
