M48
INCH,TZ
T1C0.025
T2C0.035
T3C0.040
T4C0.046
T5C0.050
T6C0.080
T7C0.100
T8C0.120
T9C0.130
%
G90
G05
T1
X28650Y-41600
X28650Y-44600
X44040Y-53140
X44500Y-42425
X44500Y-45650
X45000Y-44875
X45325Y-45650
X45375Y-44575
X46560Y-49280
X46950Y-49725
X47300Y-50250
X47800Y-50650
X47840Y-49520
X49300Y-51080
X53500Y-64225
X55380Y-40420
X56850Y-45775
X60400Y-46750
X60400Y-51650
X60900Y-51480
X61400Y-46200
X61850Y-46375
X61900Y-51280
X62125Y-47550
X62250Y-63200
X62475Y-58050
X62900Y-51400
X63320Y-63020
X63475Y-64475
X63640Y-62660
X64975Y-43750
X65600Y-44525
X65975Y-43025
X66975Y-41800
X67180Y-64000
X67975Y-42650
X67980Y-56700
X67980Y-58760
X68150Y-39025
X68400Y-44860
X68900Y-41350
X68900Y-44860
X69000Y-39025
X69540Y-55580
X69940Y-55940
X70400Y-45360
X72575Y-62975
X73325Y-67650
X77225Y-60325
X78175Y-59150
X78175Y-59650
X79250Y-64625
T2
X34500Y-63100
X35500Y-61525
X35500Y-65175
X36500Y-61525
X36500Y-63100
X36500Y-65175
X41200Y-63100
X41200Y-65100
X46975Y-41200
X46975Y-43775
X46975Y-44975
X47900Y-59200
X47900Y-63200
X47975Y-42575
X47975Y-43775
X48600Y-57900
X48975Y-41200
X48975Y-44975
X49200Y-48900
X49200Y-50225
X49600Y-59100
X49975Y-42575
X50600Y-57900
X50600Y-59100
X51200Y-48900
X51200Y-50225
X52100Y-40870
X52100Y-41660
X52100Y-42450
X52100Y-43240
X52100Y-44030
X52100Y-44820
X52100Y-45610
X52100Y-46400
X52700Y-51400
X52700Y-53400
X52700Y-55000
X52700Y-56000
X52700Y-57900
X52700Y-59900
X52700Y-61600
X52700Y-62600
X53900Y-52400
X53900Y-53400
X53900Y-58900
X53900Y-59900
X54500Y-40300
X54500Y-43300
X54500Y-44400
X54500Y-47400
X55175Y-50425
X55175Y-57375
X55175Y-65475
X56175Y-50425
X56175Y-57375
X56175Y-65475
X56675Y-51850
X56675Y-58650
X57500Y-64875
X57500Y-65875
X57525Y-40600
X57525Y-41600
X57525Y-42600
X57525Y-43600
X57525Y-44600
X57525Y-46600
X57675Y-51850
X57675Y-58650
X58975Y-44600
X59975Y-44600
X60400Y-49900
X60400Y-52900
X60800Y-61900
X61125Y-43600
X61400Y-49900
X61400Y-52900
X62125Y-43600
X62400Y-49900
X62400Y-52900
X62800Y-61900
X63400Y-45875
X63400Y-46875
X63400Y-48275
X63400Y-49900
X63400Y-52900
X64400Y-48275
X64400Y-49900
X64400Y-52900
X64850Y-61900
X65400Y-45875
X65400Y-46875
X65400Y-48275
X65400Y-49900
X65400Y-52900
X66400Y-49900
X66400Y-52900
X66850Y-61900
X67400Y-46260
X67400Y-48260
X67400Y-49900
X67400Y-52900
X68300Y-36700
X68400Y-49900
X68400Y-52900
X68825Y-64700
X69300Y-36700
X69400Y-49900
X69400Y-52900
X69825Y-64700
X70400Y-49900
X70400Y-52900
X71325Y-64700
X71400Y-49900
X71400Y-52900
X71500Y-44900
X71500Y-46900
X72400Y-49900
X72400Y-52900
X73325Y-64700
X73400Y-49900
X73400Y-52900
X75075Y-55075
X75075Y-56075
X75180Y-46900
X75180Y-47900
X75825Y-64700
X76075Y-55075
X76075Y-56075
X77500Y-41975
X77825Y-64700
X78500Y-43075
X79000Y-58550
X79000Y-61550
X80250Y-58550
X80250Y-60550
X80325Y-64700
X80500Y-43075
X81500Y-41975
X82325Y-64700
X82460Y-36300
X83250Y-36300
X84040Y-36300
X86500Y-59150
X86500Y-60150
X86500Y-61150
T3
X26550Y-41600
X26550Y-42600
X26550Y-43600
X26550Y-44600
X43700Y-41600
X43700Y-42600
X43700Y-43600
X43700Y-44600
X43700Y-46900
X43700Y-47900
X44450Y-69025
X44700Y-46900
X44700Y-47900
X45450Y-69025
X45700Y-46900
X45700Y-47900
X46450Y-69025
X54325Y-68025
X54325Y-69025
X55325Y-68025
X55325Y-69025
X56100Y-40600
X56100Y-41600
X56100Y-42600
X56100Y-43600
X56100Y-44600
X56100Y-45600
X56325Y-68025
X56325Y-69025
X57325Y-68025
X57325Y-69025
X58325Y-68025
X58325Y-69025
X58975Y-40625
X59325Y-68025
X59325Y-69025
X59975Y-40625
X60325Y-68025
X60325Y-69025
X60975Y-40625
X61325Y-68025
X61325Y-69025
X61975Y-40625
X62325Y-68025
X62325Y-69025
X62575Y-59625
X62975Y-40625
X63325Y-68025
X63325Y-69025
X63575Y-59625
X63975Y-40625
X64325Y-68025
X64325Y-69025
X64575Y-59625
X64975Y-40625
X65325Y-68025
X65325Y-69025
X65400Y-57625
X65575Y-59625
X65975Y-40625
X66325Y-68025
X66325Y-69025
X66400Y-57625
X66575Y-59625
X66975Y-40625
X67400Y-57625
X67575Y-59625
X67825Y-66200
X67975Y-40625
X68575Y-59625
X68825Y-66200
X69100Y-29450
X69100Y-30450
X69100Y-31450
X69100Y-32450
X69100Y-33450
X69100Y-34450
X69575Y-40625
X69575Y-59625
X69825Y-66200
X70575Y-40625
X71325Y-66200
X71500Y-43300
X71575Y-40625
X71575Y-57625
X71575Y-58625
X71575Y-59625
X72325Y-66200
X72500Y-43300
X72575Y-40625
X72575Y-57625
X72575Y-58625
X72575Y-59625
X73150Y-28650
X73150Y-29650
X73150Y-30650
X73150Y-31650
X73150Y-32650
X73150Y-33650
X73325Y-66200
X73500Y-43300
X73575Y-40625
X73575Y-57625
X73575Y-58625
X73575Y-59625
X74150Y-28650
X74150Y-29650
X74150Y-30650
X74150Y-31650
X74150Y-32650
X74150Y-33650
X74325Y-66200
X74500Y-43300
X74575Y-40625
X74575Y-57625
X74575Y-58625
X74575Y-59625
X75500Y-43300
X75575Y-40625
X75575Y-57625
X75575Y-58625
X75575Y-59625
X75825Y-66200
X76500Y-43300
X76575Y-40625
X76575Y-57625
X76575Y-58625
X76575Y-59625
X76825Y-66200
X77825Y-66200
X78500Y-45000
X78825Y-66200
X79500Y-45000
X79725Y-28650
X79725Y-29650
X79725Y-30650
X79725Y-31650
X79725Y-32650
X79725Y-33650
X80325Y-66200
X80500Y-45000
X80725Y-28650
X80725Y-29650
X80725Y-30650
X80725Y-31650
X80725Y-32650
X80725Y-33650
X81100Y-37700
X81100Y-40700
X81325Y-66200
X81850Y-28550
X82100Y-37700
X82100Y-40700
X82325Y-66200
X83150Y-45300
X83150Y-47050
X83900Y-45675
X83900Y-46675
X84000Y-43075
X84650Y-28550
X85000Y-43075
X85700Y-45300
X85700Y-47050
X86000Y-43075
T5
X29050Y-48950
X29050Y-51550
X84700Y-44800
X84700Y-47550
T6
X79500Y-46450
X82700Y-48650
X82700Y-56950
T7
X48450Y-30550
X48450Y-33350
X55950Y-30550
X55950Y-33350
T8
X13825Y-11325
X13825Y-68675
X16725Y-39575
X16725Y-46625
X17250Y-14200
X17250Y-60200
X23250Y-14200
X23250Y-60200
X23775Y-39575
X23775Y-46625
X37675Y-11325
X37675Y-68675
X41325Y-11325
X41325Y-23075
X41325Y-26725
X41325Y-37175
X41325Y-40825
X41325Y-68675
X46100Y-29700
X46100Y-34200
X48450Y-29250
X48450Y-34650
X59050Y-29250
X59050Y-34650
X63425Y-55025
X73375Y-26725
X73375Y-37175
X77025Y-26725
X77025Y-37175
X81670Y-34950
X84830Y-34950
X84950Y-65075
X86175Y-11325
X86175Y-23075
X86175Y-26725
X86175Y-37175
X86175Y-40825
X86175Y-68675
T4
X49430Y-64325G85X50570Y-64325
G05
X49530Y-66725G85X50470Y-66725
G05
X52000Y-65945G85X52000Y-65005
G05
T9
X44120Y-12420G85X45920Y-12420
G05
X44120Y-21980G85X45920Y-21980
G05
X51120Y-12420G85X52920Y-12420
G05
X51120Y-21980G85X52920Y-21980
G05
X67580Y-12420G85X69380Y-12420
G05
X67580Y-21980G85X69380Y-21980
G05
X74580Y-12420G85X76380Y-12420
G05
X74580Y-21980G85X76380Y-21980
G05
T0
M30
