G04 (created by PCBNEW-RS274X (2011-12-28 BZR 3254)-stable) date 6/8/2012 11:53:48 AM*
G01*
G70*
G90*
%MOIN*%
G04 Gerber Fmt 3.4, Leading zero omitted, Abs format*
%FSLAX34Y34*%
G04 APERTURE LIST*
%ADD10C,0.006000*%
%ADD11C,0.015000*%
%ADD12C,0.220000*%
%ADD13C,0.090000*%
%ADD14R,0.100000X0.070000*%
%ADD15O,0.100000X0.070000*%
%ADD16C,0.080000*%
%ADD17R,0.080000X0.080000*%
%ADD18R,0.090000X0.090000*%
%ADD19O,0.110000X0.080000*%
%ADD20R,0.080000X0.120000*%
%ADD21O,0.080000X0.120000*%
%ADD22C,0.085000*%
%ADD23R,0.085000X0.085000*%
%ADD24C,0.100000*%
%ADD25O,0.070000X0.100000*%
%ADD26R,0.070000X0.100000*%
%ADD27C,0.140000*%
%ADD28R,0.140000X0.140000*%
G04 APERTURE END LIST*
G54D10*
G54D11*
X42800Y-08200D02*
X52800Y-08200D01*
X42800Y-28200D02*
X42800Y-08200D01*
X52800Y-28200D02*
X42800Y-28200D01*
X52800Y-08200D02*
X52800Y-28200D01*
X10000Y-24700D02*
X10000Y-10000D01*
X37000Y-24700D02*
X10000Y-24700D01*
X37000Y-10000D02*
X37000Y-24700D01*
X10000Y-10000D02*
X37000Y-10000D01*
G54D12*
X35825Y-11175D03*
X43875Y-09275D03*
X43875Y-27125D03*
X35825Y-23525D03*
G54D13*
X45525Y-15700D03*
X45525Y-16700D03*
X45525Y-17700D03*
X45525Y-18700D03*
X45525Y-19700D03*
X45525Y-20700D03*
X51525Y-20700D03*
X51525Y-19700D03*
X51525Y-18700D03*
X51525Y-17700D03*
X51525Y-16700D03*
X51525Y-15700D03*
G54D14*
X46750Y-24000D03*
G54D15*
X46750Y-23000D03*
X46750Y-22000D03*
X46750Y-21000D03*
X46750Y-20000D03*
X46750Y-19000D03*
X46750Y-18000D03*
X46750Y-17000D03*
X49750Y-17000D03*
X49750Y-18000D03*
X49750Y-19000D03*
X49750Y-20000D03*
X49750Y-21000D03*
X49750Y-22000D03*
X49750Y-23000D03*
X49750Y-24000D03*
G54D16*
X19600Y-15050D03*
X17600Y-15050D03*
G54D17*
X18600Y-15050D03*
G54D16*
X29000Y-15850D03*
G54D17*
X29000Y-16850D03*
G54D16*
X16750Y-23800D03*
G54D17*
X16750Y-22800D03*
G54D18*
X11700Y-24050D03*
G54D13*
X11700Y-23050D03*
X11700Y-22050D03*
X11700Y-21050D03*
X11700Y-20050D03*
X11700Y-19050D03*
X11700Y-18050D03*
G54D18*
X43775Y-24700D03*
G54D13*
X43775Y-23700D03*
X43775Y-22700D03*
X43775Y-21700D03*
X43775Y-20700D03*
X43775Y-19700D03*
X43775Y-18700D03*
G54D18*
X43775Y-11700D03*
G54D13*
X43775Y-12700D03*
X43775Y-13700D03*
X43775Y-14700D03*
X43775Y-15700D03*
X43775Y-16700D03*
X43775Y-17700D03*
X11700Y-11050D03*
X11700Y-12050D03*
X11700Y-13050D03*
X11700Y-14050D03*
X11700Y-15050D03*
X11700Y-16050D03*
X11700Y-17050D03*
G54D19*
X27450Y-11700D03*
X27450Y-12700D03*
X27450Y-13700D03*
X27450Y-14700D03*
X30450Y-14700D03*
X30450Y-13700D03*
X30450Y-12700D03*
X30450Y-11700D03*
G54D18*
X28775Y-21475D03*
G54D13*
X28775Y-20475D03*
X28775Y-19475D03*
X28775Y-18475D03*
G54D16*
X19350Y-21050D03*
G54D17*
X19350Y-23050D03*
G54D16*
X31850Y-11425D03*
G54D17*
X33850Y-11425D03*
G54D16*
X19550Y-13275D03*
X17550Y-13275D03*
X27350Y-21050D03*
G54D17*
X27350Y-23050D03*
G54D16*
X31350Y-19350D03*
G54D17*
X31350Y-21350D03*
G54D16*
X30175Y-21350D03*
G54D17*
X30175Y-19350D03*
G54D16*
X23425Y-21050D03*
G54D17*
X23425Y-23050D03*
G54D20*
X30125Y-23250D03*
G54D21*
X31125Y-23250D03*
X29125Y-23250D03*
G54D22*
X13450Y-21850D03*
X14450Y-21850D03*
X13450Y-22850D03*
X14450Y-22850D03*
X13450Y-23850D03*
G54D23*
X14450Y-23850D03*
G54D16*
X31225Y-17600D03*
G54D17*
X30225Y-17600D03*
G54D13*
X25875Y-11400D03*
X24125Y-11400D03*
G54D24*
X26375Y-12400D03*
X23625Y-12400D03*
G54D13*
X24500Y-12900D03*
X25500Y-12900D03*
G54D18*
X22550Y-11800D03*
X21550Y-11800D03*
G54D13*
X20550Y-11800D03*
X19550Y-11800D03*
X18550Y-11800D03*
X17550Y-11800D03*
G54D24*
X44825Y-11700D03*
G54D16*
X18250Y-23800D03*
X18250Y-20800D03*
X23600Y-15225D03*
X26600Y-15225D03*
X21100Y-15750D03*
X21100Y-12750D03*
X25350Y-20800D03*
G54D17*
X25350Y-23800D03*
G54D16*
X24450Y-20800D03*
X24450Y-23800D03*
X21375Y-20800D03*
G54D17*
X21375Y-23800D03*
G54D16*
X20450Y-20800D03*
X20450Y-23800D03*
G54D25*
X27100Y-16650D03*
X26100Y-16650D03*
X25100Y-16650D03*
X24100Y-16650D03*
X23100Y-16650D03*
X22100Y-16650D03*
X21100Y-16650D03*
G54D26*
X20100Y-16650D03*
G54D25*
X19100Y-16650D03*
X18100Y-16650D03*
X17100Y-16650D03*
X16100Y-16650D03*
X15100Y-16650D03*
X14100Y-16650D03*
X14100Y-19650D03*
X15100Y-19650D03*
X16100Y-19650D03*
X17100Y-19650D03*
X18100Y-19650D03*
X19100Y-19650D03*
X20100Y-19650D03*
G54D26*
X21100Y-19650D03*
G54D25*
X22100Y-19650D03*
X23100Y-19650D03*
X24100Y-19650D03*
X25100Y-19650D03*
X26100Y-19650D03*
X27100Y-19650D03*
G54D17*
X16525Y-11225D03*
G54D16*
X15525Y-11225D03*
X16525Y-13225D03*
X15525Y-13225D03*
X16525Y-12225D03*
X15525Y-12225D03*
G54D27*
X34250Y-13350D03*
G54D28*
X34250Y-15350D03*
X34250Y-17350D03*
G54D27*
X34250Y-19350D03*
X34250Y-21350D03*
G54D13*
X33075Y-23250D03*
G54D18*
X34075Y-23250D03*
G54D16*
X26250Y-20800D03*
G54D17*
X26250Y-23800D03*
G54D16*
X22350Y-20800D03*
G54D17*
X22350Y-23800D03*
G54D13*
X24100Y-13950D03*
X25850Y-13950D03*
G54D23*
X22350Y-15350D03*
G54D22*
X22350Y-14350D03*
X22350Y-13350D03*
G54D13*
X14450Y-13225D03*
G54D22*
X13450Y-13225D03*
X14450Y-12225D03*
X13450Y-12225D03*
X14450Y-11225D03*
X13450Y-11225D03*
G54D18*
X10700Y-17050D03*
G54D13*
X10700Y-16050D03*
X10700Y-15050D03*
X10700Y-14050D03*
X10700Y-13050D03*
X10700Y-12050D03*
G54D18*
X10700Y-23050D03*
G54D13*
X10700Y-22050D03*
X10700Y-21050D03*
X10700Y-20050D03*
X10700Y-19050D03*
X10700Y-18050D03*
M02*
