M48
INCH,TZ
T1C0.025
T2C0.032
T3C0.035
T4C0.040
T5C0.050
T6C0.060
T7C0.120
%
G90
G05
T1
X12975Y-14975
X14000Y-15425
X15000Y-15800
X17000Y-18825
X23500Y-18825
T2
X17000Y-15700
X18000Y-15700
X19000Y-15700
X29825Y-18000
X30825Y-18000
X47225Y-11700
T3
X14925Y-10875
X14925Y-11875
X14925Y-12875
X14925Y-13875
X15925Y-10875
X15925Y-11875
X15925Y-12875
X15925Y-13875
X16150Y-23700
X16150Y-24700
X16950Y-13925
X17650Y-21700
X17650Y-24700
X18750Y-21700
X18750Y-23700
X18950Y-13925
X19850Y-21700
X19850Y-24700
X20775Y-21700
X20775Y-24700
X22000Y-13500
X22000Y-16500
X22825Y-21700
X22825Y-23700
X22925Y-15575
X23850Y-21700
X23850Y-24700
X24750Y-21700
X24750Y-24700
X25925Y-15575
X26275Y-11450
X26750Y-21700
X26750Y-23700
X28275Y-11450
X30025Y-10950
X30025Y-11950
X30125Y-20125
X30125Y-22125
X31275Y-20125
X31275Y-22125
T4
X11100Y-11700
X11100Y-12700
X11100Y-13700
X11100Y-14700
X11100Y-15700
X11100Y-16700
X11100Y-17700
X11100Y-18700
X11100Y-19700
X11100Y-20700
X11100Y-21700
X11100Y-22700
X11100Y-23700
X11100Y-24700
X12850Y-10875
X12850Y-11875
X12850Y-12875
X12850Y-22700
X12850Y-23700
X12850Y-24700
X13500Y-17300
X13500Y-20300
X13850Y-10875
X13850Y-11875
X13850Y-12875
X13850Y-22700
X13850Y-23700
X13850Y-24700
X14500Y-17300
X14500Y-20300
X15500Y-17300
X15500Y-20300
X16500Y-17300
X16500Y-20300
X16950Y-12450
X17500Y-17300
X17500Y-20300
X17950Y-12450
X18500Y-17300
X18500Y-20300
X18950Y-12450
X19500Y-17300
X19500Y-20300
X19950Y-12450
X20500Y-17300
X20500Y-20300
X20950Y-12450
X21500Y-17300
X21500Y-20300
X21750Y-21700
X21750Y-24700
X21950Y-12450
X22500Y-17300
X22500Y-20300
X23500Y-17300
X23500Y-20300
X23525Y-13000
X23900Y-14500
X24500Y-17300
X24500Y-20300
X24900Y-14500
X25275Y-13000
X25500Y-17300
X25500Y-20300
X25650Y-21700
X25650Y-24700
X26500Y-17300
X26500Y-20300
X27025Y-13000
X27025Y-14000
X27025Y-15000
X27025Y-16000
X28275Y-19125
X28275Y-20125
X28275Y-21125
X28275Y-22125
X28525Y-24175
X29525Y-24175
X30025Y-13000
X30025Y-14000
X30025Y-15000
X30025Y-16000
X30525Y-24175
X46175Y-11700
X46175Y-12700
X46175Y-13700
X46175Y-14700
X46175Y-15700
X46175Y-16700
X46175Y-17700
X46175Y-18700
X46175Y-19700
X46175Y-20700
X46175Y-21700
X46175Y-22700
X46175Y-23700
X46175Y-24700
X47925Y-15700
X47925Y-16700
X47925Y-17700
X47925Y-18700
X47925Y-19700
X47925Y-20700
X49150Y-17000
X49150Y-18000
X49150Y-19000
X49150Y-20000
X49150Y-21000
X49150Y-22000
X49150Y-23000
X49150Y-24000
X52150Y-17000
X52150Y-18000
X52150Y-19000
X52150Y-20000
X52150Y-21000
X52150Y-22000
X52150Y-23000
X52150Y-24000
X53925Y-15700
X53925Y-16700
X53925Y-17700
X53925Y-18700
X53925Y-19700
X53925Y-20700
T5
X23025Y-14000
X25775Y-14000
T6
X33650Y-14000
X33650Y-16000
X33650Y-18000
X33650Y-20000
X33650Y-22000
T7
X34825Y-11175
X34825Y-24825
X46275Y-9275
X46275Y-27125
T0
M30
