G04 (created by PCBNEW (2011-05-25)-stable) date Wednesday 06 June 2012 09:43:45 PM IST*
G01*
G70*
G90*
%MOIN*%
G04 Gerber Fmt 3.4, Leading zero omitted, Abs format*
%FSLAX34Y34*%
G04 APERTURE LIST*
%ADD10C,0.001000*%
%ADD11C,0.015000*%
%ADD12C,0.008000*%
G04 APERTURE END LIST*
G54D10*
G54D11*
X42800Y-08200D02*
X52800Y-08200D01*
X42800Y-28200D02*
X42800Y-08200D01*
X52800Y-28200D02*
X42800Y-28200D01*
X52800Y-08200D02*
X52800Y-28200D01*
X10000Y-24700D02*
X10000Y-10000D01*
X37000Y-24700D02*
X10000Y-24700D01*
X37000Y-10000D02*
X37000Y-24700D01*
X10000Y-10000D02*
X37000Y-10000D01*
G54D10*
X13150Y-17950D02*
X13400Y-18200D01*
X13400Y-17950D02*
X13150Y-18200D01*
X13150Y-18875D02*
X13400Y-19125D01*
X13400Y-18875D02*
X13150Y-19125D01*
X13450Y-14200D02*
X13700Y-14450D01*
X13700Y-14200D02*
X13450Y-14450D01*
X13825Y-20625D02*
X14075Y-20875D01*
X14075Y-20625D02*
X13825Y-20875D01*
X14475Y-14650D02*
X14725Y-14900D01*
X14725Y-14650D02*
X14475Y-14900D01*
X15475Y-15025D02*
X15725Y-15275D01*
X15725Y-15025D02*
X15475Y-15275D01*
X17475Y-18050D02*
X17725Y-18300D01*
X17725Y-18050D02*
X17475Y-18300D01*
X23975Y-18050D02*
X24225Y-18300D01*
X24225Y-18050D02*
X23975Y-18300D01*
X26975Y-17700D02*
X27225Y-17950D01*
X27225Y-17700D02*
X26975Y-17950D01*
X17760Y-15050D02*
X17756Y-15081D01*
X17747Y-15110D01*
X17733Y-15138D01*
X17713Y-15162D01*
X17689Y-15182D01*
X17662Y-15197D01*
X17632Y-15206D01*
X17601Y-15209D01*
X17571Y-15207D01*
X17541Y-15198D01*
X17513Y-15183D01*
X17489Y-15164D01*
X17468Y-15140D01*
X17453Y-15113D01*
X17444Y-15083D01*
X17441Y-15052D01*
X17443Y-15022D01*
X17452Y-14992D01*
X17466Y-14964D01*
X17485Y-14939D01*
X17509Y-14919D01*
X17536Y-14904D01*
X17566Y-14894D01*
X17597Y-14891D01*
X17627Y-14893D01*
X17657Y-14901D01*
X17685Y-14915D01*
X17710Y-14935D01*
X17730Y-14958D01*
X17746Y-14985D01*
X17756Y-15015D01*
X17759Y-15046D01*
X17760Y-15050D01*
X18760Y-15050D02*
X18756Y-15081D01*
X18747Y-15110D01*
X18733Y-15138D01*
X18713Y-15162D01*
X18689Y-15182D01*
X18662Y-15197D01*
X18632Y-15206D01*
X18601Y-15209D01*
X18571Y-15207D01*
X18541Y-15198D01*
X18513Y-15183D01*
X18489Y-15164D01*
X18468Y-15140D01*
X18453Y-15113D01*
X18444Y-15083D01*
X18441Y-15052D01*
X18443Y-15022D01*
X18452Y-14992D01*
X18466Y-14964D01*
X18485Y-14939D01*
X18509Y-14919D01*
X18536Y-14904D01*
X18566Y-14894D01*
X18597Y-14891D01*
X18627Y-14893D01*
X18657Y-14901D01*
X18685Y-14915D01*
X18710Y-14935D01*
X18730Y-14958D01*
X18746Y-14985D01*
X18756Y-15015D01*
X18759Y-15046D01*
X18760Y-15050D01*
X19760Y-15050D02*
X19756Y-15081D01*
X19747Y-15110D01*
X19733Y-15138D01*
X19713Y-15162D01*
X19689Y-15182D01*
X19662Y-15197D01*
X19632Y-15206D01*
X19601Y-15209D01*
X19571Y-15207D01*
X19541Y-15198D01*
X19513Y-15183D01*
X19489Y-15164D01*
X19468Y-15140D01*
X19453Y-15113D01*
X19444Y-15083D01*
X19441Y-15052D01*
X19443Y-15022D01*
X19452Y-14992D01*
X19466Y-14964D01*
X19485Y-14939D01*
X19509Y-14919D01*
X19536Y-14904D01*
X19566Y-14894D01*
X19597Y-14891D01*
X19627Y-14893D01*
X19657Y-14901D01*
X19685Y-14915D01*
X19710Y-14935D01*
X19730Y-14958D01*
X19746Y-14985D01*
X19756Y-15015D01*
X19759Y-15046D01*
X19760Y-15050D01*
X30385Y-17600D02*
X30381Y-17631D01*
X30372Y-17660D01*
X30358Y-17688D01*
X30338Y-17712D01*
X30314Y-17732D01*
X30287Y-17747D01*
X30257Y-17756D01*
X30226Y-17759D01*
X30196Y-17757D01*
X30166Y-17748D01*
X30138Y-17733D01*
X30114Y-17714D01*
X30093Y-17690D01*
X30078Y-17663D01*
X30069Y-17633D01*
X30066Y-17602D01*
X30068Y-17572D01*
X30077Y-17542D01*
X30091Y-17514D01*
X30110Y-17489D01*
X30134Y-17469D01*
X30161Y-17454D01*
X30191Y-17444D01*
X30222Y-17441D01*
X30252Y-17443D01*
X30282Y-17451D01*
X30310Y-17465D01*
X30335Y-17485D01*
X30355Y-17508D01*
X30371Y-17535D01*
X30381Y-17565D01*
X30384Y-17596D01*
X30385Y-17600D01*
X31385Y-17600D02*
X31381Y-17631D01*
X31372Y-17660D01*
X31358Y-17688D01*
X31338Y-17712D01*
X31314Y-17732D01*
X31287Y-17747D01*
X31257Y-17756D01*
X31226Y-17759D01*
X31196Y-17757D01*
X31166Y-17748D01*
X31138Y-17733D01*
X31114Y-17714D01*
X31093Y-17690D01*
X31078Y-17663D01*
X31069Y-17633D01*
X31066Y-17602D01*
X31068Y-17572D01*
X31077Y-17542D01*
X31091Y-17514D01*
X31110Y-17489D01*
X31134Y-17469D01*
X31161Y-17454D01*
X31191Y-17444D01*
X31222Y-17441D01*
X31252Y-17443D01*
X31282Y-17451D01*
X31310Y-17465D01*
X31335Y-17485D01*
X31355Y-17508D01*
X31371Y-17535D01*
X31381Y-17565D01*
X31384Y-17596D01*
X31385Y-17600D01*
X44985Y-11700D02*
X44981Y-11731D01*
X44972Y-11760D01*
X44958Y-11788D01*
X44938Y-11812D01*
X44914Y-11832D01*
X44887Y-11847D01*
X44857Y-11856D01*
X44826Y-11859D01*
X44796Y-11857D01*
X44766Y-11848D01*
X44738Y-11833D01*
X44714Y-11814D01*
X44693Y-11790D01*
X44678Y-11763D01*
X44669Y-11733D01*
X44666Y-11702D01*
X44668Y-11672D01*
X44677Y-11642D01*
X44691Y-11614D01*
X44710Y-11589D01*
X44734Y-11569D01*
X44761Y-11554D01*
X44791Y-11544D01*
X44822Y-11541D01*
X44852Y-11543D01*
X44882Y-11551D01*
X44910Y-11565D01*
X44935Y-11585D01*
X44955Y-11608D01*
X44971Y-11635D01*
X44981Y-11665D01*
X44984Y-11696D01*
X44985Y-11700D01*
X15525Y-11050D02*
X15525Y-11400D01*
X15700Y-11225D02*
X15350Y-11225D01*
X15525Y-12050D02*
X15525Y-12400D01*
X15700Y-12225D02*
X15350Y-12225D01*
X15525Y-13050D02*
X15525Y-13400D01*
X15700Y-13225D02*
X15350Y-13225D01*
X16525Y-11050D02*
X16525Y-11400D01*
X16700Y-11225D02*
X16350Y-11225D01*
X16525Y-12050D02*
X16525Y-12400D01*
X16700Y-12225D02*
X16350Y-12225D01*
X16525Y-13050D02*
X16525Y-13400D01*
X16700Y-13225D02*
X16350Y-13225D01*
X16750Y-22625D02*
X16750Y-22975D01*
X16925Y-22800D02*
X16575Y-22800D01*
X16750Y-23625D02*
X16750Y-23975D01*
X16925Y-23800D02*
X16575Y-23800D01*
X17550Y-13100D02*
X17550Y-13450D01*
X17725Y-13275D02*
X17375Y-13275D01*
X18250Y-20625D02*
X18250Y-20975D01*
X18425Y-20800D02*
X18075Y-20800D01*
X18250Y-23625D02*
X18250Y-23975D01*
X18425Y-23800D02*
X18075Y-23800D01*
X19350Y-20875D02*
X19350Y-21225D01*
X19525Y-21050D02*
X19175Y-21050D01*
X19350Y-22875D02*
X19350Y-23225D01*
X19525Y-23050D02*
X19175Y-23050D01*
X19550Y-13100D02*
X19550Y-13450D01*
X19725Y-13275D02*
X19375Y-13275D01*
X20450Y-20625D02*
X20450Y-20975D01*
X20625Y-20800D02*
X20275Y-20800D01*
X20450Y-23625D02*
X20450Y-23975D01*
X20625Y-23800D02*
X20275Y-23800D01*
X21100Y-12575D02*
X21100Y-12925D01*
X21275Y-12750D02*
X20925Y-12750D01*
X21100Y-15575D02*
X21100Y-15925D01*
X21275Y-15750D02*
X20925Y-15750D01*
X21375Y-20625D02*
X21375Y-20975D01*
X21550Y-20800D02*
X21200Y-20800D01*
X21375Y-23625D02*
X21375Y-23975D01*
X21550Y-23800D02*
X21200Y-23800D01*
X22350Y-20625D02*
X22350Y-20975D01*
X22525Y-20800D02*
X22175Y-20800D01*
X22350Y-23625D02*
X22350Y-23975D01*
X22525Y-23800D02*
X22175Y-23800D01*
X23425Y-20875D02*
X23425Y-21225D01*
X23600Y-21050D02*
X23250Y-21050D01*
X23425Y-22875D02*
X23425Y-23225D01*
X23600Y-23050D02*
X23250Y-23050D01*
X23600Y-15050D02*
X23600Y-15400D01*
X23775Y-15225D02*
X23425Y-15225D01*
X24450Y-20625D02*
X24450Y-20975D01*
X24625Y-20800D02*
X24275Y-20800D01*
X24450Y-23625D02*
X24450Y-23975D01*
X24625Y-23800D02*
X24275Y-23800D01*
X25350Y-20625D02*
X25350Y-20975D01*
X25525Y-20800D02*
X25175Y-20800D01*
X25350Y-23625D02*
X25350Y-23975D01*
X25525Y-23800D02*
X25175Y-23800D01*
X26250Y-20625D02*
X26250Y-20975D01*
X26425Y-20800D02*
X26075Y-20800D01*
X26250Y-23625D02*
X26250Y-23975D01*
X26425Y-23800D02*
X26075Y-23800D01*
X26600Y-15050D02*
X26600Y-15400D01*
X26775Y-15225D02*
X26425Y-15225D01*
X27350Y-20875D02*
X27350Y-21225D01*
X27525Y-21050D02*
X27175Y-21050D01*
X27350Y-22875D02*
X27350Y-23225D01*
X27525Y-23050D02*
X27175Y-23050D01*
X29000Y-15675D02*
X29000Y-16025D01*
X29175Y-15850D02*
X28825Y-15850D01*
X29000Y-16675D02*
X29000Y-17025D01*
X29175Y-16850D02*
X28825Y-16850D01*
X30175Y-19175D02*
X30175Y-19525D01*
X30350Y-19350D02*
X30000Y-19350D01*
X30175Y-21175D02*
X30175Y-21525D01*
X30350Y-21350D02*
X30000Y-21350D01*
X31350Y-19175D02*
X31350Y-19525D01*
X31525Y-19350D02*
X31175Y-19350D01*
X31350Y-21175D02*
X31350Y-21525D01*
X31525Y-21350D02*
X31175Y-21350D01*
X31850Y-11250D02*
X31850Y-11600D01*
X32025Y-11425D02*
X31675Y-11425D01*
X33850Y-11250D02*
X33850Y-11600D01*
X34025Y-11425D02*
X33675Y-11425D01*
X10900Y-12050D02*
X10896Y-12088D01*
X10884Y-12126D01*
X10866Y-12160D01*
X10841Y-12190D01*
X10811Y-12215D01*
X10777Y-12234D01*
X10740Y-12245D01*
X10701Y-12249D01*
X10663Y-12246D01*
X10626Y-12235D01*
X10591Y-12217D01*
X10561Y-12192D01*
X10535Y-12162D01*
X10517Y-12128D01*
X10505Y-12091D01*
X10501Y-12052D01*
X10504Y-12014D01*
X10515Y-11977D01*
X10532Y-11942D01*
X10557Y-11912D01*
X10586Y-11886D01*
X10620Y-11867D01*
X10658Y-11855D01*
X10696Y-11851D01*
X10734Y-11854D01*
X10772Y-11864D01*
X10807Y-11882D01*
X10837Y-11906D01*
X10863Y-11935D01*
X10882Y-11969D01*
X10895Y-12006D01*
X10899Y-12045D01*
X10900Y-12050D01*
X10500Y-11850D02*
X10900Y-12250D01*
X10900Y-11850D02*
X10500Y-12250D01*
X10900Y-13050D02*
X10896Y-13088D01*
X10884Y-13126D01*
X10866Y-13160D01*
X10841Y-13190D01*
X10811Y-13215D01*
X10777Y-13234D01*
X10740Y-13245D01*
X10701Y-13249D01*
X10663Y-13246D01*
X10626Y-13235D01*
X10591Y-13217D01*
X10561Y-13192D01*
X10535Y-13162D01*
X10517Y-13128D01*
X10505Y-13091D01*
X10501Y-13052D01*
X10504Y-13014D01*
X10515Y-12977D01*
X10532Y-12942D01*
X10557Y-12912D01*
X10586Y-12886D01*
X10620Y-12867D01*
X10658Y-12855D01*
X10696Y-12851D01*
X10734Y-12854D01*
X10772Y-12864D01*
X10807Y-12882D01*
X10837Y-12906D01*
X10863Y-12935D01*
X10882Y-12969D01*
X10895Y-13006D01*
X10899Y-13045D01*
X10900Y-13050D01*
X10500Y-12850D02*
X10900Y-13250D01*
X10900Y-12850D02*
X10500Y-13250D01*
X10900Y-14050D02*
X10896Y-14088D01*
X10884Y-14126D01*
X10866Y-14160D01*
X10841Y-14190D01*
X10811Y-14215D01*
X10777Y-14234D01*
X10740Y-14245D01*
X10701Y-14249D01*
X10663Y-14246D01*
X10626Y-14235D01*
X10591Y-14217D01*
X10561Y-14192D01*
X10535Y-14162D01*
X10517Y-14128D01*
X10505Y-14091D01*
X10501Y-14052D01*
X10504Y-14014D01*
X10515Y-13977D01*
X10532Y-13942D01*
X10557Y-13912D01*
X10586Y-13886D01*
X10620Y-13867D01*
X10658Y-13855D01*
X10696Y-13851D01*
X10734Y-13854D01*
X10772Y-13864D01*
X10807Y-13882D01*
X10837Y-13906D01*
X10863Y-13935D01*
X10882Y-13969D01*
X10895Y-14006D01*
X10899Y-14045D01*
X10900Y-14050D01*
X10500Y-13850D02*
X10900Y-14250D01*
X10900Y-13850D02*
X10500Y-14250D01*
X10900Y-15050D02*
X10896Y-15088D01*
X10884Y-15126D01*
X10866Y-15160D01*
X10841Y-15190D01*
X10811Y-15215D01*
X10777Y-15234D01*
X10740Y-15245D01*
X10701Y-15249D01*
X10663Y-15246D01*
X10626Y-15235D01*
X10591Y-15217D01*
X10561Y-15192D01*
X10535Y-15162D01*
X10517Y-15128D01*
X10505Y-15091D01*
X10501Y-15052D01*
X10504Y-15014D01*
X10515Y-14977D01*
X10532Y-14942D01*
X10557Y-14912D01*
X10586Y-14886D01*
X10620Y-14867D01*
X10658Y-14855D01*
X10696Y-14851D01*
X10734Y-14854D01*
X10772Y-14864D01*
X10807Y-14882D01*
X10837Y-14906D01*
X10863Y-14935D01*
X10882Y-14969D01*
X10895Y-15006D01*
X10899Y-15045D01*
X10900Y-15050D01*
X10500Y-14850D02*
X10900Y-15250D01*
X10900Y-14850D02*
X10500Y-15250D01*
X10900Y-16050D02*
X10896Y-16088D01*
X10884Y-16126D01*
X10866Y-16160D01*
X10841Y-16190D01*
X10811Y-16215D01*
X10777Y-16234D01*
X10740Y-16245D01*
X10701Y-16249D01*
X10663Y-16246D01*
X10626Y-16235D01*
X10591Y-16217D01*
X10561Y-16192D01*
X10535Y-16162D01*
X10517Y-16128D01*
X10505Y-16091D01*
X10501Y-16052D01*
X10504Y-16014D01*
X10515Y-15977D01*
X10532Y-15942D01*
X10557Y-15912D01*
X10586Y-15886D01*
X10620Y-15867D01*
X10658Y-15855D01*
X10696Y-15851D01*
X10734Y-15854D01*
X10772Y-15864D01*
X10807Y-15882D01*
X10837Y-15906D01*
X10863Y-15935D01*
X10882Y-15969D01*
X10895Y-16006D01*
X10899Y-16045D01*
X10900Y-16050D01*
X10500Y-15850D02*
X10900Y-16250D01*
X10900Y-15850D02*
X10500Y-16250D01*
X10900Y-17050D02*
X10896Y-17088D01*
X10884Y-17126D01*
X10866Y-17160D01*
X10841Y-17190D01*
X10811Y-17215D01*
X10777Y-17234D01*
X10740Y-17245D01*
X10701Y-17249D01*
X10663Y-17246D01*
X10626Y-17235D01*
X10591Y-17217D01*
X10561Y-17192D01*
X10535Y-17162D01*
X10517Y-17128D01*
X10505Y-17091D01*
X10501Y-17052D01*
X10504Y-17014D01*
X10515Y-16977D01*
X10532Y-16942D01*
X10557Y-16912D01*
X10586Y-16886D01*
X10620Y-16867D01*
X10658Y-16855D01*
X10696Y-16851D01*
X10734Y-16854D01*
X10772Y-16864D01*
X10807Y-16882D01*
X10837Y-16906D01*
X10863Y-16935D01*
X10882Y-16969D01*
X10895Y-17006D01*
X10899Y-17045D01*
X10900Y-17050D01*
X10500Y-16850D02*
X10900Y-17250D01*
X10900Y-16850D02*
X10500Y-17250D01*
X10900Y-18050D02*
X10896Y-18088D01*
X10884Y-18126D01*
X10866Y-18160D01*
X10841Y-18190D01*
X10811Y-18215D01*
X10777Y-18234D01*
X10740Y-18245D01*
X10701Y-18249D01*
X10663Y-18246D01*
X10626Y-18235D01*
X10591Y-18217D01*
X10561Y-18192D01*
X10535Y-18162D01*
X10517Y-18128D01*
X10505Y-18091D01*
X10501Y-18052D01*
X10504Y-18014D01*
X10515Y-17977D01*
X10532Y-17942D01*
X10557Y-17912D01*
X10586Y-17886D01*
X10620Y-17867D01*
X10658Y-17855D01*
X10696Y-17851D01*
X10734Y-17854D01*
X10772Y-17864D01*
X10807Y-17882D01*
X10837Y-17906D01*
X10863Y-17935D01*
X10882Y-17969D01*
X10895Y-18006D01*
X10899Y-18045D01*
X10900Y-18050D01*
X10500Y-17850D02*
X10900Y-18250D01*
X10900Y-17850D02*
X10500Y-18250D01*
X10900Y-19050D02*
X10896Y-19088D01*
X10884Y-19126D01*
X10866Y-19160D01*
X10841Y-19190D01*
X10811Y-19215D01*
X10777Y-19234D01*
X10740Y-19245D01*
X10701Y-19249D01*
X10663Y-19246D01*
X10626Y-19235D01*
X10591Y-19217D01*
X10561Y-19192D01*
X10535Y-19162D01*
X10517Y-19128D01*
X10505Y-19091D01*
X10501Y-19052D01*
X10504Y-19014D01*
X10515Y-18977D01*
X10532Y-18942D01*
X10557Y-18912D01*
X10586Y-18886D01*
X10620Y-18867D01*
X10658Y-18855D01*
X10696Y-18851D01*
X10734Y-18854D01*
X10772Y-18864D01*
X10807Y-18882D01*
X10837Y-18906D01*
X10863Y-18935D01*
X10882Y-18969D01*
X10895Y-19006D01*
X10899Y-19045D01*
X10900Y-19050D01*
X10500Y-18850D02*
X10900Y-19250D01*
X10900Y-18850D02*
X10500Y-19250D01*
X10900Y-20050D02*
X10896Y-20088D01*
X10884Y-20126D01*
X10866Y-20160D01*
X10841Y-20190D01*
X10811Y-20215D01*
X10777Y-20234D01*
X10740Y-20245D01*
X10701Y-20249D01*
X10663Y-20246D01*
X10626Y-20235D01*
X10591Y-20217D01*
X10561Y-20192D01*
X10535Y-20162D01*
X10517Y-20128D01*
X10505Y-20091D01*
X10501Y-20052D01*
X10504Y-20014D01*
X10515Y-19977D01*
X10532Y-19942D01*
X10557Y-19912D01*
X10586Y-19886D01*
X10620Y-19867D01*
X10658Y-19855D01*
X10696Y-19851D01*
X10734Y-19854D01*
X10772Y-19864D01*
X10807Y-19882D01*
X10837Y-19906D01*
X10863Y-19935D01*
X10882Y-19969D01*
X10895Y-20006D01*
X10899Y-20045D01*
X10900Y-20050D01*
X10500Y-19850D02*
X10900Y-20250D01*
X10900Y-19850D02*
X10500Y-20250D01*
X10900Y-21050D02*
X10896Y-21088D01*
X10884Y-21126D01*
X10866Y-21160D01*
X10841Y-21190D01*
X10811Y-21215D01*
X10777Y-21234D01*
X10740Y-21245D01*
X10701Y-21249D01*
X10663Y-21246D01*
X10626Y-21235D01*
X10591Y-21217D01*
X10561Y-21192D01*
X10535Y-21162D01*
X10517Y-21128D01*
X10505Y-21091D01*
X10501Y-21052D01*
X10504Y-21014D01*
X10515Y-20977D01*
X10532Y-20942D01*
X10557Y-20912D01*
X10586Y-20886D01*
X10620Y-20867D01*
X10658Y-20855D01*
X10696Y-20851D01*
X10734Y-20854D01*
X10772Y-20864D01*
X10807Y-20882D01*
X10837Y-20906D01*
X10863Y-20935D01*
X10882Y-20969D01*
X10895Y-21006D01*
X10899Y-21045D01*
X10900Y-21050D01*
X10500Y-20850D02*
X10900Y-21250D01*
X10900Y-20850D02*
X10500Y-21250D01*
X10900Y-22050D02*
X10896Y-22088D01*
X10884Y-22126D01*
X10866Y-22160D01*
X10841Y-22190D01*
X10811Y-22215D01*
X10777Y-22234D01*
X10740Y-22245D01*
X10701Y-22249D01*
X10663Y-22246D01*
X10626Y-22235D01*
X10591Y-22217D01*
X10561Y-22192D01*
X10535Y-22162D01*
X10517Y-22128D01*
X10505Y-22091D01*
X10501Y-22052D01*
X10504Y-22014D01*
X10515Y-21977D01*
X10532Y-21942D01*
X10557Y-21912D01*
X10586Y-21886D01*
X10620Y-21867D01*
X10658Y-21855D01*
X10696Y-21851D01*
X10734Y-21854D01*
X10772Y-21864D01*
X10807Y-21882D01*
X10837Y-21906D01*
X10863Y-21935D01*
X10882Y-21969D01*
X10895Y-22006D01*
X10899Y-22045D01*
X10900Y-22050D01*
X10500Y-21850D02*
X10900Y-22250D01*
X10900Y-21850D02*
X10500Y-22250D01*
X10900Y-23050D02*
X10896Y-23088D01*
X10884Y-23126D01*
X10866Y-23160D01*
X10841Y-23190D01*
X10811Y-23215D01*
X10777Y-23234D01*
X10740Y-23245D01*
X10701Y-23249D01*
X10663Y-23246D01*
X10626Y-23235D01*
X10591Y-23217D01*
X10561Y-23192D01*
X10535Y-23162D01*
X10517Y-23128D01*
X10505Y-23091D01*
X10501Y-23052D01*
X10504Y-23014D01*
X10515Y-22977D01*
X10532Y-22942D01*
X10557Y-22912D01*
X10586Y-22886D01*
X10620Y-22867D01*
X10658Y-22855D01*
X10696Y-22851D01*
X10734Y-22854D01*
X10772Y-22864D01*
X10807Y-22882D01*
X10837Y-22906D01*
X10863Y-22935D01*
X10882Y-22969D01*
X10895Y-23006D01*
X10899Y-23045D01*
X10900Y-23050D01*
X10500Y-22850D02*
X10900Y-23250D01*
X10900Y-22850D02*
X10500Y-23250D01*
X11900Y-11050D02*
X11896Y-11088D01*
X11884Y-11126D01*
X11866Y-11160D01*
X11841Y-11190D01*
X11811Y-11215D01*
X11777Y-11234D01*
X11740Y-11245D01*
X11701Y-11249D01*
X11663Y-11246D01*
X11626Y-11235D01*
X11591Y-11217D01*
X11561Y-11192D01*
X11535Y-11162D01*
X11517Y-11128D01*
X11505Y-11091D01*
X11501Y-11052D01*
X11504Y-11014D01*
X11515Y-10977D01*
X11532Y-10942D01*
X11557Y-10912D01*
X11586Y-10886D01*
X11620Y-10867D01*
X11658Y-10855D01*
X11696Y-10851D01*
X11734Y-10854D01*
X11772Y-10864D01*
X11807Y-10882D01*
X11837Y-10906D01*
X11863Y-10935D01*
X11882Y-10969D01*
X11895Y-11006D01*
X11899Y-11045D01*
X11900Y-11050D01*
X11500Y-10850D02*
X11900Y-11250D01*
X11900Y-10850D02*
X11500Y-11250D01*
X11900Y-12050D02*
X11896Y-12088D01*
X11884Y-12126D01*
X11866Y-12160D01*
X11841Y-12190D01*
X11811Y-12215D01*
X11777Y-12234D01*
X11740Y-12245D01*
X11701Y-12249D01*
X11663Y-12246D01*
X11626Y-12235D01*
X11591Y-12217D01*
X11561Y-12192D01*
X11535Y-12162D01*
X11517Y-12128D01*
X11505Y-12091D01*
X11501Y-12052D01*
X11504Y-12014D01*
X11515Y-11977D01*
X11532Y-11942D01*
X11557Y-11912D01*
X11586Y-11886D01*
X11620Y-11867D01*
X11658Y-11855D01*
X11696Y-11851D01*
X11734Y-11854D01*
X11772Y-11864D01*
X11807Y-11882D01*
X11837Y-11906D01*
X11863Y-11935D01*
X11882Y-11969D01*
X11895Y-12006D01*
X11899Y-12045D01*
X11900Y-12050D01*
X11500Y-11850D02*
X11900Y-12250D01*
X11900Y-11850D02*
X11500Y-12250D01*
X11900Y-13050D02*
X11896Y-13088D01*
X11884Y-13126D01*
X11866Y-13160D01*
X11841Y-13190D01*
X11811Y-13215D01*
X11777Y-13234D01*
X11740Y-13245D01*
X11701Y-13249D01*
X11663Y-13246D01*
X11626Y-13235D01*
X11591Y-13217D01*
X11561Y-13192D01*
X11535Y-13162D01*
X11517Y-13128D01*
X11505Y-13091D01*
X11501Y-13052D01*
X11504Y-13014D01*
X11515Y-12977D01*
X11532Y-12942D01*
X11557Y-12912D01*
X11586Y-12886D01*
X11620Y-12867D01*
X11658Y-12855D01*
X11696Y-12851D01*
X11734Y-12854D01*
X11772Y-12864D01*
X11807Y-12882D01*
X11837Y-12906D01*
X11863Y-12935D01*
X11882Y-12969D01*
X11895Y-13006D01*
X11899Y-13045D01*
X11900Y-13050D01*
X11500Y-12850D02*
X11900Y-13250D01*
X11900Y-12850D02*
X11500Y-13250D01*
X11900Y-14050D02*
X11896Y-14088D01*
X11884Y-14126D01*
X11866Y-14160D01*
X11841Y-14190D01*
X11811Y-14215D01*
X11777Y-14234D01*
X11740Y-14245D01*
X11701Y-14249D01*
X11663Y-14246D01*
X11626Y-14235D01*
X11591Y-14217D01*
X11561Y-14192D01*
X11535Y-14162D01*
X11517Y-14128D01*
X11505Y-14091D01*
X11501Y-14052D01*
X11504Y-14014D01*
X11515Y-13977D01*
X11532Y-13942D01*
X11557Y-13912D01*
X11586Y-13886D01*
X11620Y-13867D01*
X11658Y-13855D01*
X11696Y-13851D01*
X11734Y-13854D01*
X11772Y-13864D01*
X11807Y-13882D01*
X11837Y-13906D01*
X11863Y-13935D01*
X11882Y-13969D01*
X11895Y-14006D01*
X11899Y-14045D01*
X11900Y-14050D01*
X11500Y-13850D02*
X11900Y-14250D01*
X11900Y-13850D02*
X11500Y-14250D01*
X11900Y-15050D02*
X11896Y-15088D01*
X11884Y-15126D01*
X11866Y-15160D01*
X11841Y-15190D01*
X11811Y-15215D01*
X11777Y-15234D01*
X11740Y-15245D01*
X11701Y-15249D01*
X11663Y-15246D01*
X11626Y-15235D01*
X11591Y-15217D01*
X11561Y-15192D01*
X11535Y-15162D01*
X11517Y-15128D01*
X11505Y-15091D01*
X11501Y-15052D01*
X11504Y-15014D01*
X11515Y-14977D01*
X11532Y-14942D01*
X11557Y-14912D01*
X11586Y-14886D01*
X11620Y-14867D01*
X11658Y-14855D01*
X11696Y-14851D01*
X11734Y-14854D01*
X11772Y-14864D01*
X11807Y-14882D01*
X11837Y-14906D01*
X11863Y-14935D01*
X11882Y-14969D01*
X11895Y-15006D01*
X11899Y-15045D01*
X11900Y-15050D01*
X11500Y-14850D02*
X11900Y-15250D01*
X11900Y-14850D02*
X11500Y-15250D01*
X11900Y-16050D02*
X11896Y-16088D01*
X11884Y-16126D01*
X11866Y-16160D01*
X11841Y-16190D01*
X11811Y-16215D01*
X11777Y-16234D01*
X11740Y-16245D01*
X11701Y-16249D01*
X11663Y-16246D01*
X11626Y-16235D01*
X11591Y-16217D01*
X11561Y-16192D01*
X11535Y-16162D01*
X11517Y-16128D01*
X11505Y-16091D01*
X11501Y-16052D01*
X11504Y-16014D01*
X11515Y-15977D01*
X11532Y-15942D01*
X11557Y-15912D01*
X11586Y-15886D01*
X11620Y-15867D01*
X11658Y-15855D01*
X11696Y-15851D01*
X11734Y-15854D01*
X11772Y-15864D01*
X11807Y-15882D01*
X11837Y-15906D01*
X11863Y-15935D01*
X11882Y-15969D01*
X11895Y-16006D01*
X11899Y-16045D01*
X11900Y-16050D01*
X11500Y-15850D02*
X11900Y-16250D01*
X11900Y-15850D02*
X11500Y-16250D01*
X11900Y-17050D02*
X11896Y-17088D01*
X11884Y-17126D01*
X11866Y-17160D01*
X11841Y-17190D01*
X11811Y-17215D01*
X11777Y-17234D01*
X11740Y-17245D01*
X11701Y-17249D01*
X11663Y-17246D01*
X11626Y-17235D01*
X11591Y-17217D01*
X11561Y-17192D01*
X11535Y-17162D01*
X11517Y-17128D01*
X11505Y-17091D01*
X11501Y-17052D01*
X11504Y-17014D01*
X11515Y-16977D01*
X11532Y-16942D01*
X11557Y-16912D01*
X11586Y-16886D01*
X11620Y-16867D01*
X11658Y-16855D01*
X11696Y-16851D01*
X11734Y-16854D01*
X11772Y-16864D01*
X11807Y-16882D01*
X11837Y-16906D01*
X11863Y-16935D01*
X11882Y-16969D01*
X11895Y-17006D01*
X11899Y-17045D01*
X11900Y-17050D01*
X11500Y-16850D02*
X11900Y-17250D01*
X11900Y-16850D02*
X11500Y-17250D01*
X11900Y-18050D02*
X11896Y-18088D01*
X11884Y-18126D01*
X11866Y-18160D01*
X11841Y-18190D01*
X11811Y-18215D01*
X11777Y-18234D01*
X11740Y-18245D01*
X11701Y-18249D01*
X11663Y-18246D01*
X11626Y-18235D01*
X11591Y-18217D01*
X11561Y-18192D01*
X11535Y-18162D01*
X11517Y-18128D01*
X11505Y-18091D01*
X11501Y-18052D01*
X11504Y-18014D01*
X11515Y-17977D01*
X11532Y-17942D01*
X11557Y-17912D01*
X11586Y-17886D01*
X11620Y-17867D01*
X11658Y-17855D01*
X11696Y-17851D01*
X11734Y-17854D01*
X11772Y-17864D01*
X11807Y-17882D01*
X11837Y-17906D01*
X11863Y-17935D01*
X11882Y-17969D01*
X11895Y-18006D01*
X11899Y-18045D01*
X11900Y-18050D01*
X11500Y-17850D02*
X11900Y-18250D01*
X11900Y-17850D02*
X11500Y-18250D01*
X11900Y-19050D02*
X11896Y-19088D01*
X11884Y-19126D01*
X11866Y-19160D01*
X11841Y-19190D01*
X11811Y-19215D01*
X11777Y-19234D01*
X11740Y-19245D01*
X11701Y-19249D01*
X11663Y-19246D01*
X11626Y-19235D01*
X11591Y-19217D01*
X11561Y-19192D01*
X11535Y-19162D01*
X11517Y-19128D01*
X11505Y-19091D01*
X11501Y-19052D01*
X11504Y-19014D01*
X11515Y-18977D01*
X11532Y-18942D01*
X11557Y-18912D01*
X11586Y-18886D01*
X11620Y-18867D01*
X11658Y-18855D01*
X11696Y-18851D01*
X11734Y-18854D01*
X11772Y-18864D01*
X11807Y-18882D01*
X11837Y-18906D01*
X11863Y-18935D01*
X11882Y-18969D01*
X11895Y-19006D01*
X11899Y-19045D01*
X11900Y-19050D01*
X11500Y-18850D02*
X11900Y-19250D01*
X11900Y-18850D02*
X11500Y-19250D01*
X11900Y-20050D02*
X11896Y-20088D01*
X11884Y-20126D01*
X11866Y-20160D01*
X11841Y-20190D01*
X11811Y-20215D01*
X11777Y-20234D01*
X11740Y-20245D01*
X11701Y-20249D01*
X11663Y-20246D01*
X11626Y-20235D01*
X11591Y-20217D01*
X11561Y-20192D01*
X11535Y-20162D01*
X11517Y-20128D01*
X11505Y-20091D01*
X11501Y-20052D01*
X11504Y-20014D01*
X11515Y-19977D01*
X11532Y-19942D01*
X11557Y-19912D01*
X11586Y-19886D01*
X11620Y-19867D01*
X11658Y-19855D01*
X11696Y-19851D01*
X11734Y-19854D01*
X11772Y-19864D01*
X11807Y-19882D01*
X11837Y-19906D01*
X11863Y-19935D01*
X11882Y-19969D01*
X11895Y-20006D01*
X11899Y-20045D01*
X11900Y-20050D01*
X11500Y-19850D02*
X11900Y-20250D01*
X11900Y-19850D02*
X11500Y-20250D01*
X11900Y-21050D02*
X11896Y-21088D01*
X11884Y-21126D01*
X11866Y-21160D01*
X11841Y-21190D01*
X11811Y-21215D01*
X11777Y-21234D01*
X11740Y-21245D01*
X11701Y-21249D01*
X11663Y-21246D01*
X11626Y-21235D01*
X11591Y-21217D01*
X11561Y-21192D01*
X11535Y-21162D01*
X11517Y-21128D01*
X11505Y-21091D01*
X11501Y-21052D01*
X11504Y-21014D01*
X11515Y-20977D01*
X11532Y-20942D01*
X11557Y-20912D01*
X11586Y-20886D01*
X11620Y-20867D01*
X11658Y-20855D01*
X11696Y-20851D01*
X11734Y-20854D01*
X11772Y-20864D01*
X11807Y-20882D01*
X11837Y-20906D01*
X11863Y-20935D01*
X11882Y-20969D01*
X11895Y-21006D01*
X11899Y-21045D01*
X11900Y-21050D01*
X11500Y-20850D02*
X11900Y-21250D01*
X11900Y-20850D02*
X11500Y-21250D01*
X11900Y-22050D02*
X11896Y-22088D01*
X11884Y-22126D01*
X11866Y-22160D01*
X11841Y-22190D01*
X11811Y-22215D01*
X11777Y-22234D01*
X11740Y-22245D01*
X11701Y-22249D01*
X11663Y-22246D01*
X11626Y-22235D01*
X11591Y-22217D01*
X11561Y-22192D01*
X11535Y-22162D01*
X11517Y-22128D01*
X11505Y-22091D01*
X11501Y-22052D01*
X11504Y-22014D01*
X11515Y-21977D01*
X11532Y-21942D01*
X11557Y-21912D01*
X11586Y-21886D01*
X11620Y-21867D01*
X11658Y-21855D01*
X11696Y-21851D01*
X11734Y-21854D01*
X11772Y-21864D01*
X11807Y-21882D01*
X11837Y-21906D01*
X11863Y-21935D01*
X11882Y-21969D01*
X11895Y-22006D01*
X11899Y-22045D01*
X11900Y-22050D01*
X11500Y-21850D02*
X11900Y-22250D01*
X11900Y-21850D02*
X11500Y-22250D01*
X11900Y-23050D02*
X11896Y-23088D01*
X11884Y-23126D01*
X11866Y-23160D01*
X11841Y-23190D01*
X11811Y-23215D01*
X11777Y-23234D01*
X11740Y-23245D01*
X11701Y-23249D01*
X11663Y-23246D01*
X11626Y-23235D01*
X11591Y-23217D01*
X11561Y-23192D01*
X11535Y-23162D01*
X11517Y-23128D01*
X11505Y-23091D01*
X11501Y-23052D01*
X11504Y-23014D01*
X11515Y-22977D01*
X11532Y-22942D01*
X11557Y-22912D01*
X11586Y-22886D01*
X11620Y-22867D01*
X11658Y-22855D01*
X11696Y-22851D01*
X11734Y-22854D01*
X11772Y-22864D01*
X11807Y-22882D01*
X11837Y-22906D01*
X11863Y-22935D01*
X11882Y-22969D01*
X11895Y-23006D01*
X11899Y-23045D01*
X11900Y-23050D01*
X11500Y-22850D02*
X11900Y-23250D01*
X11900Y-22850D02*
X11500Y-23250D01*
X11900Y-24050D02*
X11896Y-24088D01*
X11884Y-24126D01*
X11866Y-24160D01*
X11841Y-24190D01*
X11811Y-24215D01*
X11777Y-24234D01*
X11740Y-24245D01*
X11701Y-24249D01*
X11663Y-24246D01*
X11626Y-24235D01*
X11591Y-24217D01*
X11561Y-24192D01*
X11535Y-24162D01*
X11517Y-24128D01*
X11505Y-24091D01*
X11501Y-24052D01*
X11504Y-24014D01*
X11515Y-23977D01*
X11532Y-23942D01*
X11557Y-23912D01*
X11586Y-23886D01*
X11620Y-23867D01*
X11658Y-23855D01*
X11696Y-23851D01*
X11734Y-23854D01*
X11772Y-23864D01*
X11807Y-23882D01*
X11837Y-23906D01*
X11863Y-23935D01*
X11882Y-23969D01*
X11895Y-24006D01*
X11899Y-24045D01*
X11900Y-24050D01*
X11500Y-23850D02*
X11900Y-24250D01*
X11900Y-23850D02*
X11500Y-24250D01*
X13650Y-11225D02*
X13646Y-11263D01*
X13634Y-11301D01*
X13616Y-11335D01*
X13591Y-11365D01*
X13561Y-11390D01*
X13527Y-11409D01*
X13490Y-11420D01*
X13451Y-11424D01*
X13413Y-11421D01*
X13376Y-11410D01*
X13341Y-11392D01*
X13311Y-11367D01*
X13285Y-11337D01*
X13267Y-11303D01*
X13255Y-11266D01*
X13251Y-11227D01*
X13254Y-11189D01*
X13265Y-11152D01*
X13282Y-11117D01*
X13307Y-11087D01*
X13336Y-11061D01*
X13370Y-11042D01*
X13408Y-11030D01*
X13446Y-11026D01*
X13484Y-11029D01*
X13522Y-11039D01*
X13557Y-11057D01*
X13587Y-11081D01*
X13613Y-11110D01*
X13632Y-11144D01*
X13645Y-11181D01*
X13649Y-11220D01*
X13650Y-11225D01*
X13250Y-11025D02*
X13650Y-11425D01*
X13650Y-11025D02*
X13250Y-11425D01*
X13650Y-12225D02*
X13646Y-12263D01*
X13634Y-12301D01*
X13616Y-12335D01*
X13591Y-12365D01*
X13561Y-12390D01*
X13527Y-12409D01*
X13490Y-12420D01*
X13451Y-12424D01*
X13413Y-12421D01*
X13376Y-12410D01*
X13341Y-12392D01*
X13311Y-12367D01*
X13285Y-12337D01*
X13267Y-12303D01*
X13255Y-12266D01*
X13251Y-12227D01*
X13254Y-12189D01*
X13265Y-12152D01*
X13282Y-12117D01*
X13307Y-12087D01*
X13336Y-12061D01*
X13370Y-12042D01*
X13408Y-12030D01*
X13446Y-12026D01*
X13484Y-12029D01*
X13522Y-12039D01*
X13557Y-12057D01*
X13587Y-12081D01*
X13613Y-12110D01*
X13632Y-12144D01*
X13645Y-12181D01*
X13649Y-12220D01*
X13650Y-12225D01*
X13250Y-12025D02*
X13650Y-12425D01*
X13650Y-12025D02*
X13250Y-12425D01*
X13650Y-13225D02*
X13646Y-13263D01*
X13634Y-13301D01*
X13616Y-13335D01*
X13591Y-13365D01*
X13561Y-13390D01*
X13527Y-13409D01*
X13490Y-13420D01*
X13451Y-13424D01*
X13413Y-13421D01*
X13376Y-13410D01*
X13341Y-13392D01*
X13311Y-13367D01*
X13285Y-13337D01*
X13267Y-13303D01*
X13255Y-13266D01*
X13251Y-13227D01*
X13254Y-13189D01*
X13265Y-13152D01*
X13282Y-13117D01*
X13307Y-13087D01*
X13336Y-13061D01*
X13370Y-13042D01*
X13408Y-13030D01*
X13446Y-13026D01*
X13484Y-13029D01*
X13522Y-13039D01*
X13557Y-13057D01*
X13587Y-13081D01*
X13613Y-13110D01*
X13632Y-13144D01*
X13645Y-13181D01*
X13649Y-13220D01*
X13650Y-13225D01*
X13250Y-13025D02*
X13650Y-13425D01*
X13650Y-13025D02*
X13250Y-13425D01*
X13650Y-21850D02*
X13646Y-21888D01*
X13634Y-21926D01*
X13616Y-21960D01*
X13591Y-21990D01*
X13561Y-22015D01*
X13527Y-22034D01*
X13490Y-22045D01*
X13451Y-22049D01*
X13413Y-22046D01*
X13376Y-22035D01*
X13341Y-22017D01*
X13311Y-21992D01*
X13285Y-21962D01*
X13267Y-21928D01*
X13255Y-21891D01*
X13251Y-21852D01*
X13254Y-21814D01*
X13265Y-21777D01*
X13282Y-21742D01*
X13307Y-21712D01*
X13336Y-21686D01*
X13370Y-21667D01*
X13408Y-21655D01*
X13446Y-21651D01*
X13484Y-21654D01*
X13522Y-21664D01*
X13557Y-21682D01*
X13587Y-21706D01*
X13613Y-21735D01*
X13632Y-21769D01*
X13645Y-21806D01*
X13649Y-21845D01*
X13650Y-21850D01*
X13250Y-21650D02*
X13650Y-22050D01*
X13650Y-21650D02*
X13250Y-22050D01*
X13650Y-22850D02*
X13646Y-22888D01*
X13634Y-22926D01*
X13616Y-22960D01*
X13591Y-22990D01*
X13561Y-23015D01*
X13527Y-23034D01*
X13490Y-23045D01*
X13451Y-23049D01*
X13413Y-23046D01*
X13376Y-23035D01*
X13341Y-23017D01*
X13311Y-22992D01*
X13285Y-22962D01*
X13267Y-22928D01*
X13255Y-22891D01*
X13251Y-22852D01*
X13254Y-22814D01*
X13265Y-22777D01*
X13282Y-22742D01*
X13307Y-22712D01*
X13336Y-22686D01*
X13370Y-22667D01*
X13408Y-22655D01*
X13446Y-22651D01*
X13484Y-22654D01*
X13522Y-22664D01*
X13557Y-22682D01*
X13587Y-22706D01*
X13613Y-22735D01*
X13632Y-22769D01*
X13645Y-22806D01*
X13649Y-22845D01*
X13650Y-22850D01*
X13250Y-22650D02*
X13650Y-23050D01*
X13650Y-22650D02*
X13250Y-23050D01*
X13650Y-23850D02*
X13646Y-23888D01*
X13634Y-23926D01*
X13616Y-23960D01*
X13591Y-23990D01*
X13561Y-24015D01*
X13527Y-24034D01*
X13490Y-24045D01*
X13451Y-24049D01*
X13413Y-24046D01*
X13376Y-24035D01*
X13341Y-24017D01*
X13311Y-23992D01*
X13285Y-23962D01*
X13267Y-23928D01*
X13255Y-23891D01*
X13251Y-23852D01*
X13254Y-23814D01*
X13265Y-23777D01*
X13282Y-23742D01*
X13307Y-23712D01*
X13336Y-23686D01*
X13370Y-23667D01*
X13408Y-23655D01*
X13446Y-23651D01*
X13484Y-23654D01*
X13522Y-23664D01*
X13557Y-23682D01*
X13587Y-23706D01*
X13613Y-23735D01*
X13632Y-23769D01*
X13645Y-23806D01*
X13649Y-23845D01*
X13650Y-23850D01*
X13250Y-23650D02*
X13650Y-24050D01*
X13650Y-23650D02*
X13250Y-24050D01*
X14300Y-16650D02*
X14296Y-16688D01*
X14284Y-16726D01*
X14266Y-16760D01*
X14241Y-16790D01*
X14211Y-16815D01*
X14177Y-16834D01*
X14140Y-16845D01*
X14101Y-16849D01*
X14063Y-16846D01*
X14026Y-16835D01*
X13991Y-16817D01*
X13961Y-16792D01*
X13935Y-16762D01*
X13917Y-16728D01*
X13905Y-16691D01*
X13901Y-16652D01*
X13904Y-16614D01*
X13915Y-16577D01*
X13932Y-16542D01*
X13957Y-16512D01*
X13986Y-16486D01*
X14020Y-16467D01*
X14058Y-16455D01*
X14096Y-16451D01*
X14134Y-16454D01*
X14172Y-16464D01*
X14207Y-16482D01*
X14237Y-16506D01*
X14263Y-16535D01*
X14282Y-16569D01*
X14295Y-16606D01*
X14299Y-16645D01*
X14300Y-16650D01*
X13900Y-16450D02*
X14300Y-16850D01*
X14300Y-16450D02*
X13900Y-16850D01*
X14300Y-19650D02*
X14296Y-19688D01*
X14284Y-19726D01*
X14266Y-19760D01*
X14241Y-19790D01*
X14211Y-19815D01*
X14177Y-19834D01*
X14140Y-19845D01*
X14101Y-19849D01*
X14063Y-19846D01*
X14026Y-19835D01*
X13991Y-19817D01*
X13961Y-19792D01*
X13935Y-19762D01*
X13917Y-19728D01*
X13905Y-19691D01*
X13901Y-19652D01*
X13904Y-19614D01*
X13915Y-19577D01*
X13932Y-19542D01*
X13957Y-19512D01*
X13986Y-19486D01*
X14020Y-19467D01*
X14058Y-19455D01*
X14096Y-19451D01*
X14134Y-19454D01*
X14172Y-19464D01*
X14207Y-19482D01*
X14237Y-19506D01*
X14263Y-19535D01*
X14282Y-19569D01*
X14295Y-19606D01*
X14299Y-19645D01*
X14300Y-19650D01*
X13900Y-19450D02*
X14300Y-19850D01*
X14300Y-19450D02*
X13900Y-19850D01*
X14650Y-11225D02*
X14646Y-11263D01*
X14634Y-11301D01*
X14616Y-11335D01*
X14591Y-11365D01*
X14561Y-11390D01*
X14527Y-11409D01*
X14490Y-11420D01*
X14451Y-11424D01*
X14413Y-11421D01*
X14376Y-11410D01*
X14341Y-11392D01*
X14311Y-11367D01*
X14285Y-11337D01*
X14267Y-11303D01*
X14255Y-11266D01*
X14251Y-11227D01*
X14254Y-11189D01*
X14265Y-11152D01*
X14282Y-11117D01*
X14307Y-11087D01*
X14336Y-11061D01*
X14370Y-11042D01*
X14408Y-11030D01*
X14446Y-11026D01*
X14484Y-11029D01*
X14522Y-11039D01*
X14557Y-11057D01*
X14587Y-11081D01*
X14613Y-11110D01*
X14632Y-11144D01*
X14645Y-11181D01*
X14649Y-11220D01*
X14650Y-11225D01*
X14250Y-11025D02*
X14650Y-11425D01*
X14650Y-11025D02*
X14250Y-11425D01*
X14650Y-12225D02*
X14646Y-12263D01*
X14634Y-12301D01*
X14616Y-12335D01*
X14591Y-12365D01*
X14561Y-12390D01*
X14527Y-12409D01*
X14490Y-12420D01*
X14451Y-12424D01*
X14413Y-12421D01*
X14376Y-12410D01*
X14341Y-12392D01*
X14311Y-12367D01*
X14285Y-12337D01*
X14267Y-12303D01*
X14255Y-12266D01*
X14251Y-12227D01*
X14254Y-12189D01*
X14265Y-12152D01*
X14282Y-12117D01*
X14307Y-12087D01*
X14336Y-12061D01*
X14370Y-12042D01*
X14408Y-12030D01*
X14446Y-12026D01*
X14484Y-12029D01*
X14522Y-12039D01*
X14557Y-12057D01*
X14587Y-12081D01*
X14613Y-12110D01*
X14632Y-12144D01*
X14645Y-12181D01*
X14649Y-12220D01*
X14650Y-12225D01*
X14250Y-12025D02*
X14650Y-12425D01*
X14650Y-12025D02*
X14250Y-12425D01*
X14650Y-13225D02*
X14646Y-13263D01*
X14634Y-13301D01*
X14616Y-13335D01*
X14591Y-13365D01*
X14561Y-13390D01*
X14527Y-13409D01*
X14490Y-13420D01*
X14451Y-13424D01*
X14413Y-13421D01*
X14376Y-13410D01*
X14341Y-13392D01*
X14311Y-13367D01*
X14285Y-13337D01*
X14267Y-13303D01*
X14255Y-13266D01*
X14251Y-13227D01*
X14254Y-13189D01*
X14265Y-13152D01*
X14282Y-13117D01*
X14307Y-13087D01*
X14336Y-13061D01*
X14370Y-13042D01*
X14408Y-13030D01*
X14446Y-13026D01*
X14484Y-13029D01*
X14522Y-13039D01*
X14557Y-13057D01*
X14587Y-13081D01*
X14613Y-13110D01*
X14632Y-13144D01*
X14645Y-13181D01*
X14649Y-13220D01*
X14650Y-13225D01*
X14250Y-13025D02*
X14650Y-13425D01*
X14650Y-13025D02*
X14250Y-13425D01*
X14650Y-21850D02*
X14646Y-21888D01*
X14634Y-21926D01*
X14616Y-21960D01*
X14591Y-21990D01*
X14561Y-22015D01*
X14527Y-22034D01*
X14490Y-22045D01*
X14451Y-22049D01*
X14413Y-22046D01*
X14376Y-22035D01*
X14341Y-22017D01*
X14311Y-21992D01*
X14285Y-21962D01*
X14267Y-21928D01*
X14255Y-21891D01*
X14251Y-21852D01*
X14254Y-21814D01*
X14265Y-21777D01*
X14282Y-21742D01*
X14307Y-21712D01*
X14336Y-21686D01*
X14370Y-21667D01*
X14408Y-21655D01*
X14446Y-21651D01*
X14484Y-21654D01*
X14522Y-21664D01*
X14557Y-21682D01*
X14587Y-21706D01*
X14613Y-21735D01*
X14632Y-21769D01*
X14645Y-21806D01*
X14649Y-21845D01*
X14650Y-21850D01*
X14250Y-21650D02*
X14650Y-22050D01*
X14650Y-21650D02*
X14250Y-22050D01*
X14650Y-22850D02*
X14646Y-22888D01*
X14634Y-22926D01*
X14616Y-22960D01*
X14591Y-22990D01*
X14561Y-23015D01*
X14527Y-23034D01*
X14490Y-23045D01*
X14451Y-23049D01*
X14413Y-23046D01*
X14376Y-23035D01*
X14341Y-23017D01*
X14311Y-22992D01*
X14285Y-22962D01*
X14267Y-22928D01*
X14255Y-22891D01*
X14251Y-22852D01*
X14254Y-22814D01*
X14265Y-22777D01*
X14282Y-22742D01*
X14307Y-22712D01*
X14336Y-22686D01*
X14370Y-22667D01*
X14408Y-22655D01*
X14446Y-22651D01*
X14484Y-22654D01*
X14522Y-22664D01*
X14557Y-22682D01*
X14587Y-22706D01*
X14613Y-22735D01*
X14632Y-22769D01*
X14645Y-22806D01*
X14649Y-22845D01*
X14650Y-22850D01*
X14250Y-22650D02*
X14650Y-23050D01*
X14650Y-22650D02*
X14250Y-23050D01*
X14650Y-23850D02*
X14646Y-23888D01*
X14634Y-23926D01*
X14616Y-23960D01*
X14591Y-23990D01*
X14561Y-24015D01*
X14527Y-24034D01*
X14490Y-24045D01*
X14451Y-24049D01*
X14413Y-24046D01*
X14376Y-24035D01*
X14341Y-24017D01*
X14311Y-23992D01*
X14285Y-23962D01*
X14267Y-23928D01*
X14255Y-23891D01*
X14251Y-23852D01*
X14254Y-23814D01*
X14265Y-23777D01*
X14282Y-23742D01*
X14307Y-23712D01*
X14336Y-23686D01*
X14370Y-23667D01*
X14408Y-23655D01*
X14446Y-23651D01*
X14484Y-23654D01*
X14522Y-23664D01*
X14557Y-23682D01*
X14587Y-23706D01*
X14613Y-23735D01*
X14632Y-23769D01*
X14645Y-23806D01*
X14649Y-23845D01*
X14650Y-23850D01*
X14250Y-23650D02*
X14650Y-24050D01*
X14650Y-23650D02*
X14250Y-24050D01*
X15300Y-16650D02*
X15296Y-16688D01*
X15284Y-16726D01*
X15266Y-16760D01*
X15241Y-16790D01*
X15211Y-16815D01*
X15177Y-16834D01*
X15140Y-16845D01*
X15101Y-16849D01*
X15063Y-16846D01*
X15026Y-16835D01*
X14991Y-16817D01*
X14961Y-16792D01*
X14935Y-16762D01*
X14917Y-16728D01*
X14905Y-16691D01*
X14901Y-16652D01*
X14904Y-16614D01*
X14915Y-16577D01*
X14932Y-16542D01*
X14957Y-16512D01*
X14986Y-16486D01*
X15020Y-16467D01*
X15058Y-16455D01*
X15096Y-16451D01*
X15134Y-16454D01*
X15172Y-16464D01*
X15207Y-16482D01*
X15237Y-16506D01*
X15263Y-16535D01*
X15282Y-16569D01*
X15295Y-16606D01*
X15299Y-16645D01*
X15300Y-16650D01*
X14900Y-16450D02*
X15300Y-16850D01*
X15300Y-16450D02*
X14900Y-16850D01*
X15300Y-19650D02*
X15296Y-19688D01*
X15284Y-19726D01*
X15266Y-19760D01*
X15241Y-19790D01*
X15211Y-19815D01*
X15177Y-19834D01*
X15140Y-19845D01*
X15101Y-19849D01*
X15063Y-19846D01*
X15026Y-19835D01*
X14991Y-19817D01*
X14961Y-19792D01*
X14935Y-19762D01*
X14917Y-19728D01*
X14905Y-19691D01*
X14901Y-19652D01*
X14904Y-19614D01*
X14915Y-19577D01*
X14932Y-19542D01*
X14957Y-19512D01*
X14986Y-19486D01*
X15020Y-19467D01*
X15058Y-19455D01*
X15096Y-19451D01*
X15134Y-19454D01*
X15172Y-19464D01*
X15207Y-19482D01*
X15237Y-19506D01*
X15263Y-19535D01*
X15282Y-19569D01*
X15295Y-19606D01*
X15299Y-19645D01*
X15300Y-19650D01*
X14900Y-19450D02*
X15300Y-19850D01*
X15300Y-19450D02*
X14900Y-19850D01*
X16300Y-16650D02*
X16296Y-16688D01*
X16284Y-16726D01*
X16266Y-16760D01*
X16241Y-16790D01*
X16211Y-16815D01*
X16177Y-16834D01*
X16140Y-16845D01*
X16101Y-16849D01*
X16063Y-16846D01*
X16026Y-16835D01*
X15991Y-16817D01*
X15961Y-16792D01*
X15935Y-16762D01*
X15917Y-16728D01*
X15905Y-16691D01*
X15901Y-16652D01*
X15904Y-16614D01*
X15915Y-16577D01*
X15932Y-16542D01*
X15957Y-16512D01*
X15986Y-16486D01*
X16020Y-16467D01*
X16058Y-16455D01*
X16096Y-16451D01*
X16134Y-16454D01*
X16172Y-16464D01*
X16207Y-16482D01*
X16237Y-16506D01*
X16263Y-16535D01*
X16282Y-16569D01*
X16295Y-16606D01*
X16299Y-16645D01*
X16300Y-16650D01*
X15900Y-16450D02*
X16300Y-16850D01*
X16300Y-16450D02*
X15900Y-16850D01*
X16300Y-19650D02*
X16296Y-19688D01*
X16284Y-19726D01*
X16266Y-19760D01*
X16241Y-19790D01*
X16211Y-19815D01*
X16177Y-19834D01*
X16140Y-19845D01*
X16101Y-19849D01*
X16063Y-19846D01*
X16026Y-19835D01*
X15991Y-19817D01*
X15961Y-19792D01*
X15935Y-19762D01*
X15917Y-19728D01*
X15905Y-19691D01*
X15901Y-19652D01*
X15904Y-19614D01*
X15915Y-19577D01*
X15932Y-19542D01*
X15957Y-19512D01*
X15986Y-19486D01*
X16020Y-19467D01*
X16058Y-19455D01*
X16096Y-19451D01*
X16134Y-19454D01*
X16172Y-19464D01*
X16207Y-19482D01*
X16237Y-19506D01*
X16263Y-19535D01*
X16282Y-19569D01*
X16295Y-19606D01*
X16299Y-19645D01*
X16300Y-19650D01*
X15900Y-19450D02*
X16300Y-19850D01*
X16300Y-19450D02*
X15900Y-19850D01*
X17300Y-16650D02*
X17296Y-16688D01*
X17284Y-16726D01*
X17266Y-16760D01*
X17241Y-16790D01*
X17211Y-16815D01*
X17177Y-16834D01*
X17140Y-16845D01*
X17101Y-16849D01*
X17063Y-16846D01*
X17026Y-16835D01*
X16991Y-16817D01*
X16961Y-16792D01*
X16935Y-16762D01*
X16917Y-16728D01*
X16905Y-16691D01*
X16901Y-16652D01*
X16904Y-16614D01*
X16915Y-16577D01*
X16932Y-16542D01*
X16957Y-16512D01*
X16986Y-16486D01*
X17020Y-16467D01*
X17058Y-16455D01*
X17096Y-16451D01*
X17134Y-16454D01*
X17172Y-16464D01*
X17207Y-16482D01*
X17237Y-16506D01*
X17263Y-16535D01*
X17282Y-16569D01*
X17295Y-16606D01*
X17299Y-16645D01*
X17300Y-16650D01*
X16900Y-16450D02*
X17300Y-16850D01*
X17300Y-16450D02*
X16900Y-16850D01*
X17300Y-19650D02*
X17296Y-19688D01*
X17284Y-19726D01*
X17266Y-19760D01*
X17241Y-19790D01*
X17211Y-19815D01*
X17177Y-19834D01*
X17140Y-19845D01*
X17101Y-19849D01*
X17063Y-19846D01*
X17026Y-19835D01*
X16991Y-19817D01*
X16961Y-19792D01*
X16935Y-19762D01*
X16917Y-19728D01*
X16905Y-19691D01*
X16901Y-19652D01*
X16904Y-19614D01*
X16915Y-19577D01*
X16932Y-19542D01*
X16957Y-19512D01*
X16986Y-19486D01*
X17020Y-19467D01*
X17058Y-19455D01*
X17096Y-19451D01*
X17134Y-19454D01*
X17172Y-19464D01*
X17207Y-19482D01*
X17237Y-19506D01*
X17263Y-19535D01*
X17282Y-19569D01*
X17295Y-19606D01*
X17299Y-19645D01*
X17300Y-19650D01*
X16900Y-19450D02*
X17300Y-19850D01*
X17300Y-19450D02*
X16900Y-19850D01*
X17750Y-11800D02*
X17746Y-11838D01*
X17734Y-11876D01*
X17716Y-11910D01*
X17691Y-11940D01*
X17661Y-11965D01*
X17627Y-11984D01*
X17590Y-11995D01*
X17551Y-11999D01*
X17513Y-11996D01*
X17476Y-11985D01*
X17441Y-11967D01*
X17411Y-11942D01*
X17385Y-11912D01*
X17367Y-11878D01*
X17355Y-11841D01*
X17351Y-11802D01*
X17354Y-11764D01*
X17365Y-11727D01*
X17382Y-11692D01*
X17407Y-11662D01*
X17436Y-11636D01*
X17470Y-11617D01*
X17508Y-11605D01*
X17546Y-11601D01*
X17584Y-11604D01*
X17622Y-11614D01*
X17657Y-11632D01*
X17687Y-11656D01*
X17713Y-11685D01*
X17732Y-11719D01*
X17745Y-11756D01*
X17749Y-11795D01*
X17750Y-11800D01*
X17350Y-11600D02*
X17750Y-12000D01*
X17750Y-11600D02*
X17350Y-12000D01*
X18300Y-16650D02*
X18296Y-16688D01*
X18284Y-16726D01*
X18266Y-16760D01*
X18241Y-16790D01*
X18211Y-16815D01*
X18177Y-16834D01*
X18140Y-16845D01*
X18101Y-16849D01*
X18063Y-16846D01*
X18026Y-16835D01*
X17991Y-16817D01*
X17961Y-16792D01*
X17935Y-16762D01*
X17917Y-16728D01*
X17905Y-16691D01*
X17901Y-16652D01*
X17904Y-16614D01*
X17915Y-16577D01*
X17932Y-16542D01*
X17957Y-16512D01*
X17986Y-16486D01*
X18020Y-16467D01*
X18058Y-16455D01*
X18096Y-16451D01*
X18134Y-16454D01*
X18172Y-16464D01*
X18207Y-16482D01*
X18237Y-16506D01*
X18263Y-16535D01*
X18282Y-16569D01*
X18295Y-16606D01*
X18299Y-16645D01*
X18300Y-16650D01*
X17900Y-16450D02*
X18300Y-16850D01*
X18300Y-16450D02*
X17900Y-16850D01*
X18300Y-19650D02*
X18296Y-19688D01*
X18284Y-19726D01*
X18266Y-19760D01*
X18241Y-19790D01*
X18211Y-19815D01*
X18177Y-19834D01*
X18140Y-19845D01*
X18101Y-19849D01*
X18063Y-19846D01*
X18026Y-19835D01*
X17991Y-19817D01*
X17961Y-19792D01*
X17935Y-19762D01*
X17917Y-19728D01*
X17905Y-19691D01*
X17901Y-19652D01*
X17904Y-19614D01*
X17915Y-19577D01*
X17932Y-19542D01*
X17957Y-19512D01*
X17986Y-19486D01*
X18020Y-19467D01*
X18058Y-19455D01*
X18096Y-19451D01*
X18134Y-19454D01*
X18172Y-19464D01*
X18207Y-19482D01*
X18237Y-19506D01*
X18263Y-19535D01*
X18282Y-19569D01*
X18295Y-19606D01*
X18299Y-19645D01*
X18300Y-19650D01*
X17900Y-19450D02*
X18300Y-19850D01*
X18300Y-19450D02*
X17900Y-19850D01*
X18750Y-11800D02*
X18746Y-11838D01*
X18734Y-11876D01*
X18716Y-11910D01*
X18691Y-11940D01*
X18661Y-11965D01*
X18627Y-11984D01*
X18590Y-11995D01*
X18551Y-11999D01*
X18513Y-11996D01*
X18476Y-11985D01*
X18441Y-11967D01*
X18411Y-11942D01*
X18385Y-11912D01*
X18367Y-11878D01*
X18355Y-11841D01*
X18351Y-11802D01*
X18354Y-11764D01*
X18365Y-11727D01*
X18382Y-11692D01*
X18407Y-11662D01*
X18436Y-11636D01*
X18470Y-11617D01*
X18508Y-11605D01*
X18546Y-11601D01*
X18584Y-11604D01*
X18622Y-11614D01*
X18657Y-11632D01*
X18687Y-11656D01*
X18713Y-11685D01*
X18732Y-11719D01*
X18745Y-11756D01*
X18749Y-11795D01*
X18750Y-11800D01*
X18350Y-11600D02*
X18750Y-12000D01*
X18750Y-11600D02*
X18350Y-12000D01*
X19300Y-16650D02*
X19296Y-16688D01*
X19284Y-16726D01*
X19266Y-16760D01*
X19241Y-16790D01*
X19211Y-16815D01*
X19177Y-16834D01*
X19140Y-16845D01*
X19101Y-16849D01*
X19063Y-16846D01*
X19026Y-16835D01*
X18991Y-16817D01*
X18961Y-16792D01*
X18935Y-16762D01*
X18917Y-16728D01*
X18905Y-16691D01*
X18901Y-16652D01*
X18904Y-16614D01*
X18915Y-16577D01*
X18932Y-16542D01*
X18957Y-16512D01*
X18986Y-16486D01*
X19020Y-16467D01*
X19058Y-16455D01*
X19096Y-16451D01*
X19134Y-16454D01*
X19172Y-16464D01*
X19207Y-16482D01*
X19237Y-16506D01*
X19263Y-16535D01*
X19282Y-16569D01*
X19295Y-16606D01*
X19299Y-16645D01*
X19300Y-16650D01*
X18900Y-16450D02*
X19300Y-16850D01*
X19300Y-16450D02*
X18900Y-16850D01*
X19300Y-19650D02*
X19296Y-19688D01*
X19284Y-19726D01*
X19266Y-19760D01*
X19241Y-19790D01*
X19211Y-19815D01*
X19177Y-19834D01*
X19140Y-19845D01*
X19101Y-19849D01*
X19063Y-19846D01*
X19026Y-19835D01*
X18991Y-19817D01*
X18961Y-19792D01*
X18935Y-19762D01*
X18917Y-19728D01*
X18905Y-19691D01*
X18901Y-19652D01*
X18904Y-19614D01*
X18915Y-19577D01*
X18932Y-19542D01*
X18957Y-19512D01*
X18986Y-19486D01*
X19020Y-19467D01*
X19058Y-19455D01*
X19096Y-19451D01*
X19134Y-19454D01*
X19172Y-19464D01*
X19207Y-19482D01*
X19237Y-19506D01*
X19263Y-19535D01*
X19282Y-19569D01*
X19295Y-19606D01*
X19299Y-19645D01*
X19300Y-19650D01*
X18900Y-19450D02*
X19300Y-19850D01*
X19300Y-19450D02*
X18900Y-19850D01*
X19750Y-11800D02*
X19746Y-11838D01*
X19734Y-11876D01*
X19716Y-11910D01*
X19691Y-11940D01*
X19661Y-11965D01*
X19627Y-11984D01*
X19590Y-11995D01*
X19551Y-11999D01*
X19513Y-11996D01*
X19476Y-11985D01*
X19441Y-11967D01*
X19411Y-11942D01*
X19385Y-11912D01*
X19367Y-11878D01*
X19355Y-11841D01*
X19351Y-11802D01*
X19354Y-11764D01*
X19365Y-11727D01*
X19382Y-11692D01*
X19407Y-11662D01*
X19436Y-11636D01*
X19470Y-11617D01*
X19508Y-11605D01*
X19546Y-11601D01*
X19584Y-11604D01*
X19622Y-11614D01*
X19657Y-11632D01*
X19687Y-11656D01*
X19713Y-11685D01*
X19732Y-11719D01*
X19745Y-11756D01*
X19749Y-11795D01*
X19750Y-11800D01*
X19350Y-11600D02*
X19750Y-12000D01*
X19750Y-11600D02*
X19350Y-12000D01*
X20300Y-16650D02*
X20296Y-16688D01*
X20284Y-16726D01*
X20266Y-16760D01*
X20241Y-16790D01*
X20211Y-16815D01*
X20177Y-16834D01*
X20140Y-16845D01*
X20101Y-16849D01*
X20063Y-16846D01*
X20026Y-16835D01*
X19991Y-16817D01*
X19961Y-16792D01*
X19935Y-16762D01*
X19917Y-16728D01*
X19905Y-16691D01*
X19901Y-16652D01*
X19904Y-16614D01*
X19915Y-16577D01*
X19932Y-16542D01*
X19957Y-16512D01*
X19986Y-16486D01*
X20020Y-16467D01*
X20058Y-16455D01*
X20096Y-16451D01*
X20134Y-16454D01*
X20172Y-16464D01*
X20207Y-16482D01*
X20237Y-16506D01*
X20263Y-16535D01*
X20282Y-16569D01*
X20295Y-16606D01*
X20299Y-16645D01*
X20300Y-16650D01*
X19900Y-16450D02*
X20300Y-16850D01*
X20300Y-16450D02*
X19900Y-16850D01*
X20300Y-19650D02*
X20296Y-19688D01*
X20284Y-19726D01*
X20266Y-19760D01*
X20241Y-19790D01*
X20211Y-19815D01*
X20177Y-19834D01*
X20140Y-19845D01*
X20101Y-19849D01*
X20063Y-19846D01*
X20026Y-19835D01*
X19991Y-19817D01*
X19961Y-19792D01*
X19935Y-19762D01*
X19917Y-19728D01*
X19905Y-19691D01*
X19901Y-19652D01*
X19904Y-19614D01*
X19915Y-19577D01*
X19932Y-19542D01*
X19957Y-19512D01*
X19986Y-19486D01*
X20020Y-19467D01*
X20058Y-19455D01*
X20096Y-19451D01*
X20134Y-19454D01*
X20172Y-19464D01*
X20207Y-19482D01*
X20237Y-19506D01*
X20263Y-19535D01*
X20282Y-19569D01*
X20295Y-19606D01*
X20299Y-19645D01*
X20300Y-19650D01*
X19900Y-19450D02*
X20300Y-19850D01*
X20300Y-19450D02*
X19900Y-19850D01*
X20750Y-11800D02*
X20746Y-11838D01*
X20734Y-11876D01*
X20716Y-11910D01*
X20691Y-11940D01*
X20661Y-11965D01*
X20627Y-11984D01*
X20590Y-11995D01*
X20551Y-11999D01*
X20513Y-11996D01*
X20476Y-11985D01*
X20441Y-11967D01*
X20411Y-11942D01*
X20385Y-11912D01*
X20367Y-11878D01*
X20355Y-11841D01*
X20351Y-11802D01*
X20354Y-11764D01*
X20365Y-11727D01*
X20382Y-11692D01*
X20407Y-11662D01*
X20436Y-11636D01*
X20470Y-11617D01*
X20508Y-11605D01*
X20546Y-11601D01*
X20584Y-11604D01*
X20622Y-11614D01*
X20657Y-11632D01*
X20687Y-11656D01*
X20713Y-11685D01*
X20732Y-11719D01*
X20745Y-11756D01*
X20749Y-11795D01*
X20750Y-11800D01*
X20350Y-11600D02*
X20750Y-12000D01*
X20750Y-11600D02*
X20350Y-12000D01*
X21300Y-16650D02*
X21296Y-16688D01*
X21284Y-16726D01*
X21266Y-16760D01*
X21241Y-16790D01*
X21211Y-16815D01*
X21177Y-16834D01*
X21140Y-16845D01*
X21101Y-16849D01*
X21063Y-16846D01*
X21026Y-16835D01*
X20991Y-16817D01*
X20961Y-16792D01*
X20935Y-16762D01*
X20917Y-16728D01*
X20905Y-16691D01*
X20901Y-16652D01*
X20904Y-16614D01*
X20915Y-16577D01*
X20932Y-16542D01*
X20957Y-16512D01*
X20986Y-16486D01*
X21020Y-16467D01*
X21058Y-16455D01*
X21096Y-16451D01*
X21134Y-16454D01*
X21172Y-16464D01*
X21207Y-16482D01*
X21237Y-16506D01*
X21263Y-16535D01*
X21282Y-16569D01*
X21295Y-16606D01*
X21299Y-16645D01*
X21300Y-16650D01*
X20900Y-16450D02*
X21300Y-16850D01*
X21300Y-16450D02*
X20900Y-16850D01*
X21300Y-19650D02*
X21296Y-19688D01*
X21284Y-19726D01*
X21266Y-19760D01*
X21241Y-19790D01*
X21211Y-19815D01*
X21177Y-19834D01*
X21140Y-19845D01*
X21101Y-19849D01*
X21063Y-19846D01*
X21026Y-19835D01*
X20991Y-19817D01*
X20961Y-19792D01*
X20935Y-19762D01*
X20917Y-19728D01*
X20905Y-19691D01*
X20901Y-19652D01*
X20904Y-19614D01*
X20915Y-19577D01*
X20932Y-19542D01*
X20957Y-19512D01*
X20986Y-19486D01*
X21020Y-19467D01*
X21058Y-19455D01*
X21096Y-19451D01*
X21134Y-19454D01*
X21172Y-19464D01*
X21207Y-19482D01*
X21237Y-19506D01*
X21263Y-19535D01*
X21282Y-19569D01*
X21295Y-19606D01*
X21299Y-19645D01*
X21300Y-19650D01*
X20900Y-19450D02*
X21300Y-19850D01*
X21300Y-19450D02*
X20900Y-19850D01*
X21750Y-11800D02*
X21746Y-11838D01*
X21734Y-11876D01*
X21716Y-11910D01*
X21691Y-11940D01*
X21661Y-11965D01*
X21627Y-11984D01*
X21590Y-11995D01*
X21551Y-11999D01*
X21513Y-11996D01*
X21476Y-11985D01*
X21441Y-11967D01*
X21411Y-11942D01*
X21385Y-11912D01*
X21367Y-11878D01*
X21355Y-11841D01*
X21351Y-11802D01*
X21354Y-11764D01*
X21365Y-11727D01*
X21382Y-11692D01*
X21407Y-11662D01*
X21436Y-11636D01*
X21470Y-11617D01*
X21508Y-11605D01*
X21546Y-11601D01*
X21584Y-11604D01*
X21622Y-11614D01*
X21657Y-11632D01*
X21687Y-11656D01*
X21713Y-11685D01*
X21732Y-11719D01*
X21745Y-11756D01*
X21749Y-11795D01*
X21750Y-11800D01*
X21350Y-11600D02*
X21750Y-12000D01*
X21750Y-11600D02*
X21350Y-12000D01*
X22300Y-16650D02*
X22296Y-16688D01*
X22284Y-16726D01*
X22266Y-16760D01*
X22241Y-16790D01*
X22211Y-16815D01*
X22177Y-16834D01*
X22140Y-16845D01*
X22101Y-16849D01*
X22063Y-16846D01*
X22026Y-16835D01*
X21991Y-16817D01*
X21961Y-16792D01*
X21935Y-16762D01*
X21917Y-16728D01*
X21905Y-16691D01*
X21901Y-16652D01*
X21904Y-16614D01*
X21915Y-16577D01*
X21932Y-16542D01*
X21957Y-16512D01*
X21986Y-16486D01*
X22020Y-16467D01*
X22058Y-16455D01*
X22096Y-16451D01*
X22134Y-16454D01*
X22172Y-16464D01*
X22207Y-16482D01*
X22237Y-16506D01*
X22263Y-16535D01*
X22282Y-16569D01*
X22295Y-16606D01*
X22299Y-16645D01*
X22300Y-16650D01*
X21900Y-16450D02*
X22300Y-16850D01*
X22300Y-16450D02*
X21900Y-16850D01*
X22300Y-19650D02*
X22296Y-19688D01*
X22284Y-19726D01*
X22266Y-19760D01*
X22241Y-19790D01*
X22211Y-19815D01*
X22177Y-19834D01*
X22140Y-19845D01*
X22101Y-19849D01*
X22063Y-19846D01*
X22026Y-19835D01*
X21991Y-19817D01*
X21961Y-19792D01*
X21935Y-19762D01*
X21917Y-19728D01*
X21905Y-19691D01*
X21901Y-19652D01*
X21904Y-19614D01*
X21915Y-19577D01*
X21932Y-19542D01*
X21957Y-19512D01*
X21986Y-19486D01*
X22020Y-19467D01*
X22058Y-19455D01*
X22096Y-19451D01*
X22134Y-19454D01*
X22172Y-19464D01*
X22207Y-19482D01*
X22237Y-19506D01*
X22263Y-19535D01*
X22282Y-19569D01*
X22295Y-19606D01*
X22299Y-19645D01*
X22300Y-19650D01*
X21900Y-19450D02*
X22300Y-19850D01*
X22300Y-19450D02*
X21900Y-19850D01*
X22550Y-13350D02*
X22546Y-13388D01*
X22534Y-13426D01*
X22516Y-13460D01*
X22491Y-13490D01*
X22461Y-13515D01*
X22427Y-13534D01*
X22390Y-13545D01*
X22351Y-13549D01*
X22313Y-13546D01*
X22276Y-13535D01*
X22241Y-13517D01*
X22211Y-13492D01*
X22185Y-13462D01*
X22167Y-13428D01*
X22155Y-13391D01*
X22151Y-13352D01*
X22154Y-13314D01*
X22165Y-13277D01*
X22182Y-13242D01*
X22207Y-13212D01*
X22236Y-13186D01*
X22270Y-13167D01*
X22308Y-13155D01*
X22346Y-13151D01*
X22384Y-13154D01*
X22422Y-13164D01*
X22457Y-13182D01*
X22487Y-13206D01*
X22513Y-13235D01*
X22532Y-13269D01*
X22545Y-13306D01*
X22549Y-13345D01*
X22550Y-13350D01*
X22150Y-13150D02*
X22550Y-13550D01*
X22550Y-13150D02*
X22150Y-13550D01*
X22550Y-14350D02*
X22546Y-14388D01*
X22534Y-14426D01*
X22516Y-14460D01*
X22491Y-14490D01*
X22461Y-14515D01*
X22427Y-14534D01*
X22390Y-14545D01*
X22351Y-14549D01*
X22313Y-14546D01*
X22276Y-14535D01*
X22241Y-14517D01*
X22211Y-14492D01*
X22185Y-14462D01*
X22167Y-14428D01*
X22155Y-14391D01*
X22151Y-14352D01*
X22154Y-14314D01*
X22165Y-14277D01*
X22182Y-14242D01*
X22207Y-14212D01*
X22236Y-14186D01*
X22270Y-14167D01*
X22308Y-14155D01*
X22346Y-14151D01*
X22384Y-14154D01*
X22422Y-14164D01*
X22457Y-14182D01*
X22487Y-14206D01*
X22513Y-14235D01*
X22532Y-14269D01*
X22545Y-14306D01*
X22549Y-14345D01*
X22550Y-14350D01*
X22150Y-14150D02*
X22550Y-14550D01*
X22550Y-14150D02*
X22150Y-14550D01*
X22550Y-15350D02*
X22546Y-15388D01*
X22534Y-15426D01*
X22516Y-15460D01*
X22491Y-15490D01*
X22461Y-15515D01*
X22427Y-15534D01*
X22390Y-15545D01*
X22351Y-15549D01*
X22313Y-15546D01*
X22276Y-15535D01*
X22241Y-15517D01*
X22211Y-15492D01*
X22185Y-15462D01*
X22167Y-15428D01*
X22155Y-15391D01*
X22151Y-15352D01*
X22154Y-15314D01*
X22165Y-15277D01*
X22182Y-15242D01*
X22207Y-15212D01*
X22236Y-15186D01*
X22270Y-15167D01*
X22308Y-15155D01*
X22346Y-15151D01*
X22384Y-15154D01*
X22422Y-15164D01*
X22457Y-15182D01*
X22487Y-15206D01*
X22513Y-15235D01*
X22532Y-15269D01*
X22545Y-15306D01*
X22549Y-15345D01*
X22550Y-15350D01*
X22150Y-15150D02*
X22550Y-15550D01*
X22550Y-15150D02*
X22150Y-15550D01*
X22750Y-11800D02*
X22746Y-11838D01*
X22734Y-11876D01*
X22716Y-11910D01*
X22691Y-11940D01*
X22661Y-11965D01*
X22627Y-11984D01*
X22590Y-11995D01*
X22551Y-11999D01*
X22513Y-11996D01*
X22476Y-11985D01*
X22441Y-11967D01*
X22411Y-11942D01*
X22385Y-11912D01*
X22367Y-11878D01*
X22355Y-11841D01*
X22351Y-11802D01*
X22354Y-11764D01*
X22365Y-11727D01*
X22382Y-11692D01*
X22407Y-11662D01*
X22436Y-11636D01*
X22470Y-11617D01*
X22508Y-11605D01*
X22546Y-11601D01*
X22584Y-11604D01*
X22622Y-11614D01*
X22657Y-11632D01*
X22687Y-11656D01*
X22713Y-11685D01*
X22732Y-11719D01*
X22745Y-11756D01*
X22749Y-11795D01*
X22750Y-11800D01*
X22350Y-11600D02*
X22750Y-12000D01*
X22750Y-11600D02*
X22350Y-12000D01*
X23300Y-16650D02*
X23296Y-16688D01*
X23284Y-16726D01*
X23266Y-16760D01*
X23241Y-16790D01*
X23211Y-16815D01*
X23177Y-16834D01*
X23140Y-16845D01*
X23101Y-16849D01*
X23063Y-16846D01*
X23026Y-16835D01*
X22991Y-16817D01*
X22961Y-16792D01*
X22935Y-16762D01*
X22917Y-16728D01*
X22905Y-16691D01*
X22901Y-16652D01*
X22904Y-16614D01*
X22915Y-16577D01*
X22932Y-16542D01*
X22957Y-16512D01*
X22986Y-16486D01*
X23020Y-16467D01*
X23058Y-16455D01*
X23096Y-16451D01*
X23134Y-16454D01*
X23172Y-16464D01*
X23207Y-16482D01*
X23237Y-16506D01*
X23263Y-16535D01*
X23282Y-16569D01*
X23295Y-16606D01*
X23299Y-16645D01*
X23300Y-16650D01*
X22900Y-16450D02*
X23300Y-16850D01*
X23300Y-16450D02*
X22900Y-16850D01*
X23300Y-19650D02*
X23296Y-19688D01*
X23284Y-19726D01*
X23266Y-19760D01*
X23241Y-19790D01*
X23211Y-19815D01*
X23177Y-19834D01*
X23140Y-19845D01*
X23101Y-19849D01*
X23063Y-19846D01*
X23026Y-19835D01*
X22991Y-19817D01*
X22961Y-19792D01*
X22935Y-19762D01*
X22917Y-19728D01*
X22905Y-19691D01*
X22901Y-19652D01*
X22904Y-19614D01*
X22915Y-19577D01*
X22932Y-19542D01*
X22957Y-19512D01*
X22986Y-19486D01*
X23020Y-19467D01*
X23058Y-19455D01*
X23096Y-19451D01*
X23134Y-19454D01*
X23172Y-19464D01*
X23207Y-19482D01*
X23237Y-19506D01*
X23263Y-19535D01*
X23282Y-19569D01*
X23295Y-19606D01*
X23299Y-19645D01*
X23300Y-19650D01*
X22900Y-19450D02*
X23300Y-19850D01*
X23300Y-19450D02*
X22900Y-19850D01*
X24300Y-13950D02*
X24296Y-13988D01*
X24284Y-14026D01*
X24266Y-14060D01*
X24241Y-14090D01*
X24211Y-14115D01*
X24177Y-14134D01*
X24140Y-14145D01*
X24101Y-14149D01*
X24063Y-14146D01*
X24026Y-14135D01*
X23991Y-14117D01*
X23961Y-14092D01*
X23935Y-14062D01*
X23917Y-14028D01*
X23905Y-13991D01*
X23901Y-13952D01*
X23904Y-13914D01*
X23915Y-13877D01*
X23932Y-13842D01*
X23957Y-13812D01*
X23986Y-13786D01*
X24020Y-13767D01*
X24058Y-13755D01*
X24096Y-13751D01*
X24134Y-13754D01*
X24172Y-13764D01*
X24207Y-13782D01*
X24237Y-13806D01*
X24263Y-13835D01*
X24282Y-13869D01*
X24295Y-13906D01*
X24299Y-13945D01*
X24300Y-13950D01*
X23900Y-13750D02*
X24300Y-14150D01*
X24300Y-13750D02*
X23900Y-14150D01*
X24300Y-16650D02*
X24296Y-16688D01*
X24284Y-16726D01*
X24266Y-16760D01*
X24241Y-16790D01*
X24211Y-16815D01*
X24177Y-16834D01*
X24140Y-16845D01*
X24101Y-16849D01*
X24063Y-16846D01*
X24026Y-16835D01*
X23991Y-16817D01*
X23961Y-16792D01*
X23935Y-16762D01*
X23917Y-16728D01*
X23905Y-16691D01*
X23901Y-16652D01*
X23904Y-16614D01*
X23915Y-16577D01*
X23932Y-16542D01*
X23957Y-16512D01*
X23986Y-16486D01*
X24020Y-16467D01*
X24058Y-16455D01*
X24096Y-16451D01*
X24134Y-16454D01*
X24172Y-16464D01*
X24207Y-16482D01*
X24237Y-16506D01*
X24263Y-16535D01*
X24282Y-16569D01*
X24295Y-16606D01*
X24299Y-16645D01*
X24300Y-16650D01*
X23900Y-16450D02*
X24300Y-16850D01*
X24300Y-16450D02*
X23900Y-16850D01*
X24300Y-19650D02*
X24296Y-19688D01*
X24284Y-19726D01*
X24266Y-19760D01*
X24241Y-19790D01*
X24211Y-19815D01*
X24177Y-19834D01*
X24140Y-19845D01*
X24101Y-19849D01*
X24063Y-19846D01*
X24026Y-19835D01*
X23991Y-19817D01*
X23961Y-19792D01*
X23935Y-19762D01*
X23917Y-19728D01*
X23905Y-19691D01*
X23901Y-19652D01*
X23904Y-19614D01*
X23915Y-19577D01*
X23932Y-19542D01*
X23957Y-19512D01*
X23986Y-19486D01*
X24020Y-19467D01*
X24058Y-19455D01*
X24096Y-19451D01*
X24134Y-19454D01*
X24172Y-19464D01*
X24207Y-19482D01*
X24237Y-19506D01*
X24263Y-19535D01*
X24282Y-19569D01*
X24295Y-19606D01*
X24299Y-19645D01*
X24300Y-19650D01*
X23900Y-19450D02*
X24300Y-19850D01*
X24300Y-19450D02*
X23900Y-19850D01*
X24325Y-11400D02*
X24321Y-11438D01*
X24309Y-11476D01*
X24291Y-11510D01*
X24266Y-11540D01*
X24236Y-11565D01*
X24202Y-11584D01*
X24165Y-11595D01*
X24126Y-11599D01*
X24088Y-11596D01*
X24051Y-11585D01*
X24016Y-11567D01*
X23986Y-11542D01*
X23960Y-11512D01*
X23942Y-11478D01*
X23930Y-11441D01*
X23926Y-11402D01*
X23929Y-11364D01*
X23940Y-11327D01*
X23957Y-11292D01*
X23982Y-11262D01*
X24011Y-11236D01*
X24045Y-11217D01*
X24083Y-11205D01*
X24121Y-11201D01*
X24159Y-11204D01*
X24197Y-11214D01*
X24232Y-11232D01*
X24262Y-11256D01*
X24288Y-11285D01*
X24307Y-11319D01*
X24320Y-11356D01*
X24324Y-11395D01*
X24325Y-11400D01*
X23925Y-11200D02*
X24325Y-11600D01*
X24325Y-11200D02*
X23925Y-11600D01*
X24700Y-12900D02*
X24696Y-12938D01*
X24684Y-12976D01*
X24666Y-13010D01*
X24641Y-13040D01*
X24611Y-13065D01*
X24577Y-13084D01*
X24540Y-13095D01*
X24501Y-13099D01*
X24463Y-13096D01*
X24426Y-13085D01*
X24391Y-13067D01*
X24361Y-13042D01*
X24335Y-13012D01*
X24317Y-12978D01*
X24305Y-12941D01*
X24301Y-12902D01*
X24304Y-12864D01*
X24315Y-12827D01*
X24332Y-12792D01*
X24357Y-12762D01*
X24386Y-12736D01*
X24420Y-12717D01*
X24458Y-12705D01*
X24496Y-12701D01*
X24534Y-12704D01*
X24572Y-12714D01*
X24607Y-12732D01*
X24637Y-12756D01*
X24663Y-12785D01*
X24682Y-12819D01*
X24695Y-12856D01*
X24699Y-12895D01*
X24700Y-12900D01*
X24300Y-12700D02*
X24700Y-13100D01*
X24700Y-12700D02*
X24300Y-13100D01*
X25300Y-16650D02*
X25296Y-16688D01*
X25284Y-16726D01*
X25266Y-16760D01*
X25241Y-16790D01*
X25211Y-16815D01*
X25177Y-16834D01*
X25140Y-16845D01*
X25101Y-16849D01*
X25063Y-16846D01*
X25026Y-16835D01*
X24991Y-16817D01*
X24961Y-16792D01*
X24935Y-16762D01*
X24917Y-16728D01*
X24905Y-16691D01*
X24901Y-16652D01*
X24904Y-16614D01*
X24915Y-16577D01*
X24932Y-16542D01*
X24957Y-16512D01*
X24986Y-16486D01*
X25020Y-16467D01*
X25058Y-16455D01*
X25096Y-16451D01*
X25134Y-16454D01*
X25172Y-16464D01*
X25207Y-16482D01*
X25237Y-16506D01*
X25263Y-16535D01*
X25282Y-16569D01*
X25295Y-16606D01*
X25299Y-16645D01*
X25300Y-16650D01*
X24900Y-16450D02*
X25300Y-16850D01*
X25300Y-16450D02*
X24900Y-16850D01*
X25300Y-19650D02*
X25296Y-19688D01*
X25284Y-19726D01*
X25266Y-19760D01*
X25241Y-19790D01*
X25211Y-19815D01*
X25177Y-19834D01*
X25140Y-19845D01*
X25101Y-19849D01*
X25063Y-19846D01*
X25026Y-19835D01*
X24991Y-19817D01*
X24961Y-19792D01*
X24935Y-19762D01*
X24917Y-19728D01*
X24905Y-19691D01*
X24901Y-19652D01*
X24904Y-19614D01*
X24915Y-19577D01*
X24932Y-19542D01*
X24957Y-19512D01*
X24986Y-19486D01*
X25020Y-19467D01*
X25058Y-19455D01*
X25096Y-19451D01*
X25134Y-19454D01*
X25172Y-19464D01*
X25207Y-19482D01*
X25237Y-19506D01*
X25263Y-19535D01*
X25282Y-19569D01*
X25295Y-19606D01*
X25299Y-19645D01*
X25300Y-19650D01*
X24900Y-19450D02*
X25300Y-19850D01*
X25300Y-19450D02*
X24900Y-19850D01*
X25700Y-12900D02*
X25696Y-12938D01*
X25684Y-12976D01*
X25666Y-13010D01*
X25641Y-13040D01*
X25611Y-13065D01*
X25577Y-13084D01*
X25540Y-13095D01*
X25501Y-13099D01*
X25463Y-13096D01*
X25426Y-13085D01*
X25391Y-13067D01*
X25361Y-13042D01*
X25335Y-13012D01*
X25317Y-12978D01*
X25305Y-12941D01*
X25301Y-12902D01*
X25304Y-12864D01*
X25315Y-12827D01*
X25332Y-12792D01*
X25357Y-12762D01*
X25386Y-12736D01*
X25420Y-12717D01*
X25458Y-12705D01*
X25496Y-12701D01*
X25534Y-12704D01*
X25572Y-12714D01*
X25607Y-12732D01*
X25637Y-12756D01*
X25663Y-12785D01*
X25682Y-12819D01*
X25695Y-12856D01*
X25699Y-12895D01*
X25700Y-12900D01*
X25300Y-12700D02*
X25700Y-13100D01*
X25700Y-12700D02*
X25300Y-13100D01*
X26050Y-13950D02*
X26046Y-13988D01*
X26034Y-14026D01*
X26016Y-14060D01*
X25991Y-14090D01*
X25961Y-14115D01*
X25927Y-14134D01*
X25890Y-14145D01*
X25851Y-14149D01*
X25813Y-14146D01*
X25776Y-14135D01*
X25741Y-14117D01*
X25711Y-14092D01*
X25685Y-14062D01*
X25667Y-14028D01*
X25655Y-13991D01*
X25651Y-13952D01*
X25654Y-13914D01*
X25665Y-13877D01*
X25682Y-13842D01*
X25707Y-13812D01*
X25736Y-13786D01*
X25770Y-13767D01*
X25808Y-13755D01*
X25846Y-13751D01*
X25884Y-13754D01*
X25922Y-13764D01*
X25957Y-13782D01*
X25987Y-13806D01*
X26013Y-13835D01*
X26032Y-13869D01*
X26045Y-13906D01*
X26049Y-13945D01*
X26050Y-13950D01*
X25650Y-13750D02*
X26050Y-14150D01*
X26050Y-13750D02*
X25650Y-14150D01*
X26075Y-11400D02*
X26071Y-11438D01*
X26059Y-11476D01*
X26041Y-11510D01*
X26016Y-11540D01*
X25986Y-11565D01*
X25952Y-11584D01*
X25915Y-11595D01*
X25876Y-11599D01*
X25838Y-11596D01*
X25801Y-11585D01*
X25766Y-11567D01*
X25736Y-11542D01*
X25710Y-11512D01*
X25692Y-11478D01*
X25680Y-11441D01*
X25676Y-11402D01*
X25679Y-11364D01*
X25690Y-11327D01*
X25707Y-11292D01*
X25732Y-11262D01*
X25761Y-11236D01*
X25795Y-11217D01*
X25833Y-11205D01*
X25871Y-11201D01*
X25909Y-11204D01*
X25947Y-11214D01*
X25982Y-11232D01*
X26012Y-11256D01*
X26038Y-11285D01*
X26057Y-11319D01*
X26070Y-11356D01*
X26074Y-11395D01*
X26075Y-11400D01*
X25675Y-11200D02*
X26075Y-11600D01*
X26075Y-11200D02*
X25675Y-11600D01*
X26300Y-16650D02*
X26296Y-16688D01*
X26284Y-16726D01*
X26266Y-16760D01*
X26241Y-16790D01*
X26211Y-16815D01*
X26177Y-16834D01*
X26140Y-16845D01*
X26101Y-16849D01*
X26063Y-16846D01*
X26026Y-16835D01*
X25991Y-16817D01*
X25961Y-16792D01*
X25935Y-16762D01*
X25917Y-16728D01*
X25905Y-16691D01*
X25901Y-16652D01*
X25904Y-16614D01*
X25915Y-16577D01*
X25932Y-16542D01*
X25957Y-16512D01*
X25986Y-16486D01*
X26020Y-16467D01*
X26058Y-16455D01*
X26096Y-16451D01*
X26134Y-16454D01*
X26172Y-16464D01*
X26207Y-16482D01*
X26237Y-16506D01*
X26263Y-16535D01*
X26282Y-16569D01*
X26295Y-16606D01*
X26299Y-16645D01*
X26300Y-16650D01*
X25900Y-16450D02*
X26300Y-16850D01*
X26300Y-16450D02*
X25900Y-16850D01*
X26300Y-19650D02*
X26296Y-19688D01*
X26284Y-19726D01*
X26266Y-19760D01*
X26241Y-19790D01*
X26211Y-19815D01*
X26177Y-19834D01*
X26140Y-19845D01*
X26101Y-19849D01*
X26063Y-19846D01*
X26026Y-19835D01*
X25991Y-19817D01*
X25961Y-19792D01*
X25935Y-19762D01*
X25917Y-19728D01*
X25905Y-19691D01*
X25901Y-19652D01*
X25904Y-19614D01*
X25915Y-19577D01*
X25932Y-19542D01*
X25957Y-19512D01*
X25986Y-19486D01*
X26020Y-19467D01*
X26058Y-19455D01*
X26096Y-19451D01*
X26134Y-19454D01*
X26172Y-19464D01*
X26207Y-19482D01*
X26237Y-19506D01*
X26263Y-19535D01*
X26282Y-19569D01*
X26295Y-19606D01*
X26299Y-19645D01*
X26300Y-19650D01*
X25900Y-19450D02*
X26300Y-19850D01*
X26300Y-19450D02*
X25900Y-19850D01*
X27300Y-16650D02*
X27296Y-16688D01*
X27284Y-16726D01*
X27266Y-16760D01*
X27241Y-16790D01*
X27211Y-16815D01*
X27177Y-16834D01*
X27140Y-16845D01*
X27101Y-16849D01*
X27063Y-16846D01*
X27026Y-16835D01*
X26991Y-16817D01*
X26961Y-16792D01*
X26935Y-16762D01*
X26917Y-16728D01*
X26905Y-16691D01*
X26901Y-16652D01*
X26904Y-16614D01*
X26915Y-16577D01*
X26932Y-16542D01*
X26957Y-16512D01*
X26986Y-16486D01*
X27020Y-16467D01*
X27058Y-16455D01*
X27096Y-16451D01*
X27134Y-16454D01*
X27172Y-16464D01*
X27207Y-16482D01*
X27237Y-16506D01*
X27263Y-16535D01*
X27282Y-16569D01*
X27295Y-16606D01*
X27299Y-16645D01*
X27300Y-16650D01*
X26900Y-16450D02*
X27300Y-16850D01*
X27300Y-16450D02*
X26900Y-16850D01*
X27300Y-19650D02*
X27296Y-19688D01*
X27284Y-19726D01*
X27266Y-19760D01*
X27241Y-19790D01*
X27211Y-19815D01*
X27177Y-19834D01*
X27140Y-19845D01*
X27101Y-19849D01*
X27063Y-19846D01*
X27026Y-19835D01*
X26991Y-19817D01*
X26961Y-19792D01*
X26935Y-19762D01*
X26917Y-19728D01*
X26905Y-19691D01*
X26901Y-19652D01*
X26904Y-19614D01*
X26915Y-19577D01*
X26932Y-19542D01*
X26957Y-19512D01*
X26986Y-19486D01*
X27020Y-19467D01*
X27058Y-19455D01*
X27096Y-19451D01*
X27134Y-19454D01*
X27172Y-19464D01*
X27207Y-19482D01*
X27237Y-19506D01*
X27263Y-19535D01*
X27282Y-19569D01*
X27295Y-19606D01*
X27299Y-19645D01*
X27300Y-19650D01*
X26900Y-19450D02*
X27300Y-19850D01*
X27300Y-19450D02*
X26900Y-19850D01*
X27650Y-11700D02*
X27646Y-11738D01*
X27634Y-11776D01*
X27616Y-11810D01*
X27591Y-11840D01*
X27561Y-11865D01*
X27527Y-11884D01*
X27490Y-11895D01*
X27451Y-11899D01*
X27413Y-11896D01*
X27376Y-11885D01*
X27341Y-11867D01*
X27311Y-11842D01*
X27285Y-11812D01*
X27267Y-11778D01*
X27255Y-11741D01*
X27251Y-11702D01*
X27254Y-11664D01*
X27265Y-11627D01*
X27282Y-11592D01*
X27307Y-11562D01*
X27336Y-11536D01*
X27370Y-11517D01*
X27408Y-11505D01*
X27446Y-11501D01*
X27484Y-11504D01*
X27522Y-11514D01*
X27557Y-11532D01*
X27587Y-11556D01*
X27613Y-11585D01*
X27632Y-11619D01*
X27645Y-11656D01*
X27649Y-11695D01*
X27650Y-11700D01*
X27250Y-11500D02*
X27650Y-11900D01*
X27650Y-11500D02*
X27250Y-11900D01*
X27650Y-12700D02*
X27646Y-12738D01*
X27634Y-12776D01*
X27616Y-12810D01*
X27591Y-12840D01*
X27561Y-12865D01*
X27527Y-12884D01*
X27490Y-12895D01*
X27451Y-12899D01*
X27413Y-12896D01*
X27376Y-12885D01*
X27341Y-12867D01*
X27311Y-12842D01*
X27285Y-12812D01*
X27267Y-12778D01*
X27255Y-12741D01*
X27251Y-12702D01*
X27254Y-12664D01*
X27265Y-12627D01*
X27282Y-12592D01*
X27307Y-12562D01*
X27336Y-12536D01*
X27370Y-12517D01*
X27408Y-12505D01*
X27446Y-12501D01*
X27484Y-12504D01*
X27522Y-12514D01*
X27557Y-12532D01*
X27587Y-12556D01*
X27613Y-12585D01*
X27632Y-12619D01*
X27645Y-12656D01*
X27649Y-12695D01*
X27650Y-12700D01*
X27250Y-12500D02*
X27650Y-12900D01*
X27650Y-12500D02*
X27250Y-12900D01*
X27650Y-13700D02*
X27646Y-13738D01*
X27634Y-13776D01*
X27616Y-13810D01*
X27591Y-13840D01*
X27561Y-13865D01*
X27527Y-13884D01*
X27490Y-13895D01*
X27451Y-13899D01*
X27413Y-13896D01*
X27376Y-13885D01*
X27341Y-13867D01*
X27311Y-13842D01*
X27285Y-13812D01*
X27267Y-13778D01*
X27255Y-13741D01*
X27251Y-13702D01*
X27254Y-13664D01*
X27265Y-13627D01*
X27282Y-13592D01*
X27307Y-13562D01*
X27336Y-13536D01*
X27370Y-13517D01*
X27408Y-13505D01*
X27446Y-13501D01*
X27484Y-13504D01*
X27522Y-13514D01*
X27557Y-13532D01*
X27587Y-13556D01*
X27613Y-13585D01*
X27632Y-13619D01*
X27645Y-13656D01*
X27649Y-13695D01*
X27650Y-13700D01*
X27250Y-13500D02*
X27650Y-13900D01*
X27650Y-13500D02*
X27250Y-13900D01*
X27650Y-14700D02*
X27646Y-14738D01*
X27634Y-14776D01*
X27616Y-14810D01*
X27591Y-14840D01*
X27561Y-14865D01*
X27527Y-14884D01*
X27490Y-14895D01*
X27451Y-14899D01*
X27413Y-14896D01*
X27376Y-14885D01*
X27341Y-14867D01*
X27311Y-14842D01*
X27285Y-14812D01*
X27267Y-14778D01*
X27255Y-14741D01*
X27251Y-14702D01*
X27254Y-14664D01*
X27265Y-14627D01*
X27282Y-14592D01*
X27307Y-14562D01*
X27336Y-14536D01*
X27370Y-14517D01*
X27408Y-14505D01*
X27446Y-14501D01*
X27484Y-14504D01*
X27522Y-14514D01*
X27557Y-14532D01*
X27587Y-14556D01*
X27613Y-14585D01*
X27632Y-14619D01*
X27645Y-14656D01*
X27649Y-14695D01*
X27650Y-14700D01*
X27250Y-14500D02*
X27650Y-14900D01*
X27650Y-14500D02*
X27250Y-14900D01*
X28975Y-18475D02*
X28971Y-18513D01*
X28959Y-18551D01*
X28941Y-18585D01*
X28916Y-18615D01*
X28886Y-18640D01*
X28852Y-18659D01*
X28815Y-18670D01*
X28776Y-18674D01*
X28738Y-18671D01*
X28701Y-18660D01*
X28666Y-18642D01*
X28636Y-18617D01*
X28610Y-18587D01*
X28592Y-18553D01*
X28580Y-18516D01*
X28576Y-18477D01*
X28579Y-18439D01*
X28590Y-18402D01*
X28607Y-18367D01*
X28632Y-18337D01*
X28661Y-18311D01*
X28695Y-18292D01*
X28733Y-18280D01*
X28771Y-18276D01*
X28809Y-18279D01*
X28847Y-18289D01*
X28882Y-18307D01*
X28912Y-18331D01*
X28938Y-18360D01*
X28957Y-18394D01*
X28970Y-18431D01*
X28974Y-18470D01*
X28975Y-18475D01*
X28575Y-18275D02*
X28975Y-18675D01*
X28975Y-18275D02*
X28575Y-18675D01*
X28975Y-19475D02*
X28971Y-19513D01*
X28959Y-19551D01*
X28941Y-19585D01*
X28916Y-19615D01*
X28886Y-19640D01*
X28852Y-19659D01*
X28815Y-19670D01*
X28776Y-19674D01*
X28738Y-19671D01*
X28701Y-19660D01*
X28666Y-19642D01*
X28636Y-19617D01*
X28610Y-19587D01*
X28592Y-19553D01*
X28580Y-19516D01*
X28576Y-19477D01*
X28579Y-19439D01*
X28590Y-19402D01*
X28607Y-19367D01*
X28632Y-19337D01*
X28661Y-19311D01*
X28695Y-19292D01*
X28733Y-19280D01*
X28771Y-19276D01*
X28809Y-19279D01*
X28847Y-19289D01*
X28882Y-19307D01*
X28912Y-19331D01*
X28938Y-19360D01*
X28957Y-19394D01*
X28970Y-19431D01*
X28974Y-19470D01*
X28975Y-19475D01*
X28575Y-19275D02*
X28975Y-19675D01*
X28975Y-19275D02*
X28575Y-19675D01*
X28975Y-20475D02*
X28971Y-20513D01*
X28959Y-20551D01*
X28941Y-20585D01*
X28916Y-20615D01*
X28886Y-20640D01*
X28852Y-20659D01*
X28815Y-20670D01*
X28776Y-20674D01*
X28738Y-20671D01*
X28701Y-20660D01*
X28666Y-20642D01*
X28636Y-20617D01*
X28610Y-20587D01*
X28592Y-20553D01*
X28580Y-20516D01*
X28576Y-20477D01*
X28579Y-20439D01*
X28590Y-20402D01*
X28607Y-20367D01*
X28632Y-20337D01*
X28661Y-20311D01*
X28695Y-20292D01*
X28733Y-20280D01*
X28771Y-20276D01*
X28809Y-20279D01*
X28847Y-20289D01*
X28882Y-20307D01*
X28912Y-20331D01*
X28938Y-20360D01*
X28957Y-20394D01*
X28970Y-20431D01*
X28974Y-20470D01*
X28975Y-20475D01*
X28575Y-20275D02*
X28975Y-20675D01*
X28975Y-20275D02*
X28575Y-20675D01*
X28975Y-21475D02*
X28971Y-21513D01*
X28959Y-21551D01*
X28941Y-21585D01*
X28916Y-21615D01*
X28886Y-21640D01*
X28852Y-21659D01*
X28815Y-21670D01*
X28776Y-21674D01*
X28738Y-21671D01*
X28701Y-21660D01*
X28666Y-21642D01*
X28636Y-21617D01*
X28610Y-21587D01*
X28592Y-21553D01*
X28580Y-21516D01*
X28576Y-21477D01*
X28579Y-21439D01*
X28590Y-21402D01*
X28607Y-21367D01*
X28632Y-21337D01*
X28661Y-21311D01*
X28695Y-21292D01*
X28733Y-21280D01*
X28771Y-21276D01*
X28809Y-21279D01*
X28847Y-21289D01*
X28882Y-21307D01*
X28912Y-21331D01*
X28938Y-21360D01*
X28957Y-21394D01*
X28970Y-21431D01*
X28974Y-21470D01*
X28975Y-21475D01*
X28575Y-21275D02*
X28975Y-21675D01*
X28975Y-21275D02*
X28575Y-21675D01*
X29325Y-23250D02*
X29321Y-23288D01*
X29309Y-23326D01*
X29291Y-23360D01*
X29266Y-23390D01*
X29236Y-23415D01*
X29202Y-23434D01*
X29165Y-23445D01*
X29126Y-23449D01*
X29088Y-23446D01*
X29051Y-23435D01*
X29016Y-23417D01*
X28986Y-23392D01*
X28960Y-23362D01*
X28942Y-23328D01*
X28930Y-23291D01*
X28926Y-23252D01*
X28929Y-23214D01*
X28940Y-23177D01*
X28957Y-23142D01*
X28982Y-23112D01*
X29011Y-23086D01*
X29045Y-23067D01*
X29083Y-23055D01*
X29121Y-23051D01*
X29159Y-23054D01*
X29197Y-23064D01*
X29232Y-23082D01*
X29262Y-23106D01*
X29288Y-23135D01*
X29307Y-23169D01*
X29320Y-23206D01*
X29324Y-23245D01*
X29325Y-23250D01*
X28925Y-23050D02*
X29325Y-23450D01*
X29325Y-23050D02*
X28925Y-23450D01*
X30325Y-23250D02*
X30321Y-23288D01*
X30309Y-23326D01*
X30291Y-23360D01*
X30266Y-23390D01*
X30236Y-23415D01*
X30202Y-23434D01*
X30165Y-23445D01*
X30126Y-23449D01*
X30088Y-23446D01*
X30051Y-23435D01*
X30016Y-23417D01*
X29986Y-23392D01*
X29960Y-23362D01*
X29942Y-23328D01*
X29930Y-23291D01*
X29926Y-23252D01*
X29929Y-23214D01*
X29940Y-23177D01*
X29957Y-23142D01*
X29982Y-23112D01*
X30011Y-23086D01*
X30045Y-23067D01*
X30083Y-23055D01*
X30121Y-23051D01*
X30159Y-23054D01*
X30197Y-23064D01*
X30232Y-23082D01*
X30262Y-23106D01*
X30288Y-23135D01*
X30307Y-23169D01*
X30320Y-23206D01*
X30324Y-23245D01*
X30325Y-23250D01*
X29925Y-23050D02*
X30325Y-23450D01*
X30325Y-23050D02*
X29925Y-23450D01*
X30650Y-11700D02*
X30646Y-11738D01*
X30634Y-11776D01*
X30616Y-11810D01*
X30591Y-11840D01*
X30561Y-11865D01*
X30527Y-11884D01*
X30490Y-11895D01*
X30451Y-11899D01*
X30413Y-11896D01*
X30376Y-11885D01*
X30341Y-11867D01*
X30311Y-11842D01*
X30285Y-11812D01*
X30267Y-11778D01*
X30255Y-11741D01*
X30251Y-11702D01*
X30254Y-11664D01*
X30265Y-11627D01*
X30282Y-11592D01*
X30307Y-11562D01*
X30336Y-11536D01*
X30370Y-11517D01*
X30408Y-11505D01*
X30446Y-11501D01*
X30484Y-11504D01*
X30522Y-11514D01*
X30557Y-11532D01*
X30587Y-11556D01*
X30613Y-11585D01*
X30632Y-11619D01*
X30645Y-11656D01*
X30649Y-11695D01*
X30650Y-11700D01*
X30250Y-11500D02*
X30650Y-11900D01*
X30650Y-11500D02*
X30250Y-11900D01*
X30650Y-12700D02*
X30646Y-12738D01*
X30634Y-12776D01*
X30616Y-12810D01*
X30591Y-12840D01*
X30561Y-12865D01*
X30527Y-12884D01*
X30490Y-12895D01*
X30451Y-12899D01*
X30413Y-12896D01*
X30376Y-12885D01*
X30341Y-12867D01*
X30311Y-12842D01*
X30285Y-12812D01*
X30267Y-12778D01*
X30255Y-12741D01*
X30251Y-12702D01*
X30254Y-12664D01*
X30265Y-12627D01*
X30282Y-12592D01*
X30307Y-12562D01*
X30336Y-12536D01*
X30370Y-12517D01*
X30408Y-12505D01*
X30446Y-12501D01*
X30484Y-12504D01*
X30522Y-12514D01*
X30557Y-12532D01*
X30587Y-12556D01*
X30613Y-12585D01*
X30632Y-12619D01*
X30645Y-12656D01*
X30649Y-12695D01*
X30650Y-12700D01*
X30250Y-12500D02*
X30650Y-12900D01*
X30650Y-12500D02*
X30250Y-12900D01*
X30650Y-13700D02*
X30646Y-13738D01*
X30634Y-13776D01*
X30616Y-13810D01*
X30591Y-13840D01*
X30561Y-13865D01*
X30527Y-13884D01*
X30490Y-13895D01*
X30451Y-13899D01*
X30413Y-13896D01*
X30376Y-13885D01*
X30341Y-13867D01*
X30311Y-13842D01*
X30285Y-13812D01*
X30267Y-13778D01*
X30255Y-13741D01*
X30251Y-13702D01*
X30254Y-13664D01*
X30265Y-13627D01*
X30282Y-13592D01*
X30307Y-13562D01*
X30336Y-13536D01*
X30370Y-13517D01*
X30408Y-13505D01*
X30446Y-13501D01*
X30484Y-13504D01*
X30522Y-13514D01*
X30557Y-13532D01*
X30587Y-13556D01*
X30613Y-13585D01*
X30632Y-13619D01*
X30645Y-13656D01*
X30649Y-13695D01*
X30650Y-13700D01*
X30250Y-13500D02*
X30650Y-13900D01*
X30650Y-13500D02*
X30250Y-13900D01*
X30650Y-14700D02*
X30646Y-14738D01*
X30634Y-14776D01*
X30616Y-14810D01*
X30591Y-14840D01*
X30561Y-14865D01*
X30527Y-14884D01*
X30490Y-14895D01*
X30451Y-14899D01*
X30413Y-14896D01*
X30376Y-14885D01*
X30341Y-14867D01*
X30311Y-14842D01*
X30285Y-14812D01*
X30267Y-14778D01*
X30255Y-14741D01*
X30251Y-14702D01*
X30254Y-14664D01*
X30265Y-14627D01*
X30282Y-14592D01*
X30307Y-14562D01*
X30336Y-14536D01*
X30370Y-14517D01*
X30408Y-14505D01*
X30446Y-14501D01*
X30484Y-14504D01*
X30522Y-14514D01*
X30557Y-14532D01*
X30587Y-14556D01*
X30613Y-14585D01*
X30632Y-14619D01*
X30645Y-14656D01*
X30649Y-14695D01*
X30650Y-14700D01*
X30250Y-14500D02*
X30650Y-14900D01*
X30650Y-14500D02*
X30250Y-14900D01*
X31325Y-23250D02*
X31321Y-23288D01*
X31309Y-23326D01*
X31291Y-23360D01*
X31266Y-23390D01*
X31236Y-23415D01*
X31202Y-23434D01*
X31165Y-23445D01*
X31126Y-23449D01*
X31088Y-23446D01*
X31051Y-23435D01*
X31016Y-23417D01*
X30986Y-23392D01*
X30960Y-23362D01*
X30942Y-23328D01*
X30930Y-23291D01*
X30926Y-23252D01*
X30929Y-23214D01*
X30940Y-23177D01*
X30957Y-23142D01*
X30982Y-23112D01*
X31011Y-23086D01*
X31045Y-23067D01*
X31083Y-23055D01*
X31121Y-23051D01*
X31159Y-23054D01*
X31197Y-23064D01*
X31232Y-23082D01*
X31262Y-23106D01*
X31288Y-23135D01*
X31307Y-23169D01*
X31320Y-23206D01*
X31324Y-23245D01*
X31325Y-23250D01*
X30925Y-23050D02*
X31325Y-23450D01*
X31325Y-23050D02*
X30925Y-23450D01*
X33275Y-23250D02*
X33271Y-23288D01*
X33259Y-23326D01*
X33241Y-23360D01*
X33216Y-23390D01*
X33186Y-23415D01*
X33152Y-23434D01*
X33115Y-23445D01*
X33076Y-23449D01*
X33038Y-23446D01*
X33001Y-23435D01*
X32966Y-23417D01*
X32936Y-23392D01*
X32910Y-23362D01*
X32892Y-23328D01*
X32880Y-23291D01*
X32876Y-23252D01*
X32879Y-23214D01*
X32890Y-23177D01*
X32907Y-23142D01*
X32932Y-23112D01*
X32961Y-23086D01*
X32995Y-23067D01*
X33033Y-23055D01*
X33071Y-23051D01*
X33109Y-23054D01*
X33147Y-23064D01*
X33182Y-23082D01*
X33212Y-23106D01*
X33238Y-23135D01*
X33257Y-23169D01*
X33270Y-23206D01*
X33274Y-23245D01*
X33275Y-23250D01*
X32875Y-23050D02*
X33275Y-23450D01*
X33275Y-23050D02*
X32875Y-23450D01*
X34275Y-23250D02*
X34271Y-23288D01*
X34259Y-23326D01*
X34241Y-23360D01*
X34216Y-23390D01*
X34186Y-23415D01*
X34152Y-23434D01*
X34115Y-23445D01*
X34076Y-23449D01*
X34038Y-23446D01*
X34001Y-23435D01*
X33966Y-23417D01*
X33936Y-23392D01*
X33910Y-23362D01*
X33892Y-23328D01*
X33880Y-23291D01*
X33876Y-23252D01*
X33879Y-23214D01*
X33890Y-23177D01*
X33907Y-23142D01*
X33932Y-23112D01*
X33961Y-23086D01*
X33995Y-23067D01*
X34033Y-23055D01*
X34071Y-23051D01*
X34109Y-23054D01*
X34147Y-23064D01*
X34182Y-23082D01*
X34212Y-23106D01*
X34238Y-23135D01*
X34257Y-23169D01*
X34270Y-23206D01*
X34274Y-23245D01*
X34275Y-23250D01*
X33875Y-23050D02*
X34275Y-23450D01*
X34275Y-23050D02*
X33875Y-23450D01*
X43975Y-11700D02*
X43971Y-11738D01*
X43959Y-11776D01*
X43941Y-11810D01*
X43916Y-11840D01*
X43886Y-11865D01*
X43852Y-11884D01*
X43815Y-11895D01*
X43776Y-11899D01*
X43738Y-11896D01*
X43701Y-11885D01*
X43666Y-11867D01*
X43636Y-11842D01*
X43610Y-11812D01*
X43592Y-11778D01*
X43580Y-11741D01*
X43576Y-11702D01*
X43579Y-11664D01*
X43590Y-11627D01*
X43607Y-11592D01*
X43632Y-11562D01*
X43661Y-11536D01*
X43695Y-11517D01*
X43733Y-11505D01*
X43771Y-11501D01*
X43809Y-11504D01*
X43847Y-11514D01*
X43882Y-11532D01*
X43912Y-11556D01*
X43938Y-11585D01*
X43957Y-11619D01*
X43970Y-11656D01*
X43974Y-11695D01*
X43975Y-11700D01*
X43575Y-11500D02*
X43975Y-11900D01*
X43975Y-11500D02*
X43575Y-11900D01*
X43975Y-12700D02*
X43971Y-12738D01*
X43959Y-12776D01*
X43941Y-12810D01*
X43916Y-12840D01*
X43886Y-12865D01*
X43852Y-12884D01*
X43815Y-12895D01*
X43776Y-12899D01*
X43738Y-12896D01*
X43701Y-12885D01*
X43666Y-12867D01*
X43636Y-12842D01*
X43610Y-12812D01*
X43592Y-12778D01*
X43580Y-12741D01*
X43576Y-12702D01*
X43579Y-12664D01*
X43590Y-12627D01*
X43607Y-12592D01*
X43632Y-12562D01*
X43661Y-12536D01*
X43695Y-12517D01*
X43733Y-12505D01*
X43771Y-12501D01*
X43809Y-12504D01*
X43847Y-12514D01*
X43882Y-12532D01*
X43912Y-12556D01*
X43938Y-12585D01*
X43957Y-12619D01*
X43970Y-12656D01*
X43974Y-12695D01*
X43975Y-12700D01*
X43575Y-12500D02*
X43975Y-12900D01*
X43975Y-12500D02*
X43575Y-12900D01*
X43975Y-13700D02*
X43971Y-13738D01*
X43959Y-13776D01*
X43941Y-13810D01*
X43916Y-13840D01*
X43886Y-13865D01*
X43852Y-13884D01*
X43815Y-13895D01*
X43776Y-13899D01*
X43738Y-13896D01*
X43701Y-13885D01*
X43666Y-13867D01*
X43636Y-13842D01*
X43610Y-13812D01*
X43592Y-13778D01*
X43580Y-13741D01*
X43576Y-13702D01*
X43579Y-13664D01*
X43590Y-13627D01*
X43607Y-13592D01*
X43632Y-13562D01*
X43661Y-13536D01*
X43695Y-13517D01*
X43733Y-13505D01*
X43771Y-13501D01*
X43809Y-13504D01*
X43847Y-13514D01*
X43882Y-13532D01*
X43912Y-13556D01*
X43938Y-13585D01*
X43957Y-13619D01*
X43970Y-13656D01*
X43974Y-13695D01*
X43975Y-13700D01*
X43575Y-13500D02*
X43975Y-13900D01*
X43975Y-13500D02*
X43575Y-13900D01*
X43975Y-14700D02*
X43971Y-14738D01*
X43959Y-14776D01*
X43941Y-14810D01*
X43916Y-14840D01*
X43886Y-14865D01*
X43852Y-14884D01*
X43815Y-14895D01*
X43776Y-14899D01*
X43738Y-14896D01*
X43701Y-14885D01*
X43666Y-14867D01*
X43636Y-14842D01*
X43610Y-14812D01*
X43592Y-14778D01*
X43580Y-14741D01*
X43576Y-14702D01*
X43579Y-14664D01*
X43590Y-14627D01*
X43607Y-14592D01*
X43632Y-14562D01*
X43661Y-14536D01*
X43695Y-14517D01*
X43733Y-14505D01*
X43771Y-14501D01*
X43809Y-14504D01*
X43847Y-14514D01*
X43882Y-14532D01*
X43912Y-14556D01*
X43938Y-14585D01*
X43957Y-14619D01*
X43970Y-14656D01*
X43974Y-14695D01*
X43975Y-14700D01*
X43575Y-14500D02*
X43975Y-14900D01*
X43975Y-14500D02*
X43575Y-14900D01*
X43975Y-15700D02*
X43971Y-15738D01*
X43959Y-15776D01*
X43941Y-15810D01*
X43916Y-15840D01*
X43886Y-15865D01*
X43852Y-15884D01*
X43815Y-15895D01*
X43776Y-15899D01*
X43738Y-15896D01*
X43701Y-15885D01*
X43666Y-15867D01*
X43636Y-15842D01*
X43610Y-15812D01*
X43592Y-15778D01*
X43580Y-15741D01*
X43576Y-15702D01*
X43579Y-15664D01*
X43590Y-15627D01*
X43607Y-15592D01*
X43632Y-15562D01*
X43661Y-15536D01*
X43695Y-15517D01*
X43733Y-15505D01*
X43771Y-15501D01*
X43809Y-15504D01*
X43847Y-15514D01*
X43882Y-15532D01*
X43912Y-15556D01*
X43938Y-15585D01*
X43957Y-15619D01*
X43970Y-15656D01*
X43974Y-15695D01*
X43975Y-15700D01*
X43575Y-15500D02*
X43975Y-15900D01*
X43975Y-15500D02*
X43575Y-15900D01*
X43975Y-16700D02*
X43971Y-16738D01*
X43959Y-16776D01*
X43941Y-16810D01*
X43916Y-16840D01*
X43886Y-16865D01*
X43852Y-16884D01*
X43815Y-16895D01*
X43776Y-16899D01*
X43738Y-16896D01*
X43701Y-16885D01*
X43666Y-16867D01*
X43636Y-16842D01*
X43610Y-16812D01*
X43592Y-16778D01*
X43580Y-16741D01*
X43576Y-16702D01*
X43579Y-16664D01*
X43590Y-16627D01*
X43607Y-16592D01*
X43632Y-16562D01*
X43661Y-16536D01*
X43695Y-16517D01*
X43733Y-16505D01*
X43771Y-16501D01*
X43809Y-16504D01*
X43847Y-16514D01*
X43882Y-16532D01*
X43912Y-16556D01*
X43938Y-16585D01*
X43957Y-16619D01*
X43970Y-16656D01*
X43974Y-16695D01*
X43975Y-16700D01*
X43575Y-16500D02*
X43975Y-16900D01*
X43975Y-16500D02*
X43575Y-16900D01*
X43975Y-17700D02*
X43971Y-17738D01*
X43959Y-17776D01*
X43941Y-17810D01*
X43916Y-17840D01*
X43886Y-17865D01*
X43852Y-17884D01*
X43815Y-17895D01*
X43776Y-17899D01*
X43738Y-17896D01*
X43701Y-17885D01*
X43666Y-17867D01*
X43636Y-17842D01*
X43610Y-17812D01*
X43592Y-17778D01*
X43580Y-17741D01*
X43576Y-17702D01*
X43579Y-17664D01*
X43590Y-17627D01*
X43607Y-17592D01*
X43632Y-17562D01*
X43661Y-17536D01*
X43695Y-17517D01*
X43733Y-17505D01*
X43771Y-17501D01*
X43809Y-17504D01*
X43847Y-17514D01*
X43882Y-17532D01*
X43912Y-17556D01*
X43938Y-17585D01*
X43957Y-17619D01*
X43970Y-17656D01*
X43974Y-17695D01*
X43975Y-17700D01*
X43575Y-17500D02*
X43975Y-17900D01*
X43975Y-17500D02*
X43575Y-17900D01*
X43975Y-18700D02*
X43971Y-18738D01*
X43959Y-18776D01*
X43941Y-18810D01*
X43916Y-18840D01*
X43886Y-18865D01*
X43852Y-18884D01*
X43815Y-18895D01*
X43776Y-18899D01*
X43738Y-18896D01*
X43701Y-18885D01*
X43666Y-18867D01*
X43636Y-18842D01*
X43610Y-18812D01*
X43592Y-18778D01*
X43580Y-18741D01*
X43576Y-18702D01*
X43579Y-18664D01*
X43590Y-18627D01*
X43607Y-18592D01*
X43632Y-18562D01*
X43661Y-18536D01*
X43695Y-18517D01*
X43733Y-18505D01*
X43771Y-18501D01*
X43809Y-18504D01*
X43847Y-18514D01*
X43882Y-18532D01*
X43912Y-18556D01*
X43938Y-18585D01*
X43957Y-18619D01*
X43970Y-18656D01*
X43974Y-18695D01*
X43975Y-18700D01*
X43575Y-18500D02*
X43975Y-18900D01*
X43975Y-18500D02*
X43575Y-18900D01*
X43975Y-19700D02*
X43971Y-19738D01*
X43959Y-19776D01*
X43941Y-19810D01*
X43916Y-19840D01*
X43886Y-19865D01*
X43852Y-19884D01*
X43815Y-19895D01*
X43776Y-19899D01*
X43738Y-19896D01*
X43701Y-19885D01*
X43666Y-19867D01*
X43636Y-19842D01*
X43610Y-19812D01*
X43592Y-19778D01*
X43580Y-19741D01*
X43576Y-19702D01*
X43579Y-19664D01*
X43590Y-19627D01*
X43607Y-19592D01*
X43632Y-19562D01*
X43661Y-19536D01*
X43695Y-19517D01*
X43733Y-19505D01*
X43771Y-19501D01*
X43809Y-19504D01*
X43847Y-19514D01*
X43882Y-19532D01*
X43912Y-19556D01*
X43938Y-19585D01*
X43957Y-19619D01*
X43970Y-19656D01*
X43974Y-19695D01*
X43975Y-19700D01*
X43575Y-19500D02*
X43975Y-19900D01*
X43975Y-19500D02*
X43575Y-19900D01*
X43975Y-20700D02*
X43971Y-20738D01*
X43959Y-20776D01*
X43941Y-20810D01*
X43916Y-20840D01*
X43886Y-20865D01*
X43852Y-20884D01*
X43815Y-20895D01*
X43776Y-20899D01*
X43738Y-20896D01*
X43701Y-20885D01*
X43666Y-20867D01*
X43636Y-20842D01*
X43610Y-20812D01*
X43592Y-20778D01*
X43580Y-20741D01*
X43576Y-20702D01*
X43579Y-20664D01*
X43590Y-20627D01*
X43607Y-20592D01*
X43632Y-20562D01*
X43661Y-20536D01*
X43695Y-20517D01*
X43733Y-20505D01*
X43771Y-20501D01*
X43809Y-20504D01*
X43847Y-20514D01*
X43882Y-20532D01*
X43912Y-20556D01*
X43938Y-20585D01*
X43957Y-20619D01*
X43970Y-20656D01*
X43974Y-20695D01*
X43975Y-20700D01*
X43575Y-20500D02*
X43975Y-20900D01*
X43975Y-20500D02*
X43575Y-20900D01*
X43975Y-21700D02*
X43971Y-21738D01*
X43959Y-21776D01*
X43941Y-21810D01*
X43916Y-21840D01*
X43886Y-21865D01*
X43852Y-21884D01*
X43815Y-21895D01*
X43776Y-21899D01*
X43738Y-21896D01*
X43701Y-21885D01*
X43666Y-21867D01*
X43636Y-21842D01*
X43610Y-21812D01*
X43592Y-21778D01*
X43580Y-21741D01*
X43576Y-21702D01*
X43579Y-21664D01*
X43590Y-21627D01*
X43607Y-21592D01*
X43632Y-21562D01*
X43661Y-21536D01*
X43695Y-21517D01*
X43733Y-21505D01*
X43771Y-21501D01*
X43809Y-21504D01*
X43847Y-21514D01*
X43882Y-21532D01*
X43912Y-21556D01*
X43938Y-21585D01*
X43957Y-21619D01*
X43970Y-21656D01*
X43974Y-21695D01*
X43975Y-21700D01*
X43575Y-21500D02*
X43975Y-21900D01*
X43975Y-21500D02*
X43575Y-21900D01*
X43975Y-22700D02*
X43971Y-22738D01*
X43959Y-22776D01*
X43941Y-22810D01*
X43916Y-22840D01*
X43886Y-22865D01*
X43852Y-22884D01*
X43815Y-22895D01*
X43776Y-22899D01*
X43738Y-22896D01*
X43701Y-22885D01*
X43666Y-22867D01*
X43636Y-22842D01*
X43610Y-22812D01*
X43592Y-22778D01*
X43580Y-22741D01*
X43576Y-22702D01*
X43579Y-22664D01*
X43590Y-22627D01*
X43607Y-22592D01*
X43632Y-22562D01*
X43661Y-22536D01*
X43695Y-22517D01*
X43733Y-22505D01*
X43771Y-22501D01*
X43809Y-22504D01*
X43847Y-22514D01*
X43882Y-22532D01*
X43912Y-22556D01*
X43938Y-22585D01*
X43957Y-22619D01*
X43970Y-22656D01*
X43974Y-22695D01*
X43975Y-22700D01*
X43575Y-22500D02*
X43975Y-22900D01*
X43975Y-22500D02*
X43575Y-22900D01*
X43975Y-23700D02*
X43971Y-23738D01*
X43959Y-23776D01*
X43941Y-23810D01*
X43916Y-23840D01*
X43886Y-23865D01*
X43852Y-23884D01*
X43815Y-23895D01*
X43776Y-23899D01*
X43738Y-23896D01*
X43701Y-23885D01*
X43666Y-23867D01*
X43636Y-23842D01*
X43610Y-23812D01*
X43592Y-23778D01*
X43580Y-23741D01*
X43576Y-23702D01*
X43579Y-23664D01*
X43590Y-23627D01*
X43607Y-23592D01*
X43632Y-23562D01*
X43661Y-23536D01*
X43695Y-23517D01*
X43733Y-23505D01*
X43771Y-23501D01*
X43809Y-23504D01*
X43847Y-23514D01*
X43882Y-23532D01*
X43912Y-23556D01*
X43938Y-23585D01*
X43957Y-23619D01*
X43970Y-23656D01*
X43974Y-23695D01*
X43975Y-23700D01*
X43575Y-23500D02*
X43975Y-23900D01*
X43975Y-23500D02*
X43575Y-23900D01*
X43975Y-24700D02*
X43971Y-24738D01*
X43959Y-24776D01*
X43941Y-24810D01*
X43916Y-24840D01*
X43886Y-24865D01*
X43852Y-24884D01*
X43815Y-24895D01*
X43776Y-24899D01*
X43738Y-24896D01*
X43701Y-24885D01*
X43666Y-24867D01*
X43636Y-24842D01*
X43610Y-24812D01*
X43592Y-24778D01*
X43580Y-24741D01*
X43576Y-24702D01*
X43579Y-24664D01*
X43590Y-24627D01*
X43607Y-24592D01*
X43632Y-24562D01*
X43661Y-24536D01*
X43695Y-24517D01*
X43733Y-24505D01*
X43771Y-24501D01*
X43809Y-24504D01*
X43847Y-24514D01*
X43882Y-24532D01*
X43912Y-24556D01*
X43938Y-24585D01*
X43957Y-24619D01*
X43970Y-24656D01*
X43974Y-24695D01*
X43975Y-24700D01*
X43575Y-24500D02*
X43975Y-24900D01*
X43975Y-24500D02*
X43575Y-24900D01*
X45725Y-15700D02*
X45721Y-15738D01*
X45709Y-15776D01*
X45691Y-15810D01*
X45666Y-15840D01*
X45636Y-15865D01*
X45602Y-15884D01*
X45565Y-15895D01*
X45526Y-15899D01*
X45488Y-15896D01*
X45451Y-15885D01*
X45416Y-15867D01*
X45386Y-15842D01*
X45360Y-15812D01*
X45342Y-15778D01*
X45330Y-15741D01*
X45326Y-15702D01*
X45329Y-15664D01*
X45340Y-15627D01*
X45357Y-15592D01*
X45382Y-15562D01*
X45411Y-15536D01*
X45445Y-15517D01*
X45483Y-15505D01*
X45521Y-15501D01*
X45559Y-15504D01*
X45597Y-15514D01*
X45632Y-15532D01*
X45662Y-15556D01*
X45688Y-15585D01*
X45707Y-15619D01*
X45720Y-15656D01*
X45724Y-15695D01*
X45725Y-15700D01*
X45325Y-15500D02*
X45725Y-15900D01*
X45725Y-15500D02*
X45325Y-15900D01*
X45725Y-16700D02*
X45721Y-16738D01*
X45709Y-16776D01*
X45691Y-16810D01*
X45666Y-16840D01*
X45636Y-16865D01*
X45602Y-16884D01*
X45565Y-16895D01*
X45526Y-16899D01*
X45488Y-16896D01*
X45451Y-16885D01*
X45416Y-16867D01*
X45386Y-16842D01*
X45360Y-16812D01*
X45342Y-16778D01*
X45330Y-16741D01*
X45326Y-16702D01*
X45329Y-16664D01*
X45340Y-16627D01*
X45357Y-16592D01*
X45382Y-16562D01*
X45411Y-16536D01*
X45445Y-16517D01*
X45483Y-16505D01*
X45521Y-16501D01*
X45559Y-16504D01*
X45597Y-16514D01*
X45632Y-16532D01*
X45662Y-16556D01*
X45688Y-16585D01*
X45707Y-16619D01*
X45720Y-16656D01*
X45724Y-16695D01*
X45725Y-16700D01*
X45325Y-16500D02*
X45725Y-16900D01*
X45725Y-16500D02*
X45325Y-16900D01*
X45725Y-17700D02*
X45721Y-17738D01*
X45709Y-17776D01*
X45691Y-17810D01*
X45666Y-17840D01*
X45636Y-17865D01*
X45602Y-17884D01*
X45565Y-17895D01*
X45526Y-17899D01*
X45488Y-17896D01*
X45451Y-17885D01*
X45416Y-17867D01*
X45386Y-17842D01*
X45360Y-17812D01*
X45342Y-17778D01*
X45330Y-17741D01*
X45326Y-17702D01*
X45329Y-17664D01*
X45340Y-17627D01*
X45357Y-17592D01*
X45382Y-17562D01*
X45411Y-17536D01*
X45445Y-17517D01*
X45483Y-17505D01*
X45521Y-17501D01*
X45559Y-17504D01*
X45597Y-17514D01*
X45632Y-17532D01*
X45662Y-17556D01*
X45688Y-17585D01*
X45707Y-17619D01*
X45720Y-17656D01*
X45724Y-17695D01*
X45725Y-17700D01*
X45325Y-17500D02*
X45725Y-17900D01*
X45725Y-17500D02*
X45325Y-17900D01*
X45725Y-18700D02*
X45721Y-18738D01*
X45709Y-18776D01*
X45691Y-18810D01*
X45666Y-18840D01*
X45636Y-18865D01*
X45602Y-18884D01*
X45565Y-18895D01*
X45526Y-18899D01*
X45488Y-18896D01*
X45451Y-18885D01*
X45416Y-18867D01*
X45386Y-18842D01*
X45360Y-18812D01*
X45342Y-18778D01*
X45330Y-18741D01*
X45326Y-18702D01*
X45329Y-18664D01*
X45340Y-18627D01*
X45357Y-18592D01*
X45382Y-18562D01*
X45411Y-18536D01*
X45445Y-18517D01*
X45483Y-18505D01*
X45521Y-18501D01*
X45559Y-18504D01*
X45597Y-18514D01*
X45632Y-18532D01*
X45662Y-18556D01*
X45688Y-18585D01*
X45707Y-18619D01*
X45720Y-18656D01*
X45724Y-18695D01*
X45725Y-18700D01*
X45325Y-18500D02*
X45725Y-18900D01*
X45725Y-18500D02*
X45325Y-18900D01*
X45725Y-19700D02*
X45721Y-19738D01*
X45709Y-19776D01*
X45691Y-19810D01*
X45666Y-19840D01*
X45636Y-19865D01*
X45602Y-19884D01*
X45565Y-19895D01*
X45526Y-19899D01*
X45488Y-19896D01*
X45451Y-19885D01*
X45416Y-19867D01*
X45386Y-19842D01*
X45360Y-19812D01*
X45342Y-19778D01*
X45330Y-19741D01*
X45326Y-19702D01*
X45329Y-19664D01*
X45340Y-19627D01*
X45357Y-19592D01*
X45382Y-19562D01*
X45411Y-19536D01*
X45445Y-19517D01*
X45483Y-19505D01*
X45521Y-19501D01*
X45559Y-19504D01*
X45597Y-19514D01*
X45632Y-19532D01*
X45662Y-19556D01*
X45688Y-19585D01*
X45707Y-19619D01*
X45720Y-19656D01*
X45724Y-19695D01*
X45725Y-19700D01*
X45325Y-19500D02*
X45725Y-19900D01*
X45725Y-19500D02*
X45325Y-19900D01*
X45725Y-20700D02*
X45721Y-20738D01*
X45709Y-20776D01*
X45691Y-20810D01*
X45666Y-20840D01*
X45636Y-20865D01*
X45602Y-20884D01*
X45565Y-20895D01*
X45526Y-20899D01*
X45488Y-20896D01*
X45451Y-20885D01*
X45416Y-20867D01*
X45386Y-20842D01*
X45360Y-20812D01*
X45342Y-20778D01*
X45330Y-20741D01*
X45326Y-20702D01*
X45329Y-20664D01*
X45340Y-20627D01*
X45357Y-20592D01*
X45382Y-20562D01*
X45411Y-20536D01*
X45445Y-20517D01*
X45483Y-20505D01*
X45521Y-20501D01*
X45559Y-20504D01*
X45597Y-20514D01*
X45632Y-20532D01*
X45662Y-20556D01*
X45688Y-20585D01*
X45707Y-20619D01*
X45720Y-20656D01*
X45724Y-20695D01*
X45725Y-20700D01*
X45325Y-20500D02*
X45725Y-20900D01*
X45725Y-20500D02*
X45325Y-20900D01*
X46950Y-17000D02*
X46946Y-17038D01*
X46934Y-17076D01*
X46916Y-17110D01*
X46891Y-17140D01*
X46861Y-17165D01*
X46827Y-17184D01*
X46790Y-17195D01*
X46751Y-17199D01*
X46713Y-17196D01*
X46676Y-17185D01*
X46641Y-17167D01*
X46611Y-17142D01*
X46585Y-17112D01*
X46567Y-17078D01*
X46555Y-17041D01*
X46551Y-17002D01*
X46554Y-16964D01*
X46565Y-16927D01*
X46582Y-16892D01*
X46607Y-16862D01*
X46636Y-16836D01*
X46670Y-16817D01*
X46708Y-16805D01*
X46746Y-16801D01*
X46784Y-16804D01*
X46822Y-16814D01*
X46857Y-16832D01*
X46887Y-16856D01*
X46913Y-16885D01*
X46932Y-16919D01*
X46945Y-16956D01*
X46949Y-16995D01*
X46950Y-17000D01*
X46550Y-16800D02*
X46950Y-17200D01*
X46950Y-16800D02*
X46550Y-17200D01*
X46950Y-18000D02*
X46946Y-18038D01*
X46934Y-18076D01*
X46916Y-18110D01*
X46891Y-18140D01*
X46861Y-18165D01*
X46827Y-18184D01*
X46790Y-18195D01*
X46751Y-18199D01*
X46713Y-18196D01*
X46676Y-18185D01*
X46641Y-18167D01*
X46611Y-18142D01*
X46585Y-18112D01*
X46567Y-18078D01*
X46555Y-18041D01*
X46551Y-18002D01*
X46554Y-17964D01*
X46565Y-17927D01*
X46582Y-17892D01*
X46607Y-17862D01*
X46636Y-17836D01*
X46670Y-17817D01*
X46708Y-17805D01*
X46746Y-17801D01*
X46784Y-17804D01*
X46822Y-17814D01*
X46857Y-17832D01*
X46887Y-17856D01*
X46913Y-17885D01*
X46932Y-17919D01*
X46945Y-17956D01*
X46949Y-17995D01*
X46950Y-18000D01*
X46550Y-17800D02*
X46950Y-18200D01*
X46950Y-17800D02*
X46550Y-18200D01*
X46950Y-19000D02*
X46946Y-19038D01*
X46934Y-19076D01*
X46916Y-19110D01*
X46891Y-19140D01*
X46861Y-19165D01*
X46827Y-19184D01*
X46790Y-19195D01*
X46751Y-19199D01*
X46713Y-19196D01*
X46676Y-19185D01*
X46641Y-19167D01*
X46611Y-19142D01*
X46585Y-19112D01*
X46567Y-19078D01*
X46555Y-19041D01*
X46551Y-19002D01*
X46554Y-18964D01*
X46565Y-18927D01*
X46582Y-18892D01*
X46607Y-18862D01*
X46636Y-18836D01*
X46670Y-18817D01*
X46708Y-18805D01*
X46746Y-18801D01*
X46784Y-18804D01*
X46822Y-18814D01*
X46857Y-18832D01*
X46887Y-18856D01*
X46913Y-18885D01*
X46932Y-18919D01*
X46945Y-18956D01*
X46949Y-18995D01*
X46950Y-19000D01*
X46550Y-18800D02*
X46950Y-19200D01*
X46950Y-18800D02*
X46550Y-19200D01*
X46950Y-20000D02*
X46946Y-20038D01*
X46934Y-20076D01*
X46916Y-20110D01*
X46891Y-20140D01*
X46861Y-20165D01*
X46827Y-20184D01*
X46790Y-20195D01*
X46751Y-20199D01*
X46713Y-20196D01*
X46676Y-20185D01*
X46641Y-20167D01*
X46611Y-20142D01*
X46585Y-20112D01*
X46567Y-20078D01*
X46555Y-20041D01*
X46551Y-20002D01*
X46554Y-19964D01*
X46565Y-19927D01*
X46582Y-19892D01*
X46607Y-19862D01*
X46636Y-19836D01*
X46670Y-19817D01*
X46708Y-19805D01*
X46746Y-19801D01*
X46784Y-19804D01*
X46822Y-19814D01*
X46857Y-19832D01*
X46887Y-19856D01*
X46913Y-19885D01*
X46932Y-19919D01*
X46945Y-19956D01*
X46949Y-19995D01*
X46950Y-20000D01*
X46550Y-19800D02*
X46950Y-20200D01*
X46950Y-19800D02*
X46550Y-20200D01*
X46950Y-21000D02*
X46946Y-21038D01*
X46934Y-21076D01*
X46916Y-21110D01*
X46891Y-21140D01*
X46861Y-21165D01*
X46827Y-21184D01*
X46790Y-21195D01*
X46751Y-21199D01*
X46713Y-21196D01*
X46676Y-21185D01*
X46641Y-21167D01*
X46611Y-21142D01*
X46585Y-21112D01*
X46567Y-21078D01*
X46555Y-21041D01*
X46551Y-21002D01*
X46554Y-20964D01*
X46565Y-20927D01*
X46582Y-20892D01*
X46607Y-20862D01*
X46636Y-20836D01*
X46670Y-20817D01*
X46708Y-20805D01*
X46746Y-20801D01*
X46784Y-20804D01*
X46822Y-20814D01*
X46857Y-20832D01*
X46887Y-20856D01*
X46913Y-20885D01*
X46932Y-20919D01*
X46945Y-20956D01*
X46949Y-20995D01*
X46950Y-21000D01*
X46550Y-20800D02*
X46950Y-21200D01*
X46950Y-20800D02*
X46550Y-21200D01*
X46950Y-22000D02*
X46946Y-22038D01*
X46934Y-22076D01*
X46916Y-22110D01*
X46891Y-22140D01*
X46861Y-22165D01*
X46827Y-22184D01*
X46790Y-22195D01*
X46751Y-22199D01*
X46713Y-22196D01*
X46676Y-22185D01*
X46641Y-22167D01*
X46611Y-22142D01*
X46585Y-22112D01*
X46567Y-22078D01*
X46555Y-22041D01*
X46551Y-22002D01*
X46554Y-21964D01*
X46565Y-21927D01*
X46582Y-21892D01*
X46607Y-21862D01*
X46636Y-21836D01*
X46670Y-21817D01*
X46708Y-21805D01*
X46746Y-21801D01*
X46784Y-21804D01*
X46822Y-21814D01*
X46857Y-21832D01*
X46887Y-21856D01*
X46913Y-21885D01*
X46932Y-21919D01*
X46945Y-21956D01*
X46949Y-21995D01*
X46950Y-22000D01*
X46550Y-21800D02*
X46950Y-22200D01*
X46950Y-21800D02*
X46550Y-22200D01*
X46950Y-23000D02*
X46946Y-23038D01*
X46934Y-23076D01*
X46916Y-23110D01*
X46891Y-23140D01*
X46861Y-23165D01*
X46827Y-23184D01*
X46790Y-23195D01*
X46751Y-23199D01*
X46713Y-23196D01*
X46676Y-23185D01*
X46641Y-23167D01*
X46611Y-23142D01*
X46585Y-23112D01*
X46567Y-23078D01*
X46555Y-23041D01*
X46551Y-23002D01*
X46554Y-22964D01*
X46565Y-22927D01*
X46582Y-22892D01*
X46607Y-22862D01*
X46636Y-22836D01*
X46670Y-22817D01*
X46708Y-22805D01*
X46746Y-22801D01*
X46784Y-22804D01*
X46822Y-22814D01*
X46857Y-22832D01*
X46887Y-22856D01*
X46913Y-22885D01*
X46932Y-22919D01*
X46945Y-22956D01*
X46949Y-22995D01*
X46950Y-23000D01*
X46550Y-22800D02*
X46950Y-23200D01*
X46950Y-22800D02*
X46550Y-23200D01*
X46950Y-24000D02*
X46946Y-24038D01*
X46934Y-24076D01*
X46916Y-24110D01*
X46891Y-24140D01*
X46861Y-24165D01*
X46827Y-24184D01*
X46790Y-24195D01*
X46751Y-24199D01*
X46713Y-24196D01*
X46676Y-24185D01*
X46641Y-24167D01*
X46611Y-24142D01*
X46585Y-24112D01*
X46567Y-24078D01*
X46555Y-24041D01*
X46551Y-24002D01*
X46554Y-23964D01*
X46565Y-23927D01*
X46582Y-23892D01*
X46607Y-23862D01*
X46636Y-23836D01*
X46670Y-23817D01*
X46708Y-23805D01*
X46746Y-23801D01*
X46784Y-23804D01*
X46822Y-23814D01*
X46857Y-23832D01*
X46887Y-23856D01*
X46913Y-23885D01*
X46932Y-23919D01*
X46945Y-23956D01*
X46949Y-23995D01*
X46950Y-24000D01*
X46550Y-23800D02*
X46950Y-24200D01*
X46950Y-23800D02*
X46550Y-24200D01*
X49950Y-17000D02*
X49946Y-17038D01*
X49934Y-17076D01*
X49916Y-17110D01*
X49891Y-17140D01*
X49861Y-17165D01*
X49827Y-17184D01*
X49790Y-17195D01*
X49751Y-17199D01*
X49713Y-17196D01*
X49676Y-17185D01*
X49641Y-17167D01*
X49611Y-17142D01*
X49585Y-17112D01*
X49567Y-17078D01*
X49555Y-17041D01*
X49551Y-17002D01*
X49554Y-16964D01*
X49565Y-16927D01*
X49582Y-16892D01*
X49607Y-16862D01*
X49636Y-16836D01*
X49670Y-16817D01*
X49708Y-16805D01*
X49746Y-16801D01*
X49784Y-16804D01*
X49822Y-16814D01*
X49857Y-16832D01*
X49887Y-16856D01*
X49913Y-16885D01*
X49932Y-16919D01*
X49945Y-16956D01*
X49949Y-16995D01*
X49950Y-17000D01*
X49550Y-16800D02*
X49950Y-17200D01*
X49950Y-16800D02*
X49550Y-17200D01*
X49950Y-18000D02*
X49946Y-18038D01*
X49934Y-18076D01*
X49916Y-18110D01*
X49891Y-18140D01*
X49861Y-18165D01*
X49827Y-18184D01*
X49790Y-18195D01*
X49751Y-18199D01*
X49713Y-18196D01*
X49676Y-18185D01*
X49641Y-18167D01*
X49611Y-18142D01*
X49585Y-18112D01*
X49567Y-18078D01*
X49555Y-18041D01*
X49551Y-18002D01*
X49554Y-17964D01*
X49565Y-17927D01*
X49582Y-17892D01*
X49607Y-17862D01*
X49636Y-17836D01*
X49670Y-17817D01*
X49708Y-17805D01*
X49746Y-17801D01*
X49784Y-17804D01*
X49822Y-17814D01*
X49857Y-17832D01*
X49887Y-17856D01*
X49913Y-17885D01*
X49932Y-17919D01*
X49945Y-17956D01*
X49949Y-17995D01*
X49950Y-18000D01*
X49550Y-17800D02*
X49950Y-18200D01*
X49950Y-17800D02*
X49550Y-18200D01*
X49950Y-19000D02*
X49946Y-19038D01*
X49934Y-19076D01*
X49916Y-19110D01*
X49891Y-19140D01*
X49861Y-19165D01*
X49827Y-19184D01*
X49790Y-19195D01*
X49751Y-19199D01*
X49713Y-19196D01*
X49676Y-19185D01*
X49641Y-19167D01*
X49611Y-19142D01*
X49585Y-19112D01*
X49567Y-19078D01*
X49555Y-19041D01*
X49551Y-19002D01*
X49554Y-18964D01*
X49565Y-18927D01*
X49582Y-18892D01*
X49607Y-18862D01*
X49636Y-18836D01*
X49670Y-18817D01*
X49708Y-18805D01*
X49746Y-18801D01*
X49784Y-18804D01*
X49822Y-18814D01*
X49857Y-18832D01*
X49887Y-18856D01*
X49913Y-18885D01*
X49932Y-18919D01*
X49945Y-18956D01*
X49949Y-18995D01*
X49950Y-19000D01*
X49550Y-18800D02*
X49950Y-19200D01*
X49950Y-18800D02*
X49550Y-19200D01*
X49950Y-20000D02*
X49946Y-20038D01*
X49934Y-20076D01*
X49916Y-20110D01*
X49891Y-20140D01*
X49861Y-20165D01*
X49827Y-20184D01*
X49790Y-20195D01*
X49751Y-20199D01*
X49713Y-20196D01*
X49676Y-20185D01*
X49641Y-20167D01*
X49611Y-20142D01*
X49585Y-20112D01*
X49567Y-20078D01*
X49555Y-20041D01*
X49551Y-20002D01*
X49554Y-19964D01*
X49565Y-19927D01*
X49582Y-19892D01*
X49607Y-19862D01*
X49636Y-19836D01*
X49670Y-19817D01*
X49708Y-19805D01*
X49746Y-19801D01*
X49784Y-19804D01*
X49822Y-19814D01*
X49857Y-19832D01*
X49887Y-19856D01*
X49913Y-19885D01*
X49932Y-19919D01*
X49945Y-19956D01*
X49949Y-19995D01*
X49950Y-20000D01*
X49550Y-19800D02*
X49950Y-20200D01*
X49950Y-19800D02*
X49550Y-20200D01*
X49950Y-21000D02*
X49946Y-21038D01*
X49934Y-21076D01*
X49916Y-21110D01*
X49891Y-21140D01*
X49861Y-21165D01*
X49827Y-21184D01*
X49790Y-21195D01*
X49751Y-21199D01*
X49713Y-21196D01*
X49676Y-21185D01*
X49641Y-21167D01*
X49611Y-21142D01*
X49585Y-21112D01*
X49567Y-21078D01*
X49555Y-21041D01*
X49551Y-21002D01*
X49554Y-20964D01*
X49565Y-20927D01*
X49582Y-20892D01*
X49607Y-20862D01*
X49636Y-20836D01*
X49670Y-20817D01*
X49708Y-20805D01*
X49746Y-20801D01*
X49784Y-20804D01*
X49822Y-20814D01*
X49857Y-20832D01*
X49887Y-20856D01*
X49913Y-20885D01*
X49932Y-20919D01*
X49945Y-20956D01*
X49949Y-20995D01*
X49950Y-21000D01*
X49550Y-20800D02*
X49950Y-21200D01*
X49950Y-20800D02*
X49550Y-21200D01*
X49950Y-22000D02*
X49946Y-22038D01*
X49934Y-22076D01*
X49916Y-22110D01*
X49891Y-22140D01*
X49861Y-22165D01*
X49827Y-22184D01*
X49790Y-22195D01*
X49751Y-22199D01*
X49713Y-22196D01*
X49676Y-22185D01*
X49641Y-22167D01*
X49611Y-22142D01*
X49585Y-22112D01*
X49567Y-22078D01*
X49555Y-22041D01*
X49551Y-22002D01*
X49554Y-21964D01*
X49565Y-21927D01*
X49582Y-21892D01*
X49607Y-21862D01*
X49636Y-21836D01*
X49670Y-21817D01*
X49708Y-21805D01*
X49746Y-21801D01*
X49784Y-21804D01*
X49822Y-21814D01*
X49857Y-21832D01*
X49887Y-21856D01*
X49913Y-21885D01*
X49932Y-21919D01*
X49945Y-21956D01*
X49949Y-21995D01*
X49950Y-22000D01*
X49550Y-21800D02*
X49950Y-22200D01*
X49950Y-21800D02*
X49550Y-22200D01*
X49950Y-23000D02*
X49946Y-23038D01*
X49934Y-23076D01*
X49916Y-23110D01*
X49891Y-23140D01*
X49861Y-23165D01*
X49827Y-23184D01*
X49790Y-23195D01*
X49751Y-23199D01*
X49713Y-23196D01*
X49676Y-23185D01*
X49641Y-23167D01*
X49611Y-23142D01*
X49585Y-23112D01*
X49567Y-23078D01*
X49555Y-23041D01*
X49551Y-23002D01*
X49554Y-22964D01*
X49565Y-22927D01*
X49582Y-22892D01*
X49607Y-22862D01*
X49636Y-22836D01*
X49670Y-22817D01*
X49708Y-22805D01*
X49746Y-22801D01*
X49784Y-22804D01*
X49822Y-22814D01*
X49857Y-22832D01*
X49887Y-22856D01*
X49913Y-22885D01*
X49932Y-22919D01*
X49945Y-22956D01*
X49949Y-22995D01*
X49950Y-23000D01*
X49550Y-22800D02*
X49950Y-23200D01*
X49950Y-22800D02*
X49550Y-23200D01*
X49950Y-24000D02*
X49946Y-24038D01*
X49934Y-24076D01*
X49916Y-24110D01*
X49891Y-24140D01*
X49861Y-24165D01*
X49827Y-24184D01*
X49790Y-24195D01*
X49751Y-24199D01*
X49713Y-24196D01*
X49676Y-24185D01*
X49641Y-24167D01*
X49611Y-24142D01*
X49585Y-24112D01*
X49567Y-24078D01*
X49555Y-24041D01*
X49551Y-24002D01*
X49554Y-23964D01*
X49565Y-23927D01*
X49582Y-23892D01*
X49607Y-23862D01*
X49636Y-23836D01*
X49670Y-23817D01*
X49708Y-23805D01*
X49746Y-23801D01*
X49784Y-23804D01*
X49822Y-23814D01*
X49857Y-23832D01*
X49887Y-23856D01*
X49913Y-23885D01*
X49932Y-23919D01*
X49945Y-23956D01*
X49949Y-23995D01*
X49950Y-24000D01*
X49550Y-23800D02*
X49950Y-24200D01*
X49950Y-23800D02*
X49550Y-24200D01*
X51725Y-15700D02*
X51721Y-15738D01*
X51709Y-15776D01*
X51691Y-15810D01*
X51666Y-15840D01*
X51636Y-15865D01*
X51602Y-15884D01*
X51565Y-15895D01*
X51526Y-15899D01*
X51488Y-15896D01*
X51451Y-15885D01*
X51416Y-15867D01*
X51386Y-15842D01*
X51360Y-15812D01*
X51342Y-15778D01*
X51330Y-15741D01*
X51326Y-15702D01*
X51329Y-15664D01*
X51340Y-15627D01*
X51357Y-15592D01*
X51382Y-15562D01*
X51411Y-15536D01*
X51445Y-15517D01*
X51483Y-15505D01*
X51521Y-15501D01*
X51559Y-15504D01*
X51597Y-15514D01*
X51632Y-15532D01*
X51662Y-15556D01*
X51688Y-15585D01*
X51707Y-15619D01*
X51720Y-15656D01*
X51724Y-15695D01*
X51725Y-15700D01*
X51325Y-15500D02*
X51725Y-15900D01*
X51725Y-15500D02*
X51325Y-15900D01*
X51725Y-16700D02*
X51721Y-16738D01*
X51709Y-16776D01*
X51691Y-16810D01*
X51666Y-16840D01*
X51636Y-16865D01*
X51602Y-16884D01*
X51565Y-16895D01*
X51526Y-16899D01*
X51488Y-16896D01*
X51451Y-16885D01*
X51416Y-16867D01*
X51386Y-16842D01*
X51360Y-16812D01*
X51342Y-16778D01*
X51330Y-16741D01*
X51326Y-16702D01*
X51329Y-16664D01*
X51340Y-16627D01*
X51357Y-16592D01*
X51382Y-16562D01*
X51411Y-16536D01*
X51445Y-16517D01*
X51483Y-16505D01*
X51521Y-16501D01*
X51559Y-16504D01*
X51597Y-16514D01*
X51632Y-16532D01*
X51662Y-16556D01*
X51688Y-16585D01*
X51707Y-16619D01*
X51720Y-16656D01*
X51724Y-16695D01*
X51725Y-16700D01*
X51325Y-16500D02*
X51725Y-16900D01*
X51725Y-16500D02*
X51325Y-16900D01*
X51725Y-17700D02*
X51721Y-17738D01*
X51709Y-17776D01*
X51691Y-17810D01*
X51666Y-17840D01*
X51636Y-17865D01*
X51602Y-17884D01*
X51565Y-17895D01*
X51526Y-17899D01*
X51488Y-17896D01*
X51451Y-17885D01*
X51416Y-17867D01*
X51386Y-17842D01*
X51360Y-17812D01*
X51342Y-17778D01*
X51330Y-17741D01*
X51326Y-17702D01*
X51329Y-17664D01*
X51340Y-17627D01*
X51357Y-17592D01*
X51382Y-17562D01*
X51411Y-17536D01*
X51445Y-17517D01*
X51483Y-17505D01*
X51521Y-17501D01*
X51559Y-17504D01*
X51597Y-17514D01*
X51632Y-17532D01*
X51662Y-17556D01*
X51688Y-17585D01*
X51707Y-17619D01*
X51720Y-17656D01*
X51724Y-17695D01*
X51725Y-17700D01*
X51325Y-17500D02*
X51725Y-17900D01*
X51725Y-17500D02*
X51325Y-17900D01*
X51725Y-18700D02*
X51721Y-18738D01*
X51709Y-18776D01*
X51691Y-18810D01*
X51666Y-18840D01*
X51636Y-18865D01*
X51602Y-18884D01*
X51565Y-18895D01*
X51526Y-18899D01*
X51488Y-18896D01*
X51451Y-18885D01*
X51416Y-18867D01*
X51386Y-18842D01*
X51360Y-18812D01*
X51342Y-18778D01*
X51330Y-18741D01*
X51326Y-18702D01*
X51329Y-18664D01*
X51340Y-18627D01*
X51357Y-18592D01*
X51382Y-18562D01*
X51411Y-18536D01*
X51445Y-18517D01*
X51483Y-18505D01*
X51521Y-18501D01*
X51559Y-18504D01*
X51597Y-18514D01*
X51632Y-18532D01*
X51662Y-18556D01*
X51688Y-18585D01*
X51707Y-18619D01*
X51720Y-18656D01*
X51724Y-18695D01*
X51725Y-18700D01*
X51325Y-18500D02*
X51725Y-18900D01*
X51725Y-18500D02*
X51325Y-18900D01*
X51725Y-19700D02*
X51721Y-19738D01*
X51709Y-19776D01*
X51691Y-19810D01*
X51666Y-19840D01*
X51636Y-19865D01*
X51602Y-19884D01*
X51565Y-19895D01*
X51526Y-19899D01*
X51488Y-19896D01*
X51451Y-19885D01*
X51416Y-19867D01*
X51386Y-19842D01*
X51360Y-19812D01*
X51342Y-19778D01*
X51330Y-19741D01*
X51326Y-19702D01*
X51329Y-19664D01*
X51340Y-19627D01*
X51357Y-19592D01*
X51382Y-19562D01*
X51411Y-19536D01*
X51445Y-19517D01*
X51483Y-19505D01*
X51521Y-19501D01*
X51559Y-19504D01*
X51597Y-19514D01*
X51632Y-19532D01*
X51662Y-19556D01*
X51688Y-19585D01*
X51707Y-19619D01*
X51720Y-19656D01*
X51724Y-19695D01*
X51725Y-19700D01*
X51325Y-19500D02*
X51725Y-19900D01*
X51725Y-19500D02*
X51325Y-19900D01*
X51725Y-20700D02*
X51721Y-20738D01*
X51709Y-20776D01*
X51691Y-20810D01*
X51666Y-20840D01*
X51636Y-20865D01*
X51602Y-20884D01*
X51565Y-20895D01*
X51526Y-20899D01*
X51488Y-20896D01*
X51451Y-20885D01*
X51416Y-20867D01*
X51386Y-20842D01*
X51360Y-20812D01*
X51342Y-20778D01*
X51330Y-20741D01*
X51326Y-20702D01*
X51329Y-20664D01*
X51340Y-20627D01*
X51357Y-20592D01*
X51382Y-20562D01*
X51411Y-20536D01*
X51445Y-20517D01*
X51483Y-20505D01*
X51521Y-20501D01*
X51559Y-20504D01*
X51597Y-20514D01*
X51632Y-20532D01*
X51662Y-20556D01*
X51688Y-20585D01*
X51707Y-20619D01*
X51720Y-20656D01*
X51724Y-20695D01*
X51725Y-20700D01*
X51325Y-20500D02*
X51725Y-20900D01*
X51725Y-20500D02*
X51325Y-20900D01*
X23875Y-12400D02*
X23870Y-12448D01*
X23856Y-12495D01*
X23833Y-12538D01*
X23802Y-12576D01*
X23764Y-12607D01*
X23721Y-12630D01*
X23675Y-12644D01*
X23626Y-12649D01*
X23579Y-12645D01*
X23532Y-12631D01*
X23489Y-12609D01*
X23451Y-12578D01*
X23419Y-12541D01*
X23396Y-12498D01*
X23381Y-12451D01*
X23376Y-12403D01*
X23380Y-12355D01*
X23393Y-12308D01*
X23415Y-12265D01*
X23446Y-12227D01*
X23483Y-12195D01*
X23525Y-12171D01*
X23572Y-12156D01*
X23620Y-12151D01*
X23668Y-12154D01*
X23715Y-12167D01*
X23758Y-12189D01*
X23797Y-12219D01*
X23829Y-12256D01*
X23853Y-12299D01*
X23868Y-12345D01*
X23874Y-12394D01*
X23875Y-12400D01*
X23375Y-12400D02*
X23875Y-12400D01*
X26625Y-12400D02*
X26620Y-12448D01*
X26606Y-12495D01*
X26583Y-12538D01*
X26552Y-12576D01*
X26514Y-12607D01*
X26471Y-12630D01*
X26425Y-12644D01*
X26376Y-12649D01*
X26329Y-12645D01*
X26282Y-12631D01*
X26239Y-12609D01*
X26201Y-12578D01*
X26169Y-12541D01*
X26146Y-12498D01*
X26131Y-12451D01*
X26126Y-12403D01*
X26130Y-12355D01*
X26143Y-12308D01*
X26165Y-12265D01*
X26196Y-12227D01*
X26233Y-12195D01*
X26275Y-12171D01*
X26322Y-12156D01*
X26370Y-12151D01*
X26418Y-12154D01*
X26465Y-12167D01*
X26508Y-12189D01*
X26547Y-12219D01*
X26579Y-12256D01*
X26603Y-12299D01*
X26618Y-12345D01*
X26624Y-12394D01*
X26625Y-12400D01*
X26125Y-12400D02*
X26625Y-12400D01*
X34550Y-13350D02*
X34544Y-13408D01*
X34527Y-13464D01*
X34499Y-13516D01*
X34462Y-13561D01*
X34417Y-13598D01*
X34366Y-13626D01*
X34310Y-13643D01*
X34252Y-13649D01*
X34194Y-13644D01*
X34138Y-13628D01*
X34086Y-13601D01*
X34041Y-13564D01*
X34003Y-13519D01*
X33975Y-13468D01*
X33957Y-13412D01*
X33951Y-13354D01*
X33955Y-13296D01*
X33972Y-13240D01*
X33998Y-13188D01*
X34035Y-13142D01*
X34079Y-13104D01*
X34130Y-13076D01*
X34186Y-13057D01*
X34244Y-13051D01*
X34302Y-13055D01*
X34358Y-13071D01*
X34410Y-13097D01*
X34456Y-13133D01*
X34495Y-13178D01*
X34524Y-13228D01*
X34542Y-13284D01*
X34549Y-13342D01*
X34550Y-13350D01*
X34250Y-13050D02*
X34250Y-13650D01*
X34550Y-15350D02*
X34544Y-15408D01*
X34527Y-15464D01*
X34499Y-15516D01*
X34462Y-15561D01*
X34417Y-15598D01*
X34366Y-15626D01*
X34310Y-15643D01*
X34252Y-15649D01*
X34194Y-15644D01*
X34138Y-15628D01*
X34086Y-15601D01*
X34041Y-15564D01*
X34003Y-15519D01*
X33975Y-15468D01*
X33957Y-15412D01*
X33951Y-15354D01*
X33955Y-15296D01*
X33972Y-15240D01*
X33998Y-15188D01*
X34035Y-15142D01*
X34079Y-15104D01*
X34130Y-15076D01*
X34186Y-15057D01*
X34244Y-15051D01*
X34302Y-15055D01*
X34358Y-15071D01*
X34410Y-15097D01*
X34456Y-15133D01*
X34495Y-15178D01*
X34524Y-15228D01*
X34542Y-15284D01*
X34549Y-15342D01*
X34550Y-15350D01*
X34250Y-15050D02*
X34250Y-15650D01*
X34550Y-17350D02*
X34544Y-17408D01*
X34527Y-17464D01*
X34499Y-17516D01*
X34462Y-17561D01*
X34417Y-17598D01*
X34366Y-17626D01*
X34310Y-17643D01*
X34252Y-17649D01*
X34194Y-17644D01*
X34138Y-17628D01*
X34086Y-17601D01*
X34041Y-17564D01*
X34003Y-17519D01*
X33975Y-17468D01*
X33957Y-17412D01*
X33951Y-17354D01*
X33955Y-17296D01*
X33972Y-17240D01*
X33998Y-17188D01*
X34035Y-17142D01*
X34079Y-17104D01*
X34130Y-17076D01*
X34186Y-17057D01*
X34244Y-17051D01*
X34302Y-17055D01*
X34358Y-17071D01*
X34410Y-17097D01*
X34456Y-17133D01*
X34495Y-17178D01*
X34524Y-17228D01*
X34542Y-17284D01*
X34549Y-17342D01*
X34550Y-17350D01*
X34250Y-17050D02*
X34250Y-17650D01*
X34550Y-19350D02*
X34544Y-19408D01*
X34527Y-19464D01*
X34499Y-19516D01*
X34462Y-19561D01*
X34417Y-19598D01*
X34366Y-19626D01*
X34310Y-19643D01*
X34252Y-19649D01*
X34194Y-19644D01*
X34138Y-19628D01*
X34086Y-19601D01*
X34041Y-19564D01*
X34003Y-19519D01*
X33975Y-19468D01*
X33957Y-19412D01*
X33951Y-19354D01*
X33955Y-19296D01*
X33972Y-19240D01*
X33998Y-19188D01*
X34035Y-19142D01*
X34079Y-19104D01*
X34130Y-19076D01*
X34186Y-19057D01*
X34244Y-19051D01*
X34302Y-19055D01*
X34358Y-19071D01*
X34410Y-19097D01*
X34456Y-19133D01*
X34495Y-19178D01*
X34524Y-19228D01*
X34542Y-19284D01*
X34549Y-19342D01*
X34550Y-19350D01*
X34250Y-19050D02*
X34250Y-19650D01*
X34550Y-21350D02*
X34544Y-21408D01*
X34527Y-21464D01*
X34499Y-21516D01*
X34462Y-21561D01*
X34417Y-21598D01*
X34366Y-21626D01*
X34310Y-21643D01*
X34252Y-21649D01*
X34194Y-21644D01*
X34138Y-21628D01*
X34086Y-21601D01*
X34041Y-21564D01*
X34003Y-21519D01*
X33975Y-21468D01*
X33957Y-21412D01*
X33951Y-21354D01*
X33955Y-21296D01*
X33972Y-21240D01*
X33998Y-21188D01*
X34035Y-21142D01*
X34079Y-21104D01*
X34130Y-21076D01*
X34186Y-21057D01*
X34244Y-21051D01*
X34302Y-21055D01*
X34358Y-21071D01*
X34410Y-21097D01*
X34456Y-21133D01*
X34495Y-21178D01*
X34524Y-21228D01*
X34542Y-21284D01*
X34549Y-21342D01*
X34550Y-21350D01*
X34250Y-21050D02*
X34250Y-21650D01*
X36249Y-11599D02*
X36249Y-10751D01*
X35401Y-10751D01*
X35401Y-11599D01*
X36249Y-11599D01*
X36249Y-23949D02*
X36249Y-23101D01*
X35401Y-23101D01*
X35401Y-23949D01*
X36249Y-23949D01*
X44299Y-09699D02*
X44299Y-08851D01*
X43451Y-08851D01*
X43451Y-09699D01*
X44299Y-09699D01*
X44299Y-27549D02*
X44299Y-26701D01*
X43451Y-26701D01*
X43451Y-27549D01*
X44299Y-27549D01*
G54D12*
X10314Y-30630D02*
X10314Y-29830D01*
X10505Y-29830D01*
X10619Y-29868D01*
X10695Y-29944D01*
X10734Y-30020D01*
X10772Y-30173D01*
X10772Y-30287D01*
X10734Y-30439D01*
X10695Y-30516D01*
X10619Y-30592D01*
X10505Y-30630D01*
X10314Y-30630D01*
X11114Y-30630D02*
X11114Y-30096D01*
X11114Y-30249D02*
X11153Y-30173D01*
X11191Y-30135D01*
X11267Y-30096D01*
X11343Y-30096D01*
X11609Y-30630D02*
X11609Y-30096D01*
X11609Y-29830D02*
X11571Y-29868D01*
X11609Y-29906D01*
X11648Y-29868D01*
X11609Y-29830D01*
X11609Y-29906D01*
X12105Y-30630D02*
X12029Y-30592D01*
X11990Y-30516D01*
X11990Y-29830D01*
X12524Y-30630D02*
X12448Y-30592D01*
X12409Y-30516D01*
X12409Y-29830D01*
X13438Y-30630D02*
X13438Y-29830D01*
X13705Y-30401D01*
X13972Y-29830D01*
X13972Y-30630D01*
X14695Y-30630D02*
X14695Y-30211D01*
X14657Y-30135D01*
X14581Y-30096D01*
X14429Y-30096D01*
X14352Y-30135D01*
X14695Y-30592D02*
X14619Y-30630D01*
X14429Y-30630D01*
X14352Y-30592D01*
X14314Y-30516D01*
X14314Y-30439D01*
X14352Y-30363D01*
X14429Y-30325D01*
X14619Y-30325D01*
X14695Y-30287D01*
X15076Y-30096D02*
X15076Y-30896D01*
X15076Y-30135D02*
X15153Y-30096D01*
X15305Y-30096D01*
X15381Y-30135D01*
X15419Y-30173D01*
X15457Y-30249D01*
X15457Y-30477D01*
X15419Y-30554D01*
X15381Y-30592D01*
X15305Y-30630D01*
X15153Y-30630D01*
X15076Y-30592D01*
X15800Y-30554D02*
X15839Y-30592D01*
X15800Y-30630D01*
X15762Y-30592D01*
X15800Y-30554D01*
X15800Y-30630D01*
X15800Y-30135D02*
X15839Y-30173D01*
X15800Y-30211D01*
X15762Y-30173D01*
X15800Y-30135D01*
X15800Y-30211D01*
X09674Y-31861D02*
X09924Y-32111D01*
X09924Y-31861D02*
X09674Y-32111D01*
X10467Y-31510D02*
X10543Y-31510D01*
X10619Y-31548D01*
X10657Y-31586D01*
X10695Y-31662D01*
X10734Y-31815D01*
X10734Y-32005D01*
X10695Y-32157D01*
X10657Y-32234D01*
X10619Y-32272D01*
X10543Y-32310D01*
X10467Y-32310D01*
X10391Y-32272D01*
X10353Y-32234D01*
X10314Y-32157D01*
X10276Y-32005D01*
X10276Y-31815D01*
X10314Y-31662D01*
X10353Y-31586D01*
X10391Y-31548D01*
X10467Y-31510D01*
X11076Y-32234D02*
X11115Y-32272D01*
X11076Y-32310D01*
X11038Y-32272D01*
X11076Y-32234D01*
X11076Y-32310D01*
X11610Y-31510D02*
X11686Y-31510D01*
X11762Y-31548D01*
X11800Y-31586D01*
X11838Y-31662D01*
X11877Y-31815D01*
X11877Y-32005D01*
X11838Y-32157D01*
X11800Y-32234D01*
X11762Y-32272D01*
X11686Y-32310D01*
X11610Y-32310D01*
X11534Y-32272D01*
X11496Y-32234D01*
X11457Y-32157D01*
X11419Y-32005D01*
X11419Y-31815D01*
X11457Y-31662D01*
X11496Y-31586D01*
X11534Y-31548D01*
X11610Y-31510D01*
X12181Y-31586D02*
X12219Y-31548D01*
X12296Y-31510D01*
X12486Y-31510D01*
X12562Y-31548D01*
X12600Y-31586D01*
X12639Y-31662D01*
X12639Y-31738D01*
X12600Y-31853D01*
X12143Y-32310D01*
X12639Y-32310D01*
X13362Y-31510D02*
X12981Y-31510D01*
X12943Y-31891D01*
X12981Y-31853D01*
X13058Y-31815D01*
X13248Y-31815D01*
X13324Y-31853D01*
X13362Y-31891D01*
X13401Y-31967D01*
X13401Y-32157D01*
X13362Y-32234D01*
X13324Y-32272D01*
X13248Y-32310D01*
X13058Y-32310D01*
X12981Y-32272D01*
X12943Y-32234D01*
X13705Y-31510D02*
X13705Y-31662D01*
X14010Y-31510D02*
X14010Y-31662D01*
X15535Y-31472D02*
X14849Y-32500D01*
X16564Y-31510D02*
X16640Y-31510D01*
X16716Y-31548D01*
X16754Y-31586D01*
X16792Y-31662D01*
X16831Y-31815D01*
X16831Y-32005D01*
X16792Y-32157D01*
X16754Y-32234D01*
X16716Y-32272D01*
X16640Y-32310D01*
X16564Y-32310D01*
X16488Y-32272D01*
X16450Y-32234D01*
X16411Y-32157D01*
X16373Y-32005D01*
X16373Y-31815D01*
X16411Y-31662D01*
X16450Y-31586D01*
X16488Y-31548D01*
X16564Y-31510D01*
X17173Y-32234D02*
X17212Y-32272D01*
X17173Y-32310D01*
X17135Y-32272D01*
X17173Y-32234D01*
X17173Y-32310D01*
X17897Y-31510D02*
X17745Y-31510D01*
X17669Y-31548D01*
X17631Y-31586D01*
X17554Y-31700D01*
X17516Y-31853D01*
X17516Y-32157D01*
X17554Y-32234D01*
X17593Y-32272D01*
X17669Y-32310D01*
X17821Y-32310D01*
X17897Y-32272D01*
X17935Y-32234D01*
X17974Y-32157D01*
X17974Y-31967D01*
X17935Y-31891D01*
X17897Y-31853D01*
X17821Y-31815D01*
X17669Y-31815D01*
X17593Y-31853D01*
X17554Y-31891D01*
X17516Y-31967D01*
X18659Y-31776D02*
X18659Y-32310D01*
X18469Y-31472D02*
X18278Y-32043D01*
X18774Y-32043D01*
X19078Y-32310D02*
X19078Y-31776D01*
X19078Y-31853D02*
X19117Y-31815D01*
X19193Y-31776D01*
X19307Y-31776D01*
X19383Y-31815D01*
X19421Y-31891D01*
X19421Y-32310D01*
X19421Y-31891D02*
X19459Y-31815D01*
X19536Y-31776D01*
X19650Y-31776D01*
X19726Y-31815D01*
X19764Y-31891D01*
X19764Y-32310D01*
X20145Y-32310D02*
X20145Y-31776D01*
X20145Y-31853D02*
X20184Y-31815D01*
X20260Y-31776D01*
X20374Y-31776D01*
X20450Y-31815D01*
X20488Y-31891D01*
X20488Y-32310D01*
X20488Y-31891D02*
X20526Y-31815D01*
X20603Y-31776D01*
X20717Y-31776D01*
X20793Y-31815D01*
X20831Y-31891D01*
X20831Y-32310D01*
X22051Y-32615D02*
X22013Y-32576D01*
X21937Y-32462D01*
X21899Y-32386D01*
X21861Y-32272D01*
X21822Y-32081D01*
X21822Y-31929D01*
X21861Y-31738D01*
X21899Y-31624D01*
X21937Y-31548D01*
X22013Y-31434D01*
X22051Y-31396D01*
X22394Y-32310D02*
X22546Y-32310D01*
X22622Y-32272D01*
X22660Y-32234D01*
X22736Y-32119D01*
X22775Y-31967D01*
X22775Y-31662D01*
X22736Y-31586D01*
X22698Y-31548D01*
X22622Y-31510D01*
X22470Y-31510D01*
X22394Y-31548D01*
X22355Y-31586D01*
X22317Y-31662D01*
X22317Y-31853D01*
X22355Y-31929D01*
X22394Y-31967D01*
X22470Y-32005D01*
X22622Y-32005D01*
X22698Y-31967D01*
X22736Y-31929D01*
X22775Y-31853D01*
X23727Y-32310D02*
X23727Y-31510D01*
X24070Y-32310D02*
X24070Y-31891D01*
X24032Y-31815D01*
X23956Y-31776D01*
X23842Y-31776D01*
X23766Y-31815D01*
X23727Y-31853D01*
X24566Y-32310D02*
X24490Y-32272D01*
X24451Y-32234D01*
X24413Y-32157D01*
X24413Y-31929D01*
X24451Y-31853D01*
X24490Y-31815D01*
X24566Y-31776D01*
X24680Y-31776D01*
X24756Y-31815D01*
X24794Y-31853D01*
X24832Y-31929D01*
X24832Y-32157D01*
X24794Y-32234D01*
X24756Y-32272D01*
X24680Y-32310D01*
X24566Y-32310D01*
X25290Y-32310D02*
X25214Y-32272D01*
X25175Y-32196D01*
X25175Y-31510D01*
X25899Y-32272D02*
X25823Y-32310D01*
X25671Y-32310D01*
X25594Y-32272D01*
X25556Y-32196D01*
X25556Y-31891D01*
X25594Y-31815D01*
X25671Y-31776D01*
X25823Y-31776D01*
X25899Y-31815D01*
X25937Y-31891D01*
X25937Y-31967D01*
X25556Y-32043D01*
X26242Y-32272D02*
X26319Y-32310D01*
X26471Y-32310D01*
X26547Y-32272D01*
X26585Y-32196D01*
X26585Y-32157D01*
X26547Y-32081D01*
X26471Y-32043D01*
X26357Y-32043D01*
X26280Y-32005D01*
X26242Y-31929D01*
X26242Y-31891D01*
X26280Y-31815D01*
X26357Y-31776D01*
X26471Y-31776D01*
X26547Y-31815D01*
X26852Y-32615D02*
X26890Y-32576D01*
X26967Y-32462D01*
X27005Y-32386D01*
X27043Y-32272D01*
X27081Y-32081D01*
X27081Y-31929D01*
X27043Y-31738D01*
X27005Y-31624D01*
X26967Y-31548D01*
X26890Y-31434D01*
X26852Y-31396D01*
G54D10*
X09924Y-33041D02*
X09920Y-33072D01*
X09911Y-33101D01*
X09897Y-33129D01*
X09877Y-33153D01*
X09853Y-33173D01*
X09826Y-33188D01*
X09796Y-33197D01*
X09765Y-33200D01*
X09735Y-33198D01*
X09705Y-33189D01*
X09677Y-33174D01*
X09653Y-33155D01*
X09632Y-33131D01*
X09617Y-33104D01*
X09608Y-33074D01*
X09605Y-33043D01*
X09607Y-33013D01*
X09616Y-32983D01*
X09630Y-32955D01*
X09649Y-32930D01*
X09673Y-32910D01*
X09700Y-32895D01*
X09730Y-32885D01*
X09761Y-32882D01*
X09791Y-32884D01*
X09821Y-32892D01*
X09849Y-32906D01*
X09874Y-32926D01*
X09894Y-32949D01*
X09910Y-32976D01*
X09920Y-33006D01*
X09923Y-33037D01*
X09924Y-33041D01*
G54D12*
X10467Y-32565D02*
X10543Y-32565D01*
X10619Y-32603D01*
X10657Y-32641D01*
X10695Y-32717D01*
X10734Y-32870D01*
X10734Y-33060D01*
X10695Y-33212D01*
X10657Y-33289D01*
X10619Y-33327D01*
X10543Y-33365D01*
X10467Y-33365D01*
X10391Y-33327D01*
X10353Y-33289D01*
X10314Y-33212D01*
X10276Y-33060D01*
X10276Y-32870D01*
X10314Y-32717D01*
X10353Y-32641D01*
X10391Y-32603D01*
X10467Y-32565D01*
X11076Y-33289D02*
X11115Y-33327D01*
X11076Y-33365D01*
X11038Y-33327D01*
X11076Y-33289D01*
X11076Y-33365D01*
X11610Y-32565D02*
X11686Y-32565D01*
X11762Y-32603D01*
X11800Y-32641D01*
X11838Y-32717D01*
X11877Y-32870D01*
X11877Y-33060D01*
X11838Y-33212D01*
X11800Y-33289D01*
X11762Y-33327D01*
X11686Y-33365D01*
X11610Y-33365D01*
X11534Y-33327D01*
X11496Y-33289D01*
X11457Y-33212D01*
X11419Y-33060D01*
X11419Y-32870D01*
X11457Y-32717D01*
X11496Y-32641D01*
X11534Y-32603D01*
X11610Y-32565D01*
X12143Y-32565D02*
X12639Y-32565D01*
X12372Y-32870D01*
X12486Y-32870D01*
X12562Y-32908D01*
X12600Y-32946D01*
X12639Y-33022D01*
X12639Y-33212D01*
X12600Y-33289D01*
X12562Y-33327D01*
X12486Y-33365D01*
X12258Y-33365D01*
X12181Y-33327D01*
X12143Y-33289D01*
X12943Y-32641D02*
X12981Y-32603D01*
X13058Y-32565D01*
X13248Y-32565D01*
X13324Y-32603D01*
X13362Y-32641D01*
X13401Y-32717D01*
X13401Y-32793D01*
X13362Y-32908D01*
X12905Y-33365D01*
X13401Y-33365D01*
X13705Y-32565D02*
X13705Y-32717D01*
X14010Y-32565D02*
X14010Y-32717D01*
X15535Y-32527D02*
X14849Y-33555D01*
X16564Y-32565D02*
X16640Y-32565D01*
X16716Y-32603D01*
X16754Y-32641D01*
X16792Y-32717D01*
X16831Y-32870D01*
X16831Y-33060D01*
X16792Y-33212D01*
X16754Y-33289D01*
X16716Y-33327D01*
X16640Y-33365D01*
X16564Y-33365D01*
X16488Y-33327D01*
X16450Y-33289D01*
X16411Y-33212D01*
X16373Y-33060D01*
X16373Y-32870D01*
X16411Y-32717D01*
X16450Y-32641D01*
X16488Y-32603D01*
X16564Y-32565D01*
X17173Y-33289D02*
X17212Y-33327D01*
X17173Y-33365D01*
X17135Y-33327D01*
X17173Y-33289D01*
X17173Y-33365D01*
X17669Y-32908D02*
X17593Y-32870D01*
X17554Y-32831D01*
X17516Y-32755D01*
X17516Y-32717D01*
X17554Y-32641D01*
X17593Y-32603D01*
X17669Y-32565D01*
X17821Y-32565D01*
X17897Y-32603D01*
X17935Y-32641D01*
X17974Y-32717D01*
X17974Y-32755D01*
X17935Y-32831D01*
X17897Y-32870D01*
X17821Y-32908D01*
X17669Y-32908D01*
X17593Y-32946D01*
X17554Y-32984D01*
X17516Y-33060D01*
X17516Y-33212D01*
X17554Y-33289D01*
X17593Y-33327D01*
X17669Y-33365D01*
X17821Y-33365D01*
X17897Y-33327D01*
X17935Y-33289D01*
X17974Y-33212D01*
X17974Y-33060D01*
X17935Y-32984D01*
X17897Y-32946D01*
X17821Y-32908D01*
X18736Y-33365D02*
X18278Y-33365D01*
X18507Y-33365D02*
X18507Y-32565D01*
X18431Y-32679D01*
X18355Y-32755D01*
X18278Y-32793D01*
X19078Y-33365D02*
X19078Y-32831D01*
X19078Y-32908D02*
X19117Y-32870D01*
X19193Y-32831D01*
X19307Y-32831D01*
X19383Y-32870D01*
X19421Y-32946D01*
X19421Y-33365D01*
X19421Y-32946D02*
X19459Y-32870D01*
X19536Y-32831D01*
X19650Y-32831D01*
X19726Y-32870D01*
X19764Y-32946D01*
X19764Y-33365D01*
X20145Y-33365D02*
X20145Y-32831D01*
X20145Y-32908D02*
X20184Y-32870D01*
X20260Y-32831D01*
X20374Y-32831D01*
X20450Y-32870D01*
X20488Y-32946D01*
X20488Y-33365D01*
X20488Y-32946D02*
X20526Y-32870D01*
X20603Y-32831D01*
X20717Y-32831D01*
X20793Y-32870D01*
X20831Y-32946D01*
X20831Y-33365D01*
X22051Y-33670D02*
X22013Y-33631D01*
X21937Y-33517D01*
X21899Y-33441D01*
X21861Y-33327D01*
X21822Y-33136D01*
X21822Y-32984D01*
X21861Y-32793D01*
X21899Y-32679D01*
X21937Y-32603D01*
X22013Y-32489D01*
X22051Y-32451D01*
X22698Y-32565D02*
X22546Y-32565D01*
X22470Y-32603D01*
X22432Y-32641D01*
X22355Y-32755D01*
X22317Y-32908D01*
X22317Y-33212D01*
X22355Y-33289D01*
X22394Y-33327D01*
X22470Y-33365D01*
X22622Y-33365D01*
X22698Y-33327D01*
X22736Y-33289D01*
X22775Y-33212D01*
X22775Y-33022D01*
X22736Y-32946D01*
X22698Y-32908D01*
X22622Y-32870D01*
X22470Y-32870D01*
X22394Y-32908D01*
X22355Y-32946D01*
X22317Y-33022D01*
X23727Y-33365D02*
X23727Y-32565D01*
X24070Y-33365D02*
X24070Y-32946D01*
X24032Y-32870D01*
X23956Y-32831D01*
X23842Y-32831D01*
X23766Y-32870D01*
X23727Y-32908D01*
X24566Y-33365D02*
X24490Y-33327D01*
X24451Y-33289D01*
X24413Y-33212D01*
X24413Y-32984D01*
X24451Y-32908D01*
X24490Y-32870D01*
X24566Y-32831D01*
X24680Y-32831D01*
X24756Y-32870D01*
X24794Y-32908D01*
X24832Y-32984D01*
X24832Y-33212D01*
X24794Y-33289D01*
X24756Y-33327D01*
X24680Y-33365D01*
X24566Y-33365D01*
X25290Y-33365D02*
X25214Y-33327D01*
X25175Y-33251D01*
X25175Y-32565D01*
X25899Y-33327D02*
X25823Y-33365D01*
X25671Y-33365D01*
X25594Y-33327D01*
X25556Y-33251D01*
X25556Y-32946D01*
X25594Y-32870D01*
X25671Y-32831D01*
X25823Y-32831D01*
X25899Y-32870D01*
X25937Y-32946D01*
X25937Y-33022D01*
X25556Y-33098D01*
X26242Y-33327D02*
X26319Y-33365D01*
X26471Y-33365D01*
X26547Y-33327D01*
X26585Y-33251D01*
X26585Y-33212D01*
X26547Y-33136D01*
X26471Y-33098D01*
X26357Y-33098D01*
X26280Y-33060D01*
X26242Y-32984D01*
X26242Y-32946D01*
X26280Y-32870D01*
X26357Y-32831D01*
X26471Y-32831D01*
X26547Y-32870D01*
X26852Y-33670D02*
X26890Y-33631D01*
X26967Y-33517D01*
X27005Y-33441D01*
X27043Y-33327D01*
X27081Y-33136D01*
X27081Y-32984D01*
X27043Y-32793D01*
X27005Y-32679D01*
X26967Y-32603D01*
X26890Y-32489D01*
X26852Y-32451D01*
X09749Y-33921D02*
X09749Y-34271D01*
X09924Y-34096D02*
X09574Y-34096D01*
X10467Y-33620D02*
X10543Y-33620D01*
X10619Y-33658D01*
X10657Y-33696D01*
X10695Y-33772D01*
X10734Y-33925D01*
X10734Y-34115D01*
X10695Y-34267D01*
X10657Y-34344D01*
X10619Y-34382D01*
X10543Y-34420D01*
X10467Y-34420D01*
X10391Y-34382D01*
X10353Y-34344D01*
X10314Y-34267D01*
X10276Y-34115D01*
X10276Y-33925D01*
X10314Y-33772D01*
X10353Y-33696D01*
X10391Y-33658D01*
X10467Y-33620D01*
X11076Y-34344D02*
X11115Y-34382D01*
X11076Y-34420D01*
X11038Y-34382D01*
X11076Y-34344D01*
X11076Y-34420D01*
X11610Y-33620D02*
X11686Y-33620D01*
X11762Y-33658D01*
X11800Y-33696D01*
X11838Y-33772D01*
X11877Y-33925D01*
X11877Y-34115D01*
X11838Y-34267D01*
X11800Y-34344D01*
X11762Y-34382D01*
X11686Y-34420D01*
X11610Y-34420D01*
X11534Y-34382D01*
X11496Y-34344D01*
X11457Y-34267D01*
X11419Y-34115D01*
X11419Y-33925D01*
X11457Y-33772D01*
X11496Y-33696D01*
X11534Y-33658D01*
X11610Y-33620D01*
X12143Y-33620D02*
X12639Y-33620D01*
X12372Y-33925D01*
X12486Y-33925D01*
X12562Y-33963D01*
X12600Y-34001D01*
X12639Y-34077D01*
X12639Y-34267D01*
X12600Y-34344D01*
X12562Y-34382D01*
X12486Y-34420D01*
X12258Y-34420D01*
X12181Y-34382D01*
X12143Y-34344D01*
X13362Y-33620D02*
X12981Y-33620D01*
X12943Y-34001D01*
X12981Y-33963D01*
X13058Y-33925D01*
X13248Y-33925D01*
X13324Y-33963D01*
X13362Y-34001D01*
X13401Y-34077D01*
X13401Y-34267D01*
X13362Y-34344D01*
X13324Y-34382D01*
X13248Y-34420D01*
X13058Y-34420D01*
X12981Y-34382D01*
X12943Y-34344D01*
X13705Y-33620D02*
X13705Y-33772D01*
X14010Y-33620D02*
X14010Y-33772D01*
X15535Y-33582D02*
X14849Y-34610D01*
X16564Y-33620D02*
X16640Y-33620D01*
X16716Y-33658D01*
X16754Y-33696D01*
X16792Y-33772D01*
X16831Y-33925D01*
X16831Y-34115D01*
X16792Y-34267D01*
X16754Y-34344D01*
X16716Y-34382D01*
X16640Y-34420D01*
X16564Y-34420D01*
X16488Y-34382D01*
X16450Y-34344D01*
X16411Y-34267D01*
X16373Y-34115D01*
X16373Y-33925D01*
X16411Y-33772D01*
X16450Y-33696D01*
X16488Y-33658D01*
X16564Y-33620D01*
X17173Y-34344D02*
X17212Y-34382D01*
X17173Y-34420D01*
X17135Y-34382D01*
X17173Y-34344D01*
X17173Y-34420D01*
X17669Y-33963D02*
X17593Y-33925D01*
X17554Y-33886D01*
X17516Y-33810D01*
X17516Y-33772D01*
X17554Y-33696D01*
X17593Y-33658D01*
X17669Y-33620D01*
X17821Y-33620D01*
X17897Y-33658D01*
X17935Y-33696D01*
X17974Y-33772D01*
X17974Y-33810D01*
X17935Y-33886D01*
X17897Y-33925D01*
X17821Y-33963D01*
X17669Y-33963D01*
X17593Y-34001D01*
X17554Y-34039D01*
X17516Y-34115D01*
X17516Y-34267D01*
X17554Y-34344D01*
X17593Y-34382D01*
X17669Y-34420D01*
X17821Y-34420D01*
X17897Y-34382D01*
X17935Y-34344D01*
X17974Y-34267D01*
X17974Y-34115D01*
X17935Y-34039D01*
X17897Y-34001D01*
X17821Y-33963D01*
X18355Y-34420D02*
X18507Y-34420D01*
X18583Y-34382D01*
X18621Y-34344D01*
X18697Y-34229D01*
X18736Y-34077D01*
X18736Y-33772D01*
X18697Y-33696D01*
X18659Y-33658D01*
X18583Y-33620D01*
X18431Y-33620D01*
X18355Y-33658D01*
X18316Y-33696D01*
X18278Y-33772D01*
X18278Y-33963D01*
X18316Y-34039D01*
X18355Y-34077D01*
X18431Y-34115D01*
X18583Y-34115D01*
X18659Y-34077D01*
X18697Y-34039D01*
X18736Y-33963D01*
X19078Y-34420D02*
X19078Y-33886D01*
X19078Y-33963D02*
X19117Y-33925D01*
X19193Y-33886D01*
X19307Y-33886D01*
X19383Y-33925D01*
X19421Y-34001D01*
X19421Y-34420D01*
X19421Y-34001D02*
X19459Y-33925D01*
X19536Y-33886D01*
X19650Y-33886D01*
X19726Y-33925D01*
X19764Y-34001D01*
X19764Y-34420D01*
X20145Y-34420D02*
X20145Y-33886D01*
X20145Y-33963D02*
X20184Y-33925D01*
X20260Y-33886D01*
X20374Y-33886D01*
X20450Y-33925D01*
X20488Y-34001D01*
X20488Y-34420D01*
X20488Y-34001D02*
X20526Y-33925D01*
X20603Y-33886D01*
X20717Y-33886D01*
X20793Y-33925D01*
X20831Y-34001D01*
X20831Y-34420D01*
X22051Y-34725D02*
X22013Y-34686D01*
X21937Y-34572D01*
X21899Y-34496D01*
X21861Y-34382D01*
X21822Y-34191D01*
X21822Y-34039D01*
X21861Y-33848D01*
X21899Y-33734D01*
X21937Y-33658D01*
X22013Y-33544D01*
X22051Y-33506D01*
X22698Y-33886D02*
X22698Y-34420D01*
X22508Y-33582D02*
X22317Y-34153D01*
X22813Y-34153D01*
X23079Y-33696D02*
X23117Y-33658D01*
X23194Y-33620D01*
X23384Y-33620D01*
X23460Y-33658D01*
X23498Y-33696D01*
X23537Y-33772D01*
X23537Y-33848D01*
X23498Y-33963D01*
X23041Y-34420D01*
X23537Y-34420D01*
X24489Y-34420D02*
X24489Y-33620D01*
X24832Y-34420D02*
X24832Y-34001D01*
X24794Y-33925D01*
X24718Y-33886D01*
X24604Y-33886D01*
X24528Y-33925D01*
X24489Y-33963D01*
X25328Y-34420D02*
X25252Y-34382D01*
X25213Y-34344D01*
X25175Y-34267D01*
X25175Y-34039D01*
X25213Y-33963D01*
X25252Y-33925D01*
X25328Y-33886D01*
X25442Y-33886D01*
X25518Y-33925D01*
X25556Y-33963D01*
X25594Y-34039D01*
X25594Y-34267D01*
X25556Y-34344D01*
X25518Y-34382D01*
X25442Y-34420D01*
X25328Y-34420D01*
X26052Y-34420D02*
X25976Y-34382D01*
X25937Y-34306D01*
X25937Y-33620D01*
X26661Y-34382D02*
X26585Y-34420D01*
X26433Y-34420D01*
X26356Y-34382D01*
X26318Y-34306D01*
X26318Y-34001D01*
X26356Y-33925D01*
X26433Y-33886D01*
X26585Y-33886D01*
X26661Y-33925D01*
X26699Y-34001D01*
X26699Y-34077D01*
X26318Y-34153D01*
X27004Y-34382D02*
X27081Y-34420D01*
X27233Y-34420D01*
X27309Y-34382D01*
X27347Y-34306D01*
X27347Y-34267D01*
X27309Y-34191D01*
X27233Y-34153D01*
X27119Y-34153D01*
X27042Y-34115D01*
X27004Y-34039D01*
X27004Y-34001D01*
X27042Y-33925D01*
X27119Y-33886D01*
X27233Y-33886D01*
X27309Y-33925D01*
X27614Y-34725D02*
X27652Y-34686D01*
X27729Y-34572D01*
X27767Y-34496D01*
X27805Y-34382D01*
X27843Y-34191D01*
X27843Y-34039D01*
X27805Y-33848D01*
X27767Y-33734D01*
X27729Y-33658D01*
X27652Y-33544D01*
X27614Y-33506D01*
G54D10*
X09924Y-35151D02*
X09920Y-35189D01*
X09908Y-35227D01*
X09890Y-35261D01*
X09865Y-35291D01*
X09835Y-35316D01*
X09801Y-35335D01*
X09764Y-35346D01*
X09725Y-35350D01*
X09687Y-35347D01*
X09650Y-35336D01*
X09615Y-35318D01*
X09585Y-35293D01*
X09559Y-35263D01*
X09541Y-35229D01*
X09529Y-35192D01*
X09525Y-35153D01*
X09528Y-35115D01*
X09539Y-35078D01*
X09556Y-35043D01*
X09581Y-35013D01*
X09610Y-34987D01*
X09644Y-34968D01*
X09682Y-34956D01*
X09720Y-34952D01*
X09758Y-34955D01*
X09796Y-34965D01*
X09831Y-34983D01*
X09861Y-35007D01*
X09887Y-35036D01*
X09906Y-35070D01*
X09919Y-35107D01*
X09923Y-35146D01*
X09924Y-35151D01*
X09524Y-34951D02*
X09924Y-35351D01*
X09924Y-34951D02*
X09524Y-35351D01*
G54D12*
X10467Y-34675D02*
X10543Y-34675D01*
X10619Y-34713D01*
X10657Y-34751D01*
X10695Y-34827D01*
X10734Y-34980D01*
X10734Y-35170D01*
X10695Y-35322D01*
X10657Y-35399D01*
X10619Y-35437D01*
X10543Y-35475D01*
X10467Y-35475D01*
X10391Y-35437D01*
X10353Y-35399D01*
X10314Y-35322D01*
X10276Y-35170D01*
X10276Y-34980D01*
X10314Y-34827D01*
X10353Y-34751D01*
X10391Y-34713D01*
X10467Y-34675D01*
X11076Y-35399D02*
X11115Y-35437D01*
X11076Y-35475D01*
X11038Y-35437D01*
X11076Y-35399D01*
X11076Y-35475D01*
X11610Y-34675D02*
X11686Y-34675D01*
X11762Y-34713D01*
X11800Y-34751D01*
X11838Y-34827D01*
X11877Y-34980D01*
X11877Y-35170D01*
X11838Y-35322D01*
X11800Y-35399D01*
X11762Y-35437D01*
X11686Y-35475D01*
X11610Y-35475D01*
X11534Y-35437D01*
X11496Y-35399D01*
X11457Y-35322D01*
X11419Y-35170D01*
X11419Y-34980D01*
X11457Y-34827D01*
X11496Y-34751D01*
X11534Y-34713D01*
X11610Y-34675D01*
X12562Y-34941D02*
X12562Y-35475D01*
X12372Y-34637D02*
X12181Y-35208D01*
X12677Y-35208D01*
X13134Y-34675D02*
X13210Y-34675D01*
X13286Y-34713D01*
X13324Y-34751D01*
X13362Y-34827D01*
X13401Y-34980D01*
X13401Y-35170D01*
X13362Y-35322D01*
X13324Y-35399D01*
X13286Y-35437D01*
X13210Y-35475D01*
X13134Y-35475D01*
X13058Y-35437D01*
X13020Y-35399D01*
X12981Y-35322D01*
X12943Y-35170D01*
X12943Y-34980D01*
X12981Y-34827D01*
X13020Y-34751D01*
X13058Y-34713D01*
X13134Y-34675D01*
X13705Y-34675D02*
X13705Y-34827D01*
X14010Y-34675D02*
X14010Y-34827D01*
X15535Y-34637D02*
X14849Y-35665D01*
X16831Y-35475D02*
X16373Y-35475D01*
X16602Y-35475D02*
X16602Y-34675D01*
X16526Y-34789D01*
X16450Y-34865D01*
X16373Y-34903D01*
X17173Y-35399D02*
X17212Y-35437D01*
X17173Y-35475D01*
X17135Y-35437D01*
X17173Y-35399D01*
X17173Y-35475D01*
X17707Y-34675D02*
X17783Y-34675D01*
X17859Y-34713D01*
X17897Y-34751D01*
X17935Y-34827D01*
X17974Y-34980D01*
X17974Y-35170D01*
X17935Y-35322D01*
X17897Y-35399D01*
X17859Y-35437D01*
X17783Y-35475D01*
X17707Y-35475D01*
X17631Y-35437D01*
X17593Y-35399D01*
X17554Y-35322D01*
X17516Y-35170D01*
X17516Y-34980D01*
X17554Y-34827D01*
X17593Y-34751D01*
X17631Y-34713D01*
X17707Y-34675D01*
X18278Y-34751D02*
X18316Y-34713D01*
X18393Y-34675D01*
X18583Y-34675D01*
X18659Y-34713D01*
X18697Y-34751D01*
X18736Y-34827D01*
X18736Y-34903D01*
X18697Y-35018D01*
X18240Y-35475D01*
X18736Y-35475D01*
X19078Y-35475D02*
X19078Y-34941D01*
X19078Y-35018D02*
X19117Y-34980D01*
X19193Y-34941D01*
X19307Y-34941D01*
X19383Y-34980D01*
X19421Y-35056D01*
X19421Y-35475D01*
X19421Y-35056D02*
X19459Y-34980D01*
X19536Y-34941D01*
X19650Y-34941D01*
X19726Y-34980D01*
X19764Y-35056D01*
X19764Y-35475D01*
X20145Y-35475D02*
X20145Y-34941D01*
X20145Y-35018D02*
X20184Y-34980D01*
X20260Y-34941D01*
X20374Y-34941D01*
X20450Y-34980D01*
X20488Y-35056D01*
X20488Y-35475D01*
X20488Y-35056D02*
X20526Y-34980D01*
X20603Y-34941D01*
X20717Y-34941D01*
X20793Y-34980D01*
X20831Y-35056D01*
X20831Y-35475D01*
X22051Y-35780D02*
X22013Y-35741D01*
X21937Y-35627D01*
X21899Y-35551D01*
X21861Y-35437D01*
X21822Y-35246D01*
X21822Y-35094D01*
X21861Y-34903D01*
X21899Y-34789D01*
X21937Y-34713D01*
X22013Y-34599D01*
X22051Y-34561D01*
X22775Y-35475D02*
X22317Y-35475D01*
X22546Y-35475D02*
X22546Y-34675D01*
X22470Y-34789D01*
X22394Y-34865D01*
X22317Y-34903D01*
X23460Y-34941D02*
X23460Y-35475D01*
X23270Y-34637D02*
X23079Y-35208D01*
X23575Y-35208D01*
X24032Y-34675D02*
X24108Y-34675D01*
X24184Y-34713D01*
X24222Y-34751D01*
X24260Y-34827D01*
X24299Y-34980D01*
X24299Y-35170D01*
X24260Y-35322D01*
X24222Y-35399D01*
X24184Y-35437D01*
X24108Y-35475D01*
X24032Y-35475D01*
X23956Y-35437D01*
X23918Y-35399D01*
X23879Y-35322D01*
X23841Y-35170D01*
X23841Y-34980D01*
X23879Y-34827D01*
X23918Y-34751D01*
X23956Y-34713D01*
X24032Y-34675D01*
X25251Y-35475D02*
X25251Y-34675D01*
X25594Y-35475D02*
X25594Y-35056D01*
X25556Y-34980D01*
X25480Y-34941D01*
X25366Y-34941D01*
X25290Y-34980D01*
X25251Y-35018D01*
X26090Y-35475D02*
X26014Y-35437D01*
X25975Y-35399D01*
X25937Y-35322D01*
X25937Y-35094D01*
X25975Y-35018D01*
X26014Y-34980D01*
X26090Y-34941D01*
X26204Y-34941D01*
X26280Y-34980D01*
X26318Y-35018D01*
X26356Y-35094D01*
X26356Y-35322D01*
X26318Y-35399D01*
X26280Y-35437D01*
X26204Y-35475D01*
X26090Y-35475D01*
X26814Y-35475D02*
X26738Y-35437D01*
X26699Y-35361D01*
X26699Y-34675D01*
X27423Y-35437D02*
X27347Y-35475D01*
X27195Y-35475D01*
X27118Y-35437D01*
X27080Y-35361D01*
X27080Y-35056D01*
X27118Y-34980D01*
X27195Y-34941D01*
X27347Y-34941D01*
X27423Y-34980D01*
X27461Y-35056D01*
X27461Y-35132D01*
X27080Y-35208D01*
X27766Y-35437D02*
X27843Y-35475D01*
X27995Y-35475D01*
X28071Y-35437D01*
X28109Y-35361D01*
X28109Y-35322D01*
X28071Y-35246D01*
X27995Y-35208D01*
X27881Y-35208D01*
X27804Y-35170D01*
X27766Y-35094D01*
X27766Y-35056D01*
X27804Y-34980D01*
X27881Y-34941D01*
X27995Y-34941D01*
X28071Y-34980D01*
X28376Y-35780D02*
X28414Y-35741D01*
X28491Y-35627D01*
X28529Y-35551D01*
X28567Y-35437D01*
X28605Y-35246D01*
X28605Y-35094D01*
X28567Y-34903D01*
X28529Y-34789D01*
X28491Y-34713D01*
X28414Y-34599D01*
X28376Y-34561D01*
G54D10*
X09924Y-36206D02*
X09919Y-36254D01*
X09905Y-36301D01*
X09882Y-36344D01*
X09851Y-36382D01*
X09813Y-36413D01*
X09770Y-36436D01*
X09724Y-36450D01*
X09675Y-36455D01*
X09628Y-36451D01*
X09581Y-36437D01*
X09538Y-36415D01*
X09500Y-36384D01*
X09468Y-36347D01*
X09445Y-36304D01*
X09430Y-36257D01*
X09425Y-36209D01*
X09429Y-36161D01*
X09442Y-36114D01*
X09464Y-36071D01*
X09495Y-36033D01*
X09532Y-36001D01*
X09574Y-35977D01*
X09621Y-35962D01*
X09669Y-35957D01*
X09717Y-35960D01*
X09764Y-35973D01*
X09807Y-35995D01*
X09846Y-36025D01*
X09878Y-36062D01*
X09902Y-36105D01*
X09917Y-36151D01*
X09923Y-36200D01*
X09924Y-36206D01*
X09424Y-36206D02*
X09924Y-36206D01*
G54D12*
X10467Y-35730D02*
X10543Y-35730D01*
X10619Y-35768D01*
X10657Y-35806D01*
X10695Y-35882D01*
X10734Y-36035D01*
X10734Y-36225D01*
X10695Y-36377D01*
X10657Y-36454D01*
X10619Y-36492D01*
X10543Y-36530D01*
X10467Y-36530D01*
X10391Y-36492D01*
X10353Y-36454D01*
X10314Y-36377D01*
X10276Y-36225D01*
X10276Y-36035D01*
X10314Y-35882D01*
X10353Y-35806D01*
X10391Y-35768D01*
X10467Y-35730D01*
X11076Y-36454D02*
X11115Y-36492D01*
X11076Y-36530D01*
X11038Y-36492D01*
X11076Y-36454D01*
X11076Y-36530D01*
X11610Y-35730D02*
X11686Y-35730D01*
X11762Y-35768D01*
X11800Y-35806D01*
X11838Y-35882D01*
X11877Y-36035D01*
X11877Y-36225D01*
X11838Y-36377D01*
X11800Y-36454D01*
X11762Y-36492D01*
X11686Y-36530D01*
X11610Y-36530D01*
X11534Y-36492D01*
X11496Y-36454D01*
X11457Y-36377D01*
X11419Y-36225D01*
X11419Y-36035D01*
X11457Y-35882D01*
X11496Y-35806D01*
X11534Y-35768D01*
X11610Y-35730D01*
X12600Y-35730D02*
X12219Y-35730D01*
X12181Y-36111D01*
X12219Y-36073D01*
X12296Y-36035D01*
X12486Y-36035D01*
X12562Y-36073D01*
X12600Y-36111D01*
X12639Y-36187D01*
X12639Y-36377D01*
X12600Y-36454D01*
X12562Y-36492D01*
X12486Y-36530D01*
X12296Y-36530D01*
X12219Y-36492D01*
X12181Y-36454D01*
X13134Y-35730D02*
X13210Y-35730D01*
X13286Y-35768D01*
X13324Y-35806D01*
X13362Y-35882D01*
X13401Y-36035D01*
X13401Y-36225D01*
X13362Y-36377D01*
X13324Y-36454D01*
X13286Y-36492D01*
X13210Y-36530D01*
X13134Y-36530D01*
X13058Y-36492D01*
X13020Y-36454D01*
X12981Y-36377D01*
X12943Y-36225D01*
X12943Y-36035D01*
X12981Y-35882D01*
X13020Y-35806D01*
X13058Y-35768D01*
X13134Y-35730D01*
X13705Y-35730D02*
X13705Y-35882D01*
X14010Y-35730D02*
X14010Y-35882D01*
X15535Y-35692D02*
X14849Y-36720D01*
X16831Y-36530D02*
X16373Y-36530D01*
X16602Y-36530D02*
X16602Y-35730D01*
X16526Y-35844D01*
X16450Y-35920D01*
X16373Y-35958D01*
X17173Y-36454D02*
X17212Y-36492D01*
X17173Y-36530D01*
X17135Y-36492D01*
X17173Y-36454D01*
X17173Y-36530D01*
X17516Y-35806D02*
X17554Y-35768D01*
X17631Y-35730D01*
X17821Y-35730D01*
X17897Y-35768D01*
X17935Y-35806D01*
X17974Y-35882D01*
X17974Y-35958D01*
X17935Y-36073D01*
X17478Y-36530D01*
X17974Y-36530D01*
X18240Y-35730D02*
X18774Y-35730D01*
X18431Y-36530D01*
X19078Y-36530D02*
X19078Y-35996D01*
X19078Y-36073D02*
X19117Y-36035D01*
X19193Y-35996D01*
X19307Y-35996D01*
X19383Y-36035D01*
X19421Y-36111D01*
X19421Y-36530D01*
X19421Y-36111D02*
X19459Y-36035D01*
X19536Y-35996D01*
X19650Y-35996D01*
X19726Y-36035D01*
X19764Y-36111D01*
X19764Y-36530D01*
X20145Y-36530D02*
X20145Y-35996D01*
X20145Y-36073D02*
X20184Y-36035D01*
X20260Y-35996D01*
X20374Y-35996D01*
X20450Y-36035D01*
X20488Y-36111D01*
X20488Y-36530D01*
X20488Y-36111D02*
X20526Y-36035D01*
X20603Y-35996D01*
X20717Y-35996D01*
X20793Y-36035D01*
X20831Y-36111D01*
X20831Y-36530D01*
X22051Y-36835D02*
X22013Y-36796D01*
X21937Y-36682D01*
X21899Y-36606D01*
X21861Y-36492D01*
X21822Y-36301D01*
X21822Y-36149D01*
X21861Y-35958D01*
X21899Y-35844D01*
X21937Y-35768D01*
X22013Y-35654D01*
X22051Y-35616D01*
X22317Y-35806D02*
X22355Y-35768D01*
X22432Y-35730D01*
X22622Y-35730D01*
X22698Y-35768D01*
X22736Y-35806D01*
X22775Y-35882D01*
X22775Y-35958D01*
X22736Y-36073D01*
X22279Y-36530D01*
X22775Y-36530D01*
X23727Y-36530D02*
X23727Y-35730D01*
X24070Y-36530D02*
X24070Y-36111D01*
X24032Y-36035D01*
X23956Y-35996D01*
X23842Y-35996D01*
X23766Y-36035D01*
X23727Y-36073D01*
X24566Y-36530D02*
X24490Y-36492D01*
X24451Y-36454D01*
X24413Y-36377D01*
X24413Y-36149D01*
X24451Y-36073D01*
X24490Y-36035D01*
X24566Y-35996D01*
X24680Y-35996D01*
X24756Y-36035D01*
X24794Y-36073D01*
X24832Y-36149D01*
X24832Y-36377D01*
X24794Y-36454D01*
X24756Y-36492D01*
X24680Y-36530D01*
X24566Y-36530D01*
X25290Y-36530D02*
X25214Y-36492D01*
X25175Y-36416D01*
X25175Y-35730D01*
X25899Y-36492D02*
X25823Y-36530D01*
X25671Y-36530D01*
X25594Y-36492D01*
X25556Y-36416D01*
X25556Y-36111D01*
X25594Y-36035D01*
X25671Y-35996D01*
X25823Y-35996D01*
X25899Y-36035D01*
X25937Y-36111D01*
X25937Y-36187D01*
X25556Y-36263D01*
X26242Y-36492D02*
X26319Y-36530D01*
X26471Y-36530D01*
X26547Y-36492D01*
X26585Y-36416D01*
X26585Y-36377D01*
X26547Y-36301D01*
X26471Y-36263D01*
X26357Y-36263D01*
X26280Y-36225D01*
X26242Y-36149D01*
X26242Y-36111D01*
X26280Y-36035D01*
X26357Y-35996D01*
X26471Y-35996D01*
X26547Y-36035D01*
X26852Y-36835D02*
X26890Y-36796D01*
X26967Y-36682D01*
X27005Y-36606D01*
X27043Y-36492D01*
X27081Y-36301D01*
X27081Y-36149D01*
X27043Y-35958D01*
X27005Y-35844D01*
X26967Y-35768D01*
X26890Y-35654D01*
X26852Y-35616D01*
G54D10*
X09924Y-37261D02*
X09918Y-37319D01*
X09901Y-37375D01*
X09873Y-37427D01*
X09836Y-37472D01*
X09791Y-37509D01*
X09740Y-37537D01*
X09684Y-37554D01*
X09626Y-37560D01*
X09568Y-37555D01*
X09512Y-37539D01*
X09460Y-37512D01*
X09415Y-37475D01*
X09377Y-37430D01*
X09349Y-37379D01*
X09331Y-37323D01*
X09325Y-37265D01*
X09329Y-37207D01*
X09346Y-37151D01*
X09372Y-37099D01*
X09409Y-37053D01*
X09453Y-37015D01*
X09504Y-36987D01*
X09560Y-36968D01*
X09618Y-36962D01*
X09676Y-36966D01*
X09732Y-36982D01*
X09784Y-37008D01*
X09830Y-37044D01*
X09869Y-37089D01*
X09898Y-37139D01*
X09916Y-37195D01*
X09923Y-37253D01*
X09924Y-37261D01*
X09624Y-36961D02*
X09624Y-37561D01*
G54D12*
X10467Y-36785D02*
X10543Y-36785D01*
X10619Y-36823D01*
X10657Y-36861D01*
X10695Y-36937D01*
X10734Y-37090D01*
X10734Y-37280D01*
X10695Y-37432D01*
X10657Y-37509D01*
X10619Y-37547D01*
X10543Y-37585D01*
X10467Y-37585D01*
X10391Y-37547D01*
X10353Y-37509D01*
X10314Y-37432D01*
X10276Y-37280D01*
X10276Y-37090D01*
X10314Y-36937D01*
X10353Y-36861D01*
X10391Y-36823D01*
X10467Y-36785D01*
X11076Y-37509D02*
X11115Y-37547D01*
X11076Y-37585D01*
X11038Y-37547D01*
X11076Y-37509D01*
X11076Y-37585D01*
X11610Y-36785D02*
X11686Y-36785D01*
X11762Y-36823D01*
X11800Y-36861D01*
X11838Y-36937D01*
X11877Y-37090D01*
X11877Y-37280D01*
X11838Y-37432D01*
X11800Y-37509D01*
X11762Y-37547D01*
X11686Y-37585D01*
X11610Y-37585D01*
X11534Y-37547D01*
X11496Y-37509D01*
X11457Y-37432D01*
X11419Y-37280D01*
X11419Y-37090D01*
X11457Y-36937D01*
X11496Y-36861D01*
X11534Y-36823D01*
X11610Y-36785D01*
X12562Y-36785D02*
X12410Y-36785D01*
X12334Y-36823D01*
X12296Y-36861D01*
X12219Y-36975D01*
X12181Y-37128D01*
X12181Y-37432D01*
X12219Y-37509D01*
X12258Y-37547D01*
X12334Y-37585D01*
X12486Y-37585D01*
X12562Y-37547D01*
X12600Y-37509D01*
X12639Y-37432D01*
X12639Y-37242D01*
X12600Y-37166D01*
X12562Y-37128D01*
X12486Y-37090D01*
X12334Y-37090D01*
X12258Y-37128D01*
X12219Y-37166D01*
X12181Y-37242D01*
X13134Y-36785D02*
X13210Y-36785D01*
X13286Y-36823D01*
X13324Y-36861D01*
X13362Y-36937D01*
X13401Y-37090D01*
X13401Y-37280D01*
X13362Y-37432D01*
X13324Y-37509D01*
X13286Y-37547D01*
X13210Y-37585D01*
X13134Y-37585D01*
X13058Y-37547D01*
X13020Y-37509D01*
X12981Y-37432D01*
X12943Y-37280D01*
X12943Y-37090D01*
X12981Y-36937D01*
X13020Y-36861D01*
X13058Y-36823D01*
X13134Y-36785D01*
X13705Y-36785D02*
X13705Y-36937D01*
X14010Y-36785D02*
X14010Y-36937D01*
X15535Y-36747D02*
X14849Y-37775D01*
X16831Y-37585D02*
X16373Y-37585D01*
X16602Y-37585D02*
X16602Y-36785D01*
X16526Y-36899D01*
X16450Y-36975D01*
X16373Y-37013D01*
X17173Y-37509D02*
X17212Y-37547D01*
X17173Y-37585D01*
X17135Y-37547D01*
X17173Y-37509D01*
X17173Y-37585D01*
X17935Y-36785D02*
X17554Y-36785D01*
X17516Y-37166D01*
X17554Y-37128D01*
X17631Y-37090D01*
X17821Y-37090D01*
X17897Y-37128D01*
X17935Y-37166D01*
X17974Y-37242D01*
X17974Y-37432D01*
X17935Y-37509D01*
X17897Y-37547D01*
X17821Y-37585D01*
X17631Y-37585D01*
X17554Y-37547D01*
X17516Y-37509D01*
X18278Y-36861D02*
X18316Y-36823D01*
X18393Y-36785D01*
X18583Y-36785D01*
X18659Y-36823D01*
X18697Y-36861D01*
X18736Y-36937D01*
X18736Y-37013D01*
X18697Y-37128D01*
X18240Y-37585D01*
X18736Y-37585D01*
X19078Y-37585D02*
X19078Y-37051D01*
X19078Y-37128D02*
X19117Y-37090D01*
X19193Y-37051D01*
X19307Y-37051D01*
X19383Y-37090D01*
X19421Y-37166D01*
X19421Y-37585D01*
X19421Y-37166D02*
X19459Y-37090D01*
X19536Y-37051D01*
X19650Y-37051D01*
X19726Y-37090D01*
X19764Y-37166D01*
X19764Y-37585D01*
X20145Y-37585D02*
X20145Y-37051D01*
X20145Y-37128D02*
X20184Y-37090D01*
X20260Y-37051D01*
X20374Y-37051D01*
X20450Y-37090D01*
X20488Y-37166D01*
X20488Y-37585D01*
X20488Y-37166D02*
X20526Y-37090D01*
X20603Y-37051D01*
X20717Y-37051D01*
X20793Y-37090D01*
X20831Y-37166D01*
X20831Y-37585D01*
X22051Y-37890D02*
X22013Y-37851D01*
X21937Y-37737D01*
X21899Y-37661D01*
X21861Y-37547D01*
X21822Y-37356D01*
X21822Y-37204D01*
X21861Y-37013D01*
X21899Y-36899D01*
X21937Y-36823D01*
X22013Y-36709D01*
X22051Y-36671D01*
X22736Y-36785D02*
X22355Y-36785D01*
X22317Y-37166D01*
X22355Y-37128D01*
X22432Y-37090D01*
X22622Y-37090D01*
X22698Y-37128D01*
X22736Y-37166D01*
X22775Y-37242D01*
X22775Y-37432D01*
X22736Y-37509D01*
X22698Y-37547D01*
X22622Y-37585D01*
X22432Y-37585D01*
X22355Y-37547D01*
X22317Y-37509D01*
X23727Y-37585D02*
X23727Y-36785D01*
X24070Y-37585D02*
X24070Y-37166D01*
X24032Y-37090D01*
X23956Y-37051D01*
X23842Y-37051D01*
X23766Y-37090D01*
X23727Y-37128D01*
X24566Y-37585D02*
X24490Y-37547D01*
X24451Y-37509D01*
X24413Y-37432D01*
X24413Y-37204D01*
X24451Y-37128D01*
X24490Y-37090D01*
X24566Y-37051D01*
X24680Y-37051D01*
X24756Y-37090D01*
X24794Y-37128D01*
X24832Y-37204D01*
X24832Y-37432D01*
X24794Y-37509D01*
X24756Y-37547D01*
X24680Y-37585D01*
X24566Y-37585D01*
X25290Y-37585D02*
X25214Y-37547D01*
X25175Y-37471D01*
X25175Y-36785D01*
X25899Y-37547D02*
X25823Y-37585D01*
X25671Y-37585D01*
X25594Y-37547D01*
X25556Y-37471D01*
X25556Y-37166D01*
X25594Y-37090D01*
X25671Y-37051D01*
X25823Y-37051D01*
X25899Y-37090D01*
X25937Y-37166D01*
X25937Y-37242D01*
X25556Y-37318D01*
X26242Y-37547D02*
X26319Y-37585D01*
X26471Y-37585D01*
X26547Y-37547D01*
X26585Y-37471D01*
X26585Y-37432D01*
X26547Y-37356D01*
X26471Y-37318D01*
X26357Y-37318D01*
X26280Y-37280D01*
X26242Y-37204D01*
X26242Y-37166D01*
X26280Y-37090D01*
X26357Y-37051D01*
X26471Y-37051D01*
X26547Y-37090D01*
X26852Y-37890D02*
X26890Y-37851D01*
X26967Y-37737D01*
X27005Y-37661D01*
X27043Y-37547D01*
X27081Y-37356D01*
X27081Y-37204D01*
X27043Y-37013D01*
X27005Y-36899D01*
X26967Y-36823D01*
X26890Y-36709D01*
X26852Y-36671D01*
G54D10*
X09748Y-38740D02*
X09748Y-37892D01*
X08900Y-37892D01*
X08900Y-38740D01*
X09748Y-38740D01*
G54D12*
X10467Y-37840D02*
X10543Y-37840D01*
X10619Y-37878D01*
X10657Y-37916D01*
X10695Y-37992D01*
X10734Y-38145D01*
X10734Y-38335D01*
X10695Y-38487D01*
X10657Y-38564D01*
X10619Y-38602D01*
X10543Y-38640D01*
X10467Y-38640D01*
X10391Y-38602D01*
X10353Y-38564D01*
X10314Y-38487D01*
X10276Y-38335D01*
X10276Y-38145D01*
X10314Y-37992D01*
X10353Y-37916D01*
X10391Y-37878D01*
X10467Y-37840D01*
X11076Y-38564D02*
X11115Y-38602D01*
X11076Y-38640D01*
X11038Y-38602D01*
X11076Y-38564D01*
X11076Y-38640D01*
X11877Y-38640D02*
X11419Y-38640D01*
X11648Y-38640D02*
X11648Y-37840D01*
X11572Y-37954D01*
X11496Y-38030D01*
X11419Y-38068D01*
X12181Y-37916D02*
X12219Y-37878D01*
X12296Y-37840D01*
X12486Y-37840D01*
X12562Y-37878D01*
X12600Y-37916D01*
X12639Y-37992D01*
X12639Y-38068D01*
X12600Y-38183D01*
X12143Y-38640D01*
X12639Y-38640D01*
X13134Y-37840D02*
X13210Y-37840D01*
X13286Y-37878D01*
X13324Y-37916D01*
X13362Y-37992D01*
X13401Y-38145D01*
X13401Y-38335D01*
X13362Y-38487D01*
X13324Y-38564D01*
X13286Y-38602D01*
X13210Y-38640D01*
X13134Y-38640D01*
X13058Y-38602D01*
X13020Y-38564D01*
X12981Y-38487D01*
X12943Y-38335D01*
X12943Y-38145D01*
X12981Y-37992D01*
X13020Y-37916D01*
X13058Y-37878D01*
X13134Y-37840D01*
X13705Y-37840D02*
X13705Y-37992D01*
X14010Y-37840D02*
X14010Y-37992D01*
X15535Y-37802D02*
X14849Y-38830D01*
X16335Y-37840D02*
X16831Y-37840D01*
X16564Y-38145D01*
X16678Y-38145D01*
X16754Y-38183D01*
X16792Y-38221D01*
X16831Y-38297D01*
X16831Y-38487D01*
X16792Y-38564D01*
X16754Y-38602D01*
X16678Y-38640D01*
X16450Y-38640D01*
X16373Y-38602D01*
X16335Y-38564D01*
X17173Y-38564D02*
X17212Y-38602D01*
X17173Y-38640D01*
X17135Y-38602D01*
X17173Y-38564D01*
X17173Y-38640D01*
X17707Y-37840D02*
X17783Y-37840D01*
X17859Y-37878D01*
X17897Y-37916D01*
X17935Y-37992D01*
X17974Y-38145D01*
X17974Y-38335D01*
X17935Y-38487D01*
X17897Y-38564D01*
X17859Y-38602D01*
X17783Y-38640D01*
X17707Y-38640D01*
X17631Y-38602D01*
X17593Y-38564D01*
X17554Y-38487D01*
X17516Y-38335D01*
X17516Y-38145D01*
X17554Y-37992D01*
X17593Y-37916D01*
X17631Y-37878D01*
X17707Y-37840D01*
X18697Y-37840D02*
X18316Y-37840D01*
X18278Y-38221D01*
X18316Y-38183D01*
X18393Y-38145D01*
X18583Y-38145D01*
X18659Y-38183D01*
X18697Y-38221D01*
X18736Y-38297D01*
X18736Y-38487D01*
X18697Y-38564D01*
X18659Y-38602D01*
X18583Y-38640D01*
X18393Y-38640D01*
X18316Y-38602D01*
X18278Y-38564D01*
X19078Y-38640D02*
X19078Y-38106D01*
X19078Y-38183D02*
X19117Y-38145D01*
X19193Y-38106D01*
X19307Y-38106D01*
X19383Y-38145D01*
X19421Y-38221D01*
X19421Y-38640D01*
X19421Y-38221D02*
X19459Y-38145D01*
X19536Y-38106D01*
X19650Y-38106D01*
X19726Y-38145D01*
X19764Y-38221D01*
X19764Y-38640D01*
X20145Y-38640D02*
X20145Y-38106D01*
X20145Y-38183D02*
X20184Y-38145D01*
X20260Y-38106D01*
X20374Y-38106D01*
X20450Y-38145D01*
X20488Y-38221D01*
X20488Y-38640D01*
X20488Y-38221D02*
X20526Y-38145D01*
X20603Y-38106D01*
X20717Y-38106D01*
X20793Y-38145D01*
X20831Y-38221D01*
X20831Y-38640D01*
X22051Y-38945D02*
X22013Y-38906D01*
X21937Y-38792D01*
X21899Y-38716D01*
X21861Y-38602D01*
X21822Y-38411D01*
X21822Y-38259D01*
X21861Y-38068D01*
X21899Y-37954D01*
X21937Y-37878D01*
X22013Y-37764D01*
X22051Y-37726D01*
X22698Y-38106D02*
X22698Y-38640D01*
X22508Y-37802D02*
X22317Y-38373D01*
X22813Y-38373D01*
X23727Y-38640D02*
X23727Y-37840D01*
X24070Y-38640D02*
X24070Y-38221D01*
X24032Y-38145D01*
X23956Y-38106D01*
X23842Y-38106D01*
X23766Y-38145D01*
X23727Y-38183D01*
X24566Y-38640D02*
X24490Y-38602D01*
X24451Y-38564D01*
X24413Y-38487D01*
X24413Y-38259D01*
X24451Y-38183D01*
X24490Y-38145D01*
X24566Y-38106D01*
X24680Y-38106D01*
X24756Y-38145D01*
X24794Y-38183D01*
X24832Y-38259D01*
X24832Y-38487D01*
X24794Y-38564D01*
X24756Y-38602D01*
X24680Y-38640D01*
X24566Y-38640D01*
X25290Y-38640D02*
X25214Y-38602D01*
X25175Y-38526D01*
X25175Y-37840D01*
X25899Y-38602D02*
X25823Y-38640D01*
X25671Y-38640D01*
X25594Y-38602D01*
X25556Y-38526D01*
X25556Y-38221D01*
X25594Y-38145D01*
X25671Y-38106D01*
X25823Y-38106D01*
X25899Y-38145D01*
X25937Y-38221D01*
X25937Y-38297D01*
X25556Y-38373D01*
X26242Y-38602D02*
X26319Y-38640D01*
X26471Y-38640D01*
X26547Y-38602D01*
X26585Y-38526D01*
X26585Y-38487D01*
X26547Y-38411D01*
X26471Y-38373D01*
X26357Y-38373D01*
X26280Y-38335D01*
X26242Y-38259D01*
X26242Y-38221D01*
X26280Y-38145D01*
X26357Y-38106D01*
X26471Y-38106D01*
X26547Y-38145D01*
X26852Y-38945D02*
X26890Y-38906D01*
X26967Y-38792D01*
X27005Y-38716D01*
X27043Y-38602D01*
X27081Y-38411D01*
X27081Y-38259D01*
X27043Y-38068D01*
X27005Y-37954D01*
X26967Y-37878D01*
X26890Y-37764D01*
X26852Y-37726D01*
M02*
