G04 (created by PCBNEW (2011-12-28 BZR 3254)-stable) date 6/5/2012 6:37:35 PM*
G01*
G70*
G90*
%MOIN*%
G04 Gerber Fmt 3.4, Leading zero omitted, Abs format*
%FSLAX34Y34*%
G04 APERTURE LIST*
%ADD10C,0.001000*%
%ADD11C,0.015000*%
%ADD12C,0.008000*%
G04 APERTURE END LIST*
G54D10*
G54D11*
X45200Y-08200D02*
X55200Y-08200D01*
X45200Y-28200D02*
X45200Y-08200D01*
X55200Y-28200D02*
X45200Y-28200D01*
X55200Y-08200D02*
X55200Y-28200D01*
X10000Y-24700D02*
X10000Y-10000D01*
X39400Y-24700D02*
X10000Y-24700D01*
X39400Y-10000D02*
X39400Y-24700D01*
X10000Y-10000D02*
X39400Y-10000D01*
G54D10*
X15500Y-18025D02*
X15750Y-18275D01*
X15750Y-18025D02*
X15500Y-18275D01*
X15500Y-18925D02*
X15750Y-19175D01*
X15750Y-18925D02*
X15500Y-19175D01*
X15850Y-14200D02*
X16100Y-14450D01*
X16100Y-14200D02*
X15850Y-14450D01*
X16225Y-20625D02*
X16475Y-20875D01*
X16475Y-20625D02*
X16225Y-20875D01*
X16875Y-14650D02*
X17125Y-14900D01*
X17125Y-14650D02*
X16875Y-14900D01*
X17875Y-15025D02*
X18125Y-15275D01*
X18125Y-15025D02*
X17875Y-15275D01*
X19875Y-18050D02*
X20125Y-18300D01*
X20125Y-18050D02*
X19875Y-18300D01*
X26375Y-18050D02*
X26625Y-18300D01*
X26625Y-18050D02*
X26375Y-18300D01*
X20160Y-15050D02*
X20156Y-15081D01*
X20147Y-15110D01*
X20133Y-15138D01*
X20113Y-15162D01*
X20089Y-15182D01*
X20062Y-15197D01*
X20032Y-15206D01*
X20001Y-15209D01*
X19971Y-15207D01*
X19941Y-15198D01*
X19913Y-15183D01*
X19889Y-15164D01*
X19868Y-15140D01*
X19853Y-15113D01*
X19844Y-15083D01*
X19841Y-15052D01*
X19843Y-15022D01*
X19852Y-14992D01*
X19866Y-14964D01*
X19885Y-14939D01*
X19909Y-14919D01*
X19936Y-14904D01*
X19966Y-14894D01*
X19997Y-14891D01*
X20027Y-14893D01*
X20057Y-14901D01*
X20085Y-14915D01*
X20110Y-14935D01*
X20130Y-14958D01*
X20146Y-14985D01*
X20156Y-15015D01*
X20159Y-15046D01*
X20160Y-15050D01*
X21160Y-15050D02*
X21156Y-15081D01*
X21147Y-15110D01*
X21133Y-15138D01*
X21113Y-15162D01*
X21089Y-15182D01*
X21062Y-15197D01*
X21032Y-15206D01*
X21001Y-15209D01*
X20971Y-15207D01*
X20941Y-15198D01*
X20913Y-15183D01*
X20889Y-15164D01*
X20868Y-15140D01*
X20853Y-15113D01*
X20844Y-15083D01*
X20841Y-15052D01*
X20843Y-15022D01*
X20852Y-14992D01*
X20866Y-14964D01*
X20885Y-14939D01*
X20909Y-14919D01*
X20936Y-14904D01*
X20966Y-14894D01*
X20997Y-14891D01*
X21027Y-14893D01*
X21057Y-14901D01*
X21085Y-14915D01*
X21110Y-14935D01*
X21130Y-14958D01*
X21146Y-14985D01*
X21156Y-15015D01*
X21159Y-15046D01*
X21160Y-15050D01*
X22160Y-15050D02*
X22156Y-15081D01*
X22147Y-15110D01*
X22133Y-15138D01*
X22113Y-15162D01*
X22089Y-15182D01*
X22062Y-15197D01*
X22032Y-15206D01*
X22001Y-15209D01*
X21971Y-15207D01*
X21941Y-15198D01*
X21913Y-15183D01*
X21889Y-15164D01*
X21868Y-15140D01*
X21853Y-15113D01*
X21844Y-15083D01*
X21841Y-15052D01*
X21843Y-15022D01*
X21852Y-14992D01*
X21866Y-14964D01*
X21885Y-14939D01*
X21909Y-14919D01*
X21936Y-14904D01*
X21966Y-14894D01*
X21997Y-14891D01*
X22027Y-14893D01*
X22057Y-14901D01*
X22085Y-14915D01*
X22110Y-14935D01*
X22130Y-14958D01*
X22146Y-14985D01*
X22156Y-15015D01*
X22159Y-15046D01*
X22160Y-15050D01*
X32785Y-17600D02*
X32781Y-17631D01*
X32772Y-17660D01*
X32758Y-17688D01*
X32738Y-17712D01*
X32714Y-17732D01*
X32687Y-17747D01*
X32657Y-17756D01*
X32626Y-17759D01*
X32596Y-17757D01*
X32566Y-17748D01*
X32538Y-17733D01*
X32514Y-17714D01*
X32493Y-17690D01*
X32478Y-17663D01*
X32469Y-17633D01*
X32466Y-17602D01*
X32468Y-17572D01*
X32477Y-17542D01*
X32491Y-17514D01*
X32510Y-17489D01*
X32534Y-17469D01*
X32561Y-17454D01*
X32591Y-17444D01*
X32622Y-17441D01*
X32652Y-17443D01*
X32682Y-17451D01*
X32710Y-17465D01*
X32735Y-17485D01*
X32755Y-17508D01*
X32771Y-17535D01*
X32781Y-17565D01*
X32784Y-17596D01*
X32785Y-17600D01*
X33785Y-17600D02*
X33781Y-17631D01*
X33772Y-17660D01*
X33758Y-17688D01*
X33738Y-17712D01*
X33714Y-17732D01*
X33687Y-17747D01*
X33657Y-17756D01*
X33626Y-17759D01*
X33596Y-17757D01*
X33566Y-17748D01*
X33538Y-17733D01*
X33514Y-17714D01*
X33493Y-17690D01*
X33478Y-17663D01*
X33469Y-17633D01*
X33466Y-17602D01*
X33468Y-17572D01*
X33477Y-17542D01*
X33491Y-17514D01*
X33510Y-17489D01*
X33534Y-17469D01*
X33561Y-17454D01*
X33591Y-17444D01*
X33622Y-17441D01*
X33652Y-17443D01*
X33682Y-17451D01*
X33710Y-17465D01*
X33735Y-17485D01*
X33755Y-17508D01*
X33771Y-17535D01*
X33781Y-17565D01*
X33784Y-17596D01*
X33785Y-17600D01*
X47385Y-11700D02*
X47381Y-11731D01*
X47372Y-11760D01*
X47358Y-11788D01*
X47338Y-11812D01*
X47314Y-11832D01*
X47287Y-11847D01*
X47257Y-11856D01*
X47226Y-11859D01*
X47196Y-11857D01*
X47166Y-11848D01*
X47138Y-11833D01*
X47114Y-11814D01*
X47093Y-11790D01*
X47078Y-11763D01*
X47069Y-11733D01*
X47066Y-11702D01*
X47068Y-11672D01*
X47077Y-11642D01*
X47091Y-11614D01*
X47110Y-11589D01*
X47134Y-11569D01*
X47161Y-11554D01*
X47191Y-11544D01*
X47222Y-11541D01*
X47252Y-11543D01*
X47282Y-11551D01*
X47310Y-11565D01*
X47335Y-11585D01*
X47355Y-11608D01*
X47371Y-11635D01*
X47381Y-11665D01*
X47384Y-11696D01*
X47385Y-11700D01*
X17925Y-11050D02*
X17925Y-11400D01*
X18100Y-11225D02*
X17750Y-11225D01*
X17925Y-12050D02*
X17925Y-12400D01*
X18100Y-12225D02*
X17750Y-12225D01*
X17925Y-13050D02*
X17925Y-13400D01*
X18100Y-13225D02*
X17750Y-13225D01*
X17925Y-14050D02*
X17925Y-14400D01*
X18100Y-14225D02*
X17750Y-14225D01*
X18925Y-11050D02*
X18925Y-11400D01*
X19100Y-11225D02*
X18750Y-11225D01*
X18925Y-12050D02*
X18925Y-12400D01*
X19100Y-12225D02*
X18750Y-12225D01*
X18925Y-13050D02*
X18925Y-13400D01*
X19100Y-13225D02*
X18750Y-13225D01*
X18925Y-14050D02*
X18925Y-14400D01*
X19100Y-14225D02*
X18750Y-14225D01*
X19150Y-22625D02*
X19150Y-22975D01*
X19325Y-22800D02*
X18975Y-22800D01*
X19150Y-23625D02*
X19150Y-23975D01*
X19325Y-23800D02*
X18975Y-23800D01*
X19950Y-13100D02*
X19950Y-13450D01*
X20125Y-13275D02*
X19775Y-13275D01*
X20650Y-20625D02*
X20650Y-20975D01*
X20825Y-20800D02*
X20475Y-20800D01*
X20650Y-23625D02*
X20650Y-23975D01*
X20825Y-23800D02*
X20475Y-23800D01*
X21750Y-20875D02*
X21750Y-21225D01*
X21925Y-21050D02*
X21575Y-21050D01*
X21750Y-22875D02*
X21750Y-23225D01*
X21925Y-23050D02*
X21575Y-23050D01*
X21950Y-13100D02*
X21950Y-13450D01*
X22125Y-13275D02*
X21775Y-13275D01*
X22850Y-20625D02*
X22850Y-20975D01*
X23025Y-20800D02*
X22675Y-20800D01*
X22850Y-23625D02*
X22850Y-23975D01*
X23025Y-23800D02*
X22675Y-23800D01*
X23775Y-20625D02*
X23775Y-20975D01*
X23950Y-20800D02*
X23600Y-20800D01*
X23775Y-23625D02*
X23775Y-23975D01*
X23950Y-23800D02*
X23600Y-23800D01*
X24000Y-12675D02*
X24000Y-13025D01*
X24175Y-12850D02*
X23825Y-12850D01*
X24000Y-15675D02*
X24000Y-16025D01*
X24175Y-15850D02*
X23825Y-15850D01*
X24750Y-20625D02*
X24750Y-20975D01*
X24925Y-20800D02*
X24575Y-20800D01*
X24750Y-23625D02*
X24750Y-23975D01*
X24925Y-23800D02*
X24575Y-23800D01*
X25825Y-20875D02*
X25825Y-21225D01*
X26000Y-21050D02*
X25650Y-21050D01*
X25825Y-22875D02*
X25825Y-23225D01*
X26000Y-23050D02*
X25650Y-23050D01*
X26000Y-15250D02*
X26000Y-15600D01*
X26175Y-15425D02*
X25825Y-15425D01*
X26850Y-20625D02*
X26850Y-20975D01*
X27025Y-20800D02*
X26675Y-20800D01*
X26850Y-23625D02*
X26850Y-23975D01*
X27025Y-23800D02*
X26675Y-23800D01*
X27750Y-20625D02*
X27750Y-20975D01*
X27925Y-20800D02*
X27575Y-20800D01*
X27750Y-23625D02*
X27750Y-23975D01*
X27925Y-23800D02*
X27575Y-23800D01*
X28650Y-20625D02*
X28650Y-20975D01*
X28825Y-20800D02*
X28475Y-20800D01*
X28650Y-23625D02*
X28650Y-23975D01*
X28825Y-23800D02*
X28475Y-23800D01*
X29000Y-15250D02*
X29000Y-15600D01*
X29175Y-15425D02*
X28825Y-15425D01*
X29750Y-20875D02*
X29750Y-21225D01*
X29925Y-21050D02*
X29575Y-21050D01*
X29750Y-22875D02*
X29750Y-23225D01*
X29925Y-23050D02*
X29575Y-23050D01*
X31400Y-15675D02*
X31400Y-16025D01*
X31575Y-15850D02*
X31225Y-15850D01*
X31400Y-16675D02*
X31400Y-17025D01*
X31575Y-16850D02*
X31225Y-16850D01*
X32525Y-19175D02*
X32525Y-19525D01*
X32700Y-19350D02*
X32350Y-19350D01*
X32525Y-21175D02*
X32525Y-21525D01*
X32700Y-21350D02*
X32350Y-21350D01*
X33725Y-19175D02*
X33725Y-19525D01*
X33900Y-19350D02*
X33550Y-19350D01*
X33725Y-21175D02*
X33725Y-21525D01*
X33900Y-21350D02*
X33550Y-21350D01*
X34050Y-11525D02*
X34050Y-11875D01*
X34225Y-11700D02*
X33875Y-11700D01*
X36050Y-11525D02*
X36050Y-11875D01*
X36225Y-11700D02*
X35875Y-11700D01*
X11300Y-12050D02*
X11296Y-12088D01*
X11284Y-12126D01*
X11266Y-12160D01*
X11241Y-12190D01*
X11211Y-12215D01*
X11177Y-12234D01*
X11140Y-12245D01*
X11101Y-12249D01*
X11063Y-12246D01*
X11026Y-12235D01*
X10991Y-12217D01*
X10961Y-12192D01*
X10935Y-12162D01*
X10917Y-12128D01*
X10905Y-12091D01*
X10901Y-12052D01*
X10904Y-12014D01*
X10915Y-11977D01*
X10932Y-11942D01*
X10957Y-11912D01*
X10986Y-11886D01*
X11020Y-11867D01*
X11058Y-11855D01*
X11096Y-11851D01*
X11134Y-11854D01*
X11172Y-11864D01*
X11207Y-11882D01*
X11237Y-11906D01*
X11263Y-11935D01*
X11282Y-11969D01*
X11295Y-12006D01*
X11299Y-12045D01*
X11300Y-12050D01*
X10900Y-11850D02*
X11300Y-12250D01*
X11300Y-11850D02*
X10900Y-12250D01*
X11300Y-13050D02*
X11296Y-13088D01*
X11284Y-13126D01*
X11266Y-13160D01*
X11241Y-13190D01*
X11211Y-13215D01*
X11177Y-13234D01*
X11140Y-13245D01*
X11101Y-13249D01*
X11063Y-13246D01*
X11026Y-13235D01*
X10991Y-13217D01*
X10961Y-13192D01*
X10935Y-13162D01*
X10917Y-13128D01*
X10905Y-13091D01*
X10901Y-13052D01*
X10904Y-13014D01*
X10915Y-12977D01*
X10932Y-12942D01*
X10957Y-12912D01*
X10986Y-12886D01*
X11020Y-12867D01*
X11058Y-12855D01*
X11096Y-12851D01*
X11134Y-12854D01*
X11172Y-12864D01*
X11207Y-12882D01*
X11237Y-12906D01*
X11263Y-12935D01*
X11282Y-12969D01*
X11295Y-13006D01*
X11299Y-13045D01*
X11300Y-13050D01*
X10900Y-12850D02*
X11300Y-13250D01*
X11300Y-12850D02*
X10900Y-13250D01*
X11300Y-14050D02*
X11296Y-14088D01*
X11284Y-14126D01*
X11266Y-14160D01*
X11241Y-14190D01*
X11211Y-14215D01*
X11177Y-14234D01*
X11140Y-14245D01*
X11101Y-14249D01*
X11063Y-14246D01*
X11026Y-14235D01*
X10991Y-14217D01*
X10961Y-14192D01*
X10935Y-14162D01*
X10917Y-14128D01*
X10905Y-14091D01*
X10901Y-14052D01*
X10904Y-14014D01*
X10915Y-13977D01*
X10932Y-13942D01*
X10957Y-13912D01*
X10986Y-13886D01*
X11020Y-13867D01*
X11058Y-13855D01*
X11096Y-13851D01*
X11134Y-13854D01*
X11172Y-13864D01*
X11207Y-13882D01*
X11237Y-13906D01*
X11263Y-13935D01*
X11282Y-13969D01*
X11295Y-14006D01*
X11299Y-14045D01*
X11300Y-14050D01*
X10900Y-13850D02*
X11300Y-14250D01*
X11300Y-13850D02*
X10900Y-14250D01*
X11300Y-15050D02*
X11296Y-15088D01*
X11284Y-15126D01*
X11266Y-15160D01*
X11241Y-15190D01*
X11211Y-15215D01*
X11177Y-15234D01*
X11140Y-15245D01*
X11101Y-15249D01*
X11063Y-15246D01*
X11026Y-15235D01*
X10991Y-15217D01*
X10961Y-15192D01*
X10935Y-15162D01*
X10917Y-15128D01*
X10905Y-15091D01*
X10901Y-15052D01*
X10904Y-15014D01*
X10915Y-14977D01*
X10932Y-14942D01*
X10957Y-14912D01*
X10986Y-14886D01*
X11020Y-14867D01*
X11058Y-14855D01*
X11096Y-14851D01*
X11134Y-14854D01*
X11172Y-14864D01*
X11207Y-14882D01*
X11237Y-14906D01*
X11263Y-14935D01*
X11282Y-14969D01*
X11295Y-15006D01*
X11299Y-15045D01*
X11300Y-15050D01*
X10900Y-14850D02*
X11300Y-15250D01*
X11300Y-14850D02*
X10900Y-15250D01*
X11300Y-16050D02*
X11296Y-16088D01*
X11284Y-16126D01*
X11266Y-16160D01*
X11241Y-16190D01*
X11211Y-16215D01*
X11177Y-16234D01*
X11140Y-16245D01*
X11101Y-16249D01*
X11063Y-16246D01*
X11026Y-16235D01*
X10991Y-16217D01*
X10961Y-16192D01*
X10935Y-16162D01*
X10917Y-16128D01*
X10905Y-16091D01*
X10901Y-16052D01*
X10904Y-16014D01*
X10915Y-15977D01*
X10932Y-15942D01*
X10957Y-15912D01*
X10986Y-15886D01*
X11020Y-15867D01*
X11058Y-15855D01*
X11096Y-15851D01*
X11134Y-15854D01*
X11172Y-15864D01*
X11207Y-15882D01*
X11237Y-15906D01*
X11263Y-15935D01*
X11282Y-15969D01*
X11295Y-16006D01*
X11299Y-16045D01*
X11300Y-16050D01*
X10900Y-15850D02*
X11300Y-16250D01*
X11300Y-15850D02*
X10900Y-16250D01*
X11300Y-17050D02*
X11296Y-17088D01*
X11284Y-17126D01*
X11266Y-17160D01*
X11241Y-17190D01*
X11211Y-17215D01*
X11177Y-17234D01*
X11140Y-17245D01*
X11101Y-17249D01*
X11063Y-17246D01*
X11026Y-17235D01*
X10991Y-17217D01*
X10961Y-17192D01*
X10935Y-17162D01*
X10917Y-17128D01*
X10905Y-17091D01*
X10901Y-17052D01*
X10904Y-17014D01*
X10915Y-16977D01*
X10932Y-16942D01*
X10957Y-16912D01*
X10986Y-16886D01*
X11020Y-16867D01*
X11058Y-16855D01*
X11096Y-16851D01*
X11134Y-16854D01*
X11172Y-16864D01*
X11207Y-16882D01*
X11237Y-16906D01*
X11263Y-16935D01*
X11282Y-16969D01*
X11295Y-17006D01*
X11299Y-17045D01*
X11300Y-17050D01*
X10900Y-16850D02*
X11300Y-17250D01*
X11300Y-16850D02*
X10900Y-17250D01*
X11300Y-18050D02*
X11296Y-18088D01*
X11284Y-18126D01*
X11266Y-18160D01*
X11241Y-18190D01*
X11211Y-18215D01*
X11177Y-18234D01*
X11140Y-18245D01*
X11101Y-18249D01*
X11063Y-18246D01*
X11026Y-18235D01*
X10991Y-18217D01*
X10961Y-18192D01*
X10935Y-18162D01*
X10917Y-18128D01*
X10905Y-18091D01*
X10901Y-18052D01*
X10904Y-18014D01*
X10915Y-17977D01*
X10932Y-17942D01*
X10957Y-17912D01*
X10986Y-17886D01*
X11020Y-17867D01*
X11058Y-17855D01*
X11096Y-17851D01*
X11134Y-17854D01*
X11172Y-17864D01*
X11207Y-17882D01*
X11237Y-17906D01*
X11263Y-17935D01*
X11282Y-17969D01*
X11295Y-18006D01*
X11299Y-18045D01*
X11300Y-18050D01*
X10900Y-17850D02*
X11300Y-18250D01*
X11300Y-17850D02*
X10900Y-18250D01*
X11300Y-19050D02*
X11296Y-19088D01*
X11284Y-19126D01*
X11266Y-19160D01*
X11241Y-19190D01*
X11211Y-19215D01*
X11177Y-19234D01*
X11140Y-19245D01*
X11101Y-19249D01*
X11063Y-19246D01*
X11026Y-19235D01*
X10991Y-19217D01*
X10961Y-19192D01*
X10935Y-19162D01*
X10917Y-19128D01*
X10905Y-19091D01*
X10901Y-19052D01*
X10904Y-19014D01*
X10915Y-18977D01*
X10932Y-18942D01*
X10957Y-18912D01*
X10986Y-18886D01*
X11020Y-18867D01*
X11058Y-18855D01*
X11096Y-18851D01*
X11134Y-18854D01*
X11172Y-18864D01*
X11207Y-18882D01*
X11237Y-18906D01*
X11263Y-18935D01*
X11282Y-18969D01*
X11295Y-19006D01*
X11299Y-19045D01*
X11300Y-19050D01*
X10900Y-18850D02*
X11300Y-19250D01*
X11300Y-18850D02*
X10900Y-19250D01*
X11300Y-20050D02*
X11296Y-20088D01*
X11284Y-20126D01*
X11266Y-20160D01*
X11241Y-20190D01*
X11211Y-20215D01*
X11177Y-20234D01*
X11140Y-20245D01*
X11101Y-20249D01*
X11063Y-20246D01*
X11026Y-20235D01*
X10991Y-20217D01*
X10961Y-20192D01*
X10935Y-20162D01*
X10917Y-20128D01*
X10905Y-20091D01*
X10901Y-20052D01*
X10904Y-20014D01*
X10915Y-19977D01*
X10932Y-19942D01*
X10957Y-19912D01*
X10986Y-19886D01*
X11020Y-19867D01*
X11058Y-19855D01*
X11096Y-19851D01*
X11134Y-19854D01*
X11172Y-19864D01*
X11207Y-19882D01*
X11237Y-19906D01*
X11263Y-19935D01*
X11282Y-19969D01*
X11295Y-20006D01*
X11299Y-20045D01*
X11300Y-20050D01*
X10900Y-19850D02*
X11300Y-20250D01*
X11300Y-19850D02*
X10900Y-20250D01*
X11300Y-21050D02*
X11296Y-21088D01*
X11284Y-21126D01*
X11266Y-21160D01*
X11241Y-21190D01*
X11211Y-21215D01*
X11177Y-21234D01*
X11140Y-21245D01*
X11101Y-21249D01*
X11063Y-21246D01*
X11026Y-21235D01*
X10991Y-21217D01*
X10961Y-21192D01*
X10935Y-21162D01*
X10917Y-21128D01*
X10905Y-21091D01*
X10901Y-21052D01*
X10904Y-21014D01*
X10915Y-20977D01*
X10932Y-20942D01*
X10957Y-20912D01*
X10986Y-20886D01*
X11020Y-20867D01*
X11058Y-20855D01*
X11096Y-20851D01*
X11134Y-20854D01*
X11172Y-20864D01*
X11207Y-20882D01*
X11237Y-20906D01*
X11263Y-20935D01*
X11282Y-20969D01*
X11295Y-21006D01*
X11299Y-21045D01*
X11300Y-21050D01*
X10900Y-20850D02*
X11300Y-21250D01*
X11300Y-20850D02*
X10900Y-21250D01*
X11300Y-22050D02*
X11296Y-22088D01*
X11284Y-22126D01*
X11266Y-22160D01*
X11241Y-22190D01*
X11211Y-22215D01*
X11177Y-22234D01*
X11140Y-22245D01*
X11101Y-22249D01*
X11063Y-22246D01*
X11026Y-22235D01*
X10991Y-22217D01*
X10961Y-22192D01*
X10935Y-22162D01*
X10917Y-22128D01*
X10905Y-22091D01*
X10901Y-22052D01*
X10904Y-22014D01*
X10915Y-21977D01*
X10932Y-21942D01*
X10957Y-21912D01*
X10986Y-21886D01*
X11020Y-21867D01*
X11058Y-21855D01*
X11096Y-21851D01*
X11134Y-21854D01*
X11172Y-21864D01*
X11207Y-21882D01*
X11237Y-21906D01*
X11263Y-21935D01*
X11282Y-21969D01*
X11295Y-22006D01*
X11299Y-22045D01*
X11300Y-22050D01*
X10900Y-21850D02*
X11300Y-22250D01*
X11300Y-21850D02*
X10900Y-22250D01*
X11300Y-23050D02*
X11296Y-23088D01*
X11284Y-23126D01*
X11266Y-23160D01*
X11241Y-23190D01*
X11211Y-23215D01*
X11177Y-23234D01*
X11140Y-23245D01*
X11101Y-23249D01*
X11063Y-23246D01*
X11026Y-23235D01*
X10991Y-23217D01*
X10961Y-23192D01*
X10935Y-23162D01*
X10917Y-23128D01*
X10905Y-23091D01*
X10901Y-23052D01*
X10904Y-23014D01*
X10915Y-22977D01*
X10932Y-22942D01*
X10957Y-22912D01*
X10986Y-22886D01*
X11020Y-22867D01*
X11058Y-22855D01*
X11096Y-22851D01*
X11134Y-22854D01*
X11172Y-22864D01*
X11207Y-22882D01*
X11237Y-22906D01*
X11263Y-22935D01*
X11282Y-22969D01*
X11295Y-23006D01*
X11299Y-23045D01*
X11300Y-23050D01*
X10900Y-22850D02*
X11300Y-23250D01*
X11300Y-22850D02*
X10900Y-23250D01*
X14300Y-11050D02*
X14296Y-11088D01*
X14284Y-11126D01*
X14266Y-11160D01*
X14241Y-11190D01*
X14211Y-11215D01*
X14177Y-11234D01*
X14140Y-11245D01*
X14101Y-11249D01*
X14063Y-11246D01*
X14026Y-11235D01*
X13991Y-11217D01*
X13961Y-11192D01*
X13935Y-11162D01*
X13917Y-11128D01*
X13905Y-11091D01*
X13901Y-11052D01*
X13904Y-11014D01*
X13915Y-10977D01*
X13932Y-10942D01*
X13957Y-10912D01*
X13986Y-10886D01*
X14020Y-10867D01*
X14058Y-10855D01*
X14096Y-10851D01*
X14134Y-10854D01*
X14172Y-10864D01*
X14207Y-10882D01*
X14237Y-10906D01*
X14263Y-10935D01*
X14282Y-10969D01*
X14295Y-11006D01*
X14299Y-11045D01*
X14300Y-11050D01*
X13900Y-10850D02*
X14300Y-11250D01*
X14300Y-10850D02*
X13900Y-11250D01*
X14300Y-12050D02*
X14296Y-12088D01*
X14284Y-12126D01*
X14266Y-12160D01*
X14241Y-12190D01*
X14211Y-12215D01*
X14177Y-12234D01*
X14140Y-12245D01*
X14101Y-12249D01*
X14063Y-12246D01*
X14026Y-12235D01*
X13991Y-12217D01*
X13961Y-12192D01*
X13935Y-12162D01*
X13917Y-12128D01*
X13905Y-12091D01*
X13901Y-12052D01*
X13904Y-12014D01*
X13915Y-11977D01*
X13932Y-11942D01*
X13957Y-11912D01*
X13986Y-11886D01*
X14020Y-11867D01*
X14058Y-11855D01*
X14096Y-11851D01*
X14134Y-11854D01*
X14172Y-11864D01*
X14207Y-11882D01*
X14237Y-11906D01*
X14263Y-11935D01*
X14282Y-11969D01*
X14295Y-12006D01*
X14299Y-12045D01*
X14300Y-12050D01*
X13900Y-11850D02*
X14300Y-12250D01*
X14300Y-11850D02*
X13900Y-12250D01*
X14300Y-13050D02*
X14296Y-13088D01*
X14284Y-13126D01*
X14266Y-13160D01*
X14241Y-13190D01*
X14211Y-13215D01*
X14177Y-13234D01*
X14140Y-13245D01*
X14101Y-13249D01*
X14063Y-13246D01*
X14026Y-13235D01*
X13991Y-13217D01*
X13961Y-13192D01*
X13935Y-13162D01*
X13917Y-13128D01*
X13905Y-13091D01*
X13901Y-13052D01*
X13904Y-13014D01*
X13915Y-12977D01*
X13932Y-12942D01*
X13957Y-12912D01*
X13986Y-12886D01*
X14020Y-12867D01*
X14058Y-12855D01*
X14096Y-12851D01*
X14134Y-12854D01*
X14172Y-12864D01*
X14207Y-12882D01*
X14237Y-12906D01*
X14263Y-12935D01*
X14282Y-12969D01*
X14295Y-13006D01*
X14299Y-13045D01*
X14300Y-13050D01*
X13900Y-12850D02*
X14300Y-13250D01*
X14300Y-12850D02*
X13900Y-13250D01*
X14300Y-14050D02*
X14296Y-14088D01*
X14284Y-14126D01*
X14266Y-14160D01*
X14241Y-14190D01*
X14211Y-14215D01*
X14177Y-14234D01*
X14140Y-14245D01*
X14101Y-14249D01*
X14063Y-14246D01*
X14026Y-14235D01*
X13991Y-14217D01*
X13961Y-14192D01*
X13935Y-14162D01*
X13917Y-14128D01*
X13905Y-14091D01*
X13901Y-14052D01*
X13904Y-14014D01*
X13915Y-13977D01*
X13932Y-13942D01*
X13957Y-13912D01*
X13986Y-13886D01*
X14020Y-13867D01*
X14058Y-13855D01*
X14096Y-13851D01*
X14134Y-13854D01*
X14172Y-13864D01*
X14207Y-13882D01*
X14237Y-13906D01*
X14263Y-13935D01*
X14282Y-13969D01*
X14295Y-14006D01*
X14299Y-14045D01*
X14300Y-14050D01*
X13900Y-13850D02*
X14300Y-14250D01*
X14300Y-13850D02*
X13900Y-14250D01*
X14300Y-15050D02*
X14296Y-15088D01*
X14284Y-15126D01*
X14266Y-15160D01*
X14241Y-15190D01*
X14211Y-15215D01*
X14177Y-15234D01*
X14140Y-15245D01*
X14101Y-15249D01*
X14063Y-15246D01*
X14026Y-15235D01*
X13991Y-15217D01*
X13961Y-15192D01*
X13935Y-15162D01*
X13917Y-15128D01*
X13905Y-15091D01*
X13901Y-15052D01*
X13904Y-15014D01*
X13915Y-14977D01*
X13932Y-14942D01*
X13957Y-14912D01*
X13986Y-14886D01*
X14020Y-14867D01*
X14058Y-14855D01*
X14096Y-14851D01*
X14134Y-14854D01*
X14172Y-14864D01*
X14207Y-14882D01*
X14237Y-14906D01*
X14263Y-14935D01*
X14282Y-14969D01*
X14295Y-15006D01*
X14299Y-15045D01*
X14300Y-15050D01*
X13900Y-14850D02*
X14300Y-15250D01*
X14300Y-14850D02*
X13900Y-15250D01*
X14300Y-16050D02*
X14296Y-16088D01*
X14284Y-16126D01*
X14266Y-16160D01*
X14241Y-16190D01*
X14211Y-16215D01*
X14177Y-16234D01*
X14140Y-16245D01*
X14101Y-16249D01*
X14063Y-16246D01*
X14026Y-16235D01*
X13991Y-16217D01*
X13961Y-16192D01*
X13935Y-16162D01*
X13917Y-16128D01*
X13905Y-16091D01*
X13901Y-16052D01*
X13904Y-16014D01*
X13915Y-15977D01*
X13932Y-15942D01*
X13957Y-15912D01*
X13986Y-15886D01*
X14020Y-15867D01*
X14058Y-15855D01*
X14096Y-15851D01*
X14134Y-15854D01*
X14172Y-15864D01*
X14207Y-15882D01*
X14237Y-15906D01*
X14263Y-15935D01*
X14282Y-15969D01*
X14295Y-16006D01*
X14299Y-16045D01*
X14300Y-16050D01*
X13900Y-15850D02*
X14300Y-16250D01*
X14300Y-15850D02*
X13900Y-16250D01*
X14300Y-17050D02*
X14296Y-17088D01*
X14284Y-17126D01*
X14266Y-17160D01*
X14241Y-17190D01*
X14211Y-17215D01*
X14177Y-17234D01*
X14140Y-17245D01*
X14101Y-17249D01*
X14063Y-17246D01*
X14026Y-17235D01*
X13991Y-17217D01*
X13961Y-17192D01*
X13935Y-17162D01*
X13917Y-17128D01*
X13905Y-17091D01*
X13901Y-17052D01*
X13904Y-17014D01*
X13915Y-16977D01*
X13932Y-16942D01*
X13957Y-16912D01*
X13986Y-16886D01*
X14020Y-16867D01*
X14058Y-16855D01*
X14096Y-16851D01*
X14134Y-16854D01*
X14172Y-16864D01*
X14207Y-16882D01*
X14237Y-16906D01*
X14263Y-16935D01*
X14282Y-16969D01*
X14295Y-17006D01*
X14299Y-17045D01*
X14300Y-17050D01*
X13900Y-16850D02*
X14300Y-17250D01*
X14300Y-16850D02*
X13900Y-17250D01*
X14300Y-18050D02*
X14296Y-18088D01*
X14284Y-18126D01*
X14266Y-18160D01*
X14241Y-18190D01*
X14211Y-18215D01*
X14177Y-18234D01*
X14140Y-18245D01*
X14101Y-18249D01*
X14063Y-18246D01*
X14026Y-18235D01*
X13991Y-18217D01*
X13961Y-18192D01*
X13935Y-18162D01*
X13917Y-18128D01*
X13905Y-18091D01*
X13901Y-18052D01*
X13904Y-18014D01*
X13915Y-17977D01*
X13932Y-17942D01*
X13957Y-17912D01*
X13986Y-17886D01*
X14020Y-17867D01*
X14058Y-17855D01*
X14096Y-17851D01*
X14134Y-17854D01*
X14172Y-17864D01*
X14207Y-17882D01*
X14237Y-17906D01*
X14263Y-17935D01*
X14282Y-17969D01*
X14295Y-18006D01*
X14299Y-18045D01*
X14300Y-18050D01*
X13900Y-17850D02*
X14300Y-18250D01*
X14300Y-17850D02*
X13900Y-18250D01*
X14300Y-19050D02*
X14296Y-19088D01*
X14284Y-19126D01*
X14266Y-19160D01*
X14241Y-19190D01*
X14211Y-19215D01*
X14177Y-19234D01*
X14140Y-19245D01*
X14101Y-19249D01*
X14063Y-19246D01*
X14026Y-19235D01*
X13991Y-19217D01*
X13961Y-19192D01*
X13935Y-19162D01*
X13917Y-19128D01*
X13905Y-19091D01*
X13901Y-19052D01*
X13904Y-19014D01*
X13915Y-18977D01*
X13932Y-18942D01*
X13957Y-18912D01*
X13986Y-18886D01*
X14020Y-18867D01*
X14058Y-18855D01*
X14096Y-18851D01*
X14134Y-18854D01*
X14172Y-18864D01*
X14207Y-18882D01*
X14237Y-18906D01*
X14263Y-18935D01*
X14282Y-18969D01*
X14295Y-19006D01*
X14299Y-19045D01*
X14300Y-19050D01*
X13900Y-18850D02*
X14300Y-19250D01*
X14300Y-18850D02*
X13900Y-19250D01*
X14300Y-20050D02*
X14296Y-20088D01*
X14284Y-20126D01*
X14266Y-20160D01*
X14241Y-20190D01*
X14211Y-20215D01*
X14177Y-20234D01*
X14140Y-20245D01*
X14101Y-20249D01*
X14063Y-20246D01*
X14026Y-20235D01*
X13991Y-20217D01*
X13961Y-20192D01*
X13935Y-20162D01*
X13917Y-20128D01*
X13905Y-20091D01*
X13901Y-20052D01*
X13904Y-20014D01*
X13915Y-19977D01*
X13932Y-19942D01*
X13957Y-19912D01*
X13986Y-19886D01*
X14020Y-19867D01*
X14058Y-19855D01*
X14096Y-19851D01*
X14134Y-19854D01*
X14172Y-19864D01*
X14207Y-19882D01*
X14237Y-19906D01*
X14263Y-19935D01*
X14282Y-19969D01*
X14295Y-20006D01*
X14299Y-20045D01*
X14300Y-20050D01*
X13900Y-19850D02*
X14300Y-20250D01*
X14300Y-19850D02*
X13900Y-20250D01*
X14300Y-21050D02*
X14296Y-21088D01*
X14284Y-21126D01*
X14266Y-21160D01*
X14241Y-21190D01*
X14211Y-21215D01*
X14177Y-21234D01*
X14140Y-21245D01*
X14101Y-21249D01*
X14063Y-21246D01*
X14026Y-21235D01*
X13991Y-21217D01*
X13961Y-21192D01*
X13935Y-21162D01*
X13917Y-21128D01*
X13905Y-21091D01*
X13901Y-21052D01*
X13904Y-21014D01*
X13915Y-20977D01*
X13932Y-20942D01*
X13957Y-20912D01*
X13986Y-20886D01*
X14020Y-20867D01*
X14058Y-20855D01*
X14096Y-20851D01*
X14134Y-20854D01*
X14172Y-20864D01*
X14207Y-20882D01*
X14237Y-20906D01*
X14263Y-20935D01*
X14282Y-20969D01*
X14295Y-21006D01*
X14299Y-21045D01*
X14300Y-21050D01*
X13900Y-20850D02*
X14300Y-21250D01*
X14300Y-20850D02*
X13900Y-21250D01*
X14300Y-22050D02*
X14296Y-22088D01*
X14284Y-22126D01*
X14266Y-22160D01*
X14241Y-22190D01*
X14211Y-22215D01*
X14177Y-22234D01*
X14140Y-22245D01*
X14101Y-22249D01*
X14063Y-22246D01*
X14026Y-22235D01*
X13991Y-22217D01*
X13961Y-22192D01*
X13935Y-22162D01*
X13917Y-22128D01*
X13905Y-22091D01*
X13901Y-22052D01*
X13904Y-22014D01*
X13915Y-21977D01*
X13932Y-21942D01*
X13957Y-21912D01*
X13986Y-21886D01*
X14020Y-21867D01*
X14058Y-21855D01*
X14096Y-21851D01*
X14134Y-21854D01*
X14172Y-21864D01*
X14207Y-21882D01*
X14237Y-21906D01*
X14263Y-21935D01*
X14282Y-21969D01*
X14295Y-22006D01*
X14299Y-22045D01*
X14300Y-22050D01*
X13900Y-21850D02*
X14300Y-22250D01*
X14300Y-21850D02*
X13900Y-22250D01*
X14300Y-23050D02*
X14296Y-23088D01*
X14284Y-23126D01*
X14266Y-23160D01*
X14241Y-23190D01*
X14211Y-23215D01*
X14177Y-23234D01*
X14140Y-23245D01*
X14101Y-23249D01*
X14063Y-23246D01*
X14026Y-23235D01*
X13991Y-23217D01*
X13961Y-23192D01*
X13935Y-23162D01*
X13917Y-23128D01*
X13905Y-23091D01*
X13901Y-23052D01*
X13904Y-23014D01*
X13915Y-22977D01*
X13932Y-22942D01*
X13957Y-22912D01*
X13986Y-22886D01*
X14020Y-22867D01*
X14058Y-22855D01*
X14096Y-22851D01*
X14134Y-22854D01*
X14172Y-22864D01*
X14207Y-22882D01*
X14237Y-22906D01*
X14263Y-22935D01*
X14282Y-22969D01*
X14295Y-23006D01*
X14299Y-23045D01*
X14300Y-23050D01*
X13900Y-22850D02*
X14300Y-23250D01*
X14300Y-22850D02*
X13900Y-23250D01*
X14300Y-24050D02*
X14296Y-24088D01*
X14284Y-24126D01*
X14266Y-24160D01*
X14241Y-24190D01*
X14211Y-24215D01*
X14177Y-24234D01*
X14140Y-24245D01*
X14101Y-24249D01*
X14063Y-24246D01*
X14026Y-24235D01*
X13991Y-24217D01*
X13961Y-24192D01*
X13935Y-24162D01*
X13917Y-24128D01*
X13905Y-24091D01*
X13901Y-24052D01*
X13904Y-24014D01*
X13915Y-23977D01*
X13932Y-23942D01*
X13957Y-23912D01*
X13986Y-23886D01*
X14020Y-23867D01*
X14058Y-23855D01*
X14096Y-23851D01*
X14134Y-23854D01*
X14172Y-23864D01*
X14207Y-23882D01*
X14237Y-23906D01*
X14263Y-23935D01*
X14282Y-23969D01*
X14295Y-24006D01*
X14299Y-24045D01*
X14300Y-24050D01*
X13900Y-23850D02*
X14300Y-24250D01*
X14300Y-23850D02*
X13900Y-24250D01*
X16050Y-11225D02*
X16046Y-11263D01*
X16034Y-11301D01*
X16016Y-11335D01*
X15991Y-11365D01*
X15961Y-11390D01*
X15927Y-11409D01*
X15890Y-11420D01*
X15851Y-11424D01*
X15813Y-11421D01*
X15776Y-11410D01*
X15741Y-11392D01*
X15711Y-11367D01*
X15685Y-11337D01*
X15667Y-11303D01*
X15655Y-11266D01*
X15651Y-11227D01*
X15654Y-11189D01*
X15665Y-11152D01*
X15682Y-11117D01*
X15707Y-11087D01*
X15736Y-11061D01*
X15770Y-11042D01*
X15808Y-11030D01*
X15846Y-11026D01*
X15884Y-11029D01*
X15922Y-11039D01*
X15957Y-11057D01*
X15987Y-11081D01*
X16013Y-11110D01*
X16032Y-11144D01*
X16045Y-11181D01*
X16049Y-11220D01*
X16050Y-11225D01*
X15650Y-11025D02*
X16050Y-11425D01*
X16050Y-11025D02*
X15650Y-11425D01*
X16050Y-12225D02*
X16046Y-12263D01*
X16034Y-12301D01*
X16016Y-12335D01*
X15991Y-12365D01*
X15961Y-12390D01*
X15927Y-12409D01*
X15890Y-12420D01*
X15851Y-12424D01*
X15813Y-12421D01*
X15776Y-12410D01*
X15741Y-12392D01*
X15711Y-12367D01*
X15685Y-12337D01*
X15667Y-12303D01*
X15655Y-12266D01*
X15651Y-12227D01*
X15654Y-12189D01*
X15665Y-12152D01*
X15682Y-12117D01*
X15707Y-12087D01*
X15736Y-12061D01*
X15770Y-12042D01*
X15808Y-12030D01*
X15846Y-12026D01*
X15884Y-12029D01*
X15922Y-12039D01*
X15957Y-12057D01*
X15987Y-12081D01*
X16013Y-12110D01*
X16032Y-12144D01*
X16045Y-12181D01*
X16049Y-12220D01*
X16050Y-12225D01*
X15650Y-12025D02*
X16050Y-12425D01*
X16050Y-12025D02*
X15650Y-12425D01*
X16050Y-13225D02*
X16046Y-13263D01*
X16034Y-13301D01*
X16016Y-13335D01*
X15991Y-13365D01*
X15961Y-13390D01*
X15927Y-13409D01*
X15890Y-13420D01*
X15851Y-13424D01*
X15813Y-13421D01*
X15776Y-13410D01*
X15741Y-13392D01*
X15711Y-13367D01*
X15685Y-13337D01*
X15667Y-13303D01*
X15655Y-13266D01*
X15651Y-13227D01*
X15654Y-13189D01*
X15665Y-13152D01*
X15682Y-13117D01*
X15707Y-13087D01*
X15736Y-13061D01*
X15770Y-13042D01*
X15808Y-13030D01*
X15846Y-13026D01*
X15884Y-13029D01*
X15922Y-13039D01*
X15957Y-13057D01*
X15987Y-13081D01*
X16013Y-13110D01*
X16032Y-13144D01*
X16045Y-13181D01*
X16049Y-13220D01*
X16050Y-13225D01*
X15650Y-13025D02*
X16050Y-13425D01*
X16050Y-13025D02*
X15650Y-13425D01*
X16050Y-21850D02*
X16046Y-21888D01*
X16034Y-21926D01*
X16016Y-21960D01*
X15991Y-21990D01*
X15961Y-22015D01*
X15927Y-22034D01*
X15890Y-22045D01*
X15851Y-22049D01*
X15813Y-22046D01*
X15776Y-22035D01*
X15741Y-22017D01*
X15711Y-21992D01*
X15685Y-21962D01*
X15667Y-21928D01*
X15655Y-21891D01*
X15651Y-21852D01*
X15654Y-21814D01*
X15665Y-21777D01*
X15682Y-21742D01*
X15707Y-21712D01*
X15736Y-21686D01*
X15770Y-21667D01*
X15808Y-21655D01*
X15846Y-21651D01*
X15884Y-21654D01*
X15922Y-21664D01*
X15957Y-21682D01*
X15987Y-21706D01*
X16013Y-21735D01*
X16032Y-21769D01*
X16045Y-21806D01*
X16049Y-21845D01*
X16050Y-21850D01*
X15650Y-21650D02*
X16050Y-22050D01*
X16050Y-21650D02*
X15650Y-22050D01*
X16050Y-22850D02*
X16046Y-22888D01*
X16034Y-22926D01*
X16016Y-22960D01*
X15991Y-22990D01*
X15961Y-23015D01*
X15927Y-23034D01*
X15890Y-23045D01*
X15851Y-23049D01*
X15813Y-23046D01*
X15776Y-23035D01*
X15741Y-23017D01*
X15711Y-22992D01*
X15685Y-22962D01*
X15667Y-22928D01*
X15655Y-22891D01*
X15651Y-22852D01*
X15654Y-22814D01*
X15665Y-22777D01*
X15682Y-22742D01*
X15707Y-22712D01*
X15736Y-22686D01*
X15770Y-22667D01*
X15808Y-22655D01*
X15846Y-22651D01*
X15884Y-22654D01*
X15922Y-22664D01*
X15957Y-22682D01*
X15987Y-22706D01*
X16013Y-22735D01*
X16032Y-22769D01*
X16045Y-22806D01*
X16049Y-22845D01*
X16050Y-22850D01*
X15650Y-22650D02*
X16050Y-23050D01*
X16050Y-22650D02*
X15650Y-23050D01*
X16050Y-23850D02*
X16046Y-23888D01*
X16034Y-23926D01*
X16016Y-23960D01*
X15991Y-23990D01*
X15961Y-24015D01*
X15927Y-24034D01*
X15890Y-24045D01*
X15851Y-24049D01*
X15813Y-24046D01*
X15776Y-24035D01*
X15741Y-24017D01*
X15711Y-23992D01*
X15685Y-23962D01*
X15667Y-23928D01*
X15655Y-23891D01*
X15651Y-23852D01*
X15654Y-23814D01*
X15665Y-23777D01*
X15682Y-23742D01*
X15707Y-23712D01*
X15736Y-23686D01*
X15770Y-23667D01*
X15808Y-23655D01*
X15846Y-23651D01*
X15884Y-23654D01*
X15922Y-23664D01*
X15957Y-23682D01*
X15987Y-23706D01*
X16013Y-23735D01*
X16032Y-23769D01*
X16045Y-23806D01*
X16049Y-23845D01*
X16050Y-23850D01*
X15650Y-23650D02*
X16050Y-24050D01*
X16050Y-23650D02*
X15650Y-24050D01*
X16700Y-16650D02*
X16696Y-16688D01*
X16684Y-16726D01*
X16666Y-16760D01*
X16641Y-16790D01*
X16611Y-16815D01*
X16577Y-16834D01*
X16540Y-16845D01*
X16501Y-16849D01*
X16463Y-16846D01*
X16426Y-16835D01*
X16391Y-16817D01*
X16361Y-16792D01*
X16335Y-16762D01*
X16317Y-16728D01*
X16305Y-16691D01*
X16301Y-16652D01*
X16304Y-16614D01*
X16315Y-16577D01*
X16332Y-16542D01*
X16357Y-16512D01*
X16386Y-16486D01*
X16420Y-16467D01*
X16458Y-16455D01*
X16496Y-16451D01*
X16534Y-16454D01*
X16572Y-16464D01*
X16607Y-16482D01*
X16637Y-16506D01*
X16663Y-16535D01*
X16682Y-16569D01*
X16695Y-16606D01*
X16699Y-16645D01*
X16700Y-16650D01*
X16300Y-16450D02*
X16700Y-16850D01*
X16700Y-16450D02*
X16300Y-16850D01*
X16700Y-19650D02*
X16696Y-19688D01*
X16684Y-19726D01*
X16666Y-19760D01*
X16641Y-19790D01*
X16611Y-19815D01*
X16577Y-19834D01*
X16540Y-19845D01*
X16501Y-19849D01*
X16463Y-19846D01*
X16426Y-19835D01*
X16391Y-19817D01*
X16361Y-19792D01*
X16335Y-19762D01*
X16317Y-19728D01*
X16305Y-19691D01*
X16301Y-19652D01*
X16304Y-19614D01*
X16315Y-19577D01*
X16332Y-19542D01*
X16357Y-19512D01*
X16386Y-19486D01*
X16420Y-19467D01*
X16458Y-19455D01*
X16496Y-19451D01*
X16534Y-19454D01*
X16572Y-19464D01*
X16607Y-19482D01*
X16637Y-19506D01*
X16663Y-19535D01*
X16682Y-19569D01*
X16695Y-19606D01*
X16699Y-19645D01*
X16700Y-19650D01*
X16300Y-19450D02*
X16700Y-19850D01*
X16700Y-19450D02*
X16300Y-19850D01*
X17050Y-11225D02*
X17046Y-11263D01*
X17034Y-11301D01*
X17016Y-11335D01*
X16991Y-11365D01*
X16961Y-11390D01*
X16927Y-11409D01*
X16890Y-11420D01*
X16851Y-11424D01*
X16813Y-11421D01*
X16776Y-11410D01*
X16741Y-11392D01*
X16711Y-11367D01*
X16685Y-11337D01*
X16667Y-11303D01*
X16655Y-11266D01*
X16651Y-11227D01*
X16654Y-11189D01*
X16665Y-11152D01*
X16682Y-11117D01*
X16707Y-11087D01*
X16736Y-11061D01*
X16770Y-11042D01*
X16808Y-11030D01*
X16846Y-11026D01*
X16884Y-11029D01*
X16922Y-11039D01*
X16957Y-11057D01*
X16987Y-11081D01*
X17013Y-11110D01*
X17032Y-11144D01*
X17045Y-11181D01*
X17049Y-11220D01*
X17050Y-11225D01*
X16650Y-11025D02*
X17050Y-11425D01*
X17050Y-11025D02*
X16650Y-11425D01*
X17050Y-12225D02*
X17046Y-12263D01*
X17034Y-12301D01*
X17016Y-12335D01*
X16991Y-12365D01*
X16961Y-12390D01*
X16927Y-12409D01*
X16890Y-12420D01*
X16851Y-12424D01*
X16813Y-12421D01*
X16776Y-12410D01*
X16741Y-12392D01*
X16711Y-12367D01*
X16685Y-12337D01*
X16667Y-12303D01*
X16655Y-12266D01*
X16651Y-12227D01*
X16654Y-12189D01*
X16665Y-12152D01*
X16682Y-12117D01*
X16707Y-12087D01*
X16736Y-12061D01*
X16770Y-12042D01*
X16808Y-12030D01*
X16846Y-12026D01*
X16884Y-12029D01*
X16922Y-12039D01*
X16957Y-12057D01*
X16987Y-12081D01*
X17013Y-12110D01*
X17032Y-12144D01*
X17045Y-12181D01*
X17049Y-12220D01*
X17050Y-12225D01*
X16650Y-12025D02*
X17050Y-12425D01*
X17050Y-12025D02*
X16650Y-12425D01*
X17050Y-13225D02*
X17046Y-13263D01*
X17034Y-13301D01*
X17016Y-13335D01*
X16991Y-13365D01*
X16961Y-13390D01*
X16927Y-13409D01*
X16890Y-13420D01*
X16851Y-13424D01*
X16813Y-13421D01*
X16776Y-13410D01*
X16741Y-13392D01*
X16711Y-13367D01*
X16685Y-13337D01*
X16667Y-13303D01*
X16655Y-13266D01*
X16651Y-13227D01*
X16654Y-13189D01*
X16665Y-13152D01*
X16682Y-13117D01*
X16707Y-13087D01*
X16736Y-13061D01*
X16770Y-13042D01*
X16808Y-13030D01*
X16846Y-13026D01*
X16884Y-13029D01*
X16922Y-13039D01*
X16957Y-13057D01*
X16987Y-13081D01*
X17013Y-13110D01*
X17032Y-13144D01*
X17045Y-13181D01*
X17049Y-13220D01*
X17050Y-13225D01*
X16650Y-13025D02*
X17050Y-13425D01*
X17050Y-13025D02*
X16650Y-13425D01*
X17050Y-21850D02*
X17046Y-21888D01*
X17034Y-21926D01*
X17016Y-21960D01*
X16991Y-21990D01*
X16961Y-22015D01*
X16927Y-22034D01*
X16890Y-22045D01*
X16851Y-22049D01*
X16813Y-22046D01*
X16776Y-22035D01*
X16741Y-22017D01*
X16711Y-21992D01*
X16685Y-21962D01*
X16667Y-21928D01*
X16655Y-21891D01*
X16651Y-21852D01*
X16654Y-21814D01*
X16665Y-21777D01*
X16682Y-21742D01*
X16707Y-21712D01*
X16736Y-21686D01*
X16770Y-21667D01*
X16808Y-21655D01*
X16846Y-21651D01*
X16884Y-21654D01*
X16922Y-21664D01*
X16957Y-21682D01*
X16987Y-21706D01*
X17013Y-21735D01*
X17032Y-21769D01*
X17045Y-21806D01*
X17049Y-21845D01*
X17050Y-21850D01*
X16650Y-21650D02*
X17050Y-22050D01*
X17050Y-21650D02*
X16650Y-22050D01*
X17050Y-22850D02*
X17046Y-22888D01*
X17034Y-22926D01*
X17016Y-22960D01*
X16991Y-22990D01*
X16961Y-23015D01*
X16927Y-23034D01*
X16890Y-23045D01*
X16851Y-23049D01*
X16813Y-23046D01*
X16776Y-23035D01*
X16741Y-23017D01*
X16711Y-22992D01*
X16685Y-22962D01*
X16667Y-22928D01*
X16655Y-22891D01*
X16651Y-22852D01*
X16654Y-22814D01*
X16665Y-22777D01*
X16682Y-22742D01*
X16707Y-22712D01*
X16736Y-22686D01*
X16770Y-22667D01*
X16808Y-22655D01*
X16846Y-22651D01*
X16884Y-22654D01*
X16922Y-22664D01*
X16957Y-22682D01*
X16987Y-22706D01*
X17013Y-22735D01*
X17032Y-22769D01*
X17045Y-22806D01*
X17049Y-22845D01*
X17050Y-22850D01*
X16650Y-22650D02*
X17050Y-23050D01*
X17050Y-22650D02*
X16650Y-23050D01*
X17050Y-23850D02*
X17046Y-23888D01*
X17034Y-23926D01*
X17016Y-23960D01*
X16991Y-23990D01*
X16961Y-24015D01*
X16927Y-24034D01*
X16890Y-24045D01*
X16851Y-24049D01*
X16813Y-24046D01*
X16776Y-24035D01*
X16741Y-24017D01*
X16711Y-23992D01*
X16685Y-23962D01*
X16667Y-23928D01*
X16655Y-23891D01*
X16651Y-23852D01*
X16654Y-23814D01*
X16665Y-23777D01*
X16682Y-23742D01*
X16707Y-23712D01*
X16736Y-23686D01*
X16770Y-23667D01*
X16808Y-23655D01*
X16846Y-23651D01*
X16884Y-23654D01*
X16922Y-23664D01*
X16957Y-23682D01*
X16987Y-23706D01*
X17013Y-23735D01*
X17032Y-23769D01*
X17045Y-23806D01*
X17049Y-23845D01*
X17050Y-23850D01*
X16650Y-23650D02*
X17050Y-24050D01*
X17050Y-23650D02*
X16650Y-24050D01*
X17700Y-16650D02*
X17696Y-16688D01*
X17684Y-16726D01*
X17666Y-16760D01*
X17641Y-16790D01*
X17611Y-16815D01*
X17577Y-16834D01*
X17540Y-16845D01*
X17501Y-16849D01*
X17463Y-16846D01*
X17426Y-16835D01*
X17391Y-16817D01*
X17361Y-16792D01*
X17335Y-16762D01*
X17317Y-16728D01*
X17305Y-16691D01*
X17301Y-16652D01*
X17304Y-16614D01*
X17315Y-16577D01*
X17332Y-16542D01*
X17357Y-16512D01*
X17386Y-16486D01*
X17420Y-16467D01*
X17458Y-16455D01*
X17496Y-16451D01*
X17534Y-16454D01*
X17572Y-16464D01*
X17607Y-16482D01*
X17637Y-16506D01*
X17663Y-16535D01*
X17682Y-16569D01*
X17695Y-16606D01*
X17699Y-16645D01*
X17700Y-16650D01*
X17300Y-16450D02*
X17700Y-16850D01*
X17700Y-16450D02*
X17300Y-16850D01*
X17700Y-19650D02*
X17696Y-19688D01*
X17684Y-19726D01*
X17666Y-19760D01*
X17641Y-19790D01*
X17611Y-19815D01*
X17577Y-19834D01*
X17540Y-19845D01*
X17501Y-19849D01*
X17463Y-19846D01*
X17426Y-19835D01*
X17391Y-19817D01*
X17361Y-19792D01*
X17335Y-19762D01*
X17317Y-19728D01*
X17305Y-19691D01*
X17301Y-19652D01*
X17304Y-19614D01*
X17315Y-19577D01*
X17332Y-19542D01*
X17357Y-19512D01*
X17386Y-19486D01*
X17420Y-19467D01*
X17458Y-19455D01*
X17496Y-19451D01*
X17534Y-19454D01*
X17572Y-19464D01*
X17607Y-19482D01*
X17637Y-19506D01*
X17663Y-19535D01*
X17682Y-19569D01*
X17695Y-19606D01*
X17699Y-19645D01*
X17700Y-19650D01*
X17300Y-19450D02*
X17700Y-19850D01*
X17700Y-19450D02*
X17300Y-19850D01*
X18700Y-16650D02*
X18696Y-16688D01*
X18684Y-16726D01*
X18666Y-16760D01*
X18641Y-16790D01*
X18611Y-16815D01*
X18577Y-16834D01*
X18540Y-16845D01*
X18501Y-16849D01*
X18463Y-16846D01*
X18426Y-16835D01*
X18391Y-16817D01*
X18361Y-16792D01*
X18335Y-16762D01*
X18317Y-16728D01*
X18305Y-16691D01*
X18301Y-16652D01*
X18304Y-16614D01*
X18315Y-16577D01*
X18332Y-16542D01*
X18357Y-16512D01*
X18386Y-16486D01*
X18420Y-16467D01*
X18458Y-16455D01*
X18496Y-16451D01*
X18534Y-16454D01*
X18572Y-16464D01*
X18607Y-16482D01*
X18637Y-16506D01*
X18663Y-16535D01*
X18682Y-16569D01*
X18695Y-16606D01*
X18699Y-16645D01*
X18700Y-16650D01*
X18300Y-16450D02*
X18700Y-16850D01*
X18700Y-16450D02*
X18300Y-16850D01*
X18700Y-19650D02*
X18696Y-19688D01*
X18684Y-19726D01*
X18666Y-19760D01*
X18641Y-19790D01*
X18611Y-19815D01*
X18577Y-19834D01*
X18540Y-19845D01*
X18501Y-19849D01*
X18463Y-19846D01*
X18426Y-19835D01*
X18391Y-19817D01*
X18361Y-19792D01*
X18335Y-19762D01*
X18317Y-19728D01*
X18305Y-19691D01*
X18301Y-19652D01*
X18304Y-19614D01*
X18315Y-19577D01*
X18332Y-19542D01*
X18357Y-19512D01*
X18386Y-19486D01*
X18420Y-19467D01*
X18458Y-19455D01*
X18496Y-19451D01*
X18534Y-19454D01*
X18572Y-19464D01*
X18607Y-19482D01*
X18637Y-19506D01*
X18663Y-19535D01*
X18682Y-19569D01*
X18695Y-19606D01*
X18699Y-19645D01*
X18700Y-19650D01*
X18300Y-19450D02*
X18700Y-19850D01*
X18700Y-19450D02*
X18300Y-19850D01*
X19700Y-16650D02*
X19696Y-16688D01*
X19684Y-16726D01*
X19666Y-16760D01*
X19641Y-16790D01*
X19611Y-16815D01*
X19577Y-16834D01*
X19540Y-16845D01*
X19501Y-16849D01*
X19463Y-16846D01*
X19426Y-16835D01*
X19391Y-16817D01*
X19361Y-16792D01*
X19335Y-16762D01*
X19317Y-16728D01*
X19305Y-16691D01*
X19301Y-16652D01*
X19304Y-16614D01*
X19315Y-16577D01*
X19332Y-16542D01*
X19357Y-16512D01*
X19386Y-16486D01*
X19420Y-16467D01*
X19458Y-16455D01*
X19496Y-16451D01*
X19534Y-16454D01*
X19572Y-16464D01*
X19607Y-16482D01*
X19637Y-16506D01*
X19663Y-16535D01*
X19682Y-16569D01*
X19695Y-16606D01*
X19699Y-16645D01*
X19700Y-16650D01*
X19300Y-16450D02*
X19700Y-16850D01*
X19700Y-16450D02*
X19300Y-16850D01*
X19700Y-19650D02*
X19696Y-19688D01*
X19684Y-19726D01*
X19666Y-19760D01*
X19641Y-19790D01*
X19611Y-19815D01*
X19577Y-19834D01*
X19540Y-19845D01*
X19501Y-19849D01*
X19463Y-19846D01*
X19426Y-19835D01*
X19391Y-19817D01*
X19361Y-19792D01*
X19335Y-19762D01*
X19317Y-19728D01*
X19305Y-19691D01*
X19301Y-19652D01*
X19304Y-19614D01*
X19315Y-19577D01*
X19332Y-19542D01*
X19357Y-19512D01*
X19386Y-19486D01*
X19420Y-19467D01*
X19458Y-19455D01*
X19496Y-19451D01*
X19534Y-19454D01*
X19572Y-19464D01*
X19607Y-19482D01*
X19637Y-19506D01*
X19663Y-19535D01*
X19682Y-19569D01*
X19695Y-19606D01*
X19699Y-19645D01*
X19700Y-19650D01*
X19300Y-19450D02*
X19700Y-19850D01*
X19700Y-19450D02*
X19300Y-19850D01*
X20150Y-11800D02*
X20146Y-11838D01*
X20134Y-11876D01*
X20116Y-11910D01*
X20091Y-11940D01*
X20061Y-11965D01*
X20027Y-11984D01*
X19990Y-11995D01*
X19951Y-11999D01*
X19913Y-11996D01*
X19876Y-11985D01*
X19841Y-11967D01*
X19811Y-11942D01*
X19785Y-11912D01*
X19767Y-11878D01*
X19755Y-11841D01*
X19751Y-11802D01*
X19754Y-11764D01*
X19765Y-11727D01*
X19782Y-11692D01*
X19807Y-11662D01*
X19836Y-11636D01*
X19870Y-11617D01*
X19908Y-11605D01*
X19946Y-11601D01*
X19984Y-11604D01*
X20022Y-11614D01*
X20057Y-11632D01*
X20087Y-11656D01*
X20113Y-11685D01*
X20132Y-11719D01*
X20145Y-11756D01*
X20149Y-11795D01*
X20150Y-11800D01*
X19750Y-11600D02*
X20150Y-12000D01*
X20150Y-11600D02*
X19750Y-12000D01*
X20700Y-16650D02*
X20696Y-16688D01*
X20684Y-16726D01*
X20666Y-16760D01*
X20641Y-16790D01*
X20611Y-16815D01*
X20577Y-16834D01*
X20540Y-16845D01*
X20501Y-16849D01*
X20463Y-16846D01*
X20426Y-16835D01*
X20391Y-16817D01*
X20361Y-16792D01*
X20335Y-16762D01*
X20317Y-16728D01*
X20305Y-16691D01*
X20301Y-16652D01*
X20304Y-16614D01*
X20315Y-16577D01*
X20332Y-16542D01*
X20357Y-16512D01*
X20386Y-16486D01*
X20420Y-16467D01*
X20458Y-16455D01*
X20496Y-16451D01*
X20534Y-16454D01*
X20572Y-16464D01*
X20607Y-16482D01*
X20637Y-16506D01*
X20663Y-16535D01*
X20682Y-16569D01*
X20695Y-16606D01*
X20699Y-16645D01*
X20700Y-16650D01*
X20300Y-16450D02*
X20700Y-16850D01*
X20700Y-16450D02*
X20300Y-16850D01*
X20700Y-19650D02*
X20696Y-19688D01*
X20684Y-19726D01*
X20666Y-19760D01*
X20641Y-19790D01*
X20611Y-19815D01*
X20577Y-19834D01*
X20540Y-19845D01*
X20501Y-19849D01*
X20463Y-19846D01*
X20426Y-19835D01*
X20391Y-19817D01*
X20361Y-19792D01*
X20335Y-19762D01*
X20317Y-19728D01*
X20305Y-19691D01*
X20301Y-19652D01*
X20304Y-19614D01*
X20315Y-19577D01*
X20332Y-19542D01*
X20357Y-19512D01*
X20386Y-19486D01*
X20420Y-19467D01*
X20458Y-19455D01*
X20496Y-19451D01*
X20534Y-19454D01*
X20572Y-19464D01*
X20607Y-19482D01*
X20637Y-19506D01*
X20663Y-19535D01*
X20682Y-19569D01*
X20695Y-19606D01*
X20699Y-19645D01*
X20700Y-19650D01*
X20300Y-19450D02*
X20700Y-19850D01*
X20700Y-19450D02*
X20300Y-19850D01*
X21150Y-11800D02*
X21146Y-11838D01*
X21134Y-11876D01*
X21116Y-11910D01*
X21091Y-11940D01*
X21061Y-11965D01*
X21027Y-11984D01*
X20990Y-11995D01*
X20951Y-11999D01*
X20913Y-11996D01*
X20876Y-11985D01*
X20841Y-11967D01*
X20811Y-11942D01*
X20785Y-11912D01*
X20767Y-11878D01*
X20755Y-11841D01*
X20751Y-11802D01*
X20754Y-11764D01*
X20765Y-11727D01*
X20782Y-11692D01*
X20807Y-11662D01*
X20836Y-11636D01*
X20870Y-11617D01*
X20908Y-11605D01*
X20946Y-11601D01*
X20984Y-11604D01*
X21022Y-11614D01*
X21057Y-11632D01*
X21087Y-11656D01*
X21113Y-11685D01*
X21132Y-11719D01*
X21145Y-11756D01*
X21149Y-11795D01*
X21150Y-11800D01*
X20750Y-11600D02*
X21150Y-12000D01*
X21150Y-11600D02*
X20750Y-12000D01*
X21700Y-16650D02*
X21696Y-16688D01*
X21684Y-16726D01*
X21666Y-16760D01*
X21641Y-16790D01*
X21611Y-16815D01*
X21577Y-16834D01*
X21540Y-16845D01*
X21501Y-16849D01*
X21463Y-16846D01*
X21426Y-16835D01*
X21391Y-16817D01*
X21361Y-16792D01*
X21335Y-16762D01*
X21317Y-16728D01*
X21305Y-16691D01*
X21301Y-16652D01*
X21304Y-16614D01*
X21315Y-16577D01*
X21332Y-16542D01*
X21357Y-16512D01*
X21386Y-16486D01*
X21420Y-16467D01*
X21458Y-16455D01*
X21496Y-16451D01*
X21534Y-16454D01*
X21572Y-16464D01*
X21607Y-16482D01*
X21637Y-16506D01*
X21663Y-16535D01*
X21682Y-16569D01*
X21695Y-16606D01*
X21699Y-16645D01*
X21700Y-16650D01*
X21300Y-16450D02*
X21700Y-16850D01*
X21700Y-16450D02*
X21300Y-16850D01*
X21700Y-19650D02*
X21696Y-19688D01*
X21684Y-19726D01*
X21666Y-19760D01*
X21641Y-19790D01*
X21611Y-19815D01*
X21577Y-19834D01*
X21540Y-19845D01*
X21501Y-19849D01*
X21463Y-19846D01*
X21426Y-19835D01*
X21391Y-19817D01*
X21361Y-19792D01*
X21335Y-19762D01*
X21317Y-19728D01*
X21305Y-19691D01*
X21301Y-19652D01*
X21304Y-19614D01*
X21315Y-19577D01*
X21332Y-19542D01*
X21357Y-19512D01*
X21386Y-19486D01*
X21420Y-19467D01*
X21458Y-19455D01*
X21496Y-19451D01*
X21534Y-19454D01*
X21572Y-19464D01*
X21607Y-19482D01*
X21637Y-19506D01*
X21663Y-19535D01*
X21682Y-19569D01*
X21695Y-19606D01*
X21699Y-19645D01*
X21700Y-19650D01*
X21300Y-19450D02*
X21700Y-19850D01*
X21700Y-19450D02*
X21300Y-19850D01*
X22150Y-11800D02*
X22146Y-11838D01*
X22134Y-11876D01*
X22116Y-11910D01*
X22091Y-11940D01*
X22061Y-11965D01*
X22027Y-11984D01*
X21990Y-11995D01*
X21951Y-11999D01*
X21913Y-11996D01*
X21876Y-11985D01*
X21841Y-11967D01*
X21811Y-11942D01*
X21785Y-11912D01*
X21767Y-11878D01*
X21755Y-11841D01*
X21751Y-11802D01*
X21754Y-11764D01*
X21765Y-11727D01*
X21782Y-11692D01*
X21807Y-11662D01*
X21836Y-11636D01*
X21870Y-11617D01*
X21908Y-11605D01*
X21946Y-11601D01*
X21984Y-11604D01*
X22022Y-11614D01*
X22057Y-11632D01*
X22087Y-11656D01*
X22113Y-11685D01*
X22132Y-11719D01*
X22145Y-11756D01*
X22149Y-11795D01*
X22150Y-11800D01*
X21750Y-11600D02*
X22150Y-12000D01*
X22150Y-11600D02*
X21750Y-12000D01*
X22700Y-16650D02*
X22696Y-16688D01*
X22684Y-16726D01*
X22666Y-16760D01*
X22641Y-16790D01*
X22611Y-16815D01*
X22577Y-16834D01*
X22540Y-16845D01*
X22501Y-16849D01*
X22463Y-16846D01*
X22426Y-16835D01*
X22391Y-16817D01*
X22361Y-16792D01*
X22335Y-16762D01*
X22317Y-16728D01*
X22305Y-16691D01*
X22301Y-16652D01*
X22304Y-16614D01*
X22315Y-16577D01*
X22332Y-16542D01*
X22357Y-16512D01*
X22386Y-16486D01*
X22420Y-16467D01*
X22458Y-16455D01*
X22496Y-16451D01*
X22534Y-16454D01*
X22572Y-16464D01*
X22607Y-16482D01*
X22637Y-16506D01*
X22663Y-16535D01*
X22682Y-16569D01*
X22695Y-16606D01*
X22699Y-16645D01*
X22700Y-16650D01*
X22300Y-16450D02*
X22700Y-16850D01*
X22700Y-16450D02*
X22300Y-16850D01*
X22700Y-19650D02*
X22696Y-19688D01*
X22684Y-19726D01*
X22666Y-19760D01*
X22641Y-19790D01*
X22611Y-19815D01*
X22577Y-19834D01*
X22540Y-19845D01*
X22501Y-19849D01*
X22463Y-19846D01*
X22426Y-19835D01*
X22391Y-19817D01*
X22361Y-19792D01*
X22335Y-19762D01*
X22317Y-19728D01*
X22305Y-19691D01*
X22301Y-19652D01*
X22304Y-19614D01*
X22315Y-19577D01*
X22332Y-19542D01*
X22357Y-19512D01*
X22386Y-19486D01*
X22420Y-19467D01*
X22458Y-19455D01*
X22496Y-19451D01*
X22534Y-19454D01*
X22572Y-19464D01*
X22607Y-19482D01*
X22637Y-19506D01*
X22663Y-19535D01*
X22682Y-19569D01*
X22695Y-19606D01*
X22699Y-19645D01*
X22700Y-19650D01*
X22300Y-19450D02*
X22700Y-19850D01*
X22700Y-19450D02*
X22300Y-19850D01*
X23150Y-11800D02*
X23146Y-11838D01*
X23134Y-11876D01*
X23116Y-11910D01*
X23091Y-11940D01*
X23061Y-11965D01*
X23027Y-11984D01*
X22990Y-11995D01*
X22951Y-11999D01*
X22913Y-11996D01*
X22876Y-11985D01*
X22841Y-11967D01*
X22811Y-11942D01*
X22785Y-11912D01*
X22767Y-11878D01*
X22755Y-11841D01*
X22751Y-11802D01*
X22754Y-11764D01*
X22765Y-11727D01*
X22782Y-11692D01*
X22807Y-11662D01*
X22836Y-11636D01*
X22870Y-11617D01*
X22908Y-11605D01*
X22946Y-11601D01*
X22984Y-11604D01*
X23022Y-11614D01*
X23057Y-11632D01*
X23087Y-11656D01*
X23113Y-11685D01*
X23132Y-11719D01*
X23145Y-11756D01*
X23149Y-11795D01*
X23150Y-11800D01*
X22750Y-11600D02*
X23150Y-12000D01*
X23150Y-11600D02*
X22750Y-12000D01*
X23700Y-16650D02*
X23696Y-16688D01*
X23684Y-16726D01*
X23666Y-16760D01*
X23641Y-16790D01*
X23611Y-16815D01*
X23577Y-16834D01*
X23540Y-16845D01*
X23501Y-16849D01*
X23463Y-16846D01*
X23426Y-16835D01*
X23391Y-16817D01*
X23361Y-16792D01*
X23335Y-16762D01*
X23317Y-16728D01*
X23305Y-16691D01*
X23301Y-16652D01*
X23304Y-16614D01*
X23315Y-16577D01*
X23332Y-16542D01*
X23357Y-16512D01*
X23386Y-16486D01*
X23420Y-16467D01*
X23458Y-16455D01*
X23496Y-16451D01*
X23534Y-16454D01*
X23572Y-16464D01*
X23607Y-16482D01*
X23637Y-16506D01*
X23663Y-16535D01*
X23682Y-16569D01*
X23695Y-16606D01*
X23699Y-16645D01*
X23700Y-16650D01*
X23300Y-16450D02*
X23700Y-16850D01*
X23700Y-16450D02*
X23300Y-16850D01*
X23700Y-19650D02*
X23696Y-19688D01*
X23684Y-19726D01*
X23666Y-19760D01*
X23641Y-19790D01*
X23611Y-19815D01*
X23577Y-19834D01*
X23540Y-19845D01*
X23501Y-19849D01*
X23463Y-19846D01*
X23426Y-19835D01*
X23391Y-19817D01*
X23361Y-19792D01*
X23335Y-19762D01*
X23317Y-19728D01*
X23305Y-19691D01*
X23301Y-19652D01*
X23304Y-19614D01*
X23315Y-19577D01*
X23332Y-19542D01*
X23357Y-19512D01*
X23386Y-19486D01*
X23420Y-19467D01*
X23458Y-19455D01*
X23496Y-19451D01*
X23534Y-19454D01*
X23572Y-19464D01*
X23607Y-19482D01*
X23637Y-19506D01*
X23663Y-19535D01*
X23682Y-19569D01*
X23695Y-19606D01*
X23699Y-19645D01*
X23700Y-19650D01*
X23300Y-19450D02*
X23700Y-19850D01*
X23700Y-19450D02*
X23300Y-19850D01*
X24150Y-11800D02*
X24146Y-11838D01*
X24134Y-11876D01*
X24116Y-11910D01*
X24091Y-11940D01*
X24061Y-11965D01*
X24027Y-11984D01*
X23990Y-11995D01*
X23951Y-11999D01*
X23913Y-11996D01*
X23876Y-11985D01*
X23841Y-11967D01*
X23811Y-11942D01*
X23785Y-11912D01*
X23767Y-11878D01*
X23755Y-11841D01*
X23751Y-11802D01*
X23754Y-11764D01*
X23765Y-11727D01*
X23782Y-11692D01*
X23807Y-11662D01*
X23836Y-11636D01*
X23870Y-11617D01*
X23908Y-11605D01*
X23946Y-11601D01*
X23984Y-11604D01*
X24022Y-11614D01*
X24057Y-11632D01*
X24087Y-11656D01*
X24113Y-11685D01*
X24132Y-11719D01*
X24145Y-11756D01*
X24149Y-11795D01*
X24150Y-11800D01*
X23750Y-11600D02*
X24150Y-12000D01*
X24150Y-11600D02*
X23750Y-12000D01*
X24700Y-16650D02*
X24696Y-16688D01*
X24684Y-16726D01*
X24666Y-16760D01*
X24641Y-16790D01*
X24611Y-16815D01*
X24577Y-16834D01*
X24540Y-16845D01*
X24501Y-16849D01*
X24463Y-16846D01*
X24426Y-16835D01*
X24391Y-16817D01*
X24361Y-16792D01*
X24335Y-16762D01*
X24317Y-16728D01*
X24305Y-16691D01*
X24301Y-16652D01*
X24304Y-16614D01*
X24315Y-16577D01*
X24332Y-16542D01*
X24357Y-16512D01*
X24386Y-16486D01*
X24420Y-16467D01*
X24458Y-16455D01*
X24496Y-16451D01*
X24534Y-16454D01*
X24572Y-16464D01*
X24607Y-16482D01*
X24637Y-16506D01*
X24663Y-16535D01*
X24682Y-16569D01*
X24695Y-16606D01*
X24699Y-16645D01*
X24700Y-16650D01*
X24300Y-16450D02*
X24700Y-16850D01*
X24700Y-16450D02*
X24300Y-16850D01*
X24700Y-19650D02*
X24696Y-19688D01*
X24684Y-19726D01*
X24666Y-19760D01*
X24641Y-19790D01*
X24611Y-19815D01*
X24577Y-19834D01*
X24540Y-19845D01*
X24501Y-19849D01*
X24463Y-19846D01*
X24426Y-19835D01*
X24391Y-19817D01*
X24361Y-19792D01*
X24335Y-19762D01*
X24317Y-19728D01*
X24305Y-19691D01*
X24301Y-19652D01*
X24304Y-19614D01*
X24315Y-19577D01*
X24332Y-19542D01*
X24357Y-19512D01*
X24386Y-19486D01*
X24420Y-19467D01*
X24458Y-19455D01*
X24496Y-19451D01*
X24534Y-19454D01*
X24572Y-19464D01*
X24607Y-19482D01*
X24637Y-19506D01*
X24663Y-19535D01*
X24682Y-19569D01*
X24695Y-19606D01*
X24699Y-19645D01*
X24700Y-19650D01*
X24300Y-19450D02*
X24700Y-19850D01*
X24700Y-19450D02*
X24300Y-19850D01*
X25150Y-11800D02*
X25146Y-11838D01*
X25134Y-11876D01*
X25116Y-11910D01*
X25091Y-11940D01*
X25061Y-11965D01*
X25027Y-11984D01*
X24990Y-11995D01*
X24951Y-11999D01*
X24913Y-11996D01*
X24876Y-11985D01*
X24841Y-11967D01*
X24811Y-11942D01*
X24785Y-11912D01*
X24767Y-11878D01*
X24755Y-11841D01*
X24751Y-11802D01*
X24754Y-11764D01*
X24765Y-11727D01*
X24782Y-11692D01*
X24807Y-11662D01*
X24836Y-11636D01*
X24870Y-11617D01*
X24908Y-11605D01*
X24946Y-11601D01*
X24984Y-11604D01*
X25022Y-11614D01*
X25057Y-11632D01*
X25087Y-11656D01*
X25113Y-11685D01*
X25132Y-11719D01*
X25145Y-11756D01*
X25149Y-11795D01*
X25150Y-11800D01*
X24750Y-11600D02*
X25150Y-12000D01*
X25150Y-11600D02*
X24750Y-12000D01*
X25700Y-16650D02*
X25696Y-16688D01*
X25684Y-16726D01*
X25666Y-16760D01*
X25641Y-16790D01*
X25611Y-16815D01*
X25577Y-16834D01*
X25540Y-16845D01*
X25501Y-16849D01*
X25463Y-16846D01*
X25426Y-16835D01*
X25391Y-16817D01*
X25361Y-16792D01*
X25335Y-16762D01*
X25317Y-16728D01*
X25305Y-16691D01*
X25301Y-16652D01*
X25304Y-16614D01*
X25315Y-16577D01*
X25332Y-16542D01*
X25357Y-16512D01*
X25386Y-16486D01*
X25420Y-16467D01*
X25458Y-16455D01*
X25496Y-16451D01*
X25534Y-16454D01*
X25572Y-16464D01*
X25607Y-16482D01*
X25637Y-16506D01*
X25663Y-16535D01*
X25682Y-16569D01*
X25695Y-16606D01*
X25699Y-16645D01*
X25700Y-16650D01*
X25300Y-16450D02*
X25700Y-16850D01*
X25700Y-16450D02*
X25300Y-16850D01*
X25700Y-19650D02*
X25696Y-19688D01*
X25684Y-19726D01*
X25666Y-19760D01*
X25641Y-19790D01*
X25611Y-19815D01*
X25577Y-19834D01*
X25540Y-19845D01*
X25501Y-19849D01*
X25463Y-19846D01*
X25426Y-19835D01*
X25391Y-19817D01*
X25361Y-19792D01*
X25335Y-19762D01*
X25317Y-19728D01*
X25305Y-19691D01*
X25301Y-19652D01*
X25304Y-19614D01*
X25315Y-19577D01*
X25332Y-19542D01*
X25357Y-19512D01*
X25386Y-19486D01*
X25420Y-19467D01*
X25458Y-19455D01*
X25496Y-19451D01*
X25534Y-19454D01*
X25572Y-19464D01*
X25607Y-19482D01*
X25637Y-19506D01*
X25663Y-19535D01*
X25682Y-19569D01*
X25695Y-19606D01*
X25699Y-19645D01*
X25700Y-19650D01*
X25300Y-19450D02*
X25700Y-19850D01*
X25700Y-19450D02*
X25300Y-19850D01*
X26700Y-16650D02*
X26696Y-16688D01*
X26684Y-16726D01*
X26666Y-16760D01*
X26641Y-16790D01*
X26611Y-16815D01*
X26577Y-16834D01*
X26540Y-16845D01*
X26501Y-16849D01*
X26463Y-16846D01*
X26426Y-16835D01*
X26391Y-16817D01*
X26361Y-16792D01*
X26335Y-16762D01*
X26317Y-16728D01*
X26305Y-16691D01*
X26301Y-16652D01*
X26304Y-16614D01*
X26315Y-16577D01*
X26332Y-16542D01*
X26357Y-16512D01*
X26386Y-16486D01*
X26420Y-16467D01*
X26458Y-16455D01*
X26496Y-16451D01*
X26534Y-16454D01*
X26572Y-16464D01*
X26607Y-16482D01*
X26637Y-16506D01*
X26663Y-16535D01*
X26682Y-16569D01*
X26695Y-16606D01*
X26699Y-16645D01*
X26700Y-16650D01*
X26300Y-16450D02*
X26700Y-16850D01*
X26700Y-16450D02*
X26300Y-16850D01*
X26700Y-19650D02*
X26696Y-19688D01*
X26684Y-19726D01*
X26666Y-19760D01*
X26641Y-19790D01*
X26611Y-19815D01*
X26577Y-19834D01*
X26540Y-19845D01*
X26501Y-19849D01*
X26463Y-19846D01*
X26426Y-19835D01*
X26391Y-19817D01*
X26361Y-19792D01*
X26335Y-19762D01*
X26317Y-19728D01*
X26305Y-19691D01*
X26301Y-19652D01*
X26304Y-19614D01*
X26315Y-19577D01*
X26332Y-19542D01*
X26357Y-19512D01*
X26386Y-19486D01*
X26420Y-19467D01*
X26458Y-19455D01*
X26496Y-19451D01*
X26534Y-19454D01*
X26572Y-19464D01*
X26607Y-19482D01*
X26637Y-19506D01*
X26663Y-19535D01*
X26682Y-19569D01*
X26695Y-19606D01*
X26699Y-19645D01*
X26700Y-19650D01*
X26300Y-19450D02*
X26700Y-19850D01*
X26700Y-19450D02*
X26300Y-19850D01*
X26725Y-12350D02*
X26721Y-12388D01*
X26709Y-12426D01*
X26691Y-12460D01*
X26666Y-12490D01*
X26636Y-12515D01*
X26602Y-12534D01*
X26565Y-12545D01*
X26526Y-12549D01*
X26488Y-12546D01*
X26451Y-12535D01*
X26416Y-12517D01*
X26386Y-12492D01*
X26360Y-12462D01*
X26342Y-12428D01*
X26330Y-12391D01*
X26326Y-12352D01*
X26329Y-12314D01*
X26340Y-12277D01*
X26357Y-12242D01*
X26382Y-12212D01*
X26411Y-12186D01*
X26445Y-12167D01*
X26483Y-12155D01*
X26521Y-12151D01*
X26559Y-12154D01*
X26597Y-12164D01*
X26632Y-12182D01*
X26662Y-12206D01*
X26688Y-12235D01*
X26707Y-12269D01*
X26720Y-12306D01*
X26724Y-12345D01*
X26725Y-12350D01*
X26325Y-12150D02*
X26725Y-12550D01*
X26725Y-12150D02*
X26325Y-12550D01*
X27100Y-13850D02*
X27096Y-13888D01*
X27084Y-13926D01*
X27066Y-13960D01*
X27041Y-13990D01*
X27011Y-14015D01*
X26977Y-14034D01*
X26940Y-14045D01*
X26901Y-14049D01*
X26863Y-14046D01*
X26826Y-14035D01*
X26791Y-14017D01*
X26761Y-13992D01*
X26735Y-13962D01*
X26717Y-13928D01*
X26705Y-13891D01*
X26701Y-13852D01*
X26704Y-13814D01*
X26715Y-13777D01*
X26732Y-13742D01*
X26757Y-13712D01*
X26786Y-13686D01*
X26820Y-13667D01*
X26858Y-13655D01*
X26896Y-13651D01*
X26934Y-13654D01*
X26972Y-13664D01*
X27007Y-13682D01*
X27037Y-13706D01*
X27063Y-13735D01*
X27082Y-13769D01*
X27095Y-13806D01*
X27099Y-13845D01*
X27100Y-13850D01*
X26700Y-13650D02*
X27100Y-14050D01*
X27100Y-13650D02*
X26700Y-14050D01*
X27700Y-16650D02*
X27696Y-16688D01*
X27684Y-16726D01*
X27666Y-16760D01*
X27641Y-16790D01*
X27611Y-16815D01*
X27577Y-16834D01*
X27540Y-16845D01*
X27501Y-16849D01*
X27463Y-16846D01*
X27426Y-16835D01*
X27391Y-16817D01*
X27361Y-16792D01*
X27335Y-16762D01*
X27317Y-16728D01*
X27305Y-16691D01*
X27301Y-16652D01*
X27304Y-16614D01*
X27315Y-16577D01*
X27332Y-16542D01*
X27357Y-16512D01*
X27386Y-16486D01*
X27420Y-16467D01*
X27458Y-16455D01*
X27496Y-16451D01*
X27534Y-16454D01*
X27572Y-16464D01*
X27607Y-16482D01*
X27637Y-16506D01*
X27663Y-16535D01*
X27682Y-16569D01*
X27695Y-16606D01*
X27699Y-16645D01*
X27700Y-16650D01*
X27300Y-16450D02*
X27700Y-16850D01*
X27700Y-16450D02*
X27300Y-16850D01*
X27700Y-19650D02*
X27696Y-19688D01*
X27684Y-19726D01*
X27666Y-19760D01*
X27641Y-19790D01*
X27611Y-19815D01*
X27577Y-19834D01*
X27540Y-19845D01*
X27501Y-19849D01*
X27463Y-19846D01*
X27426Y-19835D01*
X27391Y-19817D01*
X27361Y-19792D01*
X27335Y-19762D01*
X27317Y-19728D01*
X27305Y-19691D01*
X27301Y-19652D01*
X27304Y-19614D01*
X27315Y-19577D01*
X27332Y-19542D01*
X27357Y-19512D01*
X27386Y-19486D01*
X27420Y-19467D01*
X27458Y-19455D01*
X27496Y-19451D01*
X27534Y-19454D01*
X27572Y-19464D01*
X27607Y-19482D01*
X27637Y-19506D01*
X27663Y-19535D01*
X27682Y-19569D01*
X27695Y-19606D01*
X27699Y-19645D01*
X27700Y-19650D01*
X27300Y-19450D02*
X27700Y-19850D01*
X27700Y-19450D02*
X27300Y-19850D01*
X28100Y-13850D02*
X28096Y-13888D01*
X28084Y-13926D01*
X28066Y-13960D01*
X28041Y-13990D01*
X28011Y-14015D01*
X27977Y-14034D01*
X27940Y-14045D01*
X27901Y-14049D01*
X27863Y-14046D01*
X27826Y-14035D01*
X27791Y-14017D01*
X27761Y-13992D01*
X27735Y-13962D01*
X27717Y-13928D01*
X27705Y-13891D01*
X27701Y-13852D01*
X27704Y-13814D01*
X27715Y-13777D01*
X27732Y-13742D01*
X27757Y-13712D01*
X27786Y-13686D01*
X27820Y-13667D01*
X27858Y-13655D01*
X27896Y-13651D01*
X27934Y-13654D01*
X27972Y-13664D01*
X28007Y-13682D01*
X28037Y-13706D01*
X28063Y-13735D01*
X28082Y-13769D01*
X28095Y-13806D01*
X28099Y-13845D01*
X28100Y-13850D01*
X27700Y-13650D02*
X28100Y-14050D01*
X28100Y-13650D02*
X27700Y-14050D01*
X28475Y-12350D02*
X28471Y-12388D01*
X28459Y-12426D01*
X28441Y-12460D01*
X28416Y-12490D01*
X28386Y-12515D01*
X28352Y-12534D01*
X28315Y-12545D01*
X28276Y-12549D01*
X28238Y-12546D01*
X28201Y-12535D01*
X28166Y-12517D01*
X28136Y-12492D01*
X28110Y-12462D01*
X28092Y-12428D01*
X28080Y-12391D01*
X28076Y-12352D01*
X28079Y-12314D01*
X28090Y-12277D01*
X28107Y-12242D01*
X28132Y-12212D01*
X28161Y-12186D01*
X28195Y-12167D01*
X28233Y-12155D01*
X28271Y-12151D01*
X28309Y-12154D01*
X28347Y-12164D01*
X28382Y-12182D01*
X28412Y-12206D01*
X28438Y-12235D01*
X28457Y-12269D01*
X28470Y-12306D01*
X28474Y-12345D01*
X28475Y-12350D01*
X28075Y-12150D02*
X28475Y-12550D01*
X28475Y-12150D02*
X28075Y-12550D01*
X28700Y-16650D02*
X28696Y-16688D01*
X28684Y-16726D01*
X28666Y-16760D01*
X28641Y-16790D01*
X28611Y-16815D01*
X28577Y-16834D01*
X28540Y-16845D01*
X28501Y-16849D01*
X28463Y-16846D01*
X28426Y-16835D01*
X28391Y-16817D01*
X28361Y-16792D01*
X28335Y-16762D01*
X28317Y-16728D01*
X28305Y-16691D01*
X28301Y-16652D01*
X28304Y-16614D01*
X28315Y-16577D01*
X28332Y-16542D01*
X28357Y-16512D01*
X28386Y-16486D01*
X28420Y-16467D01*
X28458Y-16455D01*
X28496Y-16451D01*
X28534Y-16454D01*
X28572Y-16464D01*
X28607Y-16482D01*
X28637Y-16506D01*
X28663Y-16535D01*
X28682Y-16569D01*
X28695Y-16606D01*
X28699Y-16645D01*
X28700Y-16650D01*
X28300Y-16450D02*
X28700Y-16850D01*
X28700Y-16450D02*
X28300Y-16850D01*
X28700Y-19650D02*
X28696Y-19688D01*
X28684Y-19726D01*
X28666Y-19760D01*
X28641Y-19790D01*
X28611Y-19815D01*
X28577Y-19834D01*
X28540Y-19845D01*
X28501Y-19849D01*
X28463Y-19846D01*
X28426Y-19835D01*
X28391Y-19817D01*
X28361Y-19792D01*
X28335Y-19762D01*
X28317Y-19728D01*
X28305Y-19691D01*
X28301Y-19652D01*
X28304Y-19614D01*
X28315Y-19577D01*
X28332Y-19542D01*
X28357Y-19512D01*
X28386Y-19486D01*
X28420Y-19467D01*
X28458Y-19455D01*
X28496Y-19451D01*
X28534Y-19454D01*
X28572Y-19464D01*
X28607Y-19482D01*
X28637Y-19506D01*
X28663Y-19535D01*
X28682Y-19569D01*
X28695Y-19606D01*
X28699Y-19645D01*
X28700Y-19650D01*
X28300Y-19450D02*
X28700Y-19850D01*
X28700Y-19450D02*
X28300Y-19850D01*
X29700Y-16650D02*
X29696Y-16688D01*
X29684Y-16726D01*
X29666Y-16760D01*
X29641Y-16790D01*
X29611Y-16815D01*
X29577Y-16834D01*
X29540Y-16845D01*
X29501Y-16849D01*
X29463Y-16846D01*
X29426Y-16835D01*
X29391Y-16817D01*
X29361Y-16792D01*
X29335Y-16762D01*
X29317Y-16728D01*
X29305Y-16691D01*
X29301Y-16652D01*
X29304Y-16614D01*
X29315Y-16577D01*
X29332Y-16542D01*
X29357Y-16512D01*
X29386Y-16486D01*
X29420Y-16467D01*
X29458Y-16455D01*
X29496Y-16451D01*
X29534Y-16454D01*
X29572Y-16464D01*
X29607Y-16482D01*
X29637Y-16506D01*
X29663Y-16535D01*
X29682Y-16569D01*
X29695Y-16606D01*
X29699Y-16645D01*
X29700Y-16650D01*
X29300Y-16450D02*
X29700Y-16850D01*
X29700Y-16450D02*
X29300Y-16850D01*
X29700Y-19650D02*
X29696Y-19688D01*
X29684Y-19726D01*
X29666Y-19760D01*
X29641Y-19790D01*
X29611Y-19815D01*
X29577Y-19834D01*
X29540Y-19845D01*
X29501Y-19849D01*
X29463Y-19846D01*
X29426Y-19835D01*
X29391Y-19817D01*
X29361Y-19792D01*
X29335Y-19762D01*
X29317Y-19728D01*
X29305Y-19691D01*
X29301Y-19652D01*
X29304Y-19614D01*
X29315Y-19577D01*
X29332Y-19542D01*
X29357Y-19512D01*
X29386Y-19486D01*
X29420Y-19467D01*
X29458Y-19455D01*
X29496Y-19451D01*
X29534Y-19454D01*
X29572Y-19464D01*
X29607Y-19482D01*
X29637Y-19506D01*
X29663Y-19535D01*
X29682Y-19569D01*
X29695Y-19606D01*
X29699Y-19645D01*
X29700Y-19650D01*
X29300Y-19450D02*
X29700Y-19850D01*
X29700Y-19450D02*
X29300Y-19850D01*
X30050Y-11700D02*
X30046Y-11738D01*
X30034Y-11776D01*
X30016Y-11810D01*
X29991Y-11840D01*
X29961Y-11865D01*
X29927Y-11884D01*
X29890Y-11895D01*
X29851Y-11899D01*
X29813Y-11896D01*
X29776Y-11885D01*
X29741Y-11867D01*
X29711Y-11842D01*
X29685Y-11812D01*
X29667Y-11778D01*
X29655Y-11741D01*
X29651Y-11702D01*
X29654Y-11664D01*
X29665Y-11627D01*
X29682Y-11592D01*
X29707Y-11562D01*
X29736Y-11536D01*
X29770Y-11517D01*
X29808Y-11505D01*
X29846Y-11501D01*
X29884Y-11504D01*
X29922Y-11514D01*
X29957Y-11532D01*
X29987Y-11556D01*
X30013Y-11585D01*
X30032Y-11619D01*
X30045Y-11656D01*
X30049Y-11695D01*
X30050Y-11700D01*
X29650Y-11500D02*
X30050Y-11900D01*
X30050Y-11500D02*
X29650Y-11900D01*
X30050Y-12700D02*
X30046Y-12738D01*
X30034Y-12776D01*
X30016Y-12810D01*
X29991Y-12840D01*
X29961Y-12865D01*
X29927Y-12884D01*
X29890Y-12895D01*
X29851Y-12899D01*
X29813Y-12896D01*
X29776Y-12885D01*
X29741Y-12867D01*
X29711Y-12842D01*
X29685Y-12812D01*
X29667Y-12778D01*
X29655Y-12741D01*
X29651Y-12702D01*
X29654Y-12664D01*
X29665Y-12627D01*
X29682Y-12592D01*
X29707Y-12562D01*
X29736Y-12536D01*
X29770Y-12517D01*
X29808Y-12505D01*
X29846Y-12501D01*
X29884Y-12504D01*
X29922Y-12514D01*
X29957Y-12532D01*
X29987Y-12556D01*
X30013Y-12585D01*
X30032Y-12619D01*
X30045Y-12656D01*
X30049Y-12695D01*
X30050Y-12700D01*
X29650Y-12500D02*
X30050Y-12900D01*
X30050Y-12500D02*
X29650Y-12900D01*
X30050Y-13700D02*
X30046Y-13738D01*
X30034Y-13776D01*
X30016Y-13810D01*
X29991Y-13840D01*
X29961Y-13865D01*
X29927Y-13884D01*
X29890Y-13895D01*
X29851Y-13899D01*
X29813Y-13896D01*
X29776Y-13885D01*
X29741Y-13867D01*
X29711Y-13842D01*
X29685Y-13812D01*
X29667Y-13778D01*
X29655Y-13741D01*
X29651Y-13702D01*
X29654Y-13664D01*
X29665Y-13627D01*
X29682Y-13592D01*
X29707Y-13562D01*
X29736Y-13536D01*
X29770Y-13517D01*
X29808Y-13505D01*
X29846Y-13501D01*
X29884Y-13504D01*
X29922Y-13514D01*
X29957Y-13532D01*
X29987Y-13556D01*
X30013Y-13585D01*
X30032Y-13619D01*
X30045Y-13656D01*
X30049Y-13695D01*
X30050Y-13700D01*
X29650Y-13500D02*
X30050Y-13900D01*
X30050Y-13500D02*
X29650Y-13900D01*
X30050Y-14700D02*
X30046Y-14738D01*
X30034Y-14776D01*
X30016Y-14810D01*
X29991Y-14840D01*
X29961Y-14865D01*
X29927Y-14884D01*
X29890Y-14895D01*
X29851Y-14899D01*
X29813Y-14896D01*
X29776Y-14885D01*
X29741Y-14867D01*
X29711Y-14842D01*
X29685Y-14812D01*
X29667Y-14778D01*
X29655Y-14741D01*
X29651Y-14702D01*
X29654Y-14664D01*
X29665Y-14627D01*
X29682Y-14592D01*
X29707Y-14562D01*
X29736Y-14536D01*
X29770Y-14517D01*
X29808Y-14505D01*
X29846Y-14501D01*
X29884Y-14504D01*
X29922Y-14514D01*
X29957Y-14532D01*
X29987Y-14556D01*
X30013Y-14585D01*
X30032Y-14619D01*
X30045Y-14656D01*
X30049Y-14695D01*
X30050Y-14700D01*
X29650Y-14500D02*
X30050Y-14900D01*
X30050Y-14500D02*
X29650Y-14900D01*
X31475Y-18475D02*
X31471Y-18513D01*
X31459Y-18551D01*
X31441Y-18585D01*
X31416Y-18615D01*
X31386Y-18640D01*
X31352Y-18659D01*
X31315Y-18670D01*
X31276Y-18674D01*
X31238Y-18671D01*
X31201Y-18660D01*
X31166Y-18642D01*
X31136Y-18617D01*
X31110Y-18587D01*
X31092Y-18553D01*
X31080Y-18516D01*
X31076Y-18477D01*
X31079Y-18439D01*
X31090Y-18402D01*
X31107Y-18367D01*
X31132Y-18337D01*
X31161Y-18311D01*
X31195Y-18292D01*
X31233Y-18280D01*
X31271Y-18276D01*
X31309Y-18279D01*
X31347Y-18289D01*
X31382Y-18307D01*
X31412Y-18331D01*
X31438Y-18360D01*
X31457Y-18394D01*
X31470Y-18431D01*
X31474Y-18470D01*
X31475Y-18475D01*
X31075Y-18275D02*
X31475Y-18675D01*
X31475Y-18275D02*
X31075Y-18675D01*
X31475Y-19475D02*
X31471Y-19513D01*
X31459Y-19551D01*
X31441Y-19585D01*
X31416Y-19615D01*
X31386Y-19640D01*
X31352Y-19659D01*
X31315Y-19670D01*
X31276Y-19674D01*
X31238Y-19671D01*
X31201Y-19660D01*
X31166Y-19642D01*
X31136Y-19617D01*
X31110Y-19587D01*
X31092Y-19553D01*
X31080Y-19516D01*
X31076Y-19477D01*
X31079Y-19439D01*
X31090Y-19402D01*
X31107Y-19367D01*
X31132Y-19337D01*
X31161Y-19311D01*
X31195Y-19292D01*
X31233Y-19280D01*
X31271Y-19276D01*
X31309Y-19279D01*
X31347Y-19289D01*
X31382Y-19307D01*
X31412Y-19331D01*
X31438Y-19360D01*
X31457Y-19394D01*
X31470Y-19431D01*
X31474Y-19470D01*
X31475Y-19475D01*
X31075Y-19275D02*
X31475Y-19675D01*
X31475Y-19275D02*
X31075Y-19675D01*
X31475Y-20475D02*
X31471Y-20513D01*
X31459Y-20551D01*
X31441Y-20585D01*
X31416Y-20615D01*
X31386Y-20640D01*
X31352Y-20659D01*
X31315Y-20670D01*
X31276Y-20674D01*
X31238Y-20671D01*
X31201Y-20660D01*
X31166Y-20642D01*
X31136Y-20617D01*
X31110Y-20587D01*
X31092Y-20553D01*
X31080Y-20516D01*
X31076Y-20477D01*
X31079Y-20439D01*
X31090Y-20402D01*
X31107Y-20367D01*
X31132Y-20337D01*
X31161Y-20311D01*
X31195Y-20292D01*
X31233Y-20280D01*
X31271Y-20276D01*
X31309Y-20279D01*
X31347Y-20289D01*
X31382Y-20307D01*
X31412Y-20331D01*
X31438Y-20360D01*
X31457Y-20394D01*
X31470Y-20431D01*
X31474Y-20470D01*
X31475Y-20475D01*
X31075Y-20275D02*
X31475Y-20675D01*
X31475Y-20275D02*
X31075Y-20675D01*
X31475Y-21475D02*
X31471Y-21513D01*
X31459Y-21551D01*
X31441Y-21585D01*
X31416Y-21615D01*
X31386Y-21640D01*
X31352Y-21659D01*
X31315Y-21670D01*
X31276Y-21674D01*
X31238Y-21671D01*
X31201Y-21660D01*
X31166Y-21642D01*
X31136Y-21617D01*
X31110Y-21587D01*
X31092Y-21553D01*
X31080Y-21516D01*
X31076Y-21477D01*
X31079Y-21439D01*
X31090Y-21402D01*
X31107Y-21367D01*
X31132Y-21337D01*
X31161Y-21311D01*
X31195Y-21292D01*
X31233Y-21280D01*
X31271Y-21276D01*
X31309Y-21279D01*
X31347Y-21289D01*
X31382Y-21307D01*
X31412Y-21331D01*
X31438Y-21360D01*
X31457Y-21394D01*
X31470Y-21431D01*
X31474Y-21470D01*
X31475Y-21475D01*
X31075Y-21275D02*
X31475Y-21675D01*
X31475Y-21275D02*
X31075Y-21675D01*
X31720Y-23230D02*
X31716Y-23268D01*
X31704Y-23306D01*
X31686Y-23340D01*
X31661Y-23370D01*
X31631Y-23395D01*
X31597Y-23414D01*
X31560Y-23425D01*
X31521Y-23429D01*
X31483Y-23426D01*
X31446Y-23415D01*
X31411Y-23397D01*
X31381Y-23372D01*
X31355Y-23342D01*
X31337Y-23308D01*
X31325Y-23271D01*
X31321Y-23232D01*
X31324Y-23194D01*
X31335Y-23157D01*
X31352Y-23122D01*
X31377Y-23092D01*
X31406Y-23066D01*
X31440Y-23047D01*
X31478Y-23035D01*
X31516Y-23031D01*
X31554Y-23034D01*
X31592Y-23044D01*
X31627Y-23062D01*
X31657Y-23086D01*
X31683Y-23115D01*
X31702Y-23149D01*
X31715Y-23186D01*
X31719Y-23225D01*
X31720Y-23230D01*
X31320Y-23030D02*
X31720Y-23430D01*
X31720Y-23030D02*
X31320Y-23430D01*
X32720Y-23230D02*
X32716Y-23268D01*
X32704Y-23306D01*
X32686Y-23340D01*
X32661Y-23370D01*
X32631Y-23395D01*
X32597Y-23414D01*
X32560Y-23425D01*
X32521Y-23429D01*
X32483Y-23426D01*
X32446Y-23415D01*
X32411Y-23397D01*
X32381Y-23372D01*
X32355Y-23342D01*
X32337Y-23308D01*
X32325Y-23271D01*
X32321Y-23232D01*
X32324Y-23194D01*
X32335Y-23157D01*
X32352Y-23122D01*
X32377Y-23092D01*
X32406Y-23066D01*
X32440Y-23047D01*
X32478Y-23035D01*
X32516Y-23031D01*
X32554Y-23034D01*
X32592Y-23044D01*
X32627Y-23062D01*
X32657Y-23086D01*
X32683Y-23115D01*
X32702Y-23149D01*
X32715Y-23186D01*
X32719Y-23225D01*
X32720Y-23230D01*
X32320Y-23030D02*
X32720Y-23430D01*
X32720Y-23030D02*
X32320Y-23430D01*
X33050Y-11700D02*
X33046Y-11738D01*
X33034Y-11776D01*
X33016Y-11810D01*
X32991Y-11840D01*
X32961Y-11865D01*
X32927Y-11884D01*
X32890Y-11895D01*
X32851Y-11899D01*
X32813Y-11896D01*
X32776Y-11885D01*
X32741Y-11867D01*
X32711Y-11842D01*
X32685Y-11812D01*
X32667Y-11778D01*
X32655Y-11741D01*
X32651Y-11702D01*
X32654Y-11664D01*
X32665Y-11627D01*
X32682Y-11592D01*
X32707Y-11562D01*
X32736Y-11536D01*
X32770Y-11517D01*
X32808Y-11505D01*
X32846Y-11501D01*
X32884Y-11504D01*
X32922Y-11514D01*
X32957Y-11532D01*
X32987Y-11556D01*
X33013Y-11585D01*
X33032Y-11619D01*
X33045Y-11656D01*
X33049Y-11695D01*
X33050Y-11700D01*
X32650Y-11500D02*
X33050Y-11900D01*
X33050Y-11500D02*
X32650Y-11900D01*
X33050Y-12700D02*
X33046Y-12738D01*
X33034Y-12776D01*
X33016Y-12810D01*
X32991Y-12840D01*
X32961Y-12865D01*
X32927Y-12884D01*
X32890Y-12895D01*
X32851Y-12899D01*
X32813Y-12896D01*
X32776Y-12885D01*
X32741Y-12867D01*
X32711Y-12842D01*
X32685Y-12812D01*
X32667Y-12778D01*
X32655Y-12741D01*
X32651Y-12702D01*
X32654Y-12664D01*
X32665Y-12627D01*
X32682Y-12592D01*
X32707Y-12562D01*
X32736Y-12536D01*
X32770Y-12517D01*
X32808Y-12505D01*
X32846Y-12501D01*
X32884Y-12504D01*
X32922Y-12514D01*
X32957Y-12532D01*
X32987Y-12556D01*
X33013Y-12585D01*
X33032Y-12619D01*
X33045Y-12656D01*
X33049Y-12695D01*
X33050Y-12700D01*
X32650Y-12500D02*
X33050Y-12900D01*
X33050Y-12500D02*
X32650Y-12900D01*
X33050Y-13700D02*
X33046Y-13738D01*
X33034Y-13776D01*
X33016Y-13810D01*
X32991Y-13840D01*
X32961Y-13865D01*
X32927Y-13884D01*
X32890Y-13895D01*
X32851Y-13899D01*
X32813Y-13896D01*
X32776Y-13885D01*
X32741Y-13867D01*
X32711Y-13842D01*
X32685Y-13812D01*
X32667Y-13778D01*
X32655Y-13741D01*
X32651Y-13702D01*
X32654Y-13664D01*
X32665Y-13627D01*
X32682Y-13592D01*
X32707Y-13562D01*
X32736Y-13536D01*
X32770Y-13517D01*
X32808Y-13505D01*
X32846Y-13501D01*
X32884Y-13504D01*
X32922Y-13514D01*
X32957Y-13532D01*
X32987Y-13556D01*
X33013Y-13585D01*
X33032Y-13619D01*
X33045Y-13656D01*
X33049Y-13695D01*
X33050Y-13700D01*
X32650Y-13500D02*
X33050Y-13900D01*
X33050Y-13500D02*
X32650Y-13900D01*
X33050Y-14700D02*
X33046Y-14738D01*
X33034Y-14776D01*
X33016Y-14810D01*
X32991Y-14840D01*
X32961Y-14865D01*
X32927Y-14884D01*
X32890Y-14895D01*
X32851Y-14899D01*
X32813Y-14896D01*
X32776Y-14885D01*
X32741Y-14867D01*
X32711Y-14842D01*
X32685Y-14812D01*
X32667Y-14778D01*
X32655Y-14741D01*
X32651Y-14702D01*
X32654Y-14664D01*
X32665Y-14627D01*
X32682Y-14592D01*
X32707Y-14562D01*
X32736Y-14536D01*
X32770Y-14517D01*
X32808Y-14505D01*
X32846Y-14501D01*
X32884Y-14504D01*
X32922Y-14514D01*
X32957Y-14532D01*
X32987Y-14556D01*
X33013Y-14585D01*
X33032Y-14619D01*
X33045Y-14656D01*
X33049Y-14695D01*
X33050Y-14700D01*
X32650Y-14500D02*
X33050Y-14900D01*
X33050Y-14500D02*
X32650Y-14900D01*
X33720Y-23230D02*
X33716Y-23268D01*
X33704Y-23306D01*
X33686Y-23340D01*
X33661Y-23370D01*
X33631Y-23395D01*
X33597Y-23414D01*
X33560Y-23425D01*
X33521Y-23429D01*
X33483Y-23426D01*
X33446Y-23415D01*
X33411Y-23397D01*
X33381Y-23372D01*
X33355Y-23342D01*
X33337Y-23308D01*
X33325Y-23271D01*
X33321Y-23232D01*
X33324Y-23194D01*
X33335Y-23157D01*
X33352Y-23122D01*
X33377Y-23092D01*
X33406Y-23066D01*
X33440Y-23047D01*
X33478Y-23035D01*
X33516Y-23031D01*
X33554Y-23034D01*
X33592Y-23044D01*
X33627Y-23062D01*
X33657Y-23086D01*
X33683Y-23115D01*
X33702Y-23149D01*
X33715Y-23186D01*
X33719Y-23225D01*
X33720Y-23230D01*
X33320Y-23030D02*
X33720Y-23430D01*
X33720Y-23030D02*
X33320Y-23430D01*
X46375Y-11700D02*
X46371Y-11738D01*
X46359Y-11776D01*
X46341Y-11810D01*
X46316Y-11840D01*
X46286Y-11865D01*
X46252Y-11884D01*
X46215Y-11895D01*
X46176Y-11899D01*
X46138Y-11896D01*
X46101Y-11885D01*
X46066Y-11867D01*
X46036Y-11842D01*
X46010Y-11812D01*
X45992Y-11778D01*
X45980Y-11741D01*
X45976Y-11702D01*
X45979Y-11664D01*
X45990Y-11627D01*
X46007Y-11592D01*
X46032Y-11562D01*
X46061Y-11536D01*
X46095Y-11517D01*
X46133Y-11505D01*
X46171Y-11501D01*
X46209Y-11504D01*
X46247Y-11514D01*
X46282Y-11532D01*
X46312Y-11556D01*
X46338Y-11585D01*
X46357Y-11619D01*
X46370Y-11656D01*
X46374Y-11695D01*
X46375Y-11700D01*
X45975Y-11500D02*
X46375Y-11900D01*
X46375Y-11500D02*
X45975Y-11900D01*
X46375Y-12700D02*
X46371Y-12738D01*
X46359Y-12776D01*
X46341Y-12810D01*
X46316Y-12840D01*
X46286Y-12865D01*
X46252Y-12884D01*
X46215Y-12895D01*
X46176Y-12899D01*
X46138Y-12896D01*
X46101Y-12885D01*
X46066Y-12867D01*
X46036Y-12842D01*
X46010Y-12812D01*
X45992Y-12778D01*
X45980Y-12741D01*
X45976Y-12702D01*
X45979Y-12664D01*
X45990Y-12627D01*
X46007Y-12592D01*
X46032Y-12562D01*
X46061Y-12536D01*
X46095Y-12517D01*
X46133Y-12505D01*
X46171Y-12501D01*
X46209Y-12504D01*
X46247Y-12514D01*
X46282Y-12532D01*
X46312Y-12556D01*
X46338Y-12585D01*
X46357Y-12619D01*
X46370Y-12656D01*
X46374Y-12695D01*
X46375Y-12700D01*
X45975Y-12500D02*
X46375Y-12900D01*
X46375Y-12500D02*
X45975Y-12900D01*
X46375Y-13700D02*
X46371Y-13738D01*
X46359Y-13776D01*
X46341Y-13810D01*
X46316Y-13840D01*
X46286Y-13865D01*
X46252Y-13884D01*
X46215Y-13895D01*
X46176Y-13899D01*
X46138Y-13896D01*
X46101Y-13885D01*
X46066Y-13867D01*
X46036Y-13842D01*
X46010Y-13812D01*
X45992Y-13778D01*
X45980Y-13741D01*
X45976Y-13702D01*
X45979Y-13664D01*
X45990Y-13627D01*
X46007Y-13592D01*
X46032Y-13562D01*
X46061Y-13536D01*
X46095Y-13517D01*
X46133Y-13505D01*
X46171Y-13501D01*
X46209Y-13504D01*
X46247Y-13514D01*
X46282Y-13532D01*
X46312Y-13556D01*
X46338Y-13585D01*
X46357Y-13619D01*
X46370Y-13656D01*
X46374Y-13695D01*
X46375Y-13700D01*
X45975Y-13500D02*
X46375Y-13900D01*
X46375Y-13500D02*
X45975Y-13900D01*
X46375Y-14700D02*
X46371Y-14738D01*
X46359Y-14776D01*
X46341Y-14810D01*
X46316Y-14840D01*
X46286Y-14865D01*
X46252Y-14884D01*
X46215Y-14895D01*
X46176Y-14899D01*
X46138Y-14896D01*
X46101Y-14885D01*
X46066Y-14867D01*
X46036Y-14842D01*
X46010Y-14812D01*
X45992Y-14778D01*
X45980Y-14741D01*
X45976Y-14702D01*
X45979Y-14664D01*
X45990Y-14627D01*
X46007Y-14592D01*
X46032Y-14562D01*
X46061Y-14536D01*
X46095Y-14517D01*
X46133Y-14505D01*
X46171Y-14501D01*
X46209Y-14504D01*
X46247Y-14514D01*
X46282Y-14532D01*
X46312Y-14556D01*
X46338Y-14585D01*
X46357Y-14619D01*
X46370Y-14656D01*
X46374Y-14695D01*
X46375Y-14700D01*
X45975Y-14500D02*
X46375Y-14900D01*
X46375Y-14500D02*
X45975Y-14900D01*
X46375Y-15700D02*
X46371Y-15738D01*
X46359Y-15776D01*
X46341Y-15810D01*
X46316Y-15840D01*
X46286Y-15865D01*
X46252Y-15884D01*
X46215Y-15895D01*
X46176Y-15899D01*
X46138Y-15896D01*
X46101Y-15885D01*
X46066Y-15867D01*
X46036Y-15842D01*
X46010Y-15812D01*
X45992Y-15778D01*
X45980Y-15741D01*
X45976Y-15702D01*
X45979Y-15664D01*
X45990Y-15627D01*
X46007Y-15592D01*
X46032Y-15562D01*
X46061Y-15536D01*
X46095Y-15517D01*
X46133Y-15505D01*
X46171Y-15501D01*
X46209Y-15504D01*
X46247Y-15514D01*
X46282Y-15532D01*
X46312Y-15556D01*
X46338Y-15585D01*
X46357Y-15619D01*
X46370Y-15656D01*
X46374Y-15695D01*
X46375Y-15700D01*
X45975Y-15500D02*
X46375Y-15900D01*
X46375Y-15500D02*
X45975Y-15900D01*
X46375Y-16700D02*
X46371Y-16738D01*
X46359Y-16776D01*
X46341Y-16810D01*
X46316Y-16840D01*
X46286Y-16865D01*
X46252Y-16884D01*
X46215Y-16895D01*
X46176Y-16899D01*
X46138Y-16896D01*
X46101Y-16885D01*
X46066Y-16867D01*
X46036Y-16842D01*
X46010Y-16812D01*
X45992Y-16778D01*
X45980Y-16741D01*
X45976Y-16702D01*
X45979Y-16664D01*
X45990Y-16627D01*
X46007Y-16592D01*
X46032Y-16562D01*
X46061Y-16536D01*
X46095Y-16517D01*
X46133Y-16505D01*
X46171Y-16501D01*
X46209Y-16504D01*
X46247Y-16514D01*
X46282Y-16532D01*
X46312Y-16556D01*
X46338Y-16585D01*
X46357Y-16619D01*
X46370Y-16656D01*
X46374Y-16695D01*
X46375Y-16700D01*
X45975Y-16500D02*
X46375Y-16900D01*
X46375Y-16500D02*
X45975Y-16900D01*
X46375Y-17700D02*
X46371Y-17738D01*
X46359Y-17776D01*
X46341Y-17810D01*
X46316Y-17840D01*
X46286Y-17865D01*
X46252Y-17884D01*
X46215Y-17895D01*
X46176Y-17899D01*
X46138Y-17896D01*
X46101Y-17885D01*
X46066Y-17867D01*
X46036Y-17842D01*
X46010Y-17812D01*
X45992Y-17778D01*
X45980Y-17741D01*
X45976Y-17702D01*
X45979Y-17664D01*
X45990Y-17627D01*
X46007Y-17592D01*
X46032Y-17562D01*
X46061Y-17536D01*
X46095Y-17517D01*
X46133Y-17505D01*
X46171Y-17501D01*
X46209Y-17504D01*
X46247Y-17514D01*
X46282Y-17532D01*
X46312Y-17556D01*
X46338Y-17585D01*
X46357Y-17619D01*
X46370Y-17656D01*
X46374Y-17695D01*
X46375Y-17700D01*
X45975Y-17500D02*
X46375Y-17900D01*
X46375Y-17500D02*
X45975Y-17900D01*
X46375Y-18700D02*
X46371Y-18738D01*
X46359Y-18776D01*
X46341Y-18810D01*
X46316Y-18840D01*
X46286Y-18865D01*
X46252Y-18884D01*
X46215Y-18895D01*
X46176Y-18899D01*
X46138Y-18896D01*
X46101Y-18885D01*
X46066Y-18867D01*
X46036Y-18842D01*
X46010Y-18812D01*
X45992Y-18778D01*
X45980Y-18741D01*
X45976Y-18702D01*
X45979Y-18664D01*
X45990Y-18627D01*
X46007Y-18592D01*
X46032Y-18562D01*
X46061Y-18536D01*
X46095Y-18517D01*
X46133Y-18505D01*
X46171Y-18501D01*
X46209Y-18504D01*
X46247Y-18514D01*
X46282Y-18532D01*
X46312Y-18556D01*
X46338Y-18585D01*
X46357Y-18619D01*
X46370Y-18656D01*
X46374Y-18695D01*
X46375Y-18700D01*
X45975Y-18500D02*
X46375Y-18900D01*
X46375Y-18500D02*
X45975Y-18900D01*
X46375Y-19700D02*
X46371Y-19738D01*
X46359Y-19776D01*
X46341Y-19810D01*
X46316Y-19840D01*
X46286Y-19865D01*
X46252Y-19884D01*
X46215Y-19895D01*
X46176Y-19899D01*
X46138Y-19896D01*
X46101Y-19885D01*
X46066Y-19867D01*
X46036Y-19842D01*
X46010Y-19812D01*
X45992Y-19778D01*
X45980Y-19741D01*
X45976Y-19702D01*
X45979Y-19664D01*
X45990Y-19627D01*
X46007Y-19592D01*
X46032Y-19562D01*
X46061Y-19536D01*
X46095Y-19517D01*
X46133Y-19505D01*
X46171Y-19501D01*
X46209Y-19504D01*
X46247Y-19514D01*
X46282Y-19532D01*
X46312Y-19556D01*
X46338Y-19585D01*
X46357Y-19619D01*
X46370Y-19656D01*
X46374Y-19695D01*
X46375Y-19700D01*
X45975Y-19500D02*
X46375Y-19900D01*
X46375Y-19500D02*
X45975Y-19900D01*
X46375Y-20700D02*
X46371Y-20738D01*
X46359Y-20776D01*
X46341Y-20810D01*
X46316Y-20840D01*
X46286Y-20865D01*
X46252Y-20884D01*
X46215Y-20895D01*
X46176Y-20899D01*
X46138Y-20896D01*
X46101Y-20885D01*
X46066Y-20867D01*
X46036Y-20842D01*
X46010Y-20812D01*
X45992Y-20778D01*
X45980Y-20741D01*
X45976Y-20702D01*
X45979Y-20664D01*
X45990Y-20627D01*
X46007Y-20592D01*
X46032Y-20562D01*
X46061Y-20536D01*
X46095Y-20517D01*
X46133Y-20505D01*
X46171Y-20501D01*
X46209Y-20504D01*
X46247Y-20514D01*
X46282Y-20532D01*
X46312Y-20556D01*
X46338Y-20585D01*
X46357Y-20619D01*
X46370Y-20656D01*
X46374Y-20695D01*
X46375Y-20700D01*
X45975Y-20500D02*
X46375Y-20900D01*
X46375Y-20500D02*
X45975Y-20900D01*
X46375Y-21700D02*
X46371Y-21738D01*
X46359Y-21776D01*
X46341Y-21810D01*
X46316Y-21840D01*
X46286Y-21865D01*
X46252Y-21884D01*
X46215Y-21895D01*
X46176Y-21899D01*
X46138Y-21896D01*
X46101Y-21885D01*
X46066Y-21867D01*
X46036Y-21842D01*
X46010Y-21812D01*
X45992Y-21778D01*
X45980Y-21741D01*
X45976Y-21702D01*
X45979Y-21664D01*
X45990Y-21627D01*
X46007Y-21592D01*
X46032Y-21562D01*
X46061Y-21536D01*
X46095Y-21517D01*
X46133Y-21505D01*
X46171Y-21501D01*
X46209Y-21504D01*
X46247Y-21514D01*
X46282Y-21532D01*
X46312Y-21556D01*
X46338Y-21585D01*
X46357Y-21619D01*
X46370Y-21656D01*
X46374Y-21695D01*
X46375Y-21700D01*
X45975Y-21500D02*
X46375Y-21900D01*
X46375Y-21500D02*
X45975Y-21900D01*
X46375Y-22700D02*
X46371Y-22738D01*
X46359Y-22776D01*
X46341Y-22810D01*
X46316Y-22840D01*
X46286Y-22865D01*
X46252Y-22884D01*
X46215Y-22895D01*
X46176Y-22899D01*
X46138Y-22896D01*
X46101Y-22885D01*
X46066Y-22867D01*
X46036Y-22842D01*
X46010Y-22812D01*
X45992Y-22778D01*
X45980Y-22741D01*
X45976Y-22702D01*
X45979Y-22664D01*
X45990Y-22627D01*
X46007Y-22592D01*
X46032Y-22562D01*
X46061Y-22536D01*
X46095Y-22517D01*
X46133Y-22505D01*
X46171Y-22501D01*
X46209Y-22504D01*
X46247Y-22514D01*
X46282Y-22532D01*
X46312Y-22556D01*
X46338Y-22585D01*
X46357Y-22619D01*
X46370Y-22656D01*
X46374Y-22695D01*
X46375Y-22700D01*
X45975Y-22500D02*
X46375Y-22900D01*
X46375Y-22500D02*
X45975Y-22900D01*
X46375Y-23700D02*
X46371Y-23738D01*
X46359Y-23776D01*
X46341Y-23810D01*
X46316Y-23840D01*
X46286Y-23865D01*
X46252Y-23884D01*
X46215Y-23895D01*
X46176Y-23899D01*
X46138Y-23896D01*
X46101Y-23885D01*
X46066Y-23867D01*
X46036Y-23842D01*
X46010Y-23812D01*
X45992Y-23778D01*
X45980Y-23741D01*
X45976Y-23702D01*
X45979Y-23664D01*
X45990Y-23627D01*
X46007Y-23592D01*
X46032Y-23562D01*
X46061Y-23536D01*
X46095Y-23517D01*
X46133Y-23505D01*
X46171Y-23501D01*
X46209Y-23504D01*
X46247Y-23514D01*
X46282Y-23532D01*
X46312Y-23556D01*
X46338Y-23585D01*
X46357Y-23619D01*
X46370Y-23656D01*
X46374Y-23695D01*
X46375Y-23700D01*
X45975Y-23500D02*
X46375Y-23900D01*
X46375Y-23500D02*
X45975Y-23900D01*
X46375Y-24700D02*
X46371Y-24738D01*
X46359Y-24776D01*
X46341Y-24810D01*
X46316Y-24840D01*
X46286Y-24865D01*
X46252Y-24884D01*
X46215Y-24895D01*
X46176Y-24899D01*
X46138Y-24896D01*
X46101Y-24885D01*
X46066Y-24867D01*
X46036Y-24842D01*
X46010Y-24812D01*
X45992Y-24778D01*
X45980Y-24741D01*
X45976Y-24702D01*
X45979Y-24664D01*
X45990Y-24627D01*
X46007Y-24592D01*
X46032Y-24562D01*
X46061Y-24536D01*
X46095Y-24517D01*
X46133Y-24505D01*
X46171Y-24501D01*
X46209Y-24504D01*
X46247Y-24514D01*
X46282Y-24532D01*
X46312Y-24556D01*
X46338Y-24585D01*
X46357Y-24619D01*
X46370Y-24656D01*
X46374Y-24695D01*
X46375Y-24700D01*
X45975Y-24500D02*
X46375Y-24900D01*
X46375Y-24500D02*
X45975Y-24900D01*
X48125Y-15700D02*
X48121Y-15738D01*
X48109Y-15776D01*
X48091Y-15810D01*
X48066Y-15840D01*
X48036Y-15865D01*
X48002Y-15884D01*
X47965Y-15895D01*
X47926Y-15899D01*
X47888Y-15896D01*
X47851Y-15885D01*
X47816Y-15867D01*
X47786Y-15842D01*
X47760Y-15812D01*
X47742Y-15778D01*
X47730Y-15741D01*
X47726Y-15702D01*
X47729Y-15664D01*
X47740Y-15627D01*
X47757Y-15592D01*
X47782Y-15562D01*
X47811Y-15536D01*
X47845Y-15517D01*
X47883Y-15505D01*
X47921Y-15501D01*
X47959Y-15504D01*
X47997Y-15514D01*
X48032Y-15532D01*
X48062Y-15556D01*
X48088Y-15585D01*
X48107Y-15619D01*
X48120Y-15656D01*
X48124Y-15695D01*
X48125Y-15700D01*
X47725Y-15500D02*
X48125Y-15900D01*
X48125Y-15500D02*
X47725Y-15900D01*
X48125Y-16700D02*
X48121Y-16738D01*
X48109Y-16776D01*
X48091Y-16810D01*
X48066Y-16840D01*
X48036Y-16865D01*
X48002Y-16884D01*
X47965Y-16895D01*
X47926Y-16899D01*
X47888Y-16896D01*
X47851Y-16885D01*
X47816Y-16867D01*
X47786Y-16842D01*
X47760Y-16812D01*
X47742Y-16778D01*
X47730Y-16741D01*
X47726Y-16702D01*
X47729Y-16664D01*
X47740Y-16627D01*
X47757Y-16592D01*
X47782Y-16562D01*
X47811Y-16536D01*
X47845Y-16517D01*
X47883Y-16505D01*
X47921Y-16501D01*
X47959Y-16504D01*
X47997Y-16514D01*
X48032Y-16532D01*
X48062Y-16556D01*
X48088Y-16585D01*
X48107Y-16619D01*
X48120Y-16656D01*
X48124Y-16695D01*
X48125Y-16700D01*
X47725Y-16500D02*
X48125Y-16900D01*
X48125Y-16500D02*
X47725Y-16900D01*
X48125Y-17700D02*
X48121Y-17738D01*
X48109Y-17776D01*
X48091Y-17810D01*
X48066Y-17840D01*
X48036Y-17865D01*
X48002Y-17884D01*
X47965Y-17895D01*
X47926Y-17899D01*
X47888Y-17896D01*
X47851Y-17885D01*
X47816Y-17867D01*
X47786Y-17842D01*
X47760Y-17812D01*
X47742Y-17778D01*
X47730Y-17741D01*
X47726Y-17702D01*
X47729Y-17664D01*
X47740Y-17627D01*
X47757Y-17592D01*
X47782Y-17562D01*
X47811Y-17536D01*
X47845Y-17517D01*
X47883Y-17505D01*
X47921Y-17501D01*
X47959Y-17504D01*
X47997Y-17514D01*
X48032Y-17532D01*
X48062Y-17556D01*
X48088Y-17585D01*
X48107Y-17619D01*
X48120Y-17656D01*
X48124Y-17695D01*
X48125Y-17700D01*
X47725Y-17500D02*
X48125Y-17900D01*
X48125Y-17500D02*
X47725Y-17900D01*
X48125Y-18700D02*
X48121Y-18738D01*
X48109Y-18776D01*
X48091Y-18810D01*
X48066Y-18840D01*
X48036Y-18865D01*
X48002Y-18884D01*
X47965Y-18895D01*
X47926Y-18899D01*
X47888Y-18896D01*
X47851Y-18885D01*
X47816Y-18867D01*
X47786Y-18842D01*
X47760Y-18812D01*
X47742Y-18778D01*
X47730Y-18741D01*
X47726Y-18702D01*
X47729Y-18664D01*
X47740Y-18627D01*
X47757Y-18592D01*
X47782Y-18562D01*
X47811Y-18536D01*
X47845Y-18517D01*
X47883Y-18505D01*
X47921Y-18501D01*
X47959Y-18504D01*
X47997Y-18514D01*
X48032Y-18532D01*
X48062Y-18556D01*
X48088Y-18585D01*
X48107Y-18619D01*
X48120Y-18656D01*
X48124Y-18695D01*
X48125Y-18700D01*
X47725Y-18500D02*
X48125Y-18900D01*
X48125Y-18500D02*
X47725Y-18900D01*
X48125Y-19700D02*
X48121Y-19738D01*
X48109Y-19776D01*
X48091Y-19810D01*
X48066Y-19840D01*
X48036Y-19865D01*
X48002Y-19884D01*
X47965Y-19895D01*
X47926Y-19899D01*
X47888Y-19896D01*
X47851Y-19885D01*
X47816Y-19867D01*
X47786Y-19842D01*
X47760Y-19812D01*
X47742Y-19778D01*
X47730Y-19741D01*
X47726Y-19702D01*
X47729Y-19664D01*
X47740Y-19627D01*
X47757Y-19592D01*
X47782Y-19562D01*
X47811Y-19536D01*
X47845Y-19517D01*
X47883Y-19505D01*
X47921Y-19501D01*
X47959Y-19504D01*
X47997Y-19514D01*
X48032Y-19532D01*
X48062Y-19556D01*
X48088Y-19585D01*
X48107Y-19619D01*
X48120Y-19656D01*
X48124Y-19695D01*
X48125Y-19700D01*
X47725Y-19500D02*
X48125Y-19900D01*
X48125Y-19500D02*
X47725Y-19900D01*
X48125Y-20700D02*
X48121Y-20738D01*
X48109Y-20776D01*
X48091Y-20810D01*
X48066Y-20840D01*
X48036Y-20865D01*
X48002Y-20884D01*
X47965Y-20895D01*
X47926Y-20899D01*
X47888Y-20896D01*
X47851Y-20885D01*
X47816Y-20867D01*
X47786Y-20842D01*
X47760Y-20812D01*
X47742Y-20778D01*
X47730Y-20741D01*
X47726Y-20702D01*
X47729Y-20664D01*
X47740Y-20627D01*
X47757Y-20592D01*
X47782Y-20562D01*
X47811Y-20536D01*
X47845Y-20517D01*
X47883Y-20505D01*
X47921Y-20501D01*
X47959Y-20504D01*
X47997Y-20514D01*
X48032Y-20532D01*
X48062Y-20556D01*
X48088Y-20585D01*
X48107Y-20619D01*
X48120Y-20656D01*
X48124Y-20695D01*
X48125Y-20700D01*
X47725Y-20500D02*
X48125Y-20900D01*
X48125Y-20500D02*
X47725Y-20900D01*
X49350Y-17000D02*
X49346Y-17038D01*
X49334Y-17076D01*
X49316Y-17110D01*
X49291Y-17140D01*
X49261Y-17165D01*
X49227Y-17184D01*
X49190Y-17195D01*
X49151Y-17199D01*
X49113Y-17196D01*
X49076Y-17185D01*
X49041Y-17167D01*
X49011Y-17142D01*
X48985Y-17112D01*
X48967Y-17078D01*
X48955Y-17041D01*
X48951Y-17002D01*
X48954Y-16964D01*
X48965Y-16927D01*
X48982Y-16892D01*
X49007Y-16862D01*
X49036Y-16836D01*
X49070Y-16817D01*
X49108Y-16805D01*
X49146Y-16801D01*
X49184Y-16804D01*
X49222Y-16814D01*
X49257Y-16832D01*
X49287Y-16856D01*
X49313Y-16885D01*
X49332Y-16919D01*
X49345Y-16956D01*
X49349Y-16995D01*
X49350Y-17000D01*
X48950Y-16800D02*
X49350Y-17200D01*
X49350Y-16800D02*
X48950Y-17200D01*
X49350Y-18000D02*
X49346Y-18038D01*
X49334Y-18076D01*
X49316Y-18110D01*
X49291Y-18140D01*
X49261Y-18165D01*
X49227Y-18184D01*
X49190Y-18195D01*
X49151Y-18199D01*
X49113Y-18196D01*
X49076Y-18185D01*
X49041Y-18167D01*
X49011Y-18142D01*
X48985Y-18112D01*
X48967Y-18078D01*
X48955Y-18041D01*
X48951Y-18002D01*
X48954Y-17964D01*
X48965Y-17927D01*
X48982Y-17892D01*
X49007Y-17862D01*
X49036Y-17836D01*
X49070Y-17817D01*
X49108Y-17805D01*
X49146Y-17801D01*
X49184Y-17804D01*
X49222Y-17814D01*
X49257Y-17832D01*
X49287Y-17856D01*
X49313Y-17885D01*
X49332Y-17919D01*
X49345Y-17956D01*
X49349Y-17995D01*
X49350Y-18000D01*
X48950Y-17800D02*
X49350Y-18200D01*
X49350Y-17800D02*
X48950Y-18200D01*
X49350Y-19000D02*
X49346Y-19038D01*
X49334Y-19076D01*
X49316Y-19110D01*
X49291Y-19140D01*
X49261Y-19165D01*
X49227Y-19184D01*
X49190Y-19195D01*
X49151Y-19199D01*
X49113Y-19196D01*
X49076Y-19185D01*
X49041Y-19167D01*
X49011Y-19142D01*
X48985Y-19112D01*
X48967Y-19078D01*
X48955Y-19041D01*
X48951Y-19002D01*
X48954Y-18964D01*
X48965Y-18927D01*
X48982Y-18892D01*
X49007Y-18862D01*
X49036Y-18836D01*
X49070Y-18817D01*
X49108Y-18805D01*
X49146Y-18801D01*
X49184Y-18804D01*
X49222Y-18814D01*
X49257Y-18832D01*
X49287Y-18856D01*
X49313Y-18885D01*
X49332Y-18919D01*
X49345Y-18956D01*
X49349Y-18995D01*
X49350Y-19000D01*
X48950Y-18800D02*
X49350Y-19200D01*
X49350Y-18800D02*
X48950Y-19200D01*
X49350Y-20000D02*
X49346Y-20038D01*
X49334Y-20076D01*
X49316Y-20110D01*
X49291Y-20140D01*
X49261Y-20165D01*
X49227Y-20184D01*
X49190Y-20195D01*
X49151Y-20199D01*
X49113Y-20196D01*
X49076Y-20185D01*
X49041Y-20167D01*
X49011Y-20142D01*
X48985Y-20112D01*
X48967Y-20078D01*
X48955Y-20041D01*
X48951Y-20002D01*
X48954Y-19964D01*
X48965Y-19927D01*
X48982Y-19892D01*
X49007Y-19862D01*
X49036Y-19836D01*
X49070Y-19817D01*
X49108Y-19805D01*
X49146Y-19801D01*
X49184Y-19804D01*
X49222Y-19814D01*
X49257Y-19832D01*
X49287Y-19856D01*
X49313Y-19885D01*
X49332Y-19919D01*
X49345Y-19956D01*
X49349Y-19995D01*
X49350Y-20000D01*
X48950Y-19800D02*
X49350Y-20200D01*
X49350Y-19800D02*
X48950Y-20200D01*
X49350Y-21000D02*
X49346Y-21038D01*
X49334Y-21076D01*
X49316Y-21110D01*
X49291Y-21140D01*
X49261Y-21165D01*
X49227Y-21184D01*
X49190Y-21195D01*
X49151Y-21199D01*
X49113Y-21196D01*
X49076Y-21185D01*
X49041Y-21167D01*
X49011Y-21142D01*
X48985Y-21112D01*
X48967Y-21078D01*
X48955Y-21041D01*
X48951Y-21002D01*
X48954Y-20964D01*
X48965Y-20927D01*
X48982Y-20892D01*
X49007Y-20862D01*
X49036Y-20836D01*
X49070Y-20817D01*
X49108Y-20805D01*
X49146Y-20801D01*
X49184Y-20804D01*
X49222Y-20814D01*
X49257Y-20832D01*
X49287Y-20856D01*
X49313Y-20885D01*
X49332Y-20919D01*
X49345Y-20956D01*
X49349Y-20995D01*
X49350Y-21000D01*
X48950Y-20800D02*
X49350Y-21200D01*
X49350Y-20800D02*
X48950Y-21200D01*
X49350Y-22000D02*
X49346Y-22038D01*
X49334Y-22076D01*
X49316Y-22110D01*
X49291Y-22140D01*
X49261Y-22165D01*
X49227Y-22184D01*
X49190Y-22195D01*
X49151Y-22199D01*
X49113Y-22196D01*
X49076Y-22185D01*
X49041Y-22167D01*
X49011Y-22142D01*
X48985Y-22112D01*
X48967Y-22078D01*
X48955Y-22041D01*
X48951Y-22002D01*
X48954Y-21964D01*
X48965Y-21927D01*
X48982Y-21892D01*
X49007Y-21862D01*
X49036Y-21836D01*
X49070Y-21817D01*
X49108Y-21805D01*
X49146Y-21801D01*
X49184Y-21804D01*
X49222Y-21814D01*
X49257Y-21832D01*
X49287Y-21856D01*
X49313Y-21885D01*
X49332Y-21919D01*
X49345Y-21956D01*
X49349Y-21995D01*
X49350Y-22000D01*
X48950Y-21800D02*
X49350Y-22200D01*
X49350Y-21800D02*
X48950Y-22200D01*
X49350Y-23000D02*
X49346Y-23038D01*
X49334Y-23076D01*
X49316Y-23110D01*
X49291Y-23140D01*
X49261Y-23165D01*
X49227Y-23184D01*
X49190Y-23195D01*
X49151Y-23199D01*
X49113Y-23196D01*
X49076Y-23185D01*
X49041Y-23167D01*
X49011Y-23142D01*
X48985Y-23112D01*
X48967Y-23078D01*
X48955Y-23041D01*
X48951Y-23002D01*
X48954Y-22964D01*
X48965Y-22927D01*
X48982Y-22892D01*
X49007Y-22862D01*
X49036Y-22836D01*
X49070Y-22817D01*
X49108Y-22805D01*
X49146Y-22801D01*
X49184Y-22804D01*
X49222Y-22814D01*
X49257Y-22832D01*
X49287Y-22856D01*
X49313Y-22885D01*
X49332Y-22919D01*
X49345Y-22956D01*
X49349Y-22995D01*
X49350Y-23000D01*
X48950Y-22800D02*
X49350Y-23200D01*
X49350Y-22800D02*
X48950Y-23200D01*
X49350Y-24000D02*
X49346Y-24038D01*
X49334Y-24076D01*
X49316Y-24110D01*
X49291Y-24140D01*
X49261Y-24165D01*
X49227Y-24184D01*
X49190Y-24195D01*
X49151Y-24199D01*
X49113Y-24196D01*
X49076Y-24185D01*
X49041Y-24167D01*
X49011Y-24142D01*
X48985Y-24112D01*
X48967Y-24078D01*
X48955Y-24041D01*
X48951Y-24002D01*
X48954Y-23964D01*
X48965Y-23927D01*
X48982Y-23892D01*
X49007Y-23862D01*
X49036Y-23836D01*
X49070Y-23817D01*
X49108Y-23805D01*
X49146Y-23801D01*
X49184Y-23804D01*
X49222Y-23814D01*
X49257Y-23832D01*
X49287Y-23856D01*
X49313Y-23885D01*
X49332Y-23919D01*
X49345Y-23956D01*
X49349Y-23995D01*
X49350Y-24000D01*
X48950Y-23800D02*
X49350Y-24200D01*
X49350Y-23800D02*
X48950Y-24200D01*
X52350Y-17000D02*
X52346Y-17038D01*
X52334Y-17076D01*
X52316Y-17110D01*
X52291Y-17140D01*
X52261Y-17165D01*
X52227Y-17184D01*
X52190Y-17195D01*
X52151Y-17199D01*
X52113Y-17196D01*
X52076Y-17185D01*
X52041Y-17167D01*
X52011Y-17142D01*
X51985Y-17112D01*
X51967Y-17078D01*
X51955Y-17041D01*
X51951Y-17002D01*
X51954Y-16964D01*
X51965Y-16927D01*
X51982Y-16892D01*
X52007Y-16862D01*
X52036Y-16836D01*
X52070Y-16817D01*
X52108Y-16805D01*
X52146Y-16801D01*
X52184Y-16804D01*
X52222Y-16814D01*
X52257Y-16832D01*
X52287Y-16856D01*
X52313Y-16885D01*
X52332Y-16919D01*
X52345Y-16956D01*
X52349Y-16995D01*
X52350Y-17000D01*
X51950Y-16800D02*
X52350Y-17200D01*
X52350Y-16800D02*
X51950Y-17200D01*
X52350Y-18000D02*
X52346Y-18038D01*
X52334Y-18076D01*
X52316Y-18110D01*
X52291Y-18140D01*
X52261Y-18165D01*
X52227Y-18184D01*
X52190Y-18195D01*
X52151Y-18199D01*
X52113Y-18196D01*
X52076Y-18185D01*
X52041Y-18167D01*
X52011Y-18142D01*
X51985Y-18112D01*
X51967Y-18078D01*
X51955Y-18041D01*
X51951Y-18002D01*
X51954Y-17964D01*
X51965Y-17927D01*
X51982Y-17892D01*
X52007Y-17862D01*
X52036Y-17836D01*
X52070Y-17817D01*
X52108Y-17805D01*
X52146Y-17801D01*
X52184Y-17804D01*
X52222Y-17814D01*
X52257Y-17832D01*
X52287Y-17856D01*
X52313Y-17885D01*
X52332Y-17919D01*
X52345Y-17956D01*
X52349Y-17995D01*
X52350Y-18000D01*
X51950Y-17800D02*
X52350Y-18200D01*
X52350Y-17800D02*
X51950Y-18200D01*
X52350Y-19000D02*
X52346Y-19038D01*
X52334Y-19076D01*
X52316Y-19110D01*
X52291Y-19140D01*
X52261Y-19165D01*
X52227Y-19184D01*
X52190Y-19195D01*
X52151Y-19199D01*
X52113Y-19196D01*
X52076Y-19185D01*
X52041Y-19167D01*
X52011Y-19142D01*
X51985Y-19112D01*
X51967Y-19078D01*
X51955Y-19041D01*
X51951Y-19002D01*
X51954Y-18964D01*
X51965Y-18927D01*
X51982Y-18892D01*
X52007Y-18862D01*
X52036Y-18836D01*
X52070Y-18817D01*
X52108Y-18805D01*
X52146Y-18801D01*
X52184Y-18804D01*
X52222Y-18814D01*
X52257Y-18832D01*
X52287Y-18856D01*
X52313Y-18885D01*
X52332Y-18919D01*
X52345Y-18956D01*
X52349Y-18995D01*
X52350Y-19000D01*
X51950Y-18800D02*
X52350Y-19200D01*
X52350Y-18800D02*
X51950Y-19200D01*
X52350Y-20000D02*
X52346Y-20038D01*
X52334Y-20076D01*
X52316Y-20110D01*
X52291Y-20140D01*
X52261Y-20165D01*
X52227Y-20184D01*
X52190Y-20195D01*
X52151Y-20199D01*
X52113Y-20196D01*
X52076Y-20185D01*
X52041Y-20167D01*
X52011Y-20142D01*
X51985Y-20112D01*
X51967Y-20078D01*
X51955Y-20041D01*
X51951Y-20002D01*
X51954Y-19964D01*
X51965Y-19927D01*
X51982Y-19892D01*
X52007Y-19862D01*
X52036Y-19836D01*
X52070Y-19817D01*
X52108Y-19805D01*
X52146Y-19801D01*
X52184Y-19804D01*
X52222Y-19814D01*
X52257Y-19832D01*
X52287Y-19856D01*
X52313Y-19885D01*
X52332Y-19919D01*
X52345Y-19956D01*
X52349Y-19995D01*
X52350Y-20000D01*
X51950Y-19800D02*
X52350Y-20200D01*
X52350Y-19800D02*
X51950Y-20200D01*
X52350Y-21000D02*
X52346Y-21038D01*
X52334Y-21076D01*
X52316Y-21110D01*
X52291Y-21140D01*
X52261Y-21165D01*
X52227Y-21184D01*
X52190Y-21195D01*
X52151Y-21199D01*
X52113Y-21196D01*
X52076Y-21185D01*
X52041Y-21167D01*
X52011Y-21142D01*
X51985Y-21112D01*
X51967Y-21078D01*
X51955Y-21041D01*
X51951Y-21002D01*
X51954Y-20964D01*
X51965Y-20927D01*
X51982Y-20892D01*
X52007Y-20862D01*
X52036Y-20836D01*
X52070Y-20817D01*
X52108Y-20805D01*
X52146Y-20801D01*
X52184Y-20804D01*
X52222Y-20814D01*
X52257Y-20832D01*
X52287Y-20856D01*
X52313Y-20885D01*
X52332Y-20919D01*
X52345Y-20956D01*
X52349Y-20995D01*
X52350Y-21000D01*
X51950Y-20800D02*
X52350Y-21200D01*
X52350Y-20800D02*
X51950Y-21200D01*
X52350Y-22000D02*
X52346Y-22038D01*
X52334Y-22076D01*
X52316Y-22110D01*
X52291Y-22140D01*
X52261Y-22165D01*
X52227Y-22184D01*
X52190Y-22195D01*
X52151Y-22199D01*
X52113Y-22196D01*
X52076Y-22185D01*
X52041Y-22167D01*
X52011Y-22142D01*
X51985Y-22112D01*
X51967Y-22078D01*
X51955Y-22041D01*
X51951Y-22002D01*
X51954Y-21964D01*
X51965Y-21927D01*
X51982Y-21892D01*
X52007Y-21862D01*
X52036Y-21836D01*
X52070Y-21817D01*
X52108Y-21805D01*
X52146Y-21801D01*
X52184Y-21804D01*
X52222Y-21814D01*
X52257Y-21832D01*
X52287Y-21856D01*
X52313Y-21885D01*
X52332Y-21919D01*
X52345Y-21956D01*
X52349Y-21995D01*
X52350Y-22000D01*
X51950Y-21800D02*
X52350Y-22200D01*
X52350Y-21800D02*
X51950Y-22200D01*
X52350Y-23000D02*
X52346Y-23038D01*
X52334Y-23076D01*
X52316Y-23110D01*
X52291Y-23140D01*
X52261Y-23165D01*
X52227Y-23184D01*
X52190Y-23195D01*
X52151Y-23199D01*
X52113Y-23196D01*
X52076Y-23185D01*
X52041Y-23167D01*
X52011Y-23142D01*
X51985Y-23112D01*
X51967Y-23078D01*
X51955Y-23041D01*
X51951Y-23002D01*
X51954Y-22964D01*
X51965Y-22927D01*
X51982Y-22892D01*
X52007Y-22862D01*
X52036Y-22836D01*
X52070Y-22817D01*
X52108Y-22805D01*
X52146Y-22801D01*
X52184Y-22804D01*
X52222Y-22814D01*
X52257Y-22832D01*
X52287Y-22856D01*
X52313Y-22885D01*
X52332Y-22919D01*
X52345Y-22956D01*
X52349Y-22995D01*
X52350Y-23000D01*
X51950Y-22800D02*
X52350Y-23200D01*
X52350Y-22800D02*
X51950Y-23200D01*
X52350Y-24000D02*
X52346Y-24038D01*
X52334Y-24076D01*
X52316Y-24110D01*
X52291Y-24140D01*
X52261Y-24165D01*
X52227Y-24184D01*
X52190Y-24195D01*
X52151Y-24199D01*
X52113Y-24196D01*
X52076Y-24185D01*
X52041Y-24167D01*
X52011Y-24142D01*
X51985Y-24112D01*
X51967Y-24078D01*
X51955Y-24041D01*
X51951Y-24002D01*
X51954Y-23964D01*
X51965Y-23927D01*
X51982Y-23892D01*
X52007Y-23862D01*
X52036Y-23836D01*
X52070Y-23817D01*
X52108Y-23805D01*
X52146Y-23801D01*
X52184Y-23804D01*
X52222Y-23814D01*
X52257Y-23832D01*
X52287Y-23856D01*
X52313Y-23885D01*
X52332Y-23919D01*
X52345Y-23956D01*
X52349Y-23995D01*
X52350Y-24000D01*
X51950Y-23800D02*
X52350Y-24200D01*
X52350Y-23800D02*
X51950Y-24200D01*
X54125Y-15700D02*
X54121Y-15738D01*
X54109Y-15776D01*
X54091Y-15810D01*
X54066Y-15840D01*
X54036Y-15865D01*
X54002Y-15884D01*
X53965Y-15895D01*
X53926Y-15899D01*
X53888Y-15896D01*
X53851Y-15885D01*
X53816Y-15867D01*
X53786Y-15842D01*
X53760Y-15812D01*
X53742Y-15778D01*
X53730Y-15741D01*
X53726Y-15702D01*
X53729Y-15664D01*
X53740Y-15627D01*
X53757Y-15592D01*
X53782Y-15562D01*
X53811Y-15536D01*
X53845Y-15517D01*
X53883Y-15505D01*
X53921Y-15501D01*
X53959Y-15504D01*
X53997Y-15514D01*
X54032Y-15532D01*
X54062Y-15556D01*
X54088Y-15585D01*
X54107Y-15619D01*
X54120Y-15656D01*
X54124Y-15695D01*
X54125Y-15700D01*
X53725Y-15500D02*
X54125Y-15900D01*
X54125Y-15500D02*
X53725Y-15900D01*
X54125Y-16700D02*
X54121Y-16738D01*
X54109Y-16776D01*
X54091Y-16810D01*
X54066Y-16840D01*
X54036Y-16865D01*
X54002Y-16884D01*
X53965Y-16895D01*
X53926Y-16899D01*
X53888Y-16896D01*
X53851Y-16885D01*
X53816Y-16867D01*
X53786Y-16842D01*
X53760Y-16812D01*
X53742Y-16778D01*
X53730Y-16741D01*
X53726Y-16702D01*
X53729Y-16664D01*
X53740Y-16627D01*
X53757Y-16592D01*
X53782Y-16562D01*
X53811Y-16536D01*
X53845Y-16517D01*
X53883Y-16505D01*
X53921Y-16501D01*
X53959Y-16504D01*
X53997Y-16514D01*
X54032Y-16532D01*
X54062Y-16556D01*
X54088Y-16585D01*
X54107Y-16619D01*
X54120Y-16656D01*
X54124Y-16695D01*
X54125Y-16700D01*
X53725Y-16500D02*
X54125Y-16900D01*
X54125Y-16500D02*
X53725Y-16900D01*
X54125Y-17700D02*
X54121Y-17738D01*
X54109Y-17776D01*
X54091Y-17810D01*
X54066Y-17840D01*
X54036Y-17865D01*
X54002Y-17884D01*
X53965Y-17895D01*
X53926Y-17899D01*
X53888Y-17896D01*
X53851Y-17885D01*
X53816Y-17867D01*
X53786Y-17842D01*
X53760Y-17812D01*
X53742Y-17778D01*
X53730Y-17741D01*
X53726Y-17702D01*
X53729Y-17664D01*
X53740Y-17627D01*
X53757Y-17592D01*
X53782Y-17562D01*
X53811Y-17536D01*
X53845Y-17517D01*
X53883Y-17505D01*
X53921Y-17501D01*
X53959Y-17504D01*
X53997Y-17514D01*
X54032Y-17532D01*
X54062Y-17556D01*
X54088Y-17585D01*
X54107Y-17619D01*
X54120Y-17656D01*
X54124Y-17695D01*
X54125Y-17700D01*
X53725Y-17500D02*
X54125Y-17900D01*
X54125Y-17500D02*
X53725Y-17900D01*
X54125Y-18700D02*
X54121Y-18738D01*
X54109Y-18776D01*
X54091Y-18810D01*
X54066Y-18840D01*
X54036Y-18865D01*
X54002Y-18884D01*
X53965Y-18895D01*
X53926Y-18899D01*
X53888Y-18896D01*
X53851Y-18885D01*
X53816Y-18867D01*
X53786Y-18842D01*
X53760Y-18812D01*
X53742Y-18778D01*
X53730Y-18741D01*
X53726Y-18702D01*
X53729Y-18664D01*
X53740Y-18627D01*
X53757Y-18592D01*
X53782Y-18562D01*
X53811Y-18536D01*
X53845Y-18517D01*
X53883Y-18505D01*
X53921Y-18501D01*
X53959Y-18504D01*
X53997Y-18514D01*
X54032Y-18532D01*
X54062Y-18556D01*
X54088Y-18585D01*
X54107Y-18619D01*
X54120Y-18656D01*
X54124Y-18695D01*
X54125Y-18700D01*
X53725Y-18500D02*
X54125Y-18900D01*
X54125Y-18500D02*
X53725Y-18900D01*
X54125Y-19700D02*
X54121Y-19738D01*
X54109Y-19776D01*
X54091Y-19810D01*
X54066Y-19840D01*
X54036Y-19865D01*
X54002Y-19884D01*
X53965Y-19895D01*
X53926Y-19899D01*
X53888Y-19896D01*
X53851Y-19885D01*
X53816Y-19867D01*
X53786Y-19842D01*
X53760Y-19812D01*
X53742Y-19778D01*
X53730Y-19741D01*
X53726Y-19702D01*
X53729Y-19664D01*
X53740Y-19627D01*
X53757Y-19592D01*
X53782Y-19562D01*
X53811Y-19536D01*
X53845Y-19517D01*
X53883Y-19505D01*
X53921Y-19501D01*
X53959Y-19504D01*
X53997Y-19514D01*
X54032Y-19532D01*
X54062Y-19556D01*
X54088Y-19585D01*
X54107Y-19619D01*
X54120Y-19656D01*
X54124Y-19695D01*
X54125Y-19700D01*
X53725Y-19500D02*
X54125Y-19900D01*
X54125Y-19500D02*
X53725Y-19900D01*
X54125Y-20700D02*
X54121Y-20738D01*
X54109Y-20776D01*
X54091Y-20810D01*
X54066Y-20840D01*
X54036Y-20865D01*
X54002Y-20884D01*
X53965Y-20895D01*
X53926Y-20899D01*
X53888Y-20896D01*
X53851Y-20885D01*
X53816Y-20867D01*
X53786Y-20842D01*
X53760Y-20812D01*
X53742Y-20778D01*
X53730Y-20741D01*
X53726Y-20702D01*
X53729Y-20664D01*
X53740Y-20627D01*
X53757Y-20592D01*
X53782Y-20562D01*
X53811Y-20536D01*
X53845Y-20517D01*
X53883Y-20505D01*
X53921Y-20501D01*
X53959Y-20504D01*
X53997Y-20514D01*
X54032Y-20532D01*
X54062Y-20556D01*
X54088Y-20585D01*
X54107Y-20619D01*
X54120Y-20656D01*
X54124Y-20695D01*
X54125Y-20700D01*
X53725Y-20500D02*
X54125Y-20900D01*
X54125Y-20500D02*
X53725Y-20900D01*
X26275Y-13350D02*
X26270Y-13398D01*
X26256Y-13445D01*
X26233Y-13488D01*
X26202Y-13526D01*
X26164Y-13557D01*
X26121Y-13580D01*
X26075Y-13594D01*
X26026Y-13599D01*
X25979Y-13595D01*
X25932Y-13581D01*
X25889Y-13559D01*
X25851Y-13528D01*
X25819Y-13491D01*
X25796Y-13448D01*
X25781Y-13401D01*
X25776Y-13353D01*
X25780Y-13305D01*
X25793Y-13258D01*
X25815Y-13215D01*
X25846Y-13177D01*
X25883Y-13145D01*
X25925Y-13121D01*
X25972Y-13106D01*
X26020Y-13101D01*
X26068Y-13104D01*
X26115Y-13117D01*
X26158Y-13139D01*
X26197Y-13169D01*
X26229Y-13206D01*
X26253Y-13249D01*
X26268Y-13295D01*
X26274Y-13344D01*
X26275Y-13350D01*
X25775Y-13350D02*
X26275Y-13350D01*
X29025Y-13350D02*
X29020Y-13398D01*
X29006Y-13445D01*
X28983Y-13488D01*
X28952Y-13526D01*
X28914Y-13557D01*
X28871Y-13580D01*
X28825Y-13594D01*
X28776Y-13599D01*
X28729Y-13595D01*
X28682Y-13581D01*
X28639Y-13559D01*
X28601Y-13528D01*
X28569Y-13491D01*
X28546Y-13448D01*
X28531Y-13401D01*
X28526Y-13353D01*
X28530Y-13305D01*
X28543Y-13258D01*
X28565Y-13215D01*
X28596Y-13177D01*
X28633Y-13145D01*
X28675Y-13121D01*
X28722Y-13106D01*
X28770Y-13101D01*
X28818Y-13104D01*
X28865Y-13117D01*
X28908Y-13139D01*
X28947Y-13169D01*
X28979Y-13206D01*
X29003Y-13249D01*
X29018Y-13295D01*
X29024Y-13344D01*
X29025Y-13350D01*
X28525Y-13350D02*
X29025Y-13350D01*
X36950Y-13350D02*
X36944Y-13408D01*
X36927Y-13464D01*
X36899Y-13516D01*
X36862Y-13561D01*
X36817Y-13598D01*
X36766Y-13626D01*
X36710Y-13643D01*
X36652Y-13649D01*
X36594Y-13644D01*
X36538Y-13628D01*
X36486Y-13601D01*
X36441Y-13564D01*
X36403Y-13519D01*
X36375Y-13468D01*
X36357Y-13412D01*
X36351Y-13354D01*
X36355Y-13296D01*
X36372Y-13240D01*
X36398Y-13188D01*
X36435Y-13142D01*
X36479Y-13104D01*
X36530Y-13076D01*
X36586Y-13057D01*
X36644Y-13051D01*
X36702Y-13055D01*
X36758Y-13071D01*
X36810Y-13097D01*
X36856Y-13133D01*
X36895Y-13178D01*
X36924Y-13228D01*
X36942Y-13284D01*
X36949Y-13342D01*
X36950Y-13350D01*
X36650Y-13050D02*
X36650Y-13650D01*
X36950Y-15350D02*
X36944Y-15408D01*
X36927Y-15464D01*
X36899Y-15516D01*
X36862Y-15561D01*
X36817Y-15598D01*
X36766Y-15626D01*
X36710Y-15643D01*
X36652Y-15649D01*
X36594Y-15644D01*
X36538Y-15628D01*
X36486Y-15601D01*
X36441Y-15564D01*
X36403Y-15519D01*
X36375Y-15468D01*
X36357Y-15412D01*
X36351Y-15354D01*
X36355Y-15296D01*
X36372Y-15240D01*
X36398Y-15188D01*
X36435Y-15142D01*
X36479Y-15104D01*
X36530Y-15076D01*
X36586Y-15057D01*
X36644Y-15051D01*
X36702Y-15055D01*
X36758Y-15071D01*
X36810Y-15097D01*
X36856Y-15133D01*
X36895Y-15178D01*
X36924Y-15228D01*
X36942Y-15284D01*
X36949Y-15342D01*
X36950Y-15350D01*
X36650Y-15050D02*
X36650Y-15650D01*
X36950Y-17350D02*
X36944Y-17408D01*
X36927Y-17464D01*
X36899Y-17516D01*
X36862Y-17561D01*
X36817Y-17598D01*
X36766Y-17626D01*
X36710Y-17643D01*
X36652Y-17649D01*
X36594Y-17644D01*
X36538Y-17628D01*
X36486Y-17601D01*
X36441Y-17564D01*
X36403Y-17519D01*
X36375Y-17468D01*
X36357Y-17412D01*
X36351Y-17354D01*
X36355Y-17296D01*
X36372Y-17240D01*
X36398Y-17188D01*
X36435Y-17142D01*
X36479Y-17104D01*
X36530Y-17076D01*
X36586Y-17057D01*
X36644Y-17051D01*
X36702Y-17055D01*
X36758Y-17071D01*
X36810Y-17097D01*
X36856Y-17133D01*
X36895Y-17178D01*
X36924Y-17228D01*
X36942Y-17284D01*
X36949Y-17342D01*
X36950Y-17350D01*
X36650Y-17050D02*
X36650Y-17650D01*
X36950Y-19350D02*
X36944Y-19408D01*
X36927Y-19464D01*
X36899Y-19516D01*
X36862Y-19561D01*
X36817Y-19598D01*
X36766Y-19626D01*
X36710Y-19643D01*
X36652Y-19649D01*
X36594Y-19644D01*
X36538Y-19628D01*
X36486Y-19601D01*
X36441Y-19564D01*
X36403Y-19519D01*
X36375Y-19468D01*
X36357Y-19412D01*
X36351Y-19354D01*
X36355Y-19296D01*
X36372Y-19240D01*
X36398Y-19188D01*
X36435Y-19142D01*
X36479Y-19104D01*
X36530Y-19076D01*
X36586Y-19057D01*
X36644Y-19051D01*
X36702Y-19055D01*
X36758Y-19071D01*
X36810Y-19097D01*
X36856Y-19133D01*
X36895Y-19178D01*
X36924Y-19228D01*
X36942Y-19284D01*
X36949Y-19342D01*
X36950Y-19350D01*
X36650Y-19050D02*
X36650Y-19650D01*
X36950Y-21350D02*
X36944Y-21408D01*
X36927Y-21464D01*
X36899Y-21516D01*
X36862Y-21561D01*
X36817Y-21598D01*
X36766Y-21626D01*
X36710Y-21643D01*
X36652Y-21649D01*
X36594Y-21644D01*
X36538Y-21628D01*
X36486Y-21601D01*
X36441Y-21564D01*
X36403Y-21519D01*
X36375Y-21468D01*
X36357Y-21412D01*
X36351Y-21354D01*
X36355Y-21296D01*
X36372Y-21240D01*
X36398Y-21188D01*
X36435Y-21142D01*
X36479Y-21104D01*
X36530Y-21076D01*
X36586Y-21057D01*
X36644Y-21051D01*
X36702Y-21055D01*
X36758Y-21071D01*
X36810Y-21097D01*
X36856Y-21133D01*
X36895Y-21178D01*
X36924Y-21228D01*
X36942Y-21284D01*
X36949Y-21342D01*
X36950Y-21350D01*
X36650Y-21050D02*
X36650Y-21650D01*
X38249Y-11599D02*
X38249Y-10751D01*
X37401Y-10751D01*
X37401Y-11599D01*
X38249Y-11599D01*
X38249Y-23949D02*
X38249Y-23101D01*
X37401Y-23101D01*
X37401Y-23949D01*
X38249Y-23949D01*
X46699Y-09699D02*
X46699Y-08851D01*
X45851Y-08851D01*
X45851Y-09699D01*
X46699Y-09699D01*
X46699Y-27549D02*
X46699Y-26701D01*
X45851Y-26701D01*
X45851Y-27549D01*
X46699Y-27549D01*
G54D12*
X10239Y-30630D02*
X10239Y-29830D01*
X10430Y-29830D01*
X10544Y-29868D01*
X10620Y-29944D01*
X10659Y-30020D01*
X10697Y-30173D01*
X10697Y-30287D01*
X10659Y-30439D01*
X10620Y-30516D01*
X10544Y-30592D01*
X10430Y-30630D01*
X10239Y-30630D01*
X11039Y-30630D02*
X11039Y-30096D01*
X11039Y-30249D02*
X11078Y-30173D01*
X11116Y-30135D01*
X11192Y-30096D01*
X11268Y-30096D01*
X11534Y-30630D02*
X11534Y-30096D01*
X11534Y-29830D02*
X11496Y-29868D01*
X11534Y-29906D01*
X11573Y-29868D01*
X11534Y-29830D01*
X11534Y-29906D01*
X12030Y-30630D02*
X11954Y-30592D01*
X11915Y-30516D01*
X11915Y-29830D01*
X12449Y-30630D02*
X12373Y-30592D01*
X12334Y-30516D01*
X12334Y-29830D01*
X13363Y-30630D02*
X13363Y-29830D01*
X13630Y-30401D01*
X13897Y-29830D01*
X13897Y-30630D01*
X14620Y-30630D02*
X14620Y-30211D01*
X14582Y-30135D01*
X14506Y-30096D01*
X14354Y-30096D01*
X14277Y-30135D01*
X14620Y-30592D02*
X14544Y-30630D01*
X14354Y-30630D01*
X14277Y-30592D01*
X14239Y-30516D01*
X14239Y-30439D01*
X14277Y-30363D01*
X14354Y-30325D01*
X14544Y-30325D01*
X14620Y-30287D01*
X15001Y-30096D02*
X15001Y-30896D01*
X15001Y-30135D02*
X15078Y-30096D01*
X15230Y-30096D01*
X15306Y-30135D01*
X15344Y-30173D01*
X15382Y-30249D01*
X15382Y-30477D01*
X15344Y-30554D01*
X15306Y-30592D01*
X15230Y-30630D01*
X15078Y-30630D01*
X15001Y-30592D01*
X15725Y-30554D02*
X15764Y-30592D01*
X15725Y-30630D01*
X15687Y-30592D01*
X15725Y-30554D01*
X15725Y-30630D01*
X15725Y-30135D02*
X15764Y-30173D01*
X15725Y-30211D01*
X15687Y-30173D01*
X15725Y-30135D01*
X15725Y-30211D01*
X09599Y-31861D02*
X09849Y-32111D01*
X09849Y-31861D02*
X09599Y-32111D01*
X10392Y-31510D02*
X10468Y-31510D01*
X10544Y-31548D01*
X10582Y-31586D01*
X10620Y-31662D01*
X10659Y-31815D01*
X10659Y-32005D01*
X10620Y-32157D01*
X10582Y-32234D01*
X10544Y-32272D01*
X10468Y-32310D01*
X10392Y-32310D01*
X10316Y-32272D01*
X10278Y-32234D01*
X10239Y-32157D01*
X10201Y-32005D01*
X10201Y-31815D01*
X10239Y-31662D01*
X10278Y-31586D01*
X10316Y-31548D01*
X10392Y-31510D01*
X11001Y-32234D02*
X11040Y-32272D01*
X11001Y-32310D01*
X10963Y-32272D01*
X11001Y-32234D01*
X11001Y-32310D01*
X11535Y-31510D02*
X11611Y-31510D01*
X11687Y-31548D01*
X11725Y-31586D01*
X11763Y-31662D01*
X11802Y-31815D01*
X11802Y-32005D01*
X11763Y-32157D01*
X11725Y-32234D01*
X11687Y-32272D01*
X11611Y-32310D01*
X11535Y-32310D01*
X11459Y-32272D01*
X11421Y-32234D01*
X11382Y-32157D01*
X11344Y-32005D01*
X11344Y-31815D01*
X11382Y-31662D01*
X11421Y-31586D01*
X11459Y-31548D01*
X11535Y-31510D01*
X12106Y-31586D02*
X12144Y-31548D01*
X12221Y-31510D01*
X12411Y-31510D01*
X12487Y-31548D01*
X12525Y-31586D01*
X12564Y-31662D01*
X12564Y-31738D01*
X12525Y-31853D01*
X12068Y-32310D01*
X12564Y-32310D01*
X13287Y-31510D02*
X12906Y-31510D01*
X12868Y-31891D01*
X12906Y-31853D01*
X12983Y-31815D01*
X13173Y-31815D01*
X13249Y-31853D01*
X13287Y-31891D01*
X13326Y-31967D01*
X13326Y-32157D01*
X13287Y-32234D01*
X13249Y-32272D01*
X13173Y-32310D01*
X12983Y-32310D01*
X12906Y-32272D01*
X12868Y-32234D01*
X13630Y-31510D02*
X13630Y-31662D01*
X13935Y-31510D02*
X13935Y-31662D01*
X15460Y-31472D02*
X14774Y-32500D01*
X16489Y-31510D02*
X16565Y-31510D01*
X16641Y-31548D01*
X16679Y-31586D01*
X16717Y-31662D01*
X16756Y-31815D01*
X16756Y-32005D01*
X16717Y-32157D01*
X16679Y-32234D01*
X16641Y-32272D01*
X16565Y-32310D01*
X16489Y-32310D01*
X16413Y-32272D01*
X16375Y-32234D01*
X16336Y-32157D01*
X16298Y-32005D01*
X16298Y-31815D01*
X16336Y-31662D01*
X16375Y-31586D01*
X16413Y-31548D01*
X16489Y-31510D01*
X17098Y-32234D02*
X17137Y-32272D01*
X17098Y-32310D01*
X17060Y-32272D01*
X17098Y-32234D01*
X17098Y-32310D01*
X17822Y-31510D02*
X17670Y-31510D01*
X17594Y-31548D01*
X17556Y-31586D01*
X17479Y-31700D01*
X17441Y-31853D01*
X17441Y-32157D01*
X17479Y-32234D01*
X17518Y-32272D01*
X17594Y-32310D01*
X17746Y-32310D01*
X17822Y-32272D01*
X17860Y-32234D01*
X17899Y-32157D01*
X17899Y-31967D01*
X17860Y-31891D01*
X17822Y-31853D01*
X17746Y-31815D01*
X17594Y-31815D01*
X17518Y-31853D01*
X17479Y-31891D01*
X17441Y-31967D01*
X18584Y-31776D02*
X18584Y-32310D01*
X18394Y-31472D02*
X18203Y-32043D01*
X18699Y-32043D01*
X19003Y-32310D02*
X19003Y-31776D01*
X19003Y-31853D02*
X19042Y-31815D01*
X19118Y-31776D01*
X19232Y-31776D01*
X19308Y-31815D01*
X19346Y-31891D01*
X19346Y-32310D01*
X19346Y-31891D02*
X19384Y-31815D01*
X19461Y-31776D01*
X19575Y-31776D01*
X19651Y-31815D01*
X19689Y-31891D01*
X19689Y-32310D01*
X20070Y-32310D02*
X20070Y-31776D01*
X20070Y-31853D02*
X20109Y-31815D01*
X20185Y-31776D01*
X20299Y-31776D01*
X20375Y-31815D01*
X20413Y-31891D01*
X20413Y-32310D01*
X20413Y-31891D02*
X20451Y-31815D01*
X20528Y-31776D01*
X20642Y-31776D01*
X20718Y-31815D01*
X20756Y-31891D01*
X20756Y-32310D01*
X21976Y-32615D02*
X21938Y-32576D01*
X21862Y-32462D01*
X21824Y-32386D01*
X21786Y-32272D01*
X21747Y-32081D01*
X21747Y-31929D01*
X21786Y-31738D01*
X21824Y-31624D01*
X21862Y-31548D01*
X21938Y-31434D01*
X21976Y-31396D01*
X22395Y-31853D02*
X22319Y-31815D01*
X22280Y-31776D01*
X22242Y-31700D01*
X22242Y-31662D01*
X22280Y-31586D01*
X22319Y-31548D01*
X22395Y-31510D01*
X22547Y-31510D01*
X22623Y-31548D01*
X22661Y-31586D01*
X22700Y-31662D01*
X22700Y-31700D01*
X22661Y-31776D01*
X22623Y-31815D01*
X22547Y-31853D01*
X22395Y-31853D01*
X22319Y-31891D01*
X22280Y-31929D01*
X22242Y-32005D01*
X22242Y-32157D01*
X22280Y-32234D01*
X22319Y-32272D01*
X22395Y-32310D01*
X22547Y-32310D01*
X22623Y-32272D01*
X22661Y-32234D01*
X22700Y-32157D01*
X22700Y-32005D01*
X22661Y-31929D01*
X22623Y-31891D01*
X22547Y-31853D01*
X23652Y-32310D02*
X23652Y-31510D01*
X23995Y-32310D02*
X23995Y-31891D01*
X23957Y-31815D01*
X23881Y-31776D01*
X23767Y-31776D01*
X23691Y-31815D01*
X23652Y-31853D01*
X24491Y-32310D02*
X24415Y-32272D01*
X24376Y-32234D01*
X24338Y-32157D01*
X24338Y-31929D01*
X24376Y-31853D01*
X24415Y-31815D01*
X24491Y-31776D01*
X24605Y-31776D01*
X24681Y-31815D01*
X24719Y-31853D01*
X24757Y-31929D01*
X24757Y-32157D01*
X24719Y-32234D01*
X24681Y-32272D01*
X24605Y-32310D01*
X24491Y-32310D01*
X25215Y-32310D02*
X25139Y-32272D01*
X25100Y-32196D01*
X25100Y-31510D01*
X25824Y-32272D02*
X25748Y-32310D01*
X25596Y-32310D01*
X25519Y-32272D01*
X25481Y-32196D01*
X25481Y-31891D01*
X25519Y-31815D01*
X25596Y-31776D01*
X25748Y-31776D01*
X25824Y-31815D01*
X25862Y-31891D01*
X25862Y-31967D01*
X25481Y-32043D01*
X26167Y-32272D02*
X26244Y-32310D01*
X26396Y-32310D01*
X26472Y-32272D01*
X26510Y-32196D01*
X26510Y-32157D01*
X26472Y-32081D01*
X26396Y-32043D01*
X26282Y-32043D01*
X26205Y-32005D01*
X26167Y-31929D01*
X26167Y-31891D01*
X26205Y-31815D01*
X26282Y-31776D01*
X26396Y-31776D01*
X26472Y-31815D01*
X26777Y-32615D02*
X26815Y-32576D01*
X26892Y-32462D01*
X26930Y-32386D01*
X26968Y-32272D01*
X27006Y-32081D01*
X27006Y-31929D01*
X26968Y-31738D01*
X26930Y-31624D01*
X26892Y-31548D01*
X26815Y-31434D01*
X26777Y-31396D01*
G54D10*
X09849Y-33042D02*
X09845Y-33073D01*
X09836Y-33102D01*
X09822Y-33130D01*
X09802Y-33154D01*
X09778Y-33174D01*
X09751Y-33189D01*
X09721Y-33198D01*
X09690Y-33201D01*
X09660Y-33199D01*
X09630Y-33190D01*
X09602Y-33175D01*
X09578Y-33156D01*
X09557Y-33132D01*
X09542Y-33105D01*
X09533Y-33075D01*
X09530Y-33044D01*
X09532Y-33014D01*
X09541Y-32984D01*
X09555Y-32956D01*
X09574Y-32931D01*
X09598Y-32911D01*
X09625Y-32896D01*
X09655Y-32886D01*
X09686Y-32883D01*
X09716Y-32885D01*
X09746Y-32893D01*
X09774Y-32907D01*
X09799Y-32927D01*
X09819Y-32950D01*
X09835Y-32977D01*
X09845Y-33007D01*
X09848Y-33038D01*
X09849Y-33042D01*
G54D12*
X10392Y-32566D02*
X10468Y-32566D01*
X10544Y-32604D01*
X10582Y-32642D01*
X10620Y-32718D01*
X10659Y-32871D01*
X10659Y-33061D01*
X10620Y-33213D01*
X10582Y-33290D01*
X10544Y-33328D01*
X10468Y-33366D01*
X10392Y-33366D01*
X10316Y-33328D01*
X10278Y-33290D01*
X10239Y-33213D01*
X10201Y-33061D01*
X10201Y-32871D01*
X10239Y-32718D01*
X10278Y-32642D01*
X10316Y-32604D01*
X10392Y-32566D01*
X11001Y-33290D02*
X11040Y-33328D01*
X11001Y-33366D01*
X10963Y-33328D01*
X11001Y-33290D01*
X11001Y-33366D01*
X11535Y-32566D02*
X11611Y-32566D01*
X11687Y-32604D01*
X11725Y-32642D01*
X11763Y-32718D01*
X11802Y-32871D01*
X11802Y-33061D01*
X11763Y-33213D01*
X11725Y-33290D01*
X11687Y-33328D01*
X11611Y-33366D01*
X11535Y-33366D01*
X11459Y-33328D01*
X11421Y-33290D01*
X11382Y-33213D01*
X11344Y-33061D01*
X11344Y-32871D01*
X11382Y-32718D01*
X11421Y-32642D01*
X11459Y-32604D01*
X11535Y-32566D01*
X12068Y-32566D02*
X12564Y-32566D01*
X12297Y-32871D01*
X12411Y-32871D01*
X12487Y-32909D01*
X12525Y-32947D01*
X12564Y-33023D01*
X12564Y-33213D01*
X12525Y-33290D01*
X12487Y-33328D01*
X12411Y-33366D01*
X12183Y-33366D01*
X12106Y-33328D01*
X12068Y-33290D01*
X12868Y-32642D02*
X12906Y-32604D01*
X12983Y-32566D01*
X13173Y-32566D01*
X13249Y-32604D01*
X13287Y-32642D01*
X13326Y-32718D01*
X13326Y-32794D01*
X13287Y-32909D01*
X12830Y-33366D01*
X13326Y-33366D01*
X13630Y-32566D02*
X13630Y-32718D01*
X13935Y-32566D02*
X13935Y-32718D01*
X15460Y-32528D02*
X14774Y-33556D01*
X16489Y-32566D02*
X16565Y-32566D01*
X16641Y-32604D01*
X16679Y-32642D01*
X16717Y-32718D01*
X16756Y-32871D01*
X16756Y-33061D01*
X16717Y-33213D01*
X16679Y-33290D01*
X16641Y-33328D01*
X16565Y-33366D01*
X16489Y-33366D01*
X16413Y-33328D01*
X16375Y-33290D01*
X16336Y-33213D01*
X16298Y-33061D01*
X16298Y-32871D01*
X16336Y-32718D01*
X16375Y-32642D01*
X16413Y-32604D01*
X16489Y-32566D01*
X17098Y-33290D02*
X17137Y-33328D01*
X17098Y-33366D01*
X17060Y-33328D01*
X17098Y-33290D01*
X17098Y-33366D01*
X17594Y-32909D02*
X17518Y-32871D01*
X17479Y-32832D01*
X17441Y-32756D01*
X17441Y-32718D01*
X17479Y-32642D01*
X17518Y-32604D01*
X17594Y-32566D01*
X17746Y-32566D01*
X17822Y-32604D01*
X17860Y-32642D01*
X17899Y-32718D01*
X17899Y-32756D01*
X17860Y-32832D01*
X17822Y-32871D01*
X17746Y-32909D01*
X17594Y-32909D01*
X17518Y-32947D01*
X17479Y-32985D01*
X17441Y-33061D01*
X17441Y-33213D01*
X17479Y-33290D01*
X17518Y-33328D01*
X17594Y-33366D01*
X17746Y-33366D01*
X17822Y-33328D01*
X17860Y-33290D01*
X17899Y-33213D01*
X17899Y-33061D01*
X17860Y-32985D01*
X17822Y-32947D01*
X17746Y-32909D01*
X18661Y-33366D02*
X18203Y-33366D01*
X18432Y-33366D02*
X18432Y-32566D01*
X18356Y-32680D01*
X18280Y-32756D01*
X18203Y-32794D01*
X19003Y-33366D02*
X19003Y-32832D01*
X19003Y-32909D02*
X19042Y-32871D01*
X19118Y-32832D01*
X19232Y-32832D01*
X19308Y-32871D01*
X19346Y-32947D01*
X19346Y-33366D01*
X19346Y-32947D02*
X19384Y-32871D01*
X19461Y-32832D01*
X19575Y-32832D01*
X19651Y-32871D01*
X19689Y-32947D01*
X19689Y-33366D01*
X20070Y-33366D02*
X20070Y-32832D01*
X20070Y-32909D02*
X20109Y-32871D01*
X20185Y-32832D01*
X20299Y-32832D01*
X20375Y-32871D01*
X20413Y-32947D01*
X20413Y-33366D01*
X20413Y-32947D02*
X20451Y-32871D01*
X20528Y-32832D01*
X20642Y-32832D01*
X20718Y-32871D01*
X20756Y-32947D01*
X20756Y-33366D01*
X21976Y-33671D02*
X21938Y-33632D01*
X21862Y-33518D01*
X21824Y-33442D01*
X21786Y-33328D01*
X21747Y-33137D01*
X21747Y-32985D01*
X21786Y-32794D01*
X21824Y-32680D01*
X21862Y-32604D01*
X21938Y-32490D01*
X21976Y-32452D01*
X22623Y-32566D02*
X22471Y-32566D01*
X22395Y-32604D01*
X22357Y-32642D01*
X22280Y-32756D01*
X22242Y-32909D01*
X22242Y-33213D01*
X22280Y-33290D01*
X22319Y-33328D01*
X22395Y-33366D01*
X22547Y-33366D01*
X22623Y-33328D01*
X22661Y-33290D01*
X22700Y-33213D01*
X22700Y-33023D01*
X22661Y-32947D01*
X22623Y-32909D01*
X22547Y-32871D01*
X22395Y-32871D01*
X22319Y-32909D01*
X22280Y-32947D01*
X22242Y-33023D01*
X23652Y-33366D02*
X23652Y-32566D01*
X23995Y-33366D02*
X23995Y-32947D01*
X23957Y-32871D01*
X23881Y-32832D01*
X23767Y-32832D01*
X23691Y-32871D01*
X23652Y-32909D01*
X24491Y-33366D02*
X24415Y-33328D01*
X24376Y-33290D01*
X24338Y-33213D01*
X24338Y-32985D01*
X24376Y-32909D01*
X24415Y-32871D01*
X24491Y-32832D01*
X24605Y-32832D01*
X24681Y-32871D01*
X24719Y-32909D01*
X24757Y-32985D01*
X24757Y-33213D01*
X24719Y-33290D01*
X24681Y-33328D01*
X24605Y-33366D01*
X24491Y-33366D01*
X25215Y-33366D02*
X25139Y-33328D01*
X25100Y-33252D01*
X25100Y-32566D01*
X25824Y-33328D02*
X25748Y-33366D01*
X25596Y-33366D01*
X25519Y-33328D01*
X25481Y-33252D01*
X25481Y-32947D01*
X25519Y-32871D01*
X25596Y-32832D01*
X25748Y-32832D01*
X25824Y-32871D01*
X25862Y-32947D01*
X25862Y-33023D01*
X25481Y-33099D01*
X26167Y-33328D02*
X26244Y-33366D01*
X26396Y-33366D01*
X26472Y-33328D01*
X26510Y-33252D01*
X26510Y-33213D01*
X26472Y-33137D01*
X26396Y-33099D01*
X26282Y-33099D01*
X26205Y-33061D01*
X26167Y-32985D01*
X26167Y-32947D01*
X26205Y-32871D01*
X26282Y-32832D01*
X26396Y-32832D01*
X26472Y-32871D01*
X26777Y-33671D02*
X26815Y-33632D01*
X26892Y-33518D01*
X26930Y-33442D01*
X26968Y-33328D01*
X27006Y-33137D01*
X27006Y-32985D01*
X26968Y-32794D01*
X26930Y-32680D01*
X26892Y-32604D01*
X26815Y-32490D01*
X26777Y-32452D01*
X09674Y-33923D02*
X09674Y-34273D01*
X09849Y-34098D02*
X09499Y-34098D01*
X10392Y-33622D02*
X10468Y-33622D01*
X10544Y-33660D01*
X10582Y-33698D01*
X10620Y-33774D01*
X10659Y-33927D01*
X10659Y-34117D01*
X10620Y-34269D01*
X10582Y-34346D01*
X10544Y-34384D01*
X10468Y-34422D01*
X10392Y-34422D01*
X10316Y-34384D01*
X10278Y-34346D01*
X10239Y-34269D01*
X10201Y-34117D01*
X10201Y-33927D01*
X10239Y-33774D01*
X10278Y-33698D01*
X10316Y-33660D01*
X10392Y-33622D01*
X11001Y-34346D02*
X11040Y-34384D01*
X11001Y-34422D01*
X10963Y-34384D01*
X11001Y-34346D01*
X11001Y-34422D01*
X11535Y-33622D02*
X11611Y-33622D01*
X11687Y-33660D01*
X11725Y-33698D01*
X11763Y-33774D01*
X11802Y-33927D01*
X11802Y-34117D01*
X11763Y-34269D01*
X11725Y-34346D01*
X11687Y-34384D01*
X11611Y-34422D01*
X11535Y-34422D01*
X11459Y-34384D01*
X11421Y-34346D01*
X11382Y-34269D01*
X11344Y-34117D01*
X11344Y-33927D01*
X11382Y-33774D01*
X11421Y-33698D01*
X11459Y-33660D01*
X11535Y-33622D01*
X12068Y-33622D02*
X12564Y-33622D01*
X12297Y-33927D01*
X12411Y-33927D01*
X12487Y-33965D01*
X12525Y-34003D01*
X12564Y-34079D01*
X12564Y-34269D01*
X12525Y-34346D01*
X12487Y-34384D01*
X12411Y-34422D01*
X12183Y-34422D01*
X12106Y-34384D01*
X12068Y-34346D01*
X13287Y-33622D02*
X12906Y-33622D01*
X12868Y-34003D01*
X12906Y-33965D01*
X12983Y-33927D01*
X13173Y-33927D01*
X13249Y-33965D01*
X13287Y-34003D01*
X13326Y-34079D01*
X13326Y-34269D01*
X13287Y-34346D01*
X13249Y-34384D01*
X13173Y-34422D01*
X12983Y-34422D01*
X12906Y-34384D01*
X12868Y-34346D01*
X13630Y-33622D02*
X13630Y-33774D01*
X13935Y-33622D02*
X13935Y-33774D01*
X15460Y-33584D02*
X14774Y-34612D01*
X16489Y-33622D02*
X16565Y-33622D01*
X16641Y-33660D01*
X16679Y-33698D01*
X16717Y-33774D01*
X16756Y-33927D01*
X16756Y-34117D01*
X16717Y-34269D01*
X16679Y-34346D01*
X16641Y-34384D01*
X16565Y-34422D01*
X16489Y-34422D01*
X16413Y-34384D01*
X16375Y-34346D01*
X16336Y-34269D01*
X16298Y-34117D01*
X16298Y-33927D01*
X16336Y-33774D01*
X16375Y-33698D01*
X16413Y-33660D01*
X16489Y-33622D01*
X17098Y-34346D02*
X17137Y-34384D01*
X17098Y-34422D01*
X17060Y-34384D01*
X17098Y-34346D01*
X17098Y-34422D01*
X17594Y-33965D02*
X17518Y-33927D01*
X17479Y-33888D01*
X17441Y-33812D01*
X17441Y-33774D01*
X17479Y-33698D01*
X17518Y-33660D01*
X17594Y-33622D01*
X17746Y-33622D01*
X17822Y-33660D01*
X17860Y-33698D01*
X17899Y-33774D01*
X17899Y-33812D01*
X17860Y-33888D01*
X17822Y-33927D01*
X17746Y-33965D01*
X17594Y-33965D01*
X17518Y-34003D01*
X17479Y-34041D01*
X17441Y-34117D01*
X17441Y-34269D01*
X17479Y-34346D01*
X17518Y-34384D01*
X17594Y-34422D01*
X17746Y-34422D01*
X17822Y-34384D01*
X17860Y-34346D01*
X17899Y-34269D01*
X17899Y-34117D01*
X17860Y-34041D01*
X17822Y-34003D01*
X17746Y-33965D01*
X18280Y-34422D02*
X18432Y-34422D01*
X18508Y-34384D01*
X18546Y-34346D01*
X18622Y-34231D01*
X18661Y-34079D01*
X18661Y-33774D01*
X18622Y-33698D01*
X18584Y-33660D01*
X18508Y-33622D01*
X18356Y-33622D01*
X18280Y-33660D01*
X18241Y-33698D01*
X18203Y-33774D01*
X18203Y-33965D01*
X18241Y-34041D01*
X18280Y-34079D01*
X18356Y-34117D01*
X18508Y-34117D01*
X18584Y-34079D01*
X18622Y-34041D01*
X18661Y-33965D01*
X19003Y-34422D02*
X19003Y-33888D01*
X19003Y-33965D02*
X19042Y-33927D01*
X19118Y-33888D01*
X19232Y-33888D01*
X19308Y-33927D01*
X19346Y-34003D01*
X19346Y-34422D01*
X19346Y-34003D02*
X19384Y-33927D01*
X19461Y-33888D01*
X19575Y-33888D01*
X19651Y-33927D01*
X19689Y-34003D01*
X19689Y-34422D01*
X20070Y-34422D02*
X20070Y-33888D01*
X20070Y-33965D02*
X20109Y-33927D01*
X20185Y-33888D01*
X20299Y-33888D01*
X20375Y-33927D01*
X20413Y-34003D01*
X20413Y-34422D01*
X20413Y-34003D02*
X20451Y-33927D01*
X20528Y-33888D01*
X20642Y-33888D01*
X20718Y-33927D01*
X20756Y-34003D01*
X20756Y-34422D01*
X21976Y-34727D02*
X21938Y-34688D01*
X21862Y-34574D01*
X21824Y-34498D01*
X21786Y-34384D01*
X21747Y-34193D01*
X21747Y-34041D01*
X21786Y-33850D01*
X21824Y-33736D01*
X21862Y-33660D01*
X21938Y-33546D01*
X21976Y-33508D01*
X22623Y-33888D02*
X22623Y-34422D01*
X22433Y-33584D02*
X22242Y-34155D01*
X22738Y-34155D01*
X23385Y-33888D02*
X23385Y-34422D01*
X23195Y-33584D02*
X23004Y-34155D01*
X23500Y-34155D01*
X24414Y-34422D02*
X24414Y-33622D01*
X24757Y-34422D02*
X24757Y-34003D01*
X24719Y-33927D01*
X24643Y-33888D01*
X24529Y-33888D01*
X24453Y-33927D01*
X24414Y-33965D01*
X25253Y-34422D02*
X25177Y-34384D01*
X25138Y-34346D01*
X25100Y-34269D01*
X25100Y-34041D01*
X25138Y-33965D01*
X25177Y-33927D01*
X25253Y-33888D01*
X25367Y-33888D01*
X25443Y-33927D01*
X25481Y-33965D01*
X25519Y-34041D01*
X25519Y-34269D01*
X25481Y-34346D01*
X25443Y-34384D01*
X25367Y-34422D01*
X25253Y-34422D01*
X25977Y-34422D02*
X25901Y-34384D01*
X25862Y-34308D01*
X25862Y-33622D01*
X26586Y-34384D02*
X26510Y-34422D01*
X26358Y-34422D01*
X26281Y-34384D01*
X26243Y-34308D01*
X26243Y-34003D01*
X26281Y-33927D01*
X26358Y-33888D01*
X26510Y-33888D01*
X26586Y-33927D01*
X26624Y-34003D01*
X26624Y-34079D01*
X26243Y-34155D01*
X26929Y-34384D02*
X27006Y-34422D01*
X27158Y-34422D01*
X27234Y-34384D01*
X27272Y-34308D01*
X27272Y-34269D01*
X27234Y-34193D01*
X27158Y-34155D01*
X27044Y-34155D01*
X26967Y-34117D01*
X26929Y-34041D01*
X26929Y-34003D01*
X26967Y-33927D01*
X27044Y-33888D01*
X27158Y-33888D01*
X27234Y-33927D01*
X27539Y-34727D02*
X27577Y-34688D01*
X27654Y-34574D01*
X27692Y-34498D01*
X27730Y-34384D01*
X27768Y-34193D01*
X27768Y-34041D01*
X27730Y-33850D01*
X27692Y-33736D01*
X27654Y-33660D01*
X27577Y-33546D01*
X27539Y-33508D01*
G54D10*
X09849Y-35154D02*
X09845Y-35192D01*
X09833Y-35230D01*
X09815Y-35264D01*
X09790Y-35294D01*
X09760Y-35319D01*
X09726Y-35338D01*
X09689Y-35349D01*
X09650Y-35353D01*
X09612Y-35350D01*
X09575Y-35339D01*
X09540Y-35321D01*
X09510Y-35296D01*
X09484Y-35266D01*
X09466Y-35232D01*
X09454Y-35195D01*
X09450Y-35156D01*
X09453Y-35118D01*
X09464Y-35081D01*
X09481Y-35046D01*
X09506Y-35016D01*
X09535Y-34990D01*
X09569Y-34971D01*
X09607Y-34959D01*
X09645Y-34955D01*
X09683Y-34958D01*
X09721Y-34968D01*
X09756Y-34986D01*
X09786Y-35010D01*
X09812Y-35039D01*
X09831Y-35073D01*
X09844Y-35110D01*
X09848Y-35149D01*
X09849Y-35154D01*
X09449Y-34954D02*
X09849Y-35354D01*
X09849Y-34954D02*
X09449Y-35354D01*
G54D12*
X10392Y-34678D02*
X10468Y-34678D01*
X10544Y-34716D01*
X10582Y-34754D01*
X10620Y-34830D01*
X10659Y-34983D01*
X10659Y-35173D01*
X10620Y-35325D01*
X10582Y-35402D01*
X10544Y-35440D01*
X10468Y-35478D01*
X10392Y-35478D01*
X10316Y-35440D01*
X10278Y-35402D01*
X10239Y-35325D01*
X10201Y-35173D01*
X10201Y-34983D01*
X10239Y-34830D01*
X10278Y-34754D01*
X10316Y-34716D01*
X10392Y-34678D01*
X11001Y-35402D02*
X11040Y-35440D01*
X11001Y-35478D01*
X10963Y-35440D01*
X11001Y-35402D01*
X11001Y-35478D01*
X11535Y-34678D02*
X11611Y-34678D01*
X11687Y-34716D01*
X11725Y-34754D01*
X11763Y-34830D01*
X11802Y-34983D01*
X11802Y-35173D01*
X11763Y-35325D01*
X11725Y-35402D01*
X11687Y-35440D01*
X11611Y-35478D01*
X11535Y-35478D01*
X11459Y-35440D01*
X11421Y-35402D01*
X11382Y-35325D01*
X11344Y-35173D01*
X11344Y-34983D01*
X11382Y-34830D01*
X11421Y-34754D01*
X11459Y-34716D01*
X11535Y-34678D01*
X12487Y-34944D02*
X12487Y-35478D01*
X12297Y-34640D02*
X12106Y-35211D01*
X12602Y-35211D01*
X13059Y-34678D02*
X13135Y-34678D01*
X13211Y-34716D01*
X13249Y-34754D01*
X13287Y-34830D01*
X13326Y-34983D01*
X13326Y-35173D01*
X13287Y-35325D01*
X13249Y-35402D01*
X13211Y-35440D01*
X13135Y-35478D01*
X13059Y-35478D01*
X12983Y-35440D01*
X12945Y-35402D01*
X12906Y-35325D01*
X12868Y-35173D01*
X12868Y-34983D01*
X12906Y-34830D01*
X12945Y-34754D01*
X12983Y-34716D01*
X13059Y-34678D01*
X13630Y-34678D02*
X13630Y-34830D01*
X13935Y-34678D02*
X13935Y-34830D01*
X15460Y-34640D02*
X14774Y-35668D01*
X16756Y-35478D02*
X16298Y-35478D01*
X16527Y-35478D02*
X16527Y-34678D01*
X16451Y-34792D01*
X16375Y-34868D01*
X16298Y-34906D01*
X17098Y-35402D02*
X17137Y-35440D01*
X17098Y-35478D01*
X17060Y-35440D01*
X17098Y-35402D01*
X17098Y-35478D01*
X17632Y-34678D02*
X17708Y-34678D01*
X17784Y-34716D01*
X17822Y-34754D01*
X17860Y-34830D01*
X17899Y-34983D01*
X17899Y-35173D01*
X17860Y-35325D01*
X17822Y-35402D01*
X17784Y-35440D01*
X17708Y-35478D01*
X17632Y-35478D01*
X17556Y-35440D01*
X17518Y-35402D01*
X17479Y-35325D01*
X17441Y-35173D01*
X17441Y-34983D01*
X17479Y-34830D01*
X17518Y-34754D01*
X17556Y-34716D01*
X17632Y-34678D01*
X18203Y-34754D02*
X18241Y-34716D01*
X18318Y-34678D01*
X18508Y-34678D01*
X18584Y-34716D01*
X18622Y-34754D01*
X18661Y-34830D01*
X18661Y-34906D01*
X18622Y-35021D01*
X18165Y-35478D01*
X18661Y-35478D01*
X19003Y-35478D02*
X19003Y-34944D01*
X19003Y-35021D02*
X19042Y-34983D01*
X19118Y-34944D01*
X19232Y-34944D01*
X19308Y-34983D01*
X19346Y-35059D01*
X19346Y-35478D01*
X19346Y-35059D02*
X19384Y-34983D01*
X19461Y-34944D01*
X19575Y-34944D01*
X19651Y-34983D01*
X19689Y-35059D01*
X19689Y-35478D01*
X20070Y-35478D02*
X20070Y-34944D01*
X20070Y-35021D02*
X20109Y-34983D01*
X20185Y-34944D01*
X20299Y-34944D01*
X20375Y-34983D01*
X20413Y-35059D01*
X20413Y-35478D01*
X20413Y-35059D02*
X20451Y-34983D01*
X20528Y-34944D01*
X20642Y-34944D01*
X20718Y-34983D01*
X20756Y-35059D01*
X20756Y-35478D01*
X21976Y-35783D02*
X21938Y-35744D01*
X21862Y-35630D01*
X21824Y-35554D01*
X21786Y-35440D01*
X21747Y-35249D01*
X21747Y-35097D01*
X21786Y-34906D01*
X21824Y-34792D01*
X21862Y-34716D01*
X21938Y-34602D01*
X21976Y-34564D01*
X22700Y-35478D02*
X22242Y-35478D01*
X22471Y-35478D02*
X22471Y-34678D01*
X22395Y-34792D01*
X22319Y-34868D01*
X22242Y-34906D01*
X22966Y-34678D02*
X23462Y-34678D01*
X23195Y-34983D01*
X23309Y-34983D01*
X23385Y-35021D01*
X23423Y-35059D01*
X23462Y-35135D01*
X23462Y-35325D01*
X23423Y-35402D01*
X23385Y-35440D01*
X23309Y-35478D01*
X23081Y-35478D01*
X23004Y-35440D01*
X22966Y-35402D01*
X23728Y-34678D02*
X24224Y-34678D01*
X23957Y-34983D01*
X24071Y-34983D01*
X24147Y-35021D01*
X24185Y-35059D01*
X24224Y-35135D01*
X24224Y-35325D01*
X24185Y-35402D01*
X24147Y-35440D01*
X24071Y-35478D01*
X23843Y-35478D01*
X23766Y-35440D01*
X23728Y-35402D01*
X25176Y-35478D02*
X25176Y-34678D01*
X25519Y-35478D02*
X25519Y-35059D01*
X25481Y-34983D01*
X25405Y-34944D01*
X25291Y-34944D01*
X25215Y-34983D01*
X25176Y-35021D01*
X26015Y-35478D02*
X25939Y-35440D01*
X25900Y-35402D01*
X25862Y-35325D01*
X25862Y-35097D01*
X25900Y-35021D01*
X25939Y-34983D01*
X26015Y-34944D01*
X26129Y-34944D01*
X26205Y-34983D01*
X26243Y-35021D01*
X26281Y-35097D01*
X26281Y-35325D01*
X26243Y-35402D01*
X26205Y-35440D01*
X26129Y-35478D01*
X26015Y-35478D01*
X26739Y-35478D02*
X26663Y-35440D01*
X26624Y-35364D01*
X26624Y-34678D01*
X27348Y-35440D02*
X27272Y-35478D01*
X27120Y-35478D01*
X27043Y-35440D01*
X27005Y-35364D01*
X27005Y-35059D01*
X27043Y-34983D01*
X27120Y-34944D01*
X27272Y-34944D01*
X27348Y-34983D01*
X27386Y-35059D01*
X27386Y-35135D01*
X27005Y-35211D01*
X27691Y-35440D02*
X27768Y-35478D01*
X27920Y-35478D01*
X27996Y-35440D01*
X28034Y-35364D01*
X28034Y-35325D01*
X27996Y-35249D01*
X27920Y-35211D01*
X27806Y-35211D01*
X27729Y-35173D01*
X27691Y-35097D01*
X27691Y-35059D01*
X27729Y-34983D01*
X27806Y-34944D01*
X27920Y-34944D01*
X27996Y-34983D01*
X28301Y-35783D02*
X28339Y-35744D01*
X28416Y-35630D01*
X28454Y-35554D01*
X28492Y-35440D01*
X28530Y-35249D01*
X28530Y-35097D01*
X28492Y-34906D01*
X28454Y-34792D01*
X28416Y-34716D01*
X28339Y-34602D01*
X28301Y-34564D01*
G54D10*
X09849Y-36210D02*
X09844Y-36258D01*
X09830Y-36305D01*
X09807Y-36348D01*
X09776Y-36386D01*
X09738Y-36417D01*
X09695Y-36440D01*
X09649Y-36454D01*
X09600Y-36459D01*
X09553Y-36455D01*
X09506Y-36441D01*
X09463Y-36419D01*
X09425Y-36388D01*
X09393Y-36351D01*
X09370Y-36308D01*
X09355Y-36261D01*
X09350Y-36213D01*
X09354Y-36165D01*
X09367Y-36118D01*
X09389Y-36075D01*
X09420Y-36037D01*
X09457Y-36005D01*
X09499Y-35981D01*
X09546Y-35966D01*
X09594Y-35961D01*
X09642Y-35964D01*
X09689Y-35977D01*
X09732Y-35999D01*
X09771Y-36029D01*
X09803Y-36066D01*
X09827Y-36109D01*
X09842Y-36155D01*
X09848Y-36204D01*
X09849Y-36210D01*
X09349Y-36210D02*
X09849Y-36210D01*
G54D12*
X10392Y-35734D02*
X10468Y-35734D01*
X10544Y-35772D01*
X10582Y-35810D01*
X10620Y-35886D01*
X10659Y-36039D01*
X10659Y-36229D01*
X10620Y-36381D01*
X10582Y-36458D01*
X10544Y-36496D01*
X10468Y-36534D01*
X10392Y-36534D01*
X10316Y-36496D01*
X10278Y-36458D01*
X10239Y-36381D01*
X10201Y-36229D01*
X10201Y-36039D01*
X10239Y-35886D01*
X10278Y-35810D01*
X10316Y-35772D01*
X10392Y-35734D01*
X11001Y-36458D02*
X11040Y-36496D01*
X11001Y-36534D01*
X10963Y-36496D01*
X11001Y-36458D01*
X11001Y-36534D01*
X11535Y-35734D02*
X11611Y-35734D01*
X11687Y-35772D01*
X11725Y-35810D01*
X11763Y-35886D01*
X11802Y-36039D01*
X11802Y-36229D01*
X11763Y-36381D01*
X11725Y-36458D01*
X11687Y-36496D01*
X11611Y-36534D01*
X11535Y-36534D01*
X11459Y-36496D01*
X11421Y-36458D01*
X11382Y-36381D01*
X11344Y-36229D01*
X11344Y-36039D01*
X11382Y-35886D01*
X11421Y-35810D01*
X11459Y-35772D01*
X11535Y-35734D01*
X12525Y-35734D02*
X12144Y-35734D01*
X12106Y-36115D01*
X12144Y-36077D01*
X12221Y-36039D01*
X12411Y-36039D01*
X12487Y-36077D01*
X12525Y-36115D01*
X12564Y-36191D01*
X12564Y-36381D01*
X12525Y-36458D01*
X12487Y-36496D01*
X12411Y-36534D01*
X12221Y-36534D01*
X12144Y-36496D01*
X12106Y-36458D01*
X13059Y-35734D02*
X13135Y-35734D01*
X13211Y-35772D01*
X13249Y-35810D01*
X13287Y-35886D01*
X13326Y-36039D01*
X13326Y-36229D01*
X13287Y-36381D01*
X13249Y-36458D01*
X13211Y-36496D01*
X13135Y-36534D01*
X13059Y-36534D01*
X12983Y-36496D01*
X12945Y-36458D01*
X12906Y-36381D01*
X12868Y-36229D01*
X12868Y-36039D01*
X12906Y-35886D01*
X12945Y-35810D01*
X12983Y-35772D01*
X13059Y-35734D01*
X13630Y-35734D02*
X13630Y-35886D01*
X13935Y-35734D02*
X13935Y-35886D01*
X15460Y-35696D02*
X14774Y-36724D01*
X16756Y-36534D02*
X16298Y-36534D01*
X16527Y-36534D02*
X16527Y-35734D01*
X16451Y-35848D01*
X16375Y-35924D01*
X16298Y-35962D01*
X17098Y-36458D02*
X17137Y-36496D01*
X17098Y-36534D01*
X17060Y-36496D01*
X17098Y-36458D01*
X17098Y-36534D01*
X17441Y-35810D02*
X17479Y-35772D01*
X17556Y-35734D01*
X17746Y-35734D01*
X17822Y-35772D01*
X17860Y-35810D01*
X17899Y-35886D01*
X17899Y-35962D01*
X17860Y-36077D01*
X17403Y-36534D01*
X17899Y-36534D01*
X18165Y-35734D02*
X18699Y-35734D01*
X18356Y-36534D01*
X19003Y-36534D02*
X19003Y-36000D01*
X19003Y-36077D02*
X19042Y-36039D01*
X19118Y-36000D01*
X19232Y-36000D01*
X19308Y-36039D01*
X19346Y-36115D01*
X19346Y-36534D01*
X19346Y-36115D02*
X19384Y-36039D01*
X19461Y-36000D01*
X19575Y-36000D01*
X19651Y-36039D01*
X19689Y-36115D01*
X19689Y-36534D01*
X20070Y-36534D02*
X20070Y-36000D01*
X20070Y-36077D02*
X20109Y-36039D01*
X20185Y-36000D01*
X20299Y-36000D01*
X20375Y-36039D01*
X20413Y-36115D01*
X20413Y-36534D01*
X20413Y-36115D02*
X20451Y-36039D01*
X20528Y-36000D01*
X20642Y-36000D01*
X20718Y-36039D01*
X20756Y-36115D01*
X20756Y-36534D01*
X21976Y-36839D02*
X21938Y-36800D01*
X21862Y-36686D01*
X21824Y-36610D01*
X21786Y-36496D01*
X21747Y-36305D01*
X21747Y-36153D01*
X21786Y-35962D01*
X21824Y-35848D01*
X21862Y-35772D01*
X21938Y-35658D01*
X21976Y-35620D01*
X22242Y-35810D02*
X22280Y-35772D01*
X22357Y-35734D01*
X22547Y-35734D01*
X22623Y-35772D01*
X22661Y-35810D01*
X22700Y-35886D01*
X22700Y-35962D01*
X22661Y-36077D01*
X22204Y-36534D01*
X22700Y-36534D01*
X23652Y-36534D02*
X23652Y-35734D01*
X23995Y-36534D02*
X23995Y-36115D01*
X23957Y-36039D01*
X23881Y-36000D01*
X23767Y-36000D01*
X23691Y-36039D01*
X23652Y-36077D01*
X24491Y-36534D02*
X24415Y-36496D01*
X24376Y-36458D01*
X24338Y-36381D01*
X24338Y-36153D01*
X24376Y-36077D01*
X24415Y-36039D01*
X24491Y-36000D01*
X24605Y-36000D01*
X24681Y-36039D01*
X24719Y-36077D01*
X24757Y-36153D01*
X24757Y-36381D01*
X24719Y-36458D01*
X24681Y-36496D01*
X24605Y-36534D01*
X24491Y-36534D01*
X25215Y-36534D02*
X25139Y-36496D01*
X25100Y-36420D01*
X25100Y-35734D01*
X25824Y-36496D02*
X25748Y-36534D01*
X25596Y-36534D01*
X25519Y-36496D01*
X25481Y-36420D01*
X25481Y-36115D01*
X25519Y-36039D01*
X25596Y-36000D01*
X25748Y-36000D01*
X25824Y-36039D01*
X25862Y-36115D01*
X25862Y-36191D01*
X25481Y-36267D01*
X26167Y-36496D02*
X26244Y-36534D01*
X26396Y-36534D01*
X26472Y-36496D01*
X26510Y-36420D01*
X26510Y-36381D01*
X26472Y-36305D01*
X26396Y-36267D01*
X26282Y-36267D01*
X26205Y-36229D01*
X26167Y-36153D01*
X26167Y-36115D01*
X26205Y-36039D01*
X26282Y-36000D01*
X26396Y-36000D01*
X26472Y-36039D01*
X26777Y-36839D02*
X26815Y-36800D01*
X26892Y-36686D01*
X26930Y-36610D01*
X26968Y-36496D01*
X27006Y-36305D01*
X27006Y-36153D01*
X26968Y-35962D01*
X26930Y-35848D01*
X26892Y-35772D01*
X26815Y-35658D01*
X26777Y-35620D01*
G54D10*
X09849Y-37266D02*
X09843Y-37324D01*
X09826Y-37380D01*
X09798Y-37432D01*
X09761Y-37477D01*
X09716Y-37514D01*
X09665Y-37542D01*
X09609Y-37559D01*
X09551Y-37565D01*
X09493Y-37560D01*
X09437Y-37544D01*
X09385Y-37517D01*
X09340Y-37480D01*
X09302Y-37435D01*
X09274Y-37384D01*
X09256Y-37328D01*
X09250Y-37270D01*
X09254Y-37212D01*
X09271Y-37156D01*
X09297Y-37104D01*
X09334Y-37058D01*
X09378Y-37020D01*
X09429Y-36992D01*
X09485Y-36973D01*
X09543Y-36967D01*
X09601Y-36971D01*
X09657Y-36987D01*
X09709Y-37013D01*
X09755Y-37049D01*
X09794Y-37094D01*
X09823Y-37144D01*
X09841Y-37200D01*
X09848Y-37258D01*
X09849Y-37266D01*
X09549Y-36966D02*
X09549Y-37566D01*
G54D12*
X10392Y-36790D02*
X10468Y-36790D01*
X10544Y-36828D01*
X10582Y-36866D01*
X10620Y-36942D01*
X10659Y-37095D01*
X10659Y-37285D01*
X10620Y-37437D01*
X10582Y-37514D01*
X10544Y-37552D01*
X10468Y-37590D01*
X10392Y-37590D01*
X10316Y-37552D01*
X10278Y-37514D01*
X10239Y-37437D01*
X10201Y-37285D01*
X10201Y-37095D01*
X10239Y-36942D01*
X10278Y-36866D01*
X10316Y-36828D01*
X10392Y-36790D01*
X11001Y-37514D02*
X11040Y-37552D01*
X11001Y-37590D01*
X10963Y-37552D01*
X11001Y-37514D01*
X11001Y-37590D01*
X11535Y-36790D02*
X11611Y-36790D01*
X11687Y-36828D01*
X11725Y-36866D01*
X11763Y-36942D01*
X11802Y-37095D01*
X11802Y-37285D01*
X11763Y-37437D01*
X11725Y-37514D01*
X11687Y-37552D01*
X11611Y-37590D01*
X11535Y-37590D01*
X11459Y-37552D01*
X11421Y-37514D01*
X11382Y-37437D01*
X11344Y-37285D01*
X11344Y-37095D01*
X11382Y-36942D01*
X11421Y-36866D01*
X11459Y-36828D01*
X11535Y-36790D01*
X12487Y-36790D02*
X12335Y-36790D01*
X12259Y-36828D01*
X12221Y-36866D01*
X12144Y-36980D01*
X12106Y-37133D01*
X12106Y-37437D01*
X12144Y-37514D01*
X12183Y-37552D01*
X12259Y-37590D01*
X12411Y-37590D01*
X12487Y-37552D01*
X12525Y-37514D01*
X12564Y-37437D01*
X12564Y-37247D01*
X12525Y-37171D01*
X12487Y-37133D01*
X12411Y-37095D01*
X12259Y-37095D01*
X12183Y-37133D01*
X12144Y-37171D01*
X12106Y-37247D01*
X13059Y-36790D02*
X13135Y-36790D01*
X13211Y-36828D01*
X13249Y-36866D01*
X13287Y-36942D01*
X13326Y-37095D01*
X13326Y-37285D01*
X13287Y-37437D01*
X13249Y-37514D01*
X13211Y-37552D01*
X13135Y-37590D01*
X13059Y-37590D01*
X12983Y-37552D01*
X12945Y-37514D01*
X12906Y-37437D01*
X12868Y-37285D01*
X12868Y-37095D01*
X12906Y-36942D01*
X12945Y-36866D01*
X12983Y-36828D01*
X13059Y-36790D01*
X13630Y-36790D02*
X13630Y-36942D01*
X13935Y-36790D02*
X13935Y-36942D01*
X15460Y-36752D02*
X14774Y-37780D01*
X16756Y-37590D02*
X16298Y-37590D01*
X16527Y-37590D02*
X16527Y-36790D01*
X16451Y-36904D01*
X16375Y-36980D01*
X16298Y-37018D01*
X17098Y-37514D02*
X17137Y-37552D01*
X17098Y-37590D01*
X17060Y-37552D01*
X17098Y-37514D01*
X17098Y-37590D01*
X17860Y-36790D02*
X17479Y-36790D01*
X17441Y-37171D01*
X17479Y-37133D01*
X17556Y-37095D01*
X17746Y-37095D01*
X17822Y-37133D01*
X17860Y-37171D01*
X17899Y-37247D01*
X17899Y-37437D01*
X17860Y-37514D01*
X17822Y-37552D01*
X17746Y-37590D01*
X17556Y-37590D01*
X17479Y-37552D01*
X17441Y-37514D01*
X18203Y-36866D02*
X18241Y-36828D01*
X18318Y-36790D01*
X18508Y-36790D01*
X18584Y-36828D01*
X18622Y-36866D01*
X18661Y-36942D01*
X18661Y-37018D01*
X18622Y-37133D01*
X18165Y-37590D01*
X18661Y-37590D01*
X19003Y-37590D02*
X19003Y-37056D01*
X19003Y-37133D02*
X19042Y-37095D01*
X19118Y-37056D01*
X19232Y-37056D01*
X19308Y-37095D01*
X19346Y-37171D01*
X19346Y-37590D01*
X19346Y-37171D02*
X19384Y-37095D01*
X19461Y-37056D01*
X19575Y-37056D01*
X19651Y-37095D01*
X19689Y-37171D01*
X19689Y-37590D01*
X20070Y-37590D02*
X20070Y-37056D01*
X20070Y-37133D02*
X20109Y-37095D01*
X20185Y-37056D01*
X20299Y-37056D01*
X20375Y-37095D01*
X20413Y-37171D01*
X20413Y-37590D01*
X20413Y-37171D02*
X20451Y-37095D01*
X20528Y-37056D01*
X20642Y-37056D01*
X20718Y-37095D01*
X20756Y-37171D01*
X20756Y-37590D01*
X21976Y-37895D02*
X21938Y-37856D01*
X21862Y-37742D01*
X21824Y-37666D01*
X21786Y-37552D01*
X21747Y-37361D01*
X21747Y-37209D01*
X21786Y-37018D01*
X21824Y-36904D01*
X21862Y-36828D01*
X21938Y-36714D01*
X21976Y-36676D01*
X22661Y-36790D02*
X22280Y-36790D01*
X22242Y-37171D01*
X22280Y-37133D01*
X22357Y-37095D01*
X22547Y-37095D01*
X22623Y-37133D01*
X22661Y-37171D01*
X22700Y-37247D01*
X22700Y-37437D01*
X22661Y-37514D01*
X22623Y-37552D01*
X22547Y-37590D01*
X22357Y-37590D01*
X22280Y-37552D01*
X22242Y-37514D01*
X23652Y-37590D02*
X23652Y-36790D01*
X23995Y-37590D02*
X23995Y-37171D01*
X23957Y-37095D01*
X23881Y-37056D01*
X23767Y-37056D01*
X23691Y-37095D01*
X23652Y-37133D01*
X24491Y-37590D02*
X24415Y-37552D01*
X24376Y-37514D01*
X24338Y-37437D01*
X24338Y-37209D01*
X24376Y-37133D01*
X24415Y-37095D01*
X24491Y-37056D01*
X24605Y-37056D01*
X24681Y-37095D01*
X24719Y-37133D01*
X24757Y-37209D01*
X24757Y-37437D01*
X24719Y-37514D01*
X24681Y-37552D01*
X24605Y-37590D01*
X24491Y-37590D01*
X25215Y-37590D02*
X25139Y-37552D01*
X25100Y-37476D01*
X25100Y-36790D01*
X25824Y-37552D02*
X25748Y-37590D01*
X25596Y-37590D01*
X25519Y-37552D01*
X25481Y-37476D01*
X25481Y-37171D01*
X25519Y-37095D01*
X25596Y-37056D01*
X25748Y-37056D01*
X25824Y-37095D01*
X25862Y-37171D01*
X25862Y-37247D01*
X25481Y-37323D01*
X26167Y-37552D02*
X26244Y-37590D01*
X26396Y-37590D01*
X26472Y-37552D01*
X26510Y-37476D01*
X26510Y-37437D01*
X26472Y-37361D01*
X26396Y-37323D01*
X26282Y-37323D01*
X26205Y-37285D01*
X26167Y-37209D01*
X26167Y-37171D01*
X26205Y-37095D01*
X26282Y-37056D01*
X26396Y-37056D01*
X26472Y-37095D01*
X26777Y-37895D02*
X26815Y-37856D01*
X26892Y-37742D01*
X26930Y-37666D01*
X26968Y-37552D01*
X27006Y-37361D01*
X27006Y-37209D01*
X26968Y-37018D01*
X26930Y-36904D01*
X26892Y-36828D01*
X26815Y-36714D01*
X26777Y-36676D01*
G54D10*
X09673Y-38746D02*
X09673Y-37898D01*
X08825Y-37898D01*
X08825Y-38746D01*
X09673Y-38746D01*
G54D12*
X10392Y-37846D02*
X10468Y-37846D01*
X10544Y-37884D01*
X10582Y-37922D01*
X10620Y-37998D01*
X10659Y-38151D01*
X10659Y-38341D01*
X10620Y-38493D01*
X10582Y-38570D01*
X10544Y-38608D01*
X10468Y-38646D01*
X10392Y-38646D01*
X10316Y-38608D01*
X10278Y-38570D01*
X10239Y-38493D01*
X10201Y-38341D01*
X10201Y-38151D01*
X10239Y-37998D01*
X10278Y-37922D01*
X10316Y-37884D01*
X10392Y-37846D01*
X11001Y-38570D02*
X11040Y-38608D01*
X11001Y-38646D01*
X10963Y-38608D01*
X11001Y-38570D01*
X11001Y-38646D01*
X11802Y-38646D02*
X11344Y-38646D01*
X11573Y-38646D02*
X11573Y-37846D01*
X11497Y-37960D01*
X11421Y-38036D01*
X11344Y-38074D01*
X12106Y-37922D02*
X12144Y-37884D01*
X12221Y-37846D01*
X12411Y-37846D01*
X12487Y-37884D01*
X12525Y-37922D01*
X12564Y-37998D01*
X12564Y-38074D01*
X12525Y-38189D01*
X12068Y-38646D01*
X12564Y-38646D01*
X13059Y-37846D02*
X13135Y-37846D01*
X13211Y-37884D01*
X13249Y-37922D01*
X13287Y-37998D01*
X13326Y-38151D01*
X13326Y-38341D01*
X13287Y-38493D01*
X13249Y-38570D01*
X13211Y-38608D01*
X13135Y-38646D01*
X13059Y-38646D01*
X12983Y-38608D01*
X12945Y-38570D01*
X12906Y-38493D01*
X12868Y-38341D01*
X12868Y-38151D01*
X12906Y-37998D01*
X12945Y-37922D01*
X12983Y-37884D01*
X13059Y-37846D01*
X13630Y-37846D02*
X13630Y-37998D01*
X13935Y-37846D02*
X13935Y-37998D01*
X15460Y-37808D02*
X14774Y-38836D01*
X16260Y-37846D02*
X16756Y-37846D01*
X16489Y-38151D01*
X16603Y-38151D01*
X16679Y-38189D01*
X16717Y-38227D01*
X16756Y-38303D01*
X16756Y-38493D01*
X16717Y-38570D01*
X16679Y-38608D01*
X16603Y-38646D01*
X16375Y-38646D01*
X16298Y-38608D01*
X16260Y-38570D01*
X17098Y-38570D02*
X17137Y-38608D01*
X17098Y-38646D01*
X17060Y-38608D01*
X17098Y-38570D01*
X17098Y-38646D01*
X17632Y-37846D02*
X17708Y-37846D01*
X17784Y-37884D01*
X17822Y-37922D01*
X17860Y-37998D01*
X17899Y-38151D01*
X17899Y-38341D01*
X17860Y-38493D01*
X17822Y-38570D01*
X17784Y-38608D01*
X17708Y-38646D01*
X17632Y-38646D01*
X17556Y-38608D01*
X17518Y-38570D01*
X17479Y-38493D01*
X17441Y-38341D01*
X17441Y-38151D01*
X17479Y-37998D01*
X17518Y-37922D01*
X17556Y-37884D01*
X17632Y-37846D01*
X18622Y-37846D02*
X18241Y-37846D01*
X18203Y-38227D01*
X18241Y-38189D01*
X18318Y-38151D01*
X18508Y-38151D01*
X18584Y-38189D01*
X18622Y-38227D01*
X18661Y-38303D01*
X18661Y-38493D01*
X18622Y-38570D01*
X18584Y-38608D01*
X18508Y-38646D01*
X18318Y-38646D01*
X18241Y-38608D01*
X18203Y-38570D01*
X19003Y-38646D02*
X19003Y-38112D01*
X19003Y-38189D02*
X19042Y-38151D01*
X19118Y-38112D01*
X19232Y-38112D01*
X19308Y-38151D01*
X19346Y-38227D01*
X19346Y-38646D01*
X19346Y-38227D02*
X19384Y-38151D01*
X19461Y-38112D01*
X19575Y-38112D01*
X19651Y-38151D01*
X19689Y-38227D01*
X19689Y-38646D01*
X20070Y-38646D02*
X20070Y-38112D01*
X20070Y-38189D02*
X20109Y-38151D01*
X20185Y-38112D01*
X20299Y-38112D01*
X20375Y-38151D01*
X20413Y-38227D01*
X20413Y-38646D01*
X20413Y-38227D02*
X20451Y-38151D01*
X20528Y-38112D01*
X20642Y-38112D01*
X20718Y-38151D01*
X20756Y-38227D01*
X20756Y-38646D01*
X21976Y-38951D02*
X21938Y-38912D01*
X21862Y-38798D01*
X21824Y-38722D01*
X21786Y-38608D01*
X21747Y-38417D01*
X21747Y-38265D01*
X21786Y-38074D01*
X21824Y-37960D01*
X21862Y-37884D01*
X21938Y-37770D01*
X21976Y-37732D01*
X22623Y-38112D02*
X22623Y-38646D01*
X22433Y-37808D02*
X22242Y-38379D01*
X22738Y-38379D01*
X23652Y-38646D02*
X23652Y-37846D01*
X23995Y-38646D02*
X23995Y-38227D01*
X23957Y-38151D01*
X23881Y-38112D01*
X23767Y-38112D01*
X23691Y-38151D01*
X23652Y-38189D01*
X24491Y-38646D02*
X24415Y-38608D01*
X24376Y-38570D01*
X24338Y-38493D01*
X24338Y-38265D01*
X24376Y-38189D01*
X24415Y-38151D01*
X24491Y-38112D01*
X24605Y-38112D01*
X24681Y-38151D01*
X24719Y-38189D01*
X24757Y-38265D01*
X24757Y-38493D01*
X24719Y-38570D01*
X24681Y-38608D01*
X24605Y-38646D01*
X24491Y-38646D01*
X25215Y-38646D02*
X25139Y-38608D01*
X25100Y-38532D01*
X25100Y-37846D01*
X25824Y-38608D02*
X25748Y-38646D01*
X25596Y-38646D01*
X25519Y-38608D01*
X25481Y-38532D01*
X25481Y-38227D01*
X25519Y-38151D01*
X25596Y-38112D01*
X25748Y-38112D01*
X25824Y-38151D01*
X25862Y-38227D01*
X25862Y-38303D01*
X25481Y-38379D01*
X26167Y-38608D02*
X26244Y-38646D01*
X26396Y-38646D01*
X26472Y-38608D01*
X26510Y-38532D01*
X26510Y-38493D01*
X26472Y-38417D01*
X26396Y-38379D01*
X26282Y-38379D01*
X26205Y-38341D01*
X26167Y-38265D01*
X26167Y-38227D01*
X26205Y-38151D01*
X26282Y-38112D01*
X26396Y-38112D01*
X26472Y-38151D01*
X26777Y-38951D02*
X26815Y-38912D01*
X26892Y-38798D01*
X26930Y-38722D01*
X26968Y-38608D01*
X27006Y-38417D01*
X27006Y-38265D01*
X26968Y-38074D01*
X26930Y-37960D01*
X26892Y-37884D01*
X26815Y-37770D01*
X26777Y-37732D01*
M02*
