G04 (created by PCBNEW-RS274X (2011-05-25)-stable) date Tuesday 05 June 2012 10:34:13 PM IST*
G01*
G70*
G90*
%MOIN*%
G04 Gerber Fmt 3.4, Leading zero omitted, Abs format*
%FSLAX34Y34*%
G04 APERTURE LIST*
%ADD10C,0.006000*%
%ADD11C,0.015000*%
%ADD12C,0.220000*%
%ADD13C,0.090000*%
%ADD14R,0.100000X0.070000*%
%ADD15O,0.100000X0.070000*%
%ADD16C,0.080000*%
%ADD17R,0.080000X0.080000*%
%ADD18R,0.090000X0.090000*%
%ADD19O,0.110000X0.080000*%
%ADD20R,0.080000X0.120000*%
%ADD21O,0.080000X0.120000*%
%ADD22C,0.085000*%
%ADD23R,0.085000X0.085000*%
%ADD24C,0.100000*%
%ADD25O,0.070000X0.100000*%
%ADD26R,0.070000X0.100000*%
%ADD27C,0.140000*%
%ADD28R,0.140000X0.140000*%
G04 APERTURE END LIST*
G54D10*
G54D11*
X45200Y-08200D02*
X55200Y-08200D01*
X45200Y-28200D02*
X45200Y-08200D01*
X55200Y-28200D02*
X45200Y-28200D01*
X55200Y-08200D02*
X55200Y-28200D01*
X10000Y-24700D02*
X10000Y-10000D01*
X39400Y-24700D02*
X10000Y-24700D01*
X39400Y-10000D02*
X39400Y-24700D01*
X10000Y-10000D02*
X39400Y-10000D01*
G54D12*
X38225Y-11175D03*
X46275Y-09275D03*
X46275Y-27125D03*
X38225Y-23525D03*
G54D13*
X47925Y-15700D03*
X47925Y-16700D03*
X47925Y-17700D03*
X47925Y-18700D03*
X47925Y-19700D03*
X47925Y-20700D03*
X53925Y-20700D03*
X53925Y-19700D03*
X53925Y-18700D03*
X53925Y-17700D03*
X53925Y-16700D03*
X53925Y-15700D03*
G54D14*
X49150Y-24000D03*
G54D15*
X49150Y-23000D03*
X49150Y-22000D03*
X49150Y-21000D03*
X49150Y-20000D03*
X49150Y-19000D03*
X49150Y-18000D03*
X49150Y-17000D03*
X52150Y-17000D03*
X52150Y-18000D03*
X52150Y-19000D03*
X52150Y-20000D03*
X52150Y-21000D03*
X52150Y-22000D03*
X52150Y-23000D03*
X52150Y-24000D03*
G54D16*
X22000Y-15050D03*
X20000Y-15050D03*
G54D17*
X21000Y-15050D03*
G54D16*
X31400Y-15850D03*
G54D17*
X31400Y-16850D03*
G54D16*
X19150Y-23800D03*
G54D17*
X19150Y-22800D03*
G54D18*
X14100Y-24050D03*
G54D13*
X14100Y-23050D03*
X14100Y-22050D03*
X14100Y-21050D03*
X14100Y-20050D03*
X14100Y-19050D03*
X14100Y-18050D03*
G54D18*
X46175Y-24700D03*
G54D13*
X46175Y-23700D03*
X46175Y-22700D03*
X46175Y-21700D03*
X46175Y-20700D03*
X46175Y-19700D03*
X46175Y-18700D03*
G54D18*
X46175Y-11700D03*
G54D13*
X46175Y-12700D03*
X46175Y-13700D03*
X46175Y-14700D03*
X46175Y-15700D03*
X46175Y-16700D03*
X46175Y-17700D03*
X14100Y-11050D03*
X14100Y-12050D03*
X14100Y-13050D03*
X14100Y-14050D03*
X14100Y-15050D03*
X14100Y-16050D03*
X14100Y-17050D03*
G54D19*
X29850Y-11700D03*
X29850Y-12700D03*
X29850Y-13700D03*
X29850Y-14700D03*
X32850Y-14700D03*
X32850Y-13700D03*
X32850Y-12700D03*
X32850Y-11700D03*
G54D18*
X31275Y-21475D03*
G54D13*
X31275Y-20475D03*
X31275Y-19475D03*
X31275Y-18475D03*
G54D16*
X21750Y-21050D03*
G54D17*
X21750Y-23050D03*
G54D16*
X34250Y-11425D03*
G54D17*
X36250Y-11425D03*
G54D16*
X21950Y-13275D03*
X19950Y-13275D03*
X29750Y-21050D03*
G54D17*
X29750Y-23050D03*
G54D16*
X33725Y-19350D03*
G54D17*
X33725Y-21350D03*
G54D16*
X32525Y-21350D03*
G54D17*
X32525Y-19350D03*
G54D16*
X25825Y-21050D03*
G54D17*
X25825Y-23050D03*
G54D20*
X32525Y-23250D03*
G54D21*
X33525Y-23250D03*
X31525Y-23250D03*
G54D22*
X15850Y-21850D03*
X16850Y-21850D03*
X15850Y-22850D03*
X16850Y-22850D03*
X15850Y-23850D03*
G54D23*
X16850Y-23850D03*
G54D16*
X33625Y-17600D03*
G54D17*
X32625Y-17600D03*
G54D13*
X28275Y-12350D03*
X26525Y-12350D03*
G54D24*
X28775Y-13350D03*
X26025Y-13350D03*
G54D13*
X26900Y-13850D03*
X27900Y-13850D03*
G54D18*
X24950Y-11800D03*
X23950Y-11800D03*
G54D13*
X22950Y-11800D03*
X21950Y-11800D03*
X20950Y-11800D03*
X19950Y-11800D03*
G54D24*
X47225Y-11700D03*
G54D16*
X20650Y-23800D03*
X20650Y-20800D03*
X26000Y-15425D03*
X29000Y-15425D03*
X24000Y-15750D03*
X24000Y-12750D03*
X27750Y-20800D03*
G54D17*
X27750Y-23800D03*
G54D16*
X26850Y-20800D03*
X26850Y-23800D03*
X23775Y-20800D03*
G54D17*
X23775Y-23800D03*
G54D16*
X22850Y-20800D03*
X22850Y-23800D03*
G54D25*
X29500Y-16650D03*
X28500Y-16650D03*
X27500Y-16650D03*
X26500Y-16650D03*
X25500Y-16650D03*
X24500Y-16650D03*
X23500Y-16650D03*
G54D26*
X22500Y-16650D03*
G54D25*
X21500Y-16650D03*
X20500Y-16650D03*
X19500Y-16650D03*
X18500Y-16650D03*
X17500Y-16650D03*
X16500Y-16650D03*
X16500Y-19650D03*
X17500Y-19650D03*
X18500Y-19650D03*
X19500Y-19650D03*
X20500Y-19650D03*
X21500Y-19650D03*
X22500Y-19650D03*
G54D26*
X23500Y-19650D03*
G54D25*
X24500Y-19650D03*
X25500Y-19650D03*
X26500Y-19650D03*
X27500Y-19650D03*
X28500Y-19650D03*
X29500Y-19650D03*
G54D13*
X16850Y-13225D03*
G54D22*
X15850Y-13225D03*
X16850Y-12225D03*
X15850Y-12225D03*
X16850Y-11225D03*
X15850Y-11225D03*
G54D17*
X18925Y-11225D03*
G54D16*
X17925Y-11225D03*
X18925Y-13225D03*
X17925Y-13225D03*
X18925Y-12225D03*
X17925Y-12225D03*
G54D27*
X36650Y-13350D03*
G54D28*
X36650Y-15350D03*
X36650Y-17350D03*
G54D27*
X36650Y-19350D03*
X36650Y-21350D03*
G54D18*
X11100Y-17050D03*
G54D13*
X11100Y-16050D03*
X11100Y-15050D03*
X11100Y-14050D03*
X11100Y-13050D03*
X11100Y-12050D03*
G54D18*
X11100Y-23050D03*
G54D13*
X11100Y-22050D03*
X11100Y-21050D03*
X11100Y-20050D03*
X11100Y-19050D03*
X11100Y-18050D03*
X35475Y-23250D03*
G54D18*
X36475Y-23250D03*
G54D16*
X28650Y-20800D03*
G54D17*
X28650Y-23800D03*
G54D16*
X24750Y-20800D03*
G54D17*
X24750Y-23800D03*
M02*
