G04 (created by PCBNEW-RS274X (2011-05-25)-stable) date Wednesday 06 June 2012 09:43:23 PM IST*
G01*
G70*
G90*
%MOIN*%
G04 Gerber Fmt 3.4, Leading zero omitted, Abs format*
%FSLAX34Y34*%
G04 APERTURE LIST*
%ADD10C,0.006000*%
%ADD11C,0.007000*%
%ADD12C,0.005000*%
%ADD13C,0.020000*%
%ADD14C,0.010000*%
%ADD15C,0.015000*%
G04 APERTURE END LIST*
G54D10*
G54D11*
X36763Y-22140D02*
X36363Y-22007D01*
X36763Y-21873D01*
X36325Y-21835D02*
X36325Y-21530D01*
X36363Y-21435D02*
X36763Y-21435D01*
X36744Y-21035D02*
X36763Y-21073D01*
X36763Y-21130D01*
X36744Y-21188D01*
X36706Y-21226D01*
X36668Y-21245D01*
X36592Y-21264D01*
X36535Y-21264D01*
X36458Y-21245D01*
X36420Y-21226D01*
X36382Y-21188D01*
X36363Y-21130D01*
X36363Y-21092D01*
X36382Y-21035D01*
X36401Y-21016D01*
X36535Y-21016D01*
X36535Y-21092D01*
X36363Y-20845D02*
X36763Y-20845D01*
X36363Y-20616D01*
X36763Y-20616D01*
X36763Y-20160D02*
X36363Y-20027D01*
X36763Y-19893D01*
X36325Y-19855D02*
X36325Y-19550D01*
X36573Y-19321D02*
X36554Y-19264D01*
X36535Y-19245D01*
X36496Y-19226D01*
X36439Y-19226D01*
X36401Y-19245D01*
X36382Y-19264D01*
X36363Y-19302D01*
X36363Y-19455D01*
X36763Y-19455D01*
X36763Y-19321D01*
X36744Y-19283D01*
X36725Y-19264D01*
X36687Y-19245D01*
X36649Y-19245D01*
X36611Y-19264D01*
X36592Y-19283D01*
X36573Y-19321D01*
X36573Y-19455D01*
X36477Y-19074D02*
X36477Y-18883D01*
X36363Y-19112D02*
X36763Y-18979D01*
X36363Y-18845D01*
X36763Y-18769D02*
X36763Y-18540D01*
X36363Y-18655D02*
X36763Y-18655D01*
X36744Y-17654D02*
X36763Y-17692D01*
X36763Y-17749D01*
X36744Y-17807D01*
X36706Y-17845D01*
X36668Y-17864D01*
X36592Y-17883D01*
X36535Y-17883D01*
X36458Y-17864D01*
X36420Y-17845D01*
X36382Y-17807D01*
X36363Y-17749D01*
X36363Y-17711D01*
X36382Y-17654D01*
X36401Y-17635D01*
X36535Y-17635D01*
X36535Y-17711D01*
X36363Y-17464D02*
X36763Y-17464D01*
X36363Y-17235D01*
X36763Y-17235D01*
X36363Y-17045D02*
X36763Y-17045D01*
X36763Y-16950D01*
X36744Y-16892D01*
X36706Y-16854D01*
X36668Y-16835D01*
X36592Y-16816D01*
X36535Y-16816D01*
X36458Y-16835D01*
X36420Y-16854D01*
X36382Y-16892D01*
X36363Y-16950D01*
X36363Y-17045D01*
X36744Y-15654D02*
X36763Y-15692D01*
X36763Y-15749D01*
X36744Y-15807D01*
X36706Y-15845D01*
X36668Y-15864D01*
X36592Y-15883D01*
X36535Y-15883D01*
X36458Y-15864D01*
X36420Y-15845D01*
X36382Y-15807D01*
X36363Y-15749D01*
X36363Y-15711D01*
X36382Y-15654D01*
X36401Y-15635D01*
X36535Y-15635D01*
X36535Y-15711D01*
X36363Y-15464D02*
X36763Y-15464D01*
X36363Y-15235D01*
X36763Y-15235D01*
X36363Y-15045D02*
X36763Y-15045D01*
X36763Y-14950D01*
X36744Y-14892D01*
X36706Y-14854D01*
X36668Y-14835D01*
X36592Y-14816D01*
X36535Y-14816D01*
X36458Y-14835D01*
X36420Y-14854D01*
X36382Y-14892D01*
X36363Y-14950D01*
X36363Y-15045D01*
X36363Y-14054D02*
X36363Y-14245D01*
X36763Y-14245D01*
X36763Y-13845D02*
X36763Y-13768D01*
X36744Y-13730D01*
X36706Y-13692D01*
X36630Y-13673D01*
X36496Y-13673D01*
X36420Y-13692D01*
X36382Y-13730D01*
X36363Y-13768D01*
X36363Y-13845D01*
X36382Y-13883D01*
X36420Y-13921D01*
X36496Y-13940D01*
X36630Y-13940D01*
X36706Y-13921D01*
X36744Y-13883D01*
X36763Y-13845D01*
X36477Y-13521D02*
X36477Y-13330D01*
X36363Y-13559D02*
X36763Y-13426D01*
X36363Y-13292D01*
X36363Y-13159D02*
X36763Y-13159D01*
X36763Y-13064D01*
X36744Y-13006D01*
X36706Y-12968D01*
X36668Y-12949D01*
X36592Y-12930D01*
X36535Y-12930D01*
X36458Y-12949D01*
X36420Y-12968D01*
X36382Y-13006D01*
X36363Y-13064D01*
X36363Y-13159D01*
X36515Y-12759D02*
X36515Y-12454D01*
X36363Y-12606D02*
X36668Y-12606D01*
G54D12*
X29329Y-20268D02*
X29629Y-20268D01*
X29600Y-20139D02*
X29614Y-20125D01*
X29629Y-20096D01*
X29629Y-20025D01*
X29614Y-19996D01*
X29600Y-19982D01*
X29571Y-19967D01*
X29543Y-19967D01*
X29500Y-19982D01*
X29329Y-20153D01*
X29329Y-19967D01*
X29357Y-19667D02*
X29343Y-19681D01*
X29329Y-19724D01*
X29329Y-19753D01*
X29343Y-19796D01*
X29371Y-19824D01*
X29400Y-19839D01*
X29457Y-19853D01*
X29500Y-19853D01*
X29557Y-19839D01*
X29586Y-19824D01*
X29614Y-19796D01*
X29629Y-19753D01*
X29629Y-19724D01*
X29614Y-19681D01*
X29600Y-19667D01*
X28164Y-21641D02*
X28179Y-21666D01*
X28179Y-21703D01*
X28164Y-21740D01*
X28136Y-21765D01*
X28107Y-21777D01*
X28050Y-21789D01*
X28007Y-21789D01*
X27950Y-21777D01*
X27921Y-21765D01*
X27893Y-21740D01*
X27879Y-21703D01*
X27879Y-21678D01*
X27893Y-21641D01*
X27907Y-21629D01*
X28007Y-21629D01*
X28007Y-21678D01*
X27879Y-21517D02*
X28179Y-21517D01*
X27879Y-21369D01*
X28179Y-21369D01*
X27879Y-21245D02*
X28179Y-21245D01*
X28179Y-21183D01*
X28164Y-21146D01*
X28136Y-21121D01*
X28107Y-21109D01*
X28050Y-21097D01*
X28007Y-21097D01*
X27950Y-21109D01*
X27921Y-21121D01*
X27893Y-21146D01*
X27879Y-21183D01*
X27879Y-21245D01*
X27779Y-20923D02*
X28207Y-20923D01*
X28179Y-20774D02*
X27879Y-20688D01*
X28179Y-20601D01*
X27907Y-20366D02*
X27893Y-20378D01*
X27879Y-20415D01*
X27879Y-20440D01*
X27893Y-20477D01*
X27921Y-20502D01*
X27950Y-20514D01*
X28007Y-20526D01*
X28050Y-20526D01*
X28107Y-20514D01*
X28136Y-20502D01*
X28164Y-20477D01*
X28179Y-20440D01*
X28179Y-20415D01*
X28164Y-20378D01*
X28150Y-20366D01*
X27907Y-20106D02*
X27893Y-20118D01*
X27879Y-20155D01*
X27879Y-20180D01*
X27893Y-20217D01*
X27921Y-20242D01*
X27950Y-20254D01*
X28007Y-20266D01*
X28050Y-20266D01*
X28107Y-20254D01*
X28136Y-20242D01*
X28164Y-20217D01*
X28179Y-20180D01*
X28179Y-20155D01*
X28164Y-20118D01*
X28150Y-20106D01*
X27779Y-19932D02*
X28207Y-19932D01*
X27893Y-19758D02*
X27879Y-19721D01*
X27879Y-19659D01*
X27893Y-19635D01*
X27907Y-19622D01*
X27936Y-19610D01*
X27964Y-19610D01*
X27993Y-19622D01*
X28007Y-19635D01*
X28021Y-19659D01*
X28036Y-19709D01*
X28050Y-19734D01*
X28064Y-19746D01*
X28093Y-19758D01*
X28121Y-19758D01*
X28150Y-19746D01*
X28164Y-19734D01*
X28179Y-19709D01*
X28179Y-19647D01*
X28164Y-19610D01*
X27907Y-19350D02*
X27893Y-19362D01*
X27879Y-19399D01*
X27879Y-19424D01*
X27893Y-19461D01*
X27921Y-19486D01*
X27950Y-19498D01*
X28007Y-19510D01*
X28050Y-19510D01*
X28107Y-19498D01*
X28136Y-19486D01*
X28164Y-19461D01*
X28179Y-19424D01*
X28179Y-19399D01*
X28164Y-19362D01*
X28150Y-19350D01*
X27879Y-19114D02*
X27879Y-19238D01*
X28179Y-19238D01*
X27779Y-18966D02*
X28207Y-18966D01*
X27893Y-18792D02*
X27879Y-18755D01*
X27879Y-18693D01*
X27893Y-18669D01*
X27907Y-18656D01*
X27936Y-18644D01*
X27964Y-18644D01*
X27993Y-18656D01*
X28007Y-18669D01*
X28021Y-18693D01*
X28036Y-18743D01*
X28050Y-18768D01*
X28064Y-18780D01*
X28093Y-18792D01*
X28121Y-18792D01*
X28150Y-18780D01*
X28164Y-18768D01*
X28179Y-18743D01*
X28179Y-18681D01*
X28164Y-18644D01*
X27879Y-18532D02*
X28179Y-18532D01*
X28179Y-18470D01*
X28164Y-18433D01*
X28136Y-18408D01*
X28107Y-18396D01*
X28050Y-18384D01*
X28007Y-18384D01*
X27950Y-18396D01*
X27921Y-18408D01*
X27893Y-18433D01*
X27879Y-18470D01*
X27879Y-18532D01*
X27964Y-18284D02*
X27964Y-18161D01*
X27879Y-18309D02*
X28179Y-18223D01*
X27879Y-18136D01*
X14714Y-13885D02*
X14409Y-13885D01*
X14028Y-14037D02*
X14219Y-14037D01*
X14219Y-13637D01*
X14781Y-14495D02*
X14476Y-14495D01*
X14286Y-14647D02*
X14286Y-14247D01*
X14152Y-14533D01*
X14019Y-14247D01*
X14019Y-14647D01*
X14762Y-15105D02*
X14457Y-15105D01*
X14267Y-15257D02*
X14267Y-14857D01*
X14267Y-15047D02*
X14038Y-15047D01*
X14038Y-15257D02*
X14038Y-14857D01*
X12983Y-10720D02*
X12900Y-11400D01*
X12817Y-10720D01*
X12591Y-11335D02*
X12603Y-11368D01*
X12638Y-11400D01*
X12662Y-11400D01*
X12698Y-11368D01*
X12722Y-11303D01*
X12733Y-11238D01*
X12745Y-11109D01*
X12745Y-11012D01*
X12733Y-10882D01*
X12722Y-10817D01*
X12698Y-10753D01*
X12662Y-10720D01*
X12638Y-10720D01*
X12603Y-10753D01*
X12591Y-10785D01*
X12341Y-11335D02*
X12353Y-11368D01*
X12388Y-11400D01*
X12412Y-11400D01*
X12448Y-11368D01*
X12472Y-11303D01*
X12483Y-11238D01*
X12495Y-11109D01*
X12495Y-11012D01*
X12483Y-10882D01*
X12472Y-10817D01*
X12448Y-10753D01*
X12412Y-10720D01*
X12388Y-10720D01*
X12353Y-10753D01*
X12341Y-10785D01*
X12959Y-12402D02*
X12959Y-11722D01*
X12864Y-11722D01*
X12840Y-11755D01*
X12829Y-11787D01*
X12817Y-11852D01*
X12817Y-11949D01*
X12829Y-12014D01*
X12840Y-12046D01*
X12864Y-12078D01*
X12959Y-12078D01*
X12709Y-12402D02*
X12709Y-11722D01*
X12650Y-11722D01*
X12614Y-11755D01*
X12590Y-11819D01*
X12579Y-11884D01*
X12567Y-12014D01*
X12567Y-12111D01*
X12579Y-12240D01*
X12590Y-12305D01*
X12614Y-12370D01*
X12650Y-12402D01*
X12709Y-12402D01*
X12471Y-11787D02*
X12459Y-11755D01*
X12436Y-11722D01*
X12376Y-11722D01*
X12352Y-11755D01*
X12340Y-11787D01*
X12329Y-11852D01*
X12329Y-11917D01*
X12340Y-12014D01*
X12483Y-12402D01*
X12329Y-12402D01*
X12959Y-13404D02*
X12959Y-12724D01*
X12864Y-12724D01*
X12840Y-12757D01*
X12829Y-12789D01*
X12817Y-12854D01*
X12817Y-12951D01*
X12829Y-13016D01*
X12840Y-13048D01*
X12864Y-13080D01*
X12959Y-13080D01*
X12709Y-13404D02*
X12709Y-12724D01*
X12650Y-12724D01*
X12614Y-12757D01*
X12590Y-12821D01*
X12579Y-12886D01*
X12567Y-13016D01*
X12567Y-13113D01*
X12579Y-13242D01*
X12590Y-13307D01*
X12614Y-13372D01*
X12650Y-13404D01*
X12709Y-13404D01*
X12483Y-12724D02*
X12329Y-12724D01*
X12412Y-12983D01*
X12376Y-12983D01*
X12352Y-13016D01*
X12340Y-13048D01*
X12329Y-13113D01*
X12329Y-13275D01*
X12340Y-13339D01*
X12352Y-13372D01*
X12376Y-13404D01*
X12448Y-13404D01*
X12471Y-13372D01*
X12483Y-13339D01*
X12959Y-14406D02*
X12959Y-13726D01*
X12864Y-13726D01*
X12840Y-13759D01*
X12829Y-13791D01*
X12817Y-13856D01*
X12817Y-13953D01*
X12829Y-14018D01*
X12840Y-14050D01*
X12864Y-14082D01*
X12959Y-14082D01*
X12709Y-14406D02*
X12709Y-13726D01*
X12650Y-13726D01*
X12614Y-13759D01*
X12590Y-13823D01*
X12579Y-13888D01*
X12567Y-14018D01*
X12567Y-14115D01*
X12579Y-14244D01*
X12590Y-14309D01*
X12614Y-14374D01*
X12650Y-14406D01*
X12709Y-14406D01*
X12352Y-13953D02*
X12352Y-14406D01*
X12412Y-13694D02*
X12471Y-14180D01*
X12317Y-14180D01*
X12959Y-15408D02*
X12959Y-14728D01*
X12864Y-14728D01*
X12840Y-14761D01*
X12829Y-14793D01*
X12817Y-14858D01*
X12817Y-14955D01*
X12829Y-15020D01*
X12840Y-15052D01*
X12864Y-15084D01*
X12959Y-15084D01*
X12709Y-15408D02*
X12709Y-14728D01*
X12650Y-14728D01*
X12614Y-14761D01*
X12590Y-14825D01*
X12579Y-14890D01*
X12567Y-15020D01*
X12567Y-15117D01*
X12579Y-15246D01*
X12590Y-15311D01*
X12614Y-15376D01*
X12650Y-15408D01*
X12709Y-15408D01*
X12340Y-14728D02*
X12459Y-14728D01*
X12471Y-15052D01*
X12459Y-15020D01*
X12436Y-14987D01*
X12376Y-14987D01*
X12352Y-15020D01*
X12340Y-15052D01*
X12329Y-15117D01*
X12329Y-15279D01*
X12340Y-15343D01*
X12352Y-15376D01*
X12376Y-15408D01*
X12436Y-15408D01*
X12459Y-15376D01*
X12471Y-15343D01*
X12959Y-16410D02*
X12959Y-15730D01*
X12864Y-15730D01*
X12840Y-15763D01*
X12829Y-15795D01*
X12817Y-15860D01*
X12817Y-15957D01*
X12829Y-16022D01*
X12840Y-16054D01*
X12864Y-16086D01*
X12959Y-16086D01*
X12709Y-16410D02*
X12709Y-15730D01*
X12650Y-15730D01*
X12614Y-15763D01*
X12590Y-15827D01*
X12579Y-15892D01*
X12567Y-16022D01*
X12567Y-16119D01*
X12579Y-16248D01*
X12590Y-16313D01*
X12614Y-16378D01*
X12650Y-16410D01*
X12709Y-16410D01*
X12352Y-15730D02*
X12400Y-15730D01*
X12424Y-15763D01*
X12436Y-15795D01*
X12459Y-15892D01*
X12471Y-16022D01*
X12471Y-16281D01*
X12459Y-16345D01*
X12448Y-16378D01*
X12424Y-16410D01*
X12376Y-16410D01*
X12352Y-16378D01*
X12340Y-16345D01*
X12329Y-16281D01*
X12329Y-16119D01*
X12340Y-16054D01*
X12352Y-16022D01*
X12376Y-15989D01*
X12424Y-15989D01*
X12448Y-16022D01*
X12459Y-16054D01*
X12471Y-16119D01*
X12959Y-17412D02*
X12959Y-16732D01*
X12864Y-16732D01*
X12840Y-16765D01*
X12829Y-16797D01*
X12817Y-16862D01*
X12817Y-16959D01*
X12829Y-17024D01*
X12840Y-17056D01*
X12864Y-17088D01*
X12959Y-17088D01*
X12709Y-17412D02*
X12709Y-16732D01*
X12650Y-16732D01*
X12614Y-16765D01*
X12590Y-16829D01*
X12579Y-16894D01*
X12567Y-17024D01*
X12567Y-17121D01*
X12579Y-17250D01*
X12590Y-17315D01*
X12614Y-17380D01*
X12650Y-17412D01*
X12709Y-17412D01*
X12483Y-16732D02*
X12317Y-16732D01*
X12424Y-17412D01*
X12959Y-18414D02*
X12959Y-17734D01*
X12864Y-17734D01*
X12840Y-17767D01*
X12829Y-17799D01*
X12817Y-17864D01*
X12817Y-17961D01*
X12829Y-18026D01*
X12840Y-18058D01*
X12864Y-18090D01*
X12959Y-18090D01*
X12626Y-18058D02*
X12590Y-18090D01*
X12579Y-18123D01*
X12567Y-18188D01*
X12567Y-18285D01*
X12579Y-18349D01*
X12590Y-18382D01*
X12614Y-18414D01*
X12709Y-18414D01*
X12709Y-17734D01*
X12626Y-17734D01*
X12602Y-17767D01*
X12590Y-17799D01*
X12579Y-17864D01*
X12579Y-17929D01*
X12590Y-17993D01*
X12602Y-18026D01*
X12626Y-18058D01*
X12709Y-18058D01*
X12412Y-17734D02*
X12388Y-17734D01*
X12364Y-17767D01*
X12352Y-17799D01*
X12340Y-17864D01*
X12329Y-17993D01*
X12329Y-18155D01*
X12340Y-18285D01*
X12352Y-18349D01*
X12364Y-18382D01*
X12388Y-18414D01*
X12412Y-18414D01*
X12436Y-18382D01*
X12448Y-18349D01*
X12459Y-18285D01*
X12471Y-18155D01*
X12471Y-17993D01*
X12459Y-17864D01*
X12448Y-17799D01*
X12436Y-17767D01*
X12412Y-17734D01*
X12959Y-19416D02*
X12959Y-18736D01*
X12864Y-18736D01*
X12840Y-18769D01*
X12829Y-18801D01*
X12817Y-18866D01*
X12817Y-18963D01*
X12829Y-19028D01*
X12840Y-19060D01*
X12864Y-19092D01*
X12959Y-19092D01*
X12626Y-19060D02*
X12590Y-19092D01*
X12579Y-19125D01*
X12567Y-19190D01*
X12567Y-19287D01*
X12579Y-19351D01*
X12590Y-19384D01*
X12614Y-19416D01*
X12709Y-19416D01*
X12709Y-18736D01*
X12626Y-18736D01*
X12602Y-18769D01*
X12590Y-18801D01*
X12579Y-18866D01*
X12579Y-18931D01*
X12590Y-18995D01*
X12602Y-19028D01*
X12626Y-19060D01*
X12709Y-19060D01*
X12329Y-19416D02*
X12471Y-19416D01*
X12400Y-19416D02*
X12400Y-18736D01*
X12424Y-18833D01*
X12448Y-18898D01*
X12471Y-18931D01*
X12840Y-20386D02*
X12805Y-20418D01*
X12745Y-20418D01*
X12721Y-20386D01*
X12709Y-20353D01*
X12698Y-20289D01*
X12698Y-20224D01*
X12709Y-20159D01*
X12721Y-20127D01*
X12745Y-20094D01*
X12793Y-20062D01*
X12817Y-20030D01*
X12828Y-19997D01*
X12840Y-19933D01*
X12840Y-19868D01*
X12828Y-19803D01*
X12817Y-19771D01*
X12793Y-19738D01*
X12733Y-19738D01*
X12698Y-19771D01*
X12602Y-20386D02*
X12567Y-20418D01*
X12507Y-20418D01*
X12483Y-20386D01*
X12471Y-20353D01*
X12460Y-20289D01*
X12460Y-20224D01*
X12471Y-20159D01*
X12483Y-20127D01*
X12507Y-20094D01*
X12555Y-20062D01*
X12579Y-20030D01*
X12590Y-19997D01*
X12602Y-19933D01*
X12602Y-19868D01*
X12590Y-19803D01*
X12579Y-19771D01*
X12555Y-19738D01*
X12495Y-19738D01*
X12460Y-19771D01*
X13042Y-21420D02*
X13042Y-20740D01*
X12959Y-21226D01*
X12876Y-20740D01*
X12876Y-21420D01*
X12709Y-20740D02*
X12661Y-20740D01*
X12637Y-20773D01*
X12614Y-20837D01*
X12602Y-20967D01*
X12602Y-21194D01*
X12614Y-21323D01*
X12637Y-21388D01*
X12661Y-21420D01*
X12709Y-21420D01*
X12733Y-21388D01*
X12756Y-21323D01*
X12768Y-21194D01*
X12768Y-20967D01*
X12756Y-20837D01*
X12733Y-20773D01*
X12709Y-20740D01*
X12506Y-21388D02*
X12471Y-21420D01*
X12411Y-21420D01*
X12387Y-21388D01*
X12375Y-21355D01*
X12364Y-21291D01*
X12364Y-21226D01*
X12375Y-21161D01*
X12387Y-21129D01*
X12411Y-21096D01*
X12459Y-21064D01*
X12483Y-21032D01*
X12494Y-20999D01*
X12506Y-20935D01*
X12506Y-20870D01*
X12494Y-20805D01*
X12483Y-20773D01*
X12459Y-20740D01*
X12399Y-20740D01*
X12364Y-20773D01*
X12256Y-21420D02*
X12256Y-20740D01*
X13042Y-22422D02*
X13042Y-21742D01*
X12959Y-22228D01*
X12876Y-21742D01*
X12876Y-22422D01*
X12756Y-22422D02*
X12756Y-21742D01*
X12649Y-22390D02*
X12614Y-22422D01*
X12554Y-22422D01*
X12530Y-22390D01*
X12518Y-22357D01*
X12507Y-22293D01*
X12507Y-22228D01*
X12518Y-22163D01*
X12530Y-22131D01*
X12554Y-22098D01*
X12602Y-22066D01*
X12626Y-22034D01*
X12637Y-22001D01*
X12649Y-21937D01*
X12649Y-21872D01*
X12637Y-21807D01*
X12626Y-21775D01*
X12602Y-21742D01*
X12542Y-21742D01*
X12507Y-21775D01*
X12352Y-21742D02*
X12304Y-21742D01*
X12280Y-21775D01*
X12257Y-21839D01*
X12245Y-21969D01*
X12245Y-22196D01*
X12257Y-22325D01*
X12280Y-22390D01*
X12304Y-22422D01*
X12352Y-22422D01*
X12376Y-22390D01*
X12399Y-22325D01*
X12411Y-22196D01*
X12411Y-21969D01*
X12399Y-21839D01*
X12376Y-21775D01*
X12352Y-21742D01*
X12971Y-23392D02*
X12936Y-23424D01*
X12876Y-23424D01*
X12852Y-23392D01*
X12840Y-23359D01*
X12829Y-23295D01*
X12829Y-23230D01*
X12840Y-23165D01*
X12852Y-23133D01*
X12876Y-23100D01*
X12924Y-23068D01*
X12948Y-23036D01*
X12959Y-23003D01*
X12971Y-22939D01*
X12971Y-22874D01*
X12959Y-22809D01*
X12948Y-22777D01*
X12924Y-22744D01*
X12864Y-22744D01*
X12829Y-22777D01*
X12579Y-23359D02*
X12591Y-23392D01*
X12626Y-23424D01*
X12650Y-23424D01*
X12686Y-23392D01*
X12710Y-23327D01*
X12721Y-23262D01*
X12733Y-23133D01*
X12733Y-23036D01*
X12721Y-22906D01*
X12710Y-22841D01*
X12686Y-22777D01*
X12650Y-22744D01*
X12626Y-22744D01*
X12591Y-22777D01*
X12579Y-22809D01*
X12471Y-23424D02*
X12471Y-22744D01*
X12329Y-23424D02*
X12436Y-23036D01*
X12329Y-22744D02*
X12471Y-23133D01*
X12841Y-23779D02*
X12864Y-23746D01*
X12900Y-23746D01*
X12936Y-23779D01*
X12960Y-23843D01*
X12971Y-23908D01*
X12983Y-24038D01*
X12983Y-24135D01*
X12971Y-24264D01*
X12960Y-24329D01*
X12936Y-24394D01*
X12900Y-24426D01*
X12876Y-24426D01*
X12841Y-24394D01*
X12829Y-24361D01*
X12829Y-24135D01*
X12876Y-24135D01*
X12721Y-24426D02*
X12721Y-23746D01*
X12579Y-24426D01*
X12579Y-23746D01*
X12459Y-24426D02*
X12459Y-23746D01*
X12400Y-23746D01*
X12364Y-23779D01*
X12340Y-23843D01*
X12329Y-23908D01*
X12317Y-24038D01*
X12317Y-24135D01*
X12329Y-24264D01*
X12340Y-24329D01*
X12364Y-24394D01*
X12400Y-24426D01*
X12459Y-24426D01*
G54D13*
X32061Y-21100D02*
X31989Y-21171D01*
X31918Y-21385D01*
X31918Y-21528D01*
X31989Y-21743D01*
X32132Y-21885D01*
X32275Y-21957D01*
X32561Y-22028D01*
X32775Y-22028D01*
X33061Y-21957D01*
X33204Y-21885D01*
X33346Y-21743D01*
X33418Y-21528D01*
X33418Y-21385D01*
X33346Y-21171D01*
X33275Y-21100D01*
X31918Y-19814D02*
X32704Y-19814D01*
X32846Y-19885D01*
X32918Y-20028D01*
X32918Y-20314D01*
X32846Y-20457D01*
X31989Y-19814D02*
X31918Y-19957D01*
X31918Y-20314D01*
X31989Y-20457D01*
X32132Y-20528D01*
X32275Y-20528D01*
X32418Y-20457D01*
X32489Y-20314D01*
X32489Y-19957D01*
X32561Y-19814D01*
X31918Y-19100D02*
X32918Y-19100D01*
X32632Y-19100D02*
X32775Y-19028D01*
X32846Y-18957D01*
X32918Y-18814D01*
X32918Y-18671D01*
X31918Y-17528D02*
X33418Y-17528D01*
X31989Y-17528D02*
X31918Y-17671D01*
X31918Y-17957D01*
X31989Y-18099D01*
X32061Y-18171D01*
X32204Y-18242D01*
X32632Y-18242D01*
X32775Y-18171D01*
X32846Y-18099D01*
X32918Y-17957D01*
X32918Y-17671D01*
X32846Y-17528D01*
X32918Y-16171D02*
X31918Y-16171D01*
X32918Y-16814D02*
X32132Y-16814D01*
X31989Y-16742D01*
X31918Y-16600D01*
X31918Y-16385D01*
X31989Y-16242D01*
X32061Y-16171D01*
X31918Y-15457D02*
X32918Y-15457D01*
X33418Y-15457D02*
X33346Y-15528D01*
X33275Y-15457D01*
X33346Y-15385D01*
X33418Y-15457D01*
X33275Y-15457D01*
X32918Y-14743D02*
X31918Y-14743D01*
X32775Y-14743D02*
X32846Y-14671D01*
X32918Y-14529D01*
X32918Y-14314D01*
X32846Y-14171D01*
X32704Y-14100D01*
X31918Y-14100D01*
X31918Y-13172D02*
X31989Y-13314D01*
X32061Y-13386D01*
X32204Y-13457D01*
X32632Y-13457D01*
X32775Y-13386D01*
X32846Y-13314D01*
X32918Y-13172D01*
X32918Y-12957D01*
X32846Y-12814D01*
X32775Y-12743D01*
X32632Y-12672D01*
X32204Y-12672D01*
X32061Y-12743D01*
X31989Y-12814D01*
X31918Y-12957D01*
X31918Y-13172D01*
G54D14*
X35608Y-20415D02*
X35142Y-20282D01*
X35475Y-20148D01*
X35142Y-20015D01*
X35608Y-19882D01*
X35608Y-19682D02*
X35142Y-19515D01*
X35608Y-19349D02*
X35142Y-19515D01*
X34975Y-19582D01*
X34942Y-19615D01*
X34908Y-19682D01*
X35142Y-18982D02*
X35175Y-19049D01*
X35208Y-19082D01*
X35275Y-19116D01*
X35475Y-19116D01*
X35542Y-19082D01*
X35575Y-19049D01*
X35608Y-18982D01*
X35608Y-18882D01*
X35575Y-18816D01*
X35542Y-18782D01*
X35475Y-18749D01*
X35275Y-18749D01*
X35208Y-18782D01*
X35175Y-18816D01*
X35142Y-18882D01*
X35142Y-18982D01*
X35142Y-18349D02*
X35175Y-18416D01*
X35242Y-18449D01*
X35842Y-18449D01*
X35608Y-17782D02*
X35142Y-17782D01*
X35608Y-18082D02*
X35242Y-18082D01*
X35175Y-18049D01*
X35142Y-17982D01*
X35142Y-17882D01*
X35175Y-17816D01*
X35208Y-17782D01*
X35142Y-17449D02*
X35608Y-17449D01*
X35542Y-17449D02*
X35575Y-17416D01*
X35608Y-17349D01*
X35608Y-17249D01*
X35575Y-17183D01*
X35508Y-17149D01*
X35142Y-17149D01*
X35508Y-17149D02*
X35575Y-17116D01*
X35608Y-17049D01*
X35608Y-16949D01*
X35575Y-16883D01*
X35508Y-16849D01*
X35142Y-16849D01*
X35208Y-16516D02*
X35175Y-16483D01*
X35142Y-16516D01*
X35175Y-16550D01*
X35208Y-16516D01*
X35142Y-16516D01*
X35175Y-15883D02*
X35142Y-15950D01*
X35142Y-16083D01*
X35175Y-16150D01*
X35208Y-16183D01*
X35275Y-16217D01*
X35475Y-16217D01*
X35542Y-16183D01*
X35575Y-16150D01*
X35608Y-16083D01*
X35608Y-15950D01*
X35575Y-15883D01*
X35142Y-15483D02*
X35175Y-15550D01*
X35208Y-15583D01*
X35275Y-15617D01*
X35475Y-15617D01*
X35542Y-15583D01*
X35575Y-15550D01*
X35608Y-15483D01*
X35608Y-15383D01*
X35575Y-15317D01*
X35542Y-15283D01*
X35475Y-15250D01*
X35275Y-15250D01*
X35208Y-15283D01*
X35175Y-15317D01*
X35142Y-15383D01*
X35142Y-15483D01*
X35142Y-14950D02*
X35608Y-14950D01*
X35542Y-14950D02*
X35575Y-14917D01*
X35608Y-14850D01*
X35608Y-14750D01*
X35575Y-14684D01*
X35508Y-14650D01*
X35142Y-14650D01*
X35508Y-14650D02*
X35575Y-14617D01*
X35608Y-14550D01*
X35608Y-14450D01*
X35575Y-14384D01*
X35508Y-14350D01*
X35142Y-14350D01*
G54D15*
X42800Y-08200D02*
X52800Y-08200D01*
X42800Y-28200D02*
X42800Y-08200D01*
X52800Y-28200D02*
X42800Y-28200D01*
X52800Y-08200D02*
X52800Y-28200D01*
X10000Y-24700D02*
X10000Y-10000D01*
X37000Y-24700D02*
X10000Y-24700D01*
X37000Y-10000D02*
X37000Y-24700D01*
X10000Y-10000D02*
X37000Y-10000D01*
G54D14*
X49100Y-16500D02*
X47400Y-16500D01*
X47400Y-24500D02*
X49100Y-24500D01*
X49100Y-24500D02*
X49100Y-16500D01*
X47400Y-16500D02*
X47400Y-24500D01*
X48750Y-24500D02*
X48750Y-24000D01*
X48750Y-24000D02*
X47750Y-24000D01*
X47750Y-24000D02*
X47750Y-24500D01*
X44025Y-24200D02*
X43525Y-24200D01*
X44025Y-24200D02*
X44275Y-23950D01*
X44275Y-23950D02*
X44275Y-23450D01*
X44275Y-23450D02*
X44025Y-23200D01*
X44025Y-23200D02*
X44275Y-22950D01*
X44275Y-22950D02*
X44275Y-22450D01*
X44275Y-22450D02*
X44025Y-22200D01*
X44025Y-22200D02*
X44275Y-21950D01*
X44275Y-21950D02*
X44275Y-21450D01*
X44275Y-21450D02*
X44025Y-21200D01*
X44025Y-21200D02*
X44275Y-20950D01*
X44275Y-20950D02*
X44275Y-20450D01*
X44275Y-20450D02*
X44025Y-20200D01*
X44025Y-20200D02*
X44275Y-19950D01*
X44275Y-19950D02*
X44275Y-19450D01*
X44275Y-19450D02*
X44025Y-19200D01*
X44025Y-19200D02*
X44275Y-18950D01*
X44275Y-18950D02*
X44275Y-18450D01*
X44275Y-18450D02*
X44025Y-18200D01*
X44025Y-18200D02*
X43525Y-18200D01*
X43525Y-18200D02*
X43275Y-18450D01*
X43275Y-18450D02*
X43275Y-18950D01*
X43275Y-18950D02*
X43525Y-19200D01*
X43525Y-19200D02*
X43275Y-19450D01*
X43275Y-19450D02*
X43275Y-19950D01*
X43275Y-19950D02*
X43525Y-20200D01*
X43525Y-20200D02*
X43275Y-20450D01*
X43275Y-20450D02*
X43275Y-20950D01*
X43275Y-20950D02*
X43525Y-21200D01*
X43525Y-21200D02*
X43275Y-21450D01*
X43275Y-21450D02*
X43275Y-21950D01*
X43275Y-21950D02*
X43525Y-22200D01*
X43525Y-22200D02*
X43275Y-22450D01*
X43275Y-22450D02*
X43275Y-22950D01*
X43275Y-22950D02*
X43525Y-23200D01*
X43525Y-23200D02*
X43275Y-23450D01*
X43275Y-23450D02*
X43275Y-23950D01*
X43275Y-23950D02*
X43525Y-24200D01*
X43525Y-24200D02*
X43275Y-24200D01*
X43275Y-24200D02*
X43275Y-25200D01*
X43275Y-25200D02*
X44250Y-25200D01*
X44250Y-25200D02*
X44275Y-25200D01*
X44275Y-25200D02*
X44275Y-24200D01*
X44275Y-24200D02*
X44025Y-24200D01*
X43525Y-12200D02*
X44025Y-12200D01*
X43525Y-12200D02*
X43275Y-12450D01*
X43275Y-12450D02*
X43275Y-12950D01*
X43275Y-12950D02*
X43525Y-13200D01*
X43525Y-13200D02*
X43275Y-13450D01*
X43275Y-13450D02*
X43275Y-13950D01*
X43275Y-13950D02*
X43525Y-14200D01*
X43525Y-14200D02*
X43275Y-14450D01*
X43275Y-14450D02*
X43275Y-14950D01*
X43275Y-14950D02*
X43525Y-15200D01*
X43525Y-15200D02*
X43275Y-15450D01*
X43275Y-15450D02*
X43275Y-15950D01*
X43275Y-15950D02*
X43525Y-16200D01*
X43525Y-16200D02*
X43275Y-16450D01*
X43275Y-16450D02*
X43275Y-16950D01*
X43275Y-16950D02*
X43525Y-17200D01*
X43525Y-17200D02*
X43275Y-17450D01*
X43275Y-17450D02*
X43275Y-17950D01*
X43275Y-17950D02*
X43525Y-18200D01*
X43525Y-18200D02*
X44025Y-18200D01*
X44025Y-18200D02*
X44275Y-17950D01*
X44275Y-17950D02*
X44275Y-17450D01*
X44275Y-17450D02*
X44025Y-17200D01*
X44025Y-17200D02*
X44275Y-16950D01*
X44275Y-16950D02*
X44275Y-16450D01*
X44275Y-16450D02*
X44025Y-16200D01*
X44025Y-16200D02*
X44275Y-15950D01*
X44275Y-15950D02*
X44275Y-15450D01*
X44275Y-15450D02*
X44025Y-15200D01*
X44025Y-15200D02*
X44275Y-14950D01*
X44275Y-14950D02*
X44275Y-14450D01*
X44275Y-14450D02*
X44025Y-14200D01*
X44025Y-14200D02*
X44275Y-13950D01*
X44275Y-13950D02*
X44275Y-13450D01*
X44275Y-13450D02*
X44025Y-13200D01*
X44025Y-13200D02*
X44275Y-12950D01*
X44275Y-12950D02*
X44275Y-12450D01*
X44275Y-12450D02*
X44025Y-12200D01*
X44025Y-12200D02*
X44275Y-12200D01*
X44275Y-12200D02*
X44275Y-11200D01*
X44275Y-11200D02*
X43300Y-11200D01*
X43300Y-11200D02*
X43275Y-11200D01*
X43275Y-11200D02*
X43275Y-12200D01*
X43275Y-12200D02*
X43525Y-12200D01*
G54D12*
X46979Y-24571D02*
X46979Y-24814D01*
X46964Y-24843D01*
X46950Y-24857D01*
X46921Y-24871D01*
X46864Y-24871D01*
X46836Y-24857D01*
X46821Y-24843D01*
X46807Y-24814D01*
X46807Y-24571D01*
X46536Y-24671D02*
X46536Y-24871D01*
X46607Y-24557D02*
X46679Y-24771D01*
X46493Y-24771D01*
X48071Y-19564D02*
X48314Y-19564D01*
X48343Y-19579D01*
X48357Y-19593D01*
X48371Y-19622D01*
X48371Y-19679D01*
X48357Y-19707D01*
X48343Y-19722D01*
X48314Y-19736D01*
X48071Y-19736D01*
X48371Y-20021D02*
X48371Y-19878D01*
X48071Y-19878D01*
X48371Y-20121D02*
X48071Y-20121D01*
X48371Y-20293D01*
X48071Y-20293D01*
X48100Y-20421D02*
X48086Y-20435D01*
X48071Y-20464D01*
X48071Y-20535D01*
X48086Y-20564D01*
X48100Y-20578D01*
X48129Y-20593D01*
X48157Y-20593D01*
X48200Y-20578D01*
X48371Y-20407D01*
X48371Y-20593D01*
X48071Y-20779D02*
X48071Y-20807D01*
X48086Y-20836D01*
X48100Y-20850D01*
X48129Y-20864D01*
X48186Y-20879D01*
X48257Y-20879D01*
X48314Y-20864D01*
X48343Y-20850D01*
X48357Y-20836D01*
X48371Y-20807D01*
X48371Y-20779D01*
X48357Y-20750D01*
X48343Y-20736D01*
X48314Y-20721D01*
X48257Y-20707D01*
X48186Y-20707D01*
X48129Y-20721D01*
X48100Y-20736D01*
X48086Y-20750D01*
X48071Y-20779D01*
X48071Y-21065D02*
X48071Y-21093D01*
X48086Y-21122D01*
X48100Y-21136D01*
X48129Y-21150D01*
X48186Y-21165D01*
X48257Y-21165D01*
X48314Y-21150D01*
X48343Y-21136D01*
X48357Y-21122D01*
X48371Y-21093D01*
X48371Y-21065D01*
X48357Y-21036D01*
X48343Y-21022D01*
X48314Y-21007D01*
X48257Y-20993D01*
X48186Y-20993D01*
X48129Y-21007D01*
X48100Y-21022D01*
X48086Y-21036D01*
X48071Y-21065D01*
X48071Y-21265D02*
X48071Y-21451D01*
X48186Y-21351D01*
X48186Y-21393D01*
X48200Y-21422D01*
X48214Y-21436D01*
X48243Y-21451D01*
X48314Y-21451D01*
X48343Y-21436D01*
X48357Y-21422D01*
X48371Y-21393D01*
X48371Y-21308D01*
X48357Y-21279D01*
X48343Y-21265D01*
X44846Y-24528D02*
X44546Y-24528D01*
X44546Y-24643D01*
X44561Y-24671D01*
X44575Y-24686D01*
X44604Y-24700D01*
X44646Y-24700D01*
X44675Y-24686D01*
X44689Y-24671D01*
X44704Y-24643D01*
X44704Y-24528D01*
X44646Y-24957D02*
X44846Y-24957D01*
X44532Y-24886D02*
X44746Y-24814D01*
X44746Y-25000D01*
X44771Y-19528D02*
X44471Y-19528D01*
X44686Y-19628D01*
X44471Y-19728D01*
X44771Y-19728D01*
X44614Y-19871D02*
X44614Y-19971D01*
X44771Y-20014D02*
X44771Y-19871D01*
X44471Y-19871D01*
X44471Y-20014D01*
X44471Y-20100D02*
X44471Y-20271D01*
X44771Y-20185D02*
X44471Y-20185D01*
X44614Y-20371D02*
X44614Y-20471D01*
X44771Y-20514D02*
X44771Y-20371D01*
X44471Y-20371D01*
X44471Y-20514D01*
X44771Y-20814D02*
X44629Y-20714D01*
X44771Y-20642D02*
X44471Y-20642D01*
X44471Y-20757D01*
X44486Y-20785D01*
X44500Y-20800D01*
X44529Y-20814D01*
X44571Y-20814D01*
X44600Y-20800D01*
X44614Y-20785D01*
X44629Y-20757D01*
X44629Y-20642D01*
X44800Y-20871D02*
X44800Y-21100D01*
X44771Y-21314D02*
X44771Y-21171D01*
X44471Y-21171D01*
X43896Y-10528D02*
X43596Y-10528D01*
X43596Y-10643D01*
X43611Y-10671D01*
X43625Y-10686D01*
X43654Y-10700D01*
X43696Y-10700D01*
X43725Y-10686D01*
X43739Y-10671D01*
X43754Y-10643D01*
X43754Y-10528D01*
X43596Y-10800D02*
X43596Y-10986D01*
X43711Y-10886D01*
X43711Y-10928D01*
X43725Y-10957D01*
X43739Y-10971D01*
X43768Y-10986D01*
X43839Y-10986D01*
X43868Y-10971D01*
X43882Y-10957D01*
X43896Y-10928D01*
X43896Y-10843D01*
X43882Y-10814D01*
X43868Y-10800D01*
X44671Y-13793D02*
X44371Y-13793D01*
X44586Y-13893D01*
X44371Y-13993D01*
X44671Y-13993D01*
X44514Y-14136D02*
X44514Y-14236D01*
X44671Y-14279D02*
X44671Y-14136D01*
X44371Y-14136D01*
X44371Y-14279D01*
X44371Y-14365D02*
X44371Y-14536D01*
X44671Y-14450D02*
X44371Y-14450D01*
X44514Y-14636D02*
X44514Y-14736D01*
X44671Y-14779D02*
X44671Y-14636D01*
X44371Y-14636D01*
X44371Y-14779D01*
X44671Y-15079D02*
X44529Y-14979D01*
X44671Y-14907D02*
X44371Y-14907D01*
X44371Y-15022D01*
X44386Y-15050D01*
X44400Y-15065D01*
X44429Y-15079D01*
X44471Y-15079D01*
X44500Y-15065D01*
X44514Y-15050D01*
X44529Y-15022D01*
X44529Y-14907D01*
X44700Y-15136D02*
X44700Y-15365D01*
X44671Y-15436D02*
X44371Y-15436D01*
X44514Y-15436D02*
X44514Y-15608D01*
X44671Y-15608D02*
X44371Y-15608D01*
M02*
