G04 (created by PCBNEW (2013-mar-13)-testing) date Friday 06 December 2013 11:39:04 PM IST*
%MOIN*%
G04 Gerber Fmt 3.4, Leading zero omitted, Abs format*
%FSLAX34Y34*%
G01*
G70*
G90*
G04 APERTURE LIST*
%ADD10C,0.005906*%
%ADD11C,0.005000*%
%ADD12C,0.070000*%
%ADD13R,0.070000X0.070000*%
%ADD14C,0.240000*%
%ADD15O,0.120000X0.180000*%
%ADD16R,0.120000X0.180000*%
%ADD17O,0.180000X0.120000*%
%ADD18R,0.078700X0.023600*%
%ADD19R,0.016500X0.057900*%
%ADD20R,0.120000X0.024000*%
%ADD21R,0.061000X0.023500*%
%ADD22R,0.060000X0.060000*%
%ADD23C,0.060000*%
%ADD24C,0.080000*%
%ADD25C,0.150000*%
%ADD26C,0.551181*%
%ADD27R,0.045276X0.043307*%
%ADD28R,0.043307X0.045276*%
%ADD29R,0.064000X0.120000*%
%ADD30R,0.047244X0.125984*%
%ADD31R,0.066929X0.208661*%
%ADD32R,0.050000X0.040000*%
%ADD33R,0.042000X0.056000*%
%ADD34R,0.062992X0.088583*%
%ADD35R,0.088583X0.062992*%
%ADD36R,0.078700X0.017700*%
%ADD37R,0.017700X0.078700*%
%ADD38R,0.021654X0.045079*%
%ADD39R,0.045079X0.021654*%
%ADD40C,0.196850*%
%ADD41R,0.024000X0.120000*%
%ADD42R,0.055118X0.047244*%
%ADD43R,0.055118X0.055118*%
%ADD44R,0.150000X0.080000*%
%ADD45R,0.060000X0.080000*%
%ADD46R,0.080000X0.150000*%
%ADD47R,0.080000X0.060000*%
%ADD48C,0.050000*%
%ADD49C,0.040000*%
%ADD50C,0.100000*%
%ADD51C,0.070866*%
%ADD52C,0.236220*%
%ADD53R,0.061024X0.023622*%
%ADD54R,0.078740X0.047244*%
%ADD55C,0.035000*%
%ADD56C,0.020000*%
%ADD57C,0.015000*%
%ADD58C,0.010000*%
G04 APERTURE END LIST*
G54D10*
G54D11*
X84842Y-50433D02*
X82992Y-52125D01*
X84842Y-11574D02*
X84842Y-50433D01*
X82992Y-54685D02*
X82992Y-52125D01*
X82992Y-57244D02*
X82992Y-54685D01*
X84842Y-58897D02*
X82992Y-57244D01*
X84842Y-68267D02*
X84842Y-58897D01*
X11614Y-69842D02*
X83267Y-69842D01*
X10039Y-11574D02*
X10039Y-68267D01*
X83267Y-10000D02*
X11614Y-10000D01*
X84842Y-11574D02*
G75*
G03X83267Y-10000I-1574J0D01*
G74*
G01*
X83267Y-69842D02*
G75*
G03X84842Y-68267I0J1574D01*
G74*
G01*
X10039Y-68267D02*
G75*
G03X11614Y-69842I1574J0D01*
G74*
G01*
X11614Y-10000D02*
G75*
G03X10039Y-11574I0J-1574D01*
G74*
G01*
G54D12*
X52043Y-59842D03*
X53043Y-59842D03*
X54043Y-59842D03*
G54D13*
X55043Y-59842D03*
G54D12*
X52043Y-55905D03*
X53043Y-55905D03*
X54043Y-55905D03*
G54D13*
X55043Y-55905D03*
G54D14*
X11614Y-68267D03*
X47440Y-68267D03*
X83267Y-68267D03*
X83267Y-39921D03*
X11614Y-23385D03*
X83267Y-23385D03*
X83267Y-11574D03*
X47440Y-39921D03*
X11614Y-39921D03*
G54D15*
X80019Y-62834D03*
G54D16*
X77619Y-62834D03*
G54D17*
X78769Y-60834D03*
G54D18*
X74370Y-52773D03*
X74370Y-52273D03*
X74370Y-51773D03*
X74370Y-51273D03*
X74370Y-50773D03*
X74370Y-50273D03*
X74370Y-49773D03*
X74370Y-49273D03*
X70708Y-49273D03*
X70708Y-49773D03*
X70708Y-50273D03*
X70708Y-50773D03*
X70708Y-51273D03*
X70708Y-51773D03*
X70708Y-52273D03*
X70708Y-52773D03*
G54D19*
X53415Y-52125D03*
X53671Y-52125D03*
X53927Y-52125D03*
X54183Y-52125D03*
X52647Y-49921D03*
X52647Y-52125D03*
X52903Y-52125D03*
X53159Y-52125D03*
X54439Y-49921D03*
X54183Y-49921D03*
X53927Y-49921D03*
X53671Y-49921D03*
X53415Y-49921D03*
X53159Y-49921D03*
X54439Y-52125D03*
X52903Y-49921D03*
X52391Y-52125D03*
X54695Y-52125D03*
X54695Y-49921D03*
X52391Y-49921D03*
G54D20*
X65111Y-41952D03*
X65111Y-42952D03*
X65111Y-43952D03*
X70911Y-43952D03*
X70911Y-42952D03*
X70911Y-41952D03*
G54D21*
X54550Y-43255D03*
X54550Y-43755D03*
X54550Y-44255D03*
X56670Y-43255D03*
X54550Y-41755D03*
X54550Y-42255D03*
X54550Y-42755D03*
X56670Y-42255D03*
X56670Y-41755D03*
X56670Y-41255D03*
X56670Y-43755D03*
X54550Y-41255D03*
X56670Y-44255D03*
X56670Y-42755D03*
G54D22*
X81496Y-43169D03*
X81496Y-44169D03*
G54D23*
X81496Y-45169D03*
X81496Y-46169D03*
X81496Y-47169D03*
X81496Y-48169D03*
G54D12*
X82283Y-28434D03*
X82283Y-26684D03*
G54D24*
X81283Y-28934D03*
X81283Y-26184D03*
G54D12*
X79733Y-26684D03*
X79733Y-28434D03*
X80483Y-27059D03*
X80483Y-28059D03*
G54D25*
X80019Y-50535D03*
X80019Y-58835D03*
G54D26*
X80019Y-54685D03*
G54D12*
X82283Y-32371D03*
X82283Y-30621D03*
G54D24*
X81283Y-32871D03*
X81283Y-30121D03*
G54D12*
X79733Y-30621D03*
X79733Y-32371D03*
X80483Y-30996D03*
X80483Y-31996D03*
X82283Y-36308D03*
X82283Y-34558D03*
G54D24*
X81283Y-36808D03*
X81283Y-34058D03*
G54D12*
X79733Y-34558D03*
X79733Y-36308D03*
X80483Y-34933D03*
X80483Y-35933D03*
X49110Y-45364D03*
X46110Y-45364D03*
X47110Y-45364D03*
X50110Y-45364D03*
X48110Y-45364D03*
G54D27*
X59350Y-49714D03*
X60059Y-49714D03*
G54D28*
X62381Y-47608D03*
X62381Y-46899D03*
G54D29*
X77007Y-25596D03*
X77032Y-27396D03*
X74045Y-67209D03*
X74020Y-65409D03*
X67746Y-67209D03*
X67721Y-65409D03*
G54D27*
X72893Y-54330D03*
X72185Y-54330D03*
G54D28*
X63326Y-46889D03*
X63326Y-47598D03*
X54035Y-62559D03*
X54035Y-61850D03*
X53051Y-62559D03*
X53051Y-61850D03*
G54D27*
X55255Y-45118D03*
X55964Y-45118D03*
X48464Y-51181D03*
X47755Y-51181D03*
G54D28*
X53920Y-63995D03*
X53920Y-64704D03*
X52920Y-63995D03*
X52920Y-64704D03*
X54920Y-63995D03*
X54920Y-64704D03*
G54D27*
X12795Y-61220D03*
X13503Y-61220D03*
G54D28*
X51920Y-63995D03*
X51920Y-64704D03*
G54D30*
X76279Y-43937D03*
X75489Y-43937D03*
X74699Y-43937D03*
X73909Y-43937D03*
G54D31*
X77283Y-41771D03*
X72913Y-41771D03*
G54D32*
X51920Y-65450D03*
X51920Y-66250D03*
G54D33*
X66912Y-64045D03*
X67712Y-64045D03*
X73212Y-64045D03*
X74012Y-64045D03*
G54D34*
X76102Y-67194D03*
X76102Y-65580D03*
X24409Y-24232D03*
X24409Y-25846D03*
G54D35*
X48917Y-50000D03*
X47303Y-50000D03*
G54D23*
X33740Y-38790D03*
X34740Y-38790D03*
X35740Y-38790D03*
G54D36*
X61850Y-52125D03*
X61850Y-51810D03*
X61850Y-51495D03*
X61850Y-51180D03*
X61850Y-50866D03*
X61850Y-50551D03*
X61850Y-50236D03*
X61850Y-49921D03*
X65118Y-49921D03*
X65118Y-52125D03*
X65118Y-51810D03*
X65118Y-51495D03*
X65118Y-51180D03*
X65118Y-50866D03*
X65118Y-50551D03*
X65118Y-50236D03*
G54D37*
X62382Y-49389D03*
X62697Y-49389D03*
X63012Y-49389D03*
X63327Y-49389D03*
X63641Y-49389D03*
X63956Y-49389D03*
X64271Y-49389D03*
X64586Y-49389D03*
X62382Y-52657D03*
X62697Y-52657D03*
X63012Y-52657D03*
X63327Y-52657D03*
X63641Y-52657D03*
X63956Y-52657D03*
X64271Y-52657D03*
X64586Y-52657D03*
G54D28*
X68169Y-51850D03*
X68169Y-51141D03*
X60846Y-52007D03*
X60846Y-52716D03*
X58346Y-52716D03*
X58346Y-52007D03*
G54D27*
X81496Y-49141D03*
X80787Y-49141D03*
G54D28*
X63484Y-42598D03*
X63484Y-43307D03*
X56200Y-40551D03*
X56200Y-39842D03*
X55019Y-40551D03*
X55019Y-39842D03*
G54D27*
X53188Y-57450D03*
X53897Y-57450D03*
X46387Y-28464D03*
X45679Y-28464D03*
X53188Y-58750D03*
X53897Y-58750D03*
X32568Y-27372D03*
X31860Y-27372D03*
G54D28*
X78750Y-26145D03*
X78750Y-26854D03*
G54D27*
X73257Y-62982D03*
X73966Y-62982D03*
X66998Y-62982D03*
X67706Y-62982D03*
G54D28*
X69596Y-51850D03*
X69596Y-51141D03*
G54D27*
X53356Y-48120D03*
X52647Y-48120D03*
X50364Y-52125D03*
X51072Y-52125D03*
G54D32*
X53920Y-65450D03*
X53920Y-66250D03*
X52920Y-65450D03*
X52920Y-66250D03*
X54920Y-65450D03*
X54920Y-66250D03*
G54D38*
X22047Y-59438D03*
X21732Y-59438D03*
X20472Y-59438D03*
X20787Y-59438D03*
X21102Y-59438D03*
X21417Y-59438D03*
X21417Y-58572D03*
X21102Y-58572D03*
X20787Y-58572D03*
X20472Y-58572D03*
X21732Y-58572D03*
X22047Y-58572D03*
G54D39*
X22086Y-59005D03*
X20433Y-59005D03*
G54D27*
X48917Y-48818D03*
X49625Y-48818D03*
G54D28*
X20472Y-60354D03*
X20472Y-61062D03*
X22047Y-60354D03*
X22047Y-61062D03*
G54D27*
X22037Y-34251D03*
X21328Y-34251D03*
X59350Y-50551D03*
X60059Y-50551D03*
X74744Y-45314D03*
X75452Y-45314D03*
G54D29*
X24625Y-59011D03*
X24650Y-60811D03*
G54D35*
X16259Y-25777D03*
X14645Y-25777D03*
G54D23*
X25620Y-38790D03*
X24620Y-38790D03*
X23620Y-38790D03*
G54D22*
X59137Y-43255D03*
G54D23*
X59137Y-42255D03*
X60137Y-43255D03*
X60137Y-42255D03*
X61137Y-43255D03*
X61137Y-42255D03*
G54D40*
X72834Y-22598D03*
X64566Y-12362D03*
G54D41*
X46381Y-29777D03*
X45381Y-29777D03*
X44381Y-29777D03*
X43381Y-29777D03*
X43381Y-35577D03*
X44381Y-35577D03*
X45381Y-35577D03*
X46381Y-35577D03*
G54D42*
X60019Y-52086D03*
X59153Y-52716D03*
X60019Y-52716D03*
X59153Y-52086D03*
G54D10*
G36*
X11820Y-59892D02*
X11820Y-59792D01*
X12420Y-59592D01*
X12420Y-60092D01*
X11820Y-59892D01*
X11820Y-59892D01*
G37*
G36*
X13170Y-60092D02*
X13170Y-59592D01*
X13770Y-59792D01*
X13770Y-59892D01*
X13170Y-60092D01*
X13170Y-60092D01*
G37*
G54D43*
X12795Y-59842D03*
G54D10*
G36*
X11820Y-62254D02*
X11820Y-62154D01*
X12420Y-61954D01*
X12420Y-62454D01*
X11820Y-62254D01*
X11820Y-62254D01*
G37*
G36*
X13170Y-62454D02*
X13170Y-61954D01*
X13770Y-62154D01*
X13770Y-62254D01*
X13170Y-62454D01*
X13170Y-62454D01*
G37*
G54D43*
X12795Y-62204D03*
G54D10*
G36*
X21358Y-57203D02*
X21358Y-57303D01*
X20758Y-57503D01*
X20758Y-57003D01*
X21358Y-57203D01*
X21358Y-57203D01*
G37*
G36*
X20008Y-57003D02*
X20008Y-57503D01*
X19408Y-57303D01*
X19408Y-57203D01*
X20008Y-57003D01*
X20008Y-57003D01*
G37*
G54D43*
X20383Y-57253D03*
G54D10*
G36*
X22056Y-57303D02*
X22056Y-57203D01*
X22656Y-57003D01*
X22656Y-57503D01*
X22056Y-57303D01*
X22056Y-57303D01*
G37*
G36*
X23406Y-57503D02*
X23406Y-57003D01*
X24006Y-57203D01*
X24006Y-57303D01*
X23406Y-57503D01*
X23406Y-57503D01*
G37*
G54D43*
X23031Y-57253D03*
G54D10*
G36*
X20757Y-55866D02*
X20757Y-55766D01*
X21357Y-55566D01*
X21357Y-56066D01*
X20757Y-55866D01*
X20757Y-55866D01*
G37*
G36*
X22107Y-56066D02*
X22107Y-55566D01*
X22707Y-55766D01*
X22707Y-55866D01*
X22107Y-56066D01*
X22107Y-56066D01*
G37*
G54D43*
X21732Y-55816D03*
G54D44*
X46437Y-55187D03*
G54D45*
X46437Y-52687D03*
X45537Y-52687D03*
X47337Y-52687D03*
G54D46*
X18828Y-36220D03*
G54D47*
X21328Y-36220D03*
X21328Y-35320D03*
X21328Y-37120D03*
G54D46*
X75442Y-31722D03*
G54D47*
X77942Y-31722D03*
X77942Y-30822D03*
X77942Y-32622D03*
G54D46*
X29360Y-29261D03*
G54D47*
X31860Y-29261D03*
X31860Y-28361D03*
X31860Y-30161D03*
G54D44*
X70935Y-64704D03*
G54D45*
X70935Y-67204D03*
X71835Y-67204D03*
X70035Y-67204D03*
G54D44*
X64832Y-64704D03*
G54D45*
X64832Y-67204D03*
X65732Y-67204D03*
X63932Y-67204D03*
G54D23*
X12110Y-64657D03*
X12110Y-65657D03*
X13110Y-64657D03*
G54D48*
X13110Y-65657D03*
G54D23*
X14110Y-64657D03*
G54D22*
X14110Y-65657D03*
G54D23*
X15110Y-64657D03*
X15110Y-65657D03*
G54D48*
X16110Y-64657D03*
G54D23*
X16110Y-65657D03*
G54D48*
X17110Y-64657D03*
G54D23*
X17110Y-65657D03*
G54D48*
X18110Y-64657D03*
G54D23*
X18110Y-65657D03*
X19110Y-64657D03*
X19110Y-65657D03*
X20110Y-64657D03*
X20110Y-65657D03*
X21110Y-64657D03*
X21110Y-65657D03*
X22110Y-64657D03*
X22110Y-65657D03*
X23110Y-64657D03*
X23110Y-65657D03*
X24110Y-64657D03*
X24110Y-65657D03*
G54D14*
X21250Y-51781D03*
X43100Y-61820D03*
G54D49*
X63011Y-54438D03*
X76023Y-50206D03*
X76023Y-49212D03*
X76023Y-51181D03*
X66397Y-50039D03*
X66003Y-49547D03*
X66003Y-51496D03*
X66023Y-50551D03*
X63326Y-54970D03*
G54D23*
X78929Y-65590D03*
X79929Y-65590D03*
G54D14*
X11614Y-11574D03*
G54D10*
G36*
X67154Y-50206D02*
X67254Y-50206D01*
X67454Y-50806D01*
X66954Y-50806D01*
X67154Y-50206D01*
X67154Y-50206D01*
G37*
G36*
X66954Y-51556D02*
X67454Y-51556D01*
X67254Y-52156D01*
X67154Y-52156D01*
X66954Y-51556D01*
X66954Y-51556D01*
G37*
G54D43*
X67204Y-51181D03*
G54D50*
X34270Y-23639D03*
X34270Y-26439D03*
X27870Y-26619D03*
X27870Y-23459D03*
G54D51*
X26870Y-24251D03*
X26870Y-25826D03*
X25870Y-24539D03*
X25870Y-25539D03*
G54D50*
X16852Y-37321D03*
X14052Y-37321D03*
X13872Y-30921D03*
X17032Y-30921D03*
G54D51*
X16240Y-29921D03*
X14665Y-29921D03*
X15952Y-28921D03*
X14952Y-28921D03*
G54D27*
X76338Y-29055D03*
X77047Y-29055D03*
X77047Y-29842D03*
X76338Y-29842D03*
G54D52*
X58818Y-24133D03*
X58818Y-38307D03*
X53307Y-38307D03*
X53307Y-24133D03*
X64330Y-24133D03*
X69842Y-24133D03*
X64330Y-38307D03*
X69842Y-38307D03*
G54D53*
X73385Y-32007D03*
X73385Y-31614D03*
X73385Y-31220D03*
X73385Y-30826D03*
G54D54*
X74370Y-32519D03*
X74370Y-29921D03*
G54D53*
X73385Y-30433D03*
G54D23*
X59161Y-68598D03*
X58161Y-68598D03*
X59161Y-67598D03*
X58161Y-67598D03*
X59161Y-66598D03*
G54D22*
X58161Y-66598D03*
G54D23*
X59161Y-65598D03*
G54D48*
X58161Y-65598D03*
X59161Y-64598D03*
X58161Y-64598D03*
X59161Y-63598D03*
X58161Y-63598D03*
X59161Y-62598D03*
X58161Y-62598D03*
X59161Y-61598D03*
X58161Y-61598D03*
X59161Y-60598D03*
X58161Y-60598D03*
X59161Y-59598D03*
X58161Y-59598D03*
X59161Y-58598D03*
X58161Y-58598D03*
X59161Y-57598D03*
X58161Y-57598D03*
X59161Y-56598D03*
X58161Y-56598D03*
G54D14*
X77549Y-47450D03*
X58651Y-47450D03*
G54D23*
X58161Y-55614D03*
X59161Y-55614D03*
X58161Y-54629D03*
X59161Y-54629D03*
G54D14*
X72037Y-59458D03*
G54D55*
X68200Y-50000D03*
X51460Y-62260D03*
X65000Y-45039D03*
X67775Y-48110D03*
X67000Y-62300D03*
X63494Y-64094D03*
X57669Y-44255D03*
X55173Y-41255D03*
X50440Y-61830D03*
X66742Y-66328D03*
X37352Y-48513D03*
X78400Y-29850D03*
X75952Y-48645D03*
X62490Y-46080D03*
X60710Y-51030D03*
X67194Y-43956D03*
X74901Y-46801D03*
X73700Y-46801D03*
X75905Y-45314D03*
X51322Y-48720D03*
X56020Y-41950D03*
X57106Y-54251D03*
X57106Y-52224D03*
X54724Y-48336D03*
X66614Y-47726D03*
X66354Y-42956D03*
X60390Y-46490D03*
X64370Y-50521D03*
X60826Y-50206D03*
X21328Y-38100D03*
X56020Y-42540D03*
X56880Y-62320D03*
X54920Y-62320D03*
X55285Y-48681D03*
X57578Y-54370D03*
X56437Y-47519D03*
X57578Y-51751D03*
X70708Y-53198D03*
X52903Y-50521D03*
X52391Y-50629D03*
X69773Y-53622D03*
X69635Y-41948D03*
X69635Y-46742D03*
X55177Y-43257D03*
X54271Y-47627D03*
X57460Y-52578D03*
X57460Y-53582D03*
X77942Y-34990D03*
X63769Y-55285D03*
X31860Y-31112D03*
X61938Y-53100D03*
X57559Y-42755D03*
X64062Y-53811D03*
X61889Y-47606D03*
X62020Y-44450D03*
X56420Y-67410D03*
X63435Y-50147D03*
X53956Y-48494D03*
X63937Y-46545D03*
X52716Y-48750D03*
X63011Y-50393D03*
X63769Y-48139D03*
X62972Y-48139D03*
X24745Y-57270D03*
X56259Y-64437D03*
X55952Y-52125D03*
X51870Y-52114D03*
X14980Y-60718D03*
X29872Y-60718D03*
X19547Y-59005D03*
X19812Y-58572D03*
X64300Y-48160D03*
X62706Y-48651D03*
X53356Y-49114D03*
X62598Y-50137D03*
X71624Y-51771D03*
X77950Y-30250D03*
X61790Y-46900D03*
X69010Y-66400D03*
X63287Y-67204D03*
X45679Y-27037D03*
X22352Y-56486D03*
X21062Y-56486D03*
X64350Y-51269D03*
X58346Y-51496D03*
X53551Y-40236D03*
X53543Y-44255D03*
X74118Y-45314D03*
X50370Y-51173D03*
X50698Y-48218D03*
X44940Y-52687D03*
X13612Y-62706D03*
X21338Y-33720D03*
X31860Y-27824D03*
X70718Y-48602D03*
X74370Y-48602D03*
X69025Y-67204D03*
X75108Y-65413D03*
G54D56*
X67775Y-50000D02*
X68200Y-50000D01*
X52920Y-63995D02*
X52920Y-63500D01*
X52920Y-63500D02*
X52630Y-63210D01*
X52630Y-63210D02*
X51800Y-63210D01*
X51800Y-63210D02*
X51460Y-62870D01*
X51460Y-62870D02*
X51460Y-62260D01*
X63494Y-64094D02*
X63494Y-64429D01*
X63494Y-64429D02*
X63769Y-64704D01*
X57669Y-44755D02*
X57952Y-45039D01*
X57952Y-45039D02*
X65000Y-45039D01*
X57669Y-44255D02*
X57669Y-44755D01*
X67775Y-48110D02*
X67775Y-50000D01*
X67000Y-62300D02*
X66998Y-62300D01*
X67204Y-50506D02*
X67204Y-50195D01*
X67204Y-50195D02*
X67400Y-50000D01*
X67400Y-50000D02*
X67775Y-50000D01*
X64832Y-64704D02*
X63769Y-64704D01*
X54550Y-41255D02*
X52283Y-41255D01*
X48377Y-28464D02*
X46387Y-28464D01*
X51196Y-31283D02*
X48377Y-28464D01*
X51196Y-40169D02*
X51196Y-31283D01*
X52283Y-41255D02*
X51196Y-40169D01*
X55173Y-41255D02*
X54550Y-41255D01*
X56670Y-44255D02*
X57669Y-44255D01*
X56670Y-44255D02*
X56670Y-44786D01*
X56338Y-45118D02*
X55964Y-45118D01*
X56670Y-44786D02*
X56338Y-45118D01*
X54550Y-41255D02*
X54550Y-40745D01*
X54550Y-40745D02*
X54744Y-40551D01*
X54744Y-40551D02*
X55019Y-40551D01*
X46381Y-29777D02*
X46381Y-28470D01*
X46381Y-28470D02*
X46387Y-28464D01*
X66998Y-62300D02*
X66998Y-62982D01*
X66912Y-64045D02*
X65098Y-64045D01*
X64832Y-64311D02*
X64832Y-64704D01*
X65098Y-64045D02*
X64832Y-64311D01*
X66912Y-64045D02*
X66912Y-63480D01*
X66998Y-63395D02*
X66998Y-62982D01*
X66912Y-63480D02*
X66998Y-63395D01*
X64832Y-67204D02*
X64832Y-64704D01*
X65118Y-51180D02*
X65620Y-51180D01*
X66456Y-51181D02*
X67204Y-51181D01*
X66309Y-51033D02*
X66456Y-51181D01*
X65767Y-51033D02*
X66309Y-51033D01*
X65620Y-51180D02*
X65767Y-51033D01*
X34740Y-38790D02*
X34740Y-37960D01*
X37872Y-27372D02*
X32568Y-27372D01*
X38500Y-28000D02*
X37872Y-27372D01*
X38500Y-37310D02*
X38500Y-28000D01*
X38110Y-37700D02*
X38500Y-37310D01*
X35000Y-37700D02*
X38110Y-37700D01*
X34740Y-37960D02*
X35000Y-37700D01*
X26870Y-24251D02*
X32007Y-24251D01*
X32007Y-24251D02*
X32568Y-24812D01*
X32568Y-24812D02*
X32568Y-27372D01*
X26870Y-24251D02*
X26157Y-24251D01*
X26157Y-24251D02*
X25870Y-24539D01*
X24409Y-24232D02*
X25562Y-24232D01*
X25562Y-24232D02*
X25870Y-24539D01*
X24620Y-38790D02*
X24620Y-38050D01*
X22785Y-37395D02*
X22785Y-34251D01*
X23220Y-37830D02*
X22785Y-37395D01*
X24400Y-37830D02*
X23220Y-37830D01*
X24620Y-38050D02*
X24400Y-37830D01*
X16240Y-29921D02*
X16240Y-29208D01*
X16240Y-29208D02*
X15952Y-28921D01*
X16259Y-25777D02*
X16259Y-28614D01*
X16259Y-28614D02*
X15952Y-28921D01*
X22785Y-34251D02*
X22785Y-32695D01*
X20011Y-29921D02*
X16240Y-29921D01*
X22785Y-32695D02*
X20011Y-29921D01*
X22037Y-34251D02*
X22785Y-34251D01*
X29360Y-29261D02*
X27775Y-29261D01*
X26870Y-28356D02*
X26870Y-25826D01*
X27775Y-29261D02*
X26870Y-28356D01*
X31860Y-29261D02*
X29360Y-29261D01*
X24409Y-25846D02*
X25562Y-25846D01*
X25562Y-25846D02*
X25870Y-25539D01*
X26870Y-25826D02*
X26157Y-25826D01*
X26157Y-25826D02*
X25870Y-25539D01*
X15442Y-34025D02*
X15442Y-30698D01*
X15442Y-30698D02*
X14665Y-29921D01*
X14665Y-29921D02*
X14665Y-29208D01*
X14665Y-29208D02*
X14952Y-28921D01*
X14645Y-25777D02*
X14645Y-28614D01*
X14645Y-28614D02*
X14952Y-28921D01*
X18828Y-36220D02*
X17637Y-36220D01*
X17637Y-36220D02*
X15442Y-34025D01*
X21328Y-36220D02*
X18828Y-36220D01*
X76150Y-25605D02*
X76150Y-28100D01*
X73200Y-28600D02*
X72000Y-29800D01*
X75650Y-28600D02*
X73200Y-28600D01*
X76150Y-28100D02*
X75650Y-28600D01*
X73385Y-31614D02*
X72364Y-31614D01*
X72364Y-31614D02*
X72000Y-31250D01*
X72000Y-31250D02*
X72000Y-29800D01*
X77007Y-25596D02*
X78496Y-25596D01*
X78750Y-25850D02*
X78750Y-26145D01*
X78496Y-25596D02*
X78750Y-25850D01*
X71933Y-25605D02*
X76150Y-25605D01*
X76150Y-25605D02*
X76998Y-25605D01*
X76998Y-25605D02*
X77007Y-25596D01*
X71933Y-25605D02*
X71446Y-26092D01*
X51920Y-63995D02*
X50945Y-63995D01*
X50440Y-63490D02*
X50440Y-61830D01*
X50945Y-63995D02*
X50440Y-63490D01*
X35740Y-46905D02*
X24205Y-46905D01*
X23620Y-46320D02*
X23620Y-38790D01*
X24205Y-46905D02*
X23620Y-46320D01*
X35740Y-38790D02*
X35740Y-46905D01*
X37352Y-48513D02*
X37352Y-47482D01*
X66742Y-67209D02*
X66742Y-66328D01*
X37352Y-47482D02*
X36775Y-46905D01*
X36775Y-46905D02*
X35740Y-46905D01*
X35740Y-38790D02*
X39920Y-38790D01*
X40830Y-28730D02*
X43467Y-26092D01*
X40830Y-37880D02*
X40830Y-28730D01*
X39920Y-38790D02*
X40830Y-37880D01*
X43467Y-26092D02*
X71446Y-26092D01*
X67746Y-67209D02*
X66742Y-67209D01*
X66742Y-67209D02*
X65737Y-67209D01*
X65737Y-67209D02*
X65732Y-67204D01*
X71835Y-67204D02*
X71835Y-67938D01*
X67746Y-68011D02*
X67746Y-67209D01*
X68001Y-68267D02*
X67746Y-68011D01*
X71505Y-68267D02*
X68001Y-68267D01*
X71835Y-67938D02*
X71505Y-68267D01*
X74045Y-67209D02*
X71839Y-67209D01*
X71839Y-67209D02*
X71835Y-67204D01*
X76102Y-67194D02*
X74059Y-67194D01*
X74059Y-67194D02*
X74045Y-67209D01*
X79733Y-30621D02*
X79733Y-31266D01*
X79733Y-31266D02*
X78907Y-32092D01*
X77047Y-29842D02*
X78392Y-29842D01*
X78392Y-29842D02*
X78400Y-29850D01*
X68678Y-36368D02*
X78238Y-36368D01*
X78580Y-36026D02*
X78580Y-33664D01*
X78907Y-33336D02*
X78907Y-32092D01*
X78580Y-33664D02*
X78907Y-33336D01*
X67200Y-43952D02*
X67200Y-37847D01*
X67194Y-43952D02*
X67200Y-43952D01*
X68678Y-36368D02*
X67200Y-37847D01*
X78238Y-36368D02*
X78580Y-36026D01*
X75952Y-48645D02*
X76332Y-48645D01*
X73907Y-54330D02*
X72893Y-54330D01*
X75826Y-52411D02*
X73907Y-54330D01*
X75826Y-52175D02*
X75826Y-52411D01*
X76604Y-51397D02*
X75826Y-52175D01*
X76604Y-48917D02*
X76604Y-51397D01*
X76332Y-48645D02*
X76604Y-48917D01*
X74330Y-60846D02*
X74330Y-57147D01*
X74330Y-57147D02*
X72893Y-55710D01*
X73257Y-62982D02*
X73257Y-61919D01*
X73257Y-61919D02*
X74330Y-60846D01*
X63326Y-46889D02*
X63326Y-46336D01*
X63070Y-46080D02*
X62490Y-46080D01*
X63326Y-46336D02*
X63070Y-46080D01*
X53920Y-63995D02*
X53920Y-63640D01*
X53540Y-63260D02*
X53540Y-62559D01*
X53920Y-63640D02*
X53540Y-63260D01*
G54D57*
X60710Y-51030D02*
X59520Y-51030D01*
X59350Y-50860D02*
X59350Y-50551D01*
X59520Y-51030D02*
X59350Y-50860D01*
G54D56*
X72893Y-55710D02*
X68430Y-55710D01*
X68430Y-55710D02*
X68169Y-55449D01*
X68169Y-55449D02*
X68169Y-51850D01*
X72893Y-54330D02*
X72893Y-55710D01*
X33740Y-38790D02*
X25620Y-38790D01*
X25620Y-38790D02*
X25620Y-37550D01*
X13661Y-56456D02*
X12120Y-57997D01*
X13661Y-39183D02*
X13661Y-56456D01*
X12007Y-37529D02*
X13661Y-39183D01*
X12007Y-26102D02*
X12007Y-37529D01*
X13494Y-24616D02*
X12007Y-26102D01*
X21316Y-24616D02*
X13494Y-24616D01*
X12120Y-57997D02*
X12120Y-59842D01*
X25620Y-37550D02*
X25300Y-37230D01*
X25300Y-37230D02*
X23690Y-37230D01*
X23690Y-37230D02*
X23360Y-36900D01*
X23360Y-36900D02*
X23360Y-32140D01*
X23360Y-32140D02*
X22290Y-31070D01*
X22290Y-31070D02*
X22290Y-25590D01*
X22290Y-25590D02*
X21316Y-24616D01*
X67194Y-43956D02*
X67194Y-43952D01*
X65111Y-43952D02*
X67194Y-43952D01*
X73700Y-46801D02*
X74901Y-46801D01*
X52043Y-59842D02*
X52043Y-55905D01*
X53188Y-57450D02*
X52519Y-57450D01*
X52519Y-57450D02*
X52043Y-56974D01*
X52043Y-56974D02*
X52043Y-55905D01*
X52043Y-59842D02*
X52043Y-62122D01*
X52480Y-62559D02*
X53051Y-62559D01*
X52043Y-62122D02*
X52480Y-62559D01*
X53188Y-58750D02*
X52342Y-58750D01*
X52043Y-59049D02*
X52043Y-59842D01*
X52342Y-58750D02*
X52043Y-59049D01*
G54D58*
X52647Y-49921D02*
X52647Y-49478D01*
G54D56*
X52647Y-49478D02*
X52421Y-49251D01*
X52421Y-49251D02*
X51854Y-49251D01*
X51854Y-49251D02*
X51322Y-48720D01*
X61122Y-51033D02*
X59517Y-51033D01*
X59517Y-51033D02*
X59350Y-50866D01*
X59350Y-50866D02*
X59350Y-50551D01*
X52647Y-48120D02*
X51923Y-48120D01*
X51923Y-48120D02*
X51322Y-48720D01*
X75905Y-45314D02*
X75452Y-45314D01*
X50043Y-50000D02*
X48917Y-50000D01*
X51322Y-48720D02*
X50043Y-50000D01*
X82283Y-30621D02*
X82845Y-30621D01*
X82843Y-34558D02*
X82283Y-34558D01*
X83523Y-33877D02*
X82843Y-34558D01*
X83523Y-31299D02*
X83523Y-33877D01*
X82845Y-30621D02*
X83523Y-31299D01*
X62342Y-43255D02*
X62342Y-41181D01*
X62342Y-41181D02*
X61712Y-40551D01*
X63484Y-43307D02*
X62460Y-43307D01*
X62409Y-43255D02*
X62342Y-43255D01*
X62342Y-43255D02*
X61137Y-43255D01*
X62460Y-43307D02*
X62409Y-43255D01*
X65118Y-51810D02*
X65678Y-51810D01*
X66529Y-51856D02*
X67204Y-51856D01*
X66318Y-52066D02*
X66529Y-51856D01*
X65935Y-52066D02*
X66318Y-52066D01*
X65678Y-51810D02*
X65935Y-52066D01*
X68169Y-51850D02*
X67210Y-51850D01*
X67210Y-51850D02*
X67204Y-51856D01*
X53051Y-62559D02*
X53540Y-62559D01*
X53540Y-62559D02*
X54035Y-62559D01*
X74370Y-52273D02*
X73799Y-52273D01*
X73799Y-52273D02*
X72893Y-53179D01*
X72893Y-53179D02*
X72893Y-54330D01*
X70935Y-67204D02*
X70935Y-64704D01*
X73212Y-64045D02*
X71190Y-64045D01*
X70935Y-64301D02*
X70935Y-64704D01*
X71190Y-64045D02*
X70935Y-64301D01*
X73212Y-64045D02*
X73212Y-63027D01*
X73212Y-63027D02*
X73257Y-62982D01*
X65118Y-51810D02*
X62617Y-51810D01*
X62302Y-51495D02*
X61850Y-51495D01*
X62617Y-51810D02*
X62302Y-51495D01*
X61850Y-51495D02*
X61220Y-51495D01*
X61122Y-51397D02*
X61122Y-51033D01*
X61220Y-51495D02*
X61122Y-51397D01*
X61850Y-50866D02*
X61288Y-50866D01*
X61288Y-50866D02*
X61122Y-51033D01*
X48917Y-48818D02*
X48917Y-47618D01*
X50110Y-46425D02*
X50110Y-45364D01*
X48917Y-47618D02*
X50110Y-46425D01*
X48917Y-50000D02*
X48917Y-48818D01*
X48464Y-51181D02*
X48464Y-50885D01*
X48464Y-50885D02*
X48917Y-50433D01*
X48917Y-50433D02*
X48917Y-50000D01*
X50110Y-45364D02*
X49110Y-45364D01*
X65111Y-43952D02*
X63795Y-43952D01*
X63484Y-43641D02*
X63484Y-43307D01*
X63795Y-43952D02*
X63484Y-43641D01*
X75452Y-45314D02*
X75452Y-43973D01*
X75452Y-43973D02*
X75489Y-43937D01*
X80483Y-34933D02*
X80108Y-34933D01*
X80108Y-34933D02*
X79733Y-34558D01*
X80483Y-34933D02*
X81908Y-34933D01*
X81908Y-34933D02*
X82283Y-34558D01*
X80483Y-30996D02*
X80108Y-30996D01*
X80108Y-30996D02*
X79733Y-30621D01*
X80483Y-30996D02*
X81908Y-30996D01*
X81908Y-30996D02*
X82283Y-30621D01*
X56670Y-41255D02*
X56334Y-41255D01*
X56200Y-41122D02*
X56200Y-40551D01*
X56334Y-41255D02*
X56200Y-41122D01*
X61712Y-40551D02*
X56200Y-40551D01*
G54D58*
X56670Y-41755D02*
X56214Y-41755D01*
X56214Y-41755D02*
X56020Y-41950D01*
X60374Y-53937D02*
X57421Y-53937D01*
X57421Y-53937D02*
X57106Y-54251D01*
X57106Y-52224D02*
X57106Y-51633D01*
X57106Y-51633D02*
X55960Y-50488D01*
X64586Y-52657D02*
X64586Y-53184D01*
X54183Y-50305D02*
X54183Y-49921D01*
X55960Y-50488D02*
X54366Y-50488D01*
X54366Y-50488D02*
X54183Y-50305D01*
X62385Y-55948D02*
X60374Y-53937D01*
X64492Y-55948D02*
X62385Y-55948D01*
X64736Y-55704D02*
X64492Y-55948D01*
X64736Y-53334D02*
X64736Y-55704D01*
X64586Y-53184D02*
X64736Y-53334D01*
X54183Y-49921D02*
X54183Y-49428D01*
X54724Y-48887D02*
X54183Y-49428D01*
X54724Y-48336D02*
X54724Y-48887D01*
X61137Y-41403D02*
X61137Y-42255D01*
X60836Y-41102D02*
X61137Y-41403D01*
X58228Y-41102D02*
X60836Y-41102D01*
X56670Y-41755D02*
X57574Y-41755D01*
X57574Y-41755D02*
X58228Y-41102D01*
X66614Y-47726D02*
X66614Y-47913D01*
X66614Y-47913D02*
X65137Y-49389D01*
X64586Y-49389D02*
X65137Y-49389D01*
X66350Y-42952D02*
X65111Y-42952D01*
X66354Y-42956D02*
X66350Y-42952D01*
X57578Y-45944D02*
X59844Y-45944D01*
X59844Y-45944D02*
X60390Y-46490D01*
X64271Y-49920D02*
X64370Y-50019D01*
X64370Y-50019D02*
X64370Y-50521D01*
X64271Y-49389D02*
X64271Y-49920D01*
X44381Y-28712D02*
X44074Y-28405D01*
X44381Y-29777D02*
X44381Y-28712D01*
X57185Y-46338D02*
X57578Y-45944D01*
X53316Y-46338D02*
X57185Y-46338D01*
X50826Y-43848D02*
X53316Y-46338D01*
X45620Y-43848D02*
X50826Y-43848D01*
X42244Y-40472D02*
X45620Y-43848D01*
X42244Y-28868D02*
X42244Y-40472D01*
X42706Y-28405D02*
X42244Y-28868D01*
X44074Y-28405D02*
X42706Y-28405D01*
X61850Y-50236D02*
X60856Y-50236D01*
X60856Y-50236D02*
X60826Y-50206D01*
X21328Y-38100D02*
X21328Y-37120D01*
X54550Y-41755D02*
X52188Y-41755D01*
X43381Y-32683D02*
X43381Y-29777D01*
X43740Y-33041D02*
X43381Y-32683D01*
X50078Y-33041D02*
X43740Y-33041D01*
X50767Y-33730D02*
X50078Y-33041D01*
X50767Y-40334D02*
X50767Y-33730D01*
X52188Y-41755D02*
X50767Y-40334D01*
X54550Y-43255D02*
X52045Y-43255D01*
X46381Y-34464D02*
X46381Y-35577D01*
X46692Y-34153D02*
X46381Y-34464D01*
X49429Y-34153D02*
X46692Y-34153D01*
X49734Y-34458D02*
X49429Y-34153D01*
X49734Y-40944D02*
X49734Y-34458D01*
X52045Y-43255D02*
X49734Y-40944D01*
X54550Y-42255D02*
X52108Y-42255D01*
X49990Y-33425D02*
X43750Y-33425D01*
X50452Y-33887D02*
X49990Y-33425D01*
X50452Y-40600D02*
X50452Y-33887D01*
X52108Y-42255D02*
X50452Y-40600D01*
X43381Y-33793D02*
X43381Y-35577D01*
X43750Y-33425D02*
X43381Y-33793D01*
X54550Y-42755D02*
X52076Y-42755D01*
X49744Y-33799D02*
X44685Y-33799D01*
X50118Y-34173D02*
X49744Y-33799D01*
X50118Y-40797D02*
X50118Y-34173D01*
X52076Y-42755D02*
X50118Y-40797D01*
X44381Y-34102D02*
X44381Y-35577D01*
X44685Y-33799D02*
X44381Y-34102D01*
G54D56*
X76338Y-29055D02*
X73594Y-29055D01*
X73594Y-29055D02*
X72650Y-30000D01*
X73385Y-30826D02*
X72776Y-30826D01*
X72650Y-30700D02*
X72650Y-30000D01*
X72776Y-30826D02*
X72650Y-30700D01*
X76338Y-29055D02*
X76338Y-29842D01*
G54D58*
X56304Y-42255D02*
X56020Y-42540D01*
X56304Y-42255D02*
X56670Y-42255D01*
X54920Y-63995D02*
X54920Y-62320D01*
X57578Y-54371D02*
X57578Y-54370D01*
X56880Y-55070D02*
X57578Y-54371D01*
X56880Y-62320D02*
X56880Y-55070D01*
X62303Y-56338D02*
X64701Y-56338D01*
X64701Y-56338D02*
X65118Y-55921D01*
X54439Y-49921D02*
X54439Y-49478D01*
X54439Y-49478D02*
X55285Y-48681D01*
X62303Y-56338D02*
X60118Y-54153D01*
X60118Y-54153D02*
X57795Y-54153D01*
X57795Y-54153D02*
X57578Y-54370D01*
X56437Y-50610D02*
X56437Y-47519D01*
X57578Y-51751D02*
X56437Y-50610D01*
X65118Y-55921D02*
X65118Y-52125D01*
X56670Y-42255D02*
X57606Y-42255D01*
X57606Y-42255D02*
X58425Y-41437D01*
X58425Y-41437D02*
X59911Y-41437D01*
X59911Y-41437D02*
X60137Y-41663D01*
X60137Y-41663D02*
X60137Y-42255D01*
X73917Y-47480D02*
X74773Y-47480D01*
X74773Y-47480D02*
X77116Y-45137D01*
X70708Y-53198D02*
X70708Y-53198D01*
X70708Y-52773D02*
X70708Y-53198D01*
X52903Y-49921D02*
X52903Y-50521D01*
X52903Y-50521D02*
X52903Y-50521D01*
X68681Y-47066D02*
X65718Y-47066D01*
X63925Y-48534D02*
X63641Y-48819D01*
X65126Y-48534D02*
X63925Y-48534D01*
X65364Y-48297D02*
X65126Y-48534D01*
X65364Y-47421D02*
X65364Y-48297D01*
X65718Y-47066D02*
X65364Y-47421D01*
X69950Y-44143D02*
X70141Y-43952D01*
X69950Y-45797D02*
X69950Y-44143D01*
X68681Y-47066D02*
X69950Y-45797D01*
X70708Y-52773D02*
X71340Y-52773D01*
X76840Y-43937D02*
X76279Y-43937D01*
X77116Y-44212D02*
X76840Y-43937D01*
X77116Y-45137D02*
X77116Y-44212D01*
X72883Y-48513D02*
X73917Y-47480D01*
X72883Y-51230D02*
X72883Y-48513D01*
X71340Y-52773D02*
X72883Y-51230D01*
X63641Y-49389D02*
X63641Y-48819D01*
X70141Y-43952D02*
X70911Y-43952D01*
X76279Y-43937D02*
X76279Y-45492D01*
X71974Y-43952D02*
X70911Y-43952D01*
X73937Y-45915D02*
X71974Y-43952D01*
X75856Y-45915D02*
X73937Y-45915D01*
X76279Y-45492D02*
X75856Y-45915D01*
X53043Y-59842D02*
X53043Y-61842D01*
X53043Y-61842D02*
X53051Y-61850D01*
X69773Y-53622D02*
X69773Y-52706D01*
X69773Y-52706D02*
X70206Y-52273D01*
X52391Y-50629D02*
X52391Y-50629D01*
X52391Y-50629D02*
X52391Y-49921D01*
X69399Y-47312D02*
X65826Y-47312D01*
X64142Y-48760D02*
X63956Y-48947D01*
X65264Y-48760D02*
X64142Y-48760D01*
X65600Y-48425D02*
X65264Y-48760D01*
X65600Y-47539D02*
X65600Y-48425D01*
X65826Y-47312D02*
X65600Y-47539D01*
X69635Y-46742D02*
X69635Y-47076D01*
X69635Y-47076D02*
X69399Y-47312D01*
X70708Y-52273D02*
X70206Y-52273D01*
X73909Y-42990D02*
X73909Y-43937D01*
X74153Y-42746D02*
X73909Y-42990D01*
X76397Y-42746D02*
X74153Y-42746D01*
X77627Y-43976D02*
X76397Y-42746D01*
X77627Y-45118D02*
X77627Y-43976D01*
X74891Y-47854D02*
X77627Y-45118D01*
X74055Y-47854D02*
X74891Y-47854D01*
X73267Y-48641D02*
X74055Y-47854D01*
X73267Y-51466D02*
X73267Y-48641D01*
X71112Y-53622D02*
X73267Y-51466D01*
X69773Y-53622D02*
X71112Y-53622D01*
X63956Y-49389D02*
X63956Y-48947D01*
X73909Y-43937D02*
X72785Y-43937D01*
X72785Y-43937D02*
X72027Y-43179D01*
X54043Y-59842D02*
X54043Y-61842D01*
X54043Y-61842D02*
X54035Y-61850D01*
X69639Y-41952D02*
X70911Y-41952D01*
X69635Y-41948D02*
X69639Y-41952D01*
X71805Y-41952D02*
X70911Y-41952D01*
X72027Y-42175D02*
X71805Y-41952D01*
X72027Y-43179D02*
X72027Y-42175D01*
X46437Y-52687D02*
X46437Y-51545D01*
X46801Y-51181D02*
X47755Y-51181D01*
X46437Y-51545D02*
X46801Y-51181D01*
X46437Y-55187D02*
X46437Y-52687D01*
X47755Y-51181D02*
X47755Y-50954D01*
X47303Y-50501D02*
X47303Y-50000D01*
X47755Y-50954D02*
X47303Y-50501D01*
X47303Y-50000D02*
X46564Y-50000D01*
X46110Y-49545D02*
X46110Y-45364D01*
X46564Y-50000D02*
X46110Y-49545D01*
X47110Y-45364D02*
X46110Y-45364D01*
X48110Y-45364D02*
X47110Y-45364D01*
X53927Y-49921D02*
X53927Y-49291D01*
X54360Y-47716D02*
X54271Y-47627D01*
X54360Y-48858D02*
X54360Y-47716D01*
X53927Y-49291D02*
X54360Y-48858D01*
X55177Y-43257D02*
X55179Y-43255D01*
X55179Y-43255D02*
X56670Y-43255D01*
X57460Y-53582D02*
X58877Y-53582D01*
X58877Y-53582D02*
X59014Y-53719D01*
X57460Y-52578D02*
X56870Y-52578D01*
X56870Y-52578D02*
X56732Y-52440D01*
X56732Y-51625D02*
X56732Y-52440D01*
X56732Y-51625D02*
X55830Y-50724D01*
X55830Y-50724D02*
X54082Y-50724D01*
X54082Y-50724D02*
X53927Y-50569D01*
X53927Y-50569D02*
X53927Y-49921D01*
X64271Y-52657D02*
X64271Y-53227D01*
X64271Y-53227D02*
X64448Y-53405D01*
X64448Y-53405D02*
X64448Y-55433D01*
X64448Y-55433D02*
X64192Y-55688D01*
X64192Y-55688D02*
X62500Y-55688D01*
X62500Y-55688D02*
X60532Y-53721D01*
X60532Y-53721D02*
X59014Y-53719D01*
X56670Y-43255D02*
X57429Y-43255D01*
X60137Y-43799D02*
X60137Y-43255D01*
X59960Y-43976D02*
X60137Y-43799D01*
X58149Y-43976D02*
X59960Y-43976D01*
X57429Y-43255D02*
X58149Y-43976D01*
X77942Y-32622D02*
X77942Y-34990D01*
X63937Y-54281D02*
X63937Y-55118D01*
X63641Y-53985D02*
X63937Y-54281D01*
X63641Y-52657D02*
X63641Y-53985D01*
X63937Y-55118D02*
X63769Y-55285D01*
X31860Y-31112D02*
X31860Y-30161D01*
X62382Y-52657D02*
X62381Y-52657D01*
X62381Y-52657D02*
X61938Y-53100D01*
X47337Y-52687D02*
X48395Y-52687D01*
X49289Y-50720D02*
X50484Y-50720D01*
X48986Y-51023D02*
X49289Y-50720D01*
X48986Y-52096D02*
X48986Y-51023D01*
X48395Y-52687D02*
X48986Y-52096D01*
X55710Y-50960D02*
X50724Y-50960D01*
X50724Y-50960D02*
X50484Y-50720D01*
X58917Y-53188D02*
X56881Y-53188D01*
X56487Y-52795D02*
X56496Y-52795D01*
X56881Y-53188D02*
X56487Y-52795D01*
X62421Y-53464D02*
X59192Y-53464D01*
X59192Y-53464D02*
X58917Y-53188D01*
X62697Y-52657D02*
X62697Y-53188D01*
X56496Y-51746D02*
X55710Y-50960D01*
X56496Y-52795D02*
X56496Y-51746D01*
X62697Y-53188D02*
X62421Y-53464D01*
X57559Y-42755D02*
X56670Y-42755D01*
X63956Y-53704D02*
X64062Y-53811D01*
X63956Y-52657D02*
X63956Y-53704D01*
X63327Y-52657D02*
X63327Y-54104D01*
X63327Y-54104D02*
X63484Y-54261D01*
X63484Y-54261D02*
X63484Y-54812D01*
X63484Y-54812D02*
X63326Y-54970D01*
X60846Y-52007D02*
X61082Y-52007D01*
X61279Y-51810D02*
X61850Y-51810D01*
X61082Y-52007D02*
X61279Y-51810D01*
X60019Y-52086D02*
X60403Y-52086D01*
X60482Y-52007D02*
X60846Y-52007D01*
X60403Y-52086D02*
X60482Y-52007D01*
X59153Y-52716D02*
X59153Y-53061D01*
X61850Y-52480D02*
X61850Y-52125D01*
X61141Y-53188D02*
X61850Y-52480D01*
X59281Y-53188D02*
X61141Y-53188D01*
X59153Y-53061D02*
X59281Y-53188D01*
X58346Y-52716D02*
X59153Y-52716D01*
X65118Y-50236D02*
X65659Y-50236D01*
X65856Y-50039D02*
X66397Y-50039D01*
X65659Y-50236D02*
X65856Y-50039D01*
X66003Y-49547D02*
X65324Y-49547D01*
X65118Y-49753D02*
X65118Y-49921D01*
X65324Y-49547D02*
X65118Y-49753D01*
X65118Y-51495D02*
X66003Y-51495D01*
X66003Y-51495D02*
X66003Y-51496D01*
X65118Y-50551D02*
X66023Y-50551D01*
X66023Y-50551D02*
X66023Y-50551D01*
X69045Y-39921D02*
X70787Y-39921D01*
X70787Y-39921D02*
X71594Y-39114D01*
X79733Y-32371D02*
X79733Y-33455D01*
X76397Y-39114D02*
X71594Y-39114D01*
X79045Y-36466D02*
X76397Y-39114D01*
X79045Y-36466D02*
X79045Y-34143D01*
X79733Y-33455D02*
X79045Y-34143D01*
X61891Y-47608D02*
X62381Y-47608D01*
X61889Y-47606D02*
X61891Y-47608D01*
X62382Y-49389D02*
X62382Y-48868D01*
X62381Y-48179D02*
X62381Y-47608D01*
X62293Y-48267D02*
X62381Y-48179D01*
X62293Y-48779D02*
X62293Y-48267D01*
X62382Y-48868D02*
X62293Y-48779D01*
X80483Y-31996D02*
X80108Y-31996D01*
X80108Y-31996D02*
X79733Y-32371D01*
X80483Y-31996D02*
X81908Y-31996D01*
X81908Y-31996D02*
X82283Y-32371D01*
X62020Y-44450D02*
X67755Y-44448D01*
X67755Y-44448D02*
X68070Y-44133D01*
X68070Y-40895D02*
X68070Y-44133D01*
X69045Y-39921D02*
X68070Y-40895D01*
X63012Y-52657D02*
X63012Y-54438D01*
X63012Y-54438D02*
X63011Y-54438D01*
X22047Y-58572D02*
X22047Y-58070D01*
X22824Y-57844D02*
X23031Y-57637D01*
X22273Y-57844D02*
X22824Y-57844D01*
X22047Y-58070D02*
X22273Y-57844D01*
X23031Y-57637D02*
X23031Y-57253D01*
X21732Y-58572D02*
X21732Y-55816D01*
X20787Y-58572D02*
X20787Y-58080D01*
X20383Y-57677D02*
X20383Y-57253D01*
X20787Y-58080D02*
X20383Y-57677D01*
X56420Y-67410D02*
X51480Y-67410D01*
X50240Y-66170D02*
X25150Y-66170D01*
X51480Y-67410D02*
X50240Y-66170D01*
X25150Y-66170D02*
X24942Y-66377D01*
X14616Y-65151D02*
X15110Y-64657D01*
X14616Y-65954D02*
X14616Y-65151D01*
X15039Y-66377D02*
X14616Y-65954D01*
X24942Y-66377D02*
X15039Y-66377D01*
G54D56*
X77619Y-62834D02*
X77619Y-68197D01*
X59797Y-55614D02*
X59161Y-55614D01*
X60236Y-56053D02*
X59797Y-55614D01*
X60236Y-68435D02*
X60236Y-56053D01*
X60875Y-69074D02*
X60236Y-68435D01*
X76742Y-69074D02*
X60875Y-69074D01*
X77619Y-68197D02*
X76742Y-69074D01*
X59161Y-55614D02*
X59161Y-54629D01*
X77619Y-65588D02*
X76110Y-65588D01*
X76110Y-65588D02*
X76102Y-65580D01*
X77619Y-62834D02*
X77619Y-65588D01*
X77621Y-65590D02*
X78929Y-65590D01*
X77619Y-65588D02*
X77621Y-65590D01*
G54D58*
X84011Y-36035D02*
X84011Y-27230D01*
X83465Y-26684D02*
X82283Y-26684D01*
X84011Y-27230D02*
X83465Y-26684D01*
X69340Y-40659D02*
X71043Y-40659D01*
X71043Y-40659D02*
X71978Y-39724D01*
X81391Y-38655D02*
X81391Y-41401D01*
X81391Y-41401D02*
X81397Y-41407D01*
X82314Y-49460D02*
X82314Y-42324D01*
X82314Y-42324D02*
X81397Y-41407D01*
X79714Y-39724D02*
X71978Y-39724D01*
X81397Y-41407D02*
X79714Y-39724D01*
X63327Y-50039D02*
X63435Y-50147D01*
X63327Y-49389D02*
X63327Y-50039D01*
X53671Y-49222D02*
X53671Y-49921D01*
X53789Y-49104D02*
X53671Y-49222D01*
X53789Y-48661D02*
X53789Y-49104D01*
X53956Y-48494D02*
X53789Y-48661D01*
X68592Y-41407D02*
X68592Y-45433D01*
X63937Y-46358D02*
X64271Y-46023D01*
X64271Y-46023D02*
X68001Y-46023D01*
X68001Y-46023D02*
X68592Y-45433D01*
X63937Y-46545D02*
X63937Y-46358D01*
X69340Y-40659D02*
X68592Y-41407D01*
X63937Y-46545D02*
X63937Y-47352D01*
X63690Y-47598D02*
X63326Y-47598D01*
X63937Y-47352D02*
X63690Y-47598D01*
X80787Y-49141D02*
X80787Y-49547D01*
X80787Y-49547D02*
X80984Y-49744D01*
X80984Y-49744D02*
X82031Y-49744D01*
X82031Y-49744D02*
X82314Y-49460D01*
X81391Y-38655D02*
X84011Y-36035D01*
X63327Y-49389D02*
X63327Y-47598D01*
X63327Y-47598D02*
X63326Y-47598D01*
X80483Y-27059D02*
X81908Y-27059D01*
X81908Y-27059D02*
X82283Y-26684D01*
X80483Y-27059D02*
X80108Y-27059D01*
X80108Y-27059D02*
X79733Y-26684D01*
X69498Y-41053D02*
X71131Y-41053D01*
X71131Y-41053D02*
X72165Y-40019D01*
X79862Y-41240D02*
X79862Y-44535D01*
X78641Y-40019D02*
X72165Y-40019D01*
X79862Y-41240D02*
X78641Y-40019D01*
X79862Y-44535D02*
X81496Y-46169D01*
X53159Y-49921D02*
X53159Y-49448D01*
X52716Y-49183D02*
X52716Y-48750D01*
X52785Y-49251D02*
X52716Y-49183D01*
X52962Y-49251D02*
X52785Y-49251D01*
X53159Y-49448D02*
X52962Y-49251D01*
X63012Y-49389D02*
X63012Y-50393D01*
X63012Y-50393D02*
X63011Y-50393D01*
X63100Y-48326D02*
X63100Y-48710D01*
X63100Y-48710D02*
X63012Y-48798D01*
X63012Y-48798D02*
X63012Y-49389D01*
X68415Y-46584D02*
X65324Y-46584D01*
X65324Y-46584D02*
X63769Y-48139D01*
X62972Y-48139D02*
X63100Y-48326D01*
X68848Y-46151D02*
X68415Y-46584D01*
X68848Y-41702D02*
X68848Y-46151D01*
X69498Y-41053D02*
X68848Y-41702D01*
G54D56*
X23706Y-57253D02*
X23706Y-57778D01*
X22933Y-58551D02*
X22933Y-59005D01*
X23706Y-57778D02*
X22933Y-58551D01*
X24728Y-57253D02*
X23706Y-57253D01*
X24745Y-57270D02*
X24728Y-57253D01*
X22047Y-59438D02*
X22805Y-59438D01*
X22805Y-59438D02*
X22933Y-59311D01*
X22933Y-59311D02*
X22933Y-59005D01*
X20472Y-60354D02*
X19350Y-60354D01*
X19350Y-60354D02*
X19035Y-60039D01*
X22086Y-59005D02*
X22933Y-59005D01*
X22933Y-59005D02*
X24620Y-59005D01*
X24620Y-59005D02*
X24625Y-59011D01*
X20472Y-59438D02*
X19035Y-59438D01*
X19035Y-59438D02*
X19035Y-57401D01*
X19183Y-57253D02*
X19708Y-57253D01*
X19035Y-57401D02*
X19183Y-57253D01*
X23706Y-57253D02*
X23706Y-56049D01*
X23474Y-55816D02*
X22407Y-55816D01*
X23706Y-56049D02*
X23474Y-55816D01*
X19035Y-60039D02*
X19035Y-59438D01*
X22047Y-60354D02*
X20472Y-60354D01*
X22047Y-59438D02*
X22047Y-60354D01*
X55952Y-52125D02*
X55952Y-64129D01*
X55952Y-64129D02*
X56259Y-64437D01*
X51870Y-52114D02*
X51084Y-52114D01*
X51084Y-52114D02*
X51072Y-52125D01*
G54D58*
X52929Y-51405D02*
X55232Y-51405D01*
X55952Y-52125D02*
X55232Y-51405D01*
X52647Y-51687D02*
X52929Y-51405D01*
X52647Y-52125D02*
X52647Y-51687D01*
G54D56*
X12120Y-62204D02*
X12120Y-64647D01*
X12120Y-64647D02*
X12110Y-64657D01*
X45762Y-66870D02*
X13322Y-66870D01*
X13322Y-66870D02*
X12110Y-65657D01*
X58161Y-68598D02*
X50900Y-68598D01*
X46101Y-66530D02*
X45762Y-66870D01*
X48832Y-66530D02*
X46101Y-66530D01*
X50900Y-68598D02*
X48832Y-66530D01*
X12795Y-59842D02*
X12795Y-60127D01*
X11240Y-64787D02*
X12110Y-65657D01*
X11240Y-60708D02*
X11240Y-64787D01*
X11535Y-60413D02*
X11240Y-60708D01*
X12509Y-60413D02*
X11535Y-60413D01*
X12795Y-60127D02*
X12509Y-60413D01*
G54D58*
X54183Y-52125D02*
X54183Y-52883D01*
X22968Y-63799D02*
X22110Y-64657D01*
X25984Y-63799D02*
X22968Y-63799D01*
X30147Y-59635D02*
X25984Y-63799D01*
X49114Y-59635D02*
X30147Y-59635D01*
X50433Y-58316D02*
X49114Y-59635D01*
X50433Y-54625D02*
X50433Y-58316D01*
X51062Y-53996D02*
X50433Y-54625D01*
X53070Y-53996D02*
X51062Y-53996D01*
X54183Y-52883D02*
X53070Y-53996D01*
X53927Y-52125D02*
X53927Y-52814D01*
X22194Y-63572D02*
X21110Y-64657D01*
X25885Y-63572D02*
X22194Y-63572D01*
X30039Y-59419D02*
X25885Y-63572D01*
X48986Y-59419D02*
X30039Y-59419D01*
X50206Y-58198D02*
X48986Y-59419D01*
X50206Y-54517D02*
X50206Y-58198D01*
X50954Y-53769D02*
X50206Y-54517D01*
X52972Y-53769D02*
X50954Y-53769D01*
X53927Y-52814D02*
X52972Y-53769D01*
X54695Y-52125D02*
X54695Y-53021D01*
X12795Y-60895D02*
X12795Y-61220D01*
X12972Y-60718D02*
X12795Y-60895D01*
X14980Y-60718D02*
X12972Y-60718D01*
X30442Y-60147D02*
X29872Y-60718D01*
X49311Y-60147D02*
X30442Y-60147D01*
X50875Y-58582D02*
X49311Y-60147D01*
X50875Y-54931D02*
X50875Y-58582D01*
X51328Y-54478D02*
X50875Y-54931D01*
X53238Y-54478D02*
X51328Y-54478D01*
X54695Y-53021D02*
X53238Y-54478D01*
X12795Y-61220D02*
X12795Y-62204D01*
X25797Y-63346D02*
X18238Y-63346D01*
X17608Y-65159D02*
X17110Y-65657D01*
X17608Y-63976D02*
X17608Y-65159D01*
X18238Y-63346D02*
X17608Y-63976D01*
X53671Y-52125D02*
X53671Y-52755D01*
X29940Y-59202D02*
X25797Y-63346D01*
X48818Y-59202D02*
X29940Y-59202D01*
X49990Y-58031D02*
X48818Y-59202D01*
X49990Y-54379D02*
X49990Y-58031D01*
X50826Y-53543D02*
X49990Y-54379D01*
X52883Y-53543D02*
X50826Y-53543D01*
X53671Y-52755D02*
X52883Y-53543D01*
X53415Y-52125D02*
X53415Y-52696D01*
X16614Y-65153D02*
X16110Y-65657D01*
X16614Y-64271D02*
X16614Y-65153D01*
X17765Y-63120D02*
X16614Y-64271D01*
X25679Y-63120D02*
X17765Y-63120D01*
X29832Y-58966D02*
X25679Y-63120D01*
X48671Y-58966D02*
X29832Y-58966D01*
X49753Y-57883D02*
X48671Y-58966D01*
X49753Y-54281D02*
X49753Y-57883D01*
X50708Y-53326D02*
X49753Y-54281D01*
X52785Y-53326D02*
X50708Y-53326D01*
X53415Y-52696D02*
X52785Y-53326D01*
X54439Y-52125D02*
X54439Y-52962D01*
X23742Y-64025D02*
X23110Y-64657D01*
X26082Y-64025D02*
X23742Y-64025D01*
X30226Y-59881D02*
X26082Y-64025D01*
X49222Y-59881D02*
X30226Y-59881D01*
X50659Y-58444D02*
X49222Y-59881D01*
X50659Y-54763D02*
X50659Y-58444D01*
X51200Y-54222D02*
X50659Y-54763D01*
X53179Y-54222D02*
X51200Y-54222D01*
X54439Y-52962D02*
X53179Y-54222D01*
X58655Y-66092D02*
X56282Y-66092D01*
X55566Y-65376D02*
X55566Y-52210D01*
X56282Y-66092D02*
X55566Y-65376D01*
X53070Y-51606D02*
X54962Y-51606D01*
X54962Y-51606D02*
X55566Y-52210D01*
X52903Y-52125D02*
X52903Y-51773D01*
X52903Y-51773D02*
X53070Y-51606D01*
X58655Y-66092D02*
X59161Y-66598D01*
X19547Y-59005D02*
X20433Y-59005D01*
X52903Y-52125D02*
X52903Y-52569D01*
X16129Y-62637D02*
X14110Y-64657D01*
X25511Y-62637D02*
X16129Y-62637D01*
X29655Y-58494D02*
X25511Y-62637D01*
X48454Y-58494D02*
X29655Y-58494D01*
X49291Y-57657D02*
X48454Y-58494D01*
X49291Y-54045D02*
X49291Y-57657D01*
X50452Y-52883D02*
X49291Y-54045D01*
X52588Y-52883D02*
X50452Y-52883D01*
X52903Y-52569D02*
X52588Y-52883D01*
X52391Y-52125D02*
X52391Y-51616D01*
X59635Y-67598D02*
X59161Y-67598D01*
X59822Y-67411D02*
X59635Y-67598D01*
X59822Y-65364D02*
X59822Y-67411D01*
X59557Y-65098D02*
X59822Y-65364D01*
X57751Y-65098D02*
X59557Y-65098D01*
X56287Y-63633D02*
X57751Y-65098D01*
X56287Y-51988D02*
X56287Y-63633D01*
X55492Y-51192D02*
X56287Y-51988D01*
X52814Y-51192D02*
X55492Y-51192D01*
X52391Y-51616D02*
X52814Y-51192D01*
X19812Y-58572D02*
X20472Y-58572D01*
X52391Y-52125D02*
X52391Y-52418D01*
X13110Y-64261D02*
X13110Y-64657D01*
X14950Y-62421D02*
X13110Y-64261D01*
X25403Y-62421D02*
X14950Y-62421D01*
X29576Y-58248D02*
X25403Y-62421D01*
X48346Y-58248D02*
X29576Y-58248D01*
X49055Y-57539D02*
X48346Y-58248D01*
X49055Y-53956D02*
X49055Y-57539D01*
X50354Y-52657D02*
X49055Y-53956D01*
X52152Y-52657D02*
X50354Y-52657D01*
X52391Y-52418D02*
X52152Y-52657D01*
X53159Y-52125D02*
X53159Y-52634D01*
X15610Y-65157D02*
X15110Y-65657D01*
X15610Y-64163D02*
X15610Y-65157D01*
X16899Y-62874D02*
X15610Y-64163D01*
X25610Y-62874D02*
X16899Y-62874D01*
X29744Y-58740D02*
X25610Y-62874D01*
X48543Y-58740D02*
X29744Y-58740D01*
X49517Y-57765D02*
X48543Y-58740D01*
X49517Y-54192D02*
X49517Y-57765D01*
X50600Y-53110D02*
X49517Y-54192D01*
X52683Y-53110D02*
X50600Y-53110D01*
X53159Y-52634D02*
X52683Y-53110D01*
X68553Y-46840D02*
X65619Y-46840D01*
X65619Y-46840D02*
X64300Y-48160D01*
X62706Y-48651D02*
X62706Y-49380D01*
X62706Y-49380D02*
X62697Y-49389D01*
X69596Y-41466D02*
X71250Y-41466D01*
X71250Y-41466D02*
X72391Y-40324D01*
X79596Y-41427D02*
X79596Y-45269D01*
X78494Y-40324D02*
X72391Y-40324D01*
X79596Y-41427D02*
X78494Y-40324D01*
X79596Y-45269D02*
X81496Y-47169D01*
X53415Y-49921D02*
X53415Y-49173D01*
X53415Y-49173D02*
X53356Y-49114D01*
X62697Y-49389D02*
X62697Y-50038D01*
X62697Y-50038D02*
X62598Y-50137D01*
X69124Y-46269D02*
X68553Y-46840D01*
X69124Y-41938D02*
X69124Y-46269D01*
X69596Y-41466D02*
X69124Y-41938D01*
X74370Y-52773D02*
X74893Y-52773D01*
X75344Y-51860D02*
X76023Y-51181D01*
X75344Y-52322D02*
X75344Y-51860D01*
X74893Y-52773D02*
X75344Y-52322D01*
G54D56*
X71622Y-51773D02*
X70708Y-51773D01*
X71624Y-51771D02*
X71622Y-51773D01*
X69596Y-51850D02*
X69891Y-51850D01*
X69968Y-51773D02*
X70708Y-51773D01*
X69891Y-51850D02*
X69968Y-51773D01*
G54D58*
X74370Y-51273D02*
X74897Y-51273D01*
X75472Y-49212D02*
X76023Y-49212D01*
X75206Y-49478D02*
X75472Y-49212D01*
X75206Y-50964D02*
X75206Y-49478D01*
X74897Y-51273D02*
X75206Y-50964D01*
X74370Y-51773D02*
X73698Y-51773D01*
X72185Y-53287D02*
X72185Y-54330D01*
X73698Y-51773D02*
X72185Y-53287D01*
X74370Y-51773D02*
X74988Y-51773D01*
X75757Y-50206D02*
X76023Y-50206D01*
X75551Y-50413D02*
X75757Y-50206D01*
X75551Y-51210D02*
X75551Y-50413D01*
X74988Y-51773D02*
X75551Y-51210D01*
X69192Y-40295D02*
X70925Y-40295D01*
X70925Y-40295D02*
X71801Y-39419D01*
X71801Y-39419D02*
X76622Y-39419D01*
X76622Y-39419D02*
X79733Y-36308D01*
X59340Y-49379D02*
X59350Y-49714D01*
X59458Y-49261D02*
X59340Y-49379D01*
X69192Y-40295D02*
X68356Y-41131D01*
X59458Y-49261D02*
X61269Y-49261D01*
X61269Y-49852D02*
X61269Y-49261D01*
X61269Y-49261D02*
X61269Y-46279D01*
X61269Y-46279D02*
X61919Y-45629D01*
X61919Y-45629D02*
X67992Y-45629D01*
X67992Y-45629D02*
X68356Y-45265D01*
X68356Y-45265D02*
X68356Y-41131D01*
X61850Y-49921D02*
X61338Y-49921D01*
X61338Y-49921D02*
X61269Y-49852D01*
X80483Y-35933D02*
X80108Y-35933D01*
X80108Y-35933D02*
X79733Y-36308D01*
X80483Y-35933D02*
X81908Y-35933D01*
X81908Y-35933D02*
X82283Y-36308D01*
X81496Y-48169D02*
X81496Y-49141D01*
G54D56*
X77942Y-30822D02*
X77942Y-30257D01*
X77942Y-30257D02*
X77950Y-30250D01*
X62381Y-46899D02*
X61790Y-46899D01*
X61790Y-46899D02*
X61790Y-46900D01*
X69010Y-66400D02*
X68019Y-65409D01*
X68019Y-65409D02*
X67721Y-65409D01*
X52920Y-66250D02*
X51920Y-66250D01*
X53920Y-66250D02*
X52920Y-66250D01*
X54920Y-66250D02*
X53920Y-66250D01*
X58161Y-66598D02*
X56098Y-66598D01*
X55750Y-66250D02*
X54920Y-66250D01*
X56098Y-66598D02*
X55750Y-66250D01*
X53551Y-40236D02*
X54045Y-40236D01*
X54045Y-40236D02*
X54438Y-39842D01*
X56200Y-39842D02*
X57352Y-39842D01*
X60501Y-40088D02*
X60748Y-39842D01*
X57598Y-40088D02*
X60501Y-40088D01*
X57352Y-39842D02*
X57598Y-40088D01*
X63287Y-67204D02*
X63932Y-67204D01*
X45679Y-27037D02*
X53064Y-27037D01*
X22047Y-61062D02*
X23090Y-61062D01*
X23342Y-60811D02*
X24650Y-60811D01*
X23090Y-61062D02*
X23342Y-60811D01*
X18090Y-61220D02*
X18917Y-61220D01*
X18917Y-61220D02*
X19074Y-61062D01*
X20472Y-61062D02*
X19074Y-61062D01*
X20787Y-59438D02*
X20787Y-59832D01*
X21417Y-59803D02*
X21417Y-59438D01*
X21299Y-59921D02*
X21417Y-59803D01*
X20875Y-59921D02*
X21299Y-59921D01*
X20787Y-59832D02*
X20875Y-59921D01*
X22352Y-56486D02*
X22352Y-57249D01*
X22352Y-57249D02*
X22356Y-57253D01*
X21058Y-56486D02*
X21062Y-56486D01*
X21057Y-55816D02*
X18602Y-55816D01*
X18287Y-56131D02*
X18287Y-61220D01*
X18602Y-55816D02*
X18287Y-56131D01*
X53897Y-57450D02*
X54596Y-57450D01*
X55043Y-57003D02*
X55043Y-55905D01*
X54596Y-57450D02*
X55043Y-57003D01*
X53897Y-58750D02*
X54763Y-58750D01*
X55043Y-59029D02*
X55043Y-59842D01*
X54763Y-58750D02*
X55043Y-59029D01*
X58346Y-50127D02*
X58612Y-50127D01*
G54D58*
X60059Y-50127D02*
X58612Y-50127D01*
G54D56*
X60900Y-46030D02*
X60900Y-48554D01*
X60900Y-46030D02*
X60470Y-45600D01*
X60470Y-45600D02*
X57300Y-45600D01*
X57300Y-45600D02*
X57000Y-45900D01*
X57000Y-45900D02*
X55500Y-45900D01*
X55500Y-45900D02*
X55255Y-45655D01*
X55255Y-45118D02*
X55255Y-45655D01*
X58346Y-49183D02*
X58346Y-50127D01*
X58346Y-50127D02*
X58346Y-51496D01*
X58622Y-48907D02*
X58346Y-49183D01*
X60546Y-48907D02*
X58622Y-48907D01*
X60900Y-48554D02*
X60546Y-48907D01*
X60059Y-49714D02*
X60059Y-50127D01*
X60059Y-50127D02*
X60059Y-50551D01*
X64350Y-51269D02*
X62549Y-51269D01*
X62549Y-51269D02*
X62460Y-51180D01*
X61850Y-50551D02*
X62382Y-50551D01*
X62382Y-50551D02*
X62460Y-50629D01*
X62460Y-50629D02*
X62460Y-51180D01*
X65118Y-50866D02*
X64586Y-50866D01*
X64586Y-50866D02*
X64350Y-51102D01*
X62460Y-51180D02*
X61850Y-51180D01*
X64350Y-51269D02*
X64350Y-51102D01*
X50370Y-51173D02*
X50370Y-52120D01*
X50370Y-52120D02*
X50364Y-52125D01*
X53356Y-48120D02*
X53356Y-46791D01*
X55501Y-46791D02*
X53356Y-46791D01*
X53356Y-46791D02*
X51003Y-46791D01*
X51003Y-46791D02*
X50698Y-47096D01*
X50698Y-47096D02*
X50698Y-48218D01*
G54D58*
X55531Y-49921D02*
X54695Y-49921D01*
G54D56*
X55728Y-49724D02*
X55531Y-49921D01*
X55728Y-47017D02*
X55728Y-49724D01*
X55501Y-46791D02*
X55728Y-47017D01*
X45679Y-28464D02*
X45679Y-27037D01*
X60748Y-39842D02*
X63464Y-39842D01*
X65111Y-41489D02*
X65111Y-41952D01*
X63464Y-39842D02*
X65111Y-41489D01*
X54550Y-44255D02*
X53543Y-44255D01*
X54438Y-39842D02*
X55019Y-39842D01*
X74118Y-45314D02*
X74744Y-45314D01*
X45537Y-52687D02*
X44940Y-52687D01*
X58346Y-51496D02*
X58346Y-52007D01*
X13470Y-62564D02*
X13470Y-62204D01*
X13612Y-62706D02*
X13470Y-62564D01*
X21328Y-35320D02*
X22042Y-35320D01*
X21057Y-54789D02*
X21057Y-55816D01*
X21417Y-54429D02*
X21057Y-54789D01*
X23179Y-54429D02*
X21417Y-54429D01*
X24025Y-53582D02*
X23179Y-54429D01*
X24025Y-50314D02*
X24025Y-53582D01*
X22273Y-48562D02*
X24025Y-50314D01*
X22273Y-35551D02*
X22273Y-48562D01*
X22042Y-35320D02*
X22273Y-35551D01*
X21328Y-33730D02*
X21328Y-34251D01*
X21338Y-33720D02*
X21328Y-33730D01*
X49625Y-48356D02*
X49625Y-48818D01*
X50698Y-48218D02*
X49763Y-48218D01*
X49763Y-48218D02*
X49625Y-48356D01*
X13503Y-61220D02*
X18090Y-61220D01*
X18090Y-61220D02*
X18287Y-61220D01*
X74370Y-49273D02*
X74370Y-48602D01*
X70708Y-48612D02*
X70708Y-49273D01*
X70718Y-48602D02*
X70708Y-48612D01*
X74370Y-48602D02*
X74370Y-48602D01*
X70035Y-67204D02*
X69025Y-67204D01*
X74020Y-65409D02*
X75103Y-65409D01*
X75103Y-65409D02*
X75108Y-65413D01*
X54550Y-44255D02*
X54550Y-44855D01*
X54550Y-44855D02*
X54812Y-45118D01*
X54812Y-45118D02*
X55255Y-45118D01*
X55019Y-39842D02*
X55606Y-39842D01*
X55606Y-39842D02*
X56200Y-39842D01*
X45381Y-29777D02*
X45381Y-29086D01*
X45381Y-29086D02*
X45679Y-28789D01*
X45679Y-28789D02*
X45679Y-28464D01*
X80019Y-62834D02*
X81545Y-62834D01*
X82411Y-57076D02*
X80019Y-54685D01*
X82411Y-61968D02*
X82411Y-57076D01*
X81545Y-62834D02*
X82411Y-61968D01*
X67712Y-64045D02*
X67712Y-62988D01*
X67712Y-62988D02*
X67706Y-62982D01*
X67721Y-65409D02*
X67721Y-64053D01*
X67721Y-64053D02*
X67712Y-64045D01*
X74012Y-64045D02*
X74012Y-63027D01*
X74012Y-63027D02*
X73966Y-62982D01*
X74020Y-65409D02*
X74020Y-64053D01*
X74020Y-64053D02*
X74012Y-64045D01*
X74370Y-50273D02*
X74370Y-50773D01*
X74370Y-49773D02*
X74370Y-50273D01*
X74370Y-49273D02*
X74370Y-49773D01*
X70708Y-49773D02*
X70708Y-49273D01*
X70708Y-50273D02*
X70708Y-49773D01*
X70708Y-50773D02*
X70708Y-50273D01*
X70708Y-51273D02*
X70708Y-50773D01*
X70708Y-51273D02*
X70141Y-51273D01*
X70009Y-51141D02*
X69596Y-51141D01*
X70141Y-51273D02*
X70009Y-51141D01*
X68169Y-51141D02*
X69596Y-51141D01*
G54D58*
X60059Y-50551D02*
X61849Y-50551D01*
G54D56*
X61849Y-50551D02*
X61850Y-50551D01*
X60019Y-52716D02*
X60846Y-52716D01*
X59153Y-52086D02*
X58799Y-52086D01*
X58799Y-52086D02*
X58720Y-52007D01*
X58720Y-52007D02*
X58346Y-52007D01*
X59153Y-52086D02*
X59429Y-52086D01*
X59714Y-52716D02*
X60019Y-52716D01*
G54D58*
X59586Y-52588D02*
X59714Y-52716D01*
X59586Y-52244D02*
X59586Y-52588D01*
X59429Y-52086D02*
X59586Y-52244D01*
G54D56*
X65111Y-41952D02*
X63736Y-41952D01*
X63736Y-41952D02*
X63484Y-42204D01*
X63484Y-42204D02*
X63484Y-42598D01*
X74744Y-45314D02*
X74744Y-43981D01*
X74744Y-43981D02*
X74699Y-43937D01*
X21058Y-57253D02*
X21058Y-56486D01*
X21058Y-56486D02*
X21058Y-55818D01*
X21058Y-55818D02*
X21057Y-55816D01*
X21417Y-58572D02*
X21417Y-57956D01*
X21058Y-57598D02*
X21058Y-57253D01*
X21417Y-57956D02*
X21058Y-57598D01*
X20472Y-61062D02*
X22047Y-61062D01*
X21417Y-59438D02*
X21417Y-58572D01*
X21417Y-59438D02*
X21732Y-59438D01*
X13503Y-61220D02*
X13503Y-62171D01*
X13503Y-62171D02*
X13470Y-62204D01*
X31860Y-27372D02*
X31860Y-27824D01*
X31860Y-27824D02*
X31860Y-28361D01*
X21328Y-35320D02*
X21328Y-34251D01*
X55606Y-29578D02*
X53064Y-27037D01*
X55606Y-39842D02*
X55606Y-29578D01*
X77942Y-31722D02*
X78527Y-31722D01*
X78655Y-29055D02*
X77047Y-29055D01*
X78950Y-29350D02*
X78655Y-29055D01*
X78950Y-31300D02*
X78950Y-29350D01*
X78527Y-31722D02*
X78950Y-31300D01*
X77032Y-27396D02*
X78503Y-27396D01*
X78750Y-27150D02*
X78750Y-26854D01*
X78503Y-27396D02*
X78750Y-27150D01*
X77047Y-29055D02*
X77047Y-27410D01*
X77047Y-27410D02*
X77032Y-27396D01*
X75442Y-31722D02*
X74517Y-31722D01*
X74232Y-32007D02*
X73385Y-32007D01*
X74517Y-31722D02*
X74232Y-32007D01*
X77942Y-31722D02*
X75442Y-31722D01*
G54D58*
X54920Y-65450D02*
X54920Y-64704D01*
X52920Y-65450D02*
X52920Y-64704D01*
X53920Y-65450D02*
X53920Y-64704D01*
X51920Y-65450D02*
X51920Y-64704D01*
G54D10*
G36*
X76550Y-62500D02*
X73626Y-62500D01*
X73543Y-62465D01*
X73487Y-62465D01*
X73487Y-59171D01*
X73420Y-59007D01*
X73420Y-54606D01*
X73420Y-54487D01*
X73420Y-54460D01*
X73345Y-54385D01*
X72948Y-54385D01*
X72948Y-54772D01*
X73023Y-54847D01*
X73179Y-54847D01*
X73290Y-54801D01*
X73374Y-54717D01*
X73420Y-54606D01*
X73420Y-59007D01*
X73267Y-58638D01*
X72859Y-58230D01*
X72327Y-58008D01*
X71750Y-58008D01*
X71217Y-58228D01*
X70808Y-58636D01*
X70587Y-59168D01*
X70587Y-59745D01*
X70807Y-60278D01*
X71214Y-60687D01*
X71747Y-60908D01*
X72324Y-60908D01*
X72857Y-60688D01*
X73265Y-60281D01*
X73487Y-59748D01*
X73487Y-59171D01*
X73487Y-62465D01*
X73387Y-62465D01*
X73353Y-62500D01*
X73162Y-62500D01*
X73127Y-62465D01*
X72971Y-62465D01*
X72889Y-62500D01*
X72850Y-62500D01*
X72850Y-62522D01*
X72777Y-62595D01*
X72731Y-62706D01*
X72731Y-62825D01*
X72731Y-62852D01*
X72806Y-62927D01*
X72850Y-62927D01*
X72850Y-63037D01*
X72806Y-63037D01*
X72731Y-63112D01*
X72731Y-63139D01*
X72731Y-63258D01*
X72777Y-63368D01*
X72850Y-63441D01*
X72850Y-63503D01*
X72832Y-63510D01*
X72747Y-63595D01*
X72702Y-63705D01*
X72702Y-63824D01*
X72702Y-63915D01*
X72777Y-63990D01*
X72850Y-63990D01*
X72850Y-64100D01*
X72777Y-64100D01*
X72702Y-64175D01*
X72702Y-64265D01*
X72702Y-64384D01*
X72747Y-64495D01*
X72832Y-64579D01*
X72850Y-64586D01*
X72850Y-65260D01*
X72850Y-66600D01*
X72283Y-66600D01*
X72276Y-66592D01*
X72184Y-66554D01*
X72085Y-66554D01*
X71985Y-66554D01*
X71985Y-65164D01*
X71985Y-65045D01*
X71985Y-64834D01*
X71985Y-64574D01*
X71985Y-64364D01*
X71985Y-64245D01*
X71939Y-64134D01*
X71854Y-64050D01*
X71744Y-64004D01*
X71065Y-64004D01*
X70990Y-64079D01*
X70990Y-64649D01*
X71910Y-64649D01*
X71985Y-64574D01*
X71985Y-64834D01*
X71910Y-64759D01*
X70990Y-64759D01*
X70990Y-65329D01*
X71065Y-65404D01*
X71744Y-65404D01*
X71854Y-65359D01*
X71939Y-65274D01*
X71985Y-65164D01*
X71985Y-66554D01*
X71485Y-66554D01*
X71431Y-66576D01*
X71404Y-66550D01*
X71294Y-66504D01*
X71065Y-66504D01*
X70990Y-66579D01*
X70990Y-66600D01*
X70880Y-66600D01*
X70880Y-66579D01*
X70880Y-65329D01*
X70880Y-64759D01*
X70880Y-64649D01*
X70880Y-64079D01*
X70805Y-64004D01*
X70125Y-64004D01*
X70015Y-64050D01*
X69930Y-64134D01*
X69885Y-64245D01*
X69885Y-64364D01*
X69885Y-64574D01*
X69960Y-64649D01*
X70880Y-64649D01*
X70880Y-64759D01*
X69960Y-64759D01*
X69885Y-64834D01*
X69885Y-65045D01*
X69885Y-65164D01*
X69930Y-65274D01*
X70015Y-65359D01*
X70125Y-65404D01*
X70805Y-65404D01*
X70880Y-65329D01*
X70880Y-66579D01*
X70805Y-66504D01*
X70575Y-66504D01*
X70465Y-66550D01*
X70438Y-66576D01*
X70384Y-66554D01*
X70285Y-66554D01*
X69690Y-66554D01*
X69690Y-65210D01*
X68370Y-65210D01*
X68370Y-61950D01*
X67251Y-61950D01*
X67241Y-61939D01*
X67084Y-61875D01*
X66915Y-61874D01*
X66870Y-61893D01*
X66870Y-53900D01*
X69450Y-53900D01*
X69532Y-53982D01*
X69688Y-54046D01*
X69857Y-54047D01*
X70014Y-53982D01*
X70074Y-53922D01*
X71112Y-53922D01*
X71112Y-53922D01*
X71223Y-53900D01*
X71223Y-53900D01*
X71822Y-53900D01*
X71817Y-53902D01*
X71746Y-53972D01*
X71708Y-54064D01*
X71708Y-54163D01*
X71708Y-54596D01*
X71746Y-54688D01*
X71817Y-54759D01*
X71908Y-54797D01*
X72008Y-54797D01*
X72461Y-54797D01*
X72483Y-54787D01*
X72497Y-54801D01*
X72607Y-54847D01*
X72763Y-54847D01*
X72838Y-54772D01*
X72838Y-54385D01*
X72830Y-54385D01*
X72830Y-54275D01*
X72838Y-54275D01*
X72838Y-54267D01*
X72948Y-54267D01*
X72948Y-54275D01*
X73345Y-54275D01*
X73420Y-54200D01*
X73420Y-54173D01*
X73420Y-54054D01*
X73374Y-53944D01*
X73330Y-53900D01*
X74950Y-53900D01*
X74950Y-59050D01*
X76550Y-59050D01*
X76550Y-62500D01*
X76550Y-62500D01*
G37*
G54D58*
X76550Y-62500D02*
X73626Y-62500D01*
X73543Y-62465D01*
X73487Y-62465D01*
X73487Y-59171D01*
X73420Y-59007D01*
X73420Y-54606D01*
X73420Y-54487D01*
X73420Y-54460D01*
X73345Y-54385D01*
X72948Y-54385D01*
X72948Y-54772D01*
X73023Y-54847D01*
X73179Y-54847D01*
X73290Y-54801D01*
X73374Y-54717D01*
X73420Y-54606D01*
X73420Y-59007D01*
X73267Y-58638D01*
X72859Y-58230D01*
X72327Y-58008D01*
X71750Y-58008D01*
X71217Y-58228D01*
X70808Y-58636D01*
X70587Y-59168D01*
X70587Y-59745D01*
X70807Y-60278D01*
X71214Y-60687D01*
X71747Y-60908D01*
X72324Y-60908D01*
X72857Y-60688D01*
X73265Y-60281D01*
X73487Y-59748D01*
X73487Y-59171D01*
X73487Y-62465D01*
X73387Y-62465D01*
X73353Y-62500D01*
X73162Y-62500D01*
X73127Y-62465D01*
X72971Y-62465D01*
X72889Y-62500D01*
X72850Y-62500D01*
X72850Y-62522D01*
X72777Y-62595D01*
X72731Y-62706D01*
X72731Y-62825D01*
X72731Y-62852D01*
X72806Y-62927D01*
X72850Y-62927D01*
X72850Y-63037D01*
X72806Y-63037D01*
X72731Y-63112D01*
X72731Y-63139D01*
X72731Y-63258D01*
X72777Y-63368D01*
X72850Y-63441D01*
X72850Y-63503D01*
X72832Y-63510D01*
X72747Y-63595D01*
X72702Y-63705D01*
X72702Y-63824D01*
X72702Y-63915D01*
X72777Y-63990D01*
X72850Y-63990D01*
X72850Y-64100D01*
X72777Y-64100D01*
X72702Y-64175D01*
X72702Y-64265D01*
X72702Y-64384D01*
X72747Y-64495D01*
X72832Y-64579D01*
X72850Y-64586D01*
X72850Y-65260D01*
X72850Y-66600D01*
X72283Y-66600D01*
X72276Y-66592D01*
X72184Y-66554D01*
X72085Y-66554D01*
X71985Y-66554D01*
X71985Y-65164D01*
X71985Y-65045D01*
X71985Y-64834D01*
X71985Y-64574D01*
X71985Y-64364D01*
X71985Y-64245D01*
X71939Y-64134D01*
X71854Y-64050D01*
X71744Y-64004D01*
X71065Y-64004D01*
X70990Y-64079D01*
X70990Y-64649D01*
X71910Y-64649D01*
X71985Y-64574D01*
X71985Y-64834D01*
X71910Y-64759D01*
X70990Y-64759D01*
X70990Y-65329D01*
X71065Y-65404D01*
X71744Y-65404D01*
X71854Y-65359D01*
X71939Y-65274D01*
X71985Y-65164D01*
X71985Y-66554D01*
X71485Y-66554D01*
X71431Y-66576D01*
X71404Y-66550D01*
X71294Y-66504D01*
X71065Y-66504D01*
X70990Y-66579D01*
X70990Y-66600D01*
X70880Y-66600D01*
X70880Y-66579D01*
X70880Y-65329D01*
X70880Y-64759D01*
X70880Y-64649D01*
X70880Y-64079D01*
X70805Y-64004D01*
X70125Y-64004D01*
X70015Y-64050D01*
X69930Y-64134D01*
X69885Y-64245D01*
X69885Y-64364D01*
X69885Y-64574D01*
X69960Y-64649D01*
X70880Y-64649D01*
X70880Y-64759D01*
X69960Y-64759D01*
X69885Y-64834D01*
X69885Y-65045D01*
X69885Y-65164D01*
X69930Y-65274D01*
X70015Y-65359D01*
X70125Y-65404D01*
X70805Y-65404D01*
X70880Y-65329D01*
X70880Y-66579D01*
X70805Y-66504D01*
X70575Y-66504D01*
X70465Y-66550D01*
X70438Y-66576D01*
X70384Y-66554D01*
X70285Y-66554D01*
X69690Y-66554D01*
X69690Y-65210D01*
X68370Y-65210D01*
X68370Y-61950D01*
X67251Y-61950D01*
X67241Y-61939D01*
X67084Y-61875D01*
X66915Y-61874D01*
X66870Y-61893D01*
X66870Y-53900D01*
X69450Y-53900D01*
X69532Y-53982D01*
X69688Y-54046D01*
X69857Y-54047D01*
X70014Y-53982D01*
X70074Y-53922D01*
X71112Y-53922D01*
X71112Y-53922D01*
X71223Y-53900D01*
X71223Y-53900D01*
X71822Y-53900D01*
X71817Y-53902D01*
X71746Y-53972D01*
X71708Y-54064D01*
X71708Y-54163D01*
X71708Y-54596D01*
X71746Y-54688D01*
X71817Y-54759D01*
X71908Y-54797D01*
X72008Y-54797D01*
X72461Y-54797D01*
X72483Y-54787D01*
X72497Y-54801D01*
X72607Y-54847D01*
X72763Y-54847D01*
X72838Y-54772D01*
X72838Y-54385D01*
X72830Y-54385D01*
X72830Y-54275D01*
X72838Y-54275D01*
X72838Y-54267D01*
X72948Y-54267D01*
X72948Y-54275D01*
X73345Y-54275D01*
X73420Y-54200D01*
X73420Y-54173D01*
X73420Y-54054D01*
X73374Y-53944D01*
X73330Y-53900D01*
X74950Y-53900D01*
X74950Y-59050D01*
X76550Y-59050D01*
X76550Y-62500D01*
G54D10*
G36*
X66290Y-66550D02*
X65882Y-66550D01*
X65882Y-65164D01*
X65882Y-65045D01*
X65882Y-64834D01*
X65882Y-64574D01*
X65882Y-64364D01*
X65882Y-64245D01*
X65837Y-64134D01*
X65752Y-64050D01*
X65642Y-64004D01*
X64962Y-64004D01*
X64887Y-64079D01*
X64887Y-64649D01*
X65807Y-64649D01*
X65882Y-64574D01*
X65882Y-64834D01*
X65807Y-64759D01*
X64887Y-64759D01*
X64887Y-65329D01*
X64962Y-65404D01*
X65642Y-65404D01*
X65752Y-65359D01*
X65837Y-65274D01*
X65882Y-65164D01*
X65882Y-66550D01*
X65301Y-66550D01*
X65192Y-66504D01*
X64962Y-66504D01*
X64917Y-66550D01*
X64777Y-66550D01*
X64777Y-65329D01*
X64777Y-64759D01*
X64777Y-64649D01*
X64777Y-64079D01*
X64702Y-64004D01*
X64023Y-64004D01*
X63912Y-64050D01*
X63828Y-64134D01*
X63782Y-64245D01*
X63782Y-64364D01*
X63782Y-64574D01*
X63857Y-64649D01*
X64777Y-64649D01*
X64777Y-64759D01*
X63857Y-64759D01*
X63782Y-64834D01*
X63782Y-65045D01*
X63782Y-65164D01*
X63828Y-65274D01*
X63912Y-65359D01*
X64023Y-65404D01*
X64702Y-65404D01*
X64777Y-65329D01*
X64777Y-66550D01*
X64747Y-66550D01*
X64702Y-66504D01*
X64473Y-66504D01*
X64363Y-66550D01*
X60690Y-66550D01*
X60690Y-56650D01*
X66290Y-56659D01*
X66290Y-66550D01*
X66290Y-66550D01*
G37*
G54D58*
X66290Y-66550D02*
X65882Y-66550D01*
X65882Y-65164D01*
X65882Y-65045D01*
X65882Y-64834D01*
X65882Y-64574D01*
X65882Y-64364D01*
X65882Y-64245D01*
X65837Y-64134D01*
X65752Y-64050D01*
X65642Y-64004D01*
X64962Y-64004D01*
X64887Y-64079D01*
X64887Y-64649D01*
X65807Y-64649D01*
X65882Y-64574D01*
X65882Y-64834D01*
X65807Y-64759D01*
X64887Y-64759D01*
X64887Y-65329D01*
X64962Y-65404D01*
X65642Y-65404D01*
X65752Y-65359D01*
X65837Y-65274D01*
X65882Y-65164D01*
X65882Y-66550D01*
X65301Y-66550D01*
X65192Y-66504D01*
X64962Y-66504D01*
X64917Y-66550D01*
X64777Y-66550D01*
X64777Y-65329D01*
X64777Y-64759D01*
X64777Y-64649D01*
X64777Y-64079D01*
X64702Y-64004D01*
X64023Y-64004D01*
X63912Y-64050D01*
X63828Y-64134D01*
X63782Y-64245D01*
X63782Y-64364D01*
X63782Y-64574D01*
X63857Y-64649D01*
X64777Y-64649D01*
X64777Y-64759D01*
X63857Y-64759D01*
X63782Y-64834D01*
X63782Y-65045D01*
X63782Y-65164D01*
X63828Y-65274D01*
X63912Y-65359D01*
X64023Y-65404D01*
X64702Y-65404D01*
X64777Y-65329D01*
X64777Y-66550D01*
X64747Y-66550D01*
X64702Y-66504D01*
X64473Y-66504D01*
X64363Y-66550D01*
X60690Y-66550D01*
X60690Y-56650D01*
X66290Y-56659D01*
X66290Y-66550D01*
G54D10*
G36*
X48768Y-53887D02*
X48755Y-53956D01*
X48755Y-57351D01*
X47487Y-57351D01*
X47487Y-55646D01*
X47487Y-55527D01*
X47487Y-55317D01*
X47487Y-55057D01*
X47487Y-54846D01*
X47487Y-54727D01*
X47441Y-54617D01*
X47356Y-54532D01*
X47246Y-54487D01*
X46567Y-54487D01*
X46492Y-54562D01*
X46492Y-55132D01*
X47412Y-55132D01*
X47487Y-55057D01*
X47487Y-55317D01*
X47412Y-55242D01*
X46492Y-55242D01*
X46492Y-55812D01*
X46567Y-55887D01*
X47246Y-55887D01*
X47356Y-55841D01*
X47441Y-55756D01*
X47487Y-55646D01*
X47487Y-57351D01*
X46382Y-57351D01*
X46382Y-55812D01*
X46382Y-55242D01*
X46382Y-55132D01*
X46382Y-54562D01*
X46307Y-54487D01*
X45627Y-54487D01*
X45517Y-54532D01*
X45432Y-54617D01*
X45387Y-54727D01*
X45387Y-54846D01*
X45387Y-55057D01*
X45462Y-55132D01*
X46382Y-55132D01*
X46382Y-55242D01*
X45462Y-55242D01*
X45387Y-55317D01*
X45387Y-55527D01*
X45387Y-55646D01*
X45432Y-55756D01*
X45517Y-55841D01*
X45627Y-55887D01*
X46307Y-55887D01*
X46382Y-55812D01*
X46382Y-57351D01*
X39341Y-57351D01*
X39341Y-53357D01*
X46005Y-53357D01*
X46077Y-53387D01*
X46307Y-53387D01*
X46336Y-53357D01*
X46417Y-53357D01*
X46537Y-53357D01*
X46567Y-53387D01*
X46796Y-53387D01*
X46868Y-53357D01*
X48768Y-53357D01*
X48768Y-53887D01*
X48768Y-53887D01*
G37*
G54D58*
X48768Y-53887D02*
X48755Y-53956D01*
X48755Y-57351D01*
X47487Y-57351D01*
X47487Y-55646D01*
X47487Y-55527D01*
X47487Y-55317D01*
X47487Y-55057D01*
X47487Y-54846D01*
X47487Y-54727D01*
X47441Y-54617D01*
X47356Y-54532D01*
X47246Y-54487D01*
X46567Y-54487D01*
X46492Y-54562D01*
X46492Y-55132D01*
X47412Y-55132D01*
X47487Y-55057D01*
X47487Y-55317D01*
X47412Y-55242D01*
X46492Y-55242D01*
X46492Y-55812D01*
X46567Y-55887D01*
X47246Y-55887D01*
X47356Y-55841D01*
X47441Y-55756D01*
X47487Y-55646D01*
X47487Y-57351D01*
X46382Y-57351D01*
X46382Y-55812D01*
X46382Y-55242D01*
X46382Y-55132D01*
X46382Y-54562D01*
X46307Y-54487D01*
X45627Y-54487D01*
X45517Y-54532D01*
X45432Y-54617D01*
X45387Y-54727D01*
X45387Y-54846D01*
X45387Y-55057D01*
X45462Y-55132D01*
X46382Y-55132D01*
X46382Y-55242D01*
X45462Y-55242D01*
X45387Y-55317D01*
X45387Y-55527D01*
X45387Y-55646D01*
X45432Y-55756D01*
X45517Y-55841D01*
X45627Y-55887D01*
X46307Y-55887D01*
X46382Y-55812D01*
X46382Y-57351D01*
X39341Y-57351D01*
X39341Y-53357D01*
X46005Y-53357D01*
X46077Y-53387D01*
X46307Y-53387D01*
X46336Y-53357D01*
X46417Y-53357D01*
X46537Y-53357D01*
X46567Y-53387D01*
X46796Y-53387D01*
X46868Y-53357D01*
X48768Y-53357D01*
X48768Y-53887D01*
G54D10*
G36*
X77272Y-33020D02*
X76142Y-33020D01*
X76142Y-32532D01*
X76142Y-31852D01*
X76142Y-31592D01*
X76142Y-30912D01*
X76097Y-30802D01*
X76012Y-30718D01*
X75902Y-30672D01*
X75783Y-30672D01*
X75572Y-30672D01*
X75497Y-30747D01*
X75497Y-31667D01*
X76067Y-31667D01*
X76142Y-31592D01*
X76142Y-31852D01*
X76067Y-31777D01*
X75497Y-31777D01*
X75497Y-32697D01*
X75572Y-32772D01*
X75783Y-32772D01*
X75902Y-32772D01*
X76012Y-32726D01*
X76097Y-32642D01*
X76142Y-32532D01*
X76142Y-33020D01*
X75940Y-33020D01*
X75940Y-35934D01*
X75387Y-35934D01*
X75387Y-32697D01*
X75387Y-31777D01*
X75387Y-31667D01*
X75387Y-30747D01*
X75312Y-30672D01*
X75102Y-30672D01*
X74983Y-30672D01*
X74872Y-30718D01*
X74788Y-30802D01*
X74742Y-30912D01*
X74742Y-31592D01*
X74817Y-31667D01*
X75387Y-31667D01*
X75387Y-31777D01*
X74817Y-31777D01*
X74742Y-31852D01*
X74742Y-32033D01*
X74714Y-32033D01*
X73926Y-32033D01*
X73855Y-32062D01*
X73440Y-32062D01*
X73440Y-32350D01*
X73515Y-32425D01*
X73631Y-32425D01*
X73726Y-32425D01*
X73726Y-32805D01*
X73764Y-32897D01*
X73834Y-32967D01*
X73926Y-33005D01*
X74026Y-33005D01*
X74813Y-33005D01*
X74905Y-32967D01*
X74975Y-32897D01*
X75013Y-32805D01*
X75013Y-32772D01*
X75102Y-32772D01*
X75312Y-32772D01*
X75387Y-32697D01*
X75387Y-35934D01*
X73330Y-35934D01*
X73330Y-32350D01*
X73330Y-32062D01*
X72855Y-32062D01*
X72780Y-32137D01*
X72780Y-32185D01*
X72826Y-32295D01*
X72910Y-32380D01*
X73021Y-32425D01*
X73140Y-32425D01*
X73255Y-32425D01*
X73330Y-32350D01*
X73330Y-35934D01*
X56742Y-35934D01*
X56742Y-26664D01*
X75800Y-26660D01*
X75800Y-27955D01*
X75505Y-28250D01*
X73200Y-28250D01*
X73066Y-28276D01*
X72952Y-28352D01*
X72301Y-29003D01*
X71752Y-29552D01*
X71676Y-29666D01*
X71650Y-29800D01*
X71650Y-31250D01*
X71676Y-31383D01*
X71752Y-31497D01*
X72116Y-31861D01*
X72230Y-31937D01*
X72230Y-31937D01*
X72364Y-31964D01*
X72987Y-31964D01*
X73030Y-31982D01*
X73130Y-31982D01*
X73740Y-31982D01*
X73811Y-31952D01*
X73915Y-31952D01*
X73990Y-31877D01*
X73990Y-31830D01*
X73945Y-31719D01*
X73940Y-31715D01*
X73940Y-31682D01*
X73940Y-31446D01*
X73928Y-31417D01*
X73940Y-31388D01*
X73940Y-31288D01*
X73940Y-31052D01*
X73928Y-31023D01*
X73940Y-30994D01*
X73940Y-30895D01*
X73940Y-30658D01*
X73928Y-30629D01*
X73940Y-30600D01*
X73940Y-30501D01*
X73940Y-30407D01*
X74026Y-30407D01*
X74813Y-30407D01*
X74905Y-30369D01*
X74975Y-30299D01*
X75013Y-30207D01*
X75013Y-30107D01*
X75013Y-29635D01*
X74975Y-29543D01*
X74905Y-29473D01*
X74813Y-29435D01*
X74714Y-29435D01*
X73926Y-29435D01*
X73834Y-29473D01*
X73764Y-29543D01*
X73726Y-29635D01*
X73726Y-29734D01*
X73726Y-30064D01*
X73641Y-30064D01*
X73080Y-30064D01*
X73739Y-29405D01*
X75650Y-29405D01*
X75896Y-29405D01*
X75900Y-29413D01*
X75935Y-29448D01*
X75900Y-29484D01*
X75862Y-29576D01*
X75862Y-29675D01*
X75862Y-30108D01*
X75900Y-30200D01*
X75949Y-30250D01*
X75949Y-30439D01*
X77272Y-30443D01*
X77272Y-31290D01*
X77242Y-31362D01*
X77242Y-31592D01*
X77272Y-31622D01*
X77272Y-31822D01*
X77242Y-31852D01*
X77242Y-32082D01*
X77272Y-32154D01*
X77272Y-33020D01*
X77272Y-33020D01*
G37*
G54D58*
X77272Y-33020D02*
X76142Y-33020D01*
X76142Y-32532D01*
X76142Y-31852D01*
X76142Y-31592D01*
X76142Y-30912D01*
X76097Y-30802D01*
X76012Y-30718D01*
X75902Y-30672D01*
X75783Y-30672D01*
X75572Y-30672D01*
X75497Y-30747D01*
X75497Y-31667D01*
X76067Y-31667D01*
X76142Y-31592D01*
X76142Y-31852D01*
X76067Y-31777D01*
X75497Y-31777D01*
X75497Y-32697D01*
X75572Y-32772D01*
X75783Y-32772D01*
X75902Y-32772D01*
X76012Y-32726D01*
X76097Y-32642D01*
X76142Y-32532D01*
X76142Y-33020D01*
X75940Y-33020D01*
X75940Y-35934D01*
X75387Y-35934D01*
X75387Y-32697D01*
X75387Y-31777D01*
X75387Y-31667D01*
X75387Y-30747D01*
X75312Y-30672D01*
X75102Y-30672D01*
X74983Y-30672D01*
X74872Y-30718D01*
X74788Y-30802D01*
X74742Y-30912D01*
X74742Y-31592D01*
X74817Y-31667D01*
X75387Y-31667D01*
X75387Y-31777D01*
X74817Y-31777D01*
X74742Y-31852D01*
X74742Y-32033D01*
X74714Y-32033D01*
X73926Y-32033D01*
X73855Y-32062D01*
X73440Y-32062D01*
X73440Y-32350D01*
X73515Y-32425D01*
X73631Y-32425D01*
X73726Y-32425D01*
X73726Y-32805D01*
X73764Y-32897D01*
X73834Y-32967D01*
X73926Y-33005D01*
X74026Y-33005D01*
X74813Y-33005D01*
X74905Y-32967D01*
X74975Y-32897D01*
X75013Y-32805D01*
X75013Y-32772D01*
X75102Y-32772D01*
X75312Y-32772D01*
X75387Y-32697D01*
X75387Y-35934D01*
X73330Y-35934D01*
X73330Y-32350D01*
X73330Y-32062D01*
X72855Y-32062D01*
X72780Y-32137D01*
X72780Y-32185D01*
X72826Y-32295D01*
X72910Y-32380D01*
X73021Y-32425D01*
X73140Y-32425D01*
X73255Y-32425D01*
X73330Y-32350D01*
X73330Y-35934D01*
X56742Y-35934D01*
X56742Y-26664D01*
X75800Y-26660D01*
X75800Y-27955D01*
X75505Y-28250D01*
X73200Y-28250D01*
X73066Y-28276D01*
X72952Y-28352D01*
X72301Y-29003D01*
X71752Y-29552D01*
X71676Y-29666D01*
X71650Y-29800D01*
X71650Y-31250D01*
X71676Y-31383D01*
X71752Y-31497D01*
X72116Y-31861D01*
X72230Y-31937D01*
X72230Y-31937D01*
X72364Y-31964D01*
X72987Y-31964D01*
X73030Y-31982D01*
X73130Y-31982D01*
X73740Y-31982D01*
X73811Y-31952D01*
X73915Y-31952D01*
X73990Y-31877D01*
X73990Y-31830D01*
X73945Y-31719D01*
X73940Y-31715D01*
X73940Y-31682D01*
X73940Y-31446D01*
X73928Y-31417D01*
X73940Y-31388D01*
X73940Y-31288D01*
X73940Y-31052D01*
X73928Y-31023D01*
X73940Y-30994D01*
X73940Y-30895D01*
X73940Y-30658D01*
X73928Y-30629D01*
X73940Y-30600D01*
X73940Y-30501D01*
X73940Y-30407D01*
X74026Y-30407D01*
X74813Y-30407D01*
X74905Y-30369D01*
X74975Y-30299D01*
X75013Y-30207D01*
X75013Y-30107D01*
X75013Y-29635D01*
X74975Y-29543D01*
X74905Y-29473D01*
X74813Y-29435D01*
X74714Y-29435D01*
X73926Y-29435D01*
X73834Y-29473D01*
X73764Y-29543D01*
X73726Y-29635D01*
X73726Y-29734D01*
X73726Y-30064D01*
X73641Y-30064D01*
X73080Y-30064D01*
X73739Y-29405D01*
X75650Y-29405D01*
X75896Y-29405D01*
X75900Y-29413D01*
X75935Y-29448D01*
X75900Y-29484D01*
X75862Y-29576D01*
X75862Y-29675D01*
X75862Y-30108D01*
X75900Y-30200D01*
X75949Y-30250D01*
X75949Y-30439D01*
X77272Y-30443D01*
X77272Y-31290D01*
X77242Y-31362D01*
X77242Y-31592D01*
X77272Y-31622D01*
X77272Y-31822D01*
X77242Y-31852D01*
X77242Y-32082D01*
X77272Y-32154D01*
X77272Y-33020D01*
G54D10*
G36*
X37880Y-36850D02*
X32560Y-36850D01*
X30060Y-36850D01*
X30060Y-30071D01*
X30060Y-29391D01*
X30060Y-29131D01*
X30060Y-28452D01*
X30014Y-28341D01*
X29930Y-28257D01*
X29819Y-28211D01*
X29700Y-28211D01*
X29490Y-28211D01*
X29415Y-28286D01*
X29415Y-29206D01*
X29985Y-29206D01*
X30060Y-29131D01*
X30060Y-29391D01*
X29985Y-29316D01*
X29415Y-29316D01*
X29415Y-30236D01*
X29490Y-30311D01*
X29700Y-30311D01*
X29819Y-30311D01*
X29930Y-30266D01*
X30014Y-30181D01*
X30060Y-30071D01*
X30060Y-36850D01*
X29305Y-36850D01*
X29305Y-30236D01*
X29305Y-29316D01*
X29305Y-29206D01*
X29305Y-28286D01*
X29230Y-28211D01*
X29019Y-28211D01*
X28900Y-28211D01*
X28790Y-28257D01*
X28705Y-28341D01*
X28660Y-28452D01*
X28660Y-29131D01*
X28735Y-29206D01*
X29305Y-29206D01*
X29305Y-29316D01*
X28735Y-29316D01*
X28660Y-29391D01*
X28660Y-30071D01*
X28705Y-30181D01*
X28790Y-30266D01*
X28900Y-30311D01*
X29019Y-30311D01*
X29230Y-30311D01*
X29305Y-30236D01*
X29305Y-36850D01*
X28620Y-36850D01*
X28620Y-26470D01*
X28506Y-26195D01*
X28295Y-25983D01*
X28019Y-25869D01*
X27721Y-25869D01*
X27520Y-25952D01*
X27529Y-25928D01*
X27518Y-25668D01*
X27440Y-25480D01*
X27325Y-25448D01*
X27248Y-25526D01*
X26947Y-25826D01*
X26953Y-25832D01*
X26875Y-25910D01*
X26870Y-25904D01*
X26492Y-26282D01*
X26523Y-26396D01*
X26768Y-26486D01*
X27028Y-26474D01*
X27136Y-26430D01*
X27120Y-26469D01*
X27119Y-26767D01*
X27233Y-27043D01*
X27444Y-27254D01*
X27720Y-27369D01*
X28018Y-27369D01*
X28294Y-27255D01*
X28505Y-27044D01*
X28619Y-26769D01*
X28620Y-26470D01*
X28620Y-36850D01*
X25024Y-36850D01*
X25024Y-26349D01*
X25024Y-25976D01*
X25024Y-25716D01*
X25024Y-25343D01*
X24978Y-25233D01*
X24894Y-25149D01*
X24784Y-25103D01*
X24664Y-25103D01*
X24539Y-25103D01*
X24464Y-25178D01*
X24464Y-25791D01*
X24949Y-25791D01*
X25024Y-25716D01*
X25024Y-25976D01*
X24949Y-25901D01*
X24464Y-25901D01*
X24464Y-26514D01*
X24539Y-26589D01*
X24664Y-26589D01*
X24784Y-26589D01*
X24894Y-26543D01*
X24978Y-26459D01*
X25024Y-26349D01*
X25024Y-36850D01*
X23990Y-36850D01*
X23990Y-26570D01*
X24034Y-26589D01*
X24154Y-26589D01*
X24279Y-26589D01*
X24354Y-26514D01*
X24354Y-25901D01*
X24346Y-25901D01*
X24346Y-25791D01*
X24354Y-25791D01*
X24354Y-25178D01*
X24279Y-25103D01*
X24154Y-25103D01*
X24034Y-25103D01*
X23990Y-25122D01*
X23990Y-25090D01*
X25377Y-25090D01*
X25360Y-25107D01*
X25414Y-25161D01*
X25299Y-25193D01*
X25210Y-25437D01*
X25221Y-25697D01*
X25299Y-25885D01*
X25414Y-25917D01*
X25792Y-25539D01*
X25786Y-25533D01*
X25864Y-25456D01*
X25870Y-25461D01*
X25875Y-25456D01*
X25953Y-25533D01*
X25947Y-25539D01*
X25953Y-25544D01*
X25875Y-25622D01*
X25870Y-25617D01*
X25792Y-25694D01*
X25492Y-25995D01*
X25523Y-26109D01*
X25768Y-26198D01*
X26028Y-26187D01*
X26216Y-26109D01*
X26239Y-26026D01*
X26299Y-26173D01*
X26414Y-26204D01*
X26792Y-25826D01*
X26786Y-25821D01*
X26864Y-25743D01*
X26870Y-25748D01*
X27248Y-25370D01*
X27216Y-25256D01*
X26971Y-25167D01*
X26711Y-25178D01*
X26523Y-25256D01*
X26500Y-25339D01*
X26440Y-25193D01*
X26325Y-25161D01*
X26380Y-25107D01*
X26362Y-25090D01*
X31130Y-25090D01*
X31131Y-25787D01*
X31131Y-29301D01*
X31160Y-29301D01*
X31160Y-29316D01*
X31235Y-29316D01*
X31160Y-29391D01*
X31160Y-29621D01*
X31205Y-29731D01*
X31232Y-29758D01*
X31210Y-29812D01*
X31210Y-29911D01*
X31210Y-30511D01*
X31248Y-30603D01*
X31318Y-30673D01*
X31410Y-30711D01*
X31509Y-30711D01*
X31560Y-30711D01*
X31560Y-30811D01*
X31500Y-30871D01*
X31435Y-31027D01*
X31435Y-31196D01*
X31499Y-31352D01*
X31619Y-31472D01*
X31775Y-31537D01*
X31944Y-31537D01*
X32100Y-31472D01*
X32220Y-31353D01*
X32285Y-31197D01*
X32285Y-31028D01*
X32220Y-30871D01*
X32160Y-30811D01*
X32160Y-30711D01*
X32309Y-30711D01*
X32401Y-30673D01*
X32472Y-30603D01*
X32510Y-30511D01*
X32510Y-30412D01*
X32510Y-29812D01*
X32487Y-29758D01*
X32514Y-29731D01*
X32560Y-29621D01*
X32560Y-29391D01*
X32485Y-29316D01*
X32560Y-29316D01*
X32560Y-29301D01*
X37880Y-29300D01*
X37880Y-36850D01*
X37880Y-36850D01*
G37*
G54D58*
X37880Y-36850D02*
X32560Y-36850D01*
X30060Y-36850D01*
X30060Y-30071D01*
X30060Y-29391D01*
X30060Y-29131D01*
X30060Y-28452D01*
X30014Y-28341D01*
X29930Y-28257D01*
X29819Y-28211D01*
X29700Y-28211D01*
X29490Y-28211D01*
X29415Y-28286D01*
X29415Y-29206D01*
X29985Y-29206D01*
X30060Y-29131D01*
X30060Y-29391D01*
X29985Y-29316D01*
X29415Y-29316D01*
X29415Y-30236D01*
X29490Y-30311D01*
X29700Y-30311D01*
X29819Y-30311D01*
X29930Y-30266D01*
X30014Y-30181D01*
X30060Y-30071D01*
X30060Y-36850D01*
X29305Y-36850D01*
X29305Y-30236D01*
X29305Y-29316D01*
X29305Y-29206D01*
X29305Y-28286D01*
X29230Y-28211D01*
X29019Y-28211D01*
X28900Y-28211D01*
X28790Y-28257D01*
X28705Y-28341D01*
X28660Y-28452D01*
X28660Y-29131D01*
X28735Y-29206D01*
X29305Y-29206D01*
X29305Y-29316D01*
X28735Y-29316D01*
X28660Y-29391D01*
X28660Y-30071D01*
X28705Y-30181D01*
X28790Y-30266D01*
X28900Y-30311D01*
X29019Y-30311D01*
X29230Y-30311D01*
X29305Y-30236D01*
X29305Y-36850D01*
X28620Y-36850D01*
X28620Y-26470D01*
X28506Y-26195D01*
X28295Y-25983D01*
X28019Y-25869D01*
X27721Y-25869D01*
X27520Y-25952D01*
X27529Y-25928D01*
X27518Y-25668D01*
X27440Y-25480D01*
X27325Y-25448D01*
X27248Y-25526D01*
X26947Y-25826D01*
X26953Y-25832D01*
X26875Y-25910D01*
X26870Y-25904D01*
X26492Y-26282D01*
X26523Y-26396D01*
X26768Y-26486D01*
X27028Y-26474D01*
X27136Y-26430D01*
X27120Y-26469D01*
X27119Y-26767D01*
X27233Y-27043D01*
X27444Y-27254D01*
X27720Y-27369D01*
X28018Y-27369D01*
X28294Y-27255D01*
X28505Y-27044D01*
X28619Y-26769D01*
X28620Y-26470D01*
X28620Y-36850D01*
X25024Y-36850D01*
X25024Y-26349D01*
X25024Y-25976D01*
X25024Y-25716D01*
X25024Y-25343D01*
X24978Y-25233D01*
X24894Y-25149D01*
X24784Y-25103D01*
X24664Y-25103D01*
X24539Y-25103D01*
X24464Y-25178D01*
X24464Y-25791D01*
X24949Y-25791D01*
X25024Y-25716D01*
X25024Y-25976D01*
X24949Y-25901D01*
X24464Y-25901D01*
X24464Y-26514D01*
X24539Y-26589D01*
X24664Y-26589D01*
X24784Y-26589D01*
X24894Y-26543D01*
X24978Y-26459D01*
X25024Y-26349D01*
X25024Y-36850D01*
X23990Y-36850D01*
X23990Y-26570D01*
X24034Y-26589D01*
X24154Y-26589D01*
X24279Y-26589D01*
X24354Y-26514D01*
X24354Y-25901D01*
X24346Y-25901D01*
X24346Y-25791D01*
X24354Y-25791D01*
X24354Y-25178D01*
X24279Y-25103D01*
X24154Y-25103D01*
X24034Y-25103D01*
X23990Y-25122D01*
X23990Y-25090D01*
X25377Y-25090D01*
X25360Y-25107D01*
X25414Y-25161D01*
X25299Y-25193D01*
X25210Y-25437D01*
X25221Y-25697D01*
X25299Y-25885D01*
X25414Y-25917D01*
X25792Y-25539D01*
X25786Y-25533D01*
X25864Y-25456D01*
X25870Y-25461D01*
X25875Y-25456D01*
X25953Y-25533D01*
X25947Y-25539D01*
X25953Y-25544D01*
X25875Y-25622D01*
X25870Y-25617D01*
X25792Y-25694D01*
X25492Y-25995D01*
X25523Y-26109D01*
X25768Y-26198D01*
X26028Y-26187D01*
X26216Y-26109D01*
X26239Y-26026D01*
X26299Y-26173D01*
X26414Y-26204D01*
X26792Y-25826D01*
X26786Y-25821D01*
X26864Y-25743D01*
X26870Y-25748D01*
X27248Y-25370D01*
X27216Y-25256D01*
X26971Y-25167D01*
X26711Y-25178D01*
X26523Y-25256D01*
X26500Y-25339D01*
X26440Y-25193D01*
X26325Y-25161D01*
X26380Y-25107D01*
X26362Y-25090D01*
X31130Y-25090D01*
X31131Y-25787D01*
X31131Y-29301D01*
X31160Y-29301D01*
X31160Y-29316D01*
X31235Y-29316D01*
X31160Y-29391D01*
X31160Y-29621D01*
X31205Y-29731D01*
X31232Y-29758D01*
X31210Y-29812D01*
X31210Y-29911D01*
X31210Y-30511D01*
X31248Y-30603D01*
X31318Y-30673D01*
X31410Y-30711D01*
X31509Y-30711D01*
X31560Y-30711D01*
X31560Y-30811D01*
X31500Y-30871D01*
X31435Y-31027D01*
X31435Y-31196D01*
X31499Y-31352D01*
X31619Y-31472D01*
X31775Y-31537D01*
X31944Y-31537D01*
X32100Y-31472D01*
X32220Y-31353D01*
X32285Y-31197D01*
X32285Y-31028D01*
X32220Y-30871D01*
X32160Y-30811D01*
X32160Y-30711D01*
X32309Y-30711D01*
X32401Y-30673D01*
X32472Y-30603D01*
X32510Y-30511D01*
X32510Y-30412D01*
X32510Y-29812D01*
X32487Y-29758D01*
X32514Y-29731D01*
X32560Y-29621D01*
X32560Y-29391D01*
X32485Y-29316D01*
X32560Y-29316D01*
X32560Y-29301D01*
X37880Y-29300D01*
X37880Y-36850D01*
G54D10*
G36*
X20659Y-48950D02*
X19528Y-48950D01*
X19528Y-37030D01*
X19528Y-36350D01*
X19528Y-36090D01*
X19528Y-35410D01*
X19483Y-35300D01*
X19398Y-35216D01*
X19288Y-35170D01*
X19169Y-35170D01*
X18958Y-35170D01*
X18883Y-35245D01*
X18883Y-36165D01*
X19453Y-36165D01*
X19528Y-36090D01*
X19528Y-36350D01*
X19453Y-36275D01*
X18883Y-36275D01*
X18883Y-37195D01*
X18958Y-37270D01*
X19169Y-37270D01*
X19288Y-37270D01*
X19398Y-37224D01*
X19483Y-37140D01*
X19528Y-37030D01*
X19528Y-48950D01*
X18773Y-48950D01*
X18773Y-37195D01*
X18773Y-36275D01*
X18773Y-36165D01*
X18773Y-35245D01*
X18698Y-35170D01*
X18488Y-35170D01*
X18369Y-35170D01*
X18258Y-35216D01*
X18174Y-35300D01*
X18128Y-35410D01*
X18128Y-36090D01*
X18203Y-36165D01*
X18773Y-36165D01*
X18773Y-36275D01*
X18203Y-36275D01*
X18128Y-36350D01*
X18128Y-37030D01*
X18174Y-37140D01*
X18258Y-37224D01*
X18369Y-37270D01*
X18488Y-37270D01*
X18698Y-37270D01*
X18773Y-37195D01*
X18773Y-48950D01*
X17602Y-48950D01*
X17602Y-37172D01*
X17488Y-36896D01*
X17278Y-36685D01*
X17002Y-36571D01*
X16704Y-36571D01*
X16428Y-36685D01*
X16217Y-36895D01*
X16102Y-37171D01*
X16102Y-37469D01*
X16216Y-37745D01*
X16427Y-37956D01*
X16702Y-38071D01*
X17001Y-38071D01*
X17277Y-37957D01*
X17488Y-37746D01*
X17602Y-37471D01*
X17602Y-37172D01*
X17602Y-48950D01*
X14802Y-48950D01*
X14802Y-37172D01*
X14688Y-36896D01*
X14478Y-36685D01*
X14202Y-36571D01*
X13904Y-36571D01*
X13628Y-36685D01*
X13417Y-36895D01*
X13302Y-37171D01*
X13302Y-37469D01*
X13416Y-37745D01*
X13627Y-37956D01*
X13902Y-38071D01*
X14201Y-38071D01*
X14477Y-37957D01*
X14688Y-37746D01*
X14802Y-37471D01*
X14802Y-37172D01*
X14802Y-48950D01*
X14030Y-48950D01*
X14030Y-39049D01*
X13579Y-38606D01*
X12372Y-37399D01*
X12372Y-31624D01*
X13611Y-31624D01*
X13722Y-31671D01*
X14021Y-31671D01*
X14134Y-31624D01*
X14960Y-31624D01*
X16771Y-31624D01*
X16882Y-31671D01*
X17181Y-31671D01*
X17294Y-31624D01*
X20658Y-31624D01*
X20658Y-35788D01*
X20628Y-35860D01*
X20628Y-36090D01*
X20658Y-36120D01*
X20658Y-36220D01*
X20658Y-36320D01*
X20628Y-36350D01*
X20628Y-36580D01*
X20658Y-36652D01*
X20659Y-48950D01*
X20659Y-48950D01*
G37*
G54D58*
X20659Y-48950D02*
X19528Y-48950D01*
X19528Y-37030D01*
X19528Y-36350D01*
X19528Y-36090D01*
X19528Y-35410D01*
X19483Y-35300D01*
X19398Y-35216D01*
X19288Y-35170D01*
X19169Y-35170D01*
X18958Y-35170D01*
X18883Y-35245D01*
X18883Y-36165D01*
X19453Y-36165D01*
X19528Y-36090D01*
X19528Y-36350D01*
X19453Y-36275D01*
X18883Y-36275D01*
X18883Y-37195D01*
X18958Y-37270D01*
X19169Y-37270D01*
X19288Y-37270D01*
X19398Y-37224D01*
X19483Y-37140D01*
X19528Y-37030D01*
X19528Y-48950D01*
X18773Y-48950D01*
X18773Y-37195D01*
X18773Y-36275D01*
X18773Y-36165D01*
X18773Y-35245D01*
X18698Y-35170D01*
X18488Y-35170D01*
X18369Y-35170D01*
X18258Y-35216D01*
X18174Y-35300D01*
X18128Y-35410D01*
X18128Y-36090D01*
X18203Y-36165D01*
X18773Y-36165D01*
X18773Y-36275D01*
X18203Y-36275D01*
X18128Y-36350D01*
X18128Y-37030D01*
X18174Y-37140D01*
X18258Y-37224D01*
X18369Y-37270D01*
X18488Y-37270D01*
X18698Y-37270D01*
X18773Y-37195D01*
X18773Y-48950D01*
X17602Y-48950D01*
X17602Y-37172D01*
X17488Y-36896D01*
X17278Y-36685D01*
X17002Y-36571D01*
X16704Y-36571D01*
X16428Y-36685D01*
X16217Y-36895D01*
X16102Y-37171D01*
X16102Y-37469D01*
X16216Y-37745D01*
X16427Y-37956D01*
X16702Y-38071D01*
X17001Y-38071D01*
X17277Y-37957D01*
X17488Y-37746D01*
X17602Y-37471D01*
X17602Y-37172D01*
X17602Y-48950D01*
X14802Y-48950D01*
X14802Y-37172D01*
X14688Y-36896D01*
X14478Y-36685D01*
X14202Y-36571D01*
X13904Y-36571D01*
X13628Y-36685D01*
X13417Y-36895D01*
X13302Y-37171D01*
X13302Y-37469D01*
X13416Y-37745D01*
X13627Y-37956D01*
X13902Y-38071D01*
X14201Y-38071D01*
X14477Y-37957D01*
X14688Y-37746D01*
X14802Y-37471D01*
X14802Y-37172D01*
X14802Y-48950D01*
X14030Y-48950D01*
X14030Y-39049D01*
X13579Y-38606D01*
X12372Y-37399D01*
X12372Y-31624D01*
X13611Y-31624D01*
X13722Y-31671D01*
X14021Y-31671D01*
X14134Y-31624D01*
X14960Y-31624D01*
X16771Y-31624D01*
X16882Y-31671D01*
X17181Y-31671D01*
X17294Y-31624D01*
X20658Y-31624D01*
X20658Y-35788D01*
X20628Y-35860D01*
X20628Y-36090D01*
X20658Y-36120D01*
X20658Y-36220D01*
X20658Y-36320D01*
X20628Y-36350D01*
X20628Y-36580D01*
X20658Y-36652D01*
X20659Y-48950D01*
M02*
