<?xml version="1.0" encoding="UTF-8" standalone="no"?>
<!-- Created with Inkscape (http://www.inkscape.org/) -->

<svg
   xmlns:dc="http://purl.org/dc/elements/1.1/"
   xmlns:cc="http://creativecommons.org/ns#"
   xmlns:rdf="http://www.w3.org/1999/02/22-rdf-syntax-ns#"
   xmlns:svg="http://www.w3.org/2000/svg"
   xmlns="http://www.w3.org/2000/svg"
   xmlns:sodipodi="http://sodipodi.sourceforge.net/DTD/sodipodi-0.dtd"
   xmlns:inkscape="http://www.inkscape.org/namespaces/inkscape"
   width="744.09448819"
   height="1052.3622047"
   id="svg2"
   version="1.1"
   inkscape:version="0.48.0 r9654"
   sodipodi:docname="New document 1">
  <defs
     id="defs4" />
  <sodipodi:namedview
     id="base"
     pagecolor="#ffffff"
     bordercolor="#666666"
     borderopacity="1.0"
     inkscape:pageopacity="0.0"
     inkscape:pageshadow="2"
     inkscape:zoom="1"
     inkscape:cx="-161.26146"
     inkscape:cy="406.53661"
     inkscape:document-units="px"
     inkscape:current-layer="layer1"
     showgrid="false"
     inkscape:window-width="1680"
     inkscape:window-height="1024"
     inkscape:window-x="-4"
     inkscape:window-y="-4"
     inkscape:window-maximized="1" />
  <metadata
     id="metadata7">
    <rdf:RDF>
      <cc:Work
         rdf:about="">
        <dc:format>image/svg+xml</dc:format>
        <dc:type
           rdf:resource="http://purl.org/dc/dcmitype/StillImage" />
        <dc:title></dc:title>
      </cc:Work>
    </rdf:RDF>
  </metadata>
  <g
     inkscape:label="Layer 1"
     inkscape:groupmode="layer"
     id="layer1">
    <path
       sodipodi:type="arc"
       style="fill:#000000;fill-opacity:0;fill-rule:nonzero;stroke:#ff0000;stroke-width:1.86306858;stroke-linecap:butt;stroke-linejoin:round;stroke-miterlimit:4;stroke-opacity:1;stroke-dasharray:none;stroke-dashoffset:0"
       id="path3765-1-4-1"
       sodipodi:cx="356.58386"
       sodipodi:cy="323.03204"
       sodipodi:rx="65.659912"
       sodipodi:ry="65.659912"
       d="m 422.24377,323.03204 a 65.659912,65.659912 0 1 1 -131.31982,0 65.659912,65.659912 0 1 1 131.31982,0 z"
       transform="matrix(0.26841662,0,0,0.26837442,24.421508,467.94574)" />
    <path
       sodipodi:type="arc"
       style="fill:#000000;fill-opacity:0;fill-rule:nonzero;stroke:#ff0000;stroke-width:1.86306858;stroke-linecap:butt;stroke-linejoin:round;stroke-miterlimit:4;stroke-opacity:1;stroke-dasharray:none;stroke-dashoffset:0"
       id="path3765-1"
       sodipodi:cx="356.58386"
       sodipodi:cy="323.03204"
       sodipodi:rx="65.659912"
       sodipodi:ry="65.659912"
       d="m 422.24377,323.03204 a 65.659912,65.659912 0 1 1 -131.31982,0 65.659912,65.659912 0 1 1 131.31982,0 z"
       transform="matrix(0.26841662,0,0,0.26837442,24.421513,845.94572)" />
    <path
       sodipodi:type="arc"
       style="fill:#000000;fill-opacity:0;fill-rule:nonzero;stroke:#ff0000;stroke-width:1.86306858;stroke-linecap:butt;stroke-linejoin:round;stroke-miterlimit:4;stroke-opacity:1;stroke-dasharray:none;stroke-dashoffset:0"
       id="path3765-1-4"
       sodipodi:cx="356.58386"
       sodipodi:cy="323.03204"
       sodipodi:rx="65.659912"
       sodipodi:ry="65.659912"
       d="m 422.24377,323.03204 a 65.659912,65.659912 0 1 1 -131.31982,0 65.659912,65.659912 0 1 1 131.31982,0 z"
       transform="matrix(0.26841662,0,0,0.26837442,24.421508,791.94572)" />
    <path
       sodipodi:type="arc"
       style="fill:#000000;fill-opacity:0;fill-rule:nonzero;stroke:#ff0000;stroke-width:1.86306858;stroke-linecap:butt;stroke-linejoin:round;stroke-miterlimit:4;stroke-opacity:1;stroke-dasharray:none;stroke-dashoffset:0"
       id="path3765-1-9"
       sodipodi:cx="356.58386"
       sodipodi:cy="323.03204"
       sodipodi:rx="65.659912"
       sodipodi:ry="65.659912"
       d="m 422.24377,323.03204 a 65.659912,65.659912 0 1 1 -131.31982,0 65.659912,65.659912 0 1 1 131.31982,0 z"
       transform="matrix(0.26841662,0,0,0.26837442,24.421513,737.94572)" />
    <path
       sodipodi:type="arc"
       style="fill:#000000;fill-opacity:0;fill-rule:nonzero;stroke:#ff0000;stroke-width:1.86306858;stroke-linecap:butt;stroke-linejoin:round;stroke-miterlimit:4;stroke-opacity:1;stroke-dasharray:none;stroke-dashoffset:0"
       id="path3765-1-4-8"
       sodipodi:cx="356.58386"
       sodipodi:cy="323.03204"
       sodipodi:rx="65.659912"
       sodipodi:ry="65.659912"
       d="m 422.24377,323.03204 a 65.659912,65.659912 0 1 1 -131.31982,0 65.659912,65.659912 0 1 1 131.31982,0 z"
       transform="matrix(0.26841662,0,0,0.26837442,24.421508,683.94573)" />
    <path
       sodipodi:type="arc"
       style="fill:#000000;fill-opacity:0;fill-rule:nonzero;stroke:#ff0000;stroke-width:1.86306858;stroke-linecap:butt;stroke-linejoin:round;stroke-miterlimit:4;stroke-opacity:1;stroke-dasharray:none;stroke-dashoffset:0"
       id="path3765-1-2"
       sodipodi:cx="356.58386"
       sodipodi:cy="323.03204"
       sodipodi:rx="65.659912"
       sodipodi:ry="65.659912"
       d="m 422.24377,323.03204 a 65.659912,65.659912 0 1 1 -131.31982,0 65.659912,65.659912 0 1 1 131.31982,0 z"
       transform="matrix(0.26837798,0,0,0.26837447,24.424961,629.94573)" />
    <path
       sodipodi:type="arc"
       style="fill:#000000;fill-opacity:0;fill-rule:nonzero;stroke:#ff0000;stroke-width:1.86306858;stroke-linecap:butt;stroke-linejoin:round;stroke-miterlimit:4;stroke-opacity:1;stroke-dasharray:none;stroke-dashoffset:0"
       id="path3765-1-4-5"
       sodipodi:cx="356.58386"
       sodipodi:cy="323.03204"
       sodipodi:rx="65.659912"
       sodipodi:ry="65.659912"
       d="m 422.24377,323.03204 a 65.659912,65.659912 0 1 1 -131.31982,0 65.659912,65.659912 0 1 1 131.31982,0 z"
       transform="matrix(0.26837798,0,0,0.26837447,24.424956,575.94572)" />
    <path
       sodipodi:type="arc"
       style="fill:#000000;fill-opacity:0;fill-rule:nonzero;stroke:#ff0000;stroke-width:1.86306858;stroke-linecap:butt;stroke-linejoin:round;stroke-miterlimit:4;stroke-opacity:1;stroke-dasharray:none;stroke-dashoffset:0"
       id="path3765-1-9-7"
       sodipodi:cx="356.58386"
       sodipodi:cy="323.03204"
       sodipodi:rx="65.659912"
       sodipodi:ry="65.659912"
       d="m 422.24377,323.03204 a 65.659912,65.659912 0 1 1 -131.31982,0 65.659912,65.659912 0 1 1 131.31982,0 z"
       transform="matrix(0.26837798,0,0,0.26837447,24.424961,521.94572)" />
    <path
       sodipodi:type="arc"
       style="fill:#000000;fill-opacity:0;fill-rule:nonzero;stroke:#ff0000;stroke-width:1.86306858;stroke-linecap:butt;stroke-linejoin:round;stroke-miterlimit:4;stroke-opacity:1;stroke-dasharray:none;stroke-dashoffset:0"
       id="path3765-1-9-2"
       sodipodi:cx="356.58386"
       sodipodi:cy="323.03204"
       sodipodi:rx="65.659912"
       sodipodi:ry="65.659912"
       d="m 422.24377,323.03204 a 65.659912,65.659912 0 1 1 -131.31982,0 65.659912,65.659912 0 1 1 131.31982,0 z"
       transform="matrix(0.26841662,0,0,0.26837442,24.421513,413.94574)" />
    <path
       sodipodi:type="arc"
       style="fill:#000000;fill-opacity:0;fill-rule:nonzero;stroke:#ff0000;stroke-width:1.86306858;stroke-linecap:butt;stroke-linejoin:round;stroke-miterlimit:4;stroke-opacity:1;stroke-dasharray:none;stroke-dashoffset:0"
       id="path3765-1-4-8-2"
       sodipodi:cx="356.58386"
       sodipodi:cy="323.03204"
       sodipodi:rx="65.659912"
       sodipodi:ry="65.659912"
       d="m 422.24377,323.03204 a 65.659912,65.659912 0 1 1 -131.31982,0 65.659912,65.659912 0 1 1 131.31982,0 z"
       transform="matrix(0.26841662,0,0,0.26837442,24.421508,359.94575)" />
    <path
       sodipodi:type="arc"
       style="fill:#000000;fill-opacity:0;fill-rule:nonzero;stroke:#ff0000;stroke-width:1.86306858;stroke-linecap:butt;stroke-linejoin:round;stroke-miterlimit:4;stroke-opacity:1;stroke-dasharray:none;stroke-dashoffset:0"
       id="path3765-16"
       sodipodi:cx="356.58386"
       sodipodi:cy="323.03204"
       sodipodi:rx="65.659912"
       sodipodi:ry="65.659912"
       d="m 422.24377,323.03204 a 65.659912,65.659912 0 1 1 -131.31982,0 65.659912,65.659912 0 1 1 131.31982,0 z"
       transform="matrix(0.26841662,0,0,0.26837442,78.43,845.94572)" />
    <path
       sodipodi:type="arc"
       style="fill:#000000;fill-opacity:0;fill-rule:nonzero;stroke:#ff0000;stroke-width:1.86306858;stroke-linecap:butt;stroke-linejoin:round;stroke-miterlimit:4;stroke-opacity:1;stroke-dasharray:none;stroke-dashoffset:0"
       id="path3765-7-5"
       sodipodi:cx="356.58386"
       sodipodi:cy="323.03204"
       sodipodi:rx="65.659912"
       sodipodi:ry="65.659912"
       d="m 422.24377,323.03204 a 65.659912,65.659912 0 1 1 -131.31982,0 65.659912,65.659912 0 1 1 131.31982,0 z"
       transform="matrix(0.26841662,0,0,0.26837442,78.43,791.94572)" />
    <path
       sodipodi:type="arc"
       style="fill:#000000;fill-opacity:0;fill-rule:nonzero;stroke:#ff0000;stroke-width:1.86306858;stroke-linecap:butt;stroke-linejoin:round;stroke-miterlimit:4;stroke-opacity:1;stroke-dasharray:none;stroke-dashoffset:0"
       id="path3765-0-6"
       sodipodi:cx="356.58386"
       sodipodi:cy="323.03204"
       sodipodi:rx="65.659912"
       sodipodi:ry="65.659912"
       d="m 422.24377,323.03204 a 65.659912,65.659912 0 1 1 -131.31982,0 65.659912,65.659912 0 1 1 131.31982,0 z"
       transform="matrix(0.26841662,0,0,0.26837442,78.43,737.94572)" />
    <path
       sodipodi:type="arc"
       style="fill:#000000;fill-opacity:0;fill-rule:nonzero;stroke:#ff0000;stroke-width:1.86306858;stroke-linecap:butt;stroke-linejoin:round;stroke-miterlimit:4;stroke-opacity:1;stroke-dasharray:none;stroke-dashoffset:0"
       id="path3765-7-4-8"
       sodipodi:cx="356.58386"
       sodipodi:cy="323.03204"
       sodipodi:rx="65.659912"
       sodipodi:ry="65.659912"
       d="m 422.24377,323.03204 a 65.659912,65.659912 0 1 1 -131.31982,0 65.659912,65.659912 0 1 1 131.31982,0 z"
       transform="matrix(0.26841662,0,0,0.26837442,78.43,683.94573)" />
    <path
       sodipodi:type="arc"
       style="fill:#000000;fill-opacity:0;fill-rule:nonzero;stroke:#ff0000;stroke-width:1.86306858;stroke-linecap:butt;stroke-linejoin:round;stroke-miterlimit:4;stroke-opacity:1;stroke-dasharray:none;stroke-dashoffset:0"
       id="path3765-8-2"
       sodipodi:cx="356.58386"
       sodipodi:cy="323.03204"
       sodipodi:rx="65.659912"
       sodipodi:ry="65.659912"
       d="m 422.24377,323.03204 a 65.659912,65.659912 0 1 1 -131.31982,0 65.659912,65.659912 0 1 1 131.31982,0 z"
       transform="matrix(0.26837798,0,0,0.26837447,78.441225,629.94573)" />
    <path
       sodipodi:type="arc"
       style="fill:#000000;fill-opacity:0;fill-rule:nonzero;stroke:#ff0000;stroke-width:1.86306858;stroke-linecap:butt;stroke-linejoin:round;stroke-miterlimit:4;stroke-opacity:1;stroke-dasharray:none;stroke-dashoffset:0"
       id="path3765-7-45-9"
       sodipodi:cx="356.58386"
       sodipodi:cy="323.03204"
       sodipodi:rx="65.659912"
       sodipodi:ry="65.659912"
       d="m 422.24377,323.03204 a 65.659912,65.659912 0 1 1 -131.31982,0 65.659912,65.659912 0 1 1 131.31982,0 z"
       transform="matrix(0.26837798,0,0,0.26837447,78.441225,575.94572)" />
    <path
       sodipodi:type="arc"
       style="fill:#000000;fill-opacity:0;fill-rule:nonzero;stroke:#ff0000;stroke-width:1.86306858;stroke-linecap:butt;stroke-linejoin:round;stroke-miterlimit:4;stroke-opacity:1;stroke-dasharray:none;stroke-dashoffset:0"
       id="path3765-0-1-4"
       sodipodi:cx="356.58386"
       sodipodi:cy="323.03204"
       sodipodi:rx="65.659912"
       sodipodi:ry="65.659912"
       d="m 422.24377,323.03204 a 65.659912,65.659912 0 1 1 -131.31982,0 65.659912,65.659912 0 1 1 131.31982,0 z"
       transform="matrix(0.26837798,0,0,0.26837447,78.441225,521.94572)" />
    <path
       sodipodi:type="arc"
       style="fill:#000000;fill-opacity:0;fill-rule:nonzero;stroke:#ff0000;stroke-width:1.86306858;stroke-linecap:butt;stroke-linejoin:round;stroke-miterlimit:4;stroke-opacity:1;stroke-dasharray:none;stroke-dashoffset:0"
       id="path3765-7-4-1-1"
       sodipodi:cx="356.58386"
       sodipodi:cy="323.03204"
       sodipodi:rx="65.659912"
       sodipodi:ry="65.659912"
       d="m 422.24377,323.03204 a 65.659912,65.659912 0 1 1 -131.31982,0 65.659912,65.659912 0 1 1 131.31982,0 z"
       transform="matrix(0.26837798,0,0,0.26837447,78.441225,467.94571)" />
    <path
       sodipodi:type="arc"
       style="fill:#000000;fill-opacity:0;fill-rule:nonzero;stroke:#ff0000;stroke-width:1.86306858;stroke-linecap:butt;stroke-linejoin:round;stroke-miterlimit:4;stroke-opacity:1;stroke-dasharray:none;stroke-dashoffset:0"
       id="path3765-0-4-1"
       sodipodi:cx="356.58386"
       sodipodi:cy="323.03204"
       sodipodi:rx="65.659912"
       sodipodi:ry="65.659912"
       d="m 422.24377,323.03204 a 65.659912,65.659912 0 1 1 -131.31982,0 65.659912,65.659912 0 1 1 131.31982,0 z"
       transform="matrix(0.26841662,0,0,0.26837442,78.43,413.94574)" />
    <path
       sodipodi:type="arc"
       style="fill:#000000;fill-opacity:0;fill-rule:nonzero;stroke:#ff0000;stroke-width:1.86306858;stroke-linecap:butt;stroke-linejoin:round;stroke-miterlimit:4;stroke-opacity:1;stroke-dasharray:none;stroke-dashoffset:0"
       id="path3765-7-4-3-8"
       sodipodi:cx="356.58386"
       sodipodi:cy="323.03204"
       sodipodi:rx="65.659912"
       sodipodi:ry="65.659912"
       d="m 422.24377,323.03204 a 65.659912,65.659912 0 1 1 -131.31982,0 65.659912,65.659912 0 1 1 131.31982,0 z"
       transform="matrix(0.26841662,0,0,0.26837442,78.43,359.94575)" />
    <rect
       style="fill:#000000;fill-opacity:0;fill-rule:nonzero;stroke:#ff0000;stroke-width:0.54740947;stroke-linecap:butt;stroke-linejoin:round;stroke-miterlimit:4;stroke-opacity:1;stroke-dasharray:none;stroke-dashoffset:0"
       id="rect4079"
       width="113.75259"
       height="653.41132"
       x="90.273705"
       y="308.67715" />
    <path
       transform="matrix(0.26841662,0,0,0.26837442,24.421513,305.98357)"
       d="m 422.24377,323.03204 a 65.659912,65.659912 0 1 1 -131.31982,0 65.659912,65.659912 0 1 1 131.31982,0 z"
       sodipodi:ry="65.659912"
       sodipodi:rx="65.659912"
       sodipodi:cy="323.03204"
       sodipodi:cx="356.58386"
       id="path4083"
       style="fill:#000000;fill-opacity:0;fill-rule:nonzero;stroke:#ff0000;stroke-width:1.86306858;stroke-linecap:butt;stroke-linejoin:round;stroke-miterlimit:4;stroke-opacity:1;stroke-dasharray:none;stroke-dashoffset:0"
       sodipodi:type="arc" />
    <path
       transform="matrix(0.26841662,0,0,0.26837442,24.421508,251.98357)"
       d="m 422.24377,323.03204 a 65.659912,65.659912 0 1 1 -131.31982,0 65.659912,65.659912 0 1 1 131.31982,0 z"
       sodipodi:ry="65.659912"
       sodipodi:rx="65.659912"
       sodipodi:cy="323.03204"
       sodipodi:cx="356.58386"
       id="path4085"
       style="fill:#000000;fill-opacity:0;fill-rule:nonzero;stroke:#ff0000;stroke-width:1.86306858;stroke-linecap:butt;stroke-linejoin:round;stroke-miterlimit:4;stroke-opacity:1;stroke-dasharray:none;stroke-dashoffset:0"
       sodipodi:type="arc" />
    <path
       transform="matrix(0.26841662,0,0,0.26837442,78.43,305.98357)"
       d="m 422.24377,323.03204 a 65.659912,65.659912 0 1 1 -131.31982,0 65.659912,65.659912 0 1 1 131.31982,0 z"
       sodipodi:ry="65.659912"
       sodipodi:rx="65.659912"
       sodipodi:cy="323.03204"
       sodipodi:cx="356.58386"
       id="path4087"
       style="fill:#000000;fill-opacity:0;fill-rule:nonzero;stroke:#ff0000;stroke-width:1.86306858;stroke-linecap:butt;stroke-linejoin:round;stroke-miterlimit:4;stroke-opacity:1;stroke-dasharray:none;stroke-dashoffset:0"
       sodipodi:type="arc" />
    <path
       transform="matrix(0.26841662,0,0,0.26837442,78.43,251.98357)"
       d="m 422.24377,323.03204 a 65.659912,65.659912 0 1 1 -131.31982,0 65.659912,65.659912 0 1 1 131.31982,0 z"
       sodipodi:ry="65.659912"
       sodipodi:rx="65.659912"
       sodipodi:cy="323.03204"
       sodipodi:cx="356.58386"
       id="path4089"
       style="fill:#000000;fill-opacity:0;fill-rule:nonzero;stroke:#ff0000;stroke-width:1.86306858;stroke-linecap:butt;stroke-linejoin:round;stroke-miterlimit:4;stroke-opacity:1;stroke-dasharray:none;stroke-dashoffset:0"
       sodipodi:type="arc" />
  </g>
</svg>
