<?xml version="1.0" encoding="UTF-8" standalone="no"?>
<!-- Created with Inkscape (http://www.inkscape.org/) -->

<svg
   xmlns:dc="http://purl.org/dc/elements/1.1/"
   xmlns:cc="http://creativecommons.org/ns#"
   xmlns:rdf="http://www.w3.org/1999/02/22-rdf-syntax-ns#"
   xmlns:svg="http://www.w3.org/2000/svg"
   xmlns="http://www.w3.org/2000/svg"
   xmlns:sodipodi="http://sodipodi.sourceforge.net/DTD/sodipodi-0.dtd"
   xmlns:inkscape="http://www.inkscape.org/namespaces/inkscape"
   width="215"
   height="245"
   id="svg3324"
   version="1.1"
   inkscape:version="0.48.0 r9654"
   sodipodi:docname="inc.png">
  <defs
     id="defs3326" />
  <sodipodi:namedview
     id="base"
     pagecolor="#ffffff"
     bordercolor="#666666"
     borderopacity="1.0"
     inkscape:pageopacity="0.0"
     inkscape:pageshadow="2"
     inkscape:zoom="0.35"
     inkscape:cx="375"
     inkscape:cy="520"
     inkscape:document-units="px"
     inkscape:current-layer="layer1"
     showgrid="false"
     inkscape:window-width="1680"
     inkscape:window-height="1024"
     inkscape:window-x="-4"
     inkscape:window-y="-4"
     inkscape:window-maximized="1" />
  <metadata
     id="metadata3329">
    <rdf:RDF>
      <cc:Work
         rdf:about="">
        <dc:format>image/svg+xml</dc:format>
        <dc:type
           rdf:resource="http://purl.org/dc/dcmitype/StillImage" />
        <dc:title></dc:title>
      </cc:Work>
    </rdf:RDF>
  </metadata>
  <g
     inkscape:label="Layer 1"
     inkscape:groupmode="layer"
     id="layer1"
     transform="translate(0,-807.36218)">
    <path
       style="fill:#000000;fill-opacity:1;stroke-width:1;stroke-miterlimit:4;stroke-dasharray:1, 1;stroke-dashoffset:10"
       d="m 20.108871,824.35132 c -7.92184,8.32135 -3.50275,20.6608 -4.62081,31.15685 0.39586,29.78098 0.41634,59.6397 1.33287,89.36773 0.78347,9.88192 11.76841,12.75737 20.07965,11.14078 49.98809,-3.54591 99.989029,-7.09288 149.915029,-11.39407 10.70351,-1.49363 14.2915,-16.6325 5.33487,-22.6653 C 139.8529,888.48157 87.288571,855.29544 34.187871,823.05706 c -4.55907,-2.33247 -9.91277,-1.42633 -14.079,1.29426 z"
       id="path3217"
       inkscape:connector-curvature="0" />
    <path
       style="fill:#000000;fill-opacity:1;stroke-width:1;stroke-miterlimit:4;stroke-dasharray:1, 1;stroke-dashoffset:10"
       d="m 20.491861,1040.373 c -7.92184,-8.3213 -3.50275,-20.6608 -4.62081,-31.1568 0.39586,-29.78099 0.41634,-59.63971 1.33287,-89.36774 0.78347,-9.88192 11.76841,-12.75737 20.07965,-11.14078 49.98809,3.54591 99.989029,7.09288 149.915029,11.39407 10.70351,1.49363 14.2915,16.6325 5.33487,22.6653 -52.29758,33.47574 -104.861909,66.66185 -157.962609,98.90025 -4.55907,2.3325 -9.91277,1.4263 -14.079,-1.2943 z"
       id="path3217-4"
       inkscape:connector-curvature="0" />
  </g>
</svg>
