<?xml version="1.0" encoding="UTF-8" standalone="no"?>
<!-- Generator: Adobe Illustrator 15.0.0, SVG Export Plug-In . SVG Version: 6.00 Build 0)  -->

<svg
   xmlns:dc="http://purl.org/dc/elements/1.1/"
   xmlns:cc="http://creativecommons.org/ns#"
   xmlns:rdf="http://www.w3.org/1999/02/22-rdf-syntax-ns#"
   xmlns:svg="http://www.w3.org/2000/svg"
   xmlns="http://www.w3.org/2000/svg"
   xmlns:sodipodi="http://sodipodi.sourceforge.net/DTD/sodipodi-0.dtd"
   xmlns:inkscape="http://www.inkscape.org/namespaces/inkscape"
   version="1.1"
   id="svg2"
   sodipodi:docname="oshw-logo_black.svg"
   inkscape:version="0.48.0 r9654"
   x="0px"
   y="0px"
   width="371.049px"
   height="319.942px"
   viewBox="0 0 371.049 319.942"
   enable-background="new 0 0 371.049 319.942"
   xml:space="preserve"><metadata
   id="metadata3310"><rdf:RDF><cc:Work
       rdf:about=""><dc:format>image/svg+xml</dc:format><dc:type
         rdf:resource="http://purl.org/dc/dcmitype/StillImage" /><dc:title></dc:title></cc:Work></rdf:RDF></metadata><defs
   id="defs3308" />
<sodipodi:namedview
   pagecolor="#ffffff"
   bordercolor="#666666"
   id="base"
   borderopacity="1.0"
   inkscape:pageopacity="0.0"
   inkscape:zoom="0.86745314"
   inkscape:pageshadow="2"
   inkscape:cx="256.83742"
   inkscape:cy="59.776677"
   inkscape:document-units="px"
   inkscape:current-layer="layer1"
   showgrid="false"
   inkscape:window-width="1680"
   inkscape:window-height="1024"
   inkscape:window-x="124"
   inkscape:window-y="7"
   inkscape:window-maximized="1"
   fit-margin-top="50"
   fit-margin-left="50"
   fit-margin-right="50"
   fit-margin-bottom="50">
	</sodipodi:namedview>
<g
   id="layer1"
   transform="translate(-179.33551,-173.42591)"
   inkscape:groupmode="layer"
   inkscape:label="Layer 1">
	
<path
   inkscape:export-ydpi="600"
   inkscape:export-xdpi="600"
   inkscape:export-filename="C:\Documents and Settings\Justin\My Documents\Arduino\clockthree\Faceplate\Images\oshw-logo.png"
   inkscape:connector-curvature="0"
   id="path3034"
   d="m 349.17893,225.75418 c -2.02119,7.90076 -1.86213,16.62881 -5.24755,24.047 -4.39882,3.10972 -9.88057,4.96868 -15.0039,6.4448 -6.37575,-0.39131 -10.8585,-6.53246 -16.28938,-9.36202 -4.05459,-5.09367 -8.27541,-3.06398 -11.44724,1.65489 -3.90929,4.37801 -9.23506,8.08923 -12.27804,12.87506 4.10441,6.83986 9.16184,13.43007 13.62409,20.17823 -2.74258,5.57503 -4.32304,12.22354 -8.02416,17.09273 -7.55752,2.68077 -16.33193,2.82266 -23.67551,5.54408 -0.36885,8.10782 0.23799,16.55715 0.23987,24.79489 5.9379,2.76832 13.46154,2.57442 19.94577,4.58523 5.19484,-0.2016 5.22536,6.10385 7.145,9.57466 0.72389,4.02807 5.3091,8.84927 1.64972,12.42493 -3.383,5.73741 -8.36459,11.00677 -10.93712,16.9206 5.49905,5.8689 11.25419,12.02973 17.5284,17.19798 6.47754,-2.38022 11.88999,-7.90867 18.11168,-11.20835 3.19919,-2.45218 6.45895,2.52263 9.73088,2.95493 3.30348,0.93607 3.15851,-4.79819 4.71261,-6.62312 4.34306,-11.17216 9.84208,-22.16745 13.2717,-33.54863 -4.64826,-5.08328 -11.48821,-8.60446 -13.29718,-15.84453 -4.94198,-13.31562 2.96168,-30.32636 17.52578,-32.78442 14.0168,-3.52043 30.34146,7.18582 30.44086,22.21291 1.23985,10.75559 -5.89112,20.4725 -14.85106,25.62636 0.74252,6.20394 4.80465,12.25701 6.81429,18.40336 3.41546,7.30146 5.61396,15.59604 9.94729,22.22691 4.8309,0.46195 9.17123,-6.46306 13.17748,-1.45249 5.32698,3.33776 10.28969,7.5818 15.9897,10.13896 6.47869,-4.68702 12.10181,-10.8863 17.34747,-16.93989 -0.82175,-4.54937 -5.11396,-8.23914 -7.33637,-12.38013 -2.00942,-3.71606 -6.65931,-7.63887 -3.55487,-12.10619 1.68702,-4.7541 3.341,-9.6209 5.5418,-14.13154 7.73815,-2.13815 16.29086,-2.51241 23.63348,-5.12901 0.48986,-8.03627 0.0692,-16.40811 0.20974,-24.57312 -5.89713,-2.84338 -13.43351,-2.73227 -19.94577,-4.58523 -6.73464,-0.63263 -7.26132,-8.78513 -9.9092,-13.57739 -1.4452,-2.62608 -2.14894,-5.36836 0.25473,-7.71847 3.53513,-5.92372 7.89525,-11.37091 11.23383,-17.39842 -4.10404,-6.53912 -10.94485,-11.35867 -16.11465,-17.1872 -4.02059,-2.35267 -8.07274,4.52163 -12.03359,5.95338 -3.52801,2.28555 -6.98473,5.05545 -10.74983,6.69953 -5.46338,-2.20099 -12.05575,-3.78018 -16.63421,-7.10711 -1.88881,-7.75327 -2.55079,-15.94012 -4.99281,-23.48659 -5.35441,-2.43483 -11.89914,-0.49675 -17.67863,-1.14631 -2.58406,0.41691 -5.95777,-0.88307 -8.0751,0.73874 z m 11.13193,4.48334 c 3.16675,0.45694 7.80574,-0.85342 10.08751,1.75767 2.47736,6.95637 2.12957,14.99184 5.27302,21.67797 6.40075,4.26706 14.38708,5.53168 20.99018,9.73088 7.1584,-3.3502 13.56139,-9.39468 20.63356,-12.83865 3.9721,3.34154 7.9839,7.27104 10.64793,11.5395 -3.21515,7.08683 -9.05279,13.00647 -12.20182,19.9203 4.34484,6.79864 6.45523,14.86043 10.26583,21.77986 7.18865,1.88068 14.96499,2.6607 21.80534,5.1966 1.07577,4.91437 1.38323,10.44658 -0.051,15.28411 -6.99609,3.235 -15.76918,2.49178 -22.72238,5.90986 -1.30748,8.07729 -6.00156,15.44642 -8.43174,23.12996 3.7025,6.36228 9.01094,12.10115 11.46309,18.9523 -3.54554,3.43551 -6.56762,8.33959 -11.23383,10.16393 -7.23063,-2.01242 -11.98533,-10.66867 -19.94577,-10.41867 -2.14355,0.20335 -5.27922,3.89319 -6.29196,0.28021 -4.33256,-9.46416 -8.37344,-19.16017 -11.81971,-28.93792 6.99714,-6.87352 14.274,-15.23342 13.06792,-25.75373 0.7473,-8.69592 -2.41982,-17.4076 -9.24689,-23.02807 -10.31102,-10.32873 -28.03731,-10.6377 -39.07638,-1.45199 -12.05817,9.13203 -15.53868,27.71492 -6.52123,40.24817 2.34654,3.69123 5.56123,6.67364 8.53363,9.85825 -3.78236,10.37442 -7.34283,21.29199 -12.7877,30.79749 -3.48153,-0.22352 -6.85988,-5.42257 -10.01688,-1.13579 -5.11827,3.25206 -10.21404,7.23552 -15.4057,10.00057 -3.88925,-3.50726 -7.48951,-7.32007 -11.20835,-11.00456 3.11691,-6.94915 8.66872,-12.84287 11.97256,-19.56366 -4.43863,-7.26912 -6.47098,-15.74768 -9.88373,-23.25733 -7.02359,-1.68815 -14.87104,-1.79057 -21.37229,-4.76355 -1.68018,-5.11764 -0.83112,-10.66463 -0.2802,-15.94642 7.27975,-1.71953 15.08883,-2.4817 22.11101,-4.66166 3.37836,-7.54578 6.93803,-15.26664 9.75636,-22.90069 -3.99499,-6.42232 -9.22641,-12.58891 -12.22729,-19.33441 3.33932,-4.00611 7.16185,-8.81187 11.76877,-10.95361 6.81013,3.62123 12.55877,9.76351 19.8184,12.43108 6.38526,-2.10282 12.42262,-5.48332 18.79946,-7.82037 4.57616,-1.64029 3.38173,-8.01373 4.86544,-11.76877 1.14824,-3.8645 0.86277,-8.59737 2.62377,-12.1254 1.85921,-0.86755 4.17712,-0.89449 6.24102,-0.99346 z"
   style="fill:#000000;fill-opacity:1;fill-rule:nonzero;stroke:#000000;stroke-width:0;stroke-linecap:butt;stroke-linejoin:round;stroke-miterlimit:4;stroke-opacity:1;stroke-dasharray:none;stroke-dashoffset:0" /><path
   inkscape:export-ydpi="600"
   inkscape:export-xdpi="600"
   inkscape:export-filename="C:\Documents and Settings\Justin\My Documents\Arduino\clockthree\Faceplate\Images\oshw-logo.png"
   inkscape:connector-curvature="0"
   id="path3036"
   d="m 233.53935,410.69459 c -4.41313,0.0806 -8.33026,3.73974 -9.01763,8.03371 -0.15416,3.1828 -0.0668,6.37566 -0.0637,9.56212 -0.11553,4.61049 3.74789,8.94931 8.32648,9.40899 1.97548,0.14435 4.03462,-0.0518 5.77948,-1.06004 2.66446,-1.41078 4.60498,-4.16079 5.05331,-7.13895 -0.0447,-3.59071 0.099,-7.18864 -0.0995,-10.77478 -0.18918,-1.84453 -1.2008,-3.52019 -2.396,-4.89626 -1.90515,-2.15036 -4.72043,-3.29033 -7.58249,-3.13479 z m 0.36299,6.54032 c 1.31237,-0.0452 2.60515,0.73409 3.05683,1.98375 0.28861,1.87636 0.0924,3.81633 0.1369,5.7188 -0.0384,1.37707 0.0419,2.78208 -0.0703,4.14179 -0.50419,1.36102 -1.9168,2.3921 -3.40044,2.09605 -1.46051,-0.20758 -2.78811,-1.57896 -2.66517,-3.11095 -0.0111,-2.83543 -0.11181,-5.68981 0.07,-8.51453 0.21731,-1.29624 1.57482,-2.3471 2.87214,-2.31491 z"
   style="fill:#000000;fill-opacity:1;fill-rule:nonzero;stroke:#000000;stroke-width:0;stroke-linecap:butt;stroke-linejoin:round;stroke-miterlimit:4;stroke-opacity:1;stroke-dasharray:none;stroke-dashoffset:0" /><path
   inkscape:export-ydpi="600"
   inkscape:export-xdpi="600"
   inkscape:export-filename="C:\Documents and Settings\Justin\My Documents\Arduino\clockthree\Faceplate\Images\oshw-logo.png"
   inkscape:connector-curvature="0"
   id="path3038"
   d="m 256.25536,410.71369 c -4.17369,-0.0415 -7.94268,3.15094 -9.03721,7.10415 -0.50033,1.31889 -0.1718,2.76224 -0.27055,4.13922 -0.0169,7.8968 -0.0337,15.79359 -0.0506,23.69038 0.03,0.8121 1.01175,1.09868 1.60774,0.64288 1.51188,-0.7036 3.10896,-1.26634 4.57363,-2.04662 0.66872,-0.59074 0.25781,-1.62143 0.37169,-2.41092 0,-1.52416 0,-3.04833 0,-4.57249 3.04498,0.9997 6.62935,0.53559 9.08768,-1.60802 2.03235,-1.64372 3.49865,-4.08367 3.57903,-6.73775 0.12398,-3.40437 0.024,-6.81604 -0.006,-10.22009 -0.68957,-3.31458 -3.03717,-6.28891 -6.25437,-7.44898 -1.1417,-0.45318 -2.38203,-0.55399 -3.60132,-0.53176 z m 0.21971,6.52759 c 1.22171,-0.058 2.38018,0.67774 2.88169,1.78633 0.46745,0.85672 0.14043,1.89485 0.24734,2.83389 -0.0409,2.40487 0.15698,4.84439 -0.0977,7.22815 -0.39907,1.32285 -1.87117,2.34154 -3.26379,2.09839 -1.27195,-0.1077 -2.36658,-1.12347 -2.74159,-2.30217 0,-3.16084 0,-6.32168 0,-9.48252 0.47898,-1.2015 1.61029,-2.25001 2.97403,-2.16207 z"
   style="fill:#000000;fill-opacity:1;fill-rule:nonzero;stroke:#000000;stroke-width:0;stroke-linecap:butt;stroke-linejoin:round;stroke-miterlimit:4;stroke-opacity:1;stroke-dasharray:none;stroke-dashoffset:0" /><path
   inkscape:export-ydpi="600"
   inkscape:export-xdpi="600"
   inkscape:export-filename="C:\Documents and Settings\Justin\My Documents\Arduino\clockthree\Faceplate\Images\oshw-logo.png"
   inkscape:connector-curvature="0"
   id="path3040"
   d="m 278.65932,410.68503 c -4.40178,0.0853 -8.41434,3.63803 -9.10041,7.97003 -0.16138,3.19314 -0.12467,6.39696 -0.1019,9.59397 -0.10295,4.23884 3.09462,8.18471 7.15806,9.23415 1.41321,0.39975 2.93386,0.26108 4.37826,0.086 2.96177,-0.50277 5.24379,-2.83639 6.6708,-5.3567 1.20864,-2.09172 0.96452,-4.57668 1.0661,-6.89218 0.0115,-0.83305 -0.99691,-1.16227 -1.60738,-0.68887 -1.50624,0.70836 -3.09147,1.29028 -4.54717,2.07997 -0.6754,0.62924 -0.26219,1.70427 -0.6239,2.50565 -0.43231,1.3834 -1.97179,2.21965 -3.37206,1.96146 -1.18317,-0.11517 -2.20493,-1.06746 -2.51233,-2.20664 3.38491,-1.68411 6.88564,-3.09779 10.32194,-4.67234 0.72601,-0.41796 1.70996,-0.53837 2.22673,-1.21975 0.25272,-0.97482 0.002,-2.02142 0.0321,-3.02683 0.0148,-2.44126 -1.01721,-4.83993 -2.79519,-6.50345 -1.88406,-1.88707 -4.51408,-2.99415 -7.19362,-2.86444 z m 0.24837,6.54033 c 1.271,-0.0258 2.54064,0.73333 3.02498,1.92644 -1.94191,0.95909 -3.99708,1.79768 -5.95444,2.6588 0.11786,-1.10806 -0.26096,-2.42744 0.57316,-3.33704 0.55924,-0.75776 1.38824,-1.26159 2.3563,-1.2482 z"
   style="fill:#000000;fill-opacity:1;fill-rule:nonzero;stroke:#000000;stroke-width:0;stroke-linecap:butt;stroke-linejoin:round;stroke-miterlimit:4;stroke-opacity:1;stroke-dasharray:none;stroke-dashoffset:0" /><path
   inkscape:export-ydpi="600"
   inkscape:export-xdpi="600"
   inkscape:export-filename="C:\Documents and Settings\Justin\My Documents\Arduino\clockthree\Faceplate\Images\oshw-logo.png"
   inkscape:connector-curvature="0"
   id="path3042"
   d="m 301.41036,410.70732 c -4.22846,-0.0861 -8.14181,3.09985 -9.19275,7.14214 -0.36101,1.75795 -0.15345,3.58122 -0.23265,5.36535 0.0105,4.58797 -0.1043,9.17928 0.0193,13.76527 -0.0398,0.80614 0.91508,1.34214 1.57936,0.87565 1.46343,-0.67111 3.00646,-1.21202 4.41733,-1.97053 0.66612,-0.5901 0.26247,-1.61922 0.37873,-2.40772 0.0185,-4.59691 0.0375,-9.19383 0.0567,-13.79074 0.37292,-1.344 1.58431,-2.44486 3.01861,-2.42317 1.38905,-0.12579 2.71053,0.82184 3.09283,2.14759 0.1843,1.32141 0.0365,2.71057 0.0914,4.05838 0.0473,4.49522 -0.0407,9.00467 0.11145,13.49143 -0.0421,0.81412 0.90764,1.36314 1.58573,0.89794 1.48509,-0.66962 3.03578,-1.23621 4.46827,-2.00555 0.66392,-0.59101 0.25494,-1.61964 0.36851,-2.40773 -0.0357,-4.78406 0.0788,-9.57374 -0.0796,-14.35433 -0.41207,-4.20247 -4.06425,-7.77485 -8.2184,-8.32348 -0.48587,-0.0536 -0.97609,-0.0692 -1.46473,-0.0605 z"
   style="fill:#000000;fill-opacity:1;fill-rule:nonzero;stroke:#000000;stroke-width:0;stroke-linecap:butt;stroke-linejoin:round;stroke-miterlimit:4;stroke-opacity:1;stroke-dasharray:none;stroke-dashoffset:0" /><path
   inkscape:export-ydpi="600"
   inkscape:export-xdpi="600"
   inkscape:export-filename="C:\Documents and Settings\Justin\My Documents\Arduino\clockthree\Faceplate\Images\oshw-logo.png"
   inkscape:connector-curvature="0"
   id="path3044"
   d="m 333.27137,403.75305 c -1.16369,0.53376 -2.41542,0.93861 -3.49511,1.61624 -0.54553,0.66134 -0.18385,1.64311 -0.29074,2.4436 0.0106,9.40066 -0.0896,18.80223 0.0128,28.20232 -0.042,0.66982 0.11313,1.5915 0.96141,1.61763 1.22147,-0.35777 2.37635,-0.9606 3.53362,-1.4816 0.77361,-0.55903 0.33711,-1.65757 0.45841,-2.46996 0.0594,-4.52512 -0.034,-9.05578 0.14423,-13.57741 0.34361,-1.787 2.20849,-3.03819 3.97706,-2.89443 2.02652,0.0804 3.70412,2.00518 3.53763,4.01526 0.13113,5.1063 -0.0232,10.21789 0.13055,15.32233 -0.0427,0.78197 0.83958,1.34071 1.51886,0.93297 1.08515,-0.5207 2.29034,-0.85683 3.27188,-1.54973 0.43381,-0.83362 0.11321,-1.86884 0.21163,-2.78714 -0.0348,-4.42008 0.0771,-8.84521 -0.0796,-13.26215 -0.42324,-4.17583 -4.23344,-7.74386 -8.44447,-7.80445 -1.45373,-0.0639 -2.928,0.20772 -4.24771,0.8247 -0.0389,-2.8071 0.0126,-5.61606 -0.051,-8.42218 -0.11899,-0.54219 -0.60683,-0.85467 -1.14949,-0.726 z"
   style="fill:#000000;fill-opacity:1;fill-rule:nonzero;stroke:#000000;stroke-width:0;stroke-linecap:butt;stroke-linejoin:round;stroke-miterlimit:4;stroke-opacity:1;stroke-dasharray:none;stroke-dashoffset:0" /><path
   inkscape:export-ydpi="600"
   inkscape:export-xdpi="600"
   inkscape:export-filename="C:\Documents and Settings\Justin\My Documents\Arduino\clockthree\Faceplate\Images\oshw-logo.png"
   inkscape:connector-curvature="0"
   id="path3046"
   d="m 359.24819,412.12747 c -2.65009,-0.10694 -5.05273,1.55132 -6.55943,3.62361 -1.23027,1.58701 -1.95717,3.56462 -1.87397,5.58501 0.0387,0.73409 -0.21745,1.84996 0.65493,2.18215 0.83556,0.18604 1.56506,-0.52117 2.33987,-0.74602 0.72724,-0.44529 1.97087,-0.50236 2.11749,-1.51249 -0.11155,-1.3901 0.59724,-2.71206 1.74812,-3.47714 1.57496,-1.03063 3.92176,-0.6476 5.0342,0.89476 0.441,0.5272 0.72341,1.27126 0.76102,1.91688 -3.06961,1.40511 -6.28269,2.52807 -9.30581,4.01321 -1.93486,1.05537 -3.35929,3.08297 -3.41184,5.32602 -0.20392,1.94622 0.54063,3.92964 1.9742,5.2571 2.16646,2.18076 5.50405,3.10455 8.47313,2.25759 0.71724,-0.25315 1.59871,-0.35427 2.10848,-0.94122 0.38008,-0.79948 -0.34227,-1.58601 -0.53487,-2.35803 -0.40555,-0.7463 -0.42595,-1.98831 -1.45898,-2.11387 -0.747,0.16443 -1.44544,0.60324 -2.24804,0.55405 -1.2073,0.082 -2.67745,-0.35609 -3.06319,-1.63667 -0.28502,-0.96178 0.46457,-1.81138 1.26412,-2.23849 2.05163,-0.90654 4.15583,-1.73755 6.24101,-2.58875 0.0828,3.58666 -0.0335,7.17862 0.11782,10.76257 0.11719,0.82925 1.12389,0.91835 1.73538,0.50628 1.0267,-0.50631 2.1927,-0.79652 3.09822,-1.50294 0.32886,-1.03782 0.0712,-2.17019 0.15284,-3.24787 -0.0403,-4.41371 0.0892,-8.83259 -0.0892,-13.24305 -0.60652,-3.59251 -3.65929,-6.61543 -7.24084,-7.22811 -0.67549,-0.0701 -1.35679,-0.0406 -2.0347,-0.0446 z"
   style="fill:#000000;fill-opacity:1;fill-rule:nonzero;stroke:#000000;stroke-width:0;stroke-linecap:butt;stroke-linejoin:round;stroke-miterlimit:4;stroke-opacity:1;stroke-dasharray:none;stroke-dashoffset:0" /><path
   inkscape:export-ydpi="600"
   inkscape:export-xdpi="600"
   inkscape:export-filename="C:\Documents and Settings\Justin\My Documents\Arduino\clockthree\Faceplate\Images\oshw-logo.png"
   inkscape:connector-curvature="0"
   id="path3048"
   d="m 380.82426,412.08289 c -3.39268,-0.0308 -6.48873,2.28622 -7.87769,5.30168 -0.4621,1.05733 -0.81886,2.18069 -0.69184,3.34976 0.007,5.37455 -0.0961,10.75185 0.0232,16.12475 0.0523,0.67868 0.95535,1.01324 1.5316,0.62092 1.09928,-0.53302 2.33556,-0.85481 3.31156,-1.5921 0.33178,-1.06892 0.0823,-2.23419 0.17151,-3.34334 0.0654,-4.23596 -0.0279,-8.48871 0.1692,-12.71453 0.66379,-2.15559 3.45341,-3.31576 5.43859,-2.20028 1.33642,0.68942 2.12144,2.175 2.04107,3.65545 -0.003,0.72711 -0.13306,1.87739 0.85498,1.99206 0.8321,-0.0456 1.56933,-0.61453 2.35779,-0.87575 0.71946,-0.37251 1.9735,-0.54962 1.85165,-1.61298 0.0823,-2.78071 -1.46524,-5.39827 -3.65701,-7.02757 -1.56104,-1.2182 -3.56107,-1.75223 -5.52457,-1.67807 z"
   style="fill:#000000;fill-opacity:1;fill-rule:nonzero;stroke:#000000;stroke-width:0;stroke-linecap:butt;stroke-linejoin:round;stroke-miterlimit:4;stroke-opacity:1;stroke-dasharray:none;stroke-dashoffset:0" /><path
   inkscape:export-ydpi="600"
   inkscape:export-xdpi="600"
   inkscape:export-filename="C:\Documents and Settings\Justin\My Documents\Arduino\clockthree\Faceplate\Images\oshw-logo.png"
   inkscape:connector-curvature="0"
   id="path3050"
   d="m 410.23344,403.76579 c -1.18269,0.53752 -2.45555,0.94396 -3.55325,1.62798 -0.54888,0.65677 -0.19028,1.63972 -0.30124,2.4382 -0.0106,1.68873 -0.0163,3.37754 -0.0461,5.06608 -3.04134,-1.42471 -6.86406,-1.00163 -9.44431,1.17815 -2.00992,1.65583 -3.37774,4.21261 -3.22388,6.85869 -0.007,3.09494 -0.14038,6.19761 0.0461,9.28834 0.64084,4.46962 5.12365,8.08632 9.65714,7.47907 2.27883,-0.19785 4.44739,-1.30431 5.89777,-3.07886 1.12247,-1.21624 1.84502,-2.78385 2.14305,-4.40658 7.1e-4,-8.55245 0.0792,-17.13149 0.009,-25.66776 -0.0394,-0.58642 -0.63677,-0.96099 -1.18452,-0.78331 z m -7.75669,13.44683 c 1.61487,-0.0511 3.20438,1.04237 3.68093,2.58557 0.31406,2.09925 0.12621,4.26144 0.17976,6.38748 -0.0669,1.35174 0.12705,2.77219 -0.26255,4.06621 -0.58505,1.40666 -2.07625,2.4514 -3.62361,2.34038 -1.50066,-0.05 -2.91654,-1.12094 -3.50898,-2.46774 -0.35871,-1.65527 -0.15433,-3.40394 -0.21971,-5.10108 0.0628,-1.7915 -0.1371,-3.63188 0.20698,-5.38446 0.57572,-1.3842 1.99421,-2.517 3.54718,-2.42636 z"
   style="fill:#000000;fill-opacity:1;fill-rule:nonzero;stroke:#000000;stroke-width:0;stroke-linecap:butt;stroke-linejoin:round;stroke-miterlimit:4;stroke-opacity:1;stroke-dasharray:none;stroke-dashoffset:0" /><path
   inkscape:export-ydpi="600"
   inkscape:export-xdpi="600"
   inkscape:export-filename="C:\Documents and Settings\Justin\My Documents\Arduino\clockthree\Faceplate\Images\oshw-logo.png"
   inkscape:connector-curvature="0"
   id="path3052"
   d="m 433.57037,412.13703 c -1.18668,0.56949 -2.47994,0.96134 -3.59644,1.6449 -0.5576,0.65556 -0.19047,1.64567 -0.30073,2.44677 -0.0501,4.93818 0.0399,9.87973 -0.11329,14.81574 -0.004,0.49096 -0.0473,1.00972 -0.52701,1.27717 -0.60085,0.60833 -1.61558,0.46285 -2.13659,-0.17832 -0.46461,-0.35367 -0.25491,-1.06047 -0.35797,-1.56652 -0.11477,-5.88639 0.031,-11.77655 -0.091,-17.6628 -0.0508,-0.71135 -0.99668,-1.02257 -1.57536,-0.5878 -1.07868,0.55153 -2.32236,0.83015 -3.29008,1.56534 -0.3356,1.03675 -0.0791,2.17255 -0.16517,3.25105 -0.0517,4.65055 0.047,9.30516 -0.11504,13.95313 0.0501,0.51357 -0.15801,0.97814 -0.58589,1.2705 -0.74763,0.67972 -1.99944,0.27389 -2.35446,-0.62741 -0.2856,-0.79523 -0.054,-1.72415 -0.13336,-2.57269 -0.0358,-5.43276 0.003,-10.87614 -0.0782,-16.30228 -0.0861,-0.82092 -1.10574,-0.93104 -1.67039,-0.49919 -1.03869,0.53612 -2.23587,0.81576 -3.16052,1.53645 -0.32925,1.03746 -0.0709,2.17027 -0.15284,3.24787 0.035,4.98797 -0.0793,9.97971 0.0855,14.96529 0.32348,3.21421 3.43967,5.8552 6.67448,5.61109 1.44887,0.0132 2.84429,-0.52166 3.98665,-1.39482 2.52076,2.06764 6.50281,1.80637 8.80429,-0.47126 1.08399,-1.05822 1.88706,-2.49809 2.02606,-4.01208 2.6e-4,-6.33081 0.075,-12.67177 0.0288,-18.99627 -0.0462,-0.57337 -0.68285,-0.91215 -1.20155,-0.71386 z"
   style="fill:#000000;fill-opacity:1;fill-rule:nonzero;stroke:#000000;stroke-width:0;stroke-linecap:butt;stroke-linejoin:round;stroke-miterlimit:4;stroke-opacity:1;stroke-dasharray:none;stroke-dashoffset:0" /><path
   inkscape:export-ydpi="600"
   inkscape:export-xdpi="600"
   inkscape:export-filename="C:\Documents and Settings\Justin\My Documents\Arduino\clockthree\Faceplate\Images\oshw-logo.png"
   inkscape:connector-curvature="0"
   id="path3054"
   d="m 444.97296,412.07653 c -2.39332,0.01 -4.64863,1.22942 -6.15823,3.04727 -1.36946,1.57847 -2.3618,3.57767 -2.35948,5.70606 0.0276,0.82473 -0.3134,1.80123 0.23245,2.51233 0.7713,0.62547 1.64139,-0.17836 2.40427,-0.41639 0.74606,-0.42621 1.74525,-0.55238 2.28571,-1.24285 0.25569,-0.96773 0.17939,-2.09505 0.88235,-2.90689 1.23642,-1.81287 4.03798,-2.10443 5.62009,-0.59863 0.67047,0.64179 1.19369,1.51317 1.24184,2.4582 -3.18312,1.38344 -6.48256,2.53814 -9.5678,4.11676 -2.08405,1.21078 -3.40563,3.61963 -3.17409,6.03753 -0.0323,2.49741 1.75562,4.59446 3.81777,5.78763 2.52884,1.54636 5.86066,1.52218 8.46559,0.17327 0.78537,-0.61432 0.103,-1.55798 -0.13421,-2.27351 -0.39953,-0.74036 -0.47211,-1.73336 -1.12962,-2.28426 -0.81301,-0.36277 -1.59048,0.39841 -2.42664,0.4024 -1.18545,0.0694 -2.67044,-0.15942 -3.22559,-1.3692 -0.6077,-1.04814 0.37874,-2.22544 1.34518,-2.5953 1.99018,-0.8672 4.0129,-1.68608 6.02304,-2.50578 0.0729,3.60695 0.0134,7.22487 0.0982,10.82546 0.0861,0.82024 1.10259,0.92974 1.66804,0.50109 1.05674,-0.53786 2.26888,-0.82103 3.21381,-1.54153 0.33565,-1.03675 0.0727,-2.17255 0.15603,-3.25106 -0.0453,-4.3277 0.10205,-8.66118 -0.10508,-12.98513 -0.29025,-3.06609 -2.57819,-5.72277 -5.3367,-6.95108 -1.2095,-0.49748 -2.53334,-0.69454 -3.83695,-0.64639 z"
   style="fill:#000000;fill-opacity:1;fill-rule:nonzero;stroke:#000000;stroke-width:0;stroke-linecap:butt;stroke-linejoin:round;stroke-miterlimit:4;stroke-opacity:1;stroke-dasharray:none;stroke-dashoffset:0" /><path
   inkscape:export-ydpi="600"
   inkscape:export-xdpi="600"
   inkscape:export-filename="C:\Documents and Settings\Justin\My Documents\Arduino\clockthree\Faceplate\Images\oshw-logo.png"
   inkscape:connector-curvature="0"
   id="path3056"
   d="m 466.12553,412.12429 c -2.25621,-0.0172 -4.39441,1.18392 -5.91941,2.78617 -1.46861,1.61046 -2.43634,3.75995 -2.32057,5.97022 -0.0837,5.32773 -0.0662,10.65655 -0.0994,15.98477 0.0392,0.86886 1.08695,1.07836 1.6965,0.60925 1.05368,-0.53322 2.25725,-0.82175 3.21205,-1.51578 0.43526,-0.79963 0.11943,-1.80254 0.21666,-2.68842 0.0478,-4.28598 -0.0915,-8.5876 0.11278,-12.86413 0.15089,-2.07384 2.45266,-3.58487 4.44832,-3.13643 1.61508,0.27929 2.95287,1.70138 3.06,3.33066 0.22268,0.87717 -0.18539,2.06438 0.69734,2.62378 0.92018,0.16574 1.69737,-0.56651 2.54732,-0.82278 0.73378,-0.36375 1.93403,-0.56044 1.84413,-1.61887 0.0987,-2.14605 -0.94088,-4.21825 -2.3058,-5.82451 -1.65041,-1.86527 -4.13414,-3.03188 -6.64222,-2.83712 -0.18258,3.7e-4 -0.36515,-0.002 -0.54769,0.003 z"
   style="fill:#000000;fill-opacity:1;fill-rule:nonzero;stroke:#000000;stroke-width:0;stroke-linecap:butt;stroke-linejoin:round;stroke-miterlimit:4;stroke-opacity:1;stroke-dasharray:none;stroke-dashoffset:0" /><path
   inkscape:export-ydpi="600"
   inkscape:export-xdpi="600"
   inkscape:export-filename="C:\Documents and Settings\Justin\My Documents\Arduino\clockthree\Faceplate\Images\oshw-logo.png"
   inkscape:connector-curvature="0"
   id="path3058"
   d="m 487.76848,412.08926 c -3.47001,0.0131 -6.63033,2.42044 -7.9159,5.58507 -0.82911,1.89156 -0.51413,4.02217 -0.60181,6.02767 0.055,2.29468 -0.1217,4.60747 0.14329,6.89059 0.79742,3.93118 4.46434,7.19938 8.54318,7.1294 1.94034,0.0985 3.87668,-0.49816 5.40357,-1.70672 1.71629,-1.44865 3.09793,-3.42695 3.57903,-5.64239 0.0872,-1.16846 0.27374,-2.40874 0.0446,-3.55674 -0.22704,-0.66696 -1.13179,-0.67983 -1.66533,-0.31523 -1.01149,0.51054 -2.16697,0.79122 -3.0632,1.4902 -0.368,1.12997 -0.31653,2.5038 -1.27049,3.37842 -1.36115,1.58627 -4.01447,1.63999 -5.46407,0.14966 -0.63464,-0.62207 -1.03255,-1.48747 -1.10173,-2.36904 4.05064,-1.81767 8.13086,-3.58002 12.15608,-5.43994 0.74672,-0.54427 0.35443,-1.60621 0.47671,-2.39949 0.15442,-2.29018 -0.61018,-4.63323 -2.22945,-6.28376 -1.78941,-1.96499 -4.37035,-3.08482 -7.03446,-2.9377 z m 0.25792,5.10744 c 1.7599,-0.0296 3.5555,1.20906 3.84013,3.0027 -2.48369,1.20143 -5.03207,2.28037 -7.5529,3.41026 0.0765,-1.36455 -0.1652,-2.80369 0.32797,-4.10442 0.56369,-1.33714 1.93687,-2.28562 3.3848,-2.30854 z"
   style="fill:#000000;fill-opacity:1;fill-rule:nonzero;stroke:#000000;stroke-width:0;stroke-linecap:butt;stroke-linejoin:round;stroke-miterlimit:4;stroke-opacity:1;stroke-dasharray:none;stroke-dashoffset:0" /><path
   style="fill:#000000;fill-opacity:1;fill-rule:nonzero;stroke:#000000;stroke-width:0;stroke-linecap:butt;stroke-linejoin:round;stroke-miterlimit:4;stroke-opacity:1;stroke-dasharray:none;stroke-dashoffset:0"
   d="m 233.53935,410.69459 c -4.41313,0.0806 -8.33026,3.73974 -9.01763,8.03371 -0.15416,3.1828 -0.0668,6.37566 -0.0637,9.56212 -0.11553,4.61049 3.74789,8.94931 8.32648,9.40899 1.97548,0.14435 4.03462,-0.0518 5.77948,-1.06004 2.66446,-1.41078 4.60498,-4.16079 5.05331,-7.13895 -0.0447,-3.59071 0.099,-7.18864 -0.0995,-10.77478 -0.18918,-1.84453 -1.2008,-3.52019 -2.396,-4.89626 -1.90515,-2.15036 -4.72043,-3.29033 -7.58249,-3.13479 z m 0.36299,6.54032 c 1.31237,-0.0452 2.60515,0.73409 3.05683,1.98375 0.28861,1.87636 0.0924,3.81633 0.1369,5.7188 -0.0384,1.37707 0.0419,2.78208 -0.0703,4.14179 -0.50419,1.36102 -1.9168,2.3921 -3.40044,2.09605 -1.46051,-0.20758 -2.78811,-1.57896 -2.66517,-3.11095 -0.0111,-2.83543 -0.11181,-5.68981 0.07,-8.51453 0.21731,-1.29624 1.57482,-2.3471 2.87214,-2.31491 z"
   id="path3092"
   inkscape:connector-curvature="0"
   inkscape:export-filename="C:\Documents and Settings\Justin\My Documents\Arduino\clockthree\Faceplate\Images\oshw-logo.png"
   inkscape:export-xdpi="600"
   inkscape:export-ydpi="600" /><path
   style="fill:#000000;fill-opacity:1;fill-rule:nonzero;stroke:#000000;stroke-width:0;stroke-linecap:butt;stroke-linejoin:round;stroke-miterlimit:4;stroke-opacity:1;stroke-dasharray:none;stroke-dashoffset:0"
   d="m 256.25536,410.71369 c -4.17369,-0.0415 -7.94268,3.15094 -9.03721,7.10415 -0.50033,1.31889 -0.1718,2.76224 -0.27055,4.13922 -0.0169,7.8968 -0.0337,15.79359 -0.0506,23.69038 0.03,0.8121 1.01175,1.09868 1.60774,0.64288 1.51188,-0.7036 3.10896,-1.26634 4.57363,-2.04662 0.66872,-0.59074 0.25781,-1.62143 0.37169,-2.41092 0,-1.52416 0,-3.04833 0,-4.57249 3.04498,0.9997 6.62935,0.53559 9.08768,-1.60802 2.03235,-1.64372 3.49865,-4.08367 3.57903,-6.73775 0.12398,-3.40437 0.024,-6.81604 -0.006,-10.22009 -0.68957,-3.31458 -3.03717,-6.28891 -6.25437,-7.44898 -1.1417,-0.45318 -2.38203,-0.55399 -3.60132,-0.53176 z m 0.21971,6.52759 c 1.22171,-0.058 2.38018,0.67774 2.88169,1.78633 0.46745,0.85672 0.14043,1.89485 0.24734,2.83389 -0.0409,2.40487 0.15698,4.84439 -0.0977,7.22815 -0.39907,1.32285 -1.87117,2.34154 -3.26379,2.09839 -1.27195,-0.1077 -2.36658,-1.12347 -2.74159,-2.30217 0,-3.16084 0,-6.32168 0,-9.48252 0.47898,-1.2015 1.61029,-2.25001 2.97403,-2.16207 z"
   id="path3094"
   inkscape:connector-curvature="0"
   inkscape:export-filename="C:\Documents and Settings\Justin\My Documents\Arduino\clockthree\Faceplate\Images\oshw-logo.png"
   inkscape:export-xdpi="600"
   inkscape:export-ydpi="600" /><path
   style="fill:#000000;fill-opacity:1;fill-rule:nonzero;stroke:#000000;stroke-width:0;stroke-linecap:butt;stroke-linejoin:round;stroke-miterlimit:4;stroke-opacity:1;stroke-dasharray:none;stroke-dashoffset:0"
   d="m 278.65932,410.68503 c -4.40178,0.0853 -8.41434,3.63803 -9.10041,7.97003 -0.16138,3.19314 -0.12467,6.39696 -0.1019,9.59397 -0.10295,4.23884 3.09462,8.18471 7.15806,9.23415 1.41321,0.39975 2.93386,0.26108 4.37826,0.086 2.96177,-0.50277 5.24379,-2.83639 6.6708,-5.3567 1.20864,-2.09172 0.96452,-4.57668 1.0661,-6.89218 0.0115,-0.83305 -0.99691,-1.16227 -1.60738,-0.68887 -1.50624,0.70836 -3.09147,1.29028 -4.54717,2.07997 -0.6754,0.62924 -0.26219,1.70427 -0.6239,2.50565 -0.43231,1.3834 -1.97179,2.21965 -3.37206,1.96146 -1.18317,-0.11517 -2.20493,-1.06746 -2.51233,-2.20664 3.38491,-1.68411 6.88564,-3.09779 10.32194,-4.67234 0.72601,-0.41796 1.70996,-0.53837 2.22673,-1.21975 0.25272,-0.97482 0.002,-2.02142 0.0321,-3.02683 0.0148,-2.44126 -1.01721,-4.83993 -2.79519,-6.50345 -1.88406,-1.88707 -4.51408,-2.99415 -7.19362,-2.86444 z m 0.24837,6.54033 c 1.271,-0.0258 2.54064,0.73333 3.02498,1.92644 -1.94191,0.95909 -3.99708,1.79768 -5.95444,2.6588 0.11786,-1.10806 -0.26096,-2.42744 0.57316,-3.33704 0.55924,-0.75776 1.38824,-1.26159 2.3563,-1.2482 z"
   id="path3096"
   inkscape:connector-curvature="0"
   inkscape:export-filename="C:\Documents and Settings\Justin\My Documents\Arduino\clockthree\Faceplate\Images\oshw-logo.png"
   inkscape:export-xdpi="600"
   inkscape:export-ydpi="600" /><path
   style="fill:#000000;fill-opacity:1;fill-rule:nonzero;stroke:#000000;stroke-width:0;stroke-linecap:butt;stroke-linejoin:round;stroke-miterlimit:4;stroke-opacity:1;stroke-dasharray:none;stroke-dashoffset:0"
   d="m 301.41036,410.70732 c -4.22846,-0.0861 -8.14181,3.09985 -9.19275,7.14214 -0.36101,1.75795 -0.15345,3.58122 -0.23265,5.36535 0.0105,4.58797 -0.1043,9.17928 0.0193,13.76527 -0.0398,0.80614 0.91508,1.34214 1.57936,0.87565 1.46343,-0.67111 3.00646,-1.21202 4.41733,-1.97053 0.66612,-0.5901 0.26247,-1.61922 0.37873,-2.40772 0.0185,-4.59691 0.0375,-9.19383 0.0567,-13.79074 0.37292,-1.344 1.58431,-2.44486 3.01861,-2.42317 1.38905,-0.12579 2.71053,0.82184 3.09283,2.14759 0.1843,1.32141 0.0365,2.71057 0.0914,4.05838 0.0473,4.49522 -0.0407,9.00467 0.11145,13.49143 -0.0421,0.81412 0.90764,1.36314 1.58573,0.89794 1.48509,-0.66962 3.03578,-1.23621 4.46827,-2.00555 0.66392,-0.59101 0.25494,-1.61964 0.36851,-2.40773 -0.0357,-4.78406 0.0788,-9.57374 -0.0796,-14.35433 -0.41207,-4.20247 -4.06425,-7.77485 -8.2184,-8.32348 -0.48587,-0.0536 -0.97609,-0.0692 -1.46473,-0.0605 z"
   id="path3098"
   inkscape:connector-curvature="0"
   inkscape:export-filename="C:\Documents and Settings\Justin\My Documents\Arduino\clockthree\Faceplate\Images\oshw-logo.png"
   inkscape:export-xdpi="600"
   inkscape:export-ydpi="600" /><path
   style="fill:#000000;fill-opacity:1;fill-rule:nonzero;stroke:#000000;stroke-width:0;stroke-linecap:butt;stroke-linejoin:round;stroke-miterlimit:4;stroke-opacity:1;stroke-dasharray:none;stroke-dashoffset:0"
   d="m 333.27137,403.75305 c -1.16369,0.53376 -2.41542,0.93861 -3.49511,1.61624 -0.54553,0.66134 -0.18385,1.64311 -0.29074,2.4436 0.0106,9.40066 -0.0896,18.80223 0.0128,28.20232 -0.042,0.66982 0.11313,1.5915 0.96141,1.61763 1.22147,-0.35777 2.37635,-0.9606 3.53362,-1.4816 0.77361,-0.55903 0.33711,-1.65757 0.45841,-2.46996 0.0594,-4.52512 -0.034,-9.05578 0.14423,-13.57741 0.34361,-1.787 2.20849,-3.03819 3.97706,-2.89443 2.02652,0.0804 3.70412,2.00518 3.53763,4.01526 0.13113,5.1063 -0.0232,10.21789 0.13055,15.32233 -0.0427,0.78197 0.83958,1.34071 1.51886,0.93297 1.08515,-0.5207 2.29034,-0.85683 3.27188,-1.54973 0.43381,-0.83362 0.11321,-1.86884 0.21163,-2.78714 -0.0348,-4.42008 0.0771,-8.84521 -0.0796,-13.26215 -0.42324,-4.17583 -4.23344,-7.74386 -8.44447,-7.80445 -1.45373,-0.0639 -2.928,0.20772 -4.24771,0.8247 -0.0389,-2.8071 0.0126,-5.61606 -0.051,-8.42218 -0.11899,-0.54219 -0.60683,-0.85467 -1.14949,-0.726 z"
   id="path3100"
   inkscape:connector-curvature="0"
   inkscape:export-filename="C:\Documents and Settings\Justin\My Documents\Arduino\clockthree\Faceplate\Images\oshw-logo.png"
   inkscape:export-xdpi="600"
   inkscape:export-ydpi="600" /><path
   style="fill:#000000;fill-opacity:1;fill-rule:nonzero;stroke:#000000;stroke-width:0;stroke-linecap:butt;stroke-linejoin:round;stroke-miterlimit:4;stroke-opacity:1;stroke-dasharray:none;stroke-dashoffset:0"
   d="m 359.24819,412.12747 c -2.65009,-0.10694 -5.05273,1.55132 -6.55943,3.62361 -1.23027,1.58701 -1.95717,3.56462 -1.87397,5.58501 0.0387,0.73409 -0.21745,1.84996 0.65493,2.18215 0.83556,0.18604 1.56506,-0.52117 2.33987,-0.74602 0.72724,-0.44529 1.97087,-0.50236 2.11749,-1.51249 -0.11155,-1.3901 0.59724,-2.71206 1.74812,-3.47714 1.57496,-1.03063 3.92176,-0.6476 5.0342,0.89476 0.441,0.5272 0.72341,1.27126 0.76102,1.91688 -3.06961,1.40511 -6.28269,2.52807 -9.30581,4.01321 -1.93486,1.05537 -3.35929,3.08297 -3.41184,5.32602 -0.20392,1.94622 0.54063,3.92964 1.9742,5.2571 2.16646,2.18076 5.50405,3.10455 8.47313,2.25759 0.71724,-0.25315 1.59871,-0.35427 2.10848,-0.94122 0.38008,-0.79948 -0.34227,-1.58601 -0.53487,-2.35803 -0.40555,-0.7463 -0.42595,-1.98831 -1.45898,-2.11387 -0.747,0.16443 -1.44544,0.60324 -2.24804,0.55405 -1.2073,0.082 -2.67745,-0.35609 -3.06319,-1.63667 -0.28502,-0.96178 0.46457,-1.81138 1.26412,-2.23849 2.05163,-0.90654 4.15583,-1.73755 6.24101,-2.58875 0.0828,3.58666 -0.0335,7.17862 0.11782,10.76257 0.11719,0.82925 1.12389,0.91835 1.73538,0.50628 1.0267,-0.50631 2.1927,-0.79652 3.09822,-1.50294 0.32886,-1.03782 0.0712,-2.17019 0.15284,-3.24787 -0.0403,-4.41371 0.0892,-8.83259 -0.0892,-13.24305 -0.60652,-3.59251 -3.65929,-6.61543 -7.24084,-7.22811 -0.67549,-0.0701 -1.35679,-0.0406 -2.0347,-0.0446 z"
   id="path3102"
   inkscape:connector-curvature="0"
   inkscape:export-filename="C:\Documents and Settings\Justin\My Documents\Arduino\clockthree\Faceplate\Images\oshw-logo.png"
   inkscape:export-xdpi="600"
   inkscape:export-ydpi="600" /><path
   style="fill:#000000;fill-opacity:1;fill-rule:nonzero;stroke:#000000;stroke-width:0;stroke-linecap:butt;stroke-linejoin:round;stroke-miterlimit:4;stroke-opacity:1;stroke-dasharray:none;stroke-dashoffset:0"
   d="m 380.82426,412.08289 c -3.39268,-0.0308 -6.48873,2.28622 -7.87769,5.30168 -0.4621,1.05733 -0.81886,2.18069 -0.69184,3.34976 0.007,5.37455 -0.0961,10.75185 0.0232,16.12475 0.0523,0.67868 0.95535,1.01324 1.5316,0.62092 1.09928,-0.53302 2.33556,-0.85481 3.31156,-1.5921 0.33178,-1.06892 0.0823,-2.23419 0.17151,-3.34334 0.0654,-4.23596 -0.0279,-8.48871 0.1692,-12.71453 0.66379,-2.15559 3.45341,-3.31576 5.43859,-2.20028 1.33642,0.68942 2.12144,2.175 2.04107,3.65545 -0.003,0.72711 -0.13306,1.87739 0.85498,1.99206 0.8321,-0.0456 1.56933,-0.61453 2.35779,-0.87575 0.71946,-0.37251 1.9735,-0.54962 1.85165,-1.61298 0.0823,-2.78071 -1.46524,-5.39827 -3.65701,-7.02757 -1.56104,-1.2182 -3.56107,-1.75223 -5.52457,-1.67807 z"
   id="path3104"
   inkscape:connector-curvature="0"
   inkscape:export-filename="C:\Documents and Settings\Justin\My Documents\Arduino\clockthree\Faceplate\Images\oshw-logo.png"
   inkscape:export-xdpi="600"
   inkscape:export-ydpi="600" /><path
   style="fill:#000000;fill-opacity:1;fill-rule:nonzero;stroke:#000000;stroke-width:0;stroke-linecap:butt;stroke-linejoin:round;stroke-miterlimit:4;stroke-opacity:1;stroke-dasharray:none;stroke-dashoffset:0"
   d="m 410.23344,403.76579 c -1.18269,0.53752 -2.45555,0.94396 -3.55325,1.62798 -0.54888,0.65677 -0.19028,1.63972 -0.30124,2.4382 -0.0106,1.68873 -0.0163,3.37754 -0.0461,5.06608 -3.04134,-1.42471 -6.86406,-1.00163 -9.44431,1.17815 -2.00992,1.65583 -3.37774,4.21261 -3.22388,6.85869 -0.007,3.09494 -0.14038,6.19761 0.0461,9.28834 0.64084,4.46962 5.12365,8.08632 9.65714,7.47907 2.27883,-0.19785 4.44739,-1.30431 5.89777,-3.07886 1.12247,-1.21624 1.84502,-2.78385 2.14305,-4.40658 7.1e-4,-8.55245 0.0792,-17.13149 0.009,-25.66776 -0.0394,-0.58642 -0.63677,-0.96099 -1.18452,-0.78331 z m -7.75669,13.44683 c 1.61487,-0.0511 3.20438,1.04237 3.68093,2.58557 0.31406,2.09925 0.12621,4.26144 0.17976,6.38748 -0.0669,1.35174 0.12705,2.77219 -0.26255,4.06621 -0.58505,1.40666 -2.07625,2.4514 -3.62361,2.34038 -1.50066,-0.05 -2.91654,-1.12094 -3.50898,-2.46774 -0.35871,-1.65527 -0.15433,-3.40394 -0.21971,-5.10108 0.0628,-1.7915 -0.1371,-3.63188 0.20698,-5.38446 0.57572,-1.3842 1.99421,-2.517 3.54718,-2.42636 z"
   id="path3106"
   inkscape:connector-curvature="0"
   inkscape:export-filename="C:\Documents and Settings\Justin\My Documents\Arduino\clockthree\Faceplate\Images\oshw-logo.png"
   inkscape:export-xdpi="600"
   inkscape:export-ydpi="600" /><path
   style="fill:#000000;fill-opacity:1;fill-rule:nonzero;stroke:#000000;stroke-width:0;stroke-linecap:butt;stroke-linejoin:round;stroke-miterlimit:4;stroke-opacity:1;stroke-dasharray:none;stroke-dashoffset:0"
   d="m 433.57037,412.13703 c -1.18668,0.56949 -2.47994,0.96134 -3.59644,1.6449 -0.5576,0.65556 -0.19047,1.64567 -0.30073,2.44677 -0.0501,4.93818 0.0399,9.87973 -0.11329,14.81574 -0.004,0.49096 -0.0473,1.00972 -0.52701,1.27717 -0.60085,0.60833 -1.61558,0.46285 -2.13659,-0.17832 -0.46461,-0.35367 -0.25491,-1.06047 -0.35797,-1.56652 -0.11477,-5.88639 0.031,-11.77655 -0.091,-17.6628 -0.0508,-0.71135 -0.99668,-1.02257 -1.57536,-0.5878 -1.07868,0.55153 -2.32236,0.83015 -3.29008,1.56534 -0.3356,1.03675 -0.0791,2.17255 -0.16517,3.25105 -0.0517,4.65055 0.047,9.30516 -0.11504,13.95313 0.0501,0.51357 -0.15801,0.97814 -0.58589,1.2705 -0.74763,0.67972 -1.99944,0.27389 -2.35446,-0.62741 -0.2856,-0.79523 -0.054,-1.72415 -0.13336,-2.57269 -0.0358,-5.43276 0.003,-10.87614 -0.0782,-16.30228 -0.0861,-0.82092 -1.10574,-0.93104 -1.67039,-0.49919 -1.03869,0.53612 -2.23587,0.81576 -3.16052,1.53645 -0.32925,1.03746 -0.0709,2.17027 -0.15284,3.24787 0.035,4.98797 -0.0793,9.97971 0.0855,14.96529 0.32348,3.21421 3.43967,5.8552 6.67448,5.61109 1.44887,0.0132 2.84429,-0.52166 3.98665,-1.39482 2.52076,2.06764 6.50281,1.80637 8.80429,-0.47126 1.08399,-1.05822 1.88706,-2.49809 2.02606,-4.01208 2.6e-4,-6.33081 0.075,-12.67177 0.0288,-18.99627 -0.0462,-0.57337 -0.68285,-0.91215 -1.20155,-0.71386 z"
   id="path3108"
   inkscape:connector-curvature="0"
   inkscape:export-filename="C:\Documents and Settings\Justin\My Documents\Arduino\clockthree\Faceplate\Images\oshw-logo.png"
   inkscape:export-xdpi="600"
   inkscape:export-ydpi="600" /><path
   style="fill:#000000;fill-opacity:1;fill-rule:nonzero;stroke:#000000;stroke-width:0;stroke-linecap:butt;stroke-linejoin:round;stroke-miterlimit:4;stroke-opacity:1;stroke-dasharray:none;stroke-dashoffset:0"
   d="m 444.97296,412.07653 c -2.39332,0.01 -4.64863,1.22942 -6.15823,3.04727 -1.36946,1.57847 -2.3618,3.57767 -2.35948,5.70606 0.0276,0.82473 -0.3134,1.80123 0.23245,2.51233 0.7713,0.62547 1.64139,-0.17836 2.40427,-0.41639 0.74606,-0.42621 1.74525,-0.55238 2.28571,-1.24285 0.25569,-0.96773 0.17939,-2.09505 0.88235,-2.90689 1.23642,-1.81287 4.03798,-2.10443 5.62009,-0.59863 0.67047,0.64179 1.19369,1.51317 1.24184,2.4582 -3.18312,1.38344 -6.48256,2.53814 -9.5678,4.11676 -2.08405,1.21078 -3.40563,3.61963 -3.17409,6.03753 -0.0323,2.49741 1.75562,4.59446 3.81777,5.78763 2.52884,1.54636 5.86066,1.52218 8.46559,0.17327 0.78537,-0.61432 0.103,-1.55798 -0.13421,-2.27351 -0.39953,-0.74036 -0.47211,-1.73336 -1.12962,-2.28426 -0.81301,-0.36277 -1.59048,0.39841 -2.42664,0.4024 -1.18545,0.0694 -2.67044,-0.15942 -3.22559,-1.3692 -0.6077,-1.04814 0.37874,-2.22544 1.34518,-2.5953 1.99018,-0.8672 4.0129,-1.68608 6.02304,-2.50578 0.0729,3.60695 0.0134,7.22487 0.0982,10.82546 0.0861,0.82024 1.10259,0.92974 1.66804,0.50109 1.05674,-0.53786 2.26888,-0.82103 3.21381,-1.54153 0.33565,-1.03675 0.0727,-2.17255 0.15603,-3.25106 -0.0453,-4.3277 0.10205,-8.66118 -0.10508,-12.98513 -0.29025,-3.06609 -2.57819,-5.72277 -5.3367,-6.95108 -1.2095,-0.49748 -2.53334,-0.69454 -3.83695,-0.64639 z"
   id="path3110"
   inkscape:connector-curvature="0"
   inkscape:export-filename="C:\Documents and Settings\Justin\My Documents\Arduino\clockthree\Faceplate\Images\oshw-logo.png"
   inkscape:export-xdpi="600"
   inkscape:export-ydpi="600" /><path
   style="fill:#000000;fill-opacity:1;fill-rule:nonzero;stroke:#000000;stroke-width:0;stroke-linecap:butt;stroke-linejoin:round;stroke-miterlimit:4;stroke-opacity:1;stroke-dasharray:none;stroke-dashoffset:0"
   d="m 466.12553,412.12429 c -2.25621,-0.0172 -4.39441,1.18392 -5.91941,2.78617 -1.46861,1.61046 -2.43634,3.75995 -2.32057,5.97022 -0.0837,5.32773 -0.0662,10.65655 -0.0994,15.98477 0.0392,0.86886 1.08695,1.07836 1.6965,0.60925 1.05368,-0.53322 2.25725,-0.82175 3.21205,-1.51578 0.43526,-0.79963 0.11943,-1.80254 0.21666,-2.68842 0.0478,-4.28598 -0.0915,-8.5876 0.11278,-12.86413 0.15089,-2.07384 2.45266,-3.58487 4.44832,-3.13643 1.61508,0.27929 2.95287,1.70138 3.06,3.33066 0.22268,0.87717 -0.18539,2.06438 0.69734,2.62378 0.92018,0.16574 1.69737,-0.56651 2.54732,-0.82278 0.73378,-0.36375 1.93403,-0.56044 1.84413,-1.61887 0.0987,-2.14605 -0.94088,-4.21825 -2.3058,-5.82451 -1.65041,-1.86527 -4.13414,-3.03188 -6.64222,-2.83712 -0.18258,3.7e-4 -0.36515,-0.002 -0.54769,0.003 z"
   id="path3112"
   inkscape:connector-curvature="0"
   inkscape:export-filename="C:\Documents and Settings\Justin\My Documents\Arduino\clockthree\Faceplate\Images\oshw-logo.png"
   inkscape:export-xdpi="600"
   inkscape:export-ydpi="600" /><path
   style="fill:#000000;fill-opacity:1;fill-rule:nonzero;stroke:#000000;stroke-width:0;stroke-linecap:butt;stroke-linejoin:round;stroke-miterlimit:4;stroke-opacity:1;stroke-dasharray:none;stroke-dashoffset:0"
   d="m 487.76848,412.08926 c -3.47001,0.0131 -6.63033,2.42044 -7.9159,5.58507 -0.82911,1.89156 -0.51413,4.02217 -0.60181,6.02767 0.055,2.29468 -0.1217,4.60747 0.14329,6.89059 0.79742,3.93118 4.46434,7.19938 8.54318,7.1294 1.94034,0.0985 3.87668,-0.49816 5.40357,-1.70672 1.71629,-1.44865 3.09793,-3.42695 3.57903,-5.64239 0.0872,-1.16846 0.27374,-2.40874 0.0446,-3.55674 -0.22704,-0.66696 -1.13179,-0.67983 -1.66533,-0.31523 -1.01149,0.51054 -2.16697,0.79122 -3.0632,1.4902 -0.368,1.12997 -0.31653,2.5038 -1.27049,3.37842 -1.36115,1.58627 -4.01447,1.63999 -5.46407,0.14966 -0.63464,-0.62207 -1.03255,-1.48747 -1.10173,-2.36904 4.05064,-1.81767 8.13086,-3.58002 12.15608,-5.43994 0.74672,-0.54427 0.35443,-1.60621 0.47671,-2.39949 0.15442,-2.29018 -0.61018,-4.63323 -2.22945,-6.28376 -1.78941,-1.96499 -4.37035,-3.08482 -7.03446,-2.9377 z m 0.25792,5.10744 c 1.7599,-0.0296 3.5555,1.20906 3.84013,3.0027 -2.48369,1.20143 -5.03207,2.28037 -7.5529,3.41026 0.0765,-1.36455 -0.1652,-2.80369 0.32797,-4.10442 0.56369,-1.33714 1.93687,-2.28562 3.3848,-2.30854 z"
   id="path3114"
   inkscape:connector-curvature="0"
   inkscape:export-filename="C:\Documents and Settings\Justin\My Documents\Arduino\clockthree\Faceplate\Images\oshw-logo.png"
   inkscape:export-xdpi="600"
   inkscape:export-ydpi="600" /></g>
</svg>