<?xml version="1.0" encoding="UTF-8" standalone="no"?>
<!-- Created with Inkscape (http://www.inkscape.org/) -->

<svg
   xmlns:osb="http://www.openswatchbook.org/uri/2009/osb"
   xmlns:dc="http://purl.org/dc/elements/1.1/"
   xmlns:cc="http://creativecommons.org/ns#"
   xmlns:rdf="http://www.w3.org/1999/02/22-rdf-syntax-ns#"
   xmlns:svg="http://www.w3.org/2000/svg"
   xmlns="http://www.w3.org/2000/svg"
   xmlns:xlink="http://www.w3.org/1999/xlink"
   xmlns:sodipodi="http://sodipodi.sourceforge.net/DTD/sodipodi-0.dtd"
   xmlns:inkscape="http://www.inkscape.org/namespaces/inkscape"
   width="744.09448819"
   height="1052.3622047"
   id="svg2995"
   version="1.1"
   inkscape:version="0.48.0 r9654"
   sodipodi:docname="WyoLum_v5_black.svg">
  <defs
     id="defs2997">
    <linearGradient
       inkscape:collect="always"
       id="linearGradient6596">
      <stop
         style="stop-color:#000000;stop-opacity:1;"
         offset="0"
         id="stop6598" />
      <stop
         style="stop-color:#000000;stop-opacity:0;"
         offset="1"
         id="stop6600" />
    </linearGradient>
    <inkscape:perspective
       sodipodi:type="inkscape:persp3d"
       inkscape:vp_x="0 : 526.18109 : 1"
       inkscape:vp_y="0 : 1000 : 0"
       inkscape:vp_z="744.09448 : 526.18109 : 1"
       inkscape:persp3d-origin="372.04724 : 350.78739 : 1"
       id="perspective6394" />
    <linearGradient
       inkscape:collect="always"
       id="linearGradient6029">
      <stop
         style="stop-color:#000000;stop-opacity:1;"
         offset="0"
         id="stop6031" />
      <stop
         style="stop-color:#000000;stop-opacity:0;"
         offset="1"
         id="stop6033" />
    </linearGradient>
    <linearGradient
       inkscape:collect="always"
       id="linearGradient6021">
      <stop
         style="stop-color:#000000;stop-opacity:1;"
         offset="0"
         id="stop6023" />
      <stop
         style="stop-color:#000000;stop-opacity:0;"
         offset="1"
         id="stop6025" />
    </linearGradient>
    <linearGradient
       id="linearGradient5338">
      <stop
         style="stop-color:#000000;stop-opacity:1;"
         offset="0"
         id="stop5340" />
      <stop
         style="stop-color:#000000;stop-opacity:0;"
         offset="1"
         id="stop5342" />
    </linearGradient>
    <linearGradient
       inkscape:collect="always"
       id="linearGradient5296">
      <stop
         style="stop-color:#000000;stop-opacity:1;"
         offset="0"
         id="stop5298" />
      <stop
         style="stop-color:#000000;stop-opacity:0;"
         offset="1"
         id="stop5300" />
    </linearGradient>
    <linearGradient
       id="linearGradient5233"
       osb:paint="solid">
      <stop
         style="stop-color:#000000;stop-opacity:1;"
         offset="0"
         id="stop5235" />
    </linearGradient>
    <radialGradient
       inkscape:collect="always"
       xlink:href="#linearGradient5296"
       id="radialGradient5306"
       cx="260.97522"
       cy="404.96677"
       fx="260.97522"
       fy="404.96677"
       r="80.647896"
       gradientTransform="matrix(1,0,0,0.27095732,0,295.23807)"
       gradientUnits="userSpaceOnUse" />
    <radialGradient
       inkscape:collect="always"
       xlink:href="#linearGradient5338-8"
       id="radialGradient5344-6"
       cx="259.57983"
       cy="354.77045"
       fx="259.57983"
       fy="354.77045"
       r="81.274811"
       gradientTransform="matrix(1,0,0,0.27662517,0,256.63201)"
       gradientUnits="userSpaceOnUse" />
    <linearGradient
       inkscape:collect="always"
       id="linearGradient5338-8">
      <stop
         style="stop-color:#000000;stop-opacity:1;"
         offset="0"
         id="stop5340-8" />
      <stop
         style="stop-color:#000000;stop-opacity:0;"
         offset="1"
         id="stop5342-2" />
    </linearGradient>
    <radialGradient
       inkscape:collect="always"
       xlink:href="#linearGradient5296-1"
       id="radialGradient5306-7"
       cx="260.97522"
       cy="404.96677"
       fx="260.97522"
       fy="404.96677"
       r="80.647896"
       gradientTransform="matrix(1,0,0,0.27095732,0,295.23807)"
       gradientUnits="userSpaceOnUse" />
    <linearGradient
       inkscape:collect="always"
       id="linearGradient5296-1">
      <stop
         style="stop-color:#000000;stop-opacity:1;"
         offset="0"
         id="stop5298-2" />
      <stop
         style="stop-color:#000000;stop-opacity:0;"
         offset="1"
         id="stop5300-6" />
    </linearGradient>
    <radialGradient
       inkscape:collect="always"
       xlink:href="#linearGradient5296-1"
       id="radialGradient5404"
       cx="260.97522"
       cy="404.96677"
       fx="260.97522"
       fy="404.96677"
       r="80.647896"
       gradientTransform="matrix(1,0,0,0.27095732,0,295.23807)"
       gradientUnits="userSpaceOnUse" />
    <radialGradient
       inkscape:collect="always"
       xlink:href="#linearGradient5296-1"
       id="radialGradient5412"
       cx="260.97522"
       cy="404.96677"
       fx="260.97522"
       fy="404.96677"
       r="80.647896"
       gradientTransform="matrix(1,0,0,0.27095732,0,295.23807)"
       gradientUnits="userSpaceOnUse" />
    <radialGradient
       inkscape:collect="always"
       xlink:href="#linearGradient5296-1"
       id="radialGradient5420"
       cx="260.97522"
       cy="404.96677"
       fx="260.97522"
       fy="404.96677"
       r="80.647896"
       gradientTransform="matrix(1,0,0,0.27095732,0,295.23807)"
       gradientUnits="userSpaceOnUse" />
    <radialGradient
       inkscape:collect="always"
       xlink:href="#linearGradient5296-1"
       id="radialGradient5428"
       cx="260.97522"
       cy="404.96677"
       fx="260.97522"
       fy="404.96677"
       r="80.647896"
       gradientTransform="matrix(1,0,0,0.27095732,0,295.23807)"
       gradientUnits="userSpaceOnUse" />
    <radialGradient
       inkscape:collect="always"
       xlink:href="#linearGradient5296-1"
       id="radialGradient5436"
       cx="260.97522"
       cy="404.96677"
       fx="260.97522"
       fy="404.96677"
       r="80.647896"
       gradientTransform="matrix(1,0,0,0.27095732,0,295.23807)"
       gradientUnits="userSpaceOnUse" />
    <radialGradient
       inkscape:collect="always"
       xlink:href="#linearGradient5296-1"
       id="radialGradient5444"
       cx="260.97522"
       cy="404.96677"
       fx="260.97522"
       fy="404.96677"
       r="80.647896"
       gradientTransform="matrix(1,0,0,0.27095732,0,295.23807)"
       gradientUnits="userSpaceOnUse" />
    <radialGradient
       inkscape:collect="always"
       xlink:href="#linearGradient5296-1"
       id="radialGradient5452"
       cx="260.97522"
       cy="404.96677"
       fx="260.97522"
       fy="404.96677"
       r="80.647896"
       gradientTransform="matrix(1,0,0,0.27095732,0,295.23807)"
       gradientUnits="userSpaceOnUse" />
    <radialGradient
       inkscape:collect="always"
       xlink:href="#linearGradient5296-1"
       id="radialGradient5553"
       gradientUnits="userSpaceOnUse"
       gradientTransform="matrix(1,0,0,0.27095732,0,295.23807)"
       cx="260.97522"
       cy="404.96677"
       fx="260.97522"
       fy="404.96677"
       r="80.647896" />
    <radialGradient
       inkscape:collect="always"
       xlink:href="#linearGradient5296-1"
       id="radialGradient5555"
       gradientUnits="userSpaceOnUse"
       gradientTransform="matrix(1,0,0,0.27095732,0,295.23807)"
       cx="260.97522"
       cy="404.96677"
       fx="260.97522"
       fy="404.96677"
       r="80.647896" />
    <radialGradient
       inkscape:collect="always"
       xlink:href="#linearGradient5296-1"
       id="radialGradient5557"
       gradientUnits="userSpaceOnUse"
       gradientTransform="matrix(1,0,0,0.27095732,0,295.23807)"
       cx="260.97522"
       cy="404.96677"
       fx="260.97522"
       fy="404.96677"
       r="80.647896" />
    <radialGradient
       inkscape:collect="always"
       xlink:href="#linearGradient5296-1"
       id="radialGradient5559"
       gradientUnits="userSpaceOnUse"
       gradientTransform="matrix(1,0,0,0.27095732,0,295.23807)"
       cx="260.97522"
       cy="404.96677"
       fx="260.97522"
       fy="404.96677"
       r="80.647896" />
    <radialGradient
       inkscape:collect="always"
       xlink:href="#linearGradient5296-1"
       id="radialGradient5561"
       gradientUnits="userSpaceOnUse"
       gradientTransform="matrix(1,0,0,0.27095732,0,295.23807)"
       cx="260.97522"
       cy="404.96677"
       fx="260.97522"
       fy="404.96677"
       r="80.647896" />
    <radialGradient
       inkscape:collect="always"
       xlink:href="#linearGradient5296-1"
       id="radialGradient5563"
       gradientUnits="userSpaceOnUse"
       gradientTransform="matrix(1,0,0,0.27095732,0,295.23807)"
       cx="260.97522"
       cy="404.96677"
       fx="260.97522"
       fy="404.96677"
       r="80.647896" />
    <radialGradient
       inkscape:collect="always"
       xlink:href="#linearGradient5296-1"
       id="radialGradient5565"
       gradientUnits="userSpaceOnUse"
       gradientTransform="matrix(1,0,0,0.27095732,0,295.23807)"
       cx="260.97522"
       cy="404.96677"
       fx="260.97522"
       fy="404.96677"
       r="80.647896" />
    <radialGradient
       inkscape:collect="always"
       xlink:href="#linearGradient5296-1"
       id="radialGradient5574"
       gradientUnits="userSpaceOnUse"
       gradientTransform="matrix(1,0,0,0.27095732,0,295.23807)"
       cx="260.97522"
       cy="404.96677"
       fx="260.97522"
       fy="404.96677"
       r="80.647896" />
    <radialGradient
       inkscape:collect="always"
       xlink:href="#linearGradient5296-1"
       id="radialGradient5607"
       gradientUnits="userSpaceOnUse"
       gradientTransform="matrix(1,0,0,0.27095732,0,295.23807)"
       cx="260.97522"
       cy="404.96677"
       fx="260.97522"
       fy="404.96677"
       r="80.647896" />
    <radialGradient
       inkscape:collect="always"
       xlink:href="#linearGradient5296-1"
       id="radialGradient5626"
       gradientUnits="userSpaceOnUse"
       gradientTransform="matrix(1,0,0,0.27095732,0,295.23807)"
       cx="260.97522"
       cy="404.96677"
       fx="260.97522"
       fy="404.96677"
       r="80.647896" />
    <linearGradient
       inkscape:collect="always"
       xlink:href="#linearGradient6021"
       id="linearGradient6027"
       x1="209.35811"
       y1="292.95883"
       x2="211.03902"
       y2="184.77147"
       gradientUnits="userSpaceOnUse"
       gradientTransform="translate(-57.275649,-5.6568543)" />
    <linearGradient
       inkscape:collect="always"
       xlink:href="#linearGradient6029"
       id="linearGradient6035"
       x1="209.35811"
       y1="292.95883"
       x2="211.03902"
       y2="184.77147"
       gradientUnits="userSpaceOnUse"
       gradientTransform="translate(-57.275649,-5.6568543)" />
    <linearGradient
       inkscape:collect="always"
       xlink:href="#linearGradient6029-2"
       id="linearGradient6035-8"
       x1="209.35811"
       y1="292.95883"
       x2="211.03902"
       y2="184.77147"
       gradientUnits="userSpaceOnUse"
       gradientTransform="translate(-57.275649,-5.6568543)" />
    <linearGradient
       inkscape:collect="always"
       id="linearGradient6029-2">
      <stop
         style="stop-color:#000000;stop-opacity:1;"
         offset="0"
         id="stop6031-7" />
      <stop
         style="stop-color:#000000;stop-opacity:0;"
         offset="1"
         id="stop6033-8" />
    </linearGradient>
    <linearGradient
       inkscape:collect="always"
       xlink:href="#linearGradient6021-2"
       id="linearGradient6027-0"
       x1="209.35811"
       y1="292.95883"
       x2="211.03902"
       y2="184.77147"
       gradientUnits="userSpaceOnUse"
       gradientTransform="translate(-57.275649,-5.6568543)" />
    <linearGradient
       inkscape:collect="always"
       id="linearGradient6021-2">
      <stop
         style="stop-color:#000000;stop-opacity:1;"
         offset="0"
         id="stop6023-0" />
      <stop
         style="stop-color:#000000;stop-opacity:0;"
         offset="1"
         id="stop6025-8" />
    </linearGradient>
    <linearGradient
       y2="184.77147"
       x2="211.03902"
       y1="292.95883"
       x1="209.35811"
       gradientTransform="translate(-47.210453,-7.100389)"
       gradientUnits="userSpaceOnUse"
       id="linearGradient6130"
       xlink:href="#linearGradient6029-2"
       inkscape:collect="always" />
    <linearGradient
       y2="184.77147"
       x2="211.03902"
       y1="292.95883"
       x1="209.35811"
       gradientTransform="translate(-47.210453,-7.100389)"
       gradientUnits="userSpaceOnUse"
       id="linearGradient6132"
       xlink:href="#linearGradient6021-2"
       inkscape:collect="always" />
    <linearGradient
       y2="184.77147"
       x2="211.03902"
       y1="292.95883"
       x1="209.35811"
       gradientTransform="translate(-47.210453,-7.100389)"
       gradientUnits="userSpaceOnUse"
       id="linearGradient6130-9"
       xlink:href="#linearGradient6029-2-2"
       inkscape:collect="always" />
    <linearGradient
       inkscape:collect="always"
       id="linearGradient6029-2-2">
      <stop
         style="stop-color:#000000;stop-opacity:1;"
         offset="0"
         id="stop6031-7-8" />
      <stop
         style="stop-color:#000000;stop-opacity:0;"
         offset="1"
         id="stop6033-8-2" />
    </linearGradient>
    <linearGradient
       y2="184.77147"
       x2="211.03902"
       y1="292.95883"
       x1="209.35811"
       gradientTransform="translate(-47.210453,-7.100389)"
       gradientUnits="userSpaceOnUse"
       id="linearGradient6132-0"
       xlink:href="#linearGradient6021-2-5"
       inkscape:collect="always" />
    <linearGradient
       inkscape:collect="always"
       id="linearGradient6021-2-5">
      <stop
         style="stop-color:#000000;stop-opacity:1;"
         offset="0"
         id="stop6023-0-5" />
      <stop
         style="stop-color:#000000;stop-opacity:0;"
         offset="1"
         id="stop6025-8-2" />
    </linearGradient>
    <linearGradient
       y2="184.77147"
       x2="211.03902"
       y1="292.95883"
       x1="209.35811"
       gradientTransform="translate(-65.948778,-6.0397189)"
       gradientUnits="userSpaceOnUse"
       id="linearGradient6188"
       xlink:href="#linearGradient6029-2-2"
       inkscape:collect="always" />
    <linearGradient
       y2="184.77147"
       x2="211.03902"
       y1="292.95883"
       x1="209.35811"
       gradientTransform="translate(-65.948778,-6.0397189)"
       gradientUnits="userSpaceOnUse"
       id="linearGradient6190"
       xlink:href="#linearGradient6021-2-5"
       inkscape:collect="always" />
    <radialGradient
       inkscape:collect="always"
       xlink:href="#linearGradient6596"
       id="radialGradient6602"
       cx="284"
       cy="293.36218"
       fx="284"
       fy="293.36218"
       r="79.5"
       gradientTransform="matrix(-1.0749602,0.03003615,-0.01215443,-0.43499358,592.85435,412.44258)"
       gradientUnits="userSpaceOnUse" />
    <filter
       id="filter6604"
       inkscape:label="Invert"
       x="0"
       y="0"
       width="1"
       height="1"
       inkscape:menu="Color"
       inkscape:menu-tooltip="Invert colors"
       color-interpolation-filters="sRGB">
      <feColorMatrix
         id="feColorMatrix6606"
         type="saturate"
         values="1"
         result="fbSourceGraphic" />
      <feColorMatrix
         id="feColorMatrix6608"
         in="fbSourceGraphic"
         values="-1 0 0 0 1 0 -1 0 0 1 0 0 -1 0 1 0 0 0 1 0 " />
    </filter>
    <linearGradient
       inkscape:collect="always"
       xlink:href="#linearGradient5338-88"
       id="linearGradient6909-4"
       gradientUnits="userSpaceOnUse"
       gradientTransform="translate(-6.0606602,8.2426407)"
       x1="334.57562"
       y1="372.44812"
       x2="182.10918"
       y2="334.97147" />
    <linearGradient
       id="linearGradient5338-88">
      <stop
         style="stop-color:#000000;stop-opacity:1;"
         offset="0"
         id="stop5340-2" />
      <stop
         style="stop-color:#000000;stop-opacity:0;"
         offset="1"
         id="stop5342-4" />
    </linearGradient>
    <linearGradient
       inkscape:collect="always"
       xlink:href="#linearGradient5338-1"
       id="linearGradient6909-5"
       gradientUnits="userSpaceOnUse"
       gradientTransform="translate(-6.0606602,8.2426407)"
       x1="334.57562"
       y1="372.44812"
       x2="182.10918"
       y2="334.97147" />
    <linearGradient
       id="linearGradient5338-1">
      <stop
         style="stop-color:#000000;stop-opacity:1;"
         offset="0"
         id="stop5340-7" />
      <stop
         style="stop-color:#000000;stop-opacity:0;"
         offset="1"
         id="stop5342-1" />
    </linearGradient>
    <linearGradient
       id="linearGradient5338-3">
      <stop
         style="stop-color:#000000;stop-opacity:1;"
         offset="0"
         id="stop5340-22" />
      <stop
         style="stop-color:#000000;stop-opacity:0;"
         offset="1"
         id="stop5342-16" />
    </linearGradient>
    <linearGradient
       id="linearGradient5338-1-9">
      <stop
         style="stop-color:#000000;stop-opacity:1;"
         offset="0"
         id="stop5340-7-5" />
      <stop
         style="stop-color:#000000;stop-opacity:0;"
         offset="1"
         id="stop5342-1-4" />
    </linearGradient>
    <linearGradient
       id="linearGradient5338-7">
      <stop
         style="stop-color:#000000;stop-opacity:1;"
         offset="0"
         id="stop5340-87" />
      <stop
         style="stop-color:#000000;stop-opacity:0;"
         offset="1"
         id="stop5342-8" />
    </linearGradient>
    <linearGradient
       id="linearGradient5338-1-7">
      <stop
         style="stop-color:#000000;stop-opacity:1;"
         offset="0"
         id="stop5340-7-2" />
      <stop
         style="stop-color:#000000;stop-opacity:0;"
         offset="1"
         id="stop5342-1-5" />
    </linearGradient>
    <radialGradient
       inkscape:collect="always"
       xlink:href="#linearGradient5338-1-7"
       id="radialGradient3937"
       cx="197.01379"
       cy="251.62614"
       fx="197.01379"
       fy="251.62614"
       r="80.044289"
       gradientTransform="matrix(0.00535259,2.6730526,-1.2472344,0.00249736,713.76937,-245.08218)"
       gradientUnits="userSpaceOnUse" />
    <filter
       id="filter3963"
       inkscape:label="Invert"
       x="0"
       y="0"
       width="1"
       height="1"
       inkscape:menu="Color"
       inkscape:menu-tooltip="Invert colors"
       color-interpolation-filters="sRGB">
      <feColorMatrix
         id="feColorMatrix3965"
         type="saturate"
         values="1"
         result="fbSourceGraphic" />
      <feColorMatrix
         id="feColorMatrix3967"
         in="fbSourceGraphic"
         values="-1 0 0 0 1 0 -1 0 0 1 0 0 -1 0 1 0 0 0 1 0 " />
    </filter>
    <radialGradient
       inkscape:collect="always"
       xlink:href="#linearGradient5338-1-7-2"
       id="radialGradient3937-8"
       cx="197.01379"
       cy="251.62614"
       fx="197.01379"
       fy="251.62614"
       r="80.044289"
       gradientTransform="matrix(0.00535259,2.6730526,-1.2472344,0.00249736,555.37745,-183.91744)"
       gradientUnits="userSpaceOnUse" />
    <linearGradient
       id="linearGradient5338-1-7-2">
      <stop
         style="stop-color:#000000;stop-opacity:1;"
         offset="0"
         id="stop5340-7-2-7" />
      <stop
         style="stop-color:#000000;stop-opacity:0;"
         offset="1"
         id="stop5342-1-5-7" />
    </linearGradient>
    <filter
       id="filter3963-1"
       inkscape:label="Invert"
       x="0"
       y="0"
       width="1"
       height="1"
       inkscape:menu="Color"
       inkscape:menu-tooltip="Invert colors"
       color-interpolation-filters="sRGB">
      <feColorMatrix
         id="feColorMatrix3965-2"
         type="saturate"
         values="1"
         result="fbSourceGraphic" />
      <feColorMatrix
         id="feColorMatrix3967-6"
         in="fbSourceGraphic"
         values="-1 0 0 0 1 0 -1 0 0 1 0 0 -1 0 1 0 0 0 1 0 " />
    </filter>
    <radialGradient
       r="80.044289"
       fy="251.62614"
       fx="197.01379"
       cy="251.62614"
       cx="197.01379"
       gradientTransform="matrix(9.3562212e-4,0.39389499,-1.2472334,0.00296254,554.06851,164.73026)"
       gradientUnits="userSpaceOnUse"
       id="radialGradient3989"
       xlink:href="#linearGradient6596"
       inkscape:collect="always" />
    <radialGradient
       r="80.044289"
       fy="251.62614"
       fx="197.01379"
       cy="251.62614"
       cx="197.01379"
       gradientTransform="matrix(9.3562212e-4,0.39389499,-1.2472334,0.00296254,544.59821,164.46898)"
       gradientUnits="userSpaceOnUse"
       id="radialGradient3989-7"
       xlink:href="#linearGradient6596-4"
       inkscape:collect="always" />
    <linearGradient
       inkscape:collect="always"
       id="linearGradient6596-4">
      <stop
         style="stop-color:#000000;stop-opacity:1;"
         offset="0"
         id="stop6598-0" />
      <stop
         style="stop-color:#000000;stop-opacity:0;"
         offset="1"
         id="stop6600-9" />
    </linearGradient>
    <filter
       id="filter3963-1-4"
       inkscape:label="Invert"
       x="0"
       y="0"
       width="1"
       height="1"
       inkscape:menu="Color"
       inkscape:menu-tooltip="Invert colors"
       color-interpolation-filters="sRGB">
      <feColorMatrix
         id="feColorMatrix3965-2-8"
         type="saturate"
         values="1"
         result="fbSourceGraphic" />
      <feColorMatrix
         id="feColorMatrix3967-6-8"
         in="fbSourceGraphic"
         values="-1 0 0 0 1 0 -1 0 0 1 0 0 -1 0 1 0 0 0 1 0 " />
    </filter>
    <filter
       id="filter4087"
       inkscape:label="Invert"
       x="0"
       y="0"
       width="1"
       height="1"
       inkscape:menu="Color"
       inkscape:menu-tooltip="Invert colors"
       color-interpolation-filters="sRGB">
      <feColorMatrix
         id="feColorMatrix4089"
         type="saturate"
         values="1"
         result="fbSourceGraphic" />
      <feColorMatrix
         id="feColorMatrix4091"
         in="fbSourceGraphic"
         values="-1 0 0 0 1 0 -1 0 0 1 0 0 -1 0 1 0 0 0 1 0 "
         result="fbSourceGraphic" />
      <feColorMatrix
         result="fbSourceGraphicAlpha"
         in="fbSourceGraphic"
         values="0 0 0 -1 0 0 0 0 -1 0 0 0 0 -1 0 0 0 0 1 0"
         id="feColorMatrix4093" />
      <feColorMatrix
         id="feColorMatrix4095"
         type="saturate"
         values="1"
         result="fbSourceGraphic"
         in="fbSourceGraphic" />
      <feColorMatrix
         id="feColorMatrix4097"
         in="fbSourceGraphic"
         values="-1 0 0 0 1 0 -1 0 0 1 0 0 -1 0 1 0 0 0 1 0 " />
    </filter>
  </defs>
  <sodipodi:namedview
     id="base"
     pagecolor="#ffffff"
     bordercolor="#666666"
     borderopacity="1.0"
     inkscape:pageopacity="0.0"
     inkscape:pageshadow="2"
     inkscape:zoom="5.6568542"
     inkscape:cx="224.91668"
     inkscape:cy="790.91068"
     inkscape:document-units="px"
     inkscape:current-layer="layer1"
     showgrid="false"
     inkscape:window-width="1680"
     inkscape:window-height="1024"
     inkscape:window-x="-4"
     inkscape:window-y="-4"
     inkscape:window-maximized="1"
     showguides="true"
     inkscape:guide-bbox="true" />
  <metadata
     id="metadata3000">
    <rdf:RDF>
      <cc:Work
         rdf:about="">
        <dc:format>image/svg+xml</dc:format>
        <dc:type
           rdf:resource="http://purl.org/dc/dcmitype/StillImage" />
        <dc:title />
      </cc:Work>
    </rdf:RDF>
  </metadata>
  <g
     inkscape:label="Layer 1"
     inkscape:groupmode="layer"
     id="layer1">
    <path
       style="fill:#ffffff;fill-opacity:1;fill-rule:nonzero;stroke:#000000;stroke-width:0;stroke-linecap:butt;stroke-linejoin:round;stroke-miterlimit:4;stroke-opacity:1;stroke-dasharray:none;stroke-dashoffset:0"
       d="m 136.08363,596.59393 c -0.66073,-0.4414 -1.48043,-1.35622 -1.82155,-2.03293 -0.58357,-1.15768 -0.61491,-4.08608 -0.53033,-49.55294 0.0896,-48.18435 0.092,-48.32535 0.81884,-49.29885 0.40093,-0.53697 1.16831,-1.30433 1.70531,-1.70526 l 0.97635,-0.72895 101.06441,0 101.06441,0 0.97636,0.72895 c 0.53699,0.40093 1.30438,1.16829 1.7053,1.70526 0.72687,0.9735 0.72921,1.1145 0.81884,49.29885 0.0846,45.46686 0.0532,48.39526 -0.53033,49.55294 -0.34112,0.67671 -1.16082,1.59153 -1.82155,2.03293 l -1.20133,0.80254 -101.0117,0 -101.01169,0 -1.20134,-0.80254 z m 25.53373,-15.46091 c 1.80209,-2.46641 2.86493,-11.20178 2.86065,-23.5113 -0.004,-12.36615 -0.94444,-20.09537 -2.83379,-23.29759 -0.59944,-1.01597 -0.66588,-1.57196 -0.47158,-3.94644 l 0.22616,-2.76385 1.59099,-0.40527 c 0.87505,-0.2229 1.95074,-0.63019 2.39044,-0.90509 1.62596,-1.01656 1.65929,-3.52669 0.0664,-5.00439 l -1.04266,-0.96729 -10e-4,-6.98766 c -0.001,-6.49881 -0.0538,-7.0738 -0.75186,-8.21885 -1.30772,-2.14517 -2.68442,-2.87959 -5.45126,-2.90805 -2.75603,-0.0283 -4.98966,1.29697 -6.20755,3.68321 -0.58796,1.152 -0.66949,2.13606 -0.66949,8.08084 l 0,6.76911 -0.88388,0.69526 c -0.70106,0.55146 -0.88388,1.01373 -0.88388,2.23493 0,1.80434 0.97299,2.79535 3.3754,3.4379 l 1.45791,0.38993 -0.47991,3.03584 c -0.26396,1.6697 -0.86022,4.94502 -1.32503,7.27847 -1.34101,6.73215 -1.72437,12.39795 -1.51908,22.45064 0.24576,12.03421 1.30524,19.21937 3.12143,21.16882 0.65534,0.70342 1.01646,0.76847 3.75556,0.67648 2.76621,-0.0929 3.08683,-0.17885 3.67631,-0.98565 z m 98.47336,-0.22445 c 2.17746,-1.03328 2.40082,-1.9074 2.53996,-9.94021 l 0.12401,-7.15946 -1.2394,0 c -0.68167,0 -1.30633,0.19888 -1.38814,0.44194 -0.11402,0.33877 -0.29511,0.32108 -0.7757,-0.0758 -0.96388,-0.79592 -4.20038,-0.67759 -5.40104,0.19748 -3.38851,2.4696 -3.36478,9.41467 0.0393,11.49038 1.33486,0.81398 3.7491,0.8766 5.1842,0.13448 0.93955,-0.48586 1.04311,-0.48473 1.04311,0.0113 0,0.30293 -0.22742,1.09504 -0.50537,1.76027 -0.37174,0.88972 -0.81576,1.29202 -1.67937,1.52161 -1.15283,0.30647 -3.20389,-0.0232 -3.38948,-0.54472 -0.2654,-0.7459 -0.71854,-1.08251 -1.76202,-1.30889 -1.05098,-0.22802 -1.14905,-0.17553 -1.14905,0.61501 0,1.0192 1.20042,2.66049 2.25855,3.08802 1.28413,0.51885 4.80045,0.38541 6.10049,-0.2315 l 0,10e-6 z m -20.46349,-4.96194 c 0.53214,-0.39663 1.26975,-1.23727 1.63913,-1.86808 0.56238,-0.96039 0.59113,-1.19788 0.17678,-1.46024 -0.92902,-0.58821 -1.77921,-0.32471 -2.94681,0.91331 -0.84862,0.8998 -1.46766,1.23744 -2.26877,1.23744 -1.33184,0 -3.10625,-1.506 -3.43669,-2.91682 l -0.22773,-0.97227 4.63453,0 4.63452,0 0,-1.3393 c 0,-1.87215 -1.33593,-4.33164 -2.81403,-5.18072 -1.62933,-0.93595 -4.40987,-0.93595 -6.0392,0 -1.70345,0.97853 -2.81402,3.29313 -2.81402,5.86481 0,3.1826 1.05079,5.1179 3.35875,6.18596 1.51737,0.70219 4.88207,0.44636 6.10354,-0.46409 l 0,0 z m 33.55981,0.56664 c 2.02449,-0.76705 3.86507,-3.28476 2.86514,-3.91917 -0.88864,-0.56381 -1.7552,-0.2844 -2.90762,0.93752 -1.31298,1.39217 -2.68383,1.61601 -4.04744,0.6609 -0.68292,-0.47834 -1.80909,-2.42331 -1.80909,-3.12442 0,-0.10347 2.08799,-0.18813 4.63998,-0.18813 l 4.63997,0 -0.16247,-1.95921 c -0.17202,-2.07439 -0.85499,-3.30454 -2.52823,-4.55379 -1.22789,-0.91675 -4.48066,-0.97346 -6.11317,-0.10658 -3.1501,1.67273 -3.96594,7.95591 -1.4048,10.81891 1.48185,1.6565 4.54338,2.29949 6.82773,1.43397 l 0,0 z m 23.59379,0.1625 c 0.33163,-0.12725 0.55924,-0.63089 0.55924,-1.23743 0,-0.858 -0.14385,-1.02284 -0.89263,-1.02284 -1.23933,0 -1.58224,-1.11605 -1.58224,-5.14954 l 0,-3.33574 1.06066,0 c 0.94281,0 1.06066,-0.11785 1.06066,-1.06066 0,-0.94281 -0.11785,-1.06066 -1.06066,-1.06066 -1.06066,0 -1.06066,0 -1.06066,-2.12132 0,-1.16672 -0.0851,-2.12132 -0.18922,-2.12132 -0.10406,0 -0.58136,0.25695 -1.06066,0.57099 -0.70692,0.4632 -0.87144,0.86368 -0.87144,2.12132 0,1.41799 -0.0755,1.55033 -0.88389,1.55033 -0.74639,0 -0.88388,0.165 -0.88388,1.06066 0,0.89567 0.13749,1.06066 0.88388,1.06066 l 0.88389,0 0.005,4.68459 c 0.003,2.57652 0.12679,4.87552 0.27514,5.10891 0.54171,0.85218 2.63445,1.38258 3.75639,0.95205 l 10e-6,0 z m 9.32079,-0.32605 c 2.42246,-0.96928 3.31891,-3.84471 1.75667,-5.63466 -0.5209,-0.59681 -1.83289,-1.24436 -3.8007,-1.87587 -2.49167,-0.79962 -3.0245,-1.10026 -3.11811,-1.75935 -0.0834,-0.5875 0.13013,-0.88733 0.81851,-1.14905 1.5206,-0.57813 2.29305,-0.41506 3.43278,0.72467 0.88248,0.88248 1.26611,1.03766 2.10807,0.85274 0.85526,-0.18785 0.99015,-0.35529 0.79791,-0.99041 -0.63221,-2.08873 -3.23029,-3.31705 -6.10443,-2.88604 -2.86994,0.43037 -4.39426,2.93638 -3.18642,5.23853 0.53604,1.02169 1.05444,1.31598 4.16293,2.36324 3.09579,1.04299 3.79848,1.82783 2.55219,2.85058 -1.18678,0.97392 -3.05717,0.89113 -4.13115,-0.18286 -0.4773,-0.47729 -0.86782,-1.03414 -0.86782,-1.23743 0,-0.46168 -1.41026,-0.4745 -2.12132,-0.0193 -0.46301,0.29642 -0.44057,0.5089 0.17678,1.67396 1.25194,2.36266 4.50257,3.24021 7.52411,2.03122 l 0,0 z m -97.85699,-0.87356 0,-1.06066 -5.3033,0 -5.3033,0 0,-2.82842 0,-2.82843 4.77297,0 4.77297,0 0,-1.23744 0,-1.23743 -4.77297,0 -4.77297,0 0,-2.47488 0,-2.47487 5.12652,0 5.12652,0 0,-1.06066 0,-1.06066 -6.36396,0 -6.36396,0 0,8.66206 0,8.66205 6.54074,0 6.54074,0 0,-1.06066 z m 4.95107,-3.09359 c 0.001,-3.51759 0.10869,-4.33035 0.70191,-5.3033 0.56185,-0.92151 0.92915,-1.14798 1.85483,-1.14363 2.13066,0.01 2.20359,0.18645 2.33002,5.63785 l 0.11511,4.96333 1.21071,0 1.21072,0 0,-4.37173 c 0,-3.88742 0.0812,-4.47494 0.73276,-5.3033 0.5327,-0.67721 1.05816,-0.93157 1.9245,-0.93157 1.97519,0 2.29248,0.84277 2.29248,6.08908 l 0,4.51752 1.23744,0 1.23744,0 0,-4.78432 c 0,-5.72946 -0.37729,-6.98704 -2.34253,-7.80817 -1.62643,-0.67957 -3.28866,-0.40887 -4.68042,0.76222 -0.86666,0.72924 -1.06716,0.78143 -1.24288,0.32352 -0.32042,-0.83502 -2.63443,-1.66465 -3.95305,-1.41728 -0.62943,0.11808 -1.55831,0.54026 -2.06417,0.93817 l -0.91975,0.72348 0,-0.73277 c 0,-0.57848 -0.22332,-0.73277 -1.06066,-0.73277 l -1.06066,0 0,6.36396 0,6.36396 1.23744,0 1.23744,0 0.001,-4.15425 -9e-5,0 z m 33.29597,-0.3109 c 0.14441,-4.33756 0.17613,-4.48878 1.10996,-5.29203 0.78093,-0.67172 1.12777,-0.7636 1.84843,-0.4896 0.76141,0.28948 0.94242,0.21593 1.2773,-0.51905 0.54042,-1.18609 0.18809,-1.85222 -1.13315,-2.14241 -0.8606,-0.18902 -1.36416,-0.0699 -2.14521,0.50757 -0.82299,0.60847 -1.02062,0.64984 -1.02062,0.21367 0,-0.38249 -0.36243,-0.54092 -1.23743,-0.54092 l -1.23744,0 0,6.36396 0,6.36396 1.19476,0 1.19475,0 0.14865,-4.46515 z m 34.9385,0.0654 c 0,-4.05295 0.0627,-4.47258 0.79549,-5.32446 0.96666,-1.12373 2.76458,-1.28979 3.80177,-0.35115 0.63849,0.57784 0.70604,1.09035 0.70604,5.35714 l 0,4.71817 1.23744,0 1.23743,0 0,-5.33049 0,-5.3305 -1.00746,-1.00746 c -1.42931,-1.42932 -3.25488,-1.69441 -5.40702,-0.78516 -1.37364,0.58035 -1.71724,0.62549 -1.71724,0.22561 0,-0.31976 -0.38224,-0.49992 -1.06066,-0.49992 l -1.06066,0 0,6.36396 0,6.36396 1.23743,0 1.23744,0 0,-4.3997 z m -58.13475,-18.07868 c 2.65947,-1.255 4.488,-4.10712 7.40557,-11.55113 0.74308,-1.89593 1.44712,-3.44715 1.56453,-3.44715 0.11742,0 0.51987,0.56893 0.89434,1.26429 1.06678,1.98088 4.49968,4.93614 6.80395,5.85727 1.67068,0.66786 2.69253,0.81538 5.58069,0.80569 3.82282,-0.0128 5.73302,-0.59361 8.23899,-2.50501 1.26254,-0.96299 1.27578,-0.95918 2.19045,0.63048 0.18122,0.31494 0.87611,0.83202 1.54419,1.14904 1.03657,0.49189 2.72593,0.57642 11.5196,0.57642 l 10.30488,0 0.80448,-0.86804 0.80447,-0.86805 2.18928,0.88429 c 1.62465,0.65623 2.84894,0.88597 4.74711,0.8908 8.68651,0.0221 11.10179,-0.081 11.927,-0.50899 0.72931,-0.37828 1.09143,-0.37368 2.07068,0.0263 1.50229,0.6136 4.82952,0.67162 6.52007,0.11369 1.85542,-0.61235 2.7126,-1.86398 2.77273,-4.04869 l 0.0498,-1.80848 0.22646,1.86963 c 0.18,1.48601 0.44183,2.05049 1.27605,2.75116 1.56115,1.31121 2.56312,1.62256 5.23207,1.62583 3.98377,0.005 5.07354,-0.80528 5.52548,-4.10777 l 0.24431,-1.78529 0.28091,1.76776 c 0.48588,3.05768 2.30503,4.15501 6.84763,4.13054 2.2533,-0.0121 3.22874,-0.39847 4.68635,-1.85608 0.62223,-0.62223 0.6824,-1.21401 0.67156,-6.60549 -0.0134,-6.68686 -0.44952,-12.43841 -1.11221,-14.66926 -0.62879,-2.11674 -3.16521,-4.56666 -5.71595,-5.52101 -2.69962,-1.01006 -6.84011,-1.0321 -9.00878,-0.0479 -1.46628,0.66541 -1.57658,0.66876 -2.65165,0.0806 -1.631,-0.89228 -14.71753,-0.91584 -16.32026,-0.0294 -0.89151,0.49309 -1.19503,0.51336 -1.94454,0.12984 -2.48186,-1.26993 -7.00881,-0.91338 -8.36489,0.65884 -0.81656,0.94671 -0.99506,1.96665 -1.43035,8.17297 l -0.27277,3.88909 -0.18303,-5.01249 c -0.2028,-5.55351 -0.48259,-6.31235 -2.83536,-7.69002 -1.62416,-0.95102 -6.16122,-1.00113 -7.56168,-0.0835 -1.6193,1.061 -1.90872,2.34653 -2.18505,9.70528 l -0.25508,6.79303 -4.36793,0 -4.36792,0 0,-10.93302 0,-10.93303 -0.926,-1.10049 c -1.49763,-1.77982 -2.78428,-2.26227 -6.05443,-2.27014 -4.67623,-0.0113 -5.54995,1.10395 -5.94994,7.59458 l -0.20918,3.39433 -2.711,-1.37119 c -4.42646,-2.23884 -9.11321,-2.43354 -13.24461,-0.55022 l -1.84076,0.83912 -1.68761,-0.87224 c -1.3344,-0.68969 -2.21909,-0.87224 -4.22696,-0.87224 -2.51737,0 -2.55022,0.0122 -3.79333,1.41304 -0.68968,0.77717 -1.59757,2.35178 -2.01753,3.49914 l -0.76356,2.08609 -0.42924,-1.17779 c -1.3208,-3.62421 -3.27694,-5.7165 -5.34452,-5.7165 l -1.01084,0 0.23099,-2.48539 c 0.21352,-2.29739 0.16691,-2.55509 -0.61625,-3.40678 -1.32228,-1.438 -3.6731,-2.32653 -6.2188,-2.35048 -3.59303,-0.0338 -4.57564,1.03896 -6.23061,6.80223 l -0.85543,2.97899 -1.09996,-3.54053 c -0.60498,-1.94729 -1.42401,-3.95249 -1.82007,-4.456 -0.96324,-1.22456 -2.84126,-1.79229 -5.83557,-1.76409 -4.54463,0.0428 -5.61063,0.96513 -7.29065,6.30807 l -1.16548,3.70653 -0.81067,-3.0538 c -1.09327,-4.11837 -1.70354,-5.28804 -3.22889,-6.18859 -1.77099,-1.04557 -5.80273,-1.10367 -7.52606,-0.10845 -1.68283,0.97182 -2.51392,2.72858 -2.23763,4.72986 0.22074,1.59894 4.63784,18.68637 6.33562,24.50916 1.03641,3.55454 1.90757,5.422 2.9831,6.39468 1.61139,1.45731 7.42311,1.38517 9.01668,-0.11191 0.90613,-0.85127 1.69313,-2.79065 3.24142,-7.98773 l 0.94796,-3.18198 1.13636,3.88908 c 1.92182,6.5772 2.68955,7.71687 5.55965,8.25306 1.96478,0.36706 5.32495,-0.0433 6.46357,-0.78934 0.97272,-0.63735 1.8065,-2.72583 3.58116,-8.97025 0.704,-2.47713 1.42151,-4.65502 1.59448,-4.83975 0.17297,-0.18473 0.31448,-0.25213 0.31448,-0.14977 0,0.10235 0.7955,2.29393 1.76777,4.87019 0.97227,2.57625 1.76777,4.97964 1.76777,5.34087 0,0.64914 -0.22366,0.7685 -2.2981,1.22634 -0.58336,0.12875 -1.57773,0.7316 -2.20971,1.33965 -1.02857,0.98965 -1.14823,1.31144 -1.14128,3.06914 0.004,1.13467 0.28174,2.56674 0.65679,3.39241 0.70973,1.56245 2.4843,3.24896 3.69372,3.51042 2.74,0.59235 4.81094,0.38275 7.15698,-0.72436 l 0,0 z"
       id="path4054-5"
       inkscape:connector-curvature="0" />
    <g
       id="g5559">
      <path
         inkscape:connector-curvature="0"
         id="path5684"
         d="m 228.59814,242.84997 0,-7.49671 c 0,0 0.61383,-2.88864 3.50759,-2.95742 2.89376,-0.0688 3.24453,2.75109 3.24453,2.75109 l 0,7.90937 z"
         style="fill:none;stroke:#000000;stroke-width:0.21965533px;stroke-linecap:butt;stroke-linejoin:miter;stroke-opacity:1"
         inkscape:export-filename="C:\Documents and Settings\Justin\Desktop\WyoLum_v4_red.png"
         inkscape:export-xdpi="551.72998"
         inkscape:export-ydpi="551.72998" />
      <path
         transform="matrix(0.1599144,0,0,0.1470398,216.63327,183.74329)"
         d="m 124.45079,406.59692 a 27.930717,11.844039 0 1 1 -55.861435,0 27.930717,11.844039 0 1 1 55.861435,0 z"
         sodipodi:ry="11.844039"
         sodipodi:rx="27.930717"
         sodipodi:cy="406.59692"
         sodipodi:cx="96.520073"
         id="path5690"
         style="fill:#ffffff;fill-opacity:1;stroke:#000000;stroke-width:1;stroke-linecap:butt;stroke-linejoin:round;stroke-miterlimit:4;stroke-opacity:1;stroke-dasharray:none;stroke-dashoffset:0"
         sodipodi:type="arc"
         inkscape:export-filename="C:\Documents and Settings\Justin\Desktop\WyoLum_v4_red.png"
         inkscape:export-xdpi="551.72998"
         inkscape:export-ydpi="551.72998" />
      <path
         transform="matrix(0.1599144,0,0,0.1470398,216.67078,184.4454)"
         d="m 124.45079,406.59692 a 27.930717,11.844039 0 1 1 -55.861435,0 27.930717,11.844039 0 1 1 55.861435,0 z"
         sodipodi:ry="11.844039"
         sodipodi:rx="27.930717"
         sodipodi:cy="406.59692"
         sodipodi:cx="96.520073"
         id="path5690-1"
         style="fill:#a6a6a6;fill-opacity:1;stroke:#000000;stroke-width:1;stroke-linecap:butt;stroke-linejoin:round;stroke-miterlimit:4;stroke-opacity:1;stroke-dasharray:none;stroke-dashoffset:0"
         sodipodi:type="arc"
         inkscape:export-filename="C:\Documents and Settings\Justin\Desktop\WyoLum_v4_red.png"
         inkscape:export-xdpi="551.72998"
         inkscape:export-ydpi="551.72998" />
      <path
         inkscape:transform-center-x="5.6568535"
         inkscape:connector-curvature="0"
         id="path5308-1"
         d="m 203.21841,283.29493 c -1.24671,-0.98066 -1.89593,-2.30813 -2.18145,-4.46045 -0.21546,-1.62427 -0.14828,-1.8712 0.79699,-2.92913 0.8532,-0.9549 1.35531,-1.18637 2.89427,-1.33425 2.99637,-0.28791 2.98597,-0.55492 -0.3648,-9.36106 -1.57304,-4.13408 -2.97041,-7.63768 -3.10527,-7.78577 -0.13487,-0.14809 -1.17886,3.19299 -2.31998,7.42462 -1.14112,4.23163 -2.35862,8.27294 -2.70555,8.98068 -0.75329,1.53672 -2.0201,2.07195 -4.90395,2.07195 -3.5031,0 -3.78564,-0.45053 -6.54087,-10.42982 -1.67349,-6.06131 -1.62598,-5.91128 -1.81308,-5.72418 -0.0895,0.0895 -1.00583,3.19562 -2.03628,6.90247 -1.03045,3.70686 -2.14425,7.15289 -2.47512,7.65786 -0.79488,1.21314 -1.90469,1.59367 -4.6479,1.59367 -3.77847,0 -3.83201,-0.0905 -7.01012,-11.84403 -5.08736,-18.81451 -5.23724,-19.48409 -4.66694,-20.84899 0.652,-1.56048 2.15049,-2.30876 4.62343,-2.30876 3.19438,0 3.89577,0.56793 4.91691,3.98128 0.4793,1.60215 1.23183,4.54378 1.6723,6.53693 0.44047,1.99316 0.89891,3.62392 1.01875,3.62392 0.11985,0 0.88715,-2.42626 1.70512,-5.39168 1.7869,-6.47814 2.22205,-7.41152 3.80785,-8.16773 1.47014,-0.70106 5.56701,-0.77631 6.85484,-0.1259 1.01723,0.51374 1.82188,2.50533 3.52937,8.73557 0.61287,2.23622 1.2036,4.30451 1.31273,4.59619 0.10913,0.29168 0.87456,-2.13292 1.70095,-5.388 1.59101,-6.26687 2.14651,-7.5198 3.57473,-8.06281 2.36987,-0.90102 5.95696,-0.0798 7.06974,1.61848 0.59384,0.90632 0.59508,1.07342 0.0245,3.2999 -0.33054,1.28989 -0.59965,2.46457 -0.59802,2.61041 0.002,0.14584 0.70856,0.26517 1.57095,0.26517 3.19971,0 3.82892,0.71544 6.06335,6.89429 l 1.15068,3.18198 0.51796,-1.23744 c 0.28488,-0.68059 0.89429,-2.42099 1.35424,-3.86755 0.52598,-1.65421 1.24533,-3.06446 1.93869,-3.8007 0.99887,-1.06066 1.29266,-1.17058 3.12854,-1.17058 2.37975,0 4.17438,0.74633 4.73073,1.96737 l 0.3976,0.87265 1.47701,-1.06995 c 5.08606,-3.68432 13.7032,-2.39681 17.31333,2.58684 l 1.01853,1.40603 0,-5.3677 c 0,-7.85463 0.42211,-8.52697 5.35351,-8.52697 2.2686,0 2.56679,0.0877 3.51252,1.03346 l 1.03346,1.03347 0,11.69446 0,11.69445 6.01041,0 6.01041,0 0,-7.08242 c 0,-9.72808 0.25961,-10.24169 5.17673,-10.24169 2.07322,0 2.4051,0.10282 3.33574,1.03346 0.83718,0.83718 1.04165,1.35759 1.07654,2.74004 0.0237,0.93862 0.14301,4.49081 0.26517,7.89376 0.20959,5.83898 0.26203,6.19291 0.93176,6.28892 0.39032,0.0559 1.02672,-0.12979 1.41422,-0.41275 0.65401,-0.47758 0.71721,-1.04266 0.88131,-7.87991 0.22396,-9.3314 0.40166,-9.66352 5.17036,-9.66352 2.07997,0 2.41097,0.10231 3.34153,1.03287 0.96026,0.96027 1.06399,0.98907 1.47541,0.40967 0.80876,-1.13899 1.96461,-1.45068 5.46525,-1.47379 1.90441,-0.0126 4.8149,-0.0442 6.46776,-0.0702 2.49707,-0.0393 3.26341,0.0881 4.5323,0.75384 l 1.5271,0.80116 1.64977,-0.79864 c 4.42002,-2.13969 10.4925,-0.60059 12.39285,3.14103 1.12601,2.217 1.43607,4.86027 1.53869,13.1173 l 0.0982,7.89766 -1.15229,1.02957 c -1.02343,0.91443 -1.41061,1.02956 -3.46236,1.02956 -2.46076,0 -4.13068,-0.60794 -4.57708,-1.6663 -0.14656,-0.34748 -0.39037,-4.13197 -0.54181,-8.40997 -0.15143,-4.27799 -0.28944,-7.81795 -0.30669,-7.86656 -0.13896,-0.3916 -1.78286,0.0442 -2.00064,0.53033 -0.15244,0.3403 -0.32386,3.86123 -0.38094,7.8243 -0.1323,9.18602 -0.34589,9.5882 -5.09184,9.5882 -1.81222,0 -2.24735,-0.13815 -3.24624,-1.03065 l -1.1535,-1.03065 -0.12787,-7.98496 -0.12788,-7.98496 -0.85427,0 c -0.56183,0 -0.95637,0.27232 -1.15253,0.7955 -0.16404,0.43752 -0.41493,3.97747 -0.55753,7.86656 -0.14259,3.88909 -0.4069,7.34784 -0.58735,7.68613 -1.1683,2.19018 -7.73729,2.25347 -8.57034,0.0826 -0.18071,-0.47093 -0.35595,-0.40463 -1.0436,0.39481 -0.66548,0.77366 -1.20635,0.99227 -2.77734,1.12255 -1.30043,0.10784 -2.27773,-0.009 -2.93111,-0.35179 -0.85736,-0.44922 -1.16315,-0.44901 -2.44002,0.002 -3.43693,1.21306 -8.17393,0.33866 -10.56382,-1.94997 -0.75423,-0.72227 -0.97227,-0.80173 -0.97227,-0.35431 0,0.31722 -0.38376,1.02316 -0.8528,1.56875 l -0.85279,0.99199 -9.6178,0.11439 c -7.09795,0.0844 -9.89641,-0.001 -10.68118,-0.32607 -1.21698,-0.50409 -2.03706,-2.12595 -2.03706,-4.02861 l 0,-1.25781 -2.03294,2.07392 c -2.65558,2.70911 -5.1069,3.71518 -9.104,3.73644 -2.37498,0.0126 -3.18179,-0.14607 -5.03258,-0.9899 -3.63813,-1.65872 -6.64132,-5.54336 -7.36406,-9.52542 -0.24157,-1.33097 -0.29716,-1.23566 -2.28103,3.91117 -3.94645,10.23842 -5.32163,12.54525 -8.3033,13.92869 -2.02703,0.94051 -5.43983,0.90646 -6.67689,-0.0666 z m 31.57692,-16.91386 c 0.82207,-0.82207 1.25466,-3.36493 0.95633,-5.62152 -0.28399,-2.14817 -1.58942,-3.41161 -3.1935,-3.09079 -0.59765,0.11953 -1.29957,0.43026 -1.55982,0.69052 -1.25431,1.25431 -1.18451,6.56571 0.10501,7.99061 0.83899,0.92707 2.7797,0.94346 3.69198,0.0312 l 0,0 z"
         style="fill:#ffffff;fill-opacity:1;stroke:#000000;stroke-width:1.78579819;stroke-linecap:butt;stroke-linejoin:round;stroke-miterlimit:4;stroke-opacity:1;stroke-dasharray:none;stroke-dashoffset:0"
         inkscape:export-filename="C:\Documents and Settings\Justin\Desktop\WyoLum_v4_red.png"
         inkscape:export-xdpi="551.72998"
         inkscape:export-ydpi="551.72998" />
      <path
         inkscape:export-ydpi="551.72998"
         inkscape:export-xdpi="551.72998"
         inkscape:export-filename="C:\Documents and Settings\Justin\Desktop\WyoLum_v4_red.png"
         style="fill:#e6e9eb;fill-opacity:1;fill-rule:nonzero;stroke:#ffffca;stroke-width:0;stroke-linecap:butt;stroke-linejoin:round;stroke-miterlimit:4;stroke-opacity:1;stroke-dasharray:none;stroke-dashoffset:0"
         d="m 228.79078,238.60998 c 0.0361,-3.14299 0.0671,-3.55668 0.3016,-4.03065 0.59979,-1.21209 1.77206,-1.96705 3.06217,-1.9721 1.2697,-0.005 2.19699,0.56982 2.76308,1.71271 0.2286,0.46153 0.26054,0.90625 0.29791,4.14822 0.0398,3.45298 0.0299,3.62749 -0.20242,3.5542 -1.09143,-0.34435 -3.70596,-0.46606 -4.8326,-0.22497 -0.2969,0.0635 -0.74009,0.16042 -0.98489,0.21529 l -0.44507,0.0998 0.0402,-3.50248 z"
         id="path3952"
         inkscape:connector-curvature="0" />
      <path
         inkscape:export-ydpi="551.72998"
         inkscape:export-xdpi="551.72998"
         inkscape:export-filename="C:\Documents and Settings\Justin\Desktop\WyoLum_v4_red.png"
         style="fill:#848483;fill-opacity:0.90909095;fill-rule:nonzero;stroke:#ffffff;stroke-width:0;stroke-linecap:butt;stroke-linejoin:round;stroke-miterlimit:4;stroke-opacity:1;stroke-dasharray:none;stroke-dashoffset:0"
         d="m 227.8433,243.27564 c 0.088,-0.26894 0.90373,-0.76097 1.64074,-0.9897 1.05275,-0.32672 3.46262,-0.39956 4.56937,-0.13811 1.01164,0.23897 1.83626,0.61605 2.13162,0.97474 0.10637,0.12917 0.13267,0.20652 0.0584,0.1719 -0.93126,-0.43453 -1.32931,-0.57502 -2.0831,-0.73524 -1.83374,-0.38977 -4.561,-0.13284 -5.76764,0.54337 -0.33193,0.18602 -0.57918,0.26388 -0.54944,0.17304 z"
         id="path3954"
         inkscape:connector-curvature="0" />
      <path
         inkscape:export-ydpi="551.72998"
         inkscape:export-xdpi="551.72998"
         inkscape:export-filename="C:\Documents and Settings\Justin\Desktop\WyoLum_v4_red.png"
         sodipodi:type="arc"
         style="fill:#ffffff;fill-opacity:1;fill-rule:nonzero;stroke:#000000;stroke-width:0;stroke-linecap:butt;stroke-linejoin:round;stroke-miterlimit:4;stroke-opacity:1;stroke-dasharray:none;stroke-dashoffset:0"
         id="path3960"
         sodipodi:cx="166.75"
         sodipodi:cy="455.23718"
         sodipodi:rx="1.75"
         sodipodi:ry="11.375"
         d="m 168.5,455.23718 a 1.75,11.375 0 1 1 -3.5,0 1.75,11.375 0 1 1 3.5,0 z"
         transform="matrix(0.23666396,0.04005307,-0.00660939,0.26653714,193.11033,110.32876)"
         inkscape:transform-center-x="0.42099741"
         inkscape:transform-center-y="-3.0326855" />
      <path
         inkscape:export-ydpi="551.72998"
         inkscape:export-xdpi="551.72998"
         inkscape:export-filename="C:\Documents and Settings\Justin\Desktop\WyoLum_v4_red.png"
         sodipodi:type="arc"
         style="fill:#ffffff;fill-opacity:1;fill-rule:nonzero;stroke:#000000;stroke-width:0;stroke-linecap:butt;stroke-linejoin:round;stroke-miterlimit:4;stroke-opacity:1;stroke-dasharray:none;stroke-dashoffset:0"
         id="path3998"
         sodipodi:cx="151.25"
         sodipodi:cy="351.86218"
         sodipodi:rx="0.1875"
         sodipodi:ry="0.625"
         d="m 151.4375,351.86218 a 0.1875,0.625 0 1 1 -0.375,0 0.1875,0.625 0 1 1 0.375,0 z"
         transform="matrix(1.0796019,0,0,0.54124379,65.907758,52.18411)" />
      <path
         inkscape:export-ydpi="551.72998"
         inkscape:export-xdpi="551.72998"
         inkscape:export-filename="C:\Documents and Settings\Justin\Desktop\WyoLum_v4_red.png"
         inkscape:connector-curvature="0"
         id="path3123"
         d="m 232.98189,257.28235 c -0.71184,0.0354 -1.41485,0.27384 -2.00873,0.66619 -0.55958,0.39704 -0.79413,1.08468 -0.95814,1.72245 -0.26992,1.18769 -0.30712,2.42058 -0.20695,3.63135 0.0957,0.9571 0.25454,1.93768 0.71068,2.79744 0.28402,0.5529 0.80945,0.95018 1.39488,1.13662 0.53326,0.18194 1.11302,0.18322 1.66557,0.10565 0.73987,-0.13806 1.4731,-0.54425 1.82991,-1.2326 0.4816,-0.89961 0.65641,-1.92712 0.74302,-2.93339 0.0779,-1.12794 0.0498,-2.28489 -0.25826,-3.37947 -0.27696,-0.9474 -0.86752,-1.86812 -1.79263,-2.28636 -0.35045,-0.15731 -0.73459,-0.24113 -1.11935,-0.22788 z"
         style="fill:#000000;fill-opacity:1;fill-rule:nonzero;stroke:#000000;stroke-width:0.0394654;stroke-linecap:butt;stroke-linejoin:round;stroke-miterlimit:4;stroke-opacity:1;stroke-dasharray:none;stroke-dashoffset:0" />
      <path
         inkscape:export-ydpi="551.72998"
         inkscape:export-xdpi="551.72998"
         inkscape:export-filename="C:\Documents and Settings\Justin\Desktop\WyoLum_v4_red.png"
         inkscape:connector-curvature="0"
         id="path3127"
         d="m 232.40519,267.89868 c -0.54335,-0.0791 -1.04241,-0.26283 -1.45472,-0.53561 -0.23503,-0.1555 -0.57496,-0.49133 -0.72848,-0.71968 -0.48983,-0.72863 -0.81531,-1.86815 -0.95765,-3.3527 -0.0184,-0.19236 -0.0282,-0.62403 -0.0274,-1.21534 0.001,-0.80495 0.007,-0.96696 0.0503,-1.32553 0.20405,-1.69924 0.63161,-2.71288 1.36274,-3.23073 0.48413,-0.34289 1.23503,-0.63431 1.90035,-0.7375 0.23154,-0.0359 0.70566,-0.0404 0.92808,-0.009 0.99093,0.14087 1.85018,0.74964 2.43637,1.72612 0.48722,0.8116 0.74506,1.84158 0.79712,3.18415 0.0904,2.33059 -0.414,4.41747 -1.27986,5.29551 -0.48767,0.49453 -1.15011,0.80783 -1.9414,0.9182 -0.28998,0.0404 -0.81422,0.0414 -1.08542,0.002 l 0,0 z"
         style="fill:#ffffff;fill-opacity:1;fill-rule:nonzero;stroke:#000000;stroke-width:0.0394654;stroke-linecap:butt;stroke-linejoin:round;stroke-miterlimit:4;stroke-opacity:1;stroke-dasharray:none;stroke-dashoffset:0" />
      <path
         inkscape:export-ydpi="551.72998"
         inkscape:export-xdpi="551.72998"
         inkscape:export-filename="C:\Documents and Settings\Justin\Desktop\WyoLum_v4_red.png"
         inkscape:connector-curvature="0"
         id="path3129"
         d="m 204.16055,282.46207 c -1.02739,-0.55825 -2.07579,-2.78831 -2.07579,-4.41543 0,-1.24567 0.88707,-1.92543 3.18198,-2.43834 1.60446,-0.3586 2.82843,-1.41423 2.82843,-2.43944 0,-0.77738 -2.49238,-7.9754 -4.3712,-12.62411 -1.3695,-3.38848 -1.67794,-3.88909 -2.39625,-3.88909 -1.08834,0 -1.27359,0.43872 -3.65753,8.66206 -2.30366,7.94642 -2.52388,8.48488 -3.71716,9.08844 -1.4888,0.75305 -4.0996,0.58147 -4.94403,-0.32492 -0.71445,-0.76687 -1.85296,-4.10202 -3.74374,-10.96687 -1.10026,-3.9947 -1.50199,-4.69411 -2.51208,-4.37352 -0.53218,0.1689 -0.91664,0.92936 -1.49658,2.96014 -0.42923,1.50307 -1.44101,4.86307 -2.24838,7.46667 -1.38594,4.46931 -1.53229,4.76069 -2.61938,5.21491 -1.58824,0.66361 -4.16783,0.61888 -4.87117,-0.0845 -0.88717,-0.88717 -1.43241,-2.46131 -3.50857,-10.12928 -5.20719,-19.23193 -5.38388,-20.14719 -4.11169,-21.29851 0.98826,-0.89436 3.98666,-1.13852 5.0915,-0.4146 0.94853,0.6215 1.37716,1.77753 3.06611,8.26929 1.92017,7.38047 2.57085,7.29666 5.00181,-0.64423 0.91594,-2.99199 1.87053,-5.8239 2.12132,-6.29312 0.59223,-1.10809 2.30255,-1.80446 4.43181,-1.80446 2.98543,0 3.47223,0.74902 5.74449,8.83883 1.18518,4.21955 1.5296,4.94975 2.3347,4.94975 0.72055,0 1.36341,-1.50955 2.63485,-6.18718 1.62028,-5.96099 2.22636,-7.17245 3.72934,-7.45441 1.57473,-0.29542 3.43104,0.0701 4.41912,0.87023 0.77413,0.62684 0.78145,0.70105 0.32992,3.34075 -0.56946,3.3291 -0.32291,3.77376 2.09247,3.77376 2.46797,0 3.01424,0.73061 5.48526,7.33623 0.81505,2.17884 1.08297,2.56326 1.78643,2.56326 0.85989,0 0.76793,0.17882 2.90899,-5.65685 1.35293,-3.68755 2.3695,-4.50325 5.1502,-4.13255 1.15302,0.15371 1.73479,0.49634 2.6255,1.54629 l 1.14427,1.34882 1.33061,-0.80936 c 3.35767,-2.04233 4.39981,-2.37064 7.52635,-2.37109 2.69123,-3.8e-4 3.26563,0.12357 5.36724,1.15819 1.60006,0.78771 2.82457,1.72128 3.82506,2.91626 1.49064,1.7804 2.56812,2.2168 2.95891,1.1984 0.11803,-0.30758 0.2146,-3.0195 0.2146,-6.02647 0,-5.33331 0.0213,-5.48849 0.86782,-6.33505 1.17437,-1.17437 4.55763,-1.25293 5.97412,-0.13872 l 0.92689,0.72909 0.0931,11.91044 0.0931,11.91045 6.49471,0.0965 c 4.49079,0.0668 6.64527,-0.0284 6.98268,-0.30845 0.38488,-0.31943 0.48797,-1.88483 0.48797,-7.40975 0,-6.79304 0.23555,-8.65297 1.17117,-9.24789 0.61197,-0.38912 4.06817,-0.33689 4.83417,0.0731 1.0511,0.56253 1.34347,2.25002 1.58106,9.12557 0.2402,6.95112 0.44371,8.00914 1.6118,8.37988 0.92606,0.29392 2.67847,-0.38922 3.03532,-1.18327 0.14494,-0.32249 0.45225,-3.89023 0.68292,-7.92832 0.49708,-8.7019 0.51533,-8.7447 3.72824,-8.7447 1.65954,0 2.23505,0.16463 3.08984,0.88388 1.29856,1.09267 2.07202,1.11429 3.16281,0.0884 0.80266,-0.75491 1.17316,-0.80119 7.26174,-0.90709 6.00979,-0.10453 6.5216,-0.0621 8.08539,0.67035 l 1.66947,0.78194 1.87496,-0.8314 c 3.89584,-1.72748 8.81865,-0.79433 10.67073,2.02272 1.34682,2.04852 1.61038,3.81812 1.86385,12.51398 l 0.23245,7.97493 -1.02662,0.81313 c -0.88841,0.70366 -1.30654,0.78821 -3.106,0.62805 -1.18457,-0.10543 -2.31489,-0.42059 -2.62669,-0.73238 -0.43885,-0.43886 -0.6102,-2.07362 -0.86465,-8.24943 -0.17453,-4.23617 -0.44046,-7.94077 -0.59094,-8.23245 -0.41082,-0.79628 -2.24779,-0.84822 -3.18411,-0.09 -0.7742,0.6269 -0.81744,0.94603 -1.09215,8.06117 -0.15732,4.07464 -0.39767,7.69127 -0.53412,8.03697 -0.57844,1.46553 -3.77448,1.80712 -5.73336,0.61277 l -1.14904,-0.70059 -0.031,-6.45754 c -0.017,-3.55165 -0.13636,-7.25304 -0.26516,-8.22532 -0.22767,-1.71856 -0.26914,-1.7707 -1.4897,-1.8733 -0.91044,-0.0765 -1.43643,0.0944 -1.91376,0.62182 -0.67488,0.74574 -0.79037,1.74648 -1.4436,12.51001 l -0.23268,3.8339 -1.27887,0.53435 c -1.65802,0.69276 -4.09457,0.42768 -5.14571,-0.55981 -1.01978,-0.95803 -1.90695,-0.94757 -2.95266,0.0348 -0.68537,0.64387 -1.17588,0.76568 -2.76282,0.68606 -3.1621,-0.15865 -4.81264,-0.12731 -7.15422,0.13582 -2.63798,0.29645 -4.82479,-0.21995 -6.72463,-1.58796 -2.3232,-1.67285 -2.68895,-1.65701 -3.61877,0.15681 -0.46464,0.90637 -0.8183,1.09822 -2.47488,1.34252 -1.06302,0.15677 -5.48703,0.23775 -9.83113,0.17996 -7.81541,-0.10399 -7.90546,-0.11386 -8.57367,-0.93975 -0.40032,-0.49479 -0.67531,-1.38283 -0.67531,-2.1808 0,-3.11306 -0.68117,-3.16959 -3.88476,-0.32241 -2.95051,2.62226 -5.10447,3.51464 -8.48332,3.51464 -5.33355,0 -9.7467,-3.70315 -11.30361,-9.48508 -0.36616,-1.35983 -0.50827,-1.50681 -1.36165,-1.40829 -0.86885,0.1003 -1.13112,0.54625 -2.97573,5.05974 -2.80062,6.85274 -5.07879,11.30465 -6.31891,12.34815 -1.83685,1.5456 -4.95559,2.0479 -6.72974,1.08389 l 0,0 z m 31.47734,-15.53461 c 0.82562,-0.82528 0.93062,-1.23363 1.04013,-4.0452 0.14355,-3.68521 -0.37312,-5.0525 -2.24684,-5.94602 -1.70757,-0.81428 -3.81212,-0.17803 -4.67179,1.41238 -0.76633,1.41774 -0.84746,5.91805 -0.13705,7.6021 0.97974,2.32247 4.1537,2.83782 6.01555,0.97674 z"
         style="fill:#ffffff;fill-opacity:1;fill-rule:nonzero;stroke:#000000;stroke-width:0.63144636;stroke-linecap:butt;stroke-linejoin:round;stroke-miterlimit:4;stroke-opacity:1;stroke-dasharray:none;stroke-dashoffset:0" />
      <path
         inkscape:export-ydpi="551.72998"
         inkscape:export-xdpi="551.72998"
         inkscape:export-filename="C:\Documents and Settings\Justin\Desktop\WyoLum_v4_red.png"
         inkscape:connector-curvature="0"
         id="path3131"
         d="m 248.95268,241.25399 c -2.24955,0.0217 -4.49153,1.70312 -4.27993,4.10809 -0.39523,3.06363 -0.11769,6.52046 -0.52619,9.37114 -3.32247,-2.32222 -6.49758,-5.98238 -10.98225,-5.48008 -3.2933,-0.20719 -6.30114,1.21023 -9.01561,2.91682 -1.69527,-2.18852 -5.0269,-3.61757 -7.47986,-1.81197 -2.3686,2.32939 -2.69852,6.03981 -4.38628,8.7615 -1.0495,-0.30753 -1.05427,-2.21214 -1.6645,-3.05088 -1.10113,-2.62951 -2.0845,-6.60449 -5.59439,-6.66079 -0.99217,-0.005 -2.11139,-0.17522 -1.60378,-1.48038 0.0194,-2.00271 1.11334,-5.25104 -1.534,-6.04368 -2.43577,-1.0665 -6.07768,-0.39588 -6.60404,2.64915 -1.44361,3.279 -1.99703,7.19394 -3.60482,10.23345 -1.95354,-4.09741 -2.45605,-8.96041 -5.20386,-12.62848 -1.95786,-1.32121 -5.03375,-1.10711 -6.828,0.40879 -2.79415,3.63564 -3.28785,8.80388 -5.31435,12.61744 -1.81613,-4.1042 -2.24659,-8.90034 -4.552,-12.79421 -1.78789,-1.34997 -4.89577,-1.39352 -6.51864,0.24307 -1.53943,2.76679 0.31272,6.01014 0.67137,8.88604 1.97279,7.62849 3.73646,15.38473 6.63171,22.67964 1.40586,1.72082 4.29017,1.61213 6.17614,0.7734 2.64623,-2.25546 2.8341,-6.16027 4.06533,-9.22377 0.74988,-1.9398 1.16304,-4.68803 2.34283,-6.16685 2.19879,4.66468 2.60465,10.14579 5.23701,14.63932 2.33946,2.54338 7.19472,1.38742 7.82236,-2.11027 1.93847,-4.76135 2.69668,-10.01499 5.00499,-14.60617 2.12389,3.02923 3.05646,7.03406 4.4447,10.48956 0.42434,1.89997 1.889,4.03075 1.23426,5.97277 -1.81135,1.28797 -5.55001,1.39075 -5.33645,4.43046 -0.0468,2.69727 2.03228,5.62848 5.00499,5.12653 4.22586,0.22612 6.62575,-3.7281 8.12983,-7.08055 1.9219,-3.75961 3.23668,-7.87588 5.34939,-11.49206 1.06813,-0.51247 0.76684,1.60749 1.32583,2.11028 1.89711,5.41442 7.59957,9.36712 13.40188,8.3306 3.85889,-0.20499 6.3615,-3.51563 9.52385,-5.15967 0.19325,1.96693 0.45248,4.77615 3.0052,4.94975 6.01524,0.52875 12.0851,-0.0297 18.11961,0.0663 1.4465,-0.0821 1.74651,-2.27024 2.96101,-2.46383 2.28447,1.07242 4.22985,3.10618 6.98231,2.50679 3.75139,-0.19074 7.67426,0.67881 11.32513,-0.36337 1.00125,-0.97738 2.49665,-1.20345 3.53553,-0.13258 1.94007,1.00795 4.62836,0.7689 6.43025,-0.41985 1.20898,-2.82827 0.65292,-6.15465 1.07688,-9.16788 0.3467,-2.41737 -0.008,-5.20379 1.18807,-7.34969 0.90978,-0.41486 1.90149,-0.0918 1.67938,1.06066 0.50974,4.93702 -0.11697,10.02776 0.61387,14.88349 1.84506,1.6064 5.44703,2.62331 7.46262,0.706 1.46223,-3.0971 0.89576,-6.76839 1.35665,-10.09505 0.3386,-2.05624 -0.10754,-4.48954 0.75362,-6.36728 0.79429,-0.4575 2.34814,-0.54573 2.04398,0.83969 0.65441,5.13234 0.24287,10.4644 1.45841,15.49006 1.54999,1.26444 3.97781,1.12911 5.86678,0.78445 1.72365,-0.51929 2.89908,-2.04213 2.31119,-3.89897 -0.39804,-5.88446 0.0449,-11.98099 -1.64828,-17.67884 -2.45401,-4.82953 -9.08169,-5.20097 -13.41293,-2.88367 -1.30479,0.1266 -2.63695,-1.16237 -4.08796,-0.97227 -4.23452,-0.046 -8.57157,-0.4987 -12.75002,0.27621 -0.98969,0.75423 -2.39154,1.49491 -3.44715,0.36461 -1.92479,-0.94012 -5.14372,-1.6636 -6.58493,0.39774 -1.5759,4.25948 -1.05368,9.00221 -1.74011,13.45348 -0.16041,1.15755 0.21039,2.98764 -1.47502,2.98676 -1.67045,0.55404 -1.23516,-2.03162 -1.5247,-2.92787 -0.56761,-4.35774 -0.0123,-8.97555 -1.42526,-13.15881 -1.91025,-2.92651 -7.92297,-2.14754 -7.65724,1.88768 -0.51174,4.42074 -0.13581,9.07385 -0.83909,13.3814 -3.89962,0.29935 -7.88314,4e-4 -11.81089,0.0221 -0.22403,-7.56012 0.2377,-15.17783 -0.46404,-22.70476 -0.48827,-1.90435 -2.94521,-2.46011 -4.64039,-2.43068 z m -16.3187,16.11983 c 1.67987,-0.0366 3.23445,1.14556 3.09359,2.91682 -0.0251,1.95651 0.4353,4.23373 -0.48613,5.97726 -1.26076,1.35543 -3.97188,1.3789 -4.75088,-0.54138 -0.96226,-2.43878 -0.86649,-5.57399 0.60767,-7.77818 0.38823,-0.42942 0.96575,-0.61716 1.53575,-0.57452 z"
         style="fill:#000000;fill-opacity:1;fill-rule:nonzero;stroke:#000000;stroke-width:0.63144636;stroke-linecap:butt;stroke-linejoin:round;stroke-miterlimit:4;stroke-opacity:1;stroke-dasharray:none;stroke-dashoffset:0" />
      <path
         inkscape:export-ydpi="551.72998"
         inkscape:export-xdpi="551.72998"
         inkscape:export-filename="C:\Documents and Settings\Justin\Desktop\WyoLum_v4_red.png"
         inkscape:connector-curvature="0"
         id="path3133"
         d="m 231.83848,256.31316 c -3.00736,0.41198 -3.41591,4.31837 -3.31456,6.79486 -0.12269,2.67165 2.49143,5.51812 5.22596,4.15425 2.73512,-1.28534 1.8757,-4.86133 2.08818,-7.29204 -0.0937,-1.92966 -2.08026,-3.71715 -3.99958,-3.65707 z"
         style="fill:#000000;fill-opacity:1;fill-rule:nonzero;stroke:#000000;stroke-width:0.63144636;stroke-linecap:butt;stroke-linejoin:round;stroke-miterlimit:4;stroke-opacity:1;stroke-dasharray:none;stroke-dashoffset:0" />
      <path
         inkscape:export-ydpi="551.72998"
         inkscape:export-xdpi="551.72998"
         inkscape:export-filename="C:\Documents and Settings\Justin\Desktop\WyoLum_v4_red.png"
         inkscape:connector-curvature="0"
         id="path3969"
         d="m 164.70145,240.43722 c -2.21615,-0.23025 -4.55636,1.78316 -3.81174,4.08796 2.36535,9.2303 4.42749,18.57501 7.52406,27.57716 0.92476,2.90567 4.65062,2.44623 6.90533,1.5689 2.08131,-2.22845 2.335,-5.60905 3.36981,-8.38585 0.79335,-1.66016 0.56247,-4.48667 2.60746,-5.06023 2.08124,0.59212 1.75279,3.43234 2.58461,5.03513 1.0492,2.8355 1.26078,6.35369 3.46999,8.55458 1.95597,0.8542 4.91333,0.78158 6.34186,-0.99437 1.98905,-4.70789 2.72328,-9.88298 4.75088,-14.56198 1.33818,-1.62497 2.8622,0.24657 3.13048,1.71833 1.41729,4.07114 3.53115,8.10114 3.94058,12.40171 -0.24335,2.47164 -3.32412,1.12177 -4.61829,2.6185 -1.80978,1.28441 -0.89802,3.94115 -0.0552,5.56847 2.01956,3.00786 6.79542,2.00634 8.99351,-0.27622 3.72417,-4.23895 4.59783,-10.14446 7.47987,-14.84924 1.86019,-1.32035 2.80618,1.44758 3.44714,2.70689 2.32213,3.88143 6.7978,7.00029 11.50154,6.10985 3.28804,0.10483 6.03049,-1.93666 8.26431,-4.13216 1.83575,-1.19234 2.48796,1.10728 2.80633,2.43068 1.4337,2.35101 4.83003,1.49674 7.13732,1.7968 4.61637,0.011 9.2296,-0.19281 13.84386,-0.30524 1.09858,-2.26755 3.30332,-2.43083 5.14792,-0.88391 3.30874,1.89871 7.29185,0.48899 10.90562,0.86181 2.00278,0.0205 4.10431,0.35233 5.83363,-0.85074 1.74891,-0.14404 3.21049,1.3915 5.06023,0.98332 1.63681,0.0571 4.23235,-0.39704 3.90658,-2.57209 0.60418,-4.75144 0.26332,-9.77029 1.35253,-14.42057 1.14115,-1.4532 2.80802,0.25819 2.53011,1.66833 0.54124,4.55964 0.2727,9.24773 0.68501,13.76649 1.66595,1.97052 5.22181,2.40286 7.2368,0.78444 1.35608,-3.66032 0.64428,-7.7752 1.08276,-11.61201 0.31641,-1.7464 -0.35368,-4.31775 1.44736,-5.38065 2.47537,-0.23501 1.95096,3.04627 2.08817,4.62934 0.15156,4.08962 0.0762,8.33642 0.97227,12.28598 1.70377,1.04734 4.12346,1.12894 6.01041,0.60767 1.37379,-0.67833 2.0195,-1.833 1.61424,-3.3918 -0.30869,-6.00801 0.51503,-12.28182 -1.30488,-18.08656 -1.61977,-3.47317 -6.04357,-4.4984 -9.55699,-3.94433 -2.1308,0.29728 -4.33523,2.16167 -6.40816,0.43089 -4.47834,-0.55114 -9.0802,-0.41578 -13.57866,-0.11049 -1.53691,0.80382 -3.45757,1.49921 -4.81716,-0.0221 -1.74641,-0.35176 -3.85083,-0.36149 -5.50218,0.39774 -1.49382,2.57999 -0.83431,5.91665 -1.21842,8.80541 -0.37821,2.55238 0.38663,5.5704 -1.09072,7.82265 -1.52862,1.37197 -3.05648,-0.68863 -2.91682,-2.22076 -0.80418,-4.32934 0.13625,-8.89494 -0.92807,-13.13671 -0.58934,-1.47566 -2.03687,-2.24931 -3.60183,-1.87826 -1.48249,-0.0397 -3.75262,-0.10476 -3.93328,1.85616 -0.85163,4.69478 -0.57322,9.5154 -0.88389,14.26367 -1.42894,2.20623 -4.32464,0.8228 -6.49654,1.20429 -2.1789,-0.35467 -5.10953,0.96733 -6.49654,-1.24849 0,-7.56456 0,-15.12913 0,-22.6937 -1.45444,-2.08604 -4.12562,-1.56946 -6.28662,-1.31478 -2.45838,0.30386 -2.00687,3.4016 -2.27222,5.1695 -0.48136,2.0753 0.55649,4.82277 -1.24122,6.27679 -2.09888,0.24207 -3.31405,-2.20703 -5.29225,-2.74004 -4.22102,-2.03116 -9.2673,-1.02941 -13.10358,1.35897 -1.89485,0.33912 -2.84711,-2.34493 -4.90555,-2.06607 -1.54418,-0.16379 -3.47109,-0.28464 -4.06586,1.53574 -1.55249,1.92186 -1.50285,4.80689 -3.32561,6.4634 -2.28274,0.81455 -2.32926,-2.22959 -3.0715,-3.55763 -0.83908,-1.97993 -1.96445,-4.99092 -4.68458,-4.50781 -2.10451,0.17586 -2.1817,-2.23318 -1.56889,-3.64602 0.54025,-1.45919 0.34341,-3.39332 -1.43632,-3.83384 -2.13264,-1.01772 -5.68588,-1.13445 -6.40815,1.71252 -1.20742,2.86639 -1.55596,6.13991 -2.99416,8.91618 -1.92237,1.36413 -2.69174,-1.46081 -2.95313,-2.83209 -1.06577,-2.66076 -1.19127,-6.09349 -3.44397,-8.08387 -2.08888,-0.58111 -4.67879,-0.54104 -6.55179,0.59662 -2.60601,2.82857 -2.16025,7.29398 -4.38627,10.29724 -2.42093,0.94472 -2.64919,-2.53704 -3.11053,-4.03012 -0.90063,-2.26275 -0.82089,-5.524 -3.1098,-6.91898 -0.78415,-0.3201 -1.69129,-0.35312 -2.54117,-0.32041 z"
         style="fill:#000000;fill-opacity:1;fill-rule:nonzero;stroke:#000000;stroke-width:0.63144635999999998;stroke-linecap:butt;stroke-linejoin:round;stroke-miterlimit:4;stroke-opacity:1;stroke-dasharray:none;stroke-dashoffset:0" />
      <path
         inkscape:export-ydpi="551.72998"
         inkscape:export-xdpi="551.72998"
         inkscape:export-filename="C:\Documents and Settings\Justin\Desktop\WyoLum_v4_red.png"
         inkscape:connector-curvature="0"
         id="path3137-0"
         d="m 197.7493,240.7567 c -1.20155,0.0302 -2.61805,0.36767 -3.11719,1.60157 -1.23775,2.62538 -1.68321,5.51155 -2.5664,8.26562 -0.18863,0.71457 -0.46694,1.95064 -1.45626,1.71044 -0.91521,0.18808 -1.35634,-0.68483 -1.50468,-1.42919 -0.93029,-2.97459 -1.58718,-6.07286 -2.96485,-8.88281 -0.5888,-1.24975 -2.22643,-1.15942 -3.38671,-1.23828 -1.50111,0.0502 -3.16219,0.0602 -4.45313,0.92968 -1.15662,1.12332 -1.45015,2.83828 -1.98301,4.29106 -0.6654,2.04717 -1.14172,4.17598 -1.93105,6.1816 -0.58447,-0.48541 -0.8775,1.16804 -1.51248,0.37342 -1.13353,-0.43128 -0.95759,-1.85073 -1.34299,-2.79529 -0.73599,-2.58955 -1.15112,-5.32275 -2.38281,-7.72657 -0.6964,-1.24221 -2.30093,-1.2788 -3.55469,-1.22265 -1.48296,-0.10149 -3.23801,0.35603 -4.02734,1.71093 -0.76997,1.72361 0.15409,3.56844 0.44983,5.29452 1.86439,7.43213 3.8282,14.83933 5.97781,22.19597 0.57159,1.5322 0.82766,3.34818 2.13876,4.45873 0.9973,0.59 2.25706,0.32689 3.37104,0.37903 1.3158,-0.0217 3.03718,-0.20351 3.5899,-1.63293 1.14101,-2.95714 1.92052,-6.05134 2.8354,-9.08496 0.35597,-0.95529 0.43062,-2.15522 1.03569,-2.93067 0.66682,-0.91084 2.17294,-0.36446 2.29297,0.73047 1.18102,3.77234 1.95632,7.6858 3.57031,11.30078 0.44682,0.99665 1.44724,1.81963 2.59766,1.57031 1.63387,-0.069 3.69466,0.32199 4.88281,-1.09375 1.07893,-1.9235 1.46797,-4.13398 2.15146,-6.21949 0.85434,-2.89133 1.61057,-5.83517 2.55182,-8.70334 0.46985,-1.14264 2.23431,-0.85115 2.51157,0.29002 1.58867,4.05807 3.29351,8.11374 4.48534,12.30144 0.29527,0.97586 0.30301,2.41056 -0.86425,2.78059 -1.32104,0.3865 -2.9566,0.16122 -3.92187,1.34766 -0.72251,0.57708 -1.10575,1.48421 -0.89978,2.40191 0.22776,1.83846 0.8855,4.01876 2.7279,4.82075 3.04045,0.93713 6.65953,-0.15988 8.45313,-2.82813 2.25856,-3.33937 3.5455,-7.19619 5.0625,-10.89844 0.47341,-1.06031 0.76134,-2.24059 1.46093,-3.17968 0.7652,-0.75578 2.00462,-0.18378 2.22657,0.77734 1.43354,3.78418 4.52288,7.02475 8.46484,8.14844 2.55723,0.44767 5.33061,0.42362 7.80469,-0.51563 1.89758,-0.6994 3.30526,-2.18935 4.80078,-3.48437 0.56828,-0.4686 1.12657,-0.0987 1.62651,0.24925 0.6754,0.59696 0.44215,1.68499 1.0063,2.39528 0.40405,0.75966 1.15623,1.3616 2.04297,1.3125 5.0811,0.29547 10.21264,0.0784 15.31241,0.0663 1.25822,-0.0576 2.59249,0.0297 3.80478,-0.15616 0.81937,-0.74695 1.28212,-2.31712 2.64453,-2.09375 1.03943,0.39174 1.79548,1.3006 2.88882,1.61058 1.41913,0.65408 2.97082,0.86972 4.52133,0.78319 1.51304,0.12985 2.96212,-0.31333 4.38672,-0.76095 1.06492,-0.17855 1.89169,0.84131 2.97657,0.64062 1.22474,-0.0246 2.69706,0.16175 3.61328,-0.83984 0.69567,-0.63332 1.73231,-0.46321 2.38281,0.14062 1.71982,1.03024 3.90599,0.92367 5.76954,0.38672 0.78837,-0.25535 1.71411,-0.81596 1.64062,-1.77344 0.47416,-4.75667 0.46019,-9.54483 0.98046,-14.30078 0.0289,-1.11419 1.36704,-1.98187 2.28734,-1.19047 0.83199,0.88104 0.49794,2.23828 0.64328,3.34254 0.1568,4.18789 0.0561,8.412 0.31157,12.5784 0.86055,0.71501 1.70151,1.82234 2.9492,1.6547 1.21576,-0.0475 2.49741,0.14804 3.66894,-0.10244 1.2321,-0.38313 1.52236,-1.75875 1.64749,-2.88038 0.34876,-4.48316 0.2208,-8.99641 0.63281,-13.47266 0.0673,-1.22768 1.78315,-1.85127 2.53516,-0.81641 0.68854,1.12715 0.35034,2.55196 0.50405,3.80463 0.17421,3.93409 0.23568,7.88477 0.63658,11.79303 0.067,1.08317 1.36653,1.42312 2.23827,1.61719 1.35851,0.0697 2.7576,0.17192 4.10156,-0.0664 0.7369,-0.32756 1.34985,-0.97542 1.93359,-1.48437 0.27271,-2.23987 -0.006,-4.56018 0.0223,-6.82808 -0.14058,-3.76956 0.004,-7.58408 -0.64342,-11.29692 -0.37008,-2.30552 -1.77022,-4.47336 -3.9375,-5.44532 -1.49955,-0.78996 -3.17872,-1.04202 -4.85937,-0.93359 -1.85294,-0.11882 -3.55094,0.61689 -5.17188,1.43359 -1.14238,0.3662 -2.05465,-0.68724 -3.10937,-0.96093 -1.33336,-0.58179 -2.85293,-0.205 -4.26171,-0.32032 -2.91747,0.068 -5.85653,-0.0741 -8.75952,0.23824 -0.87018,0.0857 -1.61083,0.60739 -2.26563,1.12104 -0.84074,0.34248 -1.68019,-0.006 -2.2483,-0.65615 -1.11877,-0.91595 -2.69257,-0.60433 -4.03489,-0.61291 -0.93195,0.0737 -2.07712,0.1339 -2.55495,1.10119 -0.71272,1.54633 -0.58708,3.3437 -0.73408,5.00365 -0.19094,3.42649 -0.14612,6.87656 -0.54717,10.28541 -0.2865,1.23333 -2.25927,2.18596 -3.09162,0.93288 -0.49091,-0.89592 -0.27587,-2.04374 -0.414,-3.04165 -0.26435,-3.95741 -0.16674,-7.95723 -0.55688,-11.89123 -0.11136,-1.00174 -1.01304,-1.72656 -1.8125,-2.21875 -1.6886,-0.35189 -3.51924,-0.30694 -5.17188,0.17578 -1.46071,0.80355 -1.35515,2.70327 -1.47656,4.13282 -0.15703,3.85961 -0.0697,7.72418 -0.0937,11.58593 -0.61006,0.44844 -0.98339,1.47059 -1.875,1.25 -3.2487,0 -6.49739,0 -9.74609,0 -0.44689,-0.61014 -1.46906,-0.98108 -1.25192,-1.87109 -0.0227,-7.24739 -0.0442,-14.49479 -0.0645,-21.74219 -0.69651,-0.54237 -1.22954,-1.44202 -2.08984,-1.72265 -1.83543,-0.14498 -3.82672,-0.39612 -5.53516,0.41406 -1.26365,0.90111 -1.17528,2.68078 -1.30717,4.05819 -0.10792,2.08427 -0.11736,4.17208 -0.16939,6.25822 -0.69686,0.29681 -1.41515,1.06337 -2.18941,0.80573 -4.1523,-4.3768 -11.47981,-5.16618 -16.43292,-1.725 -0.76382,0.64193 -2.06792,0.60034 -2.5222,-0.38542 -1.22874,-1.22217 -3.12499,-1.52115 -4.79688,-1.46094 -1.50507,-0.026 -2.4722,1.30782 -3.0625,2.52734 -0.94538,1.7069 -1.26496,3.66659 -2.1914,5.375 -0.44435,0.60917 -1.31944,0.37926 -1.90235,0.13672 -0.85473,-1.32821 -1.14488,-2.94664 -1.86326,-4.35641 -0.63914,-1.29723 -1.15197,-3.02175 -2.72658,-3.44046 -1.05868,-0.48799 -2.55824,0.17539 -3.29423,-0.94568 -0.55716,-1.01913 0.15904,-2.17064 0.27788,-3.22333 0.22198,-0.8882 0.47726,-2.01109 -0.36256,-2.67865 -1.17257,-1.09544 -2.86277,-1.53503 -4.43359,-1.51172 z m -23.39063,11.48047 c -0.0716,0.0486 0.087,-0.12176 0,0 z"
         style="fill:url(#radialGradient3989-7);fill-opacity:1;fill-rule:nonzero;stroke:#000000;stroke-width:0.22325;stroke-linecap:butt;stroke-linejoin:round;stroke-miterlimit:4;stroke-opacity:1;stroke-dasharray:none;stroke-dashoffset:0;filter:url(#filter3963-1-4)" />
      <path
         inkscape:export-ydpi="551.72998"
         inkscape:export-xdpi="551.72998"
         inkscape:export-filename="C:\Documents and Settings\Justin\Desktop\WyoLum_v4_red.png"
         inkscape:connector-curvature="0"
         id="path4016"
         d="m 231.37923,245.85792 c -2.02395,-0.14142 -3.56798,-0.81294 -3.63154,-1.5794 -0.0574,-0.6926 1.06246,-1.31712 2.85362,-1.59135 1.45219,-0.22233 3.32328,-0.0729 4.50625,0.3599 1.89597,0.69365 1.78802,1.80592 -0.23752,2.44732 -0.93543,0.2962 -2.34844,0.44336 -3.49081,0.36353 l 0,0 z"
         style="fill:#6c7489;fill-opacity:1;fill-rule:nonzero;stroke:#ffffff;stroke-width:0.0558125;stroke-linecap:butt;stroke-linejoin:round;stroke-miterlimit:4;stroke-opacity:1;stroke-dasharray:none;stroke-dashoffset:0" />
      <path
         inkscape:export-ydpi="551.72998"
         inkscape:export-xdpi="551.72998"
         inkscape:export-filename="C:\Documents and Settings\Justin\Desktop\WyoLum_v4_red.png"
         sodipodi:type="arc"
         style="fill:#ffffff;fill-opacity:1;fill-rule:nonzero;stroke:#000000;stroke-width:0;stroke-linecap:butt;stroke-linejoin:round;stroke-miterlimit:4;stroke-opacity:1;stroke-dasharray:none;stroke-dashoffset:0"
         id="path3960-2-7"
         sodipodi:cx="166.75"
         sodipodi:cy="455.23718"
         sodipodi:rx="1.75"
         sodipodi:ry="11.375"
         d="m 168.5,455.23718 a 1.75,11.375 0 1 1 -3.5,0 1.75,11.375 0 1 1 3.5,0 z"
         transform="matrix(0.2286884,0.05479119,0.16440598,0.55791152,72.854508,-14.769342)"
         inkscape:transform-center-x="2.2965211"
         inkscape:transform-center-y="-6.2873246" />
      <path
         inkscape:export-ydpi="551.72998"
         inkscape:export-xdpi="551.72998"
         inkscape:export-filename="C:\Documents and Settings\Justin\Desktop\WyoLum_v4_red.png"
         sodipodi:type="arc"
         style="fill:#ffffff;fill-opacity:1;fill-rule:nonzero;stroke:#000000;stroke-width:0;stroke-linecap:butt;stroke-linejoin:round;stroke-miterlimit:4;stroke-opacity:1;stroke-dasharray:none;stroke-dashoffset:0"
         id="path3960-2-7-6-1"
         sodipodi:cx="166.75"
         sodipodi:cy="455.23718"
         sodipodi:rx="1.75"
         sodipodi:ry="11.375"
         d="m 168.5,455.23718 a 1.75,11.375 0 1 1 -3.5,0 1.75,11.375 0 1 1 3.5,0 z"
         transform="matrix(0.15552329,0.1480755,-0.15394307,0.48886846,220.60995,18.25397)"
         inkscape:transform-center-x="-1.3785664"
         inkscape:transform-center-y="-5.7181802" />
      <path
         inkscape:export-ydpi="551.72998"
         inkscape:export-xdpi="551.72998"
         inkscape:export-filename="C:\Documents and Settings\Justin\Desktop\WyoLum_v4_red.png"
         sodipodi:type="arc"
         style="fill:#ffffff;fill-opacity:1;fill-rule:nonzero;stroke:#000000;stroke-width:0;stroke-linecap:butt;stroke-linejoin:round;stroke-miterlimit:4;stroke-opacity:1;stroke-dasharray:none;stroke-dashoffset:0"
         id="path3960-2-7-6-1-4"
         sodipodi:cx="166.75"
         sodipodi:cy="455.23718"
         sodipodi:rx="1.75"
         sodipodi:ry="11.375"
         d="m 168.5,455.23718 a 1.75,11.375 0 1 1 -3.5,0 1.75,11.375 0 1 1 3.5,0 z"
         transform="matrix(0.15552329,0.1480755,-0.15394307,0.48886846,238.32355,18.20193)"
         inkscape:transform-center-x="-1.3785664"
         inkscape:transform-center-y="-5.7181802" />
      <path
         inkscape:export-ydpi="551.72998"
         inkscape:export-xdpi="551.72998"
         inkscape:export-filename="C:\Documents and Settings\Justin\Desktop\WyoLum_v4_red.png"
         sodipodi:type="arc"
         style="fill:#ffffff;fill-opacity:1;fill-rule:nonzero;stroke:#000000;stroke-width:0;stroke-linecap:butt;stroke-linejoin:round;stroke-miterlimit:4;stroke-opacity:1;stroke-dasharray:none;stroke-dashoffset:0"
         id="path3960-2-7-9"
         sodipodi:cx="166.75"
         sodipodi:cy="455.23718"
         sodipodi:rx="1.75"
         sodipodi:ry="11.375"
         d="m 168.5,455.23718 a 1.75,11.375 0 1 1 -3.5,0 1.75,11.375 0 1 1 3.5,0 z"
         transform="matrix(0.17321098,0.0425828,0.12452281,0.43359954,82.951387,42.74531)"
         inkscape:transform-center-x="1.739407"
         inkscape:transform-center-y="-4.8864019" />
      <path
         inkscape:export-ydpi="551.72998"
         inkscape:export-xdpi="551.72998"
         inkscape:export-filename="C:\Documents and Settings\Justin\Desktop\WyoLum_v4_red.png"
         sodipodi:type="arc"
         style="fill:#ffffff;fill-opacity:1;fill-rule:nonzero;stroke:#000000;stroke-width:0;stroke-linecap:butt;stroke-linejoin:round;stroke-miterlimit:4;stroke-opacity:1;stroke-dasharray:none;stroke-dashoffset:0"
         id="path3960-2-7-6-1-4-4"
         sodipodi:cx="166.75"
         sodipodi:cy="455.23718"
         sodipodi:rx="1.75"
         sodipodi:ry="11.375"
         d="m 168.5,455.23718 a 1.75,11.375 0 1 1 -3.5,0 1.75,11.375 0 1 1 3.5,0 z"
         transform="matrix(0.17219313,0.11093545,0.00156396,0.60573787,258.13291,-29.833532)"
         inkscape:transform-center-x="0.37681917"
         inkscape:transform-center-y="-6.9337213" />
      <path
         inkscape:export-ydpi="551.72998"
         inkscape:export-xdpi="551.72998"
         inkscape:export-filename="C:\Documents and Settings\Justin\Desktop\WyoLum_v4_red.png"
         sodipodi:type="arc"
         style="fill:#ffffff;fill-opacity:1;fill-rule:nonzero;stroke:#000000;stroke-width:0;stroke-linecap:butt;stroke-linejoin:round;stroke-miterlimit:4;stroke-opacity:1;stroke-dasharray:none;stroke-dashoffset:0"
         id="path3960-2-7-6-1-4-4-0"
         sodipodi:cx="166.75"
         sodipodi:cy="455.23718"
         sodipodi:rx="1.75"
         sodipodi:ry="11.375"
         d="m 168.5,455.23718 a 1.75,11.375 0 1 1 -3.5,0 1.75,11.375 0 1 1 3.5,0 z"
         transform="matrix(0.19837608,0.1048752,0.03201087,0.63598065,252.95549,-42.262032)"
         inkscape:transform-center-x="0.76837313"
         inkscape:transform-center-y="-7.2556872" />
      <path
         inkscape:export-ydpi="551.72998"
         inkscape:export-xdpi="551.72998"
         inkscape:export-filename="C:\Documents and Settings\Justin\Desktop\WyoLum_v4_red.png"
         sodipodi:type="arc"
         style="fill:#ffffff;fill-opacity:1;fill-rule:nonzero;stroke:#000000;stroke-width:0;stroke-linecap:butt;stroke-linejoin:round;stroke-miterlimit:4;stroke-opacity:1;stroke-dasharray:none;stroke-dashoffset:0"
         id="path3960-2-7-6-1-4-4-3"
         sodipodi:cx="166.75"
         sodipodi:cy="455.23718"
         sodipodi:rx="1.75"
         sodipodi:ry="11.375"
         d="m 168.5,455.23718 a 1.75,11.375 0 1 1 -3.5,0 1.75,11.375 0 1 1 3.5,0 z"
         transform="matrix(0.19776504,0.08368294,0.02843494,0.51174436,266.97076,18.29563)"
         inkscape:transform-center-x="0.72753035"
         inkscape:transform-center-y="-5.8368453" />
      <path
         inkscape:export-ydpi="551.72998"
         inkscape:export-xdpi="551.72998"
         inkscape:export-filename="C:\Documents and Settings\Justin\Desktop\WyoLum_v4_red.png"
         sodipodi:type="arc"
         style="fill:#ffffff;fill-opacity:1;fill-rule:nonzero;stroke:#000000;stroke-width:0;stroke-linecap:butt;stroke-linejoin:round;stroke-miterlimit:4;stroke-opacity:1;stroke-dasharray:none;stroke-dashoffset:0"
         id="path3960-2-7-6-1-4-4-6"
         sodipodi:cx="166.75"
         sodipodi:cy="455.23718"
         sodipodi:rx="1.75"
         sodipodi:ry="11.375"
         d="m 168.5,455.23718 a 1.75,11.375 0 1 1 -3.5,0 1.75,11.375 0 1 1 3.5,0 z"
         transform="matrix(0.19084142,0.09845505,-0.01049688,0.51242624,239.19948,8.54087)"
         inkscape:transform-center-x="0.28231603"
         inkscape:transform-center-y="-5.8752315" />
      <path
         inkscape:export-ydpi="551.72998"
         inkscape:export-xdpi="551.72998"
         inkscape:export-filename="C:\Documents and Settings\Justin\Desktop\WyoLum_v4_red.png"
         sodipodi:type="arc"
         style="fill:#ffffff;fill-opacity:1;fill-rule:nonzero;stroke:#000000;stroke-width:0;stroke-linecap:butt;stroke-linejoin:round;stroke-miterlimit:4;stroke-opacity:1;stroke-dasharray:none;stroke-dashoffset:0"
         id="path3960-2-7-6-1-4-4-6-2"
         sodipodi:cx="166.75"
         sodipodi:cy="455.23718"
         sodipodi:rx="1.75"
         sodipodi:ry="11.375"
         d="m 168.5,455.23718 a 1.75,11.375 0 1 1 -3.5,0 1.75,11.375 0 1 1 3.5,0 z"
         transform="matrix(0.18776378,0.10420465,-0.02605215,0.5118712,259.54489,7.78355)"
         inkscape:transform-center-x="0.10377979"
         inkscape:transform-center-y="-5.8810939" />
      <path
         inkscape:export-ydpi="551.72998"
         inkscape:export-xdpi="551.72998"
         inkscape:export-filename="C:\Documents and Settings\Justin\Desktop\WyoLum_v4_red.png"
         sodipodi:type="arc"
         style="fill:#ffffff;fill-opacity:1;fill-rule:nonzero;stroke:#000000;stroke-width:0;stroke-linecap:butt;stroke-linejoin:round;stroke-miterlimit:4;stroke-opacity:1;stroke-dasharray:none;stroke-dashoffset:0"
         id="path3960-2-7-6-1-4-4-6-4"
         sodipodi:cx="166.75"
         sodipodi:cy="455.23718"
         sodipodi:rx="1.75"
         sodipodi:ry="11.375"
         d="m 168.5,455.23718 a 1.75,11.375 0 1 1 -3.5,0 1.75,11.375 0 1 1 3.5,0 z"
         transform="matrix(0.18977532,0.00567089,0.18669432,0.3955893,89.41899,72.90035)"
         inkscape:transform-center-x="2.461875"
         inkscape:transform-center-y="-4.3887822" />
      <path
         inkscape:export-ydpi="551.72998"
         inkscape:export-xdpi="551.72998"
         inkscape:export-filename="C:\Documents and Settings\Justin\Desktop\WyoLum_v4_red.png"
         sodipodi:type="arc"
         style="fill:#ffffff;fill-opacity:1;fill-rule:nonzero;stroke:#000000;stroke-width:0;stroke-linecap:butt;stroke-linejoin:round;stroke-miterlimit:4;stroke-opacity:1;stroke-dasharray:none;stroke-dashoffset:0"
         id="path3960-2-7-6-1-4-4-6-5"
         sodipodi:cx="166.75"
         sodipodi:cy="455.23718"
         sodipodi:rx="1.75"
         sodipodi:ry="11.375"
         d="m 168.5,455.23718 a 1.75,11.375 0 1 1 -3.5,0 1.75,11.375 0 1 1 3.5,0 z"
         transform="matrix(0.19332954,0.07022204,0.00175593,0.38343154,211.0352,60.76714)"
         inkscape:transform-center-x="0.42307159"
         inkscape:transform-center-y="-4.3890398" />
      <path
         inkscape:export-ydpi="551.72998"
         inkscape:export-xdpi="551.72998"
         inkscape:export-filename="C:\Documents and Settings\Justin\Desktop\WyoLum_v4_red.png"
         sodipodi:type="arc"
         style="fill:#ffffff;fill-opacity:1;fill-rule:nonzero;stroke:#000000;stroke-width:0;stroke-linecap:butt;stroke-linejoin:round;stroke-miterlimit:4;stroke-opacity:1;stroke-dasharray:none;stroke-dashoffset:0"
         id="path3960-2-7-6-1-4-4-6-8"
         sodipodi:cx="166.75"
         sodipodi:cy="455.23718"
         sodipodi:rx="1.75"
         sodipodi:ry="11.375"
         d="m 168.5,455.23718 a 1.75,11.375 0 1 1 -3.5,0 1.75,11.375 0 1 1 3.5,0 z"
         transform="matrix(0.13553074,0.1665691,-0.2145807,0.46545243,288.29684,31.23105)"
         inkscape:transform-center-x="-2.0912248"
         inkscape:transform-center-y="-5.4977089" />
      <path
         inkscape:export-ydpi="551.72998"
         inkscape:export-xdpi="551.72998"
         inkscape:export-filename="C:\Documents and Settings\Justin\Desktop\WyoLum_v4_red.png"
         inkscape:connector-curvature="0"
         id="path4018-1"
         d="m 232.83126,247.92584 -0.28487,-3.55238"
         style="fill:none;stroke:#000000;stroke-width:0.48059642;stroke-linecap:butt;stroke-linejoin:miter;stroke-miterlimit:2;stroke-opacity:1;stroke-dasharray:none" />
      <path
         inkscape:export-ydpi="551.72998"
         inkscape:export-xdpi="551.72998"
         inkscape:export-filename="C:\Documents and Settings\Justin\Desktop\WyoLum_v4_red.png"
         inkscape:connector-curvature="0"
         id="path4018"
         d="m 231.2739,260.35823 0.40487,-16.34375"
         style="fill:none;stroke:#000000;stroke-width:0.5;stroke-linecap:butt;stroke-linejoin:miter;stroke-miterlimit:2;stroke-opacity:1;stroke-dasharray:none" />
      <path
         inkscape:export-ydpi="551.72998"
         inkscape:export-xdpi="551.72998"
         inkscape:export-filename="C:\Documents and Settings\Justin\Desktop\WyoLum_v4_red.png"
         sodipodi:nodetypes="csc"
         inkscape:connector-curvature="0"
         id="path3162"
         d="m 198.52022,241.48748 c 0,0 0.26517,0.0884 1.50261,0.61872 1.23744,0.53033 0.79549,1.67938 0.79549,1.67938"
         style="fill:none;stroke:#ffffff;stroke-width:0.5;stroke-linecap:butt;stroke-linejoin:miter;stroke-miterlimit:4;stroke-opacity:1;stroke-dasharray:none" />
      <path
         inkscape:export-ydpi="551.72998"
         inkscape:export-xdpi="551.72998"
         inkscape:export-filename="C:\Documents and Settings\Justin\Desktop\WyoLum_v4_red.png"
         sodipodi:nodetypes="csc"
         inkscape:connector-curvature="0"
         id="path3162-1"
         d="m 218.72279,250.23792 c 0,0 0.26517,0.0884 1.50261,0.61872 1.23744,0.53033 0.79549,1.67938 0.79549,1.67938"
         style="fill:none;stroke:#ffffff;stroke-width:0.5;stroke-linecap:butt;stroke-linejoin:miter;stroke-miterlimit:4;stroke-opacity:1;stroke-dasharray:none" />
    </g>
  </g>
</svg>
