<?xml version="1.0" encoding="UTF-8" standalone="no"?>
<!-- Created with Inkscape (http://www.inkscape.org/) -->

<svg
   xmlns:dc="http://purl.org/dc/elements/1.1/"
   xmlns:cc="http://creativecommons.org/ns#"
   xmlns:rdf="http://www.w3.org/1999/02/22-rdf-syntax-ns#"
   xmlns:svg="http://www.w3.org/2000/svg"
   xmlns="http://www.w3.org/2000/svg"
   xmlns:sodipodi="http://sodipodi.sourceforge.net/DTD/sodipodi-0.dtd"
   xmlns:inkscape="http://www.inkscape.org/namespaces/inkscape"
   id="svg2880"
   version="1.1"
   inkscape:version="0.48.2 r9819"
   width="400"
   height="300"
   sodipodi:docname="wyolum_butterfly_v2.1.svg">
  <metadata
     id="metadata2886">
    <rdf:RDF>
      <cc:Work
         rdf:about="">
        <dc:format>image/svg+xml</dc:format>
        <dc:type
           rdf:resource="http://purl.org/dc/dcmitype/StillImage" />
        <dc:title />
      </cc:Work>
    </rdf:RDF>
  </metadata>
  <defs
     id="defs2884">
    <inkscape:perspective
       sodipodi:type="inkscape:persp3d"
       inkscape:vp_x="0 : 0.5 : 1"
       inkscape:vp_y="0 : 1000 : 0"
       inkscape:vp_z="1 : 0.5 : 1"
       inkscape:persp3d-origin="0.5 : 0.33333333 : 1"
       id="perspective2888" />
    <inkscape:perspective
       id="perspective2948"
       inkscape:persp3d-origin="0.5 : 0.33333333 : 1"
       inkscape:vp_z="1 : 0.5 : 1"
       inkscape:vp_y="0 : 1000 : 0"
       inkscape:vp_x="0 : 0.5 : 1"
       sodipodi:type="inkscape:persp3d" />
    <inkscape:perspective
       id="perspective2976"
       inkscape:persp3d-origin="0.5 : 0.33333333 : 1"
       inkscape:vp_z="1 : 0.5 : 1"
       inkscape:vp_y="0 : 1000 : 0"
       inkscape:vp_x="0 : 0.5 : 1"
       sodipodi:type="inkscape:persp3d" />
    <inkscape:perspective
       id="perspective3010"
       inkscape:persp3d-origin="0.5 : 0.33333333 : 1"
       inkscape:vp_z="1 : 0.5 : 1"
       inkscape:vp_y="0 : 1000 : 0"
       inkscape:vp_x="0 : 0.5 : 1"
       sodipodi:type="inkscape:persp3d" />
    <inkscape:perspective
       id="perspective3038"
       inkscape:persp3d-origin="0.5 : 0.33333333 : 1"
       inkscape:vp_z="1 : 0.5 : 1"
       inkscape:vp_y="0 : 1000 : 0"
       inkscape:vp_x="0 : 0.5 : 1"
       sodipodi:type="inkscape:persp3d" />
    <inkscape:perspective
       id="perspective3066"
       inkscape:persp3d-origin="0.5 : 0.33333333 : 1"
       inkscape:vp_z="1 : 0.5 : 1"
       inkscape:vp_y="0 : 1000 : 0"
       inkscape:vp_x="0 : 0.5 : 1"
       sodipodi:type="inkscape:persp3d" />
    <inkscape:perspective
       id="perspective3104"
       inkscape:persp3d-origin="0.5 : 0.33333333 : 1"
       inkscape:vp_z="1 : 0.5 : 1"
       inkscape:vp_y="0 : 1000 : 0"
       inkscape:vp_x="0 : 0.5 : 1"
       sodipodi:type="inkscape:persp3d" />
    <inkscape:perspective
       id="perspective3104-0"
       inkscape:persp3d-origin="0.5 : 0.33333333 : 1"
       inkscape:vp_z="1 : 0.5 : 1"
       inkscape:vp_y="0 : 1000 : 0"
       inkscape:vp_x="0 : 0.5 : 1"
       sodipodi:type="inkscape:persp3d" />
    <inkscape:perspective
       id="perspective3104-9"
       inkscape:persp3d-origin="0.5 : 0.33333333 : 1"
       inkscape:vp_z="1 : 0.5 : 1"
       inkscape:vp_y="0 : 1000 : 0"
       inkscape:vp_x="0 : 0.5 : 1"
       sodipodi:type="inkscape:persp3d" />
    <inkscape:perspective
       id="perspective3104-1"
       inkscape:persp3d-origin="0.5 : 0.33333333 : 1"
       inkscape:vp_z="1 : 0.5 : 1"
       inkscape:vp_y="0 : 1000 : 0"
       inkscape:vp_x="0 : 0.5 : 1"
       sodipodi:type="inkscape:persp3d" />
    <inkscape:perspective
       id="perspective3104-6"
       inkscape:persp3d-origin="0.5 : 0.33333333 : 1"
       inkscape:vp_z="1 : 0.5 : 1"
       inkscape:vp_y="0 : 1000 : 0"
       inkscape:vp_x="0 : 0.5 : 1"
       sodipodi:type="inkscape:persp3d" />
    <inkscape:perspective
       id="perspective3216"
       inkscape:persp3d-origin="0.5 : 0.33333333 : 1"
       inkscape:vp_z="1 : 0.5 : 1"
       inkscape:vp_y="0 : 1000 : 0"
       inkscape:vp_x="0 : 0.5 : 1"
       sodipodi:type="inkscape:persp3d" />
    <inkscape:perspective
       id="perspective3244"
       inkscape:persp3d-origin="0.5 : 0.33333333 : 1"
       inkscape:vp_z="1 : 0.5 : 1"
       inkscape:vp_y="0 : 1000 : 0"
       inkscape:vp_x="0 : 0.5 : 1"
       sodipodi:type="inkscape:persp3d" />
    <inkscape:perspective
       id="perspective3244-3"
       inkscape:persp3d-origin="0.5 : 0.33333333 : 1"
       inkscape:vp_z="1 : 0.5 : 1"
       inkscape:vp_y="0 : 1000 : 0"
       inkscape:vp_x="0 : 0.5 : 1"
       sodipodi:type="inkscape:persp3d" />
    <inkscape:perspective
       id="perspective3244-0"
       inkscape:persp3d-origin="0.5 : 0.33333333 : 1"
       inkscape:vp_z="1 : 0.5 : 1"
       inkscape:vp_y="0 : 1000 : 0"
       inkscape:vp_x="0 : 0.5 : 1"
       sodipodi:type="inkscape:persp3d" />
    <inkscape:perspective
       id="perspective3298"
       inkscape:persp3d-origin="0.5 : 0.33333333 : 1"
       inkscape:vp_z="1 : 0.5 : 1"
       inkscape:vp_y="0 : 1000 : 0"
       inkscape:vp_x="0 : 0.5 : 1"
       sodipodi:type="inkscape:persp3d" />
    <inkscape:perspective
       id="perspective3298-0"
       inkscape:persp3d-origin="0.5 : 0.33333333 : 1"
       inkscape:vp_z="1 : 0.5 : 1"
       inkscape:vp_y="0 : 1000 : 0"
       inkscape:vp_x="0 : 0.5 : 1"
       sodipodi:type="inkscape:persp3d" />
    <inkscape:perspective
       id="perspective3298-6"
       inkscape:persp3d-origin="0.5 : 0.33333333 : 1"
       inkscape:vp_z="1 : 0.5 : 1"
       inkscape:vp_y="0 : 1000 : 0"
       inkscape:vp_x="0 : 0.5 : 1"
       sodipodi:type="inkscape:persp3d" />
    <inkscape:perspective
       id="perspective3352"
       inkscape:persp3d-origin="0.5 : 0.33333333 : 1"
       inkscape:vp_z="1 : 0.5 : 1"
       inkscape:vp_y="0 : 1000 : 0"
       inkscape:vp_x="0 : 0.5 : 1"
       sodipodi:type="inkscape:persp3d" />
    <inkscape:perspective
       id="perspective3380"
       inkscape:persp3d-origin="0.5 : 0.33333333 : 1"
       inkscape:vp_z="1 : 0.5 : 1"
       inkscape:vp_y="0 : 1000 : 0"
       inkscape:vp_x="0 : 0.5 : 1"
       sodipodi:type="inkscape:persp3d" />
    <inkscape:perspective
       id="perspective3422"
       inkscape:persp3d-origin="0.5 : 0.33333333 : 1"
       inkscape:vp_z="1 : 0.5 : 1"
       inkscape:vp_y="0 : 1000 : 0"
       inkscape:vp_x="0 : 0.5 : 1"
       sodipodi:type="inkscape:persp3d" />
    <inkscape:perspective
       id="perspective3450"
       inkscape:persp3d-origin="0.5 : 0.33333333 : 1"
       inkscape:vp_z="1 : 0.5 : 1"
       inkscape:vp_y="0 : 1000 : 0"
       inkscape:vp_x="0 : 0.5 : 1"
       sodipodi:type="inkscape:persp3d" />
    <inkscape:perspective
       id="perspective3478"
       inkscape:persp3d-origin="0.5 : 0.33333333 : 1"
       inkscape:vp_z="1 : 0.5 : 1"
       inkscape:vp_y="0 : 1000 : 0"
       inkscape:vp_x="0 : 0.5 : 1"
       sodipodi:type="inkscape:persp3d" />
    <inkscape:perspective
       id="perspective3506"
       inkscape:persp3d-origin="0.5 : 0.33333333 : 1"
       inkscape:vp_z="1 : 0.5 : 1"
       inkscape:vp_y="0 : 1000 : 0"
       inkscape:vp_x="0 : 0.5 : 1"
       sodipodi:type="inkscape:persp3d" />
    <inkscape:perspective
       id="perspective3534"
       inkscape:persp3d-origin="0.5 : 0.33333333 : 1"
       inkscape:vp_z="1 : 0.5 : 1"
       inkscape:vp_y="0 : 1000 : 0"
       inkscape:vp_x="0 : 0.5 : 1"
       sodipodi:type="inkscape:persp3d" />
    <inkscape:perspective
       id="perspective3584"
       inkscape:persp3d-origin="0.5 : 0.33333333 : 1"
       inkscape:vp_z="1 : 0.5 : 1"
       inkscape:vp_y="0 : 1000 : 0"
       inkscape:vp_x="0 : 0.5 : 1"
       sodipodi:type="inkscape:persp3d" />
    <inkscape:perspective
       id="perspective3612"
       inkscape:persp3d-origin="0.5 : 0.33333333 : 1"
       inkscape:vp_z="1 : 0.5 : 1"
       inkscape:vp_y="0 : 1000 : 0"
       inkscape:vp_x="0 : 0.5 : 1"
       sodipodi:type="inkscape:persp3d" />
    <inkscape:perspective
       id="perspective3640"
       inkscape:persp3d-origin="0.5 : 0.33333333 : 1"
       inkscape:vp_z="1 : 0.5 : 1"
       inkscape:vp_y="0 : 1000 : 0"
       inkscape:vp_x="0 : 0.5 : 1"
       sodipodi:type="inkscape:persp3d" />
    <inkscape:perspective
       id="perspective3668"
       inkscape:persp3d-origin="0.5 : 0.33333333 : 1"
       inkscape:vp_z="1 : 0.5 : 1"
       inkscape:vp_y="0 : 1000 : 0"
       inkscape:vp_x="0 : 0.5 : 1"
       sodipodi:type="inkscape:persp3d" />
    <inkscape:perspective
       id="perspective3696"
       inkscape:persp3d-origin="0.5 : 0.33333333 : 1"
       inkscape:vp_z="1 : 0.5 : 1"
       inkscape:vp_y="0 : 1000 : 0"
       inkscape:vp_x="0 : 0.5 : 1"
       sodipodi:type="inkscape:persp3d" />
    <inkscape:perspective
       id="perspective3724"
       inkscape:persp3d-origin="0.5 : 0.33333333 : 1"
       inkscape:vp_z="1 : 0.5 : 1"
       inkscape:vp_y="0 : 1000 : 0"
       inkscape:vp_x="0 : 0.5 : 1"
       sodipodi:type="inkscape:persp3d" />
    <inkscape:perspective
       id="perspective3770"
       inkscape:persp3d-origin="0.5 : 0.33333333 : 1"
       inkscape:vp_z="1 : 0.5 : 1"
       inkscape:vp_y="0 : 1000 : 0"
       inkscape:vp_x="0 : 0.5 : 1"
       sodipodi:type="inkscape:persp3d" />
    <inkscape:perspective
       id="perspective3798"
       inkscape:persp3d-origin="0.5 : 0.33333333 : 1"
       inkscape:vp_z="1 : 0.5 : 1"
       inkscape:vp_y="0 : 1000 : 0"
       inkscape:vp_x="0 : 0.5 : 1"
       sodipodi:type="inkscape:persp3d" />
    <inkscape:perspective
       id="perspective3826"
       inkscape:persp3d-origin="0.5 : 0.33333333 : 1"
       inkscape:vp_z="1 : 0.5 : 1"
       inkscape:vp_y="0 : 1000 : 0"
       inkscape:vp_x="0 : 0.5 : 1"
       sodipodi:type="inkscape:persp3d" />
    <inkscape:perspective
       id="perspective3826-9"
       inkscape:persp3d-origin="0.5 : 0.33333333 : 1"
       inkscape:vp_z="1 : 0.5 : 1"
       inkscape:vp_y="0 : 1000 : 0"
       inkscape:vp_x="0 : 0.5 : 1"
       sodipodi:type="inkscape:persp3d" />
    <inkscape:perspective
       id="perspective3826-1"
       inkscape:persp3d-origin="0.5 : 0.33333333 : 1"
       inkscape:vp_z="1 : 0.5 : 1"
       inkscape:vp_y="0 : 1000 : 0"
       inkscape:vp_x="0 : 0.5 : 1"
       sodipodi:type="inkscape:persp3d" />
    <inkscape:perspective
       id="perspective3826-7"
       inkscape:persp3d-origin="0.5 : 0.33333333 : 1"
       inkscape:vp_z="1 : 0.5 : 1"
       inkscape:vp_y="0 : 1000 : 0"
       inkscape:vp_x="0 : 0.5 : 1"
       sodipodi:type="inkscape:persp3d" />
  </defs>
  <sodipodi:namedview
     pagecolor="#ffffff"
     bordercolor="#666666"
     borderopacity="1"
     objecttolerance="10"
     gridtolerance="10"
     guidetolerance="10"
     inkscape:pageopacity="0"
     inkscape:pageshadow="2"
     inkscape:window-width="1366"
     inkscape:window-height="744"
     id="namedview2882"
     showgrid="false"
     inkscape:zoom="1.7064844"
     inkscape:cx="234.32943"
     inkscape:cy="179.78682"
     inkscape:window-x="0"
     inkscape:window-y="24"
     inkscape:window-maximized="1"
     inkscape:current-layer="svg2880" />
  <rect
     style="fill:#ffffff;fill-opacity:1;stroke:#5d61ff;stroke-width:0;stroke-miterlimit:10;stroke-opacity:1;stroke-dasharray:none"
     id="rect4759"
     width="400.36084"
     height="297.22485"
     x="0.52459717"
     y="2.2505558" />
  <g
     id="g5758"
     inkscape:export-filename="/home/justin/Documents/WyoLum/CNC/butterfly_v2.png"
     inkscape:export-xdpi="551.72998"
     inkscape:export-ydpi="551.72998"
     transform="translate(41.264801,8.355356)">
    <g
       transform="translate(-189.72307,28.743453)"
       id="g4156">
      <path
         style="fill:#000000"
         d="m 419.44805,-3.4193021 c -3.15191,1.913651 -6.54611,3.56840102 -8.24388,7.035893 -6.47513,9.1936921 -13.22462,18.2415881 -19.53564,27.5214901 -4.57439,11.926743 -8.41013,24.215272 -14.18159,35.621949 -2.87669,5.280162 -2.9355,11.589528 -4.18204,17.355188 -0.99775,5.1289 -1.38194,10.382711 -2.27659,15.497261 -2.29153,11.513541 -3.60206,23.318651 -5.48651,34.956501 5.4293,-1.59869 11.31932,-2.19326 15.62056,-6.21893 18.02659,-12.72766 35.70666,-26.12171 55.2714,-36.429722 6.37971,-3.09243 14.08178,-6.51404 15.80016,-14.16065 2.18072,-7.665945 -1.10629,-15.337716 -3.54294,-22.519064 -4.51878,-11.575351 -8.21352,-23.643742 -8.46878,-36.167906 -0.46852,-4.826324 0.0185,-9.8042145 -0.82564,-14.5552201 -1.54888,-3.148008 -3.63386,-6.055799 -5.44656,-9.028765 -3.08049,-0.663687 -6.32104,-2.061888 -9.33779,-2.106074 -1.72138,1.066016 -3.44277,2.132033 -5.16416,3.198049 z"
         id="path3192-4"
         inkscape:connector-curvature="0" />
      <path
         style="fill:#000000"
         d="m 205.67408,60.527786 c -0.81989,0.304734 -2.04634,0.606267 -1.38495,1.704545 0.44905,4.792525 4.54309,7.581201 7.59185,10.775229 14.72203,14.326388 30.45435,27.68269 43.44529,43.65173 7.20421,8.29232 14.49617,17.3082 24.88484,21.66521 4.55738,2.71612 10.04686,1.65156 15.10072,2.35392 17.21841,0.8627 34.46734,2.94365 51.71967,1.89393 3.52323,0.47905 3.19484,-1.2413 1.38727,-3.67754 -1.61724,-3.38148 -5.76566,-4.50785 -8.4851,-6.89596 -4.84683,-3.36023 -9.86329,-6.19373 -14.54581,-9.76437 -18.78276,-12.90629 -37.64093,-25.756991 -56.58088,-38.458592 -15.48986,-6.95709 -30.89752,-14.156875 -46.42396,-20.994876 -4.98628,-0.905365 -10.04188,-2.531661 -14.98159,-3.013696 -0.57579,0.25349 -1.15157,0.50698 -1.72735,0.76047 z"
         id="path3194-6"
         inkscape:connector-curvature="0" />
      <path
         style="fill:#000000"
         d="m 286.97291,144.95605 c -0.85162,1.79188 -3.04828,3.46228 -1.22514,5.35334 1.45875,2.92067 2.16879,6.09597 3.07617,9.16193 5.31235,7.7579 12.42221,14.10994 18.83705,20.97691 4.17929,4.6604 8.98212,8.71933 14.5392,11.61771 6.47651,3.44916 11.07991,9.34983 16.6415,13.84093 4.95432,1.21216 9.8445,2.69637 14.74166,3.98171 5.71622,0.9563 11.5709,1.22976 17.39169,1.4249 1.50692,-3.88442 4.03773,-7.55086 4.93537,-11.55875 -0.30808,-9.89368 -0.20007,-19.81352 -1.02024,-29.68326 -3.60276,-3.47056 -6.69213,-7.53943 -10.6401,-10.54688 -3.08483,-0.33686 -4.68899,-3.70738 -6.82113,-5.61901 -1.89619,-1.81566 -3.33436,-4.47691 -5.45611,-5.81964 -9.01462,-0.82761 -18.06269,-0.77697 -27.0871,-0.18688 -9.6425,0.12803 -19.17032,-1.83874 -28.76915,-2.55247 -2.97938,-0.28108 -5.93347,-0.57601 -8.9306,-0.72345 l -0.21307,0.33291 z"
         id="path3196-7"
         inkscape:connector-curvature="0" />
      <path
         style="fill:#000000"
         d="m 453.40579,87.760558 c -23.55539,15.914612 -47.18782,31.810452 -70.5522,47.927032 -1.91742,5.83145 -2.57793,12.01774 -3.91513,18.00426 4.30111,5.77781 10.80519,9.51584 15.47408,14.92809 9.86196,4.71707 20.11808,8.75706 30.34035,12.57261 3.67725,1.03279 7.41426,2.77638 11.19463,2.67508 7.03947,-3.36219 14.86985,-4.58752 22.33221,-6.77823 0.91678,-0.69843 0.87019,-2.44014 1.95756,-3.23597 3.77665,-4.51023 8.68057,-8.6476 9.88104,-14.67507 1.3968,-7.32023 3.20748,-14.60216 4.56765,-21.90608 1.18935,-9.60799 1.18082,-19.63205 -1.29173,-29.0039 -3.0945,-7.9138 -8.69144,-15.048872 -15.8869,-19.655542 -1.24276,-0.39727 -2.88347,-1.80156 -4.10156,-0.85228 z"
         id="path3198-6"
         inkscape:connector-curvature="0" />
    </g>
    <path
       inkscape:connector-curvature="0"
       id="path3196-7-7"
       d="m 96.421111,178.18569 c -0.85162,1.79188 -3.04828,3.46228 -1.22514,5.35334 1.45875,2.92067 2.16879,6.09597 3.07617,9.16193 5.312349,7.7579 12.422209,14.10994 18.837049,20.97691 4.17929,4.6604 8.98212,8.71933 14.5392,11.61771 6.47651,3.44916 11.07991,9.34983 16.6415,13.84093 4.95432,1.21216 9.8445,2.69637 14.74166,3.98171 5.71622,0.9563 11.5709,1.22976 17.39169,1.4249 1.50692,-3.88442 4.03773,-7.55086 4.93537,-11.55875 -0.30808,-9.89368 -0.20007,-19.81352 -1.02024,-29.68326 -3.60276,-3.47056 -6.69213,-7.53943 -10.6401,-10.54688 -3.08483,-0.33686 -4.68899,-3.70738 -6.82113,-5.61901 -1.89619,-1.81566 -3.33436,-4.47691 -5.45611,-5.81964 -9.01462,-0.82761 -18.06269,-0.77697 -27.0871,-0.18688 -9.6425,0.12803 -19.17032,-1.83874 -28.76915,-2.55247 -2.97938,-0.28108 -5.933469,-0.57601 -8.930599,-0.72345 l -0.21307,0.33291 z"
       style="fill:#000000" />
    <g
       transform="translate(-50.154009,33.644006)"
       id="g5080">
      <path
         style="fill:#000000"
         d="m 281.05026,-3.8336678 c -3.15191,1.913651 -6.54611,3.56840106 -8.24388,7.035893 -6.47513,9.1936918 -13.22462,18.2415878 -19.53564,27.5214898 -4.57439,11.926743 -8.41013,24.215272 -14.18159,35.621949 -2.87669,5.280162 -2.9355,11.589528 -4.18204,17.355188 -0.99775,5.1289 -1.38194,10.382711 -2.27659,15.497261 -2.29153,11.513537 -3.60206,23.318647 -5.48651,34.956497 5.4293,-1.59869 11.31932,-2.19326 15.62056,-6.21893 18.02659,-12.72766 35.70666,-26.12171 55.2714,-36.429718 6.37971,-3.09243 14.08178,-6.51404 15.80016,-14.16065 2.18072,-7.665945 -1.10629,-15.337716 -3.54294,-22.519064 -4.51878,-11.575351 -8.21352,-23.643742 -8.46878,-36.167906 -0.46852,-4.826324 0.0185,-9.8042142 -0.82564,-14.5552198 -1.54888,-3.14800796 -3.63386,-6.055799 -5.44656,-9.028765 -3.08049,-0.663687 -6.32104,-2.061888 -9.33779,-2.106074 -1.72138,1.066016 -3.44277,2.132033 -5.16416,3.198049 z"
         id="path3192-4-0"
         inkscape:connector-curvature="0" />
      <path
         style="fill:#000000"
         d="m 315.008,87.346192 c -23.55539,15.914608 -47.18782,31.810448 -70.5522,47.927028 -1.91742,5.83145 -2.57793,12.01774 -3.91513,18.00426 4.30111,5.77781 10.80519,9.51584 15.47408,14.92809 9.86196,4.71707 20.11808,8.75706 30.34035,12.57261 3.67725,1.03279 7.41426,2.77638 11.19463,2.67508 7.03947,-3.36219 14.86985,-4.58752 22.33221,-6.77823 0.91678,-0.69843 0.87019,-2.44014 1.95756,-3.23597 3.77665,-4.51023 8.68057,-8.6476 9.88104,-14.67507 1.3968,-7.32023 3.20748,-14.60216 4.56765,-21.90608 1.18935,-9.60799 1.18082,-19.63205 -1.29173,-29.0039 -3.0945,-7.913796 -8.69144,-15.048868 -15.8869,-19.655538 -1.24276,-0.39727 -2.88347,-1.80156 -4.10156,-0.85228 z"
         id="path3198-6-6"
         inkscape:connector-curvature="0" />
    </g>
    <path
       inkscape:connector-curvature="0"
       id="path3194-6-8"
       d="m 15.122281,93.757426 c -0.81989,0.304734 -2.04634,0.606267 -1.38495,1.704545 0.44905,4.792529 4.54309,7.581199 7.59185,10.775229 14.72203,14.32639 30.45435,27.68269 43.44529,43.65173 7.20421,8.29232 14.49617,17.3082 24.88484,21.66521 4.55738,2.71612 10.04686,1.65156 15.100719,2.35392 17.21841,0.8627 34.46734,2.94365 51.71967,1.89393 3.52323,0.47905 3.19484,-1.2413 1.38727,-3.67754 -1.61724,-3.38148 -5.76566,-4.50785 -8.4851,-6.89596 -4.84683,-3.36023 -9.86329,-6.19373 -14.54581,-9.76437 -18.78276,-12.90629 -37.640929,-25.75699 -56.580879,-38.45859 -15.48986,-6.95709 -30.89752,-14.15688 -46.42396,-20.994878 -4.98628,-0.905365 -10.04188,-2.531661 -14.98159,-3.013696 -0.57579,0.25349 -1.15157,0.50698 -1.72735,0.76047 z"
       style="fill:#000000" />
    <path
       inkscape:connector-curvature="0"
       id="path4808"
       d="m 97.088291,175.40652 c -1.00624,1.35485 -1.03163,3.04634 0,4.33788 1.59633,4.69733 3.185579,9.66841 6.720479,13.22082 7.24485,7.91266 14.40757,16.16168 22.70718,22.99982 5.45219,3.82344 11.35585,7.05181 16.12348,11.77572 2.59569,2.0439 4.68044,4.99851 7.5889,6.47357 8.72008,2.40881 17.48609,4.97659 26.61014,4.90583 2.52349,0.52879 4.62779,0.30902 5.19528,-2.55275 1.65141,-3.7644 4.20248,-7.51295 3.41092,-11.81102 -0.36748,-8.29433 -0.24019,-16.7372 -1.04198,-24.94121 -3.02545,-4.25008 -6.81011,-8.20766 -11.0972,-11.20079 -3.70171,-1.81942 -5.91652,-5.72531 -8.85,-8.53661 -1.22331,-1.9881 -3.06693,-2.97635 -5.36789,-2.75483 -14.95666,-0.56113 -29.99366,0.54341 -44.85497,-1.67041 -5.47226,-0.57249 -10.94158,-1.18765 -16.419199,-1.48912 -0.24171,0.41437 -0.48343,0.82873 -0.72514,1.2431 z"
       style="fill:#ffffff;fill-opacity:1;stroke:#0000ff;stroke-width:0;stroke-miterlimit:4;stroke-opacity:1;stroke-dasharray:none" />
    <path
       inkscape:connector-curvature="0"
       id="path4810"
       d="m 17.672718,89.451745 c -1.112216,0.287161 -3.275958,0.77235 -2.214261,2.395546 1.734262,5.164415 6.659452,8.326449 10.219932,12.249429 15.180696,14.47146 30.589732,28.76132 44.093452,44.82612 6.11382,6.68836 12.41184,13.70016 20.8787,17.31429 4.08504,2.71333 9.15394,1.70447 13.781589,2.36492 17.78244,1.23484 35.65628,2.65161 53.46417,1.74145 1.02958,0.1231 1.62836,-0.59607 0.77694,-1.35964 -3.08737,-4.75597 -8.63774,-6.9933 -13.03794,-10.36237 C 123.12109,143.5167 100.88447,127.95616 78.310301,112.95171 63.168471,106.26099 48.228791,99.055635 32.965364,92.67602 28.016001,91.227389 22.801358,89.706755 17.672718,89.451745 z"
       style="fill:#ffffff;fill-opacity:1;stroke:#0000ff;stroke-width:0;stroke-miterlimit:4;stroke-opacity:1;stroke-dasharray:none" />
    <g
       transform="translate(-52.154009,31.644006)"
       id="g5076">
      <path
         style="fill:#ffffff;fill-opacity:1;stroke:#0000ff;stroke-width:0;stroke-miterlimit:4;stroke-opacity:1;stroke-dasharray:none"
         d="m 287.98971,-8.6459912 c -4.21725,1.6987256 -8.13785,4.3183953 -11.69285,7.1348413 -7.19097,9.7873269 -14.40004,19.5584289 -21.029,29.7306629 -4.76667,10.490321 -7.93164,21.743313 -12.9251,32.170343 -2.2392,4.509639 -4.16292,9.166061 -4.73006,14.212182 -2.97514,18.685148 -6.08419,37.352042 -8.77354,56.082082 5.71413,-1.44622 11.68596,-3.0121 16.14727,-7.13037 19.15841,-13.75825 38.44455,-27.652881 59.51313,-38.294353 5.03142,-2.638479 9.41585,-7.174119 9.88,-13.104282 0.98271,-8.108892 -3.1736,-15.723154 -5.36856,-23.344132 -3.81624,-10.83873 -6.82397,-22.054779 -7.13997,-33.590546 -0.37303,-4.455463 -0.18196,-9.0610567 -0.84109,-13.4262954 -2.11741,-2.8750032 -3.03192,-7.0289375 -6.2809,-8.8344697 -2.17581,-0.7599165 -4.4994,-1.2473709 -6.75933,-1.6056631 z"
         id="path4814"
         inkscape:connector-curvature="0" />
      <path
         style="fill:#ffffff;fill-opacity:1;stroke:#0000ff;stroke-width:0;stroke-miterlimit:4;stroke-opacity:1;stroke-dasharray:none"
         d="m 316.98229,85.492477 c -15.92327,9.832735 -31.17446,20.749873 -46.72652,31.171023 -8.15635,5.55081 -16.30281,11.11612 -24.45356,16.67514 -1.48372,5.62425 -2.50363,11.39525 -3.65159,17.11844 4.26674,5.18383 9.72348,9.25486 14.50277,13.97186 6.31524,3.87379 13.45652,6.13035 20.23912,9.07718 6.41762,2.3319 12.74403,5.29829 19.44924,6.53919 4.35298,-0.12447 8.27886,-2.57724 12.55097,-3.41763 3.68419,-1.2166 7.6736,-1.85599 11.23615,-3.2122 2.6824,-3.8615 5.99826,-7.42748 8.89589,-11.2008 3.76008,-5.87547 3.94356,-13.1623 5.68959,-19.76892 2.64119,-11.86205 3.49948,-24.38432 0.42229,-36.20915 -3.06534,-8.533974 -9.06277,-16.153081 -16.96305,-20.498104 -0.38098,-0.06943 -0.80442,-0.466863 -1.1913,-0.246029 z"
         id="path4816"
         inkscape:connector-curvature="0" />
    </g>
    <g
       transform="translate(-305.44772,89.656608)"
       id="g4936">
      <path
         style="fill:none;stroke:#000000;stroke-width:1px;stroke-linecap:butt;stroke-linejoin:miter;stroke-opacity:1"
         d="m 447.43456,72.182403 -33.66477,-14.0625"
         id="path3744"
         inkscape:connector-curvature="0" />
      <path
         style="fill:none;stroke:#000000;stroke-width:1.06915355px;stroke-linecap:butt;stroke-linejoin:miter;stroke-opacity:1"
         d="M 408.39085,55.700373 388.23619,41.961303"
         id="path3746"
         inkscape:connector-curvature="0" />
      <path
         style="fill:none;stroke:#000000;stroke-width:1px;stroke-linecap:butt;stroke-linejoin:miter;stroke-opacity:1"
         d="M 383.51411,39.796043 368.59933,28.716493"
         id="path3748"
         inkscape:connector-curvature="0" />
      <path
         style="fill:none;stroke:#000000;stroke-width:1px;stroke-linecap:butt;stroke-linejoin:miter;stroke-opacity:1"
         d="m 364.33797,25.733543 -16.61932,-8.94887"
         id="path3750"
         inkscape:connector-curvature="0" />
      <path
         style="fill:none;stroke:#000000;stroke-width:1px;stroke-linecap:butt;stroke-linejoin:miter;stroke-opacity:1"
         d="m 408.65615,57.693763 -20.02841,0"
         id="path3752"
         inkscape:connector-curvature="0" />
      <path
         style="fill:none;stroke:#000000;stroke-width:1px;stroke-linecap:butt;stroke-linejoin:miter;stroke-opacity:1"
         d="m 384.79252,42.352853 -8.94887,-0.42613"
         id="path3754"
         inkscape:connector-curvature="0" />
      <path
         style="fill:none;stroke:#000000;stroke-width:1px;stroke-linecap:butt;stroke-linejoin:miter;stroke-opacity:1"
         d="m 365.19024,27.438083 -4.6875,0.42614"
         id="path3758"
         inkscape:connector-curvature="0" />
      <g
         id="g2936-2-8-94-9-9-8-31"
         transform="matrix(0.39423546,-0.02453309,0.0888767,0.22251545,355.792,51.429143)"
         inkscape:transform-center-x="10.073594"
         inkscape:transform-center-y="-75.079721">
        <path
           d="m 144.46023,40.909092 c 0,6.82511 -5.53284,12.357955 -12.35795,12.357955 -6.82511,0 -12.35796,-5.532845 -12.35796,-12.357955 0,-6.82511 5.53285,-12.357955 12.35796,-12.357955 6.82511,0 12.35795,5.532845 12.35795,12.357955 z"
           sodipodi:ry="12.357955"
           sodipodi:rx="12.357955"
           sodipodi:cy="40.909092"
           sodipodi:cx="132.10228"
           id="path2928-0-7-2-0-3-1-9"
           style="fill:#000000"
           sodipodi:type="arc" />
        <path
           id="path2934-6-4-0-3-5-3-8"
           d="m 132.71369,35.177557 c -4.15001,-0.540618 -7.71523,4.052182 -5.93928,7.870206 1.46454,3.961238 7.40813,4.984197 9.84109,1.39826 2.42196,-2.972272 0.959,-8.027998 -2.83647,-9.055398 -0.32005,-0.186021 -0.69788,-0.259012 -1.06534,-0.213068 z"
           style="fill:#ffffff"
           inkscape:connector-curvature="0" />
      </g>
      <g
         id="g2936-2-8-94-9-9-8-6"
         transform="matrix(0.39423546,-0.02453309,0.0888767,0.22251545,329.27266,51.843503)"
         inkscape:transform-center-x="10.073594"
         inkscape:transform-center-y="-75.079721">
        <path
           d="m 144.46023,40.909092 c 0,6.82511 -5.53284,12.357955 -12.35795,12.357955 -6.82511,0 -12.35796,-5.532845 -12.35796,-12.357955 0,-6.82511 5.53285,-12.357955 12.35796,-12.357955 6.82511,0 12.35795,5.532845 12.35795,12.357955 z"
           sodipodi:ry="12.357955"
           sodipodi:rx="12.357955"
           sodipodi:cy="40.909092"
           sodipodi:cx="132.10228"
           id="path2928-0-7-2-0-3-1-5"
           style="fill:#000000"
           sodipodi:type="arc" />
        <path
           id="path2934-6-4-0-3-5-3-0"
           d="m 132.71369,35.177557 c -4.15001,-0.540618 -7.71523,4.052182 -5.93928,7.870206 1.46454,3.961238 7.40813,4.984197 9.84109,1.39826 2.42196,-2.972272 0.959,-8.027998 -2.83647,-9.055398 -0.32005,-0.186021 -0.69788,-0.259012 -1.06534,-0.213068 z"
           style="fill:#ffffff"
           inkscape:connector-curvature="0" />
      </g>
      <g
         id="g2936-2-8-94-9-9-8-28"
         transform="matrix(0.39423546,-0.02453309,0.0888767,0.22251545,331.1373,36.097653)"
         inkscape:transform-center-x="10.073594"
         inkscape:transform-center-y="-75.079721">
        <path
           d="m 144.46023,40.909092 c 0,6.82511 -5.53284,12.357955 -12.35795,12.357955 -6.82511,0 -12.35796,-5.532845 -12.35796,-12.357955 0,-6.82511 5.53285,-12.357955 12.35796,-12.357955 6.82511,0 12.35795,5.532845 12.35795,12.357955 z"
           sodipodi:ry="12.357955"
           sodipodi:rx="12.357955"
           sodipodi:cy="40.909092"
           sodipodi:cx="132.10228"
           id="path2928-0-7-2-0-3-1-6"
           style="fill:#000000"
           sodipodi:type="arc" />
        <path
           id="path2934-6-4-0-3-5-3-02"
           d="m 132.71369,35.177557 c -4.15001,-0.540618 -7.71523,4.052182 -5.93928,7.870206 1.46454,3.961238 7.40813,4.984197 9.84109,1.39826 2.42196,-2.972272 0.959,-8.027998 -2.83647,-9.055398 -0.32005,-0.186021 -0.69788,-0.259012 -1.06534,-0.213068 z"
           style="fill:#ffffff"
           inkscape:connector-curvature="0" />
      </g>
      <g
         id="g2936-2-8-94-9-9-8-48"
         transform="matrix(0.39423546,-0.02453309,0.0888767,0.22251545,316.22017,35.890473)"
         inkscape:transform-center-x="10.073594"
         inkscape:transform-center-y="-75.079721">
        <path
           d="m 144.46023,40.909092 c 0,6.82511 -5.53284,12.357955 -12.35795,12.357955 -6.82511,0 -12.35796,-5.532845 -12.35796,-12.357955 0,-6.82511 5.53285,-12.357955 12.35796,-12.357955 6.82511,0 12.35795,5.532845 12.35795,12.357955 z"
           sodipodi:ry="12.357955"
           sodipodi:rx="12.357955"
           sodipodi:cy="40.909092"
           sodipodi:cx="132.10228"
           id="path2928-0-7-2-0-3-1-65"
           style="fill:#000000"
           sodipodi:type="arc" />
        <path
           id="path2934-6-4-0-3-5-3-09"
           d="m 132.71369,35.177557 c -4.15001,-0.540618 -7.71523,4.052182 -5.93928,7.870206 1.46454,3.961238 7.40813,4.984197 9.84109,1.39826 2.42196,-2.972272 0.959,-8.027998 -2.83647,-9.055398 -0.32005,-0.186021 -0.69788,-0.259012 -1.06534,-0.213068 z"
           style="fill:#ffffff"
           inkscape:connector-curvature="0" />
      </g>
      <g
         id="g2936-2-8-94-9-9-8-0"
         transform="matrix(0.39423546,-0.02453309,0.0888767,0.22251545,312.07653,21.387703)"
         inkscape:transform-center-x="10.073594"
         inkscape:transform-center-y="-75.079721">
        <path
           d="m 144.46023,40.909092 c 0,6.82511 -5.53284,12.357955 -12.35795,12.357955 -6.82511,0 -12.35796,-5.532845 -12.35796,-12.357955 0,-6.82511 5.53285,-12.357955 12.35796,-12.357955 6.82511,0 12.35795,5.532845 12.35795,12.357955 z"
           sodipodi:ry="12.357955"
           sodipodi:rx="12.357955"
           sodipodi:cy="40.909092"
           sodipodi:cx="132.10228"
           id="path2928-0-7-2-0-3-1-0"
           style="fill:#000000"
           sodipodi:type="arc" />
        <path
           id="path2934-6-4-0-3-5-3-6"
           d="m 132.71369,35.177557 c -4.15001,-0.540618 -7.71523,4.052182 -5.93928,7.870206 1.46454,3.961238 7.40813,4.984197 9.84109,1.39826 2.42196,-2.972272 0.959,-8.027998 -2.83647,-9.055398 -0.32005,-0.186021 -0.69788,-0.259012 -1.06534,-0.213068 z"
           style="fill:#ffffff"
           inkscape:connector-curvature="0" />
      </g>
      <g
         id="g2936-2-8-94-9-9-8-1"
         transform="matrix(0.39423546,-0.02453309,0.0888767,0.22251545,290.52957,10.407043)"
         inkscape:transform-center-x="10.073594"
         inkscape:transform-center-y="-75.079721">
        <path
           d="m 144.46023,40.909092 c 0,6.82511 -5.53284,12.357955 -12.35795,12.357955 -6.82511,0 -12.35796,-5.532845 -12.35796,-12.357955 0,-6.82511 5.53285,-12.357955 12.35796,-12.357955 6.82511,0 12.35795,5.532845 12.35795,12.357955 z"
           sodipodi:ry="12.357955"
           sodipodi:rx="12.357955"
           sodipodi:cy="40.909092"
           sodipodi:cx="132.10228"
           id="path2928-0-7-2-0-3-1-38"
           style="fill:#000000"
           sodipodi:type="arc" />
        <path
           id="path2934-6-4-0-3-5-3-9"
           d="m 132.71369,35.177557 c -4.15001,-0.540618 -7.71523,4.052182 -5.93928,7.870206 1.46454,3.961238 7.40813,4.984197 9.84109,1.39826 2.42196,-2.972272 0.959,-8.027998 -2.83647,-9.055398 -0.32005,-0.186021 -0.69788,-0.259012 -1.06534,-0.213068 z"
           style="fill:#ffffff"
           inkscape:connector-curvature="0" />
      </g>
      <g
         id="g2936-2-8-94-9-9-8-34"
         transform="matrix(0.39423546,-0.02453309,0.0888767,0.22251545,300.26713,22.009253)"
         inkscape:transform-center-x="10.073594"
         inkscape:transform-center-y="-75.079721">
        <path
           d="m 144.46023,40.909092 c 0,6.82511 -5.53284,12.357955 -12.35795,12.357955 -6.82511,0 -12.35796,-5.532845 -12.35796,-12.357955 0,-6.82511 5.53285,-12.357955 12.35796,-12.357955 6.82511,0 12.35795,5.532845 12.35795,12.357955 z"
           sodipodi:ry="12.357955"
           sodipodi:rx="12.357955"
           sodipodi:cy="40.909092"
           sodipodi:cx="132.10228"
           id="path2928-0-7-2-0-3-1-4"
           style="fill:#000000"
           sodipodi:type="arc" />
        <path
           id="path2934-6-4-0-3-5-3-60"
           d="m 132.71369,35.177557 c -4.15001,-0.540618 -7.71523,4.052182 -5.93928,7.870206 1.46454,3.961238 7.40813,4.984197 9.84109,1.39826 2.42196,-2.972272 0.959,-8.027998 -2.83647,-9.055398 -0.32005,-0.186021 -0.69788,-0.259012 -1.06534,-0.213068 z"
           style="fill:#ffffff"
           inkscape:connector-curvature="0" />
      </g>
    </g>
    <g
       transform="translate(-299.78006,90.886753)"
       id="g5084">
      <g
         id="g2936-2-8-94-9-9-8"
         transform="matrix(0.39423546,-0.02453309,0.0888767,0.22251545,367.37867,89.136333)"
         inkscape:transform-center-x="10.073594"
         inkscape:transform-center-y="-75.079721">
        <path
           d="m 144.46023,40.909092 c 0,6.82511 -5.53284,12.357955 -12.35795,12.357955 -6.82511,0 -12.35796,-5.532845 -12.35796,-12.357955 0,-6.82511 5.53285,-12.357955 12.35796,-12.357955 6.82511,0 12.35795,5.532845 12.35795,12.357955 z"
           sodipodi:ry="12.357955"
           sodipodi:rx="12.357955"
           sodipodi:cy="40.909092"
           sodipodi:cx="132.10228"
           id="path2928-0-7-2-0-3-1"
           style="fill:#000000"
           sodipodi:type="arc" />
        <path
           id="path2934-6-4-0-3-5-3"
           d="m 132.71369,35.177557 c -4.15001,-0.540618 -7.71523,4.052182 -5.93928,7.870206 1.46454,3.961238 7.40813,4.984197 9.84109,1.39826 2.42196,-2.972272 0.959,-8.027998 -2.83647,-9.055398 -0.32005,-0.186021 -0.69788,-0.259012 -1.06534,-0.213068 z"
           style="fill:#ffffff"
           inkscape:connector-curvature="0" />
      </g>
      <g
         id="g2936-2-8-94-9-9-8-2"
         transform="matrix(0.39423546,-0.02453309,0.0888767,0.22251545,382.31134,104.05344)"
         inkscape:transform-center-x="10.073594"
         inkscape:transform-center-y="-75.079721">
        <path
           d="m 144.46023,40.909092 c 0,6.82511 -5.53284,12.357955 -12.35795,12.357955 -6.82511,0 -12.35796,-5.532845 -12.35796,-12.357955 0,-6.82511 5.53285,-12.357955 12.35796,-12.357955 6.82511,0 12.35795,5.532845 12.35795,12.357955 z"
           sodipodi:ry="12.357955"
           sodipodi:rx="12.357955"
           sodipodi:cy="40.909092"
           sodipodi:cx="132.10228"
           id="path2928-0-7-2-0-3-1-3"
           style="fill:#000000"
           sodipodi:type="arc" />
        <path
           id="path2934-6-4-0-3-5-3-3"
           d="m 132.71369,35.177557 c -4.15001,-0.540618 -7.71523,4.052182 -5.93928,7.870206 1.46454,3.961238 7.40813,4.984197 9.84109,1.39826 2.42196,-2.972272 0.959,-8.027998 -2.83647,-9.055398 -0.32005,-0.186021 -0.69788,-0.259012 -1.06534,-0.213068 z"
           style="fill:#ffffff"
           inkscape:connector-curvature="0" />
      </g>
      <g
         id="g2936-2-8-94-9-9-8-4"
         transform="matrix(0.39423546,-0.02453309,0.0888767,0.22251545,402.20085,114.41256)"
         inkscape:transform-center-x="10.073594"
         inkscape:transform-center-y="-75.079721">
        <path
           d="m 144.46023,40.909092 c 0,6.82511 -5.53284,12.357955 -12.35795,12.357955 -6.82511,0 -12.35796,-5.532845 -12.35796,-12.357955 0,-6.82511 5.53285,-12.357955 12.35796,-12.357955 6.82511,0 12.35795,5.532845 12.35795,12.357955 z"
           sodipodi:ry="12.357955"
           sodipodi:rx="12.357955"
           sodipodi:cy="40.909092"
           sodipodi:cx="132.10228"
           id="path2928-0-7-2-0-3-1-1"
           style="fill:#000000"
           sodipodi:type="arc" />
        <path
           id="path2934-6-4-0-3-5-3-1"
           d="m 132.71369,35.177557 c -4.15001,-0.540618 -7.71523,4.052182 -5.93928,7.870206 1.46454,3.961238 7.40813,4.984197 9.84109,1.39826 2.42196,-2.972272 0.959,-8.027998 -2.83647,-9.055398 -0.32005,-0.186021 -0.69788,-0.259012 -1.06534,-0.213068 z"
           style="fill:#ffffff"
           inkscape:connector-curvature="0" />
      </g>
      <g
         id="g2936-2-8-94-9-9-8-3"
         transform="matrix(0.39423546,-0.02453309,0.0888767,0.22251545,410.48813,98.666713)"
         inkscape:transform-center-x="10.073594"
         inkscape:transform-center-y="-75.079721">
        <path
           d="m 144.46023,40.909092 c 0,6.82511 -5.53284,12.357955 -12.35795,12.357955 -6.82511,0 -12.35796,-5.532845 -12.35796,-12.357955 0,-6.82511 5.53285,-12.357955 12.35796,-12.357955 6.82511,0 12.35795,5.532845 12.35795,12.357955 z"
           sodipodi:ry="12.357955"
           sodipodi:rx="12.357955"
           sodipodi:cy="40.909092"
           sodipodi:cx="132.10228"
           id="path2928-0-7-2-0-3-1-8"
           style="fill:#000000"
           sodipodi:type="arc" />
        <path
           id="path2934-6-4-0-3-5-3-7"
           d="m 132.71369,35.177557 c -4.15001,-0.540618 -7.71523,4.052182 -5.93928,7.870206 1.46454,3.961238 7.40813,4.984197 9.84109,1.39826 2.42196,-2.972272 0.959,-8.027998 -2.83647,-9.055398 -0.32005,-0.186021 -0.69788,-0.259012 -1.06534,-0.213068 z"
           style="fill:#ffffff"
           inkscape:connector-curvature="0" />
      </g>
      <g
         id="g2936-2-8-94-9-9-8-42"
         transform="matrix(0.39423546,-0.02453309,0.0888767,0.22251545,411.73122,108.1971)"
         inkscape:transform-center-x="10.073594"
         inkscape:transform-center-y="-75.079721">
        <path
           d="m 144.46023,40.909092 c 0,6.82511 -5.53284,12.357955 -12.35795,12.357955 -6.82511,0 -12.35796,-5.532845 -12.35796,-12.357955 0,-6.82511 5.53285,-12.357955 12.35796,-12.357955 6.82511,0 12.35795,5.532845 12.35795,12.357955 z"
           sodipodi:ry="12.357955"
           sodipodi:rx="12.357955"
           sodipodi:cy="40.909092"
           sodipodi:cx="132.10228"
           id="path2928-0-7-2-0-3-1-7"
           style="fill:#000000"
           sodipodi:type="arc" />
        <path
           id="path2934-6-4-0-3-5-3-79"
           d="m 132.71369,35.177557 c -4.15001,-0.540618 -7.71523,4.052182 -5.93928,7.870206 1.46454,3.961238 7.40813,4.984197 9.84109,1.39826 2.42196,-2.972272 0.959,-8.027998 -2.83647,-9.055398 -0.32005,-0.186021 -0.69788,-0.259012 -1.06534,-0.213068 z"
           style="fill:#ffffff"
           inkscape:connector-curvature="0" />
      </g>
      <path
         style="fill:none;stroke:#000000;stroke-width:1px;stroke-linecap:butt;stroke-linejoin:miter;stroke-opacity:1"
         d="m 419.17301,94.998353 -17.6105,-1.24309"
         id="path5187"
         inkscape:connector-curvature="0" />
      <path
         style="fill:none;stroke:#000000;stroke-width:1px;stroke-linecap:butt;stroke-linejoin:miter;stroke-opacity:1"
         d="m 424.76693,96.448633 11.60221,11.809387"
         id="path5189"
         inkscape:connector-curvature="0" />
      <path
         style="fill:none;stroke:#000000;stroke-width:1px;stroke-linecap:butt;stroke-linejoin:miter;stroke-opacity:1"
         d="m 435.12605,110.12266 -13.67403,3.72928"
         id="path5191"
         inkscape:connector-curvature="0" />
      <path
         style="fill:none;stroke:#000000;stroke-width:1px;stroke-linecap:butt;stroke-linejoin:miter;stroke-opacity:1"
         d="m 440.92716,111.36575 14.50276,7.66575"
         id="path5193"
         inkscape:connector-curvature="0" />
      <path
         style="fill:none;stroke:#000000;stroke-width:0.99701965px;stroke-linecap:butt;stroke-linejoin:miter;stroke-opacity:1"
         d="m 456.6745,121.5162 -7.66872,15.33447"
         id="path5195"
         inkscape:connector-curvature="0" />
      <path
         style="fill:none;stroke:#000000;stroke-width:1px;stroke-linecap:butt;stroke-linejoin:miter;stroke-opacity:1"
         d="m 460.60948,118.20277 4.35083,-3.10773"
         id="path5197"
         inkscape:connector-curvature="0" />
      <path
         style="fill:none;stroke:#000000;stroke-width:1px;stroke-linecap:butt;stroke-linejoin:miter;stroke-opacity:1"
         d="m 467.23931,111.36575 -0.41436,-5.38674"
         id="path5199"
         inkscape:connector-curvature="0" />
      <path
         style="fill:none;stroke:#000000;stroke-width:1px;stroke-linecap:butt;stroke-linejoin:miter;stroke-opacity:1"
         d="m 469.51832,115.09504 12.01657,14.70994"
         id="path5201"
         inkscape:connector-curvature="0" />
      <path
         style="fill:none;stroke:#000000;stroke-width:1px;stroke-linecap:butt;stroke-linejoin:miter;stroke-opacity:1"
         d="m 470.13986,105.56465 10.15194,4.97238"
         id="path5203"
         inkscape:connector-curvature="0" />
    </g>
    <g
       id="g5200"
       transform="translate(-310.27723,79.843328)">
      <path
         style="fill:none;stroke:#000000;stroke-width:1px;stroke-linecap:butt;stroke-linejoin:miter;stroke-opacity:1"
         d="m 463.20161,65.790353 c -0.42614,-12.78409 10.65341,-25.56818 14.48863,-31.10795 3.83523,-5.53977 -5.96591,-12.78409 -5.96591,-12.78409"
         id="path2908"
         inkscape:connector-curvature="0" />
      <path
         style="fill:none;stroke:#000000;stroke-width:1px;stroke-linecap:butt;stroke-linejoin:miter;stroke-opacity:1"
         d="m 460.64479,67.494903 c -5.96591,-6.81818 -19.60227,-7.67045 -19.60227,-7.67045"
         id="path2910"
         inkscape:connector-curvature="0" />
      <path
         style="fill:#000000"
         d="m 465.77059,66.610673 c -2.54463,0.75563 -5.29478,1.41969 -7.44407,3.00959 -0.60316,2.19244 1.71698,4.09237 2.25086,6.1625 1.67199,3.59707 3.04075,7.41286 6.22003,10.00585 3.99442,3.80926 7.69837,8.15048 12.40979,11.05111 4.14978,2.61632 7.56881,6.343817 11.07955,9.801127 4.86965,6.2026 7.45061,14.44445 13.79616,19.48242 1.85475,0.9019 5.70896,1.00768 4.94833,-2.03745 -0.0695,-2.70473 0.59368,-5.75527 -1.82815,-7.69 -6.32491,-8.03432 -12.24145,-16.450627 -18.81735,-24.249767 -5.93454,-5.36774 -12.57907,-10.0454 -18.0475,-15.8541 -2.18752,-2.6684 0.632,-7.26552 -2.42365,-9.38831 -0.66925,-0.30086 -1.41217,-0.36204 -2.144,-0.29297 z"
         id="path3094"
         inkscape:connector-curvature="0" />
    </g>
    <g
       id="g5232"
       transform="translate(-302.11934,93.303842)">
      <g
         id="g2936-2-8-94-9-9-2"
         transform="matrix(0.31110633,-0.21745885,0.18942782,0.1453415,503.41693,71.525923)">
        <path
           d="m 144.46023,40.909092 c 0,6.82511 -5.53284,12.357955 -12.35795,12.357955 -6.82511,0 -12.35796,-5.532845 -12.35796,-12.357955 0,-6.82511 5.53285,-12.357955 12.35796,-12.357955 6.82511,0 12.35795,5.532845 12.35795,12.357955 z"
           sodipodi:ry="12.357955"
           sodipodi:rx="12.357955"
           sodipodi:cy="40.909092"
           sodipodi:cx="132.10228"
           id="path2928-0-7-2-0-3-3"
           style="fill:#000000"
           sodipodi:type="arc" />
        <path
           id="path2934-6-4-0-3-5-8"
           d="m 132.71369,35.177557 c -4.15001,-0.540618 -7.71523,4.052182 -5.93928,7.870206 1.46454,3.961238 7.40813,4.984197 9.84109,1.39826 2.42196,-2.972272 0.959,-8.027998 -2.83647,-9.055398 -0.32005,-0.186021 -0.69788,-0.259012 -1.06534,-0.213068 z"
           style="fill:#ffffff"
           inkscape:connector-curvature="0" />
      </g>
      <g
         id="g2936-2-8-94-9-9-2-5"
         transform="matrix(0.31110633,-0.21745885,0.18942782,0.1453415,510.66125,84.736153)">
        <path
           d="m 144.46023,40.909092 c 0,6.82511 -5.53284,12.357955 -12.35795,12.357955 -6.82511,0 -12.35796,-5.532845 -12.35796,-12.357955 0,-6.82511 5.53285,-12.357955 12.35796,-12.357955 6.82511,0 12.35795,5.532845 12.35795,12.357955 z"
           sodipodi:ry="12.357955"
           sodipodi:rx="12.357955"
           sodipodi:cy="40.909092"
           sodipodi:cx="132.10228"
           id="path2928-0-7-2-0-3-3-0"
           style="fill:#000000"
           sodipodi:type="arc" />
        <path
           id="path2934-6-4-0-3-5-8-5"
           d="m 132.71369,35.177557 c -4.15001,-0.540618 -7.71523,4.052182 -5.93928,7.870206 1.46454,3.961238 7.40813,4.984197 9.84109,1.39826 2.42196,-2.972272 0.959,-8.027998 -2.83647,-9.055398 -0.32005,-0.186021 -0.69788,-0.259012 -1.06534,-0.213068 z"
           style="fill:#ffffff"
           inkscape:connector-curvature="0" />
      </g>
      <g
         id="g2936-2-8-94-9-9-2-5-9"
         transform="matrix(0.31110633,-0.21745885,0.18942782,0.1453415,505.97375,99.650923)">
        <path
           d="m 144.46023,40.909092 c 0,6.82511 -5.53284,12.357955 -12.35795,12.357955 -6.82511,0 -12.35796,-5.532845 -12.35796,-12.357955 0,-6.82511 5.53285,-12.357955 12.35796,-12.357955 6.82511,0 12.35795,5.532845 12.35795,12.357955 z"
           sodipodi:ry="12.357955"
           sodipodi:rx="12.357955"
           sodipodi:cy="40.909092"
           sodipodi:cx="132.10228"
           id="path2928-0-7-2-0-3-3-0-2"
           style="fill:#000000"
           sodipodi:type="arc" />
        <path
           id="path2934-6-4-0-3-5-8-5-6"
           d="m 132.71369,35.177557 c -4.15001,-0.540618 -7.71523,4.052182 -5.93928,7.870206 1.46454,3.961238 7.40813,4.984197 9.84109,1.39826 2.42196,-2.972272 0.959,-8.027998 -2.83647,-9.055398 -0.32005,-0.186021 -0.69788,-0.259012 -1.06534,-0.213068 z"
           style="fill:#ffffff"
           inkscape:connector-curvature="0" />
      </g>
      <g
         id="g2936-2-8-94-9-9-2-5-9-8"
         transform="matrix(0.31110633,-0.21745885,0.18942782,0.1453415,486.37148,109.87819)">
        <path
           d="m 144.46023,40.909092 c 0,6.82511 -5.53284,12.357955 -12.35795,12.357955 -6.82511,0 -12.35796,-5.532845 -12.35796,-12.357955 0,-6.82511 5.53285,-12.357955 12.35796,-12.357955 6.82511,0 12.35795,5.532845 12.35795,12.357955 z"
           sodipodi:ry="12.357955"
           sodipodi:rx="12.357955"
           sodipodi:cy="40.909092"
           sodipodi:cx="132.10228"
           id="path2928-0-7-2-0-3-3-0-2-5"
           style="fill:#000000"
           sodipodi:type="arc" />
        <path
           id="path2934-6-4-0-3-5-8-5-6-2"
           d="m 132.71369,35.177557 c -4.15001,-0.540618 -7.71523,4.052182 -5.93928,7.870206 1.46454,3.961238 7.40813,4.984197 9.84109,1.39826 2.42196,-2.972272 0.959,-8.027998 -2.83647,-9.055398 -0.32005,-0.186021 -0.69788,-0.259012 -1.06534,-0.213068 z"
           style="fill:#ffffff"
           inkscape:connector-curvature="0" />
      </g>
      <g
         id="g2936-2-8-94-9-9-2-5-9-8-8"
         transform="matrix(0.31110633,-0.21745885,0.18942782,0.1453415,463.36011,110.30433)">
        <path
           d="m 144.46023,40.909092 c 0,6.82511 -5.53284,12.357955 -12.35795,12.357955 -6.82511,0 -12.35796,-5.532845 -12.35796,-12.357955 0,-6.82511 5.53285,-12.357955 12.35796,-12.357955 6.82511,0 12.35795,5.532845 12.35795,12.357955 z"
           sodipodi:ry="12.357955"
           sodipodi:rx="12.357955"
           sodipodi:cy="40.909092"
           sodipodi:cx="132.10228"
           id="path2928-0-7-2-0-3-3-0-2-5-3"
           style="fill:#000000"
           sodipodi:type="arc" />
        <path
           id="path2934-6-4-0-3-5-8-5-6-2-6"
           d="m 132.71369,35.177557 c -4.15001,-0.540618 -7.71523,4.052182 -5.93928,7.870206 1.46454,3.961238 7.40813,4.984197 9.84109,1.39826 2.42196,-2.972272 0.959,-8.027998 -2.83647,-9.055398 -0.32005,-0.186021 -0.69788,-0.259012 -1.06534,-0.213068 z"
           style="fill:#ffffff"
           inkscape:connector-curvature="0" />
      </g>
      <path
         style="fill:none;stroke:#000000;stroke-width:1px;stroke-linecap:butt;stroke-linejoin:miter;stroke-opacity:1"
         d="m 553.96865,50.449453 5.96591,8.52272"
         id="path3554"
         inkscape:connector-curvature="0" />
      <path
         style="fill:none;stroke:#000000;stroke-width:1px;stroke-linecap:butt;stroke-linejoin:miter;stroke-opacity:1"
         d="m 559.93456,64.511953 -2.55682,10.22727"
         id="path3556"
         inkscape:connector-curvature="0" />
      <path
         style="fill:none;stroke:#000000;stroke-width:1px;stroke-linecap:butt;stroke-linejoin:miter;stroke-opacity:1"
         d="m 551.83797,78.574453 -13.21023,7.67045"
         id="path3558"
         inkscape:connector-curvature="0" />
      <path
         style="fill:none;stroke:#000000;stroke-width:1px;stroke-linecap:butt;stroke-linejoin:miter;stroke-opacity:1"
         d="m 532.2357,87.523313 -16.19318,0.42614"
         id="path3560"
         inkscape:connector-curvature="0" />
      <path
         style="fill:none;stroke:#000000;stroke-width:1px;stroke-linecap:butt;stroke-linejoin:miter;stroke-opacity:1"
         d="m 555.24706,47.040353 c 0.42614,-2.98295 16.19318,-15.3409 16.19318,-15.3409"
         id="path3562"
         inkscape:connector-curvature="0" />
      <path
         style="fill:none;stroke:#000000;stroke-width:1px;stroke-linecap:butt;stroke-linejoin:miter;stroke-opacity:1"
         d="m 562.91752,59.824453 17.04545,-5.96591"
         id="path3566"
         inkscape:connector-curvature="0" />
      <path
         style="fill:none;stroke:#000000;stroke-width:1px;stroke-linecap:butt;stroke-linejoin:miter;stroke-opacity:1"
         d="m 559.08229,77.296043 22.15909,-0.85228"
         id="path3568"
         inkscape:connector-curvature="0" />
      <path
         style="fill:none;stroke:#000000;stroke-width:1px;stroke-linecap:butt;stroke-linejoin:miter;stroke-opacity:1"
         d="m 538.20161,88.801723 37.07386,10.22727"
         id="path3570"
         inkscape:connector-curvature="0" />
      <path
         style="fill:none;stroke:#000000;stroke-width:1px;stroke-linecap:butt;stroke-linejoin:miter;stroke-opacity:1"
         d="m 512.63343,89.653993 40.48295,21.306817"
         id="path3572"
         inkscape:connector-curvature="0" />
    </g>
    <g
       transform="translate(-295.15086,86.459414)"
       id="g5348">
      <g
         id="g2936-2-8-94-9"
         transform="matrix(0.31110633,-0.21745885,0.18942782,0.1453415,461.65557,34.878193)">
        <path
           d="m 144.46023,40.909092 c 0,6.82511 -5.53284,12.357955 -12.35795,12.357955 -6.82511,0 -12.35796,-5.532845 -12.35796,-12.357955 0,-6.82511 5.53285,-12.357955 12.35796,-12.357955 6.82511,0 12.35795,5.532845 12.35795,12.357955 z"
           sodipodi:ry="12.357955"
           sodipodi:rx="12.357955"
           sodipodi:cy="40.909092"
           sodipodi:cx="132.10228"
           id="path2928-0-7-2-0"
           style="fill:#000000"
           sodipodi:type="arc" />
        <path
           id="path2934-6-4-0-3"
           d="m 132.71369,35.177557 c -4.15001,-0.540618 -7.71523,4.052182 -5.93928,7.870206 1.46454,3.961238 7.40813,4.984197 9.84109,1.39826 2.42196,-2.972272 0.959,-8.027998 -2.83647,-9.055398 -0.32005,-0.186021 -0.69788,-0.259012 -1.06534,-0.213068 z"
           style="fill:#ffffff"
           inkscape:connector-curvature="0" />
      </g>
      <g
         id="g2936-2-8-94-9-0"
         transform="matrix(0.31110633,-0.21745885,0.18942782,0.1453415,467.4908,15.537283)">
        <path
           d="m 144.46023,40.909092 c 0,6.82511 -5.53284,12.357955 -12.35795,12.357955 -6.82511,0 -12.35796,-5.532845 -12.35796,-12.357955 0,-6.82511 5.53285,-12.357955 12.35796,-12.357955 6.82511,0 12.35795,5.532845 12.35795,12.357955 z"
           sodipodi:ry="12.357955"
           sodipodi:rx="12.357955"
           sodipodi:cy="40.909092"
           sodipodi:cx="132.10228"
           id="path2928-0-7-2-0-4"
           style="fill:#000000"
           sodipodi:type="arc" />
        <path
           id="path2934-6-4-0-3-1"
           d="m 132.71369,35.177557 c -4.15001,-0.540618 -7.71523,4.052182 -5.93928,7.870206 1.46454,3.961238 7.40813,4.984197 9.84109,1.39826 2.42196,-2.972272 0.959,-8.027998 -2.83647,-9.055398 -0.32005,-0.186021 -0.69788,-0.259012 -1.06534,-0.213068 z"
           style="fill:#ffffff"
           inkscape:connector-curvature="0" />
      </g>
      <g
         id="g2936-2-8-94-9-02"
         transform="matrix(0.31110633,-0.21745885,0.18942782,0.1453415,471.03057,-0.917257)">
        <path
           d="m 144.46023,40.909092 c 0,6.82511 -5.53284,12.357955 -12.35795,12.357955 -6.82511,0 -12.35796,-5.532845 -12.35796,-12.357955 0,-6.82511 5.53285,-12.357955 12.35796,-12.357955 6.82511,0 12.35795,5.532845 12.35795,12.357955 z"
           sodipodi:ry="12.357955"
           sodipodi:rx="12.357955"
           sodipodi:cy="40.909092"
           sodipodi:cx="132.10228"
           id="path2928-0-7-2-0-9"
           style="fill:#000000"
           sodipodi:type="arc" />
        <path
           id="path2934-6-4-0-3-6"
           d="m 132.71369,35.177557 c -4.15001,-0.540618 -7.71523,4.052182 -5.93928,7.870206 1.46454,3.961238 7.40813,4.984197 9.84109,1.39826 2.42196,-2.972272 0.959,-8.027998 -2.83647,-9.055398 -0.32005,-0.186021 -0.69788,-0.259012 -1.06534,-0.213068 z"
           style="fill:#ffffff"
           inkscape:connector-curvature="0" />
      </g>
      <g
         id="g2936-2-8-94-9-0-1"
         transform="matrix(0.31110633,-0.21745885,0.18942782,0.1453415,480.83171,-22.224076)">
        <path
           d="m 144.46023,40.909092 c 0,6.82511 -5.53284,12.357955 -12.35795,12.357955 -6.82511,0 -12.35796,-5.532845 -12.35796,-12.357955 0,-6.82511 5.53285,-12.357955 12.35796,-12.357955 6.82511,0 12.35795,5.532845 12.35795,12.357955 z"
           sodipodi:ry="12.357955"
           sodipodi:rx="12.357955"
           sodipodi:cy="40.909092"
           sodipodi:cx="132.10228"
           id="path2928-0-7-2-0-4-9"
           style="fill:#000000"
           sodipodi:type="arc" />
        <path
           id="path2934-6-4-0-3-1-1"
           d="m 132.71369,35.177557 c -4.15001,-0.540618 -7.71523,4.052182 -5.93928,7.870206 1.46454,3.961238 7.40813,4.984197 9.84109,1.39826 2.42196,-2.972272 0.959,-8.027998 -2.83647,-9.055398 -0.32005,-0.186021 -0.69788,-0.259012 -1.06534,-0.213068 z"
           style="fill:#ffffff"
           inkscape:connector-curvature="0" />
      </g>
      <g
         id="g2936-2-8-94-9-0-9"
         transform="matrix(0.31110633,-0.21745885,0.18942782,0.1453415,481.68398,-22.650212)">
        <path
           d="m 144.46023,40.909092 c 0,6.82511 -5.53284,12.357955 -12.35795,12.357955 -6.82511,0 -12.35796,-5.532845 -12.35796,-12.357955 0,-6.82511 5.53285,-12.357955 12.35796,-12.357955 6.82511,0 12.35795,5.532845 12.35795,12.357955 z"
           sodipodi:ry="12.357955"
           sodipodi:rx="12.357955"
           sodipodi:cy="40.909092"
           sodipodi:cx="132.10228"
           id="path2928-0-7-2-0-4-4"
           style="fill:#000000"
           sodipodi:type="arc" />
        <path
           id="path2934-6-4-0-3-1-5"
           d="m 132.71369,35.177557 c -4.15001,-0.540618 -7.71523,4.052182 -5.93928,7.870206 1.46454,3.961238 7.40813,4.984197 9.84109,1.39826 2.42196,-2.972272 0.959,-8.027998 -2.83647,-9.055398 -0.32005,-0.186021 -0.69788,-0.259012 -1.06534,-0.213068 z"
           style="fill:#ffffff"
           inkscape:connector-curvature="0" />
      </g>
      <g
         id="g2936-2-8-94-9-0-2"
         transform="matrix(0.31110633,-0.21745885,0.18942782,0.1453415,485.51921,-4.326348)">
        <path
           d="m 144.46023,40.909092 c 0,6.82511 -5.53284,12.357955 -12.35795,12.357955 -6.82511,0 -12.35796,-5.532845 -12.35796,-12.357955 0,-6.82511 5.53285,-12.357955 12.35796,-12.357955 6.82511,0 12.35795,5.532845 12.35795,12.357955 z"
           sodipodi:ry="12.357955"
           sodipodi:rx="12.357955"
           sodipodi:cy="40.909092"
           sodipodi:cx="132.10228"
           id="path2928-0-7-2-0-4-5"
           style="fill:#000000"
           sodipodi:type="arc" />
        <path
           id="path2934-6-4-0-3-1-9"
           d="m 132.71369,35.177557 c -4.15001,-0.540618 -7.71523,4.052182 -5.93928,7.870206 1.46454,3.961238 7.40813,4.984197 9.84109,1.39826 2.42196,-2.972272 0.959,-8.027998 -2.83647,-9.055398 -0.32005,-0.186021 -0.69788,-0.259012 -1.06534,-0.213068 z"
           style="fill:#ffffff"
           inkscape:connector-curvature="0" />
      </g>
      <g
         id="g2936-2-8-94-9-0-2-1"
         transform="matrix(0.31110633,-0.21745885,0.18942782,0.1453415,488.9283,12.719103)">
        <path
           d="m 144.46023,40.909092 c 0,6.82511 -5.53284,12.357955 -12.35795,12.357955 -6.82511,0 -12.35796,-5.532845 -12.35796,-12.357955 0,-6.82511 5.53285,-12.357955 12.35796,-12.357955 6.82511,0 12.35795,5.532845 12.35795,12.357955 z"
           sodipodi:ry="12.357955"
           sodipodi:rx="12.357955"
           sodipodi:cy="40.909092"
           sodipodi:cx="132.10228"
           id="path2928-0-7-2-0-4-5-7"
           style="fill:#000000"
           sodipodi:type="arc" />
        <path
           id="path2934-6-4-0-3-1-9-7"
           d="m 132.71369,35.177557 c -4.15001,-0.540618 -7.71523,4.052182 -5.93928,7.870206 1.46454,3.961238 7.40813,4.984197 9.84109,1.39826 2.42196,-2.972272 0.959,-8.027998 -2.83647,-9.055398 -0.32005,-0.186021 -0.69788,-0.259012 -1.06534,-0.213068 z"
           style="fill:#ffffff"
           inkscape:connector-curvature="0" />
      </g>
      <g
         id="g2936-2-8-94-9-0-2-1-4"
         transform="matrix(0.31110633,-0.21745885,0.18942782,0.1453415,491.05898,30.616833)">
        <path
           d="m 144.46023,40.909092 c 0,6.82511 -5.53284,12.357955 -12.35795,12.357955 -6.82511,0 -12.35796,-5.532845 -12.35796,-12.357955 0,-6.82511 5.53285,-12.357955 12.35796,-12.357955 6.82511,0 12.35795,5.532845 12.35795,12.357955 z"
           sodipodi:ry="12.357955"
           sodipodi:rx="12.357955"
           sodipodi:cy="40.909092"
           sodipodi:cx="132.10228"
           id="path2928-0-7-2-0-4-5-7-1"
           style="fill:#000000"
           sodipodi:type="arc" />
        <path
           id="path2934-6-4-0-3-1-9-7-1"
           d="m 132.71369,35.177557 c -4.15001,-0.540618 -7.71523,4.052182 -5.93928,7.870206 1.46454,3.961238 7.40813,4.984197 9.84109,1.39826 2.42196,-2.972272 0.959,-8.027998 -2.83647,-9.055398 -0.32005,-0.186021 -0.69788,-0.259012 -1.06534,-0.213068 z"
           style="fill:#ffffff"
           inkscape:connector-curvature="0" />
      </g>
      <path
         style="fill:none;stroke:#000000;stroke-width:1px;stroke-linecap:butt;stroke-linejoin:miter;stroke-opacity:1"
         d="m 482.37774,61.528993 25.14205,-48.15341"
         id="path3400"
         inkscape:connector-curvature="0" />
      <path
         style="fill:none;stroke:#000000;stroke-width:1px;stroke-linecap:butt;stroke-linejoin:miter;stroke-opacity:1"
         d="m 513.4857,11.244903 23.86363,-2.55682"
         id="path3402"
         inkscape:connector-curvature="0" />
      <path
         style="fill:none;stroke:#000000;stroke-width:1px;stroke-linecap:butt;stroke-linejoin:miter;stroke-opacity:1"
         d="m 511.35502,9.540353 2.98295,-14.488632"
         id="path3404"
         inkscape:connector-curvature="0" />
      <path
         style="fill:none;stroke:#000000;stroke-width:1px;stroke-linecap:butt;stroke-linejoin:miter;stroke-opacity:1"
         d="m 520.30388,-7.931233 14.48864,-1.704546"
         id="path3406"
         inkscape:connector-curvature="0" />
      <path
         style="fill:none;stroke:#000000;stroke-width:1px;stroke-linecap:butt;stroke-linejoin:miter;stroke-opacity:1"
         d="m 515.61638,-10.061915 1.70455,-12.784091"
         id="path3408"
         inkscape:connector-curvature="0" />
      <path
         style="fill:none;stroke:#000000;stroke-width:1px;stroke-linecap:butt;stroke-linejoin:miter;stroke-opacity:1"
         d="m 523.71297,-25.402824 7.67046,-1.278409"
         id="path3410"
         inkscape:connector-curvature="0" />
      <path
         style="fill:none;stroke:#000000;stroke-width:1px;stroke-linecap:butt;stroke-linejoin:miter;stroke-opacity:1"
         d="M 519.87774,-26.255097 527.5482,-45.85737"
         id="path3412"
         inkscape:connector-curvature="0" />
    </g>
  </g>
</svg>
