<?xml version="1.0" encoding="UTF-8" standalone="no"?>
<!-- Created with Inkscape (http://www.inkscape.org/) -->

<svg
   xmlns:osb="http://www.openswatchbook.org/uri/2009/osb"
   xmlns:dc="http://purl.org/dc/elements/1.1/"
   xmlns:cc="http://creativecommons.org/ns#"
   xmlns:rdf="http://www.w3.org/1999/02/22-rdf-syntax-ns#"
   xmlns:svg="http://www.w3.org/2000/svg"
   xmlns="http://www.w3.org/2000/svg"
   xmlns:xlink="http://www.w3.org/1999/xlink"
   xmlns:sodipodi="http://sodipodi.sourceforge.net/DTD/sodipodi-0.dtd"
   xmlns:inkscape="http://www.inkscape.org/namespaces/inkscape"
   width="744.09448819"
   height="1052.3622047"
   id="svg2995"
   version="1.1"
   inkscape:version="0.48.0 r9654"
   sodipodi:docname="WyoLum_v3_red.svg">
  <defs
     id="defs2997">
    <linearGradient
       inkscape:collect="always"
       id="linearGradient6596">
      <stop
         style="stop-color:#000000;stop-opacity:1;"
         offset="0"
         id="stop6598" />
      <stop
         style="stop-color:#000000;stop-opacity:0;"
         offset="1"
         id="stop6600" />
    </linearGradient>
    <inkscape:perspective
       sodipodi:type="inkscape:persp3d"
       inkscape:vp_x="0 : 526.18109 : 1"
       inkscape:vp_y="0 : 1000 : 0"
       inkscape:vp_z="744.09448 : 526.18109 : 1"
       inkscape:persp3d-origin="372.04724 : 350.78739 : 1"
       id="perspective6394" />
    <linearGradient
       inkscape:collect="always"
       id="linearGradient6029">
      <stop
         style="stop-color:#000000;stop-opacity:1;"
         offset="0"
         id="stop6031" />
      <stop
         style="stop-color:#000000;stop-opacity:0;"
         offset="1"
         id="stop6033" />
    </linearGradient>
    <linearGradient
       inkscape:collect="always"
       id="linearGradient6021">
      <stop
         style="stop-color:#000000;stop-opacity:1;"
         offset="0"
         id="stop6023" />
      <stop
         style="stop-color:#000000;stop-opacity:0;"
         offset="1"
         id="stop6025" />
    </linearGradient>
    <linearGradient
       id="linearGradient5338">
      <stop
         style="stop-color:#000000;stop-opacity:1;"
         offset="0"
         id="stop5340" />
      <stop
         style="stop-color:#000000;stop-opacity:0;"
         offset="1"
         id="stop5342" />
    </linearGradient>
    <linearGradient
       inkscape:collect="always"
       id="linearGradient5296">
      <stop
         style="stop-color:#000000;stop-opacity:1;"
         offset="0"
         id="stop5298" />
      <stop
         style="stop-color:#000000;stop-opacity:0;"
         offset="1"
         id="stop5300" />
    </linearGradient>
    <linearGradient
       id="linearGradient5233"
       osb:paint="solid">
      <stop
         style="stop-color:#000000;stop-opacity:1;"
         offset="0"
         id="stop5235" />
    </linearGradient>
    <radialGradient
       inkscape:collect="always"
       xlink:href="#linearGradient5296"
       id="radialGradient5306"
       cx="260.97522"
       cy="404.96677"
       fx="260.97522"
       fy="404.96677"
       r="80.647896"
       gradientTransform="matrix(1,0,0,0.27095732,0,295.23807)"
       gradientUnits="userSpaceOnUse" />
    <radialGradient
       inkscape:collect="always"
       xlink:href="#linearGradient5338-8"
       id="radialGradient5344-6"
       cx="259.57983"
       cy="354.77045"
       fx="259.57983"
       fy="354.77045"
       r="81.274811"
       gradientTransform="matrix(1,0,0,0.27662517,0,256.63201)"
       gradientUnits="userSpaceOnUse" />
    <linearGradient
       inkscape:collect="always"
       id="linearGradient5338-8">
      <stop
         style="stop-color:#000000;stop-opacity:1;"
         offset="0"
         id="stop5340-8" />
      <stop
         style="stop-color:#000000;stop-opacity:0;"
         offset="1"
         id="stop5342-2" />
    </linearGradient>
    <radialGradient
       inkscape:collect="always"
       xlink:href="#linearGradient5296-1"
       id="radialGradient5306-7"
       cx="260.97522"
       cy="404.96677"
       fx="260.97522"
       fy="404.96677"
       r="80.647896"
       gradientTransform="matrix(1,0,0,0.27095732,0,295.23807)"
       gradientUnits="userSpaceOnUse" />
    <linearGradient
       inkscape:collect="always"
       id="linearGradient5296-1">
      <stop
         style="stop-color:#000000;stop-opacity:1;"
         offset="0"
         id="stop5298-2" />
      <stop
         style="stop-color:#000000;stop-opacity:0;"
         offset="1"
         id="stop5300-6" />
    </linearGradient>
    <radialGradient
       inkscape:collect="always"
       xlink:href="#linearGradient5296-1"
       id="radialGradient5404"
       cx="260.97522"
       cy="404.96677"
       fx="260.97522"
       fy="404.96677"
       r="80.647896"
       gradientTransform="matrix(1,0,0,0.27095732,0,295.23807)"
       gradientUnits="userSpaceOnUse" />
    <radialGradient
       inkscape:collect="always"
       xlink:href="#linearGradient5296-1"
       id="radialGradient5412"
       cx="260.97522"
       cy="404.96677"
       fx="260.97522"
       fy="404.96677"
       r="80.647896"
       gradientTransform="matrix(1,0,0,0.27095732,0,295.23807)"
       gradientUnits="userSpaceOnUse" />
    <radialGradient
       inkscape:collect="always"
       xlink:href="#linearGradient5296-1"
       id="radialGradient5420"
       cx="260.97522"
       cy="404.96677"
       fx="260.97522"
       fy="404.96677"
       r="80.647896"
       gradientTransform="matrix(1,0,0,0.27095732,0,295.23807)"
       gradientUnits="userSpaceOnUse" />
    <radialGradient
       inkscape:collect="always"
       xlink:href="#linearGradient5296-1"
       id="radialGradient5428"
       cx="260.97522"
       cy="404.96677"
       fx="260.97522"
       fy="404.96677"
       r="80.647896"
       gradientTransform="matrix(1,0,0,0.27095732,0,295.23807)"
       gradientUnits="userSpaceOnUse" />
    <radialGradient
       inkscape:collect="always"
       xlink:href="#linearGradient5296-1"
       id="radialGradient5436"
       cx="260.97522"
       cy="404.96677"
       fx="260.97522"
       fy="404.96677"
       r="80.647896"
       gradientTransform="matrix(1,0,0,0.27095732,0,295.23807)"
       gradientUnits="userSpaceOnUse" />
    <radialGradient
       inkscape:collect="always"
       xlink:href="#linearGradient5296-1"
       id="radialGradient5444"
       cx="260.97522"
       cy="404.96677"
       fx="260.97522"
       fy="404.96677"
       r="80.647896"
       gradientTransform="matrix(1,0,0,0.27095732,0,295.23807)"
       gradientUnits="userSpaceOnUse" />
    <radialGradient
       inkscape:collect="always"
       xlink:href="#linearGradient5296-1"
       id="radialGradient5452"
       cx="260.97522"
       cy="404.96677"
       fx="260.97522"
       fy="404.96677"
       r="80.647896"
       gradientTransform="matrix(1,0,0,0.27095732,0,295.23807)"
       gradientUnits="userSpaceOnUse" />
    <radialGradient
       inkscape:collect="always"
       xlink:href="#linearGradient5296-1"
       id="radialGradient5553"
       gradientUnits="userSpaceOnUse"
       gradientTransform="matrix(1,0,0,0.27095732,0,295.23807)"
       cx="260.97522"
       cy="404.96677"
       fx="260.97522"
       fy="404.96677"
       r="80.647896" />
    <radialGradient
       inkscape:collect="always"
       xlink:href="#linearGradient5296-1"
       id="radialGradient5555"
       gradientUnits="userSpaceOnUse"
       gradientTransform="matrix(1,0,0,0.27095732,0,295.23807)"
       cx="260.97522"
       cy="404.96677"
       fx="260.97522"
       fy="404.96677"
       r="80.647896" />
    <radialGradient
       inkscape:collect="always"
       xlink:href="#linearGradient5296-1"
       id="radialGradient5557"
       gradientUnits="userSpaceOnUse"
       gradientTransform="matrix(1,0,0,0.27095732,0,295.23807)"
       cx="260.97522"
       cy="404.96677"
       fx="260.97522"
       fy="404.96677"
       r="80.647896" />
    <radialGradient
       inkscape:collect="always"
       xlink:href="#linearGradient5296-1"
       id="radialGradient5559"
       gradientUnits="userSpaceOnUse"
       gradientTransform="matrix(1,0,0,0.27095732,0,295.23807)"
       cx="260.97522"
       cy="404.96677"
       fx="260.97522"
       fy="404.96677"
       r="80.647896" />
    <radialGradient
       inkscape:collect="always"
       xlink:href="#linearGradient5296-1"
       id="radialGradient5561"
       gradientUnits="userSpaceOnUse"
       gradientTransform="matrix(1,0,0,0.27095732,0,295.23807)"
       cx="260.97522"
       cy="404.96677"
       fx="260.97522"
       fy="404.96677"
       r="80.647896" />
    <radialGradient
       inkscape:collect="always"
       xlink:href="#linearGradient5296-1"
       id="radialGradient5563"
       gradientUnits="userSpaceOnUse"
       gradientTransform="matrix(1,0,0,0.27095732,0,295.23807)"
       cx="260.97522"
       cy="404.96677"
       fx="260.97522"
       fy="404.96677"
       r="80.647896" />
    <radialGradient
       inkscape:collect="always"
       xlink:href="#linearGradient5296-1"
       id="radialGradient5565"
       gradientUnits="userSpaceOnUse"
       gradientTransform="matrix(1,0,0,0.27095732,0,295.23807)"
       cx="260.97522"
       cy="404.96677"
       fx="260.97522"
       fy="404.96677"
       r="80.647896" />
    <radialGradient
       inkscape:collect="always"
       xlink:href="#linearGradient5296-1"
       id="radialGradient5574"
       gradientUnits="userSpaceOnUse"
       gradientTransform="matrix(1,0,0,0.27095732,0,295.23807)"
       cx="260.97522"
       cy="404.96677"
       fx="260.97522"
       fy="404.96677"
       r="80.647896" />
    <radialGradient
       inkscape:collect="always"
       xlink:href="#linearGradient5296-1"
       id="radialGradient5607"
       gradientUnits="userSpaceOnUse"
       gradientTransform="matrix(1,0,0,0.27095732,0,295.23807)"
       cx="260.97522"
       cy="404.96677"
       fx="260.97522"
       fy="404.96677"
       r="80.647896" />
    <radialGradient
       inkscape:collect="always"
       xlink:href="#linearGradient5296-1"
       id="radialGradient5626"
       gradientUnits="userSpaceOnUse"
       gradientTransform="matrix(1,0,0,0.27095732,0,295.23807)"
       cx="260.97522"
       cy="404.96677"
       fx="260.97522"
       fy="404.96677"
       r="80.647896" />
    <linearGradient
       inkscape:collect="always"
       xlink:href="#linearGradient6021"
       id="linearGradient6027"
       x1="209.35811"
       y1="292.95883"
       x2="211.03902"
       y2="184.77147"
       gradientUnits="userSpaceOnUse"
       gradientTransform="translate(-57.275649,-5.6568543)" />
    <linearGradient
       inkscape:collect="always"
       xlink:href="#linearGradient6029"
       id="linearGradient6035"
       x1="209.35811"
       y1="292.95883"
       x2="211.03902"
       y2="184.77147"
       gradientUnits="userSpaceOnUse"
       gradientTransform="translate(-57.275649,-5.6568543)" />
    <linearGradient
       inkscape:collect="always"
       xlink:href="#linearGradient6029-2"
       id="linearGradient6035-8"
       x1="209.35811"
       y1="292.95883"
       x2="211.03902"
       y2="184.77147"
       gradientUnits="userSpaceOnUse"
       gradientTransform="translate(-57.275649,-5.6568543)" />
    <linearGradient
       inkscape:collect="always"
       id="linearGradient6029-2">
      <stop
         style="stop-color:#000000;stop-opacity:1;"
         offset="0"
         id="stop6031-7" />
      <stop
         style="stop-color:#000000;stop-opacity:0;"
         offset="1"
         id="stop6033-8" />
    </linearGradient>
    <linearGradient
       inkscape:collect="always"
       xlink:href="#linearGradient6021-2"
       id="linearGradient6027-0"
       x1="209.35811"
       y1="292.95883"
       x2="211.03902"
       y2="184.77147"
       gradientUnits="userSpaceOnUse"
       gradientTransform="translate(-57.275649,-5.6568543)" />
    <linearGradient
       inkscape:collect="always"
       id="linearGradient6021-2">
      <stop
         style="stop-color:#000000;stop-opacity:1;"
         offset="0"
         id="stop6023-0" />
      <stop
         style="stop-color:#000000;stop-opacity:0;"
         offset="1"
         id="stop6025-8" />
    </linearGradient>
    <linearGradient
       y2="184.77147"
       x2="211.03902"
       y1="292.95883"
       x1="209.35811"
       gradientTransform="translate(-47.210453,-7.100389)"
       gradientUnits="userSpaceOnUse"
       id="linearGradient6130"
       xlink:href="#linearGradient6029-2"
       inkscape:collect="always" />
    <linearGradient
       y2="184.77147"
       x2="211.03902"
       y1="292.95883"
       x1="209.35811"
       gradientTransform="translate(-47.210453,-7.100389)"
       gradientUnits="userSpaceOnUse"
       id="linearGradient6132"
       xlink:href="#linearGradient6021-2"
       inkscape:collect="always" />
    <linearGradient
       y2="184.77147"
       x2="211.03902"
       y1="292.95883"
       x1="209.35811"
       gradientTransform="translate(-47.210453,-7.100389)"
       gradientUnits="userSpaceOnUse"
       id="linearGradient6130-9"
       xlink:href="#linearGradient6029-2-2"
       inkscape:collect="always" />
    <linearGradient
       inkscape:collect="always"
       id="linearGradient6029-2-2">
      <stop
         style="stop-color:#000000;stop-opacity:1;"
         offset="0"
         id="stop6031-7-8" />
      <stop
         style="stop-color:#000000;stop-opacity:0;"
         offset="1"
         id="stop6033-8-2" />
    </linearGradient>
    <linearGradient
       y2="184.77147"
       x2="211.03902"
       y1="292.95883"
       x1="209.35811"
       gradientTransform="translate(-47.210453,-7.100389)"
       gradientUnits="userSpaceOnUse"
       id="linearGradient6132-0"
       xlink:href="#linearGradient6021-2-5"
       inkscape:collect="always" />
    <linearGradient
       inkscape:collect="always"
       id="linearGradient6021-2-5">
      <stop
         style="stop-color:#000000;stop-opacity:1;"
         offset="0"
         id="stop6023-0-5" />
      <stop
         style="stop-color:#000000;stop-opacity:0;"
         offset="1"
         id="stop6025-8-2" />
    </linearGradient>
    <linearGradient
       y2="184.77147"
       x2="211.03902"
       y1="292.95883"
       x1="209.35811"
       gradientTransform="translate(-65.948778,-6.0397189)"
       gradientUnits="userSpaceOnUse"
       id="linearGradient6188"
       xlink:href="#linearGradient6029-2-2"
       inkscape:collect="always" />
    <linearGradient
       y2="184.77147"
       x2="211.03902"
       y1="292.95883"
       x1="209.35811"
       gradientTransform="translate(-65.948778,-6.0397189)"
       gradientUnits="userSpaceOnUse"
       id="linearGradient6190"
       xlink:href="#linearGradient6021-2-5"
       inkscape:collect="always" />
    <radialGradient
       inkscape:collect="always"
       xlink:href="#linearGradient6596"
       id="radialGradient6602"
       cx="284"
       cy="293.36218"
       fx="284"
       fy="293.36218"
       r="79.5"
       gradientTransform="matrix(-1.0749602,0.03003615,-0.01215443,-0.43499358,592.85435,412.44258)"
       gradientUnits="userSpaceOnUse" />
    <filter
       id="filter6604"
       inkscape:label="Invert"
       x="0"
       y="0"
       width="1"
       height="1"
       inkscape:menu="Color"
       inkscape:menu-tooltip="Invert colors"
       color-interpolation-filters="sRGB">
      <feColorMatrix
         id="feColorMatrix6606"
         type="saturate"
         values="1"
         result="fbSourceGraphic" />
      <feColorMatrix
         id="feColorMatrix6608"
         in="fbSourceGraphic"
         values="-1 0 0 0 1 0 -1 0 0 1 0 0 -1 0 1 0 0 0 1 0 " />
    </filter>
    <linearGradient
       inkscape:collect="always"
       xlink:href="#linearGradient5338-88"
       id="linearGradient6909-4"
       gradientUnits="userSpaceOnUse"
       gradientTransform="translate(-6.0606602,8.2426407)"
       x1="334.57562"
       y1="372.44812"
       x2="182.10918"
       y2="334.97147" />
    <linearGradient
       id="linearGradient5338-88">
      <stop
         style="stop-color:#000000;stop-opacity:1;"
         offset="0"
         id="stop5340-2" />
      <stop
         style="stop-color:#000000;stop-opacity:0;"
         offset="1"
         id="stop5342-4" />
    </linearGradient>
    <linearGradient
       inkscape:collect="always"
       xlink:href="#linearGradient5338-1"
       id="linearGradient6909-5"
       gradientUnits="userSpaceOnUse"
       gradientTransform="translate(-6.0606602,8.2426407)"
       x1="334.57562"
       y1="372.44812"
       x2="182.10918"
       y2="334.97147" />
    <linearGradient
       id="linearGradient5338-1">
      <stop
         style="stop-color:#000000;stop-opacity:1;"
         offset="0"
         id="stop5340-7" />
      <stop
         style="stop-color:#000000;stop-opacity:0;"
         offset="1"
         id="stop5342-1" />
    </linearGradient>
    <linearGradient
       id="linearGradient5338-3">
      <stop
         style="stop-color:#000000;stop-opacity:1;"
         offset="0"
         id="stop5340-22" />
      <stop
         style="stop-color:#000000;stop-opacity:0;"
         offset="1"
         id="stop5342-16" />
    </linearGradient>
    <linearGradient
       id="linearGradient5338-1-9">
      <stop
         style="stop-color:#000000;stop-opacity:1;"
         offset="0"
         id="stop5340-7-5" />
      <stop
         style="stop-color:#000000;stop-opacity:0;"
         offset="1"
         id="stop5342-1-4" />
    </linearGradient>
    <linearGradient
       id="linearGradient5338-7">
      <stop
         style="stop-color:#000000;stop-opacity:1;"
         offset="0"
         id="stop5340-87" />
      <stop
         style="stop-color:#000000;stop-opacity:0;"
         offset="1"
         id="stop5342-8" />
    </linearGradient>
    <linearGradient
       id="linearGradient5338-1-7">
      <stop
         style="stop-color:#000000;stop-opacity:1;"
         offset="0"
         id="stop5340-7-2" />
      <stop
         style="stop-color:#000000;stop-opacity:0;"
         offset="1"
         id="stop5342-1-5" />
    </linearGradient>
    <linearGradient
       inkscape:collect="always"
       xlink:href="#linearGradient6029-2-2"
       id="linearGradient4535"
       gradientUnits="userSpaceOnUse"
       gradientTransform="translate(-65.948778,-6.0397189)"
       x1="209.35811"
       y1="292.95883"
       x2="211.03902"
       y2="184.77147" />
    <linearGradient
       inkscape:collect="always"
       xlink:href="#linearGradient6021-2-5"
       id="linearGradient4537"
       gradientUnits="userSpaceOnUse"
       gradientTransform="translate(-65.948778,-6.0397189)"
       x1="209.35811"
       y1="292.95883"
       x2="211.03902"
       y2="184.77147" />
    <linearGradient
       inkscape:collect="always"
       xlink:href="#linearGradient5338"
       id="linearGradient4570"
       gradientUnits="userSpaceOnUse"
       gradientTransform="translate(-6.0606602,8.2426407)"
       x1="334.57562"
       y1="372.44812"
       x2="182.10918"
       y2="334.97147" />
    <linearGradient
       inkscape:collect="always"
       xlink:href="#linearGradient6021-2"
       id="linearGradient3890"
       x1="349.73932"
       y1="266.43048"
       x2="180.30231"
       y2="263.95563"
       gradientUnits="userSpaceOnUse"
       gradientTransform="translate(96.166523,92.454212)" />
  </defs>
  <sodipodi:namedview
     id="base"
     pagecolor="#ffffff"
     bordercolor="#666666"
     borderopacity="1.0"
     inkscape:pageopacity="0.0"
     inkscape:pageshadow="2"
     inkscape:zoom="2.8284271"
     inkscape:cx="290.6331"
     inkscape:cy="674.41767"
     inkscape:document-units="px"
     inkscape:current-layer="layer1"
     showgrid="false"
     inkscape:window-width="1680"
     inkscape:window-height="1024"
     inkscape:window-x="-4"
     inkscape:window-y="-4"
     inkscape:window-maximized="1" />
  <metadata
     id="metadata3000">
    <rdf:RDF>
      <cc:Work
         rdf:about="">
        <dc:format>image/svg+xml</dc:format>
        <dc:type
           rdf:resource="http://purl.org/dc/dcmitype/StillImage" />
        <dc:title />
      </cc:Work>
    </rdf:RDF>
  </metadata>
  <g
     inkscape:label="Layer 1"
     inkscape:groupmode="layer"
     id="layer1">
    <path
       inkscape:export-ydpi="50.025002"
       inkscape:export-xdpi="50.025002"
       inkscape:export-filename="C:\Documents and Settings\Justin\Desktop\WyoLum_v1.png"
       style="fill:url(#linearGradient4570);fill-opacity:1;stroke:#000000;stroke-width:1.78579819;stroke-linecap:butt;stroke-linejoin:round;stroke-miterlimit:4;stroke-opacity:1;stroke-dasharray:none;stroke-dashoffset:0"
       d="m 214.44532,383.85109 c -1.24671,-0.98066 -1.89593,-2.30813 -2.18145,-4.46045 -0.21546,-1.62427 -0.14828,-1.8712 0.79699,-2.92913 0.8532,-0.9549 1.35531,-1.18637 2.89427,-1.33425 2.99637,-0.28791 2.98597,-0.55492 -0.3648,-9.36106 -1.57304,-4.13408 -2.97041,-7.63768 -3.10527,-7.78577 -0.13487,-0.14809 -1.17886,3.19299 -2.31998,7.42462 -1.14112,4.23163 -2.35862,8.27294 -2.70555,8.98068 -0.75329,1.53672 -2.0201,2.07195 -4.90395,2.07195 -3.5031,0 -3.78564,-0.45053 -6.54087,-10.42982 -1.67349,-6.06131 -1.62598,-5.91128 -1.81308,-5.72418 -0.0895,0.0895 -1.00583,3.19562 -2.03628,6.90247 -1.03045,3.70686 -2.14425,7.15289 -2.47512,7.65786 -0.79488,1.21314 -1.90469,1.59367 -4.6479,1.59367 -3.77847,0 -3.83201,-0.0905 -7.01012,-11.84403 -5.08736,-18.81451 -5.23724,-19.48409 -4.66694,-20.84899 0.652,-1.56048 2.15049,-2.30876 4.62343,-2.30876 3.19438,0 3.89577,0.56793 4.91691,3.98128 0.4793,1.60215 1.23183,4.54378 1.6723,6.53693 0.44047,1.99316 0.89891,3.62392 1.01875,3.62392 0.11985,0 0.88715,-2.42626 1.70512,-5.39168 1.7869,-6.47814 2.22205,-7.41152 3.80785,-8.16773 1.47014,-0.70106 5.56701,-0.77631 6.85484,-0.1259 1.01723,0.51374 1.82188,2.50533 3.52937,8.73557 0.61287,2.23622 1.2036,4.30451 1.31273,4.59619 0.10913,0.29168 0.87456,-2.13292 1.70095,-5.388 1.59101,-6.26687 2.14651,-7.5198 3.57473,-8.06281 2.36987,-0.90102 5.95696,-0.0798 7.06974,1.61848 0.59384,0.90632 0.59508,1.07342 0.0245,3.2999 -0.33054,1.28989 -0.59965,2.46457 -0.59802,2.61041 0.002,0.14584 0.70856,0.26517 1.57095,0.26517 3.19971,0 3.82892,0.71544 6.06335,6.89429 l 1.15068,3.18198 0.51796,-1.23744 c 0.28488,-0.68059 0.89429,-2.42099 1.35424,-3.86755 0.52598,-1.65421 1.24533,-3.06446 1.93869,-3.8007 0.99887,-1.06066 1.29266,-1.17058 3.12854,-1.17058 2.37975,0 4.17438,0.74633 4.73073,1.96737 l 0.3976,0.87265 1.47701,-1.06995 c 5.08606,-3.68432 13.7032,-2.39681 17.31333,2.58684 l 1.01853,1.40603 0,-5.3677 c 0,-7.85463 0.42211,-8.52697 5.35351,-8.52697 2.2686,0 2.56679,0.0877 3.51252,1.03346 l 1.03346,1.03347 0,11.69446 0,11.69445 6.01041,0 6.01041,0 0,-7.08242 c 0,-9.72808 0.25961,-10.24169 5.17673,-10.24169 2.07322,0 2.4051,0.10282 3.33574,1.03346 0.83718,0.83718 1.04165,1.35759 1.07654,2.74004 0.0237,0.93862 0.14301,4.49081 0.26517,7.89376 0.20959,5.83898 0.26203,6.19291 0.93176,6.28892 0.39032,0.0559 1.02672,-0.12979 1.41422,-0.41275 0.65401,-0.47758 0.71721,-1.04266 0.88131,-7.87991 0.22396,-9.3314 0.40166,-9.66352 5.17036,-9.66352 2.07997,0 2.41097,0.10231 3.34153,1.03287 0.96026,0.96027 1.06399,0.98907 1.47541,0.40967 0.80876,-1.13899 1.96461,-1.45068 5.46525,-1.47379 1.90441,-0.0126 4.8149,-0.0442 6.46776,-0.0702 2.49707,-0.0393 3.26341,0.0881 4.5323,0.75384 l 1.5271,0.80116 1.64977,-0.79864 c 4.42002,-2.13969 10.4925,-0.60059 12.39285,3.14103 1.12601,2.217 1.43607,4.86027 1.53869,13.1173 l 0.0982,7.89766 -1.15229,1.02957 c -1.02343,0.91443 -1.41061,1.02956 -3.46236,1.02956 -2.46076,0 -4.13068,-0.60794 -4.57708,-1.6663 -0.14656,-0.34748 -0.39037,-4.13197 -0.54181,-8.40997 -0.15143,-4.27799 -0.28944,-7.81795 -0.30669,-7.86656 -0.13896,-0.3916 -1.78286,0.0442 -2.00064,0.53033 -0.15244,0.3403 -0.32386,3.86123 -0.38094,7.8243 -0.1323,9.18602 -0.34589,9.5882 -5.09184,9.5882 -1.81222,0 -2.24735,-0.13815 -3.24624,-1.03065 l -1.1535,-1.03065 -0.12787,-7.98496 -0.12788,-7.98496 -0.85427,0 c -0.56183,0 -0.95637,0.27232 -1.15253,0.7955 -0.16404,0.43752 -0.41493,3.97747 -0.55753,7.86656 -0.14259,3.88909 -0.4069,7.34784 -0.58735,7.68613 -1.1683,2.19018 -7.73729,2.25347 -8.57034,0.0826 -0.18071,-0.47093 -0.35595,-0.40463 -1.0436,0.39481 -0.66548,0.77366 -1.20635,0.99227 -2.77734,1.12255 -1.30043,0.10784 -2.27773,-0.009 -2.93111,-0.35179 -0.85736,-0.44922 -1.16315,-0.44901 -2.44002,0.002 -3.43693,1.21306 -8.17393,0.33866 -10.56382,-1.94997 -0.75423,-0.72227 -0.97227,-0.80173 -0.97227,-0.35431 0,0.31722 -0.38376,1.02316 -0.8528,1.56875 l -0.85279,0.99199 -9.6178,0.11439 c -7.09795,0.0844 -9.89641,-10e-4 -10.68118,-0.32607 -1.21698,-0.50409 -2.03706,-2.12595 -2.03706,-4.02861 l 0,-1.25781 -2.03294,2.07392 c -2.65558,2.70911 -5.1069,3.71518 -9.104,3.73644 -2.37498,0.0126 -3.18179,-0.14607 -5.03258,-0.9899 -3.63813,-1.65872 -6.64132,-5.54336 -7.36406,-9.52542 -0.24157,-1.33097 -0.29716,-1.23566 -2.28103,3.91117 -3.94645,10.23842 -5.32163,12.54525 -8.3033,13.92869 -2.02703,0.94051 -5.43983,0.90646 -6.67689,-0.0666 z m 31.57692,-16.91386 c 0.82207,-0.82207 1.25466,-3.36493 0.95633,-5.62152 -0.28399,-2.14817 -1.58942,-3.41161 -3.1935,-3.09079 -0.59765,0.11953 -1.29957,0.43026 -1.55982,0.69052 -1.25431,1.25431 -1.18451,6.56571 0.10501,7.99061 0.83899,0.92707 2.7797,0.94346 3.69198,0.0312 l 0,0 z"
       id="path5308"
       inkscape:connector-curvature="0"
       inkscape:transform-center-x="7.4246206" />
    <path
       inkscape:export-ydpi="50.025002"
       inkscape:export-xdpi="50.025002"
       inkscape:export-filename="C:\Documents and Settings\Justin\Desktop\WyoLum_v1.png"
       style="fill:none;stroke:#000000;stroke-width:2.00319409px;stroke-linecap:butt;stroke-linejoin:miter;stroke-opacity:1"
       d="m 300.28862,375.70488 -0.0512,-24.49338"
       id="path5664-5"
       inkscape:connector-curvature="0" />
    <g
       inkscape:export-ydpi="50.025002"
       inkscape:export-xdpi="50.025002"
       inkscape:export-filename="C:\Documents and Settings\Justin\Desktop\WyoLum_v1.png"
       id="g6241"
       transform="matrix(0.28964442,0,0,0.52415036,114.10504,258.63303)">
      <path
         sodipodi:end="4.712389"
         sodipodi:start="1.5707963"
         d="m 41.542523,384.85338 c -2.636039,0 -4.772971,-6.33165 -4.772971,-14.14214 0,-7.81048 2.136931,-14.14213 4.77297,-14.14213 0,0 0,0 1e-6,0 l -1e-6,14.14213 z"
         sodipodi:ry="14.142136"
         sodipodi:rx="4.7729707"
         sodipodi:cy="370.71124"
         sodipodi:cx="41.542522"
         id="path5752-1-8-7"
         style="fill:#ffffff;fill-opacity:1;stroke:#000000;stroke-width:1;stroke-linecap:butt;stroke-linejoin:round;stroke-miterlimit:4;stroke-opacity:1;stroke-dasharray:none;stroke-dashoffset:0"
         sodipodi:type="arc"
         transform="matrix(2.7822726,0,0,3.2081,22.656756,-942.31119)" />
      <path
         inkscape:connector-curvature="0"
         d="m 139.56148,206.81504 c 0.15654,0.62924 0.26136,1.26934 0.39797,1.9026 0.10464,0.44977 0.18603,0.901 0.17849,1.36346 -0.0328,0.52473 -0.0672,1.04915 -0.0856,1.57463 0.0142,0.60584 -0.0996,1.20152 -0.16974,1.80081 -0.064,0.56498 -0.0836,1.13337 -0.094,1.70143 -0.006,0.50317 -0.005,1.00641 -0.004,1.50961 -0.0147,0.70512 -0.0213,1.41031 -0.0191,2.11557 -0.0276,0.89434 -0.2858,1.75584 -0.48732,2.62118 -0.16517,0.754 -0.2306,1.52341 -0.25593,2.29327 -0.0544,0.21665 -0.0811,0.93958 -0.20864,1.11645 -0.1487,0.20622 -0.39947,0.32493 -0.54559,0.53299 -0.0658,0.0936 -0.0937,0.62665 -0.10126,0.71919 0.008,0.71077 0.0907,1.41073 0.0426,2.1212 -0.079,0.72273 -0.11873,1.44868 -0.13932,2.17518 -0.0248,0.0976 0.0263,0.92355 -0.008,0.95581 -0.40151,0.37916 -0.94281,0.58932 -1.34368,0.96915 -6.6e-4,6.1e-4 -9.4e-4,0.49556 -10e-4,0.61182 4e-5,0.63007 6.5e-4,1.26015 9.5e-4,1.89023 4e-5,0.1073 -0.10708,0.32665 1.2e-4,0.3219 0.47132,-0.0209 0.89187,-0.353 1.36274,-0.38225 0.0991,-0.006 0.0273,0.19665 0.04,0.2951 0.0492,0.38007 0.0734,0.75942 0.0962,1.14188 0.046,0.72391 0.076,1.44862 0.0921,2.17377 0.15733,0.0144 0.33176,-0.0296 0.472,0.0431 0.064,0.0332 0.0144,0.14347 0.0251,0.21474 0.0407,0.27123 0.0782,0.5571 0.20168,0.80177 0.29114,0.515 0.39935,1.10046 0.47326,1.68009 0.0562,0.57121 0.0328,1.14227 0.11041,1.71152 0.13173,0.5193 0.0693,1.047 0.0922,1.57365 0.0812,0.60572 0.23615,1.1971 0.39318,1.7866 0.34767,0.73103 0.48334,1.51852 0.59216,2.313 0.16353,0.64386 0.11178,1.30784 0.16167,1.96174 0.0743,0.59173 0.0206,1.18309 0.11385,1.77389 0.11524,0.73306 0.29001,1.4542 0.42402,2.18383 0.10381,0.66236 0.16519,1.33616 0.13221,2.00639 -0.0929,0.67011 -0.1256,1.34699 -0.2131,2.01731 -0.0801,0.63228 -0.28864,1.23593 -0.40078,1.86168 -0.0905,0.67073 -0.21634,1.33477 -0.29208,2.0075 -0.0713,0.55908 -0.19281,1.109 -0.25632,1.66928 -0.0545,0.58668 -0.0582,1.17632 -0.0759,1.76484 -0.0162,0.88014 -0.007,1.76053 -0.006,2.64077 0.0291,0.73037 0.0571,1.4592 0.0509,2.19078 -0.0115,0.62846 -0.0253,1.25688 -0.03,1.88545 -0.003,0.58532 0.008,1.17061 0.001,1.75589 -0.009,0.66259 -0.006,1.32535 -0.006,1.988 -0.0522,0.5822 0.0734,1.14848 0.13364,1.72271 -0.0128,0.48265 0.0412,0.96304 0.0756,1.44371 0.0911,0.44794 0.19472,0.89061 0.24948,1.34518 0.0751,0.59417 -0.07,1.16718 -0.22008,1.73591 -0.10324,0.35969 -0.16613,0.72401 -0.21423,1.09432 -0.0421,0.26081 -0.16698,0.49649 -0.29832,0.72255 -0.17256,0.31506 -0.13906,0.65661 -0.14617,0.99898 -0.0486,0.26841 -0.0744,0.53085 -0.0758,0.80514 0.0159,0.22385 -0.0651,0.56297 0.11002,0.69823 0.20002,0.21899 0.2587,0.53364 0.37153,0.80315 -2.8669,1.48775 -3.45504,3.13122 -4.2418,1.07615 -0.17877,-0.61952 -0.15516,-1.27743 -0.17176,-1.91676 -0.029,-0.64291 0.0147,-1.28744 -0.0345,-1.9292 -0.1458,-0.64925 -0.0974,-1.25377 0.10548,-1.88154 0.20226,-0.6112 0.39368,-1.22763 0.52396,-1.85859 0.12414,-0.53619 0.11453,-1.06554 0.0384,-1.60513 -0.0973,-0.48982 -0.003,-0.98308 -0.0268,-1.47669 -0.0398,-0.5811 -0.081,-1.16189 -0.10461,-1.74392 0.004,-0.82616 -0.14652,-1.64155 -0.26379,-2.45663 -0.13976,-0.93096 -0.18802,-1.86941 -0.21762,-2.80891 -0.0185,-0.84379 -0.0198,-1.68781 -0.0182,-2.53177 -0.003,-0.6615 -0.0127,-1.32295 -0.0178,-1.98443 0.0215,-0.54674 -0.0194,-1.08517 -0.097,-1.62558 -0.0584,-0.64461 -0.12683,-1.28472 -0.25379,-1.91978 0.0938,-0.18265 -0.33537,-0.80458 -0.28768,-0.96555 0.0637,-0.21518 0.29514,-0.35229 0.36557,-0.56538 0.0328,-0.0991 -0.0547,-0.20155 -0.0785,-0.30318 -0.0228,-0.0971 -0.0409,-0.19516 -0.0613,-0.29274 -0.15761,-1.21199 -0.30095,-0.0371 1.17257,-1.56058 0.0133,-0.0137 -0.10765,-0.66231 -0.13093,-0.86002 0.18671,-1.07099 0.57803,-0.37714 -1.12931,-0.17484 -0.0919,0.0109 0.0456,-0.17929 0.0681,-0.26902 0.0252,-0.10085 0.05,-0.20182 0.075,-0.30272 -0.13054,-0.0331 -0.31081,0.008 -0.39162,-0.0994 -0.0675,-0.09 0.0482,-0.21981 0.0693,-0.33033 0.0836,-0.43877 0.12644,-0.87877 0.15484,-1.32397 0.034,-0.65219 0.0176,-1.30539 0.0643,-1.95674 0.0971,-0.8048 0.16584,-1.61163 0.19558,-2.42164 0.0527,-0.54994 -0.002,-1.07011 -0.17868,-1.58983 -0.18999,-0.49439 -0.24681,-1.01485 -0.27953,-1.53871 0.0704,-0.0856 -0.0319,-0.82566 -0.003,-0.88421 0.1015,-0.20552 0.33079,-0.33235 0.42286,-0.54227 0.0264,-0.0603 -0.15812,-0.44458 -0.17876,-0.49082 0.39826,-0.32925 0.85721,-0.59651 1.19476,-0.98775 0.0637,-0.0739 -0.0752,-0.18018 -0.10777,-0.27214 -0.14715,-0.41502 -0.31387,-0.8207 -0.4692,-1.23317 -0.22014,-0.53887 -0.24109,-1.12056 -0.34096,-1.68515 -0.10048,-0.49887 -0.2054,-1.00159 -0.17831,-1.51212 0.0563,-0.53474 -0.004,-1.06408 0.12763,-1.59005 0.11822,-0.62908 0.50296,-1.13645 0.81063,-1.68233 0.0506,-0.10447 0.26778,-0.31224 0.15173,-0.31339 -0.42476,-0.004 -0.81362,0.32384 -1.23786,0.30264 -0.12618,-0.006 0.17079,-0.24119 0.1235,-0.35834 -0.0474,-0.1173 -0.30446,-0.0507 -0.33788,-0.17274 -0.009,-0.0319 0.3562,-0.79043 0.36808,-0.81552 0.30276,-0.63242 0.70237,-1.21795 0.89933,-1.89542 0.0484,-0.56599 0.17585,-1.11753 0.29194,-1.67219 0.0899,-0.51543 0.18326,-1.04138 0.15063,-1.56623 -0.10177,-0.57462 -0.13807,-1.15689 -0.16922,-1.73866 -0.0311,-0.59912 -0.0419,-1.19899 -0.0476,-1.79881 -0.048,-0.96902 0.19319,-1.0741 0.88758,-1.69178 0.68894,-0.8086 1.86786,-0.91962 2.59966,-1.69565 0.20719,-0.21971 0.31335,-0.6274 0.44169,-0.89806 0.23025,-0.47838 0.29317,-0.97273 0.18749,-1.48908 -0.1079,-0.48472 -0.29654,-0.9435 -0.41482,-1.42539 -0.0279,-0.14971 -0.23914,-1.042 -0.35056,-1.09322 -0.13364,-0.0614 -0.29346,-0.0203 -0.4402,-0.0304 -0.42754,-0.73829 0.0217,-0.13423 -1.71389,0.42752 -0.17707,0.0573 -0.18293,-0.31545 -0.45154,-0.0438 1.18659,-0.65397 2.37744,-1.30024 3.55976,-1.96189 0.14015,-0.0784 -0.10086,-0.0542 -0.20113,0.15068 -0.0764,0.15623 -0.0329,0.36912 -0.0196,0.53188 0.0728,0.60905 0.0783,1.22273 0.0922,1.83508 -1.4e-4,0.86613 0.17126,1.70342 0.35882,2.54295 0.11334,0.43639 0.16773,0.87046 0.17556,1.31978 -0.0828,0.5735 -0.086,1.14639 -0.0759,1.72499 0.029,0.38881 0.0786,0.77499 0.15253,1.15782 0.026,0.13475 0.17253,0.29704 0.0851,0.40283 -1.40469,1.69998 -1.4964,0.47308 -1.31553,1.55154 -0.0179,0.20636 0.18357,0.95192 0.14572,1.11532 -0.0434,0.18759 -0.21402,0.32885 -0.26001,0.51582 -0.0263,0.10691 0.0408,0.21658 0.053,0.32599 0.0102,0.0918 0.009,0.18443 0.0141,0.27664 -0.0266,0.5675 -0.0712,1.13355 -0.0918,1.70159 0.0937,0.0747 0.23333,0.11432 0.28114,0.22425 0.0505,0.11601 -0.0149,0.25261 -0.0187,0.37906 -0.0132,0.43981 0.005,0.88049 0.0182,1.32007 0.0178,0.52747 0.0255,1.05517 0.0296,1.5829 0.0438,0.75542 0.002,0.25523 -0.30768,0.92136 -0.0192,0.0414 0.01,0.55271 0.008,0.63485 -0.0171,0.45647 -0.027,0.91311 -0.0327,1.36985 -7e-4,0.0916 -0.0576,0.20196 -0.002,0.27491 0.0662,0.087 0.24579,0.0301 0.30421,0.12246 0.0136,0.0216 -0.13791,1.01397 -0.15072,1.13047 -0.063,0.55308 -0.0756,1.10183 -0.005,1.6536 0.11515,1.65546 -0.0924,1.03898 -2.25181,2.35393 -0.0626,-0.12788 -0.13791,-0.25026 -0.18773,-0.38363 -0.14205,-0.38028 -0.22432,-0.78039 -0.32616,-1.17335 -0.22286,-0.85991 -0.39737,-1.72341 -0.55506,-2.59722 -0.2404,-1.41335 -0.28671,-2.84823 -0.49589,-4.26503 -0.0322,-0.73674 -0.26511,-1.431 -0.42201,-2.14314 -0.10382,-0.40473 -0.0406,-0.84834 -0.0556,-1.24091 0.6291,1.50883 0.002,0.22542 3.68489,-1.80376 0.0389,-0.0215 -0.0619,0.0664 -0.0792,0.10736 -0.0375,0.089 -0.0588,0.18405 -0.0831,0.27748 -0.0986,0.37805 -0.0982,0.43751 -0.16462,0.83988 -0.17821,1.37827 -0.20499,2.77146 -0.23704,4.15923 -0.0521,1.96651 -0.0307,3.93405 -0.0144,5.90091 -0.0177,1.07472 0.12308,2.15222 0.0345,3.22518 -0.0857,0.54389 -0.13429,1.09076 -0.16808,1.63998 -0.0769,0.20827 0.0721,0.74392 -0.0229,0.92003 -0.11599,0.2151 -0.35733,0.34574 -0.4702,0.56249 -0.005,0.0105 -0.004,0.6833 -0.004,0.69513 0.16769,0.18363 -0.18494,0.57941 -0.006,0.75816 0.11899,0.11905 0.36199,-0.003 0.49505,0.0997 0.0429,0.0333 0.10382,0.69078 0.14681,0.88029 0.16746,0.56101 0.34552,1.11989 0.53103,1.67572 0.15844,0.61517 0.3495,1.22118 0.51918,1.83317 0.18492,0.58098 0.30198,1.16176 0.36857,1.76611 0.1122,0.44833 0.34413,0.8491 0.48983,1.2865 0.14015,0.43686 -0.0138,0.77124 -0.25952,1.12167 -0.33437,0.30438 -0.6648,0.60998 -0.98692,0.92744 -1.94254,1.26891 -2.93424,3.05326 -4.24378,1.7307 -0.0503,-0.0508 -0.16954,-0.0785 -0.15468,-0.14843 0.0401,-0.18865 0.19495,-0.33284 0.29242,-0.49926 -0.0491,-0.0652 -0.20082,-0.13401 -0.1473,-0.19566 0.33293,-0.38349 0.83089,-0.59864 1.16724,-0.97915 0.0535,-0.0605 -0.0786,-0.14125 -0.11188,-0.21478 -0.11152,-0.24609 -0.15315,-0.49941 -0.1957,-0.76389 -0.10996,-0.5475 0.0199,-1.08336 0.0814,-1.62639 0.16269,-0.79473 0.27703,-1.5975 0.276,-2.4091 -0.014,-1.01443 -0.13161,-2.01967 -0.25256,-3.02535 -0.0495,-0.66582 -0.25622,-1.30285 -0.34094,-1.96323 -0.0431,-0.84342 -0.15295,-1.68081 -0.22871,-2.52162 -0.0762,-1.01067 -0.087,-2.02466 -0.0959,-3.03769 -0.006,-1.09622 -0.004,-2.19247 -0.003,-3.2887 6.8e-4,-0.80925 0.001,-1.61851 0.001,-2.42776 1.4e-4,-0.6867 1.4e-4,-1.3734 1.4e-4,-2.0601 -10e-6,-0.6436 -10e-6,-1.2872 -10e-6,-1.9308 -1e-5,-0.54106 -1e-5,-1.08212 -1e-5,-1.62318 0,-0.54837 0,-1.09674 0,-1.64511 0.0372,-0.64935 -0.0746,-1.28927 -0.15036,-1.93147 -0.069,-0.71425 -0.086,-1.43196 -0.0963,-2.149 0.0671,-0.60121 0.11433,-1.21048 0.22954,-1.8048 0.12648,-0.61492 0.29224,-1.2031 0.31921,-1.83242 0.052,-0.79549 0.0329,-1.59576 0.028,-2.39292 -0.0275,-0.79832 -0.0517,-1.59666 -0.0665,-2.39533 -0.024,-0.68979 -0.037,-1.37408 0.12864,-2.04756 0.13872,-0.5384 0.37693,-1.03869 0.50185,-1.58189 0.14436,-0.94223 0.20317,-0.31204 -1.25204,-0.0421 -0.15534,0.0288 0.23008,-0.33501 0.12867,-0.45615 -0.0749,-0.0895 -0.22896,-0.0451 -0.34343,-0.0677 0.3485,-0.58928 0.68192,-1.18914 0.96844,-1.81112 0.23439,-0.60291 0.36794,-1.2356 0.53168,-1.85929 0.16322,-0.45854 0.14901,-0.91033 0.0986,-1.38346 -0.0531,-0.45196 -0.0832,-0.90502 -0.0556,-1.35951 -0.0255,-0.36898 0.0621,-0.72397 0.13916,-1.08098 -0.11072,-0.44782 -0.28716,-0.86281 -0.21086,-1.32973 0.19047,-0.34874 0.10472,-0.64102 0.0595,-1.01628 -0.0659,-0.27145 0.10864,-0.53642 0.0628,-0.80276 0,0 3.68579,-2.0149 3.68579,-2.0149 l 0,0 c 0.10744,0.30963 0.065,0.574 -0.0422,0.88028 0.024,0.27634 0.19769,0.82115 0.1232,1.05631 -0.0144,0.0455 -0.0711,0.0636 -0.1066,0.0954 -0.003,0.007 -0.11174,0.2606 -0.11358,0.27546 -0.0391,0.31527 0.18535,0.6165 0.24576,0.91416 0.0233,0.0942 0.0716,0.18555 0.0698,0.28255 -9.5e-4,0.0518 -0.0605,0.0858 -0.0775,0.1348 -0.077,0.22162 -0.10886,0.48809 -0.10521,0.71895 -0.002,0.90342 0.0161,-0.39585 -0.0405,0.40343 -0.0213,0.30034 0.0544,0.60699 0.0646,0.9062 0.0606,0.52016 0.12083,1.02782 -0.0578,1.53634 -0.17469,0.64043 -0.31515,1.28757 -0.52447,1.91816 -0.24586,0.63961 -0.5869,1.24829 -0.92508,1.84362 -0.20902,0.14538 -0.44104,0.26229 -0.62705,0.43614 -0.10817,0.1011 -0.0141,0.33628 -0.13374,0.42357 -1.44827,1.05708 -1.34486,0.3622 -1.48573,1.36174 -0.12423,0.54353 -0.3621,1.04381 -0.50179,1.58201 -0.16687,0.67265 -0.15351,1.35638 -0.12962,2.04558 0.0147,0.7987 0.0388,1.59708 0.0665,2.39543 0.005,0.79724 0.0238,1.5977 -0.0278,2.39328 -0.0264,0.6299 -0.19136,1.21825 -0.31865,1.83356 -0.11609,0.59363 -0.16185,1.20268 -0.23032,1.80323 0.0102,0.71678 0.0272,1.43422 0.0959,2.14822 0.0757,0.64251 0.18799,1.28271 0.15082,1.93236 0,0.54837 0,1.09674 0,1.64511 0,0.54106 0,1.08212 0,1.62318 0,0.6436 1e-5,1.2872 1e-5,1.9308 0,0.6867 0,1.3734 -1.3e-4,2.0601 -2e-4,0.80926 -6e-4,1.61851 -0.001,2.42777 -7.6e-4,1.09621 -0.002,2.19243 0.003,3.28863 0.009,1.01281 0.0195,2.0266 0.0955,3.03707 0.0757,0.84073 0.18581,1.67799 0.22857,2.52134 0.0843,0.66049 0.29147,1.29743 0.34096,1.96329 0.121,1.00598 0.2388,2.01149 0.25303,3.02623 0.002,0.81186 -0.11215,1.61511 -0.27556,2.40998 -0.0611,0.54237 -0.19197,1.07747 -0.0825,1.62433 0.0172,0.10762 0.19702,1.00048 0.30583,0.97553 1.67889,-0.38494 1.09781,-1.01318 1.5889,-0.37082 0.19251,-0.0374 0.38151,-0.11758 0.57753,-0.11206 0.0678,0.002 0.0992,0.093 0.15425,0.13263 0.0745,0.0536 0.22915,0.13969 0.27059,0.009 -1.15723,0.67136 -2.31446,1.34272 -3.4717,2.01409 0.40387,-0.19956 0.62488,-0.6199 1.00975,-0.85696 0.23823,-0.16615 0.49505,-0.41473 0.47642,-0.7237 -0.14279,-0.46742 -0.40518,-0.88271 -0.51713,-1.36081 -0.0352,-0.26481 -0.0207,-0.542 -0.0737,-0.80344 -0.0627,-0.30944 -0.20641,-0.59968 -0.2497,-0.91433 -0.17442,-0.6045 -0.35138,-1.2078 -0.51648,-1.81501 -0.18346,-0.56858 -0.37847,-1.13352 -0.55054,-1.70477 -0.0343,-0.13913 -0.20188,-0.83383 -0.15573,-0.94511 0.0959,-0.23122 0.33572,-0.38242 0.43465,-0.61235 0.099,-0.23016 -0.10095,-0.5202 -0.007,-0.75167 0,-0.003 0.001,-0.68912 -0.003,-0.6929 -0.11652,-0.10737 -0.34789,0.0168 -0.46722,-0.0874 -0.0317,-0.0277 0.018,-0.82606 0.009,-0.92748 0.0112,-0.56117 0.0472,-1.12518 0.15668,-1.67659 0.19867,-1.07763 0.12733,-2.17832 0.17298,-3.26942 0.0144,-1.96651 0.0318,-3.93328 0.003,-5.89973 -0.005,-1.3799 -0.0267,-2.76225 0.0864,-4.139 0.0379,-0.37204 0.0998,-0.74466 0.13485,-1.11618 0.007,-0.0701 -0.0572,-0.17282 0.002,-0.21129 3.64668,-2.37755 2.78456,-3.28346 3.86229,-1.95892 0.15996,0.43261 -0.11172,0.90026 0.0205,1.3501 0.0532,0.34776 0.17159,0.66211 0.24954,1.00377 0.0712,0.31193 0.0657,0.4323 0.0947,0.7535 0.0132,0.14585 0.0281,0.29155 0.0422,0.43732 0.12488,1.43653 0.11562,2.88433 0.35789,4.3099 0.21639,1.20995 0.42965,2.54513 1.06922,3.615 -0.6888,0.46772 -1.37159,0.94439 -2.06638,1.40315 -0.0278,0.0184 0.0506,-0.0476 0.0612,-0.0792 0.0943,-0.28017 0.0129,-0.61379 0.0424,-0.90067 -0.0744,-0.55667 -0.0862,-1.10971 -0.0108,-1.66833 0.0236,-0.20589 0.0764,-0.98893 0.15537,-1.13245 0.0939,-0.17052 0.27895,-0.28064 0.3668,-0.45432 0.0414,-0.0818 0.001,-0.1833 0.002,-0.27494 0.006,-0.45677 0.0154,-0.91344 0.0326,-1.36993 0.002,-0.0829 0.057,-0.58391 -0.007,-0.63377 -0.0996,-0.0771 -0.27554,0.007 -0.37016,-0.0764 -0.12508,-0.10994 0.12462,-0.38982 -0.001,-0.49959 -0.002,-0.52988 -0.007,-1.05976 -0.0139,-1.5896 -0.003,-0.308 -0.062,-1.51582 0.0218,-1.72111 0.082,-0.20087 0.24017,-0.36144 0.36025,-0.54215 0.0205,-0.56784 0.0645,-1.13369 0.0921,-1.70094 -0.004,-0.0862 -0.0167,-0.54313 -0.0666,-0.60175 -0.0902,-0.10596 -0.29099,-0.0698 -0.37712,-0.17915 -0.14351,-0.18215 -0.0331,-0.88508 -0.13926,-1.11743 -0.16788,-1.01477 0.13537,0.0258 -1.59891,0.0142 -0.13943,-9.4e-4 -0.0568,-0.27303 -0.0857,-0.40944 -0.0845,-0.39957 -0.15866,-0.79913 -0.19916,-1.20616 -0.0309,-0.56986 -0.11158,-1.14613 0.0298,-1.70711 -0.0126,-0.42794 -0.0386,-0.85594 -0.10432,-1.27947 -0.13844,-0.8685 -0.32905,-1.72461 -0.3878,-2.60499 -0.014,-0.59489 -0.039,-1.19077 -0.12049,-1.78084 -0.29062,-2.1774 0.6805,-1.71746 3.73956,-3.17252 0.0749,0.022 0.71416,0.34256 0.64401,0.42589 -1.16403,1.38285 -1.57183,0.54808 -1.11944,1.28698 -0.0746,0.13621 -0.19075,0.25689 -0.22384,0.40863 -0.0199,0.0914 0.45175,0.93946 0.3512,1.09437 0.11809,0.48206 0.30689,0.94087 0.41497,1.42566 0.10682,0.51762 0.0453,1.01391 -0.18506,1.49401 -0.0382,0.0803 -0.44048,0.89474 -0.44111,0.89938 -0.009,0.0652 0.0459,0.1694 0.1114,0.1629 0.44034,-0.0437 0.85017,-0.30882 1.29263,-0.30237 0.14276,0.002 -0.19203,0.21134 -0.28805,0.31702 -0.11065,0.10443 -0.48117,0.46643 -0.62264,0.55439 -0.0798,0.0496 -0.20029,0.0302 -0.26389,0.0994 -0.0655,0.0713 -0.0935,0.60474 -0.0908,0.70138 -0.002,0.59749 -0.006,1.19523 0.016,1.79245 0.0282,0.57282 0.0748,1.14458 0.19582,1.70644 0.0637,0.56254 -0.0327,1.13016 -0.1202,1.68615 -0.10925,0.55741 -0.25792,1.11043 -0.28682,1.67942 -0.12596,0.73284 -0.53206,1.36393 -0.90527,1.99669 -0.0391,0.0847 -0.30882,0.68577 -0.37734,0.77003 -0.18051,0.22197 -0.43412,0.3797 -0.60361,0.61019 -0.0748,0.10175 -0.0145,0.28109 -0.1114,0.36216 -0.45048,0.37702 -1.01281,0.60196 -1.47453,0.96514 -0.0913,0.0718 -0.101,0.20925 -0.1515,0.31387 -0.30705,0.54566 -0.69307,1.0518 -0.81159,1.68028 -0.13312,0.52537 -0.0719,1.05421 -0.12834,1.58858 -0.0283,0.50989 0.0772,1.01212 0.17741,1.51039 0.10021,0.564 0.12023,1.14535 0.34021,1.68377 0.15527,0.41246 0.32214,0.81801 0.46913,1.23304 0.0325,0.0918 0.0111,0.28555 0.10745,0.27158 0.50057,-0.0726 0.95623,-0.3301 1.43434,-0.49515 0.0419,0.0918 0.0905,0.18087 0.12556,0.2755 0.0353,0.0953 -0.002,0.24088 0.0851,0.29266 0.14973,0.0887 0.37415,-0.0332 0.51805,0.0646 0.0844,0.0574 0.0358,0.77995 0.015,0.90237 0.0279,0.48507 0.0723,0.97174 0.24019,1.43197 0.19959,0.57454 0.28712,1.13891 0.20655,1.75052 -0.041,0.81253 -0.0877,1.62458 -0.18329,2.43289 -0.0597,0.64621 -0.009,1.29602 -0.0561,1.94372 -0.0162,0.26834 -0.0833,1.54692 -0.19628,1.71513 -0.14435,0.21485 -0.36068,0.37135 -0.54102,0.55702 -0.0248,0.0956 -0.0542,0.19016 -0.0745,0.28682 -0.0198,0.0941 0.0297,0.22535 -0.0458,0.28495 -1.18511,0.93547 -1.42916,0.43694 -1.61022,1.47172 0.007,0.059 0.10156,0.86255 0.13051,0.85923 1.58914,-0.18219 1.33462,-1.02532 1.48679,0.14127 0.005,0.0257 0.0943,0.56225 0.11716,0.57514 0.15943,0.0898 0.38708,-0.0377 0.5464,0.0523 0.0707,0.0399 0.26291,0.89211 0.29762,1.00441 0.16121,0.63861 0.23402,1.28293 0.28953,1.93815 0.0808,0.55836 0.17731,1.10913 0.12878,1.67639 -0.006,0.66841 -0.0173,1.33676 -0.0225,2.00519 -3.2e-4,0.84247 -0.007,1.685 0.004,2.52743 0.0153,0.92724 0.0535,1.85597 0.17481,2.77619 0.11881,0.81976 0.32602,1.63064 0.35539,2.4604 0.0139,0.57432 0.0358,1.1493 0.10755,1.7198 0.0552,0.49297 -0.0451,0.9677 0.008,1.45746 0.0853,0.58405 0.14211,1.154 0.006,1.73849 -0.11898,0.65054 -0.3042,1.27991 -0.49259,1.91292 -0.25094,0.63788 -0.34811,1.02908 -0.18512,1.71805 0.0739,0.65175 0.0157,1.31058 0.033,1.96562 0.007,0.59006 0.005,1.19196 0.15203,1.76717 0.69756,1.90132 2.63777,-0.36254 -3.30771,2.63435 0.24934,0.33186 0.0354,-0.24532 -0.0918,-0.28772 -0.21749,-0.28099 -0.21829,-0.64475 -0.2229,-0.9849 -0.0115,-0.26389 -0.0913,-0.5971 0.0564,-0.82721 0.0299,-0.37855 -0.0255,-0.7571 0.0818,-1.12988 0.0264,-0.0898 0.0497,-0.20255 0.10721,-0.28159 0.0202,-0.0277 0.0612,-0.0374 0.0777,-0.0674 0.0561,-0.1022 0.0356,-0.23889 0.15147,-0.31459 0.13333,-0.35543 0.0453,-0.77337 0.24112,-1.11915 0.13591,-0.52241 0.3454,-1.04218 0.27317,-1.59195 -0.0463,-0.46267 -0.14412,-0.91329 -0.24641,-1.36638 -0.0316,-0.48302 -0.12141,-0.96872 -0.095,-1.45038 0.0306,-0.58211 -0.19482,-1.16235 -0.10787,-1.7512 7e-4,-0.6607 0.004,-1.32152 -0.006,-1.98216 -0.007,-0.58774 0.004,-1.17548 0.007,-1.76322 0.003,-0.63003 0.003,-1.26025 0.0254,-1.88997 0.0248,-0.73513 0.0197,-1.46654 -0.0119,-2.20048 -9e-5,-0.87825 0.006,-1.75661 -0.009,-2.63478 -0.0149,-0.59339 -0.0265,-1.1884 0.0167,-1.78092 0.0521,-0.56858 0.15635,-1.12728 0.28948,-1.68249 0.0531,-0.68098 0.1861,-1.34696 0.26469,-2.02349 0.0902,-0.63502 0.29545,-1.23228 0.40891,-1.86014 0.1097,-0.65828 0.13106,-1.32945 0.22532,-1.99048 0.0677,-0.63982 7.4e-4,-1.28612 -0.0747,-1.92307 -0.11276,-0.73158 -0.2967,-1.44722 -0.4343,-2.17406 -0.11821,-0.60035 -0.0992,-1.1966 -0.14245,-1.80141 -0.0619,-0.65529 0.0351,-1.32093 -0.11556,-1.969 -0.0839,-0.77877 -0.23443,-1.53528 -0.57468,-2.24781 -0.18991,-0.60874 -0.3449,-1.22493 -0.46952,-1.85036 -0.0387,-0.52142 0.0402,-1.03324 -0.0662,-1.54872 -0.0847,-0.5722 -0.10064,-1.14269 -0.1208,-1.7204 -0.05,-0.53107 -0.12654,-1.06674 -0.40399,-1.53364 -0.0527,-0.0924 -0.1189,-0.17824 -0.15799,-0.27713 -0.0285,-0.0722 -0.16904,-0.90353 -0.15702,-0.92538 0.11268,-0.20492 0.31269,-0.34782 0.46903,-0.52173 0.002,-0.7257 0.002,-1.45207 -0.0447,-2.17659 -0.0315,-0.37061 -0.0726,-0.73678 -0.12394,-1.10508 -0.0143,-0.10264 -0.11432,-0.23308 -0.0427,-0.30796 0.37973,-0.39687 0.91857,-0.61646 1.30277,-1.009 0.0751,-0.0767 -7e-5,-0.2146 -1.1e-4,-0.3219 -3e-4,-0.63008 -9.1e-4,-1.26016 -9.5e-4,-1.89024 0.001,-1.19975 0.23765,-0.32385 -1.33947,-0.2166 -0.0113,7.6e-4 0.0225,-0.86772 0.022,-0.97013 0.0233,-0.72937 0.0587,-1.45826 0.12459,-2.18522 0.0671,-0.70851 0.01,-1.40939 -0.0197,-2.1194 8.2e-4,-0.1349 -0.007,-0.27013 0.002,-0.40471 0.008,-0.12008 0.12428,-0.26245 0.0505,-0.35758 -0.0828,-0.10675 -0.31636,0.0218 -0.3957,-0.0875 -0.0435,-0.0599 0.33528,-0.91976 0.26841,-1.04443 0.0218,-0.79517 0.0384,-1.59078 0.2306,-2.36821 0.18235,-0.84046 0.46472,-1.66726 0.51054,-2.53117 0.002,-0.69826 -0.005,-1.39642 -0.0215,-2.09449 -5.4e-4,-0.50631 -0.002,-1.01265 0.005,-1.51893 0.0109,-0.58349 0.0323,-1.16719 0.0975,-1.74755 0.0656,-0.58564 0.16942,-1.16874 0.16225,-1.75921 0.0157,-0.52514 0.0438,-1.04961 0.0834,-1.57352 0.0229,-0.45324 -0.0763,-0.83468 -0.10715,-1.28421 -0.14075,-0.62923 -0.19039,-1.2844 -0.45516,-1.88093 0,0 3.70171,-1.97911 3.70171,-1.97911 z"
         id="path6167"
         style="fill:#ffffff;fill-opacity:1;stroke:#000000;stroke-width:0;stroke-linecap:butt;stroke-linejoin:round;stroke-miterlimit:4;stroke-opacity:1;stroke-dasharray:none;stroke-dashoffset:0" />
      <path
         inkscape:connector-curvature="0"
         id="path6019"
         d="m 145.36876,200.83106 c -4.2901,-0.15894 -9.38716,-0.0449 -11.3358,4.64039 -6.64727,12.61329 -7.03505,27.50347 -7.59418,41.47615 0.35755,14.4145 0.94825,29.75882 7.88144,42.71375 1.7572,4.25344 5.61555,4.51057 9.65643,3.99957 4.01547,-0.6273 9.36738,1.89843 11.72461,-2.57702 8.80634,-9.82177 8.8245,-24.09293 9.77847,-36.55524 0.29211,-17.13088 0.77843,-35.91779 -8.88565,-50.84708 -2.56907,-3.50883 -7.4141,-2.83261 -11.22532,-2.85052 z m 6.23138,2.67375 c 4.88925,0.18818 5.90978,6.56062 7.64559,10.14256 5.43572,16.16479 3.90192,33.49902 3.55764,50.24877 -1.54914,9.32072 -2.56968,19.97541 -9.50175,27.00264 -3.30683,1.50458 -6.37042,-3.09435 -7.5793,-5.72314 -7.33971,-17.41142 -6.01001,-36.8616 -5.14862,-55.30901 1.22053,-8.92802 2.55052,-18.9383 8.70625,-25.85359 0.62768,-0.42006 1.53419,-0.51787 2.32019,-0.50823 z m -12.41856,17.45669 c 0.91665,0.8532 -0.57818,2.82594 -0.22097,0.46404 0.0507,-0.15575 -0.0158,-0.46552 0.22097,-0.46404 z m 0,50.40346 c 0.8518,1.01045 -0.42795,3.50132 -0.17678,0.7292 0.0477,-0.1773 -0.006,-0.64187 0.17678,-0.7292 z"
         style="fill:url(#linearGradient4535);fill-opacity:1;stroke:url(#linearGradient4537);stroke-width:0;stroke-linecap:butt;stroke-linejoin:round;stroke-miterlimit:4;stroke-opacity:1;stroke-dasharray:none;stroke-dashoffset:0" />
      <path
         d="m 46.315493,370.71124 c 0,7.81049 -2.136932,14.14214 -4.772971,14.14214 -2.636038,0 -4.77297,-6.33165 -4.77297,-14.14214 0,-7.81048 2.136932,-14.14213 4.77297,-14.14213 2.636039,0 4.772971,6.33165 4.772971,14.14213 z"
         sodipodi:ry="14.142136"
         sodipodi:rx="4.7729707"
         sodipodi:cy="370.71124"
         sodipodi:cx="41.542522"
         id="path5752-1-8"
         style="fill:#ffffff;fill-opacity:1;stroke:#000000;stroke-width:1;stroke-linecap:butt;stroke-linejoin:round;stroke-miterlimit:4;stroke-opacity:1;stroke-dasharray:none;stroke-dashoffset:0"
         sodipodi:type="arc"
         transform="matrix(2.7822726,0,0,3.2081,38.655045,-942.04601)" />
      <path
         inkscape:connector-curvature="0"
         id="path6237"
         d="m 138.50454,201.35917 c 16.08668,0 16.08668,0 16.08668,0"
         style="fill:none;stroke:#000000;stroke-width:2;stroke-linecap:butt;stroke-linejoin:miter;stroke-miterlimit:4;stroke-opacity:1;stroke-dasharray:none" />
      <path
         inkscape:connector-curvature="0"
         id="path6239"
         d="m 137.53227,293.28305 16.88217,0.17678"
         style="fill:none;stroke:#000000;stroke-width:1px;stroke-linecap:butt;stroke-linejoin:miter;stroke-opacity:1" />
    </g>
    <path
       inkscape:export-ydpi="50.025002"
       inkscape:export-xdpi="50.025002"
       inkscape:export-filename="C:\Documents and Settings\Justin\Desktop\WyoLum_v1.png"
       style="fill:none;stroke:#000000;stroke-width:0.40637639px;stroke-linecap:butt;stroke-linejoin:miter;stroke-opacity:1"
       d="m 150.32706,352.27354 0,-13.8509 c 0,0 1.13714,-5.33704 6.49793,-5.46411 5.3608,-0.12707 6.0106,5.0829 6.0106,5.0829 l 0,14.61332 z"
       id="path5684"
       inkscape:connector-curvature="0" />
    <path
       inkscape:export-ydpi="50.025002"
       inkscape:export-xdpi="50.025002"
       inkscape:export-filename="C:\Documents and Settings\Justin\Desktop\WyoLum_v1.png"
       sodipodi:type="arc"
       style="fill:#ffffff;fill-opacity:1;stroke:#000000;stroke-width:1;stroke-linecap:butt;stroke-linejoin:round;stroke-miterlimit:4;stroke-opacity:1;stroke-dasharray:none;stroke-dashoffset:0"
       id="path5690"
       sodipodi:cx="96.520073"
       sodipodi:cy="406.59692"
       sodipodi:rx="27.930717"
       sodipodi:ry="11.844039"
       d="m 124.45079,406.59692 a 27.930717,11.844039 0 1 1 -55.861435,0 27.930717,11.844039 0 1 1 55.861435,0 z"
       transform="matrix(0.29624696,0,0,0.27167019,128.16173,243.06825)" />
    <path
       inkscape:export-ydpi="50.025002"
       inkscape:export-xdpi="50.025002"
       inkscape:export-filename="C:\Documents and Settings\Justin\Desktop\WyoLum_v1.png"
       sodipodi:type="arc"
       style="fill:#a6a6a6;fill-opacity:1;stroke:#000000;stroke-width:1;stroke-linecap:butt;stroke-linejoin:round;stroke-miterlimit:4;stroke-opacity:1;stroke-dasharray:none;stroke-dashoffset:0"
       id="path5690-1"
       sodipodi:cx="96.520073"
       sodipodi:cy="406.59692"
       sodipodi:rx="27.930717"
       sodipodi:ry="11.844039"
       d="m 124.45079,406.59692 a 27.930717,11.844039 0 1 1 -55.861435,0 27.930717,11.844039 0 1 1 55.861435,0 z"
       transform="matrix(0.29624696,0,0,0.27167019,128.23121,244.36546)" />
    <path
       inkscape:export-ydpi="50.025002"
       inkscape:export-xdpi="50.025002"
       inkscape:export-filename="C:\Documents and Settings\Justin\Desktop\WyoLum_v1.png"
       style="fill:none;stroke:#000000;stroke-width:0.49074766px;stroke-linecap:butt;stroke-linejoin:miter;stroke-opacity:1"
       d="m 151.78909,368.72435 2.27428,-13.89864"
       id="path5750"
       inkscape:connector-curvature="0" />
    <path
       inkscape:export-ydpi="50.025002"
       inkscape:export-xdpi="50.025002"
       inkscape:export-filename="C:\Documents and Settings\Justin\Desktop\WyoLum_v1.png"
       style="fill:none;stroke:#000000;stroke-width:0.52853262px;stroke-linecap:butt;stroke-linejoin:miter;stroke-opacity:1"
       d="M 159.34295,355.10369 159.1805,394.4396"
       id="path5748"
       inkscape:connector-curvature="0" />
    <text
       inkscape:export-ydpi="50.025002"
       inkscape:export-xdpi="50.025002"
       inkscape:export-filename="C:\Documents and Settings\Justin\Desktop\WyoLum_v1.png"
       xml:space="preserve"
       style="font-size:40px;font-style:normal;font-weight:normal;line-height:125%;letter-spacing:0px;word-spacing:0px;fill:#000000;fill-opacity:1;stroke:none;font-family:Sans"
       x="192"
       y="406.86218"
       id="text6903"
       sodipodi:linespacing="125%"><tspan
         sodipodi:role="line"
         id="tspan6905"
         x="192"
         y="406.86218"
         style="font-size:24px">Emergents</tspan></text>
    <path
       inkscape:export-ydpi="50.025002"
       inkscape:export-xdpi="50.025002"
       inkscape:export-filename="C:\Documents and Settings\Justin\Desktop\WyoLum_v1.png"
       style="fill:#ff0000;fill-opacity:1;stroke:#000000;stroke-width:1.78579819000000000;stroke-linecap:butt;stroke-linejoin:round;stroke-miterlimit:4;stroke-opacity:1;stroke-dasharray:none;stroke-dashoffset:0"
       d="m 213.67615,383.45019 c -1.24671,-0.98066 -1.89593,-2.30813 -2.18145,-4.46045 -0.21546,-1.62427 -0.14828,-1.8712 0.79699,-2.92913 0.8532,-0.9549 1.35531,-1.18637 2.89427,-1.33425 2.99637,-0.28791 2.98597,-0.55492 -0.3648,-9.36106 -1.57304,-4.13408 -2.97041,-7.63768 -3.10527,-7.78577 -0.13487,-0.14809 -1.17886,3.19299 -2.31998,7.42462 -1.14112,4.23163 -2.35862,8.27294 -2.70555,8.98068 -0.75329,1.53672 -2.0201,2.07195 -4.90395,2.07195 -3.5031,0 -3.78564,-0.45053 -6.54087,-10.42982 -1.67349,-6.06131 -1.62598,-5.91128 -1.81308,-5.72418 -0.0895,0.0895 -1.00583,3.19562 -2.03628,6.90247 -1.03045,3.70686 -2.14425,7.15289 -2.47512,7.65786 -0.79488,1.21314 -1.90469,1.59367 -4.6479,1.59367 -3.77847,0 -3.83201,-0.0905 -7.01012,-11.84403 -5.08736,-18.81451 -5.23724,-19.48409 -4.66694,-20.84899 0.652,-1.56048 2.15049,-2.30876 4.62343,-2.30876 3.19438,0 3.89577,0.56793 4.91691,3.98128 0.4793,1.60215 1.23183,4.54378 1.6723,6.53693 0.44047,1.99316 0.89891,3.62392 1.01875,3.62392 0.11985,0 0.88715,-2.42626 1.70512,-5.39168 1.7869,-6.47814 2.22205,-7.41152 3.80785,-8.16773 1.47014,-0.70106 5.56701,-0.77631 6.85484,-0.1259 1.01723,0.51374 1.82188,2.50533 3.52937,8.73557 0.61287,2.23622 1.2036,4.30451 1.31273,4.59619 0.10913,0.29168 0.87456,-2.13292 1.70095,-5.388 1.59101,-6.26687 2.14651,-7.5198 3.57473,-8.06281 2.36987,-0.90102 5.95696,-0.0798 7.06974,1.61848 0.59384,0.90632 0.59508,1.07342 0.0245,3.2999 -0.33054,1.28989 -0.59965,2.46457 -0.59802,2.61041 0.002,0.14584 0.70856,0.26517 1.57095,0.26517 3.19971,0 3.82892,0.71544 6.06335,6.89429 l 1.15068,3.18198 0.51796,-1.23744 c 0.28488,-0.68059 0.89429,-2.42099 1.35424,-3.86755 0.52598,-1.65421 1.24533,-3.06446 1.93869,-3.8007 0.99887,-1.06066 1.29266,-1.17058 3.12854,-1.17058 2.37975,0 4.17438,0.74633 4.73073,1.96737 l 0.3976,0.87265 1.47701,-1.06995 c 5.08606,-3.68432 13.7032,-2.39681 17.31333,2.58684 l 1.01853,1.40603 0,-5.3677 c 0,-7.85463 0.42211,-8.52697 5.35351,-8.52697 2.2686,0 2.56679,0.0877 3.51252,1.03346 l 1.03346,1.03347 0,11.69446 0,11.69445 6.01041,0 6.01041,0 0,-7.08242 c 0,-9.72808 0.25961,-10.24169 5.17673,-10.24169 2.07322,0 2.4051,0.10282 3.33574,1.03346 0.83718,0.83718 1.04165,1.35759 1.07654,2.74004 0.0237,0.93862 0.14301,4.49081 0.26517,7.89376 0.20959,5.83898 0.26203,6.19291 0.93176,6.28892 0.39032,0.0559 1.02672,-0.12979 1.41422,-0.41275 0.65401,-0.47758 0.71721,-1.04266 0.88131,-7.87991 0.22396,-9.3314 0.40166,-9.66352 5.17036,-9.66352 2.07997,0 2.41097,0.10231 3.34153,1.03287 0.96026,0.96027 1.06399,0.98907 1.47541,0.40967 0.80876,-1.13899 1.96461,-1.45068 5.46525,-1.47379 1.90441,-0.0126 4.8149,-0.0442 6.46776,-0.0702 2.49707,-0.0393 3.26341,0.0881 4.5323,0.75384 l 1.5271,0.80116 1.64977,-0.79864 c 4.42002,-2.13969 10.4925,-0.60059 12.39285,3.14103 1.12601,2.217 1.43607,4.86027 1.53869,13.1173 l 0.0982,7.89766 -1.15229,1.02957 c -1.02343,0.91443 -1.41061,1.02956 -3.46236,1.02956 -2.46076,0 -4.13068,-0.60794 -4.57708,-1.6663 -0.14656,-0.34748 -0.39037,-4.13197 -0.54181,-8.40997 -0.15143,-4.27799 -0.28944,-7.81795 -0.30669,-7.86656 -0.13896,-0.3916 -1.78286,0.0442 -2.00064,0.53033 -0.15244,0.3403 -0.32386,3.86123 -0.38094,7.8243 -0.1323,9.18602 -0.34589,9.5882 -5.09184,9.5882 -1.81222,0 -2.24735,-0.13815 -3.24624,-1.03065 l -1.1535,-1.03065 -0.12787,-7.98496 -0.12788,-7.98496 -0.85427,0 c -0.56183,0 -0.95637,0.27232 -1.15253,0.7955 -0.16404,0.43752 -0.41493,3.97747 -0.55753,7.86656 -0.14259,3.88909 -0.4069,7.34784 -0.58735,7.68613 -1.1683,2.19018 -7.73729,2.25347 -8.57034,0.0826 -0.18071,-0.47093 -0.35595,-0.40463 -1.0436,0.39481 -0.66548,0.77366 -1.20635,0.99227 -2.77734,1.12255 -1.30043,0.10784 -2.27773,-0.009 -2.93111,-0.35179 -0.85736,-0.44922 -1.16315,-0.44901 -2.44002,0.002 -3.43693,1.21306 -8.17393,0.33866 -10.56382,-1.94997 -0.75423,-0.72227 -0.97227,-0.80173 -0.97227,-0.35431 0,0.31722 -0.38376,1.02316 -0.8528,1.56875 l -0.85279,0.99199 -9.6178,0.11439 c -7.09795,0.0844 -9.89641,-0.001 -10.68118,-0.32607 -1.21698,-0.50409 -2.03706,-2.12595 -2.03706,-4.02861 l 0,-1.25781 -2.03294,2.07392 c -2.65558,2.70911 -5.1069,3.71518 -9.104,3.73644 -2.37498,0.0126 -3.18179,-0.14607 -5.03258,-0.9899 -3.63813,-1.65872 -6.64132,-5.54336 -7.36406,-9.52542 -0.24157,-1.33097 -0.29716,-1.23566 -2.28103,3.91117 -3.94645,10.23842 -5.32163,12.54525 -8.3033,13.92869 -2.02703,0.94051 -5.43983,0.90646 -6.67689,-0.0666 z m 31.57692,-16.91386 c 0.82207,-0.82207 1.25466,-3.36493 0.95633,-5.62152 -0.28399,-2.14817 -1.58942,-3.41161 -3.1935,-3.09079 -0.59765,0.11953 -1.29957,0.43026 -1.55982,0.69052 -1.25431,1.25431 -1.18451,6.56571 0.10501,7.99061 0.83899,0.92707 2.7797,0.94346 3.69198,0.0312 l 0,0 z"
       id="path5308-5"
       inkscape:connector-curvature="0"
       inkscape:transform-center-x="7.4246206" />
    <path
       inkscape:export-ydpi="50.025002"
       inkscape:export-xdpi="50.025002"
       inkscape:export-filename="C:\Documents and Settings\Justin\Desktop\WyoLum_v1.png"
       style="fill:url(#linearGradient3890);fill-opacity:1;stroke:#000000;stroke-width:1.78579819000000000;stroke-linecap:butt;stroke-linejoin:round;stroke-miterlimit:4;stroke-opacity:1;stroke-dasharray:none;stroke-dashoffset:0"
       d="m 213.74937,383.61181 c -1.24671,-0.98066 -1.89593,-2.30813 -2.18145,-4.46045 -0.21546,-1.62427 -0.14828,-1.8712 0.79699,-2.92913 0.8532,-0.9549 1.35531,-1.18637 2.89427,-1.33425 2.99637,-0.28791 2.98597,-0.55492 -0.3648,-9.36106 -1.57304,-4.13408 -2.97041,-7.63768 -3.10527,-7.78577 -0.13487,-0.14809 -1.17886,3.19299 -2.31998,7.42462 -1.14112,4.23163 -2.35862,8.27294 -2.70555,8.98068 -0.75329,1.53672 -2.0201,2.07195 -4.90395,2.07195 -3.5031,0 -3.78564,-0.45053 -6.54087,-10.42982 -1.67349,-6.06131 -1.62598,-5.91128 -1.81308,-5.72418 -0.0895,0.0895 -1.00583,3.19562 -2.03628,6.90247 -1.03045,3.70686 -2.14425,7.15289 -2.47512,7.65786 -0.79488,1.21314 -1.90469,1.59367 -4.6479,1.59367 -3.77847,0 -3.83201,-0.0905 -7.01012,-11.84403 -5.08736,-18.81451 -5.23724,-19.48409 -4.66694,-20.84899 0.652,-1.56048 2.15049,-2.30876 4.62343,-2.30876 3.19438,0 3.89577,0.56793 4.91691,3.98128 0.4793,1.60215 1.23183,4.54378 1.6723,6.53693 0.44047,1.99316 0.89891,3.62392 1.01875,3.62392 0.11985,0 0.88715,-2.42626 1.70512,-5.39168 1.7869,-6.47814 2.22205,-7.41152 3.80785,-8.16773 1.47014,-0.70106 5.56701,-0.77631 6.85484,-0.1259 1.01723,0.51374 1.82188,2.50533 3.52937,8.73557 0.61287,2.23622 1.2036,4.30451 1.31273,4.59619 0.10913,0.29168 0.87456,-2.13292 1.70095,-5.388 1.59101,-6.26687 2.14651,-7.5198 3.57473,-8.06281 2.36987,-0.90102 5.95696,-0.0798 7.06974,1.61848 0.59384,0.90632 0.59508,1.07342 0.0245,3.2999 -0.33054,1.28989 -0.59965,2.46457 -0.59802,2.61041 0.002,0.14584 0.70856,0.26517 1.57095,0.26517 3.19971,0 3.82892,0.71544 6.06335,6.89429 l 1.15068,3.18198 0.51796,-1.23744 c 0.28488,-0.68059 0.89429,-2.42099 1.35424,-3.86755 0.52598,-1.65421 1.24533,-3.06446 1.93869,-3.8007 0.99887,-1.06066 1.29266,-1.17058 3.12854,-1.17058 2.37975,0 4.17438,0.74633 4.73073,1.96737 l 0.3976,0.87265 1.47701,-1.06995 c 5.08606,-3.68432 13.7032,-2.39681 17.31333,2.58684 l 1.01853,1.40603 0,-5.3677 c 0,-7.85463 0.42211,-8.52697 5.35351,-8.52697 2.2686,0 2.56679,0.0877 3.51252,1.03346 l 1.03346,1.03347 0,11.69446 0,11.69445 6.01041,0 6.01041,0 0,-7.08242 c 0,-9.72808 0.25961,-10.24169 5.17673,-10.24169 2.07322,0 2.4051,0.10282 3.33574,1.03346 0.83718,0.83718 1.04165,1.35759 1.07654,2.74004 0.0237,0.93862 0.14301,4.49081 0.26517,7.89376 0.20959,5.83898 0.26203,6.19291 0.93176,6.28892 0.39032,0.0559 1.02672,-0.12979 1.41422,-0.41275 0.65401,-0.47758 0.71721,-1.04266 0.88131,-7.87991 0.22396,-9.3314 0.40166,-9.66352 5.17036,-9.66352 2.07997,0 2.41097,0.10231 3.34153,1.03287 0.96026,0.96027 1.06399,0.98907 1.47541,0.40967 0.80876,-1.13899 1.96461,-1.45068 5.46525,-1.47379 1.90441,-0.0126 4.8149,-0.0442 6.46776,-0.0702 2.49707,-0.0393 3.26341,0.0881 4.5323,0.75384 l 1.5271,0.80116 1.64977,-0.79864 c 4.42002,-2.13969 10.4925,-0.60059 12.39285,3.14103 1.12601,2.217 1.43607,4.86027 1.53869,13.1173 l 0.0982,7.89766 -1.15229,1.02957 c -1.02343,0.91443 -1.41061,1.02956 -3.46236,1.02956 -2.46076,0 -4.13068,-0.60794 -4.57708,-1.6663 -0.14656,-0.34748 -0.39037,-4.13197 -0.54181,-8.40997 -0.15143,-4.27799 -0.28944,-7.81795 -0.30669,-7.86656 -0.13896,-0.3916 -1.78286,0.0442 -2.00064,0.53033 -0.15244,0.3403 -0.32386,3.86123 -0.38094,7.8243 -0.1323,9.18602 -0.34589,9.5882 -5.09184,9.5882 -1.81222,0 -2.24735,-0.13815 -3.24624,-1.03065 l -1.1535,-1.03065 -0.12787,-7.98496 -0.12788,-7.98496 -0.85427,0 c -0.56183,0 -0.95637,0.27232 -1.15253,0.7955 -0.16404,0.43752 -0.41493,3.97747 -0.55753,7.86656 -0.14259,3.88909 -0.4069,7.34784 -0.58735,7.68613 -1.1683,2.19018 -7.73729,2.25347 -8.57034,0.0826 -0.18071,-0.47093 -0.35595,-0.40463 -1.0436,0.39481 -0.66548,0.77366 -1.20635,0.99227 -2.77734,1.12255 -1.30043,0.10784 -2.27773,-0.009 -2.93111,-0.35179 -0.85736,-0.44922 -1.16315,-0.44901 -2.44002,0.002 -3.43693,1.21306 -8.17393,0.33866 -10.56382,-1.94997 -0.75423,-0.72227 -0.97227,-0.80173 -0.97227,-0.35431 0,0.31722 -0.38376,1.02316 -0.8528,1.56875 l -0.85279,0.99199 -9.6178,0.11439 c -7.09795,0.0844 -9.89641,-10e-4 -10.68118,-0.32607 -1.21698,-0.50409 -2.03706,-2.12595 -2.03706,-4.02861 l 0,-1.25781 -2.03294,2.07392 c -2.65558,2.70911 -5.1069,3.71518 -9.104,3.73644 -2.37498,0.0126 -3.18179,-0.14607 -5.03258,-0.9899 -3.63813,-1.65872 -6.64132,-5.54336 -7.36406,-9.52542 -0.24157,-1.33097 -0.29716,-1.23566 -2.28103,3.91117 -3.94645,10.23842 -5.32163,12.54525 -8.3033,13.92869 -2.02703,0.94051 -5.43983,0.90646 -6.67689,-0.0666 z m 31.57692,-16.91386 c 0.82207,-0.82207 1.25466,-3.36493 0.95633,-5.62152 -0.28399,-2.14817 -1.58942,-3.41161 -3.1935,-3.09079 -0.59765,0.11953 -1.29957,0.43026 -1.55982,0.69052 -1.25431,1.25431 -1.18451,6.56571 0.10501,7.99061 0.83899,0.92707 2.7797,0.94346 3.69198,0.0312 l 0,0 z"
       id="path5308-1"
       inkscape:connector-curvature="0"
       inkscape:transform-center-x="5.6568535" />
    <path
       inkscape:connector-curvature="0"
       id="path3952"
       d="m 150.66578,344.47596 c 0.0669,-5.80698 0.12423,-6.57131 0.55872,-7.44701 1.11114,-2.23946 3.2828,-3.63433 5.67278,-3.64365 2.35216,-0.009 4.06999,1.05279 5.11869,3.16439 0.42349,0.85272 0.48266,1.67439 0.5519,7.66424 0.0738,6.37972 0.0554,6.70214 -0.375,6.56672 -2.02191,-0.63622 -6.86542,-0.86109 -8.95256,-0.41564 -0.55,0.11738 -1.37103,0.29638 -1.82453,0.39777 l -0.82452,0.18434 0.0745,-6.47116 z"
       style="fill:#ff0000;fill-opacity:1;fill-rule:nonzero;stroke:#000000;stroke-width:0;stroke-linecap:butt;stroke-linejoin:round;stroke-miterlimit:4;stroke-opacity:1;stroke-dasharray:none;stroke-dashoffset:0" />
    <path
       inkscape:connector-curvature="0"
       id="path3954"
       d="m 148.92869,353.05999 c 0.16309,-0.49689 1.67419,-1.40595 3.03953,-1.82855 1.95025,-0.60365 6.41463,-0.73823 8.46492,-0.25518 1.87409,0.44153 3.40173,1.13822 3.9489,1.80093 0.19705,0.23866 0.24577,0.38157 0.10827,0.31759 -1.72518,-0.80282 -2.46258,-1.0624 -3.85901,-1.35842 -3.39707,-0.72014 -8.4494,-0.24543 -10.68476,1.00394 -0.61491,0.34368 -1.07294,0.48754 -1.01785,0.31969 z"
       style="fill:#ff0000;fill-opacity:1;fill-rule:nonzero;stroke:#000000;stroke-width:0;stroke-linecap:butt;stroke-linejoin:round;stroke-miterlimit:4;stroke-opacity:1;stroke-dasharray:none;stroke-dashoffset:0" />
    <path
       inkscape:connector-curvature="0"
       id="path3956"
       d="m 155.27996,357.70343 -1.21034,-0.10289 0.17239,-1.48537 c 0.14395,-1.24031 0.10945,-1.48537 -0.20916,-1.48537 -0.275,0 -0.42953,0.38399 -0.55335,1.375 -0.19619,1.57024 -0.25788,1.59483 -2.18863,0.87245 -2.75653,-1.03135 -3.1353,-2.5354 -0.92458,-3.67133 3.18522,-1.63664 9.06752,-1.73686 12.41534,-0.21152 3.32725,1.51596 2.31782,3.34092 -2.47882,4.48146 -0.6867,0.16328 -0.6875,0.16187 -0.6875,-1.21629 0,-1.05979 -0.087,-1.37977 -0.375,-1.37977 -0.28788,0 -0.375,0.31945 -0.375,1.375 0,1.17778 -0.0672,1.375 -0.46875,1.375 -0.25781,0 -0.79218,0.0397 -1.1875,0.0883 -0.39531,0.0485 -1.2634,0.042 -1.9291,-0.0146 l 0,0 z"
       style="fill:#7c0606;fill-opacity:1;fill-rule:nonzero;stroke:#000000;stroke-width:0;stroke-linecap:butt;stroke-linejoin:round;stroke-miterlimit:4;stroke-opacity:1;stroke-dasharray:none;stroke-dashoffset:0" />
    <path
       inkscape:transform-center-y="-5.6031801"
       inkscape:transform-center-x="0.77992311"
       transform="matrix(0.43842818,0.0740019,-0.01224413,0.49245302,84.566504,107.46405)"
       d="m 168.5,455.23718 a 1.75,11.375 0 1 1 -3.5,0 1.75,11.375 0 1 1 3.5,0 z"
       sodipodi:ry="11.375"
       sodipodi:rx="1.75"
       sodipodi:cy="455.23718"
       sodipodi:cx="166.75"
       id="path3960"
       style="fill:#ffffff;fill-opacity:1;fill-rule:nonzero;stroke:#000000;stroke-width:0;stroke-linecap:butt;stroke-linejoin:round;stroke-miterlimit:4;stroke-opacity:1;stroke-dasharray:none;stroke-dashoffset:0"
       sodipodi:type="arc" />
    <path
       inkscape:transform-center-y="-8.9141992"
       inkscape:transform-center-x="3.1454541"
       transform="matrix(0.31322542,0.07768326,0.22518034,0.79101007,23.48567,-15.089733)"
       d="m 168.5,455.23718 a 1.75,11.375 0 1 1 -3.5,0 1.75,11.375 0 1 1 3.5,0 z"
       sodipodi:ry="11.375"
       sodipodi:rx="1.75"
       sodipodi:cy="455.23718"
       sodipodi:cx="166.75"
       id="path3960-2"
       style="fill:#ffffff;fill-opacity:1;fill-rule:nonzero;stroke:#000000;stroke-width:0;stroke-linecap:butt;stroke-linejoin:round;stroke-miterlimit:4;stroke-opacity:1;stroke-dasharray:none;stroke-dashoffset:0"
       sodipodi:type="arc" />
    <path
       transform="matrix(2,0,0,1,-151.0625,0)"
       d="m 151.4375,351.86218 a 0.1875,0.625 0 1 1 -0.375,0 0.1875,0.625 0 1 1 0.375,0 z"
       sodipodi:ry="0.625"
       sodipodi:rx="0.1875"
       sodipodi:cy="351.86218"
       sodipodi:cx="151.25"
       id="path3998"
       style="fill:#ffffff;fill-opacity:1;fill-rule:nonzero;stroke:#000000;stroke-width:0;stroke-linecap:butt;stroke-linejoin:round;stroke-miterlimit:4;stroke-opacity:1;stroke-dasharray:none;stroke-dashoffset:0"
       sodipodi:type="arc" />
    <path
       inkscape:transform-center-y="-6.2873246"
       inkscape:transform-center-x="2.2965211"
       transform="matrix(0.2286884,0.05479119,0.16440598,0.55791152,85.012393,102.99639)"
       d="m 168.5,455.23718 a 1.75,11.375 0 1 1 -3.5,0 1.75,11.375 0 1 1 3.5,0 z"
       sodipodi:ry="11.375"
       sodipodi:rx="1.75"
       sodipodi:cy="455.23718"
       sodipodi:cx="166.75"
       id="path3960-2-7"
       style="fill:#ffffff;fill-opacity:1;fill-rule:nonzero;stroke:#000000;stroke-width:0;stroke-linecap:butt;stroke-linejoin:round;stroke-miterlimit:4;stroke-opacity:1;stroke-dasharray:none;stroke-dashoffset:0"
       sodipodi:type="arc" />
    <path
       inkscape:transform-center-y="-5.7181802"
       inkscape:transform-center-x="-1.3785664"
       transform="matrix(0.15552329,0.1480755,-0.15394307,0.48886846,233.41808,102.8029)"
       d="m 168.5,455.23718 a 1.75,11.375 0 1 1 -3.5,0 1.75,11.375 0 1 1 3.5,0 z"
       sodipodi:ry="11.375"
       sodipodi:rx="1.75"
       sodipodi:cy="455.23718"
       sodipodi:cx="166.75"
       id="path3960-2-7-6"
       style="fill:#ffffff;fill-opacity:1;fill-rule:nonzero;stroke:#000000;stroke-width:0;stroke-linecap:butt;stroke-linejoin:round;stroke-miterlimit:4;stroke-opacity:1;stroke-dasharray:none;stroke-dashoffset:0"
       sodipodi:type="arc" />
    <path
       inkscape:transform-center-y="-5.7181802"
       inkscape:transform-center-x="-1.3785664"
       transform="matrix(0.15552329,0.1480755,-0.15394307,0.48886846,250.4455,102.07857)"
       d="m 168.5,455.23718 a 1.75,11.375 0 1 1 -3.5,0 1.75,11.375 0 1 1 3.5,0 z"
       sodipodi:ry="11.375"
       sodipodi:rx="1.75"
       sodipodi:cy="455.23718"
       sodipodi:cx="166.75"
       id="path3960-2-7-6-1"
       style="fill:#ffffff;fill-opacity:1;fill-rule:nonzero;stroke:#000000;stroke-width:0;stroke-linecap:butt;stroke-linejoin:round;stroke-miterlimit:4;stroke-opacity:1;stroke-dasharray:none;stroke-dashoffset:0"
       sodipodi:type="arc" />
    <rect
       style="fill:#ffffff;fill-opacity:0;fill-rule:nonzero;stroke:#000000;stroke-width:2.63652134;stroke-linecap:butt;stroke-linejoin:round;stroke-miterlimit:4;stroke-opacity:1;stroke-dasharray:none;stroke-dashoffset:0"
       id="rect6933"
       width="212.36348"
       height="107.36348"
       x="130.81827"
       y="322.18045"
       rx="6.7801399"
       inkscape:export-filename="C:\Documents and Settings\Justin\Desktop\WyoLum_v1.png"
       inkscape:export-xdpi="50.025002"
       inkscape:export-ydpi="50.025002" />
    <path
       style="fill:#ffffff;fill-opacity:1;fill-rule:nonzero;stroke:#000000;stroke-width:0;stroke-linecap:butt;stroke-linejoin:round;stroke-miterlimit:4;stroke-opacity:1;stroke-dasharray:none;stroke-dashoffset:0"
       d="m 134.78865,427.0895 c -0.66073,-0.4414 -1.48043,-1.35622 -1.82155,-2.03293 -0.58357,-1.15768 -0.61491,-4.08608 -0.53033,-49.55294 0.0896,-48.18435 0.092,-48.32535 0.81884,-49.29885 0.40093,-0.53697 1.16831,-1.30433 1.70531,-1.70526 l 0.97635,-0.72895 101.06442,0 101.06441,0 0.97636,0.72895 c 0.53699,0.40093 1.30438,1.16829 1.7053,1.70526 0.72687,0.9735 0.72921,1.1145 0.81884,49.29885 0.0846,45.46686 0.0532,48.39526 -0.53033,49.55294 -0.34112,0.67671 -1.16082,1.59153 -1.82155,2.03293 l -1.20133,0.80254 -101.0117,0 -101.0117,0 -1.20134,-0.80254 z m 25.53373,-15.46091 c 1.80209,-2.46641 2.86493,-11.20178 2.86065,-23.5113 -0.004,-12.36615 -0.94444,-20.09537 -2.83379,-23.29759 -0.59944,-1.01597 -0.66588,-1.57196 -0.47158,-3.94644 l 0.22616,-2.76385 1.59099,-0.40527 c 0.87505,-0.2229 1.95074,-0.63019 2.39044,-0.90509 1.62596,-1.01656 1.65929,-3.52669 0.0664,-5.00439 l -1.04266,-0.96729 -0.001,-6.98766 c -0.001,-6.49881 -0.0538,-7.0738 -0.75186,-8.21885 -1.30772,-2.14517 -2.68442,-2.87959 -5.45126,-2.90805 -2.75603,-0.0283 -4.98966,1.29697 -6.20755,3.68321 -0.58796,1.152 -0.66949,2.13606 -0.66949,8.08084 l 0,6.76911 -0.88388,0.69526 c -0.70106,0.55146 -0.88388,1.01373 -0.88388,2.23493 0,1.80434 0.97299,2.79535 3.3754,3.4379 l 1.45791,0.38993 -0.47991,3.03584 c -0.26396,1.6697 -0.86022,4.94502 -1.32503,7.27847 -1.34101,6.73215 -1.72437,12.39795 -1.51908,22.45064 0.24576,12.03421 1.30524,19.21937 3.12143,21.16882 0.65534,0.70342 1.01646,0.76847 3.75556,0.67648 2.76621,-0.0929 3.08683,-0.17885 3.67631,-0.98565 z m 98.47337,-0.22445 c 2.17746,-1.03328 2.40082,-1.9074 2.53996,-9.94021 l 0.12401,-7.15946 -1.2394,0 c -0.68167,0 -1.30633,0.19888 -1.38814,0.44194 -0.11402,0.33877 -0.29511,0.32108 -0.7757,-0.0758 -0.96388,-0.79592 -4.20038,-0.67759 -5.40104,0.19748 -3.38851,2.4696 -3.36478,9.41467 0.0393,11.49038 1.33486,0.81398 3.7491,0.8766 5.1842,0.13448 0.93955,-0.48586 1.04311,-0.48473 1.04311,0.0113 0,0.30293 -0.22742,1.09504 -0.50537,1.76027 -0.37174,0.88972 -0.81576,1.29202 -1.67937,1.52161 -1.15283,0.30647 -3.20389,-0.0232 -3.38948,-0.54472 -0.2654,-0.7459 -0.71854,-1.08251 -1.76202,-1.30889 -1.05098,-0.22802 -1.14905,-0.17553 -1.14905,0.61501 0,1.0192 1.20042,2.66049 2.25855,3.08802 1.28413,0.51885 4.80045,0.38541 6.10049,-0.2315 l 0,1e-5 z m -20.46349,-4.96194 c 0.53214,-0.39663 1.26975,-1.23727 1.63913,-1.86808 0.56238,-0.96039 0.59113,-1.19788 0.17678,-1.46024 -0.92902,-0.58821 -1.77921,-0.32471 -2.94681,0.91331 -0.84862,0.8998 -1.46766,1.23744 -2.26877,1.23744 -1.33184,0 -3.10625,-1.506 -3.43669,-2.91682 l -0.22773,-0.97227 4.63453,0 4.63452,0 0,-1.3393 c 0,-1.87215 -1.33593,-4.33164 -2.81403,-5.18072 -1.62933,-0.93595 -4.40987,-0.93595 -6.0392,0 -1.70345,0.97853 -2.81403,3.29313 -2.81403,5.86481 0,3.1826 1.0508,5.1179 3.35876,6.18596 1.51737,0.70219 4.88207,0.44636 6.10354,-0.46409 l 0,0 z m 33.55981,0.56664 c 2.02449,-0.76705 3.86507,-3.28476 2.86514,-3.91917 -0.88864,-0.56381 -1.7552,-0.2844 -2.90762,0.93752 -1.31298,1.39217 -2.68383,1.61601 -4.04744,0.6609 -0.68292,-0.47834 -1.80909,-2.42331 -1.80909,-3.12442 0,-0.10347 2.08799,-0.18813 4.63998,-0.18813 l 4.63997,0 -0.16247,-1.95921 c -0.17202,-2.07439 -0.85499,-3.30454 -2.52823,-4.55379 -1.22789,-0.91675 -4.48066,-0.97346 -6.11317,-0.10658 -3.1501,1.67273 -3.96594,7.95591 -1.4048,10.81891 1.48185,1.6565 4.54338,2.29949 6.82773,1.43397 l 0,0 z m 23.59379,0.1625 c 0.33163,-0.12725 0.55924,-0.63089 0.55924,-1.23743 0,-0.858 -0.14385,-1.02284 -0.89263,-1.02284 -1.23933,0 -1.58224,-1.11605 -1.58224,-5.14954 l 0,-3.33574 1.06066,0 c 0.94281,0 1.06066,-0.11785 1.06066,-1.06066 0,-0.94281 -0.11785,-1.06066 -1.06066,-1.06066 -1.06066,0 -1.06066,0 -1.06066,-2.12132 0,-1.16672 -0.0851,-2.12132 -0.18922,-2.12132 -0.10406,0 -0.58136,0.25695 -1.06066,0.57099 -0.70692,0.4632 -0.87144,0.86368 -0.87144,2.12132 0,1.41799 -0.0755,1.55033 -0.88389,1.55033 -0.74639,0 -0.88388,0.165 -0.88388,1.06066 0,0.89567 0.13749,1.06066 0.88388,1.06066 l 0.88389,0 0.005,4.68459 c 0.003,2.57652 0.12679,4.87552 0.27514,5.10891 0.54171,0.85218 2.63445,1.38258 3.75639,0.95205 l 1e-5,0 z m 9.32079,-0.32605 c 2.42246,-0.96928 3.31891,-3.84471 1.75667,-5.63466 -0.5209,-0.59681 -1.83289,-1.24436 -3.8007,-1.87587 -2.49167,-0.79962 -3.0245,-1.10026 -3.11811,-1.75935 -0.0834,-0.5875 0.13013,-0.88733 0.81851,-1.14905 1.5206,-0.57813 2.29305,-0.41506 3.43278,0.72467 0.88248,0.88248 1.26611,1.03766 2.10807,0.85274 0.85526,-0.18785 0.99015,-0.35529 0.79791,-0.99041 -0.63221,-2.08873 -3.23029,-3.31705 -6.10443,-2.88604 -2.86994,0.43037 -4.39426,2.93638 -3.18642,5.23853 0.53604,1.02169 1.05444,1.31598 4.16293,2.36324 3.09579,1.04299 3.79848,1.82783 2.55219,2.85058 -1.18678,0.97392 -3.05717,0.89113 -4.13115,-0.18286 -0.4773,-0.47729 -0.86782,-1.03414 -0.86782,-1.23743 0,-0.46168 -1.41026,-0.4745 -2.12132,-0.0193 -0.46301,0.29642 -0.44057,0.5089 0.17678,1.67396 1.25194,2.36266 4.50257,3.24021 7.52411,2.03122 l 0,0 z m -97.857,-0.87356 0,-1.06066 -5.3033,0 -5.3033,0 0,-2.82842 0,-2.82843 4.77297,0 4.77297,0 0,-1.23744 0,-1.23743 -4.77297,0 -4.77297,0 0,-2.47488 0,-2.47487 5.12652,0 5.12652,0 0,-1.06066 0,-1.06066 -6.36396,0 -6.36396,0 0,8.66206 0,8.66205 6.54074,0 6.54074,0 0,-1.06066 z m 4.95107,-3.09359 c 0.001,-3.51759 0.10869,-4.33035 0.70191,-5.3033 0.56185,-0.92151 0.92915,-1.14798 1.85483,-1.14363 2.13066,0.01 2.20359,0.18645 2.33002,5.63785 l 0.11511,4.96333 1.21071,0 1.21072,0 0,-4.37173 c 0,-3.88742 0.0812,-4.47494 0.73276,-5.3033 0.5327,-0.67721 1.05816,-0.93157 1.9245,-0.93157 1.97519,0 2.29248,0.84277 2.29248,6.08908 l 0,4.51752 1.23744,0 1.23744,0 0,-4.78432 c 0,-5.72946 -0.37729,-6.98704 -2.34253,-7.80817 -1.62643,-0.67957 -3.28866,-0.40887 -4.68042,0.76222 -0.86666,0.72924 -1.06716,0.78143 -1.24288,0.32352 -0.32042,-0.83502 -2.63443,-1.66465 -3.95305,-1.41728 -0.62943,0.11808 -1.55831,0.54026 -2.06417,0.93817 l -0.91975,0.72348 0,-0.73277 c 0,-0.57848 -0.22332,-0.73277 -1.06066,-0.73277 l -1.06066,0 0,6.36396 0,6.36396 1.23744,0 1.23744,0 10e-4,-4.15425 -9e-5,0 z m 33.29598,-0.3109 c 0.14441,-4.33756 0.17613,-4.48878 1.10996,-5.29203 0.78093,-0.67172 1.12777,-0.7636 1.84843,-0.4896 0.76141,0.28948 0.94242,0.21593 1.2773,-0.51905 0.54042,-1.18609 0.18809,-1.85222 -1.13315,-2.14241 -0.8606,-0.18902 -1.36416,-0.0699 -2.14521,0.50757 -0.82299,0.60847 -1.02062,0.64984 -1.02062,0.21367 0,-0.38249 -0.36243,-0.54092 -1.23743,-0.54092 l -1.23744,0 0,6.36396 0,6.36396 1.19476,0 1.19475,0 0.14865,-4.46515 z m 34.9385,0.0654 c 0,-4.05295 0.0627,-4.47258 0.79549,-5.32446 0.96666,-1.12373 2.76458,-1.28979 3.80177,-0.35115 0.63849,0.57784 0.70604,1.09035 0.70604,5.35714 l 0,4.71817 1.23744,0 1.23743,0 0,-5.33049 0,-5.3305 -1.00746,-1.00746 c -1.42931,-1.42932 -3.25488,-1.69441 -5.40702,-0.78516 -1.37364,0.58035 -1.71724,0.62549 -1.71724,0.22561 0,-0.31976 -0.38224,-0.49992 -1.06066,-0.49992 l -1.06066,0 0,6.36396 0,6.36396 1.23743,0 1.23744,0 0,-4.3997 z m -58.13476,-18.07868 c 2.65947,-1.255 4.488,-4.10712 7.40557,-11.55113 0.74309,-1.89593 1.44713,-3.44715 1.56454,-3.44715 0.11742,0 0.51987,0.56893 0.89434,1.26429 1.06678,1.98088 4.49968,4.93614 6.80395,5.85727 1.67068,0.66786 2.69253,0.81538 5.58069,0.80569 3.82282,-0.0128 5.73302,-0.59361 8.23899,-2.50501 1.26254,-0.96299 1.27578,-0.95918 2.19045,0.63048 0.18122,0.31494 0.87611,0.83202 1.54419,1.14904 1.03657,0.49189 2.72593,0.57642 11.5196,0.57642 l 10.30488,0 0.80448,-0.86804 0.80447,-0.86805 2.18928,0.88429 c 1.62465,0.65623 2.84894,0.88597 4.74711,0.8908 8.68651,0.0221 11.10179,-0.081 11.927,-0.50899 0.72931,-0.37828 1.09143,-0.37368 2.07068,0.0263 1.50229,0.6136 4.82952,0.67162 6.52007,0.11369 1.85542,-0.61235 2.7126,-1.86398 2.77273,-4.04869 l 0.0498,-1.80848 0.22646,1.86963 c 0.18,1.48601 0.44183,2.05049 1.27605,2.75116 1.56115,1.31121 2.56312,1.62256 5.23207,1.62583 3.98377,0.005 5.07354,-0.80528 5.52548,-4.10777 l 0.24431,-1.78529 0.28091,1.76776 c 0.48588,3.05768 2.30503,4.15501 6.84763,4.13054 2.2533,-0.0121 3.22874,-0.39847 4.68635,-1.85608 0.62223,-0.62223 0.6824,-1.21401 0.67156,-6.60549 -0.0134,-6.68686 -0.44952,-12.43841 -1.11221,-14.66926 -0.62879,-2.11674 -3.16521,-4.56666 -5.71595,-5.52101 -2.69962,-1.01006 -6.84011,-1.0321 -9.00878,-0.0479 -1.46628,0.66541 -1.57658,0.66876 -2.65165,0.0806 -1.631,-0.89228 -14.71753,-0.91584 -16.32026,-0.0294 -0.89151,0.49309 -1.19503,0.51336 -1.94454,0.12984 -2.48186,-1.26993 -7.00881,-0.91338 -8.36489,0.65884 -0.81656,0.94671 -0.99506,1.96665 -1.43035,8.17297 l -0.27277,3.88909 -0.18303,-5.01249 c -0.2028,-5.55351 -0.48259,-6.31235 -2.83536,-7.69002 -1.62416,-0.95102 -6.16122,-1.00113 -7.56168,-0.0835 -1.6193,1.061 -1.90872,2.34653 -2.18505,9.70528 l -0.25508,6.79303 -4.36793,0 -4.36792,0 0,-10.93302 0,-10.93303 -0.926,-1.10049 c -1.49763,-1.77982 -2.78428,-2.26227 -6.05443,-2.27014 -4.67623,-0.0113 -5.54995,1.10395 -5.94994,7.59458 l -0.20918,3.39433 -2.711,-1.37119 c -4.42646,-2.23884 -9.11321,-2.43354 -13.24461,-0.55022 l -1.84076,0.83912 -1.68761,-0.87224 c -1.3344,-0.68969 -2.21909,-0.87224 -4.22697,-0.87224 -2.51737,0 -2.55022,0.0122 -3.79333,1.41304 -0.68968,0.77717 -1.59757,2.35178 -2.01753,3.49914 l -0.76356,2.08609 -0.42924,-1.17779 c -1.3208,-3.62421 -3.27694,-5.7165 -5.34452,-5.7165 l -1.01084,0 0.23099,-2.48539 c 0.21352,-2.29739 0.16691,-2.55509 -0.61625,-3.40678 -1.32228,-1.438 -3.6731,-2.32653 -6.2188,-2.35048 -3.59303,-0.0338 -4.57564,1.03896 -6.23061,6.80223 l -0.85543,2.97899 -1.09996,-3.54053 c -0.60498,-1.94729 -1.42401,-3.95249 -1.82007,-4.456 -0.96324,-1.22456 -2.84126,-1.79229 -5.83557,-1.76409 -4.54463,0.0428 -5.61063,0.96513 -7.29065,6.30807 l -1.16548,3.70653 -0.81067,-3.0538 c -1.09327,-4.11837 -1.70354,-5.28804 -3.22889,-6.18859 -1.77099,-1.04557 -5.80273,-1.10367 -7.52606,-0.10845 -1.68283,0.97182 -2.51392,2.72858 -2.23763,4.72986 0.22074,1.59894 4.63784,18.68637 6.33562,24.50916 1.03641,3.55454 1.90757,5.422 2.9831,6.39468 1.61139,1.45731 7.42311,1.38517 9.01668,-0.11191 0.90613,-0.85127 1.69313,-2.79065 3.24142,-7.98773 l 0.94796,-3.18198 1.13636,3.88908 c 1.92182,6.5772 2.68955,7.71687 5.55965,8.25306 1.96478,0.36706 5.32495,-0.0433 6.46357,-0.78934 0.97272,-0.63735 1.8065,-2.72583 3.58116,-8.97025 0.704,-2.47713 1.42151,-4.65502 1.59448,-4.83975 0.17297,-0.18473 0.31448,-0.25213 0.31448,-0.14977 0,0.10235 0.7955,2.29393 1.76777,4.87019 0.97227,2.57625 1.76777,4.97964 1.76777,5.34087 0,0.64914 -0.22366,0.7685 -2.2981,1.22634 -0.58336,0.12875 -1.57773,0.7316 -2.20971,1.33965 -1.02857,0.98965 -1.14823,1.31144 -1.14128,3.06914 0.004,1.13467 0.28174,2.56674 0.65679,3.39241 0.70973,1.56245 2.4843,3.24896 3.69372,3.51042 2.74,0.59235 4.81094,0.38275 7.15698,-0.72436 l 0,0 z"
       id="path4054"
       inkscape:connector-curvature="0" />
    <path
       style="fill:#ffffff;fill-opacity:1;fill-rule:nonzero;stroke:#000000;stroke-width:0;stroke-linecap:butt;stroke-linejoin:round;stroke-miterlimit:4;stroke-opacity:1;stroke-dasharray:none;stroke-dashoffset:0"
       d="m 136.08363,596.59393 c -0.66073,-0.4414 -1.48043,-1.35622 -1.82155,-2.03293 -0.58357,-1.15768 -0.61491,-4.08608 -0.53033,-49.55294 0.0896,-48.18435 0.092,-48.32535 0.81884,-49.29885 0.40093,-0.53697 1.16831,-1.30433 1.70531,-1.70526 l 0.97635,-0.72895 101.06441,0 101.06441,0 0.97636,0.72895 c 0.53699,0.40093 1.30438,1.16829 1.7053,1.70526 0.72687,0.9735 0.72921,1.1145 0.81884,49.29885 0.0846,45.46686 0.0532,48.39526 -0.53033,49.55294 -0.34112,0.67671 -1.16082,1.59153 -1.82155,2.03293 l -1.20133,0.80254 -101.0117,0 -101.01169,0 -1.20134,-0.80254 z m 25.53373,-15.46091 c 1.80209,-2.46641 2.86493,-11.20178 2.86065,-23.5113 -0.004,-12.36615 -0.94444,-20.09537 -2.83379,-23.29759 -0.59944,-1.01597 -0.66588,-1.57196 -0.47158,-3.94644 l 0.22616,-2.76385 1.59099,-0.40527 c 0.87505,-0.2229 1.95074,-0.63019 2.39044,-0.90509 1.62596,-1.01656 1.65929,-3.52669 0.0664,-5.00439 l -1.04266,-0.96729 -10e-4,-6.98766 c -0.001,-6.49881 -0.0538,-7.0738 -0.75186,-8.21885 -1.30772,-2.14517 -2.68442,-2.87959 -5.45126,-2.90805 -2.75603,-0.0283 -4.98966,1.29697 -6.20755,3.68321 -0.58796,1.152 -0.66949,2.13606 -0.66949,8.08084 l 0,6.76911 -0.88388,0.69526 c -0.70106,0.55146 -0.88388,1.01373 -0.88388,2.23493 0,1.80434 0.97299,2.79535 3.3754,3.4379 l 1.45791,0.38993 -0.47991,3.03584 c -0.26396,1.6697 -0.86022,4.94502 -1.32503,7.27847 -1.34101,6.73215 -1.72437,12.39795 -1.51908,22.45064 0.24576,12.03421 1.30524,19.21937 3.12143,21.16882 0.65534,0.70342 1.01646,0.76847 3.75556,0.67648 2.76621,-0.0929 3.08683,-0.17885 3.67631,-0.98565 z m 98.47336,-0.22445 c 2.17746,-1.03328 2.40082,-1.9074 2.53996,-9.94021 l 0.12401,-7.15946 -1.2394,0 c -0.68167,0 -1.30633,0.19888 -1.38814,0.44194 -0.11402,0.33877 -0.29511,0.32108 -0.7757,-0.0758 -0.96388,-0.79592 -4.20038,-0.67759 -5.40104,0.19748 -3.38851,2.4696 -3.36478,9.41467 0.0393,11.49038 1.33486,0.81398 3.7491,0.8766 5.1842,0.13448 0.93955,-0.48586 1.04311,-0.48473 1.04311,0.0113 0,0.30293 -0.22742,1.09504 -0.50537,1.76027 -0.37174,0.88972 -0.81576,1.29202 -1.67937,1.52161 -1.15283,0.30647 -3.20389,-0.0232 -3.38948,-0.54472 -0.2654,-0.7459 -0.71854,-1.08251 -1.76202,-1.30889 -1.05098,-0.22802 -1.14905,-0.17553 -1.14905,0.61501 0,1.0192 1.20042,2.66049 2.25855,3.08802 1.28413,0.51885 4.80045,0.38541 6.10049,-0.2315 l 0,10e-6 z m -20.46349,-4.96194 c 0.53214,-0.39663 1.26975,-1.23727 1.63913,-1.86808 0.56238,-0.96039 0.59113,-1.19788 0.17678,-1.46024 -0.92902,-0.58821 -1.77921,-0.32471 -2.94681,0.91331 -0.84862,0.8998 -1.46766,1.23744 -2.26877,1.23744 -1.33184,0 -3.10625,-1.506 -3.43669,-2.91682 l -0.22773,-0.97227 4.63453,0 4.63452,0 0,-1.3393 c 0,-1.87215 -1.33593,-4.33164 -2.81403,-5.18072 -1.62933,-0.93595 -4.40987,-0.93595 -6.0392,0 -1.70345,0.97853 -2.81402,3.29313 -2.81402,5.86481 0,3.1826 1.05079,5.1179 3.35875,6.18596 1.51737,0.70219 4.88207,0.44636 6.10354,-0.46409 l 0,0 z m 33.55981,0.56664 c 2.02449,-0.76705 3.86507,-3.28476 2.86514,-3.91917 -0.88864,-0.56381 -1.7552,-0.2844 -2.90762,0.93752 -1.31298,1.39217 -2.68383,1.61601 -4.04744,0.6609 -0.68292,-0.47834 -1.80909,-2.42331 -1.80909,-3.12442 0,-0.10347 2.08799,-0.18813 4.63998,-0.18813 l 4.63997,0 -0.16247,-1.95921 c -0.17202,-2.07439 -0.85499,-3.30454 -2.52823,-4.55379 -1.22789,-0.91675 -4.48066,-0.97346 -6.11317,-0.10658 -3.1501,1.67273 -3.96594,7.95591 -1.4048,10.81891 1.48185,1.6565 4.54338,2.29949 6.82773,1.43397 l 0,0 z m 23.59379,0.1625 c 0.33163,-0.12725 0.55924,-0.63089 0.55924,-1.23743 0,-0.858 -0.14385,-1.02284 -0.89263,-1.02284 -1.23933,0 -1.58224,-1.11605 -1.58224,-5.14954 l 0,-3.33574 1.06066,0 c 0.94281,0 1.06066,-0.11785 1.06066,-1.06066 0,-0.94281 -0.11785,-1.06066 -1.06066,-1.06066 -1.06066,0 -1.06066,0 -1.06066,-2.12132 0,-1.16672 -0.0851,-2.12132 -0.18922,-2.12132 -0.10406,0 -0.58136,0.25695 -1.06066,0.57099 -0.70692,0.4632 -0.87144,0.86368 -0.87144,2.12132 0,1.41799 -0.0755,1.55033 -0.88389,1.55033 -0.74639,0 -0.88388,0.165 -0.88388,1.06066 0,0.89567 0.13749,1.06066 0.88388,1.06066 l 0.88389,0 0.005,4.68459 c 0.003,2.57652 0.12679,4.87552 0.27514,5.10891 0.54171,0.85218 2.63445,1.38258 3.75639,0.95205 l 10e-6,0 z m 9.32079,-0.32605 c 2.42246,-0.96928 3.31891,-3.84471 1.75667,-5.63466 -0.5209,-0.59681 -1.83289,-1.24436 -3.8007,-1.87587 -2.49167,-0.79962 -3.0245,-1.10026 -3.11811,-1.75935 -0.0834,-0.5875 0.13013,-0.88733 0.81851,-1.14905 1.5206,-0.57813 2.29305,-0.41506 3.43278,0.72467 0.88248,0.88248 1.26611,1.03766 2.10807,0.85274 0.85526,-0.18785 0.99015,-0.35529 0.79791,-0.99041 -0.63221,-2.08873 -3.23029,-3.31705 -6.10443,-2.88604 -2.86994,0.43037 -4.39426,2.93638 -3.18642,5.23853 0.53604,1.02169 1.05444,1.31598 4.16293,2.36324 3.09579,1.04299 3.79848,1.82783 2.55219,2.85058 -1.18678,0.97392 -3.05717,0.89113 -4.13115,-0.18286 -0.4773,-0.47729 -0.86782,-1.03414 -0.86782,-1.23743 0,-0.46168 -1.41026,-0.4745 -2.12132,-0.0193 -0.46301,0.29642 -0.44057,0.5089 0.17678,1.67396 1.25194,2.36266 4.50257,3.24021 7.52411,2.03122 l 0,0 z m -97.85699,-0.87356 0,-1.06066 -5.3033,0 -5.3033,0 0,-2.82842 0,-2.82843 4.77297,0 4.77297,0 0,-1.23744 0,-1.23743 -4.77297,0 -4.77297,0 0,-2.47488 0,-2.47487 5.12652,0 5.12652,0 0,-1.06066 0,-1.06066 -6.36396,0 -6.36396,0 0,8.66206 0,8.66205 6.54074,0 6.54074,0 0,-1.06066 z m 4.95107,-3.09359 c 0.001,-3.51759 0.10869,-4.33035 0.70191,-5.3033 0.56185,-0.92151 0.92915,-1.14798 1.85483,-1.14363 2.13066,0.01 2.20359,0.18645 2.33002,5.63785 l 0.11511,4.96333 1.21071,0 1.21072,0 0,-4.37173 c 0,-3.88742 0.0812,-4.47494 0.73276,-5.3033 0.5327,-0.67721 1.05816,-0.93157 1.9245,-0.93157 1.97519,0 2.29248,0.84277 2.29248,6.08908 l 0,4.51752 1.23744,0 1.23744,0 0,-4.78432 c 0,-5.72946 -0.37729,-6.98704 -2.34253,-7.80817 -1.62643,-0.67957 -3.28866,-0.40887 -4.68042,0.76222 -0.86666,0.72924 -1.06716,0.78143 -1.24288,0.32352 -0.32042,-0.83502 -2.63443,-1.66465 -3.95305,-1.41728 -0.62943,0.11808 -1.55831,0.54026 -2.06417,0.93817 l -0.91975,0.72348 0,-0.73277 c 0,-0.57848 -0.22332,-0.73277 -1.06066,-0.73277 l -1.06066,0 0,6.36396 0,6.36396 1.23744,0 1.23744,0 0.001,-4.15425 -9e-5,0 z m 33.29597,-0.3109 c 0.14441,-4.33756 0.17613,-4.48878 1.10996,-5.29203 0.78093,-0.67172 1.12777,-0.7636 1.84843,-0.4896 0.76141,0.28948 0.94242,0.21593 1.2773,-0.51905 0.54042,-1.18609 0.18809,-1.85222 -1.13315,-2.14241 -0.8606,-0.18902 -1.36416,-0.0699 -2.14521,0.50757 -0.82299,0.60847 -1.02062,0.64984 -1.02062,0.21367 0,-0.38249 -0.36243,-0.54092 -1.23743,-0.54092 l -1.23744,0 0,6.36396 0,6.36396 1.19476,0 1.19475,0 0.14865,-4.46515 z m 34.9385,0.0654 c 0,-4.05295 0.0627,-4.47258 0.79549,-5.32446 0.96666,-1.12373 2.76458,-1.28979 3.80177,-0.35115 0.63849,0.57784 0.70604,1.09035 0.70604,5.35714 l 0,4.71817 1.23744,0 1.23743,0 0,-5.33049 0,-5.3305 -1.00746,-1.00746 c -1.42931,-1.42932 -3.25488,-1.69441 -5.40702,-0.78516 -1.37364,0.58035 -1.71724,0.62549 -1.71724,0.22561 0,-0.31976 -0.38224,-0.49992 -1.06066,-0.49992 l -1.06066,0 0,6.36396 0,6.36396 1.23743,0 1.23744,0 0,-4.3997 z m -58.13475,-18.07868 c 2.65947,-1.255 4.488,-4.10712 7.40557,-11.55113 0.74308,-1.89593 1.44712,-3.44715 1.56453,-3.44715 0.11742,0 0.51987,0.56893 0.89434,1.26429 1.06678,1.98088 4.49968,4.93614 6.80395,5.85727 1.67068,0.66786 2.69253,0.81538 5.58069,0.80569 3.82282,-0.0128 5.73302,-0.59361 8.23899,-2.50501 1.26254,-0.96299 1.27578,-0.95918 2.19045,0.63048 0.18122,0.31494 0.87611,0.83202 1.54419,1.14904 1.03657,0.49189 2.72593,0.57642 11.5196,0.57642 l 10.30488,0 0.80448,-0.86804 0.80447,-0.86805 2.18928,0.88429 c 1.62465,0.65623 2.84894,0.88597 4.74711,0.8908 8.68651,0.0221 11.10179,-0.081 11.927,-0.50899 0.72931,-0.37828 1.09143,-0.37368 2.07068,0.0263 1.50229,0.6136 4.82952,0.67162 6.52007,0.11369 1.85542,-0.61235 2.7126,-1.86398 2.77273,-4.04869 l 0.0498,-1.80848 0.22646,1.86963 c 0.18,1.48601 0.44183,2.05049 1.27605,2.75116 1.56115,1.31121 2.56312,1.62256 5.23207,1.62583 3.98377,0.005 5.07354,-0.80528 5.52548,-4.10777 l 0.24431,-1.78529 0.28091,1.76776 c 0.48588,3.05768 2.30503,4.15501 6.84763,4.13054 2.2533,-0.0121 3.22874,-0.39847 4.68635,-1.85608 0.62223,-0.62223 0.6824,-1.21401 0.67156,-6.60549 -0.0134,-6.68686 -0.44952,-12.43841 -1.11221,-14.66926 -0.62879,-2.11674 -3.16521,-4.56666 -5.71595,-5.52101 -2.69962,-1.01006 -6.84011,-1.0321 -9.00878,-0.0479 -1.46628,0.66541 -1.57658,0.66876 -2.65165,0.0806 -1.631,-0.89228 -14.71753,-0.91584 -16.32026,-0.0294 -0.89151,0.49309 -1.19503,0.51336 -1.94454,0.12984 -2.48186,-1.26993 -7.00881,-0.91338 -8.36489,0.65884 -0.81656,0.94671 -0.99506,1.96665 -1.43035,8.17297 l -0.27277,3.88909 -0.18303,-5.01249 c -0.2028,-5.55351 -0.48259,-6.31235 -2.83536,-7.69002 -1.62416,-0.95102 -6.16122,-1.00113 -7.56168,-0.0835 -1.6193,1.061 -1.90872,2.34653 -2.18505,9.70528 l -0.25508,6.79303 -4.36793,0 -4.36792,0 0,-10.93302 0,-10.93303 -0.926,-1.10049 c -1.49763,-1.77982 -2.78428,-2.26227 -6.05443,-2.27014 -4.67623,-0.0113 -5.54995,1.10395 -5.94994,7.59458 l -0.20918,3.39433 -2.711,-1.37119 c -4.42646,-2.23884 -9.11321,-2.43354 -13.24461,-0.55022 l -1.84076,0.83912 -1.68761,-0.87224 c -1.3344,-0.68969 -2.21909,-0.87224 -4.22696,-0.87224 -2.51737,0 -2.55022,0.0122 -3.79333,1.41304 -0.68968,0.77717 -1.59757,2.35178 -2.01753,3.49914 l -0.76356,2.08609 -0.42924,-1.17779 c -1.3208,-3.62421 -3.27694,-5.7165 -5.34452,-5.7165 l -1.01084,0 0.23099,-2.48539 c 0.21352,-2.29739 0.16691,-2.55509 -0.61625,-3.40678 -1.32228,-1.438 -3.6731,-2.32653 -6.2188,-2.35048 -3.59303,-0.0338 -4.57564,1.03896 -6.23061,6.80223 l -0.85543,2.97899 -1.09996,-3.54053 c -0.60498,-1.94729 -1.42401,-3.95249 -1.82007,-4.456 -0.96324,-1.22456 -2.84126,-1.79229 -5.83557,-1.76409 -4.54463,0.0428 -5.61063,0.96513 -7.29065,6.30807 l -1.16548,3.70653 -0.81067,-3.0538 c -1.09327,-4.11837 -1.70354,-5.28804 -3.22889,-6.18859 -1.77099,-1.04557 -5.80273,-1.10367 -7.52606,-0.10845 -1.68283,0.97182 -2.51392,2.72858 -2.23763,4.72986 0.22074,1.59894 4.63784,18.68637 6.33562,24.50916 1.03641,3.55454 1.90757,5.422 2.9831,6.39468 1.61139,1.45731 7.42311,1.38517 9.01668,-0.11191 0.90613,-0.85127 1.69313,-2.79065 3.24142,-7.98773 l 0.94796,-3.18198 1.13636,3.88908 c 1.92182,6.5772 2.68955,7.71687 5.55965,8.25306 1.96478,0.36706 5.32495,-0.0433 6.46357,-0.78934 0.97272,-0.63735 1.8065,-2.72583 3.58116,-8.97025 0.704,-2.47713 1.42151,-4.65502 1.59448,-4.83975 0.17297,-0.18473 0.31448,-0.25213 0.31448,-0.14977 0,0.10235 0.7955,2.29393 1.76777,4.87019 0.97227,2.57625 1.76777,4.97964 1.76777,5.34087 0,0.64914 -0.22366,0.7685 -2.2981,1.22634 -0.58336,0.12875 -1.57773,0.7316 -2.20971,1.33965 -1.02857,0.98965 -1.14823,1.31144 -1.14128,3.06914 0.004,1.13467 0.28174,2.56674 0.65679,3.39241 0.70973,1.56245 2.4843,3.24896 3.69372,3.51042 2.74,0.59235 4.81094,0.38275 7.15698,-0.72436 l 0,0 z"
       id="path4054-5"
       inkscape:connector-curvature="0" />
    <path
       inkscape:export-ydpi="50.025002"
       inkscape:export-xdpi="50.025002"
       inkscape:export-filename="C:\Documents and Settings\Justin\Desktop\WyoLum_v1.png"
       style="fill:none;stroke:#000000;stroke-width:2.00319409px;stroke-linecap:butt;stroke-linejoin:miter;stroke-opacity:1"
       d="m 299.49186,375.47943 -0.0512,-24.49338"
       id="path5664-5-1"
       inkscape:connector-curvature="0" />
  </g>
</svg>
