G04 (created by PCBNEW (2013-03-15 BZR 4003)-stable) date 14-Jun-13 12:24:49 PM*
%MOIN*%
G04 Gerber Fmt 3.4, Leading zero omitted, Abs format*
%FSLAX34Y34*%
G01*
G70*
G90*
G04 APERTURE LIST*
%ADD10C,0.005*%
%ADD11C,0.00787402*%
%ADD12C,0.011811*%
G04 APERTURE END LIST*
G54D10*
X43500Y-32000D02*
X43500Y-10000D01*
X10000Y-10000D02*
X43500Y-10000D01*
X43500Y-32000D02*
X10000Y-32000D01*
X10000Y-32000D02*
X10000Y-10000D01*
G54D11*
X10225Y-18575D02*
X10475Y-18825D01*
X10475Y-18575D02*
X10225Y-18825D01*
X10250Y-24375D02*
X10500Y-24625D01*
X10500Y-24375D02*
X10250Y-24625D01*
X10700Y-29100D02*
X10950Y-29350D01*
X10950Y-29100D02*
X10700Y-29350D01*
X10900Y-24375D02*
X11150Y-24625D01*
X11150Y-24375D02*
X10900Y-24625D01*
X10925Y-14000D02*
X11175Y-14250D01*
X11175Y-14000D02*
X10925Y-14250D01*
X11550Y-24375D02*
X11800Y-24625D01*
X11800Y-24375D02*
X11550Y-24625D01*
X12175Y-21175D02*
X12425Y-21425D01*
X12425Y-21175D02*
X12175Y-21425D01*
X12225Y-17725D02*
X12475Y-17975D01*
X12475Y-17725D02*
X12225Y-17975D01*
X12500Y-22350D02*
X12750Y-22600D01*
X12750Y-22350D02*
X12500Y-22600D01*
X13100Y-15075D02*
X13350Y-15325D01*
X13350Y-15075D02*
X13100Y-15325D01*
X13225Y-18200D02*
X13475Y-18450D01*
X13475Y-18200D02*
X13225Y-18450D01*
X13675Y-27100D02*
X13925Y-27350D01*
X13925Y-27100D02*
X13675Y-27350D01*
X14100Y-15450D02*
X14350Y-15700D01*
X14350Y-15450D02*
X14100Y-15700D01*
X14374Y-17010D02*
X14624Y-17260D01*
X14624Y-17010D02*
X14374Y-17260D01*
X14575Y-19175D02*
X14825Y-19425D01*
X14825Y-19175D02*
X14575Y-19425D01*
X14900Y-17900D02*
X15150Y-18150D01*
X15150Y-17900D02*
X14900Y-18150D01*
X15075Y-15475D02*
X15325Y-15725D01*
X15325Y-15475D02*
X15075Y-15725D01*
X15150Y-26100D02*
X15400Y-26350D01*
X15400Y-26100D02*
X15150Y-26350D01*
X15375Y-13700D02*
X15625Y-13950D01*
X15625Y-13700D02*
X15375Y-13950D01*
X15500Y-24075D02*
X15750Y-24325D01*
X15750Y-24075D02*
X15500Y-24325D01*
X16475Y-22900D02*
X16725Y-23150D01*
X16725Y-22900D02*
X16475Y-23150D01*
X16525Y-24125D02*
X16775Y-24375D01*
X16775Y-24125D02*
X16525Y-24375D01*
X16850Y-20400D02*
X17100Y-20650D01*
X17100Y-20400D02*
X16850Y-20650D01*
X16900Y-17550D02*
X17150Y-17800D01*
X17150Y-17550D02*
X16900Y-17800D01*
X16950Y-19000D02*
X17200Y-19250D01*
X17200Y-19000D02*
X16950Y-19250D01*
X17400Y-17550D02*
X17650Y-17800D01*
X17650Y-17550D02*
X17400Y-17800D01*
X17650Y-18375D02*
X17900Y-18625D01*
X17900Y-18375D02*
X17650Y-18625D01*
X17875Y-15125D02*
X18125Y-15375D01*
X18125Y-15125D02*
X17875Y-15375D01*
X18025Y-16100D02*
X18275Y-16350D01*
X18275Y-16100D02*
X18025Y-16350D01*
X18625Y-15100D02*
X18875Y-15350D01*
X18875Y-15100D02*
X18625Y-15350D01*
X19375Y-19450D02*
X19625Y-19700D01*
X19625Y-19450D02*
X19375Y-19700D01*
X19375Y-22950D02*
X19625Y-23200D01*
X19625Y-22950D02*
X19375Y-23200D01*
X19425Y-13700D02*
X19675Y-13950D01*
X19675Y-13700D02*
X19425Y-13950D01*
X19650Y-18475D02*
X19900Y-18725D01*
X19900Y-18475D02*
X19650Y-18725D01*
X19875Y-19450D02*
X20125Y-19700D01*
X20125Y-19450D02*
X19875Y-19700D01*
X20275Y-21425D02*
X20525Y-21675D01*
X20525Y-21425D02*
X20275Y-21675D01*
X20425Y-13550D02*
X20675Y-13800D01*
X20675Y-13550D02*
X20425Y-13800D01*
X20675Y-23575D02*
X20925Y-23825D01*
X20925Y-23575D02*
X20675Y-23825D01*
X20825Y-13200D02*
X21075Y-13450D01*
X21075Y-13200D02*
X20825Y-13450D01*
X21150Y-15250D02*
X21400Y-15500D01*
X21400Y-15250D02*
X21150Y-15500D01*
X21175Y-17400D02*
X21425Y-17650D01*
X21425Y-17400D02*
X21175Y-17650D01*
X21175Y-18150D02*
X21425Y-18400D01*
X21425Y-18150D02*
X21175Y-18400D01*
X22075Y-10225D02*
X22325Y-10475D01*
X22325Y-10225D02*
X22075Y-10475D01*
X22075Y-18600D02*
X22325Y-18850D01*
X22325Y-18600D02*
X22075Y-18850D01*
X22475Y-21900D02*
X22725Y-22150D01*
X22725Y-21900D02*
X22475Y-22150D01*
X22900Y-28475D02*
X23150Y-28725D01*
X23150Y-28475D02*
X22900Y-28725D01*
X23025Y-22350D02*
X23275Y-22600D01*
X23275Y-22350D02*
X23025Y-22600D01*
X23225Y-15750D02*
X23475Y-16000D01*
X23475Y-15750D02*
X23225Y-16000D01*
X23250Y-20825D02*
X23500Y-21075D01*
X23500Y-20825D02*
X23250Y-21075D01*
X23600Y-22350D02*
X23850Y-22600D01*
X23850Y-22350D02*
X23600Y-22600D01*
X23675Y-17400D02*
X23925Y-17650D01*
X23925Y-17400D02*
X23675Y-17650D01*
X24000Y-21175D02*
X24250Y-21425D01*
X24250Y-21175D02*
X24000Y-21425D01*
X24325Y-11950D02*
X24575Y-12200D01*
X24575Y-11950D02*
X24325Y-12200D01*
X24325Y-13200D02*
X24575Y-13450D01*
X24575Y-13200D02*
X24325Y-13450D01*
X24500Y-24375D02*
X24750Y-24625D01*
X24750Y-24375D02*
X24500Y-24625D01*
X24525Y-28475D02*
X24775Y-28725D01*
X24775Y-28475D02*
X24525Y-28725D01*
X24975Y-16150D02*
X25225Y-16400D01*
X25225Y-16150D02*
X24975Y-16400D01*
X25150Y-14175D02*
X25400Y-14425D01*
X25400Y-14175D02*
X25150Y-14425D01*
X25150Y-15175D02*
X25400Y-15425D01*
X25400Y-15175D02*
X25150Y-15425D01*
X25275Y-17325D02*
X25525Y-17575D01*
X25525Y-17325D02*
X25275Y-17575D01*
X25450Y-16500D02*
X25700Y-16750D01*
X25700Y-16500D02*
X25450Y-16750D01*
X25800Y-13325D02*
X26050Y-13575D01*
X26050Y-13325D02*
X25800Y-13575D01*
X25800Y-17425D02*
X26050Y-17675D01*
X26050Y-17425D02*
X25800Y-17675D01*
X25825Y-30075D02*
X26075Y-30325D01*
X26075Y-30075D02*
X25825Y-30325D01*
X25975Y-21975D02*
X26225Y-22225D01*
X26225Y-21975D02*
X25975Y-22225D01*
X26425Y-21575D02*
X26675Y-21825D01*
X26675Y-21575D02*
X26425Y-21825D01*
X26725Y-28350D02*
X26975Y-28600D01*
X26975Y-28350D02*
X26725Y-28600D01*
X27150Y-17800D02*
X27400Y-18050D01*
X27400Y-17800D02*
X27150Y-18050D01*
X27500Y-17425D02*
X27750Y-17675D01*
X27750Y-17425D02*
X27500Y-17675D01*
X27675Y-19375D02*
X27925Y-19625D01*
X27925Y-19375D02*
X27675Y-19625D01*
X27700Y-16150D02*
X27950Y-16400D01*
X27950Y-16150D02*
X27700Y-16400D01*
X27800Y-20225D02*
X28050Y-20475D01*
X28050Y-20225D02*
X27800Y-20475D01*
X28050Y-16500D02*
X28300Y-16750D01*
X28300Y-16500D02*
X28050Y-16750D01*
X28775Y-27100D02*
X29025Y-27350D01*
X29025Y-27100D02*
X28775Y-27350D01*
X29200Y-18650D02*
X29450Y-18900D01*
X29450Y-18650D02*
X29200Y-18900D01*
X29225Y-16850D02*
X29475Y-17100D01*
X29475Y-16850D02*
X29225Y-17100D01*
X29300Y-12925D02*
X29550Y-13175D01*
X29550Y-12925D02*
X29300Y-13175D01*
X29575Y-18175D02*
X29825Y-18425D01*
X29825Y-18175D02*
X29575Y-18425D01*
X29950Y-29175D02*
X30200Y-29425D01*
X30200Y-29175D02*
X29950Y-29425D01*
X30325Y-28025D02*
X30575Y-28275D01*
X30575Y-28025D02*
X30325Y-28275D01*
X30425Y-21400D02*
X30675Y-21650D01*
X30675Y-21400D02*
X30425Y-21650D01*
X30775Y-26700D02*
X31025Y-26950D01*
X31025Y-26700D02*
X30775Y-26950D01*
X32275Y-28000D02*
X32525Y-28250D01*
X32525Y-28000D02*
X32275Y-28250D01*
X32750Y-20200D02*
X33000Y-20450D01*
X33000Y-20200D02*
X32750Y-20450D01*
X32825Y-14725D02*
X33075Y-14975D01*
X33075Y-14725D02*
X32825Y-14975D01*
X32850Y-12925D02*
X33100Y-13175D01*
X33100Y-12925D02*
X32850Y-13175D01*
X33250Y-17175D02*
X33500Y-17425D01*
X33500Y-17175D02*
X33250Y-17425D01*
X33275Y-21050D02*
X33525Y-21300D01*
X33525Y-21050D02*
X33275Y-21300D01*
X33850Y-28000D02*
X34100Y-28250D01*
X34100Y-28000D02*
X33850Y-28250D01*
X34450Y-17175D02*
X34700Y-17425D01*
X34700Y-17175D02*
X34450Y-17425D01*
X34800Y-13375D02*
X35050Y-13625D01*
X35050Y-13375D02*
X34800Y-13625D01*
X35275Y-15700D02*
X35525Y-15950D01*
X35525Y-15700D02*
X35275Y-15950D01*
X35700Y-13225D02*
X35950Y-13475D01*
X35950Y-13225D02*
X35700Y-13475D01*
X35700Y-29925D02*
X35950Y-30175D01*
X35950Y-29925D02*
X35700Y-30175D01*
X40050Y-12400D02*
X40300Y-12650D01*
X40300Y-12400D02*
X40050Y-12650D01*
X40225Y-14800D02*
X40475Y-15050D01*
X40475Y-14800D02*
X40225Y-15050D01*
X40225Y-15400D02*
X40475Y-15650D01*
X40475Y-15400D02*
X40225Y-15650D01*
X40950Y-12400D02*
X41200Y-12650D01*
X41200Y-12400D02*
X40950Y-12650D01*
X41450Y-24825D02*
X41700Y-25075D01*
X41700Y-24825D02*
X41450Y-25075D01*
X41550Y-14800D02*
X41800Y-15050D01*
X41800Y-14800D02*
X41550Y-15050D01*
X41550Y-15400D02*
X41800Y-15650D01*
X41800Y-15400D02*
X41550Y-15650D01*
X41625Y-12025D02*
X41875Y-12275D01*
X41875Y-12025D02*
X41625Y-12275D01*
X11975Y-14200D02*
G75*
G03X11975Y-14200I-175J0D01*
G74*
G01*
X11975Y-17350D02*
G75*
G03X11975Y-17350I-175J0D01*
G74*
G01*
X25575Y-22975D02*
G75*
G03X25575Y-22975I-175J0D01*
G74*
G01*
X25575Y-25975D02*
G75*
G03X25575Y-25975I-175J0D01*
G74*
G01*
X26575Y-22975D02*
G75*
G03X26575Y-22975I-175J0D01*
G74*
G01*
X26575Y-25975D02*
G75*
G03X26575Y-25975I-175J0D01*
G74*
G01*
X27575Y-22975D02*
G75*
G03X27575Y-22975I-175J0D01*
G74*
G01*
X27575Y-25975D02*
G75*
G03X27575Y-25975I-175J0D01*
G74*
G01*
X28575Y-22975D02*
G75*
G03X28575Y-22975I-175J0D01*
G74*
G01*
X28575Y-25975D02*
G75*
G03X28575Y-25975I-175J0D01*
G74*
G01*
X29575Y-22975D02*
G75*
G03X29575Y-22975I-175J0D01*
G74*
G01*
X29575Y-25975D02*
G75*
G03X29575Y-25975I-175J0D01*
G74*
G01*
X30575Y-22975D02*
G75*
G03X30575Y-22975I-175J0D01*
G74*
G01*
X30575Y-25975D02*
G75*
G03X30575Y-25975I-175J0D01*
G74*
G01*
X31575Y-22975D02*
G75*
G03X31575Y-22975I-175J0D01*
G74*
G01*
X31575Y-25975D02*
G75*
G03X31575Y-25975I-175J0D01*
G74*
G01*
X32575Y-22975D02*
G75*
G03X32575Y-22975I-175J0D01*
G74*
G01*
X32575Y-25975D02*
G75*
G03X32575Y-25975I-175J0D01*
G74*
G01*
X33575Y-22975D02*
G75*
G03X33575Y-22975I-175J0D01*
G74*
G01*
X33575Y-25975D02*
G75*
G03X33575Y-25975I-175J0D01*
G74*
G01*
X34575Y-22975D02*
G75*
G03X34575Y-22975I-175J0D01*
G74*
G01*
X34575Y-25975D02*
G75*
G03X34575Y-25975I-175J0D01*
G74*
G01*
X35575Y-22975D02*
G75*
G03X35575Y-22975I-175J0D01*
G74*
G01*
X35575Y-25975D02*
G75*
G03X35575Y-25975I-175J0D01*
G74*
G01*
X36575Y-22975D02*
G75*
G03X36575Y-22975I-175J0D01*
G74*
G01*
X36575Y-25975D02*
G75*
G03X36575Y-25975I-175J0D01*
G74*
G01*
X37575Y-22975D02*
G75*
G03X37575Y-22975I-175J0D01*
G74*
G01*
X37575Y-25975D02*
G75*
G03X37575Y-25975I-175J0D01*
G74*
G01*
X38575Y-22975D02*
G75*
G03X38575Y-22975I-175J0D01*
G74*
G01*
X38575Y-25975D02*
G75*
G03X38575Y-25975I-175J0D01*
G74*
G01*
X10700Y-10700D02*
X10700Y-11100D01*
X10500Y-10900D02*
X10900Y-10900D01*
X10700Y-11700D02*
X10700Y-12100D01*
X10500Y-11900D02*
X10900Y-11900D01*
X11700Y-10700D02*
X11700Y-11100D01*
X11500Y-10900D02*
X11900Y-10900D01*
X11700Y-11700D02*
X11700Y-12100D01*
X11500Y-11900D02*
X11900Y-11900D01*
X12700Y-10700D02*
X12700Y-11100D01*
X12500Y-10900D02*
X12900Y-10900D01*
X12700Y-11700D02*
X12700Y-12100D01*
X12500Y-11900D02*
X12900Y-11900D01*
X13700Y-10700D02*
X13700Y-11100D01*
X13500Y-10900D02*
X13900Y-10900D01*
X13700Y-11700D02*
X13700Y-12100D01*
X13500Y-11900D02*
X13900Y-11900D01*
X14700Y-10700D02*
X14700Y-11100D01*
X14500Y-10900D02*
X14900Y-10900D01*
X14700Y-11700D02*
X14700Y-12100D01*
X14500Y-11900D02*
X14900Y-11900D01*
X15700Y-10700D02*
X15700Y-11100D01*
X15500Y-10900D02*
X15900Y-10900D01*
X15700Y-11700D02*
X15700Y-12100D01*
X15500Y-11900D02*
X15900Y-11900D01*
X16700Y-10700D02*
X16700Y-11100D01*
X16500Y-10900D02*
X16900Y-10900D01*
X16700Y-11700D02*
X16700Y-12100D01*
X16500Y-11900D02*
X16900Y-11900D01*
X17700Y-10700D02*
X17700Y-11100D01*
X17500Y-10900D02*
X17900Y-10900D01*
X17700Y-11700D02*
X17700Y-12100D01*
X17500Y-11900D02*
X17900Y-11900D01*
X18000Y-24050D02*
X18000Y-24450D01*
X17800Y-24250D02*
X18200Y-24250D01*
X18000Y-25050D02*
X18000Y-25450D01*
X17800Y-25250D02*
X18200Y-25250D01*
X18000Y-26050D02*
X18000Y-26450D01*
X17800Y-26250D02*
X18200Y-26250D01*
X18000Y-27050D02*
X18000Y-27450D01*
X17800Y-27250D02*
X18200Y-27250D01*
X18000Y-28050D02*
X18000Y-28450D01*
X17800Y-28250D02*
X18200Y-28250D01*
X18000Y-29050D02*
X18000Y-29450D01*
X17800Y-29250D02*
X18200Y-29250D01*
X18000Y-30050D02*
X18000Y-30450D01*
X17800Y-30250D02*
X18200Y-30250D01*
X18000Y-31050D02*
X18000Y-31450D01*
X17800Y-31250D02*
X18200Y-31250D01*
X18700Y-10700D02*
X18700Y-11100D01*
X18500Y-10900D02*
X18900Y-10900D01*
X18700Y-11700D02*
X18700Y-12100D01*
X18500Y-11900D02*
X18900Y-11900D01*
X19000Y-24050D02*
X19000Y-24450D01*
X18800Y-24250D02*
X19200Y-24250D01*
X19000Y-25050D02*
X19000Y-25450D01*
X18800Y-25250D02*
X19200Y-25250D01*
X19000Y-26050D02*
X19000Y-26450D01*
X18800Y-26250D02*
X19200Y-26250D01*
X19000Y-27050D02*
X19000Y-27450D01*
X18800Y-27250D02*
X19200Y-27250D01*
X19000Y-28050D02*
X19000Y-28450D01*
X18800Y-28250D02*
X19200Y-28250D01*
X19000Y-29050D02*
X19000Y-29450D01*
X18800Y-29250D02*
X19200Y-29250D01*
X19000Y-30050D02*
X19000Y-30450D01*
X18800Y-30250D02*
X19200Y-30250D01*
X19000Y-31050D02*
X19000Y-31450D01*
X18800Y-31250D02*
X19200Y-31250D01*
X19700Y-10700D02*
X19700Y-11100D01*
X19500Y-10900D02*
X19900Y-10900D01*
X19700Y-11700D02*
X19700Y-12100D01*
X19500Y-11900D02*
X19900Y-11900D01*
X20000Y-24050D02*
X20000Y-24450D01*
X19800Y-24250D02*
X20200Y-24250D01*
X20000Y-25050D02*
X20000Y-25450D01*
X19800Y-25250D02*
X20200Y-25250D01*
X20000Y-26050D02*
X20000Y-26450D01*
X19800Y-26250D02*
X20200Y-26250D01*
X20000Y-27050D02*
X20000Y-27450D01*
X19800Y-27250D02*
X20200Y-27250D01*
X20000Y-28050D02*
X20000Y-28450D01*
X19800Y-28250D02*
X20200Y-28250D01*
X20000Y-29050D02*
X20000Y-29450D01*
X19800Y-29250D02*
X20200Y-29250D01*
X20000Y-30050D02*
X20000Y-30450D01*
X19800Y-30250D02*
X20200Y-30250D01*
X20000Y-31050D02*
X20000Y-31450D01*
X19800Y-31250D02*
X20200Y-31250D01*
X20700Y-10700D02*
X20700Y-11100D01*
X20500Y-10900D02*
X20900Y-10900D01*
X20700Y-11700D02*
X20700Y-12100D01*
X20500Y-11900D02*
X20900Y-11900D01*
X21700Y-10700D02*
X21700Y-11100D01*
X21500Y-10900D02*
X21900Y-10900D01*
X21700Y-11700D02*
X21700Y-12100D01*
X21500Y-11900D02*
X21900Y-11900D01*
X22700Y-10700D02*
X22700Y-11100D01*
X22500Y-10900D02*
X22900Y-10900D01*
X22700Y-11700D02*
X22700Y-12100D01*
X22500Y-11900D02*
X22900Y-11900D01*
X23975Y-10925D02*
X23975Y-11325D01*
X23775Y-11125D02*
X24175Y-11125D01*
X24975Y-10925D02*
X24975Y-11325D01*
X24775Y-11125D02*
X25175Y-11125D01*
X25975Y-10925D02*
X25975Y-11325D01*
X25775Y-11125D02*
X26175Y-11125D01*
X26975Y-10925D02*
X26975Y-11325D01*
X26775Y-11125D02*
X27175Y-11125D01*
X27575Y-29925D02*
X27575Y-30325D01*
X27375Y-30125D02*
X27775Y-30125D01*
X27975Y-10925D02*
X27975Y-11325D01*
X27775Y-11125D02*
X28175Y-11125D01*
X28575Y-29925D02*
X28575Y-30325D01*
X28375Y-30125D02*
X28775Y-30125D01*
X28975Y-10925D02*
X28975Y-11325D01*
X28775Y-11125D02*
X29175Y-11125D01*
X29575Y-29925D02*
X29575Y-30325D01*
X29375Y-30125D02*
X29775Y-30125D01*
X29975Y-10925D02*
X29975Y-11325D01*
X29775Y-11125D02*
X30175Y-11125D01*
X30575Y-29925D02*
X30575Y-30325D01*
X30375Y-30125D02*
X30775Y-30125D01*
X30975Y-10925D02*
X30975Y-11325D01*
X30775Y-11125D02*
X31175Y-11125D01*
X31000Y-13800D02*
X31000Y-14200D01*
X30800Y-14000D02*
X31200Y-14000D01*
X31000Y-14800D02*
X31000Y-15200D01*
X30800Y-15000D02*
X31200Y-15000D01*
X31000Y-15800D02*
X31000Y-16200D01*
X30800Y-16000D02*
X31200Y-16000D01*
X31000Y-16800D02*
X31000Y-17200D01*
X30800Y-17000D02*
X31200Y-17000D01*
X31000Y-17800D02*
X31000Y-18200D01*
X30800Y-18000D02*
X31200Y-18000D01*
X31000Y-18800D02*
X31000Y-19200D01*
X30800Y-19000D02*
X31200Y-19000D01*
X31000Y-19800D02*
X31000Y-20200D01*
X30800Y-20000D02*
X31200Y-20000D01*
X31000Y-20800D02*
X31000Y-21200D01*
X30800Y-21000D02*
X31200Y-21000D01*
X31575Y-29925D02*
X31575Y-30325D01*
X31375Y-30125D02*
X31775Y-30125D01*
X31975Y-10925D02*
X31975Y-11325D01*
X31775Y-11125D02*
X32175Y-11125D01*
X32000Y-13800D02*
X32000Y-14200D01*
X31800Y-14000D02*
X32200Y-14000D01*
X32000Y-14800D02*
X32000Y-15200D01*
X31800Y-15000D02*
X32200Y-15000D01*
X32000Y-15800D02*
X32000Y-16200D01*
X31800Y-16000D02*
X32200Y-16000D01*
X32000Y-16800D02*
X32000Y-17200D01*
X31800Y-17000D02*
X32200Y-17000D01*
X32000Y-17800D02*
X32000Y-18200D01*
X31800Y-18000D02*
X32200Y-18000D01*
X32000Y-18800D02*
X32000Y-19200D01*
X31800Y-19000D02*
X32200Y-19000D01*
X32000Y-19800D02*
X32000Y-20200D01*
X31800Y-20000D02*
X32200Y-20000D01*
X32000Y-20800D02*
X32000Y-21200D01*
X31800Y-21000D02*
X32200Y-21000D01*
X32575Y-29925D02*
X32575Y-30325D01*
X32375Y-30125D02*
X32775Y-30125D01*
X32975Y-10925D02*
X32975Y-11325D01*
X32775Y-11125D02*
X33175Y-11125D01*
X33575Y-29925D02*
X33575Y-30325D01*
X33375Y-30125D02*
X33775Y-30125D01*
X34575Y-10925D02*
X34575Y-11325D01*
X34375Y-11125D02*
X34775Y-11125D01*
X34575Y-18600D02*
X34575Y-19000D01*
X34375Y-18800D02*
X34775Y-18800D01*
X34575Y-19600D02*
X34575Y-20000D01*
X34375Y-19800D02*
X34775Y-19800D01*
X34575Y-20600D02*
X34575Y-21000D01*
X34375Y-20800D02*
X34775Y-20800D01*
X34575Y-29925D02*
X34575Y-30325D01*
X34375Y-30125D02*
X34775Y-30125D01*
X35575Y-10925D02*
X35575Y-11325D01*
X35375Y-11125D02*
X35775Y-11125D01*
X36575Y-10925D02*
X36575Y-11325D01*
X36375Y-11125D02*
X36775Y-11125D01*
X36575Y-13600D02*
X36575Y-14000D01*
X36375Y-13800D02*
X36775Y-13800D01*
X36575Y-18600D02*
X36575Y-19000D01*
X36375Y-18800D02*
X36775Y-18800D01*
X36575Y-19600D02*
X36575Y-20000D01*
X36375Y-19800D02*
X36775Y-19800D01*
X36575Y-20600D02*
X36575Y-21000D01*
X36375Y-20800D02*
X36775Y-20800D01*
X36575Y-27925D02*
X36575Y-28325D01*
X36375Y-28125D02*
X36775Y-28125D01*
X36575Y-28925D02*
X36575Y-29325D01*
X36375Y-29125D02*
X36775Y-29125D01*
X36575Y-29925D02*
X36575Y-30325D01*
X36375Y-30125D02*
X36775Y-30125D01*
X37575Y-10925D02*
X37575Y-11325D01*
X37375Y-11125D02*
X37775Y-11125D01*
X37575Y-13600D02*
X37575Y-14000D01*
X37375Y-13800D02*
X37775Y-13800D01*
X37575Y-18600D02*
X37575Y-19000D01*
X37375Y-18800D02*
X37775Y-18800D01*
X37575Y-19600D02*
X37575Y-20000D01*
X37375Y-19800D02*
X37775Y-19800D01*
X37575Y-20600D02*
X37575Y-21000D01*
X37375Y-20800D02*
X37775Y-20800D01*
X37575Y-27925D02*
X37575Y-28325D01*
X37375Y-28125D02*
X37775Y-28125D01*
X37575Y-28925D02*
X37575Y-29325D01*
X37375Y-29125D02*
X37775Y-29125D01*
X37575Y-29925D02*
X37575Y-30325D01*
X37375Y-30125D02*
X37775Y-30125D01*
X38575Y-10925D02*
X38575Y-11325D01*
X38375Y-11125D02*
X38775Y-11125D01*
X38575Y-13600D02*
X38575Y-14000D01*
X38375Y-13800D02*
X38775Y-13800D01*
X38575Y-27925D02*
X38575Y-28325D01*
X38375Y-28125D02*
X38775Y-28125D01*
X38575Y-28925D02*
X38575Y-29325D01*
X38375Y-29125D02*
X38775Y-29125D01*
X38575Y-29925D02*
X38575Y-30325D01*
X38375Y-30125D02*
X38775Y-30125D01*
X39575Y-10925D02*
X39575Y-11325D01*
X39375Y-11125D02*
X39775Y-11125D01*
X39575Y-13600D02*
X39575Y-14000D01*
X39375Y-13800D02*
X39775Y-13800D01*
X39575Y-27925D02*
X39575Y-28325D01*
X39375Y-28125D02*
X39775Y-28125D01*
X39575Y-28925D02*
X39575Y-29325D01*
X39375Y-29125D02*
X39775Y-29125D01*
X39575Y-29925D02*
X39575Y-30325D01*
X39375Y-30125D02*
X39775Y-30125D01*
X40575Y-10925D02*
X40575Y-11325D01*
X40375Y-11125D02*
X40775Y-11125D01*
X40575Y-13600D02*
X40575Y-14000D01*
X40375Y-13800D02*
X40775Y-13800D01*
X40575Y-27925D02*
X40575Y-28325D01*
X40375Y-28125D02*
X40775Y-28125D01*
X40575Y-28925D02*
X40575Y-29325D01*
X40375Y-29125D02*
X40775Y-29125D01*
X40575Y-29925D02*
X40575Y-30325D01*
X40375Y-30125D02*
X40775Y-30125D01*
X41575Y-10925D02*
X41575Y-11325D01*
X41375Y-11125D02*
X41775Y-11125D01*
X41575Y-13600D02*
X41575Y-14000D01*
X41375Y-13800D02*
X41775Y-13800D01*
X41575Y-27925D02*
X41575Y-28325D01*
X41375Y-28125D02*
X41775Y-28125D01*
X41575Y-28925D02*
X41575Y-29325D01*
X41375Y-29125D02*
X41775Y-29125D01*
X41575Y-29925D02*
X41575Y-30325D01*
X41375Y-30125D02*
X41775Y-30125D01*
X42950Y-10850D02*
X42950Y-11250D01*
X42750Y-11050D02*
X43150Y-11050D01*
X42950Y-11850D02*
X42950Y-12250D01*
X42750Y-12050D02*
X43150Y-12050D01*
X42950Y-12850D02*
X42950Y-13250D01*
X42750Y-13050D02*
X43150Y-13050D01*
X42950Y-13850D02*
X42950Y-14250D01*
X42750Y-14050D02*
X43150Y-14050D01*
X42950Y-14850D02*
X42950Y-15250D01*
X42750Y-15050D02*
X43150Y-15050D01*
X42950Y-15850D02*
X42950Y-16250D01*
X42750Y-16050D02*
X43150Y-16050D01*
X13262Y-28612D02*
X13262Y-28287D01*
X12937Y-28287D01*
X12937Y-28612D01*
X13262Y-28612D01*
X12909Y-27980D02*
X12909Y-28920D01*
X13290Y-27980D02*
X13290Y-28920D01*
X12909Y-28920D02*
G75*
G03X13290Y-28920I190J0D01*
G74*
G01*
X13290Y-27980D02*
G75*
G03X12909Y-27980I-190J0D01*
G74*
G01*
X14512Y-30612D02*
X14512Y-30287D01*
X14187Y-30287D01*
X14187Y-30612D01*
X14512Y-30612D01*
X13880Y-30640D02*
X14820Y-30640D01*
X13880Y-30259D02*
X14820Y-30259D01*
X14820Y-30640D02*
G75*
G03X14820Y-30259I0J190D01*
G74*
G01*
X13880Y-30259D02*
G75*
G03X13880Y-30640I0J-190D01*
G74*
G01*
X15662Y-28612D02*
X15662Y-28287D01*
X15337Y-28287D01*
X15337Y-28612D01*
X15662Y-28612D01*
X15309Y-27880D02*
X15309Y-29020D01*
X15690Y-27880D02*
X15690Y-29020D01*
X15309Y-29020D02*
G75*
G03X15690Y-29020I190J0D01*
G74*
G01*
X15690Y-27880D02*
G75*
G03X15309Y-27880I-190J0D01*
G74*
G01*
X10575Y-25950D02*
X10825Y-25700D01*
X10575Y-25450D01*
X10325Y-25700D01*
X10575Y-25950D01*
X10575Y-28550D02*
X10825Y-28300D01*
X10575Y-28050D01*
X10325Y-28300D01*
X10575Y-28550D01*
X42175Y-27725D02*
X42975Y-28525D01*
X42975Y-27725D02*
X42175Y-28525D01*
X42975Y-28125D02*
G75*
G03X42975Y-28125I-400J0D01*
G74*
G01*
X21475Y-29525D02*
X22675Y-30725D01*
X22675Y-29525D02*
X21475Y-30725D01*
X22075Y-29525D02*
X22075Y-30725D01*
X21475Y-30125D02*
X22675Y-30125D01*
G54D12*
X11043Y-33802D02*
X11043Y-32621D01*
X11324Y-32621D01*
X11493Y-32677D01*
X11606Y-32789D01*
X11662Y-32902D01*
X11718Y-33127D01*
X11718Y-33296D01*
X11662Y-33521D01*
X11606Y-33633D01*
X11493Y-33746D01*
X11324Y-33802D01*
X11043Y-33802D01*
X12224Y-33802D02*
X12224Y-33014D01*
X12224Y-33239D02*
X12280Y-33127D01*
X12337Y-33071D01*
X12449Y-33014D01*
X12562Y-33014D01*
X12955Y-33802D02*
X12955Y-33014D01*
X12955Y-32621D02*
X12899Y-32677D01*
X12955Y-32733D01*
X13012Y-32677D01*
X12955Y-32621D01*
X12955Y-32733D01*
X13687Y-33802D02*
X13574Y-33746D01*
X13518Y-33633D01*
X13518Y-32621D01*
X14305Y-33802D02*
X14193Y-33746D01*
X14136Y-33633D01*
X14136Y-32621D01*
X15655Y-33802D02*
X15655Y-32621D01*
X16049Y-33464D01*
X16442Y-32621D01*
X16442Y-33802D01*
X17511Y-33802D02*
X17511Y-33183D01*
X17455Y-33071D01*
X17342Y-33014D01*
X17117Y-33014D01*
X17005Y-33071D01*
X17511Y-33746D02*
X17399Y-33802D01*
X17117Y-33802D01*
X17005Y-33746D01*
X16949Y-33633D01*
X16949Y-33521D01*
X17005Y-33408D01*
X17117Y-33352D01*
X17399Y-33352D01*
X17511Y-33296D01*
X18073Y-33014D02*
X18073Y-34195D01*
X18073Y-33071D02*
X18186Y-33014D01*
X18411Y-33014D01*
X18523Y-33071D01*
X18580Y-33127D01*
X18636Y-33239D01*
X18636Y-33577D01*
X18580Y-33689D01*
X18523Y-33746D01*
X18411Y-33802D01*
X18186Y-33802D01*
X18073Y-33746D01*
X19142Y-33689D02*
X19198Y-33746D01*
X19142Y-33802D01*
X19086Y-33746D01*
X19142Y-33689D01*
X19142Y-33802D01*
X19142Y-33071D02*
X19198Y-33127D01*
X19142Y-33183D01*
X19086Y-33127D01*
X19142Y-33071D01*
X19142Y-33183D01*
X9724Y-35679D02*
X9974Y-35929D01*
X9974Y-35679D02*
X9724Y-35929D01*
X11268Y-35101D02*
X11381Y-35101D01*
X11493Y-35157D01*
X11549Y-35213D01*
X11606Y-35326D01*
X11662Y-35551D01*
X11662Y-35832D01*
X11606Y-36057D01*
X11549Y-36170D01*
X11493Y-36226D01*
X11381Y-36282D01*
X11268Y-36282D01*
X11156Y-36226D01*
X11099Y-36170D01*
X11043Y-36057D01*
X10987Y-35832D01*
X10987Y-35551D01*
X11043Y-35326D01*
X11099Y-35213D01*
X11156Y-35157D01*
X11268Y-35101D01*
X12168Y-36170D02*
X12224Y-36226D01*
X12168Y-36282D01*
X12112Y-36226D01*
X12168Y-36170D01*
X12168Y-36282D01*
X13237Y-35101D02*
X13012Y-35101D01*
X12899Y-35157D01*
X12843Y-35213D01*
X12730Y-35382D01*
X12674Y-35607D01*
X12674Y-36057D01*
X12730Y-36170D01*
X12787Y-36226D01*
X12899Y-36282D01*
X13124Y-36282D01*
X13237Y-36226D01*
X13293Y-36170D01*
X13349Y-36057D01*
X13349Y-35776D01*
X13293Y-35663D01*
X13237Y-35607D01*
X13124Y-35551D01*
X12899Y-35551D01*
X12787Y-35607D01*
X12730Y-35663D01*
X12674Y-35776D01*
X14361Y-35495D02*
X14361Y-36282D01*
X14080Y-35045D02*
X13799Y-35888D01*
X14530Y-35888D01*
X14980Y-36282D02*
X14980Y-35495D01*
X14980Y-35607D02*
X15036Y-35551D01*
X15149Y-35495D01*
X15318Y-35495D01*
X15430Y-35551D01*
X15486Y-35663D01*
X15486Y-36282D01*
X15486Y-35663D02*
X15543Y-35551D01*
X15655Y-35495D01*
X15824Y-35495D01*
X15936Y-35551D01*
X15992Y-35663D01*
X15992Y-36282D01*
X16555Y-36282D02*
X16555Y-35495D01*
X16555Y-35607D02*
X16611Y-35551D01*
X16724Y-35495D01*
X16892Y-35495D01*
X17005Y-35551D01*
X17061Y-35663D01*
X17061Y-36282D01*
X17061Y-35663D02*
X17117Y-35551D01*
X17230Y-35495D01*
X17399Y-35495D01*
X17511Y-35551D01*
X17567Y-35663D01*
X17567Y-36282D01*
X19873Y-35045D02*
X18861Y-36563D01*
X21392Y-35101D02*
X21504Y-35101D01*
X21617Y-35157D01*
X21673Y-35213D01*
X21729Y-35326D01*
X21786Y-35551D01*
X21786Y-35832D01*
X21729Y-36057D01*
X21673Y-36170D01*
X21617Y-36226D01*
X21504Y-36282D01*
X21392Y-36282D01*
X21279Y-36226D01*
X21223Y-36170D01*
X21167Y-36057D01*
X21111Y-35832D01*
X21111Y-35551D01*
X21167Y-35326D01*
X21223Y-35213D01*
X21279Y-35157D01*
X21392Y-35101D01*
X22292Y-36170D02*
X22348Y-36226D01*
X22292Y-36282D01*
X22235Y-36226D01*
X22292Y-36170D01*
X22292Y-36282D01*
X23079Y-35101D02*
X23192Y-35101D01*
X23304Y-35157D01*
X23360Y-35213D01*
X23417Y-35326D01*
X23473Y-35551D01*
X23473Y-35832D01*
X23417Y-36057D01*
X23360Y-36170D01*
X23304Y-36226D01*
X23192Y-36282D01*
X23079Y-36282D01*
X22967Y-36226D01*
X22910Y-36170D01*
X22854Y-36057D01*
X22798Y-35832D01*
X22798Y-35551D01*
X22854Y-35326D01*
X22910Y-35213D01*
X22967Y-35157D01*
X23079Y-35101D01*
X23923Y-35213D02*
X23979Y-35157D01*
X24091Y-35101D01*
X24373Y-35101D01*
X24485Y-35157D01*
X24541Y-35213D01*
X24598Y-35326D01*
X24598Y-35438D01*
X24541Y-35607D01*
X23867Y-36282D01*
X24598Y-36282D01*
X25666Y-35101D02*
X25104Y-35101D01*
X25048Y-35663D01*
X25104Y-35607D01*
X25216Y-35551D01*
X25498Y-35551D01*
X25610Y-35607D01*
X25666Y-35663D01*
X25723Y-35776D01*
X25723Y-36057D01*
X25666Y-36170D01*
X25610Y-36226D01*
X25498Y-36282D01*
X25216Y-36282D01*
X25104Y-36226D01*
X25048Y-36170D01*
X26172Y-35101D02*
X26172Y-35326D01*
X26622Y-35101D02*
X26622Y-35326D01*
X28366Y-36732D02*
X28310Y-36676D01*
X28197Y-36507D01*
X28141Y-36395D01*
X28085Y-36226D01*
X28028Y-35945D01*
X28028Y-35720D01*
X28085Y-35438D01*
X28141Y-35270D01*
X28197Y-35157D01*
X28310Y-34989D01*
X28366Y-34932D01*
X29435Y-36282D02*
X28760Y-36282D01*
X29097Y-36282D02*
X29097Y-35101D01*
X28985Y-35270D01*
X28872Y-35382D01*
X28760Y-35438D01*
X30166Y-35101D02*
X30278Y-35101D01*
X30391Y-35157D01*
X30447Y-35213D01*
X30503Y-35326D01*
X30559Y-35551D01*
X30559Y-35832D01*
X30503Y-36057D01*
X30447Y-36170D01*
X30391Y-36226D01*
X30278Y-36282D01*
X30166Y-36282D01*
X30053Y-36226D01*
X29997Y-36170D01*
X29941Y-36057D01*
X29885Y-35832D01*
X29885Y-35551D01*
X29941Y-35326D01*
X29997Y-35213D01*
X30053Y-35157D01*
X30166Y-35101D01*
X31009Y-35213D02*
X31066Y-35157D01*
X31178Y-35101D01*
X31459Y-35101D01*
X31572Y-35157D01*
X31628Y-35213D01*
X31684Y-35326D01*
X31684Y-35438D01*
X31628Y-35607D01*
X30953Y-36282D01*
X31684Y-36282D01*
X33090Y-36282D02*
X33090Y-35101D01*
X33597Y-36282D02*
X33597Y-35663D01*
X33540Y-35551D01*
X33428Y-35495D01*
X33259Y-35495D01*
X33147Y-35551D01*
X33090Y-35607D01*
X34328Y-36282D02*
X34215Y-36226D01*
X34159Y-36170D01*
X34103Y-36057D01*
X34103Y-35720D01*
X34159Y-35607D01*
X34215Y-35551D01*
X34328Y-35495D01*
X34496Y-35495D01*
X34609Y-35551D01*
X34665Y-35607D01*
X34721Y-35720D01*
X34721Y-36057D01*
X34665Y-36170D01*
X34609Y-36226D01*
X34496Y-36282D01*
X34328Y-36282D01*
X35396Y-36282D02*
X35284Y-36226D01*
X35228Y-36113D01*
X35228Y-35101D01*
X36296Y-36226D02*
X36184Y-36282D01*
X35959Y-36282D01*
X35846Y-36226D01*
X35790Y-36113D01*
X35790Y-35663D01*
X35846Y-35551D01*
X35959Y-35495D01*
X36184Y-35495D01*
X36296Y-35551D01*
X36352Y-35663D01*
X36352Y-35776D01*
X35790Y-35888D01*
X36802Y-36226D02*
X36915Y-36282D01*
X37140Y-36282D01*
X37252Y-36226D01*
X37309Y-36113D01*
X37309Y-36057D01*
X37252Y-35945D01*
X37140Y-35888D01*
X36971Y-35888D01*
X36859Y-35832D01*
X36802Y-35720D01*
X36802Y-35663D01*
X36859Y-35551D01*
X36971Y-35495D01*
X37140Y-35495D01*
X37252Y-35551D01*
X37702Y-36732D02*
X37759Y-36676D01*
X37871Y-36507D01*
X37927Y-36395D01*
X37983Y-36226D01*
X38040Y-35945D01*
X38040Y-35720D01*
X37983Y-35438D01*
X37927Y-35270D01*
X37871Y-35157D01*
X37759Y-34989D01*
X37702Y-34932D01*
G54D11*
X9974Y-37363D02*
G75*
G03X9974Y-37363I-175J0D01*
G74*
G01*
G54D12*
X11268Y-36660D02*
X11381Y-36660D01*
X11493Y-36716D01*
X11549Y-36773D01*
X11606Y-36885D01*
X11662Y-37110D01*
X11662Y-37391D01*
X11606Y-37616D01*
X11549Y-37729D01*
X11493Y-37785D01*
X11381Y-37841D01*
X11268Y-37841D01*
X11156Y-37785D01*
X11099Y-37729D01*
X11043Y-37616D01*
X10987Y-37391D01*
X10987Y-37110D01*
X11043Y-36885D01*
X11099Y-36773D01*
X11156Y-36716D01*
X11268Y-36660D01*
X12168Y-37729D02*
X12224Y-37785D01*
X12168Y-37841D01*
X12112Y-37785D01*
X12168Y-37729D01*
X12168Y-37841D01*
X12899Y-37166D02*
X12787Y-37110D01*
X12730Y-37054D01*
X12674Y-36941D01*
X12674Y-36885D01*
X12730Y-36773D01*
X12787Y-36716D01*
X12899Y-36660D01*
X13124Y-36660D01*
X13237Y-36716D01*
X13293Y-36773D01*
X13349Y-36885D01*
X13349Y-36941D01*
X13293Y-37054D01*
X13237Y-37110D01*
X13124Y-37166D01*
X12899Y-37166D01*
X12787Y-37222D01*
X12730Y-37279D01*
X12674Y-37391D01*
X12674Y-37616D01*
X12730Y-37729D01*
X12787Y-37785D01*
X12899Y-37841D01*
X13124Y-37841D01*
X13237Y-37785D01*
X13293Y-37729D01*
X13349Y-37616D01*
X13349Y-37391D01*
X13293Y-37279D01*
X13237Y-37222D01*
X13124Y-37166D01*
X13912Y-37841D02*
X14136Y-37841D01*
X14249Y-37785D01*
X14305Y-37729D01*
X14418Y-37560D01*
X14474Y-37335D01*
X14474Y-36885D01*
X14418Y-36773D01*
X14361Y-36716D01*
X14249Y-36660D01*
X14024Y-36660D01*
X13912Y-36716D01*
X13855Y-36773D01*
X13799Y-36885D01*
X13799Y-37166D01*
X13855Y-37279D01*
X13912Y-37335D01*
X14024Y-37391D01*
X14249Y-37391D01*
X14361Y-37335D01*
X14418Y-37279D01*
X14474Y-37166D01*
X14980Y-37841D02*
X14980Y-37054D01*
X14980Y-37166D02*
X15036Y-37110D01*
X15149Y-37054D01*
X15318Y-37054D01*
X15430Y-37110D01*
X15486Y-37222D01*
X15486Y-37841D01*
X15486Y-37222D02*
X15543Y-37110D01*
X15655Y-37054D01*
X15824Y-37054D01*
X15936Y-37110D01*
X15992Y-37222D01*
X15992Y-37841D01*
X16555Y-37841D02*
X16555Y-37054D01*
X16555Y-37166D02*
X16611Y-37110D01*
X16724Y-37054D01*
X16892Y-37054D01*
X17005Y-37110D01*
X17061Y-37222D01*
X17061Y-37841D01*
X17061Y-37222D02*
X17117Y-37110D01*
X17230Y-37054D01*
X17399Y-37054D01*
X17511Y-37110D01*
X17567Y-37222D01*
X17567Y-37841D01*
X19873Y-36604D02*
X18861Y-38122D01*
X21392Y-36660D02*
X21504Y-36660D01*
X21617Y-36716D01*
X21673Y-36773D01*
X21729Y-36885D01*
X21786Y-37110D01*
X21786Y-37391D01*
X21729Y-37616D01*
X21673Y-37729D01*
X21617Y-37785D01*
X21504Y-37841D01*
X21392Y-37841D01*
X21279Y-37785D01*
X21223Y-37729D01*
X21167Y-37616D01*
X21111Y-37391D01*
X21111Y-37110D01*
X21167Y-36885D01*
X21223Y-36773D01*
X21279Y-36716D01*
X21392Y-36660D01*
X22292Y-37729D02*
X22348Y-37785D01*
X22292Y-37841D01*
X22235Y-37785D01*
X22292Y-37729D01*
X22292Y-37841D01*
X23079Y-36660D02*
X23192Y-36660D01*
X23304Y-36716D01*
X23360Y-36773D01*
X23417Y-36885D01*
X23473Y-37110D01*
X23473Y-37391D01*
X23417Y-37616D01*
X23360Y-37729D01*
X23304Y-37785D01*
X23192Y-37841D01*
X23079Y-37841D01*
X22967Y-37785D01*
X22910Y-37729D01*
X22854Y-37616D01*
X22798Y-37391D01*
X22798Y-37110D01*
X22854Y-36885D01*
X22910Y-36773D01*
X22967Y-36716D01*
X23079Y-36660D01*
X23867Y-36660D02*
X24598Y-36660D01*
X24204Y-37110D01*
X24373Y-37110D01*
X24485Y-37166D01*
X24541Y-37222D01*
X24598Y-37335D01*
X24598Y-37616D01*
X24541Y-37729D01*
X24485Y-37785D01*
X24373Y-37841D01*
X24035Y-37841D01*
X23923Y-37785D01*
X23867Y-37729D01*
X25666Y-36660D02*
X25104Y-36660D01*
X25048Y-37222D01*
X25104Y-37166D01*
X25216Y-37110D01*
X25498Y-37110D01*
X25610Y-37166D01*
X25666Y-37222D01*
X25723Y-37335D01*
X25723Y-37616D01*
X25666Y-37729D01*
X25610Y-37785D01*
X25498Y-37841D01*
X25216Y-37841D01*
X25104Y-37785D01*
X25048Y-37729D01*
X26172Y-36660D02*
X26172Y-36885D01*
X26622Y-36660D02*
X26622Y-36885D01*
X28366Y-38291D02*
X28310Y-38235D01*
X28197Y-38066D01*
X28141Y-37954D01*
X28085Y-37785D01*
X28028Y-37504D01*
X28028Y-37279D01*
X28085Y-36998D01*
X28141Y-36829D01*
X28197Y-36716D01*
X28310Y-36548D01*
X28366Y-36491D01*
X28703Y-36660D02*
X29435Y-36660D01*
X29041Y-37110D01*
X29210Y-37110D01*
X29322Y-37166D01*
X29378Y-37222D01*
X29435Y-37335D01*
X29435Y-37616D01*
X29378Y-37729D01*
X29322Y-37785D01*
X29210Y-37841D01*
X28872Y-37841D01*
X28760Y-37785D01*
X28703Y-37729D01*
X30166Y-36660D02*
X30278Y-36660D01*
X30391Y-36716D01*
X30447Y-36773D01*
X30503Y-36885D01*
X30559Y-37110D01*
X30559Y-37391D01*
X30503Y-37616D01*
X30447Y-37729D01*
X30391Y-37785D01*
X30278Y-37841D01*
X30166Y-37841D01*
X30053Y-37785D01*
X29997Y-37729D01*
X29941Y-37616D01*
X29885Y-37391D01*
X29885Y-37110D01*
X29941Y-36885D01*
X29997Y-36773D01*
X30053Y-36716D01*
X30166Y-36660D01*
X31966Y-37841D02*
X31966Y-36660D01*
X32472Y-37841D02*
X32472Y-37222D01*
X32415Y-37110D01*
X32303Y-37054D01*
X32134Y-37054D01*
X32022Y-37110D01*
X31966Y-37166D01*
X33203Y-37841D02*
X33090Y-37785D01*
X33034Y-37729D01*
X32978Y-37616D01*
X32978Y-37279D01*
X33034Y-37166D01*
X33090Y-37110D01*
X33203Y-37054D01*
X33372Y-37054D01*
X33484Y-37110D01*
X33540Y-37166D01*
X33597Y-37279D01*
X33597Y-37616D01*
X33540Y-37729D01*
X33484Y-37785D01*
X33372Y-37841D01*
X33203Y-37841D01*
X34271Y-37841D02*
X34159Y-37785D01*
X34103Y-37672D01*
X34103Y-36660D01*
X35171Y-37785D02*
X35059Y-37841D01*
X34834Y-37841D01*
X34721Y-37785D01*
X34665Y-37672D01*
X34665Y-37222D01*
X34721Y-37110D01*
X34834Y-37054D01*
X35059Y-37054D01*
X35171Y-37110D01*
X35228Y-37222D01*
X35228Y-37335D01*
X34665Y-37447D01*
X35678Y-37785D02*
X35790Y-37841D01*
X36015Y-37841D01*
X36127Y-37785D01*
X36184Y-37672D01*
X36184Y-37616D01*
X36127Y-37504D01*
X36015Y-37447D01*
X35846Y-37447D01*
X35734Y-37391D01*
X35678Y-37279D01*
X35678Y-37222D01*
X35734Y-37110D01*
X35846Y-37054D01*
X36015Y-37054D01*
X36127Y-37110D01*
X36577Y-38291D02*
X36634Y-38235D01*
X36746Y-38066D01*
X36802Y-37954D01*
X36859Y-37785D01*
X36915Y-37504D01*
X36915Y-37279D01*
X36859Y-36998D01*
X36802Y-36829D01*
X36746Y-36716D01*
X36634Y-36548D01*
X36577Y-36491D01*
X9774Y-38722D02*
X9774Y-39122D01*
X9574Y-38922D02*
X9974Y-38922D01*
X11662Y-39400D02*
X10987Y-39400D01*
X11324Y-39400D02*
X11324Y-38219D01*
X11212Y-38388D01*
X11099Y-38500D01*
X10987Y-38557D01*
X12168Y-39288D02*
X12224Y-39344D01*
X12168Y-39400D01*
X12112Y-39344D01*
X12168Y-39288D01*
X12168Y-39400D01*
X12955Y-38219D02*
X13068Y-38219D01*
X13180Y-38275D01*
X13237Y-38332D01*
X13293Y-38444D01*
X13349Y-38669D01*
X13349Y-38950D01*
X13293Y-39175D01*
X13237Y-39288D01*
X13180Y-39344D01*
X13068Y-39400D01*
X12955Y-39400D01*
X12843Y-39344D01*
X12787Y-39288D01*
X12730Y-39175D01*
X12674Y-38950D01*
X12674Y-38669D01*
X12730Y-38444D01*
X12787Y-38332D01*
X12843Y-38275D01*
X12955Y-38219D01*
X13799Y-38332D02*
X13855Y-38275D01*
X13968Y-38219D01*
X14249Y-38219D01*
X14361Y-38275D01*
X14418Y-38332D01*
X14474Y-38444D01*
X14474Y-38557D01*
X14418Y-38725D01*
X13743Y-39400D01*
X14474Y-39400D01*
X14980Y-39400D02*
X14980Y-38613D01*
X14980Y-38725D02*
X15036Y-38669D01*
X15149Y-38613D01*
X15318Y-38613D01*
X15430Y-38669D01*
X15486Y-38782D01*
X15486Y-39400D01*
X15486Y-38782D02*
X15543Y-38669D01*
X15655Y-38613D01*
X15824Y-38613D01*
X15936Y-38669D01*
X15992Y-38782D01*
X15992Y-39400D01*
X16555Y-39400D02*
X16555Y-38613D01*
X16555Y-38725D02*
X16611Y-38669D01*
X16724Y-38613D01*
X16892Y-38613D01*
X17005Y-38669D01*
X17061Y-38782D01*
X17061Y-39400D01*
X17061Y-38782D02*
X17117Y-38669D01*
X17230Y-38613D01*
X17399Y-38613D01*
X17511Y-38669D01*
X17567Y-38782D01*
X17567Y-39400D01*
X19873Y-38163D02*
X18861Y-39681D01*
X21392Y-38219D02*
X21504Y-38219D01*
X21617Y-38275D01*
X21673Y-38332D01*
X21729Y-38444D01*
X21786Y-38669D01*
X21786Y-38950D01*
X21729Y-39175D01*
X21673Y-39288D01*
X21617Y-39344D01*
X21504Y-39400D01*
X21392Y-39400D01*
X21279Y-39344D01*
X21223Y-39288D01*
X21167Y-39175D01*
X21111Y-38950D01*
X21111Y-38669D01*
X21167Y-38444D01*
X21223Y-38332D01*
X21279Y-38275D01*
X21392Y-38219D01*
X22292Y-39288D02*
X22348Y-39344D01*
X22292Y-39400D01*
X22235Y-39344D01*
X22292Y-39288D01*
X22292Y-39400D01*
X23079Y-38219D02*
X23192Y-38219D01*
X23304Y-38275D01*
X23360Y-38332D01*
X23417Y-38444D01*
X23473Y-38669D01*
X23473Y-38950D01*
X23417Y-39175D01*
X23360Y-39288D01*
X23304Y-39344D01*
X23192Y-39400D01*
X23079Y-39400D01*
X22967Y-39344D01*
X22910Y-39288D01*
X22854Y-39175D01*
X22798Y-38950D01*
X22798Y-38669D01*
X22854Y-38444D01*
X22910Y-38332D01*
X22967Y-38275D01*
X23079Y-38219D01*
X24485Y-38613D02*
X24485Y-39400D01*
X24204Y-38163D02*
X23923Y-39007D01*
X24654Y-39007D01*
X25329Y-38219D02*
X25441Y-38219D01*
X25554Y-38275D01*
X25610Y-38332D01*
X25666Y-38444D01*
X25723Y-38669D01*
X25723Y-38950D01*
X25666Y-39175D01*
X25610Y-39288D01*
X25554Y-39344D01*
X25441Y-39400D01*
X25329Y-39400D01*
X25216Y-39344D01*
X25160Y-39288D01*
X25104Y-39175D01*
X25048Y-38950D01*
X25048Y-38669D01*
X25104Y-38444D01*
X25160Y-38332D01*
X25216Y-38275D01*
X25329Y-38219D01*
X26172Y-38219D02*
X26172Y-38444D01*
X26622Y-38219D02*
X26622Y-38444D01*
X28366Y-39850D02*
X28310Y-39794D01*
X28197Y-39625D01*
X28141Y-39513D01*
X28085Y-39344D01*
X28028Y-39063D01*
X28028Y-38838D01*
X28085Y-38557D01*
X28141Y-38388D01*
X28197Y-38275D01*
X28310Y-38107D01*
X28366Y-38050D01*
X29435Y-39400D02*
X28760Y-39400D01*
X29097Y-39400D02*
X29097Y-38219D01*
X28985Y-38388D01*
X28872Y-38500D01*
X28760Y-38557D01*
X29828Y-38219D02*
X30559Y-38219D01*
X30166Y-38669D01*
X30334Y-38669D01*
X30447Y-38725D01*
X30503Y-38782D01*
X30559Y-38894D01*
X30559Y-39175D01*
X30503Y-39288D01*
X30447Y-39344D01*
X30334Y-39400D01*
X29997Y-39400D01*
X29885Y-39344D01*
X29828Y-39288D01*
X31684Y-39400D02*
X31009Y-39400D01*
X31347Y-39400D02*
X31347Y-38219D01*
X31234Y-38388D01*
X31122Y-38500D01*
X31009Y-38557D01*
X33090Y-39400D02*
X33090Y-38219D01*
X33597Y-39400D02*
X33597Y-38782D01*
X33540Y-38669D01*
X33428Y-38613D01*
X33259Y-38613D01*
X33147Y-38669D01*
X33090Y-38725D01*
X34328Y-39400D02*
X34215Y-39344D01*
X34159Y-39288D01*
X34103Y-39175D01*
X34103Y-38838D01*
X34159Y-38725D01*
X34215Y-38669D01*
X34328Y-38613D01*
X34496Y-38613D01*
X34609Y-38669D01*
X34665Y-38725D01*
X34721Y-38838D01*
X34721Y-39175D01*
X34665Y-39288D01*
X34609Y-39344D01*
X34496Y-39400D01*
X34328Y-39400D01*
X35396Y-39400D02*
X35284Y-39344D01*
X35228Y-39231D01*
X35228Y-38219D01*
X36296Y-39344D02*
X36184Y-39400D01*
X35959Y-39400D01*
X35846Y-39344D01*
X35790Y-39231D01*
X35790Y-38782D01*
X35846Y-38669D01*
X35959Y-38613D01*
X36184Y-38613D01*
X36296Y-38669D01*
X36352Y-38782D01*
X36352Y-38894D01*
X35790Y-39007D01*
X36802Y-39344D02*
X36915Y-39400D01*
X37140Y-39400D01*
X37252Y-39344D01*
X37309Y-39231D01*
X37309Y-39175D01*
X37252Y-39063D01*
X37140Y-39007D01*
X36971Y-39007D01*
X36859Y-38950D01*
X36802Y-38838D01*
X36802Y-38782D01*
X36859Y-38669D01*
X36971Y-38613D01*
X37140Y-38613D01*
X37252Y-38669D01*
X37702Y-39850D02*
X37759Y-39794D01*
X37871Y-39625D01*
X37927Y-39513D01*
X37983Y-39344D01*
X38040Y-39063D01*
X38040Y-38838D01*
X37983Y-38557D01*
X37927Y-38388D01*
X37871Y-38275D01*
X37759Y-38107D01*
X37702Y-38050D01*
G54D11*
X9907Y-40644D02*
X9907Y-40319D01*
X9582Y-40319D01*
X9582Y-40644D01*
X9907Y-40644D01*
G54D12*
X11662Y-40959D02*
X10987Y-40959D01*
X11324Y-40959D02*
X11324Y-39778D01*
X11212Y-39947D01*
X11099Y-40059D01*
X10987Y-40116D01*
X12168Y-40847D02*
X12224Y-40903D01*
X12168Y-40959D01*
X12112Y-40903D01*
X12168Y-40847D01*
X12168Y-40959D01*
X13349Y-40959D02*
X12674Y-40959D01*
X13012Y-40959D02*
X13012Y-39778D01*
X12899Y-39947D01*
X12787Y-40059D01*
X12674Y-40116D01*
X13743Y-39778D02*
X14530Y-39778D01*
X14024Y-40959D01*
X14980Y-40959D02*
X14980Y-40172D01*
X14980Y-40284D02*
X15036Y-40228D01*
X15149Y-40172D01*
X15318Y-40172D01*
X15430Y-40228D01*
X15486Y-40341D01*
X15486Y-40959D01*
X15486Y-40341D02*
X15543Y-40228D01*
X15655Y-40172D01*
X15824Y-40172D01*
X15936Y-40228D01*
X15992Y-40341D01*
X15992Y-40959D01*
X16555Y-40959D02*
X16555Y-40172D01*
X16555Y-40284D02*
X16611Y-40228D01*
X16724Y-40172D01*
X16892Y-40172D01*
X17005Y-40228D01*
X17061Y-40341D01*
X17061Y-40959D01*
X17061Y-40341D02*
X17117Y-40228D01*
X17230Y-40172D01*
X17399Y-40172D01*
X17511Y-40228D01*
X17567Y-40341D01*
X17567Y-40959D01*
X19873Y-39722D02*
X18861Y-41240D01*
X21392Y-39778D02*
X21504Y-39778D01*
X21617Y-39834D01*
X21673Y-39891D01*
X21729Y-40003D01*
X21786Y-40228D01*
X21786Y-40509D01*
X21729Y-40734D01*
X21673Y-40847D01*
X21617Y-40903D01*
X21504Y-40959D01*
X21392Y-40959D01*
X21279Y-40903D01*
X21223Y-40847D01*
X21167Y-40734D01*
X21111Y-40509D01*
X21111Y-40228D01*
X21167Y-40003D01*
X21223Y-39891D01*
X21279Y-39834D01*
X21392Y-39778D01*
X22292Y-40847D02*
X22348Y-40903D01*
X22292Y-40959D01*
X22235Y-40903D01*
X22292Y-40847D01*
X22292Y-40959D01*
X23079Y-39778D02*
X23192Y-39778D01*
X23304Y-39834D01*
X23360Y-39891D01*
X23417Y-40003D01*
X23473Y-40228D01*
X23473Y-40509D01*
X23417Y-40734D01*
X23360Y-40847D01*
X23304Y-40903D01*
X23192Y-40959D01*
X23079Y-40959D01*
X22967Y-40903D01*
X22910Y-40847D01*
X22854Y-40734D01*
X22798Y-40509D01*
X22798Y-40228D01*
X22854Y-40003D01*
X22910Y-39891D01*
X22967Y-39834D01*
X23079Y-39778D01*
X24485Y-40172D02*
X24485Y-40959D01*
X24204Y-39722D02*
X23923Y-40566D01*
X24654Y-40566D01*
X25610Y-39778D02*
X25385Y-39778D01*
X25273Y-39834D01*
X25216Y-39891D01*
X25104Y-40059D01*
X25048Y-40284D01*
X25048Y-40734D01*
X25104Y-40847D01*
X25160Y-40903D01*
X25273Y-40959D01*
X25498Y-40959D01*
X25610Y-40903D01*
X25666Y-40847D01*
X25723Y-40734D01*
X25723Y-40453D01*
X25666Y-40341D01*
X25610Y-40284D01*
X25498Y-40228D01*
X25273Y-40228D01*
X25160Y-40284D01*
X25104Y-40341D01*
X25048Y-40453D01*
X26172Y-39778D02*
X26172Y-40003D01*
X26622Y-39778D02*
X26622Y-40003D01*
X28366Y-41409D02*
X28310Y-41353D01*
X28197Y-41184D01*
X28141Y-41072D01*
X28085Y-40903D01*
X28028Y-40622D01*
X28028Y-40397D01*
X28085Y-40116D01*
X28141Y-39947D01*
X28197Y-39834D01*
X28310Y-39666D01*
X28366Y-39609D01*
X29041Y-39778D02*
X29153Y-39778D01*
X29266Y-39834D01*
X29322Y-39891D01*
X29378Y-40003D01*
X29435Y-40228D01*
X29435Y-40509D01*
X29378Y-40734D01*
X29322Y-40847D01*
X29266Y-40903D01*
X29153Y-40959D01*
X29041Y-40959D01*
X28928Y-40903D01*
X28872Y-40847D01*
X28816Y-40734D01*
X28760Y-40509D01*
X28760Y-40228D01*
X28816Y-40003D01*
X28872Y-39891D01*
X28928Y-39834D01*
X29041Y-39778D01*
X30841Y-40959D02*
X30841Y-39778D01*
X31347Y-40959D02*
X31347Y-40341D01*
X31291Y-40228D01*
X31178Y-40172D01*
X31009Y-40172D01*
X30897Y-40228D01*
X30841Y-40284D01*
X32078Y-40959D02*
X31966Y-40903D01*
X31909Y-40847D01*
X31853Y-40734D01*
X31853Y-40397D01*
X31909Y-40284D01*
X31966Y-40228D01*
X32078Y-40172D01*
X32247Y-40172D01*
X32359Y-40228D01*
X32415Y-40284D01*
X32472Y-40397D01*
X32472Y-40734D01*
X32415Y-40847D01*
X32359Y-40903D01*
X32247Y-40959D01*
X32078Y-40959D01*
X33147Y-40959D02*
X33034Y-40903D01*
X32978Y-40791D01*
X32978Y-39778D01*
X34046Y-40903D02*
X33934Y-40959D01*
X33709Y-40959D01*
X33597Y-40903D01*
X33540Y-40791D01*
X33540Y-40341D01*
X33597Y-40228D01*
X33709Y-40172D01*
X33934Y-40172D01*
X34046Y-40228D01*
X34103Y-40341D01*
X34103Y-40453D01*
X33540Y-40566D01*
X34553Y-40903D02*
X34665Y-40959D01*
X34890Y-40959D01*
X35003Y-40903D01*
X35059Y-40791D01*
X35059Y-40734D01*
X35003Y-40622D01*
X34890Y-40566D01*
X34721Y-40566D01*
X34609Y-40509D01*
X34553Y-40397D01*
X34553Y-40341D01*
X34609Y-40228D01*
X34721Y-40172D01*
X34890Y-40172D01*
X35003Y-40228D01*
X36465Y-40509D02*
X37365Y-40509D01*
X36915Y-40959D02*
X36915Y-40059D01*
X38715Y-39778D02*
X39446Y-39778D01*
X39052Y-40228D01*
X39221Y-40228D01*
X39333Y-40284D01*
X39390Y-40341D01*
X39446Y-40453D01*
X39446Y-40734D01*
X39390Y-40847D01*
X39333Y-40903D01*
X39221Y-40959D01*
X38883Y-40959D01*
X38771Y-40903D01*
X38715Y-40847D01*
X40796Y-40903D02*
X40908Y-40959D01*
X41133Y-40959D01*
X41246Y-40903D01*
X41302Y-40791D01*
X41302Y-40734D01*
X41246Y-40622D01*
X41133Y-40566D01*
X40964Y-40566D01*
X40852Y-40509D01*
X40796Y-40397D01*
X40796Y-40341D01*
X40852Y-40228D01*
X40964Y-40172D01*
X41133Y-40172D01*
X41246Y-40228D01*
X41977Y-40959D02*
X41864Y-40903D01*
X41808Y-40791D01*
X41808Y-39778D01*
X42595Y-40959D02*
X42483Y-40903D01*
X42427Y-40847D01*
X42370Y-40734D01*
X42370Y-40397D01*
X42427Y-40284D01*
X42483Y-40228D01*
X42595Y-40172D01*
X42764Y-40172D01*
X42877Y-40228D01*
X42933Y-40284D01*
X42989Y-40397D01*
X42989Y-40734D01*
X42933Y-40847D01*
X42877Y-40903D01*
X42764Y-40959D01*
X42595Y-40959D01*
X43327Y-40172D02*
X43777Y-40172D01*
X43495Y-39778D02*
X43495Y-40791D01*
X43552Y-40903D01*
X43664Y-40959D01*
X43777Y-40959D01*
X44114Y-40903D02*
X44226Y-40959D01*
X44451Y-40959D01*
X44564Y-40903D01*
X44620Y-40791D01*
X44620Y-40734D01*
X44564Y-40622D01*
X44451Y-40566D01*
X44283Y-40566D01*
X44170Y-40509D01*
X44114Y-40397D01*
X44114Y-40341D01*
X44170Y-40228D01*
X44283Y-40172D01*
X44451Y-40172D01*
X44564Y-40228D01*
X45014Y-41409D02*
X45070Y-41353D01*
X45183Y-41184D01*
X45239Y-41072D01*
X45295Y-40903D01*
X45351Y-40622D01*
X45351Y-40397D01*
X45295Y-40116D01*
X45239Y-39947D01*
X45183Y-39834D01*
X45070Y-39666D01*
X45014Y-39609D01*
G54D11*
X9724Y-42290D02*
X9974Y-42040D01*
X9724Y-41790D01*
X9474Y-42040D01*
X9724Y-42290D01*
G54D12*
X11662Y-42518D02*
X10987Y-42518D01*
X11324Y-42518D02*
X11324Y-41337D01*
X11212Y-41506D01*
X11099Y-41618D01*
X10987Y-41675D01*
X12168Y-42406D02*
X12224Y-42462D01*
X12168Y-42518D01*
X12112Y-42462D01*
X12168Y-42406D01*
X12168Y-42518D01*
X12674Y-41450D02*
X12730Y-41393D01*
X12843Y-41337D01*
X13124Y-41337D01*
X13237Y-41393D01*
X13293Y-41450D01*
X13349Y-41562D01*
X13349Y-41675D01*
X13293Y-41843D01*
X12618Y-42518D01*
X13349Y-42518D01*
X13743Y-41337D02*
X14530Y-41337D01*
X14024Y-42518D01*
X14980Y-42518D02*
X14980Y-41731D01*
X14980Y-41843D02*
X15036Y-41787D01*
X15149Y-41731D01*
X15318Y-41731D01*
X15430Y-41787D01*
X15486Y-41900D01*
X15486Y-42518D01*
X15486Y-41900D02*
X15543Y-41787D01*
X15655Y-41731D01*
X15824Y-41731D01*
X15936Y-41787D01*
X15992Y-41900D01*
X15992Y-42518D01*
X16555Y-42518D02*
X16555Y-41731D01*
X16555Y-41843D02*
X16611Y-41787D01*
X16724Y-41731D01*
X16892Y-41731D01*
X17005Y-41787D01*
X17061Y-41900D01*
X17061Y-42518D01*
X17061Y-41900D02*
X17117Y-41787D01*
X17230Y-41731D01*
X17399Y-41731D01*
X17511Y-41787D01*
X17567Y-41900D01*
X17567Y-42518D01*
X19873Y-41281D02*
X18861Y-42800D01*
X21392Y-41337D02*
X21504Y-41337D01*
X21617Y-41393D01*
X21673Y-41450D01*
X21729Y-41562D01*
X21786Y-41787D01*
X21786Y-42068D01*
X21729Y-42293D01*
X21673Y-42406D01*
X21617Y-42462D01*
X21504Y-42518D01*
X21392Y-42518D01*
X21279Y-42462D01*
X21223Y-42406D01*
X21167Y-42293D01*
X21111Y-42068D01*
X21111Y-41787D01*
X21167Y-41562D01*
X21223Y-41450D01*
X21279Y-41393D01*
X21392Y-41337D01*
X22292Y-42406D02*
X22348Y-42462D01*
X22292Y-42518D01*
X22235Y-42462D01*
X22292Y-42406D01*
X22292Y-42518D01*
X23079Y-41337D02*
X23192Y-41337D01*
X23304Y-41393D01*
X23360Y-41450D01*
X23417Y-41562D01*
X23473Y-41787D01*
X23473Y-42068D01*
X23417Y-42293D01*
X23360Y-42406D01*
X23304Y-42462D01*
X23192Y-42518D01*
X23079Y-42518D01*
X22967Y-42462D01*
X22910Y-42406D01*
X22854Y-42293D01*
X22798Y-42068D01*
X22798Y-41787D01*
X22854Y-41562D01*
X22910Y-41450D01*
X22967Y-41393D01*
X23079Y-41337D01*
X24541Y-41337D02*
X23979Y-41337D01*
X23923Y-41900D01*
X23979Y-41843D01*
X24091Y-41787D01*
X24373Y-41787D01*
X24485Y-41843D01*
X24541Y-41900D01*
X24598Y-42012D01*
X24598Y-42293D01*
X24541Y-42406D01*
X24485Y-42462D01*
X24373Y-42518D01*
X24091Y-42518D01*
X23979Y-42462D01*
X23923Y-42406D01*
X25329Y-41337D02*
X25441Y-41337D01*
X25554Y-41393D01*
X25610Y-41450D01*
X25666Y-41562D01*
X25723Y-41787D01*
X25723Y-42068D01*
X25666Y-42293D01*
X25610Y-42406D01*
X25554Y-42462D01*
X25441Y-42518D01*
X25329Y-42518D01*
X25216Y-42462D01*
X25160Y-42406D01*
X25104Y-42293D01*
X25048Y-42068D01*
X25048Y-41787D01*
X25104Y-41562D01*
X25160Y-41450D01*
X25216Y-41393D01*
X25329Y-41337D01*
X26172Y-41337D02*
X26172Y-41562D01*
X26622Y-41337D02*
X26622Y-41562D01*
X28366Y-42968D02*
X28310Y-42912D01*
X28197Y-42743D01*
X28141Y-42631D01*
X28085Y-42462D01*
X28028Y-42181D01*
X28028Y-41956D01*
X28085Y-41675D01*
X28141Y-41506D01*
X28197Y-41393D01*
X28310Y-41225D01*
X28366Y-41168D01*
X28760Y-41450D02*
X28816Y-41393D01*
X28928Y-41337D01*
X29210Y-41337D01*
X29322Y-41393D01*
X29378Y-41450D01*
X29435Y-41562D01*
X29435Y-41675D01*
X29378Y-41843D01*
X28703Y-42518D01*
X29435Y-42518D01*
X30841Y-42518D02*
X30841Y-41337D01*
X31347Y-42518D02*
X31347Y-41900D01*
X31291Y-41787D01*
X31178Y-41731D01*
X31009Y-41731D01*
X30897Y-41787D01*
X30841Y-41843D01*
X32078Y-42518D02*
X31966Y-42462D01*
X31909Y-42406D01*
X31853Y-42293D01*
X31853Y-41956D01*
X31909Y-41843D01*
X31966Y-41787D01*
X32078Y-41731D01*
X32247Y-41731D01*
X32359Y-41787D01*
X32415Y-41843D01*
X32472Y-41956D01*
X32472Y-42293D01*
X32415Y-42406D01*
X32359Y-42462D01*
X32247Y-42518D01*
X32078Y-42518D01*
X33147Y-42518D02*
X33034Y-42462D01*
X32978Y-42350D01*
X32978Y-41337D01*
X34046Y-42462D02*
X33934Y-42518D01*
X33709Y-42518D01*
X33597Y-42462D01*
X33540Y-42350D01*
X33540Y-41900D01*
X33597Y-41787D01*
X33709Y-41731D01*
X33934Y-41731D01*
X34046Y-41787D01*
X34103Y-41900D01*
X34103Y-42012D01*
X33540Y-42125D01*
X34553Y-42462D02*
X34665Y-42518D01*
X34890Y-42518D01*
X35003Y-42462D01*
X35059Y-42350D01*
X35059Y-42293D01*
X35003Y-42181D01*
X34890Y-42125D01*
X34721Y-42125D01*
X34609Y-42068D01*
X34553Y-41956D01*
X34553Y-41900D01*
X34609Y-41787D01*
X34721Y-41731D01*
X34890Y-41731D01*
X35003Y-41787D01*
X35453Y-42968D02*
X35509Y-42912D01*
X35621Y-42743D01*
X35678Y-42631D01*
X35734Y-42462D01*
X35790Y-42181D01*
X35790Y-41956D01*
X35734Y-41675D01*
X35678Y-41506D01*
X35621Y-41393D01*
X35509Y-41225D01*
X35453Y-41168D01*
X9174Y-43199D02*
X9974Y-43999D01*
X9974Y-43199D02*
X9174Y-43999D01*
G54D11*
X9974Y-43599D02*
G75*
G03X9974Y-43599I-400J0D01*
G74*
G01*
G54D12*
X10987Y-43009D02*
X11043Y-42953D01*
X11156Y-42896D01*
X11437Y-42896D01*
X11549Y-42953D01*
X11606Y-43009D01*
X11662Y-43121D01*
X11662Y-43234D01*
X11606Y-43402D01*
X10931Y-44077D01*
X11662Y-44077D01*
X12168Y-43965D02*
X12224Y-44021D01*
X12168Y-44077D01*
X12112Y-44021D01*
X12168Y-43965D01*
X12168Y-44077D01*
X12955Y-42896D02*
X13068Y-42896D01*
X13180Y-42953D01*
X13237Y-43009D01*
X13293Y-43121D01*
X13349Y-43346D01*
X13349Y-43627D01*
X13293Y-43852D01*
X13237Y-43965D01*
X13180Y-44021D01*
X13068Y-44077D01*
X12955Y-44077D01*
X12843Y-44021D01*
X12787Y-43965D01*
X12730Y-43852D01*
X12674Y-43627D01*
X12674Y-43346D01*
X12730Y-43121D01*
X12787Y-43009D01*
X12843Y-42953D01*
X12955Y-42896D01*
X13743Y-42896D02*
X14474Y-42896D01*
X14080Y-43346D01*
X14249Y-43346D01*
X14361Y-43402D01*
X14418Y-43459D01*
X14474Y-43571D01*
X14474Y-43852D01*
X14418Y-43965D01*
X14361Y-44021D01*
X14249Y-44077D01*
X13912Y-44077D01*
X13799Y-44021D01*
X13743Y-43965D01*
X14980Y-44077D02*
X14980Y-43290D01*
X14980Y-43402D02*
X15036Y-43346D01*
X15149Y-43290D01*
X15318Y-43290D01*
X15430Y-43346D01*
X15486Y-43459D01*
X15486Y-44077D01*
X15486Y-43459D02*
X15543Y-43346D01*
X15655Y-43290D01*
X15824Y-43290D01*
X15936Y-43346D01*
X15992Y-43459D01*
X15992Y-44077D01*
X16555Y-44077D02*
X16555Y-43290D01*
X16555Y-43402D02*
X16611Y-43346D01*
X16724Y-43290D01*
X16892Y-43290D01*
X17005Y-43346D01*
X17061Y-43459D01*
X17061Y-44077D01*
X17061Y-43459D02*
X17117Y-43346D01*
X17230Y-43290D01*
X17399Y-43290D01*
X17511Y-43346D01*
X17567Y-43459D01*
X17567Y-44077D01*
X19873Y-42840D02*
X18861Y-44359D01*
X21392Y-42896D02*
X21504Y-42896D01*
X21617Y-42953D01*
X21673Y-43009D01*
X21729Y-43121D01*
X21786Y-43346D01*
X21786Y-43627D01*
X21729Y-43852D01*
X21673Y-43965D01*
X21617Y-44021D01*
X21504Y-44077D01*
X21392Y-44077D01*
X21279Y-44021D01*
X21223Y-43965D01*
X21167Y-43852D01*
X21111Y-43627D01*
X21111Y-43346D01*
X21167Y-43121D01*
X21223Y-43009D01*
X21279Y-42953D01*
X21392Y-42896D01*
X22292Y-43965D02*
X22348Y-44021D01*
X22292Y-44077D01*
X22235Y-44021D01*
X22292Y-43965D01*
X22292Y-44077D01*
X23079Y-42896D02*
X23192Y-42896D01*
X23304Y-42953D01*
X23360Y-43009D01*
X23417Y-43121D01*
X23473Y-43346D01*
X23473Y-43627D01*
X23417Y-43852D01*
X23360Y-43965D01*
X23304Y-44021D01*
X23192Y-44077D01*
X23079Y-44077D01*
X22967Y-44021D01*
X22910Y-43965D01*
X22854Y-43852D01*
X22798Y-43627D01*
X22798Y-43346D01*
X22854Y-43121D01*
X22910Y-43009D01*
X22967Y-42953D01*
X23079Y-42896D01*
X24148Y-43402D02*
X24035Y-43346D01*
X23979Y-43290D01*
X23923Y-43177D01*
X23923Y-43121D01*
X23979Y-43009D01*
X24035Y-42953D01*
X24148Y-42896D01*
X24373Y-42896D01*
X24485Y-42953D01*
X24541Y-43009D01*
X24598Y-43121D01*
X24598Y-43177D01*
X24541Y-43290D01*
X24485Y-43346D01*
X24373Y-43402D01*
X24148Y-43402D01*
X24035Y-43459D01*
X23979Y-43515D01*
X23923Y-43627D01*
X23923Y-43852D01*
X23979Y-43965D01*
X24035Y-44021D01*
X24148Y-44077D01*
X24373Y-44077D01*
X24485Y-44021D01*
X24541Y-43965D01*
X24598Y-43852D01*
X24598Y-43627D01*
X24541Y-43515D01*
X24485Y-43459D01*
X24373Y-43402D01*
X25329Y-42896D02*
X25441Y-42896D01*
X25554Y-42953D01*
X25610Y-43009D01*
X25666Y-43121D01*
X25723Y-43346D01*
X25723Y-43627D01*
X25666Y-43852D01*
X25610Y-43965D01*
X25554Y-44021D01*
X25441Y-44077D01*
X25329Y-44077D01*
X25216Y-44021D01*
X25160Y-43965D01*
X25104Y-43852D01*
X25048Y-43627D01*
X25048Y-43346D01*
X25104Y-43121D01*
X25160Y-43009D01*
X25216Y-42953D01*
X25329Y-42896D01*
X26172Y-42896D02*
X26172Y-43121D01*
X26622Y-42896D02*
X26622Y-43121D01*
X28366Y-44527D02*
X28310Y-44471D01*
X28197Y-44302D01*
X28141Y-44190D01*
X28085Y-44021D01*
X28028Y-43740D01*
X28028Y-43515D01*
X28085Y-43234D01*
X28141Y-43065D01*
X28197Y-42953D01*
X28310Y-42784D01*
X28366Y-42728D01*
X29435Y-44077D02*
X28760Y-44077D01*
X29097Y-44077D02*
X29097Y-42896D01*
X28985Y-43065D01*
X28872Y-43177D01*
X28760Y-43234D01*
X30841Y-44077D02*
X30841Y-42896D01*
X31347Y-44077D02*
X31347Y-43459D01*
X31291Y-43346D01*
X31178Y-43290D01*
X31009Y-43290D01*
X30897Y-43346D01*
X30841Y-43402D01*
X32078Y-44077D02*
X31966Y-44021D01*
X31909Y-43965D01*
X31853Y-43852D01*
X31853Y-43515D01*
X31909Y-43402D01*
X31966Y-43346D01*
X32078Y-43290D01*
X32247Y-43290D01*
X32359Y-43346D01*
X32415Y-43402D01*
X32472Y-43515D01*
X32472Y-43852D01*
X32415Y-43965D01*
X32359Y-44021D01*
X32247Y-44077D01*
X32078Y-44077D01*
X33147Y-44077D02*
X33034Y-44021D01*
X32978Y-43909D01*
X32978Y-42896D01*
X34046Y-44021D02*
X33934Y-44077D01*
X33709Y-44077D01*
X33597Y-44021D01*
X33540Y-43909D01*
X33540Y-43459D01*
X33597Y-43346D01*
X33709Y-43290D01*
X33934Y-43290D01*
X34046Y-43346D01*
X34103Y-43459D01*
X34103Y-43571D01*
X33540Y-43684D01*
X34496Y-44527D02*
X34553Y-44471D01*
X34665Y-44302D01*
X34721Y-44190D01*
X34778Y-44021D01*
X34834Y-43740D01*
X34834Y-43515D01*
X34778Y-43234D01*
X34721Y-43065D01*
X34665Y-42953D01*
X34553Y-42784D01*
X34496Y-42728D01*
X8774Y-44558D02*
X9974Y-45758D01*
X9974Y-44558D02*
X8774Y-45758D01*
X9374Y-44558D02*
X9374Y-45758D01*
X8774Y-45158D02*
X9974Y-45158D01*
X10931Y-44455D02*
X11662Y-44455D01*
X11268Y-44905D01*
X11437Y-44905D01*
X11549Y-44962D01*
X11606Y-45018D01*
X11662Y-45130D01*
X11662Y-45411D01*
X11606Y-45524D01*
X11549Y-45580D01*
X11437Y-45636D01*
X11099Y-45636D01*
X10987Y-45580D01*
X10931Y-45524D01*
X12168Y-45524D02*
X12224Y-45580D01*
X12168Y-45636D01*
X12112Y-45580D01*
X12168Y-45524D01*
X12168Y-45636D01*
X12955Y-44455D02*
X13068Y-44455D01*
X13180Y-44512D01*
X13237Y-44568D01*
X13293Y-44680D01*
X13349Y-44905D01*
X13349Y-45186D01*
X13293Y-45411D01*
X13237Y-45524D01*
X13180Y-45580D01*
X13068Y-45636D01*
X12955Y-45636D01*
X12843Y-45580D01*
X12787Y-45524D01*
X12730Y-45411D01*
X12674Y-45186D01*
X12674Y-44905D01*
X12730Y-44680D01*
X12787Y-44568D01*
X12843Y-44512D01*
X12955Y-44455D01*
X14418Y-44455D02*
X13855Y-44455D01*
X13799Y-45018D01*
X13855Y-44962D01*
X13968Y-44905D01*
X14249Y-44905D01*
X14361Y-44962D01*
X14418Y-45018D01*
X14474Y-45130D01*
X14474Y-45411D01*
X14418Y-45524D01*
X14361Y-45580D01*
X14249Y-45636D01*
X13968Y-45636D01*
X13855Y-45580D01*
X13799Y-45524D01*
X14980Y-45636D02*
X14980Y-44849D01*
X14980Y-44962D02*
X15036Y-44905D01*
X15149Y-44849D01*
X15318Y-44849D01*
X15430Y-44905D01*
X15486Y-45018D01*
X15486Y-45636D01*
X15486Y-45018D02*
X15543Y-44905D01*
X15655Y-44849D01*
X15824Y-44849D01*
X15936Y-44905D01*
X15992Y-45018D01*
X15992Y-45636D01*
X16555Y-45636D02*
X16555Y-44849D01*
X16555Y-44962D02*
X16611Y-44905D01*
X16724Y-44849D01*
X16892Y-44849D01*
X17005Y-44905D01*
X17061Y-45018D01*
X17061Y-45636D01*
X17061Y-45018D02*
X17117Y-44905D01*
X17230Y-44849D01*
X17399Y-44849D01*
X17511Y-44905D01*
X17567Y-45018D01*
X17567Y-45636D01*
X19873Y-44399D02*
X18861Y-45918D01*
X21392Y-44455D02*
X21504Y-44455D01*
X21617Y-44512D01*
X21673Y-44568D01*
X21729Y-44680D01*
X21786Y-44905D01*
X21786Y-45186D01*
X21729Y-45411D01*
X21673Y-45524D01*
X21617Y-45580D01*
X21504Y-45636D01*
X21392Y-45636D01*
X21279Y-45580D01*
X21223Y-45524D01*
X21167Y-45411D01*
X21111Y-45186D01*
X21111Y-44905D01*
X21167Y-44680D01*
X21223Y-44568D01*
X21279Y-44512D01*
X21392Y-44455D01*
X22292Y-45524D02*
X22348Y-45580D01*
X22292Y-45636D01*
X22235Y-45580D01*
X22292Y-45524D01*
X22292Y-45636D01*
X23473Y-45636D02*
X22798Y-45636D01*
X23135Y-45636D02*
X23135Y-44455D01*
X23023Y-44624D01*
X22910Y-44737D01*
X22798Y-44793D01*
X23923Y-44568D02*
X23979Y-44512D01*
X24091Y-44455D01*
X24373Y-44455D01*
X24485Y-44512D01*
X24541Y-44568D01*
X24598Y-44680D01*
X24598Y-44793D01*
X24541Y-44962D01*
X23867Y-45636D01*
X24598Y-45636D01*
X25329Y-44455D02*
X25441Y-44455D01*
X25554Y-44512D01*
X25610Y-44568D01*
X25666Y-44680D01*
X25723Y-44905D01*
X25723Y-45186D01*
X25666Y-45411D01*
X25610Y-45524D01*
X25554Y-45580D01*
X25441Y-45636D01*
X25329Y-45636D01*
X25216Y-45580D01*
X25160Y-45524D01*
X25104Y-45411D01*
X25048Y-45186D01*
X25048Y-44905D01*
X25104Y-44680D01*
X25160Y-44568D01*
X25216Y-44512D01*
X25329Y-44455D01*
X26172Y-44455D02*
X26172Y-44680D01*
X26622Y-44455D02*
X26622Y-44680D01*
X28366Y-46086D02*
X28310Y-46030D01*
X28197Y-45861D01*
X28141Y-45749D01*
X28085Y-45580D01*
X28028Y-45299D01*
X28028Y-45074D01*
X28085Y-44793D01*
X28141Y-44624D01*
X28197Y-44512D01*
X28310Y-44343D01*
X28366Y-44287D01*
X29435Y-45636D02*
X28760Y-45636D01*
X29097Y-45636D02*
X29097Y-44455D01*
X28985Y-44624D01*
X28872Y-44737D01*
X28760Y-44793D01*
X30841Y-45636D02*
X30841Y-44455D01*
X31347Y-45636D02*
X31347Y-45018D01*
X31291Y-44905D01*
X31178Y-44849D01*
X31009Y-44849D01*
X30897Y-44905D01*
X30841Y-44962D01*
X32078Y-45636D02*
X31966Y-45580D01*
X31909Y-45524D01*
X31853Y-45411D01*
X31853Y-45074D01*
X31909Y-44962D01*
X31966Y-44905D01*
X32078Y-44849D01*
X32247Y-44849D01*
X32359Y-44905D01*
X32415Y-44962D01*
X32472Y-45074D01*
X32472Y-45411D01*
X32415Y-45524D01*
X32359Y-45580D01*
X32247Y-45636D01*
X32078Y-45636D01*
X33147Y-45636D02*
X33034Y-45580D01*
X32978Y-45468D01*
X32978Y-44455D01*
X34046Y-45580D02*
X33934Y-45636D01*
X33709Y-45636D01*
X33597Y-45580D01*
X33540Y-45468D01*
X33540Y-45018D01*
X33597Y-44905D01*
X33709Y-44849D01*
X33934Y-44849D01*
X34046Y-44905D01*
X34103Y-45018D01*
X34103Y-45130D01*
X33540Y-45243D01*
X34496Y-46086D02*
X34553Y-46030D01*
X34665Y-45861D01*
X34721Y-45749D01*
X34778Y-45580D01*
X34834Y-45299D01*
X34834Y-45074D01*
X34778Y-44793D01*
X34721Y-44624D01*
X34665Y-44512D01*
X34553Y-44343D01*
X34496Y-44287D01*
M02*
