G04 (created by PCBNEW (2013-03-15 BZR 4003)-stable) date 13-Apr-13 4:02:36 PM*
%MOIN*%
G04 Gerber Fmt 3.4, Leading zero omitted, Abs format*
%FSLAX34Y34*%
G01*
G70*
G90*
G04 APERTURE LIST*
%ADD10C,0.006*%
%ADD11C,0.005*%
%ADD12R,0.0394X0.0236*%
%ADD13R,0.0394X0.0315*%
%ADD14R,0.042X0.056*%
%ADD15R,0.056X0.042*%
%ADD16R,0.059X0.0512*%
%ADD17R,0.0512X0.059*%
%ADD18R,0.0472X0.0315*%
%ADD19C,0.04*%
%ADD20R,0.06X0.06*%
%ADD21C,0.06*%
%ADD22R,0.0787X0.0177*%
%ADD23R,0.0177X0.0787*%
%ADD24C,0.4*%
%ADD25C,0.07*%
%ADD26R,0.07X0.07*%
%ADD27O,0.06X0.1*%
%ADD28C,0.155*%
%ADD29C,0.1*%
%ADD30R,0.054X0.016*%
%ADD31R,0.056X0.063*%
%ADD32R,0.075X0.075*%
%ADD33C,0.075*%
%ADD34R,0.03X0.03*%
%ADD35R,0.08X0.024*%
%ADD36R,0.06X0.03*%
%ADD37R,0.06X0.04*%
%ADD38R,0.08X0.06*%
%ADD39C,0.045*%
%ADD40R,0.0354X0.0394*%
%ADD41R,0.11811X0.0984252*%
%ADD42O,0.12X0.18*%
%ADD43R,0.12X0.18*%
%ADD44O,0.18X0.12*%
%ADD45R,0.0944882X0.0787402*%
%ADD46R,0.0590551X0.019685*%
%ADD47R,0.3X0.1*%
%ADD48R,0.02X0.05*%
%ADD49R,0.225X0.225*%
%ADD50C,0.6*%
%ADD51R,0.1337X0.059*%
%ADD52R,0.1377X0.0392*%
G04 APERTURE END LIST*
G54D10*
G54D11*
X21475Y-19000D02*
X17500Y-19000D01*
X24575Y-19000D02*
X42500Y-19000D01*
X24025Y-19550D02*
X24575Y-19000D01*
X23025Y-19550D02*
X24025Y-19550D01*
X22025Y-19550D02*
X21475Y-19000D01*
X23025Y-19550D02*
X22025Y-19550D01*
X47500Y-40000D02*
G75*
G03X50000Y-37500I0J2500D01*
G74*
G01*
X42500Y-45000D02*
G75*
G03X45000Y-42500I0J2500D01*
G74*
G01*
X47500Y-40000D02*
G75*
G03X45000Y-42500I0J-2500D01*
G74*
G01*
X15000Y-42500D02*
G75*
G03X17500Y-45000I2500J0D01*
G74*
G01*
X10000Y-37500D02*
G75*
G03X12500Y-40000I2500J0D01*
G74*
G01*
X15000Y-42500D02*
G75*
G03X12500Y-40000I-2500J0D01*
G74*
G01*
X42500Y-19000D02*
G75*
G03X45000Y-16500I0J2500D01*
G74*
G01*
X50000Y-16500D02*
G75*
G03X47500Y-14000I-2500J0D01*
G74*
G01*
X47500Y-14000D02*
G75*
G03X45000Y-16500I0J-2500D01*
G74*
G01*
X15000Y-16500D02*
G75*
G03X17500Y-19000I2500J0D01*
G74*
G01*
X15000Y-16500D02*
G75*
G03X12500Y-14000I-2500J0D01*
G74*
G01*
X12500Y-14000D02*
G75*
G03X10000Y-16500I0J-2500D01*
G74*
G01*
X14150Y-38550D02*
X15650Y-38550D01*
X14150Y-27550D02*
X14150Y-38550D01*
X15650Y-27550D02*
X14150Y-27550D01*
X15650Y-38550D02*
X15650Y-27550D01*
X42500Y-45000D02*
X17500Y-45000D01*
X10000Y-37500D02*
X10000Y-16500D01*
X50000Y-16500D02*
X50000Y-37500D01*
G54D12*
X23924Y-38156D03*
X23924Y-37644D03*
X23176Y-37900D03*
X16774Y-26281D03*
X16774Y-25769D03*
X16026Y-26025D03*
X23924Y-35656D03*
X23924Y-35144D03*
X23176Y-35400D03*
X20324Y-40006D03*
X20324Y-39494D03*
X19576Y-39750D03*
X23176Y-36344D03*
X23176Y-36856D03*
X23924Y-36600D03*
X23999Y-40006D03*
X23999Y-39494D03*
X23251Y-39750D03*
X16774Y-25096D03*
X16774Y-24584D03*
X16026Y-24840D03*
G54D13*
X14392Y-25425D03*
X15258Y-25800D03*
X15258Y-25050D03*
G54D14*
X41275Y-25575D03*
X40475Y-25575D03*
X29200Y-34850D03*
X30000Y-34850D03*
X19750Y-34225D03*
X20550Y-34225D03*
X21550Y-30950D03*
X22350Y-30950D03*
X19750Y-33000D03*
X20550Y-33000D03*
X21550Y-32175D03*
X22350Y-32175D03*
X19750Y-28200D03*
X20550Y-28200D03*
X21550Y-29750D03*
X22350Y-29750D03*
X19750Y-30600D03*
X20550Y-30600D03*
X21550Y-28550D03*
X22350Y-28550D03*
X21550Y-33350D03*
X22350Y-33350D03*
X21550Y-37200D03*
X22350Y-37200D03*
X19750Y-31800D03*
X20550Y-31800D03*
X21550Y-36000D03*
X22350Y-36000D03*
X34875Y-28150D03*
X35675Y-28150D03*
X22350Y-34500D03*
X21550Y-34500D03*
X19750Y-36600D03*
X20550Y-36600D03*
X19750Y-37800D03*
X20550Y-37800D03*
X19750Y-29400D03*
X20550Y-29400D03*
G54D15*
X26375Y-36000D03*
X26375Y-36800D03*
G54D16*
X13475Y-26175D03*
X13475Y-25425D03*
X22400Y-39375D03*
X22400Y-40125D03*
X18600Y-40125D03*
X18600Y-39375D03*
G54D17*
X19775Y-35400D03*
X20525Y-35400D03*
G54D16*
X17500Y-39375D03*
X17500Y-40125D03*
X21350Y-39375D03*
X21350Y-40125D03*
G54D17*
X39925Y-28850D03*
X39175Y-28850D03*
G54D16*
X12200Y-23675D03*
X12200Y-24425D03*
G54D15*
X24975Y-36800D03*
X24975Y-36000D03*
G54D14*
X39150Y-29850D03*
X39950Y-29850D03*
X38300Y-36475D03*
X37500Y-36475D03*
G54D15*
X13475Y-24475D03*
X13475Y-23675D03*
G54D14*
X35675Y-30875D03*
X34875Y-30875D03*
X27075Y-31150D03*
X26275Y-31150D03*
G54D15*
X12200Y-25375D03*
X12200Y-26175D03*
X33700Y-29900D03*
X33700Y-29100D03*
G54D18*
X35675Y-29125D03*
X34725Y-29500D03*
X35675Y-29875D03*
G54D17*
X34625Y-40500D03*
X33875Y-40500D03*
X30650Y-40500D03*
X29900Y-40500D03*
X26625Y-40500D03*
X25875Y-40500D03*
X42300Y-40525D03*
X43050Y-40525D03*
G54D19*
X37400Y-32025D03*
X32900Y-30225D03*
G54D20*
X16500Y-41500D03*
X17500Y-41500D03*
G54D21*
X18500Y-41500D03*
X19500Y-41500D03*
X20500Y-41500D03*
X21500Y-41500D03*
G54D15*
X22700Y-41450D03*
X22700Y-42250D03*
G54D22*
X28366Y-28398D03*
X28366Y-28713D03*
X28366Y-29028D03*
X28366Y-29343D03*
X28366Y-29657D03*
X28366Y-29972D03*
X28366Y-30287D03*
X28366Y-30602D03*
X31634Y-30602D03*
X31634Y-28398D03*
X31634Y-28713D03*
X31634Y-29028D03*
X31634Y-29343D03*
X31634Y-29657D03*
X31634Y-29972D03*
X31634Y-30287D03*
G54D23*
X28898Y-31134D03*
X29213Y-31134D03*
X29528Y-31134D03*
X29843Y-31134D03*
X30157Y-31134D03*
X30472Y-31134D03*
X30787Y-31134D03*
X31102Y-31134D03*
X28898Y-27866D03*
X29213Y-27866D03*
X29528Y-27866D03*
X29843Y-27866D03*
X30157Y-27866D03*
X30472Y-27866D03*
X30787Y-27866D03*
X31102Y-27866D03*
G54D24*
X12500Y-16500D03*
G54D25*
X46500Y-29700D03*
X46500Y-30700D03*
X46500Y-31700D03*
G54D26*
X46500Y-32700D03*
G54D19*
X37400Y-31375D03*
X37425Y-34875D03*
X37400Y-34125D03*
G54D24*
X47500Y-16500D03*
G54D27*
X47900Y-39000D03*
X46900Y-39000D03*
G54D21*
X45900Y-39000D03*
X42900Y-39000D03*
X43900Y-39000D03*
X44900Y-39000D03*
G54D27*
X40900Y-39000D03*
X39900Y-39000D03*
X38900Y-39000D03*
G54D21*
X36900Y-39000D03*
G54D27*
X35900Y-39000D03*
X47900Y-20000D03*
X46900Y-20000D03*
G54D21*
X45900Y-20000D03*
X44900Y-20000D03*
X43900Y-20000D03*
X42900Y-20000D03*
X41900Y-20000D03*
X40900Y-20000D03*
X39300Y-20000D03*
X38300Y-20000D03*
G54D27*
X37300Y-20000D03*
G54D21*
X36300Y-20000D03*
X35300Y-20000D03*
X34300Y-20000D03*
G54D27*
X33300Y-20000D03*
X32300Y-20000D03*
G54D21*
X37900Y-39000D03*
G54D28*
X48900Y-37000D03*
X48900Y-26000D03*
X28900Y-20000D03*
X28400Y-39000D03*
G54D21*
X34900Y-39000D03*
X31300Y-20000D03*
X30300Y-20000D03*
X33900Y-39000D03*
G54D13*
X28208Y-36425D03*
X27342Y-36050D03*
X27342Y-36800D03*
G54D16*
X36775Y-21850D03*
X36775Y-21100D03*
G54D14*
X40750Y-23425D03*
X41550Y-23425D03*
G54D29*
X42735Y-44279D03*
X40964Y-41720D03*
X40964Y-44279D03*
X42735Y-41720D03*
X25885Y-44279D03*
X24114Y-41720D03*
X24114Y-44279D03*
X25885Y-41720D03*
X29885Y-44279D03*
X28114Y-41720D03*
X28114Y-44279D03*
X29885Y-41720D03*
X33885Y-44279D03*
X32114Y-41720D03*
X32114Y-44279D03*
X33885Y-41720D03*
G54D20*
X45500Y-36100D03*
G54D21*
X46500Y-36100D03*
X45500Y-35100D03*
X46500Y-35100D03*
X45500Y-34100D03*
X46500Y-34100D03*
G54D29*
X37885Y-44279D03*
X36114Y-41720D03*
X36114Y-44279D03*
X37885Y-41720D03*
G54D17*
X38650Y-40500D03*
X37900Y-40500D03*
G54D14*
X39525Y-23425D03*
X38725Y-23425D03*
G54D15*
X45475Y-30800D03*
X45475Y-31600D03*
G54D30*
X11650Y-35000D03*
X11650Y-34744D03*
X11650Y-34488D03*
X11650Y-35256D03*
X11650Y-35512D03*
G54D31*
X11550Y-36250D03*
X11550Y-33750D03*
G54D32*
X10600Y-35475D03*
X10600Y-34525D03*
G54D33*
X10600Y-36300D03*
X10600Y-33700D03*
G54D13*
X27342Y-34850D03*
X28208Y-35225D03*
X28208Y-34475D03*
G54D14*
X29200Y-36425D03*
X30000Y-36425D03*
G54D34*
X32300Y-21675D03*
X32300Y-22150D03*
G54D35*
X39000Y-21100D03*
X40900Y-21100D03*
X39000Y-21600D03*
X39000Y-22100D03*
X39000Y-22600D03*
X40900Y-21600D03*
X40900Y-22100D03*
X40900Y-22600D03*
G54D36*
X42600Y-24700D03*
X42600Y-24267D03*
X42600Y-23834D03*
X42600Y-23401D03*
X42600Y-22968D03*
X42600Y-25133D03*
X42600Y-25566D03*
X42600Y-25999D03*
X42600Y-26432D03*
G54D37*
X42836Y-22438D03*
G54D38*
X46684Y-22574D03*
G54D37*
X46684Y-28637D03*
G54D20*
X42754Y-28315D03*
G54D39*
X46900Y-23675D03*
X46900Y-26825D03*
G54D40*
X24379Y-29075D03*
X24971Y-29075D03*
X24379Y-28000D03*
X24971Y-28000D03*
G54D41*
X26475Y-27375D03*
X26475Y-29925D03*
G54D42*
X13075Y-21225D03*
G54D43*
X15475Y-21225D03*
G54D44*
X14325Y-19225D03*
G54D45*
X16643Y-28163D03*
X16643Y-37336D03*
G54D46*
X17925Y-28911D03*
X17925Y-29108D03*
X17925Y-29305D03*
X17925Y-29501D03*
X17925Y-29698D03*
X17925Y-29895D03*
X17925Y-30092D03*
X17925Y-30289D03*
X17925Y-30486D03*
X17925Y-30683D03*
X17925Y-30879D03*
X17925Y-31076D03*
X17925Y-31273D03*
X17925Y-31470D03*
X17925Y-31667D03*
X17925Y-31864D03*
X17925Y-32061D03*
X17925Y-32257D03*
X17925Y-32454D03*
X17925Y-32651D03*
X17925Y-32848D03*
X17925Y-33045D03*
X17925Y-33242D03*
X17925Y-33438D03*
X17925Y-33635D03*
X17925Y-33832D03*
X17925Y-34029D03*
X17925Y-34226D03*
X17925Y-34423D03*
X17925Y-34620D03*
X17925Y-34816D03*
X17925Y-35013D03*
X17925Y-35210D03*
X17925Y-35407D03*
X17925Y-35604D03*
X17925Y-35801D03*
X17925Y-35998D03*
X17925Y-36194D03*
X17925Y-36391D03*
X17925Y-36588D03*
G54D21*
X45250Y-20975D03*
X45250Y-21975D03*
G54D47*
X47350Y-21475D03*
G54D48*
X43150Y-35300D03*
X42650Y-35300D03*
X42150Y-35300D03*
X41650Y-35300D03*
X41150Y-35300D03*
X40650Y-35300D03*
X40150Y-35300D03*
X39650Y-35300D03*
X39150Y-35300D03*
X38650Y-35300D03*
X38650Y-31500D03*
X39150Y-31500D03*
X39650Y-31500D03*
X40150Y-31500D03*
X40650Y-31500D03*
X41150Y-31500D03*
X41650Y-31500D03*
X42150Y-31500D03*
X42650Y-31500D03*
X43150Y-31500D03*
G54D49*
X28075Y-22650D03*
X17975Y-22650D03*
G54D50*
X23025Y-22650D03*
G54D51*
X10819Y-31318D03*
G54D52*
X13004Y-30393D03*
X13004Y-29607D03*
G54D51*
X10819Y-28682D03*
M02*
