G04 (created by PCBNEW (2013-03-15 BZR 4003)-stable) date 16-Apr-13 6:58:48 PM*
%MOIN*%
G04 Gerber Fmt 3.4, Leading zero omitted, Abs format*
%FSLAX34Y34*%
G01*
G70*
G90*
G04 APERTURE LIST*
%ADD10C,0.006*%
%ADD11C,0.005*%
%ADD12C,0.04*%
%ADD13R,0.06X0.06*%
%ADD14C,0.06*%
%ADD15C,0.4*%
%ADD16C,0.07*%
%ADD17R,0.07X0.07*%
%ADD18O,0.06X0.08*%
%ADD19C,0.155*%
%ADD20C,0.08*%
%ADD21C,0.075*%
%ADD22C,0.045*%
%ADD23O,0.12X0.18*%
%ADD24R,0.12X0.18*%
%ADD25O,0.18X0.12*%
%ADD26C,0.035*%
%ADD27C,0.01*%
%ADD28C,0.02*%
%ADD29C,0.008*%
G04 APERTURE END LIST*
G54D10*
G54D11*
X22125Y-19000D02*
X17500Y-19000D01*
X25175Y-19000D02*
X42500Y-19000D01*
X24625Y-19550D02*
X25175Y-19000D01*
X23625Y-19550D02*
X24625Y-19550D01*
X22675Y-19550D02*
X22125Y-19000D01*
X23675Y-19550D02*
X22675Y-19550D01*
X47500Y-40000D02*
G75*
G03X50000Y-37500I0J2500D01*
G74*
G01*
X42500Y-45000D02*
G75*
G03X45000Y-42500I0J2500D01*
G74*
G01*
X47500Y-40000D02*
G75*
G03X45000Y-42500I0J-2500D01*
G74*
G01*
X15000Y-42500D02*
G75*
G03X17500Y-45000I2500J0D01*
G74*
G01*
X10000Y-37500D02*
G75*
G03X12500Y-40000I2500J0D01*
G74*
G01*
X15000Y-42500D02*
G75*
G03X12500Y-40000I-2500J0D01*
G74*
G01*
X42500Y-19000D02*
G75*
G03X45000Y-16500I0J2500D01*
G74*
G01*
X50000Y-16500D02*
G75*
G03X47500Y-14000I-2500J0D01*
G74*
G01*
X47500Y-14000D02*
G75*
G03X45000Y-16500I0J-2500D01*
G74*
G01*
X15000Y-16500D02*
G75*
G03X17500Y-19000I2500J0D01*
G74*
G01*
X15000Y-16500D02*
G75*
G03X12500Y-14000I-2500J0D01*
G74*
G01*
X12500Y-14000D02*
G75*
G03X10000Y-16500I0J-2500D01*
G74*
G01*
X14150Y-38550D02*
X15650Y-38550D01*
X14150Y-27550D02*
X14150Y-38550D01*
X15650Y-27550D02*
X14150Y-27550D01*
X15650Y-38550D02*
X15650Y-27550D01*
X42500Y-45000D02*
X17500Y-45000D01*
X10000Y-37500D02*
X10000Y-16500D01*
X50000Y-16500D02*
X50000Y-37500D01*
G54D12*
X37400Y-32025D03*
X33775Y-30900D03*
G54D13*
X16500Y-41500D03*
X17500Y-41500D03*
G54D14*
X18500Y-41500D03*
X19500Y-41500D03*
X20500Y-41500D03*
X21500Y-41500D03*
G54D15*
X12500Y-16500D03*
G54D16*
X46500Y-29700D03*
X46500Y-30700D03*
X46500Y-31700D03*
G54D17*
X46500Y-32700D03*
G54D12*
X37400Y-31375D03*
X37425Y-34875D03*
X37400Y-34125D03*
G54D15*
X47500Y-16500D03*
G54D18*
X47900Y-39000D03*
X46900Y-39000D03*
G54D14*
X45900Y-39000D03*
X42900Y-39000D03*
X43900Y-39000D03*
X44900Y-39000D03*
G54D18*
X40900Y-39000D03*
X39900Y-39000D03*
X38900Y-39000D03*
G54D14*
X36900Y-39000D03*
G54D18*
X35900Y-39000D03*
X47900Y-20000D03*
X46900Y-20000D03*
G54D14*
X45900Y-20000D03*
X44900Y-20000D03*
X43900Y-20000D03*
X42900Y-20000D03*
X41900Y-20000D03*
X40900Y-20000D03*
X39300Y-20000D03*
X38300Y-20000D03*
G54D18*
X37300Y-20000D03*
G54D14*
X36300Y-20000D03*
X35300Y-20000D03*
X34300Y-20000D03*
G54D18*
X33300Y-20000D03*
X32300Y-20000D03*
G54D14*
X37900Y-39000D03*
G54D19*
X48900Y-37000D03*
X48900Y-26000D03*
X28900Y-20000D03*
X28400Y-39000D03*
G54D14*
X34900Y-39000D03*
X31300Y-20000D03*
X30300Y-20000D03*
X33900Y-39000D03*
G54D20*
X42735Y-44279D03*
X40964Y-41720D03*
X40964Y-44279D03*
X42735Y-41720D03*
X29885Y-44279D03*
X28114Y-41720D03*
X28114Y-44279D03*
X29885Y-41720D03*
X37885Y-44279D03*
X36114Y-41720D03*
X36114Y-44279D03*
X37885Y-41720D03*
X33885Y-44279D03*
X32114Y-41720D03*
X32114Y-44279D03*
X33885Y-41720D03*
G54D14*
X45500Y-36100D03*
X46500Y-36100D03*
X45500Y-35100D03*
X46500Y-35100D03*
X45500Y-34100D03*
G54D13*
X46500Y-34100D03*
G54D20*
X25885Y-44279D03*
X24114Y-41720D03*
X24114Y-44279D03*
X25885Y-41720D03*
G54D21*
X10600Y-36300D03*
X10600Y-33700D03*
G54D22*
X46900Y-23675D03*
X46900Y-26825D03*
G54D23*
X13125Y-20925D03*
G54D24*
X15525Y-20925D03*
G54D25*
X14375Y-18925D03*
G54D14*
X45250Y-20975D03*
X45250Y-21975D03*
G54D26*
X17740Y-28500D03*
X29675Y-26625D03*
X29075Y-27150D03*
X16800Y-30350D03*
X15250Y-25075D03*
X15250Y-24050D03*
X32375Y-37450D03*
X32825Y-25575D03*
X29225Y-29650D03*
X30825Y-29025D03*
X43750Y-34100D03*
X39650Y-30900D03*
X29700Y-21825D03*
X17600Y-21825D03*
X24475Y-33150D03*
X24475Y-39500D03*
X17350Y-29025D03*
X29525Y-27050D03*
X23925Y-34675D03*
X23925Y-37150D03*
X31925Y-31900D03*
X32400Y-29200D03*
X15225Y-25875D03*
X23900Y-33500D03*
X24975Y-35525D03*
X28225Y-27950D03*
X41650Y-36050D03*
X41900Y-30900D03*
X25525Y-34550D03*
X42650Y-34325D03*
X47225Y-37400D03*
X38275Y-22100D03*
X41350Y-30900D03*
X38250Y-22600D03*
X40850Y-30900D03*
X31975Y-27075D03*
X30275Y-27075D03*
X32800Y-31900D03*
X16560Y-27460D03*
X31650Y-26125D03*
X31100Y-26120D03*
X16800Y-29875D03*
X16800Y-29425D03*
X30780Y-26620D03*
X31975Y-26625D03*
X38150Y-35200D03*
X30475Y-29350D03*
X42150Y-34325D03*
X25900Y-34150D03*
X30875Y-31900D03*
X39150Y-34650D03*
X28200Y-35575D03*
X13325Y-35925D03*
X17275Y-34425D03*
X21200Y-38750D03*
X18700Y-34950D03*
X17400Y-36250D03*
X22775Y-35400D03*
X21550Y-35400D03*
X19275Y-36600D03*
X23100Y-37175D03*
X26875Y-34850D03*
X30825Y-38675D03*
X29200Y-35625D03*
X13125Y-26775D03*
X13000Y-28950D03*
X33300Y-25575D03*
X33300Y-22000D03*
X43850Y-24325D03*
X39925Y-27975D03*
X43850Y-26275D03*
X46350Y-26300D03*
X33300Y-27750D03*
X16625Y-35600D03*
X16625Y-33925D03*
G54D27*
X17740Y-28500D02*
X19175Y-28500D01*
X19175Y-28500D02*
X19825Y-27850D01*
X20350Y-26625D02*
X29675Y-26625D01*
X19825Y-27850D02*
X19825Y-27150D01*
X19825Y-27150D02*
X20350Y-26625D01*
X28950Y-27025D02*
X29075Y-27150D01*
X20400Y-27925D02*
X20400Y-27250D01*
X20625Y-27025D02*
X28950Y-27025D01*
X20400Y-27250D02*
X20625Y-27025D01*
X16800Y-30350D02*
X17975Y-30350D01*
X17975Y-30350D02*
X20400Y-27925D01*
G54D28*
X32825Y-24550D02*
X15250Y-24550D01*
X32825Y-25575D02*
X32825Y-24550D01*
X32825Y-24550D02*
X32825Y-22450D01*
X32300Y-21925D02*
X32300Y-20000D01*
X32825Y-22450D02*
X32300Y-21925D01*
X15250Y-25075D02*
X15250Y-24550D01*
X15250Y-24550D02*
X15250Y-24050D01*
X32675Y-28725D02*
X31950Y-28725D01*
X31475Y-29800D02*
X29950Y-29800D01*
X31750Y-29525D02*
X31475Y-29800D01*
X31750Y-28925D02*
X31750Y-29525D01*
X31950Y-28725D02*
X31750Y-28925D01*
X32825Y-27850D02*
X32825Y-25575D01*
X30825Y-28625D02*
X30825Y-28300D01*
X32600Y-28075D02*
X32825Y-27850D01*
X31050Y-28075D02*
X32600Y-28075D01*
X30825Y-28300D02*
X31050Y-28075D01*
X29950Y-29800D02*
X29800Y-29650D01*
X29225Y-29650D02*
X29800Y-29650D01*
X32837Y-30862D02*
X32837Y-28887D01*
X32837Y-28887D02*
X32675Y-28725D01*
X32375Y-31325D02*
X32375Y-37450D01*
X32837Y-30862D02*
X32375Y-31325D01*
X24114Y-41720D02*
X24114Y-44279D01*
X28114Y-44279D02*
X28114Y-41720D01*
X32114Y-41720D02*
X32114Y-44279D01*
X36114Y-41720D02*
X36114Y-44279D01*
X29225Y-29650D02*
X29225Y-29050D01*
X29650Y-28625D02*
X30825Y-28625D01*
X29225Y-29050D02*
X29650Y-28625D01*
X33350Y-40650D02*
X35043Y-40650D01*
X32375Y-39675D02*
X33350Y-40650D01*
X32375Y-37450D02*
X32375Y-39675D01*
X35043Y-40650D02*
X36114Y-41720D01*
X30825Y-29025D02*
X30825Y-28625D01*
X45500Y-34100D02*
X43750Y-34100D01*
G54D27*
X33775Y-30900D02*
X39650Y-30900D01*
G54D28*
X17600Y-21825D02*
X29700Y-21825D01*
G54D27*
X24475Y-33150D02*
X24475Y-39500D01*
X17350Y-29025D02*
X18975Y-29025D01*
X20125Y-27875D02*
X20125Y-27225D01*
X18975Y-29025D02*
X20125Y-27875D01*
X20125Y-27225D02*
X20525Y-26825D01*
X29300Y-26825D02*
X29525Y-27050D01*
X20525Y-26825D02*
X29300Y-26825D01*
X23925Y-37150D02*
X23925Y-34675D01*
X31925Y-39759D02*
X33885Y-41720D01*
X31925Y-31900D02*
X31925Y-39759D01*
X33885Y-44279D02*
X33885Y-41720D01*
X29450Y-31425D02*
X31400Y-31425D01*
X32400Y-30425D02*
X32400Y-29200D01*
X31400Y-31425D02*
X32400Y-30425D01*
X28575Y-36725D02*
X28575Y-32300D01*
X29450Y-31425D02*
X28575Y-32300D01*
X27050Y-40556D02*
X25885Y-41720D01*
X27050Y-38250D02*
X27050Y-40556D01*
X28575Y-36725D02*
X27050Y-38250D01*
X25885Y-44279D02*
X25885Y-41720D01*
X23900Y-33500D02*
X16475Y-33500D01*
X16200Y-33225D02*
X16200Y-26850D01*
X16475Y-33500D02*
X16200Y-33225D01*
X15225Y-25875D02*
X16200Y-26850D01*
X25225Y-33675D02*
X26750Y-33675D01*
X26750Y-33675D02*
X26950Y-33475D01*
X25225Y-33675D02*
X24975Y-33925D01*
X24975Y-33925D02*
X24975Y-35525D01*
X26950Y-33475D02*
X26950Y-28350D01*
X27350Y-27950D02*
X28225Y-27950D01*
X26950Y-28350D02*
X27350Y-27950D01*
X41650Y-36050D02*
X36225Y-36050D01*
X35900Y-36375D02*
X35900Y-39000D01*
X36225Y-36050D02*
X35900Y-36375D01*
X38650Y-35600D02*
X38650Y-32300D01*
X41550Y-31975D02*
X41900Y-31625D01*
X38975Y-31975D02*
X41550Y-31975D01*
X38650Y-32300D02*
X38975Y-31975D01*
X41900Y-31625D02*
X41900Y-30900D01*
X46000Y-35600D02*
X38650Y-35600D01*
X38650Y-35600D02*
X33550Y-35600D01*
X33550Y-35600D02*
X33125Y-36025D01*
X33675Y-39950D02*
X39193Y-39950D01*
X39193Y-39950D02*
X40964Y-41720D01*
X46000Y-35600D02*
X46500Y-36100D01*
X33125Y-39400D02*
X33675Y-39950D01*
X40964Y-44279D02*
X40964Y-41720D01*
X33125Y-36025D02*
X33125Y-39400D01*
X47900Y-20000D02*
X47900Y-27100D01*
X42650Y-34325D02*
X42650Y-33700D01*
X42650Y-33700D02*
X43900Y-32450D01*
X24700Y-40250D02*
X20050Y-40250D01*
X19500Y-40800D02*
X19500Y-41500D01*
X20050Y-40250D02*
X19500Y-40800D01*
X25525Y-34550D02*
X25525Y-39425D01*
X24700Y-40250D02*
X25525Y-39425D01*
X47900Y-27100D02*
X43900Y-31100D01*
X43900Y-32450D02*
X43900Y-31100D01*
X47900Y-39000D02*
X47900Y-37650D01*
X47650Y-37400D02*
X47225Y-37400D01*
X47900Y-37650D02*
X47650Y-37400D01*
X40350Y-22100D02*
X38275Y-22100D01*
X41350Y-30900D02*
X41350Y-23100D01*
X41350Y-23100D02*
X40350Y-22100D01*
X40550Y-22600D02*
X38250Y-22600D01*
X40850Y-30900D02*
X40850Y-22900D01*
X40850Y-22900D02*
X40550Y-22600D01*
X31975Y-27075D02*
X30275Y-27075D01*
X36415Y-40250D02*
X37885Y-41720D01*
X33475Y-40250D02*
X36415Y-40250D01*
X32775Y-39550D02*
X33475Y-40250D01*
X32775Y-31925D02*
X32775Y-39550D01*
X32800Y-31900D02*
X32775Y-31925D01*
X37885Y-41720D02*
X37885Y-44279D01*
X29475Y-25600D02*
X31125Y-25600D01*
X16832Y-26027D02*
X18847Y-26027D01*
X18847Y-26027D02*
X18850Y-26025D01*
X29050Y-26025D02*
X29475Y-25600D01*
X18850Y-26025D02*
X29050Y-26025D01*
X16560Y-26300D02*
X16832Y-26027D01*
X16560Y-27460D02*
X16560Y-26300D01*
X31125Y-25600D02*
X31650Y-26125D01*
X30930Y-25950D02*
X31100Y-26120D01*
X29425Y-25950D02*
X30930Y-25950D01*
X29150Y-26225D02*
X29425Y-25950D01*
X20025Y-26225D02*
X29150Y-26225D01*
X16450Y-29775D02*
X16450Y-28275D01*
X16787Y-27937D02*
X19037Y-27937D01*
X16450Y-28275D02*
X16787Y-27937D01*
X19350Y-26900D02*
X19350Y-27625D01*
X19350Y-27625D02*
X19037Y-27937D01*
X19350Y-26900D02*
X20025Y-26225D01*
X16575Y-29900D02*
X16450Y-29775D01*
X16775Y-29900D02*
X16575Y-29900D01*
X16800Y-29875D02*
X16775Y-29900D01*
X16800Y-28275D02*
X16940Y-28135D01*
X16940Y-28135D02*
X19190Y-28135D01*
X19190Y-28135D02*
X19600Y-27725D01*
X19600Y-27725D02*
X19600Y-27025D01*
X16800Y-29425D02*
X16800Y-28275D01*
X30385Y-26225D02*
X30780Y-26620D01*
X29500Y-26225D02*
X30385Y-26225D01*
X29300Y-26425D02*
X29500Y-26225D01*
X30785Y-26625D02*
X30780Y-26620D01*
X31975Y-26625D02*
X30785Y-26625D01*
X20200Y-26425D02*
X29300Y-26425D01*
X19600Y-27025D02*
X20200Y-26425D01*
X38150Y-35200D02*
X38150Y-31900D01*
X40100Y-31625D02*
X40400Y-31325D01*
X38425Y-31625D02*
X40100Y-31625D01*
X38150Y-31900D02*
X38425Y-31625D01*
X37550Y-27350D02*
X40100Y-27350D01*
X40100Y-27350D02*
X40400Y-27650D01*
X37300Y-27100D02*
X37300Y-20000D01*
X37550Y-27350D02*
X37300Y-27100D01*
X40400Y-31325D02*
X40400Y-27650D01*
X33175Y-31200D02*
X33175Y-28800D01*
X33175Y-28800D02*
X32825Y-28450D01*
X31825Y-28450D02*
X32825Y-28450D01*
X30475Y-29350D02*
X31375Y-29350D01*
X31375Y-29350D02*
X31500Y-29225D01*
X31500Y-28775D02*
X31825Y-28450D01*
X31500Y-29225D02*
X31500Y-28775D01*
X33175Y-31200D02*
X33350Y-31375D01*
X37400Y-31375D02*
X33350Y-31375D01*
X47575Y-26900D02*
X47575Y-21575D01*
X47575Y-21575D02*
X46900Y-20900D01*
X46900Y-20000D02*
X46900Y-20900D01*
X42150Y-34325D02*
X42150Y-33725D01*
X43600Y-30875D02*
X43600Y-32275D01*
X47575Y-26900D02*
X43600Y-30875D01*
X42150Y-33725D02*
X43600Y-32275D01*
X25900Y-34150D02*
X25900Y-39475D01*
X25900Y-39475D02*
X24825Y-40550D01*
X20925Y-40550D02*
X20500Y-40975D01*
X20500Y-40975D02*
X20500Y-41500D01*
X24825Y-40550D02*
X20925Y-40550D01*
X29885Y-41720D02*
X29885Y-37785D01*
X29885Y-37785D02*
X28825Y-36725D01*
X29885Y-44279D02*
X29885Y-41720D01*
X28825Y-36725D02*
X28825Y-32400D01*
X29325Y-31900D02*
X30875Y-31900D01*
X28825Y-32400D02*
X29325Y-31900D01*
G54D28*
X26200Y-35900D02*
X26200Y-39675D01*
X26525Y-35575D02*
X26200Y-35900D01*
X28200Y-35575D02*
X26525Y-35575D01*
X39150Y-34650D02*
X41825Y-34650D01*
X41825Y-34650D02*
X41975Y-34800D01*
X45925Y-29700D02*
X44275Y-31350D01*
X45925Y-29700D02*
X46500Y-29700D01*
X42950Y-34800D02*
X41975Y-34800D01*
X43250Y-34500D02*
X42950Y-34800D01*
X43250Y-33625D02*
X43250Y-34500D01*
X44275Y-32600D02*
X43250Y-33625D01*
X44275Y-31350D02*
X44275Y-32600D01*
X21825Y-42500D02*
X18875Y-42500D01*
X22225Y-42100D02*
X21825Y-42500D01*
X22225Y-41175D02*
X22225Y-42100D01*
X22500Y-40900D02*
X22225Y-41175D01*
X18500Y-41500D02*
X18500Y-42125D01*
X24975Y-40900D02*
X22500Y-40900D01*
X26200Y-39675D02*
X24975Y-40900D01*
X18875Y-42500D02*
X18500Y-42125D01*
X13325Y-35925D02*
X13325Y-38650D01*
X13325Y-38650D02*
X13800Y-39125D01*
X13800Y-39125D02*
X17975Y-39125D01*
X17975Y-39125D02*
X18500Y-39650D01*
X18500Y-39650D02*
X18500Y-41500D01*
G54D27*
X17050Y-38600D02*
X17050Y-34650D01*
X17050Y-34650D02*
X17275Y-34425D01*
X21200Y-38750D02*
X17200Y-38750D01*
X17200Y-38750D02*
X17050Y-38600D01*
G54D29*
X17400Y-36250D02*
X18400Y-36250D01*
X18400Y-36250D02*
X18700Y-35950D01*
X18700Y-35950D02*
X18700Y-34950D01*
X21550Y-35400D02*
X22775Y-35400D01*
X22850Y-36600D02*
X19275Y-36600D01*
X23100Y-37175D02*
X23100Y-36850D01*
X23100Y-36850D02*
X22850Y-36600D01*
G54D28*
X15775Y-19250D02*
X15775Y-18750D01*
X13950Y-17950D02*
X12500Y-16500D01*
X14975Y-17950D02*
X13950Y-17950D01*
X15775Y-18750D02*
X14975Y-17950D01*
X15525Y-20925D02*
X15525Y-19750D01*
X15525Y-19750D02*
X15775Y-19500D01*
X15525Y-20925D02*
X15525Y-22225D01*
X15525Y-22225D02*
X14450Y-23300D01*
X26875Y-34850D02*
X26875Y-33975D01*
X14450Y-23300D02*
X14450Y-25050D01*
X14450Y-25050D02*
X14900Y-25500D01*
X14900Y-25500D02*
X28925Y-25500D01*
X29225Y-25200D02*
X28925Y-25500D01*
X31875Y-25200D02*
X29225Y-25200D01*
X32425Y-25750D02*
X31875Y-25200D01*
X32425Y-27300D02*
X32425Y-25750D01*
X32000Y-27725D02*
X32425Y-27300D01*
X29800Y-27725D02*
X32000Y-27725D01*
X28875Y-28650D02*
X29800Y-27725D01*
X27600Y-29050D02*
X28000Y-28650D01*
X27600Y-33250D02*
X27600Y-29050D01*
X28000Y-28650D02*
X28875Y-28650D01*
X26875Y-33975D02*
X27600Y-33250D01*
X15775Y-19500D02*
X15775Y-19250D01*
X30825Y-38675D02*
X30825Y-36025D01*
X30825Y-36025D02*
X30425Y-35625D01*
X30425Y-35625D02*
X29200Y-35625D01*
X13125Y-26475D02*
X13125Y-26775D01*
X13125Y-20925D02*
X13125Y-26475D01*
X13125Y-26475D02*
X13125Y-28825D01*
X13125Y-28825D02*
X13000Y-28950D01*
X41975Y-38050D02*
X45125Y-38050D01*
X45500Y-37675D02*
X45500Y-36100D01*
X45125Y-38050D02*
X45500Y-37675D01*
X42735Y-41720D02*
X42735Y-40910D01*
X39900Y-38200D02*
X39900Y-39000D01*
X40050Y-38050D02*
X39900Y-38200D01*
X41975Y-38050D02*
X40050Y-38050D01*
X41975Y-40150D02*
X41975Y-38050D01*
X42735Y-40910D02*
X41975Y-40150D01*
X39925Y-27975D02*
X37200Y-27975D01*
X37200Y-27975D02*
X36975Y-27750D01*
X43850Y-26275D02*
X43850Y-24325D01*
X42735Y-41720D02*
X42735Y-44279D01*
X33300Y-27750D02*
X36975Y-27750D01*
X46350Y-26300D02*
X43875Y-26300D01*
X43875Y-26300D02*
X43850Y-26275D01*
X33300Y-27750D02*
X33300Y-25575D01*
X33300Y-25575D02*
X33300Y-22000D01*
X33300Y-22000D02*
X33300Y-20000D01*
G54D27*
X16625Y-33925D02*
X16625Y-35600D01*
M02*
