G04 (created by PCBNEW (2013-03-15 BZR 4003)-stable) date 07-Jun-13 5:31:05 PM*
%MOIN*%
G04 Gerber Fmt 3.4, Leading zero omitted, Abs format*
%FSLAX34Y34*%
G01*
G70*
G90*
G04 APERTURE LIST*
%ADD10C,0*%
%ADD11C,0.005*%
G04 APERTURE END LIST*
G54D10*
G54D11*
X21400Y-19500D02*
G75*
G03X20900Y-19000I-500J0D01*
G74*
G01*
X26400Y-19000D02*
G75*
G03X25900Y-19500I0J-500D01*
G74*
G01*
X25400Y-20500D02*
G75*
G03X25900Y-20000I0J500D01*
G74*
G01*
X21400Y-20000D02*
G75*
G03X21900Y-20500I500J0D01*
G74*
G01*
X25900Y-19500D02*
X25900Y-20000D01*
X21400Y-19500D02*
X21400Y-20000D01*
X21900Y-20500D02*
X25400Y-20500D01*
X29092Y-47346D02*
X29092Y-47546D01*
X29021Y-47232D02*
X28950Y-47446D01*
X29135Y-47446D01*
X29250Y-47517D02*
X29264Y-47532D01*
X29250Y-47546D01*
X29235Y-47532D01*
X29250Y-47517D01*
X29250Y-47546D01*
X29450Y-47246D02*
X29478Y-47246D01*
X29507Y-47260D01*
X29521Y-47274D01*
X29535Y-47303D01*
X29550Y-47360D01*
X29550Y-47432D01*
X29535Y-47489D01*
X29521Y-47517D01*
X29507Y-47532D01*
X29478Y-47546D01*
X29450Y-47546D01*
X29421Y-47532D01*
X29407Y-47517D01*
X29392Y-47489D01*
X29378Y-47432D01*
X29378Y-47360D01*
X29392Y-47303D01*
X29407Y-47274D01*
X29421Y-47260D01*
X29450Y-47246D01*
X29735Y-47246D02*
X29764Y-47246D01*
X29792Y-47260D01*
X29807Y-47274D01*
X29821Y-47303D01*
X29835Y-47360D01*
X29835Y-47432D01*
X29821Y-47489D01*
X29807Y-47517D01*
X29792Y-47532D01*
X29764Y-47546D01*
X29735Y-47546D01*
X29707Y-47532D01*
X29692Y-47517D01*
X29678Y-47489D01*
X29664Y-47432D01*
X29664Y-47360D01*
X29678Y-47303D01*
X29692Y-47274D01*
X29707Y-47260D01*
X29735Y-47246D01*
X30021Y-47246D02*
X30050Y-47246D01*
X30078Y-47260D01*
X30092Y-47274D01*
X30107Y-47303D01*
X30121Y-47360D01*
X30121Y-47432D01*
X30107Y-47489D01*
X30092Y-47517D01*
X30078Y-47532D01*
X30050Y-47546D01*
X30021Y-47546D01*
X29992Y-47532D01*
X29978Y-47517D01*
X29964Y-47489D01*
X29950Y-47432D01*
X29950Y-47360D01*
X29964Y-47303D01*
X29978Y-47274D01*
X29992Y-47260D01*
X30021Y-47246D01*
X30307Y-47246D02*
X30335Y-47246D01*
X30364Y-47260D01*
X30378Y-47274D01*
X30392Y-47303D01*
X30407Y-47360D01*
X30407Y-47432D01*
X30392Y-47489D01*
X30378Y-47517D01*
X30364Y-47532D01*
X30335Y-47546D01*
X30307Y-47546D01*
X30278Y-47532D01*
X30264Y-47517D01*
X30250Y-47489D01*
X30235Y-47432D01*
X30235Y-47360D01*
X30250Y-47303D01*
X30264Y-47274D01*
X30278Y-47260D01*
X30307Y-47246D01*
X30764Y-47546D02*
X30764Y-47346D01*
X30764Y-47246D02*
X30749Y-47260D01*
X30764Y-47274D01*
X30778Y-47260D01*
X30764Y-47246D01*
X30764Y-47274D01*
X30907Y-47346D02*
X30907Y-47546D01*
X30907Y-47374D02*
X30921Y-47360D01*
X30949Y-47346D01*
X30992Y-47346D01*
X31021Y-47360D01*
X31035Y-47389D01*
X31035Y-47546D01*
X50000Y-47174D02*
X10000Y-47174D01*
X50000Y-46800D02*
X50000Y-47674D01*
X10000Y-46800D02*
X10000Y-47674D01*
X10000Y-47174D02*
X10443Y-46944D01*
X10000Y-47174D02*
X10443Y-47405D01*
X50000Y-47174D02*
X49556Y-46944D01*
X50000Y-47174D02*
X49556Y-47405D01*
X8691Y-28436D02*
X8691Y-28622D01*
X8576Y-28522D01*
X8576Y-28565D01*
X8562Y-28593D01*
X8548Y-28607D01*
X8519Y-28622D01*
X8448Y-28622D01*
X8419Y-28607D01*
X8405Y-28593D01*
X8391Y-28565D01*
X8391Y-28479D01*
X8405Y-28450D01*
X8419Y-28436D01*
X8419Y-28750D02*
X8405Y-28765D01*
X8391Y-28750D01*
X8405Y-28736D01*
X8419Y-28750D01*
X8391Y-28750D01*
X8391Y-29050D02*
X8391Y-28879D01*
X8391Y-28965D02*
X8691Y-28965D01*
X8648Y-28936D01*
X8619Y-28907D01*
X8605Y-28879D01*
X8691Y-29236D02*
X8691Y-29265D01*
X8676Y-29293D01*
X8662Y-29307D01*
X8633Y-29322D01*
X8576Y-29336D01*
X8505Y-29336D01*
X8448Y-29322D01*
X8419Y-29307D01*
X8405Y-29293D01*
X8391Y-29265D01*
X8391Y-29236D01*
X8405Y-29207D01*
X8419Y-29193D01*
X8448Y-29179D01*
X8505Y-29165D01*
X8576Y-29165D01*
X8633Y-29179D01*
X8662Y-29193D01*
X8676Y-29207D01*
X8691Y-29236D01*
X8691Y-29522D02*
X8691Y-29550D01*
X8676Y-29579D01*
X8662Y-29593D01*
X8633Y-29607D01*
X8576Y-29622D01*
X8505Y-29622D01*
X8448Y-29607D01*
X8419Y-29593D01*
X8405Y-29579D01*
X8391Y-29550D01*
X8391Y-29522D01*
X8405Y-29493D01*
X8419Y-29479D01*
X8448Y-29465D01*
X8505Y-29450D01*
X8576Y-29450D01*
X8633Y-29465D01*
X8662Y-29479D01*
X8676Y-29493D01*
X8691Y-29522D01*
X8691Y-29807D02*
X8691Y-29836D01*
X8676Y-29865D01*
X8662Y-29879D01*
X8633Y-29893D01*
X8576Y-29907D01*
X8505Y-29907D01*
X8448Y-29893D01*
X8419Y-29879D01*
X8405Y-29865D01*
X8391Y-29836D01*
X8391Y-29807D01*
X8405Y-29779D01*
X8419Y-29765D01*
X8448Y-29750D01*
X8505Y-29736D01*
X8576Y-29736D01*
X8633Y-29750D01*
X8662Y-29765D01*
X8676Y-29779D01*
X8691Y-29807D01*
X8391Y-30265D02*
X8591Y-30265D01*
X8691Y-30265D02*
X8676Y-30250D01*
X8662Y-30265D01*
X8676Y-30279D01*
X8691Y-30265D01*
X8662Y-30265D01*
X8591Y-30407D02*
X8391Y-30407D01*
X8562Y-30407D02*
X8576Y-30422D01*
X8591Y-30450D01*
X8591Y-30493D01*
X8576Y-30522D01*
X8548Y-30536D01*
X8391Y-30536D01*
X8749Y-14000D02*
X8774Y-45000D01*
X9500Y-14000D02*
X8249Y-14001D01*
X9525Y-45000D02*
X8274Y-45001D01*
X8774Y-45000D02*
X8543Y-44557D01*
X8774Y-45000D02*
X9005Y-44556D01*
X8749Y-14000D02*
X8519Y-14444D01*
X8749Y-14000D02*
X8981Y-14443D01*
X11521Y-12446D02*
X11550Y-12446D01*
X11578Y-12460D01*
X11592Y-12475D01*
X11607Y-12503D01*
X11621Y-12560D01*
X11621Y-12632D01*
X11607Y-12689D01*
X11592Y-12717D01*
X11578Y-12732D01*
X11550Y-12746D01*
X11521Y-12746D01*
X11492Y-12732D01*
X11478Y-12717D01*
X11464Y-12689D01*
X11450Y-12632D01*
X11450Y-12560D01*
X11464Y-12503D01*
X11478Y-12475D01*
X11492Y-12460D01*
X11521Y-12446D01*
X11750Y-12717D02*
X11764Y-12732D01*
X11750Y-12746D01*
X11735Y-12732D01*
X11750Y-12717D01*
X11750Y-12746D01*
X12035Y-12446D02*
X11892Y-12446D01*
X11878Y-12589D01*
X11892Y-12575D01*
X11921Y-12560D01*
X11992Y-12560D01*
X12021Y-12575D01*
X12035Y-12589D01*
X12050Y-12617D01*
X12050Y-12689D01*
X12035Y-12717D01*
X12021Y-12732D01*
X11992Y-12746D01*
X11921Y-12746D01*
X11892Y-12732D01*
X11878Y-12717D01*
X12235Y-12446D02*
X12264Y-12446D01*
X12292Y-12460D01*
X12307Y-12475D01*
X12321Y-12503D01*
X12335Y-12560D01*
X12335Y-12632D01*
X12321Y-12689D01*
X12307Y-12717D01*
X12292Y-12732D01*
X12264Y-12746D01*
X12235Y-12746D01*
X12207Y-12732D01*
X12192Y-12717D01*
X12178Y-12689D01*
X12164Y-12632D01*
X12164Y-12560D01*
X12178Y-12503D01*
X12192Y-12475D01*
X12207Y-12460D01*
X12235Y-12446D01*
X12521Y-12446D02*
X12550Y-12446D01*
X12578Y-12460D01*
X12592Y-12475D01*
X12607Y-12503D01*
X12621Y-12560D01*
X12621Y-12632D01*
X12607Y-12689D01*
X12592Y-12717D01*
X12578Y-12732D01*
X12550Y-12746D01*
X12521Y-12746D01*
X12492Y-12732D01*
X12478Y-12717D01*
X12464Y-12689D01*
X12450Y-12632D01*
X12450Y-12560D01*
X12464Y-12503D01*
X12478Y-12475D01*
X12492Y-12460D01*
X12521Y-12446D01*
X12807Y-12446D02*
X12835Y-12446D01*
X12864Y-12460D01*
X12878Y-12475D01*
X12892Y-12503D01*
X12907Y-12560D01*
X12907Y-12632D01*
X12892Y-12689D01*
X12878Y-12717D01*
X12864Y-12732D01*
X12835Y-12746D01*
X12807Y-12746D01*
X12778Y-12732D01*
X12764Y-12717D01*
X12750Y-12689D01*
X12735Y-12632D01*
X12735Y-12560D01*
X12750Y-12503D01*
X12764Y-12475D01*
X12778Y-12460D01*
X12807Y-12446D01*
X13264Y-12746D02*
X13264Y-12546D01*
X13264Y-12446D02*
X13249Y-12460D01*
X13264Y-12475D01*
X13278Y-12460D01*
X13264Y-12446D01*
X13264Y-12475D01*
X13407Y-12546D02*
X13407Y-12746D01*
X13407Y-12575D02*
X13421Y-12560D01*
X13449Y-12546D01*
X13492Y-12546D01*
X13521Y-12560D01*
X13535Y-12589D01*
X13535Y-12746D01*
X15000Y-12875D02*
X10000Y-12875D01*
X15000Y-13500D02*
X15000Y-12375D01*
X10000Y-13500D02*
X10000Y-12375D01*
X10000Y-12875D02*
X10443Y-12644D01*
X10000Y-12875D02*
X10443Y-13105D01*
X15000Y-12875D02*
X14556Y-12644D01*
X15000Y-12875D02*
X14556Y-13105D01*
X28935Y-12446D02*
X29121Y-12446D01*
X29021Y-12560D01*
X29064Y-12560D01*
X29092Y-12575D01*
X29107Y-12589D01*
X29121Y-12617D01*
X29121Y-12689D01*
X29107Y-12717D01*
X29092Y-12732D01*
X29064Y-12746D01*
X28978Y-12746D01*
X28950Y-12732D01*
X28935Y-12717D01*
X29250Y-12717D02*
X29264Y-12732D01*
X29250Y-12746D01*
X29235Y-12732D01*
X29250Y-12717D01*
X29250Y-12746D01*
X29450Y-12446D02*
X29478Y-12446D01*
X29507Y-12460D01*
X29521Y-12475D01*
X29535Y-12503D01*
X29550Y-12560D01*
X29550Y-12632D01*
X29535Y-12689D01*
X29521Y-12717D01*
X29507Y-12732D01*
X29478Y-12746D01*
X29450Y-12746D01*
X29421Y-12732D01*
X29407Y-12717D01*
X29392Y-12689D01*
X29378Y-12632D01*
X29378Y-12560D01*
X29392Y-12503D01*
X29407Y-12475D01*
X29421Y-12460D01*
X29450Y-12446D01*
X29735Y-12446D02*
X29764Y-12446D01*
X29792Y-12460D01*
X29807Y-12475D01*
X29821Y-12503D01*
X29835Y-12560D01*
X29835Y-12632D01*
X29821Y-12689D01*
X29807Y-12717D01*
X29792Y-12732D01*
X29764Y-12746D01*
X29735Y-12746D01*
X29707Y-12732D01*
X29692Y-12717D01*
X29678Y-12689D01*
X29664Y-12632D01*
X29664Y-12560D01*
X29678Y-12503D01*
X29692Y-12475D01*
X29707Y-12460D01*
X29735Y-12446D01*
X30021Y-12446D02*
X30050Y-12446D01*
X30078Y-12460D01*
X30092Y-12475D01*
X30107Y-12503D01*
X30121Y-12560D01*
X30121Y-12632D01*
X30107Y-12689D01*
X30092Y-12717D01*
X30078Y-12732D01*
X30050Y-12746D01*
X30021Y-12746D01*
X29992Y-12732D01*
X29978Y-12717D01*
X29964Y-12689D01*
X29950Y-12632D01*
X29950Y-12560D01*
X29964Y-12503D01*
X29978Y-12475D01*
X29992Y-12460D01*
X30021Y-12446D01*
X30307Y-12446D02*
X30335Y-12446D01*
X30364Y-12460D01*
X30378Y-12475D01*
X30392Y-12503D01*
X30407Y-12560D01*
X30407Y-12632D01*
X30392Y-12689D01*
X30378Y-12717D01*
X30364Y-12732D01*
X30335Y-12746D01*
X30307Y-12746D01*
X30278Y-12732D01*
X30264Y-12717D01*
X30250Y-12689D01*
X30235Y-12632D01*
X30235Y-12560D01*
X30250Y-12503D01*
X30264Y-12475D01*
X30278Y-12460D01*
X30307Y-12446D01*
X30764Y-12746D02*
X30764Y-12546D01*
X30764Y-12446D02*
X30749Y-12460D01*
X30764Y-12475D01*
X30778Y-12460D01*
X30764Y-12446D01*
X30764Y-12475D01*
X30907Y-12546D02*
X30907Y-12746D01*
X30907Y-12575D02*
X30921Y-12560D01*
X30949Y-12546D01*
X30992Y-12546D01*
X31021Y-12560D01*
X31035Y-12589D01*
X31035Y-12746D01*
X45000Y-12875D02*
X15000Y-12875D01*
X45000Y-13500D02*
X45000Y-12375D01*
X15000Y-13500D02*
X15000Y-12375D01*
X15000Y-12875D02*
X15443Y-12644D01*
X15000Y-12875D02*
X15443Y-13105D01*
X45000Y-12875D02*
X44556Y-12644D01*
X45000Y-12875D02*
X44556Y-13105D01*
X46521Y-12446D02*
X46550Y-12446D01*
X46578Y-12460D01*
X46592Y-12475D01*
X46607Y-12503D01*
X46621Y-12560D01*
X46621Y-12632D01*
X46607Y-12689D01*
X46592Y-12717D01*
X46578Y-12732D01*
X46550Y-12746D01*
X46521Y-12746D01*
X46492Y-12732D01*
X46478Y-12717D01*
X46464Y-12689D01*
X46450Y-12632D01*
X46450Y-12560D01*
X46464Y-12503D01*
X46478Y-12475D01*
X46492Y-12460D01*
X46521Y-12446D01*
X46750Y-12717D02*
X46764Y-12732D01*
X46750Y-12746D01*
X46735Y-12732D01*
X46750Y-12717D01*
X46750Y-12746D01*
X47035Y-12446D02*
X46892Y-12446D01*
X46878Y-12589D01*
X46892Y-12575D01*
X46921Y-12560D01*
X46992Y-12560D01*
X47021Y-12575D01*
X47035Y-12589D01*
X47050Y-12617D01*
X47050Y-12689D01*
X47035Y-12717D01*
X47021Y-12732D01*
X46992Y-12746D01*
X46921Y-12746D01*
X46892Y-12732D01*
X46878Y-12717D01*
X47235Y-12446D02*
X47264Y-12446D01*
X47292Y-12460D01*
X47307Y-12475D01*
X47321Y-12503D01*
X47335Y-12560D01*
X47335Y-12632D01*
X47321Y-12689D01*
X47307Y-12717D01*
X47292Y-12732D01*
X47264Y-12746D01*
X47235Y-12746D01*
X47207Y-12732D01*
X47192Y-12717D01*
X47178Y-12689D01*
X47164Y-12632D01*
X47164Y-12560D01*
X47178Y-12503D01*
X47192Y-12475D01*
X47207Y-12460D01*
X47235Y-12446D01*
X47521Y-12446D02*
X47550Y-12446D01*
X47578Y-12460D01*
X47592Y-12475D01*
X47607Y-12503D01*
X47621Y-12560D01*
X47621Y-12632D01*
X47607Y-12689D01*
X47592Y-12717D01*
X47578Y-12732D01*
X47550Y-12746D01*
X47521Y-12746D01*
X47492Y-12732D01*
X47478Y-12717D01*
X47464Y-12689D01*
X47450Y-12632D01*
X47450Y-12560D01*
X47464Y-12503D01*
X47478Y-12475D01*
X47492Y-12460D01*
X47521Y-12446D01*
X47807Y-12446D02*
X47835Y-12446D01*
X47864Y-12460D01*
X47878Y-12475D01*
X47892Y-12503D01*
X47907Y-12560D01*
X47907Y-12632D01*
X47892Y-12689D01*
X47878Y-12717D01*
X47864Y-12732D01*
X47835Y-12746D01*
X47807Y-12746D01*
X47778Y-12732D01*
X47764Y-12717D01*
X47750Y-12689D01*
X47735Y-12632D01*
X47735Y-12560D01*
X47750Y-12503D01*
X47764Y-12475D01*
X47778Y-12460D01*
X47807Y-12446D01*
X48264Y-12746D02*
X48264Y-12546D01*
X48264Y-12446D02*
X48249Y-12460D01*
X48264Y-12475D01*
X48278Y-12460D01*
X48264Y-12446D01*
X48264Y-12475D01*
X48407Y-12546D02*
X48407Y-12746D01*
X48407Y-12575D02*
X48421Y-12560D01*
X48449Y-12546D01*
X48492Y-12546D01*
X48521Y-12560D01*
X48535Y-12589D01*
X48535Y-12746D01*
X50000Y-12875D02*
X45000Y-12875D01*
X50000Y-13500D02*
X50000Y-12375D01*
X45000Y-13500D02*
X45000Y-12375D01*
X45000Y-12875D02*
X45443Y-12644D01*
X45000Y-12875D02*
X45443Y-13105D01*
X50000Y-12875D02*
X49556Y-12644D01*
X50000Y-12875D02*
X49556Y-13105D01*
X11521Y-46121D02*
X11550Y-46121D01*
X11578Y-46135D01*
X11592Y-46149D01*
X11607Y-46178D01*
X11621Y-46235D01*
X11621Y-46307D01*
X11607Y-46364D01*
X11592Y-46392D01*
X11578Y-46407D01*
X11550Y-46421D01*
X11521Y-46421D01*
X11492Y-46407D01*
X11478Y-46392D01*
X11464Y-46364D01*
X11450Y-46307D01*
X11450Y-46235D01*
X11464Y-46178D01*
X11478Y-46149D01*
X11492Y-46135D01*
X11521Y-46121D01*
X11750Y-46392D02*
X11764Y-46407D01*
X11750Y-46421D01*
X11735Y-46407D01*
X11750Y-46392D01*
X11750Y-46421D01*
X12035Y-46121D02*
X11892Y-46121D01*
X11878Y-46264D01*
X11892Y-46249D01*
X11921Y-46235D01*
X11992Y-46235D01*
X12021Y-46249D01*
X12035Y-46264D01*
X12050Y-46292D01*
X12050Y-46364D01*
X12035Y-46392D01*
X12021Y-46407D01*
X11992Y-46421D01*
X11921Y-46421D01*
X11892Y-46407D01*
X11878Y-46392D01*
X12235Y-46121D02*
X12264Y-46121D01*
X12292Y-46135D01*
X12307Y-46149D01*
X12321Y-46178D01*
X12335Y-46235D01*
X12335Y-46307D01*
X12321Y-46364D01*
X12307Y-46392D01*
X12292Y-46407D01*
X12264Y-46421D01*
X12235Y-46421D01*
X12207Y-46407D01*
X12192Y-46392D01*
X12178Y-46364D01*
X12164Y-46307D01*
X12164Y-46235D01*
X12178Y-46178D01*
X12192Y-46149D01*
X12207Y-46135D01*
X12235Y-46121D01*
X12521Y-46121D02*
X12550Y-46121D01*
X12578Y-46135D01*
X12592Y-46149D01*
X12607Y-46178D01*
X12621Y-46235D01*
X12621Y-46307D01*
X12607Y-46364D01*
X12592Y-46392D01*
X12578Y-46407D01*
X12550Y-46421D01*
X12521Y-46421D01*
X12492Y-46407D01*
X12478Y-46392D01*
X12464Y-46364D01*
X12450Y-46307D01*
X12450Y-46235D01*
X12464Y-46178D01*
X12478Y-46149D01*
X12492Y-46135D01*
X12521Y-46121D01*
X12807Y-46121D02*
X12835Y-46121D01*
X12864Y-46135D01*
X12878Y-46149D01*
X12892Y-46178D01*
X12907Y-46235D01*
X12907Y-46307D01*
X12892Y-46364D01*
X12878Y-46392D01*
X12864Y-46407D01*
X12835Y-46421D01*
X12807Y-46421D01*
X12778Y-46407D01*
X12764Y-46392D01*
X12750Y-46364D01*
X12735Y-46307D01*
X12735Y-46235D01*
X12750Y-46178D01*
X12764Y-46149D01*
X12778Y-46135D01*
X12807Y-46121D01*
X13264Y-46421D02*
X13264Y-46221D01*
X13264Y-46121D02*
X13249Y-46135D01*
X13264Y-46149D01*
X13278Y-46135D01*
X13264Y-46121D01*
X13264Y-46149D01*
X13407Y-46221D02*
X13407Y-46421D01*
X13407Y-46249D02*
X13421Y-46235D01*
X13449Y-46221D01*
X13492Y-46221D01*
X13521Y-46235D01*
X13535Y-46264D01*
X13535Y-46421D01*
X15000Y-46049D02*
X10000Y-46049D01*
X15000Y-45500D02*
X15000Y-46549D01*
X10000Y-45500D02*
X10000Y-46549D01*
X10000Y-46049D02*
X10443Y-45819D01*
X10000Y-46049D02*
X10443Y-46280D01*
X15000Y-46049D02*
X14556Y-45819D01*
X15000Y-46049D02*
X14556Y-46280D01*
X28935Y-46121D02*
X29121Y-46121D01*
X29021Y-46235D01*
X29064Y-46235D01*
X29092Y-46249D01*
X29107Y-46264D01*
X29121Y-46292D01*
X29121Y-46364D01*
X29107Y-46392D01*
X29092Y-46407D01*
X29064Y-46421D01*
X28978Y-46421D01*
X28950Y-46407D01*
X28935Y-46392D01*
X29250Y-46392D02*
X29264Y-46407D01*
X29250Y-46421D01*
X29235Y-46407D01*
X29250Y-46392D01*
X29250Y-46421D01*
X29450Y-46121D02*
X29478Y-46121D01*
X29507Y-46135D01*
X29521Y-46149D01*
X29535Y-46178D01*
X29550Y-46235D01*
X29550Y-46307D01*
X29535Y-46364D01*
X29521Y-46392D01*
X29507Y-46407D01*
X29478Y-46421D01*
X29450Y-46421D01*
X29421Y-46407D01*
X29407Y-46392D01*
X29392Y-46364D01*
X29378Y-46307D01*
X29378Y-46235D01*
X29392Y-46178D01*
X29407Y-46149D01*
X29421Y-46135D01*
X29450Y-46121D01*
X29735Y-46121D02*
X29764Y-46121D01*
X29792Y-46135D01*
X29807Y-46149D01*
X29821Y-46178D01*
X29835Y-46235D01*
X29835Y-46307D01*
X29821Y-46364D01*
X29807Y-46392D01*
X29792Y-46407D01*
X29764Y-46421D01*
X29735Y-46421D01*
X29707Y-46407D01*
X29692Y-46392D01*
X29678Y-46364D01*
X29664Y-46307D01*
X29664Y-46235D01*
X29678Y-46178D01*
X29692Y-46149D01*
X29707Y-46135D01*
X29735Y-46121D01*
X30021Y-46121D02*
X30050Y-46121D01*
X30078Y-46135D01*
X30092Y-46149D01*
X30107Y-46178D01*
X30121Y-46235D01*
X30121Y-46307D01*
X30107Y-46364D01*
X30092Y-46392D01*
X30078Y-46407D01*
X30050Y-46421D01*
X30021Y-46421D01*
X29992Y-46407D01*
X29978Y-46392D01*
X29964Y-46364D01*
X29950Y-46307D01*
X29950Y-46235D01*
X29964Y-46178D01*
X29978Y-46149D01*
X29992Y-46135D01*
X30021Y-46121D01*
X30307Y-46121D02*
X30335Y-46121D01*
X30364Y-46135D01*
X30378Y-46149D01*
X30392Y-46178D01*
X30407Y-46235D01*
X30407Y-46307D01*
X30392Y-46364D01*
X30378Y-46392D01*
X30364Y-46407D01*
X30335Y-46421D01*
X30307Y-46421D01*
X30278Y-46407D01*
X30264Y-46392D01*
X30250Y-46364D01*
X30235Y-46307D01*
X30235Y-46235D01*
X30250Y-46178D01*
X30264Y-46149D01*
X30278Y-46135D01*
X30307Y-46121D01*
X30764Y-46421D02*
X30764Y-46221D01*
X30764Y-46121D02*
X30749Y-46135D01*
X30764Y-46149D01*
X30778Y-46135D01*
X30764Y-46121D01*
X30764Y-46149D01*
X30907Y-46221D02*
X30907Y-46421D01*
X30907Y-46249D02*
X30921Y-46235D01*
X30949Y-46221D01*
X30992Y-46221D01*
X31021Y-46235D01*
X31035Y-46264D01*
X31035Y-46421D01*
X45000Y-46049D02*
X15000Y-46049D01*
X45000Y-45500D02*
X45000Y-46549D01*
X15000Y-45500D02*
X15000Y-46549D01*
X15000Y-46049D02*
X15443Y-45819D01*
X15000Y-46049D02*
X15443Y-46280D01*
X45000Y-46049D02*
X44556Y-45819D01*
X45000Y-46049D02*
X44556Y-46280D01*
X46521Y-46121D02*
X46550Y-46121D01*
X46578Y-46135D01*
X46592Y-46150D01*
X46607Y-46178D01*
X46621Y-46235D01*
X46621Y-46307D01*
X46607Y-46364D01*
X46592Y-46392D01*
X46578Y-46407D01*
X46550Y-46421D01*
X46521Y-46421D01*
X46492Y-46407D01*
X46478Y-46392D01*
X46464Y-46364D01*
X46450Y-46307D01*
X46450Y-46235D01*
X46464Y-46178D01*
X46478Y-46150D01*
X46492Y-46135D01*
X46521Y-46121D01*
X46750Y-46392D02*
X46764Y-46407D01*
X46750Y-46421D01*
X46735Y-46407D01*
X46750Y-46392D01*
X46750Y-46421D01*
X47035Y-46121D02*
X46892Y-46121D01*
X46878Y-46264D01*
X46892Y-46250D01*
X46921Y-46235D01*
X46992Y-46235D01*
X47021Y-46250D01*
X47035Y-46264D01*
X47050Y-46292D01*
X47050Y-46364D01*
X47035Y-46392D01*
X47021Y-46407D01*
X46992Y-46421D01*
X46921Y-46421D01*
X46892Y-46407D01*
X46878Y-46392D01*
X47235Y-46121D02*
X47264Y-46121D01*
X47292Y-46135D01*
X47307Y-46150D01*
X47321Y-46178D01*
X47335Y-46235D01*
X47335Y-46307D01*
X47321Y-46364D01*
X47307Y-46392D01*
X47292Y-46407D01*
X47264Y-46421D01*
X47235Y-46421D01*
X47207Y-46407D01*
X47192Y-46392D01*
X47178Y-46364D01*
X47164Y-46307D01*
X47164Y-46235D01*
X47178Y-46178D01*
X47192Y-46150D01*
X47207Y-46135D01*
X47235Y-46121D01*
X47521Y-46121D02*
X47550Y-46121D01*
X47578Y-46135D01*
X47592Y-46150D01*
X47607Y-46178D01*
X47621Y-46235D01*
X47621Y-46307D01*
X47607Y-46364D01*
X47592Y-46392D01*
X47578Y-46407D01*
X47550Y-46421D01*
X47521Y-46421D01*
X47492Y-46407D01*
X47478Y-46392D01*
X47464Y-46364D01*
X47450Y-46307D01*
X47450Y-46235D01*
X47464Y-46178D01*
X47478Y-46150D01*
X47492Y-46135D01*
X47521Y-46121D01*
X47807Y-46121D02*
X47835Y-46121D01*
X47864Y-46135D01*
X47878Y-46150D01*
X47892Y-46178D01*
X47907Y-46235D01*
X47907Y-46307D01*
X47892Y-46364D01*
X47878Y-46392D01*
X47864Y-46407D01*
X47835Y-46421D01*
X47807Y-46421D01*
X47778Y-46407D01*
X47764Y-46392D01*
X47750Y-46364D01*
X47735Y-46307D01*
X47735Y-46235D01*
X47750Y-46178D01*
X47764Y-46150D01*
X47778Y-46135D01*
X47807Y-46121D01*
X48264Y-46421D02*
X48264Y-46221D01*
X48264Y-46121D02*
X48249Y-46135D01*
X48264Y-46150D01*
X48278Y-46135D01*
X48264Y-46121D01*
X48264Y-46150D01*
X48407Y-46221D02*
X48407Y-46421D01*
X48407Y-46250D02*
X48421Y-46235D01*
X48449Y-46221D01*
X48492Y-46221D01*
X48521Y-46235D01*
X48535Y-46264D01*
X48535Y-46421D01*
X50000Y-46050D02*
X45000Y-46050D01*
X50000Y-45500D02*
X50000Y-46550D01*
X45000Y-45500D02*
X45000Y-46550D01*
X45000Y-46050D02*
X45443Y-45819D01*
X45000Y-46050D02*
X45443Y-46280D01*
X50000Y-46050D02*
X49556Y-45819D01*
X50000Y-46050D02*
X49556Y-46280D01*
X51528Y-41521D02*
X51528Y-41550D01*
X51514Y-41578D01*
X51499Y-41592D01*
X51471Y-41607D01*
X51414Y-41621D01*
X51342Y-41621D01*
X51285Y-41607D01*
X51257Y-41592D01*
X51242Y-41578D01*
X51228Y-41550D01*
X51228Y-41521D01*
X51242Y-41492D01*
X51257Y-41478D01*
X51285Y-41464D01*
X51342Y-41450D01*
X51414Y-41450D01*
X51471Y-41464D01*
X51499Y-41478D01*
X51514Y-41492D01*
X51528Y-41521D01*
X51257Y-41750D02*
X51242Y-41764D01*
X51228Y-41750D01*
X51242Y-41735D01*
X51257Y-41750D01*
X51228Y-41750D01*
X51528Y-42035D02*
X51528Y-41892D01*
X51385Y-41878D01*
X51399Y-41892D01*
X51414Y-41921D01*
X51414Y-41992D01*
X51399Y-42021D01*
X51385Y-42035D01*
X51357Y-42050D01*
X51285Y-42050D01*
X51257Y-42035D01*
X51242Y-42021D01*
X51228Y-41992D01*
X51228Y-41921D01*
X51242Y-41892D01*
X51257Y-41878D01*
X51528Y-42235D02*
X51528Y-42264D01*
X51514Y-42292D01*
X51499Y-42307D01*
X51471Y-42321D01*
X51414Y-42335D01*
X51342Y-42335D01*
X51285Y-42321D01*
X51257Y-42307D01*
X51242Y-42292D01*
X51228Y-42264D01*
X51228Y-42235D01*
X51242Y-42207D01*
X51257Y-42192D01*
X51285Y-42178D01*
X51342Y-42164D01*
X51414Y-42164D01*
X51471Y-42178D01*
X51499Y-42192D01*
X51514Y-42207D01*
X51528Y-42235D01*
X51528Y-42521D02*
X51528Y-42550D01*
X51514Y-42578D01*
X51499Y-42592D01*
X51471Y-42607D01*
X51414Y-42621D01*
X51342Y-42621D01*
X51285Y-42607D01*
X51257Y-42592D01*
X51242Y-42578D01*
X51228Y-42550D01*
X51228Y-42521D01*
X51242Y-42492D01*
X51257Y-42478D01*
X51285Y-42464D01*
X51342Y-42450D01*
X51414Y-42450D01*
X51471Y-42464D01*
X51499Y-42478D01*
X51514Y-42492D01*
X51528Y-42521D01*
X51528Y-42807D02*
X51528Y-42835D01*
X51514Y-42864D01*
X51499Y-42878D01*
X51471Y-42892D01*
X51414Y-42907D01*
X51342Y-42907D01*
X51285Y-42892D01*
X51257Y-42878D01*
X51242Y-42864D01*
X51228Y-42835D01*
X51228Y-42807D01*
X51242Y-42778D01*
X51257Y-42764D01*
X51285Y-42750D01*
X51342Y-42735D01*
X51414Y-42735D01*
X51471Y-42750D01*
X51499Y-42764D01*
X51514Y-42778D01*
X51528Y-42807D01*
X51228Y-43264D02*
X51428Y-43264D01*
X51528Y-43264D02*
X51514Y-43249D01*
X51499Y-43264D01*
X51514Y-43278D01*
X51528Y-43264D01*
X51499Y-43264D01*
X51428Y-43407D02*
X51228Y-43407D01*
X51399Y-43407D02*
X51414Y-43421D01*
X51428Y-43449D01*
X51428Y-43492D01*
X51414Y-43521D01*
X51385Y-43535D01*
X51228Y-43535D01*
X51099Y-40000D02*
X51099Y-45000D01*
X50500Y-40000D02*
X51599Y-40000D01*
X50500Y-45000D02*
X51599Y-45000D01*
X51099Y-45000D02*
X50869Y-44556D01*
X51099Y-45000D02*
X51330Y-44556D01*
X51099Y-40000D02*
X50869Y-40443D01*
X51099Y-40000D02*
X51330Y-40443D01*
X51528Y-15521D02*
X51528Y-15550D01*
X51514Y-15578D01*
X51499Y-15592D01*
X51471Y-15607D01*
X51414Y-15621D01*
X51342Y-15621D01*
X51285Y-15607D01*
X51257Y-15592D01*
X51242Y-15578D01*
X51228Y-15550D01*
X51228Y-15521D01*
X51242Y-15492D01*
X51257Y-15478D01*
X51285Y-15464D01*
X51342Y-15450D01*
X51414Y-15450D01*
X51471Y-15464D01*
X51499Y-15478D01*
X51514Y-15492D01*
X51528Y-15521D01*
X51257Y-15750D02*
X51242Y-15764D01*
X51228Y-15750D01*
X51242Y-15735D01*
X51257Y-15750D01*
X51228Y-15750D01*
X51528Y-16035D02*
X51528Y-15892D01*
X51385Y-15878D01*
X51399Y-15892D01*
X51414Y-15921D01*
X51414Y-15992D01*
X51399Y-16021D01*
X51385Y-16035D01*
X51357Y-16050D01*
X51285Y-16050D01*
X51257Y-16035D01*
X51242Y-16021D01*
X51228Y-15992D01*
X51228Y-15921D01*
X51242Y-15892D01*
X51257Y-15878D01*
X51528Y-16235D02*
X51528Y-16264D01*
X51514Y-16292D01*
X51499Y-16307D01*
X51471Y-16321D01*
X51414Y-16335D01*
X51342Y-16335D01*
X51285Y-16321D01*
X51257Y-16307D01*
X51242Y-16292D01*
X51228Y-16264D01*
X51228Y-16235D01*
X51242Y-16207D01*
X51257Y-16192D01*
X51285Y-16178D01*
X51342Y-16164D01*
X51414Y-16164D01*
X51471Y-16178D01*
X51499Y-16192D01*
X51514Y-16207D01*
X51528Y-16235D01*
X51528Y-16521D02*
X51528Y-16550D01*
X51514Y-16578D01*
X51499Y-16592D01*
X51471Y-16607D01*
X51414Y-16621D01*
X51342Y-16621D01*
X51285Y-16607D01*
X51257Y-16592D01*
X51242Y-16578D01*
X51228Y-16550D01*
X51228Y-16521D01*
X51242Y-16492D01*
X51257Y-16478D01*
X51285Y-16464D01*
X51342Y-16450D01*
X51414Y-16450D01*
X51471Y-16464D01*
X51499Y-16478D01*
X51514Y-16492D01*
X51528Y-16521D01*
X51528Y-16807D02*
X51528Y-16835D01*
X51514Y-16864D01*
X51499Y-16878D01*
X51471Y-16892D01*
X51414Y-16907D01*
X51342Y-16907D01*
X51285Y-16892D01*
X51257Y-16878D01*
X51242Y-16864D01*
X51228Y-16835D01*
X51228Y-16807D01*
X51242Y-16778D01*
X51257Y-16764D01*
X51285Y-16750D01*
X51342Y-16735D01*
X51414Y-16735D01*
X51471Y-16750D01*
X51499Y-16764D01*
X51514Y-16778D01*
X51528Y-16807D01*
X51228Y-17264D02*
X51428Y-17264D01*
X51528Y-17264D02*
X51514Y-17249D01*
X51499Y-17264D01*
X51514Y-17278D01*
X51528Y-17264D01*
X51499Y-17264D01*
X51428Y-17407D02*
X51228Y-17407D01*
X51399Y-17407D02*
X51414Y-17421D01*
X51428Y-17449D01*
X51428Y-17492D01*
X51414Y-17521D01*
X51385Y-17535D01*
X51228Y-17535D01*
X51099Y-14000D02*
X51099Y-19000D01*
X50500Y-14000D02*
X51599Y-14000D01*
X50500Y-19000D02*
X51599Y-19000D01*
X51099Y-19000D02*
X50869Y-18556D01*
X51099Y-19000D02*
X51330Y-18556D01*
X51099Y-14000D02*
X50869Y-14443D01*
X51099Y-14000D02*
X51330Y-14443D01*
X51499Y-28450D02*
X51514Y-28464D01*
X51528Y-28492D01*
X51528Y-28564D01*
X51514Y-28592D01*
X51499Y-28607D01*
X51471Y-28621D01*
X51442Y-28621D01*
X51399Y-28607D01*
X51228Y-28435D01*
X51228Y-28621D01*
X51257Y-28750D02*
X51242Y-28764D01*
X51228Y-28750D01*
X51242Y-28735D01*
X51257Y-28750D01*
X51228Y-28750D01*
X51228Y-29050D02*
X51228Y-28878D01*
X51228Y-28964D02*
X51528Y-28964D01*
X51485Y-28935D01*
X51457Y-28907D01*
X51442Y-28878D01*
X51528Y-29235D02*
X51528Y-29264D01*
X51514Y-29292D01*
X51499Y-29307D01*
X51471Y-29321D01*
X51414Y-29335D01*
X51342Y-29335D01*
X51285Y-29321D01*
X51257Y-29307D01*
X51242Y-29292D01*
X51228Y-29264D01*
X51228Y-29235D01*
X51242Y-29207D01*
X51257Y-29192D01*
X51285Y-29178D01*
X51342Y-29164D01*
X51414Y-29164D01*
X51471Y-29178D01*
X51499Y-29192D01*
X51514Y-29207D01*
X51528Y-29235D01*
X51528Y-29521D02*
X51528Y-29550D01*
X51514Y-29578D01*
X51499Y-29592D01*
X51471Y-29607D01*
X51414Y-29621D01*
X51342Y-29621D01*
X51285Y-29607D01*
X51257Y-29592D01*
X51242Y-29578D01*
X51228Y-29550D01*
X51228Y-29521D01*
X51242Y-29492D01*
X51257Y-29478D01*
X51285Y-29464D01*
X51342Y-29450D01*
X51414Y-29450D01*
X51471Y-29464D01*
X51499Y-29478D01*
X51514Y-29492D01*
X51528Y-29521D01*
X51528Y-29807D02*
X51528Y-29835D01*
X51514Y-29864D01*
X51499Y-29878D01*
X51471Y-29892D01*
X51414Y-29907D01*
X51342Y-29907D01*
X51285Y-29892D01*
X51257Y-29878D01*
X51242Y-29864D01*
X51228Y-29835D01*
X51228Y-29807D01*
X51242Y-29778D01*
X51257Y-29764D01*
X51285Y-29750D01*
X51342Y-29735D01*
X51414Y-29735D01*
X51471Y-29750D01*
X51499Y-29764D01*
X51514Y-29778D01*
X51528Y-29807D01*
X51228Y-30264D02*
X51428Y-30264D01*
X51528Y-30264D02*
X51514Y-30249D01*
X51499Y-30264D01*
X51514Y-30278D01*
X51528Y-30264D01*
X51499Y-30264D01*
X51428Y-30407D02*
X51228Y-30407D01*
X51399Y-30407D02*
X51414Y-30421D01*
X51428Y-30449D01*
X51428Y-30492D01*
X51414Y-30521D01*
X51385Y-30535D01*
X51228Y-30535D01*
X51099Y-19000D02*
X51099Y-40000D01*
X50500Y-19000D02*
X51599Y-19000D01*
X50500Y-40000D02*
X51599Y-40000D01*
X51099Y-40000D02*
X50869Y-39556D01*
X51099Y-40000D02*
X51330Y-39556D01*
X51099Y-19000D02*
X50869Y-19443D01*
X51099Y-19000D02*
X51330Y-19443D01*
X20900Y-19000D02*
X17500Y-19000D01*
X26400Y-19000D02*
X42500Y-19000D01*
X10000Y-40000D02*
X10000Y-14000D01*
X15000Y-40000D02*
X10000Y-40000D01*
X15000Y-45000D02*
X15000Y-40000D01*
X45000Y-45000D02*
X15000Y-45000D01*
X45000Y-40000D02*
X45000Y-45000D01*
X50000Y-40000D02*
X45000Y-40000D01*
X50000Y-40000D02*
X50000Y-14000D01*
X45000Y-14000D02*
X50000Y-14000D01*
X45000Y-19000D02*
X45000Y-14000D01*
X15000Y-19000D02*
X45000Y-19000D01*
X15000Y-14000D02*
X15000Y-19000D01*
X10000Y-14000D02*
X15000Y-14000D01*
X47500Y-40000D02*
G75*
G03X50000Y-37500I0J2500D01*
G74*
G01*
X42500Y-45000D02*
G75*
G03X45000Y-42500I0J2500D01*
G74*
G01*
X47500Y-40000D02*
G75*
G03X45000Y-42500I0J-2500D01*
G74*
G01*
X15000Y-42500D02*
G75*
G03X17500Y-45000I2500J0D01*
G74*
G01*
X10000Y-37500D02*
G75*
G03X12500Y-40000I2500J0D01*
G74*
G01*
X15000Y-42500D02*
G75*
G03X12500Y-40000I-2500J0D01*
G74*
G01*
X42500Y-19000D02*
G75*
G03X45000Y-16500I0J2500D01*
G74*
G01*
X50000Y-16500D02*
G75*
G03X47500Y-14000I-2500J0D01*
G74*
G01*
X47500Y-14000D02*
G75*
G03X45000Y-16500I0J-2500D01*
G74*
G01*
X15000Y-16500D02*
G75*
G03X17500Y-19000I2500J0D01*
G74*
G01*
X15000Y-16500D02*
G75*
G03X12500Y-14000I-2500J0D01*
G74*
G01*
X12500Y-14000D02*
G75*
G03X10000Y-16500I0J-2500D01*
G74*
G01*
X13850Y-38550D02*
X15350Y-38550D01*
X13850Y-27550D02*
X13850Y-38550D01*
X15350Y-27550D02*
X13850Y-27550D01*
X15350Y-38550D02*
X15350Y-27550D01*
X42500Y-45000D02*
X17500Y-45000D01*
X10000Y-37500D02*
X10000Y-16500D01*
X50000Y-16500D02*
X50000Y-37500D01*
M02*
