G04 (created by PCBNEW-RS274X (2010-05-05 BZR 2356)-stable) date 12/23/10 16:21:38*
G01*
G70*
G90*
%MOIN*%
G04 Gerber Fmt 3.4, Leading zero omitted, Abs format*
%FSLAX34Y34*%
G04 APERTURE LIST*
%ADD10C,0.005000*%
%ADD11C,0.006000*%
%ADD12C,0.012000*%
%ADD13C,0.015000*%
%ADD14C,0.008000*%
%ADD15C,0.007500*%
G04 APERTURE END LIST*
G54D10*
G54D11*
X17733Y-18645D02*
X17733Y-18969D01*
X17752Y-19007D01*
X17771Y-19026D01*
X17810Y-19045D01*
X17867Y-19045D01*
X17905Y-19026D01*
X17733Y-18893D02*
X17771Y-18912D01*
X17848Y-18912D01*
X17886Y-18893D01*
X17905Y-18874D01*
X17924Y-18836D01*
X17924Y-18721D01*
X17905Y-18683D01*
X17886Y-18664D01*
X17848Y-18645D01*
X17771Y-18645D01*
X17733Y-18664D01*
X17486Y-18912D02*
X17524Y-18893D01*
X17543Y-18874D01*
X17562Y-18836D01*
X17562Y-18721D01*
X17543Y-18683D01*
X17524Y-18664D01*
X17486Y-18645D01*
X17428Y-18645D01*
X17390Y-18664D01*
X17371Y-18683D01*
X17352Y-18721D01*
X17352Y-18836D01*
X17371Y-18874D01*
X17390Y-18893D01*
X17428Y-18912D01*
X17486Y-18912D01*
X17124Y-18912D02*
X17162Y-18893D01*
X17181Y-18874D01*
X17200Y-18836D01*
X17200Y-18721D01*
X17181Y-18683D01*
X17162Y-18664D01*
X17124Y-18645D01*
X17066Y-18645D01*
X17028Y-18664D01*
X17009Y-18683D01*
X16990Y-18721D01*
X16990Y-18836D01*
X17009Y-18874D01*
X17028Y-18893D01*
X17066Y-18912D01*
X17124Y-18912D01*
X16819Y-18874D02*
X16800Y-18893D01*
X16819Y-18912D01*
X16838Y-18893D01*
X16819Y-18874D01*
X16819Y-18912D01*
X16457Y-18645D02*
X16457Y-18969D01*
X16476Y-19007D01*
X16495Y-19026D01*
X16534Y-19045D01*
X16591Y-19045D01*
X16629Y-19026D01*
X16457Y-18893D02*
X16495Y-18912D01*
X16572Y-18912D01*
X16610Y-18893D01*
X16629Y-18874D01*
X16648Y-18836D01*
X16648Y-18721D01*
X16629Y-18683D01*
X16610Y-18664D01*
X16572Y-18645D01*
X16495Y-18645D01*
X16457Y-18664D01*
X16210Y-18912D02*
X16248Y-18893D01*
X16267Y-18855D01*
X16267Y-18512D01*
X15771Y-18493D02*
X16114Y-19007D01*
X15695Y-18512D02*
X15562Y-18912D01*
X15428Y-18512D01*
X15238Y-18683D02*
X15276Y-18664D01*
X15295Y-18645D01*
X15314Y-18607D01*
X15314Y-18588D01*
X15295Y-18550D01*
X15276Y-18531D01*
X15238Y-18512D01*
X15161Y-18512D01*
X15123Y-18531D01*
X15104Y-18550D01*
X15085Y-18588D01*
X15085Y-18607D01*
X15104Y-18645D01*
X15123Y-18664D01*
X15161Y-18683D01*
X15238Y-18683D01*
X15276Y-18702D01*
X15295Y-18721D01*
X15314Y-18760D01*
X15314Y-18836D01*
X15295Y-18874D01*
X15276Y-18893D01*
X15238Y-18912D01*
X15161Y-18912D01*
X15123Y-18893D01*
X15104Y-18874D01*
X15085Y-18836D01*
X15085Y-18760D01*
X15104Y-18721D01*
X15123Y-18702D01*
X15161Y-18683D01*
X14914Y-18912D02*
X14914Y-18512D01*
X14780Y-18798D01*
X14647Y-18512D01*
X14647Y-18912D01*
X14457Y-18645D02*
X14457Y-18912D01*
X14457Y-18683D02*
X14438Y-18664D01*
X14400Y-18645D01*
X14342Y-18645D01*
X14304Y-18664D01*
X14285Y-18702D01*
X14285Y-18912D01*
X14095Y-18912D02*
X14095Y-18645D01*
X14095Y-18512D02*
X14114Y-18531D01*
X14095Y-18550D01*
X14076Y-18531D01*
X14095Y-18512D01*
X14095Y-18550D01*
G54D12*
X23815Y-14658D02*
X23815Y-14315D01*
X23815Y-14487D02*
X24615Y-14487D01*
X24501Y-14430D01*
X24425Y-14372D01*
X24387Y-14315D01*
X23891Y-14915D02*
X23853Y-14943D01*
X23815Y-14915D01*
X23853Y-14886D01*
X23891Y-14915D01*
X23815Y-14915D01*
X24539Y-15172D02*
X24577Y-15201D01*
X24615Y-15258D01*
X24615Y-15401D01*
X24577Y-15458D01*
X24539Y-15487D01*
X24463Y-15515D01*
X24387Y-15515D01*
X24272Y-15487D01*
X23815Y-15144D01*
X23815Y-15515D01*
X24615Y-15886D02*
X24615Y-15943D01*
X24577Y-16000D01*
X24539Y-16029D01*
X24463Y-16058D01*
X24310Y-16086D01*
X24120Y-16086D01*
X23968Y-16058D01*
X23891Y-16029D01*
X23853Y-16000D01*
X23815Y-15943D01*
X23815Y-15886D01*
X23853Y-15829D01*
X23891Y-15800D01*
X23968Y-15772D01*
X24120Y-15743D01*
X24310Y-15743D01*
X24463Y-15772D01*
X24539Y-15800D01*
X24577Y-15829D01*
X24615Y-15886D01*
X24615Y-16457D02*
X24615Y-16514D01*
X24577Y-16571D01*
X24539Y-16600D01*
X24463Y-16629D01*
X24310Y-16657D01*
X24120Y-16657D01*
X23968Y-16629D01*
X23891Y-16600D01*
X23853Y-16571D01*
X23815Y-16514D01*
X23815Y-16457D01*
X23853Y-16400D01*
X23891Y-16371D01*
X23968Y-16343D01*
X24120Y-16314D01*
X24310Y-16314D01*
X24463Y-16343D01*
X24539Y-16371D01*
X24577Y-16400D01*
X24615Y-16457D01*
X24615Y-17028D02*
X24615Y-17085D01*
X24577Y-17142D01*
X24539Y-17171D01*
X24463Y-17200D01*
X24310Y-17228D01*
X24120Y-17228D01*
X23968Y-17200D01*
X23891Y-17171D01*
X23853Y-17142D01*
X23815Y-17085D01*
X23815Y-17028D01*
X23853Y-16971D01*
X23891Y-16942D01*
X23968Y-16914D01*
X24120Y-16885D01*
X24310Y-16885D01*
X24463Y-16914D01*
X24539Y-16942D01*
X24577Y-16971D01*
X24615Y-17028D01*
X23499Y-10000D02*
X23499Y-22000D01*
X22750Y-10000D02*
X24779Y-10000D01*
X22750Y-22000D02*
X24779Y-22000D01*
X23499Y-22000D02*
X23269Y-21557D01*
X23499Y-22000D02*
X23729Y-21557D01*
X23499Y-10000D02*
X23269Y-10443D01*
X23499Y-10000D02*
X23729Y-10443D01*
X14658Y-08435D02*
X14315Y-08435D01*
X14487Y-08435D02*
X14487Y-07635D01*
X14430Y-07749D01*
X14372Y-07825D01*
X14315Y-07863D01*
X14915Y-08359D02*
X14943Y-08397D01*
X14915Y-08435D01*
X14886Y-08397D01*
X14915Y-08359D01*
X14915Y-08435D01*
X15172Y-07711D02*
X15201Y-07673D01*
X15258Y-07635D01*
X15401Y-07635D01*
X15458Y-07673D01*
X15487Y-07711D01*
X15515Y-07787D01*
X15515Y-07863D01*
X15487Y-07978D01*
X15144Y-08435D01*
X15515Y-08435D01*
X15886Y-07635D02*
X15943Y-07635D01*
X16000Y-07673D01*
X16029Y-07711D01*
X16058Y-07787D01*
X16086Y-07940D01*
X16086Y-08130D01*
X16058Y-08282D01*
X16029Y-08359D01*
X16000Y-08397D01*
X15943Y-08435D01*
X15886Y-08435D01*
X15829Y-08397D01*
X15800Y-08359D01*
X15772Y-08282D01*
X15743Y-08130D01*
X15743Y-07940D01*
X15772Y-07787D01*
X15800Y-07711D01*
X15829Y-07673D01*
X15886Y-07635D01*
X16457Y-07635D02*
X16514Y-07635D01*
X16571Y-07673D01*
X16600Y-07711D01*
X16629Y-07787D01*
X16657Y-07940D01*
X16657Y-08130D01*
X16629Y-08282D01*
X16600Y-08359D01*
X16571Y-08397D01*
X16514Y-08435D01*
X16457Y-08435D01*
X16400Y-08397D01*
X16371Y-08359D01*
X16343Y-08282D01*
X16314Y-08130D01*
X16314Y-07940D01*
X16343Y-07787D01*
X16371Y-07711D01*
X16400Y-07673D01*
X16457Y-07635D01*
X17028Y-07635D02*
X17085Y-07635D01*
X17142Y-07673D01*
X17171Y-07711D01*
X17200Y-07787D01*
X17228Y-07940D01*
X17228Y-08130D01*
X17200Y-08282D01*
X17171Y-08359D01*
X17142Y-08397D01*
X17085Y-08435D01*
X17028Y-08435D01*
X16971Y-08397D01*
X16942Y-08359D01*
X16914Y-08282D01*
X16885Y-08130D01*
X16885Y-07940D01*
X16914Y-07787D01*
X16942Y-07711D01*
X16971Y-07673D01*
X17028Y-07635D01*
X10000Y-08751D02*
X22000Y-08751D01*
X10000Y-09250D02*
X10000Y-07471D01*
X22000Y-09250D02*
X22000Y-07471D01*
X22000Y-08751D02*
X21557Y-08981D01*
X22000Y-08751D02*
X21557Y-08521D01*
X10000Y-08751D02*
X10443Y-08981D01*
X10000Y-08751D02*
X10443Y-08521D01*
G54D11*
X21295Y-14162D02*
X21295Y-13762D01*
X21142Y-13762D01*
X21104Y-13781D01*
X21085Y-13800D01*
X21066Y-13838D01*
X21066Y-13895D01*
X21085Y-13933D01*
X21104Y-13952D01*
X21142Y-13971D01*
X21295Y-13971D01*
X20933Y-13762D02*
X20685Y-13762D01*
X20819Y-13914D01*
X20761Y-13914D01*
X20723Y-13933D01*
X20704Y-13952D01*
X20685Y-13990D01*
X20685Y-14086D01*
X20704Y-14124D01*
X20723Y-14143D01*
X20761Y-14162D01*
X20876Y-14162D01*
X20914Y-14143D01*
X20933Y-14124D01*
X13652Y-15260D02*
X13347Y-15260D01*
X19652Y-16760D02*
X19347Y-16760D01*
X19499Y-16912D02*
X19499Y-16607D01*
X12652Y-16760D02*
X12347Y-16760D01*
X12499Y-16912D02*
X12499Y-16607D01*
X12588Y-18124D02*
X12607Y-18143D01*
X12664Y-18162D01*
X12702Y-18162D01*
X12760Y-18143D01*
X12798Y-18105D01*
X12817Y-18067D01*
X12836Y-17990D01*
X12836Y-17933D01*
X12817Y-17857D01*
X12798Y-17819D01*
X12760Y-17781D01*
X12702Y-17762D01*
X12664Y-17762D01*
X12607Y-17781D01*
X12588Y-17800D01*
X12188Y-18162D02*
X12322Y-17971D01*
X12417Y-18162D02*
X12417Y-17762D01*
X12264Y-17762D01*
X12226Y-17781D01*
X12207Y-17800D01*
X12188Y-17838D01*
X12188Y-17895D01*
X12207Y-17933D01*
X12226Y-17952D01*
X12264Y-17971D01*
X12417Y-17971D01*
X12036Y-17800D02*
X12017Y-17781D01*
X11979Y-17762D01*
X11883Y-17762D01*
X11845Y-17781D01*
X11826Y-17800D01*
X11807Y-17838D01*
X11807Y-17876D01*
X11826Y-17933D01*
X12055Y-18162D01*
X11807Y-18162D01*
X11560Y-17762D02*
X11521Y-17762D01*
X11483Y-17781D01*
X11464Y-17800D01*
X11445Y-17838D01*
X11426Y-17914D01*
X11426Y-18010D01*
X11445Y-18086D01*
X11464Y-18124D01*
X11483Y-18143D01*
X11521Y-18162D01*
X11560Y-18162D01*
X11598Y-18143D01*
X11617Y-18124D01*
X11636Y-18086D01*
X11655Y-18010D01*
X11655Y-17914D01*
X11636Y-17838D01*
X11617Y-17800D01*
X11598Y-17781D01*
X11560Y-17762D01*
X11293Y-17762D02*
X11045Y-17762D01*
X11179Y-17914D01*
X11121Y-17914D01*
X11083Y-17933D01*
X11064Y-17952D01*
X11045Y-17990D01*
X11045Y-18086D01*
X11064Y-18124D01*
X11083Y-18143D01*
X11121Y-18162D01*
X11236Y-18162D01*
X11274Y-18143D01*
X11293Y-18124D01*
X10893Y-17800D02*
X10874Y-17781D01*
X10836Y-17762D01*
X10740Y-17762D01*
X10702Y-17781D01*
X10683Y-17800D01*
X10664Y-17838D01*
X10664Y-17876D01*
X10683Y-17933D01*
X10912Y-18162D01*
X10664Y-18162D01*
X12064Y-17202D02*
X12007Y-17221D01*
X11988Y-17240D01*
X11969Y-17279D01*
X11969Y-17336D01*
X11988Y-17374D01*
X12007Y-17393D01*
X12045Y-17412D01*
X12198Y-17412D01*
X12198Y-17012D01*
X12064Y-17012D01*
X12026Y-17031D01*
X12007Y-17050D01*
X11988Y-17088D01*
X11988Y-17126D01*
X12007Y-17164D01*
X12026Y-17183D01*
X12064Y-17202D01*
X12198Y-17202D01*
X11855Y-17012D02*
X11626Y-17012D01*
X11741Y-17412D02*
X11741Y-17012D01*
X11283Y-17412D02*
X11512Y-17412D01*
X11398Y-17412D02*
X11398Y-17012D01*
X11436Y-17069D01*
X11474Y-17107D01*
X11512Y-17126D01*
G54D13*
X10000Y-22000D02*
X10000Y-10000D01*
X22000Y-22000D02*
X10000Y-22000D01*
X22000Y-10000D02*
X22000Y-22000D01*
X10000Y-10000D02*
X22000Y-10000D01*
G54D11*
X14364Y-10262D02*
X14269Y-10662D01*
X14192Y-10376D01*
X14116Y-10662D01*
X14021Y-10262D01*
X13907Y-10395D02*
X13812Y-10662D01*
X13716Y-10395D02*
X13812Y-10662D01*
X13850Y-10757D01*
X13869Y-10776D01*
X13907Y-10795D01*
X13507Y-10662D02*
X13545Y-10643D01*
X13564Y-10624D01*
X13583Y-10586D01*
X13583Y-10471D01*
X13564Y-10433D01*
X13545Y-10414D01*
X13507Y-10395D01*
X13449Y-10395D01*
X13411Y-10414D01*
X13392Y-10433D01*
X13373Y-10471D01*
X13373Y-10586D01*
X13392Y-10624D01*
X13411Y-10643D01*
X13449Y-10662D01*
X13507Y-10662D01*
X13011Y-10662D02*
X13202Y-10662D01*
X13202Y-10262D01*
X12706Y-10395D02*
X12706Y-10662D01*
X12878Y-10395D02*
X12878Y-10605D01*
X12859Y-10643D01*
X12821Y-10662D01*
X12763Y-10662D01*
X12725Y-10643D01*
X12706Y-10624D01*
X12516Y-10662D02*
X12516Y-10395D01*
X12516Y-10433D02*
X12497Y-10414D01*
X12459Y-10395D01*
X12401Y-10395D01*
X12363Y-10414D01*
X12344Y-10452D01*
X12344Y-10662D01*
X12344Y-10452D02*
X12325Y-10414D01*
X12287Y-10395D01*
X12230Y-10395D01*
X12192Y-10414D01*
X12173Y-10452D01*
X12173Y-10662D01*
X19924Y-21662D02*
X19924Y-21395D01*
X19924Y-21471D02*
X19905Y-21433D01*
X19886Y-21414D01*
X19848Y-21395D01*
X19809Y-21395D01*
X19733Y-21395D02*
X19581Y-21395D01*
X19676Y-21262D02*
X19676Y-21605D01*
X19657Y-21643D01*
X19619Y-21662D01*
X19581Y-21662D01*
X19275Y-21643D02*
X19313Y-21662D01*
X19390Y-21662D01*
X19428Y-21643D01*
X19447Y-21624D01*
X19466Y-21586D01*
X19466Y-21471D01*
X19447Y-21433D01*
X19428Y-21414D01*
X19390Y-21395D01*
X19313Y-21395D01*
X19275Y-21414D01*
X18970Y-21452D02*
X18913Y-21471D01*
X18894Y-21490D01*
X18875Y-21529D01*
X18875Y-21586D01*
X18894Y-21624D01*
X18913Y-21643D01*
X18951Y-21662D01*
X19104Y-21662D01*
X19104Y-21262D01*
X18970Y-21262D01*
X18932Y-21281D01*
X18913Y-21300D01*
X18894Y-21338D01*
X18894Y-21376D01*
X18913Y-21414D01*
X18932Y-21433D01*
X18970Y-21452D01*
X19104Y-21452D01*
X18628Y-21262D02*
X18551Y-21262D01*
X18513Y-21281D01*
X18475Y-21319D01*
X18456Y-21395D01*
X18456Y-21529D01*
X18475Y-21605D01*
X18513Y-21643D01*
X18551Y-21662D01*
X18628Y-21662D01*
X18666Y-21643D01*
X18704Y-21605D01*
X18723Y-21529D01*
X18723Y-21395D01*
X18704Y-21319D01*
X18666Y-21281D01*
X18628Y-21262D01*
X18151Y-21452D02*
X18094Y-21471D01*
X18075Y-21490D01*
X18056Y-21529D01*
X18056Y-21586D01*
X18075Y-21624D01*
X18094Y-21643D01*
X18132Y-21662D01*
X18285Y-21662D01*
X18285Y-21262D01*
X18151Y-21262D01*
X18113Y-21281D01*
X18094Y-21300D01*
X18075Y-21338D01*
X18075Y-21376D01*
X18094Y-21414D01*
X18113Y-21433D01*
X18151Y-21452D01*
X18285Y-21452D01*
X16971Y-10452D02*
X16914Y-10471D01*
X16895Y-10490D01*
X16876Y-10529D01*
X16876Y-10586D01*
X16895Y-10624D01*
X16914Y-10643D01*
X16952Y-10662D01*
X17105Y-10662D01*
X17105Y-10262D01*
X16971Y-10262D01*
X16933Y-10281D01*
X16914Y-10300D01*
X16895Y-10338D01*
X16895Y-10376D01*
X16914Y-10414D01*
X16933Y-10433D01*
X16971Y-10452D01*
X17105Y-10452D01*
X14847Y-10700D02*
X14885Y-10681D01*
X14923Y-10643D01*
X14980Y-10586D01*
X15019Y-10567D01*
X15057Y-10567D01*
X15038Y-10662D02*
X15076Y-10643D01*
X15114Y-10605D01*
X15133Y-10529D01*
X15133Y-10395D01*
X15114Y-10319D01*
X15076Y-10281D01*
X15038Y-10262D01*
X14961Y-10262D01*
X14923Y-10281D01*
X14885Y-10319D01*
X14866Y-10395D01*
X14866Y-10529D01*
X14885Y-10605D01*
X14923Y-10643D01*
X14961Y-10662D01*
X15038Y-10662D01*
X14876Y-12662D02*
X15010Y-12471D01*
X15105Y-12662D02*
X15105Y-12262D01*
X14952Y-12262D01*
X14914Y-12281D01*
X14895Y-12300D01*
X14876Y-12338D01*
X14876Y-12395D01*
X14895Y-12433D01*
X14914Y-12452D01*
X14952Y-12471D01*
X15105Y-12471D01*
G54D14*
X18190Y-19762D02*
X17809Y-19762D01*
X17190Y-21512D02*
X16809Y-21512D01*
X16999Y-21702D02*
X16999Y-21321D01*
X14845Y-19655D02*
X14869Y-19679D01*
X14940Y-19702D01*
X14988Y-19702D01*
X15060Y-19679D01*
X15107Y-19631D01*
X15131Y-19583D01*
X15155Y-19488D01*
X15155Y-19417D01*
X15131Y-19321D01*
X15107Y-19274D01*
X15060Y-19226D01*
X14988Y-19202D01*
X14940Y-19202D01*
X14869Y-19226D01*
X14845Y-19250D01*
X14131Y-21702D02*
X14131Y-21202D01*
X14012Y-21202D01*
X13940Y-21226D01*
X13893Y-21274D01*
X13869Y-21321D01*
X13845Y-21417D01*
X13845Y-21488D01*
X13869Y-21583D01*
X13893Y-21631D01*
X13940Y-21679D01*
X14012Y-21702D01*
X14131Y-21702D01*
G54D12*
X21150Y-19900D02*
X21150Y-17100D01*
X21150Y-17100D02*
X20350Y-17100D01*
X20350Y-17100D02*
X20350Y-19900D01*
X20350Y-19900D02*
X21150Y-19900D01*
X20950Y-19900D02*
X21150Y-19700D01*
G54D15*
X18929Y-11679D02*
X19071Y-11821D01*
X19044Y-11396D02*
X19036Y-11473D01*
X19013Y-11547D01*
X18977Y-11616D01*
X18928Y-11676D01*
X18868Y-11725D01*
X18800Y-11762D01*
X18726Y-11785D01*
X18648Y-11793D01*
X18572Y-11786D01*
X18497Y-11765D01*
X18429Y-11729D01*
X18368Y-11680D01*
X18318Y-11620D01*
X18281Y-11552D01*
X18257Y-11478D01*
X18249Y-11401D01*
X18255Y-11325D01*
X18276Y-11250D01*
X18312Y-11181D01*
X18360Y-11120D01*
X18419Y-11070D01*
X18487Y-11032D01*
X18561Y-11008D01*
X18638Y-10999D01*
X18715Y-11005D01*
X18789Y-11025D01*
X18859Y-11060D01*
X18920Y-11108D01*
X18971Y-11167D01*
X19009Y-11235D01*
X19034Y-11308D01*
X19043Y-11385D01*
X19044Y-11396D01*
X12679Y-12321D02*
X12821Y-12179D01*
X12794Y-12604D02*
X12786Y-12681D01*
X12763Y-12755D01*
X12727Y-12824D01*
X12678Y-12884D01*
X12618Y-12933D01*
X12550Y-12970D01*
X12476Y-12993D01*
X12398Y-13001D01*
X12322Y-12994D01*
X12247Y-12973D01*
X12179Y-12937D01*
X12118Y-12888D01*
X12068Y-12828D01*
X12031Y-12760D01*
X12007Y-12686D01*
X11999Y-12609D01*
X12005Y-12533D01*
X12026Y-12458D01*
X12062Y-12389D01*
X12110Y-12328D01*
X12169Y-12278D01*
X12237Y-12240D01*
X12311Y-12216D01*
X12388Y-12207D01*
X12465Y-12213D01*
X12539Y-12233D01*
X12609Y-12268D01*
X12670Y-12316D01*
X12721Y-12375D01*
X12759Y-12443D01*
X12784Y-12516D01*
X12793Y-12593D01*
X12794Y-12604D01*
X11179Y-13821D02*
X11321Y-13679D01*
X11294Y-14104D02*
X11286Y-14181D01*
X11263Y-14255D01*
X11227Y-14324D01*
X11178Y-14384D01*
X11118Y-14433D01*
X11050Y-14470D01*
X10976Y-14493D01*
X10898Y-14501D01*
X10822Y-14494D01*
X10747Y-14473D01*
X10679Y-14437D01*
X10618Y-14388D01*
X10568Y-14328D01*
X10531Y-14260D01*
X10507Y-14186D01*
X10499Y-14109D01*
X10505Y-14033D01*
X10526Y-13958D01*
X10562Y-13889D01*
X10610Y-13828D01*
X10669Y-13778D01*
X10737Y-13740D01*
X10811Y-13716D01*
X10888Y-13707D01*
X10965Y-13713D01*
X11039Y-13733D01*
X11109Y-13768D01*
X11170Y-13816D01*
X11221Y-13875D01*
X11259Y-13943D01*
X11284Y-14016D01*
X11293Y-14093D01*
X11294Y-14104D01*
G54D14*
X13850Y-14450D02*
X13850Y-17600D01*
X18150Y-17600D02*
X18150Y-14450D01*
X13850Y-17600D02*
X18150Y-17600D01*
X18150Y-14450D02*
X13850Y-14450D01*
X13850Y-16200D02*
X14150Y-16200D01*
X14150Y-16200D02*
X14150Y-15800D01*
X14150Y-15800D02*
X13850Y-15800D01*
G54D15*
X18050Y-11500D02*
X17550Y-12000D01*
X18050Y-11000D02*
X17000Y-12000D01*
X17000Y-11000D02*
X17000Y-12000D01*
X13950Y-11000D02*
X15200Y-11000D01*
X17200Y-11000D02*
X15800Y-11000D01*
X18050Y-11000D02*
X17800Y-11000D01*
X14200Y-12000D02*
X13950Y-12000D01*
X16200Y-12000D02*
X14800Y-12000D01*
X18050Y-12000D02*
X16800Y-12000D01*
X13950Y-12000D02*
X13950Y-11000D01*
X18050Y-11000D02*
X18050Y-12000D01*
X13950Y-20500D02*
X14450Y-20000D01*
X13950Y-21000D02*
X15000Y-20000D01*
X15000Y-21000D02*
X15000Y-20000D01*
X18050Y-21000D02*
X16800Y-21000D01*
X14800Y-21000D02*
X16200Y-21000D01*
X13950Y-21000D02*
X14200Y-21000D01*
X17800Y-20000D02*
X18050Y-20000D01*
X15800Y-20000D02*
X17200Y-20000D01*
X13950Y-20000D02*
X15200Y-20000D01*
X18050Y-20000D02*
X18050Y-21000D01*
X13950Y-21000D02*
X13950Y-20000D01*
G54D14*
X20124Y-19434D02*
X20143Y-19415D01*
X20162Y-19358D01*
X20162Y-19320D01*
X20143Y-19262D01*
X20105Y-19224D01*
X20067Y-19205D01*
X19990Y-19186D01*
X19933Y-19186D01*
X19857Y-19205D01*
X19819Y-19224D01*
X19781Y-19262D01*
X19762Y-19320D01*
X19762Y-19358D01*
X19781Y-19415D01*
X19800Y-19434D01*
X20162Y-19815D02*
X20162Y-19586D01*
X20162Y-19700D02*
X19762Y-19700D01*
X19819Y-19662D01*
X19857Y-19624D01*
X19876Y-19586D01*
X20162Y-17553D02*
X20162Y-17324D01*
X20162Y-17438D02*
X19762Y-17438D01*
X19819Y-17400D01*
X19857Y-17362D01*
X19876Y-17324D01*
X19762Y-17800D02*
X19762Y-17839D01*
X19781Y-17877D01*
X19800Y-17896D01*
X19838Y-17915D01*
X19914Y-17934D01*
X20010Y-17934D01*
X20086Y-17915D01*
X20124Y-17896D01*
X20143Y-17877D01*
X20162Y-17839D01*
X20162Y-17800D01*
X20143Y-17762D01*
X20124Y-17743D01*
X20086Y-17724D01*
X20010Y-17705D01*
X19914Y-17705D01*
X19838Y-17724D01*
X19800Y-17743D01*
X19781Y-17762D01*
X19762Y-17800D01*
X19762Y-18181D02*
X19762Y-18220D01*
X19781Y-18258D01*
X19800Y-18277D01*
X19838Y-18296D01*
X19914Y-18315D01*
X20010Y-18315D01*
X20086Y-18296D01*
X20124Y-18277D01*
X20143Y-18258D01*
X20162Y-18220D01*
X20162Y-18181D01*
X20143Y-18143D01*
X20124Y-18124D01*
X20086Y-18105D01*
X20010Y-18086D01*
X19914Y-18086D01*
X19838Y-18105D01*
X19800Y-18124D01*
X19781Y-18143D01*
X19762Y-18181D01*
X19895Y-18486D02*
X20162Y-18486D01*
X19933Y-18486D02*
X19914Y-18505D01*
X19895Y-18543D01*
X19895Y-18601D01*
X19914Y-18639D01*
X19952Y-18658D01*
X20162Y-18658D01*
G54D11*
X19432Y-11411D02*
X19662Y-11371D01*
X19594Y-11573D02*
X19877Y-11290D01*
X19769Y-11182D01*
X19728Y-11169D01*
X19702Y-11169D01*
X19661Y-11182D01*
X19621Y-11222D01*
X19607Y-11263D01*
X19607Y-11290D01*
X19621Y-11330D01*
X19729Y-11438D01*
X19163Y-11142D02*
X19325Y-11304D01*
X19244Y-11223D02*
X19527Y-10940D01*
X19513Y-11007D01*
X19513Y-11061D01*
X19527Y-11102D01*
X18554Y-12533D02*
X18716Y-12695D01*
X18635Y-12614D02*
X18918Y-12331D01*
X18904Y-12398D01*
X18904Y-12452D01*
X18918Y-12493D01*
X18662Y-12075D02*
X18634Y-12048D01*
X18594Y-12034D01*
X18567Y-12034D01*
X18527Y-12048D01*
X18460Y-12088D01*
X18392Y-12156D01*
X18352Y-12223D01*
X18338Y-12263D01*
X18338Y-12290D01*
X18352Y-12331D01*
X18379Y-12358D01*
X18419Y-12372D01*
X18446Y-12372D01*
X18487Y-12358D01*
X18554Y-12318D01*
X18622Y-12250D01*
X18662Y-12183D01*
X18675Y-12143D01*
X18675Y-12116D01*
X18662Y-12075D01*
X18163Y-12143D02*
X18446Y-11860D01*
X18244Y-12008D02*
X18055Y-12034D01*
X18244Y-11846D02*
X18244Y-12062D01*
X12411Y-11818D02*
X12371Y-11588D01*
X12573Y-11656D02*
X12290Y-11373D01*
X12182Y-11481D01*
X12169Y-11522D01*
X12169Y-11548D01*
X12182Y-11589D01*
X12222Y-11629D01*
X12263Y-11643D01*
X12290Y-11643D01*
X12330Y-11629D01*
X12438Y-11521D01*
X12048Y-11669D02*
X12021Y-11669D01*
X11981Y-11683D01*
X11913Y-11751D01*
X11899Y-11791D01*
X11899Y-11818D01*
X11913Y-11858D01*
X11940Y-11885D01*
X11993Y-11912D01*
X12317Y-11912D01*
X12142Y-12087D01*
X13533Y-12696D02*
X13695Y-12534D01*
X13614Y-12615D02*
X13331Y-12332D01*
X13398Y-12346D01*
X13452Y-12346D01*
X13493Y-12332D01*
X13075Y-12588D02*
X13048Y-12616D01*
X13034Y-12656D01*
X13034Y-12683D01*
X13048Y-12723D01*
X13088Y-12790D01*
X13156Y-12858D01*
X13223Y-12898D01*
X13263Y-12912D01*
X13290Y-12912D01*
X13331Y-12898D01*
X13358Y-12871D01*
X13372Y-12831D01*
X13372Y-12804D01*
X13358Y-12763D01*
X13318Y-12696D01*
X13250Y-12628D01*
X13183Y-12588D01*
X13143Y-12575D01*
X13116Y-12575D01*
X13075Y-12588D01*
X13143Y-13087D02*
X12860Y-12804D01*
X13008Y-13006D02*
X13034Y-13195D01*
X12846Y-13006D02*
X13062Y-13006D01*
X10911Y-13318D02*
X10871Y-13088D01*
X11073Y-13156D02*
X10790Y-12873D01*
X10682Y-12981D01*
X10669Y-13022D01*
X10669Y-13048D01*
X10682Y-13089D01*
X10722Y-13129D01*
X10763Y-13143D01*
X10790Y-13143D01*
X10830Y-13129D01*
X10938Y-13021D01*
X10534Y-13129D02*
X10359Y-13304D01*
X10561Y-13317D01*
X10520Y-13358D01*
X10507Y-13398D01*
X10507Y-13425D01*
X10520Y-13466D01*
X10588Y-13534D01*
X10628Y-13547D01*
X10655Y-13547D01*
X10696Y-13534D01*
X10777Y-13452D01*
X10790Y-13412D01*
X10790Y-13385D01*
X12283Y-13946D02*
X12445Y-13784D01*
X12364Y-13865D02*
X12081Y-13582D01*
X12148Y-13596D01*
X12202Y-13596D01*
X12243Y-13582D01*
X11825Y-13838D02*
X11798Y-13866D01*
X11784Y-13906D01*
X11784Y-13933D01*
X11798Y-13973D01*
X11838Y-14040D01*
X11906Y-14108D01*
X11973Y-14148D01*
X12013Y-14162D01*
X12040Y-14162D01*
X12081Y-14148D01*
X12108Y-14121D01*
X12122Y-14081D01*
X12122Y-14054D01*
X12108Y-14013D01*
X12068Y-13946D01*
X12000Y-13878D01*
X11933Y-13838D01*
X11893Y-13825D01*
X11866Y-13825D01*
X11825Y-13838D01*
X11893Y-14337D02*
X11610Y-14054D01*
X11758Y-14256D02*
X11784Y-14445D01*
X11596Y-14256D02*
X11812Y-14256D01*
X13262Y-15695D02*
X13586Y-15695D01*
X13624Y-15714D01*
X13643Y-15733D01*
X13662Y-15771D01*
X13662Y-15848D01*
X13643Y-15886D01*
X13624Y-15905D01*
X13586Y-15924D01*
X13262Y-15924D01*
X13662Y-16324D02*
X13662Y-16095D01*
X13662Y-16209D02*
X13262Y-16209D01*
X13319Y-16171D01*
X13357Y-16133D01*
X13376Y-16095D01*
X18912Y-14943D02*
X18512Y-14943D01*
X18512Y-15038D01*
X18531Y-15096D01*
X18569Y-15134D01*
X18607Y-15153D01*
X18683Y-15172D01*
X18740Y-15172D01*
X18817Y-15153D01*
X18855Y-15134D01*
X18893Y-15096D01*
X18912Y-15038D01*
X18912Y-14943D01*
X18893Y-15324D02*
X18912Y-15381D01*
X18912Y-15477D01*
X18893Y-15515D01*
X18874Y-15534D01*
X18836Y-15553D01*
X18798Y-15553D01*
X18760Y-15534D01*
X18740Y-15515D01*
X18721Y-15477D01*
X18702Y-15400D01*
X18683Y-15362D01*
X18664Y-15343D01*
X18626Y-15324D01*
X18588Y-15324D01*
X18550Y-15343D01*
X18531Y-15362D01*
X18512Y-15400D01*
X18512Y-15496D01*
X18531Y-15553D01*
X18512Y-15686D02*
X18512Y-15934D01*
X18664Y-15800D01*
X18664Y-15858D01*
X18683Y-15896D01*
X18702Y-15915D01*
X18740Y-15934D01*
X18836Y-15934D01*
X18874Y-15915D01*
X18893Y-15896D01*
X18912Y-15858D01*
X18912Y-15743D01*
X18893Y-15705D01*
X18874Y-15686D01*
X18550Y-16086D02*
X18531Y-16105D01*
X18512Y-16143D01*
X18512Y-16239D01*
X18531Y-16277D01*
X18550Y-16296D01*
X18588Y-16315D01*
X18626Y-16315D01*
X18683Y-16296D01*
X18912Y-16067D01*
X18912Y-16315D01*
X18512Y-16448D02*
X18512Y-16696D01*
X18664Y-16562D01*
X18664Y-16620D01*
X18683Y-16658D01*
X18702Y-16677D01*
X18740Y-16696D01*
X18836Y-16696D01*
X18874Y-16677D01*
X18893Y-16658D01*
X18912Y-16620D01*
X18912Y-16505D01*
X18893Y-16467D01*
X18874Y-16448D01*
X18912Y-17077D02*
X18912Y-16848D01*
X18912Y-16962D02*
X18512Y-16962D01*
X18569Y-16924D01*
X18607Y-16886D01*
X18626Y-16848D01*
X18545Y-10662D02*
X18545Y-10262D01*
X18392Y-10262D01*
X18354Y-10281D01*
X18335Y-10300D01*
X18316Y-10338D01*
X18316Y-10395D01*
X18335Y-10433D01*
X18354Y-10452D01*
X18392Y-10471D01*
X18545Y-10471D01*
X17935Y-10662D02*
X18164Y-10662D01*
X18050Y-10662D02*
X18050Y-10262D01*
X18088Y-10319D01*
X18126Y-10357D01*
X18164Y-10376D01*
X18795Y-20412D02*
X18795Y-20012D01*
X18642Y-20012D01*
X18604Y-20031D01*
X18585Y-20050D01*
X18566Y-20088D01*
X18566Y-20145D01*
X18585Y-20183D01*
X18604Y-20202D01*
X18642Y-20221D01*
X18795Y-20221D01*
X18414Y-20050D02*
X18395Y-20031D01*
X18357Y-20012D01*
X18261Y-20012D01*
X18223Y-20031D01*
X18204Y-20050D01*
X18185Y-20088D01*
X18185Y-20126D01*
X18204Y-20183D01*
X18433Y-20412D01*
X18185Y-20412D01*
M02*
