G04 (created by PCBNEW-RS274X (2011-03-30 BZR 2932)-stable) date 05/21/11 15:04:46*
G01*
G70*
G90*
%MOIN*%
G04 Gerber Fmt 3.4, Leading zero omitted, Abs format*
%FSLAX34Y34*%
G04 APERTURE LIST*
%ADD10C,0.006000*%
%ADD11C,0.005000*%
%ADD12C,0.010000*%
%ADD13R,0.080000X0.080000*%
%ADD14C,0.080000*%
%ADD15C,0.090000*%
%ADD16C,0.180000*%
%ADD17C,0.100000*%
%ADD18R,0.100000X0.100000*%
%ADD19C,0.070000*%
%ADD20C,0.083000*%
%ADD21C,0.063300*%
%ADD22R,0.060000X0.100000*%
%ADD23R,0.100000X0.060000*%
%ADD24C,0.060000*%
G04 APERTURE END LIST*
G54D10*
G54D11*
X40937Y-14953D02*
X40937Y-14724D01*
X40937Y-14838D02*
X41337Y-14838D01*
X41280Y-14800D01*
X41242Y-14762D01*
X41223Y-14724D01*
X40975Y-15124D02*
X40956Y-15143D01*
X40937Y-15124D01*
X40956Y-15105D01*
X40975Y-15124D01*
X40937Y-15124D01*
X41299Y-15295D02*
X41318Y-15314D01*
X41337Y-15352D01*
X41337Y-15448D01*
X41318Y-15486D01*
X41299Y-15505D01*
X41261Y-15524D01*
X41223Y-15524D01*
X41166Y-15505D01*
X40937Y-15276D01*
X40937Y-15524D01*
X41337Y-15771D02*
X41337Y-15810D01*
X41318Y-15848D01*
X41299Y-15867D01*
X41261Y-15886D01*
X41185Y-15905D01*
X41089Y-15905D01*
X41013Y-15886D01*
X40975Y-15867D01*
X40956Y-15848D01*
X40937Y-15810D01*
X40937Y-15771D01*
X40956Y-15733D01*
X40975Y-15714D01*
X41013Y-15695D01*
X41089Y-15676D01*
X41185Y-15676D01*
X41261Y-15695D01*
X41299Y-15714D01*
X41318Y-15733D01*
X41337Y-15771D01*
X41337Y-16152D02*
X41337Y-16191D01*
X41318Y-16229D01*
X41299Y-16248D01*
X41261Y-16267D01*
X41185Y-16286D01*
X41089Y-16286D01*
X41013Y-16267D01*
X40975Y-16248D01*
X40956Y-16229D01*
X40937Y-16191D01*
X40937Y-16152D01*
X40956Y-16114D01*
X40975Y-16095D01*
X41013Y-16076D01*
X41089Y-16057D01*
X41185Y-16057D01*
X41261Y-16076D01*
X41299Y-16095D01*
X41318Y-16114D01*
X41337Y-16152D01*
X41337Y-16533D02*
X41337Y-16572D01*
X41318Y-16610D01*
X41299Y-16629D01*
X41261Y-16648D01*
X41185Y-16667D01*
X41089Y-16667D01*
X41013Y-16648D01*
X40975Y-16629D01*
X40956Y-16610D01*
X40937Y-16572D01*
X40937Y-16533D01*
X40956Y-16495D01*
X40975Y-16476D01*
X41013Y-16457D01*
X41089Y-16438D01*
X41185Y-16438D01*
X41261Y-16457D01*
X41299Y-16476D01*
X41318Y-16495D01*
X41337Y-16533D01*
X41337Y-17124D02*
X41261Y-17124D01*
X41337Y-17277D02*
X41261Y-17277D01*
X40799Y-10000D02*
X40799Y-22000D01*
X40500Y-10000D02*
X41399Y-10000D01*
X40500Y-22000D02*
X41399Y-22000D01*
X40799Y-22000D02*
X40569Y-21557D01*
X40799Y-22000D02*
X41029Y-21557D01*
X40799Y-10000D02*
X40569Y-10443D01*
X40799Y-10000D02*
X41029Y-10443D01*
X23705Y-08613D02*
X23953Y-08613D01*
X23819Y-08765D01*
X23877Y-08765D01*
X23915Y-08784D01*
X23934Y-08803D01*
X23953Y-08841D01*
X23953Y-08937D01*
X23934Y-08975D01*
X23915Y-08994D01*
X23877Y-09013D01*
X23762Y-09013D01*
X23724Y-08994D01*
X23705Y-08975D01*
X24124Y-08975D02*
X24143Y-08994D01*
X24124Y-09013D01*
X24105Y-08994D01*
X24124Y-08975D01*
X24124Y-09013D01*
X24390Y-08613D02*
X24429Y-08613D01*
X24467Y-08632D01*
X24486Y-08651D01*
X24505Y-08689D01*
X24524Y-08765D01*
X24524Y-08861D01*
X24505Y-08937D01*
X24486Y-08975D01*
X24467Y-08994D01*
X24429Y-09013D01*
X24390Y-09013D01*
X24352Y-08994D01*
X24333Y-08975D01*
X24314Y-08937D01*
X24295Y-08861D01*
X24295Y-08765D01*
X24314Y-08689D01*
X24333Y-08651D01*
X24352Y-08632D01*
X24390Y-08613D01*
X24771Y-08613D02*
X24810Y-08613D01*
X24848Y-08632D01*
X24867Y-08651D01*
X24886Y-08689D01*
X24905Y-08765D01*
X24905Y-08861D01*
X24886Y-08937D01*
X24867Y-08975D01*
X24848Y-08994D01*
X24810Y-09013D01*
X24771Y-09013D01*
X24733Y-08994D01*
X24714Y-08975D01*
X24695Y-08937D01*
X24676Y-08861D01*
X24676Y-08765D01*
X24695Y-08689D01*
X24714Y-08651D01*
X24733Y-08632D01*
X24771Y-08613D01*
X25152Y-08613D02*
X25191Y-08613D01*
X25229Y-08632D01*
X25248Y-08651D01*
X25267Y-08689D01*
X25286Y-08765D01*
X25286Y-08861D01*
X25267Y-08937D01*
X25248Y-08975D01*
X25229Y-08994D01*
X25191Y-09013D01*
X25152Y-09013D01*
X25114Y-08994D01*
X25095Y-08975D01*
X25076Y-08937D01*
X25057Y-08861D01*
X25057Y-08765D01*
X25076Y-08689D01*
X25095Y-08651D01*
X25114Y-08632D01*
X25152Y-08613D01*
X25533Y-08613D02*
X25572Y-08613D01*
X25610Y-08632D01*
X25629Y-08651D01*
X25648Y-08689D01*
X25667Y-08765D01*
X25667Y-08861D01*
X25648Y-08937D01*
X25629Y-08975D01*
X25610Y-08994D01*
X25572Y-09013D01*
X25533Y-09013D01*
X25495Y-08994D01*
X25476Y-08975D01*
X25457Y-08937D01*
X25438Y-08861D01*
X25438Y-08765D01*
X25457Y-08689D01*
X25476Y-08651D01*
X25495Y-08632D01*
X25533Y-08613D01*
X26124Y-08613D02*
X26124Y-08689D01*
X26277Y-08613D02*
X26277Y-08689D01*
X10000Y-09151D02*
X40000Y-09151D01*
X10000Y-09500D02*
X10000Y-08551D01*
X40000Y-09500D02*
X40000Y-08551D01*
X40000Y-09151D02*
X39557Y-09381D01*
X40000Y-09151D02*
X39557Y-08921D01*
X10000Y-09151D02*
X10443Y-09381D01*
X10000Y-09151D02*
X10443Y-08921D01*
G54D12*
X40000Y-22000D02*
X10000Y-22000D01*
X40000Y-10000D02*
X40000Y-22000D01*
X10000Y-10000D02*
X40000Y-10000D01*
X10000Y-22000D02*
X10000Y-10000D01*
G54D13*
X35100Y-16750D03*
G54D14*
X36100Y-16750D03*
G54D13*
X35100Y-14600D03*
G54D14*
X36100Y-14600D03*
G54D15*
X28500Y-13650D03*
X26500Y-13650D03*
X27500Y-13650D03*
G54D16*
X21800Y-21000D03*
X21800Y-11000D03*
G54D17*
X37350Y-16350D03*
G54D18*
X37350Y-15350D03*
G54D17*
X38350Y-16350D03*
X38350Y-15350D03*
X39350Y-16350D03*
X39350Y-15350D03*
X37100Y-12000D03*
X36100Y-12000D03*
G54D19*
X35100Y-12000D03*
G54D17*
X34100Y-12000D03*
X33100Y-12000D03*
X32100Y-12000D03*
X39050Y-19150D03*
X39050Y-18150D03*
G54D20*
X19398Y-19701D03*
G54D21*
X19398Y-11472D03*
G54D22*
X18300Y-19850D03*
X17300Y-21150D03*
X16300Y-19800D03*
X15300Y-21150D03*
G54D23*
X11650Y-14500D03*
X12950Y-15500D03*
X11600Y-16500D03*
X12950Y-17500D03*
G54D22*
X18300Y-10850D03*
X17300Y-12150D03*
X16300Y-10800D03*
X15300Y-12150D03*
G54D23*
X20650Y-14500D03*
X21950Y-15500D03*
X20600Y-16500D03*
X21950Y-17500D03*
G54D18*
X27550Y-10600D03*
G54D17*
X28550Y-10600D03*
X29550Y-10600D03*
X30550Y-10600D03*
G54D18*
X24000Y-21350D03*
G54D17*
X25000Y-21350D03*
X26000Y-21350D03*
X27000Y-21350D03*
G54D18*
X32000Y-21350D03*
G54D17*
X33000Y-21350D03*
X34000Y-21350D03*
X35000Y-21350D03*
G54D18*
X28000Y-21350D03*
G54D17*
X29000Y-21350D03*
X30000Y-21350D03*
X31000Y-21350D03*
G54D18*
X39350Y-21100D03*
G54D17*
X38350Y-21100D03*
X37350Y-21100D03*
X36350Y-21100D03*
G54D18*
X39100Y-10650D03*
G54D17*
X39100Y-11650D03*
X39100Y-12650D03*
X39100Y-13650D03*
G54D24*
X29000Y-19500D03*
X26600Y-15200D03*
X25800Y-15750D03*
X25800Y-16350D03*
X27650Y-16200D03*
X25800Y-16950D03*
X28050Y-19500D03*
X29450Y-15700D03*
X29600Y-19500D03*
X30200Y-19150D03*
X29400Y-17800D03*
X29550Y-17200D03*
X30700Y-15200D03*
X30100Y-14600D03*
M02*
