G04 (created by PCBNEW (2011-03-30 BZR 2932)-stable) date 05/21/11 15:05:10*
G01*
G70*
G90*
%MOIN*%
G04 Gerber Fmt 3.4, Leading zero omitted, Abs format*
%FSLAX34Y34*%
G04 APERTURE LIST*
%ADD10C,0.001000*%
%ADD11C,0.005000*%
%ADD12C,0.010000*%
%ADD13C,0.008000*%
G04 APERTURE END LIST*
G54D10*
G54D11*
X40937Y-14953D02*
X40937Y-14724D01*
X40937Y-14838D02*
X41337Y-14838D01*
X41280Y-14800D01*
X41242Y-14762D01*
X41223Y-14724D01*
X40975Y-15124D02*
X40956Y-15143D01*
X40937Y-15124D01*
X40956Y-15105D01*
X40975Y-15124D01*
X40937Y-15124D01*
X41299Y-15295D02*
X41318Y-15314D01*
X41337Y-15352D01*
X41337Y-15448D01*
X41318Y-15486D01*
X41299Y-15505D01*
X41261Y-15524D01*
X41223Y-15524D01*
X41166Y-15505D01*
X40937Y-15276D01*
X40937Y-15524D01*
X41337Y-15771D02*
X41337Y-15810D01*
X41318Y-15848D01*
X41299Y-15867D01*
X41261Y-15886D01*
X41185Y-15905D01*
X41089Y-15905D01*
X41013Y-15886D01*
X40975Y-15867D01*
X40956Y-15848D01*
X40937Y-15810D01*
X40937Y-15771D01*
X40956Y-15733D01*
X40975Y-15714D01*
X41013Y-15695D01*
X41089Y-15676D01*
X41185Y-15676D01*
X41261Y-15695D01*
X41299Y-15714D01*
X41318Y-15733D01*
X41337Y-15771D01*
X41337Y-16152D02*
X41337Y-16191D01*
X41318Y-16229D01*
X41299Y-16248D01*
X41261Y-16267D01*
X41185Y-16286D01*
X41089Y-16286D01*
X41013Y-16267D01*
X40975Y-16248D01*
X40956Y-16229D01*
X40937Y-16191D01*
X40937Y-16152D01*
X40956Y-16114D01*
X40975Y-16095D01*
X41013Y-16076D01*
X41089Y-16057D01*
X41185Y-16057D01*
X41261Y-16076D01*
X41299Y-16095D01*
X41318Y-16114D01*
X41337Y-16152D01*
X41337Y-16533D02*
X41337Y-16572D01*
X41318Y-16610D01*
X41299Y-16629D01*
X41261Y-16648D01*
X41185Y-16667D01*
X41089Y-16667D01*
X41013Y-16648D01*
X40975Y-16629D01*
X40956Y-16610D01*
X40937Y-16572D01*
X40937Y-16533D01*
X40956Y-16495D01*
X40975Y-16476D01*
X41013Y-16457D01*
X41089Y-16438D01*
X41185Y-16438D01*
X41261Y-16457D01*
X41299Y-16476D01*
X41318Y-16495D01*
X41337Y-16533D01*
X41337Y-17124D02*
X41261Y-17124D01*
X41337Y-17277D02*
X41261Y-17277D01*
X40799Y-10000D02*
X40799Y-22000D01*
X40500Y-10000D02*
X41399Y-10000D01*
X40500Y-22000D02*
X41399Y-22000D01*
X40799Y-22000D02*
X40569Y-21557D01*
X40799Y-22000D02*
X41029Y-21557D01*
X40799Y-10000D02*
X40569Y-10443D01*
X40799Y-10000D02*
X41029Y-10443D01*
X23705Y-08613D02*
X23953Y-08613D01*
X23819Y-08765D01*
X23877Y-08765D01*
X23915Y-08784D01*
X23934Y-08803D01*
X23953Y-08841D01*
X23953Y-08937D01*
X23934Y-08975D01*
X23915Y-08994D01*
X23877Y-09013D01*
X23762Y-09013D01*
X23724Y-08994D01*
X23705Y-08975D01*
X24124Y-08975D02*
X24143Y-08994D01*
X24124Y-09013D01*
X24105Y-08994D01*
X24124Y-08975D01*
X24124Y-09013D01*
X24390Y-08613D02*
X24429Y-08613D01*
X24467Y-08632D01*
X24486Y-08651D01*
X24505Y-08689D01*
X24524Y-08765D01*
X24524Y-08861D01*
X24505Y-08937D01*
X24486Y-08975D01*
X24467Y-08994D01*
X24429Y-09013D01*
X24390Y-09013D01*
X24352Y-08994D01*
X24333Y-08975D01*
X24314Y-08937D01*
X24295Y-08861D01*
X24295Y-08765D01*
X24314Y-08689D01*
X24333Y-08651D01*
X24352Y-08632D01*
X24390Y-08613D01*
X24771Y-08613D02*
X24810Y-08613D01*
X24848Y-08632D01*
X24867Y-08651D01*
X24886Y-08689D01*
X24905Y-08765D01*
X24905Y-08861D01*
X24886Y-08937D01*
X24867Y-08975D01*
X24848Y-08994D01*
X24810Y-09013D01*
X24771Y-09013D01*
X24733Y-08994D01*
X24714Y-08975D01*
X24695Y-08937D01*
X24676Y-08861D01*
X24676Y-08765D01*
X24695Y-08689D01*
X24714Y-08651D01*
X24733Y-08632D01*
X24771Y-08613D01*
X25152Y-08613D02*
X25191Y-08613D01*
X25229Y-08632D01*
X25248Y-08651D01*
X25267Y-08689D01*
X25286Y-08765D01*
X25286Y-08861D01*
X25267Y-08937D01*
X25248Y-08975D01*
X25229Y-08994D01*
X25191Y-09013D01*
X25152Y-09013D01*
X25114Y-08994D01*
X25095Y-08975D01*
X25076Y-08937D01*
X25057Y-08861D01*
X25057Y-08765D01*
X25076Y-08689D01*
X25095Y-08651D01*
X25114Y-08632D01*
X25152Y-08613D01*
X25533Y-08613D02*
X25572Y-08613D01*
X25610Y-08632D01*
X25629Y-08651D01*
X25648Y-08689D01*
X25667Y-08765D01*
X25667Y-08861D01*
X25648Y-08937D01*
X25629Y-08975D01*
X25610Y-08994D01*
X25572Y-09013D01*
X25533Y-09013D01*
X25495Y-08994D01*
X25476Y-08975D01*
X25457Y-08937D01*
X25438Y-08861D01*
X25438Y-08765D01*
X25457Y-08689D01*
X25476Y-08651D01*
X25495Y-08632D01*
X25533Y-08613D01*
X26124Y-08613D02*
X26124Y-08689D01*
X26277Y-08613D02*
X26277Y-08689D01*
X10000Y-09151D02*
X40000Y-09151D01*
X10000Y-09500D02*
X10000Y-08551D01*
X40000Y-09500D02*
X40000Y-08551D01*
X40000Y-09151D02*
X39557Y-09381D01*
X40000Y-09151D02*
X39557Y-08921D01*
X10000Y-09151D02*
X10443Y-09381D01*
X10000Y-09151D02*
X10443Y-08921D01*
G54D12*
X40000Y-22000D02*
X10000Y-22000D01*
X40000Y-10000D02*
X40000Y-22000D01*
X10000Y-10000D02*
X40000Y-10000D01*
X10000Y-22000D02*
X10000Y-10000D01*
G54D10*
X10925Y-17375D02*
X11175Y-17625D01*
X11175Y-17375D02*
X10925Y-17625D01*
X15175Y-10575D02*
X15425Y-10825D01*
X15425Y-10575D02*
X15175Y-10825D01*
X16175Y-13725D02*
X16425Y-13975D01*
X16425Y-13725D02*
X16175Y-13975D01*
X16175Y-14875D02*
X16425Y-15125D01*
X16425Y-14875D02*
X16175Y-15125D01*
X16175Y-16375D02*
X16425Y-16625D01*
X16425Y-16375D02*
X16175Y-16625D01*
X17175Y-13725D02*
X17425Y-13975D01*
X17425Y-13725D02*
X17175Y-13975D01*
X17175Y-15375D02*
X17425Y-15625D01*
X17425Y-15375D02*
X17175Y-15625D01*
X18175Y-13825D02*
X18425Y-14075D01*
X18425Y-13825D02*
X18175Y-14075D01*
X18175Y-16375D02*
X18425Y-16625D01*
X18425Y-16375D02*
X18175Y-16625D01*
X21075Y-12675D02*
X21325Y-12925D01*
X21325Y-12675D02*
X21075Y-12925D01*
X21225Y-16025D02*
X21475Y-16275D01*
X21475Y-16025D02*
X21225Y-16275D01*
X21325Y-14625D02*
X21575Y-14875D01*
X21575Y-14625D02*
X21325Y-14875D01*
X22975Y-15675D02*
X23225Y-15925D01*
X23225Y-15675D02*
X22975Y-15925D01*
X23675Y-13425D02*
X23925Y-13675D01*
X23925Y-13425D02*
X23675Y-13675D01*
X23925Y-14625D02*
X24175Y-14875D01*
X24175Y-14625D02*
X23925Y-14875D01*
X24125Y-18375D02*
X24375Y-18625D01*
X24375Y-18375D02*
X24125Y-18625D01*
X24325Y-15625D02*
X24575Y-15875D01*
X24575Y-15625D02*
X24325Y-15875D01*
X25675Y-15625D02*
X25925Y-15875D01*
X25925Y-15625D02*
X25675Y-15875D01*
X25675Y-16225D02*
X25925Y-16475D01*
X25925Y-16225D02*
X25675Y-16475D01*
X25675Y-16825D02*
X25925Y-17075D01*
X25925Y-16825D02*
X25675Y-17075D01*
X25725Y-17775D02*
X25975Y-18025D01*
X25975Y-17775D02*
X25725Y-18025D01*
X26475Y-15075D02*
X26725Y-15325D01*
X26725Y-15075D02*
X26475Y-15325D01*
X27275Y-17475D02*
X27525Y-17725D01*
X27525Y-17475D02*
X27275Y-17725D01*
X27525Y-16075D02*
X27775Y-16325D01*
X27775Y-16075D02*
X27525Y-16325D01*
X27725Y-17125D02*
X27975Y-17375D01*
X27975Y-17125D02*
X27725Y-17375D01*
X27925Y-19375D02*
X28175Y-19625D01*
X28175Y-19375D02*
X27925Y-19625D01*
X28225Y-16175D02*
X28475Y-16425D01*
X28475Y-16175D02*
X28225Y-16425D01*
X28875Y-19375D02*
X29125Y-19625D01*
X29125Y-19375D02*
X28875Y-19625D01*
X29275Y-17675D02*
X29525Y-17925D01*
X29525Y-17675D02*
X29275Y-17925D01*
X29325Y-15575D02*
X29575Y-15825D01*
X29575Y-15575D02*
X29325Y-15825D01*
X29425Y-17075D02*
X29675Y-17325D01*
X29675Y-17075D02*
X29425Y-17325D01*
X29475Y-19375D02*
X29725Y-19625D01*
X29725Y-19375D02*
X29475Y-19625D01*
X29975Y-14475D02*
X30225Y-14725D01*
X30225Y-14475D02*
X29975Y-14725D01*
X30075Y-19025D02*
X30325Y-19275D01*
X30325Y-19025D02*
X30075Y-19275D01*
X30575Y-15075D02*
X30825Y-15325D01*
X30825Y-15075D02*
X30575Y-15325D01*
X31375Y-18225D02*
X31625Y-18475D01*
X31625Y-18225D02*
X31375Y-18475D01*
X31375Y-19425D02*
X31625Y-19675D01*
X31625Y-19425D02*
X31375Y-19675D01*
X31525Y-13125D02*
X31775Y-13375D01*
X31775Y-13125D02*
X31525Y-13375D01*
X32075Y-17325D02*
X32325Y-17575D01*
X32325Y-17325D02*
X32075Y-17575D01*
X32075Y-18225D02*
X32325Y-18475D01*
X32325Y-18225D02*
X32075Y-18475D01*
X32625Y-16525D02*
X32875Y-16775D01*
X32875Y-16525D02*
X32625Y-16775D01*
X33175Y-15375D02*
X33425Y-15625D01*
X33425Y-15375D02*
X33175Y-15625D01*
X33525Y-18475D02*
X33775Y-18725D01*
X33775Y-18475D02*
X33525Y-18725D01*
X33575Y-17025D02*
X33825Y-17275D01*
X33825Y-17025D02*
X33575Y-17275D01*
X33675Y-13825D02*
X33925Y-14075D01*
X33925Y-13825D02*
X33675Y-14075D01*
X34175Y-17025D02*
X34425Y-17275D01*
X34425Y-17025D02*
X34175Y-17275D01*
X34175Y-18475D02*
X34425Y-18725D01*
X34425Y-18475D02*
X34175Y-18725D01*
X34525Y-11075D02*
X34775Y-11325D01*
X34775Y-11075D02*
X34525Y-11325D01*
X34975Y-18925D02*
X35225Y-19175D01*
X35225Y-18925D02*
X34975Y-19175D01*
X35425Y-17975D02*
X35675Y-18225D01*
X35675Y-17975D02*
X35425Y-18225D01*
X37975Y-13825D02*
X38225Y-14075D01*
X38225Y-13825D02*
X37975Y-14075D01*
X26660Y-13650D02*
X26656Y-13681D01*
X26647Y-13710D01*
X26633Y-13738D01*
X26613Y-13762D01*
X26589Y-13782D01*
X26562Y-13797D01*
X26532Y-13806D01*
X26501Y-13809D01*
X26471Y-13807D01*
X26441Y-13798D01*
X26413Y-13783D01*
X26389Y-13764D01*
X26368Y-13740D01*
X26353Y-13713D01*
X26344Y-13683D01*
X26341Y-13652D01*
X26343Y-13622D01*
X26352Y-13592D01*
X26366Y-13564D01*
X26385Y-13539D01*
X26409Y-13519D01*
X26436Y-13504D01*
X26466Y-13494D01*
X26497Y-13491D01*
X26527Y-13493D01*
X26557Y-13501D01*
X26585Y-13515D01*
X26610Y-13535D01*
X26630Y-13558D01*
X26646Y-13585D01*
X26656Y-13615D01*
X26659Y-13646D01*
X26660Y-13650D01*
X27660Y-13650D02*
X27656Y-13681D01*
X27647Y-13710D01*
X27633Y-13738D01*
X27613Y-13762D01*
X27589Y-13782D01*
X27562Y-13797D01*
X27532Y-13806D01*
X27501Y-13809D01*
X27471Y-13807D01*
X27441Y-13798D01*
X27413Y-13783D01*
X27389Y-13764D01*
X27368Y-13740D01*
X27353Y-13713D01*
X27344Y-13683D01*
X27341Y-13652D01*
X27343Y-13622D01*
X27352Y-13592D01*
X27366Y-13564D01*
X27385Y-13539D01*
X27409Y-13519D01*
X27436Y-13504D01*
X27466Y-13494D01*
X27497Y-13491D01*
X27527Y-13493D01*
X27557Y-13501D01*
X27585Y-13515D01*
X27610Y-13535D01*
X27630Y-13558D01*
X27646Y-13585D01*
X27656Y-13615D01*
X27659Y-13646D01*
X27660Y-13650D01*
X28660Y-13650D02*
X28656Y-13681D01*
X28647Y-13710D01*
X28633Y-13738D01*
X28613Y-13762D01*
X28589Y-13782D01*
X28562Y-13797D01*
X28532Y-13806D01*
X28501Y-13809D01*
X28471Y-13807D01*
X28441Y-13798D01*
X28413Y-13783D01*
X28389Y-13764D01*
X28368Y-13740D01*
X28353Y-13713D01*
X28344Y-13683D01*
X28341Y-13652D01*
X28343Y-13622D01*
X28352Y-13592D01*
X28366Y-13564D01*
X28385Y-13539D01*
X28409Y-13519D01*
X28436Y-13504D01*
X28466Y-13494D01*
X28497Y-13491D01*
X28527Y-13493D01*
X28557Y-13501D01*
X28585Y-13515D01*
X28610Y-13535D01*
X28630Y-13558D01*
X28646Y-13585D01*
X28656Y-13615D01*
X28659Y-13646D01*
X28660Y-13650D01*
X35260Y-14600D02*
X35256Y-14631D01*
X35247Y-14660D01*
X35233Y-14688D01*
X35213Y-14712D01*
X35189Y-14732D01*
X35162Y-14747D01*
X35132Y-14756D01*
X35101Y-14759D01*
X35071Y-14757D01*
X35041Y-14748D01*
X35013Y-14733D01*
X34989Y-14714D01*
X34968Y-14690D01*
X34953Y-14663D01*
X34944Y-14633D01*
X34941Y-14602D01*
X34943Y-14572D01*
X34952Y-14542D01*
X34966Y-14514D01*
X34985Y-14489D01*
X35009Y-14469D01*
X35036Y-14454D01*
X35066Y-14444D01*
X35097Y-14441D01*
X35127Y-14443D01*
X35157Y-14451D01*
X35185Y-14465D01*
X35210Y-14485D01*
X35230Y-14508D01*
X35246Y-14535D01*
X35256Y-14565D01*
X35259Y-14596D01*
X35260Y-14600D01*
X35260Y-16750D02*
X35256Y-16781D01*
X35247Y-16810D01*
X35233Y-16838D01*
X35213Y-16862D01*
X35189Y-16882D01*
X35162Y-16897D01*
X35132Y-16906D01*
X35101Y-16909D01*
X35071Y-16907D01*
X35041Y-16898D01*
X35013Y-16883D01*
X34989Y-16864D01*
X34968Y-16840D01*
X34953Y-16813D01*
X34944Y-16783D01*
X34941Y-16752D01*
X34943Y-16722D01*
X34952Y-16692D01*
X34966Y-16664D01*
X34985Y-16639D01*
X35009Y-16619D01*
X35036Y-16604D01*
X35066Y-16594D01*
X35097Y-16591D01*
X35127Y-16593D01*
X35157Y-16601D01*
X35185Y-16615D01*
X35210Y-16635D01*
X35230Y-16658D01*
X35246Y-16685D01*
X35256Y-16715D01*
X35259Y-16746D01*
X35260Y-16750D01*
X36260Y-14600D02*
X36256Y-14631D01*
X36247Y-14660D01*
X36233Y-14688D01*
X36213Y-14712D01*
X36189Y-14732D01*
X36162Y-14747D01*
X36132Y-14756D01*
X36101Y-14759D01*
X36071Y-14757D01*
X36041Y-14748D01*
X36013Y-14733D01*
X35989Y-14714D01*
X35968Y-14690D01*
X35953Y-14663D01*
X35944Y-14633D01*
X35941Y-14602D01*
X35943Y-14572D01*
X35952Y-14542D01*
X35966Y-14514D01*
X35985Y-14489D01*
X36009Y-14469D01*
X36036Y-14454D01*
X36066Y-14444D01*
X36097Y-14441D01*
X36127Y-14443D01*
X36157Y-14451D01*
X36185Y-14465D01*
X36210Y-14485D01*
X36230Y-14508D01*
X36246Y-14535D01*
X36256Y-14565D01*
X36259Y-14596D01*
X36260Y-14600D01*
X36260Y-16750D02*
X36256Y-16781D01*
X36247Y-16810D01*
X36233Y-16838D01*
X36213Y-16862D01*
X36189Y-16882D01*
X36162Y-16897D01*
X36132Y-16906D01*
X36101Y-16909D01*
X36071Y-16907D01*
X36041Y-16898D01*
X36013Y-16883D01*
X35989Y-16864D01*
X35968Y-16840D01*
X35953Y-16813D01*
X35944Y-16783D01*
X35941Y-16752D01*
X35943Y-16722D01*
X35952Y-16692D01*
X35966Y-16664D01*
X35985Y-16639D01*
X36009Y-16619D01*
X36036Y-16604D01*
X36066Y-16594D01*
X36097Y-16591D01*
X36127Y-16593D01*
X36157Y-16601D01*
X36185Y-16615D01*
X36210Y-16635D01*
X36230Y-16658D01*
X36246Y-16685D01*
X36256Y-16715D01*
X36259Y-16746D01*
X36260Y-16750D01*
X24000Y-21150D02*
X24000Y-21550D01*
X24200Y-21350D02*
X23800Y-21350D01*
X25000Y-21150D02*
X25000Y-21550D01*
X25200Y-21350D02*
X24800Y-21350D01*
X26000Y-21150D02*
X26000Y-21550D01*
X26200Y-21350D02*
X25800Y-21350D01*
X27000Y-21150D02*
X27000Y-21550D01*
X27200Y-21350D02*
X26800Y-21350D01*
X27550Y-10400D02*
X27550Y-10800D01*
X27750Y-10600D02*
X27350Y-10600D01*
X28000Y-21150D02*
X28000Y-21550D01*
X28200Y-21350D02*
X27800Y-21350D01*
X28550Y-10400D02*
X28550Y-10800D01*
X28750Y-10600D02*
X28350Y-10600D01*
X29000Y-21150D02*
X29000Y-21550D01*
X29200Y-21350D02*
X28800Y-21350D01*
X29550Y-10400D02*
X29550Y-10800D01*
X29750Y-10600D02*
X29350Y-10600D01*
X30000Y-21150D02*
X30000Y-21550D01*
X30200Y-21350D02*
X29800Y-21350D01*
X30550Y-10400D02*
X30550Y-10800D01*
X30750Y-10600D02*
X30350Y-10600D01*
X31000Y-21150D02*
X31000Y-21550D01*
X31200Y-21350D02*
X30800Y-21350D01*
X32000Y-21150D02*
X32000Y-21550D01*
X32200Y-21350D02*
X31800Y-21350D01*
X32100Y-11800D02*
X32100Y-12200D01*
X32300Y-12000D02*
X31900Y-12000D01*
X33000Y-21150D02*
X33000Y-21550D01*
X33200Y-21350D02*
X32800Y-21350D01*
X33100Y-11800D02*
X33100Y-12200D01*
X33300Y-12000D02*
X32900Y-12000D01*
X34000Y-21150D02*
X34000Y-21550D01*
X34200Y-21350D02*
X33800Y-21350D01*
X34100Y-11800D02*
X34100Y-12200D01*
X34300Y-12000D02*
X33900Y-12000D01*
X35000Y-21150D02*
X35000Y-21550D01*
X35200Y-21350D02*
X34800Y-21350D01*
X35100Y-11800D02*
X35100Y-12200D01*
X35300Y-12000D02*
X34900Y-12000D01*
X36100Y-11800D02*
X36100Y-12200D01*
X36300Y-12000D02*
X35900Y-12000D01*
X36350Y-20900D02*
X36350Y-21300D01*
X36550Y-21100D02*
X36150Y-21100D01*
X37100Y-11800D02*
X37100Y-12200D01*
X37300Y-12000D02*
X36900Y-12000D01*
X37350Y-15150D02*
X37350Y-15550D01*
X37550Y-15350D02*
X37150Y-15350D01*
X37350Y-16150D02*
X37350Y-16550D01*
X37550Y-16350D02*
X37150Y-16350D01*
X37350Y-20900D02*
X37350Y-21300D01*
X37550Y-21100D02*
X37150Y-21100D01*
X38350Y-15150D02*
X38350Y-15550D01*
X38550Y-15350D02*
X38150Y-15350D01*
X38350Y-16150D02*
X38350Y-16550D01*
X38550Y-16350D02*
X38150Y-16350D01*
X38350Y-20900D02*
X38350Y-21300D01*
X38550Y-21100D02*
X38150Y-21100D01*
X39050Y-17950D02*
X39050Y-18350D01*
X39250Y-18150D02*
X38850Y-18150D01*
X39050Y-18950D02*
X39050Y-19350D01*
X39250Y-19150D02*
X38850Y-19150D01*
X39100Y-10450D02*
X39100Y-10850D01*
X39300Y-10650D02*
X38900Y-10650D01*
X39100Y-11450D02*
X39100Y-11850D01*
X39300Y-11650D02*
X38900Y-11650D01*
X39100Y-12450D02*
X39100Y-12850D01*
X39300Y-12650D02*
X38900Y-12650D01*
X39100Y-13450D02*
X39100Y-13850D01*
X39300Y-13650D02*
X38900Y-13650D01*
X39350Y-15150D02*
X39350Y-15550D01*
X39550Y-15350D02*
X39150Y-15350D01*
X39350Y-16150D02*
X39350Y-16550D01*
X39550Y-16350D02*
X39150Y-16350D01*
X39350Y-20900D02*
X39350Y-21300D01*
X39550Y-21100D02*
X39150Y-21100D01*
X19614Y-11472D02*
X19609Y-11513D01*
X19597Y-11554D01*
X19577Y-11591D01*
X19551Y-11624D01*
X19518Y-11651D01*
X19481Y-11671D01*
X19441Y-11683D01*
X19399Y-11687D01*
X19358Y-11684D01*
X19318Y-11672D01*
X19280Y-11652D01*
X19247Y-11626D01*
X19220Y-11594D01*
X19200Y-11557D01*
X19187Y-11516D01*
X19183Y-11475D01*
X19186Y-11434D01*
X19198Y-11393D01*
X19217Y-11355D01*
X19243Y-11322D01*
X19275Y-11295D01*
X19312Y-11275D01*
X19352Y-11262D01*
X19394Y-11257D01*
X19435Y-11260D01*
X19476Y-11271D01*
X19513Y-11290D01*
X19546Y-11316D01*
X19574Y-11348D01*
X19595Y-11385D01*
X19608Y-11425D01*
X19613Y-11466D01*
X19614Y-11472D01*
X19182Y-11256D02*
X19614Y-11688D01*
X19614Y-11256D02*
X19182Y-11688D01*
X19713Y-19701D02*
X19707Y-19762D01*
X19689Y-19821D01*
X19660Y-19875D01*
X19621Y-19922D01*
X19574Y-19962D01*
X19520Y-19991D01*
X19461Y-20009D01*
X19400Y-20015D01*
X19339Y-20010D01*
X19280Y-19993D01*
X19226Y-19964D01*
X19178Y-19926D01*
X19139Y-19878D01*
X19109Y-19825D01*
X19090Y-19766D01*
X19084Y-19705D01*
X19089Y-19645D01*
X19106Y-19586D01*
X19134Y-19531D01*
X19172Y-19483D01*
X19219Y-19443D01*
X19272Y-19413D01*
X19331Y-19394D01*
X19392Y-19387D01*
X19452Y-19391D01*
X19511Y-19408D01*
X19566Y-19436D01*
X19615Y-19473D01*
X19655Y-19520D01*
X19685Y-19573D01*
X19705Y-19632D01*
X19712Y-19693D01*
X19713Y-19701D01*
X19083Y-19701D02*
X19713Y-19701D01*
X22400Y-11000D02*
X22388Y-11116D01*
X22354Y-11228D01*
X22299Y-11332D01*
X22225Y-11422D01*
X22135Y-11497D01*
X22032Y-11553D01*
X21920Y-11587D01*
X21804Y-11599D01*
X21688Y-11589D01*
X21576Y-11556D01*
X21472Y-11502D01*
X21381Y-11428D01*
X21305Y-11338D01*
X21249Y-11236D01*
X21214Y-11124D01*
X21201Y-11008D01*
X21210Y-10892D01*
X21243Y-10780D01*
X21296Y-10675D01*
X21369Y-10584D01*
X21458Y-10508D01*
X21560Y-10451D01*
X21672Y-10414D01*
X21788Y-10401D01*
X21904Y-10410D01*
X22016Y-10441D01*
X22121Y-10494D01*
X22213Y-10566D01*
X22290Y-10655D01*
X22348Y-10756D01*
X22385Y-10868D01*
X22399Y-10984D01*
X22400Y-11000D01*
X21800Y-10400D02*
X21800Y-11600D01*
X22400Y-21000D02*
X22388Y-21116D01*
X22354Y-21228D01*
X22299Y-21332D01*
X22225Y-21422D01*
X22135Y-21497D01*
X22032Y-21553D01*
X21920Y-21587D01*
X21804Y-21599D01*
X21688Y-21589D01*
X21576Y-21556D01*
X21472Y-21502D01*
X21381Y-21428D01*
X21305Y-21338D01*
X21249Y-21236D01*
X21214Y-21124D01*
X21201Y-21008D01*
X21210Y-20892D01*
X21243Y-20780D01*
X21296Y-20675D01*
X21369Y-20584D01*
X21458Y-20508D01*
X21560Y-20451D01*
X21672Y-20414D01*
X21788Y-20401D01*
X21904Y-20410D01*
X22016Y-20441D01*
X22121Y-20494D01*
X22213Y-20566D01*
X22290Y-20655D01*
X22348Y-20756D01*
X22385Y-20868D01*
X22399Y-20984D01*
X22400Y-21000D01*
X21800Y-20400D02*
X21800Y-21600D01*
G54D13*
X10339Y-23279D02*
X10339Y-22479D01*
X10530Y-22479D01*
X10644Y-22517D01*
X10720Y-22593D01*
X10759Y-22669D01*
X10797Y-22822D01*
X10797Y-22936D01*
X10759Y-23088D01*
X10720Y-23165D01*
X10644Y-23241D01*
X10530Y-23279D01*
X10339Y-23279D01*
X11139Y-23279D02*
X11139Y-22745D01*
X11139Y-22898D02*
X11178Y-22822D01*
X11216Y-22784D01*
X11292Y-22745D01*
X11368Y-22745D01*
X11634Y-23279D02*
X11634Y-22745D01*
X11634Y-22479D02*
X11596Y-22517D01*
X11634Y-22555D01*
X11673Y-22517D01*
X11634Y-22479D01*
X11634Y-22555D01*
X12130Y-23279D02*
X12054Y-23241D01*
X12015Y-23165D01*
X12015Y-22479D01*
X12549Y-23279D02*
X12473Y-23241D01*
X12434Y-23165D01*
X12434Y-22479D01*
X13463Y-23279D02*
X13463Y-22479D01*
X13730Y-23050D01*
X13997Y-22479D01*
X13997Y-23279D01*
X14720Y-23279D02*
X14720Y-22860D01*
X14682Y-22784D01*
X14606Y-22745D01*
X14454Y-22745D01*
X14377Y-22784D01*
X14720Y-23241D02*
X14644Y-23279D01*
X14454Y-23279D01*
X14377Y-23241D01*
X14339Y-23165D01*
X14339Y-23088D01*
X14377Y-23012D01*
X14454Y-22974D01*
X14644Y-22974D01*
X14720Y-22936D01*
X15101Y-22745D02*
X15101Y-23545D01*
X15101Y-22784D02*
X15178Y-22745D01*
X15330Y-22745D01*
X15406Y-22784D01*
X15444Y-22822D01*
X15482Y-22898D01*
X15482Y-23126D01*
X15444Y-23203D01*
X15406Y-23241D01*
X15330Y-23279D01*
X15178Y-23279D01*
X15101Y-23241D01*
X15825Y-23203D02*
X15864Y-23241D01*
X15825Y-23279D01*
X15787Y-23241D01*
X15825Y-23203D01*
X15825Y-23279D01*
X15825Y-22784D02*
X15864Y-22822D01*
X15825Y-22860D01*
X15787Y-22822D01*
X15825Y-22784D01*
X15825Y-22860D01*
X09699Y-24510D02*
X09949Y-24760D01*
X09949Y-24510D02*
X09699Y-24760D01*
X10492Y-24159D02*
X10568Y-24159D01*
X10644Y-24197D01*
X10682Y-24235D01*
X10720Y-24311D01*
X10759Y-24464D01*
X10759Y-24654D01*
X10720Y-24806D01*
X10682Y-24883D01*
X10644Y-24921D01*
X10568Y-24959D01*
X10492Y-24959D01*
X10416Y-24921D01*
X10378Y-24883D01*
X10339Y-24806D01*
X10301Y-24654D01*
X10301Y-24464D01*
X10339Y-24311D01*
X10378Y-24235D01*
X10416Y-24197D01*
X10492Y-24159D01*
X11101Y-24883D02*
X11140Y-24921D01*
X11101Y-24959D01*
X11063Y-24921D01*
X11101Y-24883D01*
X11101Y-24959D01*
X11635Y-24159D02*
X11711Y-24159D01*
X11787Y-24197D01*
X11825Y-24235D01*
X11863Y-24311D01*
X11902Y-24464D01*
X11902Y-24654D01*
X11863Y-24806D01*
X11825Y-24883D01*
X11787Y-24921D01*
X11711Y-24959D01*
X11635Y-24959D01*
X11559Y-24921D01*
X11521Y-24883D01*
X11482Y-24806D01*
X11444Y-24654D01*
X11444Y-24464D01*
X11482Y-24311D01*
X11521Y-24235D01*
X11559Y-24197D01*
X11635Y-24159D01*
X12206Y-24235D02*
X12244Y-24197D01*
X12321Y-24159D01*
X12511Y-24159D01*
X12587Y-24197D01*
X12625Y-24235D01*
X12664Y-24311D01*
X12664Y-24387D01*
X12625Y-24502D01*
X12168Y-24959D01*
X12664Y-24959D01*
X13387Y-24159D02*
X13006Y-24159D01*
X12968Y-24540D01*
X13006Y-24502D01*
X13083Y-24464D01*
X13273Y-24464D01*
X13349Y-24502D01*
X13387Y-24540D01*
X13426Y-24616D01*
X13426Y-24806D01*
X13387Y-24883D01*
X13349Y-24921D01*
X13273Y-24959D01*
X13083Y-24959D01*
X13006Y-24921D01*
X12968Y-24883D01*
X13730Y-24159D02*
X13730Y-24311D01*
X14035Y-24159D02*
X14035Y-24311D01*
X15560Y-24121D02*
X14874Y-25149D01*
X16589Y-24159D02*
X16665Y-24159D01*
X16741Y-24197D01*
X16779Y-24235D01*
X16817Y-24311D01*
X16856Y-24464D01*
X16856Y-24654D01*
X16817Y-24806D01*
X16779Y-24883D01*
X16741Y-24921D01*
X16665Y-24959D01*
X16589Y-24959D01*
X16513Y-24921D01*
X16475Y-24883D01*
X16436Y-24806D01*
X16398Y-24654D01*
X16398Y-24464D01*
X16436Y-24311D01*
X16475Y-24235D01*
X16513Y-24197D01*
X16589Y-24159D01*
X17198Y-24883D02*
X17237Y-24921D01*
X17198Y-24959D01*
X17160Y-24921D01*
X17198Y-24883D01*
X17198Y-24959D01*
X17922Y-24159D02*
X17770Y-24159D01*
X17694Y-24197D01*
X17656Y-24235D01*
X17579Y-24349D01*
X17541Y-24502D01*
X17541Y-24806D01*
X17579Y-24883D01*
X17618Y-24921D01*
X17694Y-24959D01*
X17846Y-24959D01*
X17922Y-24921D01*
X17960Y-24883D01*
X17999Y-24806D01*
X17999Y-24616D01*
X17960Y-24540D01*
X17922Y-24502D01*
X17846Y-24464D01*
X17694Y-24464D01*
X17618Y-24502D01*
X17579Y-24540D01*
X17541Y-24616D01*
X18684Y-24425D02*
X18684Y-24959D01*
X18494Y-24121D02*
X18303Y-24692D01*
X18799Y-24692D01*
X19103Y-24959D02*
X19103Y-24425D01*
X19103Y-24502D02*
X19142Y-24464D01*
X19218Y-24425D01*
X19332Y-24425D01*
X19408Y-24464D01*
X19446Y-24540D01*
X19446Y-24959D01*
X19446Y-24540D02*
X19484Y-24464D01*
X19561Y-24425D01*
X19675Y-24425D01*
X19751Y-24464D01*
X19789Y-24540D01*
X19789Y-24959D01*
X20170Y-24959D02*
X20170Y-24425D01*
X20170Y-24502D02*
X20209Y-24464D01*
X20285Y-24425D01*
X20399Y-24425D01*
X20475Y-24464D01*
X20513Y-24540D01*
X20513Y-24959D01*
X20513Y-24540D02*
X20551Y-24464D01*
X20628Y-24425D01*
X20742Y-24425D01*
X20818Y-24464D01*
X20856Y-24540D01*
X20856Y-24959D01*
X22076Y-25264D02*
X22038Y-25225D01*
X21962Y-25111D01*
X21924Y-25035D01*
X21886Y-24921D01*
X21847Y-24730D01*
X21847Y-24578D01*
X21886Y-24387D01*
X21924Y-24273D01*
X21962Y-24197D01*
X22038Y-24083D01*
X22076Y-24045D01*
X22761Y-24159D02*
X22380Y-24159D01*
X22342Y-24540D01*
X22380Y-24502D01*
X22457Y-24464D01*
X22647Y-24464D01*
X22723Y-24502D01*
X22761Y-24540D01*
X22800Y-24616D01*
X22800Y-24806D01*
X22761Y-24883D01*
X22723Y-24921D01*
X22647Y-24959D01*
X22457Y-24959D01*
X22380Y-24921D01*
X22342Y-24883D01*
X23562Y-24959D02*
X23104Y-24959D01*
X23333Y-24959D02*
X23333Y-24159D01*
X23257Y-24273D01*
X23181Y-24349D01*
X23104Y-24387D01*
X24514Y-24959D02*
X24514Y-24159D01*
X24857Y-24959D02*
X24857Y-24540D01*
X24819Y-24464D01*
X24743Y-24425D01*
X24629Y-24425D01*
X24553Y-24464D01*
X24514Y-24502D01*
X25353Y-24959D02*
X25277Y-24921D01*
X25238Y-24883D01*
X25200Y-24806D01*
X25200Y-24578D01*
X25238Y-24502D01*
X25277Y-24464D01*
X25353Y-24425D01*
X25467Y-24425D01*
X25543Y-24464D01*
X25581Y-24502D01*
X25619Y-24578D01*
X25619Y-24806D01*
X25581Y-24883D01*
X25543Y-24921D01*
X25467Y-24959D01*
X25353Y-24959D01*
X26077Y-24959D02*
X26001Y-24921D01*
X25962Y-24845D01*
X25962Y-24159D01*
X26686Y-24921D02*
X26610Y-24959D01*
X26458Y-24959D01*
X26381Y-24921D01*
X26343Y-24845D01*
X26343Y-24540D01*
X26381Y-24464D01*
X26458Y-24425D01*
X26610Y-24425D01*
X26686Y-24464D01*
X26724Y-24540D01*
X26724Y-24616D01*
X26343Y-24692D01*
X27029Y-24921D02*
X27106Y-24959D01*
X27258Y-24959D01*
X27334Y-24921D01*
X27372Y-24845D01*
X27372Y-24806D01*
X27334Y-24730D01*
X27258Y-24692D01*
X27144Y-24692D01*
X27067Y-24654D01*
X27029Y-24578D01*
X27029Y-24540D01*
X27067Y-24464D01*
X27144Y-24425D01*
X27258Y-24425D01*
X27334Y-24464D01*
X27639Y-25264D02*
X27677Y-25225D01*
X27754Y-25111D01*
X27792Y-25035D01*
X27830Y-24921D01*
X27868Y-24730D01*
X27868Y-24578D01*
X27830Y-24387D01*
X27792Y-24273D01*
X27754Y-24197D01*
X27677Y-24083D01*
X27639Y-24045D01*
G54D10*
X09949Y-25690D02*
X09945Y-25721D01*
X09936Y-25750D01*
X09922Y-25778D01*
X09902Y-25802D01*
X09878Y-25822D01*
X09851Y-25837D01*
X09821Y-25846D01*
X09790Y-25849D01*
X09760Y-25847D01*
X09730Y-25838D01*
X09702Y-25823D01*
X09678Y-25804D01*
X09657Y-25780D01*
X09642Y-25753D01*
X09633Y-25723D01*
X09630Y-25692D01*
X09632Y-25662D01*
X09641Y-25632D01*
X09655Y-25604D01*
X09674Y-25579D01*
X09698Y-25559D01*
X09725Y-25544D01*
X09755Y-25534D01*
X09786Y-25531D01*
X09816Y-25533D01*
X09846Y-25541D01*
X09874Y-25555D01*
X09899Y-25575D01*
X09919Y-25598D01*
X09935Y-25625D01*
X09945Y-25655D01*
X09948Y-25686D01*
X09949Y-25690D01*
G54D13*
X10492Y-25214D02*
X10568Y-25214D01*
X10644Y-25252D01*
X10682Y-25290D01*
X10720Y-25366D01*
X10759Y-25519D01*
X10759Y-25709D01*
X10720Y-25861D01*
X10682Y-25938D01*
X10644Y-25976D01*
X10568Y-26014D01*
X10492Y-26014D01*
X10416Y-25976D01*
X10378Y-25938D01*
X10339Y-25861D01*
X10301Y-25709D01*
X10301Y-25519D01*
X10339Y-25366D01*
X10378Y-25290D01*
X10416Y-25252D01*
X10492Y-25214D01*
X11101Y-25938D02*
X11140Y-25976D01*
X11101Y-26014D01*
X11063Y-25976D01*
X11101Y-25938D01*
X11101Y-26014D01*
X11635Y-25214D02*
X11711Y-25214D01*
X11787Y-25252D01*
X11825Y-25290D01*
X11863Y-25366D01*
X11902Y-25519D01*
X11902Y-25709D01*
X11863Y-25861D01*
X11825Y-25938D01*
X11787Y-25976D01*
X11711Y-26014D01*
X11635Y-26014D01*
X11559Y-25976D01*
X11521Y-25938D01*
X11482Y-25861D01*
X11444Y-25709D01*
X11444Y-25519D01*
X11482Y-25366D01*
X11521Y-25290D01*
X11559Y-25252D01*
X11635Y-25214D01*
X12168Y-25214D02*
X12664Y-25214D01*
X12397Y-25519D01*
X12511Y-25519D01*
X12587Y-25557D01*
X12625Y-25595D01*
X12664Y-25671D01*
X12664Y-25861D01*
X12625Y-25938D01*
X12587Y-25976D01*
X12511Y-26014D01*
X12283Y-26014D01*
X12206Y-25976D01*
X12168Y-25938D01*
X12968Y-25290D02*
X13006Y-25252D01*
X13083Y-25214D01*
X13273Y-25214D01*
X13349Y-25252D01*
X13387Y-25290D01*
X13426Y-25366D01*
X13426Y-25442D01*
X13387Y-25557D01*
X12930Y-26014D01*
X13426Y-26014D01*
X13730Y-25214D02*
X13730Y-25366D01*
X14035Y-25214D02*
X14035Y-25366D01*
X15560Y-25176D02*
X14874Y-26204D01*
X16589Y-25214D02*
X16665Y-25214D01*
X16741Y-25252D01*
X16779Y-25290D01*
X16817Y-25366D01*
X16856Y-25519D01*
X16856Y-25709D01*
X16817Y-25861D01*
X16779Y-25938D01*
X16741Y-25976D01*
X16665Y-26014D01*
X16589Y-26014D01*
X16513Y-25976D01*
X16475Y-25938D01*
X16436Y-25861D01*
X16398Y-25709D01*
X16398Y-25519D01*
X16436Y-25366D01*
X16475Y-25290D01*
X16513Y-25252D01*
X16589Y-25214D01*
X17198Y-25938D02*
X17237Y-25976D01*
X17198Y-26014D01*
X17160Y-25976D01*
X17198Y-25938D01*
X17198Y-26014D01*
X17694Y-25557D02*
X17618Y-25519D01*
X17579Y-25480D01*
X17541Y-25404D01*
X17541Y-25366D01*
X17579Y-25290D01*
X17618Y-25252D01*
X17694Y-25214D01*
X17846Y-25214D01*
X17922Y-25252D01*
X17960Y-25290D01*
X17999Y-25366D01*
X17999Y-25404D01*
X17960Y-25480D01*
X17922Y-25519D01*
X17846Y-25557D01*
X17694Y-25557D01*
X17618Y-25595D01*
X17579Y-25633D01*
X17541Y-25709D01*
X17541Y-25861D01*
X17579Y-25938D01*
X17618Y-25976D01*
X17694Y-26014D01*
X17846Y-26014D01*
X17922Y-25976D01*
X17960Y-25938D01*
X17999Y-25861D01*
X17999Y-25709D01*
X17960Y-25633D01*
X17922Y-25595D01*
X17846Y-25557D01*
X18761Y-26014D02*
X18303Y-26014D01*
X18532Y-26014D02*
X18532Y-25214D01*
X18456Y-25328D01*
X18380Y-25404D01*
X18303Y-25442D01*
X19103Y-26014D02*
X19103Y-25480D01*
X19103Y-25557D02*
X19142Y-25519D01*
X19218Y-25480D01*
X19332Y-25480D01*
X19408Y-25519D01*
X19446Y-25595D01*
X19446Y-26014D01*
X19446Y-25595D02*
X19484Y-25519D01*
X19561Y-25480D01*
X19675Y-25480D01*
X19751Y-25519D01*
X19789Y-25595D01*
X19789Y-26014D01*
X20170Y-26014D02*
X20170Y-25480D01*
X20170Y-25557D02*
X20209Y-25519D01*
X20285Y-25480D01*
X20399Y-25480D01*
X20475Y-25519D01*
X20513Y-25595D01*
X20513Y-26014D01*
X20513Y-25595D02*
X20551Y-25519D01*
X20628Y-25480D01*
X20742Y-25480D01*
X20818Y-25519D01*
X20856Y-25595D01*
X20856Y-26014D01*
X22076Y-26319D02*
X22038Y-26280D01*
X21962Y-26166D01*
X21924Y-26090D01*
X21886Y-25976D01*
X21847Y-25785D01*
X21847Y-25633D01*
X21886Y-25442D01*
X21924Y-25328D01*
X21962Y-25252D01*
X22038Y-25138D01*
X22076Y-25100D01*
X22304Y-25214D02*
X22838Y-25214D01*
X22495Y-26014D01*
X23752Y-26014D02*
X23752Y-25214D01*
X24095Y-26014D02*
X24095Y-25595D01*
X24057Y-25519D01*
X23981Y-25480D01*
X23867Y-25480D01*
X23791Y-25519D01*
X23752Y-25557D01*
X24591Y-26014D02*
X24515Y-25976D01*
X24476Y-25938D01*
X24438Y-25861D01*
X24438Y-25633D01*
X24476Y-25557D01*
X24515Y-25519D01*
X24591Y-25480D01*
X24705Y-25480D01*
X24781Y-25519D01*
X24819Y-25557D01*
X24857Y-25633D01*
X24857Y-25861D01*
X24819Y-25938D01*
X24781Y-25976D01*
X24705Y-26014D01*
X24591Y-26014D01*
X25315Y-26014D02*
X25239Y-25976D01*
X25200Y-25900D01*
X25200Y-25214D01*
X25924Y-25976D02*
X25848Y-26014D01*
X25696Y-26014D01*
X25619Y-25976D01*
X25581Y-25900D01*
X25581Y-25595D01*
X25619Y-25519D01*
X25696Y-25480D01*
X25848Y-25480D01*
X25924Y-25519D01*
X25962Y-25595D01*
X25962Y-25671D01*
X25581Y-25747D01*
X26267Y-25976D02*
X26344Y-26014D01*
X26496Y-26014D01*
X26572Y-25976D01*
X26610Y-25900D01*
X26610Y-25861D01*
X26572Y-25785D01*
X26496Y-25747D01*
X26382Y-25747D01*
X26305Y-25709D01*
X26267Y-25633D01*
X26267Y-25595D01*
X26305Y-25519D01*
X26382Y-25480D01*
X26496Y-25480D01*
X26572Y-25519D01*
X26877Y-26319D02*
X26915Y-26280D01*
X26992Y-26166D01*
X27030Y-26090D01*
X27068Y-25976D01*
X27106Y-25785D01*
X27106Y-25633D01*
X27068Y-25442D01*
X27030Y-25328D01*
X26992Y-25252D01*
X26915Y-25138D01*
X26877Y-25100D01*
X09749Y-26545D02*
X09749Y-26945D01*
X09949Y-26745D02*
X09549Y-26745D01*
X10492Y-26269D02*
X10568Y-26269D01*
X10644Y-26307D01*
X10682Y-26345D01*
X10720Y-26421D01*
X10759Y-26574D01*
X10759Y-26764D01*
X10720Y-26916D01*
X10682Y-26993D01*
X10644Y-27031D01*
X10568Y-27069D01*
X10492Y-27069D01*
X10416Y-27031D01*
X10378Y-26993D01*
X10339Y-26916D01*
X10301Y-26764D01*
X10301Y-26574D01*
X10339Y-26421D01*
X10378Y-26345D01*
X10416Y-26307D01*
X10492Y-26269D01*
X11101Y-26993D02*
X11140Y-27031D01*
X11101Y-27069D01*
X11063Y-27031D01*
X11101Y-26993D01*
X11101Y-27069D01*
X11635Y-26269D02*
X11711Y-26269D01*
X11787Y-26307D01*
X11825Y-26345D01*
X11863Y-26421D01*
X11902Y-26574D01*
X11902Y-26764D01*
X11863Y-26916D01*
X11825Y-26993D01*
X11787Y-27031D01*
X11711Y-27069D01*
X11635Y-27069D01*
X11559Y-27031D01*
X11521Y-26993D01*
X11482Y-26916D01*
X11444Y-26764D01*
X11444Y-26574D01*
X11482Y-26421D01*
X11521Y-26345D01*
X11559Y-26307D01*
X11635Y-26269D01*
X12587Y-26535D02*
X12587Y-27069D01*
X12397Y-26231D02*
X12206Y-26802D01*
X12702Y-26802D01*
X13159Y-26269D02*
X13235Y-26269D01*
X13311Y-26307D01*
X13349Y-26345D01*
X13387Y-26421D01*
X13426Y-26574D01*
X13426Y-26764D01*
X13387Y-26916D01*
X13349Y-26993D01*
X13311Y-27031D01*
X13235Y-27069D01*
X13159Y-27069D01*
X13083Y-27031D01*
X13045Y-26993D01*
X13006Y-26916D01*
X12968Y-26764D01*
X12968Y-26574D01*
X13006Y-26421D01*
X13045Y-26345D01*
X13083Y-26307D01*
X13159Y-26269D01*
X13730Y-26269D02*
X13730Y-26421D01*
X14035Y-26269D02*
X14035Y-26421D01*
X15560Y-26231D02*
X14874Y-27259D01*
X16856Y-27069D02*
X16398Y-27069D01*
X16627Y-27069D02*
X16627Y-26269D01*
X16551Y-26383D01*
X16475Y-26459D01*
X16398Y-26497D01*
X17198Y-26993D02*
X17237Y-27031D01*
X17198Y-27069D01*
X17160Y-27031D01*
X17198Y-26993D01*
X17198Y-27069D01*
X17732Y-26269D02*
X17808Y-26269D01*
X17884Y-26307D01*
X17922Y-26345D01*
X17960Y-26421D01*
X17999Y-26574D01*
X17999Y-26764D01*
X17960Y-26916D01*
X17922Y-26993D01*
X17884Y-27031D01*
X17808Y-27069D01*
X17732Y-27069D01*
X17656Y-27031D01*
X17618Y-26993D01*
X17579Y-26916D01*
X17541Y-26764D01*
X17541Y-26574D01*
X17579Y-26421D01*
X17618Y-26345D01*
X17656Y-26307D01*
X17732Y-26269D01*
X18303Y-26345D02*
X18341Y-26307D01*
X18418Y-26269D01*
X18608Y-26269D01*
X18684Y-26307D01*
X18722Y-26345D01*
X18761Y-26421D01*
X18761Y-26497D01*
X18722Y-26612D01*
X18265Y-27069D01*
X18761Y-27069D01*
X19103Y-27069D02*
X19103Y-26535D01*
X19103Y-26612D02*
X19142Y-26574D01*
X19218Y-26535D01*
X19332Y-26535D01*
X19408Y-26574D01*
X19446Y-26650D01*
X19446Y-27069D01*
X19446Y-26650D02*
X19484Y-26574D01*
X19561Y-26535D01*
X19675Y-26535D01*
X19751Y-26574D01*
X19789Y-26650D01*
X19789Y-27069D01*
X20170Y-27069D02*
X20170Y-26535D01*
X20170Y-26612D02*
X20209Y-26574D01*
X20285Y-26535D01*
X20399Y-26535D01*
X20475Y-26574D01*
X20513Y-26650D01*
X20513Y-27069D01*
X20513Y-26650D02*
X20551Y-26574D01*
X20628Y-26535D01*
X20742Y-26535D01*
X20818Y-26574D01*
X20856Y-26650D01*
X20856Y-27069D01*
X22076Y-27374D02*
X22038Y-27335D01*
X21962Y-27221D01*
X21924Y-27145D01*
X21886Y-27031D01*
X21847Y-26840D01*
X21847Y-26688D01*
X21886Y-26497D01*
X21924Y-26383D01*
X21962Y-26307D01*
X22038Y-26193D01*
X22076Y-26155D01*
X22304Y-26269D02*
X22800Y-26269D01*
X22533Y-26574D01*
X22647Y-26574D01*
X22723Y-26612D01*
X22761Y-26650D01*
X22800Y-26726D01*
X22800Y-26916D01*
X22761Y-26993D01*
X22723Y-27031D01*
X22647Y-27069D01*
X22419Y-27069D01*
X22342Y-27031D01*
X22304Y-26993D01*
X23257Y-26612D02*
X23181Y-26574D01*
X23142Y-26535D01*
X23104Y-26459D01*
X23104Y-26421D01*
X23142Y-26345D01*
X23181Y-26307D01*
X23257Y-26269D01*
X23409Y-26269D01*
X23485Y-26307D01*
X23523Y-26345D01*
X23562Y-26421D01*
X23562Y-26459D01*
X23523Y-26535D01*
X23485Y-26574D01*
X23409Y-26612D01*
X23257Y-26612D01*
X23181Y-26650D01*
X23142Y-26688D01*
X23104Y-26764D01*
X23104Y-26916D01*
X23142Y-26993D01*
X23181Y-27031D01*
X23257Y-27069D01*
X23409Y-27069D01*
X23485Y-27031D01*
X23523Y-26993D01*
X23562Y-26916D01*
X23562Y-26764D01*
X23523Y-26688D01*
X23485Y-26650D01*
X23409Y-26612D01*
X24514Y-27069D02*
X24514Y-26269D01*
X24857Y-27069D02*
X24857Y-26650D01*
X24819Y-26574D01*
X24743Y-26535D01*
X24629Y-26535D01*
X24553Y-26574D01*
X24514Y-26612D01*
X25353Y-27069D02*
X25277Y-27031D01*
X25238Y-26993D01*
X25200Y-26916D01*
X25200Y-26688D01*
X25238Y-26612D01*
X25277Y-26574D01*
X25353Y-26535D01*
X25467Y-26535D01*
X25543Y-26574D01*
X25581Y-26612D01*
X25619Y-26688D01*
X25619Y-26916D01*
X25581Y-26993D01*
X25543Y-27031D01*
X25467Y-27069D01*
X25353Y-27069D01*
X26077Y-27069D02*
X26001Y-27031D01*
X25962Y-26955D01*
X25962Y-26269D01*
X26686Y-27031D02*
X26610Y-27069D01*
X26458Y-27069D01*
X26381Y-27031D01*
X26343Y-26955D01*
X26343Y-26650D01*
X26381Y-26574D01*
X26458Y-26535D01*
X26610Y-26535D01*
X26686Y-26574D01*
X26724Y-26650D01*
X26724Y-26726D01*
X26343Y-26802D01*
X27029Y-27031D02*
X27106Y-27069D01*
X27258Y-27069D01*
X27334Y-27031D01*
X27372Y-26955D01*
X27372Y-26916D01*
X27334Y-26840D01*
X27258Y-26802D01*
X27144Y-26802D01*
X27067Y-26764D01*
X27029Y-26688D01*
X27029Y-26650D01*
X27067Y-26574D01*
X27144Y-26535D01*
X27258Y-26535D01*
X27334Y-26574D01*
X27639Y-27374D02*
X27677Y-27335D01*
X27754Y-27221D01*
X27792Y-27145D01*
X27830Y-27031D01*
X27868Y-26840D01*
X27868Y-26688D01*
X27830Y-26497D01*
X27792Y-26383D01*
X27754Y-26307D01*
X27677Y-26193D01*
X27639Y-26155D01*
G54D10*
X09948Y-27800D02*
X09943Y-27841D01*
X09931Y-27882D01*
X09911Y-27919D01*
X09885Y-27952D01*
X09852Y-27979D01*
X09815Y-27999D01*
X09775Y-28011D01*
X09733Y-28015D01*
X09692Y-28012D01*
X09652Y-28000D01*
X09614Y-27980D01*
X09581Y-27954D01*
X09554Y-27922D01*
X09534Y-27885D01*
X09521Y-27844D01*
X09517Y-27803D01*
X09520Y-27762D01*
X09532Y-27721D01*
X09551Y-27683D01*
X09577Y-27650D01*
X09609Y-27623D01*
X09646Y-27603D01*
X09686Y-27590D01*
X09728Y-27585D01*
X09769Y-27588D01*
X09810Y-27599D01*
X09847Y-27618D01*
X09880Y-27644D01*
X09908Y-27676D01*
X09929Y-27713D01*
X09942Y-27753D01*
X09947Y-27794D01*
X09948Y-27800D01*
X09516Y-27584D02*
X09948Y-28016D01*
X09948Y-27584D02*
X09516Y-28016D01*
G54D13*
X10492Y-27324D02*
X10568Y-27324D01*
X10644Y-27362D01*
X10682Y-27400D01*
X10720Y-27476D01*
X10759Y-27629D01*
X10759Y-27819D01*
X10720Y-27971D01*
X10682Y-28048D01*
X10644Y-28086D01*
X10568Y-28124D01*
X10492Y-28124D01*
X10416Y-28086D01*
X10378Y-28048D01*
X10339Y-27971D01*
X10301Y-27819D01*
X10301Y-27629D01*
X10339Y-27476D01*
X10378Y-27400D01*
X10416Y-27362D01*
X10492Y-27324D01*
X11101Y-28048D02*
X11140Y-28086D01*
X11101Y-28124D01*
X11063Y-28086D01*
X11101Y-28048D01*
X11101Y-28124D01*
X11635Y-27324D02*
X11711Y-27324D01*
X11787Y-27362D01*
X11825Y-27400D01*
X11863Y-27476D01*
X11902Y-27629D01*
X11902Y-27819D01*
X11863Y-27971D01*
X11825Y-28048D01*
X11787Y-28086D01*
X11711Y-28124D01*
X11635Y-28124D01*
X11559Y-28086D01*
X11521Y-28048D01*
X11482Y-27971D01*
X11444Y-27819D01*
X11444Y-27629D01*
X11482Y-27476D01*
X11521Y-27400D01*
X11559Y-27362D01*
X11635Y-27324D01*
X12587Y-27590D02*
X12587Y-28124D01*
X12397Y-27286D02*
X12206Y-27857D01*
X12702Y-27857D01*
X12930Y-27324D02*
X13426Y-27324D01*
X13159Y-27629D01*
X13273Y-27629D01*
X13349Y-27667D01*
X13387Y-27705D01*
X13426Y-27781D01*
X13426Y-27971D01*
X13387Y-28048D01*
X13349Y-28086D01*
X13273Y-28124D01*
X13045Y-28124D01*
X12968Y-28086D01*
X12930Y-28048D01*
X13730Y-27324D02*
X13730Y-27476D01*
X14035Y-27324D02*
X14035Y-27476D01*
X15560Y-27286D02*
X14874Y-28314D01*
X16856Y-28124D02*
X16398Y-28124D01*
X16627Y-28124D02*
X16627Y-27324D01*
X16551Y-27438D01*
X16475Y-27514D01*
X16398Y-27552D01*
X17198Y-28048D02*
X17237Y-28086D01*
X17198Y-28124D01*
X17160Y-28086D01*
X17198Y-28048D01*
X17198Y-28124D01*
X17999Y-28124D02*
X17541Y-28124D01*
X17770Y-28124D02*
X17770Y-27324D01*
X17694Y-27438D01*
X17618Y-27514D01*
X17541Y-27552D01*
X18494Y-27324D02*
X18570Y-27324D01*
X18646Y-27362D01*
X18684Y-27400D01*
X18722Y-27476D01*
X18761Y-27629D01*
X18761Y-27819D01*
X18722Y-27971D01*
X18684Y-28048D01*
X18646Y-28086D01*
X18570Y-28124D01*
X18494Y-28124D01*
X18418Y-28086D01*
X18380Y-28048D01*
X18341Y-27971D01*
X18303Y-27819D01*
X18303Y-27629D01*
X18341Y-27476D01*
X18380Y-27400D01*
X18418Y-27362D01*
X18494Y-27324D01*
X19103Y-28124D02*
X19103Y-27590D01*
X19103Y-27667D02*
X19142Y-27629D01*
X19218Y-27590D01*
X19332Y-27590D01*
X19408Y-27629D01*
X19446Y-27705D01*
X19446Y-28124D01*
X19446Y-27705D02*
X19484Y-27629D01*
X19561Y-27590D01*
X19675Y-27590D01*
X19751Y-27629D01*
X19789Y-27705D01*
X19789Y-28124D01*
X20170Y-28124D02*
X20170Y-27590D01*
X20170Y-27667D02*
X20209Y-27629D01*
X20285Y-27590D01*
X20399Y-27590D01*
X20475Y-27629D01*
X20513Y-27705D01*
X20513Y-28124D01*
X20513Y-27705D02*
X20551Y-27629D01*
X20628Y-27590D01*
X20742Y-27590D01*
X20818Y-27629D01*
X20856Y-27705D01*
X20856Y-28124D01*
X22076Y-28429D02*
X22038Y-28390D01*
X21962Y-28276D01*
X21924Y-28200D01*
X21886Y-28086D01*
X21847Y-27895D01*
X21847Y-27743D01*
X21886Y-27552D01*
X21924Y-27438D01*
X21962Y-27362D01*
X22038Y-27248D01*
X22076Y-27210D01*
X22800Y-28124D02*
X22342Y-28124D01*
X22571Y-28124D02*
X22571Y-27324D01*
X22495Y-27438D01*
X22419Y-27514D01*
X22342Y-27552D01*
X23752Y-28124D02*
X23752Y-27324D01*
X24095Y-28124D02*
X24095Y-27705D01*
X24057Y-27629D01*
X23981Y-27590D01*
X23867Y-27590D01*
X23791Y-27629D01*
X23752Y-27667D01*
X24591Y-28124D02*
X24515Y-28086D01*
X24476Y-28048D01*
X24438Y-27971D01*
X24438Y-27743D01*
X24476Y-27667D01*
X24515Y-27629D01*
X24591Y-27590D01*
X24705Y-27590D01*
X24781Y-27629D01*
X24819Y-27667D01*
X24857Y-27743D01*
X24857Y-27971D01*
X24819Y-28048D01*
X24781Y-28086D01*
X24705Y-28124D01*
X24591Y-28124D01*
X25315Y-28124D02*
X25239Y-28086D01*
X25200Y-28010D01*
X25200Y-27324D01*
X25924Y-28086D02*
X25848Y-28124D01*
X25696Y-28124D01*
X25619Y-28086D01*
X25581Y-28010D01*
X25581Y-27705D01*
X25619Y-27629D01*
X25696Y-27590D01*
X25848Y-27590D01*
X25924Y-27629D01*
X25962Y-27705D01*
X25962Y-27781D01*
X25581Y-27857D01*
X26229Y-28429D02*
X26267Y-28390D01*
X26344Y-28276D01*
X26382Y-28200D01*
X26420Y-28086D01*
X26458Y-27895D01*
X26458Y-27743D01*
X26420Y-27552D01*
X26382Y-27438D01*
X26344Y-27362D01*
X26267Y-27248D01*
X26229Y-27210D01*
G54D10*
X09949Y-28855D02*
X09943Y-28916D01*
X09925Y-28975D01*
X09896Y-29029D01*
X09857Y-29076D01*
X09810Y-29116D01*
X09756Y-29145D01*
X09697Y-29163D01*
X09636Y-29169D01*
X09575Y-29164D01*
X09516Y-29147D01*
X09462Y-29118D01*
X09414Y-29080D01*
X09375Y-29032D01*
X09345Y-28979D01*
X09326Y-28920D01*
X09320Y-28859D01*
X09325Y-28799D01*
X09342Y-28740D01*
X09370Y-28685D01*
X09408Y-28637D01*
X09455Y-28597D01*
X09508Y-28567D01*
X09567Y-28548D01*
X09628Y-28541D01*
X09688Y-28545D01*
X09747Y-28562D01*
X09802Y-28590D01*
X09851Y-28627D01*
X09891Y-28674D01*
X09921Y-28727D01*
X09941Y-28786D01*
X09948Y-28847D01*
X09949Y-28855D01*
X09319Y-28855D02*
X09949Y-28855D01*
G54D13*
X10492Y-28379D02*
X10568Y-28379D01*
X10644Y-28417D01*
X10682Y-28455D01*
X10720Y-28531D01*
X10759Y-28684D01*
X10759Y-28874D01*
X10720Y-29026D01*
X10682Y-29103D01*
X10644Y-29141D01*
X10568Y-29179D01*
X10492Y-29179D01*
X10416Y-29141D01*
X10378Y-29103D01*
X10339Y-29026D01*
X10301Y-28874D01*
X10301Y-28684D01*
X10339Y-28531D01*
X10378Y-28455D01*
X10416Y-28417D01*
X10492Y-28379D01*
X11101Y-29103D02*
X11140Y-29141D01*
X11101Y-29179D01*
X11063Y-29141D01*
X11101Y-29103D01*
X11101Y-29179D01*
X11635Y-28379D02*
X11711Y-28379D01*
X11787Y-28417D01*
X11825Y-28455D01*
X11863Y-28531D01*
X11902Y-28684D01*
X11902Y-28874D01*
X11863Y-29026D01*
X11825Y-29103D01*
X11787Y-29141D01*
X11711Y-29179D01*
X11635Y-29179D01*
X11559Y-29141D01*
X11521Y-29103D01*
X11482Y-29026D01*
X11444Y-28874D01*
X11444Y-28684D01*
X11482Y-28531D01*
X11521Y-28455D01*
X11559Y-28417D01*
X11635Y-28379D01*
X12587Y-28379D02*
X12435Y-28379D01*
X12359Y-28417D01*
X12321Y-28455D01*
X12244Y-28569D01*
X12206Y-28722D01*
X12206Y-29026D01*
X12244Y-29103D01*
X12283Y-29141D01*
X12359Y-29179D01*
X12511Y-29179D01*
X12587Y-29141D01*
X12625Y-29103D01*
X12664Y-29026D01*
X12664Y-28836D01*
X12625Y-28760D01*
X12587Y-28722D01*
X12511Y-28684D01*
X12359Y-28684D01*
X12283Y-28722D01*
X12244Y-28760D01*
X12206Y-28836D01*
X12930Y-28379D02*
X13426Y-28379D01*
X13159Y-28684D01*
X13273Y-28684D01*
X13349Y-28722D01*
X13387Y-28760D01*
X13426Y-28836D01*
X13426Y-29026D01*
X13387Y-29103D01*
X13349Y-29141D01*
X13273Y-29179D01*
X13045Y-29179D01*
X12968Y-29141D01*
X12930Y-29103D01*
X13730Y-28379D02*
X13730Y-28531D01*
X14035Y-28379D02*
X14035Y-28531D01*
X15560Y-28341D02*
X14874Y-29369D01*
X16856Y-29179D02*
X16398Y-29179D01*
X16627Y-29179D02*
X16627Y-28379D01*
X16551Y-28493D01*
X16475Y-28569D01*
X16398Y-28607D01*
X17198Y-29103D02*
X17237Y-29141D01*
X17198Y-29179D01*
X17160Y-29141D01*
X17198Y-29103D01*
X17198Y-29179D01*
X17922Y-28379D02*
X17770Y-28379D01*
X17694Y-28417D01*
X17656Y-28455D01*
X17579Y-28569D01*
X17541Y-28722D01*
X17541Y-29026D01*
X17579Y-29103D01*
X17618Y-29141D01*
X17694Y-29179D01*
X17846Y-29179D01*
X17922Y-29141D01*
X17960Y-29103D01*
X17999Y-29026D01*
X17999Y-28836D01*
X17960Y-28760D01*
X17922Y-28722D01*
X17846Y-28684D01*
X17694Y-28684D01*
X17618Y-28722D01*
X17579Y-28760D01*
X17541Y-28836D01*
X18494Y-28379D02*
X18570Y-28379D01*
X18646Y-28417D01*
X18684Y-28455D01*
X18722Y-28531D01*
X18761Y-28684D01*
X18761Y-28874D01*
X18722Y-29026D01*
X18684Y-29103D01*
X18646Y-29141D01*
X18570Y-29179D01*
X18494Y-29179D01*
X18418Y-29141D01*
X18380Y-29103D01*
X18341Y-29026D01*
X18303Y-28874D01*
X18303Y-28684D01*
X18341Y-28531D01*
X18380Y-28455D01*
X18418Y-28417D01*
X18494Y-28379D01*
X19103Y-29179D02*
X19103Y-28645D01*
X19103Y-28722D02*
X19142Y-28684D01*
X19218Y-28645D01*
X19332Y-28645D01*
X19408Y-28684D01*
X19446Y-28760D01*
X19446Y-29179D01*
X19446Y-28760D02*
X19484Y-28684D01*
X19561Y-28645D01*
X19675Y-28645D01*
X19751Y-28684D01*
X19789Y-28760D01*
X19789Y-29179D01*
X20170Y-29179D02*
X20170Y-28645D01*
X20170Y-28722D02*
X20209Y-28684D01*
X20285Y-28645D01*
X20399Y-28645D01*
X20475Y-28684D01*
X20513Y-28760D01*
X20513Y-29179D01*
X20513Y-28760D02*
X20551Y-28684D01*
X20628Y-28645D01*
X20742Y-28645D01*
X20818Y-28684D01*
X20856Y-28760D01*
X20856Y-29179D01*
X22076Y-29484D02*
X22038Y-29445D01*
X21962Y-29331D01*
X21924Y-29255D01*
X21886Y-29141D01*
X21847Y-28950D01*
X21847Y-28798D01*
X21886Y-28607D01*
X21924Y-28493D01*
X21962Y-28417D01*
X22038Y-28303D01*
X22076Y-28265D01*
X22800Y-29179D02*
X22342Y-29179D01*
X22571Y-29179D02*
X22571Y-28379D01*
X22495Y-28493D01*
X22419Y-28569D01*
X22342Y-28607D01*
X23752Y-29179D02*
X23752Y-28379D01*
X24095Y-29179D02*
X24095Y-28760D01*
X24057Y-28684D01*
X23981Y-28645D01*
X23867Y-28645D01*
X23791Y-28684D01*
X23752Y-28722D01*
X24591Y-29179D02*
X24515Y-29141D01*
X24476Y-29103D01*
X24438Y-29026D01*
X24438Y-28798D01*
X24476Y-28722D01*
X24515Y-28684D01*
X24591Y-28645D01*
X24705Y-28645D01*
X24781Y-28684D01*
X24819Y-28722D01*
X24857Y-28798D01*
X24857Y-29026D01*
X24819Y-29103D01*
X24781Y-29141D01*
X24705Y-29179D01*
X24591Y-29179D01*
X25315Y-29179D02*
X25239Y-29141D01*
X25200Y-29065D01*
X25200Y-28379D01*
X25924Y-29141D02*
X25848Y-29179D01*
X25696Y-29179D01*
X25619Y-29141D01*
X25581Y-29065D01*
X25581Y-28760D01*
X25619Y-28684D01*
X25696Y-28645D01*
X25848Y-28645D01*
X25924Y-28684D01*
X25962Y-28760D01*
X25962Y-28836D01*
X25581Y-28912D01*
X26229Y-29484D02*
X26267Y-29445D01*
X26344Y-29331D01*
X26382Y-29255D01*
X26420Y-29141D01*
X26458Y-28950D01*
X26458Y-28798D01*
X26420Y-28607D01*
X26382Y-28493D01*
X26344Y-28417D01*
X26267Y-28303D01*
X26229Y-28265D01*
G54D10*
X09949Y-29910D02*
X09937Y-30026D01*
X09903Y-30138D01*
X09848Y-30242D01*
X09774Y-30332D01*
X09684Y-30407D01*
X09581Y-30463D01*
X09469Y-30497D01*
X09353Y-30509D01*
X09237Y-30499D01*
X09125Y-30466D01*
X09021Y-30412D01*
X08930Y-30338D01*
X08854Y-30248D01*
X08798Y-30146D01*
X08763Y-30034D01*
X08750Y-29918D01*
X08759Y-29802D01*
X08792Y-29690D01*
X08845Y-29585D01*
X08918Y-29494D01*
X09007Y-29418D01*
X09109Y-29361D01*
X09221Y-29324D01*
X09337Y-29311D01*
X09453Y-29320D01*
X09565Y-29351D01*
X09670Y-29404D01*
X09762Y-29476D01*
X09839Y-29565D01*
X09897Y-29666D01*
X09934Y-29778D01*
X09948Y-29894D01*
X09949Y-29910D01*
X09349Y-29310D02*
X09349Y-30510D01*
G54D13*
X10492Y-29434D02*
X10568Y-29434D01*
X10644Y-29472D01*
X10682Y-29510D01*
X10720Y-29586D01*
X10759Y-29739D01*
X10759Y-29929D01*
X10720Y-30081D01*
X10682Y-30158D01*
X10644Y-30196D01*
X10568Y-30234D01*
X10492Y-30234D01*
X10416Y-30196D01*
X10378Y-30158D01*
X10339Y-30081D01*
X10301Y-29929D01*
X10301Y-29739D01*
X10339Y-29586D01*
X10378Y-29510D01*
X10416Y-29472D01*
X10492Y-29434D01*
X11101Y-30158D02*
X11140Y-30196D01*
X11101Y-30234D01*
X11063Y-30196D01*
X11101Y-30158D01*
X11101Y-30234D01*
X11902Y-30234D02*
X11444Y-30234D01*
X11673Y-30234D02*
X11673Y-29434D01*
X11597Y-29548D01*
X11521Y-29624D01*
X11444Y-29662D01*
X12206Y-29510D02*
X12244Y-29472D01*
X12321Y-29434D01*
X12511Y-29434D01*
X12587Y-29472D01*
X12625Y-29510D01*
X12664Y-29586D01*
X12664Y-29662D01*
X12625Y-29777D01*
X12168Y-30234D01*
X12664Y-30234D01*
X13159Y-29434D02*
X13235Y-29434D01*
X13311Y-29472D01*
X13349Y-29510D01*
X13387Y-29586D01*
X13426Y-29739D01*
X13426Y-29929D01*
X13387Y-30081D01*
X13349Y-30158D01*
X13311Y-30196D01*
X13235Y-30234D01*
X13159Y-30234D01*
X13083Y-30196D01*
X13045Y-30158D01*
X13006Y-30081D01*
X12968Y-29929D01*
X12968Y-29739D01*
X13006Y-29586D01*
X13045Y-29510D01*
X13083Y-29472D01*
X13159Y-29434D01*
X13730Y-29434D02*
X13730Y-29586D01*
X14035Y-29434D02*
X14035Y-29586D01*
X15560Y-29396D02*
X14874Y-30424D01*
X16360Y-29434D02*
X16856Y-29434D01*
X16589Y-29739D01*
X16703Y-29739D01*
X16779Y-29777D01*
X16817Y-29815D01*
X16856Y-29891D01*
X16856Y-30081D01*
X16817Y-30158D01*
X16779Y-30196D01*
X16703Y-30234D01*
X16475Y-30234D01*
X16398Y-30196D01*
X16360Y-30158D01*
X17198Y-30158D02*
X17237Y-30196D01*
X17198Y-30234D01*
X17160Y-30196D01*
X17198Y-30158D01*
X17198Y-30234D01*
X17732Y-29434D02*
X17808Y-29434D01*
X17884Y-29472D01*
X17922Y-29510D01*
X17960Y-29586D01*
X17999Y-29739D01*
X17999Y-29929D01*
X17960Y-30081D01*
X17922Y-30158D01*
X17884Y-30196D01*
X17808Y-30234D01*
X17732Y-30234D01*
X17656Y-30196D01*
X17618Y-30158D01*
X17579Y-30081D01*
X17541Y-29929D01*
X17541Y-29739D01*
X17579Y-29586D01*
X17618Y-29510D01*
X17656Y-29472D01*
X17732Y-29434D01*
X18722Y-29434D02*
X18341Y-29434D01*
X18303Y-29815D01*
X18341Y-29777D01*
X18418Y-29739D01*
X18608Y-29739D01*
X18684Y-29777D01*
X18722Y-29815D01*
X18761Y-29891D01*
X18761Y-30081D01*
X18722Y-30158D01*
X18684Y-30196D01*
X18608Y-30234D01*
X18418Y-30234D01*
X18341Y-30196D01*
X18303Y-30158D01*
X19103Y-30234D02*
X19103Y-29700D01*
X19103Y-29777D02*
X19142Y-29739D01*
X19218Y-29700D01*
X19332Y-29700D01*
X19408Y-29739D01*
X19446Y-29815D01*
X19446Y-30234D01*
X19446Y-29815D02*
X19484Y-29739D01*
X19561Y-29700D01*
X19675Y-29700D01*
X19751Y-29739D01*
X19789Y-29815D01*
X19789Y-30234D01*
X20170Y-30234D02*
X20170Y-29700D01*
X20170Y-29777D02*
X20209Y-29739D01*
X20285Y-29700D01*
X20399Y-29700D01*
X20475Y-29739D01*
X20513Y-29815D01*
X20513Y-30234D01*
X20513Y-29815D02*
X20551Y-29739D01*
X20628Y-29700D01*
X20742Y-29700D01*
X20818Y-29739D01*
X20856Y-29815D01*
X20856Y-30234D01*
X22076Y-30539D02*
X22038Y-30500D01*
X21962Y-30386D01*
X21924Y-30310D01*
X21886Y-30196D01*
X21847Y-30005D01*
X21847Y-29853D01*
X21886Y-29662D01*
X21924Y-29548D01*
X21962Y-29472D01*
X22038Y-29358D01*
X22076Y-29320D01*
X22342Y-29510D02*
X22380Y-29472D01*
X22457Y-29434D01*
X22647Y-29434D01*
X22723Y-29472D01*
X22761Y-29510D01*
X22800Y-29586D01*
X22800Y-29662D01*
X22761Y-29777D01*
X22304Y-30234D01*
X22800Y-30234D01*
X23752Y-30234D02*
X23752Y-29434D01*
X24095Y-30234D02*
X24095Y-29815D01*
X24057Y-29739D01*
X23981Y-29700D01*
X23867Y-29700D01*
X23791Y-29739D01*
X23752Y-29777D01*
X24591Y-30234D02*
X24515Y-30196D01*
X24476Y-30158D01*
X24438Y-30081D01*
X24438Y-29853D01*
X24476Y-29777D01*
X24515Y-29739D01*
X24591Y-29700D01*
X24705Y-29700D01*
X24781Y-29739D01*
X24819Y-29777D01*
X24857Y-29853D01*
X24857Y-30081D01*
X24819Y-30158D01*
X24781Y-30196D01*
X24705Y-30234D01*
X24591Y-30234D01*
X25315Y-30234D02*
X25239Y-30196D01*
X25200Y-30120D01*
X25200Y-29434D01*
X25924Y-30196D02*
X25848Y-30234D01*
X25696Y-30234D01*
X25619Y-30196D01*
X25581Y-30120D01*
X25581Y-29815D01*
X25619Y-29739D01*
X25696Y-29700D01*
X25848Y-29700D01*
X25924Y-29739D01*
X25962Y-29815D01*
X25962Y-29891D01*
X25581Y-29967D01*
X26267Y-30196D02*
X26344Y-30234D01*
X26496Y-30234D01*
X26572Y-30196D01*
X26610Y-30120D01*
X26610Y-30081D01*
X26572Y-30005D01*
X26496Y-29967D01*
X26382Y-29967D01*
X26305Y-29929D01*
X26267Y-29853D01*
X26267Y-29815D01*
X26305Y-29739D01*
X26382Y-29700D01*
X26496Y-29700D01*
X26572Y-29739D01*
X26877Y-30539D02*
X26915Y-30500D01*
X26992Y-30386D01*
X27030Y-30310D01*
X27068Y-30196D01*
X27106Y-30005D01*
X27106Y-29853D01*
X27068Y-29662D01*
X27030Y-29548D01*
X26992Y-29472D01*
X26915Y-29358D01*
X26877Y-29320D01*
M02*
