G04 (created by PCBNEW-RS274X (2011-03-30 BZR 2932)-stable) date 07/08/11 12:40:37*
G01*
G70*
G90*
%MOIN*%
G04 Gerber Fmt 3.4, Leading zero omitted, Abs format*
%FSLAX34Y34*%
G04 APERTURE LIST*
%ADD10C,0.006000*%
%ADD11C,0.010000*%
%ADD12C,0.180000*%
%ADD13C,0.040000*%
%ADD14R,0.061000X0.039400*%
%ADD15R,0.061000X0.036500*%
%ADD16R,0.061000X0.025000*%
%ADD17C,0.063000*%
%ADD18C,0.043300*%
%ADD19R,0.110200X0.059100*%
%ADD20R,0.100000X0.050000*%
%ADD21R,0.051200X0.059000*%
%ADD22R,0.059000X0.051200*%
%ADD23R,0.080000X0.080000*%
%ADD24C,0.080000*%
%ADD25R,0.070000X0.070000*%
%ADD26C,0.070000*%
%ADD27R,0.017700X0.078700*%
%ADD28R,0.078700X0.017700*%
%ADD29R,0.090000X0.060000*%
%ADD30O,0.090000X0.060000*%
%ADD31R,0.040000X0.030000*%
%ADD32R,0.020000X0.045000*%
%ADD33C,0.035000*%
%ADD34C,0.008000*%
G04 APERTURE END LIST*
G54D10*
G54D11*
X10000Y-10000D02*
X40000Y-10000D01*
X40000Y-22000D02*
X10000Y-22000D01*
X40000Y-10000D02*
X40000Y-22000D01*
X10000Y-22000D02*
X10000Y-10000D01*
G54D12*
X21800Y-11000D03*
X21800Y-21000D03*
G54D13*
X29550Y-17200D03*
X29400Y-17800D03*
X30200Y-19500D03*
X29600Y-19500D03*
X29450Y-15700D03*
X28050Y-19500D03*
X25800Y-16950D03*
X27650Y-16200D03*
X25800Y-16350D03*
X25800Y-15750D03*
X26600Y-15200D03*
X29000Y-19500D03*
G54D14*
X20500Y-15744D03*
X20500Y-16728D03*
X20500Y-17712D03*
X20500Y-18697D03*
X20500Y-19681D03*
X20500Y-14760D03*
X20500Y-13775D03*
X20500Y-12818D03*
G54D15*
X20500Y-12149D03*
G54D16*
X20500Y-11637D03*
X20500Y-11165D03*
G54D17*
X19398Y-19701D03*
G54D18*
X19398Y-11472D03*
G54D19*
X11051Y-10685D03*
X11051Y-21315D03*
G54D20*
X19634Y-10685D03*
G54D19*
X19673Y-20567D03*
G54D21*
X33950Y-16125D03*
X34700Y-16125D03*
X24000Y-14275D03*
X24750Y-14275D03*
X23025Y-14275D03*
X22275Y-14275D03*
X23575Y-18450D03*
X22825Y-18450D03*
X23575Y-19700D03*
X22825Y-19700D03*
G54D22*
X37200Y-19675D03*
X37200Y-18925D03*
G54D21*
X36325Y-19675D03*
X35575Y-19675D03*
X34625Y-19675D03*
X33875Y-19675D03*
G54D22*
X32100Y-15875D03*
X32100Y-16625D03*
X27925Y-13475D03*
X27925Y-12725D03*
X29075Y-13475D03*
X29075Y-12725D03*
X27925Y-11725D03*
X27925Y-10975D03*
X29075Y-11725D03*
X29075Y-10975D03*
G54D23*
X35275Y-12700D03*
G54D24*
X34275Y-12700D03*
X33275Y-12700D03*
X32275Y-12700D03*
X31275Y-12700D03*
X30275Y-12700D03*
G54D25*
X37200Y-15825D03*
G54D26*
X38200Y-15825D03*
X37200Y-16825D03*
X38200Y-16825D03*
X37200Y-17825D03*
X38200Y-17825D03*
X26600Y-11350D03*
X26600Y-13350D03*
X26600Y-12350D03*
G54D27*
X27407Y-14904D03*
X27722Y-14904D03*
X28037Y-14904D03*
X28352Y-14904D03*
X28667Y-14904D03*
X28982Y-14904D03*
X29297Y-14904D03*
X29612Y-14904D03*
X29610Y-18670D03*
X27400Y-18670D03*
X27720Y-18670D03*
X28040Y-18670D03*
X28350Y-18670D03*
X28670Y-18670D03*
X28980Y-18670D03*
X29300Y-18670D03*
G54D28*
X30400Y-15688D03*
X30400Y-16002D03*
X30400Y-16318D03*
X30400Y-16632D03*
X30400Y-16948D03*
X30400Y-17262D03*
X30400Y-17578D03*
X30400Y-17892D03*
X26620Y-15690D03*
X26620Y-16000D03*
X26620Y-16320D03*
X26620Y-16630D03*
X26620Y-16940D03*
X26620Y-17260D03*
X26620Y-17580D03*
X26620Y-17900D03*
G54D29*
X34675Y-14050D03*
G54D30*
X34675Y-15050D03*
G54D29*
X34675Y-18300D03*
G54D30*
X34675Y-17300D03*
G54D25*
X38200Y-10650D03*
G54D26*
X38200Y-11650D03*
X38200Y-12650D03*
X38200Y-13650D03*
G54D25*
X38200Y-21100D03*
G54D26*
X37200Y-21100D03*
X36200Y-21100D03*
X35200Y-21100D03*
G54D25*
X23775Y-21100D03*
G54D26*
X24775Y-21100D03*
X25775Y-21100D03*
X26775Y-21100D03*
G54D25*
X27775Y-21100D03*
G54D26*
X28775Y-21100D03*
X29775Y-21100D03*
X30775Y-21100D03*
G54D31*
X37025Y-14700D03*
X36025Y-14325D03*
X37025Y-13925D03*
G54D32*
X25100Y-15400D03*
X24600Y-15400D03*
X24100Y-15400D03*
X23600Y-15400D03*
X23100Y-15400D03*
X22600Y-15400D03*
X22100Y-15400D03*
X22100Y-17300D03*
X22600Y-17300D03*
X23100Y-17300D03*
X23600Y-17300D03*
X24100Y-17300D03*
X24600Y-17300D03*
X25100Y-17300D03*
G54D25*
X33450Y-21100D03*
G54D26*
X32450Y-21100D03*
G54D33*
X36675Y-13100D03*
X28350Y-16075D03*
X32525Y-14425D03*
X16300Y-15000D03*
X16300Y-16500D03*
X16300Y-13850D03*
X33350Y-18500D03*
X33350Y-17250D03*
X21300Y-13600D03*
X25850Y-17900D03*
X23100Y-15950D03*
X27350Y-17575D03*
X32675Y-16250D03*
X35525Y-18175D03*
X30700Y-13650D03*
X24450Y-15950D03*
X36025Y-17750D03*
X27875Y-17175D03*
X31750Y-18075D03*
X33825Y-11050D03*
X17300Y-15500D03*
X17300Y-13850D03*
X31750Y-17250D03*
X18300Y-13950D03*
X18325Y-16100D03*
X33425Y-19675D03*
X21450Y-14750D03*
X24100Y-14850D03*
X11050Y-17500D03*
X15300Y-10700D03*
X24000Y-13750D03*
X32075Y-14025D03*
X21350Y-16050D03*
X24100Y-18500D03*
G54D34*
X37150Y-14325D02*
X38075Y-14325D01*
X38200Y-14450D02*
X38200Y-15225D01*
X38075Y-14325D02*
X38200Y-14450D01*
X38200Y-21100D02*
X38200Y-20250D01*
X37625Y-19675D02*
X37200Y-19675D01*
X38200Y-20250D02*
X37625Y-19675D01*
X34675Y-18300D02*
X35375Y-17600D01*
X35375Y-17600D02*
X35375Y-16475D01*
X35375Y-16475D02*
X36625Y-15225D01*
X36625Y-15225D02*
X38200Y-15225D01*
X38200Y-15825D02*
X38200Y-15225D01*
X36675Y-13100D02*
X37250Y-13100D01*
X37500Y-14225D02*
X37400Y-14325D01*
X37500Y-13350D02*
X37500Y-14225D01*
X37250Y-13100D02*
X37500Y-13350D01*
X36025Y-14325D02*
X37150Y-14325D01*
X37150Y-14325D02*
X37400Y-14325D01*
X33950Y-16125D02*
X33950Y-15425D01*
X33950Y-15425D02*
X32950Y-14425D01*
X33950Y-16125D02*
X33950Y-18050D01*
X34200Y-18300D02*
X34675Y-18300D01*
X33950Y-18050D02*
X34200Y-18300D01*
X28350Y-16075D02*
X28350Y-16600D01*
X32525Y-14425D02*
X32950Y-14425D01*
X37200Y-19675D02*
X36325Y-19675D01*
X36325Y-19675D02*
X36325Y-19225D01*
X36150Y-19050D02*
X34625Y-19050D01*
X23825Y-19450D02*
X27450Y-19450D01*
X34625Y-19675D02*
X34625Y-19050D01*
X34625Y-19050D02*
X34625Y-18350D01*
X34625Y-18350D02*
X34675Y-18300D01*
X33275Y-12700D02*
X33275Y-10900D01*
X36550Y-10525D02*
X36675Y-10650D01*
X36675Y-10650D02*
X38200Y-10650D01*
X33275Y-10900D02*
X33650Y-10525D01*
X33650Y-10525D02*
X36550Y-10525D01*
X27450Y-19450D02*
X27720Y-19180D01*
X27720Y-18670D02*
X27720Y-19180D01*
X16300Y-15000D02*
X16300Y-14600D01*
X16300Y-16500D02*
X16300Y-14600D01*
X16300Y-14600D02*
X16300Y-13850D01*
X28350Y-17950D02*
X27950Y-17950D01*
X27750Y-18500D02*
X27720Y-18670D01*
X27750Y-18150D02*
X27750Y-18500D01*
X27950Y-17950D02*
X27750Y-18150D01*
X28350Y-18670D02*
X28350Y-17950D01*
X28350Y-17950D02*
X28350Y-16600D01*
X28350Y-16600D02*
X28350Y-15650D01*
X28050Y-14900D02*
X28037Y-14904D01*
X28050Y-15450D02*
X28050Y-14900D01*
X28250Y-15650D02*
X28050Y-15450D01*
X28500Y-15650D02*
X28350Y-15650D01*
X28350Y-15650D02*
X28250Y-15650D01*
X28667Y-15483D02*
X28500Y-15650D01*
X28667Y-14904D02*
X28667Y-15483D01*
X36325Y-19225D02*
X36150Y-19050D01*
X23575Y-19700D02*
X23825Y-19450D01*
X29297Y-15547D02*
X29450Y-15700D01*
X29297Y-14904D02*
X29297Y-15547D01*
X28125Y-13975D02*
X27925Y-13775D01*
X27925Y-13775D02*
X27925Y-13475D01*
X29612Y-14312D02*
X29275Y-13975D01*
X29612Y-14904D02*
X29612Y-14312D01*
X29275Y-13975D02*
X28125Y-13975D01*
X30400Y-15475D02*
X30000Y-15075D01*
X30400Y-15688D02*
X30400Y-15475D01*
X29350Y-13475D02*
X29075Y-13475D01*
X30000Y-15075D02*
X30000Y-14125D01*
X30000Y-14125D02*
X29350Y-13475D01*
X29900Y-17550D02*
X30350Y-17550D01*
X30400Y-17600D02*
X30400Y-17578D01*
X29550Y-17200D02*
X29900Y-17550D01*
X30350Y-17550D02*
X30400Y-17600D01*
X29700Y-17800D02*
X29800Y-17900D01*
X29400Y-17800D02*
X29700Y-17800D01*
X30400Y-17900D02*
X30400Y-17892D01*
X29800Y-17900D02*
X30400Y-17900D01*
G54D11*
X30200Y-19500D02*
X30200Y-19260D01*
X30200Y-19260D02*
X29610Y-18670D01*
G54D34*
X29300Y-19200D02*
X29600Y-19500D01*
X29300Y-18670D02*
X29300Y-19200D01*
X28980Y-19480D02*
X29000Y-19500D01*
X28980Y-18670D02*
X28980Y-19480D01*
X28040Y-19490D02*
X28050Y-19500D01*
X28040Y-18670D02*
X28040Y-19490D01*
X26620Y-16940D02*
X25810Y-16940D01*
X25810Y-16940D02*
X25800Y-16950D01*
X27220Y-16630D02*
X27650Y-16200D01*
X26620Y-16630D02*
X27220Y-16630D01*
X25830Y-16320D02*
X25800Y-16350D01*
X26620Y-16320D02*
X25830Y-16320D01*
X26620Y-16000D02*
X26050Y-16000D01*
X26050Y-16000D02*
X25800Y-15750D01*
X26620Y-15690D02*
X26620Y-15220D01*
X26620Y-15220D02*
X26600Y-15200D01*
X21300Y-13600D02*
X21300Y-13100D01*
X21025Y-12825D02*
X21025Y-12818D01*
X21300Y-13100D02*
X21025Y-12825D01*
X33350Y-17250D02*
X33350Y-18500D01*
X20500Y-12818D02*
X21025Y-12818D01*
X26620Y-17900D02*
X25850Y-17900D01*
X23100Y-15950D02*
X23100Y-15400D01*
X27350Y-17575D02*
X27345Y-17580D01*
X27345Y-17580D02*
X26620Y-17580D01*
X23100Y-15400D02*
X23100Y-15025D01*
X22275Y-14650D02*
X22275Y-14275D01*
X22425Y-14800D02*
X22275Y-14650D01*
X22875Y-14800D02*
X22425Y-14800D01*
X23100Y-15025D02*
X22875Y-14800D01*
X32450Y-21100D02*
X32450Y-21550D01*
X32650Y-21750D02*
X38800Y-21750D01*
X32450Y-21550D02*
X32650Y-21750D01*
X37200Y-17825D02*
X37200Y-18925D01*
X37800Y-18925D02*
X39000Y-20125D01*
X32100Y-16625D02*
X32500Y-16625D01*
X32675Y-16450D02*
X32675Y-16250D01*
X32500Y-16625D02*
X32675Y-16450D01*
X38800Y-21750D02*
X39000Y-21550D01*
X39000Y-21550D02*
X39000Y-20125D01*
X37800Y-18925D02*
X37200Y-18925D01*
X36450Y-18175D02*
X37200Y-18925D01*
X30400Y-16632D02*
X31882Y-16632D01*
X31950Y-16700D02*
X32100Y-16625D01*
X31882Y-16632D02*
X31950Y-16700D01*
X35525Y-18175D02*
X36450Y-18175D01*
X30700Y-14725D02*
X30850Y-14875D01*
X31175Y-14875D02*
X31500Y-15200D01*
X31132Y-16318D02*
X31500Y-15950D01*
X30400Y-16318D02*
X31132Y-16318D01*
X31500Y-15950D02*
X31500Y-15200D01*
X30850Y-14875D02*
X31175Y-14875D01*
X30700Y-13650D02*
X30700Y-14725D01*
X24600Y-15800D02*
X24450Y-15950D01*
X24600Y-15400D02*
X24600Y-14425D01*
X24600Y-14425D02*
X24750Y-14275D01*
X37200Y-16825D02*
X36275Y-16825D01*
X36275Y-16825D02*
X36025Y-17075D01*
X36025Y-17075D02*
X36025Y-17750D01*
X27875Y-17175D02*
X27875Y-17675D01*
X27400Y-18670D02*
X27400Y-18150D01*
X27875Y-17675D02*
X27400Y-18150D01*
X24600Y-15400D02*
X24600Y-15800D01*
X37200Y-20500D02*
X37000Y-20300D01*
X35575Y-20300D02*
X33400Y-20300D01*
X32150Y-19775D02*
X31750Y-19375D01*
X32875Y-19775D02*
X32150Y-19775D01*
X33400Y-20300D02*
X32875Y-19775D01*
X35575Y-19675D02*
X35575Y-20300D01*
X31750Y-18075D02*
X31750Y-19375D01*
X31750Y-17250D02*
X31375Y-17250D01*
X31073Y-16948D02*
X30400Y-16948D01*
X31375Y-17250D02*
X31073Y-16948D01*
X37200Y-21100D02*
X37200Y-20500D01*
X33825Y-11050D02*
X35825Y-11050D01*
X35825Y-11050D02*
X36425Y-11650D01*
X17300Y-15500D02*
X17300Y-13850D01*
X38200Y-11650D02*
X36425Y-11650D01*
X37000Y-20300D02*
X35575Y-20300D01*
X38200Y-12650D02*
X36450Y-12650D01*
X36450Y-12650D02*
X35625Y-13475D01*
X18300Y-16075D02*
X18300Y-13950D01*
X18325Y-16100D02*
X18300Y-16075D01*
X33425Y-19675D02*
X33425Y-19575D01*
X32500Y-19425D02*
X32150Y-19075D01*
X33275Y-19425D02*
X32500Y-19425D01*
X33425Y-19575D02*
X33275Y-19425D01*
X32150Y-17650D02*
X33100Y-16700D01*
X32150Y-17650D02*
X32150Y-19075D01*
X30400Y-17262D02*
X30912Y-17262D01*
X31300Y-17650D02*
X32150Y-17650D01*
X30912Y-17262D02*
X31300Y-17650D01*
X35625Y-13475D02*
X32025Y-13475D01*
X32025Y-13475D02*
X31650Y-13850D01*
X33100Y-15775D02*
X31650Y-14325D01*
X33100Y-15775D02*
X33100Y-16700D01*
X31650Y-13850D02*
X31650Y-14325D01*
X33875Y-19675D02*
X33425Y-19675D01*
X21450Y-14750D02*
X20500Y-14750D01*
X24100Y-15400D02*
X24100Y-14850D01*
X20500Y-14750D02*
X20500Y-14760D01*
X22100Y-18325D02*
X21728Y-18697D01*
X21728Y-18697D02*
X20500Y-18697D01*
X22100Y-17300D02*
X22100Y-18325D01*
X22600Y-15776D02*
X20626Y-17750D01*
X20626Y-17750D02*
X20500Y-17750D01*
X20500Y-17750D02*
X20500Y-17712D01*
X22600Y-15400D02*
X22600Y-15776D01*
X22825Y-18450D02*
X22825Y-18775D01*
X25750Y-17400D02*
X25300Y-17850D01*
X26000Y-17400D02*
X25750Y-17400D01*
X26140Y-17260D02*
X26000Y-17400D01*
X26140Y-17260D02*
X26620Y-17260D01*
X24875Y-19050D02*
X25300Y-18625D01*
X25300Y-18625D02*
X25300Y-17850D01*
X23100Y-19050D02*
X24875Y-19050D01*
X22825Y-18775D02*
X23100Y-19050D01*
X22600Y-18225D02*
X22825Y-18450D01*
X22600Y-17300D02*
X22600Y-18225D01*
X31125Y-12050D02*
X29900Y-12050D01*
X31275Y-12200D02*
X31125Y-12050D01*
X31150Y-15750D02*
X31150Y-15400D01*
X29900Y-12050D02*
X29700Y-12250D01*
X30350Y-13975D02*
X29700Y-13325D01*
X30350Y-14875D02*
X30350Y-13975D01*
X30675Y-15200D02*
X30350Y-14875D01*
X30950Y-15200D02*
X30675Y-15200D01*
X31150Y-15400D02*
X30950Y-15200D01*
X30898Y-16002D02*
X31150Y-15750D01*
X30400Y-16002D02*
X30898Y-16002D01*
X31275Y-12700D02*
X31275Y-12200D01*
X29700Y-13325D02*
X29700Y-12250D01*
X24875Y-16550D02*
X23600Y-16550D01*
X23600Y-16550D02*
X23375Y-16550D01*
X23600Y-15400D02*
X23600Y-16550D01*
X23375Y-16550D02*
X23100Y-16825D01*
X25100Y-15400D02*
X25100Y-16325D01*
X19850Y-17000D02*
X20100Y-16750D01*
X23100Y-16825D02*
X21925Y-16825D01*
X21925Y-16825D02*
X21725Y-17025D01*
X21725Y-17025D02*
X21725Y-17375D01*
X21725Y-17375D02*
X20900Y-18200D01*
X20900Y-18200D02*
X20000Y-18200D01*
X20000Y-18200D02*
X19850Y-18050D01*
X19850Y-18050D02*
X19850Y-17000D01*
X25100Y-15400D02*
X25375Y-15400D01*
X25750Y-15025D02*
X25750Y-12350D01*
X25375Y-15400D02*
X25750Y-15025D01*
X22100Y-15400D02*
X22100Y-15876D01*
X28525Y-19975D02*
X24300Y-19975D01*
X24300Y-19975D02*
X23950Y-20325D01*
X33450Y-21100D02*
X32450Y-20100D01*
X31800Y-19975D02*
X28525Y-19975D01*
X31925Y-20100D02*
X31800Y-19975D01*
X32450Y-20100D02*
X31925Y-20100D01*
X37025Y-14700D02*
X36500Y-14700D01*
X36500Y-14700D02*
X36150Y-15050D01*
X36150Y-15050D02*
X34675Y-15050D01*
X34675Y-17300D02*
X34675Y-16150D01*
X25100Y-16325D02*
X24875Y-16550D01*
X34675Y-15050D02*
X34675Y-16100D01*
X34675Y-16100D02*
X34700Y-16125D01*
X23100Y-17300D02*
X23100Y-16825D01*
X35200Y-21100D02*
X33450Y-21100D01*
X28670Y-18670D02*
X28670Y-19230D01*
X28670Y-19230D02*
X28525Y-19375D01*
X28525Y-19375D02*
X28525Y-19975D01*
X23100Y-20325D02*
X23950Y-20325D01*
X22825Y-19700D02*
X22825Y-20050D01*
X22825Y-20050D02*
X23100Y-20325D01*
X22825Y-19700D02*
X21275Y-19700D01*
X20408Y-20567D02*
X19673Y-20567D01*
X21275Y-19700D02*
X20408Y-20567D01*
X27925Y-10975D02*
X27250Y-10975D01*
X27250Y-10975D02*
X26975Y-10700D01*
X26975Y-10700D02*
X26150Y-10700D01*
X26150Y-10700D02*
X25750Y-11100D01*
X25750Y-11100D02*
X25750Y-12350D01*
X25750Y-12350D02*
X26600Y-12350D01*
X29075Y-10975D02*
X27925Y-10975D01*
X28350Y-14250D02*
X28975Y-14250D01*
X28982Y-14257D02*
X28982Y-14904D01*
X28975Y-14250D02*
X28982Y-14257D01*
X28352Y-14252D02*
X28352Y-14904D01*
X28350Y-14250D02*
X28352Y-14252D01*
X11051Y-21315D02*
X18985Y-21315D01*
X19700Y-20600D02*
X19673Y-20567D01*
X18985Y-21315D02*
X19700Y-20600D01*
X11050Y-17700D02*
X11051Y-17700D01*
X11050Y-17500D02*
X11050Y-17700D01*
X15150Y-10700D02*
X15150Y-10685D01*
X15300Y-10700D02*
X15150Y-10700D01*
X11051Y-10685D02*
X15150Y-10685D01*
X15150Y-10685D02*
X19635Y-10685D01*
X19650Y-10700D02*
X19634Y-10685D01*
X19635Y-10685D02*
X19650Y-10700D01*
X11050Y-21300D02*
X11051Y-21315D01*
X19850Y-13800D02*
X20550Y-13800D01*
X20550Y-13800D02*
X20500Y-13775D01*
X19850Y-16500D02*
X19850Y-13800D01*
X19850Y-16500D02*
X20100Y-16750D01*
X19850Y-13800D02*
X19850Y-10700D01*
X19850Y-10700D02*
X19634Y-10685D01*
X28650Y-18700D02*
X28670Y-18670D01*
X20500Y-16750D02*
X20500Y-16728D01*
X21226Y-16750D02*
X20500Y-16750D01*
X22100Y-15876D02*
X21226Y-16750D01*
X20100Y-16750D02*
X20450Y-16750D01*
X20450Y-16750D02*
X20500Y-16728D01*
X11051Y-10685D02*
X11051Y-17700D01*
X11051Y-17700D02*
X11051Y-21299D01*
X11051Y-21299D02*
X11050Y-21300D01*
X28982Y-14904D02*
X28982Y-17368D01*
X28650Y-17700D02*
X28650Y-18700D01*
X28982Y-17368D02*
X28650Y-17700D01*
X34675Y-16150D02*
X34700Y-16125D01*
X31125Y-14375D02*
X32100Y-15350D01*
X31125Y-13475D02*
X31125Y-14375D01*
X30275Y-12700D02*
X30275Y-13000D01*
X30875Y-13225D02*
X31125Y-13475D01*
X30500Y-13225D02*
X30875Y-13225D01*
X30275Y-13000D02*
X30500Y-13225D01*
X32100Y-15350D02*
X32100Y-15875D01*
X27925Y-12725D02*
X27925Y-11725D01*
X29075Y-12725D02*
X29075Y-11725D01*
X27722Y-14904D02*
X27722Y-14375D01*
X27225Y-13875D02*
X27725Y-14375D01*
X27225Y-11975D02*
X26600Y-11350D01*
X27225Y-11975D02*
X27225Y-13875D01*
X27725Y-14375D02*
X27722Y-14375D01*
X26600Y-13350D02*
X26600Y-14097D01*
X26600Y-14097D02*
X27407Y-14904D01*
X24100Y-17300D02*
X24100Y-18500D01*
X24600Y-17300D02*
X24100Y-17300D01*
X25100Y-17300D02*
X24600Y-17300D01*
X37025Y-13925D02*
X34800Y-13925D01*
X34800Y-13925D02*
X34675Y-14050D01*
X33950Y-14050D02*
X34675Y-14050D01*
X33900Y-14000D02*
X33950Y-14050D01*
X32075Y-14025D02*
X32075Y-14000D01*
X32075Y-14000D02*
X33900Y-14000D01*
X24000Y-14275D02*
X24000Y-13750D01*
X24000Y-14275D02*
X23025Y-14275D01*
X23025Y-14275D02*
X23025Y-13775D01*
X21350Y-15750D02*
X21800Y-15300D01*
X21800Y-15300D02*
X21800Y-13825D01*
X21350Y-16050D02*
X21350Y-15750D01*
X23025Y-13775D02*
X22925Y-13675D01*
X22925Y-13675D02*
X21950Y-13675D01*
X21950Y-13675D02*
X21800Y-13825D01*
X20500Y-15744D02*
X21344Y-15744D01*
X21344Y-15744D02*
X21350Y-16050D01*
X23400Y-18500D02*
X23575Y-18450D01*
X24100Y-18500D02*
X23400Y-18500D01*
M02*
