G04 (created by PCBNEW-RS274X (2011-03-30 BZR 2932)-stable) date 07/08/11 12:40:37*
G01*
G70*
G90*
%MOIN*%
G04 Gerber Fmt 3.4, Leading zero omitted, Abs format*
%FSLAX34Y34*%
G04 APERTURE LIST*
%ADD10C,0.006000*%
%ADD11C,0.005000*%
%ADD12C,0.010000*%
%ADD13C,0.180000*%
%ADD14C,0.040000*%
%ADD15R,0.080000X0.040000*%
%ADD16R,0.040000X0.080000*%
%ADD17C,0.063000*%
%ADD18C,0.043300*%
%ADD19R,0.080000X0.080000*%
%ADD20C,0.080000*%
%ADD21R,0.070000X0.070000*%
%ADD22C,0.070000*%
%ADD23R,0.090000X0.060000*%
%ADD24O,0.090000X0.060000*%
%ADD25C,0.035000*%
%ADD26C,0.008000*%
G04 APERTURE END LIST*
G54D10*
G54D11*
X10650Y-10937D02*
X10627Y-10949D01*
X10591Y-10949D01*
X10555Y-10937D01*
X10531Y-10913D01*
X10520Y-10889D01*
X10508Y-10842D01*
X10508Y-10806D01*
X10520Y-10758D01*
X10531Y-10735D01*
X10555Y-10711D01*
X10591Y-10699D01*
X10615Y-10699D01*
X10650Y-10711D01*
X10662Y-10723D01*
X10662Y-10806D01*
X10615Y-10806D01*
X10770Y-10699D02*
X10770Y-10949D01*
X10912Y-10699D01*
X10912Y-10949D01*
X11032Y-10699D02*
X11032Y-10949D01*
X11091Y-10949D01*
X11127Y-10937D01*
X11151Y-10913D01*
X11162Y-10889D01*
X11174Y-10842D01*
X11174Y-10806D01*
X11162Y-10758D01*
X11151Y-10735D01*
X11127Y-10711D01*
X11091Y-10699D01*
X11032Y-10699D01*
X11341Y-10615D02*
X11341Y-10973D01*
X11520Y-10794D02*
X11710Y-10794D01*
X11615Y-10699D02*
X11615Y-10889D01*
X11949Y-10949D02*
X11830Y-10949D01*
X11818Y-10830D01*
X11830Y-10842D01*
X11853Y-10854D01*
X11913Y-10854D01*
X11937Y-10842D01*
X11949Y-10830D01*
X11960Y-10806D01*
X11960Y-10746D01*
X11949Y-10723D01*
X11937Y-10711D01*
X11913Y-10699D01*
X11853Y-10699D01*
X11830Y-10711D01*
X11818Y-10723D01*
X12032Y-10949D02*
X12115Y-10699D01*
X12198Y-10949D01*
X12341Y-10615D02*
X12341Y-10973D01*
X12508Y-10711D02*
X12543Y-10699D01*
X12603Y-10699D01*
X12627Y-10711D01*
X12639Y-10723D01*
X12650Y-10746D01*
X12650Y-10770D01*
X12639Y-10794D01*
X12627Y-10806D01*
X12603Y-10818D01*
X12555Y-10830D01*
X12531Y-10842D01*
X12520Y-10854D01*
X12508Y-10877D01*
X12508Y-10901D01*
X12520Y-10925D01*
X12531Y-10937D01*
X12555Y-10949D01*
X12615Y-10949D01*
X12650Y-10937D01*
X12900Y-10723D02*
X12888Y-10711D01*
X12853Y-10699D01*
X12829Y-10699D01*
X12793Y-10711D01*
X12769Y-10735D01*
X12758Y-10758D01*
X12746Y-10806D01*
X12746Y-10842D01*
X12758Y-10889D01*
X12769Y-10913D01*
X12793Y-10937D01*
X12829Y-10949D01*
X12853Y-10949D01*
X12888Y-10937D01*
X12900Y-10925D01*
X13127Y-10699D02*
X13008Y-10699D01*
X13008Y-10949D01*
X13269Y-10615D02*
X13269Y-10973D01*
X13436Y-10711D02*
X13471Y-10699D01*
X13531Y-10699D01*
X13555Y-10711D01*
X13567Y-10723D01*
X13578Y-10746D01*
X13578Y-10770D01*
X13567Y-10794D01*
X13555Y-10806D01*
X13531Y-10818D01*
X13483Y-10830D01*
X13459Y-10842D01*
X13448Y-10854D01*
X13436Y-10877D01*
X13436Y-10901D01*
X13448Y-10925D01*
X13459Y-10937D01*
X13483Y-10949D01*
X13543Y-10949D01*
X13578Y-10937D01*
X13686Y-10699D02*
X13686Y-10949D01*
X13745Y-10949D01*
X13781Y-10937D01*
X13805Y-10913D01*
X13816Y-10889D01*
X13828Y-10842D01*
X13828Y-10806D01*
X13816Y-10758D01*
X13805Y-10735D01*
X13781Y-10711D01*
X13745Y-10699D01*
X13686Y-10699D01*
X13924Y-10770D02*
X14043Y-10770D01*
X13900Y-10699D02*
X13983Y-10949D01*
X14066Y-10699D01*
X10612Y-17625D02*
X10624Y-17648D01*
X10624Y-17684D01*
X10612Y-17720D01*
X10588Y-17744D01*
X10564Y-17755D01*
X10517Y-17767D01*
X10481Y-17767D01*
X10433Y-17755D01*
X10410Y-17744D01*
X10386Y-17720D01*
X10374Y-17684D01*
X10374Y-17660D01*
X10386Y-17625D01*
X10398Y-17613D01*
X10481Y-17613D01*
X10481Y-17660D01*
X10374Y-17505D02*
X10624Y-17505D01*
X10374Y-17363D01*
X10624Y-17363D01*
X10374Y-17243D02*
X10624Y-17243D01*
X10624Y-17184D01*
X10612Y-17148D01*
X10588Y-17124D01*
X10564Y-17113D01*
X10517Y-17101D01*
X10481Y-17101D01*
X10433Y-17113D01*
X10410Y-17124D01*
X10386Y-17148D01*
X10374Y-17184D01*
X10374Y-17243D01*
X10290Y-16934D02*
X10648Y-16934D01*
X10469Y-16755D02*
X10469Y-16565D01*
X10374Y-16660D02*
X10564Y-16660D01*
X10624Y-16326D02*
X10624Y-16445D01*
X10505Y-16457D01*
X10517Y-16445D01*
X10529Y-16422D01*
X10529Y-16362D01*
X10517Y-16338D01*
X10505Y-16326D01*
X10481Y-16315D01*
X10421Y-16315D01*
X10398Y-16326D01*
X10386Y-16338D01*
X10374Y-16362D01*
X10374Y-16422D01*
X10386Y-16445D01*
X10398Y-16457D01*
X10624Y-16243D02*
X10374Y-16160D01*
X10624Y-16077D01*
X10290Y-15934D02*
X10648Y-15934D01*
X10386Y-15767D02*
X10374Y-15732D01*
X10374Y-15672D01*
X10386Y-15648D01*
X10398Y-15636D01*
X10421Y-15625D01*
X10445Y-15625D01*
X10469Y-15636D01*
X10481Y-15648D01*
X10493Y-15672D01*
X10505Y-15720D01*
X10517Y-15744D01*
X10529Y-15755D01*
X10552Y-15767D01*
X10576Y-15767D01*
X10600Y-15755D01*
X10612Y-15744D01*
X10624Y-15720D01*
X10624Y-15660D01*
X10612Y-15625D01*
X10398Y-15375D02*
X10386Y-15387D01*
X10374Y-15422D01*
X10374Y-15446D01*
X10386Y-15482D01*
X10410Y-15506D01*
X10433Y-15517D01*
X10481Y-15529D01*
X10517Y-15529D01*
X10564Y-15517D01*
X10588Y-15506D01*
X10612Y-15482D01*
X10624Y-15446D01*
X10624Y-15422D01*
X10612Y-15387D01*
X10600Y-15375D01*
X10374Y-15148D02*
X10374Y-15267D01*
X10624Y-15267D01*
X10290Y-15006D02*
X10648Y-15006D01*
X10386Y-14839D02*
X10374Y-14804D01*
X10374Y-14744D01*
X10386Y-14720D01*
X10398Y-14708D01*
X10421Y-14697D01*
X10445Y-14697D01*
X10469Y-14708D01*
X10481Y-14720D01*
X10493Y-14744D01*
X10505Y-14792D01*
X10517Y-14816D01*
X10529Y-14827D01*
X10552Y-14839D01*
X10576Y-14839D01*
X10600Y-14827D01*
X10612Y-14816D01*
X10624Y-14792D01*
X10624Y-14732D01*
X10612Y-14697D01*
X10374Y-14589D02*
X10624Y-14589D01*
X10624Y-14530D01*
X10612Y-14494D01*
X10588Y-14470D01*
X10564Y-14459D01*
X10517Y-14447D01*
X10481Y-14447D01*
X10433Y-14459D01*
X10410Y-14470D01*
X10386Y-14494D01*
X10374Y-14530D01*
X10374Y-14589D01*
X10445Y-14351D02*
X10445Y-14232D01*
X10374Y-14375D02*
X10624Y-14292D01*
X10374Y-14209D01*
G54D12*
X10000Y-10000D02*
X40000Y-10000D01*
G54D11*
X19676Y-17666D02*
X19657Y-17685D01*
X19638Y-17742D01*
X19638Y-17780D01*
X19657Y-17838D01*
X19695Y-17876D01*
X19733Y-17895D01*
X19810Y-17914D01*
X19867Y-17914D01*
X19943Y-17895D01*
X19981Y-17876D01*
X20019Y-17838D01*
X20038Y-17780D01*
X20038Y-17742D01*
X20019Y-17685D01*
X20000Y-17666D01*
X20038Y-17533D02*
X20038Y-17285D01*
X19886Y-17419D01*
X19886Y-17361D01*
X19867Y-17323D01*
X19848Y-17304D01*
X19810Y-17285D01*
X19714Y-17285D01*
X19676Y-17304D01*
X19657Y-17323D01*
X19638Y-17361D01*
X19638Y-17476D01*
X19657Y-17514D01*
X19676Y-17533D01*
X14276Y-21318D02*
X14257Y-21337D01*
X14238Y-21394D01*
X14238Y-21432D01*
X14257Y-21490D01*
X14295Y-21528D01*
X14333Y-21547D01*
X14410Y-21566D01*
X14467Y-21566D01*
X14543Y-21547D01*
X14581Y-21528D01*
X14619Y-21490D01*
X14638Y-21432D01*
X14638Y-21394D01*
X14619Y-21337D01*
X14600Y-21318D01*
X14638Y-21185D02*
X14638Y-20937D01*
X14486Y-21071D01*
X14486Y-21013D01*
X14467Y-20975D01*
X14448Y-20956D01*
X14410Y-20937D01*
X14314Y-20937D01*
X14276Y-20956D01*
X14257Y-20975D01*
X14238Y-21013D01*
X14238Y-21128D01*
X14257Y-21166D01*
X14276Y-21185D01*
X14638Y-20651D02*
X14352Y-20651D01*
X14295Y-20671D01*
X14257Y-20709D01*
X14238Y-20766D01*
X14238Y-20804D01*
X14238Y-20461D02*
X14505Y-20461D01*
X14429Y-20461D02*
X14467Y-20442D01*
X14486Y-20423D01*
X14505Y-20385D01*
X14505Y-20346D01*
X14526Y-17666D02*
X14507Y-17685D01*
X14488Y-17742D01*
X14488Y-17780D01*
X14507Y-17838D01*
X14545Y-17876D01*
X14583Y-17895D01*
X14660Y-17914D01*
X14717Y-17914D01*
X14793Y-17895D01*
X14831Y-17876D01*
X14869Y-17838D01*
X14888Y-17780D01*
X14888Y-17742D01*
X14869Y-17685D01*
X14850Y-17666D01*
X14888Y-17533D02*
X14888Y-17285D01*
X14736Y-17419D01*
X14736Y-17361D01*
X14717Y-17323D01*
X14698Y-17304D01*
X14660Y-17285D01*
X14564Y-17285D01*
X14526Y-17304D01*
X14507Y-17323D01*
X14488Y-17361D01*
X14488Y-17476D01*
X14507Y-17514D01*
X14526Y-17533D01*
X14276Y-12393D02*
X14257Y-12412D01*
X14238Y-12469D01*
X14238Y-12507D01*
X14257Y-12565D01*
X14295Y-12603D01*
X14333Y-12622D01*
X14410Y-12641D01*
X14467Y-12641D01*
X14543Y-12622D01*
X14581Y-12603D01*
X14619Y-12565D01*
X14638Y-12507D01*
X14638Y-12469D01*
X14619Y-12412D01*
X14600Y-12393D01*
X14638Y-12260D02*
X14638Y-12012D01*
X14486Y-12146D01*
X14486Y-12088D01*
X14467Y-12050D01*
X14448Y-12031D01*
X14410Y-12012D01*
X14314Y-12012D01*
X14276Y-12031D01*
X14257Y-12050D01*
X14238Y-12088D01*
X14238Y-12203D01*
X14257Y-12241D01*
X14276Y-12260D01*
X14638Y-11726D02*
X14352Y-11726D01*
X14295Y-11746D01*
X14257Y-11784D01*
X14238Y-11841D01*
X14238Y-11879D01*
X14238Y-11536D02*
X14505Y-11536D01*
X14429Y-11536D02*
X14467Y-11517D01*
X14486Y-11498D01*
X14505Y-11460D01*
X14505Y-11421D01*
X19076Y-17666D02*
X19057Y-17685D01*
X19038Y-17742D01*
X19038Y-17780D01*
X19057Y-17838D01*
X19095Y-17876D01*
X19133Y-17895D01*
X19210Y-17914D01*
X19267Y-17914D01*
X19343Y-17895D01*
X19381Y-17876D01*
X19419Y-17838D01*
X19438Y-17780D01*
X19438Y-17742D01*
X19419Y-17685D01*
X19400Y-17666D01*
X19038Y-17495D02*
X19438Y-17495D01*
X19438Y-17400D01*
X19419Y-17342D01*
X19381Y-17304D01*
X19343Y-17285D01*
X19267Y-17266D01*
X19210Y-17266D01*
X19133Y-17285D01*
X19095Y-17304D01*
X19057Y-17342D01*
X19038Y-17400D01*
X19038Y-17495D01*
X19038Y-16885D02*
X19038Y-17114D01*
X19038Y-17000D02*
X19438Y-17000D01*
X19381Y-17038D01*
X19343Y-17076D01*
X19324Y-17114D01*
X13801Y-17666D02*
X13782Y-17685D01*
X13763Y-17742D01*
X13763Y-17780D01*
X13782Y-17838D01*
X13820Y-17876D01*
X13858Y-17895D01*
X13935Y-17914D01*
X13992Y-17914D01*
X14068Y-17895D01*
X14106Y-17876D01*
X14144Y-17838D01*
X14163Y-17780D01*
X14163Y-17742D01*
X14144Y-17685D01*
X14125Y-17666D01*
X13763Y-17495D02*
X14163Y-17495D01*
X14163Y-17400D01*
X14144Y-17342D01*
X14106Y-17304D01*
X14068Y-17285D01*
X13992Y-17266D01*
X13935Y-17266D01*
X13858Y-17285D01*
X13820Y-17304D01*
X13782Y-17342D01*
X13763Y-17400D01*
X13763Y-17495D01*
X14125Y-17114D02*
X14144Y-17095D01*
X14163Y-17057D01*
X14163Y-16961D01*
X14144Y-16923D01*
X14125Y-16904D01*
X14087Y-16885D01*
X14049Y-16885D01*
X13992Y-16904D01*
X13763Y-17133D01*
X13763Y-16885D01*
X13601Y-12391D02*
X13582Y-12410D01*
X13563Y-12467D01*
X13563Y-12505D01*
X13582Y-12563D01*
X13620Y-12601D01*
X13658Y-12620D01*
X13735Y-12639D01*
X13792Y-12639D01*
X13868Y-12620D01*
X13906Y-12601D01*
X13944Y-12563D01*
X13963Y-12505D01*
X13963Y-12467D01*
X13944Y-12410D01*
X13925Y-12391D01*
X13563Y-12220D02*
X13963Y-12220D01*
X13963Y-12125D01*
X13944Y-12067D01*
X13906Y-12029D01*
X13868Y-12010D01*
X13792Y-11991D01*
X13735Y-11991D01*
X13658Y-12010D01*
X13620Y-12029D01*
X13582Y-12067D01*
X13563Y-12125D01*
X13563Y-12220D01*
X13925Y-11839D02*
X13944Y-11820D01*
X13963Y-11782D01*
X13963Y-11686D01*
X13944Y-11648D01*
X13925Y-11629D01*
X13887Y-11610D01*
X13849Y-11610D01*
X13792Y-11629D01*
X13563Y-11858D01*
X13563Y-11610D01*
X13601Y-21316D02*
X13582Y-21335D01*
X13563Y-21392D01*
X13563Y-21430D01*
X13582Y-21488D01*
X13620Y-21526D01*
X13658Y-21545D01*
X13735Y-21564D01*
X13792Y-21564D01*
X13868Y-21545D01*
X13906Y-21526D01*
X13944Y-21488D01*
X13963Y-21430D01*
X13963Y-21392D01*
X13944Y-21335D01*
X13925Y-21316D01*
X13563Y-21145D02*
X13963Y-21145D01*
X13963Y-21050D01*
X13944Y-20992D01*
X13906Y-20954D01*
X13868Y-20935D01*
X13792Y-20916D01*
X13735Y-20916D01*
X13658Y-20935D01*
X13620Y-20954D01*
X13582Y-20992D01*
X13563Y-21050D01*
X13563Y-21145D01*
X13563Y-20535D02*
X13563Y-20764D01*
X13563Y-20650D02*
X13963Y-20650D01*
X13906Y-20688D01*
X13868Y-20726D01*
X13849Y-20764D01*
X17814Y-18250D02*
X17795Y-18231D01*
X17757Y-18212D01*
X17661Y-18212D01*
X17623Y-18231D01*
X17604Y-18250D01*
X17585Y-18288D01*
X17585Y-18326D01*
X17604Y-18383D01*
X17833Y-18612D01*
X17585Y-18612D01*
X17941Y-18862D02*
X17941Y-18595D01*
X17941Y-18462D02*
X17960Y-18481D01*
X17941Y-18500D01*
X17922Y-18481D01*
X17941Y-18462D01*
X17941Y-18500D01*
X17274Y-18843D02*
X17312Y-18862D01*
X17389Y-18862D01*
X17427Y-18843D01*
X17446Y-18824D01*
X17465Y-18786D01*
X17465Y-18671D01*
X17446Y-18633D01*
X17427Y-18614D01*
X17389Y-18595D01*
X17312Y-18595D01*
X17274Y-18614D01*
X16664Y-18652D02*
X16607Y-18671D01*
X16588Y-18690D01*
X16569Y-18729D01*
X16569Y-18786D01*
X16588Y-18824D01*
X16607Y-18843D01*
X16645Y-18862D01*
X16798Y-18862D01*
X16798Y-18462D01*
X16664Y-18462D01*
X16626Y-18481D01*
X16607Y-18500D01*
X16588Y-18538D01*
X16588Y-18576D01*
X16607Y-18614D01*
X16626Y-18633D01*
X16664Y-18652D01*
X16798Y-18652D01*
X16226Y-18595D02*
X16226Y-18862D01*
X16398Y-18595D02*
X16398Y-18805D01*
X16379Y-18843D01*
X16341Y-18862D01*
X16283Y-18862D01*
X16245Y-18843D01*
X16226Y-18824D01*
X16055Y-18843D02*
X16017Y-18862D01*
X15941Y-18862D01*
X15902Y-18843D01*
X15883Y-18805D01*
X15883Y-18786D01*
X15902Y-18748D01*
X15941Y-18729D01*
X15998Y-18729D01*
X16036Y-18710D01*
X16055Y-18671D01*
X16055Y-18652D01*
X16036Y-18614D01*
X15998Y-18595D01*
X15941Y-18595D01*
X15902Y-18614D01*
X15102Y-18595D02*
X15407Y-18710D01*
X15102Y-18824D01*
X14912Y-18710D02*
X14607Y-18710D01*
X14417Y-18595D02*
X14112Y-18710D01*
X14417Y-18824D01*
X13636Y-18843D02*
X13579Y-18862D01*
X13483Y-18862D01*
X13445Y-18843D01*
X13426Y-18824D01*
X13407Y-18786D01*
X13407Y-18748D01*
X13426Y-18710D01*
X13445Y-18690D01*
X13483Y-18671D01*
X13560Y-18652D01*
X13598Y-18633D01*
X13617Y-18614D01*
X13636Y-18576D01*
X13636Y-18538D01*
X13617Y-18500D01*
X13598Y-18481D01*
X13560Y-18462D01*
X13464Y-18462D01*
X13407Y-18481D01*
X13236Y-18862D02*
X13236Y-18462D01*
X13141Y-18462D01*
X13083Y-18481D01*
X13045Y-18519D01*
X13026Y-18557D01*
X13007Y-18633D01*
X13007Y-18690D01*
X13026Y-18767D01*
X13045Y-18805D01*
X13083Y-18843D01*
X13141Y-18862D01*
X13236Y-18862D01*
X12836Y-18710D02*
X12531Y-18710D01*
X12112Y-18824D02*
X12131Y-18843D01*
X12188Y-18862D01*
X12226Y-18862D01*
X12284Y-18843D01*
X12322Y-18805D01*
X12341Y-18767D01*
X12360Y-18690D01*
X12360Y-18633D01*
X12341Y-18557D01*
X12322Y-18519D01*
X12284Y-18481D01*
X12226Y-18462D01*
X12188Y-18462D01*
X12131Y-18481D01*
X12112Y-18500D01*
X11769Y-18862D02*
X11769Y-18652D01*
X11788Y-18614D01*
X11826Y-18595D01*
X11903Y-18595D01*
X11941Y-18614D01*
X11769Y-18843D02*
X11807Y-18862D01*
X11903Y-18862D01*
X11941Y-18843D01*
X11960Y-18805D01*
X11960Y-18767D01*
X11941Y-18729D01*
X11903Y-18710D01*
X11807Y-18710D01*
X11769Y-18690D01*
X11579Y-18862D02*
X11579Y-18595D01*
X11579Y-18671D02*
X11560Y-18633D01*
X11541Y-18614D01*
X11503Y-18595D01*
X11464Y-18595D01*
X11159Y-18862D02*
X11159Y-18462D01*
X11159Y-18843D02*
X11197Y-18862D01*
X11274Y-18862D01*
X11312Y-18843D01*
X11331Y-18824D01*
X11350Y-18786D01*
X11350Y-18671D01*
X11331Y-18633D01*
X11312Y-18614D01*
X11274Y-18595D01*
X11197Y-18595D01*
X11159Y-18614D01*
X14602Y-19445D02*
X14526Y-19712D01*
X14449Y-19521D01*
X14373Y-19712D01*
X14297Y-19445D01*
X14183Y-19445D02*
X14088Y-19712D01*
X13992Y-19445D02*
X14088Y-19712D01*
X14126Y-19807D01*
X14145Y-19826D01*
X14183Y-19845D01*
X13783Y-19712D02*
X13821Y-19693D01*
X13840Y-19674D01*
X13859Y-19636D01*
X13859Y-19521D01*
X13840Y-19483D01*
X13821Y-19464D01*
X13783Y-19445D01*
X13725Y-19445D01*
X13687Y-19464D01*
X13668Y-19483D01*
X13649Y-19521D01*
X13649Y-19636D01*
X13668Y-19674D01*
X13687Y-19693D01*
X13725Y-19712D01*
X13783Y-19712D01*
X13421Y-19712D02*
X13459Y-19693D01*
X13478Y-19655D01*
X13478Y-19312D01*
X13096Y-19445D02*
X13096Y-19712D01*
X13268Y-19445D02*
X13268Y-19655D01*
X13249Y-19693D01*
X13211Y-19712D01*
X13153Y-19712D01*
X13115Y-19693D01*
X13096Y-19674D01*
X12906Y-19712D02*
X12906Y-19445D01*
X12906Y-19483D02*
X12887Y-19464D01*
X12849Y-19445D01*
X12791Y-19445D01*
X12753Y-19464D01*
X12734Y-19502D01*
X12734Y-19712D01*
X12734Y-19502D02*
X12715Y-19464D01*
X12677Y-19445D01*
X12620Y-19445D01*
X12582Y-19464D01*
X12563Y-19502D01*
X12563Y-19712D01*
X12373Y-19674D02*
X12354Y-19693D01*
X12373Y-19712D01*
X12392Y-19693D01*
X12373Y-19674D01*
X12373Y-19712D01*
X12011Y-19693D02*
X12049Y-19712D01*
X12126Y-19712D01*
X12164Y-19693D01*
X12183Y-19674D01*
X12202Y-19636D01*
X12202Y-19521D01*
X12183Y-19483D01*
X12164Y-19464D01*
X12126Y-19445D01*
X12049Y-19445D01*
X12011Y-19464D01*
X11783Y-19712D02*
X11821Y-19693D01*
X11840Y-19674D01*
X11859Y-19636D01*
X11859Y-19521D01*
X11840Y-19483D01*
X11821Y-19464D01*
X11783Y-19445D01*
X11725Y-19445D01*
X11687Y-19464D01*
X11668Y-19483D01*
X11649Y-19521D01*
X11649Y-19636D01*
X11668Y-19674D01*
X11687Y-19693D01*
X11725Y-19712D01*
X11783Y-19712D01*
X11478Y-19712D02*
X11478Y-19445D01*
X11478Y-19483D02*
X11459Y-19464D01*
X11421Y-19445D01*
X11363Y-19445D01*
X11325Y-19464D01*
X11306Y-19502D01*
X11306Y-19712D01*
X11306Y-19502D02*
X11287Y-19464D01*
X11249Y-19445D01*
X11192Y-19445D01*
X11154Y-19464D01*
X11135Y-19502D01*
X11135Y-19712D01*
G54D12*
X40000Y-22000D02*
X10000Y-22000D01*
X40000Y-10000D02*
X40000Y-22000D01*
X10000Y-22000D02*
X10000Y-10000D01*
G54D13*
X21800Y-11000D03*
X21800Y-21000D03*
G54D14*
X29550Y-17200D03*
X29400Y-17800D03*
X30200Y-19500D03*
X29600Y-19500D03*
X29450Y-15700D03*
X28050Y-19500D03*
X25800Y-16950D03*
X27650Y-16200D03*
X25800Y-16350D03*
X25800Y-15750D03*
X26600Y-15200D03*
X29000Y-19500D03*
G54D15*
X20650Y-14500D03*
X21950Y-15500D03*
X20600Y-16500D03*
X21950Y-17500D03*
G54D16*
X18300Y-10850D03*
X17300Y-12150D03*
X16300Y-10800D03*
X15300Y-12150D03*
G54D15*
X11650Y-14500D03*
X12950Y-15500D03*
X11600Y-16500D03*
X12950Y-17500D03*
G54D16*
X18300Y-19850D03*
X17300Y-21150D03*
X16300Y-19800D03*
X15300Y-21150D03*
G54D17*
X19398Y-19701D03*
G54D18*
X19398Y-11472D03*
G54D19*
X35275Y-12700D03*
G54D20*
X34275Y-12700D03*
X33275Y-12700D03*
X32275Y-12700D03*
X31275Y-12700D03*
X30275Y-12700D03*
G54D21*
X37200Y-15825D03*
G54D22*
X38200Y-15825D03*
X37200Y-16825D03*
X38200Y-16825D03*
X37200Y-17825D03*
X38200Y-17825D03*
X26600Y-11350D03*
X26600Y-13350D03*
X26600Y-12350D03*
G54D23*
X34675Y-14050D03*
G54D24*
X34675Y-15050D03*
G54D23*
X34675Y-18300D03*
G54D24*
X34675Y-17300D03*
G54D21*
X38200Y-10650D03*
G54D22*
X38200Y-11650D03*
X38200Y-12650D03*
X38200Y-13650D03*
G54D21*
X38200Y-21100D03*
G54D22*
X37200Y-21100D03*
X36200Y-21100D03*
X35200Y-21100D03*
G54D21*
X23775Y-21100D03*
G54D22*
X24775Y-21100D03*
X25775Y-21100D03*
X26775Y-21100D03*
G54D21*
X27775Y-21100D03*
G54D22*
X28775Y-21100D03*
X29775Y-21100D03*
X30775Y-21100D03*
G54D21*
X33450Y-21100D03*
G54D22*
X32450Y-21100D03*
G54D25*
X36675Y-13100D03*
X28350Y-16075D03*
X32525Y-14425D03*
X16300Y-15000D03*
X16300Y-16500D03*
X16300Y-13850D03*
X33350Y-18500D03*
X33350Y-17250D03*
X21300Y-13600D03*
X25850Y-17900D03*
X23100Y-15950D03*
X27350Y-17575D03*
X32675Y-16250D03*
X35525Y-18175D03*
X30700Y-13650D03*
X24450Y-15950D03*
X36025Y-17750D03*
X27875Y-17175D03*
X31750Y-18075D03*
X33825Y-11050D03*
X17300Y-15500D03*
X17300Y-13850D03*
X31750Y-17250D03*
X18300Y-13950D03*
X18325Y-16100D03*
X33425Y-19675D03*
X21450Y-14750D03*
X24100Y-14850D03*
X11050Y-17500D03*
X15300Y-10700D03*
X24000Y-13750D03*
X32075Y-14025D03*
X21350Y-16050D03*
X24100Y-18500D03*
G54D26*
X25425Y-10250D02*
X36275Y-10250D01*
X36275Y-10250D02*
X36675Y-10650D01*
X36675Y-13100D02*
X36675Y-10650D01*
X36675Y-10650D02*
X38200Y-10650D01*
X32525Y-14425D02*
X32525Y-14750D01*
X32525Y-14750D02*
X32300Y-14975D01*
X32300Y-14975D02*
X28650Y-14975D01*
X28650Y-14975D02*
X28350Y-15275D01*
X28350Y-15275D02*
X28350Y-16075D01*
X19000Y-14050D02*
X18050Y-15000D01*
X18050Y-15000D02*
X16300Y-15000D01*
X19000Y-13200D02*
X19000Y-14050D01*
X19500Y-12700D02*
X19000Y-13200D01*
X22975Y-12700D02*
X19500Y-12700D01*
X25425Y-10250D02*
X22975Y-12700D01*
X11600Y-16500D02*
X16300Y-16500D01*
X16300Y-13850D02*
X16300Y-10800D01*
X21300Y-13600D02*
X21300Y-13875D01*
X21750Y-14325D02*
X24400Y-14325D01*
X21300Y-13875D02*
X21750Y-14325D01*
X31450Y-18500D02*
X31050Y-18100D01*
X33350Y-18500D02*
X31450Y-18500D01*
X30525Y-16650D02*
X31050Y-17175D01*
X31050Y-17175D02*
X31050Y-18100D01*
X26750Y-16650D02*
X25850Y-17550D01*
X33350Y-16450D02*
X33350Y-17250D01*
X33975Y-15825D02*
X33350Y-16450D01*
X25850Y-17900D02*
X25850Y-17550D01*
X25850Y-17550D02*
X25650Y-17350D01*
X25650Y-17350D02*
X25200Y-17350D01*
X24900Y-17050D02*
X24900Y-14825D01*
X25200Y-17350D02*
X24900Y-17050D01*
X24900Y-14825D02*
X24400Y-14325D01*
X26750Y-16650D02*
X30525Y-16650D01*
X37200Y-15825D02*
X33975Y-15825D01*
X27350Y-18825D02*
X25250Y-18825D01*
X23100Y-15950D02*
X23575Y-15950D01*
X23875Y-17750D02*
X24125Y-18000D01*
X23875Y-16250D02*
X23875Y-17750D01*
X23575Y-15950D02*
X23875Y-16250D01*
X24425Y-18000D02*
X24125Y-18000D01*
X25250Y-18825D02*
X24425Y-18000D01*
X30300Y-18825D02*
X27350Y-18825D01*
X30300Y-18825D02*
X30700Y-19225D01*
X30700Y-19225D02*
X33575Y-19225D01*
X33575Y-19225D02*
X34000Y-19650D01*
X34000Y-19650D02*
X38575Y-19650D01*
X38575Y-19650D02*
X39150Y-19075D01*
X39150Y-19075D02*
X39150Y-17200D01*
X39150Y-17200D02*
X38775Y-16825D01*
X38200Y-16825D02*
X38775Y-16825D01*
X27350Y-17575D02*
X27350Y-18825D01*
X33850Y-17975D02*
X33850Y-18650D01*
X33600Y-17725D02*
X33850Y-17975D01*
X35525Y-18175D02*
X35525Y-18725D01*
X35325Y-18925D02*
X34125Y-18925D01*
X32675Y-17300D02*
X33100Y-17725D01*
X33850Y-18650D02*
X34125Y-18925D01*
X32675Y-16250D02*
X32675Y-17300D01*
X35525Y-18725D02*
X35325Y-18925D01*
X33100Y-17725D02*
X33600Y-17725D01*
X32275Y-12700D02*
X32275Y-12725D01*
X32275Y-12725D02*
X31350Y-13650D01*
X30700Y-13650D02*
X31350Y-13650D01*
X27875Y-17175D02*
X27750Y-17050D01*
X27200Y-17050D02*
X27000Y-17250D01*
X27750Y-17050D02*
X27200Y-17050D01*
X27000Y-17250D02*
X26450Y-17800D01*
X24450Y-17300D02*
X24450Y-15950D01*
X25550Y-18400D02*
X24450Y-17300D01*
X26100Y-18400D02*
X25550Y-18400D01*
X26450Y-18050D02*
X26100Y-18400D01*
X26450Y-17800D02*
X26450Y-18050D01*
X28200Y-17175D02*
X27875Y-17175D01*
X36025Y-19025D02*
X36025Y-17750D01*
X35750Y-19300D02*
X36025Y-19025D01*
X34075Y-19300D02*
X35750Y-19300D01*
X33675Y-18900D02*
X34075Y-19300D01*
X31125Y-18900D02*
X33675Y-18900D01*
X30625Y-18400D02*
X31125Y-18900D01*
X29175Y-18400D02*
X30625Y-18400D01*
X28800Y-18025D02*
X29175Y-18400D01*
X28800Y-17775D02*
X28800Y-18025D01*
X28200Y-17175D02*
X28800Y-17775D01*
X31750Y-17250D02*
X31750Y-15575D01*
X32950Y-13850D02*
X32675Y-13575D01*
X32950Y-14850D02*
X32950Y-13850D01*
X32425Y-15375D02*
X32950Y-14850D01*
X31950Y-15375D02*
X32425Y-15375D01*
X31750Y-15575D02*
X31950Y-15375D01*
X31750Y-17250D02*
X31750Y-18075D01*
X32675Y-13575D02*
X31875Y-13575D01*
X29400Y-14250D02*
X31200Y-14250D01*
X31200Y-14250D02*
X31875Y-13575D01*
X25550Y-14250D02*
X29400Y-14250D01*
X33825Y-11050D02*
X29672Y-11050D01*
X29672Y-11050D02*
X29400Y-11322D01*
X18600Y-15500D02*
X17300Y-15500D01*
X25550Y-14250D02*
X24425Y-13125D01*
X24425Y-13125D02*
X19925Y-13125D01*
X19925Y-13125D02*
X19400Y-13650D01*
X19400Y-13650D02*
X19400Y-14700D01*
X19400Y-14700D02*
X18600Y-15500D01*
X12950Y-15500D02*
X17300Y-15500D01*
X17300Y-13850D02*
X17300Y-12150D01*
X29400Y-11322D02*
X29400Y-14250D01*
X18325Y-16100D02*
X18325Y-18300D01*
X23475Y-19975D02*
X26050Y-19975D01*
X22275Y-18775D02*
X23475Y-19975D01*
X18800Y-18775D02*
X22275Y-18775D01*
X18325Y-18300D02*
X18800Y-18775D01*
X33625Y-20050D02*
X33425Y-19850D01*
X35925Y-20050D02*
X33625Y-20050D01*
X36200Y-20325D02*
X35925Y-20050D01*
X33425Y-19675D02*
X31500Y-19675D01*
X31500Y-19675D02*
X31200Y-19975D01*
X31200Y-19975D02*
X26050Y-19975D01*
X33425Y-19850D02*
X33425Y-19675D01*
X18300Y-13950D02*
X18300Y-10850D01*
X11650Y-14500D02*
X17750Y-14500D01*
X17750Y-14500D02*
X18300Y-13950D01*
X36200Y-21100D02*
X36200Y-20325D01*
X21550Y-14850D02*
X21450Y-14750D01*
X24100Y-14850D02*
X21550Y-14850D01*
X36075Y-13650D02*
X36075Y-12900D01*
X35875Y-12700D02*
X35275Y-12700D01*
X36075Y-12900D02*
X35875Y-12700D01*
X34675Y-15050D02*
X35525Y-15050D01*
X36075Y-14500D02*
X36075Y-13650D01*
X35525Y-15050D02*
X36075Y-14500D01*
X34675Y-17300D02*
X36350Y-17300D01*
X37975Y-18450D02*
X38200Y-18225D01*
X36800Y-18450D02*
X37975Y-18450D01*
X36550Y-18200D02*
X36800Y-18450D01*
X36550Y-17500D02*
X36550Y-18200D01*
X36350Y-17300D02*
X36550Y-17500D01*
X38200Y-17825D02*
X38200Y-18225D01*
X35275Y-12700D02*
X35275Y-10875D01*
X27425Y-12025D02*
X27425Y-10750D01*
X27100Y-12350D02*
X27425Y-12025D01*
X27425Y-10750D02*
X27625Y-10550D01*
X27625Y-10550D02*
X34950Y-10550D01*
X26600Y-12350D02*
X27100Y-12350D01*
X35275Y-10875D02*
X34950Y-10550D01*
X35275Y-12700D02*
X34275Y-12700D01*
X12950Y-17500D02*
X11050Y-17500D01*
X15300Y-12150D02*
X15300Y-10700D01*
X38200Y-13650D02*
X36075Y-13650D01*
X21350Y-16050D02*
X22400Y-16050D01*
X22800Y-18250D02*
X23050Y-18500D01*
X22800Y-16450D02*
X22800Y-18250D01*
X22400Y-16050D02*
X22800Y-16450D01*
X24425Y-13750D02*
X25225Y-14550D01*
X32075Y-14275D02*
X31800Y-14550D01*
X32075Y-14025D02*
X32075Y-14275D01*
X23050Y-18500D02*
X24100Y-18500D01*
X24000Y-13750D02*
X24425Y-13750D01*
X31800Y-14550D02*
X25225Y-14550D01*
M02*
