G04 (created by PCBNEW-RS274X (2011-12-28 BZR 3254)-stable) date 6/21/2012 5:14:14 PM*
G01*
G70*
G90*
%MOIN*%
G04 Gerber Fmt 3.4, Leading zero omitted, Abs format*
%FSLAX34Y34*%
G04 APERTURE LIST*
%ADD10C,0.006000*%
%ADD11C,0.004000*%
%ADD12C,0.005000*%
%ADD13C,0.009000*%
%ADD14C,0.003000*%
%ADD15C,0.010000*%
G04 APERTURE END LIST*
G54D10*
G54D11*
X04609Y-01676D02*
X04609Y-01426D01*
X04514Y-01426D01*
X04490Y-01438D01*
X04479Y-01450D01*
X04467Y-01474D01*
X04467Y-01510D01*
X04479Y-01533D01*
X04490Y-01545D01*
X04514Y-01557D01*
X04609Y-01557D01*
X04276Y-01545D02*
X04240Y-01557D01*
X04229Y-01569D01*
X04217Y-01593D01*
X04217Y-01629D01*
X04229Y-01652D01*
X04240Y-01664D01*
X04264Y-01676D01*
X04359Y-01676D01*
X04359Y-01426D01*
X04276Y-01426D01*
X04252Y-01438D01*
X04240Y-01450D01*
X04229Y-01474D01*
X04229Y-01498D01*
X04240Y-01521D01*
X04252Y-01533D01*
X04276Y-01545D01*
X04359Y-01545D01*
X04133Y-01426D02*
X03979Y-01426D01*
X04062Y-01521D01*
X04026Y-01521D01*
X04002Y-01533D01*
X03990Y-01545D01*
X03979Y-01569D01*
X03979Y-01629D01*
X03990Y-01652D01*
X04002Y-01664D01*
X04026Y-01676D01*
X04098Y-01676D01*
X04121Y-01664D01*
X04133Y-01652D01*
G54D12*
X01466Y-00288D02*
X01489Y-00276D01*
X01525Y-00276D01*
X01561Y-00288D01*
X01585Y-00312D01*
X01596Y-00336D01*
X01608Y-00383D01*
X01608Y-00419D01*
X01596Y-00467D01*
X01585Y-00490D01*
X01561Y-00514D01*
X01525Y-00526D01*
X01501Y-00526D01*
X01466Y-00514D01*
X01454Y-00502D01*
X01454Y-00419D01*
X01501Y-00419D01*
X01346Y-00526D02*
X01346Y-00276D01*
X01204Y-00526D01*
X01204Y-00276D01*
X01084Y-00526D02*
X01084Y-00276D01*
X01025Y-00276D01*
X00989Y-00288D01*
X00965Y-00312D01*
X00954Y-00336D01*
X00942Y-00383D01*
X00942Y-00419D01*
X00954Y-00467D01*
X00965Y-00490D01*
X00989Y-00514D01*
X01025Y-00526D01*
X01084Y-00526D01*
G54D13*
X02360Y-01868D02*
X02360Y-02468D01*
X02360Y-01896D02*
X02322Y-01868D01*
X02245Y-01868D01*
X02207Y-01896D01*
X02188Y-01925D01*
X02169Y-01982D01*
X02169Y-02154D01*
X02188Y-02211D01*
X02207Y-02239D01*
X02245Y-02268D01*
X02322Y-02268D01*
X02360Y-02239D01*
X01998Y-02211D02*
X01979Y-02239D01*
X01998Y-02268D01*
X02017Y-02239D01*
X01998Y-02211D01*
X01998Y-02268D01*
X01636Y-01868D02*
X01636Y-02268D01*
X01808Y-01868D02*
X01808Y-02182D01*
X01789Y-02239D01*
X01751Y-02268D01*
X01693Y-02268D01*
X01655Y-02239D01*
X01636Y-02211D01*
X01446Y-02211D02*
X01427Y-02239D01*
X01446Y-02268D01*
X01465Y-02239D01*
X01446Y-02211D01*
X01446Y-02268D01*
X01199Y-02268D02*
X01237Y-02239D01*
X01256Y-02182D01*
X01256Y-01668D01*
X01046Y-02211D02*
X01027Y-02239D01*
X01046Y-02268D01*
X01065Y-02239D01*
X01046Y-02211D01*
X01046Y-02268D01*
X00875Y-02239D02*
X00837Y-02268D01*
X00761Y-02268D01*
X00722Y-02239D01*
X00703Y-02182D01*
X00703Y-02154D01*
X00722Y-02096D01*
X00761Y-02068D01*
X00818Y-02068D01*
X00856Y-02039D01*
X00875Y-01982D01*
X00875Y-01954D01*
X00856Y-01896D01*
X00818Y-01868D01*
X00761Y-01868D01*
X00722Y-01896D01*
X00532Y-02211D02*
X00513Y-02239D01*
X00532Y-02268D01*
X00551Y-02239D01*
X00532Y-02211D01*
X00532Y-02268D01*
X00189Y-02239D02*
X00227Y-02268D01*
X00304Y-02268D01*
X00342Y-02239D01*
X00361Y-02182D01*
X00361Y-01954D01*
X00342Y-01896D01*
X00304Y-01868D01*
X00227Y-01868D01*
X00189Y-01896D01*
X00170Y-01954D01*
X00170Y-02011D01*
X00361Y-02068D01*
G54D14*
X08844Y-03245D02*
X09044Y-03245D01*
X08844Y-03103D01*
X09044Y-03103D01*
X08844Y-02983D02*
X09044Y-02983D01*
X09044Y-02924D01*
X09035Y-02888D01*
X09015Y-02864D01*
X08996Y-02853D01*
X08958Y-02841D01*
X08930Y-02841D01*
X08892Y-02853D01*
X08873Y-02864D01*
X08854Y-02888D01*
X08844Y-02924D01*
X08844Y-02983D01*
X08777Y-02282D02*
X08777Y-02342D01*
X09063Y-02342D01*
X09063Y-02282D01*
X08920Y-02186D02*
X08920Y-01996D01*
X08844Y-02091D02*
X08996Y-02091D01*
X08777Y-01900D02*
X08777Y-01841D01*
X09063Y-01841D01*
X09063Y-01900D01*
X08777Y-01258D02*
X08777Y-01318D01*
X09063Y-01318D01*
X09063Y-01258D01*
X08920Y-01162D02*
X08920Y-00972D01*
X08777Y-00876D02*
X08777Y-00817D01*
X09063Y-00817D01*
X09063Y-00876D01*
G54D12*
X01455Y-03801D02*
X01597Y-03801D01*
X01526Y-03801D02*
X01526Y-03551D01*
X01550Y-03587D01*
X01574Y-03611D01*
X01597Y-03623D01*
X01359Y-03575D02*
X01347Y-03563D01*
X01324Y-03551D01*
X01264Y-03551D01*
X01240Y-03563D01*
X01228Y-03575D01*
X01217Y-03599D01*
X01217Y-03623D01*
X01228Y-03658D01*
X01371Y-03801D01*
X01217Y-03801D01*
X01145Y-03551D02*
X01062Y-03801D01*
X00979Y-03551D01*
G54D14*
X03540Y-01069D02*
X03540Y-01269D01*
X03647Y-01126D01*
X03754Y-01269D01*
X03754Y-01069D01*
X03906Y-01069D02*
X03906Y-01269D01*
X04455Y-01269D02*
X04302Y-01269D01*
X04287Y-01174D01*
X04302Y-01183D01*
X04333Y-01193D01*
X04409Y-01193D01*
X04439Y-01183D01*
X04455Y-01174D01*
X04470Y-01155D01*
X04470Y-01107D01*
X04455Y-01088D01*
X04439Y-01079D01*
X04409Y-01069D01*
X04333Y-01069D01*
X04302Y-01079D01*
X04287Y-01088D01*
X04561Y-01269D02*
X04668Y-01069D01*
X04775Y-01269D01*
X05110Y-01079D02*
X05156Y-01069D01*
X05232Y-01069D01*
X05262Y-01079D01*
X05278Y-01088D01*
X05293Y-01107D01*
X05293Y-01126D01*
X05278Y-01145D01*
X05262Y-01155D01*
X05232Y-01164D01*
X05171Y-01174D01*
X05140Y-01183D01*
X05125Y-01193D01*
X05110Y-01212D01*
X05110Y-01231D01*
X05125Y-01250D01*
X05140Y-01260D01*
X05171Y-01269D01*
X05247Y-01269D01*
X05293Y-01260D01*
X05613Y-01088D02*
X05598Y-01079D01*
X05552Y-01069D01*
X05522Y-01069D01*
X05476Y-01079D01*
X05445Y-01098D01*
X05430Y-01117D01*
X05415Y-01155D01*
X05415Y-01183D01*
X05430Y-01221D01*
X05445Y-01240D01*
X05476Y-01260D01*
X05522Y-01269D01*
X05552Y-01269D01*
X05598Y-01260D01*
X05613Y-01250D01*
X05994Y-01069D02*
X05994Y-01269D01*
X06101Y-01126D01*
X06208Y-01269D01*
X06208Y-01069D01*
X06421Y-01269D02*
X06482Y-01269D01*
X06513Y-01260D01*
X06543Y-01240D01*
X06558Y-01202D01*
X06558Y-01136D01*
X06543Y-01098D01*
X06513Y-01079D01*
X06482Y-01069D01*
X06421Y-01069D01*
X06391Y-01079D01*
X06360Y-01098D01*
X06345Y-01136D01*
X06345Y-01202D01*
X06360Y-01240D01*
X06391Y-01260D01*
X06421Y-01269D01*
X07122Y-01069D02*
X07015Y-01164D01*
X06939Y-01069D02*
X06939Y-01269D01*
X07061Y-01269D01*
X07092Y-01260D01*
X07107Y-01250D01*
X07122Y-01231D01*
X07122Y-01202D01*
X07107Y-01183D01*
X07092Y-01174D01*
X07061Y-01164D01*
X06939Y-01164D01*
X07244Y-01079D02*
X07290Y-01069D01*
X07366Y-01069D01*
X07396Y-01079D01*
X07412Y-01088D01*
X07427Y-01107D01*
X07427Y-01126D01*
X07412Y-01145D01*
X07396Y-01155D01*
X07366Y-01164D01*
X07305Y-01174D01*
X07274Y-01183D01*
X07259Y-01193D01*
X07244Y-01212D01*
X07244Y-01231D01*
X07259Y-01250D01*
X07274Y-01260D01*
X07305Y-01269D01*
X07381Y-01269D01*
X07427Y-01260D01*
X07976Y-01260D02*
X07945Y-01269D01*
X07900Y-01269D01*
X07854Y-01260D01*
X07823Y-01240D01*
X07808Y-01221D01*
X07793Y-01183D01*
X07793Y-01155D01*
X07808Y-01117D01*
X07823Y-01098D01*
X07854Y-01079D01*
X07900Y-01069D01*
X07930Y-01069D01*
X07976Y-01079D01*
X07991Y-01088D01*
X07991Y-01155D01*
X07930Y-01155D01*
X08128Y-01069D02*
X08128Y-01269D01*
X08311Y-01069D01*
X08311Y-01269D01*
G54D15*
X02700Y-00200D02*
X02700Y00000D01*
X00000Y-00200D02*
X02700Y-00200D01*
X02700Y-03900D02*
X02700Y-04100D01*
X00000Y-03900D02*
X02700Y-03900D01*
X00000Y-03900D02*
X00000Y-00200D01*
X10200Y-04100D02*
X02700Y-04100D01*
X10200Y00000D02*
X10200Y-04100D01*
X02700Y00000D02*
X10200Y00000D01*
G54D12*
X03600Y-02425D02*
X03150Y-02425D01*
X03350Y-02475D02*
X03425Y-02475D01*
X03275Y-02525D02*
X03475Y-02525D01*
X03225Y-02575D02*
X03525Y-02575D01*
X03375Y-02625D02*
X03575Y-02625D01*
X03575Y-02625D02*
X03375Y-02425D01*
X03375Y-02425D02*
X03175Y-02625D01*
X03175Y-02625D02*
X03375Y-02625D01*
X03075Y-01900D02*
X03075Y-01775D01*
X03075Y-01775D02*
X03675Y-01775D01*
X03675Y-01775D02*
X03675Y-01900D01*
X03675Y-02650D02*
X03675Y-03275D01*
X03675Y-03275D02*
X03075Y-03275D01*
X03075Y-03275D02*
X03075Y-02650D01*
G54D10*
X08150Y-02675D02*
X08150Y-03050D01*
X08150Y-03050D02*
X07050Y-03050D01*
X07050Y-03050D02*
X07050Y-01725D01*
X07050Y-01725D02*
X07050Y-01700D01*
X07050Y-01700D02*
X08150Y-01700D01*
X08150Y-01700D02*
X08150Y-02075D01*
X08150Y-02075D02*
X08750Y-02075D01*
X08750Y-02075D02*
X08750Y-02375D01*
X08750Y-02375D02*
X08750Y-02675D01*
X08750Y-02675D02*
X08150Y-02675D01*
X04925Y-02350D02*
X04925Y-01725D01*
X04925Y-01725D02*
X05775Y-01725D01*
X05775Y-01725D02*
X05775Y-02350D01*
X05775Y-02650D02*
X05775Y-03250D01*
X05775Y-03250D02*
X05775Y-03275D01*
X05775Y-03275D02*
X04925Y-03275D01*
X04925Y-03275D02*
X04925Y-02650D01*
X06775Y-02575D02*
X06775Y-03200D01*
X06775Y-03200D02*
X05925Y-03200D01*
X05925Y-03200D02*
X05925Y-02575D01*
X05925Y-02275D02*
X05925Y-01675D01*
X05925Y-01675D02*
X05925Y-01650D01*
X05925Y-01650D02*
X06775Y-01650D01*
X06775Y-01650D02*
X06775Y-02275D01*
G54D12*
X04750Y-02525D02*
X04750Y-03300D01*
X04750Y-03300D02*
X03950Y-03300D01*
X03950Y-03300D02*
X03950Y-01750D01*
X03950Y-01750D02*
X04750Y-01750D01*
X04750Y-01750D02*
X04750Y-02525D01*
X03597Y-03846D02*
X03597Y-03546D01*
X03525Y-03546D01*
X03482Y-03561D01*
X03454Y-03589D01*
X03439Y-03618D01*
X03425Y-03675D01*
X03425Y-03718D01*
X03439Y-03775D01*
X03454Y-03804D01*
X03482Y-03832D01*
X03525Y-03846D01*
X03597Y-03846D01*
X03139Y-03846D02*
X03311Y-03846D01*
X03225Y-03846D02*
X03225Y-03546D01*
X03254Y-03589D01*
X03282Y-03618D01*
X03311Y-03632D01*
X07379Y-03875D02*
X07407Y-03861D01*
X07436Y-03832D01*
X07479Y-03789D01*
X07507Y-03775D01*
X07536Y-03775D01*
X07521Y-03846D02*
X07550Y-03832D01*
X07579Y-03804D01*
X07593Y-03746D01*
X07593Y-03646D01*
X07579Y-03589D01*
X07550Y-03561D01*
X07521Y-03546D01*
X07464Y-03546D01*
X07436Y-03561D01*
X07407Y-03589D01*
X07393Y-03646D01*
X07393Y-03746D01*
X07407Y-03804D01*
X07436Y-03832D01*
X07464Y-03846D01*
X07521Y-03846D01*
X07107Y-03846D02*
X07279Y-03846D01*
X07193Y-03846D02*
X07193Y-03546D01*
X07222Y-03589D01*
X07250Y-03618D01*
X07279Y-03632D01*
X05400Y-03846D02*
X05500Y-03704D01*
X05572Y-03846D02*
X05572Y-03546D01*
X05457Y-03546D01*
X05429Y-03561D01*
X05414Y-03575D01*
X05400Y-03604D01*
X05400Y-03646D01*
X05414Y-03675D01*
X05429Y-03689D01*
X05457Y-03704D01*
X05572Y-03704D01*
X05114Y-03846D02*
X05286Y-03846D01*
X05200Y-03846D02*
X05200Y-03546D01*
X05229Y-03589D01*
X05257Y-03618D01*
X05286Y-03632D01*
X06400Y-03846D02*
X06500Y-03704D01*
X06572Y-03846D02*
X06572Y-03546D01*
X06457Y-03546D01*
X06429Y-03561D01*
X06414Y-03575D01*
X06400Y-03604D01*
X06400Y-03646D01*
X06414Y-03675D01*
X06429Y-03689D01*
X06457Y-03704D01*
X06572Y-03704D01*
X06300Y-03546D02*
X06114Y-03546D01*
X06214Y-03661D01*
X06172Y-03661D01*
X06143Y-03675D01*
X06129Y-03689D01*
X06114Y-03718D01*
X06114Y-03789D01*
X06129Y-03818D01*
X06143Y-03832D01*
X06172Y-03846D01*
X06257Y-03846D01*
X06286Y-03832D01*
X06300Y-03818D01*
X04400Y-03818D02*
X04414Y-03832D01*
X04457Y-03846D01*
X04486Y-03846D01*
X04529Y-03832D01*
X04557Y-03804D01*
X04572Y-03775D01*
X04586Y-03718D01*
X04586Y-03675D01*
X04572Y-03618D01*
X04557Y-03589D01*
X04529Y-03561D01*
X04486Y-03546D01*
X04457Y-03546D01*
X04414Y-03561D01*
X04400Y-03575D01*
X04114Y-03846D02*
X04286Y-03846D01*
X04200Y-03846D02*
X04200Y-03546D01*
X04229Y-03589D01*
X04257Y-03618D01*
X04286Y-03632D01*
M02*
