G04 (created by PCBNEW-RS274X (2011-12-28 BZR 3254)-stable) date 2/20/2012 3:16:05 PM*
G01*
G70*
G90*
%MOIN*%
G04 Gerber Fmt 3.4, Leading zero omitted, Abs format*
%FSLAX34Y34*%
G04 APERTURE LIST*
%ADD10C,0.006000*%
%ADD11C,0.015000*%
%ADD12C,0.005000*%
%ADD13C,0.020000*%
%ADD14C,0.010000*%
%ADD15C,0.004000*%
%ADD16C,0.008000*%
%ADD17R,0.090000X0.090000*%
%ADD18C,0.090000*%
%ADD19R,0.079000X0.071200*%
%ADD20C,0.060000*%
%ADD21R,0.043600X0.098700*%
%ADD22R,0.062000X0.076000*%
%ADD23R,0.100000X0.060000*%
%ADD24R,0.060000X0.100000*%
%ADD25C,0.065000*%
%ADD26R,0.120000X0.280000*%
%ADD27R,0.280000X0.280000*%
%ADD28R,0.050000X0.060000*%
%ADD29C,0.140000*%
G04 APERTURE END LIST*
G54D10*
G54D11*
X33960Y-11200D02*
X33940Y-11200D01*
X33960Y-13120D02*
X33960Y-11200D01*
X33860Y-13120D02*
X33960Y-13120D01*
X33860Y-11080D02*
X33860Y-13120D01*
X34040Y-11080D02*
X33860Y-11080D01*
X34040Y-13200D02*
X34040Y-11080D01*
X33740Y-13200D02*
X34040Y-13200D01*
X33740Y-10960D02*
X33740Y-13200D01*
X34160Y-10960D02*
X33740Y-10960D01*
X34160Y-13320D02*
X34160Y-10960D01*
X33620Y-13320D02*
X34160Y-13320D01*
X33620Y-10840D02*
X33620Y-13320D01*
X34280Y-10840D02*
X33620Y-10840D01*
X34280Y-13440D02*
X34280Y-10840D01*
X33500Y-13440D02*
X34280Y-13440D01*
X33500Y-10720D02*
X33500Y-13440D01*
X34400Y-10720D02*
X33500Y-10720D01*
X34400Y-13560D02*
X34400Y-10720D01*
X33380Y-13560D02*
X34400Y-13560D01*
X33380Y-10600D02*
X33380Y-13560D01*
X34520Y-10600D02*
X33380Y-10600D01*
X34520Y-13680D02*
X34520Y-10600D01*
X33260Y-13680D02*
X34520Y-13680D01*
X33260Y-10480D02*
X33260Y-13680D01*
X34640Y-10480D02*
X33260Y-10480D01*
X34640Y-13800D02*
X34640Y-10480D01*
X33140Y-13800D02*
X34640Y-13800D01*
X33140Y-10360D02*
X33140Y-13800D01*
X34760Y-10360D02*
X33140Y-10360D01*
X34760Y-13920D02*
X34760Y-10360D01*
X33020Y-13920D02*
X34760Y-13920D01*
X33020Y-10240D02*
X33020Y-13920D01*
X34760Y-10240D02*
X33020Y-10240D01*
X34880Y-10120D02*
X34860Y-10120D01*
X34880Y-14040D02*
X34880Y-10120D01*
X32900Y-14040D02*
X34880Y-14040D01*
X32900Y-10120D02*
X32900Y-14040D01*
X34880Y-10120D02*
X32900Y-10120D01*
G54D12*
X15316Y-12188D02*
X15339Y-12176D01*
X15375Y-12176D01*
X15411Y-12188D01*
X15435Y-12212D01*
X15446Y-12236D01*
X15458Y-12283D01*
X15458Y-12319D01*
X15446Y-12367D01*
X15435Y-12390D01*
X15411Y-12414D01*
X15375Y-12426D01*
X15351Y-12426D01*
X15316Y-12414D01*
X15304Y-12402D01*
X15304Y-12319D01*
X15351Y-12319D01*
X15196Y-12426D02*
X15196Y-12176D01*
X15054Y-12426D01*
X15054Y-12176D01*
X14934Y-12426D02*
X14934Y-12176D01*
X14875Y-12176D01*
X14839Y-12188D01*
X14815Y-12212D01*
X14804Y-12236D01*
X14792Y-12283D01*
X14792Y-12319D01*
X14804Y-12367D01*
X14815Y-12390D01*
X14839Y-12414D01*
X14875Y-12426D01*
X14934Y-12426D01*
X14891Y-10601D02*
X15010Y-10601D01*
X15022Y-10720D01*
X15010Y-10708D01*
X14987Y-10696D01*
X14927Y-10696D01*
X14903Y-10708D01*
X14891Y-10720D01*
X14880Y-10744D01*
X14880Y-10804D01*
X14891Y-10827D01*
X14903Y-10839D01*
X14927Y-10851D01*
X14987Y-10851D01*
X15010Y-10839D01*
X15022Y-10827D01*
X14808Y-10601D02*
X14725Y-10851D01*
X14642Y-10601D01*
X14511Y-10601D02*
X14487Y-10601D01*
X14463Y-10613D01*
X14451Y-10625D01*
X14439Y-10649D01*
X14428Y-10696D01*
X14428Y-10756D01*
X14439Y-10804D01*
X14451Y-10827D01*
X14463Y-10839D01*
X14487Y-10851D01*
X14511Y-10851D01*
X14535Y-10839D01*
X14547Y-10827D01*
X14558Y-10804D01*
X14570Y-10756D01*
X14570Y-10696D01*
X14558Y-10649D01*
X14547Y-10625D01*
X14535Y-10613D01*
X14511Y-10601D01*
X17422Y-12439D02*
X17387Y-12451D01*
X17327Y-12451D01*
X17303Y-12439D01*
X17291Y-12427D01*
X17280Y-12404D01*
X17280Y-12380D01*
X17291Y-12356D01*
X17303Y-12344D01*
X17327Y-12332D01*
X17375Y-12320D01*
X17399Y-12308D01*
X17410Y-12296D01*
X17422Y-12273D01*
X17422Y-12249D01*
X17410Y-12225D01*
X17399Y-12213D01*
X17375Y-12201D01*
X17315Y-12201D01*
X17280Y-12213D01*
X17030Y-12427D02*
X17042Y-12439D01*
X17077Y-12451D01*
X17101Y-12451D01*
X17137Y-12439D01*
X17161Y-12415D01*
X17172Y-12392D01*
X17184Y-12344D01*
X17184Y-12308D01*
X17172Y-12261D01*
X17161Y-12237D01*
X17137Y-12213D01*
X17101Y-12201D01*
X17077Y-12201D01*
X17042Y-12213D01*
X17030Y-12225D01*
X16803Y-12451D02*
X16922Y-12451D01*
X16922Y-12201D01*
X17078Y-10764D02*
X17043Y-10776D01*
X16983Y-10776D01*
X16959Y-10764D01*
X16947Y-10752D01*
X16936Y-10729D01*
X16936Y-10705D01*
X16947Y-10681D01*
X16959Y-10669D01*
X16983Y-10657D01*
X17031Y-10645D01*
X17055Y-10633D01*
X17066Y-10621D01*
X17078Y-10598D01*
X17078Y-10574D01*
X17066Y-10550D01*
X17055Y-10538D01*
X17031Y-10526D01*
X16971Y-10526D01*
X16936Y-10538D01*
X16828Y-10776D02*
X16828Y-10526D01*
X16769Y-10526D01*
X16733Y-10538D01*
X16709Y-10562D01*
X16698Y-10586D01*
X16686Y-10633D01*
X16686Y-10669D01*
X16698Y-10717D01*
X16709Y-10740D01*
X16733Y-10764D01*
X16769Y-10776D01*
X16828Y-10776D01*
X16590Y-10705D02*
X16471Y-10705D01*
X16614Y-10776D02*
X16531Y-10526D01*
X16448Y-10776D01*
X12188Y-17959D02*
X12176Y-17936D01*
X12176Y-17900D01*
X12188Y-17864D01*
X12212Y-17840D01*
X12236Y-17829D01*
X12283Y-17817D01*
X12319Y-17817D01*
X12367Y-17829D01*
X12390Y-17840D01*
X12414Y-17864D01*
X12426Y-17900D01*
X12426Y-17924D01*
X12414Y-17959D01*
X12402Y-17971D01*
X12319Y-17971D01*
X12319Y-17924D01*
X12426Y-18079D02*
X12176Y-18079D01*
X12426Y-18221D01*
X12176Y-18221D01*
X12426Y-18341D02*
X12176Y-18341D01*
X12176Y-18400D01*
X12188Y-18436D01*
X12212Y-18460D01*
X12236Y-18471D01*
X12283Y-18483D01*
X12319Y-18483D01*
X12367Y-18471D01*
X12390Y-18460D01*
X12414Y-18436D01*
X12426Y-18400D01*
X12426Y-18341D01*
X10626Y-17034D02*
X10626Y-16915D01*
X10745Y-16903D01*
X10733Y-16915D01*
X10721Y-16938D01*
X10721Y-16998D01*
X10733Y-17022D01*
X10745Y-17034D01*
X10769Y-17045D01*
X10829Y-17045D01*
X10852Y-17034D01*
X10864Y-17022D01*
X10876Y-16998D01*
X10876Y-16938D01*
X10864Y-16915D01*
X10852Y-16903D01*
X10626Y-17117D02*
X10876Y-17200D01*
X10626Y-17283D01*
X10626Y-17414D02*
X10626Y-17438D01*
X10638Y-17462D01*
X10650Y-17474D01*
X10674Y-17486D01*
X10721Y-17497D01*
X10781Y-17497D01*
X10829Y-17486D01*
X10852Y-17474D01*
X10864Y-17462D01*
X10876Y-17438D01*
X10876Y-17414D01*
X10864Y-17390D01*
X10852Y-17378D01*
X10829Y-17367D01*
X10781Y-17355D01*
X10721Y-17355D01*
X10674Y-17367D01*
X10650Y-17378D01*
X10638Y-17390D01*
X10626Y-17414D01*
X12364Y-15828D02*
X12376Y-15863D01*
X12376Y-15923D01*
X12364Y-15947D01*
X12352Y-15959D01*
X12329Y-15970D01*
X12305Y-15970D01*
X12281Y-15959D01*
X12269Y-15947D01*
X12257Y-15923D01*
X12245Y-15875D01*
X12233Y-15851D01*
X12221Y-15840D01*
X12198Y-15828D01*
X12174Y-15828D01*
X12150Y-15840D01*
X12138Y-15851D01*
X12126Y-15875D01*
X12126Y-15935D01*
X12138Y-15970D01*
X12352Y-16220D02*
X12364Y-16208D01*
X12376Y-16173D01*
X12376Y-16149D01*
X12364Y-16113D01*
X12340Y-16089D01*
X12317Y-16078D01*
X12269Y-16066D01*
X12233Y-16066D01*
X12186Y-16078D01*
X12162Y-16089D01*
X12138Y-16113D01*
X12126Y-16149D01*
X12126Y-16173D01*
X12138Y-16208D01*
X12150Y-16220D01*
X12376Y-16447D02*
X12376Y-16328D01*
X12126Y-16328D01*
X10664Y-14847D02*
X10676Y-14882D01*
X10676Y-14942D01*
X10664Y-14966D01*
X10652Y-14978D01*
X10629Y-14989D01*
X10605Y-14989D01*
X10581Y-14978D01*
X10569Y-14966D01*
X10557Y-14942D01*
X10545Y-14894D01*
X10533Y-14870D01*
X10521Y-14859D01*
X10498Y-14847D01*
X10474Y-14847D01*
X10450Y-14859D01*
X10438Y-14870D01*
X10426Y-14894D01*
X10426Y-14954D01*
X10438Y-14989D01*
X10676Y-15097D02*
X10426Y-15097D01*
X10426Y-15156D01*
X10438Y-15192D01*
X10462Y-15216D01*
X10486Y-15227D01*
X10533Y-15239D01*
X10569Y-15239D01*
X10617Y-15227D01*
X10640Y-15216D01*
X10664Y-15192D01*
X10676Y-15156D01*
X10676Y-15097D01*
X10605Y-15335D02*
X10605Y-15454D01*
X10676Y-15311D02*
X10426Y-15394D01*
X10676Y-15477D01*
G54D13*
X27456Y-11465D02*
X27456Y-10699D01*
X27456Y-10315D02*
X27511Y-10370D01*
X27456Y-10425D01*
X27401Y-10370D01*
X27456Y-10315D01*
X27456Y-10425D01*
X26963Y-10425D02*
X26908Y-10370D01*
X26799Y-10315D01*
X26525Y-10315D01*
X26415Y-10370D01*
X26361Y-10425D01*
X26306Y-10535D01*
X26306Y-10644D01*
X26361Y-10808D01*
X27018Y-11465D01*
X26306Y-11465D01*
X25868Y-11411D02*
X25758Y-11465D01*
X25539Y-11465D01*
X25430Y-11411D01*
X25375Y-11301D01*
X25375Y-11246D01*
X25430Y-11137D01*
X25539Y-11082D01*
X25704Y-11082D01*
X25813Y-11027D01*
X25868Y-10918D01*
X25868Y-10863D01*
X25813Y-10754D01*
X25704Y-10699D01*
X25539Y-10699D01*
X25430Y-10754D01*
X24389Y-11465D02*
X24389Y-10315D01*
X24389Y-11411D02*
X24499Y-11465D01*
X24718Y-11465D01*
X24827Y-11411D01*
X24882Y-11356D01*
X24937Y-11246D01*
X24937Y-10918D01*
X24882Y-10808D01*
X24827Y-10754D01*
X24718Y-10699D01*
X24499Y-10699D01*
X24389Y-10754D01*
X24116Y-11575D02*
X23240Y-11575D01*
X23076Y-10699D02*
X22802Y-11465D01*
X22528Y-10699D01*
X22200Y-10315D02*
X21488Y-10315D01*
X21871Y-10754D01*
X21707Y-10754D01*
X21597Y-10808D01*
X21543Y-10863D01*
X21488Y-10973D01*
X21488Y-11246D01*
X21543Y-11356D01*
X21597Y-11411D01*
X21707Y-11465D01*
X22035Y-11465D01*
X22145Y-11411D01*
X22200Y-11356D01*
G54D14*
X10000Y-10000D02*
X35000Y-10000D01*
G54D12*
X11918Y-18450D02*
X11932Y-18436D01*
X11946Y-18393D01*
X11946Y-18364D01*
X11932Y-18321D01*
X11904Y-18293D01*
X11875Y-18278D01*
X11818Y-18264D01*
X11775Y-18264D01*
X11718Y-18278D01*
X11689Y-18293D01*
X11661Y-18321D01*
X11646Y-18364D01*
X11646Y-18393D01*
X11661Y-18436D01*
X11675Y-18450D01*
X11646Y-18550D02*
X11646Y-18736D01*
X11761Y-18636D01*
X11761Y-18678D01*
X11775Y-18707D01*
X11789Y-18721D01*
X11818Y-18736D01*
X11889Y-18736D01*
X11918Y-18721D01*
X11932Y-18707D01*
X11946Y-18678D01*
X11946Y-18593D01*
X11932Y-18564D01*
X11918Y-18550D01*
X13557Y-20293D02*
X13571Y-20307D01*
X13614Y-20321D01*
X13643Y-20321D01*
X13686Y-20307D01*
X13714Y-20279D01*
X13729Y-20250D01*
X13743Y-20193D01*
X13743Y-20150D01*
X13729Y-20093D01*
X13714Y-20064D01*
X13686Y-20036D01*
X13643Y-20021D01*
X13614Y-20021D01*
X13571Y-20036D01*
X13557Y-20050D01*
X13457Y-20021D02*
X13271Y-20021D01*
X13371Y-20136D01*
X13329Y-20136D01*
X13300Y-20150D01*
X13286Y-20164D01*
X13271Y-20193D01*
X13271Y-20264D01*
X13286Y-20293D01*
X13300Y-20307D01*
X13329Y-20321D01*
X13414Y-20321D01*
X13443Y-20307D01*
X13457Y-20293D01*
X13057Y-20021D02*
X13057Y-20236D01*
X13071Y-20279D01*
X13100Y-20307D01*
X13143Y-20321D01*
X13171Y-20321D01*
X12914Y-20321D02*
X12914Y-20121D01*
X12914Y-20179D02*
X12899Y-20150D01*
X12885Y-20136D01*
X12856Y-20121D01*
X12828Y-20121D01*
X19813Y-17770D02*
X19827Y-17756D01*
X19841Y-17713D01*
X19841Y-17684D01*
X19827Y-17641D01*
X19799Y-17613D01*
X19770Y-17598D01*
X19713Y-17584D01*
X19670Y-17584D01*
X19613Y-17598D01*
X19584Y-17613D01*
X19556Y-17641D01*
X19541Y-17684D01*
X19541Y-17713D01*
X19556Y-17756D01*
X19570Y-17770D01*
X19541Y-17870D02*
X19541Y-18056D01*
X19656Y-17956D01*
X19656Y-17998D01*
X19670Y-18027D01*
X19684Y-18041D01*
X19713Y-18056D01*
X19784Y-18056D01*
X19813Y-18041D01*
X19827Y-18027D01*
X19841Y-17998D01*
X19841Y-17913D01*
X19827Y-17884D01*
X19813Y-17870D01*
X13557Y-11293D02*
X13571Y-11307D01*
X13614Y-11321D01*
X13643Y-11321D01*
X13686Y-11307D01*
X13714Y-11279D01*
X13729Y-11250D01*
X13743Y-11193D01*
X13743Y-11150D01*
X13729Y-11093D01*
X13714Y-11064D01*
X13686Y-11036D01*
X13643Y-11021D01*
X13614Y-11021D01*
X13571Y-11036D01*
X13557Y-11050D01*
X13457Y-11021D02*
X13271Y-11021D01*
X13371Y-11136D01*
X13329Y-11136D01*
X13300Y-11150D01*
X13286Y-11164D01*
X13271Y-11193D01*
X13271Y-11264D01*
X13286Y-11293D01*
X13300Y-11307D01*
X13329Y-11321D01*
X13414Y-11321D01*
X13443Y-11307D01*
X13457Y-11293D01*
X13057Y-11021D02*
X13057Y-11236D01*
X13071Y-11279D01*
X13100Y-11307D01*
X13143Y-11321D01*
X13171Y-11321D01*
X12914Y-11321D02*
X12914Y-11121D01*
X12914Y-11179D02*
X12899Y-11150D01*
X12885Y-11136D01*
X12856Y-11121D01*
X12828Y-11121D01*
G54D10*
X33044Y-14909D02*
X33377Y-15005D01*
X33139Y-15100D01*
X33377Y-15195D01*
X33044Y-15290D01*
X33044Y-15433D02*
X33377Y-15552D01*
X33044Y-15672D02*
X33377Y-15552D01*
X33496Y-15505D01*
X33520Y-15481D01*
X33544Y-15433D01*
X33377Y-15933D02*
X33354Y-15886D01*
X33330Y-15862D01*
X33282Y-15838D01*
X33139Y-15838D01*
X33092Y-15862D01*
X33068Y-15886D01*
X33044Y-15933D01*
X33044Y-16005D01*
X33068Y-16053D01*
X33092Y-16076D01*
X33139Y-16100D01*
X33282Y-16100D01*
X33330Y-16076D01*
X33354Y-16053D01*
X33377Y-16005D01*
X33377Y-15933D01*
X33377Y-16385D02*
X33354Y-16338D01*
X33306Y-16314D01*
X32877Y-16314D01*
X33044Y-16790D02*
X33377Y-16790D01*
X33044Y-16576D02*
X33306Y-16576D01*
X33354Y-16600D01*
X33377Y-16647D01*
X33377Y-16719D01*
X33354Y-16767D01*
X33330Y-16790D01*
X33377Y-17028D02*
X33044Y-17028D01*
X33092Y-17028D02*
X33068Y-17052D01*
X33044Y-17099D01*
X33044Y-17171D01*
X33068Y-17219D01*
X33115Y-17242D01*
X33377Y-17242D01*
X33115Y-17242D02*
X33068Y-17266D01*
X33044Y-17314D01*
X33044Y-17385D01*
X33068Y-17433D01*
X33115Y-17457D01*
X33377Y-17457D01*
X33330Y-17695D02*
X33354Y-17719D01*
X33377Y-17695D01*
X33354Y-17671D01*
X33330Y-17695D01*
X33377Y-17695D01*
X33354Y-18147D02*
X33377Y-18100D01*
X33377Y-18004D01*
X33354Y-17957D01*
X33330Y-17933D01*
X33282Y-17909D01*
X33139Y-17909D01*
X33092Y-17933D01*
X33068Y-17957D01*
X33044Y-18004D01*
X33044Y-18100D01*
X33068Y-18147D01*
X33377Y-18433D02*
X33354Y-18386D01*
X33330Y-18362D01*
X33282Y-18338D01*
X33139Y-18338D01*
X33092Y-18362D01*
X33068Y-18386D01*
X33044Y-18433D01*
X33044Y-18505D01*
X33068Y-18553D01*
X33092Y-18576D01*
X33139Y-18600D01*
X33282Y-18600D01*
X33330Y-18576D01*
X33354Y-18553D01*
X33377Y-18505D01*
X33377Y-18433D01*
X33377Y-18814D02*
X33044Y-18814D01*
X33092Y-18814D02*
X33068Y-18838D01*
X33044Y-18885D01*
X33044Y-18957D01*
X33068Y-19005D01*
X33115Y-19028D01*
X33377Y-19028D01*
X33115Y-19028D02*
X33068Y-19052D01*
X33044Y-19100D01*
X33044Y-19171D01*
X33068Y-19219D01*
X33115Y-19243D01*
X33377Y-19243D01*
G54D14*
X35000Y-22000D02*
X10000Y-22000D01*
X35000Y-10000D02*
X35000Y-22000D01*
X10000Y-22000D02*
X10000Y-10000D01*
G54D10*
X17975Y-18175D02*
X17975Y-17550D01*
X17975Y-17550D02*
X18825Y-17550D01*
X18825Y-17550D02*
X18825Y-18175D01*
X18825Y-18475D02*
X18825Y-19075D01*
X18825Y-19075D02*
X18825Y-19100D01*
X18825Y-19100D02*
X17975Y-19100D01*
X17975Y-19100D02*
X17975Y-18475D01*
X17875Y-17050D02*
X17550Y-17375D01*
X17875Y-17275D02*
X17800Y-17350D01*
X17875Y-17200D02*
X17725Y-17350D01*
X17625Y-17375D02*
X17875Y-17125D01*
X17875Y-16225D02*
X17625Y-16225D01*
X17875Y-15925D02*
X17625Y-15925D01*
X17625Y-15925D02*
X17625Y-16225D01*
X17675Y-15925D02*
X17675Y-16225D01*
X17775Y-15925D02*
X17775Y-16225D01*
X17825Y-15925D02*
X17825Y-16225D01*
X17725Y-15925D02*
X17725Y-16225D01*
X17875Y-14775D02*
X13575Y-14775D01*
X13575Y-17375D02*
X17875Y-17375D01*
X13575Y-17375D02*
X13575Y-14775D01*
X17875Y-14775D02*
X17875Y-17375D01*
X16325Y-12775D02*
X15625Y-12775D01*
X16325Y-13625D02*
X15625Y-13625D01*
X15175Y-12775D02*
X14825Y-12775D01*
X14825Y-13625D02*
X15175Y-13625D01*
X15625Y-13625D02*
X15625Y-12775D01*
X16325Y-13625D02*
X16325Y-12775D01*
X14825Y-13625D02*
X14825Y-12775D01*
X20450Y-15000D02*
X20450Y-13950D01*
X20450Y-13950D02*
X20500Y-13950D01*
X20500Y-13950D02*
X20500Y-15000D01*
X20500Y-15000D02*
X20550Y-15000D01*
X20550Y-15000D02*
X20550Y-13950D01*
X20550Y-13950D02*
X20600Y-13950D01*
X20600Y-13950D02*
X20600Y-15000D01*
X20600Y-15000D02*
X20650Y-15000D01*
X20650Y-15000D02*
X20650Y-13950D01*
X20650Y-13950D02*
X20700Y-13950D01*
X20700Y-13950D02*
X20700Y-15000D01*
X20700Y-15000D02*
X20750Y-15000D01*
X20750Y-15000D02*
X20750Y-13950D01*
X20750Y-13950D02*
X20800Y-13950D01*
X20800Y-13950D02*
X20800Y-15000D01*
X20800Y-15000D02*
X20850Y-15000D01*
X20850Y-15000D02*
X20850Y-13950D01*
X20850Y-13950D02*
X20900Y-13950D01*
X20900Y-13950D02*
X20900Y-15000D01*
X19950Y-15000D02*
X20950Y-15000D01*
X19950Y-18050D02*
X19950Y-16800D01*
X19950Y-14800D02*
X19950Y-16200D01*
X19950Y-13950D02*
X19950Y-14200D01*
X20950Y-17800D02*
X20950Y-18050D01*
X20950Y-15800D02*
X20950Y-17200D01*
X20950Y-13950D02*
X20950Y-15200D01*
X20950Y-18050D02*
X19950Y-18050D01*
X19950Y-13950D02*
X20950Y-13950D01*
X16950Y-11500D02*
X18000Y-11500D01*
X18000Y-11500D02*
X18000Y-11550D01*
X18000Y-11550D02*
X16950Y-11550D01*
X16950Y-11550D02*
X16950Y-11600D01*
X16950Y-11600D02*
X18000Y-11600D01*
X18000Y-11600D02*
X18000Y-11650D01*
X18000Y-11650D02*
X16950Y-11650D01*
X16950Y-11650D02*
X16950Y-11700D01*
X16950Y-11700D02*
X18000Y-11700D01*
X18000Y-11700D02*
X18000Y-11750D01*
X18000Y-11750D02*
X16950Y-11750D01*
X16950Y-11750D02*
X16950Y-11800D01*
X16950Y-11800D02*
X18000Y-11800D01*
X18000Y-11800D02*
X18000Y-11850D01*
X18000Y-11850D02*
X16950Y-11850D01*
X16950Y-11850D02*
X16950Y-11900D01*
X16950Y-11900D02*
X18000Y-11900D01*
X18000Y-11900D02*
X18000Y-11950D01*
X18000Y-11950D02*
X16950Y-11950D01*
X16950Y-11000D02*
X16950Y-12000D01*
X13900Y-11000D02*
X15150Y-11000D01*
X17150Y-11000D02*
X15750Y-11000D01*
X18000Y-11000D02*
X17750Y-11000D01*
X14150Y-12000D02*
X13900Y-12000D01*
X16150Y-12000D02*
X14750Y-12000D01*
X18000Y-12000D02*
X16750Y-12000D01*
X13900Y-12000D02*
X13900Y-11000D01*
X18000Y-11000D02*
X18000Y-12000D01*
X11450Y-15000D02*
X11450Y-13950D01*
X11450Y-13950D02*
X11500Y-13950D01*
X11500Y-13950D02*
X11500Y-15000D01*
X11500Y-15000D02*
X11550Y-15000D01*
X11550Y-15000D02*
X11550Y-13950D01*
X11550Y-13950D02*
X11600Y-13950D01*
X11600Y-13950D02*
X11600Y-15000D01*
X11600Y-15000D02*
X11650Y-15000D01*
X11650Y-15000D02*
X11650Y-13950D01*
X11650Y-13950D02*
X11700Y-13950D01*
X11700Y-13950D02*
X11700Y-15000D01*
X11700Y-15000D02*
X11750Y-15000D01*
X11750Y-15000D02*
X11750Y-13950D01*
X11750Y-13950D02*
X11800Y-13950D01*
X11800Y-13950D02*
X11800Y-15000D01*
X11800Y-15000D02*
X11850Y-15000D01*
X11850Y-15000D02*
X11850Y-13950D01*
X11850Y-13950D02*
X11900Y-13950D01*
X11900Y-13950D02*
X11900Y-15000D01*
X10950Y-15000D02*
X11950Y-15000D01*
X10950Y-18050D02*
X10950Y-16800D01*
X10950Y-14800D02*
X10950Y-16200D01*
X10950Y-13950D02*
X10950Y-14200D01*
X11950Y-17800D02*
X11950Y-18050D01*
X11950Y-15800D02*
X11950Y-17200D01*
X11950Y-13950D02*
X11950Y-15200D01*
X11950Y-18050D02*
X10950Y-18050D01*
X10950Y-13950D02*
X11950Y-13950D01*
X16950Y-20500D02*
X18000Y-20500D01*
X18000Y-20500D02*
X18000Y-20550D01*
X18000Y-20550D02*
X16950Y-20550D01*
X16950Y-20550D02*
X16950Y-20600D01*
X16950Y-20600D02*
X18000Y-20600D01*
X18000Y-20600D02*
X18000Y-20650D01*
X18000Y-20650D02*
X16950Y-20650D01*
X16950Y-20650D02*
X16950Y-20700D01*
X16950Y-20700D02*
X18000Y-20700D01*
X18000Y-20700D02*
X18000Y-20750D01*
X18000Y-20750D02*
X16950Y-20750D01*
X16950Y-20750D02*
X16950Y-20800D01*
X16950Y-20800D02*
X18000Y-20800D01*
X18000Y-20800D02*
X18000Y-20850D01*
X18000Y-20850D02*
X16950Y-20850D01*
X16950Y-20850D02*
X16950Y-20900D01*
X16950Y-20900D02*
X18000Y-20900D01*
X18000Y-20900D02*
X18000Y-20950D01*
X18000Y-20950D02*
X16950Y-20950D01*
X16950Y-20000D02*
X16950Y-21000D01*
X13900Y-20000D02*
X15150Y-20000D01*
X17150Y-20000D02*
X15750Y-20000D01*
X18000Y-20000D02*
X17750Y-20000D01*
X14150Y-21000D02*
X13900Y-21000D01*
X16150Y-21000D02*
X14750Y-21000D01*
X18000Y-21000D02*
X16750Y-21000D01*
X13900Y-21000D02*
X13900Y-20000D01*
X18000Y-20000D02*
X18000Y-21000D01*
X26625Y-18850D02*
X30325Y-18850D01*
X30325Y-18850D02*
X30325Y-16850D01*
X30325Y-16850D02*
X31425Y-16850D01*
X31425Y-16850D02*
X31425Y-15350D01*
X21825Y-13850D02*
X21825Y-15350D01*
X21825Y-15350D02*
X21825Y-16850D01*
X21825Y-16850D02*
X22925Y-16850D01*
X22925Y-16850D02*
X22925Y-18850D01*
X22925Y-18850D02*
X26625Y-18850D01*
X26625Y-11850D02*
X22925Y-11850D01*
X22925Y-11850D02*
X22925Y-13850D01*
X22925Y-13850D02*
X21825Y-13850D01*
X31425Y-15350D02*
X31425Y-13850D01*
X31425Y-13850D02*
X30325Y-13850D01*
X30325Y-13850D02*
X30325Y-11850D01*
X30325Y-11850D02*
X26625Y-11850D01*
X29826Y-15350D02*
X29765Y-15971D01*
X29584Y-16569D01*
X29291Y-17121D01*
X28896Y-17605D01*
X28414Y-18003D01*
X27865Y-18300D01*
X27268Y-18485D01*
X26647Y-18550D01*
X26026Y-18494D01*
X25426Y-18317D01*
X24873Y-18028D01*
X24386Y-17637D01*
X23984Y-17158D01*
X23683Y-16611D01*
X23494Y-16015D01*
X23425Y-15394D01*
X23477Y-14773D01*
X23649Y-14172D01*
X23935Y-13616D01*
X24323Y-13127D01*
X24799Y-12722D01*
X25344Y-12417D01*
X25938Y-12224D01*
X26558Y-12150D01*
X27180Y-12198D01*
X27782Y-12366D01*
X28340Y-12648D01*
X28832Y-13032D01*
X29240Y-13505D01*
X29549Y-14049D01*
X29746Y-14641D01*
X29824Y-15261D01*
X29826Y-15350D01*
G54D15*
X19241Y-18770D02*
X19099Y-18670D01*
X19241Y-18598D02*
X18941Y-18598D01*
X18941Y-18713D01*
X18956Y-18741D01*
X18970Y-18756D01*
X18999Y-18770D01*
X19041Y-18770D01*
X19070Y-18756D01*
X19084Y-18741D01*
X19099Y-18713D01*
X19099Y-18598D01*
X19241Y-18913D02*
X19241Y-18970D01*
X19227Y-18998D01*
X19213Y-19013D01*
X19170Y-19041D01*
X19113Y-19056D01*
X18999Y-19056D01*
X18970Y-19041D01*
X18956Y-19027D01*
X18941Y-18998D01*
X18941Y-18941D01*
X18956Y-18913D01*
X18970Y-18898D01*
X18999Y-18884D01*
X19070Y-18884D01*
X19099Y-18898D01*
X19113Y-18913D01*
X19127Y-18941D01*
X19127Y-18998D01*
X19113Y-19027D01*
X19099Y-19041D01*
X19070Y-19056D01*
X17946Y-15846D02*
X18189Y-15846D01*
X18218Y-15861D01*
X18232Y-15875D01*
X18246Y-15904D01*
X18246Y-15961D01*
X18232Y-15989D01*
X18218Y-16004D01*
X18189Y-16018D01*
X17946Y-16018D01*
X18046Y-16289D02*
X18246Y-16289D01*
X17932Y-16218D02*
X18146Y-16146D01*
X18146Y-16332D01*
X14061Y-15129D02*
X13761Y-15129D01*
X13761Y-15201D01*
X13776Y-15244D01*
X13804Y-15272D01*
X13833Y-15287D01*
X13890Y-15301D01*
X13933Y-15301D01*
X13990Y-15287D01*
X14019Y-15272D01*
X14047Y-15244D01*
X14061Y-15201D01*
X14061Y-15129D01*
X14047Y-15415D02*
X14061Y-15458D01*
X14061Y-15529D01*
X14047Y-15558D01*
X14033Y-15572D01*
X14004Y-15587D01*
X13976Y-15587D01*
X13947Y-15572D01*
X13933Y-15558D01*
X13919Y-15529D01*
X13904Y-15472D01*
X13890Y-15444D01*
X13876Y-15429D01*
X13847Y-15415D01*
X13819Y-15415D01*
X13790Y-15429D01*
X13776Y-15444D01*
X13761Y-15472D01*
X13761Y-15544D01*
X13776Y-15587D01*
X13761Y-15687D02*
X13761Y-15873D01*
X13876Y-15773D01*
X13876Y-15815D01*
X13890Y-15844D01*
X13904Y-15858D01*
X13933Y-15873D01*
X14004Y-15873D01*
X14033Y-15858D01*
X14047Y-15844D01*
X14061Y-15815D01*
X14061Y-15730D01*
X14047Y-15701D01*
X14033Y-15687D01*
X13790Y-15987D02*
X13776Y-16001D01*
X13761Y-16030D01*
X13761Y-16101D01*
X13776Y-16130D01*
X13790Y-16144D01*
X13819Y-16159D01*
X13847Y-16159D01*
X13890Y-16144D01*
X14061Y-15973D01*
X14061Y-16159D01*
X13761Y-16259D02*
X13761Y-16445D01*
X13876Y-16345D01*
X13876Y-16387D01*
X13890Y-16416D01*
X13904Y-16430D01*
X13933Y-16445D01*
X14004Y-16445D01*
X14033Y-16430D01*
X14047Y-16416D01*
X14061Y-16387D01*
X14061Y-16302D01*
X14047Y-16273D01*
X14033Y-16259D01*
X14061Y-16731D02*
X14061Y-16559D01*
X14061Y-16645D02*
X13761Y-16645D01*
X13804Y-16616D01*
X13833Y-16588D01*
X13847Y-16559D01*
X14061Y-16859D02*
X13761Y-16859D01*
X14061Y-17031D01*
X13761Y-17031D01*
X16750Y-13293D02*
X16764Y-13307D01*
X16807Y-13321D01*
X16836Y-13321D01*
X16879Y-13307D01*
X16907Y-13279D01*
X16922Y-13250D01*
X16936Y-13193D01*
X16936Y-13150D01*
X16922Y-13093D01*
X16907Y-13064D01*
X16879Y-13036D01*
X16836Y-13021D01*
X16807Y-13021D01*
X16764Y-13036D01*
X16750Y-13050D01*
X16607Y-13321D02*
X16550Y-13321D01*
X16522Y-13307D01*
X16507Y-13293D01*
X16479Y-13250D01*
X16464Y-13193D01*
X16464Y-13079D01*
X16479Y-13050D01*
X16493Y-13036D01*
X16522Y-13021D01*
X16579Y-13021D01*
X16607Y-13036D01*
X16622Y-13050D01*
X16636Y-13079D01*
X16636Y-13150D01*
X16622Y-13179D01*
X16607Y-13193D01*
X16579Y-13207D01*
X16522Y-13207D01*
X16493Y-13193D01*
X16479Y-13179D01*
X16464Y-13150D01*
X21381Y-15875D02*
X21081Y-15875D01*
X21081Y-15990D01*
X21096Y-16018D01*
X21110Y-16033D01*
X21139Y-16047D01*
X21181Y-16047D01*
X21210Y-16033D01*
X21224Y-16018D01*
X21239Y-15990D01*
X21239Y-15875D01*
X21381Y-16333D02*
X21381Y-16161D01*
X21381Y-16247D02*
X21081Y-16247D01*
X21124Y-16218D01*
X21153Y-16190D01*
X21167Y-16161D01*
X21081Y-16433D02*
X21081Y-16619D01*
X21196Y-16519D01*
X21196Y-16561D01*
X21210Y-16590D01*
X21224Y-16604D01*
X21253Y-16619D01*
X21324Y-16619D01*
X21353Y-16604D01*
X21367Y-16590D01*
X21381Y-16561D01*
X21381Y-16476D01*
X21367Y-16447D01*
X21353Y-16433D01*
X20733Y-16300D02*
X20747Y-16286D01*
X20761Y-16243D01*
X20761Y-16214D01*
X20747Y-16171D01*
X20719Y-16143D01*
X20690Y-16128D01*
X20633Y-16114D01*
X20590Y-16114D01*
X20533Y-16128D01*
X20504Y-16143D01*
X20476Y-16171D01*
X20461Y-16214D01*
X20461Y-16243D01*
X20476Y-16286D01*
X20490Y-16300D01*
X20761Y-16428D02*
X20461Y-16428D01*
X20461Y-16500D01*
X20476Y-16543D01*
X20504Y-16571D01*
X20533Y-16586D01*
X20590Y-16600D01*
X20633Y-16600D01*
X20690Y-16586D01*
X20719Y-16571D01*
X20747Y-16543D01*
X20761Y-16500D01*
X20761Y-16428D01*
X20761Y-16886D02*
X20761Y-16714D01*
X20761Y-16800D02*
X20461Y-16800D01*
X20504Y-16771D01*
X20533Y-16743D01*
X20547Y-16714D01*
X13705Y-11781D02*
X13705Y-11481D01*
X13590Y-11481D01*
X13562Y-11496D01*
X13547Y-11510D01*
X13533Y-11539D01*
X13533Y-11581D01*
X13547Y-11610D01*
X13562Y-11624D01*
X13590Y-11639D01*
X13705Y-11639D01*
X13247Y-11781D02*
X13419Y-11781D01*
X13333Y-11781D02*
X13333Y-11481D01*
X13362Y-11524D01*
X13390Y-11553D01*
X13419Y-11567D01*
X13061Y-11481D02*
X13033Y-11481D01*
X13004Y-11496D01*
X12990Y-11510D01*
X12976Y-11539D01*
X12961Y-11596D01*
X12961Y-11667D01*
X12976Y-11724D01*
X12990Y-11753D01*
X13004Y-11767D01*
X13033Y-11781D01*
X13061Y-11781D01*
X13090Y-11767D01*
X13104Y-11753D01*
X13119Y-11724D01*
X13133Y-11667D01*
X13133Y-11596D01*
X13119Y-11539D01*
X13104Y-11510D01*
X13090Y-11496D01*
X13061Y-11481D01*
X15620Y-11753D02*
X15634Y-11767D01*
X15677Y-11781D01*
X15706Y-11781D01*
X15749Y-11767D01*
X15777Y-11739D01*
X15792Y-11710D01*
X15806Y-11653D01*
X15806Y-11610D01*
X15792Y-11553D01*
X15777Y-11524D01*
X15749Y-11496D01*
X15706Y-11481D01*
X15677Y-11481D01*
X15634Y-11496D01*
X15620Y-11510D01*
X15492Y-11781D02*
X15492Y-11481D01*
X15420Y-11481D01*
X15377Y-11496D01*
X15349Y-11524D01*
X15334Y-11553D01*
X15320Y-11610D01*
X15320Y-11653D01*
X15334Y-11710D01*
X15349Y-11739D01*
X15377Y-11767D01*
X15420Y-11781D01*
X15492Y-11781D01*
X15206Y-11510D02*
X15192Y-11496D01*
X15163Y-11481D01*
X15092Y-11481D01*
X15063Y-11496D01*
X15049Y-11510D01*
X15034Y-11539D01*
X15034Y-11567D01*
X15049Y-11610D01*
X15220Y-11781D01*
X15034Y-11781D01*
X11301Y-18275D02*
X11001Y-18275D01*
X11001Y-18390D01*
X11016Y-18418D01*
X11030Y-18433D01*
X11059Y-18447D01*
X11101Y-18447D01*
X11130Y-18433D01*
X11144Y-18418D01*
X11159Y-18390D01*
X11159Y-18275D01*
X11301Y-18733D02*
X11301Y-18561D01*
X11301Y-18647D02*
X11001Y-18647D01*
X11044Y-18618D01*
X11073Y-18590D01*
X11087Y-18561D01*
X11301Y-19019D02*
X11301Y-18847D01*
X11301Y-18933D02*
X11001Y-18933D01*
X11044Y-18904D01*
X11073Y-18876D01*
X11087Y-18847D01*
X11773Y-16260D02*
X11787Y-16246D01*
X11801Y-16203D01*
X11801Y-16174D01*
X11787Y-16131D01*
X11759Y-16103D01*
X11730Y-16088D01*
X11673Y-16074D01*
X11630Y-16074D01*
X11573Y-16088D01*
X11544Y-16103D01*
X11516Y-16131D01*
X11501Y-16174D01*
X11501Y-16203D01*
X11516Y-16246D01*
X11530Y-16260D01*
X11801Y-16388D02*
X11501Y-16388D01*
X11501Y-16460D01*
X11516Y-16503D01*
X11544Y-16531D01*
X11573Y-16546D01*
X11630Y-16560D01*
X11673Y-16560D01*
X11730Y-16546D01*
X11759Y-16531D01*
X11787Y-16503D01*
X11801Y-16460D01*
X11801Y-16388D01*
X11530Y-16674D02*
X11516Y-16688D01*
X11501Y-16717D01*
X11501Y-16788D01*
X11516Y-16817D01*
X11530Y-16831D01*
X11559Y-16846D01*
X11587Y-16846D01*
X11630Y-16831D01*
X11801Y-16660D01*
X11801Y-16846D01*
X13745Y-20961D02*
X13745Y-20661D01*
X13630Y-20661D01*
X13602Y-20676D01*
X13587Y-20690D01*
X13573Y-20719D01*
X13573Y-20761D01*
X13587Y-20790D01*
X13602Y-20804D01*
X13630Y-20819D01*
X13745Y-20819D01*
X13287Y-20961D02*
X13459Y-20961D01*
X13373Y-20961D02*
X13373Y-20661D01*
X13402Y-20704D01*
X13430Y-20733D01*
X13459Y-20747D01*
X13173Y-20690D02*
X13159Y-20676D01*
X13130Y-20661D01*
X13059Y-20661D01*
X13030Y-20676D01*
X13016Y-20690D01*
X13001Y-20719D01*
X13001Y-20747D01*
X13016Y-20790D01*
X13187Y-20961D01*
X13001Y-20961D01*
X15620Y-20753D02*
X15634Y-20767D01*
X15677Y-20781D01*
X15706Y-20781D01*
X15749Y-20767D01*
X15777Y-20739D01*
X15792Y-20710D01*
X15806Y-20653D01*
X15806Y-20610D01*
X15792Y-20553D01*
X15777Y-20524D01*
X15749Y-20496D01*
X15706Y-20481D01*
X15677Y-20481D01*
X15634Y-20496D01*
X15620Y-20510D01*
X15492Y-20781D02*
X15492Y-20481D01*
X15420Y-20481D01*
X15377Y-20496D01*
X15349Y-20524D01*
X15334Y-20553D01*
X15320Y-20610D01*
X15320Y-20653D01*
X15334Y-20710D01*
X15349Y-20739D01*
X15377Y-20767D01*
X15420Y-20781D01*
X15492Y-20781D01*
X15034Y-20781D02*
X15206Y-20781D01*
X15120Y-20781D02*
X15120Y-20481D01*
X15149Y-20524D01*
X15177Y-20553D01*
X15206Y-20567D01*
G54D16*
X27096Y-12779D02*
X27010Y-12807D01*
X26982Y-12836D01*
X26953Y-12893D01*
X26953Y-12979D01*
X26982Y-13036D01*
X27010Y-13064D01*
X27068Y-13093D01*
X27296Y-13093D01*
X27296Y-12493D01*
X27096Y-12493D01*
X27039Y-12521D01*
X27010Y-12550D01*
X26982Y-12607D01*
X26982Y-12664D01*
X27010Y-12721D01*
X27039Y-12750D01*
X27096Y-12779D01*
X27296Y-12779D01*
X26782Y-12493D02*
X26439Y-12493D01*
X26610Y-13093D02*
X26610Y-12493D01*
X25925Y-13093D02*
X26268Y-13093D01*
X26096Y-13093D02*
X26096Y-12493D01*
X26153Y-12579D01*
X26211Y-12636D01*
X26268Y-12664D01*
X28348Y-17269D02*
X28262Y-17297D01*
X28234Y-17326D01*
X28205Y-17383D01*
X28205Y-17469D01*
X28234Y-17526D01*
X28262Y-17554D01*
X28320Y-17583D01*
X28548Y-17583D01*
X28548Y-16983D01*
X28348Y-16983D01*
X28291Y-17011D01*
X28262Y-17040D01*
X28234Y-17097D01*
X28234Y-17154D01*
X28262Y-17211D01*
X28291Y-17240D01*
X28348Y-17269D01*
X28548Y-17269D01*
X27977Y-17411D02*
X27691Y-17411D01*
X28034Y-17583D02*
X27834Y-16983D01*
X27634Y-17583D01*
X27520Y-16983D02*
X27177Y-16983D01*
X27348Y-17583D02*
X27348Y-16983D01*
X27063Y-16983D02*
X26720Y-16983D01*
X26891Y-17583D02*
X26891Y-16983D01*
X26663Y-17640D02*
X26206Y-17640D01*
X25720Y-17583D02*
X25920Y-17297D01*
X26063Y-17583D02*
X26063Y-16983D01*
X25835Y-16983D01*
X25777Y-17011D01*
X25749Y-17040D01*
X25720Y-17097D01*
X25720Y-17183D01*
X25749Y-17240D01*
X25777Y-17269D01*
X25835Y-17297D01*
X26063Y-17297D01*
X25549Y-16983D02*
X25206Y-16983D01*
X25377Y-17583D02*
X25377Y-16983D01*
X24663Y-17526D02*
X24692Y-17554D01*
X24778Y-17583D01*
X24835Y-17583D01*
X24920Y-17554D01*
X24978Y-17497D01*
X25006Y-17440D01*
X25035Y-17326D01*
X25035Y-17240D01*
X25006Y-17126D01*
X24978Y-17069D01*
X24920Y-17011D01*
X24835Y-16983D01*
X24778Y-16983D01*
X24692Y-17011D01*
X24663Y-17040D01*
X26930Y-13569D02*
X26320Y-13569D01*
X31930Y-13669D02*
X31320Y-13669D01*
X31625Y-13974D02*
X31625Y-13364D01*
%LPC*%
G54D17*
X32325Y-19600D03*
G54D18*
X32325Y-18600D03*
X32325Y-17600D03*
X32325Y-16600D03*
X32325Y-15600D03*
X32325Y-14600D03*
G54D17*
X34075Y-19600D03*
G54D18*
X34075Y-18600D03*
X34075Y-17600D03*
X34075Y-16600D03*
X34075Y-15600D03*
X34075Y-14600D03*
G54D19*
X18400Y-17950D03*
X18400Y-18700D03*
G54D20*
X26325Y-19600D03*
X27325Y-19600D03*
G54D21*
X17475Y-17906D03*
X16975Y-17906D03*
X16475Y-17906D03*
X15975Y-17906D03*
X15475Y-17906D03*
X14975Y-17906D03*
X14475Y-17906D03*
X13975Y-17906D03*
X13975Y-14244D03*
X14475Y-14244D03*
X14975Y-14244D03*
X15475Y-14244D03*
X15975Y-14244D03*
X16475Y-14244D03*
X16975Y-14244D03*
X17475Y-14244D03*
G54D22*
X15975Y-13200D03*
X15175Y-13200D03*
G54D23*
X19800Y-14500D03*
X21100Y-15500D03*
X19800Y-16500D03*
X21100Y-17500D03*
G54D24*
X17450Y-10850D03*
X16450Y-12150D03*
X15450Y-10850D03*
X14450Y-12150D03*
G54D23*
X10800Y-14500D03*
X12100Y-15500D03*
X10800Y-16500D03*
X12100Y-17500D03*
G54D24*
X17450Y-19850D03*
X16450Y-21150D03*
X15450Y-19850D03*
X14450Y-21150D03*
G54D25*
X11600Y-19650D03*
X14750Y-19650D03*
G54D20*
X20675Y-13300D03*
G54D26*
X30725Y-15350D03*
X22525Y-15350D03*
G54D27*
X26625Y-15350D03*
G54D28*
X19225Y-15875D03*
X19225Y-17125D03*
X18825Y-17125D03*
X18825Y-15875D03*
G54D17*
X27325Y-21100D03*
G54D18*
X28325Y-21100D03*
X29325Y-21100D03*
X30325Y-21100D03*
X31325Y-21100D03*
X32325Y-21100D03*
G54D17*
X20325Y-21100D03*
G54D18*
X21325Y-21100D03*
X22325Y-21100D03*
X23325Y-21100D03*
X24325Y-21100D03*
X25325Y-21100D03*
G54D20*
X26325Y-21100D03*
X17475Y-18700D03*
X17350Y-21625D03*
X15875Y-18700D03*
G54D17*
X31125Y-12100D03*
G54D18*
X31125Y-13100D03*
G54D17*
X32325Y-10600D03*
G54D18*
X32325Y-11600D03*
X32325Y-12600D03*
X32325Y-13600D03*
G54D17*
X18675Y-11800D03*
G54D18*
X18675Y-10800D03*
X19675Y-11800D03*
X19675Y-10800D03*
X20675Y-11800D03*
X20675Y-10800D03*
G54D20*
X21325Y-19600D03*
X19675Y-13300D03*
X18675Y-13300D03*
X17675Y-13300D03*
X20325Y-19600D03*
X22325Y-19600D03*
X23325Y-19600D03*
X24325Y-19600D03*
X25325Y-19600D03*
G54D29*
X18725Y-21250D03*
M02*
