G04 (created by PCBNEW-RS274X (2011-12-28 BZR 3254)-stable) date 1/9/2012 3:47:47 PM*
G01*
G70*
G90*
%MOIN*%
G04 Gerber Fmt 3.4, Leading zero omitted, Abs format*
%FSLAX34Y34*%
G04 APERTURE LIST*
%ADD10C,0.006000*%
%ADD11C,0.010000*%
%ADD12R,0.059000X0.051200*%
%ADD13R,0.051200X0.059000*%
%ADD14R,0.030000X0.060000*%
%ADD15R,0.040000X0.060000*%
%ADD16R,0.060000X0.080000*%
%ADD17R,0.060000X0.060000*%
%ADD18R,0.051200X0.041300*%
%ADD19R,0.059100X0.039400*%
%ADD20R,0.052000X0.046000*%
%ADD21R,0.056000X0.042000*%
%ADD22R,0.042000X0.056000*%
%ADD23R,0.120000X0.064000*%
%ADD24R,0.040000X0.050000*%
%ADD25R,0.017700X0.078700*%
%ADD26R,0.078700X0.017700*%
%ADD27R,0.031500X0.047200*%
%ADD28R,0.045300X0.023600*%
%ADD29R,0.019700X0.061000*%
G04 APERTURE END LIST*
G54D10*
G54D11*
X10000Y-10000D02*
X34000Y-10000D01*
X34000Y-22000D02*
X10000Y-22000D01*
X34000Y-10000D02*
X34000Y-22000D01*
X10000Y-22000D02*
X10000Y-10000D01*
G54D12*
X16325Y-13150D03*
X16325Y-13900D03*
X15325Y-13150D03*
X15325Y-13900D03*
X15325Y-12325D03*
X15325Y-11575D03*
G54D13*
X26775Y-17750D03*
X26025Y-17750D03*
G54D12*
X31325Y-18975D03*
X31325Y-19725D03*
X30275Y-18975D03*
X30275Y-19725D03*
G54D13*
X25000Y-11925D03*
X25750Y-11925D03*
X26625Y-11925D03*
X27375Y-11925D03*
G54D14*
X12625Y-15350D03*
X12192Y-15350D03*
X11759Y-15350D03*
X11326Y-15350D03*
X10893Y-15350D03*
X13058Y-15350D03*
X13491Y-15350D03*
X13924Y-15350D03*
X14357Y-15350D03*
G54D15*
X10363Y-15586D03*
G54D16*
X10499Y-19434D03*
G54D15*
X16562Y-19434D03*
G54D17*
X16240Y-15504D03*
G54D18*
X22475Y-12450D03*
X21575Y-13200D03*
X22475Y-13200D03*
X21575Y-12450D03*
G54D19*
X19425Y-19375D03*
X17375Y-19375D03*
X17375Y-20075D03*
X19425Y-20075D03*
G54D20*
X31075Y-10975D03*
X30275Y-10975D03*
G54D21*
X22725Y-10950D03*
X22725Y-11750D03*
X23775Y-11750D03*
X23775Y-10950D03*
G54D22*
X26050Y-13700D03*
X26850Y-13700D03*
X29500Y-13675D03*
X28700Y-13675D03*
X28625Y-10975D03*
X29425Y-10975D03*
X26800Y-16750D03*
X26000Y-16750D03*
G54D21*
X17825Y-16925D03*
X17825Y-16125D03*
X25050Y-14400D03*
X25050Y-13600D03*
G54D23*
X29825Y-15400D03*
X28025Y-15425D03*
G54D24*
X27400Y-10975D03*
X26600Y-10975D03*
X25775Y-10975D03*
X24975Y-10975D03*
G54D25*
X21423Y-14716D03*
X21738Y-14716D03*
X22053Y-14716D03*
X22368Y-14716D03*
X22682Y-14716D03*
X22997Y-14716D03*
X23312Y-14716D03*
X23627Y-14716D03*
X23627Y-17984D03*
X21423Y-17984D03*
X21738Y-17984D03*
X22053Y-17984D03*
X22368Y-17984D03*
X22682Y-17984D03*
X22997Y-17984D03*
X23312Y-17984D03*
G54D26*
X24159Y-15248D03*
X24159Y-15563D03*
X24159Y-15878D03*
X24159Y-16193D03*
X24159Y-16507D03*
X24159Y-16822D03*
X24159Y-17137D03*
X24159Y-17452D03*
X20891Y-15248D03*
X20891Y-15563D03*
X20891Y-15878D03*
X20891Y-16193D03*
X20891Y-16507D03*
X20891Y-16822D03*
X20891Y-17137D03*
X20891Y-17452D03*
G54D27*
X26825Y-14825D03*
X26450Y-15775D03*
X26075Y-14825D03*
G54D28*
X29575Y-12725D03*
X29575Y-11975D03*
X29575Y-12350D03*
X28525Y-11975D03*
X28525Y-12725D03*
G54D29*
X11325Y-13550D03*
X11825Y-13550D03*
X12325Y-13550D03*
X12825Y-13550D03*
X13325Y-13550D03*
X13825Y-13550D03*
X14325Y-13550D03*
X14325Y-11450D03*
X13825Y-11450D03*
X13325Y-11450D03*
X12825Y-11450D03*
X12325Y-11450D03*
X11825Y-11450D03*
X11325Y-11450D03*
M02*
