G04 (created by PCBNEW-RS274X (2011-12-28 BZR 3254)-stable) date 2/20/2012 3:16:05 PM*
G01*
G70*
G90*
%MOIN*%
G04 Gerber Fmt 3.4, Leading zero omitted, Abs format*
%FSLAX34Y34*%
G04 APERTURE LIST*
%ADD10C,0.006000*%
%ADD11C,0.015000*%
%ADD12C,0.005000*%
%ADD13C,0.003000*%
%ADD14C,0.004000*%
%ADD15C,0.010000*%
%ADD16R,0.090000X0.090000*%
%ADD17C,0.090000*%
%ADD18R,0.039700X0.081000*%
%ADD19C,0.060000*%
%ADD20R,0.065300X0.043600*%
%ADD21R,0.051500X0.067200*%
%ADD22R,0.037700X0.098700*%
%ADD23R,0.098700X0.037700*%
%ADD24R,0.060000X0.070000*%
%ADD25R,0.140000X0.084000*%
%ADD26R,0.076000X0.062000*%
%ADD27R,0.062000X0.076000*%
%ADD28R,0.079100X0.059400*%
%ADD29R,0.071200X0.061300*%
%ADD30R,0.050000X0.080000*%
%ADD31R,0.060000X0.080000*%
%ADD32R,0.080000X0.100000*%
%ADD33R,0.080000X0.080000*%
%ADD34C,0.065000*%
%ADD35R,0.050000X0.060000*%
%ADD36R,0.071200X0.079000*%
%ADD37R,0.079000X0.071200*%
%ADD38C,0.140000*%
G04 APERTURE END LIST*
G54D10*
G54D11*
X34040Y-21060D02*
X33960Y-21060D01*
X34040Y-21160D02*
X34040Y-21060D01*
X33840Y-21160D02*
X34040Y-21160D01*
X33840Y-20940D02*
X33840Y-21160D01*
X34160Y-20940D02*
X33840Y-20940D01*
X34160Y-21280D02*
X34160Y-20940D01*
X33720Y-21280D02*
X34160Y-21280D01*
X33720Y-20820D02*
X33720Y-21280D01*
X34280Y-20820D02*
X33720Y-20820D01*
X34280Y-21400D02*
X34280Y-20820D01*
X33600Y-21400D02*
X34280Y-21400D01*
X33600Y-20700D02*
X33600Y-21400D01*
X34400Y-20700D02*
X33600Y-20700D01*
X34400Y-21520D02*
X34400Y-20700D01*
X33480Y-21520D02*
X34400Y-21520D01*
X33480Y-20580D02*
X33480Y-21520D01*
X34520Y-20580D02*
X33480Y-20580D01*
X34520Y-21640D02*
X34520Y-20580D01*
X33360Y-21640D02*
X34520Y-21640D01*
X33360Y-20460D02*
X33360Y-21640D01*
X34640Y-20460D02*
X33360Y-20460D01*
X34640Y-21760D02*
X34640Y-20460D01*
X33240Y-21760D02*
X34640Y-21760D01*
X33240Y-20340D02*
X33240Y-21760D01*
X34760Y-20340D02*
X33240Y-20340D01*
X34760Y-21760D02*
X34760Y-20340D01*
X34880Y-21880D02*
X34880Y-21860D01*
X33120Y-21880D02*
X34880Y-21880D01*
X33120Y-20220D02*
X33120Y-21880D01*
X34880Y-20220D02*
X33120Y-20220D01*
X34880Y-21880D02*
X34880Y-20220D01*
G54D12*
X21016Y-20226D02*
X21170Y-20226D01*
X21087Y-20321D01*
X21123Y-20321D01*
X21147Y-20333D01*
X21159Y-20345D01*
X21170Y-20369D01*
X21170Y-20429D01*
X21159Y-20452D01*
X21147Y-20464D01*
X21123Y-20476D01*
X21051Y-20476D01*
X21028Y-20464D01*
X21016Y-20452D01*
X21242Y-20226D02*
X21325Y-20476D01*
X21408Y-20226D01*
X21468Y-20226D02*
X21622Y-20226D01*
X21539Y-20321D01*
X21575Y-20321D01*
X21599Y-20333D01*
X21611Y-20345D01*
X21622Y-20369D01*
X21622Y-20429D01*
X21611Y-20452D01*
X21599Y-20464D01*
X21575Y-20476D01*
X21503Y-20476D01*
X21480Y-20464D01*
X21468Y-20452D01*
G54D13*
X16564Y-21826D02*
X16422Y-21826D01*
X16493Y-21826D02*
X16493Y-21576D01*
X16469Y-21612D01*
X16445Y-21636D01*
X16422Y-21648D01*
X16672Y-21826D02*
X16672Y-21576D01*
X16672Y-21695D02*
X16814Y-21695D01*
X16814Y-21826D02*
X16814Y-21576D01*
X16910Y-21660D02*
X17041Y-21660D01*
X16910Y-21826D01*
X17041Y-21826D01*
X16700Y-21226D02*
X16700Y-20976D01*
X16795Y-21226D02*
X16795Y-20976D01*
X16909Y-21226D01*
X16909Y-20976D01*
X16976Y-20976D02*
X17090Y-20976D01*
X17033Y-21226D02*
X17033Y-20976D01*
X17299Y-20964D02*
X17128Y-21286D01*
X17357Y-21214D02*
X17386Y-21226D01*
X17433Y-21226D01*
X17452Y-21214D01*
X17462Y-21202D01*
X17471Y-21179D01*
X17471Y-21155D01*
X17462Y-21131D01*
X17452Y-21119D01*
X17433Y-21107D01*
X17395Y-21095D01*
X17376Y-21083D01*
X17367Y-21071D01*
X17357Y-21048D01*
X17357Y-21024D01*
X17367Y-21000D01*
X17376Y-20988D01*
X17395Y-20976D01*
X17443Y-20976D01*
X17471Y-20988D01*
X17690Y-21250D02*
X17671Y-21238D01*
X17652Y-21214D01*
X17623Y-21179D01*
X17604Y-21167D01*
X17585Y-21167D01*
X17595Y-21226D02*
X17576Y-21214D01*
X17557Y-21190D01*
X17547Y-21143D01*
X17547Y-21060D01*
X17557Y-21012D01*
X17576Y-20988D01*
X17595Y-20976D01*
X17633Y-20976D01*
X17652Y-20988D01*
X17671Y-21012D01*
X17680Y-21060D01*
X17680Y-21143D01*
X17671Y-21190D01*
X17652Y-21214D01*
X17633Y-21226D01*
X17595Y-21226D01*
X17748Y-20976D02*
X17795Y-21226D01*
X17833Y-21048D01*
X17871Y-21226D01*
X17919Y-20976D01*
G54D14*
X23991Y-19176D02*
X23991Y-18926D01*
X24086Y-18926D01*
X24110Y-18938D01*
X24121Y-18950D01*
X24133Y-18974D01*
X24133Y-19010D01*
X24121Y-19033D01*
X24110Y-19045D01*
X24086Y-19057D01*
X23991Y-19057D01*
X24383Y-19152D02*
X24371Y-19164D01*
X24336Y-19176D01*
X24312Y-19176D01*
X24276Y-19164D01*
X24252Y-19140D01*
X24241Y-19117D01*
X24229Y-19069D01*
X24229Y-19033D01*
X24241Y-18986D01*
X24252Y-18962D01*
X24276Y-18938D01*
X24312Y-18926D01*
X24336Y-18926D01*
X24371Y-18938D01*
X24383Y-18950D01*
X24479Y-18950D02*
X24491Y-18938D01*
X24514Y-18926D01*
X24574Y-18926D01*
X24598Y-18938D01*
X24610Y-18950D01*
X24621Y-18974D01*
X24621Y-18998D01*
X24610Y-19033D01*
X24467Y-19176D01*
X24621Y-19176D01*
X22991Y-19176D02*
X22991Y-18926D01*
X23086Y-18926D01*
X23110Y-18938D01*
X23121Y-18950D01*
X23133Y-18974D01*
X23133Y-19010D01*
X23121Y-19033D01*
X23110Y-19045D01*
X23086Y-19057D01*
X22991Y-19057D01*
X23383Y-19152D02*
X23371Y-19164D01*
X23336Y-19176D01*
X23312Y-19176D01*
X23276Y-19164D01*
X23252Y-19140D01*
X23241Y-19117D01*
X23229Y-19069D01*
X23229Y-19033D01*
X23241Y-18986D01*
X23252Y-18962D01*
X23276Y-18938D01*
X23312Y-18926D01*
X23336Y-18926D01*
X23371Y-18938D01*
X23383Y-18950D01*
X23621Y-19176D02*
X23479Y-19176D01*
X23550Y-19176D02*
X23550Y-18926D01*
X23526Y-18962D01*
X23502Y-18986D01*
X23479Y-18998D01*
X21991Y-19176D02*
X21991Y-18926D01*
X22086Y-18926D01*
X22110Y-18938D01*
X22121Y-18950D01*
X22133Y-18974D01*
X22133Y-19010D01*
X22121Y-19033D01*
X22110Y-19045D01*
X22086Y-19057D01*
X21991Y-19057D01*
X22383Y-19152D02*
X22371Y-19164D01*
X22336Y-19176D01*
X22312Y-19176D01*
X22276Y-19164D01*
X22252Y-19140D01*
X22241Y-19117D01*
X22229Y-19069D01*
X22229Y-19033D01*
X22241Y-18986D01*
X22252Y-18962D01*
X22276Y-18938D01*
X22312Y-18926D01*
X22336Y-18926D01*
X22371Y-18938D01*
X22383Y-18950D01*
X22538Y-18926D02*
X22562Y-18926D01*
X22586Y-18938D01*
X22598Y-18950D01*
X22610Y-18974D01*
X22621Y-19021D01*
X22621Y-19081D01*
X22610Y-19129D01*
X22598Y-19152D01*
X22586Y-19164D01*
X22562Y-19176D01*
X22538Y-19176D01*
X22514Y-19164D01*
X22502Y-19152D01*
X22491Y-19129D01*
X22479Y-19081D01*
X22479Y-19021D01*
X22491Y-18974D01*
X22502Y-18950D01*
X22514Y-18938D01*
X22538Y-18926D01*
X21291Y-18805D02*
X21410Y-18805D01*
X21267Y-18876D02*
X21350Y-18626D01*
X21433Y-18876D01*
X21517Y-18876D02*
X21517Y-18626D01*
X21576Y-18626D01*
X21612Y-18638D01*
X21636Y-18662D01*
X21647Y-18686D01*
X21659Y-18733D01*
X21659Y-18769D01*
X21647Y-18817D01*
X21636Y-18840D01*
X21612Y-18864D01*
X21576Y-18876D01*
X21517Y-18876D01*
X21909Y-18852D02*
X21897Y-18864D01*
X21862Y-18876D01*
X21838Y-18876D01*
X21802Y-18864D01*
X21778Y-18840D01*
X21767Y-18817D01*
X21755Y-18769D01*
X21755Y-18733D01*
X21767Y-18686D01*
X21778Y-18662D01*
X21802Y-18638D01*
X21838Y-18626D01*
X21862Y-18626D01*
X21897Y-18638D01*
X21909Y-18650D01*
X21517Y-19016D02*
X21683Y-19016D01*
X21576Y-19266D01*
X20366Y-18830D02*
X20485Y-18830D01*
X20342Y-18901D02*
X20425Y-18651D01*
X20508Y-18901D01*
X20592Y-18901D02*
X20592Y-18651D01*
X20651Y-18651D01*
X20687Y-18663D01*
X20711Y-18687D01*
X20722Y-18711D01*
X20734Y-18758D01*
X20734Y-18794D01*
X20722Y-18842D01*
X20711Y-18865D01*
X20687Y-18889D01*
X20651Y-18901D01*
X20592Y-18901D01*
X20984Y-18877D02*
X20972Y-18889D01*
X20937Y-18901D01*
X20913Y-18901D01*
X20877Y-18889D01*
X20853Y-18865D01*
X20842Y-18842D01*
X20830Y-18794D01*
X20830Y-18758D01*
X20842Y-18711D01*
X20853Y-18687D01*
X20877Y-18663D01*
X20913Y-18651D01*
X20937Y-18651D01*
X20972Y-18663D01*
X20984Y-18675D01*
X20723Y-19041D02*
X20675Y-19041D01*
X20651Y-19053D01*
X20639Y-19065D01*
X20616Y-19101D01*
X20604Y-19148D01*
X20604Y-19244D01*
X20616Y-19267D01*
X20627Y-19279D01*
X20651Y-19291D01*
X20699Y-19291D01*
X20723Y-19279D01*
X20735Y-19267D01*
X20746Y-19244D01*
X20746Y-19184D01*
X20735Y-19160D01*
X20723Y-19148D01*
X20699Y-19136D01*
X20651Y-19136D01*
X20627Y-19148D01*
X20616Y-19160D01*
X20604Y-19184D01*
X17366Y-12876D02*
X17366Y-12626D01*
X17461Y-12626D01*
X17485Y-12638D01*
X17496Y-12650D01*
X17508Y-12674D01*
X17508Y-12710D01*
X17496Y-12733D01*
X17485Y-12745D01*
X17461Y-12757D01*
X17366Y-12757D01*
X17616Y-12876D02*
X17616Y-12626D01*
X17675Y-12626D01*
X17711Y-12638D01*
X17735Y-12662D01*
X17746Y-12686D01*
X17758Y-12733D01*
X17758Y-12769D01*
X17746Y-12817D01*
X17735Y-12840D01*
X17711Y-12864D01*
X17675Y-12876D01*
X17616Y-12876D01*
X17842Y-12626D02*
X18008Y-12626D01*
X17901Y-12876D01*
X18391Y-12876D02*
X18391Y-12626D01*
X18486Y-12626D01*
X18510Y-12638D01*
X18521Y-12650D01*
X18533Y-12674D01*
X18533Y-12710D01*
X18521Y-12733D01*
X18510Y-12745D01*
X18486Y-12757D01*
X18391Y-12757D01*
X18641Y-12876D02*
X18641Y-12626D01*
X18700Y-12626D01*
X18736Y-12638D01*
X18760Y-12662D01*
X18771Y-12686D01*
X18783Y-12733D01*
X18783Y-12769D01*
X18771Y-12817D01*
X18760Y-12840D01*
X18736Y-12864D01*
X18700Y-12876D01*
X18641Y-12876D01*
X18998Y-12626D02*
X18950Y-12626D01*
X18926Y-12638D01*
X18914Y-12650D01*
X18891Y-12686D01*
X18879Y-12733D01*
X18879Y-12829D01*
X18891Y-12852D01*
X18902Y-12864D01*
X18926Y-12876D01*
X18974Y-12876D01*
X18998Y-12864D01*
X19010Y-12852D01*
X19021Y-12829D01*
X19021Y-12769D01*
X19010Y-12745D01*
X18998Y-12733D01*
X18974Y-12721D01*
X18926Y-12721D01*
X18902Y-12733D01*
X18891Y-12745D01*
X18879Y-12769D01*
X19366Y-12876D02*
X19366Y-12626D01*
X19461Y-12626D01*
X19485Y-12638D01*
X19496Y-12650D01*
X19508Y-12674D01*
X19508Y-12710D01*
X19496Y-12733D01*
X19485Y-12745D01*
X19461Y-12757D01*
X19366Y-12757D01*
X19616Y-12876D02*
X19616Y-12626D01*
X19675Y-12626D01*
X19711Y-12638D01*
X19735Y-12662D01*
X19746Y-12686D01*
X19758Y-12733D01*
X19758Y-12769D01*
X19746Y-12817D01*
X19735Y-12840D01*
X19711Y-12864D01*
X19675Y-12876D01*
X19616Y-12876D01*
X19985Y-12626D02*
X19866Y-12626D01*
X19854Y-12745D01*
X19866Y-12733D01*
X19889Y-12721D01*
X19949Y-12721D01*
X19973Y-12733D01*
X19985Y-12745D01*
X19996Y-12769D01*
X19996Y-12829D01*
X19985Y-12852D01*
X19973Y-12864D01*
X19949Y-12876D01*
X19889Y-12876D01*
X19866Y-12864D01*
X19854Y-12852D01*
X20366Y-12876D02*
X20366Y-12626D01*
X20461Y-12626D01*
X20485Y-12638D01*
X20496Y-12650D01*
X20508Y-12674D01*
X20508Y-12710D01*
X20496Y-12733D01*
X20485Y-12745D01*
X20461Y-12757D01*
X20366Y-12757D01*
X20616Y-12876D02*
X20616Y-12626D01*
X20675Y-12626D01*
X20711Y-12638D01*
X20735Y-12662D01*
X20746Y-12686D01*
X20758Y-12733D01*
X20758Y-12769D01*
X20746Y-12817D01*
X20735Y-12840D01*
X20711Y-12864D01*
X20675Y-12876D01*
X20616Y-12876D01*
X20973Y-12710D02*
X20973Y-12876D01*
X20913Y-12614D02*
X20854Y-12793D01*
X21008Y-12793D01*
X21347Y-11021D02*
X21276Y-11021D01*
X21276Y-10593D01*
X21347Y-10593D01*
X21461Y-10807D02*
X21690Y-10807D01*
X21804Y-11021D02*
X21875Y-11021D01*
X21875Y-10593D01*
X21804Y-10593D01*
X17547Y-10996D02*
X17476Y-10996D01*
X17476Y-10568D01*
X17547Y-10568D01*
X17661Y-10782D02*
X17890Y-10782D01*
X17776Y-10896D02*
X17776Y-10668D01*
X18004Y-10996D02*
X18075Y-10996D01*
X18075Y-10568D01*
X18004Y-10568D01*
G54D15*
X18300Y-17475D02*
X20375Y-17475D01*
X18300Y-15525D02*
X18300Y-17475D01*
X20400Y-15525D02*
X18300Y-15525D01*
G54D14*
X32986Y-13725D02*
X32971Y-13748D01*
X32971Y-13784D01*
X32986Y-13820D01*
X33014Y-13844D01*
X33043Y-13855D01*
X33100Y-13867D01*
X33143Y-13867D01*
X33200Y-13855D01*
X33229Y-13844D01*
X33257Y-13820D01*
X33271Y-13784D01*
X33271Y-13760D01*
X33257Y-13725D01*
X33243Y-13713D01*
X33143Y-13713D01*
X33143Y-13760D01*
X33271Y-13605D02*
X32971Y-13605D01*
X33271Y-13463D01*
X32971Y-13463D01*
X33271Y-13343D02*
X32971Y-13343D01*
X32971Y-13284D01*
X32986Y-13248D01*
X33014Y-13224D01*
X33043Y-13213D01*
X33100Y-13201D01*
X33143Y-13201D01*
X33200Y-13213D01*
X33229Y-13224D01*
X33257Y-13248D01*
X33271Y-13284D01*
X33271Y-13343D01*
X33371Y-13034D02*
X32943Y-13034D01*
X33257Y-12867D02*
X33271Y-12832D01*
X33271Y-12772D01*
X33257Y-12748D01*
X33243Y-12736D01*
X33214Y-12725D01*
X33186Y-12725D01*
X33157Y-12736D01*
X33143Y-12748D01*
X33129Y-12772D01*
X33114Y-12820D01*
X33100Y-12844D01*
X33086Y-12855D01*
X33057Y-12867D01*
X33029Y-12867D01*
X33000Y-12855D01*
X32986Y-12844D01*
X32971Y-12820D01*
X32971Y-12760D01*
X32986Y-12725D01*
X33271Y-12617D02*
X32971Y-12617D01*
X32971Y-12558D01*
X32986Y-12522D01*
X33014Y-12498D01*
X33043Y-12487D01*
X33100Y-12475D01*
X33143Y-12475D01*
X33200Y-12487D01*
X33229Y-12498D01*
X33257Y-12522D01*
X33271Y-12558D01*
X33271Y-12617D01*
X33186Y-12379D02*
X33186Y-12260D01*
X33271Y-12403D02*
X32971Y-12320D01*
X33271Y-12237D01*
X33371Y-12094D02*
X32943Y-12094D01*
X33257Y-11927D02*
X33271Y-11892D01*
X33271Y-11832D01*
X33257Y-11808D01*
X33243Y-11796D01*
X33214Y-11785D01*
X33186Y-11785D01*
X33157Y-11796D01*
X33143Y-11808D01*
X33129Y-11832D01*
X33114Y-11880D01*
X33100Y-11904D01*
X33086Y-11915D01*
X33057Y-11927D01*
X33029Y-11927D01*
X33000Y-11915D01*
X32986Y-11904D01*
X32971Y-11880D01*
X32971Y-11820D01*
X32986Y-11785D01*
X33243Y-11535D02*
X33257Y-11547D01*
X33271Y-11582D01*
X33271Y-11606D01*
X33257Y-11642D01*
X33229Y-11666D01*
X33200Y-11677D01*
X33143Y-11689D01*
X33100Y-11689D01*
X33043Y-11677D01*
X33014Y-11666D01*
X32986Y-11642D01*
X32971Y-11606D01*
X32971Y-11582D01*
X32986Y-11547D01*
X33000Y-11535D01*
X33271Y-11308D02*
X33271Y-11427D01*
X32971Y-11427D01*
X33371Y-11166D02*
X32943Y-11166D01*
X33157Y-10987D02*
X33157Y-10797D01*
X33271Y-10892D02*
X33043Y-10892D01*
X32971Y-10558D02*
X32971Y-10677D01*
X33114Y-10689D01*
X33100Y-10677D01*
X33086Y-10654D01*
X33086Y-10594D01*
X33100Y-10570D01*
X33114Y-10558D01*
X33143Y-10547D01*
X33214Y-10547D01*
X33243Y-10558D01*
X33257Y-10570D01*
X33271Y-10594D01*
X33271Y-10654D01*
X33257Y-10677D01*
X33243Y-10689D01*
X32971Y-10475D02*
X33271Y-10392D01*
X32971Y-10309D01*
X22696Y-21901D02*
X22696Y-21744D01*
X22682Y-21716D01*
X22653Y-21701D01*
X22596Y-21701D01*
X22567Y-21716D01*
X22696Y-21887D02*
X22667Y-21901D01*
X22596Y-21901D01*
X22567Y-21887D01*
X22553Y-21859D01*
X22553Y-21830D01*
X22567Y-21801D01*
X22596Y-21787D01*
X22667Y-21787D01*
X22696Y-21773D01*
X22838Y-21901D02*
X22838Y-21701D01*
X22838Y-21759D02*
X22853Y-21730D01*
X22867Y-21716D01*
X22896Y-21701D01*
X22924Y-21701D01*
X23153Y-21901D02*
X23153Y-21601D01*
X23153Y-21887D02*
X23124Y-21901D01*
X23067Y-21901D01*
X23039Y-21887D01*
X23024Y-21873D01*
X23010Y-21844D01*
X23010Y-21759D01*
X23024Y-21730D01*
X23039Y-21716D01*
X23067Y-21701D01*
X23124Y-21701D01*
X23153Y-21716D01*
X23424Y-21701D02*
X23424Y-21901D01*
X23295Y-21701D02*
X23295Y-21859D01*
X23310Y-21887D01*
X23338Y-21901D01*
X23381Y-21901D01*
X23410Y-21887D01*
X23424Y-21873D01*
X23566Y-21701D02*
X23566Y-21901D01*
X23566Y-21730D02*
X23581Y-21716D01*
X23609Y-21701D01*
X23652Y-21701D01*
X23681Y-21716D01*
X23695Y-21744D01*
X23695Y-21901D01*
X23837Y-21901D02*
X23837Y-21701D01*
X23837Y-21601D02*
X23823Y-21616D01*
X23837Y-21630D01*
X23852Y-21616D01*
X23837Y-21601D01*
X23837Y-21630D01*
X24023Y-21901D02*
X23995Y-21887D01*
X23980Y-21873D01*
X23966Y-21844D01*
X23966Y-21759D01*
X23980Y-21730D01*
X23995Y-21716D01*
X24023Y-21701D01*
X24066Y-21701D01*
X24095Y-21716D01*
X24109Y-21730D01*
X24123Y-21759D01*
X24123Y-21844D01*
X24109Y-21873D01*
X24095Y-21887D01*
X24066Y-21901D01*
X24023Y-21901D01*
X24480Y-21901D02*
X24480Y-21601D01*
X24480Y-21716D02*
X24509Y-21701D01*
X24566Y-21701D01*
X24595Y-21716D01*
X24609Y-21730D01*
X24623Y-21759D01*
X24623Y-21844D01*
X24609Y-21873D01*
X24595Y-21887D01*
X24566Y-21901D01*
X24509Y-21901D01*
X24480Y-21887D01*
X24880Y-21701D02*
X24880Y-21901D01*
X24751Y-21701D02*
X24751Y-21859D01*
X24766Y-21887D01*
X24794Y-21901D01*
X24837Y-21901D01*
X24866Y-21887D01*
X24880Y-21873D01*
X25151Y-21887D02*
X25122Y-21901D01*
X25065Y-21901D01*
X25037Y-21887D01*
X25022Y-21873D01*
X25008Y-21844D01*
X25008Y-21759D01*
X25022Y-21730D01*
X25037Y-21716D01*
X25065Y-21701D01*
X25122Y-21701D01*
X25151Y-21716D01*
X25279Y-21901D02*
X25279Y-21601D01*
X25308Y-21787D02*
X25394Y-21901D01*
X25394Y-21701D02*
X25279Y-21816D01*
X25565Y-21901D02*
X25537Y-21887D01*
X25522Y-21859D01*
X25522Y-21601D01*
X25794Y-21887D02*
X25765Y-21901D01*
X25708Y-21901D01*
X25679Y-21887D01*
X25665Y-21859D01*
X25665Y-21744D01*
X25679Y-21716D01*
X25708Y-21701D01*
X25765Y-21701D01*
X25794Y-21716D01*
X25808Y-21744D01*
X25808Y-21773D01*
X25665Y-21801D01*
X25936Y-21901D02*
X25936Y-21701D01*
X25936Y-21759D02*
X25951Y-21730D01*
X25965Y-21716D01*
X25994Y-21701D01*
X26022Y-21701D01*
X26351Y-21901D02*
X26351Y-21701D01*
X26351Y-21601D02*
X26337Y-21616D01*
X26351Y-21630D01*
X26366Y-21616D01*
X26351Y-21601D01*
X26351Y-21630D01*
X26494Y-21701D02*
X26494Y-21901D01*
X26494Y-21730D02*
X26509Y-21716D01*
X26537Y-21701D01*
X26580Y-21701D01*
X26609Y-21716D01*
X26623Y-21744D01*
X26623Y-21901D01*
X26723Y-21701D02*
X26837Y-21701D01*
X26765Y-21601D02*
X26765Y-21859D01*
X26780Y-21887D01*
X26808Y-21901D01*
X26837Y-21901D01*
X27051Y-21887D02*
X27022Y-21901D01*
X26965Y-21901D01*
X26936Y-21887D01*
X26922Y-21859D01*
X26922Y-21744D01*
X26936Y-21716D01*
X26965Y-21701D01*
X27022Y-21701D01*
X27051Y-21716D01*
X27065Y-21744D01*
X27065Y-21773D01*
X26922Y-21801D01*
X27193Y-21901D02*
X27193Y-21701D01*
X27193Y-21759D02*
X27208Y-21730D01*
X27222Y-21716D01*
X27251Y-21701D01*
X27279Y-21701D01*
X27337Y-21701D02*
X27451Y-21701D01*
X27379Y-21901D02*
X27379Y-21644D01*
X27394Y-21616D01*
X27422Y-21601D01*
X27451Y-21601D01*
X27679Y-21901D02*
X27679Y-21744D01*
X27665Y-21716D01*
X27636Y-21701D01*
X27579Y-21701D01*
X27550Y-21716D01*
X27679Y-21887D02*
X27650Y-21901D01*
X27579Y-21901D01*
X27550Y-21887D01*
X27536Y-21859D01*
X27536Y-21830D01*
X27550Y-21801D01*
X27579Y-21787D01*
X27650Y-21787D01*
X27679Y-21773D01*
X27950Y-21887D02*
X27921Y-21901D01*
X27864Y-21901D01*
X27836Y-21887D01*
X27821Y-21873D01*
X27807Y-21844D01*
X27807Y-21759D01*
X27821Y-21730D01*
X27836Y-21716D01*
X27864Y-21701D01*
X27921Y-21701D01*
X27950Y-21716D01*
X28193Y-21887D02*
X28164Y-21901D01*
X28107Y-21901D01*
X28078Y-21887D01*
X28064Y-21859D01*
X28064Y-21744D01*
X28078Y-21716D01*
X28107Y-21701D01*
X28164Y-21701D01*
X28193Y-21716D01*
X28207Y-21744D01*
X28207Y-21773D01*
X28064Y-21801D01*
G54D15*
X27825Y-18750D02*
X27825Y-20050D01*
X24825Y-18750D02*
X24825Y-20050D01*
G54D12*
X25426Y-19171D02*
X25426Y-18871D01*
X25491Y-18871D01*
X25529Y-18886D01*
X25555Y-18914D01*
X25568Y-18943D01*
X25581Y-19000D01*
X25581Y-19043D01*
X25568Y-19100D01*
X25555Y-19129D01*
X25529Y-19157D01*
X25491Y-19171D01*
X25426Y-19171D01*
X25967Y-19271D02*
X25967Y-18843D01*
X26365Y-19057D02*
X26571Y-19057D01*
X26970Y-19271D02*
X26970Y-18843D01*
X27368Y-19057D02*
X27574Y-19057D01*
X27471Y-19171D02*
X27471Y-18943D01*
X28050Y-19271D02*
X28050Y-18971D01*
X28365Y-19271D02*
X28265Y-19129D01*
X28193Y-19271D02*
X28193Y-18971D01*
X28308Y-18971D01*
X28336Y-18986D01*
X28351Y-19000D01*
X28365Y-19029D01*
X28365Y-19071D01*
X28351Y-19100D01*
X28336Y-19114D01*
X28308Y-19129D01*
X28193Y-19129D01*
X28172Y-19741D02*
X28072Y-19599D01*
X28000Y-19741D02*
X28000Y-19441D01*
X28115Y-19441D01*
X28143Y-19456D01*
X28158Y-19470D01*
X28172Y-19499D01*
X28172Y-19541D01*
X28158Y-19570D01*
X28143Y-19584D01*
X28115Y-19599D01*
X28000Y-19599D01*
X28272Y-19741D02*
X28429Y-19541D01*
X28272Y-19541D02*
X28429Y-19741D01*
G54D15*
X27825Y-20050D02*
X24825Y-20050D01*
X24825Y-18750D02*
X27825Y-18750D01*
G54D10*
X11774Y-10737D02*
X11774Y-10337D01*
X11945Y-10375D02*
X11964Y-10356D01*
X12002Y-10337D01*
X12098Y-10337D01*
X12136Y-10356D01*
X12155Y-10375D01*
X12174Y-10413D01*
X12174Y-10451D01*
X12155Y-10508D01*
X11926Y-10737D01*
X12174Y-10737D01*
X12326Y-10718D02*
X12383Y-10737D01*
X12479Y-10737D01*
X12517Y-10718D01*
X12536Y-10699D01*
X12555Y-10661D01*
X12555Y-10623D01*
X12536Y-10585D01*
X12517Y-10565D01*
X12479Y-10546D01*
X12402Y-10527D01*
X12364Y-10508D01*
X12345Y-10489D01*
X12326Y-10451D01*
X12326Y-10413D01*
X12345Y-10375D01*
X12364Y-10356D01*
X12402Y-10337D01*
X12498Y-10337D01*
X12555Y-10356D01*
X12726Y-10737D02*
X12726Y-10337D01*
X12821Y-10337D01*
X12879Y-10356D01*
X12917Y-10394D01*
X12936Y-10432D01*
X12955Y-10508D01*
X12955Y-10565D01*
X12936Y-10642D01*
X12917Y-10680D01*
X12879Y-10718D01*
X12821Y-10737D01*
X12726Y-10737D01*
X13031Y-10775D02*
X13336Y-10775D01*
X13393Y-10470D02*
X13488Y-10737D01*
X13584Y-10470D01*
X13698Y-10337D02*
X13946Y-10337D01*
X13812Y-10489D01*
X13870Y-10489D01*
X13908Y-10508D01*
X13927Y-10527D01*
X13946Y-10565D01*
X13946Y-10661D01*
X13927Y-10699D01*
X13908Y-10718D01*
X13870Y-10737D01*
X13755Y-10737D01*
X13717Y-10718D01*
X13698Y-10699D01*
X30273Y-11760D02*
X30578Y-11760D01*
X30426Y-11912D02*
X30426Y-11607D01*
X30973Y-10310D02*
X31278Y-10310D01*
X31126Y-10462D02*
X31126Y-10157D01*
G54D14*
X18452Y-16771D02*
X18452Y-16471D01*
X18452Y-16614D02*
X18600Y-16614D01*
X18600Y-16771D02*
X18600Y-16471D01*
X18699Y-16471D02*
X18761Y-16771D01*
X18811Y-16557D01*
X18860Y-16771D01*
X18922Y-16471D01*
X18959Y-16800D02*
X19157Y-16800D01*
X19207Y-16686D02*
X19330Y-16686D01*
X19182Y-16771D02*
X19268Y-16471D01*
X19355Y-16771D01*
X19442Y-16771D02*
X19442Y-16471D01*
X19504Y-16471D01*
X19541Y-16486D01*
X19566Y-16514D01*
X19578Y-16543D01*
X19590Y-16600D01*
X19590Y-16643D01*
X19578Y-16700D01*
X19566Y-16729D01*
X19541Y-16757D01*
X19504Y-16771D01*
X19442Y-16771D01*
X19702Y-16771D02*
X19702Y-16471D01*
X19764Y-16471D01*
X19801Y-16486D01*
X19826Y-16514D01*
X19838Y-16543D01*
X19850Y-16600D01*
X19850Y-16643D01*
X19838Y-16700D01*
X19826Y-16729D01*
X19801Y-16757D01*
X19764Y-16771D01*
X19702Y-16771D01*
X20110Y-16771D02*
X20024Y-16629D01*
X19962Y-16771D02*
X19962Y-16471D01*
X20061Y-16471D01*
X20086Y-16486D01*
X20098Y-16500D01*
X20110Y-16529D01*
X20110Y-16571D01*
X20098Y-16600D01*
X20086Y-16614D01*
X20061Y-16629D01*
X19962Y-16629D01*
X19528Y-16396D02*
X19528Y-16096D01*
X19643Y-16096D01*
X19671Y-16111D01*
X19686Y-16125D01*
X19700Y-16154D01*
X19700Y-16196D01*
X19686Y-16225D01*
X19671Y-16239D01*
X19643Y-16254D01*
X19528Y-16254D01*
X19928Y-16239D02*
X19971Y-16254D01*
X19986Y-16268D01*
X20000Y-16296D01*
X20000Y-16339D01*
X19986Y-16368D01*
X19971Y-16382D01*
X19943Y-16396D01*
X19828Y-16396D01*
X19828Y-16096D01*
X19928Y-16096D01*
X19957Y-16111D01*
X19971Y-16125D01*
X19986Y-16154D01*
X19986Y-16182D01*
X19971Y-16211D01*
X19957Y-16225D01*
X19928Y-16239D01*
X19828Y-16239D01*
X20186Y-16096D02*
X20214Y-16096D01*
X20243Y-16111D01*
X20257Y-16125D01*
X20271Y-16154D01*
X20286Y-16211D01*
X20286Y-16282D01*
X20271Y-16339D01*
X20257Y-16368D01*
X20243Y-16382D01*
X20214Y-16396D01*
X20186Y-16396D01*
X20157Y-16382D01*
X20143Y-16368D01*
X20128Y-16339D01*
X20114Y-16282D01*
X20114Y-16211D01*
X20128Y-16154D01*
X20143Y-16125D01*
X20157Y-16111D01*
X20186Y-16096D01*
X19528Y-17296D02*
X19528Y-16996D01*
X19643Y-16996D01*
X19671Y-17011D01*
X19686Y-17025D01*
X19700Y-17054D01*
X19700Y-17096D01*
X19686Y-17125D01*
X19671Y-17139D01*
X19643Y-17154D01*
X19528Y-17154D01*
X19928Y-17139D02*
X19971Y-17154D01*
X19986Y-17168D01*
X20000Y-17196D01*
X20000Y-17239D01*
X19986Y-17268D01*
X19971Y-17282D01*
X19943Y-17296D01*
X19828Y-17296D01*
X19828Y-16996D01*
X19928Y-16996D01*
X19957Y-17011D01*
X19971Y-17025D01*
X19986Y-17054D01*
X19986Y-17082D01*
X19971Y-17111D01*
X19957Y-17125D01*
X19928Y-17139D01*
X19828Y-17139D01*
X20286Y-17296D02*
X20114Y-17296D01*
X20200Y-17296D02*
X20200Y-16996D01*
X20171Y-17039D01*
X20143Y-17068D01*
X20114Y-17082D01*
G54D12*
X30492Y-20469D02*
X30527Y-20481D01*
X30587Y-20481D01*
X30611Y-20469D01*
X30623Y-20457D01*
X30634Y-20434D01*
X30634Y-20410D01*
X30623Y-20386D01*
X30611Y-20374D01*
X30587Y-20362D01*
X30539Y-20350D01*
X30515Y-20338D01*
X30504Y-20326D01*
X30492Y-20303D01*
X30492Y-20279D01*
X30504Y-20255D01*
X30515Y-20243D01*
X30539Y-20231D01*
X30599Y-20231D01*
X30634Y-20243D01*
X30742Y-20481D02*
X30742Y-20231D01*
X30801Y-20231D01*
X30837Y-20243D01*
X30861Y-20267D01*
X30872Y-20291D01*
X30884Y-20338D01*
X30884Y-20374D01*
X30872Y-20422D01*
X30861Y-20445D01*
X30837Y-20469D01*
X30801Y-20481D01*
X30742Y-20481D01*
X30980Y-20410D02*
X31099Y-20410D01*
X30956Y-20481D02*
X31039Y-20231D01*
X31122Y-20481D01*
X31206Y-20457D02*
X31217Y-20469D01*
X31206Y-20481D01*
X31194Y-20469D01*
X31206Y-20457D01*
X31206Y-20481D01*
X31313Y-20410D02*
X31432Y-20410D01*
X31289Y-20481D02*
X31372Y-20231D01*
X31455Y-20481D01*
X31646Y-20315D02*
X31646Y-20481D01*
X31586Y-20219D02*
X31527Y-20398D01*
X31681Y-20398D01*
X31838Y-20469D02*
X31873Y-20481D01*
X31933Y-20481D01*
X31957Y-20469D01*
X31969Y-20457D01*
X31980Y-20434D01*
X31980Y-20410D01*
X31969Y-20386D01*
X31957Y-20374D01*
X31933Y-20362D01*
X31885Y-20350D01*
X31861Y-20338D01*
X31850Y-20326D01*
X31838Y-20303D01*
X31838Y-20279D01*
X31850Y-20255D01*
X31861Y-20243D01*
X31885Y-20231D01*
X31945Y-20231D01*
X31980Y-20243D01*
X32230Y-20457D02*
X32218Y-20469D01*
X32183Y-20481D01*
X32159Y-20481D01*
X32123Y-20469D01*
X32099Y-20445D01*
X32088Y-20422D01*
X32076Y-20374D01*
X32076Y-20338D01*
X32088Y-20291D01*
X32099Y-20267D01*
X32123Y-20243D01*
X32159Y-20231D01*
X32183Y-20231D01*
X32218Y-20243D01*
X32230Y-20255D01*
X32457Y-20481D02*
X32338Y-20481D01*
X32338Y-20231D01*
X32540Y-20457D02*
X32551Y-20469D01*
X32540Y-20481D01*
X32528Y-20469D01*
X32540Y-20457D01*
X32540Y-20481D01*
X32647Y-20410D02*
X32766Y-20410D01*
X32623Y-20481D02*
X32706Y-20231D01*
X32789Y-20481D01*
X32992Y-20231D02*
X32873Y-20231D01*
X32861Y-20350D01*
X32873Y-20338D01*
X32896Y-20326D01*
X32956Y-20326D01*
X32980Y-20338D01*
X32992Y-20350D01*
X33003Y-20374D01*
X33003Y-20434D01*
X32992Y-20457D01*
X32980Y-20469D01*
X32956Y-20481D01*
X32896Y-20481D01*
X32873Y-20469D01*
X32861Y-20457D01*
X24134Y-20238D02*
X24111Y-20226D01*
X24075Y-20226D01*
X24039Y-20238D01*
X24015Y-20262D01*
X24004Y-20286D01*
X23992Y-20333D01*
X23992Y-20369D01*
X24004Y-20417D01*
X24015Y-20440D01*
X24039Y-20464D01*
X24075Y-20476D01*
X24099Y-20476D01*
X24134Y-20464D01*
X24146Y-20452D01*
X24146Y-20369D01*
X24099Y-20369D01*
X24254Y-20476D02*
X24254Y-20226D01*
X24396Y-20476D01*
X24396Y-20226D01*
X24516Y-20476D02*
X24516Y-20226D01*
X24575Y-20226D01*
X24611Y-20238D01*
X24635Y-20262D01*
X24646Y-20286D01*
X24658Y-20333D01*
X24658Y-20369D01*
X24646Y-20417D01*
X24635Y-20440D01*
X24611Y-20464D01*
X24575Y-20476D01*
X24516Y-20476D01*
X30439Y-15393D02*
X30210Y-15393D01*
X30324Y-15279D02*
X30324Y-15507D01*
X30222Y-14396D02*
X30279Y-14396D01*
X30307Y-14382D01*
X30322Y-14368D01*
X30350Y-14325D01*
X30365Y-14268D01*
X30365Y-14154D01*
X30350Y-14125D01*
X30336Y-14111D01*
X30307Y-14096D01*
X30250Y-14096D01*
X30222Y-14111D01*
X30207Y-14125D01*
X30193Y-14154D01*
X30193Y-14225D01*
X30207Y-14254D01*
X30222Y-14268D01*
X30250Y-14282D01*
X30307Y-14282D01*
X30336Y-14268D01*
X30350Y-14254D01*
X30365Y-14225D01*
X30451Y-14096D02*
X30551Y-14396D01*
X30651Y-14096D01*
X30850Y-14239D02*
X30893Y-14254D01*
X30908Y-14268D01*
X30922Y-14296D01*
X30922Y-14339D01*
X30908Y-14368D01*
X30893Y-14382D01*
X30865Y-14396D01*
X30750Y-14396D01*
X30750Y-14096D01*
X30850Y-14096D01*
X30879Y-14111D01*
X30893Y-14125D01*
X30908Y-14154D01*
X30908Y-14182D01*
X30893Y-14211D01*
X30879Y-14225D01*
X30850Y-14239D01*
X30750Y-14239D01*
X31036Y-14311D02*
X31179Y-14311D01*
X31008Y-14396D02*
X31108Y-14096D01*
X31208Y-14396D01*
X31265Y-14096D02*
X31436Y-14096D01*
X31350Y-14396D02*
X31350Y-14096D01*
X20188Y-20476D02*
X20105Y-20357D01*
X20046Y-20476D02*
X20046Y-20226D01*
X20141Y-20226D01*
X20165Y-20238D01*
X20176Y-20250D01*
X20188Y-20274D01*
X20188Y-20310D01*
X20176Y-20333D01*
X20165Y-20345D01*
X20141Y-20357D01*
X20046Y-20357D01*
X20284Y-20464D02*
X20319Y-20476D01*
X20379Y-20476D01*
X20403Y-20464D01*
X20415Y-20452D01*
X20426Y-20429D01*
X20426Y-20405D01*
X20415Y-20381D01*
X20403Y-20369D01*
X20379Y-20357D01*
X20331Y-20345D01*
X20307Y-20333D01*
X20296Y-20321D01*
X20284Y-20298D01*
X20284Y-20274D01*
X20296Y-20250D01*
X20307Y-20238D01*
X20331Y-20226D01*
X20391Y-20226D01*
X20426Y-20238D01*
X20498Y-20226D02*
X20641Y-20226D01*
X20569Y-20476D02*
X20569Y-20226D01*
X18213Y-18901D02*
X18130Y-18782D01*
X18071Y-18901D02*
X18071Y-18651D01*
X18166Y-18651D01*
X18190Y-18663D01*
X18201Y-18675D01*
X18213Y-18699D01*
X18213Y-18735D01*
X18201Y-18758D01*
X18190Y-18770D01*
X18166Y-18782D01*
X18071Y-18782D01*
X18309Y-18889D02*
X18344Y-18901D01*
X18404Y-18901D01*
X18428Y-18889D01*
X18440Y-18877D01*
X18451Y-18854D01*
X18451Y-18830D01*
X18440Y-18806D01*
X18428Y-18794D01*
X18404Y-18782D01*
X18356Y-18770D01*
X18332Y-18758D01*
X18321Y-18746D01*
X18309Y-18723D01*
X18309Y-18699D01*
X18321Y-18675D01*
X18332Y-18663D01*
X18356Y-18651D01*
X18416Y-18651D01*
X18451Y-18663D01*
X18523Y-18651D02*
X18666Y-18651D01*
X18594Y-18901D02*
X18594Y-18651D01*
X21929Y-20381D02*
X22119Y-20381D01*
X22024Y-20476D02*
X22024Y-20286D01*
X22358Y-20226D02*
X22239Y-20226D01*
X22227Y-20345D01*
X22239Y-20333D01*
X22262Y-20321D01*
X22322Y-20321D01*
X22346Y-20333D01*
X22358Y-20345D01*
X22369Y-20369D01*
X22369Y-20429D01*
X22358Y-20452D01*
X22346Y-20464D01*
X22322Y-20476D01*
X22262Y-20476D01*
X22239Y-20464D01*
X22227Y-20452D01*
X22441Y-20226D02*
X22524Y-20476D01*
X22607Y-20226D01*
X23109Y-20238D02*
X23086Y-20226D01*
X23050Y-20226D01*
X23014Y-20238D01*
X22990Y-20262D01*
X22979Y-20286D01*
X22967Y-20333D01*
X22967Y-20369D01*
X22979Y-20417D01*
X22990Y-20440D01*
X23014Y-20464D01*
X23050Y-20476D01*
X23074Y-20476D01*
X23109Y-20464D01*
X23121Y-20452D01*
X23121Y-20369D01*
X23074Y-20369D01*
X23229Y-20476D02*
X23229Y-20226D01*
X23371Y-20476D01*
X23371Y-20226D01*
X23491Y-20476D02*
X23491Y-20226D01*
X23550Y-20226D01*
X23586Y-20238D01*
X23610Y-20262D01*
X23621Y-20286D01*
X23633Y-20333D01*
X23633Y-20369D01*
X23621Y-20417D01*
X23610Y-20440D01*
X23586Y-20464D01*
X23550Y-20476D01*
X23491Y-20476D01*
G54D10*
X11223Y-21345D02*
X11299Y-21612D01*
X11376Y-21421D01*
X11452Y-21612D01*
X11528Y-21345D01*
X11642Y-21345D02*
X11737Y-21612D01*
X11833Y-21345D02*
X11737Y-21612D01*
X11699Y-21707D01*
X11680Y-21726D01*
X11642Y-21745D01*
X12042Y-21612D02*
X12004Y-21593D01*
X11985Y-21574D01*
X11966Y-21536D01*
X11966Y-21421D01*
X11985Y-21383D01*
X12004Y-21364D01*
X12042Y-21345D01*
X12100Y-21345D01*
X12138Y-21364D01*
X12157Y-21383D01*
X12176Y-21421D01*
X12176Y-21536D01*
X12157Y-21574D01*
X12138Y-21593D01*
X12100Y-21612D01*
X12042Y-21612D01*
X12404Y-21612D02*
X12366Y-21593D01*
X12347Y-21555D01*
X12347Y-21212D01*
X12729Y-21345D02*
X12729Y-21612D01*
X12557Y-21345D02*
X12557Y-21555D01*
X12576Y-21593D01*
X12614Y-21612D01*
X12672Y-21612D01*
X12710Y-21593D01*
X12729Y-21574D01*
X12919Y-21612D02*
X12919Y-21345D01*
X12919Y-21383D02*
X12938Y-21364D01*
X12976Y-21345D01*
X13034Y-21345D01*
X13072Y-21364D01*
X13091Y-21402D01*
X13091Y-21612D01*
X13091Y-21402D02*
X13110Y-21364D01*
X13148Y-21345D01*
X13205Y-21345D01*
X13243Y-21364D01*
X13262Y-21402D01*
X13262Y-21612D01*
X13452Y-21574D02*
X13471Y-21593D01*
X13452Y-21612D01*
X13433Y-21593D01*
X13452Y-21574D01*
X13452Y-21612D01*
X13814Y-21593D02*
X13776Y-21612D01*
X13699Y-21612D01*
X13661Y-21593D01*
X13642Y-21574D01*
X13623Y-21536D01*
X13623Y-21421D01*
X13642Y-21383D01*
X13661Y-21364D01*
X13699Y-21345D01*
X13776Y-21345D01*
X13814Y-21364D01*
X14042Y-21612D02*
X14004Y-21593D01*
X13985Y-21574D01*
X13966Y-21536D01*
X13966Y-21421D01*
X13985Y-21383D01*
X14004Y-21364D01*
X14042Y-21345D01*
X14100Y-21345D01*
X14138Y-21364D01*
X14157Y-21383D01*
X14176Y-21421D01*
X14176Y-21536D01*
X14157Y-21574D01*
X14138Y-21593D01*
X14100Y-21612D01*
X14042Y-21612D01*
X14347Y-21612D02*
X14347Y-21345D01*
X14347Y-21383D02*
X14366Y-21364D01*
X14404Y-21345D01*
X14462Y-21345D01*
X14500Y-21364D01*
X14519Y-21402D01*
X14519Y-21612D01*
X14519Y-21402D02*
X14538Y-21364D01*
X14576Y-21345D01*
X14633Y-21345D01*
X14671Y-21364D01*
X14690Y-21402D01*
X14690Y-21612D01*
G54D15*
X10000Y-10000D02*
X35000Y-10000D01*
G54D10*
X27298Y-10335D02*
X27603Y-10335D01*
X27451Y-10487D02*
X27451Y-10182D01*
X25698Y-10335D02*
X26003Y-10335D01*
X25851Y-10487D02*
X25851Y-10182D01*
G54D12*
X33064Y-19766D02*
X33079Y-19716D01*
X33093Y-19699D01*
X33121Y-19683D01*
X33164Y-19683D01*
X33193Y-19699D01*
X33207Y-19716D01*
X33221Y-19749D01*
X33221Y-19883D01*
X32921Y-19883D01*
X32921Y-19766D01*
X32936Y-19733D01*
X32950Y-19716D01*
X32979Y-19699D01*
X33007Y-19699D01*
X33036Y-19716D01*
X33050Y-19733D01*
X33064Y-19766D01*
X33064Y-19883D01*
X33221Y-19533D02*
X32921Y-19533D01*
X33221Y-19333D02*
X33050Y-19483D01*
X32921Y-19333D02*
X33093Y-19533D01*
X33321Y-19099D02*
X32893Y-19099D01*
X33064Y-18733D02*
X33079Y-18683D01*
X33093Y-18666D01*
X33121Y-18650D01*
X33164Y-18650D01*
X33193Y-18666D01*
X33207Y-18683D01*
X33221Y-18716D01*
X33221Y-18850D01*
X32921Y-18850D01*
X32921Y-18733D01*
X32936Y-18700D01*
X32950Y-18683D01*
X32979Y-18666D01*
X33007Y-18666D01*
X33036Y-18683D01*
X33050Y-18700D01*
X33064Y-18733D01*
X33064Y-18850D01*
X33221Y-18300D02*
X33079Y-18416D01*
X33221Y-18500D02*
X32921Y-18500D01*
X32921Y-18366D01*
X32936Y-18333D01*
X32950Y-18316D01*
X32979Y-18300D01*
X33021Y-18300D01*
X33050Y-18316D01*
X33064Y-18333D01*
X33079Y-18366D01*
X33079Y-18500D01*
X33321Y-18066D02*
X32893Y-18066D01*
X33221Y-17617D02*
X33079Y-17733D01*
X33221Y-17817D02*
X32921Y-17817D01*
X32921Y-17683D01*
X32936Y-17650D01*
X32950Y-17633D01*
X32979Y-17617D01*
X33021Y-17617D01*
X33050Y-17633D01*
X33064Y-17650D01*
X33079Y-17683D01*
X33079Y-17817D01*
X33221Y-17467D02*
X32921Y-17467D01*
X32921Y-17383D01*
X32936Y-17333D01*
X32964Y-17300D01*
X32993Y-17283D01*
X33050Y-17267D01*
X33093Y-17267D01*
X33150Y-17283D01*
X33179Y-17300D01*
X33207Y-17333D01*
X33221Y-17383D01*
X33221Y-17467D01*
X33321Y-17033D02*
X32893Y-17033D01*
X32921Y-16717D02*
X32921Y-16650D01*
X32936Y-16617D01*
X32964Y-16584D01*
X33021Y-16567D01*
X33121Y-16567D01*
X33179Y-16584D01*
X33207Y-16617D01*
X33221Y-16650D01*
X33221Y-16717D01*
X33207Y-16750D01*
X33179Y-16784D01*
X33121Y-16800D01*
X33021Y-16800D01*
X32964Y-16784D01*
X32936Y-16750D01*
X32921Y-16717D01*
X33221Y-16217D02*
X33079Y-16333D01*
X33221Y-16417D02*
X32921Y-16417D01*
X32921Y-16283D01*
X32936Y-16250D01*
X32950Y-16233D01*
X32979Y-16217D01*
X33021Y-16217D01*
X33050Y-16233D01*
X33064Y-16250D01*
X33079Y-16283D01*
X33079Y-16417D01*
X33321Y-15983D02*
X32893Y-15983D01*
X33079Y-15667D02*
X33221Y-15667D01*
X32921Y-15784D02*
X33079Y-15667D01*
X32921Y-15550D01*
X33221Y-15267D02*
X33221Y-15434D01*
X32921Y-15434D01*
X33321Y-15067D02*
X32893Y-15067D01*
X32936Y-14634D02*
X32921Y-14668D01*
X32921Y-14718D01*
X32936Y-14768D01*
X32964Y-14801D01*
X32993Y-14818D01*
X33050Y-14834D01*
X33093Y-14834D01*
X33150Y-14818D01*
X33179Y-14801D01*
X33207Y-14768D01*
X33221Y-14718D01*
X33221Y-14684D01*
X33207Y-14634D01*
X33193Y-14618D01*
X33093Y-14618D01*
X33093Y-14684D01*
X33221Y-14468D02*
X32921Y-14468D01*
X33221Y-14268D01*
X32921Y-14268D01*
G54D15*
X35000Y-22000D02*
X10000Y-22000D01*
X35000Y-10000D02*
X35000Y-22000D01*
X10000Y-22000D02*
X10000Y-10000D01*
G54D10*
X31850Y-19250D02*
X31900Y-19250D01*
X31850Y-19200D02*
X31950Y-19200D01*
X31850Y-19150D02*
X32000Y-19150D01*
X31850Y-19950D02*
X31900Y-19950D01*
X31850Y-20000D02*
X31950Y-20000D01*
X31850Y-20050D02*
X32000Y-20050D01*
X32800Y-19950D02*
X32750Y-19950D01*
X32800Y-20000D02*
X32700Y-20000D01*
X32800Y-20050D02*
X32650Y-20050D01*
X32800Y-19250D02*
X32750Y-19250D01*
X32800Y-19200D02*
X32725Y-19200D01*
X32800Y-19150D02*
X32650Y-19150D01*
X31825Y-19350D02*
X31825Y-19125D01*
X31825Y-19125D02*
X31825Y-19100D01*
X31825Y-19100D02*
X32050Y-19100D01*
X32075Y-20100D02*
X31825Y-20100D01*
X31825Y-20100D02*
X31825Y-19850D01*
X32575Y-19100D02*
X32825Y-19100D01*
X32825Y-19100D02*
X32825Y-19350D01*
X32575Y-20100D02*
X32825Y-20100D01*
X32825Y-20100D02*
X32825Y-19850D01*
X32075Y-19100D02*
X32575Y-19100D01*
X32075Y-20100D02*
X32575Y-20100D01*
X32575Y-20100D02*
X32825Y-19850D01*
X32825Y-19850D02*
X32825Y-19350D01*
X32825Y-19350D02*
X32575Y-19100D01*
X32575Y-19100D02*
X32825Y-18850D01*
X32825Y-18850D02*
X32825Y-18350D01*
X32825Y-18350D02*
X32575Y-18100D01*
X32575Y-18100D02*
X32825Y-17850D01*
X32825Y-17850D02*
X32825Y-17350D01*
X32825Y-17350D02*
X32575Y-17100D01*
X32575Y-17100D02*
X32825Y-16850D01*
X32825Y-16850D02*
X32825Y-16350D01*
X32825Y-16350D02*
X32575Y-16100D01*
X32575Y-16100D02*
X32825Y-15850D01*
X32825Y-15850D02*
X32825Y-15350D01*
X32825Y-15350D02*
X32575Y-15100D01*
X32575Y-15100D02*
X32825Y-14850D01*
X32825Y-14850D02*
X32825Y-14350D01*
X32825Y-14350D02*
X32575Y-14100D01*
X32575Y-14100D02*
X32075Y-14100D01*
X32075Y-14100D02*
X31825Y-14350D01*
X31825Y-14350D02*
X31825Y-14850D01*
X31825Y-14850D02*
X32075Y-15100D01*
X32075Y-15100D02*
X31825Y-15350D01*
X31825Y-15350D02*
X31825Y-15850D01*
X31825Y-15850D02*
X32075Y-16100D01*
X32075Y-16100D02*
X31825Y-16350D01*
X31825Y-16350D02*
X31825Y-16850D01*
X31825Y-16850D02*
X32075Y-17100D01*
X32075Y-17100D02*
X31825Y-17350D01*
X31825Y-17350D02*
X31825Y-17850D01*
X31825Y-17850D02*
X32075Y-18100D01*
X32075Y-18100D02*
X31825Y-18350D01*
X31825Y-18350D02*
X31825Y-18850D01*
X31825Y-18850D02*
X32075Y-19100D01*
X32075Y-19100D02*
X31825Y-19350D01*
X31825Y-19350D02*
X31825Y-19850D01*
X31825Y-19850D02*
X32075Y-20100D01*
X33600Y-19250D02*
X33650Y-19250D01*
X33600Y-19200D02*
X33700Y-19200D01*
X33600Y-19150D02*
X33750Y-19150D01*
X33600Y-19950D02*
X33650Y-19950D01*
X33600Y-20000D02*
X33700Y-20000D01*
X33600Y-20050D02*
X33750Y-20050D01*
X34550Y-19950D02*
X34500Y-19950D01*
X34550Y-20000D02*
X34450Y-20000D01*
X34550Y-20050D02*
X34400Y-20050D01*
X34550Y-19250D02*
X34500Y-19250D01*
X34550Y-19200D02*
X34475Y-19200D01*
X34550Y-19150D02*
X34400Y-19150D01*
X33575Y-19350D02*
X33575Y-19125D01*
X33575Y-19125D02*
X33575Y-19100D01*
X33575Y-19100D02*
X33800Y-19100D01*
X33825Y-20100D02*
X33575Y-20100D01*
X33575Y-20100D02*
X33575Y-19850D01*
X34325Y-19100D02*
X34575Y-19100D01*
X34575Y-19100D02*
X34575Y-19350D01*
X34325Y-20100D02*
X34575Y-20100D01*
X34575Y-20100D02*
X34575Y-19850D01*
X33825Y-19100D02*
X34325Y-19100D01*
X33825Y-20100D02*
X34325Y-20100D01*
X34325Y-20100D02*
X34575Y-19850D01*
X34575Y-19850D02*
X34575Y-19350D01*
X34575Y-19350D02*
X34325Y-19100D01*
X34325Y-19100D02*
X34575Y-18850D01*
X34575Y-18850D02*
X34575Y-18350D01*
X34575Y-18350D02*
X34325Y-18100D01*
X34325Y-18100D02*
X34575Y-17850D01*
X34575Y-17850D02*
X34575Y-17350D01*
X34575Y-17350D02*
X34325Y-17100D01*
X34325Y-17100D02*
X34575Y-16850D01*
X34575Y-16850D02*
X34575Y-16350D01*
X34575Y-16350D02*
X34325Y-16100D01*
X34325Y-16100D02*
X34575Y-15850D01*
X34575Y-15850D02*
X34575Y-15350D01*
X34575Y-15350D02*
X34325Y-15100D01*
X34325Y-15100D02*
X34575Y-14850D01*
X34575Y-14850D02*
X34575Y-14350D01*
X34575Y-14350D02*
X34325Y-14100D01*
X34325Y-14100D02*
X33825Y-14100D01*
X33825Y-14100D02*
X33575Y-14350D01*
X33575Y-14350D02*
X33575Y-14850D01*
X33575Y-14850D02*
X33825Y-15100D01*
X33825Y-15100D02*
X33575Y-15350D01*
X33575Y-15350D02*
X33575Y-15850D01*
X33575Y-15850D02*
X33825Y-16100D01*
X33825Y-16100D02*
X33575Y-16350D01*
X33575Y-16350D02*
X33575Y-16850D01*
X33575Y-16850D02*
X33825Y-17100D01*
X33825Y-17100D02*
X33575Y-17350D01*
X33575Y-17350D02*
X33575Y-17850D01*
X33575Y-17850D02*
X33825Y-18100D01*
X33825Y-18100D02*
X33575Y-18350D01*
X33575Y-18350D02*
X33575Y-18850D01*
X33575Y-18850D02*
X33825Y-19100D01*
X33825Y-19100D02*
X33575Y-19350D01*
X33575Y-19350D02*
X33575Y-19850D01*
X33575Y-19850D02*
X33825Y-20100D01*
X10925Y-12850D02*
X11175Y-13100D01*
X10925Y-12900D02*
X11125Y-13100D01*
X10925Y-12950D02*
X11075Y-13100D01*
X10925Y-13000D02*
X11025Y-13100D01*
X10925Y-13050D02*
X10975Y-13100D01*
X14725Y-13100D02*
X12825Y-13100D01*
X12825Y-13100D02*
X10925Y-13100D01*
X10925Y-13100D02*
X10925Y-12500D01*
X14725Y-13100D02*
X14725Y-12500D01*
X14725Y-12500D02*
X14725Y-11900D01*
X10925Y-11900D02*
X10925Y-12500D01*
X10975Y-12300D02*
X10975Y-12700D01*
X10975Y-12700D02*
X11025Y-12700D01*
X11025Y-12700D02*
X11025Y-12300D01*
X11025Y-12300D02*
X11075Y-12300D01*
X11075Y-12300D02*
X11075Y-12700D01*
X11075Y-12700D02*
X11125Y-12700D01*
X11125Y-12700D02*
X11125Y-12300D01*
X11125Y-12300D02*
X11175Y-12300D01*
X11175Y-12300D02*
X11175Y-12700D01*
X10925Y-11900D02*
X14725Y-11900D01*
X10925Y-12300D02*
X11225Y-12300D01*
X11225Y-12300D02*
X11225Y-12700D01*
X11225Y-12700D02*
X10925Y-12700D01*
X28150Y-12475D02*
X28150Y-12975D01*
X28150Y-12225D02*
X28150Y-11725D01*
X28150Y-12475D02*
X28850Y-12475D01*
X28850Y-12475D02*
X28850Y-12225D01*
X28850Y-12225D02*
X28150Y-12225D01*
X28150Y-12975D02*
X29950Y-12975D01*
X29950Y-12975D02*
X29950Y-11725D01*
X29950Y-11725D02*
X28150Y-11725D01*
X26750Y-15550D02*
X27125Y-15550D01*
X27125Y-15550D02*
X27125Y-14450D01*
X27125Y-14450D02*
X25800Y-14450D01*
X25800Y-14450D02*
X25775Y-14450D01*
X25775Y-14450D02*
X25775Y-15550D01*
X25775Y-15550D02*
X26150Y-15550D01*
X26150Y-15550D02*
X26150Y-16150D01*
X26150Y-16150D02*
X26450Y-16150D01*
X26450Y-16150D02*
X26750Y-16150D01*
X26750Y-16150D02*
X26750Y-15550D01*
X24175Y-14700D02*
X24175Y-14625D01*
X24175Y-14700D02*
X24250Y-14700D01*
X24125Y-14750D02*
X24125Y-14575D01*
X24125Y-14750D02*
X24300Y-14750D01*
X24075Y-14800D02*
X24075Y-14525D01*
X24075Y-14800D02*
X24350Y-14800D01*
X24025Y-14850D02*
X24025Y-14475D01*
X24025Y-14850D02*
X24400Y-14850D01*
X23975Y-14900D02*
X23975Y-14425D01*
X23975Y-14900D02*
X24450Y-14900D01*
X23925Y-14325D02*
X23925Y-14950D01*
X23925Y-14950D02*
X24525Y-14950D01*
X24650Y-15075D02*
X24650Y-18475D01*
X24650Y-18475D02*
X20400Y-18475D01*
X20400Y-18475D02*
X20400Y-14225D01*
X20400Y-14225D02*
X23825Y-14225D01*
X23825Y-14225D02*
X24650Y-15075D01*
X26125Y-11275D02*
X26050Y-11275D01*
X26125Y-11325D02*
X26000Y-11325D01*
X26125Y-11175D02*
X26125Y-11375D01*
X26125Y-11375D02*
X25925Y-11375D01*
X26125Y-10675D02*
X26050Y-10675D01*
X26125Y-10625D02*
X26000Y-10625D01*
X26125Y-10775D02*
X26125Y-10575D01*
X26125Y-10575D02*
X25925Y-10575D01*
X25925Y-11375D02*
X26125Y-11175D01*
X26125Y-11175D02*
X26125Y-10975D01*
X26125Y-10975D02*
X26125Y-10775D01*
X26125Y-10775D02*
X25925Y-10575D01*
X24975Y-10575D02*
X24625Y-10575D01*
X24625Y-10575D02*
X24625Y-11375D01*
X24625Y-11375D02*
X24975Y-11375D01*
X25600Y-10575D02*
X25925Y-10575D01*
X25600Y-11375D02*
X25925Y-11375D01*
X27750Y-11275D02*
X27675Y-11275D01*
X27750Y-11325D02*
X27625Y-11325D01*
X27750Y-11175D02*
X27750Y-11375D01*
X27750Y-11375D02*
X27550Y-11375D01*
X27750Y-10675D02*
X27675Y-10675D01*
X27750Y-10625D02*
X27625Y-10625D01*
X27750Y-10775D02*
X27750Y-10575D01*
X27750Y-10575D02*
X27550Y-10575D01*
X27550Y-11375D02*
X27750Y-11175D01*
X27750Y-11175D02*
X27750Y-10975D01*
X27750Y-10975D02*
X27750Y-10775D01*
X27750Y-10775D02*
X27550Y-10575D01*
X26600Y-10575D02*
X26250Y-10575D01*
X26250Y-10575D02*
X26250Y-11375D01*
X26250Y-11375D02*
X26600Y-11375D01*
X27225Y-10575D02*
X27550Y-10575D01*
X27225Y-11375D02*
X27550Y-11375D01*
X28451Y-16324D02*
X28533Y-16361D01*
X28618Y-16392D01*
X28706Y-16415D01*
X28795Y-16430D01*
X28886Y-16438D01*
X28975Y-16437D01*
X29066Y-16429D01*
X29155Y-16413D01*
X29242Y-16389D01*
X29327Y-16357D01*
X29409Y-16319D01*
X29487Y-16273D01*
X29561Y-16220D01*
X29630Y-16162D01*
X29694Y-16097D01*
X29752Y-16028D01*
X29804Y-15953D01*
X29849Y-15874D01*
X28001Y-15874D02*
X28046Y-15953D01*
X28098Y-16028D01*
X28156Y-16097D01*
X28220Y-16162D01*
X28289Y-16220D01*
X28363Y-16273D01*
X28441Y-16319D01*
X28523Y-16357D01*
X28608Y-16389D01*
X28695Y-16413D01*
X28784Y-16429D01*
X28875Y-16437D01*
X28964Y-16438D01*
X29055Y-16430D01*
X29144Y-16415D01*
X29232Y-16392D01*
X29317Y-16361D01*
X29399Y-16324D01*
X29725Y-16450D02*
X27875Y-16450D01*
X29849Y-14951D02*
X29807Y-14873D01*
X29757Y-14798D01*
X29702Y-14727D01*
X29640Y-14662D01*
X29573Y-14603D01*
X29501Y-14549D01*
X29424Y-14502D01*
X29344Y-14462D01*
X29261Y-14429D01*
X29175Y-14403D01*
X29087Y-14385D01*
X28998Y-14375D01*
X28909Y-14373D01*
X28820Y-14378D01*
X28731Y-14391D01*
X28644Y-14412D01*
X28559Y-14440D01*
X28476Y-14476D01*
X29324Y-14451D02*
X29242Y-14420D01*
X29158Y-14396D01*
X29072Y-14379D01*
X28984Y-14370D01*
X28897Y-14369D01*
X28810Y-14375D01*
X28723Y-14389D01*
X28638Y-14410D01*
X28555Y-14439D01*
X28475Y-14475D01*
X28398Y-14518D01*
X28325Y-14567D01*
X28257Y-14622D01*
X28194Y-14684D01*
X28136Y-14750D01*
X28085Y-14821D01*
X28040Y-14897D01*
X28001Y-14976D01*
X27875Y-14350D02*
X27875Y-15000D01*
X27875Y-16450D02*
X27875Y-15850D01*
X29975Y-16200D02*
X29975Y-15825D01*
X29975Y-14600D02*
X29975Y-14975D01*
X29975Y-14600D02*
X29725Y-14350D01*
X29725Y-14350D02*
X28925Y-14350D01*
X29975Y-16200D02*
X29725Y-16450D01*
X27875Y-14350D02*
X28925Y-14350D01*
X24625Y-14750D02*
X24625Y-14050D01*
X25475Y-14750D02*
X25475Y-14050D01*
X24625Y-13600D02*
X24625Y-13250D01*
X25475Y-13250D02*
X25475Y-13600D01*
X25475Y-14050D02*
X24625Y-14050D01*
X25475Y-14750D02*
X24625Y-14750D01*
X25475Y-13250D02*
X24625Y-13250D01*
X17400Y-17275D02*
X17400Y-16575D01*
X18250Y-17275D02*
X18250Y-16575D01*
X17400Y-16125D02*
X17400Y-15775D01*
X18250Y-15775D02*
X18250Y-16125D01*
X18250Y-16575D02*
X17400Y-16575D01*
X18250Y-17275D02*
X17400Y-17275D01*
X18250Y-15775D02*
X17400Y-15775D01*
X27150Y-17175D02*
X26450Y-17175D01*
X27150Y-16325D02*
X26450Y-16325D01*
X26000Y-17175D02*
X25650Y-17175D01*
X25650Y-16325D02*
X26000Y-16325D01*
X26450Y-16325D02*
X26450Y-17175D01*
X27150Y-16325D02*
X27150Y-17175D01*
X25650Y-16325D02*
X25650Y-17175D01*
X28275Y-10550D02*
X28975Y-10550D01*
X28275Y-11400D02*
X28975Y-11400D01*
X29425Y-10550D02*
X29775Y-10550D01*
X29775Y-11400D02*
X29425Y-11400D01*
X28975Y-11400D02*
X28975Y-10550D01*
X28275Y-11400D02*
X28275Y-10550D01*
X29775Y-11400D02*
X29775Y-10550D01*
X29850Y-14100D02*
X29150Y-14100D01*
X29850Y-13250D02*
X29150Y-13250D01*
X28700Y-14100D02*
X28350Y-14100D01*
X28350Y-13250D02*
X28700Y-13250D01*
X29150Y-13250D02*
X29150Y-14100D01*
X29850Y-13250D02*
X29850Y-14100D01*
X28350Y-13250D02*
X28350Y-14100D01*
X25700Y-13275D02*
X26400Y-13275D01*
X25700Y-14125D02*
X26400Y-14125D01*
X26850Y-13275D02*
X27200Y-13275D01*
X27200Y-14125D02*
X26850Y-14125D01*
X26400Y-14125D02*
X26400Y-13275D01*
X25700Y-14125D02*
X25700Y-13275D01*
X27200Y-14125D02*
X27200Y-13275D01*
X23350Y-12100D02*
X23350Y-11400D01*
X24200Y-12100D02*
X24200Y-11400D01*
X23350Y-10950D02*
X23350Y-10600D01*
X24200Y-10600D02*
X24200Y-10950D01*
X24200Y-11400D02*
X23350Y-11400D01*
X24200Y-12100D02*
X23350Y-12100D01*
X24200Y-10600D02*
X23350Y-10600D01*
X23150Y-10600D02*
X23150Y-11300D01*
X22300Y-10600D02*
X22300Y-11300D01*
X23150Y-11750D02*
X23150Y-12100D01*
X22300Y-12100D02*
X22300Y-11750D01*
X22300Y-11300D02*
X23150Y-11300D01*
X22300Y-10600D02*
X23150Y-10600D01*
X22300Y-12100D02*
X23150Y-12100D01*
X31425Y-11400D02*
X30725Y-11400D01*
X31425Y-10550D02*
X30725Y-10550D01*
X30275Y-11400D02*
X29925Y-11400D01*
X29925Y-10550D02*
X30275Y-10550D01*
X30725Y-10550D02*
X30725Y-11400D01*
X31425Y-10550D02*
X31425Y-11400D01*
X29925Y-10550D02*
X29925Y-11400D01*
X25000Y-18250D02*
X25000Y-18500D01*
X25000Y-18500D02*
X24750Y-18500D01*
X24750Y-13500D02*
X25000Y-13500D01*
X25000Y-13500D02*
X25000Y-13750D01*
X20000Y-13750D02*
X20000Y-13500D01*
X20000Y-13500D02*
X20250Y-13500D01*
X20250Y-18500D02*
X20000Y-18500D01*
X20000Y-18500D02*
X20000Y-18250D01*
X18600Y-19725D02*
X18596Y-19763D01*
X18584Y-19801D01*
X18566Y-19835D01*
X18541Y-19865D01*
X18511Y-19890D01*
X18477Y-19909D01*
X18440Y-19920D01*
X18401Y-19924D01*
X18363Y-19921D01*
X18326Y-19910D01*
X18291Y-19892D01*
X18261Y-19867D01*
X18235Y-19837D01*
X18217Y-19803D01*
X18205Y-19766D01*
X18201Y-19727D01*
X18204Y-19689D01*
X18215Y-19652D01*
X18232Y-19617D01*
X18257Y-19587D01*
X18286Y-19561D01*
X18320Y-19542D01*
X18358Y-19530D01*
X18396Y-19526D01*
X18434Y-19529D01*
X18472Y-19539D01*
X18507Y-19557D01*
X18537Y-19581D01*
X18563Y-19610D01*
X18582Y-19644D01*
X18595Y-19681D01*
X18599Y-19720D01*
X18600Y-19725D01*
X18975Y-19025D02*
X19800Y-19025D01*
X19800Y-19025D02*
X19800Y-18975D01*
X19800Y-18975D02*
X17000Y-18975D01*
X17000Y-18975D02*
X17000Y-19025D01*
X17000Y-19025D02*
X18975Y-19025D01*
X18400Y-20425D02*
X19825Y-20425D01*
X19825Y-20425D02*
X19825Y-20475D01*
X19825Y-20475D02*
X17000Y-20475D01*
X17000Y-20475D02*
X17000Y-20450D01*
X17000Y-20450D02*
X17000Y-20425D01*
X17000Y-20425D02*
X18400Y-20425D01*
X17825Y-19725D02*
X17825Y-19025D01*
X17825Y-19725D02*
X17825Y-20425D01*
X18975Y-19725D02*
X18975Y-19025D01*
X18975Y-19725D02*
X18975Y-20425D01*
X22025Y-13425D02*
X22025Y-13550D01*
X21975Y-13550D02*
X21975Y-13425D01*
X21975Y-13425D02*
X22075Y-13425D01*
X22075Y-13425D02*
X22075Y-13550D01*
X22025Y-12225D02*
X22025Y-12100D01*
X22075Y-12100D02*
X22075Y-12225D01*
X22075Y-12225D02*
X21975Y-12225D01*
X21975Y-12225D02*
X21975Y-12100D01*
X21175Y-12850D02*
X21300Y-12850D01*
X21300Y-12850D02*
X21300Y-12800D01*
X21300Y-12800D02*
X21175Y-12800D01*
X22875Y-12850D02*
X22750Y-12850D01*
X22750Y-12850D02*
X22750Y-12800D01*
X22750Y-12800D02*
X22875Y-12800D01*
X22875Y-12825D02*
X22875Y-13525D01*
X22875Y-13525D02*
X22875Y-13550D01*
X22875Y-13550D02*
X21175Y-13550D01*
X21175Y-13550D02*
X21175Y-12100D01*
X21175Y-12100D02*
X22875Y-12100D01*
X22875Y-12100D02*
X22875Y-12825D01*
X15450Y-21050D02*
X14775Y-21050D01*
X14775Y-21050D02*
X12600Y-20675D01*
X11125Y-20675D02*
X12600Y-20675D01*
X10650Y-18950D02*
X10650Y-15350D01*
X15850Y-15350D02*
X14625Y-15350D01*
X16550Y-19025D02*
X16550Y-15900D01*
X16550Y-15900D02*
X15850Y-15900D01*
X15850Y-15900D02*
X15850Y-15350D01*
X16550Y-19850D02*
X16550Y-21050D01*
X16550Y-21050D02*
X15450Y-21050D01*
X10650Y-19950D02*
X10650Y-20675D01*
X10650Y-20675D02*
X11125Y-20675D01*
X11125Y-21850D02*
X11125Y-20675D01*
X15450Y-21850D02*
X15450Y-21050D01*
X11125Y-21850D02*
X15450Y-21850D01*
X27675Y-20625D02*
X27675Y-20675D01*
X27725Y-20625D02*
X27725Y-20725D01*
X27775Y-20625D02*
X27775Y-20775D01*
X26975Y-20625D02*
X26975Y-20675D01*
X26925Y-20625D02*
X26925Y-20725D01*
X26875Y-20625D02*
X26875Y-20775D01*
X26975Y-21575D02*
X26975Y-21525D01*
X26925Y-21575D02*
X26925Y-21475D01*
X26875Y-21575D02*
X26875Y-21425D01*
X27675Y-21575D02*
X27675Y-21525D01*
X27725Y-21575D02*
X27725Y-21500D01*
X27775Y-21575D02*
X27775Y-21425D01*
X27575Y-20600D02*
X27800Y-20600D01*
X27800Y-20600D02*
X27825Y-20600D01*
X27825Y-20600D02*
X27825Y-20825D01*
X26825Y-20850D02*
X26825Y-20600D01*
X26825Y-20600D02*
X27075Y-20600D01*
X27825Y-21350D02*
X27825Y-21600D01*
X27825Y-21600D02*
X27575Y-21600D01*
X26825Y-21350D02*
X26825Y-21600D01*
X26825Y-21600D02*
X27075Y-21600D01*
X27825Y-20850D02*
X27825Y-21350D01*
X26825Y-20850D02*
X26825Y-21350D01*
X26825Y-21350D02*
X27075Y-21600D01*
X27075Y-21600D02*
X27575Y-21600D01*
X27575Y-21600D02*
X27825Y-21350D01*
X27825Y-21350D02*
X28075Y-21600D01*
X28075Y-21600D02*
X28575Y-21600D01*
X28575Y-21600D02*
X28825Y-21350D01*
X28825Y-21350D02*
X29075Y-21600D01*
X29075Y-21600D02*
X29575Y-21600D01*
X29575Y-21600D02*
X29825Y-21350D01*
X29825Y-21350D02*
X30075Y-21600D01*
X30075Y-21600D02*
X30575Y-21600D01*
X30575Y-21600D02*
X30825Y-21350D01*
X30825Y-21350D02*
X31075Y-21600D01*
X31075Y-21600D02*
X31575Y-21600D01*
X31575Y-21600D02*
X31825Y-21350D01*
X31825Y-21350D02*
X32075Y-21600D01*
X32075Y-21600D02*
X32575Y-21600D01*
X32575Y-21600D02*
X32825Y-21350D01*
X32825Y-21350D02*
X32825Y-20850D01*
X32825Y-20850D02*
X32575Y-20600D01*
X32575Y-20600D02*
X32075Y-20600D01*
X32075Y-20600D02*
X31825Y-20850D01*
X31825Y-20850D02*
X31575Y-20600D01*
X31575Y-20600D02*
X31075Y-20600D01*
X31075Y-20600D02*
X30825Y-20850D01*
X30825Y-20850D02*
X30575Y-20600D01*
X30575Y-20600D02*
X30075Y-20600D01*
X30075Y-20600D02*
X29825Y-20850D01*
X29825Y-20850D02*
X29575Y-20600D01*
X29575Y-20600D02*
X29075Y-20600D01*
X29075Y-20600D02*
X28825Y-20850D01*
X28825Y-20850D02*
X28575Y-20600D01*
X28575Y-20600D02*
X28075Y-20600D01*
X28075Y-20600D02*
X27825Y-20850D01*
X27825Y-20850D02*
X27575Y-20600D01*
X27575Y-20600D02*
X27075Y-20600D01*
X27075Y-20600D02*
X26825Y-20850D01*
X20675Y-20625D02*
X20675Y-20675D01*
X20725Y-20625D02*
X20725Y-20725D01*
X20775Y-20625D02*
X20775Y-20775D01*
X19975Y-20625D02*
X19975Y-20675D01*
X19925Y-20625D02*
X19925Y-20725D01*
X19875Y-20625D02*
X19875Y-20775D01*
X19975Y-21575D02*
X19975Y-21525D01*
X19925Y-21575D02*
X19925Y-21475D01*
X19875Y-21575D02*
X19875Y-21425D01*
X20675Y-21575D02*
X20675Y-21525D01*
X20725Y-21575D02*
X20725Y-21500D01*
X20775Y-21575D02*
X20775Y-21425D01*
X20575Y-20600D02*
X20800Y-20600D01*
X20800Y-20600D02*
X20825Y-20600D01*
X20825Y-20600D02*
X20825Y-20825D01*
X19825Y-20850D02*
X19825Y-20600D01*
X19825Y-20600D02*
X20075Y-20600D01*
X20825Y-21350D02*
X20825Y-21600D01*
X20825Y-21600D02*
X20575Y-21600D01*
X19825Y-21350D02*
X19825Y-21600D01*
X19825Y-21600D02*
X20075Y-21600D01*
X20825Y-20850D02*
X20825Y-21350D01*
X19825Y-20850D02*
X19825Y-21350D01*
X19825Y-21350D02*
X20075Y-21600D01*
X20075Y-21600D02*
X20575Y-21600D01*
X20575Y-21600D02*
X20825Y-21350D01*
X20825Y-21350D02*
X21075Y-21600D01*
X21075Y-21600D02*
X21575Y-21600D01*
X21575Y-21600D02*
X21825Y-21350D01*
X21825Y-21350D02*
X22075Y-21600D01*
X22075Y-21600D02*
X22575Y-21600D01*
X22575Y-21600D02*
X22825Y-21350D01*
X22825Y-21350D02*
X23075Y-21600D01*
X23075Y-21600D02*
X23575Y-21600D01*
X23575Y-21600D02*
X23825Y-21350D01*
X23825Y-21350D02*
X24075Y-21600D01*
X24075Y-21600D02*
X24575Y-21600D01*
X24575Y-21600D02*
X24825Y-21350D01*
X24825Y-21350D02*
X25075Y-21600D01*
X25075Y-21600D02*
X25575Y-21600D01*
X25575Y-21600D02*
X25825Y-21350D01*
X25825Y-21350D02*
X25825Y-20850D01*
X25825Y-20850D02*
X25575Y-20600D01*
X25575Y-20600D02*
X25075Y-20600D01*
X25075Y-20600D02*
X24825Y-20850D01*
X24825Y-20850D02*
X24575Y-20600D01*
X24575Y-20600D02*
X24075Y-20600D01*
X24075Y-20600D02*
X23825Y-20850D01*
X23825Y-20850D02*
X23575Y-20600D01*
X23575Y-20600D02*
X23075Y-20600D01*
X23075Y-20600D02*
X22825Y-20850D01*
X22825Y-20850D02*
X22575Y-20600D01*
X22575Y-20600D02*
X22075Y-20600D01*
X22075Y-20600D02*
X21825Y-20850D01*
X21825Y-20850D02*
X21575Y-20600D01*
X21575Y-20600D02*
X21075Y-20600D01*
X21075Y-20600D02*
X20825Y-20850D01*
X20825Y-20850D02*
X20575Y-20600D01*
X20575Y-20600D02*
X20075Y-20600D01*
X20075Y-20600D02*
X19825Y-20850D01*
X31600Y-11750D02*
X31550Y-11750D01*
X31600Y-11700D02*
X31500Y-11700D01*
X31600Y-11650D02*
X31450Y-11650D01*
X31600Y-12450D02*
X31550Y-12450D01*
X31600Y-12500D02*
X31500Y-12500D01*
X31600Y-12550D02*
X31450Y-12550D01*
X30650Y-12450D02*
X30700Y-12450D01*
X30650Y-12500D02*
X30750Y-12500D01*
X30650Y-12550D02*
X30800Y-12550D01*
X30650Y-11750D02*
X30700Y-11750D01*
X30650Y-11700D02*
X30750Y-11700D01*
X30650Y-11650D02*
X30800Y-11650D01*
X30625Y-11850D02*
X30625Y-11600D01*
X30625Y-11600D02*
X30875Y-11600D01*
X30875Y-12600D02*
X30625Y-12600D01*
X30625Y-12600D02*
X30625Y-12350D01*
X31625Y-12350D02*
X31625Y-12600D01*
X31625Y-12600D02*
X31400Y-12600D01*
X31375Y-11600D02*
X31625Y-11600D01*
X31625Y-11600D02*
X31625Y-11850D01*
X31375Y-12600D02*
X30875Y-12600D01*
X31125Y-11600D02*
X30875Y-11600D01*
X30875Y-11600D02*
X30625Y-11850D01*
X30625Y-11850D02*
X30625Y-12350D01*
X30625Y-12350D02*
X30875Y-12600D01*
X30875Y-12600D02*
X30625Y-12850D01*
X30625Y-12850D02*
X30625Y-13350D01*
X30625Y-13350D02*
X30875Y-13600D01*
X30875Y-13600D02*
X31375Y-13600D01*
X31375Y-13600D02*
X31625Y-13350D01*
X31625Y-13350D02*
X31625Y-12850D01*
X31625Y-12850D02*
X31375Y-12600D01*
X31375Y-12600D02*
X31625Y-12350D01*
X31625Y-12350D02*
X31625Y-11850D01*
X31625Y-11850D02*
X31375Y-11600D01*
X31375Y-11600D02*
X31125Y-11600D01*
X31925Y-10150D02*
X31924Y-10159D01*
X31921Y-10169D01*
X31916Y-10177D01*
X31910Y-10185D01*
X31902Y-10191D01*
X31894Y-10196D01*
X31885Y-10198D01*
X31875Y-10199D01*
X31866Y-10199D01*
X31857Y-10196D01*
X31848Y-10191D01*
X31841Y-10185D01*
X31834Y-10178D01*
X31830Y-10169D01*
X31827Y-10160D01*
X31826Y-10150D01*
X31826Y-10141D01*
X31829Y-10132D01*
X31833Y-10123D01*
X31840Y-10116D01*
X31847Y-10109D01*
X31855Y-10105D01*
X31865Y-10102D01*
X31874Y-10101D01*
X31883Y-10101D01*
X31893Y-10104D01*
X31901Y-10108D01*
X31909Y-10114D01*
X31915Y-10122D01*
X31920Y-10130D01*
X31923Y-10139D01*
X31924Y-10149D01*
X31925Y-10150D01*
X31900Y-10150D02*
X31899Y-10154D01*
X31898Y-10159D01*
X31895Y-10163D01*
X31892Y-10167D01*
X31888Y-10170D01*
X31884Y-10173D01*
X31880Y-10174D01*
X31875Y-10174D01*
X31871Y-10174D01*
X31866Y-10173D01*
X31862Y-10170D01*
X31858Y-10167D01*
X31855Y-10164D01*
X31853Y-10159D01*
X31851Y-10155D01*
X31851Y-10150D01*
X31851Y-10146D01*
X31852Y-10141D01*
X31854Y-10137D01*
X31858Y-10133D01*
X31861Y-10130D01*
X31865Y-10128D01*
X31870Y-10126D01*
X31875Y-10126D01*
X31879Y-10126D01*
X31884Y-10127D01*
X31888Y-10129D01*
X31892Y-10132D01*
X31895Y-10136D01*
X31897Y-10140D01*
X31899Y-10145D01*
X31899Y-10150D01*
X31900Y-10150D01*
X32575Y-11100D02*
X32075Y-11100D01*
X32825Y-10850D02*
X32825Y-10350D01*
X32825Y-10350D02*
X32575Y-10100D01*
X32575Y-10100D02*
X32075Y-10100D01*
X31825Y-11350D02*
X31825Y-11850D01*
X31825Y-11850D02*
X32075Y-12100D01*
X32075Y-12100D02*
X31825Y-12350D01*
X31825Y-12350D02*
X31825Y-12850D01*
X31825Y-12850D02*
X32075Y-13100D01*
X32075Y-13100D02*
X31825Y-13350D01*
X31825Y-13350D02*
X31825Y-13850D01*
X31825Y-13850D02*
X32075Y-14100D01*
X32075Y-14100D02*
X32575Y-14100D01*
X32575Y-14100D02*
X32825Y-13850D01*
X32825Y-13850D02*
X32825Y-13350D01*
X32825Y-13350D02*
X32575Y-13100D01*
X32575Y-13100D02*
X32825Y-12850D01*
X32825Y-12850D02*
X32825Y-12350D01*
X32825Y-12350D02*
X32575Y-12100D01*
X32575Y-12100D02*
X32825Y-11850D01*
X32825Y-11850D02*
X32825Y-11350D01*
X32825Y-11350D02*
X32575Y-11100D01*
X32575Y-11100D02*
X32825Y-10850D01*
X32075Y-10100D02*
X31825Y-10350D01*
X31825Y-10350D02*
X31825Y-10850D01*
X31825Y-10850D02*
X32075Y-11100D01*
X32075Y-11100D02*
X31825Y-11350D01*
X19025Y-11325D02*
X19025Y-11375D01*
X19075Y-11325D02*
X19075Y-11425D01*
X19125Y-11325D02*
X19125Y-11475D01*
X18325Y-11325D02*
X18325Y-11375D01*
X18275Y-11325D02*
X18275Y-11425D01*
X18225Y-11325D02*
X18225Y-11475D01*
X19025Y-12275D02*
X19025Y-12225D01*
X19075Y-12275D02*
X19075Y-12175D01*
X19125Y-12275D02*
X19125Y-12125D01*
X18325Y-12275D02*
X18325Y-12225D01*
X18275Y-12275D02*
X18275Y-12175D01*
X18225Y-12275D02*
X18225Y-12125D01*
X18175Y-12050D02*
X18175Y-12300D01*
X18175Y-12300D02*
X18425Y-12300D01*
X19175Y-12050D02*
X19175Y-12300D01*
X19175Y-12300D02*
X18925Y-12300D01*
X18925Y-11300D02*
X19175Y-11300D01*
X19175Y-11300D02*
X19175Y-11550D01*
X18425Y-11300D02*
X18175Y-11300D01*
X19175Y-12050D02*
X19175Y-11800D01*
X19175Y-11800D02*
X19175Y-11550D01*
X19175Y-11550D02*
X18925Y-11300D01*
X18925Y-11300D02*
X18425Y-11300D01*
X18425Y-11300D02*
X18175Y-11550D01*
X18925Y-12300D02*
X18425Y-12300D01*
X19925Y-12300D02*
X19425Y-12300D01*
X20925Y-12300D02*
X20425Y-12300D01*
X21175Y-10550D02*
X21175Y-12050D01*
X20425Y-10300D02*
X20925Y-10300D01*
X19425Y-10300D02*
X19925Y-10300D01*
X18425Y-10300D02*
X18925Y-10300D01*
X18175Y-12050D02*
X18175Y-10550D01*
X20925Y-10300D02*
X21175Y-10550D01*
X19925Y-10300D02*
X20175Y-10550D01*
X20175Y-10550D02*
X20425Y-10300D01*
X18925Y-10300D02*
X19175Y-10550D01*
X19175Y-10550D02*
X19425Y-10300D01*
X18175Y-10550D02*
X18425Y-10300D01*
X18425Y-12300D02*
X18175Y-12050D01*
X19425Y-12300D02*
X19175Y-12050D01*
X19175Y-12050D02*
X18925Y-12300D01*
X20425Y-12300D02*
X20175Y-12050D01*
X20175Y-12050D02*
X19925Y-12300D01*
X21175Y-12050D02*
X20925Y-12300D01*
X26850Y-11500D02*
X26225Y-11500D01*
X26225Y-11500D02*
X26225Y-12350D01*
X26225Y-12350D02*
X26850Y-12350D01*
X27150Y-12350D02*
X27750Y-12350D01*
X27750Y-12350D02*
X27775Y-12350D01*
X27775Y-12350D02*
X27775Y-11500D01*
X27775Y-11500D02*
X27150Y-11500D01*
X25225Y-11500D02*
X24600Y-11500D01*
X24600Y-11500D02*
X24600Y-12350D01*
X24600Y-12350D02*
X25225Y-12350D01*
X25525Y-12350D02*
X26125Y-12350D01*
X26125Y-12350D02*
X26150Y-12350D01*
X26150Y-12350D02*
X26150Y-11500D01*
X26150Y-11500D02*
X25525Y-11500D01*
X30700Y-19200D02*
X30700Y-18575D01*
X30700Y-18575D02*
X29850Y-18575D01*
X29850Y-18575D02*
X29850Y-19200D01*
X29850Y-19500D02*
X29850Y-20100D01*
X29850Y-20100D02*
X29850Y-20125D01*
X29850Y-20125D02*
X30700Y-20125D01*
X30700Y-20125D02*
X30700Y-19500D01*
X31750Y-19200D02*
X31750Y-18575D01*
X31750Y-18575D02*
X30900Y-18575D01*
X30900Y-18575D02*
X30900Y-19200D01*
X30900Y-19500D02*
X30900Y-20100D01*
X30900Y-20100D02*
X30900Y-20125D01*
X30900Y-20125D02*
X31750Y-20125D01*
X31750Y-20125D02*
X31750Y-19500D01*
X26550Y-18175D02*
X27175Y-18175D01*
X27175Y-18175D02*
X27175Y-17325D01*
X27175Y-17325D02*
X26550Y-17325D01*
X26250Y-17325D02*
X25650Y-17325D01*
X25650Y-17325D02*
X25625Y-17325D01*
X25625Y-17325D02*
X25625Y-18175D01*
X25625Y-18175D02*
X26250Y-18175D01*
X14900Y-12100D02*
X14900Y-12725D01*
X14900Y-12725D02*
X15750Y-12725D01*
X15750Y-12725D02*
X15750Y-12100D01*
X15750Y-11800D02*
X15750Y-11200D01*
X15750Y-11200D02*
X15750Y-11175D01*
X15750Y-11175D02*
X14900Y-11175D01*
X14900Y-11175D02*
X14900Y-11800D01*
X15750Y-13375D02*
X15750Y-12750D01*
X15750Y-12750D02*
X14900Y-12750D01*
X14900Y-12750D02*
X14900Y-13375D01*
X14900Y-13675D02*
X14900Y-14275D01*
X14900Y-14275D02*
X14900Y-14300D01*
X14900Y-14300D02*
X15750Y-14300D01*
X15750Y-14300D02*
X15750Y-13675D01*
X16750Y-13375D02*
X16750Y-12750D01*
X16750Y-12750D02*
X15900Y-12750D01*
X15900Y-12750D02*
X15900Y-13375D01*
X15900Y-13675D02*
X15900Y-14275D01*
X15900Y-14275D02*
X15900Y-14300D01*
X15900Y-14300D02*
X16750Y-14300D01*
X16750Y-14300D02*
X16750Y-13675D01*
G54D14*
X31661Y-17822D02*
X31361Y-17822D01*
X31361Y-17707D01*
X31376Y-17679D01*
X31390Y-17664D01*
X31419Y-17650D01*
X31461Y-17650D01*
X31490Y-17664D01*
X31504Y-17679D01*
X31519Y-17707D01*
X31519Y-17822D01*
X31490Y-17479D02*
X31476Y-17507D01*
X31461Y-17522D01*
X31433Y-17536D01*
X31419Y-17536D01*
X31390Y-17522D01*
X31376Y-17507D01*
X31361Y-17479D01*
X31361Y-17422D01*
X31376Y-17393D01*
X31390Y-17379D01*
X31419Y-17364D01*
X31433Y-17364D01*
X31461Y-17379D01*
X31476Y-17393D01*
X31490Y-17422D01*
X31490Y-17479D01*
X31504Y-17507D01*
X31519Y-17522D01*
X31547Y-17536D01*
X31604Y-17536D01*
X31633Y-17522D01*
X31647Y-17507D01*
X31661Y-17479D01*
X31661Y-17422D01*
X31647Y-17393D01*
X31633Y-17379D01*
X31604Y-17364D01*
X31547Y-17364D01*
X31519Y-17379D01*
X31504Y-17393D01*
X31490Y-17422D01*
X31484Y-16833D02*
X31484Y-16933D01*
X31641Y-16933D02*
X31341Y-16933D01*
X31341Y-16790D01*
X31341Y-16718D02*
X31341Y-16547D01*
X31641Y-16633D02*
X31341Y-16633D01*
X31641Y-16447D02*
X31341Y-16447D01*
X31341Y-16375D01*
X31356Y-16332D01*
X31384Y-16304D01*
X31413Y-16289D01*
X31470Y-16275D01*
X31513Y-16275D01*
X31570Y-16289D01*
X31599Y-16304D01*
X31627Y-16332D01*
X31641Y-16375D01*
X31641Y-16447D01*
X31641Y-16147D02*
X31341Y-16147D01*
X34101Y-13982D02*
X33801Y-13982D01*
X33801Y-13867D01*
X33816Y-13839D01*
X33830Y-13824D01*
X33859Y-13810D01*
X33901Y-13810D01*
X33930Y-13824D01*
X33944Y-13839D01*
X33959Y-13867D01*
X33959Y-13982D01*
X33801Y-13710D02*
X33801Y-13524D01*
X33916Y-13624D01*
X33916Y-13582D01*
X33930Y-13553D01*
X33944Y-13539D01*
X33973Y-13524D01*
X34044Y-13524D01*
X34073Y-13539D01*
X34087Y-13553D01*
X34101Y-13582D01*
X34101Y-13667D01*
X34087Y-13696D01*
X34073Y-13710D01*
X34384Y-13893D02*
X34399Y-13850D01*
X34413Y-13835D01*
X34441Y-13821D01*
X34484Y-13821D01*
X34513Y-13835D01*
X34527Y-13850D01*
X34541Y-13878D01*
X34541Y-13993D01*
X34241Y-13993D01*
X34241Y-13893D01*
X34256Y-13864D01*
X34270Y-13850D01*
X34299Y-13835D01*
X34327Y-13835D01*
X34356Y-13850D01*
X34370Y-13864D01*
X34384Y-13893D01*
X34384Y-13993D01*
X34541Y-13650D02*
X34527Y-13678D01*
X34513Y-13693D01*
X34484Y-13707D01*
X34399Y-13707D01*
X34370Y-13693D01*
X34356Y-13678D01*
X34341Y-13650D01*
X34341Y-13607D01*
X34356Y-13578D01*
X34370Y-13564D01*
X34399Y-13550D01*
X34484Y-13550D01*
X34513Y-13564D01*
X34527Y-13578D01*
X34541Y-13607D01*
X34541Y-13650D01*
X34541Y-13379D02*
X34527Y-13407D01*
X34513Y-13422D01*
X34484Y-13436D01*
X34399Y-13436D01*
X34370Y-13422D01*
X34356Y-13407D01*
X34341Y-13379D01*
X34341Y-13336D01*
X34356Y-13307D01*
X34370Y-13293D01*
X34399Y-13279D01*
X34484Y-13279D01*
X34513Y-13293D01*
X34527Y-13307D01*
X34541Y-13336D01*
X34541Y-13379D01*
X34341Y-13193D02*
X34341Y-13079D01*
X34241Y-13151D02*
X34499Y-13151D01*
X34527Y-13136D01*
X34541Y-13108D01*
X34541Y-13079D01*
X34541Y-12980D02*
X34241Y-12980D01*
X34241Y-12908D01*
X34256Y-12865D01*
X34284Y-12837D01*
X34313Y-12822D01*
X34370Y-12808D01*
X34413Y-12808D01*
X34470Y-12822D01*
X34499Y-12837D01*
X34527Y-12865D01*
X34541Y-12908D01*
X34541Y-12980D01*
X34541Y-12680D02*
X34341Y-12680D01*
X34399Y-12680D02*
X34370Y-12665D01*
X34356Y-12651D01*
X34341Y-12622D01*
X34341Y-12594D01*
X34541Y-12494D02*
X34341Y-12494D01*
X34241Y-12494D02*
X34256Y-12508D01*
X34270Y-12494D01*
X34256Y-12479D01*
X34241Y-12494D01*
X34270Y-12494D01*
X34341Y-12379D02*
X34541Y-12308D01*
X34341Y-12236D01*
X34527Y-12007D02*
X34541Y-12036D01*
X34541Y-12093D01*
X34527Y-12122D01*
X34499Y-12136D01*
X34384Y-12136D01*
X34356Y-12122D01*
X34341Y-12093D01*
X34341Y-12036D01*
X34356Y-12007D01*
X34384Y-11993D01*
X34413Y-11993D01*
X34441Y-12136D01*
X10551Y-13381D02*
X10551Y-13624D01*
X10566Y-13653D01*
X10580Y-13667D01*
X10609Y-13681D01*
X10666Y-13681D01*
X10694Y-13667D01*
X10709Y-13653D01*
X10723Y-13624D01*
X10723Y-13381D01*
X10851Y-13410D02*
X10865Y-13396D01*
X10894Y-13381D01*
X10965Y-13381D01*
X10994Y-13396D01*
X11008Y-13410D01*
X11023Y-13439D01*
X11023Y-13467D01*
X11008Y-13510D01*
X10837Y-13681D01*
X11023Y-13681D01*
X11846Y-12696D02*
X12046Y-12696D01*
X11917Y-12996D01*
X12289Y-12796D02*
X12289Y-12996D01*
X12218Y-12682D02*
X12146Y-12896D01*
X12332Y-12896D01*
X12446Y-12996D02*
X12446Y-12696D01*
X12446Y-12839D02*
X12618Y-12839D01*
X12618Y-12996D02*
X12618Y-12696D01*
X12932Y-12968D02*
X12918Y-12982D01*
X12875Y-12996D01*
X12846Y-12996D01*
X12803Y-12982D01*
X12775Y-12954D01*
X12760Y-12925D01*
X12746Y-12868D01*
X12746Y-12825D01*
X12760Y-12768D01*
X12775Y-12739D01*
X12803Y-12711D01*
X12846Y-12696D01*
X12875Y-12696D01*
X12918Y-12711D01*
X12932Y-12725D01*
X13218Y-12996D02*
X13046Y-12996D01*
X13132Y-12996D02*
X13132Y-12696D01*
X13103Y-12739D01*
X13075Y-12768D01*
X13046Y-12782D01*
X13332Y-12725D02*
X13346Y-12711D01*
X13375Y-12696D01*
X13446Y-12696D01*
X13475Y-12711D01*
X13489Y-12725D01*
X13504Y-12754D01*
X13504Y-12782D01*
X13489Y-12825D01*
X13318Y-12996D01*
X13504Y-12996D01*
X13775Y-12696D02*
X13632Y-12696D01*
X13618Y-12839D01*
X13632Y-12825D01*
X13661Y-12811D01*
X13732Y-12811D01*
X13761Y-12825D01*
X13775Y-12839D01*
X13790Y-12868D01*
X13790Y-12939D01*
X13775Y-12968D01*
X13761Y-12982D01*
X13732Y-12996D01*
X13661Y-12996D01*
X13632Y-12982D01*
X13618Y-12968D01*
X27591Y-12601D02*
X27591Y-12844D01*
X27606Y-12873D01*
X27620Y-12887D01*
X27649Y-12901D01*
X27706Y-12901D01*
X27734Y-12887D01*
X27749Y-12873D01*
X27763Y-12844D01*
X27763Y-12601D01*
X27877Y-12601D02*
X28063Y-12601D01*
X27963Y-12716D01*
X28005Y-12716D01*
X28034Y-12730D01*
X28048Y-12744D01*
X28063Y-12773D01*
X28063Y-12844D01*
X28048Y-12873D01*
X28034Y-12887D01*
X28005Y-12901D01*
X27920Y-12901D01*
X27891Y-12887D01*
X27877Y-12873D01*
X27251Y-14441D02*
X27251Y-14684D01*
X27266Y-14713D01*
X27280Y-14727D01*
X27309Y-14741D01*
X27366Y-14741D01*
X27394Y-14727D01*
X27409Y-14713D01*
X27423Y-14684D01*
X27423Y-14441D01*
X27723Y-14741D02*
X27551Y-14741D01*
X27637Y-14741D02*
X27637Y-14441D01*
X27608Y-14484D01*
X27580Y-14513D01*
X27551Y-14527D01*
X23527Y-14121D02*
X23527Y-13821D01*
X23842Y-14093D02*
X23828Y-14107D01*
X23785Y-14121D01*
X23756Y-14121D01*
X23713Y-14107D01*
X23685Y-14079D01*
X23670Y-14050D01*
X23656Y-13993D01*
X23656Y-13950D01*
X23670Y-13893D01*
X23685Y-13864D01*
X23713Y-13836D01*
X23756Y-13821D01*
X23785Y-13821D01*
X23828Y-13836D01*
X23842Y-13850D01*
X24128Y-14121D02*
X23956Y-14121D01*
X24042Y-14121D02*
X24042Y-13821D01*
X24013Y-13864D01*
X23985Y-13893D01*
X23956Y-13907D01*
X24653Y-10471D02*
X24653Y-10171D01*
X24725Y-10171D01*
X24768Y-10186D01*
X24796Y-10214D01*
X24811Y-10243D01*
X24825Y-10300D01*
X24825Y-10343D01*
X24811Y-10400D01*
X24796Y-10429D01*
X24768Y-10457D01*
X24725Y-10471D01*
X24653Y-10471D01*
X25111Y-10471D02*
X24939Y-10471D01*
X25025Y-10471D02*
X25025Y-10171D01*
X24996Y-10214D01*
X24968Y-10243D01*
X24939Y-10257D01*
X26278Y-10471D02*
X26278Y-10171D01*
X26350Y-10171D01*
X26393Y-10186D01*
X26421Y-10214D01*
X26436Y-10243D01*
X26450Y-10300D01*
X26450Y-10343D01*
X26436Y-10400D01*
X26421Y-10429D01*
X26393Y-10457D01*
X26350Y-10471D01*
X26278Y-10471D01*
X26564Y-10200D02*
X26578Y-10186D01*
X26607Y-10171D01*
X26678Y-10171D01*
X26707Y-10186D01*
X26721Y-10200D01*
X26736Y-10229D01*
X26736Y-10257D01*
X26721Y-10300D01*
X26550Y-10471D01*
X26736Y-10471D01*
X30300Y-16168D02*
X30286Y-16182D01*
X30243Y-16196D01*
X30214Y-16196D01*
X30171Y-16182D01*
X30143Y-16154D01*
X30128Y-16125D01*
X30114Y-16068D01*
X30114Y-16025D01*
X30128Y-15968D01*
X30143Y-15939D01*
X30171Y-15911D01*
X30214Y-15896D01*
X30243Y-15896D01*
X30286Y-15911D01*
X30300Y-15925D01*
X30557Y-15896D02*
X30500Y-15896D01*
X30471Y-15911D01*
X30457Y-15925D01*
X30428Y-15968D01*
X30414Y-16025D01*
X30414Y-16139D01*
X30428Y-16168D01*
X30443Y-16182D01*
X30471Y-16196D01*
X30528Y-16196D01*
X30557Y-16182D01*
X30571Y-16168D01*
X30586Y-16139D01*
X30586Y-16068D01*
X30571Y-16039D01*
X30557Y-16025D01*
X30528Y-16011D01*
X30471Y-16011D01*
X30443Y-16025D01*
X30428Y-16039D01*
X30414Y-16068D01*
X25190Y-13133D02*
X25176Y-13147D01*
X25133Y-13161D01*
X25104Y-13161D01*
X25061Y-13147D01*
X25033Y-13119D01*
X25018Y-13090D01*
X25004Y-13033D01*
X25004Y-12990D01*
X25018Y-12933D01*
X25033Y-12904D01*
X25061Y-12876D01*
X25104Y-12861D01*
X25133Y-12861D01*
X25176Y-12876D01*
X25190Y-12890D01*
X25304Y-12890D02*
X25318Y-12876D01*
X25347Y-12861D01*
X25418Y-12861D01*
X25447Y-12876D01*
X25461Y-12890D01*
X25476Y-12919D01*
X25476Y-12947D01*
X25461Y-12990D01*
X25290Y-13161D01*
X25476Y-13161D01*
X17770Y-15633D02*
X17756Y-15647D01*
X17713Y-15661D01*
X17684Y-15661D01*
X17641Y-15647D01*
X17613Y-15619D01*
X17598Y-15590D01*
X17584Y-15533D01*
X17584Y-15490D01*
X17598Y-15433D01*
X17613Y-15404D01*
X17641Y-15376D01*
X17684Y-15361D01*
X17713Y-15361D01*
X17756Y-15376D01*
X17770Y-15390D01*
X18056Y-15661D02*
X17884Y-15661D01*
X17970Y-15661D02*
X17970Y-15361D01*
X17941Y-15404D01*
X17913Y-15433D01*
X17884Y-15447D01*
X25230Y-16853D02*
X25216Y-16867D01*
X25173Y-16881D01*
X25144Y-16881D01*
X25101Y-16867D01*
X25073Y-16839D01*
X25058Y-16810D01*
X25044Y-16753D01*
X25044Y-16710D01*
X25058Y-16653D01*
X25073Y-16624D01*
X25101Y-16596D01*
X25144Y-16581D01*
X25173Y-16581D01*
X25216Y-16596D01*
X25230Y-16610D01*
X25330Y-16581D02*
X25530Y-16581D01*
X25401Y-16881D01*
X28450Y-10418D02*
X28436Y-10432D01*
X28393Y-10446D01*
X28364Y-10446D01*
X28321Y-10432D01*
X28293Y-10404D01*
X28278Y-10375D01*
X28264Y-10318D01*
X28264Y-10275D01*
X28278Y-10218D01*
X28293Y-10189D01*
X28321Y-10161D01*
X28364Y-10146D01*
X28393Y-10146D01*
X28436Y-10161D01*
X28450Y-10175D01*
X28707Y-10246D02*
X28707Y-10446D01*
X28636Y-10132D02*
X28564Y-10346D01*
X28750Y-10346D01*
X30125Y-13768D02*
X30111Y-13782D01*
X30068Y-13796D01*
X30039Y-13796D01*
X29996Y-13782D01*
X29968Y-13754D01*
X29953Y-13725D01*
X29939Y-13668D01*
X29939Y-13625D01*
X29953Y-13568D01*
X29968Y-13539D01*
X29996Y-13511D01*
X30039Y-13496D01*
X30068Y-13496D01*
X30111Y-13511D01*
X30125Y-13525D01*
X30296Y-13625D02*
X30268Y-13611D01*
X30253Y-13596D01*
X30239Y-13568D01*
X30239Y-13554D01*
X30253Y-13525D01*
X30268Y-13511D01*
X30296Y-13496D01*
X30353Y-13496D01*
X30382Y-13511D01*
X30396Y-13525D01*
X30411Y-13554D01*
X30411Y-13568D01*
X30396Y-13596D01*
X30382Y-13611D01*
X30353Y-13625D01*
X30296Y-13625D01*
X30268Y-13639D01*
X30253Y-13654D01*
X30239Y-13682D01*
X30239Y-13739D01*
X30253Y-13768D01*
X30268Y-13782D01*
X30296Y-13796D01*
X30353Y-13796D01*
X30382Y-13782D01*
X30396Y-13768D01*
X30411Y-13739D01*
X30411Y-13682D01*
X30396Y-13654D01*
X30382Y-13639D01*
X30353Y-13625D01*
X26930Y-13153D02*
X26916Y-13167D01*
X26873Y-13181D01*
X26844Y-13181D01*
X26801Y-13167D01*
X26773Y-13139D01*
X26758Y-13110D01*
X26744Y-13053D01*
X26744Y-13010D01*
X26758Y-12953D01*
X26773Y-12924D01*
X26801Y-12896D01*
X26844Y-12881D01*
X26873Y-12881D01*
X26916Y-12896D01*
X26930Y-12910D01*
X27201Y-12881D02*
X27058Y-12881D01*
X27044Y-13024D01*
X27058Y-13010D01*
X27087Y-12996D01*
X27158Y-12996D01*
X27187Y-13010D01*
X27201Y-13024D01*
X27216Y-13053D01*
X27216Y-13124D01*
X27201Y-13153D01*
X27187Y-13167D01*
X27158Y-13181D01*
X27087Y-13181D01*
X27058Y-13167D01*
X27044Y-13153D01*
X23582Y-10468D02*
X23568Y-10482D01*
X23525Y-10496D01*
X23496Y-10496D01*
X23453Y-10482D01*
X23425Y-10454D01*
X23410Y-10425D01*
X23396Y-10368D01*
X23396Y-10325D01*
X23410Y-10268D01*
X23425Y-10239D01*
X23453Y-10211D01*
X23496Y-10196D01*
X23525Y-10196D01*
X23568Y-10211D01*
X23582Y-10225D01*
X23868Y-10496D02*
X23696Y-10496D01*
X23782Y-10496D02*
X23782Y-10196D01*
X23753Y-10239D01*
X23725Y-10268D01*
X23696Y-10282D01*
X24054Y-10196D02*
X24082Y-10196D01*
X24111Y-10211D01*
X24125Y-10225D01*
X24139Y-10254D01*
X24154Y-10311D01*
X24154Y-10382D01*
X24139Y-10439D01*
X24125Y-10468D01*
X24111Y-10482D01*
X24082Y-10496D01*
X24054Y-10496D01*
X24025Y-10482D01*
X24011Y-10468D01*
X23996Y-10439D01*
X23982Y-10382D01*
X23982Y-10311D01*
X23996Y-10254D01*
X24011Y-10225D01*
X24025Y-10211D01*
X24054Y-10196D01*
X22532Y-10468D02*
X22518Y-10482D01*
X22475Y-10496D01*
X22446Y-10496D01*
X22403Y-10482D01*
X22375Y-10454D01*
X22360Y-10425D01*
X22346Y-10368D01*
X22346Y-10325D01*
X22360Y-10268D01*
X22375Y-10239D01*
X22403Y-10211D01*
X22446Y-10196D01*
X22475Y-10196D01*
X22518Y-10211D01*
X22532Y-10225D01*
X22818Y-10496D02*
X22646Y-10496D01*
X22732Y-10496D02*
X22732Y-10196D01*
X22703Y-10239D01*
X22675Y-10268D01*
X22646Y-10282D01*
X23104Y-10496D02*
X22932Y-10496D01*
X23018Y-10496D02*
X23018Y-10196D01*
X22989Y-10239D01*
X22961Y-10268D01*
X22932Y-10282D01*
X30100Y-10418D02*
X30086Y-10432D01*
X30043Y-10446D01*
X30014Y-10446D01*
X29971Y-10432D01*
X29943Y-10404D01*
X29928Y-10375D01*
X29914Y-10318D01*
X29914Y-10275D01*
X29928Y-10218D01*
X29943Y-10189D01*
X29971Y-10161D01*
X30014Y-10146D01*
X30043Y-10146D01*
X30086Y-10161D01*
X30100Y-10175D01*
X30200Y-10146D02*
X30386Y-10146D01*
X30286Y-10261D01*
X30328Y-10261D01*
X30357Y-10275D01*
X30371Y-10289D01*
X30386Y-10318D01*
X30386Y-10389D01*
X30371Y-10418D01*
X30357Y-10432D01*
X30328Y-10446D01*
X30243Y-10446D01*
X30214Y-10432D01*
X30200Y-10418D01*
X18000Y-18507D02*
X18043Y-18521D01*
X18114Y-18521D01*
X18143Y-18507D01*
X18157Y-18493D01*
X18172Y-18464D01*
X18172Y-18436D01*
X18157Y-18407D01*
X18143Y-18393D01*
X18114Y-18379D01*
X18057Y-18364D01*
X18029Y-18350D01*
X18014Y-18336D01*
X18000Y-18307D01*
X18000Y-18279D01*
X18014Y-18250D01*
X18029Y-18236D01*
X18057Y-18221D01*
X18129Y-18221D01*
X18172Y-18236D01*
X18272Y-18221D02*
X18343Y-18521D01*
X18400Y-18307D01*
X18458Y-18521D01*
X18529Y-18221D01*
X18801Y-18521D02*
X18629Y-18521D01*
X18715Y-18521D02*
X18715Y-18221D01*
X18686Y-18264D01*
X18658Y-18293D01*
X18629Y-18307D01*
X21782Y-13696D02*
X21982Y-13996D01*
X21982Y-13696D02*
X21782Y-13996D01*
X22254Y-13996D02*
X22082Y-13996D01*
X22168Y-13996D02*
X22168Y-13696D01*
X22139Y-13739D01*
X22111Y-13768D01*
X22082Y-13782D01*
G54D10*
X10968Y-21780D02*
X10987Y-21723D01*
X10987Y-21627D01*
X10968Y-21589D01*
X10949Y-21570D01*
X10911Y-21551D01*
X10873Y-21551D01*
X10835Y-21570D01*
X10815Y-21589D01*
X10796Y-21627D01*
X10777Y-21704D01*
X10758Y-21742D01*
X10739Y-21761D01*
X10701Y-21780D01*
X10663Y-21780D01*
X10625Y-21761D01*
X10606Y-21742D01*
X10587Y-21704D01*
X10587Y-21608D01*
X10606Y-21551D01*
X10987Y-21380D02*
X10587Y-21380D01*
X10587Y-21285D01*
X10606Y-21227D01*
X10644Y-21189D01*
X10682Y-21170D01*
X10758Y-21151D01*
X10815Y-21151D01*
X10892Y-21170D01*
X10930Y-21189D01*
X10968Y-21227D01*
X10987Y-21285D01*
X10987Y-21380D01*
X10987Y-20770D02*
X10987Y-20999D01*
X10987Y-20885D02*
X10587Y-20885D01*
X10644Y-20923D01*
X10682Y-20961D01*
X10701Y-20999D01*
X10851Y-16468D02*
X10908Y-16487D01*
X11004Y-16487D01*
X11042Y-16468D01*
X11061Y-16449D01*
X11080Y-16411D01*
X11080Y-16373D01*
X11061Y-16335D01*
X11042Y-16315D01*
X11004Y-16296D01*
X10927Y-16277D01*
X10889Y-16258D01*
X10870Y-16239D01*
X10851Y-16201D01*
X10851Y-16163D01*
X10870Y-16125D01*
X10889Y-16106D01*
X10927Y-16087D01*
X11023Y-16087D01*
X11080Y-16106D01*
X11251Y-16487D02*
X11251Y-16087D01*
X11346Y-16087D01*
X11404Y-16106D01*
X11442Y-16144D01*
X11461Y-16182D01*
X11480Y-16258D01*
X11480Y-16315D01*
X11461Y-16392D01*
X11442Y-16430D01*
X11404Y-16468D01*
X11346Y-16487D01*
X11251Y-16487D01*
X11556Y-16525D02*
X11861Y-16525D01*
X12185Y-16449D02*
X12166Y-16468D01*
X12109Y-16487D01*
X12071Y-16487D01*
X12013Y-16468D01*
X11975Y-16430D01*
X11956Y-16392D01*
X11937Y-16315D01*
X11937Y-16258D01*
X11956Y-16182D01*
X11975Y-16144D01*
X12013Y-16106D01*
X12071Y-16087D01*
X12109Y-16087D01*
X12166Y-16106D01*
X12185Y-16125D01*
X12337Y-16373D02*
X12528Y-16373D01*
X12299Y-16487D02*
X12432Y-16087D01*
X12566Y-16487D01*
X12928Y-16487D02*
X12794Y-16296D01*
X12699Y-16487D02*
X12699Y-16087D01*
X12852Y-16087D01*
X12890Y-16106D01*
X12909Y-16125D01*
X12928Y-16163D01*
X12928Y-16220D01*
X12909Y-16258D01*
X12890Y-16277D01*
X12852Y-16296D01*
X12699Y-16296D01*
X13099Y-16487D02*
X13099Y-16087D01*
X13194Y-16087D01*
X13252Y-16106D01*
X13290Y-16144D01*
X13309Y-16182D01*
X13328Y-16258D01*
X13328Y-16315D01*
X13309Y-16392D01*
X13290Y-16430D01*
X13252Y-16468D01*
X13194Y-16487D01*
X13099Y-16487D01*
X13404Y-16525D02*
X13709Y-16525D01*
X13804Y-16487D02*
X13804Y-16087D01*
X13938Y-16373D01*
X14071Y-16087D01*
X14071Y-16487D01*
X14261Y-16487D02*
X14261Y-16087D01*
X14680Y-16449D02*
X14661Y-16468D01*
X14604Y-16487D01*
X14566Y-16487D01*
X14508Y-16468D01*
X14470Y-16430D01*
X14451Y-16392D01*
X14432Y-16315D01*
X14432Y-16258D01*
X14451Y-16182D01*
X14470Y-16144D01*
X14508Y-16106D01*
X14566Y-16087D01*
X14604Y-16087D01*
X14661Y-16106D01*
X14680Y-16125D01*
X15080Y-16487D02*
X14946Y-16296D01*
X14851Y-16487D02*
X14851Y-16087D01*
X15004Y-16087D01*
X15042Y-16106D01*
X15061Y-16125D01*
X15080Y-16163D01*
X15080Y-16220D01*
X15061Y-16258D01*
X15042Y-16277D01*
X15004Y-16296D01*
X14851Y-16296D01*
X15327Y-16087D02*
X15404Y-16087D01*
X15442Y-16106D01*
X15480Y-16144D01*
X15499Y-16220D01*
X15499Y-16354D01*
X15480Y-16430D01*
X15442Y-16468D01*
X15404Y-16487D01*
X15327Y-16487D01*
X15289Y-16468D01*
X15251Y-16430D01*
X15232Y-16354D01*
X15232Y-16220D01*
X15251Y-16144D01*
X15289Y-16106D01*
X15327Y-16087D01*
G54D14*
X28618Y-21921D02*
X28618Y-21621D01*
X28733Y-21621D01*
X28761Y-21636D01*
X28776Y-21650D01*
X28790Y-21679D01*
X28790Y-21721D01*
X28776Y-21750D01*
X28761Y-21764D01*
X28733Y-21779D01*
X28618Y-21779D01*
X29061Y-21621D02*
X28918Y-21621D01*
X28904Y-21764D01*
X28918Y-21750D01*
X28947Y-21736D01*
X29018Y-21736D01*
X29047Y-21750D01*
X29061Y-21764D01*
X29076Y-21793D01*
X29076Y-21864D01*
X29061Y-21893D01*
X29047Y-21907D01*
X29018Y-21921D01*
X28947Y-21921D01*
X28918Y-21907D01*
X28904Y-21893D01*
X21638Y-21921D02*
X21638Y-21621D01*
X21753Y-21621D01*
X21781Y-21636D01*
X21796Y-21650D01*
X21810Y-21679D01*
X21810Y-21721D01*
X21796Y-21750D01*
X21781Y-21764D01*
X21753Y-21779D01*
X21638Y-21779D01*
X22067Y-21721D02*
X22067Y-21921D01*
X21996Y-21607D02*
X21924Y-21821D01*
X22110Y-21821D01*
X30903Y-13996D02*
X30903Y-13696D01*
X31018Y-13696D01*
X31046Y-13711D01*
X31061Y-13725D01*
X31075Y-13754D01*
X31075Y-13796D01*
X31061Y-13825D01*
X31046Y-13839D01*
X31018Y-13854D01*
X30903Y-13854D01*
X31332Y-13696D02*
X31275Y-13696D01*
X31246Y-13711D01*
X31232Y-13725D01*
X31203Y-13768D01*
X31189Y-13825D01*
X31189Y-13939D01*
X31203Y-13968D01*
X31218Y-13982D01*
X31246Y-13996D01*
X31303Y-13996D01*
X31332Y-13982D01*
X31346Y-13968D01*
X31361Y-13939D01*
X31361Y-13868D01*
X31346Y-13839D01*
X31332Y-13825D01*
X31303Y-13811D01*
X31246Y-13811D01*
X31218Y-13825D01*
X31203Y-13839D01*
X31189Y-13868D01*
X33841Y-12922D02*
X33541Y-12922D01*
X33541Y-12807D01*
X33556Y-12779D01*
X33570Y-12764D01*
X33599Y-12750D01*
X33641Y-12750D01*
X33670Y-12764D01*
X33684Y-12779D01*
X33699Y-12807D01*
X33699Y-12922D01*
X33570Y-12636D02*
X33556Y-12622D01*
X33541Y-12593D01*
X33541Y-12522D01*
X33556Y-12493D01*
X33570Y-12479D01*
X33599Y-12464D01*
X33627Y-12464D01*
X33670Y-12479D01*
X33841Y-12650D01*
X33841Y-12464D01*
X33793Y-11871D02*
X33807Y-11885D01*
X33821Y-11928D01*
X33821Y-11957D01*
X33807Y-12000D01*
X33779Y-12028D01*
X33750Y-12043D01*
X33693Y-12057D01*
X33650Y-12057D01*
X33593Y-12043D01*
X33564Y-12028D01*
X33536Y-12000D01*
X33521Y-11957D01*
X33521Y-11928D01*
X33536Y-11885D01*
X33550Y-11871D01*
X33521Y-11685D02*
X33521Y-11628D01*
X33536Y-11600D01*
X33564Y-11571D01*
X33621Y-11557D01*
X33721Y-11557D01*
X33779Y-11571D01*
X33807Y-11600D01*
X33821Y-11628D01*
X33821Y-11685D01*
X33807Y-11714D01*
X33779Y-11743D01*
X33721Y-11757D01*
X33621Y-11757D01*
X33564Y-11743D01*
X33536Y-11714D01*
X33521Y-11685D01*
X33821Y-11429D02*
X33521Y-11429D01*
X33736Y-11329D01*
X33521Y-11229D01*
X33821Y-11229D01*
X33821Y-11086D02*
X33521Y-11086D01*
X33736Y-10986D01*
X33521Y-10886D01*
X33821Y-10886D01*
X33850Y-10814D02*
X33850Y-10585D01*
X33821Y-10342D02*
X33679Y-10442D01*
X33821Y-10514D02*
X33521Y-10514D01*
X33521Y-10399D01*
X33536Y-10371D01*
X33550Y-10356D01*
X33579Y-10342D01*
X33621Y-10342D01*
X33650Y-10356D01*
X33664Y-10371D01*
X33679Y-10399D01*
X33679Y-10514D01*
X17553Y-11421D02*
X17553Y-11121D01*
X17668Y-11121D01*
X17696Y-11136D01*
X17711Y-11150D01*
X17725Y-11179D01*
X17725Y-11221D01*
X17711Y-11250D01*
X17696Y-11264D01*
X17668Y-11279D01*
X17553Y-11279D01*
X17868Y-11421D02*
X17925Y-11421D01*
X17953Y-11407D01*
X17968Y-11393D01*
X17996Y-11350D01*
X18011Y-11293D01*
X18011Y-11179D01*
X17996Y-11150D01*
X17982Y-11136D01*
X17953Y-11121D01*
X17896Y-11121D01*
X17868Y-11136D01*
X17853Y-11150D01*
X17839Y-11179D01*
X17839Y-11250D01*
X17853Y-11279D01*
X17868Y-11293D01*
X17896Y-11307D01*
X17953Y-11307D01*
X17982Y-11293D01*
X17996Y-11279D01*
X18011Y-11250D01*
X17407Y-11841D02*
X17407Y-11541D01*
X17536Y-11827D02*
X17579Y-11841D01*
X17650Y-11841D01*
X17679Y-11827D01*
X17693Y-11813D01*
X17708Y-11784D01*
X17708Y-11756D01*
X17693Y-11727D01*
X17679Y-11713D01*
X17650Y-11699D01*
X17593Y-11684D01*
X17565Y-11670D01*
X17550Y-11656D01*
X17536Y-11627D01*
X17536Y-11599D01*
X17550Y-11570D01*
X17565Y-11556D01*
X17593Y-11541D01*
X17665Y-11541D01*
X17708Y-11556D01*
X17836Y-11841D02*
X17836Y-11541D01*
X17951Y-11541D01*
X17979Y-11556D01*
X17994Y-11570D01*
X18008Y-11599D01*
X18008Y-11641D01*
X17994Y-11670D01*
X17979Y-11684D01*
X17951Y-11699D01*
X17836Y-11699D01*
X26400Y-12746D02*
X26300Y-12604D01*
X26228Y-12746D02*
X26228Y-12446D01*
X26343Y-12446D01*
X26371Y-12461D01*
X26386Y-12475D01*
X26400Y-12504D01*
X26400Y-12546D01*
X26386Y-12575D01*
X26371Y-12589D01*
X26343Y-12604D01*
X26228Y-12604D01*
X26571Y-12575D02*
X26543Y-12561D01*
X26528Y-12546D01*
X26514Y-12518D01*
X26514Y-12504D01*
X26528Y-12475D01*
X26543Y-12461D01*
X26571Y-12446D01*
X26628Y-12446D01*
X26657Y-12461D01*
X26671Y-12475D01*
X26686Y-12504D01*
X26686Y-12518D01*
X26671Y-12546D01*
X26657Y-12561D01*
X26628Y-12575D01*
X26571Y-12575D01*
X26543Y-12589D01*
X26528Y-12604D01*
X26514Y-12632D01*
X26514Y-12689D01*
X26528Y-12718D01*
X26543Y-12732D01*
X26571Y-12746D01*
X26628Y-12746D01*
X26657Y-12732D01*
X26671Y-12718D01*
X26686Y-12689D01*
X26686Y-12632D01*
X26671Y-12604D01*
X26657Y-12589D01*
X26628Y-12575D01*
X24775Y-12746D02*
X24675Y-12604D01*
X24603Y-12746D02*
X24603Y-12446D01*
X24718Y-12446D01*
X24746Y-12461D01*
X24761Y-12475D01*
X24775Y-12504D01*
X24775Y-12546D01*
X24761Y-12575D01*
X24746Y-12589D01*
X24718Y-12604D01*
X24603Y-12604D01*
X25046Y-12446D02*
X24903Y-12446D01*
X24889Y-12589D01*
X24903Y-12575D01*
X24932Y-12561D01*
X25003Y-12561D01*
X25032Y-12575D01*
X25046Y-12589D01*
X25061Y-12618D01*
X25061Y-12689D01*
X25046Y-12718D01*
X25032Y-12732D01*
X25003Y-12746D01*
X24932Y-12746D01*
X24903Y-12732D01*
X24889Y-12718D01*
X29870Y-18501D02*
X29770Y-18359D01*
X29698Y-18501D02*
X29698Y-18201D01*
X29813Y-18201D01*
X29841Y-18216D01*
X29856Y-18230D01*
X29870Y-18259D01*
X29870Y-18301D01*
X29856Y-18330D01*
X29841Y-18344D01*
X29813Y-18359D01*
X29698Y-18359D01*
X29984Y-18230D02*
X29998Y-18216D01*
X30027Y-18201D01*
X30098Y-18201D01*
X30127Y-18216D01*
X30141Y-18230D01*
X30156Y-18259D01*
X30156Y-18287D01*
X30141Y-18330D01*
X29970Y-18501D01*
X30156Y-18501D01*
X31090Y-18481D02*
X30990Y-18339D01*
X30918Y-18481D02*
X30918Y-18181D01*
X31033Y-18181D01*
X31061Y-18196D01*
X31076Y-18210D01*
X31090Y-18239D01*
X31090Y-18281D01*
X31076Y-18310D01*
X31061Y-18324D01*
X31033Y-18339D01*
X30918Y-18339D01*
X31376Y-18481D02*
X31204Y-18481D01*
X31290Y-18481D02*
X31290Y-18181D01*
X31261Y-18224D01*
X31233Y-18253D01*
X31204Y-18267D01*
X25210Y-17881D02*
X25110Y-17739D01*
X25038Y-17881D02*
X25038Y-17581D01*
X25153Y-17581D01*
X25181Y-17596D01*
X25196Y-17610D01*
X25210Y-17639D01*
X25210Y-17681D01*
X25196Y-17710D01*
X25181Y-17724D01*
X25153Y-17739D01*
X25038Y-17739D01*
X25310Y-17581D02*
X25510Y-17581D01*
X25381Y-17881D01*
X16050Y-11501D02*
X15950Y-11359D01*
X15878Y-11501D02*
X15878Y-11201D01*
X15993Y-11201D01*
X16021Y-11216D01*
X16036Y-11230D01*
X16050Y-11259D01*
X16050Y-11301D01*
X16036Y-11330D01*
X16021Y-11344D01*
X15993Y-11359D01*
X15878Y-11359D01*
X16150Y-11201D02*
X16336Y-11201D01*
X16236Y-11316D01*
X16278Y-11316D01*
X16307Y-11330D01*
X16321Y-11344D01*
X16336Y-11373D01*
X16336Y-11444D01*
X16321Y-11473D01*
X16307Y-11487D01*
X16278Y-11501D01*
X16193Y-11501D01*
X16164Y-11487D01*
X16150Y-11473D01*
X14530Y-14301D02*
X14430Y-14159D01*
X14358Y-14301D02*
X14358Y-14001D01*
X14473Y-14001D01*
X14501Y-14016D01*
X14516Y-14030D01*
X14530Y-14059D01*
X14530Y-14101D01*
X14516Y-14130D01*
X14501Y-14144D01*
X14473Y-14159D01*
X14358Y-14159D01*
X14787Y-14101D02*
X14787Y-14301D01*
X14716Y-13987D02*
X14644Y-14201D01*
X14830Y-14201D01*
X16470Y-12621D02*
X16370Y-12479D01*
X16298Y-12621D02*
X16298Y-12321D01*
X16413Y-12321D01*
X16441Y-12336D01*
X16456Y-12350D01*
X16470Y-12379D01*
X16470Y-12421D01*
X16456Y-12450D01*
X16441Y-12464D01*
X16413Y-12479D01*
X16298Y-12479D01*
X16727Y-12321D02*
X16670Y-12321D01*
X16641Y-12336D01*
X16627Y-12350D01*
X16598Y-12393D01*
X16584Y-12450D01*
X16584Y-12564D01*
X16598Y-12593D01*
X16613Y-12607D01*
X16641Y-12621D01*
X16698Y-12621D01*
X16727Y-12607D01*
X16741Y-12593D01*
X16756Y-12564D01*
X16756Y-12493D01*
X16741Y-12464D01*
X16727Y-12450D01*
X16698Y-12436D01*
X16641Y-12436D01*
X16613Y-12450D01*
X16598Y-12464D01*
X16584Y-12493D01*
%LPC*%
G54D16*
X32325Y-19600D03*
G54D17*
X32325Y-18600D03*
X32325Y-17600D03*
X32325Y-16600D03*
X32325Y-15600D03*
X32325Y-14600D03*
G54D16*
X34075Y-19600D03*
G54D17*
X34075Y-18600D03*
X34075Y-17600D03*
X34075Y-16600D03*
X34075Y-15600D03*
X34075Y-14600D03*
G54D18*
X11325Y-13550D03*
X11825Y-13550D03*
X12325Y-13550D03*
X12825Y-13550D03*
X13325Y-13550D03*
X13825Y-13550D03*
X14325Y-13550D03*
X14325Y-11450D03*
X13825Y-11450D03*
X13325Y-11450D03*
X12825Y-11450D03*
X12325Y-11450D03*
X11825Y-11450D03*
X11325Y-11450D03*
G54D19*
X26325Y-19600D03*
X27325Y-19600D03*
G54D20*
X29575Y-12725D03*
X29575Y-11975D03*
X29575Y-12350D03*
X28525Y-11975D03*
X28525Y-12725D03*
G54D21*
X26825Y-14825D03*
X26450Y-15775D03*
X26075Y-14825D03*
G54D22*
X21423Y-14716D03*
X21738Y-14716D03*
X22053Y-14716D03*
X22368Y-14716D03*
X22682Y-14716D03*
X22997Y-14716D03*
X23312Y-14716D03*
X23627Y-14716D03*
X23627Y-17984D03*
X21423Y-17984D03*
X21738Y-17984D03*
X22053Y-17984D03*
X22368Y-17984D03*
X22682Y-17984D03*
X22997Y-17984D03*
X23312Y-17984D03*
G54D23*
X24159Y-15248D03*
X24159Y-15563D03*
X24159Y-15878D03*
X24159Y-16193D03*
X24159Y-16507D03*
X24159Y-16822D03*
X24159Y-17137D03*
X24159Y-17452D03*
X20891Y-15248D03*
X20891Y-15563D03*
X20891Y-15878D03*
X20891Y-16193D03*
X20891Y-16507D03*
X20891Y-16822D03*
X20891Y-17137D03*
X20891Y-17452D03*
G54D24*
X25775Y-10975D03*
X24975Y-10975D03*
X27400Y-10975D03*
X26600Y-10975D03*
G54D25*
X29825Y-15400D03*
X28025Y-15425D03*
G54D26*
X25050Y-14400D03*
X25050Y-13600D03*
X17825Y-16925D03*
X17825Y-16125D03*
G54D27*
X26800Y-16750D03*
X26000Y-16750D03*
X28625Y-10975D03*
X29425Y-10975D03*
X29500Y-13675D03*
X28700Y-13675D03*
X26050Y-13700D03*
X26850Y-13700D03*
G54D26*
X23775Y-11750D03*
X23775Y-10950D03*
X22725Y-10950D03*
X22725Y-11750D03*
G54D27*
X31075Y-10975D03*
X30275Y-10975D03*
G54D28*
X19425Y-19375D03*
X17375Y-19375D03*
X17375Y-20075D03*
X19425Y-20075D03*
G54D29*
X22475Y-12450D03*
X21575Y-13200D03*
X22475Y-13200D03*
X21575Y-12450D03*
G54D30*
X12625Y-15350D03*
X12192Y-15350D03*
X11759Y-15350D03*
X11326Y-15350D03*
X10893Y-15350D03*
X13058Y-15350D03*
X13491Y-15350D03*
X13924Y-15350D03*
X14357Y-15350D03*
G54D31*
X10363Y-15586D03*
G54D32*
X10499Y-19434D03*
G54D31*
X16562Y-19434D03*
G54D33*
X16240Y-15504D03*
G54D34*
X11600Y-19650D03*
X14750Y-19650D03*
G54D19*
X20675Y-13300D03*
G54D35*
X19225Y-15875D03*
X19225Y-17125D03*
X18825Y-17125D03*
X18825Y-15875D03*
G54D16*
X27325Y-21100D03*
G54D17*
X28325Y-21100D03*
X29325Y-21100D03*
X30325Y-21100D03*
X31325Y-21100D03*
X32325Y-21100D03*
G54D16*
X20325Y-21100D03*
G54D17*
X21325Y-21100D03*
X22325Y-21100D03*
X23325Y-21100D03*
X24325Y-21100D03*
X25325Y-21100D03*
G54D19*
X26325Y-21100D03*
X17475Y-18700D03*
X17350Y-21625D03*
X15875Y-18700D03*
G54D16*
X31125Y-12100D03*
G54D17*
X31125Y-13100D03*
G54D16*
X32325Y-10600D03*
G54D17*
X32325Y-11600D03*
X32325Y-12600D03*
X32325Y-13600D03*
G54D16*
X18675Y-11800D03*
G54D17*
X18675Y-10800D03*
X19675Y-11800D03*
X19675Y-10800D03*
X20675Y-11800D03*
X20675Y-10800D03*
G54D36*
X26625Y-11925D03*
X27375Y-11925D03*
X25000Y-11925D03*
X25750Y-11925D03*
G54D37*
X30275Y-18975D03*
X30275Y-19725D03*
X31325Y-18975D03*
X31325Y-19725D03*
G54D36*
X26775Y-17750D03*
X26025Y-17750D03*
G54D37*
X15325Y-12325D03*
X15325Y-11575D03*
X15325Y-13150D03*
X15325Y-13900D03*
X16325Y-13150D03*
X16325Y-13900D03*
G54D19*
X21325Y-19600D03*
X19675Y-13300D03*
X18675Y-13300D03*
X17675Y-13300D03*
X20325Y-19600D03*
X22325Y-19600D03*
X23325Y-19600D03*
X24325Y-19600D03*
X25325Y-19600D03*
G54D38*
X18725Y-21250D03*
M02*
