M48
INCH,TZ
T1C0.025
T2C0.032
T3C0.035
T4C0.040
T5C0.045
T6C0.050
T7C0.060
T8C0.080
T9C0.120
T10C0.160
%
G90
G05
T1
X14700Y-12500
X14700Y-13500
X18350Y-13650
X19525Y-13025
X19600Y-11575
X20600Y-11575
X21575Y-11575
X22375Y-31800
X22375Y-32800
X22575Y-11575
X24375Y-31800
X24375Y-32800
X33750Y-22375
X33750Y-23375
X34275Y-29950
X34275Y-30950
X34750Y-22375
X34750Y-23375
X35850Y-30950
X36850Y-30950
X37250Y-29100
X38600Y-30950
X39075Y-29100
X39600Y-30950
X40500Y-21675
X41350Y-30950
X41500Y-18700
X41500Y-21675
X42350Y-30950
X42500Y-19075
X51500Y-18700
X51640Y-28300
X51640Y-29300
X52500Y-19075
X53700Y-22375
X54700Y-22375
X55650Y-28300
X55650Y-29300
X59650Y-28300
X59650Y-29300
X60500Y-18700
X61500Y-19075
X63650Y-28300
X63650Y-29300
X67650Y-28300
X67650Y-29300
T2
X13700Y-33075
X14400Y-23300
X14400Y-24500
X15700Y-33075
X16400Y-23300
X16400Y-24500
X17875Y-24125
X18875Y-24125
X19375Y-24125
X20100Y-14700
X20100Y-17700
X20100Y-18850
X20575Y-24125
X21100Y-14700
X21100Y-17700
X21100Y-18850
X21575Y-24125
X22075Y-24125
X22100Y-14700
X22100Y-17700
X22700Y-19375
X22700Y-21375
X23100Y-14700
X23100Y-17700
X24700Y-19375
X24700Y-21375
X29500Y-13250
X29500Y-16250
X29500Y-17550
X29500Y-20550
X30500Y-13250
X30500Y-16250
X30500Y-17550
X30500Y-20550
X31500Y-13250
X31500Y-16250
X31500Y-17550
X31500Y-20550
X32500Y-13250
X32500Y-16250
X32500Y-17550
X32500Y-20550
X33500Y-13250
X33500Y-16250
X33500Y-17550
X33500Y-20550
X33750Y-24625
X33750Y-27625
X34500Y-13250
X34500Y-16250
X34500Y-17550
X34500Y-20550
X34750Y-24625
X34750Y-27625
X35500Y-13250
X35500Y-16250
X35500Y-17550
X35500Y-20550
X35750Y-24625
X35750Y-27625
X36500Y-13250
X36500Y-16250
X36500Y-17550
X36500Y-20550
X36750Y-24625
X36750Y-27625
X37500Y-13250
X37500Y-16250
X37750Y-24625
X37750Y-27625
X38500Y-13750
X38500Y-15750
X38750Y-24625
X38750Y-27625
X39500Y-13250
X39500Y-16250
X39500Y-17550
X39500Y-20550
X39750Y-23375
X39750Y-24625
X39750Y-27625
X40500Y-13250
X40500Y-16250
X40500Y-17550
X40500Y-20550
X40750Y-24625
X40750Y-27625
X41500Y-13250
X41500Y-16250
X41500Y-17550
X41500Y-20550
X41750Y-23375
X41750Y-24625
X41750Y-27625
X42500Y-13250
X42500Y-16250
X42500Y-17550
X42500Y-20550
X42750Y-24625
X42750Y-27625
X43500Y-13250
X43500Y-16250
X43500Y-17550
X43500Y-20550
X43750Y-24625
X43750Y-27625
X44000Y-30900
X44000Y-31900
X44200Y-29425
X44500Y-13250
X44500Y-16250
X44500Y-17550
X44500Y-20550
X44750Y-24625
X44750Y-27625
X45200Y-29425
X45500Y-13250
X45500Y-16250
X45500Y-17550
X45500Y-20550
X45750Y-24625
X45750Y-27625
X46200Y-29425
X46400Y-30900
X46400Y-31900
X46500Y-13250
X46500Y-16250
X46500Y-17550
X46500Y-20550
X46750Y-24625
X46750Y-27625
X47500Y-13250
X47500Y-16250
X48700Y-13750
X48700Y-15750
X49500Y-17550
X49500Y-20550
X50500Y-13250
X50500Y-16250
X50500Y-17550
X50500Y-20550
X51500Y-13250
X51500Y-16250
X51500Y-17550
X51500Y-20550
X52500Y-13250
X52500Y-16250
X52500Y-17550
X52500Y-20550
X53500Y-13250
X53500Y-16250
X53500Y-17550
X53500Y-20550
X54500Y-13250
X54500Y-16250
X54500Y-17550
X54500Y-20550
X55500Y-13250
X55500Y-16250
X55500Y-17550
X55500Y-20550
X56500Y-13250
X56500Y-16250
X56500Y-17550
X56500Y-20550
X57500Y-13250
X57500Y-16250
X58500Y-17550
X58500Y-20550
X59500Y-13250
X59500Y-16250
X59500Y-17550
X59500Y-20550
X60500Y-13250
X60500Y-16250
X60500Y-17550
X60500Y-20550
X61500Y-13250
X61500Y-16250
X61500Y-17550
X61500Y-20550
X62500Y-13250
X62500Y-16250
X62500Y-17550
X62500Y-20550
X63500Y-13250
X63500Y-16250
X63500Y-17550
X63500Y-20550
X64500Y-13250
X64500Y-16250
X64500Y-17550
X64500Y-20550
X65500Y-13250
X65500Y-16250
X65500Y-17550
X65500Y-20550
X66500Y-13250
X66500Y-16250
X66800Y-18050
X66800Y-20050
T3
X20600Y-19950
X22375Y-27725
X22375Y-30725
X22875Y-24925
X23375Y-27000
X23375Y-30000
X24375Y-27000
X24375Y-30000
X25375Y-27725
X25375Y-30725
X25875Y-24925
X34100Y-32200
X34100Y-33200
X36850Y-32200
X36850Y-33200
X39600Y-32200
X39600Y-33200
X45200Y-31425
X51700Y-23375
X54700Y-23375
T4
X12900Y-19500
X12900Y-20500
X12900Y-21500
X12900Y-22500
X12900Y-23500
X12900Y-24500
X13000Y-14000
X13000Y-15000
X13000Y-16000
X13000Y-17000
X14400Y-26000
X14475Y-14700
X14475Y-15700
X14475Y-16700
X14475Y-17700
X15400Y-26000
X16400Y-26000
X16450Y-13025
X16475Y-19425
X16725Y-14700
X16725Y-15700
X16725Y-16700
X16725Y-17700
X17450Y-13025
X17475Y-19425
X25725Y-14700
X25725Y-15700
X25725Y-16700
X25725Y-17700
X28250Y-10950
X28250Y-11950
X28250Y-12950
X29700Y-23100
X29700Y-24100
X29700Y-25100
X30500Y-10900
X30500Y-11900
X30700Y-23100
X30700Y-24100
X30700Y-25100
X31500Y-10900
X31500Y-11900
X32500Y-10900
X32500Y-11900
X33500Y-10900
X33500Y-11900
X34500Y-10900
X34500Y-11900
X35500Y-10900
X35500Y-11900
X36500Y-10900
X36500Y-11900
X36750Y-23375
X37500Y-10900
X37500Y-11900
X37750Y-23375
X37800Y-18050
X37800Y-20050
X38500Y-10900
X38500Y-11900
X38750Y-23375
X39500Y-10900
X39500Y-11900
X40500Y-10900
X40500Y-11900
X41500Y-10900
X41500Y-11900
X42350Y-32200
X42350Y-33200
X42500Y-10900
X42500Y-11900
X42750Y-23375
X43500Y-10900
X43500Y-11900
X44500Y-10900
X44500Y-11900
X45500Y-10900
X45500Y-11900
X47875Y-18050
X47875Y-20050
X48775Y-28550
X48775Y-31100
X49150Y-29300
X49700Y-25825
X50150Y-29300
X50525Y-28550
X50525Y-31100
X50700Y-25825
X51000Y-10900
X51000Y-11900
X51700Y-25825
X52000Y-10900
X52000Y-11900
X52700Y-25825
X52775Y-28550
X52775Y-31100
X53000Y-10900
X53000Y-11900
X53150Y-29300
X53700Y-25825
X54000Y-10900
X54000Y-11900
X54150Y-29300
X54525Y-28550
X54525Y-31100
X54700Y-25825
X55000Y-10900
X55000Y-11900
X56000Y-10900
X56000Y-11900
X56250Y-22050
X56250Y-23050
X56250Y-24050
X56250Y-25050
X56250Y-26050
X56250Y-27050
X56775Y-28550
X56775Y-31100
X57000Y-10900
X57000Y-11900
X57150Y-29300
X57250Y-22050
X57250Y-23050
X57250Y-24050
X57250Y-25050
X57250Y-26050
X57250Y-27050
X57500Y-18050
X57500Y-20050
X58000Y-10900
X58000Y-11900
X58150Y-29300
X58250Y-22050
X58250Y-23050
X58250Y-24050
X58250Y-25050
X58250Y-26050
X58250Y-27050
X58525Y-28550
X58525Y-31100
X59000Y-10900
X59000Y-11900
X59250Y-22050
X59250Y-23050
X59250Y-24050
X59250Y-25050
X59250Y-26050
X59250Y-27050
X60000Y-10900
X60000Y-11900
X60250Y-22050
X60250Y-23050
X60250Y-24050
X60250Y-25050
X60250Y-26050
X60250Y-27050
X60775Y-28550
X60775Y-31100
X61000Y-10900
X61000Y-11900
X61150Y-29300
X61250Y-22050
X61250Y-23050
X61250Y-24050
X61250Y-25050
X61250Y-26050
X61250Y-27050
X62000Y-10900
X62000Y-11900
X62150Y-29300
X62250Y-22050
X62250Y-23050
X62250Y-24050
X62250Y-25050
X62250Y-26050
X62250Y-27050
X62525Y-28550
X62525Y-31100
X63000Y-10900
X63000Y-11900
X63250Y-22050
X63250Y-23050
X63250Y-24050
X63250Y-25050
X63250Y-26050
X63250Y-27050
X64000Y-10900
X64000Y-11900
X64250Y-22050
X64250Y-23050
X64250Y-24050
X64250Y-25050
X64250Y-26050
X64250Y-27050
X64775Y-28550
X64775Y-31100
X65000Y-10900
X65000Y-11900
X65150Y-29300
X65250Y-22050
X65250Y-23050
X65250Y-24050
X65250Y-25050
X65250Y-26050
X65250Y-27050
X66000Y-10900
X66000Y-11900
X66150Y-29300
X66250Y-22050
X66250Y-23050
X66250Y-24050
X66250Y-25050
X66250Y-26050
X66250Y-27050
X66525Y-28550
X66525Y-31100
X67250Y-22050
X67250Y-23050
X67250Y-24050
X67250Y-25050
X67250Y-26050
X67250Y-27050
X67600Y-14000
X67600Y-15000
X67600Y-16000
X67600Y-17000
X68250Y-22050
X68250Y-23050
X68250Y-24050
X68250Y-25050
X68250Y-26050
X68250Y-27050
X69250Y-22050
X69250Y-23050
X69250Y-24050
X69250Y-25050
X69250Y-26050
X69250Y-27050
T5
X18225Y-26325
X19225Y-26325
X20225Y-26325
T6
X48275Y-30100
X51025Y-30100
X52275Y-30100
X55025Y-30100
X56275Y-30100
X59025Y-30100
X60275Y-30100
X63025Y-30100
X64275Y-30100
X67025Y-30100
T7
X21900Y-29600
X27000Y-30175
X28000Y-30175
X30000Y-30175
X31000Y-30175
X32500Y-29200
X32500Y-30000
T8
X19225Y-27775
T9
X16225Y-11200
X16225Y-21200
X19225Y-31575
X26225Y-11200
X26225Y-21200
T10
X11500Y-11500
X11500Y-32500
X68500Y-11500
X68500Y-32500
T4
X13275Y-29075G85X13275Y-29675
G05
X14025Y-31375G85X15025Y-31375
G05
X15675Y-29075G85X15675Y-29675
G05
T0
M30
