G04 (created by PCBNEW-RS274X (2011-03-30 BZR 2932)-stable) date 07/08/11 12:40:37*
G01*
G70*
G90*
%MOIN*%
G04 Gerber Fmt 3.4, Leading zero omitted, Abs format*
%FSLAX34Y34*%
G04 APERTURE LIST*
%ADD10C,0.006000*%
%ADD11C,0.010000*%
%ADD12C,0.200000*%
%ADD13C,0.060000*%
%ADD14R,0.100000X0.060000*%
%ADD15R,0.060000X0.100000*%
%ADD16C,0.083000*%
%ADD17C,0.063300*%
%ADD18R,0.100000X0.100000*%
%ADD19C,0.100000*%
%ADD20R,0.090000X0.090000*%
%ADD21C,0.090000*%
%ADD22R,0.110000X0.080000*%
%ADD23O,0.110000X0.080000*%
G04 APERTURE END LIST*
G54D10*
G54D11*
X10000Y-10000D02*
X40000Y-10000D01*
X40000Y-22000D02*
X10000Y-22000D01*
X40000Y-10000D02*
X40000Y-22000D01*
X10000Y-22000D02*
X10000Y-10000D01*
G54D12*
X21800Y-11000D03*
X21800Y-21000D03*
G54D13*
X29550Y-17200D03*
X29400Y-17800D03*
X30200Y-19500D03*
X29600Y-19500D03*
X29450Y-15700D03*
X28050Y-19500D03*
X25800Y-16950D03*
X27650Y-16200D03*
X25800Y-16350D03*
X25800Y-15750D03*
X26600Y-15200D03*
X29000Y-19500D03*
G54D14*
X20650Y-14500D03*
X21950Y-15500D03*
X20600Y-16500D03*
X21950Y-17500D03*
G54D15*
X18300Y-10850D03*
X17300Y-12150D03*
X16300Y-10800D03*
X15300Y-12150D03*
G54D14*
X11650Y-14500D03*
X12950Y-15500D03*
X11600Y-16500D03*
X12950Y-17500D03*
G54D15*
X18300Y-19850D03*
X17300Y-21150D03*
X16300Y-19800D03*
X15300Y-21150D03*
G54D16*
X19398Y-19701D03*
G54D17*
X19398Y-11472D03*
G54D18*
X35275Y-12700D03*
G54D19*
X34275Y-12700D03*
X33275Y-12700D03*
X32275Y-12700D03*
X31275Y-12700D03*
X30275Y-12700D03*
G54D20*
X37200Y-15825D03*
G54D21*
X38200Y-15825D03*
X37200Y-16825D03*
X38200Y-16825D03*
X37200Y-17825D03*
X38200Y-17825D03*
X26600Y-11350D03*
X26600Y-13350D03*
X26600Y-12350D03*
G54D22*
X34675Y-14050D03*
G54D23*
X34675Y-15050D03*
G54D22*
X34675Y-18300D03*
G54D23*
X34675Y-17300D03*
G54D20*
X38200Y-10650D03*
G54D21*
X38200Y-11650D03*
X38200Y-12650D03*
X38200Y-13650D03*
G54D20*
X38200Y-21100D03*
G54D21*
X37200Y-21100D03*
X36200Y-21100D03*
X35200Y-21100D03*
G54D20*
X23775Y-21100D03*
G54D21*
X24775Y-21100D03*
X25775Y-21100D03*
X26775Y-21100D03*
G54D20*
X27775Y-21100D03*
G54D21*
X28775Y-21100D03*
X29775Y-21100D03*
X30775Y-21100D03*
G54D20*
X33450Y-21100D03*
G54D21*
X32450Y-21100D03*
M02*
