G04 (created by PCBNEW-RS274X (2011-03-30 BZR 2932)-stable) date 07/16/11 10:48:58*
G01*
G70*
G90*
%MOIN*%
G04 Gerber Fmt 3.4, Leading zero omitted, Abs format*
%FSLAX34Y34*%
G04 APERTURE LIST*
%ADD10C,0.006000*%
%ADD11C,0.005000*%
%ADD12C,0.010000*%
%ADD13C,0.180000*%
%ADD14C,0.040000*%
%ADD15R,0.080000X0.040000*%
%ADD16R,0.040000X0.080000*%
%ADD17C,0.063000*%
%ADD18C,0.043300*%
%ADD19R,0.070000X0.070000*%
%ADD20C,0.070000*%
%ADD21R,0.059000X0.051200*%
%ADD22R,0.040000X0.020000*%
%ADD23C,0.060000*%
%ADD24R,0.051200X0.059000*%
%ADD25R,0.020000X0.045000*%
%ADD26R,0.130000X0.170000*%
%ADD27C,0.035000*%
%ADD28C,0.008000*%
G04 APERTURE END LIST*
G54D10*
X14950Y-13318D02*
X14964Y-13332D01*
X15007Y-13346D01*
X15036Y-13346D01*
X15079Y-13332D01*
X15107Y-13304D01*
X15122Y-13275D01*
X15136Y-13218D01*
X15136Y-13175D01*
X15122Y-13118D01*
X15107Y-13089D01*
X15079Y-13061D01*
X15036Y-13046D01*
X15007Y-13046D01*
X14964Y-13061D01*
X14950Y-13075D01*
X14807Y-13346D02*
X14750Y-13346D01*
X14722Y-13332D01*
X14707Y-13318D01*
X14679Y-13275D01*
X14664Y-13218D01*
X14664Y-13104D01*
X14679Y-13075D01*
X14693Y-13061D01*
X14722Y-13046D01*
X14779Y-13046D01*
X14807Y-13061D01*
X14822Y-13075D01*
X14836Y-13104D01*
X14836Y-13175D01*
X14822Y-13204D01*
X14807Y-13218D01*
X14779Y-13232D01*
X14722Y-13232D01*
X14693Y-13218D01*
X14679Y-13204D01*
X14664Y-13175D01*
X24204Y-14096D02*
X24304Y-13954D01*
X24376Y-14096D02*
X24376Y-13796D01*
X24261Y-13796D01*
X24233Y-13811D01*
X24218Y-13825D01*
X24204Y-13854D01*
X24204Y-13896D01*
X24218Y-13925D01*
X24233Y-13939D01*
X24261Y-13954D01*
X24376Y-13954D01*
X24118Y-13796D02*
X23947Y-13796D01*
X24033Y-14096D02*
X24033Y-13796D01*
X23675Y-14068D02*
X23689Y-14082D01*
X23732Y-14096D01*
X23761Y-14096D01*
X23804Y-14082D01*
X23832Y-14054D01*
X23847Y-14025D01*
X23861Y-13968D01*
X23861Y-13925D01*
X23847Y-13868D01*
X23832Y-13839D01*
X23804Y-13811D01*
X23761Y-13796D01*
X23732Y-13796D01*
X23689Y-13811D01*
X23675Y-13825D01*
X23618Y-14125D02*
X23389Y-14125D01*
X23218Y-13939D02*
X23175Y-13954D01*
X23160Y-13968D01*
X23146Y-13996D01*
X23146Y-14039D01*
X23160Y-14068D01*
X23175Y-14082D01*
X23203Y-14096D01*
X23318Y-14096D01*
X23318Y-13796D01*
X23218Y-13796D01*
X23189Y-13811D01*
X23175Y-13825D01*
X23160Y-13854D01*
X23160Y-13882D01*
X23175Y-13911D01*
X23189Y-13925D01*
X23218Y-13939D01*
X23318Y-13939D01*
X23032Y-14011D02*
X22889Y-14011D01*
X23060Y-14096D02*
X22960Y-13796D01*
X22860Y-14096D01*
X22803Y-13796D02*
X22632Y-13796D01*
X22718Y-14096D02*
X22718Y-13796D01*
X35296Y-17472D02*
X35296Y-17401D01*
X34868Y-17401D01*
X34868Y-17472D01*
X35082Y-17586D02*
X35082Y-17815D01*
X35296Y-17929D02*
X35296Y-18000D01*
X34868Y-18000D01*
X34868Y-17929D01*
X22296Y-16122D02*
X22296Y-16051D01*
X21868Y-16051D01*
X21868Y-16122D01*
X22082Y-16236D02*
X22082Y-16465D01*
X22196Y-16351D02*
X21968Y-16351D01*
X22296Y-16579D02*
X22296Y-16650D01*
X21868Y-16650D01*
X21868Y-16579D01*
X19696Y-15210D02*
X19396Y-15210D01*
X19396Y-15325D01*
X19411Y-15353D01*
X19425Y-15368D01*
X19454Y-15382D01*
X19496Y-15382D01*
X19525Y-15368D01*
X19539Y-15353D01*
X19554Y-15325D01*
X19554Y-15210D01*
X19696Y-15668D02*
X19696Y-15496D01*
X19696Y-15582D02*
X19396Y-15582D01*
X19439Y-15553D01*
X19468Y-15525D01*
X19482Y-15496D01*
X19396Y-15768D02*
X19396Y-15954D01*
X19511Y-15854D01*
X19511Y-15896D01*
X19525Y-15925D01*
X19539Y-15939D01*
X19568Y-15954D01*
X19639Y-15954D01*
X19668Y-15939D01*
X19682Y-15925D01*
X19696Y-15896D01*
X19696Y-15811D01*
X19682Y-15782D01*
X19668Y-15768D01*
X13346Y-11385D02*
X13046Y-11385D01*
X13046Y-11500D01*
X13061Y-11528D01*
X13075Y-11543D01*
X13104Y-11557D01*
X13146Y-11557D01*
X13175Y-11543D01*
X13189Y-11528D01*
X13204Y-11500D01*
X13204Y-11385D01*
X13346Y-11843D02*
X13346Y-11671D01*
X13346Y-11757D02*
X13046Y-11757D01*
X13089Y-11728D01*
X13118Y-11700D01*
X13132Y-11671D01*
X13046Y-12029D02*
X13046Y-12057D01*
X13061Y-12086D01*
X13075Y-12100D01*
X13104Y-12114D01*
X13161Y-12129D01*
X13232Y-12129D01*
X13289Y-12114D01*
X13318Y-12100D01*
X13332Y-12086D01*
X13346Y-12057D01*
X13346Y-12029D01*
X13332Y-12000D01*
X13318Y-11986D01*
X13289Y-11971D01*
X13232Y-11957D01*
X13161Y-11957D01*
X13104Y-11971D01*
X13075Y-11986D01*
X13061Y-12000D01*
X13046Y-12029D01*
X11521Y-12935D02*
X11221Y-12935D01*
X11221Y-13050D01*
X11236Y-13078D01*
X11250Y-13093D01*
X11279Y-13107D01*
X11321Y-13107D01*
X11350Y-13093D01*
X11364Y-13078D01*
X11379Y-13050D01*
X11379Y-12935D01*
X11521Y-13393D02*
X11521Y-13221D01*
X11521Y-13307D02*
X11221Y-13307D01*
X11264Y-13278D01*
X11293Y-13250D01*
X11307Y-13221D01*
X11521Y-13679D02*
X11521Y-13507D01*
X11521Y-13593D02*
X11221Y-13593D01*
X11264Y-13564D01*
X11293Y-13536D01*
X11307Y-13507D01*
X13371Y-20035D02*
X13071Y-20035D01*
X13071Y-20150D01*
X13086Y-20178D01*
X13100Y-20193D01*
X13129Y-20207D01*
X13171Y-20207D01*
X13200Y-20193D01*
X13214Y-20178D01*
X13229Y-20150D01*
X13229Y-20035D01*
X13371Y-20493D02*
X13371Y-20321D01*
X13371Y-20407D02*
X13071Y-20407D01*
X13114Y-20378D01*
X13143Y-20350D01*
X13157Y-20321D01*
X13100Y-20607D02*
X13086Y-20621D01*
X13071Y-20650D01*
X13071Y-20721D01*
X13086Y-20750D01*
X13100Y-20764D01*
X13129Y-20779D01*
X13157Y-20779D01*
X13200Y-20764D01*
X13371Y-20593D01*
X13371Y-20779D01*
X18046Y-17511D02*
X18046Y-17339D01*
X18046Y-17425D02*
X17746Y-17425D01*
X17789Y-17396D01*
X17818Y-17368D01*
X17832Y-17339D01*
X19021Y-17796D02*
X19264Y-17796D01*
X19293Y-17811D01*
X19307Y-17825D01*
X19321Y-17854D01*
X19321Y-17911D01*
X19307Y-17939D01*
X19293Y-17954D01*
X19264Y-17968D01*
X19021Y-17968D01*
X19121Y-18239D02*
X19321Y-18239D01*
X19007Y-18168D02*
X19221Y-18096D01*
X19221Y-18282D01*
X37971Y-14271D02*
X38214Y-14271D01*
X38243Y-14286D01*
X38257Y-14300D01*
X38271Y-14329D01*
X38271Y-14386D01*
X38257Y-14414D01*
X38243Y-14429D01*
X38214Y-14443D01*
X37971Y-14443D01*
X37971Y-14557D02*
X37971Y-14743D01*
X38086Y-14643D01*
X38086Y-14685D01*
X38100Y-14714D01*
X38114Y-14728D01*
X38143Y-14743D01*
X38214Y-14743D01*
X38243Y-14728D01*
X38257Y-14714D01*
X38271Y-14685D01*
X38271Y-14600D01*
X38257Y-14571D01*
X38243Y-14557D01*
X34118Y-14275D02*
X34132Y-14261D01*
X34146Y-14218D01*
X34146Y-14189D01*
X34132Y-14146D01*
X34104Y-14118D01*
X34075Y-14103D01*
X34018Y-14089D01*
X33975Y-14089D01*
X33918Y-14103D01*
X33889Y-14118D01*
X33861Y-14146D01*
X33846Y-14189D01*
X33846Y-14218D01*
X33861Y-14261D01*
X33875Y-14275D01*
X33946Y-14532D02*
X34146Y-14532D01*
X33832Y-14461D02*
X34046Y-14389D01*
X34046Y-14575D01*
G54D11*
X38693Y-14450D02*
X38707Y-14436D01*
X38721Y-14393D01*
X38721Y-14364D01*
X38707Y-14321D01*
X38679Y-14293D01*
X38650Y-14278D01*
X38593Y-14264D01*
X38550Y-14264D01*
X38493Y-14278D01*
X38464Y-14293D01*
X38436Y-14321D01*
X38421Y-14364D01*
X38421Y-14393D01*
X38436Y-14436D01*
X38450Y-14450D01*
X38550Y-14621D02*
X38536Y-14593D01*
X38521Y-14578D01*
X38493Y-14564D01*
X38479Y-14564D01*
X38450Y-14578D01*
X38436Y-14593D01*
X38421Y-14621D01*
X38421Y-14678D01*
X38436Y-14707D01*
X38450Y-14721D01*
X38479Y-14736D01*
X38493Y-14736D01*
X38521Y-14721D01*
X38536Y-14707D01*
X38550Y-14678D01*
X38550Y-14621D01*
X38564Y-14593D01*
X38579Y-14578D01*
X38607Y-14564D01*
X38664Y-14564D01*
X38693Y-14578D01*
X38707Y-14593D01*
X38721Y-14621D01*
X38721Y-14678D01*
X38707Y-14707D01*
X38693Y-14721D01*
X38664Y-14736D01*
X38607Y-14736D01*
X38579Y-14721D01*
X38564Y-14707D01*
X38550Y-14678D01*
X10650Y-10937D02*
X10627Y-10949D01*
X10591Y-10949D01*
X10555Y-10937D01*
X10531Y-10913D01*
X10520Y-10889D01*
X10508Y-10842D01*
X10508Y-10806D01*
X10520Y-10758D01*
X10531Y-10735D01*
X10555Y-10711D01*
X10591Y-10699D01*
X10615Y-10699D01*
X10650Y-10711D01*
X10662Y-10723D01*
X10662Y-10806D01*
X10615Y-10806D01*
X10770Y-10699D02*
X10770Y-10949D01*
X10912Y-10699D01*
X10912Y-10949D01*
X11032Y-10699D02*
X11032Y-10949D01*
X11091Y-10949D01*
X11127Y-10937D01*
X11151Y-10913D01*
X11162Y-10889D01*
X11174Y-10842D01*
X11174Y-10806D01*
X11162Y-10758D01*
X11151Y-10735D01*
X11127Y-10711D01*
X11091Y-10699D01*
X11032Y-10699D01*
X11341Y-10615D02*
X11341Y-10973D01*
X11520Y-10794D02*
X11710Y-10794D01*
X11615Y-10699D02*
X11615Y-10889D01*
X11949Y-10949D02*
X11830Y-10949D01*
X11818Y-10830D01*
X11830Y-10842D01*
X11853Y-10854D01*
X11913Y-10854D01*
X11937Y-10842D01*
X11949Y-10830D01*
X11960Y-10806D01*
X11960Y-10746D01*
X11949Y-10723D01*
X11937Y-10711D01*
X11913Y-10699D01*
X11853Y-10699D01*
X11830Y-10711D01*
X11818Y-10723D01*
X12032Y-10949D02*
X12115Y-10699D01*
X12198Y-10949D01*
X12341Y-10615D02*
X12341Y-10973D01*
X12508Y-10711D02*
X12543Y-10699D01*
X12603Y-10699D01*
X12627Y-10711D01*
X12639Y-10723D01*
X12650Y-10746D01*
X12650Y-10770D01*
X12639Y-10794D01*
X12627Y-10806D01*
X12603Y-10818D01*
X12555Y-10830D01*
X12531Y-10842D01*
X12520Y-10854D01*
X12508Y-10877D01*
X12508Y-10901D01*
X12520Y-10925D01*
X12531Y-10937D01*
X12555Y-10949D01*
X12615Y-10949D01*
X12650Y-10937D01*
X12900Y-10723D02*
X12888Y-10711D01*
X12853Y-10699D01*
X12829Y-10699D01*
X12793Y-10711D01*
X12769Y-10735D01*
X12758Y-10758D01*
X12746Y-10806D01*
X12746Y-10842D01*
X12758Y-10889D01*
X12769Y-10913D01*
X12793Y-10937D01*
X12829Y-10949D01*
X12853Y-10949D01*
X12888Y-10937D01*
X12900Y-10925D01*
X13127Y-10699D02*
X13008Y-10699D01*
X13008Y-10949D01*
X13269Y-10615D02*
X13269Y-10973D01*
X13436Y-10711D02*
X13471Y-10699D01*
X13531Y-10699D01*
X13555Y-10711D01*
X13567Y-10723D01*
X13578Y-10746D01*
X13578Y-10770D01*
X13567Y-10794D01*
X13555Y-10806D01*
X13531Y-10818D01*
X13483Y-10830D01*
X13459Y-10842D01*
X13448Y-10854D01*
X13436Y-10877D01*
X13436Y-10901D01*
X13448Y-10925D01*
X13459Y-10937D01*
X13483Y-10949D01*
X13543Y-10949D01*
X13578Y-10937D01*
X13686Y-10699D02*
X13686Y-10949D01*
X13745Y-10949D01*
X13781Y-10937D01*
X13805Y-10913D01*
X13816Y-10889D01*
X13828Y-10842D01*
X13828Y-10806D01*
X13816Y-10758D01*
X13805Y-10735D01*
X13781Y-10711D01*
X13745Y-10699D01*
X13686Y-10699D01*
X13924Y-10770D02*
X14043Y-10770D01*
X13900Y-10699D02*
X13983Y-10949D01*
X14066Y-10699D01*
X10612Y-17625D02*
X10624Y-17648D01*
X10624Y-17684D01*
X10612Y-17720D01*
X10588Y-17744D01*
X10564Y-17755D01*
X10517Y-17767D01*
X10481Y-17767D01*
X10433Y-17755D01*
X10410Y-17744D01*
X10386Y-17720D01*
X10374Y-17684D01*
X10374Y-17660D01*
X10386Y-17625D01*
X10398Y-17613D01*
X10481Y-17613D01*
X10481Y-17660D01*
X10374Y-17505D02*
X10624Y-17505D01*
X10374Y-17363D01*
X10624Y-17363D01*
X10374Y-17243D02*
X10624Y-17243D01*
X10624Y-17184D01*
X10612Y-17148D01*
X10588Y-17124D01*
X10564Y-17113D01*
X10517Y-17101D01*
X10481Y-17101D01*
X10433Y-17113D01*
X10410Y-17124D01*
X10386Y-17148D01*
X10374Y-17184D01*
X10374Y-17243D01*
X10290Y-16934D02*
X10648Y-16934D01*
X10469Y-16755D02*
X10469Y-16565D01*
X10374Y-16660D02*
X10564Y-16660D01*
X10624Y-16326D02*
X10624Y-16445D01*
X10505Y-16457D01*
X10517Y-16445D01*
X10529Y-16422D01*
X10529Y-16362D01*
X10517Y-16338D01*
X10505Y-16326D01*
X10481Y-16315D01*
X10421Y-16315D01*
X10398Y-16326D01*
X10386Y-16338D01*
X10374Y-16362D01*
X10374Y-16422D01*
X10386Y-16445D01*
X10398Y-16457D01*
X10624Y-16243D02*
X10374Y-16160D01*
X10624Y-16077D01*
X10290Y-15934D02*
X10648Y-15934D01*
X10386Y-15767D02*
X10374Y-15732D01*
X10374Y-15672D01*
X10386Y-15648D01*
X10398Y-15636D01*
X10421Y-15625D01*
X10445Y-15625D01*
X10469Y-15636D01*
X10481Y-15648D01*
X10493Y-15672D01*
X10505Y-15720D01*
X10517Y-15744D01*
X10529Y-15755D01*
X10552Y-15767D01*
X10576Y-15767D01*
X10600Y-15755D01*
X10612Y-15744D01*
X10624Y-15720D01*
X10624Y-15660D01*
X10612Y-15625D01*
X10398Y-15375D02*
X10386Y-15387D01*
X10374Y-15422D01*
X10374Y-15446D01*
X10386Y-15482D01*
X10410Y-15506D01*
X10433Y-15517D01*
X10481Y-15529D01*
X10517Y-15529D01*
X10564Y-15517D01*
X10588Y-15506D01*
X10612Y-15482D01*
X10624Y-15446D01*
X10624Y-15422D01*
X10612Y-15387D01*
X10600Y-15375D01*
X10374Y-15148D02*
X10374Y-15267D01*
X10624Y-15267D01*
X10290Y-15006D02*
X10648Y-15006D01*
X10386Y-14839D02*
X10374Y-14804D01*
X10374Y-14744D01*
X10386Y-14720D01*
X10398Y-14708D01*
X10421Y-14697D01*
X10445Y-14697D01*
X10469Y-14708D01*
X10481Y-14720D01*
X10493Y-14744D01*
X10505Y-14792D01*
X10517Y-14816D01*
X10529Y-14827D01*
X10552Y-14839D01*
X10576Y-14839D01*
X10600Y-14827D01*
X10612Y-14816D01*
X10624Y-14792D01*
X10624Y-14732D01*
X10612Y-14697D01*
X10374Y-14589D02*
X10624Y-14589D01*
X10624Y-14530D01*
X10612Y-14494D01*
X10588Y-14470D01*
X10564Y-14459D01*
X10517Y-14447D01*
X10481Y-14447D01*
X10433Y-14459D01*
X10410Y-14470D01*
X10386Y-14494D01*
X10374Y-14530D01*
X10374Y-14589D01*
X10445Y-14351D02*
X10445Y-14232D01*
X10374Y-14375D02*
X10624Y-14292D01*
X10374Y-14209D01*
G54D12*
X10000Y-10000D02*
X40000Y-10000D01*
G54D11*
X19851Y-15741D02*
X19832Y-15760D01*
X19813Y-15817D01*
X19813Y-15855D01*
X19832Y-15913D01*
X19870Y-15951D01*
X19908Y-15970D01*
X19985Y-15989D01*
X20042Y-15989D01*
X20118Y-15970D01*
X20156Y-15951D01*
X20194Y-15913D01*
X20213Y-15855D01*
X20213Y-15817D01*
X20194Y-15760D01*
X20175Y-15741D01*
X20213Y-15608D02*
X20213Y-15360D01*
X20061Y-15494D01*
X20061Y-15436D01*
X20042Y-15398D01*
X20023Y-15379D01*
X19985Y-15360D01*
X19889Y-15360D01*
X19851Y-15379D01*
X19832Y-15398D01*
X19813Y-15436D01*
X19813Y-15551D01*
X19832Y-15589D01*
X19851Y-15608D01*
X14226Y-20693D02*
X14207Y-20712D01*
X14188Y-20769D01*
X14188Y-20807D01*
X14207Y-20865D01*
X14245Y-20903D01*
X14283Y-20922D01*
X14360Y-20941D01*
X14417Y-20941D01*
X14493Y-20922D01*
X14531Y-20903D01*
X14569Y-20865D01*
X14588Y-20807D01*
X14588Y-20769D01*
X14569Y-20712D01*
X14550Y-20693D01*
X14588Y-20560D02*
X14588Y-20312D01*
X14436Y-20446D01*
X14436Y-20388D01*
X14417Y-20350D01*
X14398Y-20331D01*
X14360Y-20312D01*
X14264Y-20312D01*
X14226Y-20331D01*
X14207Y-20350D01*
X14188Y-20388D01*
X14188Y-20503D01*
X14207Y-20541D01*
X14226Y-20560D01*
X14588Y-20026D02*
X14302Y-20026D01*
X14245Y-20046D01*
X14207Y-20084D01*
X14188Y-20141D01*
X14188Y-20179D01*
X14188Y-19836D02*
X14455Y-19836D01*
X14379Y-19836D02*
X14417Y-19817D01*
X14436Y-19798D01*
X14455Y-19760D01*
X14455Y-19721D01*
X12451Y-13541D02*
X12432Y-13560D01*
X12413Y-13617D01*
X12413Y-13655D01*
X12432Y-13713D01*
X12470Y-13751D01*
X12508Y-13770D01*
X12585Y-13789D01*
X12642Y-13789D01*
X12718Y-13770D01*
X12756Y-13751D01*
X12794Y-13713D01*
X12813Y-13655D01*
X12813Y-13617D01*
X12794Y-13560D01*
X12775Y-13541D01*
X12813Y-13408D02*
X12813Y-13160D01*
X12661Y-13294D01*
X12661Y-13236D01*
X12642Y-13198D01*
X12623Y-13179D01*
X12585Y-13160D01*
X12489Y-13160D01*
X12451Y-13179D01*
X12432Y-13198D01*
X12413Y-13236D01*
X12413Y-13351D01*
X12432Y-13389D01*
X12451Y-13408D01*
X14201Y-12043D02*
X14182Y-12062D01*
X14163Y-12119D01*
X14163Y-12157D01*
X14182Y-12215D01*
X14220Y-12253D01*
X14258Y-12272D01*
X14335Y-12291D01*
X14392Y-12291D01*
X14468Y-12272D01*
X14506Y-12253D01*
X14544Y-12215D01*
X14563Y-12157D01*
X14563Y-12119D01*
X14544Y-12062D01*
X14525Y-12043D01*
X14563Y-11910D02*
X14563Y-11662D01*
X14411Y-11796D01*
X14411Y-11738D01*
X14392Y-11700D01*
X14373Y-11681D01*
X14335Y-11662D01*
X14239Y-11662D01*
X14201Y-11681D01*
X14182Y-11700D01*
X14163Y-11738D01*
X14163Y-11853D01*
X14182Y-11891D01*
X14201Y-11910D01*
X14563Y-11376D02*
X14277Y-11376D01*
X14220Y-11396D01*
X14182Y-11434D01*
X14163Y-11491D01*
X14163Y-11529D01*
X14163Y-11186D02*
X14430Y-11186D01*
X14354Y-11186D02*
X14392Y-11167D01*
X14411Y-11148D01*
X14430Y-11110D01*
X14430Y-11071D01*
X20376Y-15741D02*
X20357Y-15760D01*
X20338Y-15817D01*
X20338Y-15855D01*
X20357Y-15913D01*
X20395Y-15951D01*
X20433Y-15970D01*
X20510Y-15989D01*
X20567Y-15989D01*
X20643Y-15970D01*
X20681Y-15951D01*
X20719Y-15913D01*
X20738Y-15855D01*
X20738Y-15817D01*
X20719Y-15760D01*
X20700Y-15741D01*
X20338Y-15570D02*
X20738Y-15570D01*
X20738Y-15475D01*
X20719Y-15417D01*
X20681Y-15379D01*
X20643Y-15360D01*
X20567Y-15341D01*
X20510Y-15341D01*
X20433Y-15360D01*
X20395Y-15379D01*
X20357Y-15417D01*
X20338Y-15475D01*
X20338Y-15570D01*
X20338Y-14960D02*
X20338Y-15189D01*
X20338Y-15075D02*
X20738Y-15075D01*
X20681Y-15113D01*
X20643Y-15151D01*
X20624Y-15189D01*
X11801Y-13541D02*
X11782Y-13560D01*
X11763Y-13617D01*
X11763Y-13655D01*
X11782Y-13713D01*
X11820Y-13751D01*
X11858Y-13770D01*
X11935Y-13789D01*
X11992Y-13789D01*
X12068Y-13770D01*
X12106Y-13751D01*
X12144Y-13713D01*
X12163Y-13655D01*
X12163Y-13617D01*
X12144Y-13560D01*
X12125Y-13541D01*
X11763Y-13370D02*
X12163Y-13370D01*
X12163Y-13275D01*
X12144Y-13217D01*
X12106Y-13179D01*
X12068Y-13160D01*
X11992Y-13141D01*
X11935Y-13141D01*
X11858Y-13160D01*
X11820Y-13179D01*
X11782Y-13217D01*
X11763Y-13275D01*
X11763Y-13370D01*
X12125Y-12989D02*
X12144Y-12970D01*
X12163Y-12932D01*
X12163Y-12836D01*
X12144Y-12798D01*
X12125Y-12779D01*
X12087Y-12760D01*
X12049Y-12760D01*
X11992Y-12779D01*
X11763Y-13008D01*
X11763Y-12760D01*
X13626Y-12041D02*
X13607Y-12060D01*
X13588Y-12117D01*
X13588Y-12155D01*
X13607Y-12213D01*
X13645Y-12251D01*
X13683Y-12270D01*
X13760Y-12289D01*
X13817Y-12289D01*
X13893Y-12270D01*
X13931Y-12251D01*
X13969Y-12213D01*
X13988Y-12155D01*
X13988Y-12117D01*
X13969Y-12060D01*
X13950Y-12041D01*
X13588Y-11870D02*
X13988Y-11870D01*
X13988Y-11775D01*
X13969Y-11717D01*
X13931Y-11679D01*
X13893Y-11660D01*
X13817Y-11641D01*
X13760Y-11641D01*
X13683Y-11660D01*
X13645Y-11679D01*
X13607Y-11717D01*
X13588Y-11775D01*
X13588Y-11870D01*
X13950Y-11489D02*
X13969Y-11470D01*
X13988Y-11432D01*
X13988Y-11336D01*
X13969Y-11298D01*
X13950Y-11279D01*
X13912Y-11260D01*
X13874Y-11260D01*
X13817Y-11279D01*
X13588Y-11508D01*
X13588Y-11260D01*
X13651Y-20691D02*
X13632Y-20710D01*
X13613Y-20767D01*
X13613Y-20805D01*
X13632Y-20863D01*
X13670Y-20901D01*
X13708Y-20920D01*
X13785Y-20939D01*
X13842Y-20939D01*
X13918Y-20920D01*
X13956Y-20901D01*
X13994Y-20863D01*
X14013Y-20805D01*
X14013Y-20767D01*
X13994Y-20710D01*
X13975Y-20691D01*
X13613Y-20520D02*
X14013Y-20520D01*
X14013Y-20425D01*
X13994Y-20367D01*
X13956Y-20329D01*
X13918Y-20310D01*
X13842Y-20291D01*
X13785Y-20291D01*
X13708Y-20310D01*
X13670Y-20329D01*
X13632Y-20367D01*
X13613Y-20425D01*
X13613Y-20520D01*
X13613Y-19910D02*
X13613Y-20139D01*
X13613Y-20025D02*
X14013Y-20025D01*
X13956Y-20063D01*
X13918Y-20101D01*
X13899Y-20139D01*
X34564Y-11525D02*
X34545Y-11506D01*
X34507Y-11487D01*
X34411Y-11487D01*
X34373Y-11506D01*
X34354Y-11525D01*
X34335Y-11563D01*
X34335Y-11601D01*
X34354Y-11658D01*
X34583Y-11887D01*
X34335Y-11887D01*
X34711Y-12087D02*
X34711Y-11820D01*
X34711Y-11687D02*
X34730Y-11706D01*
X34711Y-11725D01*
X34692Y-11706D01*
X34711Y-11687D01*
X34711Y-11725D01*
X34044Y-12068D02*
X34082Y-12087D01*
X34159Y-12087D01*
X34197Y-12068D01*
X34216Y-12049D01*
X34235Y-12011D01*
X34235Y-11896D01*
X34216Y-11858D01*
X34197Y-11839D01*
X34159Y-11820D01*
X34082Y-11820D01*
X34044Y-11839D01*
X33434Y-11877D02*
X33377Y-11896D01*
X33358Y-11915D01*
X33339Y-11954D01*
X33339Y-12011D01*
X33358Y-12049D01*
X33377Y-12068D01*
X33415Y-12087D01*
X33568Y-12087D01*
X33568Y-11687D01*
X33434Y-11687D01*
X33396Y-11706D01*
X33377Y-11725D01*
X33358Y-11763D01*
X33358Y-11801D01*
X33377Y-11839D01*
X33396Y-11858D01*
X33434Y-11877D01*
X33568Y-11877D01*
X32996Y-11820D02*
X32996Y-12087D01*
X33168Y-11820D02*
X33168Y-12030D01*
X33149Y-12068D01*
X33111Y-12087D01*
X33053Y-12087D01*
X33015Y-12068D01*
X32996Y-12049D01*
X32825Y-12068D02*
X32787Y-12087D01*
X32711Y-12087D01*
X32672Y-12068D01*
X32653Y-12030D01*
X32653Y-12011D01*
X32672Y-11973D01*
X32711Y-11954D01*
X32768Y-11954D01*
X32806Y-11935D01*
X32825Y-11896D01*
X32825Y-11877D01*
X32806Y-11839D01*
X32768Y-11820D01*
X32711Y-11820D01*
X32672Y-11839D01*
X32177Y-11820D02*
X32482Y-11935D01*
X32177Y-12049D01*
X31987Y-11935D02*
X31682Y-11935D01*
X31492Y-11820D02*
X31187Y-11935D01*
X31492Y-12049D01*
X31016Y-12068D02*
X30959Y-12087D01*
X30863Y-12087D01*
X30825Y-12068D01*
X30806Y-12049D01*
X30787Y-12011D01*
X30787Y-11973D01*
X30806Y-11935D01*
X30825Y-11915D01*
X30863Y-11896D01*
X30940Y-11877D01*
X30978Y-11858D01*
X30997Y-11839D01*
X31016Y-11801D01*
X31016Y-11763D01*
X30997Y-11725D01*
X30978Y-11706D01*
X30940Y-11687D01*
X30844Y-11687D01*
X30787Y-11706D01*
X30616Y-12087D02*
X30616Y-11687D01*
X30521Y-11687D01*
X30463Y-11706D01*
X30425Y-11744D01*
X30406Y-11782D01*
X30387Y-11858D01*
X30387Y-11915D01*
X30406Y-11992D01*
X30425Y-12030D01*
X30463Y-12068D01*
X30521Y-12087D01*
X30616Y-12087D01*
X30216Y-11935D02*
X29911Y-11935D01*
X29492Y-12049D02*
X29511Y-12068D01*
X29568Y-12087D01*
X29606Y-12087D01*
X29664Y-12068D01*
X29702Y-12030D01*
X29721Y-11992D01*
X29740Y-11915D01*
X29740Y-11858D01*
X29721Y-11782D01*
X29702Y-11744D01*
X29664Y-11706D01*
X29606Y-11687D01*
X29568Y-11687D01*
X29511Y-11706D01*
X29492Y-11725D01*
X29149Y-12087D02*
X29149Y-11877D01*
X29168Y-11839D01*
X29206Y-11820D01*
X29283Y-11820D01*
X29321Y-11839D01*
X29149Y-12068D02*
X29187Y-12087D01*
X29283Y-12087D01*
X29321Y-12068D01*
X29340Y-12030D01*
X29340Y-11992D01*
X29321Y-11954D01*
X29283Y-11935D01*
X29187Y-11935D01*
X29149Y-11915D01*
X28959Y-12087D02*
X28959Y-11820D01*
X28959Y-11896D02*
X28940Y-11858D01*
X28921Y-11839D01*
X28883Y-11820D01*
X28844Y-11820D01*
X28539Y-12087D02*
X28539Y-11687D01*
X28539Y-12068D02*
X28577Y-12087D01*
X28654Y-12087D01*
X28692Y-12068D01*
X28711Y-12049D01*
X28730Y-12011D01*
X28730Y-11896D01*
X28711Y-11858D01*
X28692Y-11839D01*
X28654Y-11820D01*
X28577Y-11820D01*
X28539Y-11839D01*
X37452Y-20095D02*
X37376Y-20362D01*
X37299Y-20171D01*
X37223Y-20362D01*
X37147Y-20095D01*
X37033Y-20095D02*
X36938Y-20362D01*
X36842Y-20095D02*
X36938Y-20362D01*
X36976Y-20457D01*
X36995Y-20476D01*
X37033Y-20495D01*
X36633Y-20362D02*
X36671Y-20343D01*
X36690Y-20324D01*
X36709Y-20286D01*
X36709Y-20171D01*
X36690Y-20133D01*
X36671Y-20114D01*
X36633Y-20095D01*
X36575Y-20095D01*
X36537Y-20114D01*
X36518Y-20133D01*
X36499Y-20171D01*
X36499Y-20286D01*
X36518Y-20324D01*
X36537Y-20343D01*
X36575Y-20362D01*
X36633Y-20362D01*
X36271Y-20362D02*
X36309Y-20343D01*
X36328Y-20305D01*
X36328Y-19962D01*
X35946Y-20095D02*
X35946Y-20362D01*
X36118Y-20095D02*
X36118Y-20305D01*
X36099Y-20343D01*
X36061Y-20362D01*
X36003Y-20362D01*
X35965Y-20343D01*
X35946Y-20324D01*
X35756Y-20362D02*
X35756Y-20095D01*
X35756Y-20133D02*
X35737Y-20114D01*
X35699Y-20095D01*
X35641Y-20095D01*
X35603Y-20114D01*
X35584Y-20152D01*
X35584Y-20362D01*
X35584Y-20152D02*
X35565Y-20114D01*
X35527Y-20095D01*
X35470Y-20095D01*
X35432Y-20114D01*
X35413Y-20152D01*
X35413Y-20362D01*
X35223Y-20324D02*
X35204Y-20343D01*
X35223Y-20362D01*
X35242Y-20343D01*
X35223Y-20324D01*
X35223Y-20362D01*
X34861Y-20343D02*
X34899Y-20362D01*
X34976Y-20362D01*
X35014Y-20343D01*
X35033Y-20324D01*
X35052Y-20286D01*
X35052Y-20171D01*
X35033Y-20133D01*
X35014Y-20114D01*
X34976Y-20095D01*
X34899Y-20095D01*
X34861Y-20114D01*
X34633Y-20362D02*
X34671Y-20343D01*
X34690Y-20324D01*
X34709Y-20286D01*
X34709Y-20171D01*
X34690Y-20133D01*
X34671Y-20114D01*
X34633Y-20095D01*
X34575Y-20095D01*
X34537Y-20114D01*
X34518Y-20133D01*
X34499Y-20171D01*
X34499Y-20286D01*
X34518Y-20324D01*
X34537Y-20343D01*
X34575Y-20362D01*
X34633Y-20362D01*
X34328Y-20362D02*
X34328Y-20095D01*
X34328Y-20133D02*
X34309Y-20114D01*
X34271Y-20095D01*
X34213Y-20095D01*
X34175Y-20114D01*
X34156Y-20152D01*
X34156Y-20362D01*
X34156Y-20152D02*
X34137Y-20114D01*
X34099Y-20095D01*
X34042Y-20095D01*
X34004Y-20114D01*
X33985Y-20152D01*
X33985Y-20362D01*
G54D12*
X40000Y-22000D02*
X10000Y-22000D01*
X40000Y-10000D02*
X40000Y-22000D01*
X10000Y-22000D02*
X10000Y-10000D01*
G54D13*
X21800Y-11000D03*
X21800Y-21000D03*
G54D14*
X29550Y-17300D03*
X29400Y-17875D03*
X30200Y-19500D03*
X29600Y-19500D03*
X29450Y-15700D03*
X28050Y-19500D03*
X25800Y-16950D03*
X27500Y-16400D03*
X25800Y-16350D03*
X25800Y-15750D03*
X26800Y-15125D03*
X29000Y-19500D03*
G54D15*
X20650Y-14500D03*
X21950Y-15500D03*
X20600Y-16500D03*
X21950Y-17500D03*
G54D16*
X18300Y-10850D03*
X17300Y-12150D03*
X16300Y-10800D03*
X15300Y-12150D03*
G54D15*
X11650Y-14500D03*
X12950Y-15500D03*
X11600Y-16500D03*
X12950Y-17500D03*
G54D16*
X18300Y-19850D03*
X17300Y-21150D03*
X16300Y-19800D03*
X15300Y-21150D03*
G54D17*
X19398Y-19701D03*
G54D18*
X19398Y-11472D03*
G54D19*
X35275Y-12700D03*
G54D20*
X34275Y-12700D03*
X33275Y-12700D03*
X32275Y-12700D03*
X31275Y-12700D03*
X30275Y-12700D03*
G54D19*
X37200Y-15825D03*
G54D20*
X38200Y-15825D03*
X37200Y-16825D03*
X38200Y-16825D03*
X37200Y-17825D03*
X38200Y-17825D03*
X26600Y-11000D03*
X26600Y-13000D03*
X26600Y-12000D03*
G54D19*
X37900Y-10650D03*
G54D20*
X37900Y-11650D03*
X37900Y-12650D03*
X37900Y-13650D03*
G54D19*
X39100Y-21100D03*
G54D20*
X38100Y-21100D03*
X37100Y-21100D03*
X36100Y-21100D03*
G54D19*
X24100Y-21100D03*
G54D20*
X25100Y-21100D03*
X26100Y-21100D03*
X27100Y-21100D03*
G54D19*
X28100Y-21100D03*
G54D20*
X29100Y-21100D03*
X30100Y-21100D03*
X31100Y-21100D03*
X35100Y-21100D03*
X34100Y-21100D03*
X33100Y-21100D03*
X32100Y-21100D03*
X23200Y-19575D03*
X25750Y-19575D03*
X24975Y-19575D03*
X23975Y-19575D03*
G54D21*
X35100Y-14700D03*
X35100Y-13950D03*
X39275Y-15025D03*
X39275Y-14275D03*
G54D19*
X35975Y-15600D03*
G54D20*
X35975Y-16600D03*
G54D22*
X37050Y-13950D03*
X37050Y-14700D03*
X37050Y-14325D03*
X35950Y-14700D03*
X35950Y-13950D03*
G54D23*
X36350Y-11700D03*
X36350Y-12700D03*
G54D24*
X16400Y-13200D03*
X15650Y-13200D03*
G54D25*
X17925Y-18075D03*
X17425Y-18075D03*
X16925Y-18075D03*
X16425Y-18075D03*
X15925Y-18075D03*
X15425Y-18075D03*
X14925Y-18075D03*
X14425Y-18075D03*
X14425Y-14075D03*
X14925Y-14075D03*
X15425Y-14075D03*
X15925Y-14075D03*
X16425Y-14075D03*
X16925Y-14075D03*
X17425Y-14075D03*
X17925Y-14075D03*
G54D14*
X16325Y-18700D03*
X16925Y-18700D03*
X17925Y-18700D03*
G54D26*
X23225Y-16325D03*
X34725Y-16325D03*
G54D27*
X23475Y-17900D03*
X21350Y-16050D03*
X32075Y-14025D03*
X24000Y-13425D03*
X17300Y-15925D03*
X34600Y-18250D03*
X16300Y-16500D03*
X16300Y-11800D03*
X27500Y-19675D03*
X28350Y-15950D03*
X32625Y-13875D03*
X15775Y-14850D03*
X19175Y-17200D03*
X17300Y-16500D03*
X17300Y-12900D03*
X17925Y-14800D03*
X31750Y-18075D03*
X31750Y-17250D03*
X33825Y-11050D03*
X26075Y-14950D03*
X26075Y-13950D03*
X18300Y-12900D03*
X18300Y-16500D03*
X32150Y-19675D03*
X32800Y-17650D03*
X32800Y-18550D03*
X25950Y-17900D03*
X21300Y-13600D03*
X22275Y-13425D03*
X27350Y-17575D03*
X36125Y-18150D03*
X32675Y-16625D03*
X30700Y-13650D03*
X24450Y-15950D03*
X27875Y-17400D03*
X21175Y-15100D03*
X24100Y-14800D03*
X33700Y-16325D03*
X39275Y-13650D03*
X34425Y-13950D03*
X11050Y-17500D03*
X15300Y-10700D03*
G54D28*
X23475Y-17900D02*
X22625Y-17900D01*
X21350Y-16800D02*
X20900Y-17250D01*
X20900Y-17250D02*
X20900Y-17875D01*
X21350Y-16050D02*
X21350Y-16800D01*
X20975Y-17950D02*
X20900Y-17875D01*
X22625Y-17900D02*
X22575Y-17950D01*
X22575Y-17950D02*
X20975Y-17950D01*
X24000Y-13425D02*
X25075Y-13425D01*
X25300Y-14175D02*
X25575Y-14450D01*
X25300Y-13650D02*
X25300Y-14175D01*
X25075Y-13425D02*
X25300Y-13650D01*
X32075Y-14025D02*
X31750Y-14025D01*
X31325Y-14450D02*
X25575Y-14450D01*
X31750Y-14025D02*
X31325Y-14450D01*
X19975Y-12225D02*
X18375Y-13825D01*
X18375Y-15350D02*
X18175Y-15550D01*
X18375Y-13825D02*
X18375Y-15350D01*
X17300Y-15925D02*
X17675Y-15550D01*
X17675Y-15550D02*
X18175Y-15550D01*
X17425Y-18075D02*
X17425Y-17725D01*
X16300Y-17100D02*
X16300Y-16500D01*
X16650Y-17450D02*
X16300Y-17100D01*
X17150Y-17450D02*
X16650Y-17450D01*
X17425Y-17725D02*
X17150Y-17450D01*
X34600Y-18250D02*
X34050Y-18250D01*
X33275Y-17475D02*
X33275Y-13875D01*
X34050Y-18250D02*
X33275Y-17475D01*
X16300Y-16500D02*
X11600Y-16500D01*
X16300Y-10800D02*
X16300Y-11800D01*
X37150Y-10250D02*
X37550Y-10650D01*
X25425Y-10250D02*
X37150Y-10250D01*
X25425Y-10250D02*
X23450Y-12225D01*
X23450Y-12225D02*
X19975Y-12225D01*
X37550Y-10650D02*
X37900Y-10650D01*
X32625Y-13875D02*
X33275Y-13875D01*
X33275Y-12700D02*
X33275Y-13875D01*
X27500Y-19675D02*
X27500Y-19925D01*
X27500Y-19925D02*
X28100Y-20525D01*
X28100Y-20525D02*
X28100Y-21100D01*
X36625Y-11700D02*
X36925Y-12000D01*
X36925Y-12000D02*
X36925Y-13175D01*
X36925Y-13175D02*
X36625Y-13475D01*
X36625Y-13475D02*
X36150Y-13475D01*
X36150Y-13475D02*
X35950Y-13675D01*
X35950Y-13675D02*
X35950Y-13950D01*
X36350Y-11700D02*
X36625Y-11700D01*
X32625Y-14575D02*
X32225Y-14975D01*
X32625Y-13875D02*
X32625Y-14575D01*
X32225Y-14975D02*
X28650Y-14975D01*
X28650Y-14975D02*
X28350Y-15275D01*
X28350Y-15275D02*
X28350Y-15950D01*
X17925Y-18075D02*
X17925Y-18700D01*
X23225Y-16325D02*
X23225Y-16825D01*
X16925Y-14575D02*
X16925Y-14075D01*
X16900Y-14600D02*
X16925Y-14575D01*
X16650Y-14850D02*
X16900Y-14600D01*
X15775Y-14850D02*
X16650Y-14850D01*
X20300Y-18325D02*
X19175Y-17200D01*
X23850Y-18325D02*
X20300Y-18325D01*
X24050Y-18125D02*
X23850Y-18325D01*
X24050Y-17650D02*
X24050Y-18125D01*
X23225Y-16825D02*
X24050Y-17650D01*
X16925Y-13425D02*
X16700Y-13200D01*
X16925Y-14075D02*
X16925Y-13425D01*
X16700Y-13200D02*
X16400Y-13200D01*
X16425Y-18075D02*
X16425Y-18600D01*
X16425Y-18600D02*
X16325Y-18700D01*
X20475Y-12575D02*
X18700Y-14350D01*
X18700Y-15850D02*
X18550Y-16000D01*
X18700Y-14350D02*
X18700Y-15850D01*
X17300Y-12150D02*
X17300Y-12900D01*
X17925Y-14800D02*
X17925Y-14075D01*
X17300Y-16500D02*
X17600Y-16500D01*
X18100Y-16000D02*
X18550Y-16000D01*
X17600Y-16500D02*
X18100Y-16000D01*
X26075Y-13950D02*
X26075Y-13575D01*
X26075Y-13575D02*
X25075Y-12575D01*
X25075Y-12575D02*
X20475Y-12575D01*
X17300Y-16500D02*
X17025Y-16500D01*
X17025Y-16500D02*
X16475Y-15950D01*
X16475Y-15950D02*
X13400Y-15950D01*
X13400Y-15950D02*
X12950Y-15500D01*
X31750Y-17250D02*
X31750Y-18075D01*
X31750Y-16925D02*
X31325Y-16500D01*
X31325Y-16500D02*
X28275Y-16500D01*
X28275Y-16500D02*
X27450Y-15675D01*
X27450Y-15675D02*
X26450Y-15675D01*
X26450Y-15675D02*
X26075Y-15300D01*
X26075Y-15300D02*
X26075Y-14950D01*
X31750Y-17250D02*
X31750Y-16925D01*
X28300Y-11050D02*
X33825Y-11050D01*
X27850Y-13950D02*
X28025Y-13775D01*
X28025Y-13775D02*
X28025Y-11325D01*
X28025Y-11325D02*
X28300Y-11050D01*
X26075Y-13950D02*
X27850Y-13950D01*
X18300Y-16500D02*
X18300Y-17625D01*
X18900Y-18975D02*
X28200Y-18975D01*
X18425Y-18500D02*
X18900Y-18975D01*
X18425Y-17750D02*
X18425Y-18500D01*
X18300Y-17625D02*
X18425Y-17750D01*
X17425Y-14075D02*
X17425Y-13650D01*
X17425Y-13650D02*
X17650Y-13425D01*
X17650Y-13425D02*
X18125Y-13425D01*
X18125Y-13425D02*
X18300Y-13250D01*
X18300Y-13250D02*
X18300Y-12900D01*
X17425Y-14075D02*
X17425Y-14850D01*
X17425Y-14850D02*
X16875Y-15400D01*
X32150Y-19675D02*
X31775Y-19675D01*
X31600Y-19850D02*
X31600Y-20050D01*
X31775Y-19675D02*
X31600Y-19850D01*
X14275Y-15400D02*
X13375Y-14500D01*
X16875Y-15400D02*
X14275Y-15400D01*
X28200Y-18975D02*
X28525Y-19300D01*
X28675Y-20050D02*
X31600Y-20050D01*
X28525Y-19900D02*
X28675Y-20050D01*
X28525Y-19300D02*
X28525Y-19900D01*
X11650Y-14500D02*
X13375Y-14500D01*
X18300Y-12900D02*
X18300Y-10850D01*
X31600Y-21425D02*
X31600Y-20050D01*
X36825Y-21775D02*
X31950Y-21775D01*
X37100Y-21500D02*
X36825Y-21775D01*
X37100Y-21100D02*
X37100Y-21500D01*
X31950Y-21775D02*
X31600Y-21425D01*
X16925Y-18075D02*
X16925Y-18700D01*
X36575Y-16450D02*
X36575Y-17025D01*
X36575Y-17025D02*
X35500Y-18100D01*
X25950Y-17450D02*
X26550Y-16850D01*
X26550Y-16850D02*
X30725Y-16850D01*
X32800Y-18550D02*
X31375Y-18550D01*
X31050Y-17175D02*
X31050Y-18225D01*
X31375Y-18550D02*
X31050Y-18225D01*
X30725Y-16850D02*
X31050Y-17175D01*
X33000Y-17650D02*
X33575Y-18225D01*
X33575Y-18225D02*
X33575Y-18525D01*
X33575Y-18525D02*
X33725Y-18675D01*
X33725Y-18675D02*
X35275Y-18675D01*
X35275Y-18675D02*
X35500Y-18450D01*
X35500Y-18450D02*
X35500Y-18100D01*
X32800Y-17650D02*
X33000Y-17650D01*
X36575Y-16450D02*
X37200Y-15825D01*
X25950Y-17900D02*
X25950Y-17450D01*
X25950Y-17450D02*
X25500Y-17450D01*
X25500Y-17450D02*
X24900Y-16850D01*
X21300Y-13875D02*
X21750Y-14325D01*
X24900Y-16850D02*
X24900Y-14825D01*
X21300Y-13600D02*
X21300Y-13875D01*
X24900Y-14825D02*
X24400Y-14325D01*
X21750Y-14325D02*
X24400Y-14325D01*
X19725Y-18675D02*
X19075Y-18675D01*
X18600Y-16850D02*
X19025Y-16425D01*
X18600Y-17450D02*
X18600Y-16850D01*
X18750Y-17600D02*
X18600Y-17450D01*
X18750Y-18350D02*
X18750Y-17600D01*
X19075Y-18675D02*
X18750Y-18350D01*
X27275Y-18675D02*
X19725Y-18675D01*
X27350Y-18600D02*
X27275Y-18675D01*
X20675Y-13100D02*
X21950Y-13100D01*
X19025Y-16425D02*
X19025Y-14750D01*
X19025Y-14750D02*
X20675Y-13100D01*
X21950Y-13100D02*
X22275Y-13425D01*
X28350Y-18600D02*
X28575Y-18825D01*
X38775Y-16825D02*
X38200Y-16825D01*
X27350Y-18600D02*
X28350Y-18600D01*
X30300Y-18825D02*
X28575Y-18825D01*
X32725Y-19650D02*
X38200Y-19650D01*
X30300Y-18825D02*
X30700Y-19225D01*
X30700Y-19225D02*
X32300Y-19225D01*
X27350Y-17575D02*
X27350Y-18600D01*
X32300Y-19225D02*
X32725Y-19650D01*
X38950Y-17000D02*
X38775Y-16825D01*
X38950Y-18900D02*
X38950Y-17000D01*
X38200Y-19650D02*
X38950Y-18900D01*
X36125Y-18150D02*
X36125Y-18725D01*
X33250Y-18375D02*
X32950Y-18075D01*
X33425Y-18975D02*
X33250Y-18800D01*
X33250Y-18800D02*
X33250Y-18375D01*
X35875Y-18975D02*
X33425Y-18975D01*
X32375Y-16625D02*
X32175Y-16825D01*
X32175Y-16825D02*
X32175Y-17900D01*
X32175Y-17900D02*
X32350Y-18075D01*
X32350Y-18075D02*
X32950Y-18075D01*
X32675Y-16625D02*
X32375Y-16625D01*
X36125Y-18725D02*
X35875Y-18975D01*
X26100Y-20150D02*
X26100Y-21100D01*
X25750Y-19800D02*
X26100Y-20150D01*
X24975Y-19575D02*
X25750Y-19575D01*
X25750Y-19575D02*
X25750Y-19800D01*
X32275Y-12725D02*
X31350Y-13650D01*
X30700Y-13650D02*
X31350Y-13650D01*
X32275Y-12700D02*
X32275Y-12725D01*
X32825Y-19325D02*
X36325Y-19325D01*
X31125Y-18900D02*
X32400Y-18900D01*
X32400Y-18900D02*
X32825Y-19325D01*
X27875Y-17400D02*
X27625Y-17150D01*
X27875Y-17400D02*
X27875Y-18125D01*
X30525Y-18300D02*
X31125Y-18900D01*
X28050Y-18300D02*
X30525Y-18300D01*
X27875Y-18125D02*
X28050Y-18300D01*
X37200Y-16825D02*
X36550Y-17475D01*
X27625Y-17150D02*
X27100Y-17150D01*
X36550Y-19100D02*
X36550Y-17475D01*
X25625Y-18325D02*
X24450Y-17150D01*
X26175Y-18325D02*
X25625Y-18325D01*
X26450Y-18050D02*
X26175Y-18325D01*
X26450Y-17800D02*
X26450Y-18050D01*
X27100Y-17150D02*
X26450Y-17800D01*
X24450Y-17150D02*
X24450Y-15950D01*
X36325Y-19325D02*
X36550Y-19100D01*
X24100Y-14800D02*
X21475Y-14800D01*
X21475Y-14800D02*
X21175Y-15100D01*
X14425Y-18075D02*
X14150Y-18075D01*
X13575Y-17500D02*
X12950Y-17500D01*
X14150Y-18075D02*
X13575Y-17500D01*
X15650Y-13200D02*
X15650Y-12950D01*
X15300Y-12600D02*
X15300Y-12150D01*
X15650Y-12950D02*
X15300Y-12600D01*
X15425Y-14075D02*
X15425Y-13800D01*
X15650Y-13575D02*
X15650Y-13200D01*
X15425Y-13800D02*
X15650Y-13575D01*
X15925Y-14075D02*
X16425Y-14075D01*
X15425Y-14075D02*
X15925Y-14075D01*
X14925Y-14075D02*
X15425Y-14075D01*
X14425Y-14075D02*
X14925Y-14075D01*
X14925Y-18075D02*
X14425Y-18075D01*
X15425Y-18075D02*
X14925Y-18075D01*
X15925Y-18075D02*
X15425Y-18075D01*
X34725Y-16325D02*
X35700Y-16325D01*
X35700Y-16325D02*
X35975Y-16600D01*
X34725Y-16325D02*
X33700Y-16325D01*
X33700Y-16325D02*
X33700Y-15500D01*
X34425Y-14775D02*
X34425Y-13950D01*
X33700Y-15500D02*
X34425Y-14775D01*
X37900Y-13650D02*
X39275Y-13650D01*
X39275Y-13650D02*
X39275Y-14275D01*
X26600Y-12000D02*
X27150Y-12000D01*
X27150Y-12000D02*
X27425Y-11725D01*
X23975Y-19575D02*
X23200Y-19575D01*
X35275Y-10875D02*
X34950Y-10550D01*
X27625Y-10550D02*
X34950Y-10550D01*
X27425Y-10750D02*
X27625Y-10550D01*
X27425Y-11725D02*
X27425Y-10750D01*
X35275Y-12700D02*
X34275Y-12700D01*
X12950Y-17500D02*
X11050Y-17500D01*
X15300Y-12150D02*
X15300Y-10700D01*
X35100Y-13950D02*
X34425Y-13950D01*
X37275Y-11275D02*
X37275Y-13025D01*
X36875Y-10875D02*
X37275Y-11275D01*
X37900Y-13650D02*
X37275Y-13025D01*
X35275Y-10875D02*
X36875Y-10875D01*
X36350Y-12700D02*
X35275Y-12700D01*
X37575Y-14325D02*
X37900Y-14000D01*
X37900Y-14000D02*
X37900Y-13650D01*
X37050Y-14325D02*
X37575Y-14325D01*
X34275Y-13275D02*
X34425Y-13425D01*
X34425Y-13425D02*
X34425Y-13950D01*
X34275Y-12700D02*
X34275Y-13275D01*
X35275Y-12700D02*
X35275Y-10875D01*
X35950Y-14700D02*
X35100Y-14700D01*
X37050Y-14700D02*
X36625Y-14700D01*
X36625Y-14700D02*
X36625Y-14900D01*
X35975Y-15125D02*
X35975Y-15600D01*
X36050Y-15050D02*
X35975Y-15125D01*
X36475Y-15050D02*
X36050Y-15050D01*
X36625Y-14900D02*
X36475Y-15050D01*
X36625Y-14700D02*
X36625Y-14075D01*
X37050Y-13950D02*
X36750Y-13950D01*
X36750Y-13950D02*
X36625Y-14075D01*
X37775Y-15025D02*
X39275Y-15025D01*
X37050Y-14700D02*
X37450Y-14700D01*
X37450Y-14700D02*
X37775Y-15025D01*
M02*
