G04 (created by PCBNEW-RS274X (2011-03-30 BZR 2932)-stable) date 07/16/11 10:48:58*
G01*
G70*
G90*
%MOIN*%
G04 Gerber Fmt 3.4, Leading zero omitted, Abs format*
%FSLAX34Y34*%
G04 APERTURE LIST*
%ADD10C,0.006000*%
%ADD11C,0.010000*%
%ADD12C,0.200000*%
%ADD13C,0.060000*%
%ADD14R,0.081000X0.059400*%
%ADD15R,0.081000X0.056500*%
%ADD16R,0.081000X0.045000*%
%ADD17R,0.080000X0.045000*%
%ADD18C,0.083000*%
%ADD19C,0.063300*%
%ADD20R,0.130200X0.079100*%
%ADD21R,0.120000X0.070000*%
%ADD22R,0.079000X0.071200*%
%ADD23R,0.071200X0.079000*%
%ADD24R,0.090000X0.090000*%
%ADD25C,0.090000*%
%ADD26R,0.037700X0.098700*%
%ADD27R,0.098700X0.037700*%
%ADD28R,0.040000X0.065000*%
%ADD29R,0.070000X0.055000*%
%ADD30C,0.080000*%
%ADD31R,0.110000X0.060000*%
G04 APERTURE END LIST*
G54D10*
G54D11*
X10000Y-10000D02*
X40000Y-10000D01*
X40000Y-22000D02*
X10000Y-22000D01*
X40000Y-10000D02*
X40000Y-22000D01*
X10000Y-22000D02*
X10000Y-10000D01*
G54D12*
X21800Y-11000D03*
X21800Y-21000D03*
G54D13*
X29550Y-17300D03*
X29400Y-17875D03*
X30200Y-19500D03*
X29600Y-19500D03*
X29450Y-15700D03*
X28050Y-19500D03*
X25800Y-16950D03*
X27500Y-16400D03*
X25800Y-16350D03*
X25800Y-15750D03*
X26800Y-15125D03*
X29000Y-19500D03*
G54D14*
X20500Y-15744D03*
X20500Y-16728D03*
X20500Y-17712D03*
X20500Y-18697D03*
X20500Y-19681D03*
X20500Y-14760D03*
X20500Y-13775D03*
X20500Y-12818D03*
G54D15*
X20500Y-12149D03*
G54D16*
X20500Y-11637D03*
G54D17*
X20500Y-11165D03*
G54D18*
X19398Y-19701D03*
G54D19*
X19398Y-11472D03*
G54D20*
X11051Y-10685D03*
X11051Y-21315D03*
G54D21*
X19634Y-10685D03*
G54D20*
X19673Y-20567D03*
G54D22*
X33725Y-14575D03*
X33725Y-13825D03*
G54D23*
X24000Y-14100D03*
X24750Y-14100D03*
X23025Y-14100D03*
X22275Y-14100D03*
X24100Y-18150D03*
X24850Y-18150D03*
G54D22*
X26650Y-19675D03*
X26650Y-18925D03*
G54D23*
X38500Y-19550D03*
X39250Y-19550D03*
G54D22*
X37525Y-18975D03*
X37525Y-19725D03*
X36300Y-18775D03*
X36300Y-19525D03*
X32100Y-15875D03*
X32100Y-16625D03*
X27925Y-13475D03*
X27925Y-12725D03*
X29075Y-13475D03*
X29075Y-12725D03*
X27925Y-11725D03*
X27925Y-10975D03*
X29075Y-11725D03*
X29075Y-10975D03*
G54D24*
X35275Y-12700D03*
G54D25*
X34275Y-12700D03*
X33275Y-12700D03*
X32275Y-12700D03*
X31275Y-12700D03*
X30275Y-12700D03*
G54D24*
X37200Y-15825D03*
G54D25*
X38200Y-15825D03*
X37200Y-16825D03*
X38200Y-16825D03*
X37200Y-17825D03*
X38200Y-17825D03*
X26600Y-11000D03*
X26600Y-13000D03*
X26600Y-12000D03*
G54D26*
X27407Y-14904D03*
X27722Y-14904D03*
X28037Y-14904D03*
X28352Y-14904D03*
X28667Y-14904D03*
X28982Y-14904D03*
X29297Y-14904D03*
X29612Y-14904D03*
X29610Y-18670D03*
X27400Y-18670D03*
X27720Y-18670D03*
X28040Y-18670D03*
X28350Y-18670D03*
X28670Y-18670D03*
X28980Y-18670D03*
X29300Y-18670D03*
G54D27*
X30400Y-15688D03*
X30400Y-16002D03*
X30400Y-16318D03*
X30400Y-16632D03*
X30400Y-16948D03*
X30400Y-17262D03*
X30400Y-17578D03*
X30400Y-17892D03*
X26620Y-15690D03*
X26620Y-16000D03*
X26620Y-16320D03*
X26620Y-16630D03*
X26620Y-16940D03*
X26620Y-17260D03*
X26620Y-17580D03*
X26620Y-17900D03*
G54D24*
X37900Y-10650D03*
G54D25*
X37900Y-11650D03*
X37900Y-12650D03*
X37900Y-13650D03*
G54D24*
X39100Y-21100D03*
G54D25*
X38100Y-21100D03*
X37100Y-21100D03*
X36100Y-21100D03*
G54D24*
X24100Y-21100D03*
G54D25*
X25100Y-21100D03*
X26100Y-21100D03*
X27100Y-21100D03*
G54D24*
X28100Y-21100D03*
G54D25*
X29100Y-21100D03*
X30100Y-21100D03*
X31100Y-21100D03*
G54D28*
X25100Y-15400D03*
X24600Y-15400D03*
X24100Y-15400D03*
X23600Y-15400D03*
X23100Y-15400D03*
X22600Y-15400D03*
X22100Y-15400D03*
X22100Y-17300D03*
X22600Y-17300D03*
X23100Y-17300D03*
X23600Y-17300D03*
X24100Y-17300D03*
X24600Y-17300D03*
X25100Y-17300D03*
G54D25*
X35100Y-21100D03*
X34100Y-21100D03*
X33100Y-21100D03*
X32100Y-21100D03*
X23200Y-19575D03*
X25750Y-19575D03*
X24975Y-19575D03*
X23975Y-19575D03*
G54D24*
X35975Y-15600D03*
G54D25*
X35975Y-16600D03*
G54D29*
X36025Y-13950D03*
X37025Y-14325D03*
X36025Y-14700D03*
G54D30*
X36350Y-11700D03*
X36350Y-12700D03*
G54D22*
X35100Y-14575D03*
X35100Y-13825D03*
G54D13*
X16325Y-18700D03*
X16925Y-18700D03*
X17925Y-18700D03*
G54D31*
X35200Y-17600D03*
X33700Y-17600D03*
M02*
