G04 (created by PCBNEW-RS274X (2011-03-30 BZR 2932)-stable) date 07/08/11 12:40:37*
G01*
G70*
G90*
%MOIN*%
G04 Gerber Fmt 3.4, Leading zero omitted, Abs format*
%FSLAX34Y34*%
G04 APERTURE LIST*
%ADD10C,0.006000*%
%ADD11C,0.010000*%
%ADD12R,0.061000X0.039400*%
%ADD13R,0.061000X0.036500*%
%ADD14R,0.061000X0.025000*%
%ADD15R,0.110200X0.059100*%
%ADD16R,0.100000X0.050000*%
%ADD17R,0.051200X0.059000*%
%ADD18R,0.059000X0.051200*%
%ADD19R,0.017700X0.078700*%
%ADD20R,0.078700X0.017700*%
%ADD21R,0.040000X0.030000*%
%ADD22R,0.020000X0.045000*%
G04 APERTURE END LIST*
G54D10*
G54D11*
X10000Y-10000D02*
X40000Y-10000D01*
X40000Y-22000D02*
X10000Y-22000D01*
X40000Y-10000D02*
X40000Y-22000D01*
X10000Y-22000D02*
X10000Y-10000D01*
G54D12*
X20500Y-15744D03*
X20500Y-16728D03*
X20500Y-17712D03*
X20500Y-18697D03*
X20500Y-19681D03*
X20500Y-14760D03*
X20500Y-13775D03*
X20500Y-12818D03*
G54D13*
X20500Y-12149D03*
G54D14*
X20500Y-11637D03*
X20500Y-11165D03*
G54D15*
X11051Y-10685D03*
X11051Y-21315D03*
G54D16*
X19634Y-10685D03*
G54D15*
X19673Y-20567D03*
G54D17*
X33950Y-16125D03*
X34700Y-16125D03*
X24000Y-14275D03*
X24750Y-14275D03*
X23025Y-14275D03*
X22275Y-14275D03*
X23575Y-18450D03*
X22825Y-18450D03*
X23575Y-19700D03*
X22825Y-19700D03*
G54D18*
X37200Y-19675D03*
X37200Y-18925D03*
G54D17*
X36325Y-19675D03*
X35575Y-19675D03*
X34625Y-19675D03*
X33875Y-19675D03*
G54D18*
X32100Y-15875D03*
X32100Y-16625D03*
X27925Y-13475D03*
X27925Y-12725D03*
X29075Y-13475D03*
X29075Y-12725D03*
X27925Y-11725D03*
X27925Y-10975D03*
X29075Y-11725D03*
X29075Y-10975D03*
G54D19*
X27407Y-14904D03*
X27722Y-14904D03*
X28037Y-14904D03*
X28352Y-14904D03*
X28667Y-14904D03*
X28982Y-14904D03*
X29297Y-14904D03*
X29612Y-14904D03*
X29610Y-18670D03*
X27400Y-18670D03*
X27720Y-18670D03*
X28040Y-18670D03*
X28350Y-18670D03*
X28670Y-18670D03*
X28980Y-18670D03*
X29300Y-18670D03*
G54D20*
X30400Y-15688D03*
X30400Y-16002D03*
X30400Y-16318D03*
X30400Y-16632D03*
X30400Y-16948D03*
X30400Y-17262D03*
X30400Y-17578D03*
X30400Y-17892D03*
X26620Y-15690D03*
X26620Y-16000D03*
X26620Y-16320D03*
X26620Y-16630D03*
X26620Y-16940D03*
X26620Y-17260D03*
X26620Y-17580D03*
X26620Y-17900D03*
G54D21*
X37025Y-14700D03*
X36025Y-14325D03*
X37025Y-13925D03*
G54D22*
X25100Y-15400D03*
X24600Y-15400D03*
X24100Y-15400D03*
X23600Y-15400D03*
X23100Y-15400D03*
X22600Y-15400D03*
X22100Y-15400D03*
X22100Y-17300D03*
X22600Y-17300D03*
X23100Y-17300D03*
X23600Y-17300D03*
X24100Y-17300D03*
X24600Y-17300D03*
X25100Y-17300D03*
M02*
