G04 (created by PCBNEW-RS274X (2011-03-30 BZR 2932)-stable) date 07/16/11 10:48:58*
G01*
G70*
G90*
%MOIN*%
G04 Gerber Fmt 3.4, Leading zero omitted, Abs format*
%FSLAX34Y34*%
G04 APERTURE LIST*
%ADD10C,0.006000*%
%ADD11C,0.005000*%
%ADD12C,0.010000*%
%ADD13C,0.008000*%
G04 APERTURE END LIST*
G54D10*
X35346Y-15853D02*
X35346Y-15924D01*
X34918Y-15924D01*
X34918Y-15853D01*
X35132Y-15739D02*
X35132Y-15510D01*
X35246Y-15624D02*
X35018Y-15624D01*
X35346Y-15396D02*
X35346Y-15325D01*
X34918Y-15325D01*
X34918Y-15396D01*
X34696Y-16353D02*
X34696Y-16296D01*
X34682Y-16268D01*
X34668Y-16253D01*
X34625Y-16225D01*
X34568Y-16210D01*
X34454Y-16210D01*
X34425Y-16225D01*
X34411Y-16239D01*
X34396Y-16268D01*
X34396Y-16325D01*
X34411Y-16353D01*
X34425Y-16368D01*
X34454Y-16382D01*
X34525Y-16382D01*
X34554Y-16368D01*
X34568Y-16353D01*
X34582Y-16325D01*
X34582Y-16268D01*
X34568Y-16239D01*
X34554Y-16225D01*
X34525Y-16210D01*
X34396Y-16124D02*
X34696Y-16024D01*
X34396Y-15924D01*
X34539Y-15725D02*
X34554Y-15682D01*
X34568Y-15667D01*
X34596Y-15653D01*
X34639Y-15653D01*
X34668Y-15667D01*
X34682Y-15682D01*
X34696Y-15710D01*
X34696Y-15825D01*
X34396Y-15825D01*
X34396Y-15725D01*
X34411Y-15696D01*
X34425Y-15682D01*
X34454Y-15667D01*
X34482Y-15667D01*
X34511Y-15682D01*
X34525Y-15696D01*
X34539Y-15725D01*
X34539Y-15825D01*
X34611Y-15539D02*
X34611Y-15396D01*
X34696Y-15567D02*
X34396Y-15467D01*
X34696Y-15367D01*
X34396Y-15310D02*
X34396Y-15139D01*
X34696Y-15225D02*
X34396Y-15225D01*
G54D11*
X25963Y-20426D02*
X25880Y-20307D01*
X25821Y-20426D02*
X25821Y-20176D01*
X25916Y-20176D01*
X25940Y-20188D01*
X25951Y-20200D01*
X25963Y-20224D01*
X25963Y-20260D01*
X25951Y-20283D01*
X25940Y-20295D01*
X25916Y-20307D01*
X25821Y-20307D01*
X26059Y-20414D02*
X26094Y-20426D01*
X26154Y-20426D01*
X26178Y-20414D01*
X26190Y-20402D01*
X26201Y-20379D01*
X26201Y-20355D01*
X26190Y-20331D01*
X26178Y-20319D01*
X26154Y-20307D01*
X26106Y-20295D01*
X26082Y-20283D01*
X26071Y-20271D01*
X26059Y-20248D01*
X26059Y-20224D01*
X26071Y-20200D01*
X26082Y-20188D01*
X26106Y-20176D01*
X26166Y-20176D01*
X26201Y-20188D01*
X26273Y-20176D02*
X26416Y-20176D01*
X26344Y-20426D02*
X26344Y-20176D01*
X22226Y-19662D02*
X22107Y-19745D01*
X22226Y-19804D02*
X21976Y-19804D01*
X21976Y-19709D01*
X21988Y-19685D01*
X22000Y-19674D01*
X22024Y-19662D01*
X22060Y-19662D01*
X22083Y-19674D01*
X22095Y-19685D01*
X22107Y-19709D01*
X22107Y-19804D01*
X22214Y-19566D02*
X22226Y-19531D01*
X22226Y-19471D01*
X22214Y-19447D01*
X22202Y-19435D01*
X22179Y-19424D01*
X22155Y-19424D01*
X22131Y-19435D01*
X22119Y-19447D01*
X22107Y-19471D01*
X22095Y-19519D01*
X22083Y-19543D01*
X22071Y-19554D01*
X22048Y-19566D01*
X22024Y-19566D01*
X22000Y-19554D01*
X21988Y-19543D01*
X21976Y-19519D01*
X21976Y-19459D01*
X21988Y-19424D01*
X21976Y-19352D02*
X21976Y-19209D01*
X22226Y-19281D02*
X21976Y-19281D01*
X27729Y-20331D02*
X27919Y-20331D01*
X27824Y-20426D02*
X27824Y-20236D01*
X28158Y-20176D02*
X28039Y-20176D01*
X28027Y-20295D01*
X28039Y-20283D01*
X28062Y-20271D01*
X28122Y-20271D01*
X28146Y-20283D01*
X28158Y-20295D01*
X28169Y-20319D01*
X28169Y-20379D01*
X28158Y-20402D01*
X28146Y-20414D01*
X28122Y-20426D01*
X28062Y-20426D01*
X28039Y-20414D01*
X28027Y-20402D01*
X28241Y-20176D02*
X28324Y-20426D01*
X28407Y-20176D01*
X29859Y-20188D02*
X29836Y-20176D01*
X29800Y-20176D01*
X29764Y-20188D01*
X29740Y-20212D01*
X29729Y-20236D01*
X29717Y-20283D01*
X29717Y-20319D01*
X29729Y-20367D01*
X29740Y-20390D01*
X29764Y-20414D01*
X29800Y-20426D01*
X29824Y-20426D01*
X29859Y-20414D01*
X29871Y-20402D01*
X29871Y-20319D01*
X29824Y-20319D01*
X29979Y-20426D02*
X29979Y-20176D01*
X30121Y-20426D01*
X30121Y-20176D01*
X30241Y-20426D02*
X30241Y-20176D01*
X30300Y-20176D01*
X30336Y-20188D01*
X30360Y-20212D01*
X30371Y-20236D01*
X30383Y-20283D01*
X30383Y-20319D01*
X30371Y-20367D01*
X30360Y-20390D01*
X30336Y-20414D01*
X30300Y-20426D01*
X30241Y-20426D01*
X21300Y-13950D02*
X21300Y-15000D01*
X21250Y-15000D02*
X21250Y-13950D01*
X21200Y-13950D02*
X21200Y-15000D01*
X21150Y-15000D02*
X21150Y-13950D01*
X21100Y-13950D02*
X21100Y-15000D01*
X21050Y-15000D02*
X21050Y-13950D01*
X21000Y-13950D02*
X21000Y-15000D01*
X20950Y-15000D02*
X20950Y-13950D01*
X21600Y-13950D02*
X21600Y-15000D01*
X21650Y-15000D02*
X21650Y-13950D01*
X21700Y-13950D02*
X21700Y-15000D01*
X21750Y-15000D02*
X21750Y-13950D01*
X20900Y-13950D02*
X21800Y-13950D01*
X20900Y-15000D02*
X20900Y-13950D01*
X21800Y-15000D02*
X20900Y-15000D01*
X14750Y-20000D02*
X14750Y-21000D01*
X37013Y-13775D02*
X37001Y-13798D01*
X37001Y-13834D01*
X37013Y-13870D01*
X37037Y-13894D01*
X37061Y-13905D01*
X37108Y-13917D01*
X37144Y-13917D01*
X37192Y-13905D01*
X37215Y-13894D01*
X37239Y-13870D01*
X37251Y-13834D01*
X37251Y-13810D01*
X37239Y-13775D01*
X37227Y-13763D01*
X37144Y-13763D01*
X37144Y-13810D01*
X37251Y-13655D02*
X37001Y-13655D01*
X37251Y-13513D01*
X37001Y-13513D01*
X37251Y-13393D02*
X37001Y-13393D01*
X37001Y-13334D01*
X37013Y-13298D01*
X37037Y-13274D01*
X37061Y-13263D01*
X37108Y-13251D01*
X37144Y-13251D01*
X37192Y-13263D01*
X37215Y-13274D01*
X37239Y-13298D01*
X37251Y-13334D01*
X37251Y-13393D01*
X37335Y-13084D02*
X36977Y-13084D01*
X37239Y-12917D02*
X37251Y-12882D01*
X37251Y-12822D01*
X37239Y-12798D01*
X37227Y-12786D01*
X37204Y-12775D01*
X37180Y-12775D01*
X37156Y-12786D01*
X37144Y-12798D01*
X37132Y-12822D01*
X37120Y-12870D01*
X37108Y-12894D01*
X37096Y-12905D01*
X37073Y-12917D01*
X37049Y-12917D01*
X37025Y-12905D01*
X37013Y-12894D01*
X37001Y-12870D01*
X37001Y-12810D01*
X37013Y-12775D01*
X37251Y-12667D02*
X37001Y-12667D01*
X37001Y-12608D01*
X37013Y-12572D01*
X37037Y-12548D01*
X37061Y-12537D01*
X37108Y-12525D01*
X37144Y-12525D01*
X37192Y-12537D01*
X37215Y-12548D01*
X37239Y-12572D01*
X37251Y-12608D01*
X37251Y-12667D01*
X37180Y-12429D02*
X37180Y-12310D01*
X37251Y-12453D02*
X37001Y-12370D01*
X37251Y-12287D01*
X37335Y-12144D02*
X36977Y-12144D01*
X37239Y-11977D02*
X37251Y-11942D01*
X37251Y-11882D01*
X37239Y-11858D01*
X37227Y-11846D01*
X37204Y-11835D01*
X37180Y-11835D01*
X37156Y-11846D01*
X37144Y-11858D01*
X37132Y-11882D01*
X37120Y-11930D01*
X37108Y-11954D01*
X37096Y-11965D01*
X37073Y-11977D01*
X37049Y-11977D01*
X37025Y-11965D01*
X37013Y-11954D01*
X37001Y-11930D01*
X37001Y-11870D01*
X37013Y-11835D01*
X37227Y-11585D02*
X37239Y-11597D01*
X37251Y-11632D01*
X37251Y-11656D01*
X37239Y-11692D01*
X37215Y-11716D01*
X37192Y-11727D01*
X37144Y-11739D01*
X37108Y-11739D01*
X37061Y-11727D01*
X37037Y-11716D01*
X37013Y-11692D01*
X37001Y-11656D01*
X37001Y-11632D01*
X37013Y-11597D01*
X37025Y-11585D01*
X37251Y-11358D02*
X37251Y-11477D01*
X37001Y-11477D01*
X37335Y-11216D02*
X36977Y-11216D01*
X37156Y-11037D02*
X37156Y-10847D01*
X37251Y-10942D02*
X37061Y-10942D01*
X37001Y-10608D02*
X37001Y-10727D01*
X37120Y-10739D01*
X37108Y-10727D01*
X37096Y-10704D01*
X37096Y-10644D01*
X37108Y-10620D01*
X37120Y-10608D01*
X37144Y-10597D01*
X37204Y-10597D01*
X37227Y-10608D01*
X37239Y-10620D01*
X37251Y-10644D01*
X37251Y-10704D01*
X37239Y-10727D01*
X37227Y-10739D01*
X37001Y-10525D02*
X37251Y-10442D01*
X37001Y-10359D01*
X35975Y-20213D02*
X35952Y-20201D01*
X35916Y-20201D01*
X35880Y-20213D01*
X35856Y-20237D01*
X35845Y-20261D01*
X35833Y-20308D01*
X35833Y-20344D01*
X35845Y-20392D01*
X35856Y-20415D01*
X35880Y-20439D01*
X35916Y-20451D01*
X35940Y-20451D01*
X35975Y-20439D01*
X35987Y-20427D01*
X35987Y-20344D01*
X35940Y-20344D01*
X36095Y-20451D02*
X36095Y-20201D01*
X36237Y-20451D01*
X36237Y-20201D01*
X36357Y-20451D02*
X36357Y-20201D01*
X36416Y-20201D01*
X36452Y-20213D01*
X36476Y-20237D01*
X36487Y-20261D01*
X36499Y-20308D01*
X36499Y-20344D01*
X36487Y-20392D01*
X36476Y-20415D01*
X36452Y-20439D01*
X36416Y-20451D01*
X36357Y-20451D01*
X36666Y-20535D02*
X36666Y-20177D01*
X36833Y-20439D02*
X36868Y-20451D01*
X36928Y-20451D01*
X36952Y-20439D01*
X36964Y-20427D01*
X36975Y-20404D01*
X36975Y-20380D01*
X36964Y-20356D01*
X36952Y-20344D01*
X36928Y-20332D01*
X36880Y-20320D01*
X36856Y-20308D01*
X36845Y-20296D01*
X36833Y-20273D01*
X36833Y-20249D01*
X36845Y-20225D01*
X36856Y-20213D01*
X36880Y-20201D01*
X36940Y-20201D01*
X36975Y-20213D01*
X37083Y-20451D02*
X37083Y-20201D01*
X37142Y-20201D01*
X37178Y-20213D01*
X37202Y-20237D01*
X37213Y-20261D01*
X37225Y-20308D01*
X37225Y-20344D01*
X37213Y-20392D01*
X37202Y-20415D01*
X37178Y-20439D01*
X37142Y-20451D01*
X37083Y-20451D01*
X37321Y-20380D02*
X37440Y-20380D01*
X37297Y-20451D02*
X37380Y-20201D01*
X37463Y-20451D01*
X37606Y-20535D02*
X37606Y-20177D01*
X37773Y-20439D02*
X37808Y-20451D01*
X37868Y-20451D01*
X37892Y-20439D01*
X37904Y-20427D01*
X37915Y-20404D01*
X37915Y-20380D01*
X37904Y-20356D01*
X37892Y-20344D01*
X37868Y-20332D01*
X37820Y-20320D01*
X37796Y-20308D01*
X37785Y-20296D01*
X37773Y-20273D01*
X37773Y-20249D01*
X37785Y-20225D01*
X37796Y-20213D01*
X37820Y-20201D01*
X37880Y-20201D01*
X37915Y-20213D01*
X38165Y-20427D02*
X38153Y-20439D01*
X38118Y-20451D01*
X38094Y-20451D01*
X38058Y-20439D01*
X38034Y-20415D01*
X38023Y-20392D01*
X38011Y-20344D01*
X38011Y-20308D01*
X38023Y-20261D01*
X38034Y-20237D01*
X38058Y-20213D01*
X38094Y-20201D01*
X38118Y-20201D01*
X38153Y-20213D01*
X38165Y-20225D01*
X38392Y-20451D02*
X38273Y-20451D01*
X38273Y-20201D01*
X38534Y-20535D02*
X38534Y-20177D01*
X38713Y-20356D02*
X38903Y-20356D01*
X38808Y-20451D02*
X38808Y-20261D01*
X39142Y-20201D02*
X39023Y-20201D01*
X39011Y-20320D01*
X39023Y-20308D01*
X39046Y-20296D01*
X39106Y-20296D01*
X39130Y-20308D01*
X39142Y-20320D01*
X39153Y-20344D01*
X39153Y-20404D01*
X39142Y-20427D01*
X39130Y-20439D01*
X39106Y-20451D01*
X39046Y-20451D01*
X39023Y-20439D01*
X39011Y-20427D01*
X39225Y-20201D02*
X39308Y-20451D01*
X39391Y-20201D01*
G54D10*
X18250Y-20525D02*
X18375Y-20525D01*
X18250Y-20575D02*
X18250Y-20525D01*
X18400Y-20575D02*
X18250Y-20575D01*
X18400Y-20475D02*
X18400Y-20575D01*
X18200Y-20475D02*
X18400Y-20475D01*
X18200Y-20625D02*
X18200Y-20475D01*
X18450Y-20625D02*
X18200Y-20625D01*
X18450Y-20425D02*
X18450Y-20625D01*
X18150Y-20425D02*
X18450Y-20425D01*
X18150Y-20675D02*
X18150Y-20425D01*
X18500Y-20675D02*
X18150Y-20675D01*
X18500Y-20375D02*
X18500Y-20675D01*
X18100Y-20375D02*
X18500Y-20375D01*
X18100Y-20725D02*
X18100Y-20375D01*
X18550Y-20725D02*
X18100Y-20725D01*
X18550Y-20325D02*
X18550Y-20725D01*
X18050Y-20325D02*
X18550Y-20325D01*
X18050Y-20775D02*
X18050Y-20325D01*
X18600Y-20775D02*
X18050Y-20775D01*
X18600Y-20275D02*
X18600Y-20775D01*
X18000Y-20275D02*
X18600Y-20275D01*
X18000Y-20825D02*
X18000Y-20275D01*
X18650Y-20825D02*
X18000Y-20825D01*
X18650Y-20175D02*
X18650Y-20825D01*
X17950Y-20175D02*
X18650Y-20175D01*
X17950Y-20875D02*
X17950Y-20175D01*
X18700Y-20875D02*
X17950Y-20875D01*
X18700Y-20125D02*
X18700Y-20875D01*
X17900Y-20125D02*
X18700Y-20125D01*
X17900Y-20925D02*
X17900Y-20125D01*
X18750Y-20925D02*
X17900Y-20925D01*
X18750Y-20075D02*
X18750Y-20925D01*
X17850Y-20075D02*
X18750Y-20075D01*
X17850Y-20975D02*
X17850Y-20075D01*
X18800Y-20975D02*
X17850Y-20975D01*
X18800Y-20025D02*
X18800Y-20975D01*
X17825Y-20025D02*
X18800Y-20025D01*
X12300Y-14425D02*
X12300Y-14525D01*
X12250Y-14425D02*
X12300Y-14425D01*
X12250Y-14575D02*
X12250Y-14425D01*
X12350Y-14575D02*
X12250Y-14575D01*
X12350Y-14375D02*
X12350Y-14575D01*
X12200Y-14375D02*
X12350Y-14375D01*
X12200Y-14625D02*
X12200Y-14375D01*
X12400Y-14625D02*
X12200Y-14625D01*
X12400Y-14325D02*
X12400Y-14625D01*
X12150Y-14325D02*
X12400Y-14325D01*
X12150Y-14675D02*
X12150Y-14325D01*
X12450Y-14675D02*
X12150Y-14675D01*
X12450Y-14275D02*
X12450Y-14675D01*
X12100Y-14275D02*
X12450Y-14275D01*
X12100Y-14725D02*
X12100Y-14275D01*
X12500Y-14725D02*
X12100Y-14725D01*
X12500Y-14225D02*
X12500Y-14725D01*
X12050Y-14225D02*
X12500Y-14225D01*
X12050Y-14775D02*
X12050Y-14225D01*
X12550Y-14775D02*
X12050Y-14775D01*
X12550Y-14175D02*
X12550Y-14775D01*
X12000Y-14175D02*
X12550Y-14175D01*
X12000Y-14825D02*
X12000Y-14175D01*
X12600Y-14825D02*
X12000Y-14825D01*
X12600Y-14125D02*
X12600Y-14825D01*
X11950Y-14125D02*
X12600Y-14125D01*
X11950Y-14875D02*
X11950Y-14125D01*
X12650Y-14875D02*
X11950Y-14875D01*
X12650Y-14075D02*
X12650Y-14875D01*
X11900Y-14075D02*
X12650Y-14075D01*
X11900Y-14925D02*
X11900Y-14075D01*
X12700Y-14925D02*
X11900Y-14925D01*
X12700Y-14025D02*
X12700Y-14925D01*
X11850Y-14025D02*
X12700Y-14025D01*
X11850Y-14975D02*
X11850Y-14025D01*
X12750Y-14975D02*
X11850Y-14975D01*
X12750Y-13975D02*
X12750Y-14975D01*
X11825Y-13975D02*
X12750Y-13975D01*
X18375Y-11525D02*
X18250Y-11525D01*
X18375Y-11475D02*
X18375Y-11525D01*
X18225Y-11475D02*
X18375Y-11475D01*
X18225Y-11575D02*
X18225Y-11475D01*
X18425Y-11575D02*
X18225Y-11575D01*
X18425Y-11425D02*
X18425Y-11575D01*
X18175Y-11425D02*
X18425Y-11425D01*
X18175Y-11625D02*
X18175Y-11425D01*
X18475Y-11625D02*
X18175Y-11625D01*
X18475Y-11375D02*
X18475Y-11625D01*
X18125Y-11375D02*
X18475Y-11375D01*
X18125Y-11675D02*
X18125Y-11375D01*
X18525Y-11675D02*
X18125Y-11675D01*
X18525Y-11325D02*
X18525Y-11675D01*
X18075Y-11325D02*
X18525Y-11325D01*
X18075Y-11725D02*
X18075Y-11325D01*
X18575Y-11725D02*
X18075Y-11725D01*
X18575Y-11275D02*
X18575Y-11725D01*
X18025Y-11275D02*
X18575Y-11275D01*
X18025Y-11775D02*
X18025Y-11275D01*
X18625Y-11775D02*
X18025Y-11775D01*
X18625Y-11225D02*
X18625Y-11775D01*
X17975Y-11225D02*
X18625Y-11225D01*
X17975Y-11825D02*
X17975Y-11225D01*
X18675Y-11825D02*
X17975Y-11825D01*
X18675Y-11175D02*
X18675Y-11825D01*
X17925Y-11175D02*
X18675Y-11175D01*
X17925Y-11875D02*
X17925Y-11175D01*
X18725Y-11875D02*
X17925Y-11875D01*
X18725Y-11125D02*
X18725Y-11875D01*
X17875Y-11125D02*
X18725Y-11125D01*
X17875Y-11925D02*
X17875Y-11125D01*
X18775Y-11925D02*
X17875Y-11925D01*
X18775Y-11075D02*
X18775Y-11925D01*
X17825Y-11075D02*
X18775Y-11075D01*
X17825Y-11975D02*
X17825Y-11075D01*
X18825Y-11975D02*
X17825Y-11975D01*
X18825Y-11025D02*
X18825Y-11975D01*
X17825Y-11025D02*
X18825Y-11025D01*
X23350Y-10600D02*
X25950Y-10600D01*
X22600Y-11350D02*
X23350Y-10600D01*
X22600Y-12650D02*
X22600Y-11350D01*
X23350Y-13400D02*
X22600Y-12650D01*
X25950Y-13400D02*
X23350Y-13400D01*
X11848Y-10295D02*
X11924Y-10562D01*
X12001Y-10371D01*
X12077Y-10562D01*
X12153Y-10295D01*
X12267Y-10295D02*
X12362Y-10562D01*
X12458Y-10295D02*
X12362Y-10562D01*
X12324Y-10657D01*
X12305Y-10676D01*
X12267Y-10695D01*
X12667Y-10562D02*
X12629Y-10543D01*
X12610Y-10524D01*
X12591Y-10486D01*
X12591Y-10371D01*
X12610Y-10333D01*
X12629Y-10314D01*
X12667Y-10295D01*
X12725Y-10295D01*
X12763Y-10314D01*
X12782Y-10333D01*
X12801Y-10371D01*
X12801Y-10486D01*
X12782Y-10524D01*
X12763Y-10543D01*
X12725Y-10562D01*
X12667Y-10562D01*
X13029Y-10562D02*
X12991Y-10543D01*
X12972Y-10505D01*
X12972Y-10162D01*
X13354Y-10295D02*
X13354Y-10562D01*
X13182Y-10295D02*
X13182Y-10505D01*
X13201Y-10543D01*
X13239Y-10562D01*
X13297Y-10562D01*
X13335Y-10543D01*
X13354Y-10524D01*
X13544Y-10562D02*
X13544Y-10295D01*
X13544Y-10333D02*
X13563Y-10314D01*
X13601Y-10295D01*
X13659Y-10295D01*
X13697Y-10314D01*
X13716Y-10352D01*
X13716Y-10562D01*
X13716Y-10352D02*
X13735Y-10314D01*
X13773Y-10295D01*
X13830Y-10295D01*
X13868Y-10314D01*
X13887Y-10352D01*
X13887Y-10562D01*
X14077Y-10524D02*
X14096Y-10543D01*
X14077Y-10562D01*
X14058Y-10543D01*
X14077Y-10524D01*
X14077Y-10562D01*
X14439Y-10543D02*
X14401Y-10562D01*
X14324Y-10562D01*
X14286Y-10543D01*
X14267Y-10524D01*
X14248Y-10486D01*
X14248Y-10371D01*
X14267Y-10333D01*
X14286Y-10314D01*
X14324Y-10295D01*
X14401Y-10295D01*
X14439Y-10314D01*
X14667Y-10562D02*
X14629Y-10543D01*
X14610Y-10524D01*
X14591Y-10486D01*
X14591Y-10371D01*
X14610Y-10333D01*
X14629Y-10314D01*
X14667Y-10295D01*
X14725Y-10295D01*
X14763Y-10314D01*
X14782Y-10333D01*
X14801Y-10371D01*
X14801Y-10486D01*
X14782Y-10524D01*
X14763Y-10543D01*
X14725Y-10562D01*
X14667Y-10562D01*
X14972Y-10562D02*
X14972Y-10295D01*
X14972Y-10333D02*
X14991Y-10314D01*
X15029Y-10295D01*
X15087Y-10295D01*
X15125Y-10314D01*
X15144Y-10352D01*
X15144Y-10562D01*
X15144Y-10352D02*
X15163Y-10314D01*
X15201Y-10295D01*
X15258Y-10295D01*
X15296Y-10314D01*
X15315Y-10352D01*
X15315Y-10562D01*
G54D12*
X10000Y-10000D02*
X40000Y-10000D01*
G54D10*
X27248Y-12210D02*
X27553Y-12210D01*
X27401Y-12362D02*
X27401Y-12057D01*
X28373Y-12210D02*
X28678Y-12210D01*
X28526Y-12362D02*
X28526Y-12057D01*
G54D11*
X30100Y-15300D02*
X30098Y-15319D01*
X30092Y-15338D01*
X30083Y-15355D01*
X30070Y-15370D01*
X30055Y-15382D01*
X30038Y-15392D01*
X30020Y-15397D01*
X30000Y-15399D01*
X29982Y-15398D01*
X29963Y-15392D01*
X29946Y-15383D01*
X29931Y-15371D01*
X29918Y-15356D01*
X29909Y-15339D01*
X29903Y-15320D01*
X29901Y-15301D01*
X29902Y-15282D01*
X29908Y-15264D01*
X29916Y-15246D01*
X29929Y-15231D01*
X29943Y-15218D01*
X29960Y-15209D01*
X29979Y-15203D01*
X29998Y-15201D01*
X30017Y-15202D01*
X30036Y-15207D01*
X30053Y-15216D01*
X30068Y-15228D01*
X30081Y-15243D01*
X30091Y-15260D01*
X30097Y-15278D01*
X30099Y-15298D01*
X30100Y-15300D01*
X30050Y-15300D02*
X30049Y-15309D01*
X30046Y-15319D01*
X30041Y-15327D01*
X30035Y-15335D01*
X30027Y-15341D01*
X30019Y-15346D01*
X30010Y-15348D01*
X30000Y-15349D01*
X29991Y-15349D01*
X29982Y-15346D01*
X29973Y-15341D01*
X29966Y-15335D01*
X29959Y-15328D01*
X29955Y-15319D01*
X29952Y-15310D01*
X29951Y-15300D01*
X29951Y-15291D01*
X29954Y-15282D01*
X29958Y-15273D01*
X29965Y-15266D01*
X29972Y-15259D01*
X29980Y-15255D01*
X29990Y-15252D01*
X29999Y-15251D01*
X30008Y-15251D01*
X30018Y-15254D01*
X30026Y-15258D01*
X30034Y-15264D01*
X30040Y-15272D01*
X30045Y-15280D01*
X30048Y-15289D01*
X30049Y-15299D01*
X30050Y-15300D01*
X34775Y-11175D02*
X34775Y-10075D01*
X33775Y-11225D02*
X33775Y-10075D01*
X32775Y-11225D02*
X32775Y-10075D01*
X31775Y-11225D02*
X31775Y-10075D01*
X30775Y-11225D02*
X30775Y-10075D01*
X29775Y-10075D02*
X29775Y-11325D01*
X35775Y-11275D02*
X35775Y-10075D01*
X21800Y-18050D02*
X20800Y-18050D01*
X21800Y-17800D02*
X21800Y-18050D01*
X21800Y-14950D02*
X21800Y-15000D01*
X21800Y-13950D02*
X21800Y-15000D01*
X17800Y-20000D02*
X17800Y-21000D01*
X18850Y-21000D02*
X14750Y-21000D01*
X18850Y-20000D02*
X18850Y-21000D01*
X18800Y-20000D02*
X18850Y-20000D01*
X14750Y-20000D02*
X18800Y-20000D01*
X11800Y-15000D02*
X12800Y-15000D01*
X11800Y-18050D02*
X11800Y-13950D01*
X12800Y-18050D02*
X11800Y-18050D01*
X12800Y-13950D02*
X12800Y-18050D01*
X11800Y-13950D02*
X12800Y-13950D01*
X17800Y-11000D02*
X17800Y-12000D01*
X18850Y-12000D02*
X14750Y-12000D01*
X18850Y-11000D02*
X18850Y-12000D01*
X14750Y-11000D02*
X18850Y-11000D01*
X14750Y-12000D02*
X14750Y-11000D01*
G54D10*
X12864Y-21375D02*
X12878Y-21361D01*
X12907Y-21346D01*
X12978Y-21346D01*
X13007Y-21361D01*
X13021Y-21375D01*
X13036Y-21404D01*
X13036Y-21432D01*
X13021Y-21475D01*
X12850Y-21646D01*
X13036Y-21646D01*
X12689Y-21762D02*
X12689Y-21495D01*
X12689Y-21362D02*
X12670Y-21381D01*
X12689Y-21400D01*
X12708Y-21381D01*
X12689Y-21362D01*
X12689Y-21400D01*
X13356Y-21743D02*
X13318Y-21762D01*
X13241Y-21762D01*
X13203Y-21743D01*
X13184Y-21724D01*
X13165Y-21686D01*
X13165Y-21571D01*
X13184Y-21533D01*
X13203Y-21514D01*
X13241Y-21495D01*
X13318Y-21495D01*
X13356Y-21514D01*
X13966Y-21552D02*
X14023Y-21571D01*
X14042Y-21590D01*
X14061Y-21629D01*
X14061Y-21686D01*
X14042Y-21724D01*
X14023Y-21743D01*
X13985Y-21762D01*
X13832Y-21762D01*
X13832Y-21362D01*
X13966Y-21362D01*
X14004Y-21381D01*
X14023Y-21400D01*
X14042Y-21438D01*
X14042Y-21476D01*
X14023Y-21514D01*
X14004Y-21533D01*
X13966Y-21552D01*
X13832Y-21552D01*
X14404Y-21495D02*
X14404Y-21762D01*
X14232Y-21495D02*
X14232Y-21705D01*
X14251Y-21743D01*
X14289Y-21762D01*
X14347Y-21762D01*
X14385Y-21743D01*
X14404Y-21724D01*
X14575Y-21743D02*
X14613Y-21762D01*
X14689Y-21762D01*
X14728Y-21743D01*
X14747Y-21705D01*
X14747Y-21686D01*
X14728Y-21648D01*
X14689Y-21629D01*
X14632Y-21629D01*
X14594Y-21610D01*
X14575Y-21571D01*
X14575Y-21552D01*
X14594Y-21514D01*
X14632Y-21495D01*
X14689Y-21495D01*
X14728Y-21514D01*
X15223Y-21495D02*
X14918Y-21610D01*
X15223Y-21724D01*
X15413Y-21610D02*
X15718Y-21610D01*
X15908Y-21495D02*
X16213Y-21610D01*
X15908Y-21724D01*
X16384Y-21743D02*
X16441Y-21762D01*
X16537Y-21762D01*
X16575Y-21743D01*
X16594Y-21724D01*
X16613Y-21686D01*
X16613Y-21648D01*
X16594Y-21610D01*
X16575Y-21590D01*
X16537Y-21571D01*
X16460Y-21552D01*
X16422Y-21533D01*
X16403Y-21514D01*
X16384Y-21476D01*
X16384Y-21438D01*
X16403Y-21400D01*
X16422Y-21381D01*
X16460Y-21362D01*
X16556Y-21362D01*
X16613Y-21381D01*
X16784Y-21762D02*
X16784Y-21362D01*
X16879Y-21362D01*
X16937Y-21381D01*
X16975Y-21419D01*
X16994Y-21457D01*
X17013Y-21533D01*
X17013Y-21590D01*
X16994Y-21667D01*
X16975Y-21705D01*
X16937Y-21743D01*
X16879Y-21762D01*
X16784Y-21762D01*
X17184Y-21610D02*
X17489Y-21610D01*
X17908Y-21724D02*
X17889Y-21743D01*
X17832Y-21762D01*
X17794Y-21762D01*
X17736Y-21743D01*
X17698Y-21705D01*
X17679Y-21667D01*
X17660Y-21590D01*
X17660Y-21533D01*
X17679Y-21457D01*
X17698Y-21419D01*
X17736Y-21381D01*
X17794Y-21362D01*
X17832Y-21362D01*
X17889Y-21381D01*
X17908Y-21400D01*
X18251Y-21762D02*
X18251Y-21552D01*
X18232Y-21514D01*
X18194Y-21495D01*
X18117Y-21495D01*
X18079Y-21514D01*
X18251Y-21743D02*
X18213Y-21762D01*
X18117Y-21762D01*
X18079Y-21743D01*
X18060Y-21705D01*
X18060Y-21667D01*
X18079Y-21629D01*
X18117Y-21610D01*
X18213Y-21610D01*
X18251Y-21590D01*
X18441Y-21762D02*
X18441Y-21495D01*
X18441Y-21571D02*
X18460Y-21533D01*
X18479Y-21514D01*
X18517Y-21495D01*
X18556Y-21495D01*
X18861Y-21762D02*
X18861Y-21362D01*
X18861Y-21743D02*
X18823Y-21762D01*
X18746Y-21762D01*
X18708Y-21743D01*
X18689Y-21724D01*
X18670Y-21686D01*
X18670Y-21571D01*
X18689Y-21533D01*
X18708Y-21514D01*
X18746Y-21495D01*
X18823Y-21495D01*
X18861Y-21514D01*
G54D11*
X30056Y-10679D02*
X30037Y-10717D01*
X30037Y-10774D01*
X30056Y-10832D01*
X30094Y-10870D01*
X30132Y-10889D01*
X30208Y-10908D01*
X30265Y-10908D01*
X30342Y-10889D01*
X30380Y-10870D01*
X30418Y-10832D01*
X30437Y-10774D01*
X30437Y-10736D01*
X30418Y-10679D01*
X30399Y-10660D01*
X30265Y-10660D01*
X30265Y-10736D01*
X30437Y-10489D02*
X30037Y-10489D01*
X30437Y-10260D01*
X30037Y-10260D01*
X31246Y-10737D02*
X31437Y-10737D01*
X31037Y-10870D02*
X31246Y-10737D01*
X31037Y-10603D01*
X31437Y-10279D02*
X31437Y-10470D01*
X31037Y-10470D01*
X32037Y-10813D02*
X32037Y-10736D01*
X32056Y-10698D01*
X32094Y-10660D01*
X32170Y-10641D01*
X32304Y-10641D01*
X32380Y-10660D01*
X32418Y-10698D01*
X32437Y-10736D01*
X32437Y-10813D01*
X32418Y-10851D01*
X32380Y-10889D01*
X32304Y-10908D01*
X32170Y-10908D01*
X32094Y-10889D01*
X32056Y-10851D01*
X32037Y-10813D01*
X32437Y-10241D02*
X32246Y-10375D01*
X32437Y-10470D02*
X32037Y-10470D01*
X32037Y-10317D01*
X32056Y-10279D01*
X32075Y-10260D01*
X32113Y-10241D01*
X32170Y-10241D01*
X32208Y-10260D01*
X32227Y-10279D01*
X32246Y-10317D01*
X32246Y-10470D01*
X33437Y-10651D02*
X33246Y-10785D01*
X33437Y-10880D02*
X33037Y-10880D01*
X33037Y-10727D01*
X33056Y-10689D01*
X33075Y-10670D01*
X33113Y-10651D01*
X33170Y-10651D01*
X33208Y-10670D01*
X33227Y-10689D01*
X33246Y-10727D01*
X33246Y-10880D01*
X33437Y-10480D02*
X33037Y-10480D01*
X33037Y-10385D01*
X33056Y-10327D01*
X33094Y-10289D01*
X33132Y-10270D01*
X33208Y-10251D01*
X33265Y-10251D01*
X33342Y-10270D01*
X33380Y-10289D01*
X33418Y-10327D01*
X33437Y-10385D01*
X33437Y-10480D01*
X34227Y-10746D02*
X34246Y-10689D01*
X34265Y-10670D01*
X34304Y-10651D01*
X34361Y-10651D01*
X34399Y-10670D01*
X34418Y-10689D01*
X34437Y-10727D01*
X34437Y-10880D01*
X34037Y-10880D01*
X34037Y-10746D01*
X34056Y-10708D01*
X34075Y-10689D01*
X34113Y-10670D01*
X34151Y-10670D01*
X34189Y-10689D01*
X34208Y-10708D01*
X34227Y-10746D01*
X34227Y-10880D01*
X34437Y-10251D02*
X34246Y-10385D01*
X34437Y-10480D02*
X34037Y-10480D01*
X34037Y-10327D01*
X34056Y-10289D01*
X34075Y-10270D01*
X34113Y-10251D01*
X34170Y-10251D01*
X34208Y-10270D01*
X34227Y-10289D01*
X34246Y-10327D01*
X34246Y-10480D01*
X35227Y-10746D02*
X35246Y-10689D01*
X35265Y-10670D01*
X35304Y-10651D01*
X35361Y-10651D01*
X35399Y-10670D01*
X35418Y-10689D01*
X35437Y-10727D01*
X35437Y-10880D01*
X35037Y-10880D01*
X35037Y-10746D01*
X35056Y-10708D01*
X35075Y-10689D01*
X35113Y-10670D01*
X35151Y-10670D01*
X35189Y-10689D01*
X35208Y-10708D01*
X35227Y-10746D01*
X35227Y-10880D01*
X35437Y-10480D02*
X35037Y-10480D01*
X35437Y-10251D02*
X35208Y-10423D01*
X35037Y-10251D02*
X35265Y-10480D01*
G54D12*
X40000Y-22000D02*
X10000Y-22000D01*
X40000Y-10000D02*
X40000Y-22000D01*
X10000Y-22000D02*
X10000Y-10000D01*
G54D10*
X10400Y-10875D02*
X10225Y-10875D01*
X10225Y-16000D02*
X10225Y-10875D01*
X10225Y-21250D02*
X10225Y-16000D01*
X10400Y-21725D02*
X10400Y-21250D01*
X10400Y-21250D02*
X10225Y-21250D01*
X11700Y-21225D02*
X11700Y-21725D01*
X11700Y-21725D02*
X10400Y-21725D01*
X16650Y-21225D02*
X11700Y-21225D01*
X17700Y-20225D02*
X16650Y-21225D01*
X19025Y-20225D02*
X17700Y-20225D01*
X20075Y-20175D02*
X20325Y-20175D01*
X20325Y-20175D02*
X20325Y-20975D01*
X20325Y-20975D02*
X19025Y-20975D01*
X19025Y-20975D02*
X19025Y-20225D01*
X20075Y-16000D02*
X20075Y-20175D01*
X20075Y-11050D02*
X20075Y-16000D01*
X19000Y-10875D02*
X19025Y-10875D01*
X19025Y-10875D02*
X19025Y-10325D01*
X19025Y-10325D02*
X20250Y-10325D01*
X20250Y-10325D02*
X20250Y-10925D01*
X11700Y-10275D02*
X11700Y-10875D01*
X11700Y-10875D02*
X19000Y-10875D01*
X10400Y-10875D02*
X10400Y-10275D01*
X10400Y-10275D02*
X11700Y-10275D01*
X33425Y-14900D02*
X33325Y-14800D01*
X33325Y-14425D02*
X33325Y-14925D01*
X33325Y-14925D02*
X34125Y-14925D01*
X34125Y-14925D02*
X34125Y-14425D01*
X34125Y-13975D02*
X34125Y-13475D01*
X34125Y-13475D02*
X33325Y-13475D01*
X33325Y-13475D02*
X33325Y-13975D01*
G54D11*
X24150Y-13700D02*
X23650Y-13700D01*
X23650Y-13700D02*
X23650Y-14500D01*
X23650Y-14500D02*
X24150Y-14500D01*
X24600Y-14500D02*
X25100Y-14500D01*
X25100Y-14500D02*
X25100Y-13700D01*
X25100Y-13700D02*
X24600Y-13700D01*
X22875Y-14500D02*
X23375Y-14500D01*
X23375Y-14500D02*
X23375Y-13700D01*
X23375Y-13700D02*
X22875Y-13700D01*
X22425Y-13700D02*
X21925Y-13700D01*
X21925Y-13700D02*
X21925Y-14500D01*
X21925Y-14500D02*
X22425Y-14500D01*
X24250Y-17750D02*
X23750Y-17750D01*
X23750Y-17750D02*
X23750Y-18550D01*
X23750Y-18550D02*
X24250Y-18550D01*
X24700Y-18550D02*
X25200Y-18550D01*
X25200Y-18550D02*
X25200Y-17750D01*
X25200Y-17750D02*
X24700Y-17750D01*
G54D10*
X26350Y-20000D02*
X26250Y-19900D01*
X26250Y-19525D02*
X26250Y-20025D01*
X26250Y-20025D02*
X27050Y-20025D01*
X27050Y-20025D02*
X27050Y-19525D01*
X27050Y-19075D02*
X27050Y-18575D01*
X27050Y-18575D02*
X26250Y-18575D01*
X26250Y-18575D02*
X26250Y-19075D01*
G54D11*
X38650Y-19150D02*
X38150Y-19150D01*
X38150Y-19150D02*
X38150Y-19950D01*
X38150Y-19950D02*
X38650Y-19950D01*
X39100Y-19950D02*
X39600Y-19950D01*
X39600Y-19950D02*
X39600Y-19150D01*
X39600Y-19150D02*
X39100Y-19150D01*
X37925Y-19125D02*
X37925Y-18625D01*
X37925Y-18625D02*
X37125Y-18625D01*
X37125Y-18625D02*
X37125Y-19125D01*
X37125Y-19575D02*
X37125Y-20075D01*
X37125Y-20075D02*
X37925Y-20075D01*
X37925Y-20075D02*
X37925Y-19575D01*
X36700Y-18925D02*
X36700Y-18425D01*
X36700Y-18425D02*
X35900Y-18425D01*
X35900Y-18425D02*
X35900Y-18925D01*
X35900Y-19375D02*
X35900Y-19875D01*
X35900Y-19875D02*
X36700Y-19875D01*
X36700Y-19875D02*
X36700Y-19375D01*
G54D10*
X32400Y-15550D02*
X32500Y-15650D01*
X32500Y-16025D02*
X32500Y-15525D01*
X32500Y-15525D02*
X31700Y-15525D01*
X31700Y-15525D02*
X31700Y-16025D01*
X31700Y-16475D02*
X31700Y-16975D01*
X31700Y-16975D02*
X32500Y-16975D01*
X32500Y-16975D02*
X32500Y-16475D01*
G54D11*
X27525Y-13325D02*
X27525Y-13825D01*
X27525Y-13825D02*
X28325Y-13825D01*
X28325Y-13825D02*
X28325Y-13325D01*
X28325Y-12875D02*
X28325Y-12375D01*
X28325Y-12375D02*
X27525Y-12375D01*
X27525Y-12375D02*
X27525Y-12875D01*
X28675Y-13325D02*
X28675Y-13825D01*
X28675Y-13825D02*
X29475Y-13825D01*
X29475Y-13825D02*
X29475Y-13325D01*
X29475Y-12875D02*
X29475Y-12375D01*
X29475Y-12375D02*
X28675Y-12375D01*
X28675Y-12375D02*
X28675Y-12875D01*
X27925Y-11975D02*
X27917Y-11976D01*
X27908Y-11977D01*
X27900Y-11979D01*
X27891Y-11982D01*
X27883Y-11985D01*
X27876Y-11989D01*
X27868Y-11994D01*
X27861Y-11999D01*
X27855Y-12005D01*
X27849Y-12011D01*
X27844Y-12018D01*
X27839Y-12026D01*
X27835Y-12033D01*
X27832Y-12041D01*
X27829Y-12050D01*
X27827Y-12058D01*
X27826Y-12067D01*
X27825Y-12075D01*
X28025Y-12075D02*
X28024Y-12067D01*
X28023Y-12058D01*
X28021Y-12050D01*
X28018Y-12041D01*
X28015Y-12033D01*
X28011Y-12026D01*
X28006Y-12018D01*
X28001Y-12011D01*
X27995Y-12005D01*
X27989Y-11999D01*
X27982Y-11994D01*
X27975Y-11989D01*
X27967Y-11985D01*
X27959Y-11982D01*
X27950Y-11979D01*
X27942Y-11977D01*
X27933Y-11976D01*
X27925Y-11975D01*
X27625Y-12050D02*
X27525Y-11950D01*
X27525Y-11575D02*
X27525Y-12075D01*
X27525Y-12075D02*
X28325Y-12075D01*
X28325Y-12075D02*
X28325Y-11575D01*
X28325Y-11125D02*
X28325Y-10625D01*
X28325Y-10625D02*
X27525Y-10625D01*
X27525Y-10625D02*
X27525Y-11125D01*
X29075Y-11975D02*
X29067Y-11976D01*
X29058Y-11977D01*
X29050Y-11979D01*
X29041Y-11982D01*
X29033Y-11985D01*
X29026Y-11989D01*
X29018Y-11994D01*
X29011Y-11999D01*
X29005Y-12005D01*
X28999Y-12011D01*
X28994Y-12018D01*
X28989Y-12026D01*
X28985Y-12033D01*
X28982Y-12041D01*
X28979Y-12050D01*
X28977Y-12058D01*
X28976Y-12067D01*
X28975Y-12075D01*
X29175Y-12075D02*
X29174Y-12067D01*
X29173Y-12058D01*
X29171Y-12050D01*
X29168Y-12041D01*
X29165Y-12033D01*
X29161Y-12026D01*
X29156Y-12018D01*
X29151Y-12011D01*
X29145Y-12005D01*
X29139Y-11999D01*
X29132Y-11994D01*
X29125Y-11989D01*
X29117Y-11985D01*
X29109Y-11982D01*
X29100Y-11979D01*
X29092Y-11977D01*
X29083Y-11976D01*
X29075Y-11975D01*
X28775Y-12050D02*
X28675Y-11950D01*
X28675Y-11575D02*
X28675Y-12075D01*
X28675Y-12075D02*
X29475Y-12075D01*
X29475Y-12075D02*
X29475Y-11575D01*
X29475Y-11125D02*
X29475Y-10625D01*
X29475Y-10625D02*
X28675Y-10625D01*
X28675Y-10625D02*
X28675Y-11125D01*
G54D10*
X29775Y-12200D02*
X29775Y-11200D01*
X35775Y-12200D02*
X35775Y-11200D01*
X34775Y-12200D02*
X34775Y-11200D01*
X35775Y-12200D02*
X29775Y-12200D01*
X29775Y-11200D02*
X35775Y-11200D01*
X36800Y-15375D02*
X36799Y-15384D01*
X36796Y-15394D01*
X36791Y-15402D01*
X36785Y-15410D01*
X36777Y-15416D01*
X36769Y-15421D01*
X36760Y-15423D01*
X36750Y-15424D01*
X36741Y-15424D01*
X36732Y-15421D01*
X36723Y-15416D01*
X36716Y-15410D01*
X36709Y-15403D01*
X36705Y-15394D01*
X36702Y-15385D01*
X36701Y-15375D01*
X36701Y-15366D01*
X36704Y-15357D01*
X36708Y-15348D01*
X36715Y-15341D01*
X36722Y-15334D01*
X36730Y-15330D01*
X36740Y-15327D01*
X36749Y-15326D01*
X36758Y-15326D01*
X36768Y-15329D01*
X36776Y-15333D01*
X36784Y-15339D01*
X36790Y-15347D01*
X36795Y-15355D01*
X36798Y-15364D01*
X36799Y-15374D01*
X36800Y-15375D01*
X36775Y-15375D02*
X36774Y-15379D01*
X36773Y-15384D01*
X36770Y-15388D01*
X36767Y-15392D01*
X36763Y-15395D01*
X36759Y-15398D01*
X36755Y-15399D01*
X36750Y-15399D01*
X36746Y-15399D01*
X36741Y-15398D01*
X36737Y-15395D01*
X36733Y-15392D01*
X36730Y-15389D01*
X36728Y-15384D01*
X36726Y-15380D01*
X36726Y-15375D01*
X36726Y-15371D01*
X36727Y-15366D01*
X36729Y-15362D01*
X36733Y-15358D01*
X36736Y-15355D01*
X36740Y-15353D01*
X36745Y-15351D01*
X36750Y-15351D01*
X36754Y-15351D01*
X36759Y-15352D01*
X36763Y-15354D01*
X36767Y-15357D01*
X36770Y-15361D01*
X36772Y-15365D01*
X36774Y-15370D01*
X36774Y-15375D01*
X36775Y-15375D01*
X36950Y-16325D02*
X37200Y-16325D01*
X37200Y-16325D02*
X37450Y-16325D01*
X37450Y-16325D02*
X37700Y-16075D01*
X37700Y-16075D02*
X37700Y-15575D01*
X37700Y-15575D02*
X37450Y-15325D01*
X36700Y-16075D02*
X36700Y-15575D01*
X36700Y-17075D02*
X36700Y-16575D01*
X36700Y-18075D02*
X36700Y-17575D01*
X38450Y-18325D02*
X36950Y-18325D01*
X38700Y-17575D02*
X38700Y-18075D01*
X38700Y-16575D02*
X38700Y-17075D01*
X38700Y-15575D02*
X38700Y-16075D01*
X36950Y-15325D02*
X38450Y-15325D01*
X38700Y-18075D02*
X38450Y-18325D01*
X38700Y-17075D02*
X38450Y-17325D01*
X38450Y-17325D02*
X38700Y-17575D01*
X38700Y-16075D02*
X38450Y-16325D01*
X38450Y-16325D02*
X38700Y-16575D01*
X38450Y-15325D02*
X38700Y-15575D01*
X36700Y-15575D02*
X36950Y-15325D01*
X36700Y-16575D02*
X36950Y-16325D01*
X36950Y-16325D02*
X36700Y-16075D01*
X36700Y-17575D02*
X36950Y-17325D01*
X36950Y-17325D02*
X36700Y-17075D01*
X36950Y-18325D02*
X36700Y-18075D01*
X26800Y-10600D02*
X26600Y-10600D01*
X26600Y-10600D02*
X26400Y-10600D01*
X26400Y-10600D02*
X26200Y-10800D01*
X26200Y-10800D02*
X26200Y-13200D01*
X26200Y-13200D02*
X26400Y-13400D01*
X26400Y-13400D02*
X26800Y-13400D01*
X26800Y-13400D02*
X27000Y-13200D01*
X27000Y-13200D02*
X27000Y-10800D01*
X26800Y-10600D02*
X27000Y-10800D01*
X30150Y-15275D02*
X30147Y-15299D01*
X30140Y-15322D01*
X30129Y-15344D01*
X30113Y-15363D01*
X30094Y-15378D01*
X30073Y-15390D01*
X30050Y-15397D01*
X30025Y-15399D01*
X30002Y-15397D01*
X29979Y-15390D01*
X29957Y-15379D01*
X29938Y-15364D01*
X29922Y-15345D01*
X29911Y-15324D01*
X29903Y-15300D01*
X29901Y-15276D01*
X29903Y-15253D01*
X29909Y-15229D01*
X29920Y-15208D01*
X29936Y-15189D01*
X29954Y-15173D01*
X29975Y-15161D01*
X29999Y-15153D01*
X30023Y-15151D01*
X30046Y-15152D01*
X30070Y-15159D01*
X30091Y-15170D01*
X30111Y-15185D01*
X30127Y-15203D01*
X30139Y-15225D01*
X30146Y-15248D01*
X30149Y-15272D01*
X30150Y-15275D01*
X30125Y-15275D02*
X30123Y-15294D01*
X30117Y-15313D01*
X30108Y-15330D01*
X30095Y-15345D01*
X30080Y-15357D01*
X30063Y-15367D01*
X30045Y-15372D01*
X30025Y-15374D01*
X30007Y-15373D01*
X29988Y-15367D01*
X29971Y-15358D01*
X29956Y-15346D01*
X29943Y-15331D01*
X29934Y-15314D01*
X29928Y-15295D01*
X29926Y-15276D01*
X29927Y-15257D01*
X29933Y-15239D01*
X29941Y-15221D01*
X29954Y-15206D01*
X29968Y-15193D01*
X29985Y-15184D01*
X30004Y-15178D01*
X30023Y-15176D01*
X30042Y-15177D01*
X30061Y-15182D01*
X30078Y-15191D01*
X30093Y-15203D01*
X30106Y-15218D01*
X30116Y-15235D01*
X30122Y-15253D01*
X30124Y-15273D01*
X30125Y-15275D01*
X30100Y-15275D02*
X30098Y-15289D01*
X30094Y-15303D01*
X30087Y-15316D01*
X30078Y-15327D01*
X30066Y-15337D01*
X30054Y-15344D01*
X30040Y-15348D01*
X30025Y-15349D01*
X30011Y-15348D01*
X29997Y-15344D01*
X29984Y-15337D01*
X29973Y-15328D01*
X29964Y-15317D01*
X29957Y-15304D01*
X29952Y-15290D01*
X29951Y-15276D01*
X29952Y-15262D01*
X29956Y-15248D01*
X29962Y-15235D01*
X29972Y-15223D01*
X29983Y-15214D01*
X29995Y-15207D01*
X30009Y-15202D01*
X30024Y-15201D01*
X30038Y-15202D01*
X30052Y-15206D01*
X30065Y-15212D01*
X30076Y-15221D01*
X30086Y-15232D01*
X30093Y-15245D01*
X30098Y-15259D01*
X30099Y-15273D01*
X30100Y-15275D01*
X30075Y-15275D02*
X30074Y-15284D01*
X30071Y-15294D01*
X30066Y-15302D01*
X30060Y-15310D01*
X30052Y-15316D01*
X30044Y-15321D01*
X30035Y-15323D01*
X30025Y-15324D01*
X30016Y-15324D01*
X30007Y-15321D01*
X29998Y-15316D01*
X29991Y-15310D01*
X29984Y-15303D01*
X29980Y-15294D01*
X29977Y-15285D01*
X29976Y-15275D01*
X29976Y-15266D01*
X29979Y-15257D01*
X29983Y-15248D01*
X29990Y-15241D01*
X29997Y-15234D01*
X30005Y-15230D01*
X30015Y-15227D01*
X30024Y-15226D01*
X30033Y-15226D01*
X30043Y-15229D01*
X30051Y-15233D01*
X30059Y-15239D01*
X30065Y-15247D01*
X30070Y-15255D01*
X30073Y-15264D01*
X30074Y-15274D01*
X30075Y-15275D01*
X30050Y-15275D02*
X30049Y-15279D01*
X30048Y-15284D01*
X30045Y-15288D01*
X30042Y-15292D01*
X30038Y-15295D01*
X30034Y-15298D01*
X30030Y-15299D01*
X30025Y-15299D01*
X30021Y-15299D01*
X30016Y-15298D01*
X30012Y-15295D01*
X30008Y-15292D01*
X30005Y-15289D01*
X30003Y-15284D01*
X30001Y-15280D01*
X30001Y-15275D01*
X30001Y-15271D01*
X30002Y-15266D01*
X30004Y-15262D01*
X30008Y-15258D01*
X30011Y-15255D01*
X30015Y-15253D01*
X30020Y-15251D01*
X30025Y-15251D01*
X30029Y-15251D01*
X30034Y-15252D01*
X30038Y-15254D01*
X30042Y-15257D01*
X30045Y-15261D01*
X30047Y-15265D01*
X30049Y-15270D01*
X30049Y-15275D01*
X30050Y-15275D01*
G54D13*
X29600Y-15400D02*
X27100Y-15400D01*
X27100Y-15400D02*
X27100Y-18200D01*
X27100Y-18200D02*
X29900Y-18200D01*
X29900Y-18200D02*
X29900Y-15700D01*
X29900Y-15700D02*
X29600Y-15400D01*
G54D10*
X37500Y-10200D02*
X37499Y-10209D01*
X37496Y-10219D01*
X37491Y-10227D01*
X37485Y-10235D01*
X37477Y-10241D01*
X37469Y-10246D01*
X37460Y-10248D01*
X37450Y-10249D01*
X37441Y-10249D01*
X37432Y-10246D01*
X37423Y-10241D01*
X37416Y-10235D01*
X37409Y-10228D01*
X37405Y-10219D01*
X37402Y-10210D01*
X37401Y-10200D01*
X37401Y-10191D01*
X37404Y-10182D01*
X37408Y-10173D01*
X37415Y-10166D01*
X37422Y-10159D01*
X37430Y-10155D01*
X37440Y-10152D01*
X37449Y-10151D01*
X37458Y-10151D01*
X37468Y-10154D01*
X37476Y-10158D01*
X37484Y-10164D01*
X37490Y-10172D01*
X37495Y-10180D01*
X37498Y-10189D01*
X37499Y-10199D01*
X37500Y-10200D01*
X37475Y-10200D02*
X37474Y-10204D01*
X37473Y-10209D01*
X37470Y-10213D01*
X37467Y-10217D01*
X37463Y-10220D01*
X37459Y-10223D01*
X37455Y-10224D01*
X37450Y-10224D01*
X37446Y-10224D01*
X37441Y-10223D01*
X37437Y-10220D01*
X37433Y-10217D01*
X37430Y-10214D01*
X37428Y-10209D01*
X37426Y-10205D01*
X37426Y-10200D01*
X37426Y-10196D01*
X37427Y-10191D01*
X37429Y-10187D01*
X37433Y-10183D01*
X37436Y-10180D01*
X37440Y-10178D01*
X37445Y-10176D01*
X37450Y-10176D01*
X37454Y-10176D01*
X37459Y-10177D01*
X37463Y-10179D01*
X37467Y-10182D01*
X37470Y-10186D01*
X37472Y-10190D01*
X37474Y-10195D01*
X37474Y-10200D01*
X37475Y-10200D01*
X38150Y-11150D02*
X37650Y-11150D01*
X38400Y-10900D02*
X38400Y-10400D01*
X38400Y-10400D02*
X38150Y-10150D01*
X38150Y-10150D02*
X37650Y-10150D01*
X37400Y-11400D02*
X37400Y-11900D01*
X37400Y-11900D02*
X37650Y-12150D01*
X37650Y-12150D02*
X37400Y-12400D01*
X37400Y-12400D02*
X37400Y-12900D01*
X37400Y-12900D02*
X37650Y-13150D01*
X37650Y-13150D02*
X37400Y-13400D01*
X37400Y-13400D02*
X37400Y-13900D01*
X37400Y-13900D02*
X37650Y-14150D01*
X37650Y-14150D02*
X38150Y-14150D01*
X38150Y-14150D02*
X38400Y-13900D01*
X38400Y-13900D02*
X38400Y-13400D01*
X38400Y-13400D02*
X38150Y-13150D01*
X38150Y-13150D02*
X38400Y-12900D01*
X38400Y-12900D02*
X38400Y-12400D01*
X38400Y-12400D02*
X38150Y-12150D01*
X38150Y-12150D02*
X38400Y-11900D01*
X38400Y-11900D02*
X38400Y-11400D01*
X38400Y-11400D02*
X38150Y-11150D01*
X38150Y-11150D02*
X38400Y-10900D01*
X37650Y-10150D02*
X37400Y-10400D01*
X37400Y-10400D02*
X37400Y-10900D01*
X37400Y-10900D02*
X37650Y-11150D01*
X37650Y-11150D02*
X37400Y-11400D01*
X39600Y-20650D02*
X39599Y-20659D01*
X39596Y-20669D01*
X39591Y-20677D01*
X39585Y-20685D01*
X39577Y-20691D01*
X39569Y-20696D01*
X39560Y-20698D01*
X39550Y-20699D01*
X39541Y-20699D01*
X39532Y-20696D01*
X39523Y-20691D01*
X39516Y-20685D01*
X39509Y-20678D01*
X39505Y-20669D01*
X39502Y-20660D01*
X39501Y-20650D01*
X39501Y-20641D01*
X39504Y-20632D01*
X39508Y-20623D01*
X39515Y-20616D01*
X39522Y-20609D01*
X39530Y-20605D01*
X39540Y-20602D01*
X39549Y-20601D01*
X39558Y-20601D01*
X39568Y-20604D01*
X39576Y-20608D01*
X39584Y-20614D01*
X39590Y-20622D01*
X39595Y-20630D01*
X39598Y-20639D01*
X39599Y-20649D01*
X39600Y-20650D01*
X39575Y-20650D02*
X39574Y-20654D01*
X39573Y-20659D01*
X39570Y-20663D01*
X39567Y-20667D01*
X39563Y-20670D01*
X39559Y-20673D01*
X39555Y-20674D01*
X39550Y-20674D01*
X39546Y-20674D01*
X39541Y-20673D01*
X39537Y-20670D01*
X39533Y-20667D01*
X39530Y-20664D01*
X39528Y-20659D01*
X39526Y-20655D01*
X39526Y-20650D01*
X39526Y-20646D01*
X39527Y-20641D01*
X39529Y-20637D01*
X39533Y-20633D01*
X39536Y-20630D01*
X39540Y-20628D01*
X39545Y-20626D01*
X39550Y-20626D01*
X39554Y-20626D01*
X39559Y-20627D01*
X39563Y-20629D01*
X39567Y-20632D01*
X39570Y-20636D01*
X39572Y-20640D01*
X39574Y-20645D01*
X39574Y-20650D01*
X39575Y-20650D01*
X38600Y-21350D02*
X38600Y-20850D01*
X38850Y-21600D02*
X39350Y-21600D01*
X39350Y-21600D02*
X39600Y-21350D01*
X39600Y-21350D02*
X39600Y-20850D01*
X38350Y-20600D02*
X37850Y-20600D01*
X37850Y-20600D02*
X37600Y-20850D01*
X37600Y-20850D02*
X37350Y-20600D01*
X37350Y-20600D02*
X36850Y-20600D01*
X36850Y-20600D02*
X36600Y-20850D01*
X36600Y-20850D02*
X36350Y-20600D01*
X36350Y-20600D02*
X35850Y-20600D01*
X35850Y-20600D02*
X35600Y-20850D01*
X35600Y-20850D02*
X35600Y-21350D01*
X35600Y-21350D02*
X35850Y-21600D01*
X35850Y-21600D02*
X36350Y-21600D01*
X36350Y-21600D02*
X36600Y-21350D01*
X36600Y-21350D02*
X36850Y-21600D01*
X36850Y-21600D02*
X37350Y-21600D01*
X37350Y-21600D02*
X37600Y-21350D01*
X37600Y-21350D02*
X37850Y-21600D01*
X37850Y-21600D02*
X38350Y-21600D01*
X38350Y-21600D02*
X38600Y-21350D01*
X38600Y-21350D02*
X38850Y-21600D01*
X39600Y-20850D02*
X39350Y-20600D01*
X39350Y-20600D02*
X38850Y-20600D01*
X38850Y-20600D02*
X38600Y-20850D01*
X38600Y-20850D02*
X38350Y-20600D01*
X23700Y-21550D02*
X23699Y-21559D01*
X23696Y-21569D01*
X23691Y-21577D01*
X23685Y-21585D01*
X23677Y-21591D01*
X23669Y-21596D01*
X23660Y-21598D01*
X23650Y-21599D01*
X23641Y-21599D01*
X23632Y-21596D01*
X23623Y-21591D01*
X23616Y-21585D01*
X23609Y-21578D01*
X23605Y-21569D01*
X23602Y-21560D01*
X23601Y-21550D01*
X23601Y-21541D01*
X23604Y-21532D01*
X23608Y-21523D01*
X23615Y-21516D01*
X23622Y-21509D01*
X23630Y-21505D01*
X23640Y-21502D01*
X23649Y-21501D01*
X23658Y-21501D01*
X23668Y-21504D01*
X23676Y-21508D01*
X23684Y-21514D01*
X23690Y-21522D01*
X23695Y-21530D01*
X23698Y-21539D01*
X23699Y-21549D01*
X23700Y-21550D01*
X23675Y-21550D02*
X23674Y-21554D01*
X23673Y-21559D01*
X23670Y-21563D01*
X23667Y-21567D01*
X23663Y-21570D01*
X23659Y-21573D01*
X23655Y-21574D01*
X23650Y-21574D01*
X23646Y-21574D01*
X23641Y-21573D01*
X23637Y-21570D01*
X23633Y-21567D01*
X23630Y-21564D01*
X23628Y-21559D01*
X23626Y-21555D01*
X23626Y-21550D01*
X23626Y-21546D01*
X23627Y-21541D01*
X23629Y-21537D01*
X23633Y-21533D01*
X23636Y-21530D01*
X23640Y-21528D01*
X23645Y-21526D01*
X23650Y-21526D01*
X23654Y-21526D01*
X23659Y-21527D01*
X23663Y-21529D01*
X23667Y-21532D01*
X23670Y-21536D01*
X23672Y-21540D01*
X23674Y-21545D01*
X23674Y-21550D01*
X23675Y-21550D01*
X24600Y-20850D02*
X24600Y-21350D01*
X24350Y-20600D02*
X23850Y-20600D01*
X23850Y-20600D02*
X23600Y-20850D01*
X23600Y-20850D02*
X23600Y-21350D01*
X24850Y-21600D02*
X25350Y-21600D01*
X25350Y-21600D02*
X25600Y-21350D01*
X25600Y-21350D02*
X25850Y-21600D01*
X25850Y-21600D02*
X26350Y-21600D01*
X26350Y-21600D02*
X26600Y-21350D01*
X26600Y-21350D02*
X26850Y-21600D01*
X26850Y-21600D02*
X27350Y-21600D01*
X27350Y-21600D02*
X27600Y-21350D01*
X27600Y-21350D02*
X27600Y-20850D01*
X27600Y-20850D02*
X27350Y-20600D01*
X27350Y-20600D02*
X26850Y-20600D01*
X26850Y-20600D02*
X26600Y-20850D01*
X26600Y-20850D02*
X26350Y-20600D01*
X26350Y-20600D02*
X25850Y-20600D01*
X25850Y-20600D02*
X25600Y-20850D01*
X25600Y-20850D02*
X25350Y-20600D01*
X25350Y-20600D02*
X24850Y-20600D01*
X24850Y-20600D02*
X24600Y-20850D01*
X24600Y-20850D02*
X24350Y-20600D01*
X23600Y-21350D02*
X23850Y-21600D01*
X23850Y-21600D02*
X24350Y-21600D01*
X24350Y-21600D02*
X24600Y-21350D01*
X24600Y-21350D02*
X24850Y-21600D01*
X27700Y-21550D02*
X27699Y-21559D01*
X27696Y-21569D01*
X27691Y-21577D01*
X27685Y-21585D01*
X27677Y-21591D01*
X27669Y-21596D01*
X27660Y-21598D01*
X27650Y-21599D01*
X27641Y-21599D01*
X27632Y-21596D01*
X27623Y-21591D01*
X27616Y-21585D01*
X27609Y-21578D01*
X27605Y-21569D01*
X27602Y-21560D01*
X27601Y-21550D01*
X27601Y-21541D01*
X27604Y-21532D01*
X27608Y-21523D01*
X27615Y-21516D01*
X27622Y-21509D01*
X27630Y-21505D01*
X27640Y-21502D01*
X27649Y-21501D01*
X27658Y-21501D01*
X27668Y-21504D01*
X27676Y-21508D01*
X27684Y-21514D01*
X27690Y-21522D01*
X27695Y-21530D01*
X27698Y-21539D01*
X27699Y-21549D01*
X27700Y-21550D01*
X27675Y-21550D02*
X27674Y-21554D01*
X27673Y-21559D01*
X27670Y-21563D01*
X27667Y-21567D01*
X27663Y-21570D01*
X27659Y-21573D01*
X27655Y-21574D01*
X27650Y-21574D01*
X27646Y-21574D01*
X27641Y-21573D01*
X27637Y-21570D01*
X27633Y-21567D01*
X27630Y-21564D01*
X27628Y-21559D01*
X27626Y-21555D01*
X27626Y-21550D01*
X27626Y-21546D01*
X27627Y-21541D01*
X27629Y-21537D01*
X27633Y-21533D01*
X27636Y-21530D01*
X27640Y-21528D01*
X27645Y-21526D01*
X27650Y-21526D01*
X27654Y-21526D01*
X27659Y-21527D01*
X27663Y-21529D01*
X27667Y-21532D01*
X27670Y-21536D01*
X27672Y-21540D01*
X27674Y-21545D01*
X27674Y-21550D01*
X27675Y-21550D01*
X28600Y-20850D02*
X28600Y-21350D01*
X28350Y-20600D02*
X27850Y-20600D01*
X27850Y-20600D02*
X27600Y-20850D01*
X27600Y-20850D02*
X27600Y-21350D01*
X28850Y-21600D02*
X29350Y-21600D01*
X29350Y-21600D02*
X29600Y-21350D01*
X29600Y-21350D02*
X29850Y-21600D01*
X29850Y-21600D02*
X30350Y-21600D01*
X30350Y-21600D02*
X30600Y-21350D01*
X30600Y-21350D02*
X30850Y-21600D01*
X30850Y-21600D02*
X31350Y-21600D01*
X31350Y-21600D02*
X31600Y-21350D01*
X31600Y-21350D02*
X31600Y-20850D01*
X31600Y-20850D02*
X31350Y-20600D01*
X31350Y-20600D02*
X30850Y-20600D01*
X30850Y-20600D02*
X30600Y-20850D01*
X30600Y-20850D02*
X30350Y-20600D01*
X30350Y-20600D02*
X29850Y-20600D01*
X29850Y-20600D02*
X29600Y-20850D01*
X29600Y-20850D02*
X29350Y-20600D01*
X29350Y-20600D02*
X28850Y-20600D01*
X28850Y-20600D02*
X28600Y-20850D01*
X28600Y-20850D02*
X28350Y-20600D01*
X27600Y-21350D02*
X27850Y-21600D01*
X27850Y-21600D02*
X28350Y-21600D01*
X28350Y-21600D02*
X28600Y-21350D01*
X28600Y-21350D02*
X28850Y-21600D01*
X21700Y-15750D02*
X21700Y-16350D01*
X21700Y-16350D02*
X21700Y-16950D01*
X25500Y-16950D02*
X25500Y-16350D01*
X25500Y-16350D02*
X25500Y-16000D01*
X25450Y-16550D02*
X25450Y-16150D01*
X25450Y-16150D02*
X25400Y-16150D01*
X25400Y-16150D02*
X25400Y-16550D01*
X25400Y-16550D02*
X25350Y-16550D01*
X25350Y-16550D02*
X25350Y-16150D01*
X25350Y-16150D02*
X25300Y-16150D01*
X25300Y-16150D02*
X25300Y-16550D01*
X25300Y-16550D02*
X25250Y-16550D01*
X25250Y-16550D02*
X25250Y-16150D01*
X25575Y-15750D02*
X25573Y-15764D01*
X25569Y-15778D01*
X25562Y-15791D01*
X25553Y-15802D01*
X25541Y-15812D01*
X25529Y-15819D01*
X25515Y-15823D01*
X25500Y-15824D01*
X25486Y-15823D01*
X25472Y-15819D01*
X25459Y-15812D01*
X25448Y-15803D01*
X25439Y-15792D01*
X25432Y-15779D01*
X25427Y-15765D01*
X25426Y-15751D01*
X25427Y-15737D01*
X25431Y-15723D01*
X25437Y-15710D01*
X25447Y-15698D01*
X25458Y-15689D01*
X25470Y-15682D01*
X25484Y-15677D01*
X25499Y-15676D01*
X25513Y-15677D01*
X25527Y-15681D01*
X25540Y-15687D01*
X25551Y-15696D01*
X25561Y-15707D01*
X25568Y-15720D01*
X25573Y-15734D01*
X25574Y-15748D01*
X25575Y-15750D01*
X25550Y-15750D02*
X25549Y-15759D01*
X25546Y-15769D01*
X25541Y-15777D01*
X25535Y-15785D01*
X25527Y-15791D01*
X25519Y-15796D01*
X25510Y-15798D01*
X25500Y-15799D01*
X25491Y-15799D01*
X25482Y-15796D01*
X25473Y-15791D01*
X25466Y-15785D01*
X25459Y-15778D01*
X25455Y-15769D01*
X25452Y-15760D01*
X25451Y-15750D01*
X25451Y-15741D01*
X25454Y-15732D01*
X25458Y-15723D01*
X25465Y-15716D01*
X25472Y-15709D01*
X25480Y-15705D01*
X25490Y-15702D01*
X25499Y-15701D01*
X25508Y-15701D01*
X25518Y-15704D01*
X25526Y-15708D01*
X25534Y-15714D01*
X25540Y-15722D01*
X25545Y-15730D01*
X25548Y-15739D01*
X25549Y-15749D01*
X25550Y-15750D01*
X25525Y-15750D02*
X25524Y-15754D01*
X25523Y-15759D01*
X25520Y-15763D01*
X25517Y-15767D01*
X25513Y-15770D01*
X25509Y-15773D01*
X25505Y-15774D01*
X25500Y-15774D01*
X25496Y-15774D01*
X25491Y-15773D01*
X25487Y-15770D01*
X25483Y-15767D01*
X25480Y-15764D01*
X25478Y-15759D01*
X25476Y-15755D01*
X25476Y-15750D01*
X25476Y-15746D01*
X25477Y-15741D01*
X25479Y-15737D01*
X25483Y-15733D01*
X25486Y-15730D01*
X25490Y-15728D01*
X25495Y-15726D01*
X25500Y-15726D01*
X25504Y-15726D01*
X25509Y-15727D01*
X25513Y-15729D01*
X25517Y-15732D01*
X25520Y-15736D01*
X25522Y-15740D01*
X25524Y-15745D01*
X25524Y-15750D01*
X25525Y-15750D01*
X25250Y-15750D02*
X21700Y-15750D01*
X25250Y-15750D02*
X25500Y-16000D01*
X25500Y-16950D02*
X21700Y-16950D01*
X25500Y-16550D02*
X25200Y-16550D01*
X25200Y-16550D02*
X25200Y-16150D01*
X25200Y-16150D02*
X25500Y-16150D01*
X35600Y-20650D02*
X35599Y-20659D01*
X35596Y-20669D01*
X35591Y-20677D01*
X35585Y-20685D01*
X35577Y-20691D01*
X35569Y-20696D01*
X35560Y-20698D01*
X35550Y-20699D01*
X35541Y-20699D01*
X35532Y-20696D01*
X35523Y-20691D01*
X35516Y-20685D01*
X35509Y-20678D01*
X35505Y-20669D01*
X35502Y-20660D01*
X35501Y-20650D01*
X35501Y-20641D01*
X35504Y-20632D01*
X35508Y-20623D01*
X35515Y-20616D01*
X35522Y-20609D01*
X35530Y-20605D01*
X35540Y-20602D01*
X35549Y-20601D01*
X35558Y-20601D01*
X35568Y-20604D01*
X35576Y-20608D01*
X35584Y-20614D01*
X35590Y-20622D01*
X35595Y-20630D01*
X35598Y-20639D01*
X35599Y-20649D01*
X35600Y-20650D01*
X35575Y-20650D02*
X35574Y-20654D01*
X35573Y-20659D01*
X35570Y-20663D01*
X35567Y-20667D01*
X35563Y-20670D01*
X35559Y-20673D01*
X35555Y-20674D01*
X35550Y-20674D01*
X35546Y-20674D01*
X35541Y-20673D01*
X35537Y-20670D01*
X35533Y-20667D01*
X35530Y-20664D01*
X35528Y-20659D01*
X35526Y-20655D01*
X35526Y-20650D01*
X35526Y-20646D01*
X35527Y-20641D01*
X35529Y-20637D01*
X35533Y-20633D01*
X35536Y-20630D01*
X35540Y-20628D01*
X35545Y-20626D01*
X35550Y-20626D01*
X35554Y-20626D01*
X35559Y-20627D01*
X35563Y-20629D01*
X35567Y-20632D01*
X35570Y-20636D01*
X35572Y-20640D01*
X35574Y-20645D01*
X35574Y-20650D01*
X35575Y-20650D01*
X34600Y-21350D02*
X34600Y-20850D01*
X34850Y-21600D02*
X35350Y-21600D01*
X35350Y-21600D02*
X35600Y-21350D01*
X35600Y-21350D02*
X35600Y-20850D01*
X34350Y-20600D02*
X33850Y-20600D01*
X33850Y-20600D02*
X33600Y-20850D01*
X33600Y-20850D02*
X33350Y-20600D01*
X33350Y-20600D02*
X32850Y-20600D01*
X32850Y-20600D02*
X32600Y-20850D01*
X32600Y-20850D02*
X32350Y-20600D01*
X32350Y-20600D02*
X31850Y-20600D01*
X31850Y-20600D02*
X31600Y-20850D01*
X31600Y-20850D02*
X31600Y-21350D01*
X31600Y-21350D02*
X31850Y-21600D01*
X31850Y-21600D02*
X32350Y-21600D01*
X32350Y-21600D02*
X32600Y-21350D01*
X32600Y-21350D02*
X32850Y-21600D01*
X32850Y-21600D02*
X33350Y-21600D01*
X33350Y-21600D02*
X33600Y-21350D01*
X33600Y-21350D02*
X33850Y-21600D01*
X33850Y-21600D02*
X34350Y-21600D01*
X34350Y-21600D02*
X34600Y-21350D01*
X34600Y-21350D02*
X34850Y-21600D01*
X35600Y-20850D02*
X35350Y-20600D01*
X35350Y-20600D02*
X34850Y-20600D01*
X34850Y-20600D02*
X34600Y-20850D01*
X34600Y-20850D02*
X34350Y-20600D01*
X24475Y-20325D02*
X25650Y-20325D01*
X25650Y-20325D02*
X25650Y-19950D01*
X24475Y-20325D02*
X23300Y-20325D01*
X23300Y-20325D02*
X23300Y-19950D01*
X24475Y-18825D02*
X25650Y-18825D01*
X25650Y-18825D02*
X25650Y-19200D01*
X24475Y-18825D02*
X23300Y-18825D01*
X23300Y-18825D02*
X23300Y-19200D01*
G54D13*
X24931Y-19575D02*
X24922Y-19663D01*
X24896Y-19748D01*
X24854Y-19827D01*
X24798Y-19896D01*
X24729Y-19953D01*
X24651Y-19995D01*
X24566Y-20021D01*
X24478Y-20030D01*
X24390Y-20022D01*
X24305Y-19997D01*
X24226Y-19956D01*
X24156Y-19900D01*
X24099Y-19832D01*
X24056Y-19754D01*
X24029Y-19669D01*
X24020Y-19581D01*
X24027Y-19493D01*
X24052Y-19408D01*
X24092Y-19328D01*
X24147Y-19259D01*
X24215Y-19201D01*
X24293Y-19158D01*
X24378Y-19130D01*
X24466Y-19120D01*
X24554Y-19126D01*
X24639Y-19150D01*
X24719Y-19190D01*
X24789Y-19245D01*
X24847Y-19313D01*
X24891Y-19390D01*
X24919Y-19474D01*
X24930Y-19563D01*
X24931Y-19575D01*
G54D10*
X36225Y-16100D02*
X35725Y-16100D01*
X35975Y-15100D02*
X35725Y-15100D01*
X35725Y-15100D02*
X35475Y-15350D01*
X35475Y-15350D02*
X35475Y-15850D01*
X35475Y-15850D02*
X35725Y-16100D01*
X35725Y-16100D02*
X35475Y-16350D01*
X35475Y-16350D02*
X35475Y-16850D01*
X35475Y-16850D02*
X35725Y-17100D01*
X35725Y-17100D02*
X36225Y-17100D01*
X36225Y-17100D02*
X36475Y-16850D01*
X36475Y-16850D02*
X36475Y-16350D01*
X36475Y-16350D02*
X36225Y-16100D01*
X36225Y-16100D02*
X36475Y-15850D01*
X36475Y-15850D02*
X36475Y-15350D01*
X36475Y-15350D02*
X36225Y-15100D01*
X36225Y-15100D02*
X35975Y-15100D01*
X35575Y-15150D02*
X35574Y-15159D01*
X35571Y-15169D01*
X35566Y-15177D01*
X35560Y-15185D01*
X35552Y-15191D01*
X35544Y-15196D01*
X35535Y-15198D01*
X35525Y-15199D01*
X35516Y-15199D01*
X35507Y-15196D01*
X35498Y-15191D01*
X35491Y-15185D01*
X35484Y-15178D01*
X35480Y-15169D01*
X35477Y-15160D01*
X35476Y-15150D01*
X35476Y-15141D01*
X35479Y-15132D01*
X35483Y-15123D01*
X35490Y-15116D01*
X35497Y-15109D01*
X35505Y-15105D01*
X35515Y-15102D01*
X35524Y-15101D01*
X35533Y-15101D01*
X35543Y-15104D01*
X35551Y-15108D01*
X35559Y-15114D01*
X35565Y-15122D01*
X35570Y-15130D01*
X35573Y-15139D01*
X35574Y-15149D01*
X35575Y-15150D01*
X35550Y-15150D02*
X35549Y-15154D01*
X35548Y-15159D01*
X35545Y-15163D01*
X35542Y-15167D01*
X35538Y-15170D01*
X35534Y-15173D01*
X35530Y-15174D01*
X35525Y-15174D01*
X35521Y-15174D01*
X35516Y-15173D01*
X35512Y-15170D01*
X35508Y-15167D01*
X35505Y-15164D01*
X35503Y-15159D01*
X35501Y-15155D01*
X35501Y-15150D01*
X35501Y-15146D01*
X35502Y-15141D01*
X35504Y-15137D01*
X35508Y-15133D01*
X35511Y-15130D01*
X35515Y-15128D01*
X35520Y-15126D01*
X35525Y-15126D01*
X35529Y-15126D01*
X35534Y-15127D01*
X35538Y-15129D01*
X35542Y-15132D01*
X35545Y-15136D01*
X35547Y-15140D01*
X35549Y-15145D01*
X35549Y-15150D01*
X35550Y-15150D01*
X36825Y-13625D02*
X36825Y-14050D01*
X36825Y-14050D02*
X37375Y-14050D01*
X37375Y-14050D02*
X37375Y-14600D01*
X37375Y-14600D02*
X36825Y-14600D01*
X36825Y-14600D02*
X36825Y-15025D01*
X35675Y-14975D02*
X36275Y-14975D01*
X36275Y-14975D02*
X36275Y-15025D01*
X36275Y-15025D02*
X36825Y-15025D01*
X35675Y-13675D02*
X36275Y-13675D01*
X36275Y-13675D02*
X36325Y-13625D01*
X35675Y-14975D02*
X35675Y-13675D01*
X36200Y-13575D02*
X36199Y-13584D01*
X36196Y-13594D01*
X36191Y-13602D01*
X36185Y-13610D01*
X36177Y-13616D01*
X36169Y-13621D01*
X36160Y-13623D01*
X36150Y-13624D01*
X36141Y-13624D01*
X36132Y-13621D01*
X36123Y-13616D01*
X36116Y-13610D01*
X36109Y-13603D01*
X36105Y-13594D01*
X36102Y-13585D01*
X36101Y-13575D01*
X36101Y-13566D01*
X36104Y-13557D01*
X36108Y-13548D01*
X36115Y-13541D01*
X36122Y-13534D01*
X36130Y-13530D01*
X36140Y-13527D01*
X36149Y-13526D01*
X36158Y-13526D01*
X36168Y-13529D01*
X36176Y-13533D01*
X36184Y-13539D01*
X36190Y-13547D01*
X36195Y-13555D01*
X36198Y-13564D01*
X36199Y-13574D01*
X36200Y-13575D01*
X36175Y-13575D02*
X36174Y-13579D01*
X36173Y-13584D01*
X36170Y-13588D01*
X36167Y-13592D01*
X36163Y-13595D01*
X36159Y-13598D01*
X36155Y-13599D01*
X36150Y-13599D01*
X36146Y-13599D01*
X36141Y-13598D01*
X36137Y-13595D01*
X36133Y-13592D01*
X36130Y-13589D01*
X36128Y-13584D01*
X36126Y-13580D01*
X36126Y-13575D01*
X36126Y-13571D01*
X36127Y-13566D01*
X36129Y-13562D01*
X36133Y-13558D01*
X36136Y-13555D01*
X36140Y-13553D01*
X36145Y-13551D01*
X36150Y-13551D01*
X36154Y-13551D01*
X36159Y-13552D01*
X36163Y-13554D01*
X36167Y-13557D01*
X36170Y-13561D01*
X36172Y-13565D01*
X36174Y-13570D01*
X36174Y-13575D01*
X36175Y-13575D01*
X36325Y-13625D02*
X36825Y-13625D01*
X36850Y-11220D02*
X36850Y-13200D01*
X36850Y-13200D02*
X35850Y-13200D01*
X35850Y-13200D02*
X35850Y-11200D01*
X35850Y-11200D02*
X36850Y-11200D01*
X36600Y-11200D02*
X36850Y-11450D01*
X34800Y-14900D02*
X34700Y-14800D01*
X34700Y-14425D02*
X34700Y-14925D01*
X34700Y-14925D02*
X35500Y-14925D01*
X35500Y-14925D02*
X35500Y-14425D01*
X35500Y-13975D02*
X35500Y-13475D01*
X35500Y-13475D02*
X34700Y-13475D01*
X34700Y-13475D02*
X34700Y-13975D01*
X34201Y-18599D02*
X34289Y-18617D01*
X34379Y-18627D01*
X34467Y-18629D01*
X34557Y-18624D01*
X34646Y-18611D01*
X34733Y-18590D01*
X34819Y-18561D01*
X34901Y-18525D01*
X34980Y-18482D01*
X35055Y-18433D01*
X35125Y-18377D01*
X35190Y-18315D01*
X35250Y-18248D01*
X35303Y-18175D01*
X35350Y-18099D01*
X35390Y-18018D01*
X35423Y-17935D01*
X35449Y-17849D01*
X34699Y-16601D02*
X34611Y-16583D01*
X34521Y-16573D01*
X34433Y-16571D01*
X34343Y-16576D01*
X34254Y-16589D01*
X34167Y-16610D01*
X34081Y-16639D01*
X33999Y-16675D01*
X33920Y-16718D01*
X33845Y-16767D01*
X33775Y-16823D01*
X33710Y-16885D01*
X33650Y-16952D01*
X33597Y-17025D01*
X33550Y-17101D01*
X33510Y-17182D01*
X33477Y-17265D01*
X33451Y-17351D01*
X35449Y-17351D02*
X35423Y-17265D01*
X35390Y-17182D01*
X35350Y-17101D01*
X35303Y-17025D01*
X35250Y-16952D01*
X35190Y-16885D01*
X35125Y-16823D01*
X35055Y-16767D01*
X34980Y-16718D01*
X34901Y-16675D01*
X34819Y-16639D01*
X34733Y-16610D01*
X34646Y-16589D01*
X34557Y-16576D01*
X34467Y-16571D01*
X34379Y-16573D01*
X34289Y-16583D01*
X34201Y-16601D01*
X33451Y-17849D02*
X33477Y-17935D01*
X33510Y-18018D01*
X33550Y-18099D01*
X33597Y-18175D01*
X33650Y-18248D01*
X33710Y-18315D01*
X33775Y-18377D01*
X33845Y-18433D01*
X33920Y-18482D01*
X33999Y-18525D01*
X34081Y-18561D01*
X34167Y-18590D01*
X34254Y-18611D01*
X34343Y-18624D01*
X34433Y-18629D01*
X34521Y-18627D01*
X34611Y-18617D01*
X34699Y-18599D01*
X35500Y-17350D02*
X35500Y-16800D01*
X35500Y-16800D02*
X35250Y-16550D01*
X35250Y-16550D02*
X34450Y-16550D01*
X35500Y-17850D02*
X35500Y-18400D01*
X35500Y-18400D02*
X35250Y-18650D01*
X35250Y-18650D02*
X34450Y-18650D01*
X33400Y-16550D02*
X34450Y-16550D01*
X33400Y-18650D02*
X34450Y-18650D01*
X33400Y-17350D02*
X33400Y-16550D01*
X33400Y-17850D02*
X33400Y-18650D01*
G54D11*
X15107Y-16379D02*
X15121Y-16336D01*
X15121Y-16265D01*
X15107Y-16236D01*
X15093Y-16222D01*
X15064Y-16207D01*
X15036Y-16207D01*
X15007Y-16222D01*
X14993Y-16236D01*
X14979Y-16265D01*
X14964Y-16322D01*
X14950Y-16350D01*
X14936Y-16365D01*
X14907Y-16379D01*
X14879Y-16379D01*
X14850Y-16365D01*
X14836Y-16350D01*
X14821Y-16322D01*
X14821Y-16250D01*
X14836Y-16207D01*
X15121Y-16079D02*
X14821Y-16079D01*
X14821Y-16007D01*
X14836Y-15964D01*
X14864Y-15936D01*
X14893Y-15921D01*
X14950Y-15907D01*
X14993Y-15907D01*
X15050Y-15921D01*
X15079Y-15936D01*
X15107Y-15964D01*
X15121Y-16007D01*
X15121Y-16079D01*
X15121Y-15621D02*
X15121Y-15793D01*
X15121Y-15707D02*
X14821Y-15707D01*
X14864Y-15736D01*
X14893Y-15764D01*
X14907Y-15793D01*
X14382Y-16929D02*
X14396Y-16886D01*
X14396Y-16815D01*
X14382Y-16786D01*
X14368Y-16772D01*
X14339Y-16757D01*
X14311Y-16757D01*
X14282Y-16772D01*
X14268Y-16786D01*
X14254Y-16815D01*
X14239Y-16872D01*
X14225Y-16900D01*
X14211Y-16915D01*
X14182Y-16929D01*
X14154Y-16929D01*
X14125Y-16915D01*
X14111Y-16900D01*
X14096Y-16872D01*
X14096Y-16800D01*
X14111Y-16757D01*
X14396Y-16629D02*
X14096Y-16629D01*
X14096Y-16557D01*
X14111Y-16514D01*
X14139Y-16486D01*
X14168Y-16471D01*
X14225Y-16457D01*
X14268Y-16457D01*
X14325Y-16471D01*
X14354Y-16486D01*
X14382Y-16514D01*
X14396Y-16557D01*
X14396Y-16629D01*
X14425Y-16400D02*
X14425Y-16171D01*
X14368Y-15928D02*
X14382Y-15942D01*
X14396Y-15985D01*
X14396Y-16014D01*
X14382Y-16057D01*
X14354Y-16085D01*
X14325Y-16100D01*
X14268Y-16114D01*
X14225Y-16114D01*
X14168Y-16100D01*
X14139Y-16085D01*
X14111Y-16057D01*
X14096Y-16014D01*
X14096Y-15985D01*
X14111Y-15942D01*
X14125Y-15928D01*
X14311Y-15814D02*
X14311Y-15671D01*
X14396Y-15842D02*
X14096Y-15742D01*
X14396Y-15642D01*
X14396Y-15371D02*
X14254Y-15471D01*
X14396Y-15543D02*
X14096Y-15543D01*
X14096Y-15428D01*
X14111Y-15400D01*
X14125Y-15385D01*
X14154Y-15371D01*
X14196Y-15371D01*
X14225Y-15385D01*
X14239Y-15400D01*
X14254Y-15428D01*
X14254Y-15543D01*
X14396Y-15243D02*
X14096Y-15243D01*
X14096Y-15171D01*
X14111Y-15128D01*
X14139Y-15100D01*
X14168Y-15085D01*
X14225Y-15071D01*
X14268Y-15071D01*
X14325Y-15085D01*
X14354Y-15100D01*
X14382Y-15128D01*
X14396Y-15171D01*
X14396Y-15243D01*
X33168Y-14750D02*
X33182Y-14764D01*
X33196Y-14807D01*
X33196Y-14836D01*
X33182Y-14879D01*
X33154Y-14907D01*
X33125Y-14922D01*
X33068Y-14936D01*
X33025Y-14936D01*
X32968Y-14922D01*
X32939Y-14907D01*
X32911Y-14879D01*
X32896Y-14836D01*
X32896Y-14807D01*
X32911Y-14764D01*
X32925Y-14750D01*
X32925Y-14636D02*
X32911Y-14622D01*
X32896Y-14593D01*
X32896Y-14522D01*
X32911Y-14493D01*
X32925Y-14479D01*
X32954Y-14464D01*
X32982Y-14464D01*
X33025Y-14479D01*
X33196Y-14650D01*
X33196Y-14464D01*
X25096Y-14875D02*
X24954Y-14975D01*
X25096Y-15047D02*
X24796Y-15047D01*
X24796Y-14932D01*
X24811Y-14904D01*
X24825Y-14889D01*
X24854Y-14875D01*
X24896Y-14875D01*
X24925Y-14889D01*
X24939Y-14904D01*
X24954Y-14932D01*
X24954Y-15047D01*
X24796Y-14618D02*
X24796Y-14675D01*
X24811Y-14704D01*
X24825Y-14718D01*
X24868Y-14747D01*
X24925Y-14761D01*
X25039Y-14761D01*
X25068Y-14747D01*
X25082Y-14732D01*
X25096Y-14704D01*
X25096Y-14647D01*
X25082Y-14618D01*
X25068Y-14604D01*
X25039Y-14589D01*
X24968Y-14589D01*
X24939Y-14604D01*
X24925Y-14618D01*
X24911Y-14647D01*
X24911Y-14704D01*
X24925Y-14732D01*
X24939Y-14747D01*
X24968Y-14761D01*
X23371Y-14900D02*
X23229Y-15000D01*
X23371Y-15072D02*
X23071Y-15072D01*
X23071Y-14957D01*
X23086Y-14929D01*
X23100Y-14914D01*
X23129Y-14900D01*
X23171Y-14900D01*
X23200Y-14914D01*
X23214Y-14929D01*
X23229Y-14957D01*
X23229Y-15072D01*
X23171Y-14643D02*
X23371Y-14643D01*
X23057Y-14714D02*
X23271Y-14786D01*
X23271Y-14600D01*
X25646Y-18200D02*
X25504Y-18300D01*
X25646Y-18372D02*
X25346Y-18372D01*
X25346Y-18257D01*
X25361Y-18229D01*
X25375Y-18214D01*
X25404Y-18200D01*
X25446Y-18200D01*
X25475Y-18214D01*
X25489Y-18229D01*
X25504Y-18257D01*
X25504Y-18372D01*
X25346Y-18100D02*
X25346Y-17914D01*
X25461Y-18014D01*
X25461Y-17972D01*
X25475Y-17943D01*
X25489Y-17929D01*
X25518Y-17914D01*
X25589Y-17914D01*
X25618Y-17929D01*
X25632Y-17943D01*
X25646Y-17972D01*
X25646Y-18057D01*
X25632Y-18086D01*
X25618Y-18100D01*
X26118Y-18825D02*
X26132Y-18839D01*
X26146Y-18882D01*
X26146Y-18911D01*
X26132Y-18954D01*
X26104Y-18982D01*
X26075Y-18997D01*
X26018Y-19011D01*
X25975Y-19011D01*
X25918Y-18997D01*
X25889Y-18982D01*
X25861Y-18954D01*
X25846Y-18911D01*
X25846Y-18882D01*
X25861Y-18839D01*
X25875Y-18825D01*
X26146Y-18539D02*
X26146Y-18711D01*
X26146Y-18625D02*
X25846Y-18625D01*
X25889Y-18654D01*
X25918Y-18682D01*
X25932Y-18711D01*
X39571Y-18875D02*
X39429Y-18975D01*
X39571Y-19047D02*
X39271Y-19047D01*
X39271Y-18932D01*
X39286Y-18904D01*
X39300Y-18889D01*
X39329Y-18875D01*
X39371Y-18875D01*
X39400Y-18889D01*
X39414Y-18904D01*
X39429Y-18932D01*
X39429Y-19047D01*
X39271Y-18775D02*
X39271Y-18575D01*
X39571Y-18704D01*
X38321Y-18850D02*
X38179Y-18950D01*
X38321Y-19022D02*
X38021Y-19022D01*
X38021Y-18907D01*
X38036Y-18879D01*
X38050Y-18864D01*
X38079Y-18850D01*
X38121Y-18850D01*
X38150Y-18864D01*
X38164Y-18879D01*
X38179Y-18907D01*
X38179Y-19022D01*
X38321Y-18564D02*
X38321Y-18736D01*
X38321Y-18650D02*
X38021Y-18650D01*
X38064Y-18679D01*
X38093Y-18707D01*
X38107Y-18736D01*
X35771Y-19700D02*
X35629Y-19800D01*
X35771Y-19872D02*
X35471Y-19872D01*
X35471Y-19757D01*
X35486Y-19729D01*
X35500Y-19714D01*
X35529Y-19700D01*
X35571Y-19700D01*
X35600Y-19714D01*
X35614Y-19729D01*
X35629Y-19757D01*
X35629Y-19872D01*
X35500Y-19586D02*
X35486Y-19572D01*
X35471Y-19543D01*
X35471Y-19472D01*
X35486Y-19443D01*
X35500Y-19429D01*
X35529Y-19414D01*
X35557Y-19414D01*
X35600Y-19429D01*
X35771Y-19600D01*
X35771Y-19414D01*
X32168Y-15100D02*
X32182Y-15114D01*
X32196Y-15157D01*
X32196Y-15186D01*
X32182Y-15229D01*
X32154Y-15257D01*
X32125Y-15272D01*
X32068Y-15286D01*
X32025Y-15286D01*
X31968Y-15272D01*
X31939Y-15257D01*
X31911Y-15229D01*
X31896Y-15186D01*
X31896Y-15157D01*
X31911Y-15114D01*
X31925Y-15100D01*
X31896Y-15000D02*
X31896Y-14800D01*
X32196Y-14929D01*
X27371Y-13650D02*
X27229Y-13750D01*
X27371Y-13822D02*
X27071Y-13822D01*
X27071Y-13707D01*
X27086Y-13679D01*
X27100Y-13664D01*
X27129Y-13650D01*
X27171Y-13650D01*
X27200Y-13664D01*
X27214Y-13679D01*
X27229Y-13707D01*
X27229Y-13822D01*
X27071Y-13379D02*
X27071Y-13522D01*
X27214Y-13536D01*
X27200Y-13522D01*
X27186Y-13493D01*
X27186Y-13422D01*
X27200Y-13393D01*
X27214Y-13379D01*
X27243Y-13364D01*
X27314Y-13364D01*
X27343Y-13379D01*
X27357Y-13393D01*
X27371Y-13422D01*
X27371Y-13493D01*
X27357Y-13522D01*
X27343Y-13536D01*
X29946Y-13650D02*
X29804Y-13750D01*
X29946Y-13822D02*
X29646Y-13822D01*
X29646Y-13707D01*
X29661Y-13679D01*
X29675Y-13664D01*
X29704Y-13650D01*
X29746Y-13650D01*
X29775Y-13664D01*
X29789Y-13679D01*
X29804Y-13707D01*
X29804Y-13822D01*
X29775Y-13479D02*
X29761Y-13507D01*
X29746Y-13522D01*
X29718Y-13536D01*
X29704Y-13536D01*
X29675Y-13522D01*
X29661Y-13507D01*
X29646Y-13479D01*
X29646Y-13422D01*
X29661Y-13393D01*
X29675Y-13379D01*
X29704Y-13364D01*
X29718Y-13364D01*
X29746Y-13379D01*
X29761Y-13393D01*
X29775Y-13422D01*
X29775Y-13479D01*
X29789Y-13507D01*
X29804Y-13522D01*
X29832Y-13536D01*
X29889Y-13536D01*
X29918Y-13522D01*
X29932Y-13507D01*
X29946Y-13479D01*
X29946Y-13422D01*
X29932Y-13393D01*
X29918Y-13379D01*
X29889Y-13364D01*
X29832Y-13364D01*
X29804Y-13379D01*
X29789Y-13393D01*
X29775Y-13422D01*
X28071Y-10522D02*
X27771Y-10522D01*
X27771Y-10450D01*
X27786Y-10407D01*
X27814Y-10379D01*
X27843Y-10364D01*
X27900Y-10350D01*
X27943Y-10350D01*
X28000Y-10364D01*
X28029Y-10379D01*
X28057Y-10407D01*
X28071Y-10450D01*
X28071Y-10522D01*
X28071Y-10064D02*
X28071Y-10236D01*
X28071Y-10150D02*
X27771Y-10150D01*
X27814Y-10179D01*
X27843Y-10207D01*
X27857Y-10236D01*
X29171Y-10547D02*
X28871Y-10547D01*
X28871Y-10475D01*
X28886Y-10432D01*
X28914Y-10404D01*
X28943Y-10389D01*
X29000Y-10375D01*
X29043Y-10375D01*
X29100Y-10389D01*
X29129Y-10404D01*
X29157Y-10432D01*
X29171Y-10475D01*
X29171Y-10547D01*
X28900Y-10261D02*
X28886Y-10247D01*
X28871Y-10218D01*
X28871Y-10147D01*
X28886Y-10118D01*
X28900Y-10104D01*
X28929Y-10089D01*
X28957Y-10089D01*
X29000Y-10104D01*
X29171Y-10275D01*
X29171Y-10089D01*
X35371Y-11972D02*
X35071Y-11972D01*
X35071Y-11857D01*
X35086Y-11829D01*
X35100Y-11814D01*
X35129Y-11800D01*
X35171Y-11800D01*
X35200Y-11814D01*
X35214Y-11829D01*
X35229Y-11857D01*
X35229Y-11972D01*
X35200Y-11629D02*
X35186Y-11657D01*
X35171Y-11672D01*
X35143Y-11686D01*
X35129Y-11686D01*
X35100Y-11672D01*
X35086Y-11657D01*
X35071Y-11629D01*
X35071Y-11572D01*
X35086Y-11543D01*
X35100Y-11529D01*
X35129Y-11514D01*
X35143Y-11514D01*
X35171Y-11529D01*
X35186Y-11543D01*
X35200Y-11572D01*
X35200Y-11629D01*
X35214Y-11657D01*
X35229Y-11672D01*
X35257Y-11686D01*
X35314Y-11686D01*
X35343Y-11672D01*
X35357Y-11657D01*
X35371Y-11629D01*
X35371Y-11572D01*
X35357Y-11543D01*
X35343Y-11529D01*
X35314Y-11514D01*
X35257Y-11514D01*
X35229Y-11529D01*
X35214Y-11543D01*
X35200Y-11572D01*
X36089Y-10893D02*
X36089Y-10993D01*
X36246Y-10993D02*
X35946Y-10993D01*
X35946Y-10850D01*
X35946Y-10778D02*
X35946Y-10607D01*
X36246Y-10693D02*
X35946Y-10693D01*
X36246Y-10507D02*
X35946Y-10507D01*
X35946Y-10435D01*
X35961Y-10392D01*
X35989Y-10364D01*
X36018Y-10349D01*
X36075Y-10335D01*
X36118Y-10335D01*
X36175Y-10349D01*
X36204Y-10364D01*
X36232Y-10392D01*
X36246Y-10435D01*
X36246Y-10507D01*
X36246Y-10207D02*
X35946Y-10207D01*
X39271Y-17772D02*
X38971Y-17772D01*
X38971Y-17657D01*
X38986Y-17629D01*
X39000Y-17614D01*
X39029Y-17600D01*
X39071Y-17600D01*
X39100Y-17614D01*
X39114Y-17629D01*
X39129Y-17657D01*
X39129Y-17772D01*
X39271Y-17457D02*
X39271Y-17400D01*
X39257Y-17372D01*
X39243Y-17357D01*
X39200Y-17329D01*
X39143Y-17314D01*
X39029Y-17314D01*
X39000Y-17329D01*
X38986Y-17343D01*
X38971Y-17372D01*
X38971Y-17429D01*
X38986Y-17457D01*
X39000Y-17472D01*
X39029Y-17486D01*
X39100Y-17486D01*
X39129Y-17472D01*
X39143Y-17457D01*
X39157Y-17429D01*
X39157Y-17372D01*
X39143Y-17343D01*
X39129Y-17329D01*
X39100Y-17314D01*
X39246Y-16293D02*
X38946Y-16293D01*
X39232Y-16164D02*
X39246Y-16121D01*
X39246Y-16050D01*
X39232Y-16021D01*
X39218Y-16007D01*
X39189Y-15992D01*
X39161Y-15992D01*
X39132Y-16007D01*
X39118Y-16021D01*
X39104Y-16050D01*
X39089Y-16107D01*
X39075Y-16135D01*
X39061Y-16150D01*
X39032Y-16164D01*
X39004Y-16164D01*
X38975Y-16150D01*
X38961Y-16135D01*
X38946Y-16107D01*
X38946Y-16035D01*
X38961Y-15992D01*
X39246Y-15864D02*
X38946Y-15864D01*
X38946Y-15749D01*
X38961Y-15721D01*
X38975Y-15706D01*
X39004Y-15692D01*
X39046Y-15692D01*
X39075Y-15706D01*
X39089Y-15721D01*
X39104Y-15749D01*
X39104Y-15864D01*
X25471Y-12243D02*
X25771Y-12043D01*
X25471Y-12043D02*
X25771Y-12243D01*
X25771Y-11771D02*
X25771Y-11943D01*
X25771Y-11857D02*
X25471Y-11857D01*
X25514Y-11886D01*
X25543Y-11914D01*
X25557Y-11943D01*
X30546Y-14968D02*
X30246Y-14968D01*
X30518Y-14653D02*
X30532Y-14667D01*
X30546Y-14710D01*
X30546Y-14739D01*
X30532Y-14782D01*
X30504Y-14810D01*
X30475Y-14825D01*
X30418Y-14839D01*
X30375Y-14839D01*
X30318Y-14825D01*
X30289Y-14810D01*
X30261Y-14782D01*
X30246Y-14739D01*
X30246Y-14710D01*
X30261Y-14667D01*
X30275Y-14653D01*
X30546Y-14367D02*
X30546Y-14539D01*
X30546Y-14453D02*
X30246Y-14453D01*
X30289Y-14482D01*
X30318Y-14510D01*
X30332Y-14539D01*
X38846Y-10822D02*
X38546Y-10822D01*
X38546Y-10707D01*
X38561Y-10679D01*
X38575Y-10664D01*
X38604Y-10650D01*
X38646Y-10650D01*
X38675Y-10664D01*
X38689Y-10679D01*
X38704Y-10707D01*
X38704Y-10822D01*
X38575Y-10536D02*
X38561Y-10522D01*
X38546Y-10493D01*
X38546Y-10422D01*
X38561Y-10393D01*
X38575Y-10379D01*
X38604Y-10364D01*
X38632Y-10364D01*
X38675Y-10379D01*
X38846Y-10550D01*
X38846Y-10364D01*
X39821Y-20497D02*
X39521Y-20497D01*
X39521Y-20382D01*
X39536Y-20354D01*
X39550Y-20339D01*
X39579Y-20325D01*
X39621Y-20325D01*
X39650Y-20339D01*
X39664Y-20354D01*
X39679Y-20382D01*
X39679Y-20497D01*
X39521Y-20225D02*
X39521Y-20039D01*
X39636Y-20139D01*
X39636Y-20097D01*
X39650Y-20068D01*
X39664Y-20054D01*
X39693Y-20039D01*
X39764Y-20039D01*
X39793Y-20054D01*
X39807Y-20068D01*
X39821Y-20097D01*
X39821Y-20182D01*
X39807Y-20211D01*
X39793Y-20225D01*
X23396Y-21322D02*
X23096Y-21322D01*
X23096Y-21207D01*
X23111Y-21179D01*
X23125Y-21164D01*
X23154Y-21150D01*
X23196Y-21150D01*
X23225Y-21164D01*
X23239Y-21179D01*
X23254Y-21207D01*
X23254Y-21322D01*
X23196Y-20893D02*
X23396Y-20893D01*
X23082Y-20964D02*
X23296Y-21036D01*
X23296Y-20850D01*
X31296Y-20372D02*
X30996Y-20372D01*
X30996Y-20257D01*
X31011Y-20229D01*
X31025Y-20214D01*
X31054Y-20200D01*
X31096Y-20200D01*
X31125Y-20214D01*
X31139Y-20229D01*
X31154Y-20257D01*
X31154Y-20372D01*
X30996Y-19929D02*
X30996Y-20072D01*
X31139Y-20086D01*
X31125Y-20072D01*
X31111Y-20043D01*
X31111Y-19972D01*
X31125Y-19943D01*
X31139Y-19929D01*
X31168Y-19914D01*
X31239Y-19914D01*
X31268Y-19929D01*
X31282Y-19943D01*
X31296Y-19972D01*
X31296Y-20043D01*
X31282Y-20072D01*
X31268Y-20086D01*
X25471Y-15454D02*
X25714Y-15454D01*
X25743Y-15439D01*
X25757Y-15425D01*
X25771Y-15396D01*
X25771Y-15339D01*
X25757Y-15311D01*
X25743Y-15296D01*
X25714Y-15282D01*
X25471Y-15282D01*
X25500Y-15154D02*
X25486Y-15140D01*
X25471Y-15111D01*
X25471Y-15040D01*
X25486Y-15011D01*
X25500Y-14997D01*
X25529Y-14982D01*
X25557Y-14982D01*
X25600Y-14997D01*
X25771Y-15168D01*
X25771Y-14982D01*
X32196Y-20372D02*
X31896Y-20372D01*
X31896Y-20257D01*
X31911Y-20229D01*
X31925Y-20214D01*
X31954Y-20200D01*
X31996Y-20200D01*
X32025Y-20214D01*
X32039Y-20229D01*
X32054Y-20257D01*
X32054Y-20372D01*
X32196Y-19914D02*
X32196Y-20086D01*
X32196Y-20000D02*
X31896Y-20000D01*
X31939Y-20029D01*
X31968Y-20057D01*
X31982Y-20086D01*
X22657Y-19975D02*
X22671Y-19932D01*
X22671Y-19861D01*
X22657Y-19832D01*
X22643Y-19818D01*
X22614Y-19803D01*
X22586Y-19803D01*
X22557Y-19818D01*
X22543Y-19832D01*
X22529Y-19861D01*
X22514Y-19918D01*
X22500Y-19946D01*
X22486Y-19961D01*
X22457Y-19975D01*
X22429Y-19975D01*
X22400Y-19961D01*
X22386Y-19946D01*
X22371Y-19918D01*
X22371Y-19846D01*
X22386Y-19803D01*
X22371Y-19703D02*
X22671Y-19632D01*
X22457Y-19575D01*
X22671Y-19517D01*
X22371Y-19446D01*
X22671Y-19174D02*
X22671Y-19346D01*
X22671Y-19260D02*
X22371Y-19260D01*
X22414Y-19289D01*
X22443Y-19317D01*
X22457Y-19346D01*
X36096Y-17672D02*
X35796Y-17672D01*
X35796Y-17557D01*
X35811Y-17529D01*
X35825Y-17514D01*
X35854Y-17500D01*
X35896Y-17500D01*
X35925Y-17514D01*
X35939Y-17529D01*
X35954Y-17557D01*
X35954Y-17672D01*
X35796Y-17243D02*
X35796Y-17300D01*
X35811Y-17329D01*
X35825Y-17343D01*
X35868Y-17372D01*
X35925Y-17386D01*
X36039Y-17386D01*
X36068Y-17372D01*
X36082Y-17357D01*
X36096Y-17329D01*
X36096Y-17272D01*
X36082Y-17243D01*
X36068Y-17229D01*
X36039Y-17214D01*
X35968Y-17214D01*
X35939Y-17229D01*
X35925Y-17243D01*
X35911Y-17272D01*
X35911Y-17329D01*
X35925Y-17357D01*
X35939Y-17372D01*
X35968Y-17386D01*
X36946Y-15129D02*
X37189Y-15129D01*
X37218Y-15114D01*
X37232Y-15100D01*
X37246Y-15071D01*
X37246Y-15014D01*
X37232Y-14986D01*
X37218Y-14971D01*
X37189Y-14957D01*
X36946Y-14957D01*
X37246Y-14657D02*
X37246Y-14829D01*
X37246Y-14743D02*
X36946Y-14743D01*
X36989Y-14772D01*
X37018Y-14800D01*
X37032Y-14829D01*
X36768Y-10850D02*
X36782Y-10864D01*
X36796Y-10907D01*
X36796Y-10936D01*
X36782Y-10979D01*
X36754Y-11007D01*
X36725Y-11022D01*
X36668Y-11036D01*
X36625Y-11036D01*
X36568Y-11022D01*
X36539Y-11007D01*
X36511Y-10979D01*
X36496Y-10936D01*
X36496Y-10907D01*
X36511Y-10864D01*
X36525Y-10850D01*
X36496Y-10750D02*
X36496Y-10564D01*
X36611Y-10664D01*
X36611Y-10622D01*
X36625Y-10593D01*
X36639Y-10579D01*
X36668Y-10564D01*
X36739Y-10564D01*
X36768Y-10579D01*
X36782Y-10593D01*
X36796Y-10622D01*
X36796Y-10707D01*
X36782Y-10736D01*
X36768Y-10750D01*
X34543Y-14750D02*
X34557Y-14764D01*
X34571Y-14807D01*
X34571Y-14836D01*
X34557Y-14879D01*
X34529Y-14907D01*
X34500Y-14922D01*
X34443Y-14936D01*
X34400Y-14936D01*
X34343Y-14922D01*
X34314Y-14907D01*
X34286Y-14879D01*
X34271Y-14836D01*
X34271Y-14807D01*
X34286Y-14764D01*
X34300Y-14750D01*
X34271Y-14479D02*
X34271Y-14622D01*
X34414Y-14636D01*
X34400Y-14622D01*
X34386Y-14593D01*
X34386Y-14522D01*
X34400Y-14493D01*
X34414Y-14479D01*
X34443Y-14464D01*
X34514Y-14464D01*
X34543Y-14479D01*
X34557Y-14493D01*
X34571Y-14522D01*
X34571Y-14593D01*
X34557Y-14622D01*
X34543Y-14636D01*
G54D10*
X34599Y-19216D02*
X34618Y-19235D01*
X34637Y-19292D01*
X34637Y-19330D01*
X34618Y-19388D01*
X34580Y-19426D01*
X34542Y-19445D01*
X34465Y-19464D01*
X34408Y-19464D01*
X34332Y-19445D01*
X34294Y-19426D01*
X34256Y-19388D01*
X34237Y-19330D01*
X34237Y-19292D01*
X34256Y-19235D01*
X34275Y-19216D01*
X34237Y-18873D02*
X34237Y-18950D01*
X34256Y-18988D01*
X34275Y-19007D01*
X34332Y-19045D01*
X34408Y-19064D01*
X34561Y-19064D01*
X34599Y-19045D01*
X34618Y-19026D01*
X34637Y-18988D01*
X34637Y-18911D01*
X34618Y-18873D01*
X34599Y-18854D01*
X34561Y-18835D01*
X34465Y-18835D01*
X34427Y-18854D01*
X34408Y-18873D01*
X34389Y-18911D01*
X34389Y-18988D01*
X34408Y-19026D01*
X34427Y-19045D01*
X34465Y-19064D01*
M02*
