G04 (created by PCBNEW-RS274X (2011-12-28 BZR 3254)-stable) date 5/7/2012 6:10:42 PM*
G01*
G70*
G90*
%MOIN*%
G04 Gerber Fmt 3.4, Leading zero omitted, Abs format*
%FSLAX34Y34*%
G04 APERTURE LIST*
%ADD10C,0.006000*%
%ADD11C,0.015000*%
%ADD12C,0.012000*%
%ADD13R,0.110000X0.060000*%
%ADD14R,0.059000X0.051200*%
%ADD15R,0.056000X0.042000*%
%ADD16R,0.070000X0.070000*%
%ADD17C,0.070000*%
%ADD18R,0.074000X0.074000*%
%ADD19R,0.074000X0.044000*%
%ADD20R,0.074000X0.264000*%
%ADD21C,0.200000*%
%ADD22C,0.020000*%
%ADD23C,0.035000*%
G04 APERTURE END LIST*
G54D10*
G54D11*
X25500Y-25175D02*
X25500Y-12175D01*
G54D12*
X41800Y-08949D02*
X42000Y-09749D01*
X42200Y-08949D01*
X39901Y-08448D02*
X39872Y-08486D01*
X39786Y-08524D01*
X39729Y-08524D01*
X39644Y-08486D01*
X39586Y-08410D01*
X39558Y-08333D01*
X39529Y-08181D01*
X39529Y-08067D01*
X39558Y-07914D01*
X39586Y-07838D01*
X39644Y-07762D01*
X39729Y-07724D01*
X39786Y-07724D01*
X39872Y-07762D01*
X39901Y-07800D01*
X40386Y-08486D02*
X40329Y-08524D01*
X40215Y-08524D01*
X40158Y-08486D01*
X40129Y-08410D01*
X40129Y-08105D01*
X40158Y-08029D01*
X40215Y-07990D01*
X40329Y-07990D01*
X40386Y-08029D01*
X40415Y-08105D01*
X40415Y-08181D01*
X40129Y-08257D01*
X40672Y-07990D02*
X40672Y-08524D01*
X40672Y-08067D02*
X40700Y-08029D01*
X40758Y-07990D01*
X40843Y-07990D01*
X40900Y-08029D01*
X40929Y-08105D01*
X40929Y-08524D01*
X41129Y-07990D02*
X41358Y-07990D01*
X41215Y-07724D02*
X41215Y-08410D01*
X41243Y-08486D01*
X41301Y-08524D01*
X41358Y-08524D01*
X41558Y-08524D02*
X41558Y-07990D01*
X41558Y-08143D02*
X41586Y-08067D01*
X41615Y-08029D01*
X41672Y-07990D01*
X41729Y-07990D01*
X42157Y-08486D02*
X42100Y-08524D01*
X41986Y-08524D01*
X41929Y-08486D01*
X41900Y-08410D01*
X41900Y-08105D01*
X41929Y-08029D01*
X41986Y-07990D01*
X42100Y-07990D01*
X42157Y-08029D01*
X42186Y-08105D01*
X42186Y-08181D01*
X41900Y-08257D01*
X43186Y-08524D02*
X42900Y-08524D01*
X42900Y-07724D01*
X43386Y-08524D02*
X43386Y-07990D01*
X43386Y-07724D02*
X43357Y-07762D01*
X43386Y-07800D01*
X43414Y-07762D01*
X43386Y-07724D01*
X43386Y-07800D01*
X43672Y-07990D02*
X43672Y-08524D01*
X43672Y-08067D02*
X43700Y-08029D01*
X43758Y-07990D01*
X43843Y-07990D01*
X43900Y-08029D01*
X43929Y-08105D01*
X43929Y-08524D01*
X44443Y-08486D02*
X44386Y-08524D01*
X44272Y-08524D01*
X44215Y-08486D01*
X44186Y-08410D01*
X44186Y-08105D01*
X44215Y-08029D01*
X44272Y-07990D01*
X44386Y-07990D01*
X44443Y-08029D01*
X44472Y-08105D01*
X44472Y-08181D01*
X44186Y-08257D01*
G54D11*
X42000Y-12175D02*
X42000Y-10175D01*
X25500Y-12175D02*
X60500Y-12175D01*
X60500Y-25175D02*
X60500Y-12175D01*
X25500Y-25175D02*
X60500Y-25175D01*
G54D13*
X28000Y-16900D03*
X28000Y-18100D03*
X32000Y-16900D03*
X32000Y-18100D03*
X36000Y-16900D03*
X36000Y-18100D03*
X40000Y-16900D03*
X40000Y-18100D03*
X44000Y-16900D03*
X44000Y-18100D03*
X48000Y-16900D03*
X48000Y-18100D03*
X56000Y-16900D03*
X56000Y-18100D03*
X52000Y-16900D03*
X52000Y-18100D03*
X52000Y-13400D03*
X52000Y-14600D03*
X56000Y-13400D03*
X56000Y-14600D03*
X48000Y-13400D03*
X48000Y-14600D03*
X44000Y-13400D03*
X44000Y-14600D03*
X40000Y-13400D03*
X40000Y-14600D03*
X36000Y-13400D03*
X36000Y-14600D03*
X32000Y-13400D03*
X32000Y-14600D03*
X28000Y-13400D03*
X28000Y-14600D03*
G54D14*
X30000Y-17900D03*
X30000Y-17150D03*
X38000Y-17875D03*
X38000Y-17125D03*
X46000Y-17875D03*
X46000Y-17125D03*
X54000Y-17875D03*
X54000Y-17125D03*
X30000Y-14375D03*
X30000Y-13625D03*
X38000Y-14375D03*
X38000Y-13625D03*
X46000Y-14375D03*
X46000Y-13625D03*
X54000Y-14375D03*
X54000Y-13625D03*
X41400Y-21500D03*
X41400Y-20750D03*
G54D15*
X35990Y-23540D03*
X35990Y-22740D03*
G54D16*
X44225Y-23500D03*
G54D17*
X45225Y-23500D03*
X46225Y-23500D03*
X46225Y-22500D03*
X45225Y-22500D03*
X44225Y-22500D03*
G54D16*
X47225Y-23500D03*
G54D17*
X48225Y-23500D03*
X49225Y-23500D03*
X49225Y-22500D03*
X48225Y-22500D03*
X47225Y-22500D03*
G54D18*
X37730Y-21420D03*
G54D19*
X37730Y-22480D03*
G54D18*
X37730Y-23540D03*
G54D20*
X40170Y-22480D03*
G54D21*
X27150Y-21750D03*
X58875Y-14675D03*
X58875Y-23675D03*
G54D16*
X53225Y-23500D03*
G54D17*
X53225Y-22500D03*
G54D16*
X43225Y-23500D03*
G54D17*
X43225Y-22500D03*
X43225Y-21500D03*
G54D16*
X36000Y-20500D03*
G54D17*
X36000Y-19500D03*
X30500Y-24450D03*
G54D16*
X50225Y-23500D03*
G54D17*
X51225Y-23500D03*
X52225Y-23500D03*
X52225Y-22500D03*
X51225Y-22500D03*
X50225Y-22500D03*
G54D22*
X36710Y-23935D02*
X36710Y-23540D01*
X45225Y-22500D02*
X46225Y-22500D01*
X41600Y-22875D02*
X41600Y-23950D01*
X41600Y-23950D02*
X41300Y-24250D01*
X51225Y-22500D02*
X52225Y-22500D01*
X50225Y-22500D02*
X51225Y-22500D01*
X49225Y-22500D02*
X50225Y-22500D01*
X44225Y-22500D02*
X45225Y-22500D01*
X41975Y-22500D02*
X41600Y-22875D01*
X37730Y-23540D02*
X36710Y-23540D01*
X46225Y-22500D02*
X47225Y-22500D01*
X47225Y-22500D02*
X48225Y-22500D01*
X48225Y-22500D02*
X49225Y-22500D01*
X43225Y-22500D02*
X41975Y-22500D01*
X35990Y-23540D02*
X36710Y-23540D01*
X43225Y-22500D02*
X44225Y-22500D01*
X52225Y-22500D02*
X53225Y-22500D01*
X41300Y-24250D02*
X37025Y-24250D01*
X37025Y-24250D02*
X36710Y-23935D01*
X26500Y-19125D02*
X26500Y-16225D01*
X28000Y-15950D02*
X36000Y-15950D01*
X28000Y-12450D02*
X26825Y-12450D01*
X52000Y-15950D02*
X52000Y-16900D01*
X26500Y-16225D02*
X26775Y-15950D01*
X36000Y-15950D02*
X44000Y-15950D01*
X26875Y-19500D02*
X26500Y-19125D01*
X44000Y-13400D02*
X44000Y-12450D01*
X36000Y-12450D02*
X44000Y-12450D01*
X36000Y-13400D02*
X36000Y-12450D01*
X26500Y-15675D02*
X26775Y-15950D01*
X26775Y-15950D02*
X28000Y-15950D01*
X36000Y-16900D02*
X36000Y-15950D01*
X44000Y-16900D02*
X44000Y-15950D01*
X28000Y-16900D02*
X28000Y-15950D01*
X36850Y-22175D02*
X37175Y-22500D01*
X52000Y-12450D02*
X52000Y-13400D01*
X37175Y-22500D02*
X37730Y-22480D01*
X28000Y-12450D02*
X36000Y-12450D01*
X36850Y-19825D02*
X36850Y-22175D01*
X28000Y-13400D02*
X28000Y-12450D01*
X44000Y-15950D02*
X52000Y-15950D01*
X26825Y-12450D02*
X26500Y-12775D01*
X36000Y-19500D02*
X26875Y-19500D01*
X26500Y-12775D02*
X26500Y-15675D01*
X44000Y-12450D02*
X52000Y-12450D01*
X36000Y-19500D02*
X36525Y-19500D01*
X37730Y-22480D02*
X40170Y-22480D01*
X36525Y-19500D02*
X36850Y-19825D01*
X45225Y-23500D02*
X44225Y-23500D01*
X53225Y-23500D02*
X54550Y-23500D01*
X54850Y-23200D02*
X54850Y-19000D01*
X47975Y-19000D02*
X48000Y-19000D01*
X56000Y-15500D02*
X57300Y-15500D01*
X43225Y-24500D02*
X42950Y-24775D01*
X48225Y-23500D02*
X47225Y-23500D01*
X43225Y-24500D02*
X43225Y-23500D01*
X47225Y-23500D02*
X46225Y-23500D01*
X54550Y-23500D02*
X54850Y-23200D01*
X49225Y-23500D02*
X48225Y-23500D01*
X48000Y-14600D02*
X48000Y-15500D01*
X35175Y-22750D02*
X34875Y-23050D01*
X57700Y-18575D02*
X57275Y-19000D01*
X48000Y-19000D02*
X48000Y-18100D01*
X54850Y-19000D02*
X56000Y-19000D01*
X47975Y-19000D02*
X54850Y-19000D01*
X49225Y-23500D02*
X50225Y-23500D01*
X50225Y-23500D02*
X51225Y-23500D01*
X51225Y-23500D02*
X52225Y-23500D01*
X57300Y-15500D02*
X57700Y-15900D01*
X57700Y-15900D02*
X57700Y-18575D01*
X57275Y-19000D02*
X56000Y-19000D01*
X44225Y-23500D02*
X43225Y-23500D01*
X38425Y-19000D02*
X40000Y-19000D01*
X40000Y-15500D02*
X48000Y-15500D01*
X32000Y-18100D02*
X32000Y-18475D01*
X34525Y-18775D02*
X38200Y-18775D01*
X34525Y-18775D02*
X32300Y-18775D01*
X32000Y-18475D02*
X32300Y-18775D01*
X46225Y-23500D02*
X45225Y-23500D01*
X32000Y-15500D02*
X40000Y-15500D01*
X48000Y-15500D02*
X56000Y-15500D01*
X38200Y-18775D02*
X38425Y-19000D01*
X56000Y-19000D02*
X56000Y-18100D01*
X52225Y-23500D02*
X53225Y-23500D01*
X40000Y-19000D02*
X40000Y-18100D01*
X34875Y-24500D02*
X35150Y-24775D01*
X35990Y-22740D02*
X35175Y-22750D01*
X36000Y-20500D02*
X35990Y-22740D01*
X34875Y-23050D02*
X34875Y-24500D01*
X40000Y-19000D02*
X47975Y-19000D01*
X40000Y-14600D02*
X40000Y-15500D01*
X32000Y-14600D02*
X32000Y-15500D01*
X56000Y-15500D02*
X56000Y-14600D01*
X42950Y-24775D02*
X35150Y-24775D01*
X43225Y-21500D02*
X41400Y-21500D01*
X40000Y-13400D02*
X38225Y-13400D01*
X38225Y-13400D02*
X38000Y-13625D01*
X41400Y-20750D02*
X41400Y-20300D01*
X37730Y-20445D02*
X37730Y-21420D01*
X38050Y-20125D02*
X37730Y-20445D01*
X41225Y-20125D02*
X38050Y-20125D01*
X41400Y-20300D02*
X41225Y-20125D01*
X52000Y-14600D02*
X53775Y-14600D01*
X53775Y-14600D02*
X54000Y-14375D01*
X56000Y-13400D02*
X54225Y-13400D01*
X54225Y-13400D02*
X54000Y-13625D01*
X44000Y-14600D02*
X45775Y-14600D01*
X45775Y-14600D02*
X46000Y-14375D01*
X48000Y-13400D02*
X46225Y-13400D01*
X46225Y-13400D02*
X46000Y-13625D01*
X36000Y-14600D02*
X37775Y-14600D01*
X37775Y-14600D02*
X38000Y-14375D01*
X52000Y-18100D02*
X53775Y-18100D01*
X53775Y-18100D02*
X54000Y-17875D01*
X56000Y-16900D02*
X54225Y-16900D01*
X54225Y-16900D02*
X54000Y-17125D01*
X44000Y-18100D02*
X45775Y-18100D01*
X45775Y-18100D02*
X46000Y-17875D01*
X48000Y-16900D02*
X46225Y-16900D01*
X46225Y-16900D02*
X46000Y-17125D01*
X36000Y-18100D02*
X37775Y-18100D01*
X37775Y-18100D02*
X38000Y-17875D01*
X40000Y-16900D02*
X38225Y-16900D01*
X38225Y-16900D02*
X38000Y-17125D01*
X28000Y-18100D02*
X29800Y-18100D01*
X29800Y-18100D02*
X30000Y-17900D01*
X32000Y-16900D02*
X30250Y-16900D01*
X30250Y-16900D02*
X30000Y-17150D01*
X28000Y-14600D02*
X29775Y-14600D01*
X29775Y-14600D02*
X30000Y-14375D01*
X32000Y-13400D02*
X30225Y-13400D01*
X30225Y-13400D02*
X30000Y-13625D01*
G54D10*
G36*
X27078Y-14000D02*
X27075Y-14003D01*
X27075Y-13996D01*
X27078Y-14000D01*
X27078Y-14000D01*
G37*
G54D23*
X27078Y-14000D02*
X27075Y-14003D01*
X27075Y-13996D01*
X27078Y-14000D01*
G54D10*
G36*
X27078Y-17500D02*
X27075Y-17503D01*
X27075Y-17496D01*
X27078Y-17500D01*
X27078Y-17500D01*
G37*
G54D23*
X27078Y-17500D02*
X27075Y-17503D01*
X27075Y-17496D01*
X27078Y-17500D01*
G54D10*
G36*
X27355Y-15375D02*
X27075Y-15375D01*
X27075Y-15196D01*
X27181Y-15302D01*
X27355Y-15375D01*
X27355Y-15375D01*
G37*
G54D23*
X27355Y-15375D02*
X27075Y-15375D01*
X27075Y-15196D01*
X27181Y-15302D01*
X27355Y-15375D01*
G54D10*
G36*
X29377Y-13025D02*
X29303Y-13100D01*
X29230Y-13274D01*
X29230Y-13463D01*
X29230Y-13975D01*
X29240Y-13999D01*
X29230Y-14024D01*
X29230Y-14025D01*
X28946Y-14025D01*
X28921Y-13999D01*
X28952Y-13969D01*
X29025Y-13795D01*
X29025Y-13606D01*
X29025Y-13025D01*
X29377Y-13025D01*
X29377Y-13025D01*
G37*
G54D23*
X29377Y-13025D02*
X29303Y-13100D01*
X29230Y-13274D01*
X29230Y-13463D01*
X29230Y-13975D01*
X29240Y-13999D01*
X29230Y-14024D01*
X29230Y-14025D01*
X28946Y-14025D01*
X28921Y-13999D01*
X28952Y-13969D01*
X29025Y-13795D01*
X29025Y-13606D01*
X29025Y-13025D01*
X29377Y-13025D01*
G54D10*
G36*
X29402Y-16525D02*
X29303Y-16625D01*
X29230Y-16799D01*
X29230Y-16988D01*
X29230Y-17500D01*
X29240Y-17524D01*
X29240Y-17525D01*
X28946Y-17525D01*
X28921Y-17499D01*
X28952Y-17469D01*
X29025Y-17295D01*
X29025Y-17106D01*
X29025Y-16525D01*
X29402Y-16525D01*
X29402Y-16525D01*
G37*
G54D23*
X29402Y-16525D02*
X29303Y-16625D01*
X29230Y-16799D01*
X29230Y-16988D01*
X29230Y-17500D01*
X29240Y-17524D01*
X29240Y-17525D01*
X28946Y-17525D01*
X28921Y-17499D01*
X28952Y-17469D01*
X29025Y-17295D01*
X29025Y-17106D01*
X29025Y-16525D01*
X29402Y-16525D01*
G54D10*
G36*
X31355Y-15375D02*
X28644Y-15375D01*
X28819Y-15303D01*
X28946Y-15175D01*
X29770Y-15175D01*
X29775Y-15176D01*
X29775Y-15175D01*
X29995Y-15131D01*
X30032Y-15106D01*
X30389Y-15106D01*
X30564Y-15034D01*
X30697Y-14900D01*
X30770Y-14726D01*
X30770Y-14537D01*
X30770Y-14025D01*
X30759Y-14000D01*
X30770Y-13976D01*
X30770Y-13975D01*
X31053Y-13975D01*
X31078Y-14000D01*
X31048Y-14031D01*
X30975Y-14205D01*
X30975Y-14394D01*
X30975Y-14994D01*
X31047Y-15169D01*
X31181Y-15302D01*
X31355Y-15375D01*
X31355Y-15375D01*
G37*
G54D23*
X31355Y-15375D02*
X28644Y-15375D01*
X28819Y-15303D01*
X28946Y-15175D01*
X29770Y-15175D01*
X29775Y-15176D01*
X29775Y-15175D01*
X29995Y-15131D01*
X30032Y-15106D01*
X30389Y-15106D01*
X30564Y-15034D01*
X30697Y-14900D01*
X30770Y-14726D01*
X30770Y-14537D01*
X30770Y-14025D01*
X30759Y-14000D01*
X30770Y-13976D01*
X30770Y-13975D01*
X31053Y-13975D01*
X31078Y-14000D01*
X31048Y-14031D01*
X30975Y-14205D01*
X30975Y-14394D01*
X30975Y-14994D01*
X31047Y-15169D01*
X31181Y-15302D01*
X31355Y-15375D01*
G54D10*
G36*
X31636Y-18925D02*
X27113Y-18925D01*
X27075Y-18886D01*
X27075Y-18696D01*
X27181Y-18802D01*
X27355Y-18875D01*
X27544Y-18875D01*
X28644Y-18875D01*
X28819Y-18803D01*
X28946Y-18675D01*
X29795Y-18675D01*
X29800Y-18676D01*
X29800Y-18675D01*
X30020Y-18631D01*
X30389Y-18631D01*
X30564Y-18559D01*
X30697Y-18425D01*
X30770Y-18251D01*
X30770Y-18062D01*
X30770Y-17550D01*
X30759Y-17525D01*
X30770Y-17501D01*
X30770Y-17475D01*
X31053Y-17475D01*
X31078Y-17500D01*
X31048Y-17531D01*
X30975Y-17705D01*
X30975Y-17894D01*
X30975Y-18494D01*
X31047Y-18669D01*
X31181Y-18802D01*
X31355Y-18875D01*
X31544Y-18875D01*
X31588Y-18875D01*
X31593Y-18882D01*
X31636Y-18925D01*
X31636Y-18925D01*
G37*
G54D23*
X31636Y-18925D02*
X27113Y-18925D01*
X27075Y-18886D01*
X27075Y-18696D01*
X27181Y-18802D01*
X27355Y-18875D01*
X27544Y-18875D01*
X28644Y-18875D01*
X28819Y-18803D01*
X28946Y-18675D01*
X29795Y-18675D01*
X29800Y-18676D01*
X29800Y-18675D01*
X30020Y-18631D01*
X30389Y-18631D01*
X30564Y-18559D01*
X30697Y-18425D01*
X30770Y-18251D01*
X30770Y-18062D01*
X30770Y-17550D01*
X30759Y-17525D01*
X30770Y-17501D01*
X30770Y-17475D01*
X31053Y-17475D01*
X31078Y-17500D01*
X31048Y-17531D01*
X30975Y-17705D01*
X30975Y-17894D01*
X30975Y-18494D01*
X31047Y-18669D01*
X31181Y-18802D01*
X31355Y-18875D01*
X31544Y-18875D01*
X31588Y-18875D01*
X31593Y-18882D01*
X31636Y-18925D01*
G54D10*
G36*
X35078Y-14000D02*
X35048Y-14031D01*
X34975Y-14205D01*
X34975Y-14394D01*
X34975Y-14925D01*
X33025Y-14925D01*
X33025Y-14806D01*
X33025Y-14206D01*
X32953Y-14031D01*
X32921Y-13999D01*
X32952Y-13969D01*
X33025Y-13795D01*
X33025Y-13606D01*
X33025Y-13025D01*
X34975Y-13025D01*
X34975Y-13194D01*
X34975Y-13794D01*
X35047Y-13969D01*
X35078Y-14000D01*
X35078Y-14000D01*
G37*
G54D23*
X35078Y-14000D02*
X35048Y-14031D01*
X34975Y-14205D01*
X34975Y-14394D01*
X34975Y-14925D01*
X33025Y-14925D01*
X33025Y-14806D01*
X33025Y-14206D01*
X32953Y-14031D01*
X32921Y-13999D01*
X32952Y-13969D01*
X33025Y-13795D01*
X33025Y-13606D01*
X33025Y-13025D01*
X34975Y-13025D01*
X34975Y-13194D01*
X34975Y-13794D01*
X35047Y-13969D01*
X35078Y-14000D01*
G54D10*
G36*
X35078Y-17500D02*
X35048Y-17531D01*
X34975Y-17705D01*
X34975Y-17894D01*
X34975Y-18200D01*
X34525Y-18200D01*
X33025Y-18200D01*
X33025Y-17706D01*
X32953Y-17531D01*
X32921Y-17499D01*
X32952Y-17469D01*
X33025Y-17295D01*
X33025Y-17106D01*
X33025Y-16525D01*
X34975Y-16525D01*
X34975Y-16694D01*
X34975Y-17294D01*
X35047Y-17469D01*
X35078Y-17500D01*
X35078Y-17500D01*
G37*
G54D23*
X35078Y-17500D02*
X35048Y-17531D01*
X34975Y-17705D01*
X34975Y-17894D01*
X34975Y-18200D01*
X34525Y-18200D01*
X33025Y-18200D01*
X33025Y-17706D01*
X32953Y-17531D01*
X32921Y-17499D01*
X32952Y-17469D01*
X33025Y-17295D01*
X33025Y-17106D01*
X33025Y-16525D01*
X34975Y-16525D01*
X34975Y-16694D01*
X34975Y-17294D01*
X35047Y-17469D01*
X35078Y-17500D01*
G54D10*
G36*
X35422Y-21269D02*
X35418Y-22150D01*
X35396Y-22172D01*
X35168Y-22175D01*
X35072Y-22195D01*
X34955Y-22219D01*
X34951Y-22221D01*
X34949Y-22222D01*
X34836Y-22298D01*
X34768Y-22344D01*
X34766Y-22345D01*
X34763Y-22348D01*
X34761Y-22350D01*
X34468Y-22643D01*
X34344Y-22830D01*
X34299Y-23050D01*
X34300Y-23054D01*
X34300Y-24495D01*
X34299Y-24500D01*
X34324Y-24625D01*
X31320Y-24625D01*
X31325Y-24615D01*
X31325Y-24287D01*
X31200Y-23984D01*
X30968Y-23751D01*
X30665Y-23625D01*
X30337Y-23625D01*
X30034Y-23750D01*
X29801Y-23982D01*
X29675Y-24285D01*
X29675Y-24613D01*
X29679Y-24625D01*
X26347Y-24625D01*
X26050Y-24328D01*
X26050Y-22734D01*
X26314Y-22999D01*
X26856Y-23224D01*
X27442Y-23224D01*
X27984Y-23000D01*
X28399Y-22586D01*
X28624Y-22044D01*
X28624Y-21458D01*
X28400Y-20916D01*
X27986Y-20501D01*
X27444Y-20276D01*
X26858Y-20276D01*
X26316Y-20500D01*
X26050Y-20765D01*
X26050Y-19467D01*
X26093Y-19532D01*
X26466Y-19904D01*
X26468Y-19907D01*
X26655Y-20031D01*
X26875Y-20075D01*
X35175Y-20075D01*
X35175Y-20244D01*
X35175Y-20944D01*
X35247Y-21119D01*
X35381Y-21252D01*
X35422Y-21269D01*
X35422Y-21269D01*
G37*
G54D23*
X35422Y-21269D02*
X35418Y-22150D01*
X35396Y-22172D01*
X35168Y-22175D01*
X35072Y-22195D01*
X34955Y-22219D01*
X34951Y-22221D01*
X34949Y-22222D01*
X34836Y-22298D01*
X34768Y-22344D01*
X34766Y-22345D01*
X34763Y-22348D01*
X34761Y-22350D01*
X34468Y-22643D01*
X34344Y-22830D01*
X34299Y-23050D01*
X34300Y-23054D01*
X34300Y-24495D01*
X34299Y-24500D01*
X34324Y-24625D01*
X31320Y-24625D01*
X31325Y-24615D01*
X31325Y-24287D01*
X31200Y-23984D01*
X30968Y-23751D01*
X30665Y-23625D01*
X30337Y-23625D01*
X30034Y-23750D01*
X29801Y-23982D01*
X29675Y-24285D01*
X29675Y-24613D01*
X29679Y-24625D01*
X26347Y-24625D01*
X26050Y-24328D01*
X26050Y-22734D01*
X26314Y-22999D01*
X26856Y-23224D01*
X27442Y-23224D01*
X27984Y-23000D01*
X28399Y-22586D01*
X28624Y-22044D01*
X28624Y-21458D01*
X28400Y-20916D01*
X27986Y-20501D01*
X27444Y-20276D01*
X26858Y-20276D01*
X26316Y-20500D01*
X26050Y-20765D01*
X26050Y-19467D01*
X26093Y-19532D01*
X26466Y-19904D01*
X26468Y-19907D01*
X26655Y-20031D01*
X26875Y-20075D01*
X35175Y-20075D01*
X35175Y-20244D01*
X35175Y-20944D01*
X35247Y-21119D01*
X35381Y-21252D01*
X35422Y-21269D01*
G54D10*
G36*
X35555Y-24200D02*
X35450Y-24200D01*
X35450Y-24155D01*
X35555Y-24200D01*
X35555Y-24200D01*
G37*
G54D23*
X35555Y-24200D02*
X35450Y-24200D01*
X35450Y-24155D01*
X35555Y-24200D01*
G54D10*
G36*
X36853Y-22965D02*
X36745Y-22965D01*
X36745Y-22883D01*
X36768Y-22906D01*
X36774Y-22910D01*
X36783Y-22922D01*
X36853Y-22965D01*
X36853Y-22965D01*
G37*
G54D23*
X36853Y-22965D02*
X36745Y-22965D01*
X36745Y-22883D01*
X36768Y-22906D01*
X36774Y-22910D01*
X36783Y-22922D01*
X36853Y-22965D01*
G54D10*
G36*
X37377Y-13025D02*
X37303Y-13100D01*
X37230Y-13274D01*
X37230Y-13463D01*
X37230Y-13975D01*
X37240Y-13999D01*
X37230Y-14024D01*
X37230Y-14025D01*
X36946Y-14025D01*
X36921Y-13999D01*
X36952Y-13969D01*
X37025Y-13795D01*
X37025Y-13606D01*
X37025Y-13025D01*
X37377Y-13025D01*
X37377Y-13025D01*
G37*
G54D23*
X37377Y-13025D02*
X37303Y-13100D01*
X37230Y-13274D01*
X37230Y-13463D01*
X37230Y-13975D01*
X37240Y-13999D01*
X37230Y-14024D01*
X37230Y-14025D01*
X36946Y-14025D01*
X36921Y-13999D01*
X36952Y-13969D01*
X37025Y-13795D01*
X37025Y-13606D01*
X37025Y-13025D01*
X37377Y-13025D01*
G54D10*
G36*
X37377Y-16525D02*
X37303Y-16600D01*
X37230Y-16774D01*
X37230Y-16963D01*
X37230Y-17475D01*
X37240Y-17499D01*
X37230Y-17524D01*
X37230Y-17525D01*
X36946Y-17525D01*
X36921Y-17499D01*
X36952Y-17469D01*
X37025Y-17295D01*
X37025Y-17106D01*
X37025Y-16525D01*
X37377Y-16525D01*
X37377Y-16525D01*
G37*
G54D23*
X37377Y-16525D02*
X37303Y-16600D01*
X37230Y-16774D01*
X37230Y-16963D01*
X37230Y-17475D01*
X37240Y-17499D01*
X37230Y-17524D01*
X37230Y-17525D01*
X36946Y-17525D01*
X36921Y-17499D01*
X36952Y-17469D01*
X37025Y-17295D01*
X37025Y-17106D01*
X37025Y-16525D01*
X37377Y-16525D01*
G54D10*
G36*
X38300Y-19550D02*
X38050Y-19550D01*
X37830Y-19594D01*
X37643Y-19718D01*
X37641Y-19720D01*
X37425Y-19936D01*
X37425Y-19825D01*
X37381Y-19605D01*
X37257Y-19418D01*
X37254Y-19416D01*
X37188Y-19350D01*
X37961Y-19350D01*
X38016Y-19404D01*
X38018Y-19407D01*
X38205Y-19531D01*
X38300Y-19550D01*
X38300Y-19550D01*
G37*
G54D23*
X38300Y-19550D02*
X38050Y-19550D01*
X37830Y-19594D01*
X37643Y-19718D01*
X37641Y-19720D01*
X37425Y-19936D01*
X37425Y-19825D01*
X37381Y-19605D01*
X37257Y-19418D01*
X37254Y-19416D01*
X37188Y-19350D01*
X37961Y-19350D01*
X38016Y-19404D01*
X38018Y-19407D01*
X38205Y-19531D01*
X38300Y-19550D01*
G54D10*
G36*
X39078Y-14000D02*
X39048Y-14031D01*
X38975Y-14205D01*
X38975Y-14394D01*
X38975Y-14925D01*
X38672Y-14925D01*
X38697Y-14900D01*
X38770Y-14726D01*
X38770Y-14537D01*
X38770Y-14025D01*
X38759Y-14000D01*
X38770Y-13976D01*
X38770Y-13975D01*
X39053Y-13975D01*
X39078Y-14000D01*
X39078Y-14000D01*
G37*
G54D23*
X39078Y-14000D02*
X39048Y-14031D01*
X38975Y-14205D01*
X38975Y-14394D01*
X38975Y-14925D01*
X38672Y-14925D01*
X38697Y-14900D01*
X38770Y-14726D01*
X38770Y-14537D01*
X38770Y-14025D01*
X38759Y-14000D01*
X38770Y-13976D01*
X38770Y-13975D01*
X39053Y-13975D01*
X39078Y-14000D01*
G54D10*
G36*
X39078Y-17500D02*
X39048Y-17531D01*
X38975Y-17705D01*
X38975Y-17894D01*
X38975Y-18425D01*
X38672Y-18425D01*
X38697Y-18400D01*
X38770Y-18226D01*
X38770Y-18037D01*
X38770Y-17525D01*
X38759Y-17500D01*
X38770Y-17476D01*
X38770Y-17475D01*
X39053Y-17475D01*
X39078Y-17500D01*
X39078Y-17500D01*
G37*
G54D23*
X39078Y-17500D02*
X39048Y-17531D01*
X38975Y-17705D01*
X38975Y-17894D01*
X38975Y-18425D01*
X38672Y-18425D01*
X38697Y-18400D01*
X38770Y-18226D01*
X38770Y-18037D01*
X38770Y-17525D01*
X38759Y-17500D01*
X38770Y-17476D01*
X38770Y-17475D01*
X39053Y-17475D01*
X39078Y-17500D01*
G54D10*
G36*
X39325Y-23675D02*
X38575Y-23675D01*
X38575Y-23076D01*
X38566Y-23055D01*
X39325Y-23055D01*
X39325Y-23675D01*
X39325Y-23675D01*
G37*
G54D23*
X39325Y-23675D02*
X38575Y-23675D01*
X38575Y-23076D01*
X38566Y-23055D01*
X39325Y-23055D01*
X39325Y-23675D01*
G54D10*
G36*
X39669Y-20700D02*
X39531Y-20757D01*
X39398Y-20891D01*
X39325Y-21065D01*
X39325Y-21254D01*
X39325Y-21905D01*
X38566Y-21905D01*
X38575Y-21885D01*
X38575Y-21696D01*
X38575Y-20956D01*
X38503Y-20781D01*
X38421Y-20700D01*
X39669Y-20700D01*
X39669Y-20700D01*
G37*
G54D23*
X39669Y-20700D02*
X39531Y-20757D01*
X39398Y-20891D01*
X39325Y-21065D01*
X39325Y-21254D01*
X39325Y-21905D01*
X38566Y-21905D01*
X38575Y-21885D01*
X38575Y-21696D01*
X38575Y-20956D01*
X38503Y-20781D01*
X38421Y-20700D01*
X39669Y-20700D01*
G54D10*
G36*
X41430Y-22231D02*
X41193Y-22468D01*
X41069Y-22655D01*
X41024Y-22875D01*
X41025Y-22879D01*
X41025Y-23675D01*
X41015Y-23675D01*
X41015Y-22231D01*
X41199Y-22231D01*
X41430Y-22231D01*
X41430Y-22231D01*
G37*
G54D23*
X41430Y-22231D02*
X41193Y-22468D01*
X41069Y-22655D01*
X41024Y-22875D01*
X41025Y-22879D01*
X41025Y-23675D01*
X41015Y-23675D01*
X41015Y-22231D01*
X41199Y-22231D01*
X41430Y-22231D01*
G54D10*
G36*
X42553Y-24200D02*
X42111Y-24200D01*
X42131Y-24170D01*
X42175Y-23950D01*
X42175Y-23113D01*
X42213Y-23075D01*
X42400Y-23075D01*
X42400Y-23244D01*
X42400Y-23944D01*
X42472Y-24119D01*
X42553Y-24200D01*
X42553Y-24200D01*
G37*
G54D23*
X42553Y-24200D02*
X42111Y-24200D01*
X42131Y-24170D01*
X42175Y-23950D01*
X42175Y-23113D01*
X42213Y-23075D01*
X42400Y-23075D01*
X42400Y-23244D01*
X42400Y-23944D01*
X42472Y-24119D01*
X42553Y-24200D01*
G54D10*
G36*
X43078Y-14000D02*
X43048Y-14031D01*
X42975Y-14205D01*
X42975Y-14394D01*
X42975Y-14925D01*
X41025Y-14925D01*
X41025Y-14806D01*
X41025Y-14206D01*
X40953Y-14031D01*
X40921Y-13999D01*
X40952Y-13969D01*
X41025Y-13795D01*
X41025Y-13606D01*
X41025Y-13025D01*
X42975Y-13025D01*
X42975Y-13194D01*
X42975Y-13794D01*
X43047Y-13969D01*
X43078Y-14000D01*
X43078Y-14000D01*
G37*
G54D23*
X43078Y-14000D02*
X43048Y-14031D01*
X42975Y-14205D01*
X42975Y-14394D01*
X42975Y-14925D01*
X41025Y-14925D01*
X41025Y-14806D01*
X41025Y-14206D01*
X40953Y-14031D01*
X40921Y-13999D01*
X40952Y-13969D01*
X41025Y-13795D01*
X41025Y-13606D01*
X41025Y-13025D01*
X42975Y-13025D01*
X42975Y-13194D01*
X42975Y-13794D01*
X43047Y-13969D01*
X43078Y-14000D01*
G54D10*
G36*
X43078Y-17500D02*
X43048Y-17531D01*
X42975Y-17705D01*
X42975Y-17894D01*
X42975Y-18425D01*
X41025Y-18425D01*
X41025Y-18306D01*
X41025Y-17706D01*
X40953Y-17531D01*
X40921Y-17499D01*
X40952Y-17469D01*
X41025Y-17295D01*
X41025Y-17106D01*
X41025Y-16525D01*
X42975Y-16525D01*
X42975Y-16694D01*
X42975Y-17294D01*
X43047Y-17469D01*
X43078Y-17500D01*
X43078Y-17500D01*
G37*
G54D23*
X43078Y-17500D02*
X43048Y-17531D01*
X42975Y-17705D01*
X42975Y-17894D01*
X42975Y-18425D01*
X41025Y-18425D01*
X41025Y-18306D01*
X41025Y-17706D01*
X40953Y-17531D01*
X40921Y-17499D01*
X40952Y-17469D01*
X41025Y-17295D01*
X41025Y-17106D01*
X41025Y-16525D01*
X42975Y-16525D01*
X42975Y-16694D01*
X42975Y-17294D01*
X43047Y-17469D01*
X43078Y-17500D01*
G54D10*
G36*
X45377Y-13025D02*
X45303Y-13100D01*
X45230Y-13274D01*
X45230Y-13463D01*
X45230Y-13975D01*
X45240Y-13999D01*
X45230Y-14024D01*
X45230Y-14025D01*
X44946Y-14025D01*
X44921Y-13999D01*
X44952Y-13969D01*
X45025Y-13795D01*
X45025Y-13606D01*
X45025Y-13025D01*
X45377Y-13025D01*
X45377Y-13025D01*
G37*
G54D23*
X45377Y-13025D02*
X45303Y-13100D01*
X45230Y-13274D01*
X45230Y-13463D01*
X45230Y-13975D01*
X45240Y-13999D01*
X45230Y-14024D01*
X45230Y-14025D01*
X44946Y-14025D01*
X44921Y-13999D01*
X44952Y-13969D01*
X45025Y-13795D01*
X45025Y-13606D01*
X45025Y-13025D01*
X45377Y-13025D01*
G54D10*
G36*
X45377Y-16525D02*
X45303Y-16600D01*
X45230Y-16774D01*
X45230Y-16963D01*
X45230Y-17475D01*
X45240Y-17499D01*
X45230Y-17524D01*
X45230Y-17525D01*
X44946Y-17525D01*
X44921Y-17499D01*
X44952Y-17469D01*
X45025Y-17295D01*
X45025Y-17106D01*
X45025Y-16525D01*
X45377Y-16525D01*
X45377Y-16525D01*
G37*
G54D23*
X45377Y-16525D02*
X45303Y-16600D01*
X45230Y-16774D01*
X45230Y-16963D01*
X45230Y-17475D01*
X45240Y-17499D01*
X45230Y-17524D01*
X45230Y-17525D01*
X44946Y-17525D01*
X44921Y-17499D01*
X44952Y-17469D01*
X45025Y-17295D01*
X45025Y-17106D01*
X45025Y-16525D01*
X45377Y-16525D01*
G54D10*
G36*
X47078Y-14000D02*
X47048Y-14031D01*
X46975Y-14205D01*
X46975Y-14394D01*
X46975Y-14925D01*
X46672Y-14925D01*
X46697Y-14900D01*
X46770Y-14726D01*
X46770Y-14537D01*
X46770Y-14025D01*
X46759Y-14000D01*
X46770Y-13976D01*
X46770Y-13975D01*
X47053Y-13975D01*
X47078Y-14000D01*
X47078Y-14000D01*
G37*
G54D23*
X47078Y-14000D02*
X47048Y-14031D01*
X46975Y-14205D01*
X46975Y-14394D01*
X46975Y-14925D01*
X46672Y-14925D01*
X46697Y-14900D01*
X46770Y-14726D01*
X46770Y-14537D01*
X46770Y-14025D01*
X46759Y-14000D01*
X46770Y-13976D01*
X46770Y-13975D01*
X47053Y-13975D01*
X47078Y-14000D01*
G54D10*
G36*
X47078Y-17500D02*
X47048Y-17531D01*
X46975Y-17705D01*
X46975Y-17894D01*
X46975Y-18425D01*
X46672Y-18425D01*
X46697Y-18400D01*
X46770Y-18226D01*
X46770Y-18037D01*
X46770Y-17525D01*
X46759Y-17500D01*
X46770Y-17476D01*
X46770Y-17475D01*
X47053Y-17475D01*
X47078Y-17500D01*
X47078Y-17500D01*
G37*
G54D23*
X47078Y-17500D02*
X47048Y-17531D01*
X46975Y-17705D01*
X46975Y-17894D01*
X46975Y-18425D01*
X46672Y-18425D01*
X46697Y-18400D01*
X46770Y-18226D01*
X46770Y-18037D01*
X46770Y-17525D01*
X46759Y-17500D01*
X46770Y-17476D01*
X46770Y-17475D01*
X47053Y-17475D01*
X47078Y-17500D01*
G54D10*
G36*
X51078Y-14000D02*
X51048Y-14031D01*
X50975Y-14205D01*
X50975Y-14394D01*
X50975Y-14925D01*
X49025Y-14925D01*
X49025Y-14806D01*
X49025Y-14206D01*
X48953Y-14031D01*
X48921Y-13999D01*
X48952Y-13969D01*
X49025Y-13795D01*
X49025Y-13606D01*
X49025Y-13025D01*
X50975Y-13025D01*
X50975Y-13194D01*
X50975Y-13794D01*
X51047Y-13969D01*
X51078Y-14000D01*
X51078Y-14000D01*
G37*
G54D23*
X51078Y-14000D02*
X51048Y-14031D01*
X50975Y-14205D01*
X50975Y-14394D01*
X50975Y-14925D01*
X49025Y-14925D01*
X49025Y-14806D01*
X49025Y-14206D01*
X48953Y-14031D01*
X48921Y-13999D01*
X48952Y-13969D01*
X49025Y-13795D01*
X49025Y-13606D01*
X49025Y-13025D01*
X50975Y-13025D01*
X50975Y-13194D01*
X50975Y-13794D01*
X51047Y-13969D01*
X51078Y-14000D01*
G54D10*
G36*
X51078Y-17500D02*
X51048Y-17531D01*
X50975Y-17705D01*
X50975Y-17894D01*
X50975Y-18425D01*
X49025Y-18425D01*
X49025Y-18306D01*
X49025Y-17706D01*
X48953Y-17531D01*
X48921Y-17499D01*
X48952Y-17469D01*
X49025Y-17295D01*
X49025Y-17106D01*
X49025Y-16525D01*
X50975Y-16525D01*
X50975Y-16694D01*
X50975Y-17294D01*
X51047Y-17469D01*
X51078Y-17500D01*
X51078Y-17500D01*
G37*
G54D23*
X51078Y-17500D02*
X51048Y-17531D01*
X50975Y-17705D01*
X50975Y-17894D01*
X50975Y-18425D01*
X49025Y-18425D01*
X49025Y-18306D01*
X49025Y-17706D01*
X48953Y-17531D01*
X48921Y-17499D01*
X48952Y-17469D01*
X49025Y-17295D01*
X49025Y-17106D01*
X49025Y-16525D01*
X50975Y-16525D01*
X50975Y-16694D01*
X50975Y-17294D01*
X51047Y-17469D01*
X51078Y-17500D01*
G54D10*
G36*
X54275Y-22925D02*
X53996Y-22925D01*
X53978Y-22881D01*
X53965Y-22868D01*
X54050Y-22665D01*
X54050Y-22337D01*
X53925Y-22034D01*
X53693Y-21801D01*
X53390Y-21675D01*
X53062Y-21675D01*
X52759Y-21800D01*
X52725Y-21833D01*
X52693Y-21801D01*
X52390Y-21675D01*
X52062Y-21675D01*
X51759Y-21800D01*
X51725Y-21833D01*
X51693Y-21801D01*
X51390Y-21675D01*
X51062Y-21675D01*
X50759Y-21800D01*
X50725Y-21833D01*
X50693Y-21801D01*
X50390Y-21675D01*
X50062Y-21675D01*
X49759Y-21800D01*
X49725Y-21833D01*
X49693Y-21801D01*
X49390Y-21675D01*
X49062Y-21675D01*
X48759Y-21800D01*
X48725Y-21833D01*
X48693Y-21801D01*
X48390Y-21675D01*
X48062Y-21675D01*
X47759Y-21800D01*
X47725Y-21833D01*
X47693Y-21801D01*
X47390Y-21675D01*
X47062Y-21675D01*
X46759Y-21800D01*
X46725Y-21833D01*
X46693Y-21801D01*
X46390Y-21675D01*
X46062Y-21675D01*
X45759Y-21800D01*
X45725Y-21833D01*
X45693Y-21801D01*
X45390Y-21675D01*
X45062Y-21675D01*
X44759Y-21800D01*
X44725Y-21833D01*
X44693Y-21801D01*
X44390Y-21675D01*
X44062Y-21675D01*
X44042Y-21683D01*
X44050Y-21665D01*
X44050Y-21337D01*
X43925Y-21034D01*
X43693Y-20801D01*
X43390Y-20675D01*
X43062Y-20675D01*
X42759Y-20800D01*
X42633Y-20925D01*
X42170Y-20925D01*
X42170Y-20912D01*
X42170Y-20400D01*
X42098Y-20225D01*
X41964Y-20092D01*
X41929Y-20077D01*
X41807Y-19893D01*
X41804Y-19891D01*
X41632Y-19718D01*
X41445Y-19594D01*
X41352Y-19575D01*
X47975Y-19575D01*
X48000Y-19575D01*
X54275Y-19575D01*
X54275Y-22925D01*
X54275Y-22925D01*
G37*
G54D23*
X54275Y-22925D02*
X53996Y-22925D01*
X53978Y-22881D01*
X53965Y-22868D01*
X54050Y-22665D01*
X54050Y-22337D01*
X53925Y-22034D01*
X53693Y-21801D01*
X53390Y-21675D01*
X53062Y-21675D01*
X52759Y-21800D01*
X52725Y-21833D01*
X52693Y-21801D01*
X52390Y-21675D01*
X52062Y-21675D01*
X51759Y-21800D01*
X51725Y-21833D01*
X51693Y-21801D01*
X51390Y-21675D01*
X51062Y-21675D01*
X50759Y-21800D01*
X50725Y-21833D01*
X50693Y-21801D01*
X50390Y-21675D01*
X50062Y-21675D01*
X49759Y-21800D01*
X49725Y-21833D01*
X49693Y-21801D01*
X49390Y-21675D01*
X49062Y-21675D01*
X48759Y-21800D01*
X48725Y-21833D01*
X48693Y-21801D01*
X48390Y-21675D01*
X48062Y-21675D01*
X47759Y-21800D01*
X47725Y-21833D01*
X47693Y-21801D01*
X47390Y-21675D01*
X47062Y-21675D01*
X46759Y-21800D01*
X46725Y-21833D01*
X46693Y-21801D01*
X46390Y-21675D01*
X46062Y-21675D01*
X45759Y-21800D01*
X45725Y-21833D01*
X45693Y-21801D01*
X45390Y-21675D01*
X45062Y-21675D01*
X44759Y-21800D01*
X44725Y-21833D01*
X44693Y-21801D01*
X44390Y-21675D01*
X44062Y-21675D01*
X44042Y-21683D01*
X44050Y-21665D01*
X44050Y-21337D01*
X43925Y-21034D01*
X43693Y-20801D01*
X43390Y-20675D01*
X43062Y-20675D01*
X42759Y-20800D01*
X42633Y-20925D01*
X42170Y-20925D01*
X42170Y-20912D01*
X42170Y-20400D01*
X42098Y-20225D01*
X41964Y-20092D01*
X41929Y-20077D01*
X41807Y-19893D01*
X41804Y-19891D01*
X41632Y-19718D01*
X41445Y-19594D01*
X41352Y-19575D01*
X47975Y-19575D01*
X48000Y-19575D01*
X54275Y-19575D01*
X54275Y-22925D01*
G54D10*
G36*
X55078Y-14000D02*
X55048Y-14031D01*
X54975Y-14205D01*
X54975Y-14394D01*
X54975Y-14925D01*
X54672Y-14925D01*
X54697Y-14900D01*
X54770Y-14726D01*
X54770Y-14537D01*
X54770Y-14025D01*
X54759Y-14000D01*
X54770Y-13976D01*
X54770Y-13975D01*
X55053Y-13975D01*
X55078Y-14000D01*
X55078Y-14000D01*
G37*
G54D23*
X55078Y-14000D02*
X55048Y-14031D01*
X54975Y-14205D01*
X54975Y-14394D01*
X54975Y-14925D01*
X54672Y-14925D01*
X54697Y-14900D01*
X54770Y-14726D01*
X54770Y-14537D01*
X54770Y-14025D01*
X54759Y-14000D01*
X54770Y-13976D01*
X54770Y-13975D01*
X55053Y-13975D01*
X55078Y-14000D01*
G54D10*
G36*
X55078Y-17500D02*
X55048Y-17531D01*
X54975Y-17705D01*
X54975Y-17894D01*
X54975Y-18425D01*
X54850Y-18425D01*
X54672Y-18425D01*
X54697Y-18400D01*
X54770Y-18226D01*
X54770Y-18037D01*
X54770Y-17525D01*
X54759Y-17500D01*
X54770Y-17476D01*
X54770Y-17475D01*
X55053Y-17475D01*
X55078Y-17500D01*
X55078Y-17500D01*
G37*
G54D23*
X55078Y-17500D02*
X55048Y-17531D01*
X54975Y-17705D01*
X54975Y-17894D01*
X54975Y-18425D01*
X54850Y-18425D01*
X54672Y-18425D01*
X54697Y-18400D01*
X54770Y-18226D01*
X54770Y-18037D01*
X54770Y-17525D01*
X54759Y-17500D01*
X54770Y-17476D01*
X54770Y-17475D01*
X55053Y-17475D01*
X55078Y-17500D01*
G54D10*
G36*
X55153Y-12725D02*
X55053Y-12825D01*
X54225Y-12825D01*
X54005Y-12869D01*
X53967Y-12894D01*
X53611Y-12894D01*
X53436Y-12966D01*
X53303Y-13100D01*
X53230Y-13274D01*
X53230Y-13463D01*
X53230Y-13975D01*
X53240Y-13999D01*
X53230Y-14024D01*
X53230Y-14025D01*
X52946Y-14025D01*
X52921Y-13999D01*
X52952Y-13969D01*
X53025Y-13795D01*
X53025Y-13606D01*
X53025Y-13006D01*
X52953Y-12831D01*
X52846Y-12725D01*
X55153Y-12725D01*
X55153Y-12725D01*
G37*
G54D23*
X55153Y-12725D02*
X55053Y-12825D01*
X54225Y-12825D01*
X54005Y-12869D01*
X53967Y-12894D01*
X53611Y-12894D01*
X53436Y-12966D01*
X53303Y-13100D01*
X53230Y-13274D01*
X53230Y-13463D01*
X53230Y-13975D01*
X53240Y-13999D01*
X53230Y-14024D01*
X53230Y-14025D01*
X52946Y-14025D01*
X52921Y-13999D01*
X52952Y-13969D01*
X53025Y-13795D01*
X53025Y-13606D01*
X53025Y-13006D01*
X52953Y-12831D01*
X52846Y-12725D01*
X55153Y-12725D01*
G54D10*
G36*
X57125Y-18336D02*
X57036Y-18425D01*
X57025Y-18425D01*
X57025Y-18306D01*
X57025Y-17706D01*
X56953Y-17531D01*
X56921Y-17499D01*
X56952Y-17469D01*
X57025Y-17295D01*
X57025Y-17106D01*
X57025Y-16506D01*
X56953Y-16331D01*
X56819Y-16198D01*
X56645Y-16125D01*
X56456Y-16125D01*
X55356Y-16125D01*
X55181Y-16197D01*
X55053Y-16325D01*
X54225Y-16325D01*
X54005Y-16369D01*
X53967Y-16394D01*
X53611Y-16394D01*
X53436Y-16466D01*
X53303Y-16600D01*
X53230Y-16774D01*
X53230Y-16963D01*
X53230Y-17475D01*
X53240Y-17499D01*
X53230Y-17524D01*
X53230Y-17525D01*
X52946Y-17525D01*
X52921Y-17499D01*
X52952Y-17469D01*
X53025Y-17295D01*
X53025Y-17106D01*
X53025Y-16506D01*
X52953Y-16331D01*
X52819Y-16198D01*
X52645Y-16125D01*
X52575Y-16125D01*
X52575Y-16075D01*
X56000Y-16075D01*
X57061Y-16075D01*
X57125Y-16138D01*
X57125Y-18336D01*
X57125Y-18336D01*
G37*
G54D23*
X57125Y-18336D02*
X57036Y-18425D01*
X57025Y-18425D01*
X57025Y-18306D01*
X57025Y-17706D01*
X56953Y-17531D01*
X56921Y-17499D01*
X56952Y-17469D01*
X57025Y-17295D01*
X57025Y-17106D01*
X57025Y-16506D01*
X56953Y-16331D01*
X56819Y-16198D01*
X56645Y-16125D01*
X56456Y-16125D01*
X55356Y-16125D01*
X55181Y-16197D01*
X55053Y-16325D01*
X54225Y-16325D01*
X54005Y-16369D01*
X53967Y-16394D01*
X53611Y-16394D01*
X53436Y-16466D01*
X53303Y-16600D01*
X53230Y-16774D01*
X53230Y-16963D01*
X53230Y-17475D01*
X53240Y-17499D01*
X53230Y-17524D01*
X53230Y-17525D01*
X52946Y-17525D01*
X52921Y-17499D01*
X52952Y-17469D01*
X53025Y-17295D01*
X53025Y-17106D01*
X53025Y-16506D01*
X52953Y-16331D01*
X52819Y-16198D01*
X52645Y-16125D01*
X52575Y-16125D01*
X52575Y-16075D01*
X56000Y-16075D01*
X57061Y-16075D01*
X57125Y-16138D01*
X57125Y-18336D01*
G54D10*
G36*
X59950Y-13665D02*
X59711Y-13426D01*
X59169Y-13201D01*
X58583Y-13201D01*
X58041Y-13425D01*
X57626Y-13839D01*
X57401Y-14381D01*
X57401Y-14944D01*
X57300Y-14924D01*
X57295Y-14925D01*
X57025Y-14925D01*
X57025Y-14806D01*
X57025Y-14206D01*
X56953Y-14031D01*
X56921Y-13999D01*
X56952Y-13969D01*
X57025Y-13795D01*
X57025Y-13606D01*
X57025Y-13006D01*
X56953Y-12831D01*
X56846Y-12725D01*
X59653Y-12725D01*
X59950Y-13022D01*
X59950Y-13665D01*
X59950Y-13665D01*
G37*
G54D23*
X59950Y-13665D02*
X59711Y-13426D01*
X59169Y-13201D01*
X58583Y-13201D01*
X58041Y-13425D01*
X57626Y-13839D01*
X57401Y-14381D01*
X57401Y-14944D01*
X57300Y-14924D01*
X57295Y-14925D01*
X57025Y-14925D01*
X57025Y-14806D01*
X57025Y-14206D01*
X56953Y-14031D01*
X56921Y-13999D01*
X56952Y-13969D01*
X57025Y-13795D01*
X57025Y-13606D01*
X57025Y-13006D01*
X56953Y-12831D01*
X56846Y-12725D01*
X59653Y-12725D01*
X59950Y-13022D01*
X59950Y-13665D01*
G54D10*
G36*
X59950Y-22665D02*
X59711Y-22426D01*
X59169Y-22201D01*
X58583Y-22201D01*
X58041Y-22425D01*
X57626Y-22839D01*
X57401Y-23381D01*
X57401Y-23967D01*
X57625Y-24509D01*
X57740Y-24625D01*
X43775Y-24625D01*
X43791Y-24545D01*
X43800Y-24501D01*
X43799Y-24500D01*
X43800Y-24500D01*
X43800Y-24325D01*
X43969Y-24325D01*
X44669Y-24325D01*
X44844Y-24253D01*
X44856Y-24240D01*
X45060Y-24325D01*
X45388Y-24325D01*
X45691Y-24200D01*
X45724Y-24166D01*
X45757Y-24199D01*
X46060Y-24325D01*
X46388Y-24325D01*
X46593Y-24240D01*
X46606Y-24252D01*
X46780Y-24325D01*
X46969Y-24325D01*
X47669Y-24325D01*
X47844Y-24253D01*
X47856Y-24240D01*
X48060Y-24325D01*
X48388Y-24325D01*
X48691Y-24200D01*
X48724Y-24166D01*
X48757Y-24199D01*
X49060Y-24325D01*
X49388Y-24325D01*
X49593Y-24240D01*
X49606Y-24252D01*
X49780Y-24325D01*
X49969Y-24325D01*
X50669Y-24325D01*
X50844Y-24253D01*
X50856Y-24240D01*
X51060Y-24325D01*
X51388Y-24325D01*
X51691Y-24200D01*
X51724Y-24166D01*
X51757Y-24199D01*
X52060Y-24325D01*
X52388Y-24325D01*
X52593Y-24240D01*
X52606Y-24252D01*
X52780Y-24325D01*
X52969Y-24325D01*
X53669Y-24325D01*
X53844Y-24253D01*
X53977Y-24119D01*
X53995Y-24075D01*
X54545Y-24075D01*
X54550Y-24076D01*
X54550Y-24075D01*
X54770Y-24031D01*
X54957Y-23907D01*
X55254Y-23608D01*
X55256Y-23607D01*
X55257Y-23607D01*
X55381Y-23420D01*
X55425Y-23200D01*
X55425Y-19575D01*
X56000Y-19575D01*
X57270Y-19575D01*
X57275Y-19576D01*
X57275Y-19575D01*
X57495Y-19531D01*
X57682Y-19407D01*
X58107Y-18982D01*
X58231Y-18795D01*
X58275Y-18575D01*
X58276Y-18575D01*
X58275Y-18570D01*
X58275Y-16021D01*
X58581Y-16149D01*
X59167Y-16149D01*
X59709Y-15925D01*
X59950Y-15684D01*
X59950Y-22665D01*
X59950Y-22665D01*
G37*
G54D23*
X59950Y-22665D02*
X59711Y-22426D01*
X59169Y-22201D01*
X58583Y-22201D01*
X58041Y-22425D01*
X57626Y-22839D01*
X57401Y-23381D01*
X57401Y-23967D01*
X57625Y-24509D01*
X57740Y-24625D01*
X43775Y-24625D01*
X43791Y-24545D01*
X43800Y-24501D01*
X43799Y-24500D01*
X43800Y-24500D01*
X43800Y-24325D01*
X43969Y-24325D01*
X44669Y-24325D01*
X44844Y-24253D01*
X44856Y-24240D01*
X45060Y-24325D01*
X45388Y-24325D01*
X45691Y-24200D01*
X45724Y-24166D01*
X45757Y-24199D01*
X46060Y-24325D01*
X46388Y-24325D01*
X46593Y-24240D01*
X46606Y-24252D01*
X46780Y-24325D01*
X46969Y-24325D01*
X47669Y-24325D01*
X47844Y-24253D01*
X47856Y-24240D01*
X48060Y-24325D01*
X48388Y-24325D01*
X48691Y-24200D01*
X48724Y-24166D01*
X48757Y-24199D01*
X49060Y-24325D01*
X49388Y-24325D01*
X49593Y-24240D01*
X49606Y-24252D01*
X49780Y-24325D01*
X49969Y-24325D01*
X50669Y-24325D01*
X50844Y-24253D01*
X50856Y-24240D01*
X51060Y-24325D01*
X51388Y-24325D01*
X51691Y-24200D01*
X51724Y-24166D01*
X51757Y-24199D01*
X52060Y-24325D01*
X52388Y-24325D01*
X52593Y-24240D01*
X52606Y-24252D01*
X52780Y-24325D01*
X52969Y-24325D01*
X53669Y-24325D01*
X53844Y-24253D01*
X53977Y-24119D01*
X53995Y-24075D01*
X54545Y-24075D01*
X54550Y-24076D01*
X54550Y-24075D01*
X54770Y-24031D01*
X54957Y-23907D01*
X55254Y-23608D01*
X55256Y-23607D01*
X55257Y-23607D01*
X55381Y-23420D01*
X55425Y-23200D01*
X55425Y-19575D01*
X56000Y-19575D01*
X57270Y-19575D01*
X57275Y-19576D01*
X57275Y-19575D01*
X57495Y-19531D01*
X57682Y-19407D01*
X58107Y-18982D01*
X58231Y-18795D01*
X58275Y-18575D01*
X58276Y-18575D01*
X58275Y-18570D01*
X58275Y-16021D01*
X58581Y-16149D01*
X59167Y-16149D01*
X59709Y-15925D01*
X59950Y-15684D01*
X59950Y-22665D01*
M02*
