G04 (created by PCBNEW-RS274X (2011-12-28 BZR 3254)-stable) date 5/29/2012 12:18:18 PM*
G01*
G70*
G90*
%MOIN*%
G04 Gerber Fmt 3.4, Leading zero omitted, Abs format*
%FSLAX34Y34*%
G04 APERTURE LIST*
%ADD10C,0.006000*%
%ADD11C,0.015000*%
%ADD12R,0.130000X0.080000*%
%ADD13R,0.079000X0.071200*%
%ADD14R,0.071200X0.079000*%
%ADD15R,0.076000X0.062000*%
%ADD16R,0.090000X0.090000*%
%ADD17C,0.090000*%
%ADD18R,0.094000X0.094000*%
%ADD19R,0.064000X0.094000*%
%ADD20R,0.284000X0.094000*%
%ADD21C,0.220000*%
G04 APERTURE END LIST*
G54D10*
G54D11*
X58000Y-12175D02*
X58000Y-25175D01*
X25500Y-25175D02*
X25500Y-12175D01*
X25500Y-12175D02*
X58000Y-12175D01*
X25500Y-25175D02*
X58000Y-25175D01*
G54D12*
X28500Y-14600D03*
X28500Y-13400D03*
X28500Y-16900D03*
X28500Y-18100D03*
X31500Y-14600D03*
X31500Y-13400D03*
X31500Y-16900D03*
X31500Y-18100D03*
X34500Y-14600D03*
X34500Y-13400D03*
X34500Y-16900D03*
X34500Y-18100D03*
X37500Y-16900D03*
X37500Y-18100D03*
X37500Y-14600D03*
X37500Y-13400D03*
X52500Y-14600D03*
X52500Y-13400D03*
X52500Y-16900D03*
X52500Y-18100D03*
X49500Y-16900D03*
X49500Y-18100D03*
X49500Y-14600D03*
X49500Y-13400D03*
X46500Y-16900D03*
X46500Y-18100D03*
X46500Y-14600D03*
X46500Y-13400D03*
X43500Y-16900D03*
X43500Y-18100D03*
X43500Y-14600D03*
X43500Y-13400D03*
G54D13*
X30000Y-14025D03*
X30000Y-13275D03*
X33000Y-14025D03*
X33000Y-13275D03*
X36000Y-14025D03*
X36000Y-13275D03*
X39000Y-14025D03*
X39000Y-13275D03*
X45000Y-14025D03*
X45000Y-13275D03*
X48000Y-14025D03*
X48000Y-13275D03*
X51000Y-14025D03*
X51000Y-13275D03*
X54000Y-14025D03*
X54000Y-13275D03*
G54D14*
X35765Y-23260D03*
X36515Y-23260D03*
G54D15*
X41925Y-22700D03*
X41925Y-23500D03*
G54D16*
X44225Y-23500D03*
G54D17*
X45225Y-23500D03*
X46225Y-23500D03*
X46225Y-22500D03*
X45225Y-22500D03*
X44225Y-22500D03*
G54D16*
X47225Y-23500D03*
G54D17*
X48225Y-23500D03*
X49225Y-23500D03*
X49225Y-22500D03*
X48225Y-22500D03*
X47225Y-22500D03*
G54D18*
X37890Y-23245D03*
G54D19*
X38950Y-23245D03*
G54D18*
X40010Y-23245D03*
G54D20*
X38950Y-20805D03*
G54D21*
X27150Y-21750D03*
G54D16*
X53225Y-23500D03*
G54D17*
X53225Y-22500D03*
G54D16*
X43225Y-23500D03*
G54D17*
X43225Y-22500D03*
X43225Y-21500D03*
G54D16*
X36000Y-20500D03*
G54D17*
X36000Y-19500D03*
X30500Y-24450D03*
G54D16*
X50225Y-23500D03*
G54D17*
X51225Y-23500D03*
X52225Y-23500D03*
X52225Y-22500D03*
X51225Y-22500D03*
X50225Y-22500D03*
G54D12*
X40500Y-14600D03*
X40500Y-13400D03*
X55500Y-14600D03*
X55500Y-13400D03*
X40500Y-16900D03*
X40500Y-18100D03*
X55500Y-16900D03*
X55500Y-18100D03*
G54D13*
X42000Y-14025D03*
X42000Y-13275D03*
X30000Y-17475D03*
X30000Y-18225D03*
X33000Y-17475D03*
X33000Y-18225D03*
X36000Y-17475D03*
X36000Y-18225D03*
X39000Y-17475D03*
X39000Y-18225D03*
X42000Y-17475D03*
X42000Y-18225D03*
X45000Y-17475D03*
X45000Y-18225D03*
X48000Y-17475D03*
X48000Y-18225D03*
X51000Y-17475D03*
X51000Y-18225D03*
X54000Y-17475D03*
X54000Y-18225D03*
X56900Y-18100D03*
X56900Y-17350D03*
X56900Y-13400D03*
X56900Y-14150D03*
M02*
