G04 (created by PCBNEW-RS274X (2012-01-19 BZR 3256)-stable) date 1/2/2013 1:58:14 PM*
G01*
G70*
G90*
%MOIN*%
G04 Gerber Fmt 3.4, Leading zero omitted, Abs format*
%FSLAX34Y34*%
G04 APERTURE LIST*
%ADD10C,0.006000*%
%ADD11C,0.005000*%
%ADD12C,0.060000*%
%ADD13R,0.060000X0.060000*%
%ADD14C,0.240000*%
%ADD15C,0.070000*%
%ADD16R,0.070000X0.070000*%
%ADD17R,0.080000X0.150000*%
%ADD18R,0.080000X0.060000*%
%ADD19C,0.150000*%
%ADD20O,0.060000X0.090000*%
%ADD21R,0.060000X0.090000*%
%ADD22O,0.180000X0.120000*%
%ADD23R,0.180000X0.120000*%
%ADD24O,0.120000X0.180000*%
%ADD25R,0.016500X0.057900*%
%ADD26R,0.072500X0.024000*%
%ADD27R,0.066000X0.024000*%
%ADD28O,0.360000X0.180000*%
%ADD29R,0.024000X0.120000*%
%ADD30R,0.023500X0.061000*%
%ADD31R,0.012000X0.063000*%
%ADD32R,0.056000X0.042000*%
%ADD33C,0.100000*%
%ADD34C,0.160000*%
%ADD35O,0.060000X0.120000*%
%ADD36R,0.400000X0.100000*%
%ADD37R,0.016000X0.023500*%
%ADD38R,0.095000X0.060000*%
%ADD39C,0.080000*%
%ADD40C,0.035000*%
%ADD41C,0.020000*%
%ADD42C,0.010000*%
%ADD43C,0.015000*%
G04 APERTURE END LIST*
G54D10*
G54D11*
X75325Y-30150D02*
X75357Y-30148D01*
X75390Y-30144D01*
X75422Y-30137D01*
X75453Y-30127D01*
X75483Y-30114D01*
X75512Y-30099D01*
X75540Y-30082D01*
X75566Y-30062D01*
X75590Y-30040D01*
X75612Y-30016D01*
X75632Y-29990D01*
X75649Y-29962D01*
X75664Y-29933D01*
X75677Y-29903D01*
X75687Y-29872D01*
X75694Y-29840D01*
X75698Y-29807D01*
X75700Y-29775D01*
X74950Y-29775D02*
X74952Y-29807D01*
X74956Y-29840D01*
X74963Y-29872D01*
X74973Y-29903D01*
X74986Y-29933D01*
X75001Y-29962D01*
X75018Y-29990D01*
X75038Y-30016D01*
X75060Y-30040D01*
X75084Y-30062D01*
X75110Y-30082D01*
X75138Y-30099D01*
X75167Y-30114D01*
X75197Y-30127D01*
X75228Y-30137D01*
X75260Y-30144D01*
X75293Y-30148D01*
X75325Y-30150D01*
X75700Y-32525D02*
X75698Y-32493D01*
X75694Y-32460D01*
X75687Y-32428D01*
X75677Y-32397D01*
X75664Y-32367D01*
X75649Y-32338D01*
X75632Y-32310D01*
X75612Y-32284D01*
X75590Y-32260D01*
X75566Y-32238D01*
X75540Y-32218D01*
X75512Y-32201D01*
X75483Y-32186D01*
X75453Y-32173D01*
X75422Y-32163D01*
X75390Y-32156D01*
X75357Y-32152D01*
X75325Y-32150D01*
X75325Y-32150D02*
X75293Y-32152D01*
X75260Y-32156D01*
X75228Y-32163D01*
X75197Y-32173D01*
X75167Y-32186D01*
X75138Y-32201D01*
X75110Y-32218D01*
X75084Y-32238D01*
X75060Y-32260D01*
X75038Y-32284D01*
X75018Y-32310D01*
X75001Y-32338D01*
X74986Y-32367D01*
X74973Y-32397D01*
X74963Y-32428D01*
X74956Y-32460D01*
X74952Y-32493D01*
X74950Y-32525D01*
X87000Y-38875D02*
X87002Y-38907D01*
X87006Y-38940D01*
X87013Y-38972D01*
X87023Y-39003D01*
X87036Y-39033D01*
X87051Y-39062D01*
X87068Y-39090D01*
X87088Y-39116D01*
X87110Y-39140D01*
X87134Y-39162D01*
X87160Y-39182D01*
X87188Y-39199D01*
X87217Y-39214D01*
X87247Y-39227D01*
X87278Y-39237D01*
X87310Y-39244D01*
X87343Y-39248D01*
X87375Y-39250D01*
X87375Y-38500D02*
X87343Y-38502D01*
X87310Y-38506D01*
X87278Y-38513D01*
X87247Y-38523D01*
X87217Y-38536D01*
X87188Y-38551D01*
X87160Y-38568D01*
X87134Y-38588D01*
X87110Y-38610D01*
X87088Y-38634D01*
X87068Y-38660D01*
X87051Y-38688D01*
X87036Y-38717D01*
X87023Y-38747D01*
X87013Y-38778D01*
X87006Y-38810D01*
X87002Y-38843D01*
X87000Y-38875D01*
X86500Y-38875D02*
X86498Y-38843D01*
X86494Y-38810D01*
X86487Y-38778D01*
X86477Y-38747D01*
X86464Y-38717D01*
X86449Y-38688D01*
X86432Y-38660D01*
X86412Y-38634D01*
X86390Y-38610D01*
X86366Y-38588D01*
X86340Y-38568D01*
X86312Y-38551D01*
X86283Y-38536D01*
X86253Y-38523D01*
X86222Y-38513D01*
X86190Y-38506D01*
X86157Y-38502D01*
X86125Y-38500D01*
X86125Y-39250D02*
X86157Y-39248D01*
X86190Y-39244D01*
X86222Y-39237D01*
X86253Y-39227D01*
X86283Y-39214D01*
X86312Y-39199D01*
X86340Y-39182D01*
X86366Y-39162D01*
X86390Y-39140D01*
X86412Y-39116D01*
X86432Y-39090D01*
X86449Y-39062D01*
X86464Y-39033D01*
X86477Y-39003D01*
X86487Y-38972D01*
X86494Y-38940D01*
X86498Y-38907D01*
X86500Y-38875D01*
X87000Y-25025D02*
X87002Y-25057D01*
X87006Y-25090D01*
X87013Y-25122D01*
X87023Y-25153D01*
X87036Y-25183D01*
X87051Y-25212D01*
X87068Y-25240D01*
X87088Y-25266D01*
X87110Y-25290D01*
X87134Y-25312D01*
X87160Y-25332D01*
X87188Y-25349D01*
X87217Y-25364D01*
X87247Y-25377D01*
X87278Y-25387D01*
X87310Y-25394D01*
X87343Y-25398D01*
X87375Y-25400D01*
X87375Y-24650D02*
X87343Y-24652D01*
X87310Y-24656D01*
X87278Y-24663D01*
X87247Y-24673D01*
X87217Y-24686D01*
X87188Y-24701D01*
X87160Y-24718D01*
X87134Y-24738D01*
X87110Y-24760D01*
X87088Y-24784D01*
X87068Y-24810D01*
X87051Y-24838D01*
X87036Y-24867D01*
X87023Y-24897D01*
X87013Y-24928D01*
X87006Y-24960D01*
X87002Y-24993D01*
X87000Y-25025D01*
X86500Y-25025D02*
X86498Y-24993D01*
X86494Y-24960D01*
X86487Y-24928D01*
X86477Y-24897D01*
X86464Y-24867D01*
X86449Y-24838D01*
X86432Y-24810D01*
X86412Y-24784D01*
X86390Y-24760D01*
X86366Y-24738D01*
X86340Y-24718D01*
X86312Y-24701D01*
X86283Y-24686D01*
X86253Y-24673D01*
X86222Y-24663D01*
X86190Y-24656D01*
X86157Y-24652D01*
X86125Y-24650D01*
X86125Y-25400D02*
X86157Y-25398D01*
X86190Y-25394D01*
X86222Y-25387D01*
X86253Y-25377D01*
X86283Y-25364D01*
X86312Y-25349D01*
X86340Y-25332D01*
X86366Y-25312D01*
X86390Y-25290D01*
X86412Y-25266D01*
X86432Y-25240D01*
X86449Y-25212D01*
X86464Y-25183D01*
X86477Y-25153D01*
X86487Y-25122D01*
X86494Y-25090D01*
X86498Y-25057D01*
X86500Y-25025D01*
X87375Y-25400D02*
X87500Y-25400D01*
X87375Y-24650D02*
X87500Y-24650D01*
X87375Y-38500D02*
X87500Y-38500D01*
X87375Y-39250D02*
X87500Y-39250D01*
X75700Y-38500D02*
X75700Y-32525D01*
X74950Y-32525D02*
X74950Y-39250D01*
X75700Y-29775D02*
X75700Y-25400D01*
X74950Y-24650D02*
X74950Y-29775D01*
X12500Y-70000D02*
X87500Y-70000D01*
X12500Y-70000D02*
X12500Y-10000D01*
X87500Y-39250D02*
X87500Y-70000D01*
X74950Y-39250D02*
X86125Y-39250D01*
X86125Y-24650D02*
X74950Y-24650D01*
X87500Y-10000D02*
X87500Y-24650D01*
X12500Y-10000D02*
X87500Y-10000D01*
X86125Y-38500D02*
X75700Y-38500D01*
X75700Y-25400D02*
X86125Y-25400D01*
X87500Y-25400D02*
X87500Y-38500D01*
G54D12*
X59975Y-44600D03*
G54D13*
X58975Y-44600D03*
G54D12*
X56175Y-57375D03*
G54D13*
X55175Y-57375D03*
G54D12*
X56175Y-50425D03*
G54D13*
X55175Y-50425D03*
G54D12*
X66850Y-61900D03*
X64850Y-61900D03*
X60800Y-61900D03*
X62800Y-61900D03*
X80000Y-61550D03*
X80000Y-59550D03*
X52700Y-57900D03*
X52700Y-59900D03*
X52700Y-51400D03*
X52700Y-53400D03*
X57525Y-44600D03*
X57525Y-46600D03*
X48975Y-44975D03*
X46975Y-44975D03*
X48975Y-41200D03*
X46975Y-41200D03*
X78500Y-43075D03*
X80500Y-43075D03*
X49975Y-42575D03*
X47975Y-42575D03*
X77825Y-64700D03*
X75825Y-64700D03*
X50600Y-57900D03*
X48600Y-57900D03*
X73325Y-64700D03*
X71325Y-64700D03*
X51200Y-48900D03*
X49200Y-48900D03*
X51200Y-50225D03*
X49200Y-50225D03*
X82325Y-64700D03*
X80325Y-64700D03*
X41200Y-65100D03*
X41200Y-63100D03*
X71500Y-46900D03*
X71500Y-44900D03*
X63400Y-45875D03*
X63400Y-46875D03*
X65400Y-45875D03*
X65400Y-46875D03*
X67400Y-46260D03*
X67400Y-48260D03*
G54D14*
X63425Y-55025D03*
X84950Y-65075D03*
G54D15*
X67825Y-66200D03*
X68825Y-66200D03*
G54D16*
X69825Y-66200D03*
G54D15*
X75825Y-66200D03*
X76825Y-66200D03*
X77825Y-66200D03*
G54D16*
X78825Y-66200D03*
G54D15*
X71325Y-66200D03*
X72325Y-66200D03*
X73325Y-66200D03*
G54D16*
X74325Y-66200D03*
G54D15*
X80325Y-66200D03*
X81325Y-66200D03*
G54D16*
X82325Y-66200D03*
G54D17*
X57675Y-60700D03*
G54D18*
X55175Y-60700D03*
X55175Y-61600D03*
X55175Y-59800D03*
G54D19*
X82700Y-56950D03*
X82700Y-48650D03*
G54D14*
X17250Y-14200D03*
X23250Y-14200D03*
X23250Y-60200D03*
X17250Y-60200D03*
X16725Y-39575D03*
X23775Y-39575D03*
X23775Y-46625D03*
X16725Y-46625D03*
G54D13*
X26550Y-44600D03*
G54D12*
X26550Y-43600D03*
X26550Y-42600D03*
X26550Y-41600D03*
G54D13*
X43700Y-41600D03*
G54D12*
X43700Y-42600D03*
X43700Y-43600D03*
X43700Y-44600D03*
G54D20*
X72400Y-49900D03*
X71400Y-49900D03*
X70400Y-49900D03*
X69400Y-49900D03*
X68400Y-49900D03*
X67400Y-49900D03*
G54D21*
X66400Y-49900D03*
G54D20*
X65400Y-49900D03*
X64400Y-49900D03*
X63400Y-49900D03*
X62400Y-49900D03*
X61400Y-49900D03*
X60400Y-49900D03*
X73400Y-49900D03*
X60400Y-52900D03*
X61400Y-52900D03*
X62400Y-52900D03*
X63400Y-52900D03*
X64400Y-52900D03*
X65400Y-52900D03*
X66400Y-52900D03*
G54D21*
X67400Y-52900D03*
G54D20*
X68400Y-52900D03*
X69400Y-52900D03*
X70400Y-52900D03*
X71400Y-52900D03*
X72400Y-52900D03*
X73400Y-52900D03*
G54D14*
X13825Y-11325D03*
X37675Y-11325D03*
X13825Y-68675D03*
X37675Y-68675D03*
X41325Y-40825D03*
X41325Y-68675D03*
X86175Y-68675D03*
X86175Y-40825D03*
X41325Y-23075D03*
X86175Y-23075D03*
X86175Y-11325D03*
X41325Y-37175D03*
X73375Y-37175D03*
X73375Y-26725D03*
X77025Y-26725D03*
X77025Y-37175D03*
X86175Y-37175D03*
X86175Y-26725D03*
X41325Y-11325D03*
X41325Y-26725D03*
G54D12*
X82100Y-40700D03*
X81100Y-40700D03*
X82100Y-37700D03*
X81100Y-37700D03*
G54D22*
X50000Y-66725D03*
G54D23*
X50000Y-64325D03*
G54D24*
X52000Y-65475D03*
G54D17*
X57675Y-54100D03*
G54D18*
X55175Y-54100D03*
X55175Y-55000D03*
X55175Y-53200D03*
G54D25*
X63572Y-66052D03*
X63828Y-66052D03*
X64084Y-66052D03*
X64340Y-66052D03*
X62804Y-63848D03*
X62804Y-66052D03*
X63060Y-66052D03*
X63316Y-66052D03*
X64596Y-63848D03*
X64340Y-63848D03*
X64084Y-63848D03*
X63828Y-63848D03*
X63572Y-63848D03*
X63316Y-63848D03*
X64596Y-66052D03*
X63060Y-63848D03*
X62548Y-66052D03*
X64852Y-66052D03*
X64852Y-63848D03*
X62548Y-63848D03*
G54D13*
X46450Y-69025D03*
G54D12*
X44450Y-69025D03*
X45450Y-69025D03*
G54D26*
X67235Y-30930D03*
X67235Y-31330D03*
X67235Y-31730D03*
X67235Y-32130D03*
X67235Y-32530D03*
X67235Y-32930D03*
G54D27*
X65735Y-30930D03*
X65735Y-31330D03*
X65735Y-31730D03*
X65735Y-32130D03*
X65735Y-32530D03*
X65735Y-32930D03*
G54D28*
X52020Y-21980D03*
X52020Y-12420D03*
X75480Y-12420D03*
X75480Y-21980D03*
G54D29*
X46050Y-51700D03*
X45050Y-51700D03*
X44050Y-51700D03*
X43050Y-51700D03*
X43050Y-57500D03*
X44050Y-57500D03*
X45050Y-57500D03*
X46050Y-57500D03*
X43550Y-67000D03*
X44550Y-67000D03*
X45550Y-67000D03*
X45550Y-61200D03*
X44550Y-61200D03*
X43550Y-61200D03*
G54D13*
X69100Y-29450D03*
X69100Y-30450D03*
G54D12*
X69100Y-31450D03*
X69100Y-32450D03*
X69100Y-33450D03*
X69100Y-34450D03*
G54D13*
X56100Y-45600D03*
X56100Y-44600D03*
G54D12*
X56100Y-43600D03*
X56100Y-42600D03*
X56100Y-41600D03*
X56100Y-40600D03*
G54D13*
X84000Y-43075D03*
G54D12*
X85000Y-43075D03*
X86000Y-43075D03*
G54D30*
X49800Y-53960D03*
X50300Y-53960D03*
X50800Y-53960D03*
X49800Y-51840D03*
X48300Y-53960D03*
X48800Y-53960D03*
X49300Y-53960D03*
X48800Y-51840D03*
X48300Y-51840D03*
X47800Y-51840D03*
X50300Y-51840D03*
X47800Y-53960D03*
X50800Y-51840D03*
X49300Y-51840D03*
G54D31*
X45270Y-43770D03*
X45530Y-43770D03*
X45790Y-43770D03*
X45010Y-43770D03*
X45790Y-42430D03*
X45530Y-42430D03*
X45270Y-42430D03*
X45010Y-42430D03*
G54D13*
X76500Y-43300D03*
X75500Y-43300D03*
G54D12*
X74500Y-43300D03*
X73500Y-43300D03*
X72500Y-43300D03*
X71500Y-43300D03*
X76575Y-57625D03*
X75575Y-57625D03*
X74575Y-57625D03*
X73575Y-57625D03*
X72575Y-57625D03*
X71575Y-57625D03*
X76575Y-58625D03*
X75575Y-58625D03*
X74575Y-58625D03*
X73575Y-58625D03*
X72575Y-58625D03*
X71575Y-58625D03*
X65400Y-57625D03*
X66400Y-57625D03*
X67400Y-57625D03*
X54325Y-68025D03*
X54325Y-69025D03*
X55325Y-68025D03*
X55325Y-69025D03*
X56325Y-68025D03*
G54D13*
X56325Y-69025D03*
G54D12*
X57325Y-68025D03*
X57325Y-69025D03*
X58325Y-68025D03*
X58325Y-69025D03*
X59325Y-68025D03*
X59325Y-69025D03*
X60325Y-68025D03*
X60325Y-69025D03*
X61325Y-68025D03*
X61325Y-69025D03*
X62325Y-68025D03*
X62325Y-69025D03*
X63325Y-68025D03*
X63325Y-69025D03*
X64325Y-68025D03*
X64325Y-69025D03*
X65325Y-68025D03*
X65325Y-69025D03*
X66325Y-68025D03*
X66325Y-69025D03*
X43700Y-47900D03*
X43700Y-46900D03*
X44700Y-47900D03*
X44700Y-46900D03*
X45700Y-47900D03*
G54D13*
X45700Y-46900D03*
G54D12*
X86500Y-59150D03*
X86500Y-60150D03*
X86500Y-61150D03*
G54D15*
X54500Y-40300D03*
X54500Y-43300D03*
X54500Y-47400D03*
X54500Y-44400D03*
X77500Y-41975D03*
X81500Y-41975D03*
X47900Y-63200D03*
X47900Y-59200D03*
G54D12*
X53900Y-52400D03*
X53900Y-53400D03*
X53900Y-58900D03*
X53900Y-59900D03*
G54D32*
X18975Y-42700D03*
X18975Y-43500D03*
G54D12*
X74150Y-28650D03*
X74150Y-29650D03*
X74150Y-30650D03*
X74150Y-31650D03*
X74150Y-32650D03*
X74150Y-33650D03*
X73150Y-33650D03*
X73150Y-32650D03*
X73150Y-31650D03*
X73150Y-30650D03*
X73150Y-29650D03*
X73150Y-28650D03*
X76575Y-59625D03*
X75575Y-59625D03*
X74575Y-59625D03*
X71575Y-59625D03*
X72575Y-59625D03*
X73575Y-59625D03*
X69575Y-59625D03*
G54D13*
X68575Y-59625D03*
X67575Y-59625D03*
G54D12*
X65575Y-59625D03*
X64575Y-59625D03*
X76575Y-40625D03*
X75575Y-40625D03*
X74575Y-40625D03*
X73575Y-40625D03*
X72575Y-40625D03*
X71575Y-40625D03*
X70575Y-40625D03*
X69575Y-40625D03*
X67975Y-40625D03*
X66975Y-40625D03*
X65975Y-40625D03*
X64975Y-40625D03*
X63975Y-40625D03*
X62975Y-40625D03*
G54D13*
X61975Y-40625D03*
G54D12*
X60975Y-40625D03*
X66575Y-59625D03*
X63575Y-59625D03*
X62575Y-59625D03*
X59975Y-40625D03*
X58975Y-40625D03*
X56175Y-65475D03*
G54D13*
X55175Y-65475D03*
G54D19*
X48450Y-30550D03*
X48450Y-33350D03*
X55950Y-33350D03*
X55950Y-30550D03*
X46100Y-29700D03*
X46100Y-34200D03*
X48450Y-29250D03*
X48450Y-34650D03*
X59050Y-34650D03*
X59050Y-29250D03*
G54D12*
X52100Y-46400D03*
X52100Y-45610D03*
X52100Y-44820D03*
X52100Y-44030D03*
X52100Y-43240D03*
X52100Y-42450D03*
X52100Y-41660D03*
X52100Y-40870D03*
X82460Y-36300D03*
X84040Y-36300D03*
G54D33*
X81850Y-28550D03*
X84650Y-28550D03*
G54D34*
X84830Y-34950D03*
X81670Y-34950D03*
G54D12*
X57500Y-65875D03*
X57500Y-64875D03*
X69825Y-64700D03*
X68825Y-64700D03*
X61125Y-43600D03*
X62125Y-43600D03*
X56675Y-58650D03*
X57675Y-58650D03*
X56675Y-51850D03*
X57675Y-51850D03*
X46975Y-43775D03*
X47975Y-43775D03*
X57525Y-40600D03*
X57525Y-41600D03*
X57525Y-43600D03*
X57525Y-42600D03*
X49600Y-59100D03*
X50600Y-59100D03*
X76075Y-55075D03*
X76075Y-56075D03*
X75075Y-55075D03*
X75075Y-56075D03*
X75180Y-46900D03*
X75180Y-47900D03*
G54D15*
X65400Y-48275D03*
X63400Y-48275D03*
X64400Y-48275D03*
G54D35*
X78500Y-45000D03*
X80500Y-45000D03*
G54D36*
X79500Y-46450D03*
G54D35*
X79500Y-45000D03*
G54D37*
X20650Y-42550D03*
X20250Y-42550D03*
X19850Y-42550D03*
X19850Y-43650D03*
X20250Y-43650D03*
X20650Y-43650D03*
G54D38*
X20250Y-43100D03*
G54D12*
X80725Y-33650D03*
X79725Y-33650D03*
X80725Y-32650D03*
X79725Y-32650D03*
X80725Y-31650D03*
X79725Y-31650D03*
X80725Y-30650D03*
X79725Y-30650D03*
X80725Y-29650D03*
X79725Y-29650D03*
X80725Y-28650D03*
X79725Y-28650D03*
X86775Y-58100D03*
X83775Y-58100D03*
X52700Y-61600D03*
G54D13*
X52700Y-62600D03*
G54D12*
X52700Y-55000D03*
G54D13*
X52700Y-56000D03*
G54D15*
X85700Y-47050D03*
X85700Y-45300D03*
G54D39*
X84700Y-47550D03*
X84700Y-44800D03*
G54D15*
X83150Y-45300D03*
X83150Y-47050D03*
X83900Y-45675D03*
X83900Y-46675D03*
G54D40*
X68900Y-44860D03*
X68900Y-41350D03*
X68575Y-35475D03*
X60400Y-51650D03*
X66975Y-41800D03*
X79250Y-62975D03*
X72575Y-62975D03*
X53500Y-64225D03*
X63475Y-64475D03*
X44040Y-53140D03*
X67180Y-64000D03*
X70400Y-45360D03*
X68400Y-44860D03*
X61400Y-46200D03*
X45000Y-44875D03*
X79450Y-58350D03*
X45325Y-45650D03*
X28650Y-44600D03*
X28650Y-41600D03*
X47840Y-49520D03*
X46560Y-49280D03*
X61900Y-51280D03*
X64975Y-43750D03*
X60400Y-46750D03*
X56850Y-45775D03*
X67975Y-42650D03*
X49300Y-51080D03*
X60900Y-51480D03*
X65975Y-43025D03*
X65600Y-44525D03*
X62900Y-51400D03*
X47300Y-50250D03*
X67980Y-58760D03*
X67980Y-56700D03*
X63320Y-63020D03*
X69940Y-55940D03*
X73325Y-67650D03*
X55380Y-40420D03*
X44500Y-42425D03*
X44500Y-45650D03*
X79625Y-58850D03*
X77225Y-60325D03*
X63640Y-62660D03*
X69540Y-55580D03*
X62475Y-58050D03*
X46950Y-49725D03*
X62125Y-47550D03*
X61850Y-46375D03*
X62250Y-63200D03*
X47800Y-50650D03*
X45375Y-44575D03*
G54D41*
X24700Y-44275D02*
X25775Y-45350D01*
X49200Y-57900D02*
X48600Y-57900D01*
X46050Y-51700D02*
X46050Y-53500D01*
X55175Y-60700D02*
X57675Y-60700D01*
X70975Y-58625D02*
X70750Y-58850D01*
X49875Y-48900D02*
X49200Y-48900D01*
X70750Y-60400D02*
X70500Y-60650D01*
X66025Y-60650D02*
X65575Y-60200D01*
X27425Y-43600D02*
X39375Y-43600D01*
X49200Y-48900D02*
X47875Y-48900D01*
X50800Y-50800D02*
X50200Y-50200D01*
X47875Y-48900D02*
X46360Y-48900D01*
X70500Y-60650D02*
X66025Y-60650D01*
X47875Y-46375D02*
X47875Y-48900D01*
X49600Y-58300D02*
X49200Y-57900D01*
X53900Y-60350D02*
X53900Y-59900D01*
X70750Y-58850D02*
X70750Y-60400D01*
X46975Y-44975D02*
X46975Y-45475D01*
X45530Y-43100D02*
X46725Y-43100D01*
X40125Y-44350D02*
X42450Y-44350D01*
X39375Y-43600D02*
X40125Y-44350D01*
G54D42*
X20250Y-43650D02*
X20250Y-44275D01*
G54D41*
X45530Y-43100D02*
X44200Y-43100D01*
X53900Y-59900D02*
X52700Y-59900D01*
X44200Y-43100D02*
X43700Y-43600D01*
X57675Y-60700D02*
X57675Y-58650D01*
X54250Y-60700D02*
X53900Y-60350D01*
X46510Y-53960D02*
X47800Y-53960D01*
X46050Y-53500D02*
X46510Y-53960D01*
X50200Y-49225D02*
X49875Y-48900D01*
X46725Y-43100D02*
X46975Y-43350D01*
X55175Y-60700D02*
X54250Y-60700D01*
X46975Y-45475D02*
X47875Y-46375D01*
X27425Y-43600D02*
X27425Y-44974D01*
X24700Y-44275D02*
X20250Y-44275D01*
X46975Y-43350D02*
X46975Y-43775D01*
X50800Y-51840D02*
X50800Y-50800D01*
X50200Y-50200D02*
X50200Y-49225D01*
G54D42*
X45530Y-43100D02*
X45530Y-43770D01*
G54D41*
X46050Y-49210D02*
X46050Y-51700D01*
X43200Y-43600D02*
X43700Y-43600D01*
X25775Y-45350D02*
X27049Y-45350D01*
X72575Y-58625D02*
X71575Y-58625D01*
X27425Y-44974D02*
X27049Y-45350D01*
G54D42*
X45530Y-42430D02*
X45530Y-43100D01*
G54D41*
X71575Y-58625D02*
X70975Y-58625D01*
X19075Y-44275D02*
X20250Y-44275D01*
X18975Y-43500D02*
X18975Y-44175D01*
X46360Y-48900D02*
X46050Y-49210D01*
X18975Y-44175D02*
X19075Y-44275D01*
X46975Y-43775D02*
X46975Y-44975D01*
X65575Y-60200D02*
X65575Y-59625D01*
X73575Y-58625D02*
X72575Y-58625D01*
X42450Y-44350D02*
X43200Y-43600D01*
X49600Y-59100D02*
X49600Y-58300D01*
X26550Y-43600D02*
X27425Y-43600D01*
X66400Y-57625D02*
X66400Y-52900D01*
X66400Y-52320D02*
X66780Y-51940D01*
X61225Y-41350D02*
X68900Y-41350D01*
X66780Y-51940D02*
X68160Y-51940D01*
X61225Y-41350D02*
X60975Y-41100D01*
X60975Y-41100D02*
X60975Y-40625D01*
X68160Y-51940D02*
X68900Y-51200D01*
G54D42*
X68900Y-51200D02*
X68900Y-44860D01*
G54D41*
X66400Y-52900D02*
X66400Y-52320D01*
G54D43*
X84040Y-36300D02*
X84040Y-37285D01*
X81500Y-41975D02*
X81500Y-42550D01*
X81500Y-41975D02*
X81500Y-41300D01*
X84040Y-37285D02*
X83625Y-37700D01*
X81500Y-41300D02*
X82100Y-40700D01*
X81500Y-41975D02*
X84275Y-41975D01*
X85000Y-42700D02*
X85000Y-43075D01*
X84275Y-41975D02*
X85000Y-42700D01*
X80975Y-43075D02*
X80500Y-43075D01*
X81500Y-42550D02*
X80975Y-43075D01*
X83625Y-37700D02*
X82100Y-37700D01*
X81100Y-37700D02*
X81100Y-36750D01*
X77500Y-41975D02*
X77500Y-41075D01*
X77875Y-40700D02*
X81100Y-40700D01*
X80725Y-30650D02*
X82425Y-30650D01*
X82425Y-30650D02*
X82750Y-30975D01*
X82750Y-30975D02*
X82750Y-36010D01*
X81550Y-36300D02*
X82460Y-36300D01*
X77500Y-41075D02*
X77875Y-40700D01*
X81100Y-36750D02*
X81550Y-36300D01*
X82750Y-36010D02*
X82460Y-36300D01*
G54D42*
X68700Y-33450D02*
X69100Y-33450D01*
X56100Y-41600D02*
X54825Y-41600D01*
X67235Y-32530D02*
X67780Y-32530D01*
X65735Y-32530D02*
X67235Y-32530D01*
X54825Y-41600D02*
X54500Y-41925D01*
X67780Y-32530D02*
X68700Y-33450D01*
X54500Y-41925D02*
X54500Y-43300D01*
X69825Y-35475D02*
X70075Y-35225D01*
X55275Y-42900D02*
X55275Y-43625D01*
X67235Y-32130D02*
X68380Y-32130D01*
X70075Y-32775D02*
X69750Y-32450D01*
X55275Y-43625D02*
X54500Y-44400D01*
X68575Y-35475D02*
X69825Y-35475D01*
X65735Y-32130D02*
X67235Y-32130D01*
X69750Y-32450D02*
X69100Y-32450D01*
X70075Y-35225D02*
X70075Y-32775D01*
X68700Y-32450D02*
X69100Y-32450D01*
X56100Y-42600D02*
X55575Y-42600D01*
X68380Y-32130D02*
X68700Y-32450D01*
X55575Y-42600D02*
X55275Y-42900D01*
G54D41*
X67820Y-31330D02*
X68700Y-30450D01*
X68700Y-30450D02*
X69100Y-30450D01*
X67235Y-31330D02*
X67820Y-31330D01*
X65735Y-31330D02*
X67235Y-31330D01*
G54D42*
X60575Y-45100D02*
X60575Y-41800D01*
X66975Y-41800D02*
X60575Y-41800D01*
X57950Y-40600D02*
X57525Y-40600D01*
X59800Y-45875D02*
X59800Y-51050D01*
X59800Y-45875D02*
X60575Y-45100D01*
X59150Y-41800D02*
X57950Y-40600D01*
X60575Y-41800D02*
X59150Y-41800D01*
X59800Y-51050D02*
X60400Y-51650D01*
X72575Y-62975D02*
X79250Y-62975D01*
X53500Y-67175D02*
X52925Y-67750D01*
X67660Y-61980D02*
X67660Y-62600D01*
X48150Y-67750D02*
X45975Y-65575D01*
X44550Y-65950D02*
X44550Y-67000D01*
X73575Y-59625D02*
X73575Y-61325D01*
X53500Y-64225D02*
X53500Y-67175D01*
X67660Y-62600D02*
X65655Y-64605D01*
X45975Y-65575D02*
X44925Y-65575D01*
X65655Y-64605D02*
X63605Y-64605D01*
X73300Y-61600D02*
X68040Y-61600D01*
X63605Y-64605D02*
X63475Y-64475D01*
X73575Y-61325D02*
X73300Y-61600D01*
X68040Y-61600D02*
X67660Y-61980D01*
X44925Y-65575D02*
X44550Y-65950D01*
X52925Y-67750D02*
X48150Y-67750D01*
X74575Y-61565D02*
X73820Y-62320D01*
X44040Y-53140D02*
X44050Y-53130D01*
X73820Y-62320D02*
X68860Y-62320D01*
X74575Y-59625D02*
X74575Y-61565D01*
X68860Y-62320D02*
X67180Y-64000D01*
X44050Y-53130D02*
X44050Y-51700D01*
X74260Y-42080D02*
X74575Y-41765D01*
X70400Y-49900D02*
X70400Y-45360D01*
X71940Y-42080D02*
X74260Y-42080D01*
X70400Y-43620D02*
X71940Y-42080D01*
X70400Y-45360D02*
X70400Y-43620D01*
X74575Y-41765D02*
X74575Y-40625D01*
X68400Y-44860D02*
X68400Y-49900D01*
X72305Y-41475D02*
X71649Y-41475D01*
X72575Y-41205D02*
X72305Y-41475D01*
X72575Y-40625D02*
X72575Y-41205D01*
X68400Y-44860D02*
X68400Y-44724D01*
X68400Y-44724D02*
X71649Y-41475D01*
X62400Y-45650D02*
X61950Y-45650D01*
X61400Y-49900D02*
X61400Y-46200D01*
X62400Y-45650D02*
X64650Y-43400D01*
X64650Y-43400D02*
X68225Y-43400D01*
X69575Y-40625D02*
X69575Y-42050D01*
X69575Y-42050D02*
X68225Y-43400D01*
X61950Y-45650D02*
X61400Y-46200D01*
X48300Y-53960D02*
X48300Y-54475D01*
X43050Y-54150D02*
X43050Y-51700D01*
X48200Y-54575D02*
X43475Y-54575D01*
X43475Y-54575D02*
X43050Y-54150D01*
X48300Y-54475D02*
X48200Y-54575D01*
X46500Y-55800D02*
X46050Y-56250D01*
X49275Y-55800D02*
X46500Y-55800D01*
X49800Y-53960D02*
X49800Y-55275D01*
X46050Y-56250D02*
X46050Y-57500D01*
X49800Y-55275D02*
X49275Y-55800D01*
X43500Y-54925D02*
X43050Y-55375D01*
X48575Y-54925D02*
X43500Y-54925D01*
X48800Y-53960D02*
X48800Y-54700D01*
X48800Y-54700D02*
X48575Y-54925D01*
X43050Y-55375D02*
X43050Y-57500D01*
X49300Y-53960D02*
X49300Y-55025D01*
X44675Y-55375D02*
X44050Y-56000D01*
X48950Y-55375D02*
X44675Y-55375D01*
X49300Y-55025D02*
X48950Y-55375D01*
X44050Y-56000D02*
X44050Y-57500D01*
X54200Y-64075D02*
X61575Y-64075D01*
X68325Y-65250D02*
X70400Y-65250D01*
X45125Y-59800D02*
X41925Y-59800D01*
X78500Y-55075D02*
X76075Y-55075D01*
X71400Y-67175D02*
X72325Y-67175D01*
X72325Y-67175D02*
X76475Y-67175D01*
X63175Y-64895D02*
X67970Y-64895D01*
X76825Y-66825D02*
X76825Y-66200D01*
X63060Y-63848D02*
X63060Y-64780D01*
X79450Y-56025D02*
X78500Y-55075D01*
X45850Y-62300D02*
X45550Y-62000D01*
X45000Y-44875D02*
X45010Y-44865D01*
X62115Y-62820D02*
X61900Y-63035D01*
X63060Y-64780D02*
X63175Y-64895D01*
X52400Y-63600D02*
X51100Y-62300D01*
X45550Y-60225D02*
X45125Y-59800D01*
X70725Y-65575D02*
X70725Y-66500D01*
X61575Y-64075D02*
X61900Y-63750D01*
X72325Y-66200D02*
X72325Y-67175D01*
X41925Y-59800D02*
X41575Y-59450D01*
X79450Y-58350D02*
X78175Y-59625D01*
X63060Y-63360D02*
X62520Y-62820D01*
X52400Y-63600D02*
X53725Y-63600D01*
X53725Y-63600D02*
X54200Y-64075D01*
X44900Y-46075D02*
X45325Y-45650D01*
X41575Y-59450D02*
X41575Y-46450D01*
X62520Y-62820D02*
X62115Y-62820D01*
X44900Y-46075D02*
X41950Y-46075D01*
X45550Y-62000D02*
X45550Y-61200D01*
X61900Y-63750D02*
X61900Y-63035D01*
X67970Y-64895D02*
X68325Y-65250D01*
X76475Y-67175D02*
X76825Y-66825D01*
X51100Y-62300D02*
X45850Y-62300D01*
X70725Y-66500D02*
X71400Y-67175D01*
X45010Y-44865D02*
X45010Y-43770D01*
X63060Y-63848D02*
X63060Y-63360D01*
X70400Y-65250D02*
X70725Y-65575D01*
X41575Y-46450D02*
X41950Y-46075D01*
X78175Y-59625D02*
X76575Y-59625D01*
X79450Y-58350D02*
X79450Y-56025D01*
X45550Y-61200D02*
X45550Y-60225D01*
X45575Y-45250D02*
X45790Y-45035D01*
X39375Y-44600D02*
X40125Y-45350D01*
X45790Y-45035D02*
X45790Y-43770D01*
X25050Y-43650D02*
X26000Y-44600D01*
X28650Y-44600D02*
X39375Y-44600D01*
X42525Y-45350D02*
X43275Y-44600D01*
X44675Y-45250D02*
X45575Y-45250D01*
X44025Y-44600D02*
X44675Y-45250D01*
X43700Y-44600D02*
X44025Y-44600D01*
X40125Y-45350D02*
X42525Y-45350D01*
X43275Y-44600D02*
X43700Y-44600D01*
X26000Y-44600D02*
X26550Y-44600D01*
X20650Y-43650D02*
X25050Y-43650D01*
X20650Y-42550D02*
X25049Y-42550D01*
X40125Y-42350D02*
X39375Y-41600D01*
X40125Y-42350D02*
X42525Y-42350D01*
X25049Y-42550D02*
X25999Y-41600D01*
X45790Y-42430D02*
X46870Y-42430D01*
X42525Y-42350D02*
X43275Y-41600D01*
X47300Y-40600D02*
X45475Y-40600D01*
X39375Y-41600D02*
X28650Y-41600D01*
X25999Y-41600D02*
X26550Y-41600D01*
X46870Y-42430D02*
X47575Y-41725D01*
X43275Y-41600D02*
X43700Y-41600D01*
X44475Y-41600D02*
X43700Y-41600D01*
X45475Y-40600D02*
X44475Y-41600D01*
X47575Y-40875D02*
X47300Y-40600D01*
X47575Y-41725D02*
X47575Y-40875D01*
X63900Y-62420D02*
X64084Y-62604D01*
X64675Y-43750D02*
X64450Y-43975D01*
X47380Y-49280D02*
X46560Y-49280D01*
X61475Y-60215D02*
X61475Y-53825D01*
X49800Y-51840D02*
X49800Y-49780D01*
X63600Y-60740D02*
X63900Y-61040D01*
X64975Y-43750D02*
X64675Y-43750D01*
X63900Y-61040D02*
X63900Y-62420D01*
X62550Y-47675D02*
X62550Y-45876D01*
X49540Y-49520D02*
X47620Y-49520D01*
X49800Y-49780D02*
X49540Y-49520D01*
X61900Y-51280D02*
X61900Y-48325D01*
X61475Y-60215D02*
X62000Y-60740D01*
X47840Y-49520D02*
X47620Y-49520D01*
X61900Y-48325D02*
X62550Y-47675D01*
X64084Y-63848D02*
X64084Y-62604D01*
X62000Y-60740D02*
X63600Y-60740D01*
X61475Y-53825D02*
X62400Y-52900D01*
X62550Y-45876D02*
X64450Y-43976D01*
X47620Y-49520D02*
X47380Y-49280D01*
X64450Y-43975D02*
X64450Y-43976D01*
X56850Y-41350D02*
X56850Y-45775D01*
X68480Y-34450D02*
X69100Y-34450D01*
X63850Y-43400D02*
X63850Y-43402D01*
X67235Y-33205D02*
X68480Y-34450D01*
X60400Y-49900D02*
X60400Y-46750D01*
X67235Y-32930D02*
X67235Y-33205D01*
X61276Y-45150D02*
X62102Y-45150D01*
X56850Y-41350D02*
X56100Y-40600D01*
X64600Y-42650D02*
X63850Y-43400D01*
X60400Y-46750D02*
X60400Y-46026D01*
X60400Y-46026D02*
X61276Y-45150D01*
X62102Y-45150D02*
X63850Y-43402D01*
X67975Y-42650D02*
X64600Y-42650D01*
X65735Y-32930D02*
X67235Y-32930D01*
X66115Y-49185D02*
X66740Y-48560D01*
X66740Y-48560D02*
X66740Y-44460D01*
X66740Y-44460D02*
X67000Y-44200D01*
X66115Y-49185D02*
X64115Y-49185D01*
X71575Y-41100D02*
X71575Y-40625D01*
X64115Y-49185D02*
X63400Y-49900D01*
X67000Y-44200D02*
X68475Y-44200D01*
X68475Y-44200D02*
X71575Y-41100D01*
X49300Y-51080D02*
X49300Y-51840D01*
X61650Y-45400D02*
X60900Y-46150D01*
X65950Y-43050D02*
X64627Y-43050D01*
X62277Y-45400D02*
X61650Y-45400D01*
X65975Y-43025D02*
X65950Y-43050D01*
X62277Y-45400D02*
X64627Y-43050D01*
X60900Y-51480D02*
X60900Y-46150D01*
X65400Y-46875D02*
X65400Y-48275D01*
X65600Y-44525D02*
X66025Y-44525D01*
X65950Y-48950D02*
X66250Y-48650D01*
X62120Y-60520D02*
X63700Y-60520D01*
X48300Y-51840D02*
X48300Y-52325D01*
X64120Y-60940D02*
X64120Y-62340D01*
X66250Y-48650D02*
X66250Y-44750D01*
X66025Y-44525D02*
X66250Y-44750D01*
X62900Y-51400D02*
X62900Y-49300D01*
X61700Y-54600D02*
X63400Y-52900D01*
X48300Y-52325D02*
X48200Y-52425D01*
X63700Y-60520D02*
X64120Y-60940D01*
X64120Y-62340D02*
X64340Y-62560D01*
X61700Y-60100D02*
X61700Y-54600D01*
X63250Y-48950D02*
X65950Y-48950D01*
X47450Y-52425D02*
X47300Y-52275D01*
X64340Y-63848D02*
X64340Y-62560D01*
X62900Y-49300D02*
X63250Y-48950D01*
X48200Y-52425D02*
X47450Y-52425D01*
X47300Y-52275D02*
X47300Y-50250D01*
X61700Y-60100D02*
X62120Y-60520D01*
X74680Y-51580D02*
X74180Y-51080D01*
X65440Y-64335D02*
X65650Y-64125D01*
X74680Y-54000D02*
X74680Y-51580D01*
X74640Y-46900D02*
X75180Y-46900D01*
X82660Y-45300D02*
X83150Y-45300D01*
X82435Y-45525D02*
X82660Y-45300D01*
X63915Y-64335D02*
X65440Y-64335D01*
X67980Y-56700D02*
X70160Y-56700D01*
X74180Y-51080D02*
X73700Y-51080D01*
X82435Y-47225D02*
X82435Y-45525D01*
X65650Y-64125D02*
X65650Y-61550D01*
X63828Y-64248D02*
X63915Y-64335D01*
X85325Y-45675D02*
X85700Y-45300D01*
X64780Y-58760D02*
X67980Y-58760D01*
X64575Y-59625D02*
X64575Y-58965D01*
X83525Y-45675D02*
X83150Y-45300D01*
X64575Y-58965D02*
X64780Y-58760D01*
X83900Y-45675D02*
X83525Y-45675D01*
X63828Y-63848D02*
X63828Y-64248D01*
X83900Y-45675D02*
X85325Y-45675D01*
X81420Y-48240D02*
X82435Y-47225D01*
X70160Y-56700D02*
X71700Y-55160D01*
X64575Y-60475D02*
X64575Y-59625D01*
X73400Y-50780D02*
X73400Y-49900D01*
X76900Y-48240D02*
X81420Y-48240D01*
X75240Y-49900D02*
X76900Y-48240D01*
X73400Y-49900D02*
X73400Y-49080D01*
X74300Y-47240D02*
X74640Y-46900D01*
X73520Y-55160D02*
X74680Y-54000D01*
X65650Y-61550D02*
X64575Y-60475D01*
X71700Y-55160D02*
X73520Y-55160D01*
X74300Y-48180D02*
X74300Y-47240D01*
X73700Y-51080D02*
X73400Y-50780D01*
X73400Y-49900D02*
X75240Y-49900D01*
X73400Y-49080D02*
X74300Y-48180D01*
X73500Y-43300D02*
X73500Y-42900D01*
X76322Y-42650D02*
X76575Y-42397D01*
X74260Y-51740D02*
X74260Y-53880D01*
X73500Y-42900D02*
X73750Y-42650D01*
X76575Y-42397D02*
X76575Y-40625D01*
X69940Y-54980D02*
X69940Y-55940D01*
X73500Y-48101D02*
X72400Y-49201D01*
X73360Y-54780D02*
X70140Y-54780D01*
X73500Y-43300D02*
X73500Y-48101D01*
X72400Y-51020D02*
X72760Y-51380D01*
X63316Y-63024D02*
X63320Y-63020D01*
X72760Y-51380D02*
X73900Y-51380D01*
X74260Y-53880D02*
X73360Y-54780D01*
X73750Y-42650D02*
X76322Y-42650D01*
X72400Y-49900D02*
X72400Y-49201D01*
X70140Y-54780D02*
X69940Y-54980D01*
X72400Y-49900D02*
X72400Y-51020D01*
X73900Y-51380D02*
X74260Y-51740D01*
X63316Y-63848D02*
X63316Y-63024D01*
X62804Y-66052D02*
X62804Y-65475D01*
G54D41*
X67100Y-65475D02*
X67825Y-66200D01*
X54975Y-66625D02*
X54325Y-67275D01*
X62804Y-65475D02*
X62800Y-65475D01*
X58400Y-66025D02*
X57800Y-66625D01*
X62800Y-65475D02*
X67100Y-65475D01*
X57800Y-66625D02*
X54975Y-66625D01*
X61175Y-66025D02*
X58400Y-66025D01*
X54325Y-67275D02*
X54325Y-68025D01*
X61725Y-65475D02*
X61175Y-66025D01*
X62800Y-65475D02*
X61725Y-65475D01*
X45875Y-68175D02*
X45450Y-68600D01*
X54325Y-69025D02*
X48450Y-69025D01*
X45450Y-68600D02*
X45450Y-69025D01*
X47600Y-68175D02*
X45875Y-68175D01*
X48450Y-69025D02*
X47600Y-68175D01*
G54D42*
X64340Y-68010D02*
X64325Y-68025D01*
X64340Y-66052D02*
X64340Y-68010D01*
X64084Y-66052D02*
X64084Y-67266D01*
X64084Y-67266D02*
X63325Y-68025D01*
X68600Y-66825D02*
X66750Y-66825D01*
X68825Y-66200D02*
X68825Y-66600D01*
X64852Y-66052D02*
X65977Y-66052D01*
X68825Y-66600D02*
X68600Y-66825D01*
X65977Y-66052D02*
X66750Y-66825D01*
X59820Y-67480D02*
X59820Y-68530D01*
X60100Y-67200D02*
X59820Y-67480D01*
X63400Y-67200D02*
X60100Y-67200D01*
X63828Y-66052D02*
X63828Y-66772D01*
X63828Y-66772D02*
X63400Y-67200D01*
X59820Y-68530D02*
X59325Y-69025D01*
X63120Y-66985D02*
X59965Y-66985D01*
X63572Y-66052D02*
X63572Y-66533D01*
X58825Y-68525D02*
X58325Y-69025D01*
X59100Y-67425D02*
X58825Y-67700D01*
X58825Y-67700D02*
X58825Y-68525D01*
X63572Y-66533D02*
X63120Y-66985D01*
X59525Y-67425D02*
X59100Y-67425D01*
X59965Y-66985D02*
X59525Y-67425D01*
X64596Y-66052D02*
X64596Y-67296D01*
X64596Y-67296D02*
X65325Y-68025D01*
X62935Y-66545D02*
X59730Y-66545D01*
X63060Y-66420D02*
X62935Y-66545D01*
X58675Y-67200D02*
X58000Y-67200D01*
X58900Y-66975D02*
X58675Y-67200D01*
X59300Y-66975D02*
X58900Y-66975D01*
X57750Y-67450D02*
X56900Y-67450D01*
X63060Y-66052D02*
X63060Y-66420D01*
X59730Y-66545D02*
X59300Y-66975D01*
X56900Y-67450D02*
X56325Y-68025D01*
X58000Y-67200D02*
X57750Y-67450D01*
X62223Y-66052D02*
X61950Y-66325D01*
X59200Y-66750D02*
X58800Y-66750D01*
X62548Y-66052D02*
X62223Y-66052D01*
X61950Y-66325D02*
X59625Y-66325D01*
X57625Y-67225D02*
X56125Y-67225D01*
X56125Y-67225D02*
X55325Y-68025D01*
X58575Y-66975D02*
X57875Y-66975D01*
X59625Y-66325D02*
X59200Y-66750D01*
X57875Y-66975D02*
X57625Y-67225D01*
X58800Y-66750D02*
X58575Y-66975D01*
X58100Y-67425D02*
X57825Y-67700D01*
X59840Y-66760D02*
X59400Y-67200D01*
X59400Y-67200D02*
X59000Y-67200D01*
X63316Y-66052D02*
X63316Y-66484D01*
X57825Y-67700D02*
X57825Y-68525D01*
X57825Y-68525D02*
X57325Y-69025D01*
X63040Y-66760D02*
X59840Y-66760D01*
X58775Y-67425D02*
X58100Y-67425D01*
X63316Y-66484D02*
X63040Y-66760D01*
X59000Y-67200D02*
X58775Y-67425D01*
X59370Y-40020D02*
X59975Y-40625D01*
X72900Y-67650D02*
X77450Y-67650D01*
X68225Y-65475D02*
X70325Y-65475D01*
X54100Y-64300D02*
X61850Y-64300D01*
X44075Y-45850D02*
X41850Y-45850D01*
X44500Y-45650D02*
X44275Y-45650D01*
X44500Y-42425D02*
X44505Y-42430D01*
X44000Y-62525D02*
X50975Y-62525D01*
X77225Y-60325D02*
X76275Y-60325D01*
X70475Y-65625D02*
X70475Y-66600D01*
X41800Y-60025D02*
X41350Y-59575D01*
X43550Y-61200D02*
X43550Y-60250D01*
X62548Y-63848D02*
X62548Y-64888D01*
X43550Y-62075D02*
X43550Y-61200D01*
X41350Y-59575D02*
X41350Y-46350D01*
X50975Y-62525D02*
X52298Y-63848D01*
X67915Y-65165D02*
X68225Y-65475D01*
X41350Y-46350D02*
X41850Y-45850D01*
X76275Y-60325D02*
X75575Y-59625D01*
X73325Y-67650D02*
X72900Y-67650D01*
X77450Y-67650D02*
X77825Y-67275D01*
X53648Y-63848D02*
X54100Y-64300D01*
X44000Y-62525D02*
X43550Y-62075D01*
X59370Y-40020D02*
X55780Y-40020D01*
X52298Y-63848D02*
X53648Y-63848D01*
X44505Y-42430D02*
X45010Y-42430D01*
X55780Y-40020D02*
X55380Y-40420D01*
X78150Y-60325D02*
X77225Y-60325D01*
X62548Y-64888D02*
X62825Y-65165D01*
X62548Y-63848D02*
X62302Y-63848D01*
X77825Y-67275D02*
X77825Y-66200D01*
X61850Y-64300D02*
X62302Y-63848D01*
X70325Y-65475D02*
X70475Y-65625D01*
X44275Y-45650D02*
X44075Y-45850D01*
X71525Y-67650D02*
X72900Y-67650D01*
X43550Y-60250D02*
X43325Y-60025D01*
X79625Y-58850D02*
X78150Y-60325D01*
X43325Y-60025D02*
X41800Y-60025D01*
X62825Y-65165D02*
X67915Y-65165D01*
X70475Y-66600D02*
X71525Y-67650D01*
X71400Y-49900D02*
X71400Y-51060D01*
X72500Y-48060D02*
X71400Y-49160D01*
X63660Y-63260D02*
X63572Y-63348D01*
X74040Y-53772D02*
X73252Y-54560D01*
X63660Y-62680D02*
X63660Y-63260D01*
X73450Y-42350D02*
X72500Y-43300D01*
X63640Y-62660D02*
X63660Y-62680D01*
X73252Y-54560D02*
X69780Y-54560D01*
X69540Y-54800D02*
X69540Y-55580D01*
X71940Y-51600D02*
X73720Y-51600D01*
X72500Y-43300D02*
X72500Y-48060D01*
X73720Y-51600D02*
X74040Y-51920D01*
X75275Y-42350D02*
X73450Y-42350D01*
X75575Y-40625D02*
X75575Y-42050D01*
X69780Y-54560D02*
X69540Y-54800D01*
X71400Y-49900D02*
X71400Y-49160D01*
X63572Y-63348D02*
X63572Y-63848D01*
X71400Y-51060D02*
X71940Y-51600D01*
X74040Y-51920D02*
X74040Y-53772D01*
X75575Y-42050D02*
X75275Y-42350D01*
G54D41*
X70000Y-29450D02*
X70575Y-30025D01*
X53250Y-45600D02*
X53250Y-42050D01*
X55175Y-55000D02*
X53925Y-55000D01*
X53250Y-42050D02*
X52860Y-41660D01*
X56425Y-46600D02*
X56100Y-46275D01*
X67235Y-30930D02*
X67235Y-30695D01*
X53925Y-55000D02*
X52700Y-55000D01*
X53925Y-55000D02*
X53925Y-56450D01*
X65735Y-30930D02*
X67235Y-30930D01*
X53250Y-45600D02*
X53250Y-49510D01*
X86000Y-43075D02*
X82575Y-39650D01*
X56100Y-46275D02*
X56100Y-45600D01*
X47900Y-57425D02*
X47900Y-59200D01*
X51700Y-51060D02*
X53250Y-49510D01*
X49975Y-40100D02*
X49975Y-42575D01*
X53925Y-56450D02*
X53600Y-56775D01*
X51700Y-54620D02*
X51700Y-51060D01*
X57525Y-46600D02*
X56425Y-46600D01*
X62765Y-58340D02*
X62475Y-58050D01*
X68480Y-29450D02*
X69100Y-29450D01*
X52700Y-61600D02*
X55175Y-61600D01*
X67235Y-30695D02*
X68480Y-29450D01*
X70575Y-39650D02*
X82575Y-39650D01*
X50425Y-39650D02*
X70575Y-39650D01*
X69575Y-58605D02*
X69310Y-58340D01*
X70000Y-29450D02*
X69100Y-29450D01*
X69310Y-58340D02*
X62765Y-58340D01*
X52080Y-55000D02*
X51700Y-54620D01*
X48550Y-56775D02*
X47900Y-57425D01*
X56100Y-45600D02*
X56100Y-44600D01*
X50425Y-39650D02*
X49975Y-40100D01*
X52100Y-41660D02*
X52860Y-41660D01*
X56100Y-45600D02*
X53250Y-45600D01*
X52700Y-55000D02*
X52080Y-55000D01*
X69575Y-59625D02*
X69575Y-58605D01*
X53600Y-56775D02*
X48550Y-56775D01*
X70575Y-39650D02*
X70575Y-30025D01*
X48375Y-64325D02*
X50000Y-64325D01*
X47900Y-63850D02*
X48375Y-64325D01*
X47900Y-63200D02*
X47900Y-63850D01*
G54D42*
X48800Y-51840D02*
X48800Y-52450D01*
X62525Y-56650D02*
X64275Y-56650D01*
X61925Y-60005D02*
X62220Y-60300D01*
X61925Y-57250D02*
X62525Y-56650D01*
X61925Y-57250D02*
X61925Y-60005D01*
X64275Y-56650D02*
X65000Y-55925D01*
X47325Y-52650D02*
X46950Y-52275D01*
X48800Y-52450D02*
X48600Y-52650D01*
X63820Y-60300D02*
X64340Y-60820D01*
X65000Y-55925D02*
X65000Y-54275D01*
X64596Y-63848D02*
X64596Y-62496D01*
X46950Y-49725D02*
X46950Y-52275D01*
X61850Y-46950D02*
X61850Y-46375D01*
X64340Y-60820D02*
X64340Y-62240D01*
X62220Y-60300D02*
X63820Y-60300D01*
X48600Y-52650D02*
X47325Y-52650D01*
X64340Y-62240D02*
X64596Y-62496D01*
X65000Y-54275D02*
X64400Y-53675D01*
X64400Y-53675D02*
X64400Y-52900D01*
X62125Y-47550D02*
X62125Y-47225D01*
X62125Y-47225D02*
X61850Y-46950D01*
G54D41*
X75825Y-65400D02*
X80325Y-65400D01*
X47800Y-50650D02*
X48225Y-50225D01*
G54D42*
X62804Y-63424D02*
X62580Y-63200D01*
G54D41*
X54200Y-54100D02*
X53900Y-53800D01*
X65400Y-52400D02*
X66200Y-51600D01*
X42975Y-65675D02*
X42400Y-65100D01*
X75825Y-66200D02*
X75825Y-65400D01*
X44972Y-68275D02*
X45550Y-67697D01*
G54D42*
X45270Y-42430D02*
X45270Y-41505D01*
G54D41*
X45550Y-67697D02*
X45550Y-67000D01*
X43355Y-68275D02*
X42975Y-67895D01*
X53900Y-53400D02*
X52700Y-53400D01*
X42400Y-65100D02*
X41200Y-65100D01*
X44972Y-68275D02*
X44450Y-68275D01*
X66200Y-51600D02*
X67100Y-51600D01*
X75575Y-58625D02*
X74575Y-58625D01*
X67100Y-51600D02*
X67400Y-51300D01*
X71325Y-66200D02*
X71325Y-65400D01*
X47800Y-50650D02*
X47800Y-51840D01*
X67400Y-49900D02*
X67400Y-48260D01*
X69970Y-57625D02*
X67400Y-57625D01*
X75075Y-56075D02*
X76075Y-56075D01*
X53900Y-53800D02*
X53900Y-53400D01*
G54D42*
X62580Y-63200D02*
X62250Y-63200D01*
G54D41*
X55175Y-54100D02*
X54200Y-54100D01*
X75075Y-56075D02*
X71520Y-56075D01*
X65400Y-52900D02*
X65400Y-52400D01*
X75825Y-65400D02*
X71325Y-65400D01*
G54D42*
X62804Y-63848D02*
X62804Y-63424D01*
G54D41*
X80975Y-65400D02*
X81325Y-65750D01*
X67400Y-51300D02*
X67400Y-49900D01*
X80325Y-65400D02*
X80975Y-65400D01*
X49200Y-50225D02*
X48225Y-50225D01*
X81325Y-66200D02*
X81325Y-65750D01*
X45575Y-41200D02*
X46975Y-41200D01*
X75825Y-65400D02*
X75825Y-64700D01*
X76575Y-58625D02*
X75575Y-58625D01*
X44450Y-68275D02*
X43355Y-68275D01*
X45270Y-41505D02*
X45575Y-41200D01*
X57675Y-51850D02*
X57675Y-54100D01*
X42975Y-67895D02*
X42975Y-65675D01*
X71520Y-56075D02*
X69970Y-57625D01*
X44450Y-69025D02*
X44450Y-68275D01*
X71325Y-65400D02*
X71325Y-64700D01*
X80325Y-64700D02*
X80325Y-65400D01*
X57675Y-54100D02*
X55175Y-54100D01*
G54D42*
X80000Y-59550D02*
X80000Y-56950D01*
X80000Y-49050D02*
X80400Y-48650D01*
X82700Y-56950D02*
X80000Y-56950D01*
X80400Y-48650D02*
X82700Y-48650D01*
X80000Y-56950D02*
X80000Y-49050D01*
X73575Y-41475D02*
X73300Y-41750D01*
X73575Y-40625D02*
X73575Y-41475D01*
X69880Y-47760D02*
X69880Y-43696D01*
X73300Y-41750D02*
X71826Y-41750D01*
X69400Y-49900D02*
X69400Y-48240D01*
X69400Y-48240D02*
X69880Y-47760D01*
X69880Y-43696D02*
X71826Y-41750D01*
X68425Y-43825D02*
X65797Y-43825D01*
X63024Y-47600D02*
X63550Y-47600D01*
X65797Y-43825D02*
X64000Y-45622D01*
X70575Y-40625D02*
X70575Y-41675D01*
X62400Y-48224D02*
X63024Y-47600D01*
X63550Y-47600D02*
X64000Y-47150D01*
X64000Y-47150D02*
X64000Y-45622D01*
X70575Y-41675D02*
X68425Y-43825D01*
X62400Y-49900D02*
X62400Y-48224D01*
X71500Y-44900D02*
X71500Y-43300D01*
G54D41*
X86550Y-46850D02*
X86550Y-44475D01*
X58975Y-44600D02*
X57525Y-44600D01*
X46700Y-64950D02*
X43550Y-64950D01*
X64852Y-61902D02*
X64850Y-61900D01*
X52700Y-56000D02*
X51200Y-56000D01*
X86350Y-47050D02*
X86550Y-46850D01*
X46550Y-47250D02*
X46200Y-46900D01*
X50800Y-53075D02*
X50800Y-53960D01*
G54D42*
X45270Y-43770D02*
X45270Y-44470D01*
G54D41*
X85700Y-48875D02*
X85700Y-47050D01*
X85700Y-47050D02*
X86350Y-47050D01*
X68575Y-59625D02*
X68575Y-60150D01*
X84700Y-49875D02*
X85700Y-48875D01*
X86025Y-43950D02*
X79375Y-43950D01*
X27425Y-42600D02*
X39375Y-42600D01*
X59225Y-51475D02*
X59225Y-48075D01*
X51675Y-62175D02*
X51675Y-59350D01*
X59875Y-52125D02*
X59225Y-51475D01*
X67235Y-31730D02*
X68420Y-31730D01*
X66400Y-50760D02*
X65035Y-52125D01*
X43550Y-64950D02*
X43550Y-67000D01*
X65735Y-31730D02*
X67235Y-31730D01*
X68420Y-31730D02*
X68700Y-31450D01*
X50000Y-66725D02*
X48475Y-66725D01*
X55175Y-59800D02*
X55175Y-59325D01*
X84700Y-60500D02*
X84700Y-49875D01*
X54500Y-49750D02*
X55175Y-50425D01*
X80000Y-61550D02*
X83650Y-61550D01*
X54750Y-58900D02*
X53900Y-58900D01*
X45050Y-51700D02*
X45050Y-48850D01*
X71575Y-57625D02*
X70575Y-57625D01*
X43550Y-63775D02*
X43550Y-64950D01*
X54500Y-47400D02*
X54500Y-49750D01*
X54725Y-52400D02*
X53900Y-52400D01*
X52700Y-62600D02*
X52100Y-62600D01*
X72575Y-57625D02*
X73575Y-57625D01*
X51200Y-56000D02*
X50800Y-55600D01*
X86550Y-44475D02*
X86025Y-43950D01*
X83650Y-61550D02*
X84700Y-60500D01*
X69975Y-60300D02*
X70250Y-60025D01*
X51675Y-59350D02*
X51425Y-59100D01*
X58550Y-47400D02*
X54500Y-47400D01*
X42350Y-43350D02*
X43100Y-42600D01*
X73575Y-57625D02*
X74575Y-57625D01*
X68725Y-60300D02*
X69975Y-60300D01*
X66400Y-49900D02*
X66400Y-50760D01*
X51200Y-50225D02*
X51200Y-52675D01*
X42350Y-43350D02*
X40125Y-43350D01*
X18975Y-42700D02*
X18975Y-42100D01*
X43100Y-42600D02*
X43700Y-42600D01*
X70250Y-60025D02*
X70250Y-57950D01*
X50800Y-55600D02*
X50800Y-53960D01*
X18975Y-42100D02*
X19200Y-41875D01*
X25770Y-40875D02*
X27050Y-40875D01*
X52100Y-40870D02*
X53930Y-40870D01*
X55175Y-53200D02*
X55175Y-52850D01*
X45700Y-46900D02*
X46200Y-46900D01*
X45270Y-44470D02*
X45375Y-44575D01*
X70250Y-57950D02*
X70575Y-57625D01*
X51425Y-59100D02*
X50600Y-59100D01*
X40125Y-43350D02*
X39375Y-42600D01*
X26550Y-42600D02*
X27425Y-42600D01*
X24770Y-41875D02*
X20250Y-41875D01*
X55175Y-52850D02*
X54725Y-52400D01*
X46550Y-48090D02*
X46550Y-47250D01*
X79375Y-43950D02*
X78500Y-43075D01*
X24770Y-41875D02*
X25770Y-40875D01*
X52100Y-62600D02*
X51675Y-62175D01*
G54D42*
X20250Y-42550D02*
X20250Y-41875D01*
G54D41*
X68575Y-60150D02*
X68725Y-60300D01*
X45280Y-48620D02*
X46020Y-48620D01*
X45050Y-48850D02*
X45280Y-48620D01*
X53930Y-40870D02*
X54500Y-40300D01*
X27050Y-40875D02*
X27425Y-41250D01*
X41200Y-63100D02*
X42875Y-63100D01*
X75575Y-57625D02*
X76575Y-57625D01*
X59225Y-48075D02*
X58550Y-47400D01*
G54D42*
X64852Y-63848D02*
X64852Y-61902D01*
G54D41*
X48475Y-66725D02*
X46700Y-64950D01*
X71575Y-57625D02*
X72575Y-57625D01*
X46020Y-48620D02*
X46550Y-48090D01*
X74575Y-57625D02*
X75575Y-57625D01*
X51200Y-52675D02*
X50800Y-53075D01*
X55175Y-59325D02*
X54750Y-58900D01*
X65035Y-52125D02*
X59875Y-52125D01*
X68700Y-31450D02*
X69100Y-31450D01*
X27425Y-42600D02*
X27425Y-41250D01*
X42875Y-63100D02*
X43550Y-63775D01*
X19200Y-41875D02*
X20250Y-41875D01*
G54D42*
X56675Y-50925D02*
X56175Y-50425D01*
X56675Y-51850D02*
X56675Y-50925D01*
X56675Y-57875D02*
X56175Y-57375D01*
X56675Y-58650D02*
X56675Y-57875D01*
X56575Y-65875D02*
X56175Y-65475D01*
X57500Y-65875D02*
X56575Y-65875D01*
G54D10*
G36*
X61225Y-63479D02*
X60929Y-63775D01*
X58375Y-63775D01*
X58375Y-60830D01*
X58375Y-60570D01*
X58374Y-59891D01*
X58329Y-59781D01*
X58268Y-59720D01*
X58268Y-58736D01*
X58256Y-58502D01*
X58190Y-58344D01*
X58083Y-58320D01*
X58005Y-58398D01*
X58005Y-58242D01*
X57981Y-58135D01*
X57761Y-58057D01*
X57527Y-58069D01*
X57369Y-58135D01*
X57345Y-58242D01*
X57675Y-58572D01*
X58005Y-58242D01*
X58005Y-58398D01*
X57753Y-58650D01*
X58083Y-58980D01*
X58190Y-58956D01*
X58268Y-58736D01*
X58268Y-59720D01*
X58245Y-59697D01*
X58135Y-59651D01*
X58016Y-59651D01*
X58005Y-59650D01*
X58005Y-59058D01*
X57675Y-58728D01*
X57345Y-59058D01*
X57369Y-59165D01*
X57589Y-59243D01*
X57823Y-59231D01*
X57981Y-59165D01*
X58005Y-59058D01*
X58005Y-59650D01*
X57805Y-59650D01*
X57730Y-59725D01*
X57730Y-60645D01*
X58300Y-60645D01*
X58375Y-60570D01*
X58375Y-60830D01*
X58300Y-60755D01*
X57730Y-60755D01*
X57730Y-61675D01*
X57805Y-61750D01*
X58016Y-61749D01*
X58135Y-61749D01*
X58245Y-61703D01*
X58329Y-61619D01*
X58374Y-61509D01*
X58375Y-60830D01*
X58375Y-63775D01*
X57620Y-63775D01*
X57620Y-61675D01*
X57620Y-60755D01*
X57620Y-60645D01*
X57620Y-59725D01*
X57545Y-59650D01*
X57334Y-59651D01*
X57215Y-59651D01*
X57105Y-59697D01*
X57021Y-59781D01*
X56976Y-59891D01*
X56975Y-60570D01*
X57050Y-60645D01*
X57620Y-60645D01*
X57620Y-60755D01*
X57050Y-60755D01*
X56975Y-60830D01*
X56976Y-61509D01*
X57021Y-61619D01*
X57105Y-61703D01*
X57215Y-61749D01*
X57334Y-61749D01*
X57545Y-61750D01*
X57620Y-61675D01*
X57620Y-63775D01*
X54821Y-63775D01*
X54525Y-63479D01*
X54525Y-61950D01*
X54526Y-61950D01*
X54564Y-62041D01*
X54634Y-62111D01*
X54725Y-62149D01*
X54824Y-62149D01*
X55624Y-62149D01*
X55716Y-62111D01*
X55786Y-62041D01*
X55824Y-61950D01*
X55824Y-61851D01*
X55824Y-61251D01*
X55801Y-61196D01*
X55829Y-61169D01*
X55874Y-61059D01*
X55875Y-60830D01*
X55800Y-60755D01*
X55280Y-60755D01*
X55230Y-60755D01*
X55120Y-60755D01*
X55120Y-60645D01*
X55230Y-60645D01*
X55280Y-60645D01*
X55800Y-60645D01*
X55875Y-60570D01*
X55874Y-60341D01*
X55829Y-60231D01*
X55801Y-60203D01*
X55824Y-60150D01*
X55824Y-60051D01*
X55824Y-59451D01*
X55786Y-59359D01*
X55716Y-59289D01*
X55625Y-59251D01*
X55526Y-59251D01*
X55510Y-59251D01*
X55498Y-59191D01*
X55422Y-59078D01*
X55422Y-59077D01*
X54997Y-58653D01*
X54884Y-58577D01*
X54750Y-58550D01*
X54525Y-58550D01*
X54525Y-58021D01*
X54697Y-57849D01*
X54734Y-57886D01*
X54825Y-57924D01*
X54924Y-57924D01*
X55524Y-57924D01*
X55616Y-57886D01*
X55686Y-57816D01*
X55724Y-57725D01*
X55724Y-57700D01*
X55864Y-57840D01*
X56066Y-57924D01*
X56284Y-57924D01*
X56295Y-57919D01*
X56375Y-57999D01*
X56375Y-58180D01*
X56364Y-58185D01*
X56210Y-58339D01*
X56126Y-58541D01*
X56126Y-58759D01*
X56210Y-58961D01*
X56364Y-59115D01*
X56566Y-59199D01*
X56784Y-59199D01*
X56986Y-59115D01*
X57140Y-58961D01*
X57151Y-58934D01*
X57160Y-58956D01*
X57267Y-58980D01*
X57597Y-58650D01*
X57267Y-58320D01*
X57160Y-58344D01*
X57151Y-58367D01*
X57140Y-58339D01*
X56986Y-58185D01*
X56975Y-58180D01*
X56975Y-57875D01*
X56952Y-57760D01*
X56887Y-57663D01*
X56774Y-57550D01*
X60754Y-57550D01*
X61175Y-57971D01*
X61175Y-60215D01*
X61198Y-60330D01*
X61225Y-60370D01*
X61225Y-61549D01*
X61111Y-61435D01*
X60909Y-61351D01*
X60691Y-61351D01*
X60489Y-61435D01*
X60335Y-61589D01*
X60251Y-61791D01*
X60251Y-62009D01*
X60335Y-62211D01*
X60489Y-62365D01*
X60691Y-62449D01*
X60909Y-62449D01*
X61111Y-62365D01*
X61225Y-62251D01*
X61225Y-63479D01*
X61225Y-63479D01*
G37*
G54D42*
X61225Y-63479D02*
X60929Y-63775D01*
X58375Y-63775D01*
X58375Y-60830D01*
X58375Y-60570D01*
X58374Y-59891D01*
X58329Y-59781D01*
X58268Y-59720D01*
X58268Y-58736D01*
X58256Y-58502D01*
X58190Y-58344D01*
X58083Y-58320D01*
X58005Y-58398D01*
X58005Y-58242D01*
X57981Y-58135D01*
X57761Y-58057D01*
X57527Y-58069D01*
X57369Y-58135D01*
X57345Y-58242D01*
X57675Y-58572D01*
X58005Y-58242D01*
X58005Y-58398D01*
X57753Y-58650D01*
X58083Y-58980D01*
X58190Y-58956D01*
X58268Y-58736D01*
X58268Y-59720D01*
X58245Y-59697D01*
X58135Y-59651D01*
X58016Y-59651D01*
X58005Y-59650D01*
X58005Y-59058D01*
X57675Y-58728D01*
X57345Y-59058D01*
X57369Y-59165D01*
X57589Y-59243D01*
X57823Y-59231D01*
X57981Y-59165D01*
X58005Y-59058D01*
X58005Y-59650D01*
X57805Y-59650D01*
X57730Y-59725D01*
X57730Y-60645D01*
X58300Y-60645D01*
X58375Y-60570D01*
X58375Y-60830D01*
X58300Y-60755D01*
X57730Y-60755D01*
X57730Y-61675D01*
X57805Y-61750D01*
X58016Y-61749D01*
X58135Y-61749D01*
X58245Y-61703D01*
X58329Y-61619D01*
X58374Y-61509D01*
X58375Y-60830D01*
X58375Y-63775D01*
X57620Y-63775D01*
X57620Y-61675D01*
X57620Y-60755D01*
X57620Y-60645D01*
X57620Y-59725D01*
X57545Y-59650D01*
X57334Y-59651D01*
X57215Y-59651D01*
X57105Y-59697D01*
X57021Y-59781D01*
X56976Y-59891D01*
X56975Y-60570D01*
X57050Y-60645D01*
X57620Y-60645D01*
X57620Y-60755D01*
X57050Y-60755D01*
X56975Y-60830D01*
X56976Y-61509D01*
X57021Y-61619D01*
X57105Y-61703D01*
X57215Y-61749D01*
X57334Y-61749D01*
X57545Y-61750D01*
X57620Y-61675D01*
X57620Y-63775D01*
X54821Y-63775D01*
X54525Y-63479D01*
X54525Y-61950D01*
X54526Y-61950D01*
X54564Y-62041D01*
X54634Y-62111D01*
X54725Y-62149D01*
X54824Y-62149D01*
X55624Y-62149D01*
X55716Y-62111D01*
X55786Y-62041D01*
X55824Y-61950D01*
X55824Y-61851D01*
X55824Y-61251D01*
X55801Y-61196D01*
X55829Y-61169D01*
X55874Y-61059D01*
X55875Y-60830D01*
X55800Y-60755D01*
X55280Y-60755D01*
X55230Y-60755D01*
X55120Y-60755D01*
X55120Y-60645D01*
X55230Y-60645D01*
X55280Y-60645D01*
X55800Y-60645D01*
X55875Y-60570D01*
X55874Y-60341D01*
X55829Y-60231D01*
X55801Y-60203D01*
X55824Y-60150D01*
X55824Y-60051D01*
X55824Y-59451D01*
X55786Y-59359D01*
X55716Y-59289D01*
X55625Y-59251D01*
X55526Y-59251D01*
X55510Y-59251D01*
X55498Y-59191D01*
X55422Y-59078D01*
X55422Y-59077D01*
X54997Y-58653D01*
X54884Y-58577D01*
X54750Y-58550D01*
X54525Y-58550D01*
X54525Y-58021D01*
X54697Y-57849D01*
X54734Y-57886D01*
X54825Y-57924D01*
X54924Y-57924D01*
X55524Y-57924D01*
X55616Y-57886D01*
X55686Y-57816D01*
X55724Y-57725D01*
X55724Y-57700D01*
X55864Y-57840D01*
X56066Y-57924D01*
X56284Y-57924D01*
X56295Y-57919D01*
X56375Y-57999D01*
X56375Y-58180D01*
X56364Y-58185D01*
X56210Y-58339D01*
X56126Y-58541D01*
X56126Y-58759D01*
X56210Y-58961D01*
X56364Y-59115D01*
X56566Y-59199D01*
X56784Y-59199D01*
X56986Y-59115D01*
X57140Y-58961D01*
X57151Y-58934D01*
X57160Y-58956D01*
X57267Y-58980D01*
X57597Y-58650D01*
X57267Y-58320D01*
X57160Y-58344D01*
X57151Y-58367D01*
X57140Y-58339D01*
X56986Y-58185D01*
X56975Y-58180D01*
X56975Y-57875D01*
X56952Y-57760D01*
X56887Y-57663D01*
X56774Y-57550D01*
X60754Y-57550D01*
X61175Y-57971D01*
X61175Y-60215D01*
X61198Y-60330D01*
X61225Y-60370D01*
X61225Y-61549D01*
X61111Y-61435D01*
X60909Y-61351D01*
X60691Y-61351D01*
X60489Y-61435D01*
X60335Y-61589D01*
X60251Y-61791D01*
X60251Y-62009D01*
X60335Y-62211D01*
X60489Y-62365D01*
X60691Y-62449D01*
X60909Y-62449D01*
X61111Y-62365D01*
X61225Y-62251D01*
X61225Y-63479D01*
G54D10*
G36*
X61225Y-53669D02*
X61198Y-53710D01*
X61175Y-53825D01*
X61175Y-56829D01*
X60754Y-57250D01*
X58375Y-57250D01*
X58375Y-54230D01*
X58375Y-53970D01*
X58374Y-53291D01*
X58329Y-53181D01*
X58268Y-53120D01*
X58268Y-51936D01*
X58256Y-51702D01*
X58190Y-51544D01*
X58083Y-51520D01*
X58005Y-51598D01*
X58005Y-51442D01*
X57981Y-51335D01*
X57761Y-51257D01*
X57527Y-51269D01*
X57369Y-51335D01*
X57345Y-51442D01*
X57675Y-51772D01*
X58005Y-51442D01*
X58005Y-51598D01*
X57753Y-51850D01*
X58083Y-52180D01*
X58190Y-52156D01*
X58268Y-51936D01*
X58268Y-53120D01*
X58245Y-53097D01*
X58135Y-53051D01*
X58016Y-53051D01*
X58005Y-53050D01*
X58005Y-52258D01*
X57675Y-51928D01*
X57345Y-52258D01*
X57369Y-52365D01*
X57589Y-52443D01*
X57823Y-52431D01*
X57981Y-52365D01*
X58005Y-52258D01*
X58005Y-53050D01*
X57805Y-53050D01*
X57730Y-53125D01*
X57730Y-54045D01*
X58300Y-54045D01*
X58375Y-53970D01*
X58375Y-54230D01*
X58300Y-54155D01*
X57730Y-54155D01*
X57730Y-55075D01*
X57805Y-55150D01*
X58016Y-55149D01*
X58135Y-55149D01*
X58245Y-55103D01*
X58329Y-55019D01*
X58374Y-54909D01*
X58375Y-54230D01*
X58375Y-57250D01*
X57620Y-57250D01*
X57620Y-55075D01*
X57620Y-54155D01*
X57620Y-54045D01*
X57620Y-53125D01*
X57545Y-53050D01*
X57334Y-53051D01*
X57215Y-53051D01*
X57105Y-53097D01*
X57021Y-53181D01*
X56976Y-53291D01*
X56975Y-53970D01*
X57050Y-54045D01*
X57620Y-54045D01*
X57620Y-54155D01*
X57050Y-54155D01*
X56975Y-54230D01*
X56976Y-54909D01*
X57021Y-55019D01*
X57105Y-55103D01*
X57215Y-55149D01*
X57334Y-55149D01*
X57545Y-55150D01*
X57620Y-55075D01*
X57620Y-57250D01*
X56717Y-57250D01*
X56640Y-57064D01*
X56486Y-56910D01*
X56284Y-56826D01*
X56066Y-56826D01*
X55864Y-56910D01*
X55724Y-57050D01*
X55724Y-57026D01*
X55686Y-56934D01*
X55616Y-56864D01*
X55525Y-56826D01*
X55426Y-56826D01*
X54826Y-56826D01*
X54734Y-56864D01*
X54672Y-56926D01*
X54525Y-56779D01*
X54525Y-55350D01*
X54526Y-55350D01*
X54564Y-55441D01*
X54634Y-55511D01*
X54725Y-55549D01*
X54824Y-55549D01*
X55624Y-55549D01*
X55716Y-55511D01*
X55786Y-55441D01*
X55824Y-55350D01*
X55824Y-55251D01*
X55824Y-54651D01*
X55801Y-54596D01*
X55829Y-54569D01*
X55874Y-54459D01*
X55875Y-54230D01*
X55800Y-54155D01*
X55280Y-54155D01*
X55230Y-54155D01*
X55120Y-54155D01*
X55120Y-54045D01*
X55230Y-54045D01*
X55280Y-54045D01*
X55800Y-54045D01*
X55875Y-53970D01*
X55874Y-53741D01*
X55829Y-53631D01*
X55801Y-53603D01*
X55824Y-53550D01*
X55824Y-53451D01*
X55824Y-52851D01*
X55786Y-52759D01*
X55716Y-52689D01*
X55625Y-52651D01*
X55526Y-52651D01*
X55454Y-52651D01*
X55422Y-52603D01*
X55422Y-52602D01*
X54972Y-52153D01*
X54859Y-52077D01*
X54725Y-52050D01*
X54525Y-52050D01*
X54525Y-50269D01*
X54626Y-50370D01*
X54626Y-50774D01*
X54664Y-50866D01*
X54734Y-50936D01*
X54825Y-50974D01*
X54924Y-50974D01*
X55524Y-50974D01*
X55616Y-50936D01*
X55686Y-50866D01*
X55724Y-50775D01*
X55724Y-50750D01*
X55864Y-50890D01*
X56066Y-50974D01*
X56284Y-50974D01*
X56295Y-50969D01*
X56375Y-51049D01*
X56375Y-51380D01*
X56364Y-51385D01*
X56210Y-51539D01*
X56126Y-51741D01*
X56126Y-51959D01*
X56210Y-52161D01*
X56364Y-52315D01*
X56566Y-52399D01*
X56784Y-52399D01*
X56986Y-52315D01*
X57140Y-52161D01*
X57151Y-52134D01*
X57160Y-52156D01*
X57267Y-52180D01*
X57597Y-51850D01*
X57267Y-51520D01*
X57160Y-51544D01*
X57151Y-51567D01*
X57140Y-51539D01*
X56986Y-51385D01*
X56975Y-51380D01*
X56975Y-50925D01*
X56952Y-50810D01*
X56887Y-50713D01*
X56719Y-50545D01*
X56724Y-50534D01*
X56724Y-50316D01*
X56640Y-50114D01*
X56486Y-49960D01*
X56284Y-49876D01*
X56066Y-49876D01*
X55864Y-49960D01*
X55724Y-50100D01*
X55724Y-50076D01*
X55686Y-49984D01*
X55616Y-49914D01*
X55525Y-49876D01*
X55426Y-49876D01*
X55120Y-49876D01*
X54850Y-49605D01*
X54850Y-48371D01*
X54996Y-48225D01*
X58479Y-48225D01*
X58875Y-48621D01*
X58875Y-51475D01*
X58902Y-51609D01*
X58950Y-51680D01*
X58950Y-51821D01*
X59479Y-52350D01*
X59605Y-52350D01*
X59627Y-52372D01*
X59628Y-52372D01*
X59741Y-52448D01*
X59875Y-52475D01*
X59924Y-52475D01*
X59860Y-52629D01*
X59860Y-52844D01*
X59860Y-53170D01*
X59942Y-53369D01*
X60094Y-53520D01*
X60292Y-53603D01*
X60507Y-53603D01*
X60706Y-53521D01*
X60857Y-53369D01*
X60899Y-53266D01*
X60942Y-53369D01*
X61094Y-53520D01*
X61225Y-53574D01*
X61225Y-53669D01*
X61225Y-53669D01*
G37*
G54D42*
X61225Y-53669D02*
X61198Y-53710D01*
X61175Y-53825D01*
X61175Y-56829D01*
X60754Y-57250D01*
X58375Y-57250D01*
X58375Y-54230D01*
X58375Y-53970D01*
X58374Y-53291D01*
X58329Y-53181D01*
X58268Y-53120D01*
X58268Y-51936D01*
X58256Y-51702D01*
X58190Y-51544D01*
X58083Y-51520D01*
X58005Y-51598D01*
X58005Y-51442D01*
X57981Y-51335D01*
X57761Y-51257D01*
X57527Y-51269D01*
X57369Y-51335D01*
X57345Y-51442D01*
X57675Y-51772D01*
X58005Y-51442D01*
X58005Y-51598D01*
X57753Y-51850D01*
X58083Y-52180D01*
X58190Y-52156D01*
X58268Y-51936D01*
X58268Y-53120D01*
X58245Y-53097D01*
X58135Y-53051D01*
X58016Y-53051D01*
X58005Y-53050D01*
X58005Y-52258D01*
X57675Y-51928D01*
X57345Y-52258D01*
X57369Y-52365D01*
X57589Y-52443D01*
X57823Y-52431D01*
X57981Y-52365D01*
X58005Y-52258D01*
X58005Y-53050D01*
X57805Y-53050D01*
X57730Y-53125D01*
X57730Y-54045D01*
X58300Y-54045D01*
X58375Y-53970D01*
X58375Y-54230D01*
X58300Y-54155D01*
X57730Y-54155D01*
X57730Y-55075D01*
X57805Y-55150D01*
X58016Y-55149D01*
X58135Y-55149D01*
X58245Y-55103D01*
X58329Y-55019D01*
X58374Y-54909D01*
X58375Y-54230D01*
X58375Y-57250D01*
X57620Y-57250D01*
X57620Y-55075D01*
X57620Y-54155D01*
X57620Y-54045D01*
X57620Y-53125D01*
X57545Y-53050D01*
X57334Y-53051D01*
X57215Y-53051D01*
X57105Y-53097D01*
X57021Y-53181D01*
X56976Y-53291D01*
X56975Y-53970D01*
X57050Y-54045D01*
X57620Y-54045D01*
X57620Y-54155D01*
X57050Y-54155D01*
X56975Y-54230D01*
X56976Y-54909D01*
X57021Y-55019D01*
X57105Y-55103D01*
X57215Y-55149D01*
X57334Y-55149D01*
X57545Y-55150D01*
X57620Y-55075D01*
X57620Y-57250D01*
X56717Y-57250D01*
X56640Y-57064D01*
X56486Y-56910D01*
X56284Y-56826D01*
X56066Y-56826D01*
X55864Y-56910D01*
X55724Y-57050D01*
X55724Y-57026D01*
X55686Y-56934D01*
X55616Y-56864D01*
X55525Y-56826D01*
X55426Y-56826D01*
X54826Y-56826D01*
X54734Y-56864D01*
X54672Y-56926D01*
X54525Y-56779D01*
X54525Y-55350D01*
X54526Y-55350D01*
X54564Y-55441D01*
X54634Y-55511D01*
X54725Y-55549D01*
X54824Y-55549D01*
X55624Y-55549D01*
X55716Y-55511D01*
X55786Y-55441D01*
X55824Y-55350D01*
X55824Y-55251D01*
X55824Y-54651D01*
X55801Y-54596D01*
X55829Y-54569D01*
X55874Y-54459D01*
X55875Y-54230D01*
X55800Y-54155D01*
X55280Y-54155D01*
X55230Y-54155D01*
X55120Y-54155D01*
X55120Y-54045D01*
X55230Y-54045D01*
X55280Y-54045D01*
X55800Y-54045D01*
X55875Y-53970D01*
X55874Y-53741D01*
X55829Y-53631D01*
X55801Y-53603D01*
X55824Y-53550D01*
X55824Y-53451D01*
X55824Y-52851D01*
X55786Y-52759D01*
X55716Y-52689D01*
X55625Y-52651D01*
X55526Y-52651D01*
X55454Y-52651D01*
X55422Y-52603D01*
X55422Y-52602D01*
X54972Y-52153D01*
X54859Y-52077D01*
X54725Y-52050D01*
X54525Y-52050D01*
X54525Y-50269D01*
X54626Y-50370D01*
X54626Y-50774D01*
X54664Y-50866D01*
X54734Y-50936D01*
X54825Y-50974D01*
X54924Y-50974D01*
X55524Y-50974D01*
X55616Y-50936D01*
X55686Y-50866D01*
X55724Y-50775D01*
X55724Y-50750D01*
X55864Y-50890D01*
X56066Y-50974D01*
X56284Y-50974D01*
X56295Y-50969D01*
X56375Y-51049D01*
X56375Y-51380D01*
X56364Y-51385D01*
X56210Y-51539D01*
X56126Y-51741D01*
X56126Y-51959D01*
X56210Y-52161D01*
X56364Y-52315D01*
X56566Y-52399D01*
X56784Y-52399D01*
X56986Y-52315D01*
X57140Y-52161D01*
X57151Y-52134D01*
X57160Y-52156D01*
X57267Y-52180D01*
X57597Y-51850D01*
X57267Y-51520D01*
X57160Y-51544D01*
X57151Y-51567D01*
X57140Y-51539D01*
X56986Y-51385D01*
X56975Y-51380D01*
X56975Y-50925D01*
X56952Y-50810D01*
X56887Y-50713D01*
X56719Y-50545D01*
X56724Y-50534D01*
X56724Y-50316D01*
X56640Y-50114D01*
X56486Y-49960D01*
X56284Y-49876D01*
X56066Y-49876D01*
X55864Y-49960D01*
X55724Y-50100D01*
X55724Y-50076D01*
X55686Y-49984D01*
X55616Y-49914D01*
X55525Y-49876D01*
X55426Y-49876D01*
X55120Y-49876D01*
X54850Y-49605D01*
X54850Y-48371D01*
X54996Y-48225D01*
X58479Y-48225D01*
X58875Y-48621D01*
X58875Y-51475D01*
X58902Y-51609D01*
X58950Y-51680D01*
X58950Y-51821D01*
X59479Y-52350D01*
X59605Y-52350D01*
X59627Y-52372D01*
X59628Y-52372D01*
X59741Y-52448D01*
X59875Y-52475D01*
X59924Y-52475D01*
X59860Y-52629D01*
X59860Y-52844D01*
X59860Y-53170D01*
X59942Y-53369D01*
X60094Y-53520D01*
X60292Y-53603D01*
X60507Y-53603D01*
X60706Y-53521D01*
X60857Y-53369D01*
X60899Y-53266D01*
X60942Y-53369D01*
X61094Y-53520D01*
X61225Y-53574D01*
X61225Y-53669D01*
M02*
