G04 (created by PCBNEW (2011-12-28 BZR 3254)-stable) date 1/9/2012 3:47:41 PM*
G01*
G70*
G90*
%MOIN*%
G04 Gerber Fmt 3.4, Leading zero omitted, Abs format*
%FSLAX34Y34*%
G04 APERTURE LIST*
%ADD10C,0.001000*%
%ADD11C,0.010000*%
%ADD12C,0.008000*%
G04 APERTURE END LIST*
G54D10*
G54D11*
X10000Y-10000D02*
X34000Y-10000D01*
X34000Y-22000D02*
X10000Y-22000D01*
X34000Y-10000D02*
X34000Y-22000D01*
X10000Y-22000D02*
X10000Y-10000D01*
G54D10*
X10250Y-17375D02*
X10500Y-17625D01*
X10500Y-17375D02*
X10250Y-17625D01*
X12650Y-17375D02*
X12900Y-17625D01*
X12900Y-17375D02*
X12650Y-17625D01*
X12825Y-14325D02*
X13075Y-14575D01*
X13075Y-14325D02*
X12825Y-14575D01*
X13200Y-13900D02*
X13450Y-14150D01*
X13450Y-13900D02*
X13200Y-14150D01*
X13200Y-18200D02*
X13450Y-18450D01*
X13450Y-18200D02*
X13200Y-18450D01*
X13675Y-12000D02*
X13925Y-12250D01*
X13925Y-12000D02*
X13675Y-12250D01*
X14325Y-12725D02*
X14575Y-12975D01*
X14575Y-12725D02*
X14325Y-12975D01*
X14825Y-15000D02*
X15075Y-15250D01*
X15075Y-15000D02*
X14825Y-15250D01*
X15375Y-15000D02*
X15625Y-15250D01*
X15625Y-15000D02*
X15375Y-15250D01*
X15750Y-18575D02*
X16000Y-18825D01*
X16000Y-18575D02*
X15750Y-18825D01*
X15850Y-14800D02*
X16100Y-15050D01*
X16100Y-14800D02*
X15850Y-15050D01*
X16115Y-16000D02*
X16365Y-16250D01*
X16365Y-16000D02*
X16115Y-16250D01*
X16950Y-15575D02*
X17200Y-15825D01*
X17200Y-15575D02*
X16950Y-15825D01*
X17075Y-16856D02*
X17325Y-17106D01*
X17325Y-16856D02*
X17075Y-17106D01*
X17225Y-21500D02*
X17475Y-21750D01*
X17475Y-21500D02*
X17225Y-21750D01*
X17350Y-14725D02*
X17600Y-14975D01*
X17600Y-14725D02*
X17350Y-14975D01*
X17350Y-18575D02*
X17600Y-18825D01*
X17600Y-18575D02*
X17350Y-18825D01*
X17625Y-21500D02*
X17875Y-21750D01*
X17875Y-21500D02*
X17625Y-21750D01*
X17825Y-13775D02*
X18075Y-14025D01*
X18075Y-13775D02*
X17825Y-14025D01*
X17950Y-14325D02*
X18200Y-14575D01*
X18200Y-14325D02*
X17950Y-14575D01*
X18300Y-19475D02*
X18550Y-19725D01*
X18550Y-19475D02*
X18300Y-19725D01*
X18700Y-15750D02*
X18950Y-16000D01*
X18950Y-15750D02*
X18700Y-16000D01*
X18700Y-17000D02*
X18950Y-17250D01*
X18950Y-17000D02*
X18700Y-17250D01*
X18950Y-17775D02*
X19200Y-18025D01*
X19200Y-17775D02*
X18950Y-18025D01*
X18967Y-15036D02*
X19217Y-15286D01*
X19217Y-15036D02*
X18967Y-15286D01*
X19100Y-15750D02*
X19350Y-16000D01*
X19350Y-15750D02*
X19100Y-16000D01*
X19100Y-17000D02*
X19350Y-17250D01*
X19350Y-17000D02*
X19100Y-17250D01*
X19225Y-13675D02*
X19475Y-13925D01*
X19475Y-13675D02*
X19225Y-13925D01*
X19950Y-18625D02*
X20200Y-18875D01*
X20200Y-18625D02*
X19950Y-18875D01*
X20725Y-17975D02*
X20975Y-18225D01*
X20975Y-17975D02*
X20725Y-18225D01*
X20750Y-14550D02*
X21000Y-14800D01*
X21000Y-14550D02*
X20750Y-14800D01*
X21500Y-16700D02*
X21750Y-16950D01*
X21750Y-16700D02*
X21500Y-16950D01*
X21675Y-19875D02*
X21925Y-20125D01*
X21925Y-19875D02*
X21675Y-20125D01*
X22550Y-13625D02*
X22800Y-13875D01*
X22800Y-13625D02*
X22550Y-13875D01*
X22875Y-12700D02*
X23125Y-12950D01*
X23125Y-12700D02*
X22875Y-12950D01*
X22900Y-16825D02*
X23150Y-17075D01*
X23150Y-16825D02*
X22900Y-17075D01*
X23225Y-15325D02*
X23475Y-15575D01*
X23475Y-15325D02*
X23225Y-15575D01*
X23325Y-15950D02*
X23575Y-16200D01*
X23575Y-15950D02*
X23325Y-16200D01*
X23775Y-12650D02*
X24025Y-12900D01*
X24025Y-12650D02*
X23775Y-12900D01*
X24500Y-15075D02*
X24750Y-15325D01*
X24750Y-15075D02*
X24500Y-15325D01*
X25025Y-18700D02*
X25275Y-18950D01*
X25275Y-18700D02*
X25025Y-18950D01*
X27650Y-13575D02*
X27900Y-13825D01*
X27900Y-13575D02*
X27650Y-13825D01*
X27900Y-10950D02*
X28150Y-11200D01*
X28150Y-10950D02*
X27900Y-11200D01*
X28650Y-17975D02*
X28900Y-18225D01*
X28900Y-17975D02*
X28650Y-18225D01*
X28650Y-19225D02*
X28900Y-19475D01*
X28900Y-19225D02*
X28650Y-19475D01*
X28650Y-19925D02*
X28900Y-20175D01*
X28900Y-19925D02*
X28650Y-20175D01*
X29800Y-13000D02*
X30050Y-13250D01*
X30050Y-13000D02*
X29800Y-13250D01*
X30275Y-18025D02*
X30525Y-18275D01*
X30525Y-18025D02*
X30275Y-18275D01*
X30400Y-16900D02*
X30650Y-17150D01*
X30650Y-16900D02*
X30400Y-17150D01*
X11775Y-19650D02*
X11771Y-19683D01*
X11761Y-19716D01*
X11745Y-19746D01*
X11724Y-19773D01*
X11697Y-19795D01*
X11667Y-19811D01*
X11635Y-19821D01*
X11601Y-19824D01*
X11568Y-19821D01*
X11535Y-19812D01*
X11505Y-19796D01*
X11478Y-19775D01*
X11456Y-19748D01*
X11440Y-19718D01*
X11429Y-19686D01*
X11426Y-19652D01*
X11428Y-19619D01*
X11438Y-19586D01*
X11453Y-19556D01*
X11475Y-19529D01*
X11501Y-19507D01*
X11530Y-19490D01*
X11563Y-19480D01*
X11597Y-19476D01*
X11630Y-19478D01*
X11663Y-19487D01*
X11693Y-19503D01*
X11720Y-19524D01*
X11743Y-19550D01*
X11759Y-19579D01*
X11770Y-19612D01*
X11774Y-19646D01*
X11775Y-19650D01*
X14925Y-19650D02*
X14921Y-19683D01*
X14911Y-19716D01*
X14895Y-19746D01*
X14874Y-19773D01*
X14847Y-19795D01*
X14817Y-19811D01*
X14785Y-19821D01*
X14751Y-19824D01*
X14718Y-19821D01*
X14685Y-19812D01*
X14655Y-19796D01*
X14628Y-19775D01*
X14606Y-19748D01*
X14590Y-19718D01*
X14579Y-19686D01*
X14576Y-19652D01*
X14578Y-19619D01*
X14588Y-19586D01*
X14603Y-19556D01*
X14625Y-19529D01*
X14651Y-19507D01*
X14680Y-19490D01*
X14713Y-19480D01*
X14747Y-19476D01*
X14780Y-19478D01*
X14813Y-19487D01*
X14843Y-19503D01*
X14870Y-19524D01*
X14893Y-19550D01*
X14909Y-19579D01*
X14920Y-19612D01*
X14924Y-19646D01*
X14925Y-19650D01*
X17675Y-13100D02*
X17675Y-13500D01*
X17875Y-13300D02*
X17475Y-13300D01*
X18675Y-10600D02*
X18675Y-11000D01*
X18875Y-10800D02*
X18475Y-10800D01*
X18675Y-11600D02*
X18675Y-12000D01*
X18875Y-11800D02*
X18475Y-11800D01*
X18675Y-13100D02*
X18675Y-13500D01*
X18875Y-13300D02*
X18475Y-13300D01*
X19675Y-10600D02*
X19675Y-11000D01*
X19875Y-10800D02*
X19475Y-10800D01*
X19675Y-11600D02*
X19675Y-12000D01*
X19875Y-11800D02*
X19475Y-11800D01*
X19675Y-13100D02*
X19675Y-13500D01*
X19875Y-13300D02*
X19475Y-13300D01*
X20325Y-19400D02*
X20325Y-19800D01*
X20525Y-19600D02*
X20125Y-19600D01*
X20325Y-20900D02*
X20325Y-21300D01*
X20525Y-21100D02*
X20125Y-21100D01*
X20675Y-10600D02*
X20675Y-11000D01*
X20875Y-10800D02*
X20475Y-10800D01*
X20675Y-11600D02*
X20675Y-12000D01*
X20875Y-11800D02*
X20475Y-11800D01*
X20675Y-13100D02*
X20675Y-13500D01*
X20875Y-13300D02*
X20475Y-13300D01*
X21325Y-19400D02*
X21325Y-19800D01*
X21525Y-19600D02*
X21125Y-19600D01*
X21325Y-20900D02*
X21325Y-21300D01*
X21525Y-21100D02*
X21125Y-21100D01*
X22325Y-19400D02*
X22325Y-19800D01*
X22525Y-19600D02*
X22125Y-19600D01*
X22325Y-20900D02*
X22325Y-21300D01*
X22525Y-21100D02*
X22125Y-21100D01*
X23325Y-19400D02*
X23325Y-19800D01*
X23525Y-19600D02*
X23125Y-19600D01*
X23325Y-20900D02*
X23325Y-21300D01*
X23525Y-21100D02*
X23125Y-21100D01*
X24325Y-19400D02*
X24325Y-19800D01*
X24525Y-19600D02*
X24125Y-19600D01*
X24325Y-20900D02*
X24325Y-21300D01*
X24525Y-21100D02*
X24125Y-21100D01*
X25325Y-19400D02*
X25325Y-19800D01*
X25525Y-19600D02*
X25125Y-19600D01*
X25325Y-20900D02*
X25325Y-21300D01*
X25525Y-21100D02*
X25125Y-21100D01*
X26325Y-19400D02*
X26325Y-19800D01*
X26525Y-19600D02*
X26125Y-19600D01*
X26325Y-20900D02*
X26325Y-21300D01*
X26525Y-21100D02*
X26125Y-21100D01*
X27325Y-19400D02*
X27325Y-19800D01*
X27525Y-19600D02*
X27125Y-19600D01*
X27325Y-20900D02*
X27325Y-21300D01*
X27525Y-21100D02*
X27125Y-21100D01*
X28325Y-20900D02*
X28325Y-21300D01*
X28525Y-21100D02*
X28125Y-21100D01*
X29325Y-20900D02*
X29325Y-21300D01*
X29525Y-21100D02*
X29125Y-21100D01*
X30325Y-20900D02*
X30325Y-21300D01*
X30525Y-21100D02*
X30125Y-21100D01*
X31125Y-11900D02*
X31125Y-12300D01*
X31325Y-12100D02*
X30925Y-12100D01*
X31125Y-12900D02*
X31125Y-13300D01*
X31325Y-13100D02*
X30925Y-13100D01*
X31325Y-20900D02*
X31325Y-21300D01*
X31525Y-21100D02*
X31125Y-21100D01*
X32325Y-10400D02*
X32325Y-10800D01*
X32525Y-10600D02*
X32125Y-10600D01*
X32325Y-11400D02*
X32325Y-11800D01*
X32525Y-11600D02*
X32125Y-11600D01*
X32325Y-12400D02*
X32325Y-12800D01*
X32525Y-12600D02*
X32125Y-12600D01*
X32325Y-13400D02*
X32325Y-13800D01*
X32525Y-13600D02*
X32125Y-13600D01*
X32325Y-14400D02*
X32325Y-14800D01*
X32525Y-14600D02*
X32125Y-14600D01*
X32325Y-15400D02*
X32325Y-15800D01*
X32525Y-15600D02*
X32125Y-15600D01*
X32325Y-16400D02*
X32325Y-16800D01*
X32525Y-16600D02*
X32125Y-16600D01*
X32325Y-17400D02*
X32325Y-17800D01*
X32525Y-17600D02*
X32125Y-17600D01*
X32325Y-18400D02*
X32325Y-18800D01*
X32525Y-18600D02*
X32125Y-18600D01*
X32325Y-19400D02*
X32325Y-19800D01*
X32525Y-19600D02*
X32125Y-19600D01*
X32325Y-20900D02*
X32325Y-21300D01*
X32525Y-21100D02*
X32125Y-21100D01*
X19225Y-21250D02*
X19215Y-21347D01*
X19187Y-21440D01*
X19141Y-21526D01*
X19079Y-21602D01*
X19004Y-21664D01*
X18918Y-21710D01*
X18825Y-21739D01*
X18728Y-21749D01*
X18632Y-21741D01*
X18538Y-21713D01*
X18452Y-21668D01*
X18376Y-21607D01*
X18313Y-21532D01*
X18266Y-21446D01*
X18236Y-21353D01*
X18226Y-21256D01*
X18234Y-21160D01*
X18261Y-21066D01*
X18305Y-20980D01*
X18366Y-20903D01*
X18440Y-20840D01*
X18525Y-20792D01*
X18618Y-20762D01*
X18715Y-20751D01*
X18811Y-20758D01*
X18905Y-20784D01*
X18992Y-20828D01*
X19069Y-20888D01*
X19133Y-20962D01*
X19181Y-21047D01*
X19212Y-21140D01*
X19224Y-21237D01*
X19225Y-21250D01*
X18225Y-20750D02*
X19225Y-21750D01*
X19225Y-20750D02*
X18225Y-21750D01*
G54D12*
X09789Y-23494D02*
X09789Y-22694D01*
X09980Y-22694D01*
X10094Y-22732D01*
X10170Y-22808D01*
X10209Y-22884D01*
X10247Y-23037D01*
X10247Y-23151D01*
X10209Y-23303D01*
X10170Y-23380D01*
X10094Y-23456D01*
X09980Y-23494D01*
X09789Y-23494D01*
X10589Y-23494D02*
X10589Y-22960D01*
X10589Y-23113D02*
X10628Y-23037D01*
X10666Y-22999D01*
X10742Y-22960D01*
X10818Y-22960D01*
X11084Y-23494D02*
X11084Y-22960D01*
X11084Y-22694D02*
X11046Y-22732D01*
X11084Y-22770D01*
X11123Y-22732D01*
X11084Y-22694D01*
X11084Y-22770D01*
X11580Y-23494D02*
X11504Y-23456D01*
X11465Y-23380D01*
X11465Y-22694D01*
X11999Y-23494D02*
X11923Y-23456D01*
X11884Y-23380D01*
X11884Y-22694D01*
X12913Y-23494D02*
X12913Y-22694D01*
X13180Y-23265D01*
X13447Y-22694D01*
X13447Y-23494D01*
X14170Y-23494D02*
X14170Y-23075D01*
X14132Y-22999D01*
X14056Y-22960D01*
X13904Y-22960D01*
X13827Y-22999D01*
X14170Y-23456D02*
X14094Y-23494D01*
X13904Y-23494D01*
X13827Y-23456D01*
X13789Y-23380D01*
X13789Y-23303D01*
X13827Y-23227D01*
X13904Y-23189D01*
X14094Y-23189D01*
X14170Y-23151D01*
X14551Y-22960D02*
X14551Y-23760D01*
X14551Y-22999D02*
X14628Y-22960D01*
X14780Y-22960D01*
X14856Y-22999D01*
X14894Y-23037D01*
X14932Y-23113D01*
X14932Y-23341D01*
X14894Y-23418D01*
X14856Y-23456D01*
X14780Y-23494D01*
X14628Y-23494D01*
X14551Y-23456D01*
X15275Y-23418D02*
X15314Y-23456D01*
X15275Y-23494D01*
X15237Y-23456D01*
X15275Y-23418D01*
X15275Y-23494D01*
X15275Y-22999D02*
X15314Y-23037D01*
X15275Y-23075D01*
X15237Y-23037D01*
X15275Y-22999D01*
X15275Y-23075D01*
X09149Y-24725D02*
X09399Y-24975D01*
X09399Y-24725D02*
X09149Y-24975D01*
X09942Y-24374D02*
X10018Y-24374D01*
X10094Y-24412D01*
X10132Y-24450D01*
X10170Y-24526D01*
X10209Y-24679D01*
X10209Y-24869D01*
X10170Y-25021D01*
X10132Y-25098D01*
X10094Y-25136D01*
X10018Y-25174D01*
X09942Y-25174D01*
X09866Y-25136D01*
X09828Y-25098D01*
X09789Y-25021D01*
X09751Y-24869D01*
X09751Y-24679D01*
X09789Y-24526D01*
X09828Y-24450D01*
X09866Y-24412D01*
X09942Y-24374D01*
X10551Y-25098D02*
X10590Y-25136D01*
X10551Y-25174D01*
X10513Y-25136D01*
X10551Y-25098D01*
X10551Y-25174D01*
X11085Y-24374D02*
X11161Y-24374D01*
X11237Y-24412D01*
X11275Y-24450D01*
X11313Y-24526D01*
X11352Y-24679D01*
X11352Y-24869D01*
X11313Y-25021D01*
X11275Y-25098D01*
X11237Y-25136D01*
X11161Y-25174D01*
X11085Y-25174D01*
X11009Y-25136D01*
X10971Y-25098D01*
X10932Y-25021D01*
X10894Y-24869D01*
X10894Y-24679D01*
X10932Y-24526D01*
X10971Y-24450D01*
X11009Y-24412D01*
X11085Y-24374D01*
X11656Y-24450D02*
X11694Y-24412D01*
X11771Y-24374D01*
X11961Y-24374D01*
X12037Y-24412D01*
X12075Y-24450D01*
X12114Y-24526D01*
X12114Y-24602D01*
X12075Y-24717D01*
X11618Y-25174D01*
X12114Y-25174D01*
X12837Y-24374D02*
X12456Y-24374D01*
X12418Y-24755D01*
X12456Y-24717D01*
X12533Y-24679D01*
X12723Y-24679D01*
X12799Y-24717D01*
X12837Y-24755D01*
X12876Y-24831D01*
X12876Y-25021D01*
X12837Y-25098D01*
X12799Y-25136D01*
X12723Y-25174D01*
X12533Y-25174D01*
X12456Y-25136D01*
X12418Y-25098D01*
X13180Y-24374D02*
X13180Y-24526D01*
X13485Y-24374D02*
X13485Y-24526D01*
X15010Y-24336D02*
X14324Y-25364D01*
X16039Y-24374D02*
X16115Y-24374D01*
X16191Y-24412D01*
X16229Y-24450D01*
X16267Y-24526D01*
X16306Y-24679D01*
X16306Y-24869D01*
X16267Y-25021D01*
X16229Y-25098D01*
X16191Y-25136D01*
X16115Y-25174D01*
X16039Y-25174D01*
X15963Y-25136D01*
X15925Y-25098D01*
X15886Y-25021D01*
X15848Y-24869D01*
X15848Y-24679D01*
X15886Y-24526D01*
X15925Y-24450D01*
X15963Y-24412D01*
X16039Y-24374D01*
X16648Y-25098D02*
X16687Y-25136D01*
X16648Y-25174D01*
X16610Y-25136D01*
X16648Y-25098D01*
X16648Y-25174D01*
X17372Y-24374D02*
X17220Y-24374D01*
X17144Y-24412D01*
X17106Y-24450D01*
X17029Y-24564D01*
X16991Y-24717D01*
X16991Y-25021D01*
X17029Y-25098D01*
X17068Y-25136D01*
X17144Y-25174D01*
X17296Y-25174D01*
X17372Y-25136D01*
X17410Y-25098D01*
X17449Y-25021D01*
X17449Y-24831D01*
X17410Y-24755D01*
X17372Y-24717D01*
X17296Y-24679D01*
X17144Y-24679D01*
X17068Y-24717D01*
X17029Y-24755D01*
X16991Y-24831D01*
X18134Y-24640D02*
X18134Y-25174D01*
X17944Y-24336D02*
X17753Y-24907D01*
X18249Y-24907D01*
X18553Y-25174D02*
X18553Y-24640D01*
X18553Y-24717D02*
X18592Y-24679D01*
X18668Y-24640D01*
X18782Y-24640D01*
X18858Y-24679D01*
X18896Y-24755D01*
X18896Y-25174D01*
X18896Y-24755D02*
X18934Y-24679D01*
X19011Y-24640D01*
X19125Y-24640D01*
X19201Y-24679D01*
X19239Y-24755D01*
X19239Y-25174D01*
X19620Y-25174D02*
X19620Y-24640D01*
X19620Y-24717D02*
X19659Y-24679D01*
X19735Y-24640D01*
X19849Y-24640D01*
X19925Y-24679D01*
X19963Y-24755D01*
X19963Y-25174D01*
X19963Y-24755D02*
X20001Y-24679D01*
X20078Y-24640D01*
X20192Y-24640D01*
X20268Y-24679D01*
X20306Y-24755D01*
X20306Y-25174D01*
X21526Y-25479D02*
X21488Y-25440D01*
X21412Y-25326D01*
X21374Y-25250D01*
X21336Y-25136D01*
X21297Y-24945D01*
X21297Y-24793D01*
X21336Y-24602D01*
X21374Y-24488D01*
X21412Y-24412D01*
X21488Y-24298D01*
X21526Y-24260D01*
X22173Y-24640D02*
X22173Y-25174D01*
X21983Y-24336D02*
X21792Y-24907D01*
X22288Y-24907D01*
X22631Y-25174D02*
X22783Y-25174D01*
X22859Y-25136D01*
X22897Y-25098D01*
X22973Y-24983D01*
X23012Y-24831D01*
X23012Y-24526D01*
X22973Y-24450D01*
X22935Y-24412D01*
X22859Y-24374D01*
X22707Y-24374D01*
X22631Y-24412D01*
X22592Y-24450D01*
X22554Y-24526D01*
X22554Y-24717D01*
X22592Y-24793D01*
X22631Y-24831D01*
X22707Y-24869D01*
X22859Y-24869D01*
X22935Y-24831D01*
X22973Y-24793D01*
X23012Y-24717D01*
X23964Y-25174D02*
X23964Y-24374D01*
X24307Y-25174D02*
X24307Y-24755D01*
X24269Y-24679D01*
X24193Y-24640D01*
X24079Y-24640D01*
X24003Y-24679D01*
X23964Y-24717D01*
X24803Y-25174D02*
X24727Y-25136D01*
X24688Y-25098D01*
X24650Y-25021D01*
X24650Y-24793D01*
X24688Y-24717D01*
X24727Y-24679D01*
X24803Y-24640D01*
X24917Y-24640D01*
X24993Y-24679D01*
X25031Y-24717D01*
X25069Y-24793D01*
X25069Y-25021D01*
X25031Y-25098D01*
X24993Y-25136D01*
X24917Y-25174D01*
X24803Y-25174D01*
X25527Y-25174D02*
X25451Y-25136D01*
X25412Y-25060D01*
X25412Y-24374D01*
X26136Y-25136D02*
X26060Y-25174D01*
X25908Y-25174D01*
X25831Y-25136D01*
X25793Y-25060D01*
X25793Y-24755D01*
X25831Y-24679D01*
X25908Y-24640D01*
X26060Y-24640D01*
X26136Y-24679D01*
X26174Y-24755D01*
X26174Y-24831D01*
X25793Y-24907D01*
X26479Y-25136D02*
X26556Y-25174D01*
X26708Y-25174D01*
X26784Y-25136D01*
X26822Y-25060D01*
X26822Y-25021D01*
X26784Y-24945D01*
X26708Y-24907D01*
X26594Y-24907D01*
X26517Y-24869D01*
X26479Y-24793D01*
X26479Y-24755D01*
X26517Y-24679D01*
X26594Y-24640D01*
X26708Y-24640D01*
X26784Y-24679D01*
X27089Y-25479D02*
X27127Y-25440D01*
X27204Y-25326D01*
X27242Y-25250D01*
X27280Y-25136D01*
X27318Y-24945D01*
X27318Y-24793D01*
X27280Y-24602D01*
X27242Y-24488D01*
X27204Y-24412D01*
X27127Y-24298D01*
X27089Y-24260D01*
G54D10*
X09399Y-25905D02*
X09395Y-25938D01*
X09385Y-25971D01*
X09369Y-26001D01*
X09348Y-26028D01*
X09321Y-26050D01*
X09291Y-26066D01*
X09259Y-26076D01*
X09225Y-26079D01*
X09192Y-26076D01*
X09159Y-26067D01*
X09129Y-26051D01*
X09102Y-26030D01*
X09080Y-26003D01*
X09064Y-25973D01*
X09053Y-25941D01*
X09050Y-25907D01*
X09052Y-25874D01*
X09062Y-25841D01*
X09077Y-25811D01*
X09099Y-25784D01*
X09125Y-25762D01*
X09154Y-25745D01*
X09187Y-25735D01*
X09221Y-25731D01*
X09254Y-25733D01*
X09287Y-25742D01*
X09317Y-25758D01*
X09344Y-25779D01*
X09367Y-25805D01*
X09383Y-25834D01*
X09394Y-25867D01*
X09398Y-25901D01*
X09399Y-25905D01*
G54D12*
X09942Y-25429D02*
X10018Y-25429D01*
X10094Y-25467D01*
X10132Y-25505D01*
X10170Y-25581D01*
X10209Y-25734D01*
X10209Y-25924D01*
X10170Y-26076D01*
X10132Y-26153D01*
X10094Y-26191D01*
X10018Y-26229D01*
X09942Y-26229D01*
X09866Y-26191D01*
X09828Y-26153D01*
X09789Y-26076D01*
X09751Y-25924D01*
X09751Y-25734D01*
X09789Y-25581D01*
X09828Y-25505D01*
X09866Y-25467D01*
X09942Y-25429D01*
X10551Y-26153D02*
X10590Y-26191D01*
X10551Y-26229D01*
X10513Y-26191D01*
X10551Y-26153D01*
X10551Y-26229D01*
X11085Y-25429D02*
X11161Y-25429D01*
X11237Y-25467D01*
X11275Y-25505D01*
X11313Y-25581D01*
X11352Y-25734D01*
X11352Y-25924D01*
X11313Y-26076D01*
X11275Y-26153D01*
X11237Y-26191D01*
X11161Y-26229D01*
X11085Y-26229D01*
X11009Y-26191D01*
X10971Y-26153D01*
X10932Y-26076D01*
X10894Y-25924D01*
X10894Y-25734D01*
X10932Y-25581D01*
X10971Y-25505D01*
X11009Y-25467D01*
X11085Y-25429D01*
X11618Y-25429D02*
X12114Y-25429D01*
X11847Y-25734D01*
X11961Y-25734D01*
X12037Y-25772D01*
X12075Y-25810D01*
X12114Y-25886D01*
X12114Y-26076D01*
X12075Y-26153D01*
X12037Y-26191D01*
X11961Y-26229D01*
X11733Y-26229D01*
X11656Y-26191D01*
X11618Y-26153D01*
X12837Y-25429D02*
X12456Y-25429D01*
X12418Y-25810D01*
X12456Y-25772D01*
X12533Y-25734D01*
X12723Y-25734D01*
X12799Y-25772D01*
X12837Y-25810D01*
X12876Y-25886D01*
X12876Y-26076D01*
X12837Y-26153D01*
X12799Y-26191D01*
X12723Y-26229D01*
X12533Y-26229D01*
X12456Y-26191D01*
X12418Y-26153D01*
X13180Y-25429D02*
X13180Y-25581D01*
X13485Y-25429D02*
X13485Y-25581D01*
X15010Y-25391D02*
X14324Y-26419D01*
X16039Y-25429D02*
X16115Y-25429D01*
X16191Y-25467D01*
X16229Y-25505D01*
X16267Y-25581D01*
X16306Y-25734D01*
X16306Y-25924D01*
X16267Y-26076D01*
X16229Y-26153D01*
X16191Y-26191D01*
X16115Y-26229D01*
X16039Y-26229D01*
X15963Y-26191D01*
X15925Y-26153D01*
X15886Y-26076D01*
X15848Y-25924D01*
X15848Y-25734D01*
X15886Y-25581D01*
X15925Y-25505D01*
X15963Y-25467D01*
X16039Y-25429D01*
X16648Y-26153D02*
X16687Y-26191D01*
X16648Y-26229D01*
X16610Y-26191D01*
X16648Y-26153D01*
X16648Y-26229D01*
X17144Y-25772D02*
X17068Y-25734D01*
X17029Y-25695D01*
X16991Y-25619D01*
X16991Y-25581D01*
X17029Y-25505D01*
X17068Y-25467D01*
X17144Y-25429D01*
X17296Y-25429D01*
X17372Y-25467D01*
X17410Y-25505D01*
X17449Y-25581D01*
X17449Y-25619D01*
X17410Y-25695D01*
X17372Y-25734D01*
X17296Y-25772D01*
X17144Y-25772D01*
X17068Y-25810D01*
X17029Y-25848D01*
X16991Y-25924D01*
X16991Y-26076D01*
X17029Y-26153D01*
X17068Y-26191D01*
X17144Y-26229D01*
X17296Y-26229D01*
X17372Y-26191D01*
X17410Y-26153D01*
X17449Y-26076D01*
X17449Y-25924D01*
X17410Y-25848D01*
X17372Y-25810D01*
X17296Y-25772D01*
X17830Y-26229D02*
X17982Y-26229D01*
X18058Y-26191D01*
X18096Y-26153D01*
X18172Y-26038D01*
X18211Y-25886D01*
X18211Y-25581D01*
X18172Y-25505D01*
X18134Y-25467D01*
X18058Y-25429D01*
X17906Y-25429D01*
X17830Y-25467D01*
X17791Y-25505D01*
X17753Y-25581D01*
X17753Y-25772D01*
X17791Y-25848D01*
X17830Y-25886D01*
X17906Y-25924D01*
X18058Y-25924D01*
X18134Y-25886D01*
X18172Y-25848D01*
X18211Y-25772D01*
X18553Y-26229D02*
X18553Y-25695D01*
X18553Y-25772D02*
X18592Y-25734D01*
X18668Y-25695D01*
X18782Y-25695D01*
X18858Y-25734D01*
X18896Y-25810D01*
X18896Y-26229D01*
X18896Y-25810D02*
X18934Y-25734D01*
X19011Y-25695D01*
X19125Y-25695D01*
X19201Y-25734D01*
X19239Y-25810D01*
X19239Y-26229D01*
X19620Y-26229D02*
X19620Y-25695D01*
X19620Y-25772D02*
X19659Y-25734D01*
X19735Y-25695D01*
X19849Y-25695D01*
X19925Y-25734D01*
X19963Y-25810D01*
X19963Y-26229D01*
X19963Y-25810D02*
X20001Y-25734D01*
X20078Y-25695D01*
X20192Y-25695D01*
X20268Y-25734D01*
X20306Y-25810D01*
X20306Y-26229D01*
X21526Y-26534D02*
X21488Y-26495D01*
X21412Y-26381D01*
X21374Y-26305D01*
X21336Y-26191D01*
X21297Y-26000D01*
X21297Y-25848D01*
X21336Y-25657D01*
X21374Y-25543D01*
X21412Y-25467D01*
X21488Y-25353D01*
X21526Y-25315D01*
X21792Y-25505D02*
X21830Y-25467D01*
X21907Y-25429D01*
X22097Y-25429D01*
X22173Y-25467D01*
X22211Y-25505D01*
X22250Y-25581D01*
X22250Y-25657D01*
X22211Y-25772D01*
X21754Y-26229D01*
X22250Y-26229D01*
X23202Y-26229D02*
X23202Y-25429D01*
X23545Y-26229D02*
X23545Y-25810D01*
X23507Y-25734D01*
X23431Y-25695D01*
X23317Y-25695D01*
X23241Y-25734D01*
X23202Y-25772D01*
X24041Y-26229D02*
X23965Y-26191D01*
X23926Y-26153D01*
X23888Y-26076D01*
X23888Y-25848D01*
X23926Y-25772D01*
X23965Y-25734D01*
X24041Y-25695D01*
X24155Y-25695D01*
X24231Y-25734D01*
X24269Y-25772D01*
X24307Y-25848D01*
X24307Y-26076D01*
X24269Y-26153D01*
X24231Y-26191D01*
X24155Y-26229D01*
X24041Y-26229D01*
X24765Y-26229D02*
X24689Y-26191D01*
X24650Y-26115D01*
X24650Y-25429D01*
X25374Y-26191D02*
X25298Y-26229D01*
X25146Y-26229D01*
X25069Y-26191D01*
X25031Y-26115D01*
X25031Y-25810D01*
X25069Y-25734D01*
X25146Y-25695D01*
X25298Y-25695D01*
X25374Y-25734D01*
X25412Y-25810D01*
X25412Y-25886D01*
X25031Y-25962D01*
X25717Y-26191D02*
X25794Y-26229D01*
X25946Y-26229D01*
X26022Y-26191D01*
X26060Y-26115D01*
X26060Y-26076D01*
X26022Y-26000D01*
X25946Y-25962D01*
X25832Y-25962D01*
X25755Y-25924D01*
X25717Y-25848D01*
X25717Y-25810D01*
X25755Y-25734D01*
X25832Y-25695D01*
X25946Y-25695D01*
X26022Y-25734D01*
X26327Y-26534D02*
X26365Y-26495D01*
X26442Y-26381D01*
X26480Y-26305D01*
X26518Y-26191D01*
X26556Y-26000D01*
X26556Y-25848D01*
X26518Y-25657D01*
X26480Y-25543D01*
X26442Y-25467D01*
X26365Y-25353D01*
X26327Y-25315D01*
X09199Y-26760D02*
X09199Y-27160D01*
X09399Y-26960D02*
X08999Y-26960D01*
X09942Y-26484D02*
X10018Y-26484D01*
X10094Y-26522D01*
X10132Y-26560D01*
X10170Y-26636D01*
X10209Y-26789D01*
X10209Y-26979D01*
X10170Y-27131D01*
X10132Y-27208D01*
X10094Y-27246D01*
X10018Y-27284D01*
X09942Y-27284D01*
X09866Y-27246D01*
X09828Y-27208D01*
X09789Y-27131D01*
X09751Y-26979D01*
X09751Y-26789D01*
X09789Y-26636D01*
X09828Y-26560D01*
X09866Y-26522D01*
X09942Y-26484D01*
X10551Y-27208D02*
X10590Y-27246D01*
X10551Y-27284D01*
X10513Y-27246D01*
X10551Y-27208D01*
X10551Y-27284D01*
X11085Y-26484D02*
X11161Y-26484D01*
X11237Y-26522D01*
X11275Y-26560D01*
X11313Y-26636D01*
X11352Y-26789D01*
X11352Y-26979D01*
X11313Y-27131D01*
X11275Y-27208D01*
X11237Y-27246D01*
X11161Y-27284D01*
X11085Y-27284D01*
X11009Y-27246D01*
X10971Y-27208D01*
X10932Y-27131D01*
X10894Y-26979D01*
X10894Y-26789D01*
X10932Y-26636D01*
X10971Y-26560D01*
X11009Y-26522D01*
X11085Y-26484D01*
X12037Y-26750D02*
X12037Y-27284D01*
X11847Y-26446D02*
X11656Y-27017D01*
X12152Y-27017D01*
X12609Y-26484D02*
X12685Y-26484D01*
X12761Y-26522D01*
X12799Y-26560D01*
X12837Y-26636D01*
X12876Y-26789D01*
X12876Y-26979D01*
X12837Y-27131D01*
X12799Y-27208D01*
X12761Y-27246D01*
X12685Y-27284D01*
X12609Y-27284D01*
X12533Y-27246D01*
X12495Y-27208D01*
X12456Y-27131D01*
X12418Y-26979D01*
X12418Y-26789D01*
X12456Y-26636D01*
X12495Y-26560D01*
X12533Y-26522D01*
X12609Y-26484D01*
X13180Y-26484D02*
X13180Y-26636D01*
X13485Y-26484D02*
X13485Y-26636D01*
X15010Y-26446D02*
X14324Y-27474D01*
X16306Y-27284D02*
X15848Y-27284D01*
X16077Y-27284D02*
X16077Y-26484D01*
X16001Y-26598D01*
X15925Y-26674D01*
X15848Y-26712D01*
X16648Y-27208D02*
X16687Y-27246D01*
X16648Y-27284D01*
X16610Y-27246D01*
X16648Y-27208D01*
X16648Y-27284D01*
X17182Y-26484D02*
X17258Y-26484D01*
X17334Y-26522D01*
X17372Y-26560D01*
X17410Y-26636D01*
X17449Y-26789D01*
X17449Y-26979D01*
X17410Y-27131D01*
X17372Y-27208D01*
X17334Y-27246D01*
X17258Y-27284D01*
X17182Y-27284D01*
X17106Y-27246D01*
X17068Y-27208D01*
X17029Y-27131D01*
X16991Y-26979D01*
X16991Y-26789D01*
X17029Y-26636D01*
X17068Y-26560D01*
X17106Y-26522D01*
X17182Y-26484D01*
X17753Y-26560D02*
X17791Y-26522D01*
X17868Y-26484D01*
X18058Y-26484D01*
X18134Y-26522D01*
X18172Y-26560D01*
X18211Y-26636D01*
X18211Y-26712D01*
X18172Y-26827D01*
X17715Y-27284D01*
X18211Y-27284D01*
X18553Y-27284D02*
X18553Y-26750D01*
X18553Y-26827D02*
X18592Y-26789D01*
X18668Y-26750D01*
X18782Y-26750D01*
X18858Y-26789D01*
X18896Y-26865D01*
X18896Y-27284D01*
X18896Y-26865D02*
X18934Y-26789D01*
X19011Y-26750D01*
X19125Y-26750D01*
X19201Y-26789D01*
X19239Y-26865D01*
X19239Y-27284D01*
X19620Y-27284D02*
X19620Y-26750D01*
X19620Y-26827D02*
X19659Y-26789D01*
X19735Y-26750D01*
X19849Y-26750D01*
X19925Y-26789D01*
X19963Y-26865D01*
X19963Y-27284D01*
X19963Y-26865D02*
X20001Y-26789D01*
X20078Y-26750D01*
X20192Y-26750D01*
X20268Y-26789D01*
X20306Y-26865D01*
X20306Y-27284D01*
X21526Y-27589D02*
X21488Y-27550D01*
X21412Y-27436D01*
X21374Y-27360D01*
X21336Y-27246D01*
X21297Y-27055D01*
X21297Y-26903D01*
X21336Y-26712D01*
X21374Y-26598D01*
X21412Y-26522D01*
X21488Y-26408D01*
X21526Y-26370D01*
X22173Y-26750D02*
X22173Y-27284D01*
X21983Y-26446D02*
X21792Y-27017D01*
X22288Y-27017D01*
X22516Y-26484D02*
X23012Y-26484D01*
X22745Y-26789D01*
X22859Y-26789D01*
X22935Y-26827D01*
X22973Y-26865D01*
X23012Y-26941D01*
X23012Y-27131D01*
X22973Y-27208D01*
X22935Y-27246D01*
X22859Y-27284D01*
X22631Y-27284D01*
X22554Y-27246D01*
X22516Y-27208D01*
X23964Y-27284D02*
X23964Y-26484D01*
X24307Y-27284D02*
X24307Y-26865D01*
X24269Y-26789D01*
X24193Y-26750D01*
X24079Y-26750D01*
X24003Y-26789D01*
X23964Y-26827D01*
X24803Y-27284D02*
X24727Y-27246D01*
X24688Y-27208D01*
X24650Y-27131D01*
X24650Y-26903D01*
X24688Y-26827D01*
X24727Y-26789D01*
X24803Y-26750D01*
X24917Y-26750D01*
X24993Y-26789D01*
X25031Y-26827D01*
X25069Y-26903D01*
X25069Y-27131D01*
X25031Y-27208D01*
X24993Y-27246D01*
X24917Y-27284D01*
X24803Y-27284D01*
X25527Y-27284D02*
X25451Y-27246D01*
X25412Y-27170D01*
X25412Y-26484D01*
X26136Y-27246D02*
X26060Y-27284D01*
X25908Y-27284D01*
X25831Y-27246D01*
X25793Y-27170D01*
X25793Y-26865D01*
X25831Y-26789D01*
X25908Y-26750D01*
X26060Y-26750D01*
X26136Y-26789D01*
X26174Y-26865D01*
X26174Y-26941D01*
X25793Y-27017D01*
X26479Y-27246D02*
X26556Y-27284D01*
X26708Y-27284D01*
X26784Y-27246D01*
X26822Y-27170D01*
X26822Y-27131D01*
X26784Y-27055D01*
X26708Y-27017D01*
X26594Y-27017D01*
X26517Y-26979D01*
X26479Y-26903D01*
X26479Y-26865D01*
X26517Y-26789D01*
X26594Y-26750D01*
X26708Y-26750D01*
X26784Y-26789D01*
X27089Y-27589D02*
X27127Y-27550D01*
X27204Y-27436D01*
X27242Y-27360D01*
X27280Y-27246D01*
X27318Y-27055D01*
X27318Y-26903D01*
X27280Y-26712D01*
X27242Y-26598D01*
X27204Y-26522D01*
X27127Y-26408D01*
X27089Y-26370D01*
G54D10*
X09399Y-28015D02*
X09389Y-28112D01*
X09361Y-28205D01*
X09315Y-28291D01*
X09253Y-28367D01*
X09178Y-28429D01*
X09092Y-28475D01*
X08999Y-28504D01*
X08902Y-28514D01*
X08806Y-28506D01*
X08712Y-28478D01*
X08626Y-28433D01*
X08550Y-28372D01*
X08487Y-28297D01*
X08440Y-28211D01*
X08410Y-28118D01*
X08400Y-28021D01*
X08408Y-27925D01*
X08435Y-27831D01*
X08479Y-27745D01*
X08540Y-27668D01*
X08614Y-27605D01*
X08699Y-27557D01*
X08792Y-27527D01*
X08889Y-27516D01*
X08985Y-27523D01*
X09079Y-27549D01*
X09166Y-27593D01*
X09243Y-27653D01*
X09307Y-27727D01*
X09355Y-27812D01*
X09386Y-27905D01*
X09398Y-28002D01*
X09399Y-28015D01*
X08399Y-27515D02*
X09399Y-28515D01*
X09399Y-27515D02*
X08399Y-28515D01*
G54D12*
X09942Y-27539D02*
X10018Y-27539D01*
X10094Y-27577D01*
X10132Y-27615D01*
X10170Y-27691D01*
X10209Y-27844D01*
X10209Y-28034D01*
X10170Y-28186D01*
X10132Y-28263D01*
X10094Y-28301D01*
X10018Y-28339D01*
X09942Y-28339D01*
X09866Y-28301D01*
X09828Y-28263D01*
X09789Y-28186D01*
X09751Y-28034D01*
X09751Y-27844D01*
X09789Y-27691D01*
X09828Y-27615D01*
X09866Y-27577D01*
X09942Y-27539D01*
X10551Y-28263D02*
X10590Y-28301D01*
X10551Y-28339D01*
X10513Y-28301D01*
X10551Y-28263D01*
X10551Y-28339D01*
X11352Y-28339D02*
X10894Y-28339D01*
X11123Y-28339D02*
X11123Y-27539D01*
X11047Y-27653D01*
X10971Y-27729D01*
X10894Y-27767D01*
X11847Y-27539D02*
X11923Y-27539D01*
X11999Y-27577D01*
X12037Y-27615D01*
X12075Y-27691D01*
X12114Y-27844D01*
X12114Y-28034D01*
X12075Y-28186D01*
X12037Y-28263D01*
X11999Y-28301D01*
X11923Y-28339D01*
X11847Y-28339D01*
X11771Y-28301D01*
X11733Y-28263D01*
X11694Y-28186D01*
X11656Y-28034D01*
X11656Y-27844D01*
X11694Y-27691D01*
X11733Y-27615D01*
X11771Y-27577D01*
X11847Y-27539D01*
X12609Y-27539D02*
X12685Y-27539D01*
X12761Y-27577D01*
X12799Y-27615D01*
X12837Y-27691D01*
X12876Y-27844D01*
X12876Y-28034D01*
X12837Y-28186D01*
X12799Y-28263D01*
X12761Y-28301D01*
X12685Y-28339D01*
X12609Y-28339D01*
X12533Y-28301D01*
X12495Y-28263D01*
X12456Y-28186D01*
X12418Y-28034D01*
X12418Y-27844D01*
X12456Y-27691D01*
X12495Y-27615D01*
X12533Y-27577D01*
X12609Y-27539D01*
X13180Y-27539D02*
X13180Y-27691D01*
X13485Y-27539D02*
X13485Y-27691D01*
X15010Y-27501D02*
X14324Y-28529D01*
X15848Y-27615D02*
X15886Y-27577D01*
X15963Y-27539D01*
X16153Y-27539D01*
X16229Y-27577D01*
X16267Y-27615D01*
X16306Y-27691D01*
X16306Y-27767D01*
X16267Y-27882D01*
X15810Y-28339D01*
X16306Y-28339D01*
X16648Y-28263D02*
X16687Y-28301D01*
X16648Y-28339D01*
X16610Y-28301D01*
X16648Y-28263D01*
X16648Y-28339D01*
X17410Y-27539D02*
X17029Y-27539D01*
X16991Y-27920D01*
X17029Y-27882D01*
X17106Y-27844D01*
X17296Y-27844D01*
X17372Y-27882D01*
X17410Y-27920D01*
X17449Y-27996D01*
X17449Y-28186D01*
X17410Y-28263D01*
X17372Y-28301D01*
X17296Y-28339D01*
X17106Y-28339D01*
X17029Y-28301D01*
X16991Y-28263D01*
X18134Y-27805D02*
X18134Y-28339D01*
X17944Y-27501D02*
X17753Y-28072D01*
X18249Y-28072D01*
X18553Y-28339D02*
X18553Y-27805D01*
X18553Y-27882D02*
X18592Y-27844D01*
X18668Y-27805D01*
X18782Y-27805D01*
X18858Y-27844D01*
X18896Y-27920D01*
X18896Y-28339D01*
X18896Y-27920D02*
X18934Y-27844D01*
X19011Y-27805D01*
X19125Y-27805D01*
X19201Y-27844D01*
X19239Y-27920D01*
X19239Y-28339D01*
X19620Y-28339D02*
X19620Y-27805D01*
X19620Y-27882D02*
X19659Y-27844D01*
X19735Y-27805D01*
X19849Y-27805D01*
X19925Y-27844D01*
X19963Y-27920D01*
X19963Y-28339D01*
X19963Y-27920D02*
X20001Y-27844D01*
X20078Y-27805D01*
X20192Y-27805D01*
X20268Y-27844D01*
X20306Y-27920D01*
X20306Y-28339D01*
X21526Y-28644D02*
X21488Y-28605D01*
X21412Y-28491D01*
X21374Y-28415D01*
X21336Y-28301D01*
X21297Y-28110D01*
X21297Y-27958D01*
X21336Y-27767D01*
X21374Y-27653D01*
X21412Y-27577D01*
X21488Y-27463D01*
X21526Y-27425D01*
X22250Y-28339D02*
X21792Y-28339D01*
X22021Y-28339D02*
X22021Y-27539D01*
X21945Y-27653D01*
X21869Y-27729D01*
X21792Y-27767D01*
X23202Y-28339D02*
X23202Y-27539D01*
X23545Y-28339D02*
X23545Y-27920D01*
X23507Y-27844D01*
X23431Y-27805D01*
X23317Y-27805D01*
X23241Y-27844D01*
X23202Y-27882D01*
X24041Y-28339D02*
X23965Y-28301D01*
X23926Y-28263D01*
X23888Y-28186D01*
X23888Y-27958D01*
X23926Y-27882D01*
X23965Y-27844D01*
X24041Y-27805D01*
X24155Y-27805D01*
X24231Y-27844D01*
X24269Y-27882D01*
X24307Y-27958D01*
X24307Y-28186D01*
X24269Y-28263D01*
X24231Y-28301D01*
X24155Y-28339D01*
X24041Y-28339D01*
X24765Y-28339D02*
X24689Y-28301D01*
X24650Y-28225D01*
X24650Y-27539D01*
X25374Y-28301D02*
X25298Y-28339D01*
X25146Y-28339D01*
X25069Y-28301D01*
X25031Y-28225D01*
X25031Y-27920D01*
X25069Y-27844D01*
X25146Y-27805D01*
X25298Y-27805D01*
X25374Y-27844D01*
X25412Y-27920D01*
X25412Y-27996D01*
X25031Y-28072D01*
X25679Y-28644D02*
X25717Y-28605D01*
X25794Y-28491D01*
X25832Y-28415D01*
X25870Y-28301D01*
X25908Y-28110D01*
X25908Y-27958D01*
X25870Y-27767D01*
X25832Y-27653D01*
X25794Y-27577D01*
X25717Y-27463D01*
X25679Y-27425D01*
M02*
