G04 (created by PCBNEW-RS274X (2011-12-28 BZR 3254)-stable) date 2/13/2012 3:30:04 PM*
G01*
G70*
G90*
%MOIN*%
G04 Gerber Fmt 3.4, Leading zero omitted, Abs format*
%FSLAX34Y34*%
G04 APERTURE LIST*
%ADD10C,0.006000*%
%ADD11C,0.200000*%
%ADD12C,0.015000*%
%ADD13C,0.010000*%
%ADD14C,0.008000*%
%ADD15C,0.070000*%
%ADD16C,0.080000*%
%ADD17C,0.100000*%
%ADD18R,0.100000X0.060000*%
%ADD19O,0.080000X0.120000*%
%ADD20R,0.090000X0.090000*%
%ADD21C,0.090000*%
%ADD22R,0.085000X0.085000*%
%ADD23C,0.085000*%
%ADD24C,0.260000*%
%ADD25R,0.070000X0.100000*%
%ADD26O,0.070000X0.100000*%
%ADD27R,0.065000X0.040000*%
%ADD28C,0.170000*%
%ADD29R,0.080000X0.080000*%
%ADD30C,0.220000*%
%ADD31C,0.200000*%
%ADD32R,0.200000X0.200000*%
%ADD33O,0.140000X0.240000*%
G04 APERTURE END LIST*
G54D10*
X51405Y-93537D02*
X51405Y-93137D01*
X51310Y-93137D01*
X51252Y-93156D01*
X51214Y-93194D01*
X51195Y-93232D01*
X51176Y-93308D01*
X51176Y-93365D01*
X51195Y-93442D01*
X51214Y-93480D01*
X51252Y-93518D01*
X51310Y-93537D01*
X51405Y-93537D01*
X50871Y-93327D02*
X50814Y-93346D01*
X50795Y-93365D01*
X50776Y-93404D01*
X50776Y-93461D01*
X50795Y-93499D01*
X50814Y-93518D01*
X50852Y-93537D01*
X51005Y-93537D01*
X51005Y-93137D01*
X50871Y-93137D01*
X50833Y-93156D01*
X50814Y-93175D01*
X50795Y-93213D01*
X50795Y-93251D01*
X50814Y-93289D01*
X50833Y-93308D01*
X50871Y-93327D01*
X51005Y-93327D01*
X50395Y-93156D02*
X50433Y-93137D01*
X50490Y-93137D01*
X50548Y-93156D01*
X50586Y-93194D01*
X50605Y-93232D01*
X50624Y-93308D01*
X50624Y-93365D01*
X50605Y-93442D01*
X50586Y-93480D01*
X50548Y-93518D01*
X50490Y-93537D01*
X50452Y-93537D01*
X50395Y-93518D01*
X50376Y-93499D01*
X50376Y-93365D01*
X50452Y-93365D01*
X51430Y-92012D02*
X51201Y-92012D01*
X51316Y-92412D02*
X51316Y-92012D01*
X51106Y-92012D02*
X50839Y-92412D01*
X50839Y-92012D02*
X51106Y-92412D01*
X50687Y-92412D02*
X50687Y-92012D01*
X50592Y-92012D01*
X50534Y-92031D01*
X50496Y-92069D01*
X50477Y-92107D01*
X50458Y-92183D01*
X50458Y-92240D01*
X50477Y-92317D01*
X50496Y-92355D01*
X50534Y-92393D01*
X50592Y-92412D01*
X50687Y-92412D01*
G54D11*
X24825Y-60950D02*
X24825Y-70500D01*
X24824Y-60729D02*
X24799Y-60186D01*
X24726Y-59648D01*
X24607Y-59118D01*
X24442Y-58601D01*
X24232Y-58100D01*
X23980Y-57619D01*
X23686Y-57162D01*
X23354Y-56733D01*
X22986Y-56333D01*
X22584Y-55968D01*
X22152Y-55639D01*
X21693Y-55349D01*
X21211Y-55100D01*
X20708Y-54894D01*
X20190Y-54732D01*
X19659Y-54616D01*
X19120Y-54547D01*
X18579Y-54526D01*
X29050Y-51325D02*
X29050Y-51025D01*
X29075Y-68550D02*
X29075Y-54500D01*
X29076Y-68721D02*
X29124Y-69334D01*
X29226Y-69941D01*
X29380Y-70537D01*
X29585Y-71117D01*
X29840Y-71677D01*
X30143Y-72213D01*
X30492Y-72720D01*
X30883Y-73195D01*
X31315Y-73633D01*
X31783Y-74033D01*
X32284Y-74390D01*
X32814Y-74703D01*
X33369Y-74968D01*
X33946Y-75183D01*
X34539Y-75348D01*
X35144Y-75460D01*
X35756Y-75519D01*
X36371Y-75524D01*
X36684Y-62912D02*
X37715Y-63958D01*
X38833Y-64910D01*
X40031Y-65760D01*
X41297Y-66504D01*
X42624Y-67134D01*
X44001Y-67646D01*
X45417Y-68036D01*
X46861Y-68301D01*
X48324Y-68439D01*
X49791Y-68449D01*
X51255Y-68331D01*
X52704Y-68086D01*
X54125Y-67716D01*
X55509Y-67224D01*
X56844Y-66612D01*
X58121Y-65887D01*
X59330Y-65053D01*
X60462Y-64116D01*
X61508Y-63085D01*
X62460Y-61967D01*
X63310Y-60769D01*
X64054Y-59503D01*
X64684Y-58176D01*
X65196Y-56799D01*
X65586Y-55383D01*
X65851Y-53939D01*
X65989Y-52476D01*
X65999Y-51009D01*
X65881Y-49545D01*
X65636Y-48096D01*
X65266Y-46675D01*
X64774Y-45291D01*
X64162Y-43956D01*
X63437Y-42679D01*
X62603Y-41470D01*
X61666Y-40338D01*
X60635Y-39292D01*
X59517Y-38340D01*
X58319Y-37490D01*
X57053Y-36746D01*
X55726Y-36116D01*
X54349Y-35604D01*
X52933Y-35214D01*
X51489Y-34949D01*
X50026Y-34811D01*
X48559Y-34801D01*
X43012Y-42518D02*
X42480Y-42651D01*
X41961Y-42831D01*
X41461Y-43055D01*
X40982Y-43322D01*
X40528Y-43629D01*
X40102Y-43975D01*
X39708Y-44356D01*
X39349Y-44771D01*
X39028Y-45215D01*
X38746Y-45686D01*
X38506Y-46179D01*
X38311Y-46691D01*
X38161Y-47219D01*
X38057Y-47757D01*
X38001Y-48303D01*
X37992Y-48850D01*
X38031Y-49397D01*
X38118Y-49938D01*
X38251Y-50470D01*
X38431Y-50989D01*
X38655Y-51489D01*
X38922Y-51968D01*
X39229Y-52422D01*
X39575Y-52848D01*
X39956Y-53242D01*
X40371Y-53601D01*
X40815Y-53922D01*
X41286Y-54204D01*
X41779Y-54444D01*
X42291Y-54639D01*
X42819Y-54789D01*
X43357Y-54893D01*
X43903Y-54949D01*
X44450Y-54958D01*
X44997Y-54919D01*
X45538Y-54832D01*
X46070Y-54699D01*
X46589Y-54519D01*
X47089Y-54295D01*
X47568Y-54028D01*
X48022Y-53721D01*
X48448Y-53375D01*
X44272Y-35026D02*
X43943Y-34984D01*
X43612Y-34971D01*
X43281Y-34986D01*
X42952Y-35031D01*
X42628Y-35104D01*
X42312Y-35205D01*
X42005Y-35333D01*
X41712Y-35487D01*
X41432Y-35666D01*
X41170Y-35869D01*
X40926Y-36094D01*
X40702Y-36340D01*
X40501Y-36604D01*
X40324Y-36885D01*
X40171Y-37179D01*
X40045Y-37487D01*
X39947Y-37804D01*
X39876Y-38128D01*
X39834Y-38457D01*
X39821Y-38788D01*
X39836Y-39119D01*
X39881Y-39448D01*
X39954Y-39772D01*
X40055Y-40088D01*
X40183Y-40395D01*
X40337Y-40688D01*
X40516Y-40968D01*
X40719Y-41230D01*
X40944Y-41474D01*
X41190Y-41698D01*
X41454Y-41899D01*
X41735Y-42076D01*
X42029Y-42229D01*
X42337Y-42355D01*
X42654Y-42453D01*
X42978Y-42524D01*
G54D12*
X10000Y-100000D02*
X10000Y-10000D01*
X74000Y-100000D02*
X10000Y-100000D01*
X74000Y-10000D02*
X74000Y-100000D01*
X10000Y-10000D02*
X74000Y-10000D01*
G54D13*
X51675Y-92425D02*
X51675Y-91825D01*
X51675Y-91825D02*
X52875Y-91825D01*
X52875Y-91825D02*
X52875Y-92425D01*
X52875Y-93125D02*
X52875Y-93725D01*
X52875Y-93725D02*
X51675Y-93725D01*
X51675Y-93725D02*
X51675Y-93125D01*
G54D14*
X61825Y-20675D02*
X64975Y-20675D01*
X64975Y-16375D02*
X61825Y-16375D01*
X64975Y-20675D02*
X64975Y-16375D01*
X61825Y-16375D02*
X61825Y-20675D01*
X63575Y-20675D02*
X63575Y-20375D01*
X63575Y-20375D02*
X63175Y-20375D01*
X63175Y-20375D02*
X63175Y-20675D01*
G54D13*
X16475Y-12725D02*
X16472Y-12673D01*
X16465Y-12621D01*
X16454Y-12570D01*
X16438Y-12520D01*
X16418Y-12472D01*
X16394Y-12426D01*
X16366Y-12381D01*
X16334Y-12340D01*
X16299Y-12301D01*
X16260Y-12266D01*
X16219Y-12234D01*
X16175Y-12206D01*
X16128Y-12182D01*
X16080Y-12162D01*
X16030Y-12146D01*
X15979Y-12135D01*
X15927Y-12128D01*
X15875Y-12125D01*
X14125Y-12125D02*
X14073Y-12128D01*
X14021Y-12135D01*
X13970Y-12146D01*
X13920Y-12162D01*
X13872Y-12182D01*
X13826Y-12206D01*
X13781Y-12234D01*
X13740Y-12266D01*
X13701Y-12301D01*
X13666Y-12340D01*
X13634Y-12381D01*
X13606Y-12426D01*
X13582Y-12472D01*
X13562Y-12520D01*
X13546Y-12570D01*
X13535Y-12621D01*
X13528Y-12673D01*
X13525Y-12725D01*
X15875Y-15875D02*
X15927Y-15872D01*
X15979Y-15865D01*
X16030Y-15854D01*
X16080Y-15838D01*
X16128Y-15818D01*
X16175Y-15794D01*
X16219Y-15766D01*
X16260Y-15734D01*
X16299Y-15699D01*
X16334Y-15660D01*
X16366Y-15619D01*
X16394Y-15574D01*
X16418Y-15528D01*
X16438Y-15480D01*
X16454Y-15430D01*
X16465Y-15379D01*
X16472Y-15327D01*
X16475Y-15275D01*
X13525Y-15275D02*
X13528Y-15327D01*
X13535Y-15379D01*
X13546Y-15430D01*
X13562Y-15480D01*
X13582Y-15528D01*
X13606Y-15574D01*
X13634Y-15619D01*
X13666Y-15660D01*
X13701Y-15699D01*
X13740Y-15734D01*
X13781Y-15766D01*
X13826Y-15794D01*
X13872Y-15818D01*
X13920Y-15838D01*
X13970Y-15854D01*
X14021Y-15865D01*
X14073Y-15872D01*
X14125Y-15875D01*
X15875Y-15875D02*
X14125Y-15875D01*
X14125Y-12125D02*
X15875Y-12125D01*
X13525Y-12725D02*
X13525Y-15275D01*
X16475Y-12725D02*
X16475Y-15275D01*
X22475Y-12725D02*
X22472Y-12673D01*
X22465Y-12621D01*
X22454Y-12570D01*
X22438Y-12520D01*
X22418Y-12472D01*
X22394Y-12426D01*
X22366Y-12381D01*
X22334Y-12340D01*
X22299Y-12301D01*
X22260Y-12266D01*
X22219Y-12234D01*
X22175Y-12206D01*
X22128Y-12182D01*
X22080Y-12162D01*
X22030Y-12146D01*
X21979Y-12135D01*
X21927Y-12128D01*
X21875Y-12125D01*
X20125Y-12125D02*
X20073Y-12128D01*
X20021Y-12135D01*
X19970Y-12146D01*
X19920Y-12162D01*
X19872Y-12182D01*
X19826Y-12206D01*
X19781Y-12234D01*
X19740Y-12266D01*
X19701Y-12301D01*
X19666Y-12340D01*
X19634Y-12381D01*
X19606Y-12426D01*
X19582Y-12472D01*
X19562Y-12520D01*
X19546Y-12570D01*
X19535Y-12621D01*
X19528Y-12673D01*
X19525Y-12725D01*
X21875Y-15875D02*
X21927Y-15872D01*
X21979Y-15865D01*
X22030Y-15854D01*
X22080Y-15838D01*
X22128Y-15818D01*
X22175Y-15794D01*
X22219Y-15766D01*
X22260Y-15734D01*
X22299Y-15699D01*
X22334Y-15660D01*
X22366Y-15619D01*
X22394Y-15574D01*
X22418Y-15528D01*
X22438Y-15480D01*
X22454Y-15430D01*
X22465Y-15379D01*
X22472Y-15327D01*
X22475Y-15275D01*
X19525Y-15275D02*
X19528Y-15327D01*
X19535Y-15379D01*
X19546Y-15430D01*
X19562Y-15480D01*
X19582Y-15528D01*
X19606Y-15574D01*
X19634Y-15619D01*
X19666Y-15660D01*
X19701Y-15699D01*
X19740Y-15734D01*
X19781Y-15766D01*
X19826Y-15794D01*
X19872Y-15818D01*
X19920Y-15838D01*
X19970Y-15854D01*
X20021Y-15865D01*
X20073Y-15872D01*
X20125Y-15875D01*
X21875Y-15875D02*
X20125Y-15875D01*
X20125Y-12125D02*
X21875Y-12125D01*
X19525Y-12725D02*
X19525Y-15275D01*
X22475Y-12725D02*
X22475Y-15275D01*
X28475Y-12725D02*
X28472Y-12673D01*
X28465Y-12621D01*
X28454Y-12570D01*
X28438Y-12520D01*
X28418Y-12472D01*
X28394Y-12426D01*
X28366Y-12381D01*
X28334Y-12340D01*
X28299Y-12301D01*
X28260Y-12266D01*
X28219Y-12234D01*
X28175Y-12206D01*
X28128Y-12182D01*
X28080Y-12162D01*
X28030Y-12146D01*
X27979Y-12135D01*
X27927Y-12128D01*
X27875Y-12125D01*
X26125Y-12125D02*
X26073Y-12128D01*
X26021Y-12135D01*
X25970Y-12146D01*
X25920Y-12162D01*
X25872Y-12182D01*
X25826Y-12206D01*
X25781Y-12234D01*
X25740Y-12266D01*
X25701Y-12301D01*
X25666Y-12340D01*
X25634Y-12381D01*
X25606Y-12426D01*
X25582Y-12472D01*
X25562Y-12520D01*
X25546Y-12570D01*
X25535Y-12621D01*
X25528Y-12673D01*
X25525Y-12725D01*
X27875Y-15875D02*
X27927Y-15872D01*
X27979Y-15865D01*
X28030Y-15854D01*
X28080Y-15838D01*
X28128Y-15818D01*
X28175Y-15794D01*
X28219Y-15766D01*
X28260Y-15734D01*
X28299Y-15699D01*
X28334Y-15660D01*
X28366Y-15619D01*
X28394Y-15574D01*
X28418Y-15528D01*
X28438Y-15480D01*
X28454Y-15430D01*
X28465Y-15379D01*
X28472Y-15327D01*
X28475Y-15275D01*
X25525Y-15275D02*
X25528Y-15327D01*
X25535Y-15379D01*
X25546Y-15430D01*
X25562Y-15480D01*
X25582Y-15528D01*
X25606Y-15574D01*
X25634Y-15619D01*
X25666Y-15660D01*
X25701Y-15699D01*
X25740Y-15734D01*
X25781Y-15766D01*
X25826Y-15794D01*
X25872Y-15818D01*
X25920Y-15838D01*
X25970Y-15854D01*
X26021Y-15865D01*
X26073Y-15872D01*
X26125Y-15875D01*
X27875Y-15875D02*
X26125Y-15875D01*
X26125Y-12125D02*
X27875Y-12125D01*
X25525Y-12725D02*
X25525Y-15275D01*
X28475Y-12725D02*
X28475Y-15275D01*
X34475Y-12725D02*
X34472Y-12673D01*
X34465Y-12621D01*
X34454Y-12570D01*
X34438Y-12520D01*
X34418Y-12472D01*
X34394Y-12426D01*
X34366Y-12381D01*
X34334Y-12340D01*
X34299Y-12301D01*
X34260Y-12266D01*
X34219Y-12234D01*
X34175Y-12206D01*
X34128Y-12182D01*
X34080Y-12162D01*
X34030Y-12146D01*
X33979Y-12135D01*
X33927Y-12128D01*
X33875Y-12125D01*
X32125Y-12125D02*
X32073Y-12128D01*
X32021Y-12135D01*
X31970Y-12146D01*
X31920Y-12162D01*
X31872Y-12182D01*
X31826Y-12206D01*
X31781Y-12234D01*
X31740Y-12266D01*
X31701Y-12301D01*
X31666Y-12340D01*
X31634Y-12381D01*
X31606Y-12426D01*
X31582Y-12472D01*
X31562Y-12520D01*
X31546Y-12570D01*
X31535Y-12621D01*
X31528Y-12673D01*
X31525Y-12725D01*
X33875Y-15875D02*
X33927Y-15872D01*
X33979Y-15865D01*
X34030Y-15854D01*
X34080Y-15838D01*
X34128Y-15818D01*
X34175Y-15794D01*
X34219Y-15766D01*
X34260Y-15734D01*
X34299Y-15699D01*
X34334Y-15660D01*
X34366Y-15619D01*
X34394Y-15574D01*
X34418Y-15528D01*
X34438Y-15480D01*
X34454Y-15430D01*
X34465Y-15379D01*
X34472Y-15327D01*
X34475Y-15275D01*
X31525Y-15275D02*
X31528Y-15327D01*
X31535Y-15379D01*
X31546Y-15430D01*
X31562Y-15480D01*
X31582Y-15528D01*
X31606Y-15574D01*
X31634Y-15619D01*
X31666Y-15660D01*
X31701Y-15699D01*
X31740Y-15734D01*
X31781Y-15766D01*
X31826Y-15794D01*
X31872Y-15818D01*
X31920Y-15838D01*
X31970Y-15854D01*
X32021Y-15865D01*
X32073Y-15872D01*
X32125Y-15875D01*
X33875Y-15875D02*
X32125Y-15875D01*
X32125Y-12125D02*
X33875Y-12125D01*
X31525Y-12725D02*
X31525Y-15275D01*
X34475Y-12725D02*
X34475Y-15275D01*
X40475Y-12725D02*
X40472Y-12673D01*
X40465Y-12621D01*
X40454Y-12570D01*
X40438Y-12520D01*
X40418Y-12472D01*
X40394Y-12426D01*
X40366Y-12381D01*
X40334Y-12340D01*
X40299Y-12301D01*
X40260Y-12266D01*
X40219Y-12234D01*
X40175Y-12206D01*
X40128Y-12182D01*
X40080Y-12162D01*
X40030Y-12146D01*
X39979Y-12135D01*
X39927Y-12128D01*
X39875Y-12125D01*
X38125Y-12125D02*
X38073Y-12128D01*
X38021Y-12135D01*
X37970Y-12146D01*
X37920Y-12162D01*
X37872Y-12182D01*
X37826Y-12206D01*
X37781Y-12234D01*
X37740Y-12266D01*
X37701Y-12301D01*
X37666Y-12340D01*
X37634Y-12381D01*
X37606Y-12426D01*
X37582Y-12472D01*
X37562Y-12520D01*
X37546Y-12570D01*
X37535Y-12621D01*
X37528Y-12673D01*
X37525Y-12725D01*
X39875Y-15875D02*
X39927Y-15872D01*
X39979Y-15865D01*
X40030Y-15854D01*
X40080Y-15838D01*
X40128Y-15818D01*
X40175Y-15794D01*
X40219Y-15766D01*
X40260Y-15734D01*
X40299Y-15699D01*
X40334Y-15660D01*
X40366Y-15619D01*
X40394Y-15574D01*
X40418Y-15528D01*
X40438Y-15480D01*
X40454Y-15430D01*
X40465Y-15379D01*
X40472Y-15327D01*
X40475Y-15275D01*
X37525Y-15275D02*
X37528Y-15327D01*
X37535Y-15379D01*
X37546Y-15430D01*
X37562Y-15480D01*
X37582Y-15528D01*
X37606Y-15574D01*
X37634Y-15619D01*
X37666Y-15660D01*
X37701Y-15699D01*
X37740Y-15734D01*
X37781Y-15766D01*
X37826Y-15794D01*
X37872Y-15818D01*
X37920Y-15838D01*
X37970Y-15854D01*
X38021Y-15865D01*
X38073Y-15872D01*
X38125Y-15875D01*
X39875Y-15875D02*
X38125Y-15875D01*
X38125Y-12125D02*
X39875Y-12125D01*
X37525Y-12725D02*
X37525Y-15275D01*
X40475Y-12725D02*
X40475Y-15275D01*
G54D10*
X52570Y-91637D02*
X52570Y-91237D01*
X52341Y-91637D02*
X52513Y-91408D01*
X52341Y-91237D02*
X52570Y-91465D01*
X52208Y-91237D02*
X51960Y-91237D01*
X52094Y-91389D01*
X52036Y-91389D01*
X51998Y-91408D01*
X51979Y-91427D01*
X51960Y-91465D01*
X51960Y-91561D01*
X51979Y-91599D01*
X51998Y-91618D01*
X52036Y-91637D01*
X52151Y-91637D01*
X52189Y-91618D01*
X52208Y-91599D01*
X55671Y-92537D02*
X55404Y-92537D01*
X55576Y-92937D01*
X55271Y-92918D02*
X55214Y-92937D01*
X55118Y-92937D01*
X55080Y-92918D01*
X55061Y-92899D01*
X55042Y-92861D01*
X55042Y-92823D01*
X55061Y-92785D01*
X55080Y-92765D01*
X55118Y-92746D01*
X55195Y-92727D01*
X55233Y-92708D01*
X55252Y-92689D01*
X55271Y-92651D01*
X55271Y-92613D01*
X55252Y-92575D01*
X55233Y-92556D01*
X55195Y-92537D01*
X55099Y-92537D01*
X55042Y-92556D01*
X54718Y-92918D02*
X54756Y-92937D01*
X54833Y-92937D01*
X54871Y-92918D01*
X54890Y-92880D01*
X54890Y-92727D01*
X54871Y-92689D01*
X54833Y-92670D01*
X54756Y-92670D01*
X54718Y-92689D01*
X54699Y-92727D01*
X54699Y-92765D01*
X54890Y-92804D01*
X54356Y-92670D02*
X54356Y-92994D01*
X54375Y-93032D01*
X54394Y-93051D01*
X54433Y-93070D01*
X54490Y-93070D01*
X54528Y-93051D01*
X54356Y-92918D02*
X54394Y-92937D01*
X54471Y-92937D01*
X54509Y-92918D01*
X54528Y-92899D01*
X54547Y-92861D01*
X54547Y-92746D01*
X54528Y-92708D01*
X54509Y-92689D01*
X54471Y-92670D01*
X54394Y-92670D01*
X54356Y-92689D01*
X54261Y-92975D02*
X53956Y-92975D01*
X53880Y-92918D02*
X53823Y-92937D01*
X53727Y-92937D01*
X53689Y-92918D01*
X53670Y-92899D01*
X53651Y-92861D01*
X53651Y-92823D01*
X53670Y-92785D01*
X53689Y-92765D01*
X53727Y-92746D01*
X53804Y-92727D01*
X53842Y-92708D01*
X53861Y-92689D01*
X53880Y-92651D01*
X53880Y-92613D01*
X53861Y-92575D01*
X53842Y-92556D01*
X53804Y-92537D01*
X53708Y-92537D01*
X53651Y-92556D01*
X53327Y-92918D02*
X53365Y-92937D01*
X53442Y-92937D01*
X53480Y-92918D01*
X53499Y-92880D01*
X53499Y-92727D01*
X53480Y-92689D01*
X53442Y-92670D01*
X53365Y-92670D01*
X53327Y-92689D01*
X53308Y-92727D01*
X53308Y-92765D01*
X53499Y-92804D01*
X53080Y-92937D02*
X53118Y-92918D01*
X53137Y-92880D01*
X53137Y-92537D01*
X61605Y-20987D02*
X61605Y-21311D01*
X61586Y-21349D01*
X61567Y-21368D01*
X61529Y-21387D01*
X61452Y-21387D01*
X61414Y-21368D01*
X61395Y-21349D01*
X61376Y-21311D01*
X61376Y-20987D01*
X61014Y-20987D02*
X61091Y-20987D01*
X61129Y-21006D01*
X61148Y-21025D01*
X61186Y-21082D01*
X61205Y-21158D01*
X61205Y-21311D01*
X61186Y-21349D01*
X61167Y-21368D01*
X61129Y-21387D01*
X61052Y-21387D01*
X61014Y-21368D01*
X60995Y-21349D01*
X60976Y-21311D01*
X60976Y-21215D01*
X60995Y-21177D01*
X61014Y-21158D01*
X61052Y-21139D01*
X61129Y-21139D01*
X61167Y-21158D01*
X61186Y-21177D01*
X61205Y-21215D01*
X64642Y-21387D02*
X64642Y-20987D01*
X64547Y-20987D01*
X64489Y-21006D01*
X64451Y-21044D01*
X64432Y-21082D01*
X64413Y-21158D01*
X64413Y-21215D01*
X64432Y-21292D01*
X64451Y-21330D01*
X64489Y-21368D01*
X64547Y-21387D01*
X64642Y-21387D01*
X64261Y-21368D02*
X64204Y-21387D01*
X64108Y-21387D01*
X64070Y-21368D01*
X64051Y-21349D01*
X64032Y-21311D01*
X64032Y-21273D01*
X64051Y-21235D01*
X64070Y-21215D01*
X64108Y-21196D01*
X64185Y-21177D01*
X64223Y-21158D01*
X64242Y-21139D01*
X64261Y-21101D01*
X64261Y-21063D01*
X64242Y-21025D01*
X64223Y-21006D01*
X64185Y-20987D01*
X64089Y-20987D01*
X64032Y-21006D01*
X63899Y-20987D02*
X63651Y-20987D01*
X63785Y-21139D01*
X63727Y-21139D01*
X63689Y-21158D01*
X63670Y-21177D01*
X63651Y-21215D01*
X63651Y-21311D01*
X63670Y-21349D01*
X63689Y-21368D01*
X63727Y-21387D01*
X63842Y-21387D01*
X63880Y-21368D01*
X63899Y-21349D01*
X63499Y-21025D02*
X63480Y-21006D01*
X63442Y-20987D01*
X63346Y-20987D01*
X63308Y-21006D01*
X63289Y-21025D01*
X63270Y-21063D01*
X63270Y-21101D01*
X63289Y-21158D01*
X63518Y-21387D01*
X63270Y-21387D01*
X63137Y-20987D02*
X62889Y-20987D01*
X63023Y-21139D01*
X62965Y-21139D01*
X62927Y-21158D01*
X62908Y-21177D01*
X62889Y-21215D01*
X62889Y-21311D01*
X62908Y-21349D01*
X62927Y-21368D01*
X62965Y-21387D01*
X63080Y-21387D01*
X63118Y-21368D01*
X63137Y-21349D01*
X62508Y-21387D02*
X62737Y-21387D01*
X62623Y-21387D02*
X62623Y-20987D01*
X62661Y-21044D01*
X62699Y-21082D01*
X62737Y-21101D01*
X62337Y-21387D02*
X62337Y-20987D01*
X62108Y-21387D01*
X62108Y-20987D01*
X15724Y-11868D02*
X15667Y-11887D01*
X15571Y-11887D01*
X15533Y-11868D01*
X15514Y-11849D01*
X15495Y-11811D01*
X15495Y-11773D01*
X15514Y-11735D01*
X15533Y-11715D01*
X15571Y-11696D01*
X15648Y-11677D01*
X15686Y-11658D01*
X15705Y-11639D01*
X15724Y-11601D01*
X15724Y-11563D01*
X15705Y-11525D01*
X15686Y-11506D01*
X15648Y-11487D01*
X15552Y-11487D01*
X15495Y-11506D01*
X15362Y-11487D02*
X15267Y-11887D01*
X15190Y-11601D01*
X15114Y-11887D01*
X15019Y-11487D01*
X14695Y-11620D02*
X14695Y-11887D01*
X14791Y-11468D02*
X14886Y-11754D01*
X14638Y-11754D01*
X14505Y-11525D02*
X14486Y-11506D01*
X14448Y-11487D01*
X14352Y-11487D01*
X14314Y-11506D01*
X14295Y-11525D01*
X14276Y-11563D01*
X14276Y-11601D01*
X14295Y-11658D01*
X14524Y-11887D01*
X14276Y-11887D01*
X15219Y-11237D02*
X15353Y-11046D01*
X15448Y-11237D02*
X15448Y-10837D01*
X15295Y-10837D01*
X15257Y-10856D01*
X15238Y-10875D01*
X15219Y-10913D01*
X15219Y-10970D01*
X15238Y-11008D01*
X15257Y-11027D01*
X15295Y-11046D01*
X15448Y-11046D01*
X15067Y-11218D02*
X15010Y-11237D01*
X14914Y-11237D01*
X14876Y-11218D01*
X14857Y-11199D01*
X14838Y-11161D01*
X14838Y-11123D01*
X14857Y-11085D01*
X14876Y-11065D01*
X14914Y-11046D01*
X14991Y-11027D01*
X15029Y-11008D01*
X15048Y-10989D01*
X15067Y-10951D01*
X15067Y-10913D01*
X15048Y-10875D01*
X15029Y-10856D01*
X14991Y-10837D01*
X14895Y-10837D01*
X14838Y-10856D01*
X14724Y-10837D02*
X14495Y-10837D01*
X14610Y-11237D02*
X14610Y-10837D01*
X21724Y-11868D02*
X21667Y-11887D01*
X21571Y-11887D01*
X21533Y-11868D01*
X21514Y-11849D01*
X21495Y-11811D01*
X21495Y-11773D01*
X21514Y-11735D01*
X21533Y-11715D01*
X21571Y-11696D01*
X21648Y-11677D01*
X21686Y-11658D01*
X21705Y-11639D01*
X21724Y-11601D01*
X21724Y-11563D01*
X21705Y-11525D01*
X21686Y-11506D01*
X21648Y-11487D01*
X21552Y-11487D01*
X21495Y-11506D01*
X21362Y-11487D02*
X21267Y-11887D01*
X21190Y-11601D01*
X21114Y-11887D01*
X21019Y-11487D01*
X20905Y-11487D02*
X20657Y-11487D01*
X20791Y-11639D01*
X20733Y-11639D01*
X20695Y-11658D01*
X20676Y-11677D01*
X20657Y-11715D01*
X20657Y-11811D01*
X20676Y-11849D01*
X20695Y-11868D01*
X20733Y-11887D01*
X20848Y-11887D01*
X20886Y-11868D01*
X20905Y-11849D01*
X20505Y-11525D02*
X20486Y-11506D01*
X20448Y-11487D01*
X20352Y-11487D01*
X20314Y-11506D01*
X20295Y-11525D01*
X20276Y-11563D01*
X20276Y-11601D01*
X20295Y-11658D01*
X20524Y-11887D01*
X20276Y-11887D01*
X21724Y-11237D02*
X21724Y-10837D01*
X21590Y-11123D01*
X21457Y-10837D01*
X21457Y-11237D01*
X21191Y-10837D02*
X21114Y-10837D01*
X21076Y-10856D01*
X21038Y-10894D01*
X21019Y-10970D01*
X21019Y-11104D01*
X21038Y-11180D01*
X21076Y-11218D01*
X21114Y-11237D01*
X21191Y-11237D01*
X21229Y-11218D01*
X21267Y-11180D01*
X21286Y-11104D01*
X21286Y-10970D01*
X21267Y-10894D01*
X21229Y-10856D01*
X21191Y-10837D01*
X20848Y-11237D02*
X20848Y-10837D01*
X20753Y-10837D01*
X20695Y-10856D01*
X20657Y-10894D01*
X20638Y-10932D01*
X20619Y-11008D01*
X20619Y-11065D01*
X20638Y-11142D01*
X20657Y-11180D01*
X20695Y-11218D01*
X20753Y-11237D01*
X20848Y-11237D01*
X20448Y-11027D02*
X20314Y-11027D01*
X20257Y-11237D02*
X20448Y-11237D01*
X20448Y-10837D01*
X20257Y-10837D01*
X27724Y-11868D02*
X27667Y-11887D01*
X27571Y-11887D01*
X27533Y-11868D01*
X27514Y-11849D01*
X27495Y-11811D01*
X27495Y-11773D01*
X27514Y-11735D01*
X27533Y-11715D01*
X27571Y-11696D01*
X27648Y-11677D01*
X27686Y-11658D01*
X27705Y-11639D01*
X27724Y-11601D01*
X27724Y-11563D01*
X27705Y-11525D01*
X27686Y-11506D01*
X27648Y-11487D01*
X27552Y-11487D01*
X27495Y-11506D01*
X27362Y-11487D02*
X27267Y-11887D01*
X27190Y-11601D01*
X27114Y-11887D01*
X27019Y-11487D01*
X26886Y-11525D02*
X26867Y-11506D01*
X26829Y-11487D01*
X26733Y-11487D01*
X26695Y-11506D01*
X26676Y-11525D01*
X26657Y-11563D01*
X26657Y-11601D01*
X26676Y-11658D01*
X26905Y-11887D01*
X26657Y-11887D01*
X26505Y-11525D02*
X26486Y-11506D01*
X26448Y-11487D01*
X26352Y-11487D01*
X26314Y-11506D01*
X26295Y-11525D01*
X26276Y-11563D01*
X26276Y-11601D01*
X26295Y-11658D01*
X26524Y-11887D01*
X26276Y-11887D01*
X27486Y-11237D02*
X27486Y-10837D01*
X27391Y-10837D01*
X27333Y-10856D01*
X27295Y-10894D01*
X27276Y-10932D01*
X27257Y-11008D01*
X27257Y-11065D01*
X27276Y-11142D01*
X27295Y-11180D01*
X27333Y-11218D01*
X27391Y-11237D01*
X27486Y-11237D01*
X27086Y-11027D02*
X26952Y-11027D01*
X26895Y-11237D02*
X27086Y-11237D01*
X27086Y-10837D01*
X26895Y-10837D01*
X26495Y-11199D02*
X26514Y-11218D01*
X26571Y-11237D01*
X26609Y-11237D01*
X26667Y-11218D01*
X26705Y-11180D01*
X26724Y-11142D01*
X26743Y-11065D01*
X26743Y-11008D01*
X26724Y-10932D01*
X26705Y-10894D01*
X26667Y-10856D01*
X26609Y-10837D01*
X26571Y-10837D01*
X26514Y-10856D01*
X26495Y-10875D01*
X33724Y-11868D02*
X33667Y-11887D01*
X33571Y-11887D01*
X33533Y-11868D01*
X33514Y-11849D01*
X33495Y-11811D01*
X33495Y-11773D01*
X33514Y-11735D01*
X33533Y-11715D01*
X33571Y-11696D01*
X33648Y-11677D01*
X33686Y-11658D01*
X33705Y-11639D01*
X33724Y-11601D01*
X33724Y-11563D01*
X33705Y-11525D01*
X33686Y-11506D01*
X33648Y-11487D01*
X33552Y-11487D01*
X33495Y-11506D01*
X33362Y-11487D02*
X33267Y-11887D01*
X33190Y-11601D01*
X33114Y-11887D01*
X33019Y-11487D01*
X32657Y-11887D02*
X32886Y-11887D01*
X32772Y-11887D02*
X32772Y-11487D01*
X32810Y-11544D01*
X32848Y-11582D01*
X32886Y-11601D01*
X32505Y-11525D02*
X32486Y-11506D01*
X32448Y-11487D01*
X32352Y-11487D01*
X32314Y-11506D01*
X32295Y-11525D01*
X32276Y-11563D01*
X32276Y-11601D01*
X32295Y-11658D01*
X32524Y-11887D01*
X32276Y-11887D01*
X33409Y-11237D02*
X33409Y-10837D01*
X33219Y-11237D02*
X33219Y-10837D01*
X32990Y-11237D01*
X32990Y-10837D01*
X32571Y-11199D02*
X32590Y-11218D01*
X32647Y-11237D01*
X32685Y-11237D01*
X32743Y-11218D01*
X32781Y-11180D01*
X32800Y-11142D01*
X32819Y-11065D01*
X32819Y-11008D01*
X32800Y-10932D01*
X32781Y-10894D01*
X32743Y-10856D01*
X32685Y-10837D01*
X32647Y-10837D01*
X32590Y-10856D01*
X32571Y-10875D01*
X39724Y-11868D02*
X39667Y-11887D01*
X39571Y-11887D01*
X39533Y-11868D01*
X39514Y-11849D01*
X39495Y-11811D01*
X39495Y-11773D01*
X39514Y-11735D01*
X39533Y-11715D01*
X39571Y-11696D01*
X39648Y-11677D01*
X39686Y-11658D01*
X39705Y-11639D01*
X39724Y-11601D01*
X39724Y-11563D01*
X39705Y-11525D01*
X39686Y-11506D01*
X39648Y-11487D01*
X39552Y-11487D01*
X39495Y-11506D01*
X39362Y-11487D02*
X39267Y-11887D01*
X39190Y-11601D01*
X39114Y-11887D01*
X39019Y-11487D01*
X38676Y-11487D02*
X38867Y-11487D01*
X38886Y-11677D01*
X38867Y-11658D01*
X38829Y-11639D01*
X38733Y-11639D01*
X38695Y-11658D01*
X38676Y-11677D01*
X38657Y-11715D01*
X38657Y-11811D01*
X38676Y-11849D01*
X38695Y-11868D01*
X38733Y-11887D01*
X38829Y-11887D01*
X38867Y-11868D01*
X38886Y-11849D01*
X38505Y-11525D02*
X38486Y-11506D01*
X38448Y-11487D01*
X38352Y-11487D01*
X38314Y-11506D01*
X38295Y-11525D01*
X38276Y-11563D01*
X38276Y-11601D01*
X38295Y-11658D01*
X38524Y-11887D01*
X38276Y-11887D01*
X39829Y-11027D02*
X39695Y-11027D01*
X39638Y-11237D02*
X39829Y-11237D01*
X39829Y-10837D01*
X39638Y-10837D01*
X39467Y-11237D02*
X39467Y-10837D01*
X39238Y-11237D01*
X39238Y-10837D01*
X39105Y-10837D02*
X38876Y-10837D01*
X38991Y-11237D02*
X38991Y-10837D01*
X38743Y-11027D02*
X38609Y-11027D01*
X38552Y-11237D02*
X38743Y-11237D01*
X38743Y-10837D01*
X38552Y-10837D01*
X38152Y-11237D02*
X38286Y-11046D01*
X38381Y-11237D02*
X38381Y-10837D01*
X38228Y-10837D01*
X38190Y-10856D01*
X38171Y-10875D01*
X38152Y-10913D01*
X38152Y-10970D01*
X38171Y-11008D01*
X38190Y-11027D01*
X38228Y-11046D01*
X38381Y-11046D01*
%LPC*%
G54D15*
X69380Y-94110D03*
X69380Y-95490D03*
G54D16*
X33500Y-22625D03*
X30500Y-22625D03*
G54D17*
X36000Y-20500D03*
X36000Y-17500D03*
X36000Y-18500D03*
X36000Y-21500D03*
G54D18*
X52275Y-93275D03*
X52275Y-92775D03*
X52275Y-92275D03*
G54D19*
X23500Y-30500D03*
X24500Y-30500D03*
X19500Y-30500D03*
X20500Y-30500D03*
X15500Y-30500D03*
X16500Y-30500D03*
X11500Y-30500D03*
X12500Y-30500D03*
X19500Y-58500D03*
X20500Y-58500D03*
X27500Y-30500D03*
X28500Y-30500D03*
X31500Y-30500D03*
X32500Y-30500D03*
X35500Y-30500D03*
X36500Y-30500D03*
X39500Y-30500D03*
X40500Y-30500D03*
X43500Y-30500D03*
X44500Y-30500D03*
X47500Y-30500D03*
X48500Y-30500D03*
X51500Y-30500D03*
X52500Y-30500D03*
X55500Y-30500D03*
X56500Y-30500D03*
X59500Y-30500D03*
X60500Y-30500D03*
X63500Y-30500D03*
X64500Y-30500D03*
X67500Y-30500D03*
X68500Y-30500D03*
X71500Y-30500D03*
X72500Y-30500D03*
X11500Y-37500D03*
X12500Y-37500D03*
X15500Y-37500D03*
X16500Y-37500D03*
X19500Y-37500D03*
X20500Y-37500D03*
X23500Y-37500D03*
X24500Y-37500D03*
X27500Y-37500D03*
X28500Y-37500D03*
X31500Y-37500D03*
X32500Y-37500D03*
X35500Y-37500D03*
X36500Y-37500D03*
X39500Y-37500D03*
X40500Y-37500D03*
X43500Y-37500D03*
X44500Y-37500D03*
X47500Y-37500D03*
X48500Y-37500D03*
X51500Y-37500D03*
X52500Y-37500D03*
X55500Y-37500D03*
X56500Y-37500D03*
X59500Y-37500D03*
X60500Y-37500D03*
X63500Y-37500D03*
X64500Y-37500D03*
X67500Y-37500D03*
X68500Y-37500D03*
X71500Y-37500D03*
X72500Y-37500D03*
X11500Y-44500D03*
X12500Y-44500D03*
X15500Y-44500D03*
X16500Y-44500D03*
X19500Y-44500D03*
X20500Y-44500D03*
X23500Y-44500D03*
X24500Y-44500D03*
X27500Y-44500D03*
X28500Y-44500D03*
X31500Y-44500D03*
X32500Y-44500D03*
X35500Y-44500D03*
X36500Y-44500D03*
X39500Y-44500D03*
X40500Y-44500D03*
X43500Y-44500D03*
X44500Y-44500D03*
X47500Y-44500D03*
X48500Y-44500D03*
X51500Y-44500D03*
X52500Y-44500D03*
X55500Y-44500D03*
X56500Y-44500D03*
X59500Y-44500D03*
X60500Y-44500D03*
X63500Y-44500D03*
X64500Y-44500D03*
X67500Y-44500D03*
X68500Y-44500D03*
X71500Y-44500D03*
X72500Y-44500D03*
X11500Y-51500D03*
X12500Y-51500D03*
X15500Y-51500D03*
X16500Y-51500D03*
X19500Y-51500D03*
X20500Y-51500D03*
X23500Y-51500D03*
X24500Y-51500D03*
X27500Y-51500D03*
X28500Y-51500D03*
X31500Y-51500D03*
X32500Y-51500D03*
X35500Y-51500D03*
X36500Y-51500D03*
X39500Y-51500D03*
X40500Y-51500D03*
X43500Y-51500D03*
X44500Y-51500D03*
X47500Y-51500D03*
X48500Y-51500D03*
X51500Y-51500D03*
X52500Y-51500D03*
X55500Y-51500D03*
X56500Y-51500D03*
X59500Y-51500D03*
X60500Y-51500D03*
X63500Y-51500D03*
X64500Y-51500D03*
X67500Y-51500D03*
X68500Y-51500D03*
X71500Y-51500D03*
X72500Y-51500D03*
X11500Y-58500D03*
X12500Y-58500D03*
X15500Y-58500D03*
X16500Y-58500D03*
X71500Y-79500D03*
X72500Y-79500D03*
X23500Y-58500D03*
X24500Y-58500D03*
X27500Y-58500D03*
X28500Y-58500D03*
X31500Y-58500D03*
X32500Y-58500D03*
X35500Y-58500D03*
X36500Y-58500D03*
X39500Y-58500D03*
X40500Y-58500D03*
X43500Y-58500D03*
X44500Y-58500D03*
X47500Y-58500D03*
X48500Y-58500D03*
X51500Y-58500D03*
X52500Y-58500D03*
X55500Y-58500D03*
X56500Y-58500D03*
X59500Y-58500D03*
X60500Y-58500D03*
X63500Y-58500D03*
X64500Y-58500D03*
X67500Y-58500D03*
X68500Y-58500D03*
X71500Y-58500D03*
X72500Y-58500D03*
X11500Y-65500D03*
X12500Y-65500D03*
X15500Y-65500D03*
X16500Y-65500D03*
X19500Y-65500D03*
X20500Y-65500D03*
X23500Y-65500D03*
X24500Y-65500D03*
X27500Y-65500D03*
X28500Y-65500D03*
X31500Y-65500D03*
X32500Y-65500D03*
X35500Y-65500D03*
X36500Y-65500D03*
X39500Y-65500D03*
X40500Y-65500D03*
X43500Y-65500D03*
X44500Y-65500D03*
X47500Y-65500D03*
X48500Y-65500D03*
X51500Y-65500D03*
X52500Y-65500D03*
X55500Y-65500D03*
X56500Y-65500D03*
X59500Y-65500D03*
X60500Y-65500D03*
X63500Y-65500D03*
X64500Y-65500D03*
X67500Y-65500D03*
X68500Y-65500D03*
X71500Y-65500D03*
X72500Y-65500D03*
X11500Y-72500D03*
X12500Y-72500D03*
X15500Y-72500D03*
X16500Y-72500D03*
X19500Y-72500D03*
X20500Y-72500D03*
X23500Y-72500D03*
X24500Y-72500D03*
X27500Y-72500D03*
X28500Y-72500D03*
X31500Y-72500D03*
X32500Y-72500D03*
X35500Y-72500D03*
X36500Y-72500D03*
X39500Y-72500D03*
X40500Y-72500D03*
X43500Y-72500D03*
X44500Y-72500D03*
X47500Y-72500D03*
X48500Y-72500D03*
X51500Y-72500D03*
X52500Y-72500D03*
X55500Y-72500D03*
X56500Y-72500D03*
X59500Y-72500D03*
X60500Y-72500D03*
X63500Y-72500D03*
X64500Y-72500D03*
X67500Y-72500D03*
X68500Y-72500D03*
X71500Y-72500D03*
X72500Y-72500D03*
X11500Y-79500D03*
X12500Y-79500D03*
X15500Y-79500D03*
X16500Y-79500D03*
X19500Y-79500D03*
X20500Y-79500D03*
X23500Y-79500D03*
X24500Y-79500D03*
X27500Y-79500D03*
X28500Y-79500D03*
X31500Y-79500D03*
X32500Y-79500D03*
X35500Y-79500D03*
X36500Y-79500D03*
X39500Y-79500D03*
X40500Y-79500D03*
X43500Y-79500D03*
X44500Y-79500D03*
X47500Y-79500D03*
X48500Y-79500D03*
X51500Y-79500D03*
X52500Y-79500D03*
X55500Y-79500D03*
X56500Y-79500D03*
X59500Y-79500D03*
X60500Y-79500D03*
X63500Y-79500D03*
X64500Y-79500D03*
X67500Y-79500D03*
X68500Y-79500D03*
G54D20*
X64875Y-12275D03*
G54D21*
X63875Y-12275D03*
X62875Y-12275D03*
X61875Y-12275D03*
G54D20*
X64875Y-14675D03*
G54D21*
X63875Y-14675D03*
X62875Y-14675D03*
X61875Y-14675D03*
G54D20*
X61875Y-23675D03*
G54D21*
X62875Y-23675D03*
X63875Y-23675D03*
X64875Y-23675D03*
G54D20*
X48350Y-17750D03*
G54D21*
X49350Y-17750D03*
X50350Y-17750D03*
X51350Y-17750D03*
X52350Y-17750D03*
X53350Y-17750D03*
X54350Y-17750D03*
X55350Y-17750D03*
G54D20*
X50500Y-12200D03*
G54D21*
X51500Y-12200D03*
X72600Y-91500D03*
X72600Y-90500D03*
X72600Y-89500D03*
G54D20*
X72600Y-88500D03*
G54D22*
X59625Y-98300D03*
G54D23*
X58625Y-98300D03*
X57625Y-98300D03*
G54D20*
X14000Y-88500D03*
G54D21*
X14000Y-89500D03*
X14000Y-90500D03*
X14000Y-91500D03*
G54D20*
X15000Y-95000D03*
G54D21*
X16000Y-95000D03*
X17000Y-95000D03*
X18000Y-95000D03*
X19000Y-95000D03*
X20000Y-95000D03*
G54D22*
X24000Y-95000D03*
G54D23*
X23000Y-95000D03*
X22000Y-95000D03*
G54D22*
X24000Y-97000D03*
G54D23*
X23000Y-97000D03*
X22000Y-97000D03*
G54D22*
X27000Y-99000D03*
G54D23*
X26000Y-99000D03*
X27000Y-98000D03*
X26000Y-98000D03*
X27000Y-97000D03*
X26000Y-97000D03*
G54D16*
X33500Y-24450D03*
X30500Y-24450D03*
X33500Y-23525D03*
X30500Y-23525D03*
X38575Y-23600D03*
X35575Y-23600D03*
X40500Y-18100D03*
X40500Y-21100D03*
X32400Y-98500D03*
X29400Y-98500D03*
X38400Y-91600D03*
X41400Y-91600D03*
X42000Y-98700D03*
X39000Y-98700D03*
X18725Y-12725D03*
X18725Y-15725D03*
X24725Y-12725D03*
X24725Y-15725D03*
X30725Y-12725D03*
X30725Y-15725D03*
X42000Y-97500D03*
X39000Y-97500D03*
X36725Y-12725D03*
X36725Y-15725D03*
X13350Y-20600D03*
X13350Y-17600D03*
X57750Y-16400D03*
X54750Y-16400D03*
X58525Y-21100D03*
X55525Y-21100D03*
X58525Y-19900D03*
X55525Y-19900D03*
G54D24*
X12000Y-85000D03*
G54D21*
X44000Y-16100D03*
G54D16*
X45000Y-12100D03*
G54D21*
X46000Y-16100D03*
G54D16*
X45000Y-16100D03*
G54D21*
X44000Y-15100D03*
X46000Y-15100D03*
X45000Y-15100D03*
G54D16*
X45000Y-17100D03*
G54D21*
X46000Y-14100D03*
X44000Y-14100D03*
X45000Y-14100D03*
G54D16*
X45000Y-13100D03*
G54D21*
X44000Y-13100D03*
X46000Y-13100D03*
X45000Y-18100D03*
X45000Y-11100D03*
X44000Y-11100D03*
X46000Y-18100D03*
X46000Y-11100D03*
X44000Y-18100D03*
G54D25*
X16350Y-23250D03*
G54D26*
X17350Y-23250D03*
X18350Y-23250D03*
X19350Y-23250D03*
X20350Y-23250D03*
X21350Y-23250D03*
X22350Y-23250D03*
X23350Y-23250D03*
X23350Y-20250D03*
X22350Y-20250D03*
X21350Y-20250D03*
X20350Y-20250D03*
X19350Y-20250D03*
X18350Y-20250D03*
X17350Y-20250D03*
X16350Y-20250D03*
G54D16*
X30375Y-91600D03*
X30375Y-90600D03*
X34425Y-91600D03*
X34425Y-90600D03*
G54D27*
X61375Y-20275D03*
X61375Y-19775D03*
X61375Y-19275D03*
X61375Y-18775D03*
X61375Y-18275D03*
X61375Y-17775D03*
X61375Y-17275D03*
X61375Y-16775D03*
X65375Y-16775D03*
X65375Y-17275D03*
X65375Y-17775D03*
X65375Y-18275D03*
X65375Y-18775D03*
X65375Y-19275D03*
X65375Y-19775D03*
X65375Y-20275D03*
G54D28*
X59250Y-18550D03*
X67550Y-18550D03*
G54D16*
X68650Y-20050D03*
X68650Y-22050D03*
G54D24*
X72000Y-85000D03*
G54D25*
X16350Y-24750D03*
G54D26*
X17350Y-24750D03*
X18350Y-24750D03*
X19350Y-24750D03*
X20350Y-24750D03*
X21350Y-24750D03*
X22350Y-24750D03*
X23350Y-24750D03*
X24350Y-24750D03*
X25350Y-24750D03*
X26350Y-24750D03*
X27350Y-24750D03*
X27350Y-18750D03*
X26350Y-18750D03*
X25350Y-18750D03*
X24350Y-18750D03*
X23350Y-18750D03*
X22350Y-18750D03*
X21350Y-18750D03*
X20350Y-18750D03*
X19350Y-18750D03*
X18350Y-18750D03*
X17350Y-18750D03*
X16350Y-18750D03*
G54D16*
X41800Y-18100D03*
X42800Y-18100D03*
X35400Y-98500D03*
X35400Y-97500D03*
G54D29*
X66450Y-88800D03*
G54D16*
X67450Y-88800D03*
G54D24*
X72000Y-25000D03*
X12000Y-25000D03*
X72500Y-98500D03*
X11500Y-98500D03*
X11500Y-11500D03*
X72500Y-11500D03*
G54D30*
X27150Y-21750D03*
G54D16*
X37700Y-97500D03*
G54D25*
X56700Y-90400D03*
G54D26*
X55700Y-90400D03*
X54700Y-90400D03*
X53700Y-90400D03*
X52700Y-90400D03*
X51700Y-90400D03*
X50700Y-90400D03*
X49700Y-90400D03*
X48700Y-90400D03*
X47700Y-90400D03*
X46700Y-90400D03*
X45700Y-90400D03*
X45700Y-96400D03*
X46700Y-96400D03*
X47700Y-96400D03*
X48700Y-96400D03*
X49700Y-96400D03*
X50700Y-96400D03*
X51700Y-96400D03*
X52700Y-96400D03*
X53700Y-96400D03*
X54700Y-96400D03*
X55700Y-96400D03*
X56700Y-96400D03*
G54D20*
X52225Y-23500D03*
G54D21*
X53225Y-23500D03*
X54225Y-23500D03*
X54225Y-22500D03*
X53225Y-22500D03*
X52225Y-22500D03*
G54D20*
X49225Y-23500D03*
G54D21*
X50225Y-23500D03*
X51225Y-23500D03*
X51225Y-22500D03*
X50225Y-22500D03*
X49225Y-22500D03*
G54D20*
X46225Y-23500D03*
G54D21*
X47225Y-23500D03*
X48225Y-23500D03*
X48225Y-22500D03*
X47225Y-22500D03*
X46225Y-22500D03*
G54D20*
X43225Y-23500D03*
G54D21*
X44225Y-23500D03*
X45225Y-23500D03*
X45225Y-22500D03*
X44225Y-22500D03*
X43225Y-22500D03*
G54D20*
X53225Y-24500D03*
G54D21*
X53225Y-25500D03*
X53225Y-26500D03*
X54225Y-26500D03*
X54225Y-25500D03*
X54225Y-24500D03*
G54D20*
X51225Y-24500D03*
G54D21*
X51225Y-25500D03*
X51225Y-26500D03*
X52225Y-26500D03*
X52225Y-25500D03*
X52225Y-24500D03*
G54D20*
X49225Y-24500D03*
G54D21*
X49225Y-25500D03*
X49225Y-26500D03*
X50225Y-26500D03*
X50225Y-25500D03*
X50225Y-24500D03*
G54D20*
X47225Y-24500D03*
G54D21*
X47225Y-25500D03*
X47225Y-26500D03*
X48225Y-26500D03*
X48225Y-25500D03*
X48225Y-24500D03*
G54D20*
X45225Y-24500D03*
G54D21*
X45225Y-25500D03*
X45225Y-26500D03*
X46225Y-26500D03*
X46225Y-25500D03*
X46225Y-24500D03*
G54D20*
X43225Y-24500D03*
G54D21*
X43225Y-25500D03*
X43225Y-26500D03*
X44225Y-26500D03*
X44225Y-25500D03*
X44225Y-24500D03*
G54D20*
X54225Y-21500D03*
G54D21*
X54225Y-20500D03*
X54225Y-19500D03*
X53225Y-19500D03*
X53225Y-20500D03*
X53225Y-21500D03*
G54D20*
X52225Y-21500D03*
G54D21*
X52225Y-20500D03*
X52225Y-19500D03*
X51225Y-19500D03*
X51225Y-20500D03*
X51225Y-21500D03*
G54D20*
X50225Y-21500D03*
G54D21*
X50225Y-20500D03*
X50225Y-19500D03*
X49225Y-19500D03*
X49225Y-20500D03*
X49225Y-21500D03*
G54D20*
X48225Y-21500D03*
G54D21*
X48225Y-20500D03*
X48225Y-19500D03*
X47225Y-19500D03*
X47225Y-20500D03*
X47225Y-21500D03*
G54D20*
X46225Y-21500D03*
G54D21*
X46225Y-20500D03*
X46225Y-19500D03*
X45225Y-19500D03*
X45225Y-20500D03*
X45225Y-21500D03*
G54D20*
X44225Y-21500D03*
G54D21*
X44225Y-20500D03*
X44225Y-19500D03*
X43225Y-19500D03*
X43225Y-20500D03*
X43225Y-21500D03*
G54D30*
X67875Y-14675D03*
X58875Y-14675D03*
X67875Y-23675D03*
X58875Y-23675D03*
G54D25*
X41400Y-93000D03*
G54D26*
X40400Y-93000D03*
X39400Y-93000D03*
X38400Y-93000D03*
X37400Y-93000D03*
X36400Y-93000D03*
X35400Y-93000D03*
X34400Y-93000D03*
X33400Y-93000D03*
X32400Y-93000D03*
X31400Y-93000D03*
X30400Y-93000D03*
X29400Y-93000D03*
X28400Y-93000D03*
X28400Y-96000D03*
X29400Y-96000D03*
X30400Y-96000D03*
X31400Y-96000D03*
X32400Y-96000D03*
X33400Y-96000D03*
X34400Y-96000D03*
X35400Y-96000D03*
X36400Y-96000D03*
X37400Y-96000D03*
X38400Y-96000D03*
X39400Y-96000D03*
X40400Y-96000D03*
X41400Y-96000D03*
G54D16*
X37450Y-91600D03*
X35450Y-91600D03*
X59000Y-92400D03*
X59000Y-94400D03*
X20000Y-91450D03*
X20000Y-93450D03*
X68925Y-89300D03*
X68925Y-91300D03*
X33400Y-91600D03*
X31400Y-91600D03*
X32400Y-91600D03*
G54D31*
X62550Y-90900D03*
G54D32*
X62550Y-88500D03*
G54D33*
X64550Y-89650D03*
G54D16*
X20150Y-87075D03*
X19150Y-87075D03*
X20150Y-86000D03*
X20150Y-85000D03*
X23500Y-86000D03*
X23500Y-85000D03*
X27100Y-86000D03*
X27100Y-85000D03*
X30700Y-86000D03*
X30700Y-85000D03*
X34300Y-86000D03*
X34300Y-85000D03*
X37900Y-86000D03*
X37900Y-85000D03*
X41500Y-86000D03*
X41500Y-85000D03*
X45100Y-86000D03*
X45100Y-85000D03*
X48700Y-86000D03*
X48700Y-85000D03*
X52300Y-86000D03*
X52300Y-85000D03*
X55900Y-86000D03*
X55900Y-85000D03*
X59500Y-86000D03*
X59500Y-85000D03*
X62950Y-86000D03*
X62950Y-85000D03*
X66300Y-86000D03*
X66300Y-85000D03*
X66300Y-87000D03*
X67300Y-87000D03*
X68350Y-86000D03*
X68350Y-85000D03*
X68350Y-84000D03*
X67350Y-85000D03*
X65150Y-86000D03*
X65150Y-85000D03*
X65150Y-84000D03*
X64150Y-85000D03*
X61800Y-86000D03*
X61800Y-85000D03*
X61800Y-84000D03*
X60800Y-85000D03*
X58200Y-86000D03*
X58200Y-85000D03*
X58200Y-84000D03*
X57200Y-85000D03*
X54600Y-86000D03*
X54600Y-85000D03*
X54600Y-84000D03*
X53600Y-85000D03*
X51000Y-86000D03*
X51000Y-85000D03*
X51000Y-84000D03*
X50000Y-85000D03*
X47400Y-86000D03*
X47400Y-85000D03*
X47400Y-84000D03*
X46400Y-85000D03*
X43800Y-86000D03*
X43800Y-85000D03*
X43800Y-84000D03*
X42800Y-85000D03*
X40200Y-86000D03*
X40200Y-85000D03*
X40200Y-84000D03*
X39200Y-85000D03*
X36600Y-86000D03*
X36600Y-85000D03*
X36600Y-84000D03*
X35600Y-85000D03*
X33000Y-86000D03*
X33000Y-85000D03*
X33000Y-84000D03*
X32000Y-85000D03*
X29400Y-86000D03*
X29400Y-85000D03*
X29400Y-84000D03*
X28400Y-85000D03*
X25800Y-86000D03*
X25800Y-85000D03*
X25800Y-84000D03*
X24800Y-85000D03*
X22200Y-86000D03*
X22200Y-85000D03*
X22200Y-84000D03*
X21200Y-85000D03*
X19000Y-86000D03*
X19000Y-85000D03*
X19000Y-84000D03*
X18000Y-85000D03*
X16600Y-86000D03*
X16600Y-85000D03*
X16600Y-84000D03*
X15600Y-85000D03*
X30500Y-17550D03*
X30500Y-18550D03*
X30500Y-19550D03*
X31500Y-18550D03*
G54D29*
X70775Y-89300D03*
G54D16*
X70775Y-88300D03*
G54D29*
X17975Y-89875D03*
G54D16*
X17975Y-90875D03*
G54D21*
X39875Y-12725D03*
X38125Y-12725D03*
G54D17*
X40375Y-13725D03*
X37625Y-13725D03*
G54D21*
X38500Y-14225D03*
X39500Y-14225D03*
X33875Y-12725D03*
X32125Y-12725D03*
G54D17*
X34375Y-13725D03*
X31625Y-13725D03*
G54D21*
X32500Y-14225D03*
X33500Y-14225D03*
X27875Y-12725D03*
X26125Y-12725D03*
G54D17*
X28375Y-13725D03*
X25625Y-13725D03*
G54D21*
X26500Y-14225D03*
X27500Y-14225D03*
X21875Y-12725D03*
X20125Y-12725D03*
G54D17*
X22375Y-13725D03*
X19625Y-13725D03*
G54D21*
X20500Y-14225D03*
X21500Y-14225D03*
X15875Y-12725D03*
X14125Y-12725D03*
G54D17*
X16375Y-13725D03*
X13625Y-13725D03*
G54D21*
X14500Y-14225D03*
X15500Y-14225D03*
X15875Y-15275D03*
X14125Y-15275D03*
X21875Y-15275D03*
X20125Y-15275D03*
X27875Y-15275D03*
X26125Y-15275D03*
X33875Y-15275D03*
X32125Y-15275D03*
X39875Y-15275D03*
X38125Y-15275D03*
G54D20*
X70700Y-20100D03*
G54D21*
X71700Y-20100D03*
G54D20*
X70700Y-18600D03*
G54D21*
X71700Y-18600D03*
M02*
