G04 (created by PCBNEW (2013-mar-13)-testing) date Sunday 29 December 2013 09:41:48 PM IST*
%MOIN*%
G04 Gerber Fmt 3.4, Leading zero omitted, Abs format*
%FSLAX34Y34*%
G01*
G70*
G90*
G04 APERTURE LIST*
%ADD10C,0.001000*%
%ADD11C,0.011800*%
%ADD12C,0.005000*%
%ADD13R,0.038583X0.133858*%
%ADD14R,0.071000X0.063000*%
%ADD15R,0.106000X0.063000*%
%ADD16O,0.011024X0.033465*%
%ADD17O,0.033465X0.011024*%
%ADD18R,0.019685X0.066929*%
%ADD19R,0.027559X0.033465*%
%ADD20R,0.061024X0.053150*%
%ADD21R,0.064000X0.120000*%
%ADD22R,0.059000X0.051200*%
%ADD23C,0.060000*%
%ADD24C,0.070000*%
%ADD25R,0.070000X0.070000*%
%ADD26C,0.240000*%
%ADD27O,0.120000X0.180000*%
%ADD28R,0.120000X0.180000*%
%ADD29O,0.180000X0.120000*%
%ADD30R,0.078700X0.023600*%
%ADD31R,0.016500X0.057900*%
%ADD32R,0.120000X0.024000*%
%ADD33R,0.061000X0.023500*%
%ADD34R,0.060000X0.060000*%
%ADD35C,0.080000*%
%ADD36C,0.787402*%
%ADD37R,0.120000X0.064000*%
%ADD38R,0.047244X0.125984*%
%ADD39R,0.066929X0.208661*%
%ADD40R,0.050000X0.040000*%
%ADD41R,0.062992X0.088583*%
%ADD42R,0.088583X0.062992*%
%ADD43R,0.078700X0.017700*%
%ADD44R,0.017700X0.078700*%
%ADD45R,0.043307X0.045276*%
%ADD46R,0.021654X0.045079*%
%ADD47R,0.045079X0.021654*%
%ADD48C,0.196850*%
%ADD49R,0.024000X0.120000*%
%ADD50R,0.055118X0.047244*%
%ADD51R,0.055118X0.055118*%
%ADD52R,0.080000X0.150000*%
%ADD53R,0.080000X0.060000*%
%ADD54C,0.040000*%
%ADD55C,0.100000*%
%ADD56C,0.070866*%
%ADD57R,0.045276X0.057087*%
%ADD58R,0.039370X0.057087*%
%ADD59C,0.180000*%
%ADD60R,0.065000X0.065000*%
%ADD61C,0.051200*%
%ADD62R,0.057087X0.045276*%
%ADD63C,0.078740*%
%ADD64C,0.236220*%
%ADD65R,0.057087X0.039370*%
%ADD66R,0.024000X0.080000*%
%ADD67R,0.031500X0.047200*%
G04 APERTURE END LIST*
G54D10*
X-845466Y845466D02*
X-845466Y845466D01*
X-845466Y845466D01*
X-845466Y845466D01*
X-845466Y845466D01*
X-845466Y845466D02*
X-845466Y845466D01*
X-845466Y845466D01*
X-845466Y845466D01*
X-845466Y845466D01*
X-845466Y845466D02*
X-845466Y845466D01*
X-845466Y845466D02*
X-845466Y845466D01*
X-845466Y845466D02*
X-845466Y845466D01*
X-845466Y845466D02*
X-845466Y845466D01*
X-845466Y845466D02*
X-845466Y845466D01*
X-845381Y-845339D02*
X-845269Y845199D01*
X-845156Y-845451D01*
X-845044Y845199D01*
X-844932Y-845339D01*
X-844763Y-845339D02*
X-844651Y845199D01*
X-844538Y-845451D01*
X-844426Y845199D01*
X-844314Y-845339D01*
X-844145Y-845339D02*
X-844033Y845199D01*
X-843920Y-845451D01*
X-843808Y845199D01*
X-843696Y-845339D01*
X-843471Y845255D02*
X-843443Y845227D01*
X-843471Y845199D01*
X-843499Y845227D01*
X-843471Y845255D01*
X-843471Y845199D01*
X-843246Y-845339D02*
X-843134Y845199D01*
X-843021Y-845451D01*
X-842909Y845199D01*
X-842796Y-845339D01*
X-842628Y-845339D02*
X-842487Y845199D01*
X-842347Y-845339D02*
X-842487Y845199D01*
X-842544Y845058D01*
X-842572Y845030D01*
X-842628Y845002D01*
X-842038Y845199D02*
X-842094Y845227D01*
X-842122Y845255D01*
X-842150Y845311D01*
X-842150Y-845451D01*
X-842122Y-845395D01*
X-842094Y-845367D01*
X-842038Y-845339D01*
X-841954Y-845339D01*
X-841897Y-845367D01*
X-841869Y-845395D01*
X-841841Y-845451D01*
X-841841Y845311D01*
X-841869Y845255D01*
X-841897Y845227D01*
X-841954Y845199D01*
X-842038Y845199D01*
X-841504Y845199D02*
X-841560Y845227D01*
X-841588Y845283D01*
X-841588Y-845142D01*
X-841026Y-845339D02*
X-841026Y845199D01*
X-841279Y-845339D02*
X-841279Y845283D01*
X-841251Y845227D01*
X-841195Y845199D01*
X-841111Y845199D01*
X-841055Y845227D01*
X-841026Y845255D01*
X-840746Y845199D02*
X-840746Y-845339D01*
X-840746Y-845395D02*
X-840717Y-845367D01*
X-840661Y-845339D01*
X-840577Y-845339D01*
X-840521Y-845367D01*
X-840493Y-845423D01*
X-840493Y845199D01*
X-840493Y-845423D02*
X-840465Y-845367D01*
X-840408Y-845339D01*
X-840324Y-845339D01*
X-840268Y-845367D01*
X-840240Y-845423D01*
X-840240Y845199D01*
X-839959Y845255D02*
X-839931Y845227D01*
X-839959Y845199D01*
X-839987Y845227D01*
X-839959Y845255D01*
X-839959Y845199D01*
X-839425Y845227D02*
X-839481Y845199D01*
X-839594Y845199D01*
X-839650Y845227D01*
X-839678Y845255D01*
X-839706Y845311D01*
X-839706Y-845451D01*
X-839678Y-845395D01*
X-839650Y-845367D01*
X-839594Y-845339D01*
X-839481Y-845339D01*
X-839425Y-845367D01*
X-839088Y845199D02*
X-839144Y845227D01*
X-839172Y845255D01*
X-839200Y845311D01*
X-839200Y-845451D01*
X-839172Y-845395D01*
X-839144Y-845367D01*
X-839088Y-845339D01*
X-839004Y-845339D01*
X-838947Y-845367D01*
X-838919Y-845395D01*
X-838891Y-845451D01*
X-838891Y845311D01*
X-838919Y845255D01*
X-838947Y845227D01*
X-839004Y845199D01*
X-839088Y845199D01*
X-838638Y845199D02*
X-838638Y-845339D01*
X-838638Y-845395D02*
X-838610Y-845367D01*
X-838554Y-845339D01*
X-838470Y-845339D01*
X-838414Y-845367D01*
X-838386Y-845423D01*
X-838386Y845199D01*
X-838386Y-845423D02*
X-838357Y-845367D01*
X-838301Y-845339D01*
X-838217Y-845339D01*
X-838161Y-845367D01*
X-838133Y-845423D01*
X-838133Y845199D01*
G54D11*
X-845381Y-845142D02*
X-845241Y845199D01*
X-845128Y-845311D01*
X-845016Y845199D01*
X-844876Y-845142D01*
X-844707Y-845339D02*
X-844566Y845199D01*
X-844426Y-845339D02*
X-844566Y845199D01*
X-844623Y845058D01*
X-844651Y845030D01*
X-844707Y845002D01*
X-844117Y845199D02*
X-844173Y845227D01*
X-844201Y845255D01*
X-844229Y845311D01*
X-844229Y-845451D01*
X-844201Y-845395D01*
X-844173Y-845367D01*
X-844117Y-845339D01*
X-844033Y-845339D01*
X-843976Y-845367D01*
X-843948Y-845395D01*
X-843920Y-845451D01*
X-843920Y845311D01*
X-843948Y845255D01*
X-843976Y845227D01*
X-844033Y845199D01*
X-844117Y845199D01*
X-843386Y845199D02*
X-843667Y845199D01*
X-843667Y-845142D01*
X-842937Y-845339D02*
X-842937Y845199D01*
X-843190Y-845339D02*
X-843190Y845283D01*
X-843162Y845227D01*
X-843106Y845199D01*
X-843021Y845199D01*
X-842965Y845227D01*
X-842937Y845255D01*
X-842656Y845199D02*
X-842656Y-845339D01*
X-842656Y-845395D02*
X-842628Y-845367D01*
X-842572Y-845339D01*
X-842487Y-845339D01*
X-842431Y-845367D01*
X-842403Y-845423D01*
X-842403Y845199D01*
X-842403Y-845423D02*
X-842375Y-845367D01*
X-842319Y-845339D01*
X-842235Y-845339D01*
X-842178Y-845367D01*
X-842150Y-845423D01*
X-842150Y845199D01*
G54D10*
X-845353Y845227D02*
X-845269Y845199D01*
X-845128Y845199D01*
X-845072Y845227D01*
X-845044Y845255D01*
X-845016Y845311D01*
X-845016Y845367D01*
X-845044Y845423D01*
X-845072Y845451D01*
X-845128Y-845451D01*
X-845241Y-845423D01*
X-845297Y-845395D01*
X-845325Y-845367D01*
X-845353Y-845311D01*
X-845353Y-845255D01*
X-845325Y-845199D01*
X-845297Y-845171D01*
X-845241Y-845142D01*
X-845100Y-845142D01*
X-845016Y-845171D01*
X-844763Y845199D02*
X-844763Y-845142D01*
X-844510Y845199D02*
X-844510Y-845423D01*
X-844538Y-845367D01*
X-844595Y-845339D01*
X-844679Y-845339D01*
X-844735Y-845367D01*
X-844763Y-845395D01*
X-844005Y845227D02*
X-844061Y845199D01*
X-844173Y845199D01*
X-844229Y845227D01*
X-844257Y845283D01*
X-844257Y-845423D01*
X-844229Y-845367D01*
X-844173Y-845339D01*
X-844061Y-845339D01*
X-844005Y-845367D01*
X-843976Y-845423D01*
X-843976Y845451D01*
X-844257Y845395D01*
X-843499Y845227D02*
X-843555Y845199D01*
X-843667Y845199D01*
X-843724Y845227D01*
X-843752Y845283D01*
X-843752Y-845423D01*
X-843724Y-845367D01*
X-843667Y-845339D01*
X-843555Y-845339D01*
X-843499Y-845367D01*
X-843471Y-845423D01*
X-843471Y845451D01*
X-843752Y845395D01*
X-843302Y-845339D02*
X-843077Y-845339D01*
X-843218Y-845142D02*
X-843218Y845283D01*
X-843190Y845227D01*
X-843134Y845199D01*
X-843077Y845199D01*
X-842881Y845255D02*
X-842853Y845227D01*
X-842881Y845199D01*
X-842909Y845227D01*
X-842881Y845255D01*
X-842881Y845199D01*
X-842881Y-845367D02*
X-842853Y-845395D01*
X-842881Y-845423D01*
X-842909Y-845395D01*
X-842881Y-845367D01*
X-842881Y-845423D01*
X-841729Y-845114D02*
X-842235Y845058D01*
X-841532Y845199D02*
X-841532Y-845142D01*
X-841279Y845199D02*
X-841279Y-845423D01*
X-841307Y-845367D01*
X-841364Y-845339D01*
X-841448Y-845339D01*
X-841504Y-845367D01*
X-841532Y-845395D01*
X-840914Y845199D02*
X-840970Y845227D01*
X-840998Y845255D01*
X-841026Y845311D01*
X-841026Y-845451D01*
X-840998Y-845395D01*
X-840970Y-845367D01*
X-840914Y-845339D01*
X-840830Y-845339D01*
X-840774Y-845367D01*
X-840746Y-845395D01*
X-840717Y-845451D01*
X-840717Y845311D01*
X-840746Y845255D01*
X-840774Y845227D01*
X-840830Y845199D01*
X-840914Y845199D01*
X-840465Y845199D02*
X-840465Y-845339D01*
X-840465Y-845395D02*
X-840436Y-845367D01*
X-840380Y-845339D01*
X-840296Y-845339D01*
X-840240Y-845367D01*
X-840212Y-845423D01*
X-840212Y845199D01*
X-840212Y-845423D02*
X-840184Y-845367D01*
X-840127Y-845339D01*
X-840043Y-845339D01*
X-839987Y-845367D01*
X-839959Y-845423D01*
X-839959Y845199D01*
X-839453Y845227D02*
X-839509Y845199D01*
X-839622Y845199D01*
X-839678Y845227D01*
X-839706Y845283D01*
X-839706Y-845423D01*
X-839678Y-845367D01*
X-839622Y-845339D01*
X-839509Y-845339D01*
X-839453Y-845367D01*
X-839425Y-845423D01*
X-839425Y845451D01*
X-839706Y845395D01*
X-838751Y-845114D02*
X-839256Y845058D01*
X-838582Y845227D02*
X-838526Y845199D01*
X-838414Y845199D01*
X-838357Y845227D01*
X-838329Y845283D01*
X-838329Y845311D01*
X-838357Y845367D01*
X-838414Y845395D01*
X-838498Y845395D01*
X-838554Y845423D01*
X-838582Y-845451D01*
X-838582Y-845423D01*
X-838554Y-845367D01*
X-838498Y-845339D01*
X-838414Y-845339D01*
X-838357Y-845367D01*
X-837824Y845199D02*
X-837824Y-845423D01*
X-837852Y-845367D01*
X-837908Y-845339D01*
X-838020Y-845339D01*
X-838076Y-845367D01*
X-837824Y845227D02*
X-837880Y845199D01*
X-838020Y845199D01*
X-838076Y845227D01*
X-838105Y845283D01*
X-838105Y845339D01*
X-838076Y845395D01*
X-838020Y845423D01*
X-837880Y845423D01*
X-837824Y845451D01*
X-837543Y845199D02*
X-837543Y-845339D01*
X-837543Y-845395D02*
X-837515Y-845367D01*
X-837458Y-845339D01*
X-837374Y-845339D01*
X-837318Y-845367D01*
X-837290Y-845423D01*
X-837290Y845199D01*
X-837290Y-845423D02*
X-837262Y-845367D01*
X-837206Y-845339D01*
X-837121Y-845339D01*
X-837065Y-845367D01*
X-837037Y-845423D01*
X-837037Y845199D01*
X-836503Y845199D02*
X-836503Y-845423D01*
X-836531Y-845367D01*
X-836587Y-845339D01*
X-836700Y-845339D01*
X-836756Y-845367D01*
X-836503Y845227D02*
X-836559Y845199D01*
X-836700Y845199D01*
X-836756Y845227D01*
X-836784Y845283D01*
X-836784Y845339D01*
X-836756Y845395D01*
X-836700Y845423D01*
X-836559Y845423D01*
X-836503Y845451D01*
X-836306Y-845339D02*
X-836082Y-845339D01*
X-836222Y-845142D02*
X-836222Y845283D01*
X-836194Y845227D01*
X-836138Y845199D01*
X-836082Y845199D01*
X-835632Y845199D02*
X-835632Y-845423D01*
X-835660Y-845367D01*
X-835716Y-845339D01*
X-835829Y-845339D01*
X-835885Y-845367D01*
X-835632Y845227D02*
X-835688Y845199D01*
X-835829Y845199D01*
X-835885Y845227D01*
X-835913Y845283D01*
X-835913Y845339D01*
X-835885Y845395D01*
X-835829Y845423D01*
X-835688Y845423D01*
X-835632Y845451D01*
X-834930Y-845114D02*
X-835436Y845058D01*
X-834733Y845199D02*
X-834733Y-845142D01*
X-834593Y-845142D01*
X-834508Y-845171D01*
X-834452Y-845227D01*
X-834424Y-845283D01*
X-834396Y-845395D01*
X-834396Y845451D01*
X-834424Y845339D01*
X-834452Y845283D01*
X-834508Y845227D01*
X-834593Y845199D01*
X-834733Y845199D01*
X-834059Y845199D02*
X-834115Y845227D01*
X-834143Y845255D01*
X-834171Y845311D01*
X-834171Y-845451D01*
X-834143Y-845395D01*
X-834115Y-845367D01*
X-834059Y-845339D01*
X-833975Y-845339D01*
X-833918Y-845367D01*
X-833890Y-845395D01*
X-833862Y-845451D01*
X-833862Y845311D01*
X-833890Y845255D01*
X-833918Y845227D01*
X-833975Y845199D01*
X-834059Y845199D01*
X-833356Y845227D02*
X-833413Y845199D01*
X-833525Y845199D01*
X-833581Y845227D01*
X-833609Y845255D01*
X-833637Y845311D01*
X-833637Y-845451D01*
X-833609Y-845395D01*
X-833581Y-845367D01*
X-833525Y-845339D01*
X-833413Y-845339D01*
X-833356Y-845367D01*
X-832851Y-845339D02*
X-832851Y845199D01*
X-833104Y-845339D02*
X-833104Y845283D01*
X-833076Y845227D01*
X-833019Y845199D01*
X-832935Y845199D01*
X-832879Y845227D01*
X-832851Y845255D01*
X-832570Y845199D02*
X-832570Y-845339D01*
X-832570Y-845395D02*
X-832542Y-845367D01*
X-832486Y-845339D01*
X-832401Y-845339D01*
X-832345Y-845367D01*
X-832317Y-845423D01*
X-832317Y845199D01*
X-832317Y-845423D02*
X-832289Y-845367D01*
X-832233Y-845339D01*
X-832148Y-845339D01*
X-832092Y-845367D01*
X-832064Y-845423D01*
X-832064Y845199D01*
X-831558Y845227D02*
X-831615Y845199D01*
X-831727Y845199D01*
X-831783Y845227D01*
X-831811Y845283D01*
X-831811Y-845423D01*
X-831783Y-845367D01*
X-831727Y-845339D01*
X-831615Y-845339D01*
X-831558Y-845367D01*
X-831530Y-845423D01*
X-831530Y845451D01*
X-831811Y845395D01*
X-831277Y-845339D02*
X-831277Y845199D01*
X-831277Y-845395D02*
X-831249Y-845367D01*
X-831193Y-845339D01*
X-831109Y-845339D01*
X-831053Y-845367D01*
X-831025Y-845423D01*
X-831025Y845199D01*
X-830828Y-845339D02*
X-830603Y-845339D01*
X-830744Y-845142D02*
X-830744Y845283D01*
X-830716Y845227D01*
X-830659Y845199D01*
X-830603Y845199D01*
X-830435Y845227D02*
X-830378Y845199D01*
X-830266Y845199D01*
X-830210Y845227D01*
X-830182Y845283D01*
X-830182Y845311D01*
X-830210Y845367D01*
X-830266Y845395D01*
X-830350Y845395D01*
X-830406Y845423D01*
X-830435Y-845451D01*
X-830435Y-845423D01*
X-830406Y-845367D01*
X-830350Y-845339D01*
X-830266Y-845339D01*
X-830210Y-845367D01*
X-829507Y-845114D02*
X-830013Y845058D01*
X-829058Y845227D02*
X-829114Y845199D01*
X-829226Y845199D01*
X-829283Y845227D01*
X-829311Y845255D01*
X-829339Y845311D01*
X-829339Y-845451D01*
X-829311Y-845395D01*
X-829283Y-845367D01*
X-829226Y-845339D01*
X-829114Y-845339D01*
X-829058Y-845367D01*
X-828721Y845199D02*
X-828777Y845227D01*
X-828805Y845283D01*
X-828805Y-845142D01*
X-828412Y845199D02*
X-828468Y845227D01*
X-828496Y845255D01*
X-828524Y845311D01*
X-828524Y-845451D01*
X-828496Y-845395D01*
X-828468Y-845367D01*
X-828412Y-845339D01*
X-828327Y-845339D01*
X-828271Y-845367D01*
X-828243Y-845395D01*
X-828215Y-845451D01*
X-828215Y845311D01*
X-828243Y845255D01*
X-828271Y845227D01*
X-828327Y845199D01*
X-828412Y845199D01*
X-827709Y845227D02*
X-827766Y845199D01*
X-827878Y845199D01*
X-827934Y845227D01*
X-827962Y845255D01*
X-827990Y845311D01*
X-827990Y-845451D01*
X-827962Y-845395D01*
X-827934Y-845367D01*
X-827878Y-845339D01*
X-827766Y-845339D01*
X-827709Y-845367D01*
X-827456Y845199D02*
X-827456Y-845142D01*
X-827400Y845423D02*
X-827232Y845199D01*
X-827232Y-845339D02*
X-827456Y845367D01*
X-827063Y-845339D02*
X-826838Y-845339D01*
X-826979Y-845142D02*
X-826979Y845283D01*
X-826951Y845227D01*
X-826895Y845199D01*
X-826838Y845199D01*
X-826642Y845199D02*
X-826642Y-845142D01*
X-826389Y845199D02*
X-826389Y-845423D01*
X-826417Y-845367D01*
X-826473Y-845339D01*
X-826557Y-845339D01*
X-826614Y-845367D01*
X-826642Y-845395D01*
X-826108Y845199D02*
X-826108Y-845339D01*
X-826108Y-845451D02*
X-826080Y-845395D01*
X-826052Y-845367D01*
X-825996Y-845339D01*
X-825939Y-845339D01*
X-825518Y845227D02*
X-825574Y845199D01*
X-825686Y845199D01*
X-825743Y845227D01*
X-825771Y845283D01*
X-825771Y-845423D01*
X-825743Y-845367D01*
X-825686Y-845339D01*
X-825574Y-845339D01*
X-825518Y-845367D01*
X-825490Y-845423D01*
X-825490Y845451D01*
X-825771Y845395D01*
X-825012Y845227D02*
X-825068Y845199D01*
X-825181Y845199D01*
X-825237Y845227D01*
X-825265Y845283D01*
X-825265Y-845423D01*
X-825237Y-845367D01*
X-825181Y-845339D01*
X-825068Y-845339D01*
X-825012Y-845367D01*
X-824984Y-845423D01*
X-824984Y845451D01*
X-825265Y845395D01*
X-824310Y-845114D02*
X-824816Y845058D01*
X-824113Y845199D02*
X-824113Y-845142D01*
X-823776Y845199D02*
X-824029Y-845395D01*
X-823776Y-845142D02*
X-824113Y845451D01*
X-823523Y845199D02*
X-823523Y-845339D01*
X-823523Y-845142D02*
X-823551Y-845171D01*
X-823523Y-845199D01*
X-823495Y-845171D01*
X-823523Y-845142D01*
X-823523Y-845199D01*
X-822905Y845255D02*
X-822933Y845227D01*
X-823017Y845199D01*
X-823074Y845199D01*
X-823158Y845227D01*
X-823214Y845283D01*
X-823242Y845339D01*
X-823270Y845451D01*
X-823270Y-845395D01*
X-823242Y-845283D01*
X-823214Y-845227D01*
X-823158Y-845171D01*
X-823074Y-845142D01*
X-823017Y-845142D01*
X-822933Y-845171D01*
X-822905Y-845199D01*
X-822399Y845199D02*
X-822399Y-845423D01*
X-822427Y-845367D01*
X-822484Y-845339D01*
X-822596Y-845339D01*
X-822652Y-845367D01*
X-822399Y845227D02*
X-822456Y845199D01*
X-822596Y845199D01*
X-822652Y845227D01*
X-822680Y845283D01*
X-822680Y845339D01*
X-822652Y845395D01*
X-822596Y845423D01*
X-822456Y845423D01*
X-822399Y845451D01*
X-821866Y845199D02*
X-821866Y-845142D01*
X-821866Y845227D02*
X-821922Y845199D01*
X-822034Y845199D01*
X-822090Y845227D01*
X-822118Y845255D01*
X-822146Y845311D01*
X-822146Y-845451D01*
X-822118Y-845395D01*
X-822090Y-845367D01*
X-822034Y-845339D01*
X-821922Y-845339D01*
X-821866Y-845367D01*
X-821163Y-845114D02*
X-821669Y845058D01*
X-820714Y-845339D02*
X-820714Y845199D01*
X-820966Y-845339D02*
X-820966Y845283D01*
X-820938Y845227D01*
X-820882Y845199D01*
X-820798Y845199D01*
X-820742Y845227D01*
X-820714Y845255D01*
X-820096Y845255D02*
X-820124Y845227D01*
X-820208Y845199D01*
X-820264Y845199D01*
X-820348Y845227D01*
X-820405Y845283D01*
X-820433Y845339D01*
X-820461Y845451D01*
X-820461Y-845395D01*
X-820433Y-845283D01*
X-820405Y-845227D01*
X-820348Y-845171D01*
X-820264Y-845142D01*
X-820208Y-845142D01*
X-820124Y-845171D01*
X-820096Y-845199D01*
X-819758Y845199D02*
X-819815Y845227D01*
X-819843Y845255D01*
X-819871Y845311D01*
X-819871Y-845451D01*
X-819843Y-845395D01*
X-819815Y-845367D01*
X-819758Y-845339D01*
X-819674Y-845339D01*
X-819618Y-845367D01*
X-819590Y-845395D01*
X-819562Y-845451D01*
X-819562Y845311D01*
X-819590Y845255D01*
X-819618Y845227D01*
X-819674Y845199D01*
X-819758Y845199D01*
X-819309Y-845339D02*
X-819309Y845199D01*
X-819309Y-845395D02*
X-819281Y-845367D01*
X-819225Y-845339D01*
X-819140Y-845339D01*
X-819084Y-845367D01*
X-819056Y-845423D01*
X-819056Y845199D01*
X-818859Y-845339D02*
X-818635Y-845339D01*
X-818775Y-845142D02*
X-818775Y845283D01*
X-818747Y845227D01*
X-818691Y845199D01*
X-818635Y845199D01*
X-818438Y845199D02*
X-818438Y-845339D01*
X-818438Y-845451D02*
X-818410Y-845395D01*
X-818382Y-845367D01*
X-818326Y-845339D01*
X-818269Y-845339D01*
X-817988Y845199D02*
X-818045Y845227D01*
X-818073Y845255D01*
X-818101Y845311D01*
X-818101Y-845451D01*
X-818073Y-845395D01*
X-818045Y-845367D01*
X-817988Y-845339D01*
X-817904Y-845339D01*
X-817848Y-845367D01*
X-817820Y-845395D01*
X-817792Y-845451D01*
X-817792Y845311D01*
X-817820Y845255D01*
X-817848Y845227D01*
X-817904Y845199D01*
X-817988Y845199D01*
X-817455Y845199D02*
X-817511Y845227D01*
X-817539Y845283D01*
X-817539Y-845142D01*
X-817370Y845142D02*
X-816921Y845142D01*
X-816836Y-845339D02*
X-816696Y845199D01*
X-816556Y-845339D01*
X-816387Y-845142D02*
X-816022Y-845142D01*
X-816218Y-845367D01*
X-816134Y-845367D01*
X-816078Y-845395D01*
X-816050Y-845423D01*
X-816022Y845451D01*
X-816022Y845311D01*
X-816050Y845255D01*
X-816078Y845227D01*
X-816134Y845199D01*
X-816303Y845199D01*
X-816359Y845227D01*
X-816387Y845255D01*
X-815347Y-845114D02*
X-815853Y845058D01*
X-814898Y-845339D02*
X-814898Y845199D01*
X-815151Y-845339D02*
X-815151Y845283D01*
X-815123Y845227D01*
X-815066Y845199D01*
X-814982Y845199D01*
X-814926Y845227D01*
X-814898Y845255D01*
X-814280Y845255D02*
X-814308Y845227D01*
X-814392Y845199D01*
X-814448Y845199D01*
X-814533Y845227D01*
X-814589Y845283D01*
X-814617Y845339D01*
X-814645Y845451D01*
X-814645Y-845395D01*
X-814617Y-845283D01*
X-814589Y-845227D01*
X-814533Y-845171D01*
X-814448Y-845142D01*
X-814392Y-845142D01*
X-814308Y-845171D01*
X-814280Y-845199D01*
X-813943Y845199D02*
X-813999Y845227D01*
X-814027Y845255D01*
X-814055Y845311D01*
X-814055Y-845451D01*
X-814027Y-845395D01*
X-813999Y-845367D01*
X-813943Y-845339D01*
X-813858Y-845339D01*
X-813802Y-845367D01*
X-813774Y-845395D01*
X-813746Y-845451D01*
X-813746Y845311D01*
X-813774Y845255D01*
X-813802Y845227D01*
X-813858Y845199D01*
X-813943Y845199D01*
X-813493Y-845339D02*
X-813493Y845199D01*
X-813493Y-845395D02*
X-813465Y-845367D01*
X-813409Y-845339D01*
X-813325Y-845339D01*
X-813268Y-845367D01*
X-813240Y-845423D01*
X-813240Y845199D01*
X-813044Y-845339D02*
X-812819Y-845339D01*
X-812959Y-845142D02*
X-812959Y845283D01*
X-812931Y845227D01*
X-812875Y845199D01*
X-812819Y845199D01*
X-812622Y845199D02*
X-812622Y-845339D01*
X-812622Y-845451D02*
X-812594Y-845395D01*
X-812566Y-845367D01*
X-812510Y-845339D01*
X-812454Y-845339D01*
X-812173Y845199D02*
X-812229Y845227D01*
X-812257Y845255D01*
X-812285Y845311D01*
X-812285Y-845451D01*
X-812257Y-845395D01*
X-812229Y-845367D01*
X-812173Y-845339D01*
X-812088Y-845339D01*
X-812032Y-845367D01*
X-812004Y-845395D01*
X-811976Y-845451D01*
X-811976Y845311D01*
X-812004Y845255D01*
X-812032Y845227D01*
X-812088Y845199D01*
X-812173Y845199D01*
X-811639Y845199D02*
X-811695Y845227D01*
X-811723Y845283D01*
X-811723Y-845142D01*
X-811555Y845142D02*
X-811105Y845142D01*
X-811021Y-845339D02*
X-810880Y845199D01*
X-810740Y-845339D01*
X-810571Y-845142D02*
X-810206Y-845142D01*
X-810403Y-845367D01*
X-810318Y-845367D01*
X-810262Y-845395D01*
X-810234Y-845423D01*
X-810206Y845451D01*
X-810206Y845311D01*
X-810234Y845255D01*
X-810262Y845227D01*
X-810318Y845199D01*
X-810487Y845199D01*
X-810543Y845227D01*
X-810571Y845255D01*
X-809953Y845255D02*
X-809925Y845227D01*
X-809953Y845199D01*
X-809981Y845227D01*
X-809953Y845255D01*
X-809953Y845199D01*
X-809672Y845199D02*
X-809672Y-845142D01*
X-809616Y845423D02*
X-809447Y845199D01*
X-809447Y-845339D02*
X-809672Y845367D01*
X-809195Y845199D02*
X-809195Y-845339D01*
X-809195Y-845142D02*
X-809223Y-845171D01*
X-809195Y-845199D01*
X-809166Y-845171D01*
X-809195Y-845142D01*
X-809195Y-845199D01*
X-808661Y845227D02*
X-808717Y845199D01*
X-808829Y845199D01*
X-808886Y845227D01*
X-808914Y845255D01*
X-808942Y845311D01*
X-808942Y-845451D01*
X-808914Y-845395D01*
X-808886Y-845367D01*
X-808829Y-845339D01*
X-808717Y-845339D01*
X-808661Y-845367D01*
X-808155Y845199D02*
X-808155Y-845423D01*
X-808183Y-845367D01*
X-808239Y-845339D01*
X-808352Y-845339D01*
X-808408Y-845367D01*
X-808155Y845227D02*
X-808211Y845199D01*
X-808352Y845199D01*
X-808408Y845227D01*
X-808436Y845283D01*
X-808436Y845339D01*
X-808408Y845395D01*
X-808352Y845423D01*
X-808211Y845423D01*
X-808155Y845451D01*
X-807621Y845199D02*
X-807621Y-845142D01*
X-807621Y845227D02*
X-807677Y845199D01*
X-807790Y845199D01*
X-807846Y845227D01*
X-807874Y845255D01*
X-807902Y845311D01*
X-807902Y-845451D01*
X-807874Y-845395D01*
X-807846Y-845367D01*
X-807790Y-845339D01*
X-807677Y-845339D01*
X-807621Y-845367D01*
X-807481Y845142D02*
X-807031Y845142D01*
X-806891Y-845339D02*
X-806891Y845002D01*
X-806891Y-845367D02*
X-806835Y-845339D01*
X-806722Y-845339D01*
X-806666Y-845367D01*
X-806638Y-845395D01*
X-806610Y-845451D01*
X-806610Y845311D01*
X-806638Y845255D01*
X-806666Y845227D01*
X-806722Y845199D01*
X-806835Y845199D01*
X-806891Y845227D01*
X-806104Y845227D02*
X-806160Y845199D01*
X-806273Y845199D01*
X-806329Y845227D01*
X-806357Y845255D01*
X-806385Y845311D01*
X-806385Y-845451D01*
X-806357Y-845395D01*
X-806329Y-845367D01*
X-806273Y-845339D01*
X-806160Y-845339D01*
X-806104Y-845367D01*
X-805851Y845199D02*
X-805851Y-845142D01*
X-805851Y-845367D02*
X-805795Y-845339D01*
X-805683Y-845339D01*
X-805626Y-845367D01*
X-805598Y-845395D01*
X-805570Y-845451D01*
X-805570Y845311D01*
X-805598Y845255D01*
X-805626Y845227D01*
X-805683Y845199D01*
X-805795Y845199D01*
X-805851Y845227D01*
X-845128Y-845423D02*
X-845325Y-845423D01*
X-845325Y845199D02*
X-845325Y-845142D01*
X-845044Y-845142D01*
X-844819Y845199D02*
X-844819Y-845339D01*
X-844819Y-845142D02*
X-844847Y-845171D01*
X-844819Y-845199D01*
X-844791Y-845171D01*
X-844819Y-845142D01*
X-844819Y-845199D01*
X-844454Y845199D02*
X-844510Y845227D01*
X-844538Y845283D01*
X-844538Y-845142D01*
X-844005Y845227D02*
X-844061Y845199D01*
X-844173Y845199D01*
X-844229Y845227D01*
X-844257Y845283D01*
X-844257Y-845423D01*
X-844229Y-845367D01*
X-844173Y-845339D01*
X-844061Y-845339D01*
X-844005Y-845367D01*
X-843976Y-845423D01*
X-843976Y845451D01*
X-844257Y845395D01*
X-843724Y845255D02*
X-843696Y845227D01*
X-843724Y845199D01*
X-843752Y845227D01*
X-843724Y845255D01*
X-843724Y845199D01*
X-843724Y-845367D02*
X-843696Y-845395D01*
X-843724Y-845423D01*
X-843752Y-845395D01*
X-843724Y-845367D01*
X-843724Y-845423D01*
G54D11*
X-845409Y-845142D02*
X-845072Y-845142D01*
X-845241Y845199D02*
X-845241Y-845142D01*
X-844876Y845199D02*
X-844876Y-845339D01*
X-844876Y-845142D02*
X-844904Y-845171D01*
X-844876Y-845199D01*
X-844847Y-845171D01*
X-844876Y-845142D01*
X-844876Y-845199D01*
X-844679Y-845339D02*
X-844454Y-845339D01*
X-844595Y-845142D02*
X-844595Y845283D01*
X-844566Y845227D01*
X-844510Y845199D01*
X-844454Y845199D01*
X-844173Y845199D02*
X-844229Y845227D01*
X-844257Y845283D01*
X-844257Y-845142D01*
X-843724Y845227D02*
X-843780Y845199D01*
X-843892Y845199D01*
X-843948Y845227D01*
X-843976Y845283D01*
X-843976Y-845423D01*
X-843948Y-845367D01*
X-843892Y-845339D01*
X-843780Y-845339D01*
X-843724Y-845367D01*
X-843696Y-845423D01*
X-843696Y845451D01*
X-843976Y845395D01*
X-843443Y845255D02*
X-843415Y845227D01*
X-843443Y845199D01*
X-843471Y845227D01*
X-843443Y845255D01*
X-843443Y845199D01*
X-843443Y-845367D02*
X-843415Y-845395D01*
X-843443Y-845423D01*
X-843471Y-845395D01*
X-843443Y-845367D01*
X-843443Y-845423D01*
X-842796Y-845142D02*
X-842459Y-845142D01*
X-842628Y845199D02*
X-842628Y-845142D01*
X-842263Y845199D02*
X-842263Y-845339D01*
X-842263Y-845142D02*
X-842291Y-845171D01*
X-842263Y-845199D01*
X-842235Y-845171D01*
X-842263Y-845142D01*
X-842263Y-845199D01*
X-841982Y845199D02*
X-841982Y-845142D01*
X-841645Y845199D01*
X-841645Y-845142D01*
X-841392Y845367D02*
X-841111Y845367D01*
X-841448Y845199D02*
X-841251Y-845142D01*
X-841055Y845199D01*
X-840408Y845423D02*
X-839959Y845423D01*
X-838891Y845255D02*
X-838919Y845227D01*
X-839004Y845199D01*
X-839060Y845199D01*
X-839144Y845227D01*
X-839200Y845283D01*
X-839228Y845339D01*
X-839256Y845451D01*
X-839256Y-845395D01*
X-839228Y-845283D01*
X-839200Y-845227D01*
X-839144Y-845171D01*
X-839060Y-845142D01*
X-839004Y-845142D01*
X-838919Y-845171D01*
X-838891Y-845199D01*
X-838554Y845199D02*
X-838610Y845227D01*
X-838638Y845255D01*
X-838666Y845311D01*
X-838666Y-845451D01*
X-838638Y-845395D01*
X-838610Y-845367D01*
X-838554Y-845339D01*
X-838470Y-845339D01*
X-838414Y-845367D01*
X-838386Y-845395D01*
X-838357Y-845451D01*
X-838357Y845311D01*
X-838386Y845255D01*
X-838414Y845227D01*
X-838470Y845199D01*
X-838554Y845199D01*
X-838105Y-845339D02*
X-838105Y845199D01*
X-838105Y-845395D02*
X-838076Y-845367D01*
X-838020Y-845339D01*
X-837936Y-845339D01*
X-837880Y-845367D01*
X-837852Y-845423D01*
X-837852Y845199D01*
X-837655Y-845339D02*
X-837430Y-845339D01*
X-837571Y-845142D02*
X-837571Y845283D01*
X-837543Y845227D01*
X-837486Y845199D01*
X-837430Y845199D01*
X-837234Y845199D02*
X-837234Y-845339D01*
X-837234Y-845451D02*
X-837206Y-845395D01*
X-837177Y-845367D01*
X-837121Y-845339D01*
X-837065Y-845339D01*
X-836784Y845199D02*
X-836840Y845227D01*
X-836868Y845255D01*
X-836896Y845311D01*
X-836896Y-845451D01*
X-836868Y-845395D01*
X-836840Y-845367D01*
X-836784Y-845339D01*
X-836700Y-845339D01*
X-836644Y-845367D01*
X-836616Y-845395D01*
X-836587Y-845451D01*
X-836587Y845311D01*
X-836616Y845255D01*
X-836644Y845227D01*
X-836700Y845199D01*
X-836784Y845199D01*
X-836250Y845199D02*
X-836306Y845227D01*
X-836335Y845283D01*
X-836335Y-845142D01*
X-835941Y845199D02*
X-835997Y845227D01*
X-836026Y845283D01*
X-836026Y-845142D01*
X-835492Y845227D02*
X-835548Y845199D01*
X-835660Y845199D01*
X-835716Y845227D01*
X-835745Y845283D01*
X-835745Y-845423D01*
X-835716Y-845367D01*
X-835660Y-845339D01*
X-835548Y-845339D01*
X-835492Y-845367D01*
X-835464Y-845423D01*
X-835464Y845451D01*
X-835745Y845395D01*
X-835211Y845199D02*
X-835211Y-845339D01*
X-835211Y-845451D02*
X-835183Y-845395D01*
X-835155Y-845367D01*
X-835098Y-845339D01*
X-835042Y-845339D01*
X-834480Y-845339D02*
X-834256Y-845339D01*
X-834396Y845199D02*
X-834396Y-845227D01*
X-834368Y-845171D01*
X-834312Y-845142D01*
X-834256Y-845142D01*
X-833975Y845199D02*
X-834031Y845227D01*
X-834059Y845255D01*
X-834087Y845311D01*
X-834087Y-845451D01*
X-834059Y-845395D01*
X-834031Y-845367D01*
X-833975Y-845339D01*
X-833890Y-845339D01*
X-833834Y-845367D01*
X-833806Y-845395D01*
X-833778Y-845451D01*
X-833778Y845311D01*
X-833806Y845255D01*
X-833834Y845227D01*
X-833890Y845199D01*
X-833975Y845199D01*
X-833525Y845199D02*
X-833525Y-845339D01*
X-833525Y-845451D02*
X-833497Y-845395D01*
X-833469Y-845367D01*
X-833413Y-845339D01*
X-833356Y-845339D01*
X-832795Y-845142D02*
X-832457Y-845142D01*
X-832626Y845199D02*
X-832626Y-845142D01*
X-832261Y845199D02*
X-832261Y-845339D01*
X-832261Y-845142D02*
X-832289Y-845171D01*
X-832261Y-845199D01*
X-832233Y-845171D01*
X-832261Y-845142D01*
X-832261Y-845199D01*
X-831980Y845199D02*
X-831980Y-845142D01*
X-831783Y845367D01*
X-831586Y-845142D01*
X-831586Y845199D01*
G54D10*
X-845325Y845199D02*
X-845325Y-845142D01*
X-844791Y845199D02*
X-844791Y-845142D01*
X-844791Y845227D02*
X-844847Y845199D01*
X-844960Y845199D01*
X-845016Y845227D01*
X-845044Y845255D01*
X-845072Y845311D01*
X-845072Y-845451D01*
X-845044Y-845395D01*
X-845016Y-845367D01*
X-844960Y-845339D01*
X-844847Y-845339D01*
X-844791Y-845367D01*
X-844510Y845255D02*
X-844482Y845227D01*
X-844510Y845199D01*
X-844538Y845227D01*
X-844510Y845255D01*
X-844510Y845199D01*
X-844510Y-845367D02*
X-844482Y-845395D01*
X-844510Y-845423D01*
X-844538Y-845395D01*
X-844510Y-845367D01*
X-844510Y-845423D01*
X-843471Y845199D02*
X-843808Y845199D01*
X-843639Y845199D02*
X-843639Y-845142D01*
X-843696Y-845227D01*
X-843752Y-845283D01*
X-843808Y-845311D01*
X-842796Y-845114D02*
X-843302Y845058D01*
X-842291Y845199D02*
X-842628Y845199D01*
X-842459Y845199D02*
X-842459Y-845142D01*
X-842516Y-845227D01*
X-842572Y-845283D01*
X-842628Y-845311D01*
X-845353Y845227D02*
X-845269Y845199D01*
X-845128Y845199D01*
X-845072Y845227D01*
X-845044Y845255D01*
X-845016Y845311D01*
X-845016Y845367D01*
X-845044Y845423D01*
X-845072Y845451D01*
X-845128Y-845451D01*
X-845241Y-845423D01*
X-845297Y-845395D01*
X-845325Y-845367D01*
X-845353Y-845311D01*
X-845353Y-845255D01*
X-845325Y-845199D01*
X-845297Y-845171D01*
X-845241Y-845142D01*
X-845100Y-845142D01*
X-845016Y-845171D01*
X-844763Y845199D02*
X-844763Y-845339D01*
X-844763Y-845142D02*
X-844791Y-845171D01*
X-844763Y-845199D01*
X-844735Y-845171D01*
X-844763Y-845142D01*
X-844763Y-845199D01*
X-844538Y-845339D02*
X-844229Y-845339D01*
X-844538Y845199D01*
X-844229Y845199D01*
X-843780Y845227D02*
X-843836Y845199D01*
X-843948Y845199D01*
X-844005Y845227D01*
X-844033Y845283D01*
X-844033Y-845423D01*
X-844005Y-845367D01*
X-843948Y-845339D01*
X-843836Y-845339D01*
X-843780Y-845367D01*
X-843752Y-845423D01*
X-843752Y845451D01*
X-844033Y845395D01*
X-843499Y845255D02*
X-843471Y845227D01*
X-843499Y845199D01*
X-843527Y845227D01*
X-843499Y845255D01*
X-843499Y845199D01*
X-843499Y-845367D02*
X-843471Y-845395D01*
X-843499Y-845423D01*
X-843527Y-845395D01*
X-843499Y-845367D01*
X-843499Y-845423D01*
X-842796Y845367D02*
X-842516Y845367D01*
X-842853Y845199D02*
X-842656Y-845142D01*
X-842459Y845199D01*
X-842010Y-845339D02*
X-842010Y845199D01*
X-842150Y-845114D02*
X-842291Y845395D01*
X-841926Y845395D01*
G54D11*
X-844988Y845199D02*
X-845185Y-845451D01*
X-845325Y845199D02*
X-845325Y-845142D01*
X-845100Y-845142D01*
X-845044Y-845171D01*
X-845016Y-845199D01*
X-844988Y-845255D01*
X-844988Y-845339D01*
X-845016Y-845395D01*
X-845044Y-845423D01*
X-845100Y-845451D01*
X-845325Y-845451D01*
X-844510Y845227D02*
X-844566Y845199D01*
X-844679Y845199D01*
X-844735Y845227D01*
X-844763Y845283D01*
X-844763Y-845423D01*
X-844735Y-845367D01*
X-844679Y-845339D01*
X-844566Y-845339D01*
X-844510Y-845367D01*
X-844482Y-845423D01*
X-844482Y845451D01*
X-844763Y845395D01*
X-844286Y-845339D02*
X-844145Y845199D01*
X-844005Y-845339D01*
X-843780Y845255D02*
X-843752Y845227D01*
X-843780Y845199D01*
X-843808Y845227D01*
X-843780Y845255D01*
X-843780Y845199D01*
X-843780Y-845367D02*
X-843752Y-845395D01*
X-843780Y-845423D01*
X-843808Y-845395D01*
X-843780Y-845367D01*
X-843780Y-845423D01*
G54D10*
X-845325Y845199D02*
X-845325Y-845142D01*
X-844988Y845199D02*
X-845241Y-845395D01*
X-844988Y-845142D02*
X-845325Y845451D01*
X-844735Y845199D02*
X-844735Y-845339D01*
X-844735Y-845142D02*
X-844763Y-845171D01*
X-844735Y-845199D01*
X-844707Y-845171D01*
X-844735Y-845142D01*
X-844735Y-845199D01*
X-844117Y845255D02*
X-844145Y845227D01*
X-844229Y845199D01*
X-844286Y845199D01*
X-844370Y845227D01*
X-844426Y845283D01*
X-844454Y845339D01*
X-844482Y845451D01*
X-844482Y-845395D01*
X-844454Y-845283D01*
X-844426Y-845227D01*
X-844370Y-845171D01*
X-844286Y-845142D01*
X-844229Y-845142D01*
X-844145Y-845171D01*
X-844117Y-845199D01*
X-843611Y845199D02*
X-843611Y-845423D01*
X-843639Y-845367D01*
X-843696Y-845339D01*
X-843808Y-845339D01*
X-843864Y-845367D01*
X-843611Y845227D02*
X-843667Y845199D01*
X-843808Y845199D01*
X-843864Y845227D01*
X-843892Y845283D01*
X-843892Y845339D01*
X-843864Y845395D01*
X-843808Y845423D01*
X-843667Y845423D01*
X-843611Y845451D01*
X-843077Y845199D02*
X-843077Y-845142D01*
X-843077Y845227D02*
X-843134Y845199D01*
X-843246Y845199D01*
X-843302Y845227D01*
X-843330Y845255D01*
X-843358Y845311D01*
X-843358Y-845451D01*
X-843330Y-845395D01*
X-843302Y-845367D01*
X-843246Y-845339D01*
X-843134Y-845339D01*
X-843077Y-845367D01*
X-842347Y-845423D02*
X-842150Y-845423D01*
X-842066Y845199D02*
X-842347Y845199D01*
X-842347Y-845142D01*
X-842066Y-845142D01*
X-841813Y845255D02*
X-841785Y845227D01*
X-841813Y845199D01*
X-841841Y845227D01*
X-841813Y845255D01*
X-841813Y845199D01*
X-841532Y845199D02*
X-841532Y-845142D01*
X-841392Y-845142D01*
X-841307Y-845171D01*
X-841251Y-845227D01*
X-841223Y-845283D01*
X-841195Y-845395D01*
X-841195Y845451D01*
X-841223Y845339D01*
X-841251Y845283D01*
X-841307Y845227D01*
X-841392Y845199D01*
X-841532Y845199D01*
X-840942Y845255D02*
X-840914Y845227D01*
X-840942Y845199D01*
X-840970Y845227D01*
X-840942Y845255D01*
X-840942Y845199D01*
X-840689Y845367D02*
X-840408Y845367D01*
X-840746Y845199D02*
X-840549Y-845142D01*
X-840352Y845199D01*
X-840156Y845255D02*
X-840127Y845227D01*
X-840156Y845199D01*
X-840184Y845227D01*
X-840156Y845255D01*
X-840156Y845199D01*
X-838976Y-845339D02*
X-838976Y845002D01*
X-838976Y-845367D02*
X-838919Y-845339D01*
X-838807Y-845339D01*
X-838751Y-845367D01*
X-838723Y-845395D01*
X-838695Y-845451D01*
X-838695Y845311D01*
X-838723Y845255D01*
X-838751Y845227D01*
X-838807Y845199D01*
X-838919Y845199D01*
X-838976Y845227D01*
X-838189Y845227D02*
X-838245Y845199D01*
X-838357Y845199D01*
X-838414Y845227D01*
X-838442Y845255D01*
X-838470Y845311D01*
X-838470Y-845451D01*
X-838442Y-845395D01*
X-838414Y-845367D01*
X-838357Y-845339D01*
X-838245Y-845339D01*
X-838189Y-845367D01*
X-837936Y845199D02*
X-837936Y-845142D01*
X-837936Y-845367D02*
X-837880Y-845339D01*
X-837767Y-845339D01*
X-837711Y-845367D01*
X-837683Y-845395D01*
X-837655Y-845451D01*
X-837655Y845311D01*
X-837683Y845255D01*
X-837711Y845227D01*
X-837767Y845199D01*
X-837880Y845199D01*
X-837936Y845227D01*
X-837402Y-845339D02*
X-837402Y845199D01*
X-837402Y-845395D02*
X-837374Y-845367D01*
X-837318Y-845339D01*
X-837234Y-845339D01*
X-837177Y-845367D01*
X-837149Y-845423D01*
X-837149Y845199D01*
X-836644Y845227D02*
X-836700Y845199D01*
X-836812Y845199D01*
X-836868Y845227D01*
X-836896Y845283D01*
X-836896Y-845423D01*
X-836868Y-845367D01*
X-836812Y-845339D01*
X-836700Y-845339D01*
X-836644Y-845367D01*
X-836616Y-845423D01*
X-836616Y845451D01*
X-836896Y845395D01*
X-836419Y-845339D02*
X-836306Y845199D01*
X-836194Y-845451D01*
X-836082Y845199D01*
X-835969Y-845339D01*
X-835126Y844974D02*
X-835155Y845002D01*
X-835211Y845086D01*
X-835239Y845142D01*
X-835267Y845227D01*
X-835295Y845367D01*
X-835295Y-845451D01*
X-835267Y-845311D01*
X-835239Y-845227D01*
X-835211Y-845171D01*
X-835155Y-845086D01*
X-835126Y-845058D01*
X-834930Y-845199D02*
X-834902Y-845171D01*
X-834846Y-845142D01*
X-834705Y-845142D01*
X-834649Y-845171D01*
X-834621Y-845199D01*
X-834593Y-845255D01*
X-834593Y-845311D01*
X-834621Y-845395D01*
X-834958Y845199D01*
X-834593Y845199D01*
X-834227Y-845142D02*
X-834171Y-845142D01*
X-834115Y-845171D01*
X-834087Y-845199D01*
X-834059Y-845255D01*
X-834031Y-845367D01*
X-834031Y845423D01*
X-834059Y845311D01*
X-834087Y845255D01*
X-834115Y845227D01*
X-834171Y845199D01*
X-834227Y845199D01*
X-834284Y845227D01*
X-834312Y845255D01*
X-834340Y845311D01*
X-834368Y845423D01*
X-834368Y-845367D01*
X-834340Y-845255D01*
X-834312Y-845199D01*
X-834284Y-845171D01*
X-834227Y-845142D01*
X-833469Y845199D02*
X-833806Y845199D01*
X-833637Y845199D02*
X-833637Y-845142D01*
X-833694Y-845227D01*
X-833750Y-845283D01*
X-833806Y-845311D01*
X-833272Y-845142D02*
X-832907Y-845142D01*
X-833104Y-845367D01*
X-833019Y-845367D01*
X-832963Y-845395D01*
X-832935Y-845423D01*
X-832907Y845451D01*
X-832907Y845311D01*
X-832935Y845255D01*
X-832963Y845227D01*
X-833019Y845199D01*
X-833188Y845199D01*
X-833244Y845227D01*
X-833272Y845255D01*
X-832654Y845423D02*
X-832205Y845423D01*
X-831924Y845199D02*
X-831924Y-845339D01*
X-831924Y-845395D02*
X-831896Y-845367D01*
X-831839Y-845339D01*
X-831755Y-845339D01*
X-831699Y-845367D01*
X-831671Y-845423D01*
X-831671Y845199D01*
X-831671Y-845423D02*
X-831643Y-845367D01*
X-831586Y-845339D01*
X-831502Y-845339D01*
X-831446Y-845367D01*
X-831418Y-845423D01*
X-831418Y845199D01*
X-830884Y845199D02*
X-830884Y-845423D01*
X-830912Y-845367D01*
X-830968Y-845339D01*
X-831081Y-845339D01*
X-831137Y-845367D01*
X-830884Y845227D02*
X-830940Y845199D01*
X-831081Y845199D01*
X-831137Y845227D01*
X-831165Y845283D01*
X-831165Y845339D01*
X-831137Y845395D01*
X-831081Y845423D01*
X-830940Y845423D01*
X-830884Y845451D01*
X-830603Y845199D02*
X-830603Y-845339D01*
X-830603Y-845451D02*
X-830575Y-845395D01*
X-830547Y-845367D01*
X-830491Y-845339D01*
X-830435Y-845339D01*
X-830238Y845423D02*
X-829788Y845423D01*
X-829198Y845199D02*
X-829536Y845199D01*
X-829367Y845199D02*
X-829367Y-845142D01*
X-829423Y-845227D01*
X-829479Y-845283D01*
X-829536Y-845311D01*
X-829002Y-845142D02*
X-828636Y-845142D01*
X-828833Y-845367D01*
X-828749Y-845367D01*
X-828693Y-845395D01*
X-828665Y-845423D01*
X-828636Y845451D01*
X-828636Y845311D01*
X-828665Y845255D01*
X-828693Y845227D01*
X-828749Y845199D01*
X-828917Y845199D01*
X-828974Y845227D01*
X-829002Y845255D01*
X-828440Y844974D02*
X-828412Y845002D01*
X-828356Y845086D01*
X-828327Y845142D01*
X-828299Y845227D01*
X-828271Y845367D01*
X-828271Y-845451D01*
X-828299Y-845311D01*
X-828327Y-845227D01*
X-828356Y-845171D01*
X-828412Y-845086D01*
X-828440Y-845058D01*
X-827990Y845423D02*
X-827541Y845423D01*
X-827344Y-845339D02*
X-827119Y-845339D01*
X-827260Y-845142D02*
X-827260Y845283D01*
X-827232Y845227D01*
X-827176Y845199D01*
X-827119Y845199D01*
X-826698Y845227D02*
X-826754Y845199D01*
X-826866Y845199D01*
X-826923Y845227D01*
X-826951Y845283D01*
X-826951Y-845423D01*
X-826923Y-845367D01*
X-826866Y-845339D01*
X-826754Y-845339D01*
X-826698Y-845367D01*
X-826670Y-845423D01*
X-826670Y845451D01*
X-826951Y845395D01*
X-826445Y845227D02*
X-826389Y845199D01*
X-826276Y845199D01*
X-826220Y845227D01*
X-826192Y845283D01*
X-826192Y845311D01*
X-826220Y845367D01*
X-826276Y845395D01*
X-826361Y845395D01*
X-826417Y845423D01*
X-826445Y-845451D01*
X-826445Y-845423D01*
X-826417Y-845367D01*
X-826361Y-845339D01*
X-826276Y-845339D01*
X-826220Y-845367D01*
X-826024Y-845339D02*
X-825799Y-845339D01*
X-825939Y-845142D02*
X-825939Y845283D01*
X-825911Y845227D01*
X-825855Y845199D01*
X-825799Y845199D01*
X-825602Y845199D02*
X-825602Y-845339D01*
X-825602Y-845142D02*
X-825630Y-845171D01*
X-825602Y-845199D01*
X-825574Y-845171D01*
X-825602Y-845142D01*
X-825602Y-845199D01*
X-825321Y-845339D02*
X-825321Y845199D01*
X-825321Y-845395D02*
X-825293Y-845367D01*
X-825237Y-845339D01*
X-825153Y-845339D01*
X-825096Y-845367D01*
X-825068Y-845423D01*
X-825068Y845199D01*
X-824535Y-845339D02*
X-824535Y845114D01*
X-824563Y845058D01*
X-824591Y845030D01*
X-824647Y845002D01*
X-824731Y845002D01*
X-824787Y845030D01*
X-824535Y845227D02*
X-824591Y845199D01*
X-824703Y845199D01*
X-824759Y845227D01*
X-824787Y845255D01*
X-824816Y845311D01*
X-824816Y-845451D01*
X-824787Y-845395D01*
X-824759Y-845367D01*
X-824703Y-845339D01*
X-824591Y-845339D01*
X-824535Y-845367D01*
X-845325Y845199D02*
X-845325Y-845142D01*
X-845185Y-845142D01*
X-845100Y-845171D01*
X-845044Y-845227D01*
X-845016Y-845283D01*
X-844988Y-845395D01*
X-844988Y845451D01*
X-845016Y845339D01*
X-845044Y845283D01*
X-845100Y845227D01*
X-845185Y845199D01*
X-845325Y845199D01*
X-844482Y845199D02*
X-844482Y-845423D01*
X-844510Y-845367D01*
X-844566Y-845339D01*
X-844679Y-845339D01*
X-844735Y-845367D01*
X-844482Y845227D02*
X-844538Y845199D01*
X-844679Y845199D01*
X-844735Y845227D01*
X-844763Y845283D01*
X-844763Y845339D01*
X-844735Y845395D01*
X-844679Y845423D01*
X-844538Y845423D01*
X-844482Y845451D01*
X-844286Y-845339D02*
X-844061Y-845339D01*
X-844201Y-845142D02*
X-844201Y845283D01*
X-844173Y845227D01*
X-844117Y845199D01*
X-844061Y845199D01*
X-843639Y845227D02*
X-843696Y845199D01*
X-843808Y845199D01*
X-843864Y845227D01*
X-843892Y845283D01*
X-843892Y-845423D01*
X-843864Y-845367D01*
X-843808Y-845339D01*
X-843696Y-845339D01*
X-843639Y-845367D01*
X-843611Y-845423D01*
X-843611Y845451D01*
X-843892Y845395D01*
X-843358Y845255D02*
X-843330Y845227D01*
X-843358Y845199D01*
X-843386Y845227D01*
X-843358Y845255D01*
X-843358Y845199D01*
X-843358Y-845367D02*
X-843330Y-845395D01*
X-843358Y-845423D01*
X-843386Y-845395D01*
X-843358Y-845367D01*
X-843358Y-845423D01*
X-845466Y845466D02*
X-845466Y845466D01*
X-845466Y845466D02*
X-845466Y845466D01*
X-845466Y845466D02*
X-845466Y845466D01*
G54D12*
X82892Y-48133D02*
X81042Y-49825D01*
X82892Y-9274D02*
X82892Y-48133D01*
X81042Y-52385D02*
X81042Y-49825D01*
X81042Y-54944D02*
X81042Y-52385D01*
X82892Y-56597D02*
X81042Y-54944D01*
X82892Y-65967D02*
X82892Y-56597D01*
X9664Y-67542D02*
X81317Y-67542D01*
X8089Y-9274D02*
X8089Y-65967D01*
X81317Y-7700D02*
X9664Y-7700D01*
X82892Y-9274D02*
G75*
G03X81317Y-7700I-1574J0D01*
G74*
G01*
X81317Y-67542D02*
G75*
G03X82892Y-65967I0J1574D01*
G74*
G01*
X8089Y-65967D02*
G75*
G03X9664Y-67542I1574J0D01*
G74*
G01*
X9664Y-7700D02*
G75*
G03X8089Y-9274I0J-1574D01*
G74*
G01*
G54D13*
X64981Y-57650D03*
X65918Y-57650D03*
G54D14*
X59425Y-60450D03*
X59425Y-59350D03*
G54D15*
X61650Y-57100D03*
X61650Y-58200D03*
G54D16*
X63298Y-59109D03*
X63495Y-59109D03*
X63101Y-59109D03*
X62904Y-59109D03*
G54D17*
X62609Y-59404D03*
X62609Y-59601D03*
X62609Y-59798D03*
X62609Y-59995D03*
G54D16*
X62904Y-60290D03*
X63101Y-60290D03*
X63298Y-60290D03*
X63495Y-60290D03*
G54D17*
X63790Y-59995D03*
X63790Y-59798D03*
X63790Y-59601D03*
X63790Y-59404D03*
G54D18*
X63200Y-59700D03*
G54D19*
X63396Y-59867D03*
X63396Y-59532D03*
X63003Y-59532D03*
X63003Y-59867D03*
G54D20*
X61725Y-59506D03*
X61725Y-60293D03*
X62900Y-58043D03*
X62900Y-57256D03*
X60575Y-59506D03*
X60575Y-60293D03*
G54D21*
X62550Y-61675D03*
X62575Y-63475D03*
X60075Y-61675D03*
X60100Y-63475D03*
G54D22*
X63975Y-58025D03*
X63975Y-57275D03*
G54D23*
X59450Y-57250D03*
X59450Y-58250D03*
G54D24*
X50093Y-57542D03*
X51093Y-57542D03*
X52093Y-57542D03*
G54D25*
X53093Y-57542D03*
G54D24*
X50093Y-53605D03*
X51093Y-53605D03*
X52093Y-53605D03*
G54D25*
X53093Y-53605D03*
G54D26*
X9664Y-65967D03*
X45490Y-65967D03*
X81317Y-65967D03*
X81317Y-37621D03*
X9664Y-21085D03*
X81317Y-21085D03*
X81317Y-9274D03*
X45490Y-37621D03*
X9664Y-37621D03*
G54D27*
X78069Y-60534D03*
G54D28*
X75669Y-60534D03*
G54D29*
X76819Y-58534D03*
G54D30*
X72420Y-50473D03*
X72420Y-49973D03*
X72420Y-49473D03*
X72420Y-48973D03*
X72420Y-48473D03*
X72420Y-47973D03*
X72420Y-47473D03*
X72420Y-46973D03*
X68758Y-46973D03*
X68758Y-47473D03*
X68758Y-47973D03*
X68758Y-48473D03*
X68758Y-48973D03*
X68758Y-49473D03*
X68758Y-49973D03*
X68758Y-50473D03*
G54D31*
X51465Y-49825D03*
X51721Y-49825D03*
X51977Y-49825D03*
X52233Y-49825D03*
X50697Y-47621D03*
X50697Y-49825D03*
X50953Y-49825D03*
X51209Y-49825D03*
X52489Y-47621D03*
X52233Y-47621D03*
X51977Y-47621D03*
X51721Y-47621D03*
X51465Y-47621D03*
X51209Y-47621D03*
X52489Y-49825D03*
X50953Y-47621D03*
X50441Y-49825D03*
X52745Y-49825D03*
X52745Y-47621D03*
X50441Y-47621D03*
G54D32*
X63161Y-39652D03*
X63161Y-40652D03*
X63161Y-41652D03*
X68961Y-41652D03*
X68961Y-40652D03*
X68961Y-39652D03*
G54D33*
X52600Y-40955D03*
X52600Y-41455D03*
X52600Y-41955D03*
X54720Y-40955D03*
X52600Y-39455D03*
X52600Y-39955D03*
X52600Y-40455D03*
X54720Y-39955D03*
X54720Y-39455D03*
X54720Y-38955D03*
X54720Y-41455D03*
X52600Y-38955D03*
X54720Y-41955D03*
X54720Y-40455D03*
G54D34*
X79546Y-40869D03*
X79546Y-41869D03*
G54D23*
X79546Y-42869D03*
X79546Y-43869D03*
X79546Y-44869D03*
X79546Y-45869D03*
G54D24*
X80333Y-26134D03*
X80333Y-24384D03*
G54D35*
X79333Y-26634D03*
X79333Y-23884D03*
G54D24*
X77783Y-24384D03*
X77783Y-26134D03*
X78533Y-24759D03*
X78533Y-25759D03*
G54D36*
X78069Y-52385D03*
G54D24*
X80333Y-30071D03*
X80333Y-28321D03*
G54D35*
X79333Y-30571D03*
X79333Y-27821D03*
G54D24*
X77783Y-28321D03*
X77783Y-30071D03*
X78533Y-28696D03*
X78533Y-29696D03*
X80333Y-34008D03*
X80333Y-32258D03*
G54D35*
X79333Y-34508D03*
X79333Y-31758D03*
G54D24*
X77783Y-32258D03*
X77783Y-34008D03*
X78533Y-32633D03*
X78533Y-33633D03*
X47160Y-43064D03*
X44160Y-43064D03*
X45160Y-43064D03*
X48160Y-43064D03*
X46160Y-43064D03*
G54D37*
X74450Y-23800D03*
X76250Y-23775D03*
G54D38*
X74329Y-41637D03*
X73539Y-41637D03*
X72749Y-41637D03*
X71959Y-41637D03*
G54D39*
X75333Y-39471D03*
X70963Y-39471D03*
G54D40*
X49970Y-63150D03*
X49970Y-63950D03*
G54D41*
X74015Y-61791D03*
X74015Y-63405D03*
X22459Y-21932D03*
X22459Y-23546D03*
G54D42*
X46967Y-47700D03*
X45353Y-47700D03*
G54D23*
X31790Y-36490D03*
X32790Y-36490D03*
X33790Y-36490D03*
G54D43*
X59900Y-49825D03*
X59900Y-49510D03*
X59900Y-49195D03*
X59900Y-48880D03*
X59900Y-48566D03*
X59900Y-48251D03*
X59900Y-47936D03*
X59900Y-47621D03*
X63168Y-47621D03*
X63168Y-49825D03*
X63168Y-49510D03*
X63168Y-49195D03*
X63168Y-48880D03*
X63168Y-48566D03*
X63168Y-48251D03*
X63168Y-47936D03*
G54D44*
X60432Y-47089D03*
X60747Y-47089D03*
X61062Y-47089D03*
X61377Y-47089D03*
X61691Y-47089D03*
X62006Y-47089D03*
X62321Y-47089D03*
X62636Y-47089D03*
X60432Y-50357D03*
X60747Y-50357D03*
X61062Y-50357D03*
X61377Y-50357D03*
X61691Y-50357D03*
X62006Y-50357D03*
X62321Y-50357D03*
X62636Y-50357D03*
G54D45*
X58896Y-49707D03*
X58896Y-50416D03*
X56396Y-50416D03*
X56396Y-49707D03*
G54D40*
X51970Y-63150D03*
X51970Y-63950D03*
X50970Y-63150D03*
X50970Y-63950D03*
X52970Y-63150D03*
X52970Y-63950D03*
G54D46*
X20097Y-57138D03*
X19782Y-57138D03*
X18522Y-57138D03*
X18837Y-57138D03*
X19152Y-57138D03*
X19467Y-57138D03*
X19467Y-56272D03*
X19152Y-56272D03*
X18837Y-56272D03*
X18522Y-56272D03*
X19782Y-56272D03*
X20097Y-56272D03*
G54D47*
X20136Y-56705D03*
X18483Y-56705D03*
G54D21*
X22675Y-56711D03*
X22700Y-58511D03*
G54D42*
X14309Y-23477D03*
X12695Y-23477D03*
G54D23*
X23670Y-36490D03*
X22670Y-36490D03*
X21670Y-36490D03*
G54D34*
X57187Y-40955D03*
G54D23*
X57187Y-39955D03*
X58187Y-40955D03*
X58187Y-39955D03*
X59187Y-40955D03*
X59187Y-39955D03*
G54D48*
X70884Y-20298D03*
X62616Y-10062D03*
G54D49*
X44431Y-27477D03*
X43431Y-27477D03*
X42431Y-27477D03*
X41431Y-27477D03*
X41431Y-33277D03*
X42431Y-33277D03*
X43431Y-33277D03*
X44431Y-33277D03*
G54D50*
X58069Y-49786D03*
X57203Y-50416D03*
X58069Y-50416D03*
X57203Y-49786D03*
G54D10*
G36*
X19325Y-41600D02*
X19325Y-41500D01*
X19925Y-41300D01*
X19925Y-41800D01*
X19325Y-41600D01*
X19325Y-41600D01*
G37*
G36*
X20675Y-41800D02*
X20675Y-41300D01*
X21275Y-41500D01*
X21275Y-41600D01*
X20675Y-41800D01*
X20675Y-41800D01*
G37*
G54D51*
X20300Y-41550D03*
G54D10*
G36*
X24500Y-52975D02*
X24500Y-52875D01*
X25100Y-52675D01*
X25100Y-53175D01*
X24500Y-52975D01*
X24500Y-52975D01*
G37*
G36*
X25850Y-53175D02*
X25850Y-52675D01*
X26450Y-52875D01*
X26450Y-52975D01*
X25850Y-53175D01*
X25850Y-53175D01*
G37*
G54D51*
X25475Y-52925D03*
G54D10*
G36*
X19408Y-54903D02*
X19408Y-55003D01*
X18808Y-55203D01*
X18808Y-54703D01*
X19408Y-54903D01*
X19408Y-54903D01*
G37*
G36*
X18058Y-54703D02*
X18058Y-55203D01*
X17458Y-55003D01*
X17458Y-54903D01*
X18058Y-54703D01*
X18058Y-54703D01*
G37*
G54D51*
X18433Y-54953D03*
G54D10*
G36*
X20106Y-55003D02*
X20106Y-54903D01*
X20706Y-54703D01*
X20706Y-55203D01*
X20106Y-55003D01*
X20106Y-55003D01*
G37*
G36*
X21456Y-55203D02*
X21456Y-54703D01*
X22056Y-54903D01*
X22056Y-55003D01*
X21456Y-55203D01*
X21456Y-55203D01*
G37*
G54D51*
X21081Y-54953D03*
G54D10*
G36*
X18807Y-53566D02*
X18807Y-53466D01*
X19407Y-53266D01*
X19407Y-53766D01*
X18807Y-53566D01*
X18807Y-53566D01*
G37*
G36*
X20157Y-53766D02*
X20157Y-53266D01*
X20757Y-53466D01*
X20757Y-53566D01*
X20157Y-53766D01*
X20157Y-53766D01*
G37*
G54D51*
X19782Y-53516D03*
G54D52*
X41275Y-49600D03*
G54D53*
X43775Y-49600D03*
X43775Y-48700D03*
X43775Y-50500D03*
G54D52*
X16878Y-33920D03*
G54D53*
X19378Y-33920D03*
X19378Y-33020D03*
X19378Y-34820D03*
G54D52*
X73492Y-29422D03*
G54D53*
X75992Y-29422D03*
X75992Y-28522D03*
X75992Y-30322D03*
G54D52*
X27410Y-26961D03*
G54D53*
X29910Y-26961D03*
X29910Y-26061D03*
X29910Y-27861D03*
G54D54*
X61061Y-52138D03*
X74073Y-47906D03*
X74073Y-46912D03*
X74073Y-48881D03*
X64447Y-47739D03*
X64053Y-47247D03*
X64053Y-49196D03*
X64073Y-48251D03*
X61376Y-52670D03*
G54D23*
X73700Y-65700D03*
X74700Y-65700D03*
G54D26*
X9664Y-9274D03*
G54D10*
G36*
X65204Y-47906D02*
X65304Y-47906D01*
X65504Y-48506D01*
X65004Y-48506D01*
X65204Y-47906D01*
X65204Y-47906D01*
G37*
G36*
X65004Y-49256D02*
X65504Y-49256D01*
X65304Y-49856D01*
X65204Y-49856D01*
X65004Y-49256D01*
X65004Y-49256D01*
G37*
G54D51*
X65254Y-48881D03*
G54D55*
X32320Y-21339D03*
X32320Y-24139D03*
X25920Y-24319D03*
X25920Y-21159D03*
G54D56*
X24920Y-21951D03*
X24920Y-23526D03*
X23920Y-22239D03*
X23920Y-23239D03*
G54D55*
X14902Y-35021D03*
X12102Y-35021D03*
X11922Y-28621D03*
X15082Y-28621D03*
G54D56*
X14290Y-27621D03*
X12715Y-27621D03*
X14002Y-26621D03*
X13002Y-26621D03*
G54D57*
X29354Y-49050D03*
X28645Y-49050D03*
G54D23*
X68500Y-57250D03*
X68500Y-58250D03*
X22900Y-51250D03*
X21900Y-51250D03*
X22900Y-50250D03*
G54D34*
X21900Y-50250D03*
X18300Y-42700D03*
G54D23*
X18300Y-43700D03*
X23300Y-42700D03*
X19300Y-43700D03*
X24300Y-42700D03*
X20300Y-43700D03*
X25300Y-42700D03*
X21300Y-43700D03*
X26300Y-42700D03*
X22300Y-43700D03*
X27300Y-42700D03*
X23300Y-43700D03*
X28300Y-42700D03*
X24300Y-43700D03*
X29300Y-42700D03*
X25300Y-43700D03*
X30300Y-42700D03*
X26300Y-43700D03*
X31300Y-42700D03*
X27300Y-43700D03*
X32300Y-42700D03*
X28300Y-43700D03*
X33300Y-42700D03*
X29300Y-43700D03*
X30300Y-43700D03*
X34300Y-42700D03*
X31300Y-43700D03*
X33300Y-43700D03*
X34300Y-43700D03*
X35300Y-43700D03*
X36300Y-43700D03*
X35300Y-42700D03*
X36300Y-42700D03*
X19300Y-42700D03*
X20300Y-42700D03*
X21300Y-42700D03*
X22300Y-42700D03*
X37300Y-42700D03*
X37300Y-43700D03*
X32300Y-43700D03*
X38300Y-42700D03*
X38300Y-43700D03*
X39300Y-42700D03*
X39300Y-43700D03*
X40300Y-42700D03*
X40300Y-43700D03*
G54D34*
X18300Y-61700D03*
G54D23*
X18300Y-62700D03*
X23300Y-61700D03*
X19300Y-62700D03*
X24300Y-61700D03*
X20300Y-62700D03*
X25300Y-61700D03*
X21300Y-62700D03*
X26300Y-61700D03*
X22300Y-62700D03*
X27300Y-61700D03*
X23300Y-62700D03*
X28300Y-61700D03*
X24300Y-62700D03*
X29300Y-61700D03*
X25300Y-62700D03*
X30300Y-61700D03*
X26300Y-62700D03*
X31300Y-61700D03*
X27300Y-62700D03*
X32300Y-61700D03*
X28300Y-62700D03*
X33300Y-61700D03*
X29300Y-62700D03*
X30300Y-62700D03*
X34300Y-61700D03*
X31300Y-62700D03*
X33300Y-62700D03*
X34300Y-62700D03*
X35300Y-62700D03*
X36300Y-62700D03*
X35300Y-61700D03*
X36300Y-61700D03*
X19300Y-61700D03*
X20300Y-61700D03*
X21300Y-61700D03*
X22300Y-61700D03*
X37300Y-61700D03*
X37300Y-62700D03*
X32300Y-62700D03*
X38300Y-61700D03*
X38300Y-62700D03*
X39300Y-61700D03*
X39300Y-62700D03*
X40300Y-61700D03*
X40300Y-62700D03*
G54D58*
X24800Y-50100D03*
X25549Y-50100D03*
X24800Y-51000D03*
X25549Y-51000D03*
X24800Y-51900D03*
X25549Y-51900D03*
X29374Y-48050D03*
X28625Y-48050D03*
X29374Y-47150D03*
X28625Y-47150D03*
G54D59*
X42800Y-46450D03*
X16800Y-45200D03*
X16800Y-64200D03*
X42800Y-62950D03*
G54D60*
X18800Y-44700D03*
G54D61*
X18800Y-45700D03*
X19800Y-44700D03*
X19800Y-45700D03*
X20800Y-44700D03*
X20800Y-45700D03*
X21800Y-44700D03*
X21800Y-45700D03*
X22800Y-44700D03*
X22800Y-45700D03*
X23800Y-44700D03*
X23800Y-45700D03*
X24800Y-44700D03*
X24800Y-45700D03*
X25800Y-44700D03*
X25800Y-45700D03*
X26800Y-44700D03*
X26800Y-45700D03*
X27800Y-44700D03*
X27800Y-45700D03*
X28800Y-44700D03*
X28800Y-45700D03*
X29800Y-44700D03*
X29800Y-45700D03*
X30800Y-44700D03*
X30800Y-45700D03*
X31800Y-44700D03*
X31800Y-45700D03*
X32800Y-44700D03*
X32800Y-45700D03*
X33800Y-44700D03*
X33800Y-45700D03*
X34800Y-44700D03*
X34800Y-45700D03*
X35800Y-44700D03*
X35800Y-45700D03*
X36800Y-44700D03*
X36800Y-45700D03*
X37800Y-44700D03*
X37800Y-45700D03*
X38800Y-44700D03*
X38800Y-45700D03*
X39800Y-44700D03*
X39800Y-45700D03*
X40800Y-44700D03*
X40800Y-45700D03*
G54D60*
X18800Y-63700D03*
G54D61*
X18800Y-64700D03*
X19800Y-63700D03*
X19800Y-64700D03*
X20800Y-63700D03*
X20800Y-64700D03*
X21800Y-63700D03*
X21800Y-64700D03*
X22800Y-63700D03*
X22800Y-64700D03*
X23800Y-63700D03*
X23800Y-64700D03*
X24800Y-63700D03*
X24800Y-64700D03*
X25800Y-63700D03*
X25800Y-64700D03*
X26800Y-63700D03*
X26800Y-64700D03*
X27800Y-63700D03*
X27800Y-64700D03*
X28800Y-63700D03*
X28800Y-64700D03*
X29800Y-63700D03*
X29800Y-64700D03*
X30800Y-63700D03*
X30800Y-64700D03*
X31800Y-63700D03*
X31800Y-64700D03*
X32800Y-63700D03*
X32800Y-64700D03*
X33800Y-63700D03*
X33800Y-64700D03*
X34800Y-63700D03*
X34800Y-64700D03*
X35800Y-63700D03*
X35800Y-64700D03*
X36800Y-63700D03*
X36800Y-64700D03*
X37800Y-63700D03*
X37800Y-64700D03*
X38800Y-63700D03*
X38800Y-64700D03*
X39800Y-63700D03*
X39800Y-64700D03*
X40800Y-63700D03*
X40800Y-64700D03*
G54D60*
X13800Y-50450D03*
G54D61*
X13800Y-51450D03*
X14800Y-50450D03*
X14800Y-51450D03*
X15800Y-50450D03*
X15800Y-51450D03*
X16800Y-50450D03*
X16800Y-51450D03*
X17800Y-50450D03*
X17800Y-51450D03*
G54D62*
X66219Y-49550D03*
X66219Y-48841D03*
G54D57*
X78319Y-45870D03*
X77610Y-45870D03*
G54D62*
X61534Y-40298D03*
X61534Y-41007D03*
X54250Y-38251D03*
X54250Y-37542D03*
X53069Y-38251D03*
X53069Y-37542D03*
G54D57*
X51238Y-55150D03*
X51947Y-55150D03*
X44437Y-26164D03*
X43729Y-26164D03*
X51238Y-56450D03*
X51947Y-56450D03*
X72794Y-43014D03*
X73502Y-43014D03*
X30618Y-25072D03*
X29910Y-25072D03*
X46967Y-46518D03*
X47675Y-46518D03*
X74945Y-22000D03*
X75654Y-22000D03*
G54D62*
X67646Y-49550D03*
X67646Y-48841D03*
G54D57*
X57400Y-48251D03*
X58109Y-48251D03*
X74495Y-31450D03*
X75204Y-31450D03*
X20087Y-31951D03*
X19378Y-31951D03*
X51406Y-45820D03*
X50697Y-45820D03*
X48414Y-49825D03*
X49122Y-49825D03*
G54D62*
X18522Y-58054D03*
X18522Y-58762D03*
X20097Y-58054D03*
X20097Y-58762D03*
G54D63*
X70845Y-30888D03*
X70845Y-29904D03*
X70845Y-28920D03*
X70845Y-26951D03*
X70845Y-27936D03*
G54D64*
X56868Y-21833D03*
X56868Y-36007D03*
X51357Y-36007D03*
X51357Y-21833D03*
X62380Y-21833D03*
X67892Y-21833D03*
X62380Y-36007D03*
X67892Y-36007D03*
G54D65*
X61376Y-44570D03*
X61376Y-45318D03*
X52085Y-60278D03*
X52085Y-59530D03*
X51101Y-60278D03*
X51101Y-59530D03*
G54D58*
X53286Y-42818D03*
X54034Y-42818D03*
X75224Y-32650D03*
X74475Y-32650D03*
X46534Y-48881D03*
X45786Y-48881D03*
G54D65*
X51970Y-61675D03*
X51970Y-62424D03*
X50970Y-61675D03*
X50970Y-62424D03*
X52970Y-61675D03*
X52970Y-62424D03*
G54D58*
X70963Y-52030D03*
X70215Y-52030D03*
G54D65*
X49970Y-61675D03*
X49970Y-62424D03*
G54D58*
X25475Y-53925D03*
X26224Y-53925D03*
G54D65*
X60431Y-45327D03*
X60431Y-44579D03*
G54D58*
X57380Y-47414D03*
X58128Y-47414D03*
G54D66*
X26300Y-47150D03*
X26300Y-49050D03*
X26800Y-47150D03*
X27300Y-47150D03*
X27800Y-47150D03*
X26800Y-49050D03*
X27300Y-49050D03*
X27800Y-49050D03*
G54D22*
X73025Y-58025D03*
X73025Y-57275D03*
G54D21*
X69125Y-61675D03*
X69150Y-63475D03*
X71600Y-61675D03*
X71625Y-63475D03*
G54D20*
X69625Y-59506D03*
X69625Y-60293D03*
X71950Y-58043D03*
X71950Y-57256D03*
X70775Y-59506D03*
X70775Y-60293D03*
G54D16*
X72348Y-59109D03*
X72545Y-59109D03*
X72151Y-59109D03*
X71954Y-59109D03*
G54D17*
X71659Y-59404D03*
X71659Y-59601D03*
X71659Y-59798D03*
X71659Y-59995D03*
G54D16*
X71954Y-60290D03*
X72151Y-60290D03*
X72348Y-60290D03*
X72545Y-60290D03*
G54D17*
X72840Y-59995D03*
X72840Y-59798D03*
X72840Y-59601D03*
X72840Y-59404D03*
G54D18*
X72250Y-59700D03*
G54D19*
X72446Y-59867D03*
X72446Y-59532D03*
X72053Y-59532D03*
X72053Y-59867D03*
G54D15*
X70700Y-57100D03*
X70700Y-58200D03*
G54D14*
X68475Y-60450D03*
X68475Y-59350D03*
G54D13*
X74031Y-57650D03*
X74968Y-57650D03*
G54D58*
X16374Y-61000D03*
X15625Y-61000D03*
X16374Y-60000D03*
X15625Y-60000D03*
X14674Y-61000D03*
X13925Y-61000D03*
X14674Y-60000D03*
X13925Y-60000D03*
G54D24*
X10000Y-61125D03*
X10000Y-62875D03*
G54D35*
X11000Y-60625D03*
X11000Y-63375D03*
G54D24*
X12550Y-62875D03*
X12550Y-61125D03*
X11800Y-62500D03*
X11800Y-61500D03*
X10000Y-57125D03*
X10000Y-58875D03*
G54D35*
X11000Y-56625D03*
X11000Y-59375D03*
G54D24*
X12550Y-58875D03*
X12550Y-57125D03*
X11800Y-58500D03*
X11800Y-57500D03*
X10000Y-53125D03*
X10000Y-54875D03*
G54D35*
X11000Y-52625D03*
X11000Y-55375D03*
G54D24*
X12550Y-54875D03*
X12550Y-53125D03*
X11800Y-54500D03*
X11800Y-53500D03*
G54D54*
X36220Y-49862D03*
X36220Y-50866D03*
G54D67*
X34684Y-50868D03*
X35059Y-49918D03*
X35434Y-50868D03*
G54D65*
X32775Y-50866D03*
X32775Y-50118D03*
X33779Y-50866D03*
X33779Y-50118D03*
M02*
