G04 (created by PCBNEW-RS274X (2011-03-30 BZR 2932)-stable) date 05/03/11 18:11:55*
G01*
G70*
G90*
%MOIN*%
G04 Gerber Fmt 3.4, Leading zero omitted, Abs format*
%FSLAX34Y34*%
G04 APERTURE LIST*
%ADD10C,0.006000*%
%ADD11C,0.012000*%
G04 APERTURE END LIST*
G54D10*
G54D11*
X81896Y-97480D02*
X81896Y-97537D01*
X81868Y-97594D01*
X81839Y-97623D01*
X81782Y-97652D01*
X81668Y-97680D01*
X81525Y-97680D01*
X81410Y-97652D01*
X81353Y-97623D01*
X81325Y-97594D01*
X81296Y-97537D01*
X81296Y-97480D01*
X81325Y-97423D01*
X81353Y-97394D01*
X81410Y-97366D01*
X81525Y-97337D01*
X81668Y-97337D01*
X81782Y-97366D01*
X81839Y-97394D01*
X81868Y-97423D01*
X81896Y-97480D01*
X81353Y-97937D02*
X81325Y-97965D01*
X81296Y-97937D01*
X81325Y-97908D01*
X81353Y-97937D01*
X81296Y-97937D01*
X81296Y-98537D02*
X81296Y-98194D01*
X81296Y-98366D02*
X81896Y-98366D01*
X81810Y-98309D01*
X81753Y-98251D01*
X81725Y-98194D01*
X81896Y-99080D02*
X81896Y-98794D01*
X81610Y-98765D01*
X81639Y-98794D01*
X81668Y-98851D01*
X81668Y-98994D01*
X81639Y-99051D01*
X81610Y-99080D01*
X81553Y-99108D01*
X81410Y-99108D01*
X81353Y-99080D01*
X81325Y-99051D01*
X81296Y-98994D01*
X81296Y-98851D01*
X81325Y-98794D01*
X81353Y-98765D01*
X81896Y-99479D02*
X81896Y-99536D01*
X81868Y-99593D01*
X81839Y-99622D01*
X81782Y-99651D01*
X81668Y-99679D01*
X81525Y-99679D01*
X81410Y-99651D01*
X81353Y-99622D01*
X81325Y-99593D01*
X81296Y-99536D01*
X81296Y-99479D01*
X81325Y-99422D01*
X81353Y-99393D01*
X81410Y-99365D01*
X81525Y-99336D01*
X81668Y-99336D01*
X81782Y-99365D01*
X81839Y-99393D01*
X81868Y-99422D01*
X81896Y-99479D01*
X81896Y-100050D02*
X81896Y-100107D01*
X81868Y-100164D01*
X81839Y-100193D01*
X81782Y-100222D01*
X81668Y-100250D01*
X81525Y-100250D01*
X81410Y-100222D01*
X81353Y-100193D01*
X81325Y-100164D01*
X81296Y-100107D01*
X81296Y-100050D01*
X81325Y-99993D01*
X81353Y-99964D01*
X81410Y-99936D01*
X81525Y-99907D01*
X81668Y-99907D01*
X81782Y-99936D01*
X81839Y-99964D01*
X81868Y-99993D01*
X81896Y-100050D01*
X81896Y-100935D02*
X81782Y-100935D01*
X81896Y-101164D02*
X81782Y-101164D01*
X80999Y-98500D02*
X80999Y-100000D01*
X80500Y-98500D02*
X82079Y-98500D01*
X80500Y-100000D02*
X82079Y-100000D01*
X80999Y-100000D02*
X80769Y-99557D01*
X80999Y-100000D02*
X81229Y-99557D01*
X80999Y-98500D02*
X80769Y-98943D01*
X80999Y-98500D02*
X81229Y-98943D01*
X81183Y-12520D02*
X81183Y-12463D01*
X81211Y-12406D01*
X81240Y-12377D01*
X81297Y-12348D01*
X81411Y-12320D01*
X81554Y-12320D01*
X81669Y-12348D01*
X81726Y-12377D01*
X81754Y-12406D01*
X81783Y-12463D01*
X81783Y-12520D01*
X81754Y-12577D01*
X81726Y-12606D01*
X81669Y-12634D01*
X81554Y-12663D01*
X81411Y-12663D01*
X81297Y-12634D01*
X81240Y-12606D01*
X81211Y-12577D01*
X81183Y-12520D01*
X81726Y-12063D02*
X81754Y-12035D01*
X81783Y-12063D01*
X81754Y-12092D01*
X81726Y-12063D01*
X81783Y-12063D01*
X81783Y-11463D02*
X81783Y-11806D01*
X81783Y-11634D02*
X81183Y-11634D01*
X81269Y-11691D01*
X81326Y-11749D01*
X81354Y-11806D01*
X81183Y-10920D02*
X81183Y-11206D01*
X81469Y-11235D01*
X81440Y-11206D01*
X81411Y-11149D01*
X81411Y-11006D01*
X81440Y-10949D01*
X81469Y-10920D01*
X81526Y-10892D01*
X81669Y-10892D01*
X81726Y-10920D01*
X81754Y-10949D01*
X81783Y-11006D01*
X81783Y-11149D01*
X81754Y-11206D01*
X81726Y-11235D01*
X81183Y-10521D02*
X81183Y-10464D01*
X81211Y-10407D01*
X81240Y-10378D01*
X81297Y-10349D01*
X81411Y-10321D01*
X81554Y-10321D01*
X81669Y-10349D01*
X81726Y-10378D01*
X81754Y-10407D01*
X81783Y-10464D01*
X81783Y-10521D01*
X81754Y-10578D01*
X81726Y-10607D01*
X81669Y-10635D01*
X81554Y-10664D01*
X81411Y-10664D01*
X81297Y-10635D01*
X81240Y-10607D01*
X81211Y-10578D01*
X81183Y-10521D01*
X81183Y-09950D02*
X81183Y-09893D01*
X81211Y-09836D01*
X81240Y-09807D01*
X81297Y-09778D01*
X81411Y-09750D01*
X81554Y-09750D01*
X81669Y-09778D01*
X81726Y-09807D01*
X81754Y-09836D01*
X81783Y-09893D01*
X81783Y-09950D01*
X81754Y-10007D01*
X81726Y-10036D01*
X81669Y-10064D01*
X81554Y-10093D01*
X81411Y-10093D01*
X81297Y-10064D01*
X81240Y-10036D01*
X81211Y-10007D01*
X81183Y-09950D01*
X81183Y-09065D02*
X81297Y-09065D01*
X81183Y-08836D02*
X81297Y-08836D01*
X81000Y-11500D02*
X81000Y-10000D01*
X80500Y-11500D02*
X82080Y-11500D01*
X80500Y-10000D02*
X82080Y-10000D01*
X81000Y-10000D02*
X81230Y-10443D01*
X81000Y-10000D02*
X80770Y-10443D01*
X81000Y-11500D02*
X81230Y-11057D01*
X81000Y-11500D02*
X80770Y-11057D01*
X07917Y-53144D02*
X07917Y-53259D01*
X07946Y-53316D01*
X07974Y-53344D01*
X08060Y-53402D01*
X08174Y-53430D01*
X08403Y-53430D01*
X08460Y-53402D01*
X08489Y-53373D01*
X08517Y-53316D01*
X08517Y-53202D01*
X08489Y-53144D01*
X08460Y-53116D01*
X08403Y-53087D01*
X08260Y-53087D01*
X08203Y-53116D01*
X08174Y-53144D01*
X08146Y-53202D01*
X08146Y-53316D01*
X08174Y-53373D01*
X08203Y-53402D01*
X08260Y-53430D01*
X07974Y-53687D02*
X07946Y-53715D01*
X07917Y-53687D01*
X07946Y-53658D01*
X07974Y-53687D01*
X07917Y-53687D01*
X08517Y-54087D02*
X08517Y-54144D01*
X08489Y-54201D01*
X08460Y-54230D01*
X08403Y-54259D01*
X08289Y-54287D01*
X08146Y-54287D01*
X08031Y-54259D01*
X07974Y-54230D01*
X07946Y-54201D01*
X07917Y-54144D01*
X07917Y-54087D01*
X07946Y-54030D01*
X07974Y-54001D01*
X08031Y-53973D01*
X08146Y-53944D01*
X08289Y-53944D01*
X08403Y-53973D01*
X08460Y-54001D01*
X08489Y-54030D01*
X08517Y-54087D01*
X08517Y-54658D02*
X08517Y-54715D01*
X08489Y-54772D01*
X08460Y-54801D01*
X08403Y-54830D01*
X08289Y-54858D01*
X08146Y-54858D01*
X08031Y-54830D01*
X07974Y-54801D01*
X07946Y-54772D01*
X07917Y-54715D01*
X07917Y-54658D01*
X07946Y-54601D01*
X07974Y-54572D01*
X08031Y-54544D01*
X08146Y-54515D01*
X08289Y-54515D01*
X08403Y-54544D01*
X08460Y-54572D01*
X08489Y-54601D01*
X08517Y-54658D01*
X08517Y-55229D02*
X08517Y-55286D01*
X08489Y-55343D01*
X08460Y-55372D01*
X08403Y-55401D01*
X08289Y-55429D01*
X08146Y-55429D01*
X08031Y-55401D01*
X07974Y-55372D01*
X07946Y-55343D01*
X07917Y-55286D01*
X07917Y-55229D01*
X07946Y-55172D01*
X07974Y-55143D01*
X08031Y-55115D01*
X08146Y-55086D01*
X08289Y-55086D01*
X08403Y-55115D01*
X08460Y-55143D01*
X08489Y-55172D01*
X08517Y-55229D01*
X08517Y-55800D02*
X08517Y-55857D01*
X08489Y-55914D01*
X08460Y-55943D01*
X08403Y-55972D01*
X08289Y-56000D01*
X08146Y-56000D01*
X08031Y-55972D01*
X07974Y-55943D01*
X07946Y-55914D01*
X07917Y-55857D01*
X07917Y-55800D01*
X07946Y-55743D01*
X07974Y-55714D01*
X08031Y-55686D01*
X08146Y-55657D01*
X08289Y-55657D01*
X08403Y-55686D01*
X08460Y-55714D01*
X08489Y-55743D01*
X08517Y-55800D01*
X08517Y-56685D02*
X08403Y-56685D01*
X08517Y-56914D02*
X08403Y-56914D01*
X08700Y-10000D02*
X08700Y-100000D01*
X09500Y-10000D02*
X07620Y-10000D01*
X09500Y-100000D02*
X07620Y-100000D01*
X08700Y-100000D02*
X08470Y-99557D01*
X08700Y-100000D02*
X08930Y-99557D01*
X08700Y-10000D02*
X08470Y-10443D01*
X08700Y-10000D02*
X08930Y-10443D01*
X15230Y-34854D02*
X15287Y-34854D01*
X15344Y-34882D01*
X15373Y-34911D01*
X15402Y-34968D01*
X15430Y-35082D01*
X15430Y-35225D01*
X15402Y-35340D01*
X15373Y-35397D01*
X15344Y-35425D01*
X15287Y-35454D01*
X15230Y-35454D01*
X15173Y-35425D01*
X15144Y-35397D01*
X15116Y-35340D01*
X15087Y-35225D01*
X15087Y-35082D01*
X15116Y-34968D01*
X15144Y-34911D01*
X15173Y-34882D01*
X15230Y-34854D01*
X15687Y-35397D02*
X15715Y-35425D01*
X15687Y-35454D01*
X15658Y-35425D01*
X15687Y-35397D01*
X15687Y-35454D01*
X16230Y-35054D02*
X16230Y-35454D01*
X16087Y-34825D02*
X15944Y-35254D01*
X16316Y-35254D01*
X16658Y-34854D02*
X16715Y-34854D01*
X16772Y-34882D01*
X16801Y-34911D01*
X16830Y-34968D01*
X16858Y-35082D01*
X16858Y-35225D01*
X16830Y-35340D01*
X16801Y-35397D01*
X16772Y-35425D01*
X16715Y-35454D01*
X16658Y-35454D01*
X16601Y-35425D01*
X16572Y-35397D01*
X16544Y-35340D01*
X16515Y-35225D01*
X16515Y-35082D01*
X16544Y-34968D01*
X16572Y-34911D01*
X16601Y-34882D01*
X16658Y-34854D01*
X17229Y-34854D02*
X17286Y-34854D01*
X17343Y-34882D01*
X17372Y-34911D01*
X17401Y-34968D01*
X17429Y-35082D01*
X17429Y-35225D01*
X17401Y-35340D01*
X17372Y-35397D01*
X17343Y-35425D01*
X17286Y-35454D01*
X17229Y-35454D01*
X17172Y-35425D01*
X17143Y-35397D01*
X17115Y-35340D01*
X17086Y-35225D01*
X17086Y-35082D01*
X17115Y-34968D01*
X17143Y-34911D01*
X17172Y-34882D01*
X17229Y-34854D01*
X17800Y-34854D02*
X17857Y-34854D01*
X17914Y-34882D01*
X17943Y-34911D01*
X17972Y-34968D01*
X18000Y-35082D01*
X18000Y-35225D01*
X17972Y-35340D01*
X17943Y-35397D01*
X17914Y-35425D01*
X17857Y-35454D01*
X17800Y-35454D01*
X17743Y-35425D01*
X17714Y-35397D01*
X17686Y-35340D01*
X17657Y-35225D01*
X17657Y-35082D01*
X17686Y-34968D01*
X17714Y-34911D01*
X17743Y-34882D01*
X17800Y-34854D01*
X18685Y-34854D02*
X18685Y-34968D01*
X18914Y-34854D02*
X18914Y-34968D01*
X15000Y-35751D02*
X19000Y-35751D01*
X15000Y-36250D02*
X15000Y-34671D01*
X19000Y-36250D02*
X19000Y-34671D01*
X19000Y-35751D02*
X18557Y-35981D01*
X19000Y-35751D02*
X18557Y-35521D01*
X15000Y-35751D02*
X15443Y-35981D01*
X15000Y-35751D02*
X15443Y-35521D01*
X11767Y-39230D02*
X11767Y-39287D01*
X11739Y-39344D01*
X11710Y-39373D01*
X11653Y-39402D01*
X11539Y-39430D01*
X11396Y-39430D01*
X11281Y-39402D01*
X11224Y-39373D01*
X11196Y-39344D01*
X11167Y-39287D01*
X11167Y-39230D01*
X11196Y-39173D01*
X11224Y-39144D01*
X11281Y-39116D01*
X11396Y-39087D01*
X11539Y-39087D01*
X11653Y-39116D01*
X11710Y-39144D01*
X11739Y-39173D01*
X11767Y-39230D01*
X11224Y-39687D02*
X11196Y-39715D01*
X11167Y-39687D01*
X11196Y-39658D01*
X11224Y-39687D01*
X11167Y-39687D01*
X11767Y-39916D02*
X11767Y-40316D01*
X11167Y-40059D01*
X11767Y-40658D02*
X11767Y-40715D01*
X11739Y-40772D01*
X11710Y-40801D01*
X11653Y-40830D01*
X11539Y-40858D01*
X11396Y-40858D01*
X11281Y-40830D01*
X11224Y-40801D01*
X11196Y-40772D01*
X11167Y-40715D01*
X11167Y-40658D01*
X11196Y-40601D01*
X11224Y-40572D01*
X11281Y-40544D01*
X11396Y-40515D01*
X11539Y-40515D01*
X11653Y-40544D01*
X11710Y-40572D01*
X11739Y-40601D01*
X11767Y-40658D01*
X11767Y-41229D02*
X11767Y-41286D01*
X11739Y-41343D01*
X11710Y-41372D01*
X11653Y-41401D01*
X11539Y-41429D01*
X11396Y-41429D01*
X11281Y-41401D01*
X11224Y-41372D01*
X11196Y-41343D01*
X11167Y-41286D01*
X11167Y-41229D01*
X11196Y-41172D01*
X11224Y-41143D01*
X11281Y-41115D01*
X11396Y-41086D01*
X11539Y-41086D01*
X11653Y-41115D01*
X11710Y-41143D01*
X11739Y-41172D01*
X11767Y-41229D01*
X11767Y-41800D02*
X11767Y-41857D01*
X11739Y-41914D01*
X11710Y-41943D01*
X11653Y-41972D01*
X11539Y-42000D01*
X11396Y-42000D01*
X11281Y-41972D01*
X11224Y-41943D01*
X11196Y-41914D01*
X11167Y-41857D01*
X11167Y-41800D01*
X11196Y-41743D01*
X11224Y-41714D01*
X11281Y-41686D01*
X11396Y-41657D01*
X11539Y-41657D01*
X11653Y-41686D01*
X11710Y-41714D01*
X11739Y-41743D01*
X11767Y-41800D01*
X11767Y-42685D02*
X11653Y-42685D01*
X11767Y-42914D02*
X11653Y-42914D01*
X11950Y-37500D02*
X11950Y-44500D01*
X13500Y-37500D02*
X10870Y-37500D01*
X13500Y-44500D02*
X10870Y-44500D01*
X11950Y-44500D02*
X11720Y-44057D01*
X11950Y-44500D02*
X12180Y-44057D01*
X11950Y-37500D02*
X11720Y-37943D01*
X11950Y-37500D02*
X12180Y-37943D01*
X43059Y-06404D02*
X43459Y-06404D01*
X43202Y-07004D01*
X43687Y-06947D02*
X43715Y-06975D01*
X43687Y-07004D01*
X43658Y-06975D01*
X43687Y-06947D01*
X43687Y-07004D01*
X44087Y-06404D02*
X44144Y-06404D01*
X44201Y-06432D01*
X44230Y-06461D01*
X44259Y-06518D01*
X44287Y-06632D01*
X44287Y-06775D01*
X44259Y-06890D01*
X44230Y-06947D01*
X44201Y-06975D01*
X44144Y-07004D01*
X44087Y-07004D01*
X44030Y-06975D01*
X44001Y-06947D01*
X43973Y-06890D01*
X43944Y-06775D01*
X43944Y-06632D01*
X43973Y-06518D01*
X44001Y-06461D01*
X44030Y-06432D01*
X44087Y-06404D01*
X44658Y-06404D02*
X44715Y-06404D01*
X44772Y-06432D01*
X44801Y-06461D01*
X44830Y-06518D01*
X44858Y-06632D01*
X44858Y-06775D01*
X44830Y-06890D01*
X44801Y-06947D01*
X44772Y-06975D01*
X44715Y-07004D01*
X44658Y-07004D01*
X44601Y-06975D01*
X44572Y-06947D01*
X44544Y-06890D01*
X44515Y-06775D01*
X44515Y-06632D01*
X44544Y-06518D01*
X44572Y-06461D01*
X44601Y-06432D01*
X44658Y-06404D01*
X45229Y-06404D02*
X45286Y-06404D01*
X45343Y-06432D01*
X45372Y-06461D01*
X45401Y-06518D01*
X45429Y-06632D01*
X45429Y-06775D01*
X45401Y-06890D01*
X45372Y-06947D01*
X45343Y-06975D01*
X45286Y-07004D01*
X45229Y-07004D01*
X45172Y-06975D01*
X45143Y-06947D01*
X45115Y-06890D01*
X45086Y-06775D01*
X45086Y-06632D01*
X45115Y-06518D01*
X45143Y-06461D01*
X45172Y-06432D01*
X45229Y-06404D01*
X45800Y-06404D02*
X45857Y-06404D01*
X45914Y-06432D01*
X45943Y-06461D01*
X45972Y-06518D01*
X46000Y-06632D01*
X46000Y-06775D01*
X45972Y-06890D01*
X45943Y-06947D01*
X45914Y-06975D01*
X45857Y-07004D01*
X45800Y-07004D01*
X45743Y-06975D01*
X45714Y-06947D01*
X45686Y-06890D01*
X45657Y-06775D01*
X45657Y-06632D01*
X45686Y-06518D01*
X45714Y-06461D01*
X45743Y-06432D01*
X45800Y-06404D01*
X46685Y-06404D02*
X46685Y-06518D01*
X46914Y-06404D02*
X46914Y-06518D01*
X10000Y-07301D02*
X80000Y-07301D01*
X10000Y-09500D02*
X10000Y-06221D01*
X80000Y-09500D02*
X80000Y-06221D01*
X80000Y-07301D02*
X79557Y-07531D01*
X80000Y-07301D02*
X79557Y-07071D01*
X10000Y-07301D02*
X10443Y-07531D01*
X10000Y-07301D02*
X10443Y-07071D01*
X81296Y-87430D02*
X81296Y-87087D01*
X81296Y-87259D02*
X81896Y-87259D01*
X81810Y-87202D01*
X81753Y-87144D01*
X81725Y-87087D01*
X81353Y-87687D02*
X81325Y-87715D01*
X81296Y-87687D01*
X81325Y-87658D01*
X81353Y-87687D01*
X81296Y-87687D01*
X81296Y-88001D02*
X81296Y-88116D01*
X81325Y-88173D01*
X81353Y-88201D01*
X81439Y-88259D01*
X81553Y-88287D01*
X81782Y-88287D01*
X81839Y-88259D01*
X81868Y-88230D01*
X81896Y-88173D01*
X81896Y-88059D01*
X81868Y-88001D01*
X81839Y-87973D01*
X81782Y-87944D01*
X81639Y-87944D01*
X81582Y-87973D01*
X81553Y-88001D01*
X81525Y-88059D01*
X81525Y-88173D01*
X81553Y-88230D01*
X81582Y-88259D01*
X81639Y-88287D01*
X81896Y-88658D02*
X81896Y-88715D01*
X81868Y-88772D01*
X81839Y-88801D01*
X81782Y-88830D01*
X81668Y-88858D01*
X81525Y-88858D01*
X81410Y-88830D01*
X81353Y-88801D01*
X81325Y-88772D01*
X81296Y-88715D01*
X81296Y-88658D01*
X81325Y-88601D01*
X81353Y-88572D01*
X81410Y-88544D01*
X81525Y-88515D01*
X81668Y-88515D01*
X81782Y-88544D01*
X81839Y-88572D01*
X81868Y-88601D01*
X81896Y-88658D01*
X81896Y-89229D02*
X81896Y-89286D01*
X81868Y-89343D01*
X81839Y-89372D01*
X81782Y-89401D01*
X81668Y-89429D01*
X81525Y-89429D01*
X81410Y-89401D01*
X81353Y-89372D01*
X81325Y-89343D01*
X81296Y-89286D01*
X81296Y-89229D01*
X81325Y-89172D01*
X81353Y-89143D01*
X81410Y-89115D01*
X81525Y-89086D01*
X81668Y-89086D01*
X81782Y-89115D01*
X81839Y-89143D01*
X81868Y-89172D01*
X81896Y-89229D01*
X81896Y-89800D02*
X81896Y-89857D01*
X81868Y-89914D01*
X81839Y-89943D01*
X81782Y-89972D01*
X81668Y-90000D01*
X81525Y-90000D01*
X81410Y-89972D01*
X81353Y-89943D01*
X81325Y-89914D01*
X81296Y-89857D01*
X81296Y-89800D01*
X81325Y-89743D01*
X81353Y-89714D01*
X81410Y-89686D01*
X81525Y-89657D01*
X81668Y-89657D01*
X81782Y-89686D01*
X81839Y-89714D01*
X81868Y-89743D01*
X81896Y-89800D01*
X81896Y-90685D02*
X81782Y-90685D01*
X81896Y-90914D02*
X81782Y-90914D01*
X80999Y-79500D02*
X80999Y-98500D01*
X80500Y-79500D02*
X82079Y-79500D01*
X80500Y-98500D02*
X82079Y-98500D01*
X80999Y-98500D02*
X80769Y-98057D01*
X80999Y-98500D02*
X81229Y-98057D01*
X80999Y-79500D02*
X80769Y-79943D01*
X80999Y-79500D02*
X81229Y-79943D01*
X81696Y-53373D02*
X81296Y-53373D01*
X81925Y-53230D02*
X81496Y-53087D01*
X81496Y-53459D01*
X81353Y-53687D02*
X81325Y-53715D01*
X81296Y-53687D01*
X81325Y-53658D01*
X81353Y-53687D01*
X81296Y-53687D01*
X81296Y-54001D02*
X81296Y-54116D01*
X81325Y-54173D01*
X81353Y-54201D01*
X81439Y-54259D01*
X81553Y-54287D01*
X81782Y-54287D01*
X81839Y-54259D01*
X81868Y-54230D01*
X81896Y-54173D01*
X81896Y-54059D01*
X81868Y-54001D01*
X81839Y-53973D01*
X81782Y-53944D01*
X81639Y-53944D01*
X81582Y-53973D01*
X81553Y-54001D01*
X81525Y-54059D01*
X81525Y-54173D01*
X81553Y-54230D01*
X81582Y-54259D01*
X81639Y-54287D01*
X81896Y-54658D02*
X81896Y-54715D01*
X81868Y-54772D01*
X81839Y-54801D01*
X81782Y-54830D01*
X81668Y-54858D01*
X81525Y-54858D01*
X81410Y-54830D01*
X81353Y-54801D01*
X81325Y-54772D01*
X81296Y-54715D01*
X81296Y-54658D01*
X81325Y-54601D01*
X81353Y-54572D01*
X81410Y-54544D01*
X81525Y-54515D01*
X81668Y-54515D01*
X81782Y-54544D01*
X81839Y-54572D01*
X81868Y-54601D01*
X81896Y-54658D01*
X81896Y-55229D02*
X81896Y-55286D01*
X81868Y-55343D01*
X81839Y-55372D01*
X81782Y-55401D01*
X81668Y-55429D01*
X81525Y-55429D01*
X81410Y-55401D01*
X81353Y-55372D01*
X81325Y-55343D01*
X81296Y-55286D01*
X81296Y-55229D01*
X81325Y-55172D01*
X81353Y-55143D01*
X81410Y-55115D01*
X81525Y-55086D01*
X81668Y-55086D01*
X81782Y-55115D01*
X81839Y-55143D01*
X81868Y-55172D01*
X81896Y-55229D01*
X81896Y-55800D02*
X81896Y-55857D01*
X81868Y-55914D01*
X81839Y-55943D01*
X81782Y-55972D01*
X81668Y-56000D01*
X81525Y-56000D01*
X81410Y-55972D01*
X81353Y-55943D01*
X81325Y-55914D01*
X81296Y-55857D01*
X81296Y-55800D01*
X81325Y-55743D01*
X81353Y-55714D01*
X81410Y-55686D01*
X81525Y-55657D01*
X81668Y-55657D01*
X81782Y-55686D01*
X81839Y-55714D01*
X81868Y-55743D01*
X81896Y-55800D01*
X81896Y-56685D02*
X81782Y-56685D01*
X81896Y-56914D02*
X81782Y-56914D01*
X80999Y-30500D02*
X80999Y-79500D01*
X80500Y-30500D02*
X82079Y-30500D01*
X80500Y-79500D02*
X82079Y-79500D01*
X80999Y-79500D02*
X80769Y-79057D01*
X80999Y-79500D02*
X81229Y-79057D01*
X80999Y-30500D02*
X80769Y-30943D01*
X80999Y-30500D02*
X81229Y-30943D01*
X81296Y-19430D02*
X81296Y-19087D01*
X81296Y-19259D02*
X81896Y-19259D01*
X81810Y-19202D01*
X81753Y-19144D01*
X81725Y-19087D01*
X81353Y-19687D02*
X81325Y-19715D01*
X81296Y-19687D01*
X81325Y-19658D01*
X81353Y-19687D01*
X81296Y-19687D01*
X81296Y-20001D02*
X81296Y-20116D01*
X81325Y-20173D01*
X81353Y-20201D01*
X81439Y-20259D01*
X81553Y-20287D01*
X81782Y-20287D01*
X81839Y-20259D01*
X81868Y-20230D01*
X81896Y-20173D01*
X81896Y-20059D01*
X81868Y-20001D01*
X81839Y-19973D01*
X81782Y-19944D01*
X81639Y-19944D01*
X81582Y-19973D01*
X81553Y-20001D01*
X81525Y-20059D01*
X81525Y-20173D01*
X81553Y-20230D01*
X81582Y-20259D01*
X81639Y-20287D01*
X81896Y-20658D02*
X81896Y-20715D01*
X81868Y-20772D01*
X81839Y-20801D01*
X81782Y-20830D01*
X81668Y-20858D01*
X81525Y-20858D01*
X81410Y-20830D01*
X81353Y-20801D01*
X81325Y-20772D01*
X81296Y-20715D01*
X81296Y-20658D01*
X81325Y-20601D01*
X81353Y-20572D01*
X81410Y-20544D01*
X81525Y-20515D01*
X81668Y-20515D01*
X81782Y-20544D01*
X81839Y-20572D01*
X81868Y-20601D01*
X81896Y-20658D01*
X81896Y-21229D02*
X81896Y-21286D01*
X81868Y-21343D01*
X81839Y-21372D01*
X81782Y-21401D01*
X81668Y-21429D01*
X81525Y-21429D01*
X81410Y-21401D01*
X81353Y-21372D01*
X81325Y-21343D01*
X81296Y-21286D01*
X81296Y-21229D01*
X81325Y-21172D01*
X81353Y-21143D01*
X81410Y-21115D01*
X81525Y-21086D01*
X81668Y-21086D01*
X81782Y-21115D01*
X81839Y-21143D01*
X81868Y-21172D01*
X81896Y-21229D01*
X81896Y-21800D02*
X81896Y-21857D01*
X81868Y-21914D01*
X81839Y-21943D01*
X81782Y-21972D01*
X81668Y-22000D01*
X81525Y-22000D01*
X81410Y-21972D01*
X81353Y-21943D01*
X81325Y-21914D01*
X81296Y-21857D01*
X81296Y-21800D01*
X81325Y-21743D01*
X81353Y-21714D01*
X81410Y-21686D01*
X81525Y-21657D01*
X81668Y-21657D01*
X81782Y-21686D01*
X81839Y-21714D01*
X81868Y-21743D01*
X81896Y-21800D01*
X81896Y-22685D02*
X81782Y-22685D01*
X81896Y-22914D02*
X81782Y-22914D01*
X80999Y-11500D02*
X80999Y-30500D01*
X80500Y-11500D02*
X82079Y-11500D01*
X80500Y-30500D02*
X82079Y-30500D01*
X80999Y-30500D02*
X80769Y-30057D01*
X80999Y-30500D02*
X81229Y-30057D01*
X80999Y-11500D02*
X80769Y-11943D01*
X80999Y-11500D02*
X81229Y-11943D01*
X43373Y-07854D02*
X43259Y-07854D01*
X43202Y-07882D01*
X43173Y-07911D01*
X43116Y-07997D01*
X43087Y-08111D01*
X43087Y-08340D01*
X43116Y-08397D01*
X43144Y-08425D01*
X43202Y-08454D01*
X43316Y-08454D01*
X43373Y-08425D01*
X43402Y-08397D01*
X43430Y-08340D01*
X43430Y-08197D01*
X43402Y-08140D01*
X43373Y-08111D01*
X43316Y-08082D01*
X43202Y-08082D01*
X43144Y-08111D01*
X43116Y-08140D01*
X43087Y-08197D01*
X43687Y-08397D02*
X43715Y-08425D01*
X43687Y-08454D01*
X43658Y-08425D01*
X43687Y-08397D01*
X43687Y-08454D01*
X43916Y-07854D02*
X44316Y-07854D01*
X44059Y-08454D01*
X44658Y-07854D02*
X44715Y-07854D01*
X44772Y-07882D01*
X44801Y-07911D01*
X44830Y-07968D01*
X44858Y-08082D01*
X44858Y-08225D01*
X44830Y-08340D01*
X44801Y-08397D01*
X44772Y-08425D01*
X44715Y-08454D01*
X44658Y-08454D01*
X44601Y-08425D01*
X44572Y-08397D01*
X44544Y-08340D01*
X44515Y-08225D01*
X44515Y-08082D01*
X44544Y-07968D01*
X44572Y-07911D01*
X44601Y-07882D01*
X44658Y-07854D01*
X45229Y-07854D02*
X45286Y-07854D01*
X45343Y-07882D01*
X45372Y-07911D01*
X45401Y-07968D01*
X45429Y-08082D01*
X45429Y-08225D01*
X45401Y-08340D01*
X45372Y-08397D01*
X45343Y-08425D01*
X45286Y-08454D01*
X45229Y-08454D01*
X45172Y-08425D01*
X45143Y-08397D01*
X45115Y-08340D01*
X45086Y-08225D01*
X45086Y-08082D01*
X45115Y-07968D01*
X45143Y-07911D01*
X45172Y-07882D01*
X45229Y-07854D01*
X45800Y-07854D02*
X45857Y-07854D01*
X45914Y-07882D01*
X45943Y-07911D01*
X45972Y-07968D01*
X46000Y-08082D01*
X46000Y-08225D01*
X45972Y-08340D01*
X45943Y-08397D01*
X45914Y-08425D01*
X45857Y-08454D01*
X45800Y-08454D01*
X45743Y-08425D01*
X45714Y-08397D01*
X45686Y-08340D01*
X45657Y-08225D01*
X45657Y-08082D01*
X45686Y-07968D01*
X45714Y-07911D01*
X45743Y-07882D01*
X45800Y-07854D01*
X46685Y-07854D02*
X46685Y-07968D01*
X46914Y-07854D02*
X46914Y-07968D01*
X11500Y-08751D02*
X78500Y-08751D01*
X11500Y-09500D02*
X11500Y-07671D01*
X78500Y-09500D02*
X78500Y-07671D01*
X78500Y-08751D02*
X78057Y-08981D01*
X78500Y-08751D02*
X78057Y-08521D01*
X11500Y-08751D02*
X11943Y-08981D01*
X11500Y-08751D02*
X11943Y-08521D01*
M02*
