G04 (created by PCBNEW-RS274X (2011-03-30 BZR 2932)-stable) date 05/03/11 18:11:55*
G01*
G70*
G90*
%MOIN*%
G04 Gerber Fmt 3.4, Leading zero omitted, Abs format*
%FSLAX34Y34*%
G04 APERTURE LIST*
%ADD10C,0.006000*%
%ADD11C,0.015000*%
G04 APERTURE END LIST*
G54D10*
G54D11*
X10500Y-100000D02*
X10490Y-100097D01*
X10462Y-100190D01*
X10416Y-100276D01*
X10354Y-100352D01*
X10279Y-100414D01*
X10193Y-100460D01*
X10100Y-100489D01*
X10003Y-100499D01*
X09907Y-100491D01*
X09813Y-100463D01*
X09727Y-100418D01*
X09651Y-100357D01*
X09588Y-100282D01*
X09541Y-100196D01*
X09511Y-100103D01*
X09501Y-100006D01*
X09509Y-99910D01*
X09536Y-99816D01*
X09580Y-99730D01*
X09641Y-99653D01*
X09715Y-99590D01*
X09800Y-99542D01*
X09893Y-99512D01*
X09990Y-99501D01*
X10086Y-99508D01*
X10180Y-99534D01*
X10267Y-99578D01*
X10344Y-99638D01*
X10408Y-99712D01*
X10456Y-99797D01*
X10487Y-99890D01*
X10499Y-99987D01*
X10500Y-100000D01*
X09000Y-100000D02*
X11000Y-100000D01*
X10000Y-99000D02*
X10000Y-101000D01*
X80500Y-100000D02*
X80490Y-100097D01*
X80462Y-100190D01*
X80416Y-100276D01*
X80354Y-100352D01*
X80279Y-100414D01*
X80193Y-100460D01*
X80100Y-100489D01*
X80003Y-100499D01*
X79907Y-100491D01*
X79813Y-100463D01*
X79727Y-100418D01*
X79651Y-100357D01*
X79588Y-100282D01*
X79541Y-100196D01*
X79511Y-100103D01*
X79501Y-100006D01*
X79509Y-99910D01*
X79536Y-99816D01*
X79580Y-99730D01*
X79641Y-99653D01*
X79715Y-99590D01*
X79800Y-99542D01*
X79893Y-99512D01*
X79990Y-99501D01*
X80086Y-99508D01*
X80180Y-99534D01*
X80267Y-99578D01*
X80344Y-99638D01*
X80408Y-99712D01*
X80456Y-99797D01*
X80487Y-99890D01*
X80499Y-99987D01*
X80500Y-100000D01*
X79000Y-100000D02*
X81000Y-100000D01*
X80000Y-99000D02*
X80000Y-101000D01*
X80500Y-10000D02*
X80490Y-10097D01*
X80462Y-10190D01*
X80416Y-10276D01*
X80354Y-10352D01*
X80279Y-10414D01*
X80193Y-10460D01*
X80100Y-10489D01*
X80003Y-10499D01*
X79907Y-10491D01*
X79813Y-10463D01*
X79727Y-10418D01*
X79651Y-10357D01*
X79588Y-10282D01*
X79541Y-10196D01*
X79511Y-10103D01*
X79501Y-10006D01*
X79509Y-09910D01*
X79536Y-09816D01*
X79580Y-09730D01*
X79641Y-09653D01*
X79715Y-09590D01*
X79800Y-09542D01*
X79893Y-09512D01*
X79990Y-09501D01*
X80086Y-09508D01*
X80180Y-09534D01*
X80267Y-09578D01*
X80344Y-09638D01*
X80408Y-09712D01*
X80456Y-09797D01*
X80487Y-09890D01*
X80499Y-09987D01*
X80500Y-10000D01*
X79000Y-10000D02*
X81000Y-10000D01*
X80000Y-09000D02*
X80000Y-11000D01*
X10500Y-10000D02*
X10490Y-10097D01*
X10462Y-10190D01*
X10416Y-10276D01*
X10354Y-10352D01*
X10279Y-10414D01*
X10193Y-10460D01*
X10100Y-10489D01*
X10003Y-10499D01*
X09907Y-10491D01*
X09813Y-10463D01*
X09727Y-10418D01*
X09651Y-10357D01*
X09588Y-10282D01*
X09541Y-10196D01*
X09511Y-10103D01*
X09501Y-10006D01*
X09509Y-09910D01*
X09536Y-09816D01*
X09580Y-09730D01*
X09641Y-09653D01*
X09715Y-09590D01*
X09800Y-09542D01*
X09893Y-09512D01*
X09990Y-09501D01*
X10086Y-09508D01*
X10180Y-09534D01*
X10267Y-09578D01*
X10344Y-09638D01*
X10408Y-09712D01*
X10456Y-09797D01*
X10487Y-09890D01*
X10499Y-09987D01*
X10500Y-10000D01*
X09000Y-10000D02*
X11000Y-10000D01*
X10000Y-09000D02*
X10000Y-11000D01*
X10000Y-100000D02*
X10000Y-10000D01*
X80000Y-100000D02*
X10000Y-100000D01*
X80000Y-10000D02*
X80000Y-100000D01*
X10000Y-10000D02*
X80000Y-10000D01*
M02*
