G04 (created by PCBNEW-RS274X (2011-12-28 BZR 3254)-stable) date 5/9/2012 1:30:30 PM*
G01*
G70*
G90*
%MOIN*%
G04 Gerber Fmt 3.4, Leading zero omitted, Abs format*
%FSLAX34Y34*%
G04 APERTURE LIST*
%ADD10C,0.006000*%
%ADD11C,0.010000*%
%ADD12C,0.015000*%
%ADD13C,0.012000*%
G04 APERTURE END LIST*
G54D10*
G54D11*
X42000Y-10175D02*
X42000Y-12175D01*
G54D12*
X25500Y-25175D02*
X25500Y-12175D01*
G54D13*
X41800Y-08949D02*
X42000Y-09749D01*
X42200Y-08949D01*
X39901Y-08448D02*
X39872Y-08486D01*
X39786Y-08524D01*
X39729Y-08524D01*
X39644Y-08486D01*
X39586Y-08410D01*
X39558Y-08333D01*
X39529Y-08181D01*
X39529Y-08067D01*
X39558Y-07914D01*
X39586Y-07838D01*
X39644Y-07762D01*
X39729Y-07724D01*
X39786Y-07724D01*
X39872Y-07762D01*
X39901Y-07800D01*
X40386Y-08486D02*
X40329Y-08524D01*
X40215Y-08524D01*
X40158Y-08486D01*
X40129Y-08410D01*
X40129Y-08105D01*
X40158Y-08029D01*
X40215Y-07990D01*
X40329Y-07990D01*
X40386Y-08029D01*
X40415Y-08105D01*
X40415Y-08181D01*
X40129Y-08257D01*
X40672Y-07990D02*
X40672Y-08524D01*
X40672Y-08067D02*
X40700Y-08029D01*
X40758Y-07990D01*
X40843Y-07990D01*
X40900Y-08029D01*
X40929Y-08105D01*
X40929Y-08524D01*
X41129Y-07990D02*
X41358Y-07990D01*
X41215Y-07724D02*
X41215Y-08410D01*
X41243Y-08486D01*
X41301Y-08524D01*
X41358Y-08524D01*
X41558Y-08524D02*
X41558Y-07990D01*
X41558Y-08143D02*
X41586Y-08067D01*
X41615Y-08029D01*
X41672Y-07990D01*
X41729Y-07990D01*
X42157Y-08486D02*
X42100Y-08524D01*
X41986Y-08524D01*
X41929Y-08486D01*
X41900Y-08410D01*
X41900Y-08105D01*
X41929Y-08029D01*
X41986Y-07990D01*
X42100Y-07990D01*
X42157Y-08029D01*
X42186Y-08105D01*
X42186Y-08181D01*
X41900Y-08257D01*
X43186Y-08524D02*
X42900Y-08524D01*
X42900Y-07724D01*
X43386Y-08524D02*
X43386Y-07990D01*
X43386Y-07724D02*
X43357Y-07762D01*
X43386Y-07800D01*
X43414Y-07762D01*
X43386Y-07724D01*
X43386Y-07800D01*
X43672Y-07990D02*
X43672Y-08524D01*
X43672Y-08067D02*
X43700Y-08029D01*
X43758Y-07990D01*
X43843Y-07990D01*
X43900Y-08029D01*
X43929Y-08105D01*
X43929Y-08524D01*
X44443Y-08486D02*
X44386Y-08524D01*
X44272Y-08524D01*
X44215Y-08486D01*
X44186Y-08410D01*
X44186Y-08105D01*
X44215Y-08029D01*
X44272Y-07990D01*
X44386Y-07990D01*
X44443Y-08029D01*
X44472Y-08105D01*
X44472Y-08181D01*
X44186Y-08257D01*
X41059Y-27839D02*
X41430Y-27839D01*
X41230Y-28144D01*
X41316Y-28144D01*
X41373Y-28182D01*
X41402Y-28220D01*
X41430Y-28296D01*
X41430Y-28486D01*
X41402Y-28563D01*
X41373Y-28601D01*
X41316Y-28639D01*
X41144Y-28639D01*
X41087Y-28601D01*
X41059Y-28563D01*
X41687Y-28563D02*
X41715Y-28601D01*
X41687Y-28639D01*
X41658Y-28601D01*
X41687Y-28563D01*
X41687Y-28639D01*
X42259Y-27839D02*
X41973Y-27839D01*
X41944Y-28220D01*
X41973Y-28182D01*
X42030Y-28144D01*
X42173Y-28144D01*
X42230Y-28182D01*
X42259Y-28220D01*
X42287Y-28296D01*
X42287Y-28486D01*
X42259Y-28563D01*
X42230Y-28601D01*
X42173Y-28639D01*
X42030Y-28639D01*
X41973Y-28601D01*
X41944Y-28563D01*
X42658Y-27839D02*
X42715Y-27839D01*
X42772Y-27877D01*
X42801Y-27915D01*
X42830Y-27991D01*
X42858Y-28144D01*
X42858Y-28334D01*
X42830Y-28486D01*
X42801Y-28563D01*
X42772Y-28601D01*
X42715Y-28639D01*
X42658Y-28639D01*
X42601Y-28601D01*
X42572Y-28563D01*
X42544Y-28486D01*
X42515Y-28334D01*
X42515Y-28144D01*
X42544Y-27991D01*
X42572Y-27915D01*
X42601Y-27877D01*
X42658Y-27839D01*
X43229Y-27839D02*
X43286Y-27839D01*
X43343Y-27877D01*
X43372Y-27915D01*
X43401Y-27991D01*
X43429Y-28144D01*
X43429Y-28334D01*
X43401Y-28486D01*
X43372Y-28563D01*
X43343Y-28601D01*
X43286Y-28639D01*
X43229Y-28639D01*
X43172Y-28601D01*
X43143Y-28563D01*
X43115Y-28486D01*
X43086Y-28334D01*
X43086Y-28144D01*
X43115Y-27991D01*
X43143Y-27915D01*
X43172Y-27877D01*
X43229Y-27839D01*
X43800Y-27839D02*
X43857Y-27839D01*
X43914Y-27877D01*
X43943Y-27915D01*
X43972Y-27991D01*
X44000Y-28144D01*
X44000Y-28334D01*
X43972Y-28486D01*
X43943Y-28563D01*
X43914Y-28601D01*
X43857Y-28639D01*
X43800Y-28639D01*
X43743Y-28601D01*
X43714Y-28563D01*
X43686Y-28486D01*
X43657Y-28334D01*
X43657Y-28144D01*
X43686Y-27991D01*
X43714Y-27915D01*
X43743Y-27877D01*
X43800Y-27839D01*
X44685Y-27839D02*
X44685Y-27991D01*
X44914Y-27839D02*
X44914Y-27991D01*
X25500Y-27675D02*
X60500Y-27675D01*
X25500Y-25175D02*
X25500Y-28955D01*
X60500Y-25175D02*
X60500Y-28955D01*
X60500Y-27675D02*
X60057Y-27905D01*
X60500Y-27675D02*
X60057Y-27445D01*
X25500Y-27675D02*
X25943Y-27905D01*
X25500Y-27675D02*
X25943Y-27445D01*
X61765Y-17105D02*
X61765Y-16762D01*
X61765Y-16934D02*
X62565Y-16934D01*
X62451Y-16877D01*
X62375Y-16819D01*
X62337Y-16762D01*
X61841Y-17362D02*
X61803Y-17390D01*
X61765Y-17362D01*
X61803Y-17333D01*
X61841Y-17362D01*
X61765Y-17362D01*
X62565Y-17591D02*
X62565Y-17962D01*
X62260Y-17762D01*
X62260Y-17848D01*
X62222Y-17905D01*
X62184Y-17934D01*
X62108Y-17962D01*
X61918Y-17962D01*
X61841Y-17934D01*
X61803Y-17905D01*
X61765Y-17848D01*
X61765Y-17676D01*
X61803Y-17619D01*
X61841Y-17591D01*
X62565Y-18333D02*
X62565Y-18390D01*
X62527Y-18447D01*
X62489Y-18476D01*
X62413Y-18505D01*
X62260Y-18533D01*
X62070Y-18533D01*
X61918Y-18505D01*
X61841Y-18476D01*
X61803Y-18447D01*
X61765Y-18390D01*
X61765Y-18333D01*
X61803Y-18276D01*
X61841Y-18247D01*
X61918Y-18219D01*
X62070Y-18190D01*
X62260Y-18190D01*
X62413Y-18219D01*
X62489Y-18247D01*
X62527Y-18276D01*
X62565Y-18333D01*
X62565Y-18904D02*
X62565Y-18961D01*
X62527Y-19018D01*
X62489Y-19047D01*
X62413Y-19076D01*
X62260Y-19104D01*
X62070Y-19104D01*
X61918Y-19076D01*
X61841Y-19047D01*
X61803Y-19018D01*
X61765Y-18961D01*
X61765Y-18904D01*
X61803Y-18847D01*
X61841Y-18818D01*
X61918Y-18790D01*
X62070Y-18761D01*
X62260Y-18761D01*
X62413Y-18790D01*
X62489Y-18818D01*
X62527Y-18847D01*
X62565Y-18904D01*
X62565Y-19475D02*
X62565Y-19532D01*
X62527Y-19589D01*
X62489Y-19618D01*
X62413Y-19647D01*
X62260Y-19675D01*
X62070Y-19675D01*
X61918Y-19647D01*
X61841Y-19618D01*
X61803Y-19589D01*
X61765Y-19532D01*
X61765Y-19475D01*
X61803Y-19418D01*
X61841Y-19389D01*
X61918Y-19361D01*
X62070Y-19332D01*
X62260Y-19332D01*
X62413Y-19361D01*
X62489Y-19389D01*
X62527Y-19418D01*
X62565Y-19475D01*
X62565Y-20360D02*
X62413Y-20360D01*
X62565Y-20589D02*
X62413Y-20589D01*
X61449Y-12175D02*
X61449Y-25175D01*
X60500Y-12175D02*
X62729Y-12175D01*
X60500Y-25175D02*
X62729Y-25175D01*
X61449Y-25175D02*
X61219Y-24732D01*
X61449Y-25175D02*
X61679Y-24732D01*
X61449Y-12175D02*
X61219Y-12618D01*
X61449Y-12175D02*
X61679Y-12618D01*
G54D12*
X25500Y-12175D02*
X60500Y-12175D01*
X60500Y-25175D02*
X60500Y-12175D01*
X25500Y-25175D02*
X60500Y-25175D01*
M02*
