G04 (created by PCBNEW-RS274X (2011-12-28 BZR 3254)-stable) date 5/28/2012 6:59:34 PM*
G01*
G70*
G90*
%MOIN*%
G04 Gerber Fmt 3.4, Leading zero omitted, Abs format*
%FSLAX34Y34*%
G04 APERTURE LIST*
%ADD10C,0.006000*%
%ADD11C,0.005000*%
%ADD12C,0.015000*%
%ADD13C,0.010000*%
%ADD14C,0.012000*%
G04 APERTURE END LIST*
G54D10*
G54D11*
X59812Y-17628D02*
X59812Y-17399D01*
X59812Y-17513D02*
X60212Y-17513D01*
X60155Y-17475D01*
X60117Y-17437D01*
X60098Y-17399D01*
X59850Y-17799D02*
X59831Y-17818D01*
X59812Y-17799D01*
X59831Y-17780D01*
X59850Y-17799D01*
X59812Y-17799D01*
X60212Y-17951D02*
X60212Y-18199D01*
X60060Y-18065D01*
X60060Y-18123D01*
X60041Y-18161D01*
X60022Y-18180D01*
X59984Y-18199D01*
X59888Y-18199D01*
X59850Y-18180D01*
X59831Y-18161D01*
X59812Y-18123D01*
X59812Y-18008D01*
X59831Y-17970D01*
X59850Y-17951D01*
X60212Y-18446D02*
X60212Y-18485D01*
X60193Y-18523D01*
X60174Y-18542D01*
X60136Y-18561D01*
X60060Y-18580D01*
X59964Y-18580D01*
X59888Y-18561D01*
X59850Y-18542D01*
X59831Y-18523D01*
X59812Y-18485D01*
X59812Y-18446D01*
X59831Y-18408D01*
X59850Y-18389D01*
X59888Y-18370D01*
X59964Y-18351D01*
X60060Y-18351D01*
X60136Y-18370D01*
X60174Y-18389D01*
X60193Y-18408D01*
X60212Y-18446D01*
X60212Y-18827D02*
X60212Y-18866D01*
X60193Y-18904D01*
X60174Y-18923D01*
X60136Y-18942D01*
X60060Y-18961D01*
X59964Y-18961D01*
X59888Y-18942D01*
X59850Y-18923D01*
X59831Y-18904D01*
X59812Y-18866D01*
X59812Y-18827D01*
X59831Y-18789D01*
X59850Y-18770D01*
X59888Y-18751D01*
X59964Y-18732D01*
X60060Y-18732D01*
X60136Y-18751D01*
X60174Y-18770D01*
X60193Y-18789D01*
X60212Y-18827D01*
X60212Y-19208D02*
X60212Y-19247D01*
X60193Y-19285D01*
X60174Y-19304D01*
X60136Y-19323D01*
X60060Y-19342D01*
X59964Y-19342D01*
X59888Y-19323D01*
X59850Y-19304D01*
X59831Y-19285D01*
X59812Y-19247D01*
X59812Y-19208D01*
X59831Y-19170D01*
X59850Y-19151D01*
X59888Y-19132D01*
X59964Y-19113D01*
X60060Y-19113D01*
X60136Y-19132D01*
X60174Y-19151D01*
X60193Y-19170D01*
X60212Y-19208D01*
X60212Y-19799D02*
X60136Y-19799D01*
X60212Y-19952D02*
X60136Y-19952D01*
X59674Y-12175D02*
X59674Y-25175D01*
X57500Y-12175D02*
X60274Y-12175D01*
X57500Y-25175D02*
X60274Y-25175D01*
X59674Y-25175D02*
X59444Y-24732D01*
X59674Y-25175D02*
X59904Y-24732D01*
X59674Y-12175D02*
X59444Y-12618D01*
X59674Y-12175D02*
X59904Y-12618D01*
X58787Y-14569D02*
X58787Y-14608D01*
X58768Y-14646D01*
X58749Y-14665D01*
X58711Y-14684D01*
X58635Y-14703D01*
X58539Y-14703D01*
X58463Y-14684D01*
X58425Y-14665D01*
X58406Y-14646D01*
X58387Y-14608D01*
X58387Y-14569D01*
X58406Y-14531D01*
X58425Y-14512D01*
X58463Y-14493D01*
X58539Y-14474D01*
X58635Y-14474D01*
X58711Y-14493D01*
X58749Y-14512D01*
X58768Y-14531D01*
X58787Y-14569D01*
X58425Y-14874D02*
X58406Y-14893D01*
X58387Y-14874D01*
X58406Y-14855D01*
X58425Y-14874D01*
X58387Y-14874D01*
X58787Y-15026D02*
X58787Y-15274D01*
X58635Y-15140D01*
X58635Y-15198D01*
X58616Y-15236D01*
X58597Y-15255D01*
X58559Y-15274D01*
X58463Y-15274D01*
X58425Y-15255D01*
X58406Y-15236D01*
X58387Y-15198D01*
X58387Y-15083D01*
X58406Y-15045D01*
X58425Y-15026D01*
X58787Y-15636D02*
X58787Y-15445D01*
X58597Y-15426D01*
X58616Y-15445D01*
X58635Y-15483D01*
X58635Y-15579D01*
X58616Y-15617D01*
X58597Y-15636D01*
X58559Y-15655D01*
X58463Y-15655D01*
X58425Y-15636D01*
X58406Y-15617D01*
X58387Y-15579D01*
X58387Y-15483D01*
X58406Y-15445D01*
X58425Y-15426D01*
X58787Y-15902D02*
X58787Y-15941D01*
X58768Y-15979D01*
X58749Y-15998D01*
X58711Y-16017D01*
X58635Y-16036D01*
X58539Y-16036D01*
X58463Y-16017D01*
X58425Y-15998D01*
X58406Y-15979D01*
X58387Y-15941D01*
X58387Y-15902D01*
X58406Y-15864D01*
X58425Y-15845D01*
X58463Y-15826D01*
X58539Y-15807D01*
X58635Y-15807D01*
X58711Y-15826D01*
X58749Y-15845D01*
X58768Y-15864D01*
X58787Y-15902D01*
X58787Y-16283D02*
X58787Y-16322D01*
X58768Y-16360D01*
X58749Y-16379D01*
X58711Y-16398D01*
X58635Y-16417D01*
X58539Y-16417D01*
X58463Y-16398D01*
X58425Y-16379D01*
X58406Y-16360D01*
X58387Y-16322D01*
X58387Y-16283D01*
X58406Y-16245D01*
X58425Y-16226D01*
X58463Y-16207D01*
X58539Y-16188D01*
X58635Y-16188D01*
X58711Y-16207D01*
X58749Y-16226D01*
X58768Y-16245D01*
X58787Y-16283D01*
X58787Y-16874D02*
X58711Y-16874D01*
X58787Y-17027D02*
X58711Y-17027D01*
X58249Y-14000D02*
X58249Y-17500D01*
X55500Y-14000D02*
X58849Y-14000D01*
X55500Y-17500D02*
X58849Y-17500D01*
X58249Y-17500D02*
X58019Y-17057D01*
X58249Y-17500D02*
X58479Y-17057D01*
X58249Y-14000D02*
X58019Y-14443D01*
X58249Y-14000D02*
X58479Y-14443D01*
X52819Y-10763D02*
X52858Y-10763D01*
X52896Y-10782D01*
X52915Y-10801D01*
X52934Y-10839D01*
X52953Y-10915D01*
X52953Y-11011D01*
X52934Y-11087D01*
X52915Y-11125D01*
X52896Y-11144D01*
X52858Y-11163D01*
X52819Y-11163D01*
X52781Y-11144D01*
X52762Y-11125D01*
X52743Y-11087D01*
X52724Y-11011D01*
X52724Y-10915D01*
X52743Y-10839D01*
X52762Y-10801D01*
X52781Y-10782D01*
X52819Y-10763D01*
X53124Y-11125D02*
X53143Y-11144D01*
X53124Y-11163D01*
X53105Y-11144D01*
X53124Y-11125D01*
X53124Y-11163D01*
X53276Y-10763D02*
X53524Y-10763D01*
X53390Y-10915D01*
X53448Y-10915D01*
X53486Y-10934D01*
X53505Y-10953D01*
X53524Y-10991D01*
X53524Y-11087D01*
X53505Y-11125D01*
X53486Y-11144D01*
X53448Y-11163D01*
X53333Y-11163D01*
X53295Y-11144D01*
X53276Y-11125D01*
X53771Y-10763D02*
X53810Y-10763D01*
X53848Y-10782D01*
X53867Y-10801D01*
X53886Y-10839D01*
X53905Y-10915D01*
X53905Y-11011D01*
X53886Y-11087D01*
X53867Y-11125D01*
X53848Y-11144D01*
X53810Y-11163D01*
X53771Y-11163D01*
X53733Y-11144D01*
X53714Y-11125D01*
X53695Y-11087D01*
X53676Y-11011D01*
X53676Y-10915D01*
X53695Y-10839D01*
X53714Y-10801D01*
X53733Y-10782D01*
X53771Y-10763D01*
X54152Y-10763D02*
X54191Y-10763D01*
X54229Y-10782D01*
X54248Y-10801D01*
X54267Y-10839D01*
X54286Y-10915D01*
X54286Y-11011D01*
X54267Y-11087D01*
X54248Y-11125D01*
X54229Y-11144D01*
X54191Y-11163D01*
X54152Y-11163D01*
X54114Y-11144D01*
X54095Y-11125D01*
X54076Y-11087D01*
X54057Y-11011D01*
X54057Y-10915D01*
X54076Y-10839D01*
X54095Y-10801D01*
X54114Y-10782D01*
X54152Y-10763D01*
X54533Y-10763D02*
X54572Y-10763D01*
X54610Y-10782D01*
X54629Y-10801D01*
X54648Y-10839D01*
X54667Y-10915D01*
X54667Y-11011D01*
X54648Y-11087D01*
X54629Y-11125D01*
X54610Y-11144D01*
X54572Y-11163D01*
X54533Y-11163D01*
X54495Y-11144D01*
X54476Y-11125D01*
X54457Y-11087D01*
X54438Y-11011D01*
X54438Y-10915D01*
X54457Y-10839D01*
X54476Y-10801D01*
X54495Y-10782D01*
X54533Y-10763D01*
X55124Y-10763D02*
X55124Y-10839D01*
X55277Y-10763D02*
X55277Y-10839D01*
X52500Y-11301D02*
X55500Y-11301D01*
X52500Y-14000D02*
X52500Y-10701D01*
X55500Y-14000D02*
X55500Y-10701D01*
X55500Y-11301D02*
X55057Y-11531D01*
X55500Y-11301D02*
X55057Y-11071D01*
X52500Y-11301D02*
X52943Y-11531D01*
X52500Y-11301D02*
X52943Y-11071D01*
X40724Y-19100D02*
X40743Y-19081D01*
X40781Y-19062D01*
X40877Y-19062D01*
X40915Y-19081D01*
X40934Y-19100D01*
X40953Y-19138D01*
X40953Y-19176D01*
X40934Y-19233D01*
X40705Y-19462D01*
X40953Y-19462D01*
X41124Y-19424D02*
X41143Y-19443D01*
X41124Y-19462D01*
X41105Y-19443D01*
X41124Y-19424D01*
X41124Y-19462D01*
X41276Y-19062D02*
X41543Y-19062D01*
X41371Y-19462D01*
X41771Y-19062D02*
X41810Y-19062D01*
X41848Y-19081D01*
X41867Y-19100D01*
X41886Y-19138D01*
X41905Y-19214D01*
X41905Y-19310D01*
X41886Y-19386D01*
X41867Y-19424D01*
X41848Y-19443D01*
X41810Y-19462D01*
X41771Y-19462D01*
X41733Y-19443D01*
X41714Y-19424D01*
X41695Y-19386D01*
X41676Y-19310D01*
X41676Y-19214D01*
X41695Y-19138D01*
X41714Y-19100D01*
X41733Y-19081D01*
X41771Y-19062D01*
X42152Y-19062D02*
X42191Y-19062D01*
X42229Y-19081D01*
X42248Y-19100D01*
X42267Y-19138D01*
X42286Y-19214D01*
X42286Y-19310D01*
X42267Y-19386D01*
X42248Y-19424D01*
X42229Y-19443D01*
X42191Y-19462D01*
X42152Y-19462D01*
X42114Y-19443D01*
X42095Y-19424D01*
X42076Y-19386D01*
X42057Y-19310D01*
X42057Y-19214D01*
X42076Y-19138D01*
X42095Y-19100D01*
X42114Y-19081D01*
X42152Y-19062D01*
X42533Y-19062D02*
X42572Y-19062D01*
X42610Y-19081D01*
X42629Y-19100D01*
X42648Y-19138D01*
X42667Y-19214D01*
X42667Y-19310D01*
X42648Y-19386D01*
X42629Y-19424D01*
X42610Y-19443D01*
X42572Y-19462D01*
X42533Y-19462D01*
X42495Y-19443D01*
X42476Y-19424D01*
X42457Y-19386D01*
X42438Y-19310D01*
X42438Y-19214D01*
X42457Y-19138D01*
X42476Y-19100D01*
X42495Y-19081D01*
X42533Y-19062D01*
X43124Y-19062D02*
X43124Y-19138D01*
X43277Y-19062D02*
X43277Y-19138D01*
X28500Y-19000D02*
X55500Y-19000D01*
X28500Y-17500D02*
X28500Y-19600D01*
X55500Y-17500D02*
X55500Y-19600D01*
X55500Y-19000D02*
X55057Y-19230D01*
X55500Y-19000D02*
X55057Y-18770D01*
X28500Y-19000D02*
X28943Y-19230D01*
X28500Y-19000D02*
X28943Y-18770D01*
X40205Y-27027D02*
X40453Y-27027D01*
X40319Y-27179D01*
X40377Y-27179D01*
X40415Y-27198D01*
X40434Y-27217D01*
X40453Y-27255D01*
X40453Y-27351D01*
X40434Y-27389D01*
X40415Y-27408D01*
X40377Y-27427D01*
X40262Y-27427D01*
X40224Y-27408D01*
X40205Y-27389D01*
X40624Y-27389D02*
X40643Y-27408D01*
X40624Y-27427D01*
X40605Y-27408D01*
X40624Y-27389D01*
X40624Y-27427D01*
X40795Y-27065D02*
X40814Y-27046D01*
X40852Y-27027D01*
X40948Y-27027D01*
X40986Y-27046D01*
X41005Y-27065D01*
X41024Y-27103D01*
X41024Y-27141D01*
X41005Y-27198D01*
X40776Y-27427D01*
X41024Y-27427D01*
X41271Y-27027D02*
X41310Y-27027D01*
X41348Y-27046D01*
X41367Y-27065D01*
X41386Y-27103D01*
X41405Y-27179D01*
X41405Y-27275D01*
X41386Y-27351D01*
X41367Y-27389D01*
X41348Y-27408D01*
X41310Y-27427D01*
X41271Y-27427D01*
X41233Y-27408D01*
X41214Y-27389D01*
X41195Y-27351D01*
X41176Y-27275D01*
X41176Y-27179D01*
X41195Y-27103D01*
X41214Y-27065D01*
X41233Y-27046D01*
X41271Y-27027D01*
X41652Y-27027D02*
X41691Y-27027D01*
X41729Y-27046D01*
X41748Y-27065D01*
X41767Y-27103D01*
X41786Y-27179D01*
X41786Y-27275D01*
X41767Y-27351D01*
X41748Y-27389D01*
X41729Y-27408D01*
X41691Y-27427D01*
X41652Y-27427D01*
X41614Y-27408D01*
X41595Y-27389D01*
X41576Y-27351D01*
X41557Y-27275D01*
X41557Y-27179D01*
X41576Y-27103D01*
X41595Y-27065D01*
X41614Y-27046D01*
X41652Y-27027D01*
X42033Y-27027D02*
X42072Y-27027D01*
X42110Y-27046D01*
X42129Y-27065D01*
X42148Y-27103D01*
X42167Y-27179D01*
X42167Y-27275D01*
X42148Y-27351D01*
X42129Y-27389D01*
X42110Y-27408D01*
X42072Y-27427D01*
X42033Y-27427D01*
X41995Y-27408D01*
X41976Y-27389D01*
X41957Y-27351D01*
X41938Y-27275D01*
X41938Y-27179D01*
X41957Y-27103D01*
X41976Y-27065D01*
X41995Y-27046D01*
X42033Y-27027D01*
X42624Y-27027D02*
X42624Y-27103D01*
X42777Y-27027D02*
X42777Y-27103D01*
X25500Y-26625D02*
X57500Y-26625D01*
X25500Y-25175D02*
X25500Y-27905D01*
X57500Y-25175D02*
X57500Y-27905D01*
X57500Y-26625D02*
X57057Y-26855D01*
X57500Y-26625D02*
X57057Y-26395D01*
X25500Y-26625D02*
X25943Y-26855D01*
X25500Y-26625D02*
X25943Y-26395D01*
G54D12*
X58000Y-12175D02*
X58000Y-25175D01*
G54D11*
X23798Y-15781D02*
X23798Y-15820D01*
X23779Y-15858D01*
X23760Y-15877D01*
X23722Y-15896D01*
X23646Y-15915D01*
X23550Y-15915D01*
X23474Y-15896D01*
X23436Y-15877D01*
X23417Y-15858D01*
X23398Y-15820D01*
X23398Y-15781D01*
X23417Y-15743D01*
X23436Y-15724D01*
X23474Y-15705D01*
X23550Y-15686D01*
X23646Y-15686D01*
X23722Y-15705D01*
X23760Y-15724D01*
X23779Y-15743D01*
X23798Y-15781D01*
X23436Y-16086D02*
X23417Y-16105D01*
X23398Y-16086D01*
X23417Y-16067D01*
X23436Y-16086D01*
X23398Y-16086D01*
X23398Y-16295D02*
X23398Y-16371D01*
X23417Y-16410D01*
X23436Y-16429D01*
X23493Y-16467D01*
X23570Y-16486D01*
X23722Y-16486D01*
X23760Y-16467D01*
X23779Y-16448D01*
X23798Y-16410D01*
X23798Y-16333D01*
X23779Y-16295D01*
X23760Y-16276D01*
X23722Y-16257D01*
X23627Y-16257D01*
X23589Y-16276D01*
X23570Y-16295D01*
X23550Y-16333D01*
X23550Y-16410D01*
X23570Y-16448D01*
X23589Y-16467D01*
X23627Y-16486D01*
X23798Y-16848D02*
X23798Y-16657D01*
X23608Y-16638D01*
X23627Y-16657D01*
X23646Y-16695D01*
X23646Y-16791D01*
X23627Y-16829D01*
X23608Y-16848D01*
X23570Y-16867D01*
X23474Y-16867D01*
X23436Y-16848D01*
X23417Y-16829D01*
X23398Y-16791D01*
X23398Y-16695D01*
X23417Y-16657D01*
X23436Y-16638D01*
X23798Y-17000D02*
X23798Y-17267D01*
X23398Y-17095D01*
X23798Y-17610D02*
X23798Y-17419D01*
X23608Y-17400D01*
X23627Y-17419D01*
X23646Y-17457D01*
X23646Y-17553D01*
X23627Y-17591D01*
X23608Y-17610D01*
X23570Y-17629D01*
X23474Y-17629D01*
X23436Y-17610D01*
X23417Y-17591D01*
X23398Y-17553D01*
X23398Y-17457D01*
X23417Y-17419D01*
X23436Y-17400D01*
X23798Y-18086D02*
X23722Y-18086D01*
X23798Y-18239D02*
X23722Y-18239D01*
X24200Y-12175D02*
X24200Y-21750D01*
X25500Y-12175D02*
X22920Y-12175D01*
X25500Y-21750D02*
X22920Y-21750D01*
X24200Y-21750D02*
X23970Y-21307D01*
X24200Y-21750D02*
X24430Y-21307D01*
X24200Y-12175D02*
X23970Y-12618D01*
X24200Y-12175D02*
X24430Y-12618D01*
X33528Y-10748D02*
X33299Y-10748D01*
X33413Y-10748D02*
X33413Y-10348D01*
X33375Y-10405D01*
X33337Y-10443D01*
X33299Y-10462D01*
X33699Y-10710D02*
X33718Y-10729D01*
X33699Y-10748D01*
X33680Y-10729D01*
X33699Y-10710D01*
X33699Y-10748D01*
X34061Y-10481D02*
X34061Y-10748D01*
X33965Y-10329D02*
X33870Y-10615D01*
X34118Y-10615D01*
X34327Y-10519D02*
X34289Y-10500D01*
X34270Y-10481D01*
X34251Y-10443D01*
X34251Y-10424D01*
X34270Y-10386D01*
X34289Y-10367D01*
X34327Y-10348D01*
X34404Y-10348D01*
X34442Y-10367D01*
X34461Y-10386D01*
X34480Y-10424D01*
X34480Y-10443D01*
X34461Y-10481D01*
X34442Y-10500D01*
X34404Y-10519D01*
X34327Y-10519D01*
X34289Y-10538D01*
X34270Y-10557D01*
X34251Y-10596D01*
X34251Y-10672D01*
X34270Y-10710D01*
X34289Y-10729D01*
X34327Y-10748D01*
X34404Y-10748D01*
X34442Y-10729D01*
X34461Y-10710D01*
X34480Y-10672D01*
X34480Y-10596D01*
X34461Y-10557D01*
X34442Y-10538D01*
X34404Y-10519D01*
X34842Y-10348D02*
X34651Y-10348D01*
X34632Y-10538D01*
X34651Y-10519D01*
X34689Y-10500D01*
X34785Y-10500D01*
X34823Y-10519D01*
X34842Y-10538D01*
X34861Y-10576D01*
X34861Y-10672D01*
X34842Y-10710D01*
X34823Y-10729D01*
X34785Y-10748D01*
X34689Y-10748D01*
X34651Y-10729D01*
X34632Y-10710D01*
X35108Y-10348D02*
X35147Y-10348D01*
X35185Y-10367D01*
X35204Y-10386D01*
X35223Y-10424D01*
X35242Y-10500D01*
X35242Y-10596D01*
X35223Y-10672D01*
X35204Y-10710D01*
X35185Y-10729D01*
X35147Y-10748D01*
X35108Y-10748D01*
X35070Y-10729D01*
X35051Y-10710D01*
X35032Y-10672D01*
X35013Y-10596D01*
X35013Y-10500D01*
X35032Y-10424D01*
X35051Y-10386D01*
X35070Y-10367D01*
X35108Y-10348D01*
X35699Y-10348D02*
X35699Y-10424D01*
X35852Y-10348D02*
X35852Y-10424D01*
X42000Y-11226D02*
X27150Y-11226D01*
X42000Y-12175D02*
X42000Y-09946D01*
X27150Y-12175D02*
X27150Y-09946D01*
X27150Y-11226D02*
X27593Y-10996D01*
X27150Y-11226D02*
X27593Y-11456D01*
X42000Y-11226D02*
X41557Y-10996D01*
X42000Y-11226D02*
X41557Y-11456D01*
G54D13*
X42000Y-10175D02*
X42000Y-12175D01*
G54D12*
X25500Y-25175D02*
X25500Y-12175D01*
G54D14*
X41800Y-08949D02*
X42000Y-09749D01*
X42200Y-08949D01*
X39901Y-08448D02*
X39872Y-08486D01*
X39786Y-08524D01*
X39729Y-08524D01*
X39644Y-08486D01*
X39586Y-08410D01*
X39558Y-08333D01*
X39529Y-08181D01*
X39529Y-08067D01*
X39558Y-07914D01*
X39586Y-07838D01*
X39644Y-07762D01*
X39729Y-07724D01*
X39786Y-07724D01*
X39872Y-07762D01*
X39901Y-07800D01*
X40386Y-08486D02*
X40329Y-08524D01*
X40215Y-08524D01*
X40158Y-08486D01*
X40129Y-08410D01*
X40129Y-08105D01*
X40158Y-08029D01*
X40215Y-07990D01*
X40329Y-07990D01*
X40386Y-08029D01*
X40415Y-08105D01*
X40415Y-08181D01*
X40129Y-08257D01*
X40672Y-07990D02*
X40672Y-08524D01*
X40672Y-08067D02*
X40700Y-08029D01*
X40758Y-07990D01*
X40843Y-07990D01*
X40900Y-08029D01*
X40929Y-08105D01*
X40929Y-08524D01*
X41129Y-07990D02*
X41358Y-07990D01*
X41215Y-07724D02*
X41215Y-08410D01*
X41243Y-08486D01*
X41301Y-08524D01*
X41358Y-08524D01*
X41558Y-08524D02*
X41558Y-07990D01*
X41558Y-08143D02*
X41586Y-08067D01*
X41615Y-08029D01*
X41672Y-07990D01*
X41729Y-07990D01*
X42157Y-08486D02*
X42100Y-08524D01*
X41986Y-08524D01*
X41929Y-08486D01*
X41900Y-08410D01*
X41900Y-08105D01*
X41929Y-08029D01*
X41986Y-07990D01*
X42100Y-07990D01*
X42157Y-08029D01*
X42186Y-08105D01*
X42186Y-08181D01*
X41900Y-08257D01*
X43186Y-08524D02*
X42900Y-08524D01*
X42900Y-07724D01*
X43386Y-08524D02*
X43386Y-07990D01*
X43386Y-07724D02*
X43357Y-07762D01*
X43386Y-07800D01*
X43414Y-07762D01*
X43386Y-07724D01*
X43386Y-07800D01*
X43672Y-07990D02*
X43672Y-08524D01*
X43672Y-08067D02*
X43700Y-08029D01*
X43758Y-07990D01*
X43843Y-07990D01*
X43900Y-08029D01*
X43929Y-08105D01*
X43929Y-08524D01*
X44443Y-08486D02*
X44386Y-08524D01*
X44272Y-08524D01*
X44215Y-08486D01*
X44186Y-08410D01*
X44186Y-08105D01*
X44215Y-08029D01*
X44272Y-07990D01*
X44386Y-07990D01*
X44443Y-08029D01*
X44472Y-08105D01*
X44472Y-08181D01*
X44186Y-08257D01*
G54D12*
X25500Y-12175D02*
X58000Y-12175D01*
X25500Y-25175D02*
X58000Y-25175D01*
M02*
