G04 (created by PCBNEW-RS274X (2011-12-28 BZR 3254)-stable) date 5/9/2012 1:30:30 PM*
G01*
G70*
G90*
%MOIN*%
G04 Gerber Fmt 3.4, Leading zero omitted, Abs format*
%FSLAX34Y34*%
G04 APERTURE LIST*
%ADD10C,0.006000*%
%ADD11C,0.015000*%
%ADD12R,0.130000X0.080000*%
%ADD13R,0.079000X0.071200*%
%ADD14R,0.076000X0.062000*%
%ADD15R,0.090000X0.090000*%
%ADD16C,0.090000*%
%ADD17R,0.094000X0.094000*%
%ADD18R,0.094000X0.064000*%
%ADD19R,0.094000X0.284000*%
%ADD20C,0.220000*%
G04 APERTURE END LIST*
G54D10*
G54D11*
X25500Y-25175D02*
X25500Y-12175D01*
X25500Y-12175D02*
X60500Y-12175D01*
X60500Y-25175D02*
X60500Y-12175D01*
X25500Y-25175D02*
X60500Y-25175D01*
G54D12*
X28000Y-16900D03*
X28000Y-18100D03*
X32000Y-16900D03*
X32000Y-18100D03*
X36000Y-16900D03*
X36000Y-18100D03*
X40000Y-16900D03*
X40000Y-18100D03*
X44000Y-16900D03*
X44000Y-18100D03*
X48000Y-16900D03*
X48000Y-18100D03*
X56000Y-16900D03*
X56000Y-18100D03*
X52000Y-16900D03*
X52000Y-18100D03*
X52000Y-13400D03*
X52000Y-14600D03*
X56000Y-13400D03*
X56000Y-14600D03*
X48000Y-13400D03*
X48000Y-14600D03*
X44000Y-13400D03*
X44000Y-14600D03*
X40000Y-13400D03*
X40000Y-14600D03*
X36000Y-13400D03*
X36000Y-14600D03*
X32000Y-13400D03*
X32000Y-14600D03*
X28000Y-13400D03*
X28000Y-14600D03*
G54D13*
X30000Y-17900D03*
X30000Y-17150D03*
X38000Y-17875D03*
X38000Y-17125D03*
X46000Y-17875D03*
X46000Y-17125D03*
X54000Y-17875D03*
X54000Y-17125D03*
X30000Y-14375D03*
X30000Y-13625D03*
X38000Y-14375D03*
X38000Y-13625D03*
X46000Y-14375D03*
X46000Y-13625D03*
X54000Y-14375D03*
X54000Y-13625D03*
X41400Y-21500D03*
X41400Y-20750D03*
G54D14*
X35990Y-23540D03*
X35990Y-22740D03*
G54D15*
X44225Y-23500D03*
G54D16*
X45225Y-23500D03*
X46225Y-23500D03*
X46225Y-22500D03*
X45225Y-22500D03*
X44225Y-22500D03*
G54D15*
X47225Y-23500D03*
G54D16*
X48225Y-23500D03*
X49225Y-23500D03*
X49225Y-22500D03*
X48225Y-22500D03*
X47225Y-22500D03*
G54D17*
X37730Y-21420D03*
G54D18*
X37730Y-22480D03*
G54D17*
X37730Y-23540D03*
G54D19*
X40170Y-22480D03*
G54D20*
X27150Y-21750D03*
X58875Y-14675D03*
X58875Y-23675D03*
G54D15*
X53225Y-23500D03*
G54D16*
X53225Y-22500D03*
G54D15*
X43225Y-23500D03*
G54D16*
X43225Y-22500D03*
X43225Y-21500D03*
G54D15*
X36000Y-20500D03*
G54D16*
X36000Y-19500D03*
X30500Y-24450D03*
G54D15*
X50225Y-23500D03*
G54D16*
X51225Y-23500D03*
X52225Y-23500D03*
X52225Y-22500D03*
X51225Y-22500D03*
X50225Y-22500D03*
M02*
