  0
SECTION
  2
HEADER
  9
$ANGBASE
  50
0.0
  9
$ANGDIR
  70
  1
  9
$MEASUREMENT
  70
0
  0
ENDSEC
  0
SECTION
  2
TABLES
  0
TABLE
  2
LTYPE
  70
1
  0
LTYPE
  2
CONTINUOUS
  70
0
  3
Solid line
  72
65
  73
0
  40
0.0
  0
ENDTAB
  0
TABLE
  2
STYLE
  70
4
  0
STYLE
  2
KICAD
  70
0
  40
0
  41
1
  42
1
  50
0
  71
0
  3
isocp.shx
  0
STYLE
  2
KICADB
  70
0
  40
0
  41
1
  42
1
  50
0
  71
0
  3
isocp.shx
  0
STYLE
  2
KICADI
  70
0
  40
0
  41
1
  42
1
  50
15
  71
0
  3
isocp.shx
  0
STYLE
  2
KICADBI
  70
0
  40
0
  41
1
  42
1
  50
15
  71
0
  3
isocp.shx
  0
ENDTAB
  0
TABLE
  2
LAYER
  70
24
  0
LAYER
  2
BLACK
  70
0
  62
250
  6
CONTINUOUS
  0
LAYER
  2
BLUE
  70
0
  62
5
  6
CONTINUOUS
  0
LAYER
  2
GREEN
  70
0
  62
3
  6
CONTINUOUS
  0
LAYER
  2
CYAN
  70
0
  62
4
  6
CONTINUOUS
  0
LAYER
  2
RED
  70
0
  62
1
  6
CONTINUOUS
  0
LAYER
  2
MAGENTA
  70
0
  62
6
  6
CONTINUOUS
  0
LAYER
  2
BROWN
  70
0
  62
54
  6
CONTINUOUS
  0
LAYER
  2
LIGHTGRAY
  70
0
  62
9
  6
CONTINUOUS
  0
LAYER
  2
DARKGRAY
  70
0
  62
8
  6
CONTINUOUS
  0
LAYER
  2
LIGHTBLUE
  70
0
  62
171
  6
CONTINUOUS
  0
LAYER
  2
LIGHTGREEN
  70
0
  62
91
  6
CONTINUOUS
  0
LAYER
  2
LIGHTCYAN
  70
0
  62
131
  6
CONTINUOUS
  0
LAYER
  2
LIGHTRED
  70
0
  62
11
  6
CONTINUOUS
  0
LAYER
  2
LIGHTMAGENTA
  70
0
  62
221
  6
CONTINUOUS
  0
LAYER
  2
YELLOW
  70
0
  62
2
  6
CONTINUOUS
  0
LAYER
  2
WHITE
  70
0
  62
7
  6
CONTINUOUS
  0
LAYER
  2
DARKDARKGRAY
  70
0
  62
251
  6
CONTINUOUS
  0
LAYER
  2
DARKBLUE
  70
0
  62
178
  6
CONTINUOUS
  0
LAYER
  2
DARKGREEN
  70
0
  62
98
  6
CONTINUOUS
  0
LAYER
  2
DARKCYAN
  70
0
  62
138
  6
CONTINUOUS
  0
LAYER
  2
DARKRED
  70
0
  62
18
  6
CONTINUOUS
  0
LAYER
  2
DARKMAGENTA
  70
0
  62
228
  6
CONTINUOUS
  0
LAYER
  2
DARKBROWN
  70
0
  62
58
  6
CONTINUOUS
  0
LAYER
  2
LIGHTYELLOW
  70
0
  62
51
  6
CONTINUOUS
  0
ENDTAB
  0
ENDSEC
  0
SECTION
  2
ENTITIES
0
LINE
8
BLACK
10
44.45
20
-48.3235
11
50.546
21
-48.3235
0
LINE
8
BLACK
10
44.45
20
-48.1965
11
50.546
21
-48.1965
0
ARC
8
BLACK
10
50.546
20
-48.26
40
0.0635
50
270
51
450
0
ARC
8
BLACK
10
44.45
20
-48.26
40
0.0635
50
90
51
270
0
ARC
8
BLACK
10
50.546
20
-49.53
40
1.27
50
0
51
90
0
ARC
8
BLACK
10
69.596
20
-49.53
40
1.27
50
90
51
180
0
ARC
8
BLACK
10
67.056
20
-50.8
40
1.27
50
-90
51
0
0
ARC
8
BLACK
10
53.086
20
-50.8
40
1.27
50
-180
51
-90
0
LINE
8
BLACK
10
68.3895
20
-50.8
11
68.3895
21
-49.53
0
LINE
8
BLACK
10
68.2625
20
-50.8
11
68.2625
21
-49.53
0
ARC
8
BLACK
10
68.326
20
-49.53
40
0.0635
50
360
51
540
0
ARC
8
BLACK
10
68.326
20
-50.8
40
0.0635
50
180
51
360
0
LINE
8
BLACK
10
51.8795
20
-50.8
11
51.8795
21
-49.53
0
LINE
8
BLACK
10
51.7525
20
-50.8
11
51.7525
21
-49.53
0
ARC
8
BLACK
10
51.816
20
-49.53
40
0.0635
50
360
51
540
0
ARC
8
BLACK
10
51.816
20
-50.8
40
0.0635
50
180
51
360
0
LINE
8
BLACK
10
53.086
20
-52.1335
11
67.056
21
-52.1335
0
LINE
8
BLACK
10
53.086
20
-52.0065
11
67.056
21
-52.0065
0
ARC
8
BLACK
10
67.056
20
-52.07
40
0.0635
50
270
51
450
0
ARC
8
BLACK
10
53.086
20
-52.07
40
0.0635
50
90
51
270
0
LINE
8
BLACK
10
69.596
20
-48.3235
11
107.95
21
-48.3235
0
LINE
8
BLACK
10
69.596
20
-48.1965
11
107.95
21
-48.1965
0
ARC
8
BLACK
10
107.95
20
-48.26
40
0.0635
50
270
51
450
0
ARC
8
BLACK
10
69.596
20
-48.26
40
0.0635
50
90
51
270
0
ARC
8
BLACK
10
120.65
20
-95.25
40
6.35
50
-90
51
0
0
ARC
8
BLACK
10
107.95
20
-107.95
40
6.35
50
-90
51
0
0
ARC
8
BLACK
10
120.65
20
-107.95
40
6.35
50
90
51
180
0
ARC
8
BLACK
10
44.45
20
-107.95
40
6.35
50
-180
51
-90
0
ARC
8
BLACK
10
31.75
20
-95.25
40
6.35
50
-180
51
-90
0
ARC
8
BLACK
10
31.75
20
-107.95
40
6.35
50
0
51
90
0
ARC
8
BLACK
10
107.95
20
-41.91
40
6.35
50
-90
51
0
0
ARC
8
BLACK
10
120.65
20
-41.91
40
6.35
50
0
51
90
0
ARC
8
BLACK
10
120.65
20
-41.91
40
6.35
50
90
51
180
0
ARC
8
BLACK
10
44.45
20
-41.91
40
6.35
50
-180
51
-90
0
ARC
8
BLACK
10
31.75
20
-41.91
40
6.35
50
0
51
90
0
ARC
8
BLACK
10
31.75
20
-41.91
40
6.35
50
90
51
180
0
LINE
8
BLACK
10
35.179
20
-97.9805
11
38.989
21
-97.9805
0
LINE
8
BLACK
10
35.179
20
-97.8535
11
38.989
21
-97.8535
0
ARC
8
BLACK
10
38.989
20
-97.917
40
0.0635
50
270
51
450
0
ARC
8
BLACK
10
35.179
20
-97.917
40
0.0635
50
90
51
270
0
LINE
8
BLACK
10
35.2425
20
-97.917
11
35.2425
21
-69.977
0
LINE
8
BLACK
10
35.1155
20
-97.917
11
35.1155
21
-69.977
0
ARC
8
BLACK
10
35.179
20
-69.977
40
0.0635
50
360
51
540
0
ARC
8
BLACK
10
35.179
20
-97.917
40
0.0635
50
180
51
360
0
LINE
8
BLACK
10
35.179
20
-70.0405
11
38.989
21
-70.0405
0
LINE
8
BLACK
10
35.179
20
-69.9135
11
38.989
21
-69.9135
0
ARC
8
BLACK
10
38.989
20
-69.977
40
0.0635
50
270
51
450
0
ARC
8
BLACK
10
35.179
20
-69.977
40
0.0635
50
90
51
270
0
LINE
8
BLACK
10
39.0525
20
-97.917
11
39.0525
21
-69.977
0
LINE
8
BLACK
10
38.9255
20
-97.917
11
38.9255
21
-69.977
0
ARC
8
BLACK
10
38.989
20
-69.977
40
0.0635
50
360
51
540
0
ARC
8
BLACK
10
38.989
20
-97.917
40
0.0635
50
180
51
360
0
LINE
8
BLACK
10
44.45
20
-114.364
11
107.95
21
-114.364
0
LINE
8
BLACK
10
44.45
20
-114.237
11
107.95
21
-114.237
0
ARC
8
BLACK
10
107.95
20
-114.3
40
0.0635
50
270
51
450
0
ARC
8
BLACK
10
44.45
20
-114.3
40
0.0635
50
90
51
270
0
LINE
8
BLACK
10
25.4635
20
-95.25
11
25.4635
21
-41.91
0
LINE
8
BLACK
10
25.3365
20
-95.25
11
25.3365
21
-41.91
0
ARC
8
BLACK
10
25.4
20
-41.91
40
0.0635
50
360
51
540
0
ARC
8
BLACK
10
25.4
20
-95.25
40
0.0635
50
180
51
360
0
LINE
8
BLACK
10
127.064
20
-95.25
11
127.064
21
-41.91
0
LINE
8
BLACK
10
126.937
20
-95.25
11
126.937
21
-41.91
0
ARC
8
BLACK
10
127
20
-41.91
40
0.0635
50
360
51
540
0
ARC
8
BLACK
10
127
20
-95.25
40
0.0635
50
180
51
360
  0
ENDSEC
  0
EOF
