  0
SECTION
  2
HEADER
  9
$ANGBASE
  50
0.0
  9
$ANGDIR
  70
  1
  9
$MEASUREMENT
  70
0
  0
ENDSEC
  0
SECTION
  2
TABLES
  0
TABLE
  2
LTYPE
  70
1
  0
LTYPE
  2
CONTINUOUS
  70
0
  3
Solid line
  72
65
  73
0
  40
0.0
  0
ENDTAB
  0
TABLE
  2
STYLE
  70
4
  0
STYLE
  2
KICAD
  70
0
  40
0
  41
1
  42
1
  50
0
  71
0
  3
isocp.shx
  0
STYLE
  2
KICADB
  70
0
  40
0
  41
1
  42
1
  50
0
  71
0
  3
isocp.shx
  0
STYLE
  2
KICADI
  70
0
  40
0
  41
1
  42
1
  50
15
  71
0
  3
isocp.shx
  0
STYLE
  2
KICADBI
  70
0
  40
0
  41
1
  42
1
  50
15
  71
0
  3
isocp.shx
  0
ENDTAB
  0
TABLE
  2
LAYER
  70
24
  0
LAYER
  2
BLACK
  70
0
  62
250
  6
CONTINUOUS
  0
LAYER
  2
BLUE
  70
0
  62
5
  6
CONTINUOUS
  0
LAYER
  2
GREEN
  70
0
  62
3
  6
CONTINUOUS
  0
LAYER
  2
CYAN
  70
0
  62
4
  6
CONTINUOUS
  0
LAYER
  2
RED
  70
0
  62
1
  6
CONTINUOUS
  0
LAYER
  2
MAGENTA
  70
0
  62
6
  6
CONTINUOUS
  0
LAYER
  2
BROWN
  70
0
  62
54
  6
CONTINUOUS
  0
LAYER
  2
LIGHTGRAY
  70
0
  62
9
  6
CONTINUOUS
  0
LAYER
  2
DARKGRAY
  70
0
  62
8
  6
CONTINUOUS
  0
LAYER
  2
LIGHTBLUE
  70
0
  62
171
  6
CONTINUOUS
  0
LAYER
  2
LIGHTGREEN
  70
0
  62
91
  6
CONTINUOUS
  0
LAYER
  2
LIGHTCYAN
  70
0
  62
131
  6
CONTINUOUS
  0
LAYER
  2
LIGHTRED
  70
0
  62
11
  6
CONTINUOUS
  0
LAYER
  2
LIGHTMAGENTA
  70
0
  62
221
  6
CONTINUOUS
  0
LAYER
  2
YELLOW
  70
0
  62
2
  6
CONTINUOUS
  0
LAYER
  2
WHITE
  70
0
  62
7
  6
CONTINUOUS
  0
LAYER
  2
DARKDARKGRAY
  70
0
  62
251
  6
CONTINUOUS
  0
LAYER
  2
DARKBLUE
  70
0
  62
178
  6
CONTINUOUS
  0
LAYER
  2
DARKGREEN
  70
0
  62
98
  6
CONTINUOUS
  0
LAYER
  2
DARKCYAN
  70
0
  62
138
  6
CONTINUOUS
  0
LAYER
  2
DARKRED
  70
0
  62
18
  6
CONTINUOUS
  0
LAYER
  2
DARKMAGENTA
  70
0
  62
228
  6
CONTINUOUS
  0
LAYER
  2
DARKBROWN
  70
0
  62
58
  6
CONTINUOUS
  0
LAYER
  2
LIGHTYELLOW
  70
0
  62
51
  6
CONTINUOUS
  0
ENDTAB
  0
ENDSEC
  0
SECTION
  2
ENTITIES
0
LINE
8
BLACK
10
44.45
20
-48.3235
11
50.546
21
-48.3235
0
LINE
8
BLACK
10
44.45
20
-48.1965
11
50.546
21
-48.1965
0
ARC
8
BLACK
10
50.546
20
-48.26
40
0.0635
50
270
51
450
0
ARC
8
BLACK
10
44.45
20
-48.26
40
0.0635
50
90
51
270
0
ARC
8
BLACK
10
50.546
20
-49.53
40
1.27
50
0
51
90
0
ARC
8
BLACK
10
69.596
20
-49.53
40
1.27
50
90
51
180
0
ARC
8
BLACK
10
67.056
20
-50.8
40
1.27
50
-90
51
0
0
ARC
8
BLACK
10
53.086
20
-50.8
40
1.27
50
-180
51
-90
0
LINE
8
BLACK
10
68.3895
20
-50.8
11
68.3895
21
-49.53
0
LINE
8
BLACK
10
68.2625
20
-50.8
11
68.2625
21
-49.53
0
ARC
8
BLACK
10
68.326
20
-49.53
40
0.0635
50
360
51
540
0
ARC
8
BLACK
10
68.326
20
-50.8
40
0.0635
50
180
51
360
0
LINE
8
BLACK
10
51.8795
20
-50.8
11
51.8795
21
-49.53
0
LINE
8
BLACK
10
51.7525
20
-50.8
11
51.7525
21
-49.53
0
ARC
8
BLACK
10
51.816
20
-49.53
40
0.0635
50
360
51
540
0
ARC
8
BLACK
10
51.816
20
-50.8
40
0.0635
50
180
51
360
0
LINE
8
BLACK
10
53.086
20
-52.1335
11
67.056
21
-52.1335
0
LINE
8
BLACK
10
53.086
20
-52.0065
11
67.056
21
-52.0065
0
ARC
8
BLACK
10
67.056
20
-52.07
40
0.0635
50
270
51
450
0
ARC
8
BLACK
10
53.086
20
-52.07
40
0.0635
50
90
51
270
0
LINE
8
BLACK
10
69.596
20
-48.3235
11
107.95
21
-48.3235
0
LINE
8
BLACK
10
69.596
20
-48.1965
11
107.95
21
-48.1965
0
ARC
8
BLACK
10
107.95
20
-48.26
40
0.0635
50
270
51
450
0
ARC
8
BLACK
10
69.596
20
-48.26
40
0.0635
50
90
51
270
0
ARC
8
BLACK
10
120.65
20
-95.25
40
6.35
50
-90
51
0
0
ARC
8
BLACK
10
107.95
20
-107.95
40
6.35
50
-90
51
0
0
ARC
8
BLACK
10
120.65
20
-107.95
40
6.35
50
90
51
180
0
ARC
8
BLACK
10
44.45
20
-107.95
40
6.35
50
-180
51
-90
0
ARC
8
BLACK
10
31.75
20
-95.25
40
6.35
50
-180
51
-90
0
ARC
8
BLACK
10
31.75
20
-107.95
40
6.35
50
0
51
90
0
ARC
8
BLACK
10
107.95
20
-41.91
40
6.35
50
-90
51
0
0
ARC
8
BLACK
10
120.65
20
-41.91
40
6.35
50
0
51
90
0
ARC
8
BLACK
10
120.65
20
-41.91
40
6.35
50
90
51
180
0
ARC
8
BLACK
10
44.45
20
-41.91
40
6.35
50
-180
51
-90
0
ARC
8
BLACK
10
31.75
20
-41.91
40
6.35
50
0
51
90
0
ARC
8
BLACK
10
31.75
20
-41.91
40
6.35
50
90
51
180
0
LINE
8
BLACK
10
35.179
20
-97.9805
11
38.989
21
-97.9805
0
LINE
8
BLACK
10
35.179
20
-97.8535
11
38.989
21
-97.8535
0
ARC
8
BLACK
10
38.989
20
-97.917
40
0.0635
50
270
51
450
0
ARC
8
BLACK
10
35.179
20
-97.917
40
0.0635
50
90
51
270
0
LINE
8
BLACK
10
35.2425
20
-97.917
11
35.2425
21
-69.977
0
LINE
8
BLACK
10
35.1155
20
-97.917
11
35.1155
21
-69.977
0
ARC
8
BLACK
10
35.179
20
-69.977
40
0.0635
50
360
51
540
0
ARC
8
BLACK
10
35.179
20
-97.917
40
0.0635
50
180
51
360
0
LINE
8
BLACK
10
35.179
20
-70.0405
11
38.989
21
-70.0405
0
LINE
8
BLACK
10
35.179
20
-69.9135
11
38.989
21
-69.9135
0
ARC
8
BLACK
10
38.989
20
-69.977
40
0.0635
50
270
51
450
0
ARC
8
BLACK
10
35.179
20
-69.977
40
0.0635
50
90
51
270
0
LINE
8
BLACK
10
39.0525
20
-97.917
11
39.0525
21
-69.977
0
LINE
8
BLACK
10
38.9255
20
-97.917
11
38.9255
21
-69.977
0
ARC
8
BLACK
10
38.989
20
-69.977
40
0.0635
50
360
51
540
0
ARC
8
BLACK
10
38.989
20
-97.917
40
0.0635
50
180
51
360
0
LINE
8
BLACK
10
44.45
20
-114.364
11
107.95
21
-114.364
0
LINE
8
BLACK
10
44.45
20
-114.237
11
107.95
21
-114.237
0
ARC
8
BLACK
10
107.95
20
-114.3
40
0.0635
50
270
51
450
0
ARC
8
BLACK
10
44.45
20
-114.3
40
0.0635
50
90
51
270
0
LINE
8
BLACK
10
25.4635
20
-95.25
11
25.4635
21
-41.91
0
LINE
8
BLACK
10
25.3365
20
-95.25
11
25.3365
21
-41.91
0
ARC
8
BLACK
10
25.4
20
-41.91
40
0.0635
50
360
51
540
0
ARC
8
BLACK
10
25.4
20
-95.25
40
0.0635
50
180
51
360
0
LINE
8
BLACK
10
127.064
20
-95.25
11
127.064
21
-41.91
0
LINE
8
BLACK
10
126.937
20
-95.25
11
126.937
21
-41.91
0
ARC
8
BLACK
10
127
20
-41.91
40
0.0635
50
360
51
540
0
ARC
8
BLACK
10
127
20
-95.25
40
0.0635
50
180
51
360
0
CIRCLE
8
BLACK
10
103.149
20
-78.486
40
0.508
0
CIRCLE
8
BLACK
10
94.996
20
-82.2325
40
0.508
0
LINE
8
BLACK
10
41.148
20
-104.648
11
41.148
21
-106.172
0
LINE
8
BLACK
10
41.148
20
-106.172
11
42.672
21
-106.172
0
LINE
8
BLACK
10
42.672
20
-106.172
11
42.672
21
-104.648
0
LINE
8
BLACK
10
42.672
20
-104.648
11
41.148
21
-104.648
0
LINE
8
BLACK
10
43.688
20
-104.648
11
43.688
21
-106.172
0
LINE
8
BLACK
10
43.688
20
-106.172
11
45.212
21
-106.172
0
LINE
8
BLACK
10
45.212
20
-106.172
11
45.212
21
-104.648
0
LINE
8
BLACK
10
45.212
20
-104.648
11
43.688
21
-104.648
0
CIRCLE
8
BLACK
10
46.99
20
-105.41
40
0.762
0
CIRCLE
8
BLACK
10
49.53
20
-105.41
40
0.762
0
CIRCLE
8
BLACK
10
52.07
20
-105.41
40
0.762
0
CIRCLE
8
BLACK
10
54.61
20
-105.41
40
0.762
0
CIRCLE
8
BLACK
10
31.75
20
-41.91
40
5.715
0
CIRCLE
8
BLACK
10
118.11
20
-75.438
40
0.889
0
CIRCLE
8
BLACK
10
118.11
20
-77.978
40
0.889
0
CIRCLE
8
BLACK
10
118.11
20
-80.518
40
0.889
0
LINE
8
BLACK
10
118.999
20
-82.169
11
117.221
21
-82.169
0
LINE
8
BLACK
10
117.221
20
-82.169
11
117.221
21
-83.947
0
LINE
8
BLACK
10
117.221
20
-83.947
11
118.999
21
-83.947
0
LINE
8
BLACK
10
118.999
20
-83.947
11
118.999
21
-82.169
0
CIRCLE
8
BLACK
10
94.996
20
-79.6925
40
0.508
0
CIRCLE
8
BLACK
10
101.092
20
-93.472
40
0.508
0
CIRCLE
8
BLACK
10
103.632
20
-93.472
40
0.508
0
CIRCLE
8
BLACK
10
120.65
20
-41.91
40
5.715
0
CIRCLE
8
BLACK
10
26.924
20
-89.8525
40
0.9525
0
CIRCLE
8
BLACK
10
26.924
20
-83.2485
40
0.9525
0
CIRCLE
8
BLACK
10
115.761
20
-53.2765
40
0.762
0
CIRCLE
8
BLACK
10
115.761
20
-55.8165
40
0.762
0
CIRCLE
8
BLACK
10
95.6945
20
-55.499
40
0.508
0
CIRCLE
8
BLACK
10
28.194
20
-66.04
40
1.9685
0
CIRCLE
8
BLACK
10
28.194
20
-93.98
40
1.9685
0
LINE
8
BLACK
10
32.0675
20
-52.1335
11
32.0675
21
-54.1655
0
LINE
8
BLACK
10
34.6075
20
-52.1335
11
34.6075
21
-54.1655
0
ARC
8
BLACK
10
33.3375
20
-54.1655
40
1.27
50
180
51
360
0
ARC
8
BLACK
10
33.3375
20
-52.1335
40
1.27
50
0
51
180
0
LINE
8
BLACK
10
38.0675
20
-50.6095
11
38.0675
21
-55.6895
0
LINE
8
BLACK
10
38.0675
20
-55.6895
11
40.6075
21
-55.6895
0
LINE
8
BLACK
10
40.6075
20
-55.6895
11
40.6075
21
-50.6095
0
LINE
8
BLACK
10
40.6075
20
-50.6095
11
38.0675
21
-50.6095
0
LINE
8
BLACK
10
35.3215
20
-49.1385
11
37.3535
21
-49.1385
0
LINE
8
BLACK
10
35.3215
20
-47.3605
11
37.3535
21
-47.3605
0
ARC
8
BLACK
10
37.3535
20
-48.2495
40
0.889
50
270
51
450
0
ARC
8
BLACK
10
35.3215
20
-48.2495
40
0.889
50
90
51
270
0
CIRCLE
8
BLACK
10
122.844
20
-59.938
40
0.5715
0
CIRCLE
8
BLACK
10
122.844
20
-67.938
40
0.5715
0
LINE
8
BLACK
10
121.45
20
-71.6788
11
121.45
21
-70.4088
0
LINE
8
BLACK
10
121.45
20
-70.4088
11
120.434
21
-70.4088
0
LINE
8
BLACK
10
120.434
20
-70.4088
11
120.434
21
-71.6788
0
LINE
8
BLACK
10
120.434
20
-71.6788
11
121.45
21
-71.6788
0
LINE
8
BLACK
10
123.482
20
-71.6788
11
123.482
21
-70.4088
0
LINE
8
BLACK
10
123.482
20
-70.4088
11
122.466
21
-70.4088
0
LINE
8
BLACK
10
122.466
20
-70.4088
11
122.466
21
-71.6788
0
LINE
8
BLACK
10
122.466
20
-71.6788
11
123.482
21
-71.6788
0
LINE
8
BLACK
10
62.4586
20
-112.928
11
63.9826
21
-112.928
0
LINE
8
BLACK
10
63.9826
20
-112.928
11
63.9826
21
-111.15
0
LINE
8
BLACK
10
63.9826
20
-111.15
11
62.4586
21
-111.15
0
LINE
8
BLACK
10
62.4586
20
-111.15
11
62.4586
21
-112.928
0
LINE
8
BLACK
10
62.4586
20
-104.75
11
63.9826
21
-104.75
0
LINE
8
BLACK
10
63.9826
20
-104.75
11
63.9826
21
-102.972
0
LINE
8
BLACK
10
63.9826
20
-102.972
11
62.4586
21
-102.972
0
LINE
8
BLACK
10
62.4586
20
-102.972
11
62.4586
21
-104.75
0
LINE
8
BLACK
10
57.9374
20
-104.75
11
59.4614
21
-104.75
0
LINE
8
BLACK
10
59.4614
20
-104.75
11
59.4614
21
-102.972
0
LINE
8
BLACK
10
59.4614
20
-102.972
11
57.9374
21
-102.972
0
LINE
8
BLACK
10
57.9374
20
-102.972
11
57.9374
21
-104.75
0
LINE
8
BLACK
10
57.9374
20
-112.928
11
59.4614
21
-112.928
0
LINE
8
BLACK
10
59.4614
20
-112.928
11
59.4614
21
-111.15
0
LINE
8
BLACK
10
59.4614
20
-111.15
11
57.9374
21
-111.15
0
LINE
8
BLACK
10
57.9374
20
-111.15
11
57.9374
21
-112.928
0
LINE
8
BLACK
10
82.7786
20
-112.928
11
84.3026
21
-112.928
0
LINE
8
BLACK
10
84.3026
20
-112.928
11
84.3026
21
-111.15
0
LINE
8
BLACK
10
84.3026
20
-111.15
11
82.7786
21
-111.15
0
LINE
8
BLACK
10
82.7786
20
-111.15
11
82.7786
21
-112.928
0
LINE
8
BLACK
10
82.7786
20
-104.75
11
84.3026
21
-104.75
0
LINE
8
BLACK
10
84.3026
20
-104.75
11
84.3026
21
-102.972
0
LINE
8
BLACK
10
84.3026
20
-102.972
11
82.7786
21
-102.972
0
LINE
8
BLACK
10
82.7786
20
-102.972
11
82.7786
21
-104.75
0
LINE
8
BLACK
10
78.2574
20
-104.75
11
79.7814
21
-104.75
0
LINE
8
BLACK
10
79.7814
20
-104.75
11
79.7814
21
-102.972
0
LINE
8
BLACK
10
79.7814
20
-102.972
11
78.2574
21
-102.972
0
LINE
8
BLACK
10
78.2574
20
-102.972
11
78.2574
21
-104.75
0
LINE
8
BLACK
10
78.2574
20
-112.928
11
79.7814
21
-112.928
0
LINE
8
BLACK
10
79.7814
20
-112.928
11
79.7814
21
-111.15
0
LINE
8
BLACK
10
79.7814
20
-111.15
11
78.2574
21
-111.15
0
LINE
8
BLACK
10
78.2574
20
-111.15
11
78.2574
21
-112.928
0
LINE
8
BLACK
10
92.9386
20
-112.928
11
94.4626
21
-112.928
0
LINE
8
BLACK
10
94.4626
20
-112.928
11
94.4626
21
-111.15
0
LINE
8
BLACK
10
94.4626
20
-111.15
11
92.9386
21
-111.15
0
LINE
8
BLACK
10
92.9386
20
-111.15
11
92.9386
21
-112.928
0
LINE
8
BLACK
10
92.9386
20
-104.75
11
94.4626
21
-104.75
0
LINE
8
BLACK
10
94.4626
20
-104.75
11
94.4626
21
-102.972
0
LINE
8
BLACK
10
94.4626
20
-102.972
11
92.9386
21
-102.972
0
LINE
8
BLACK
10
92.9386
20
-102.972
11
92.9386
21
-104.75
0
LINE
8
BLACK
10
88.4174
20
-104.75
11
89.9414
21
-104.75
0
LINE
8
BLACK
10
89.9414
20
-104.75
11
89.9414
21
-102.972
0
LINE
8
BLACK
10
89.9414
20
-102.972
11
88.4174
21
-102.972
0
LINE
8
BLACK
10
88.4174
20
-102.972
11
88.4174
21
-104.75
0
LINE
8
BLACK
10
88.4174
20
-112.928
11
89.9414
21
-112.928
0
LINE
8
BLACK
10
89.9414
20
-112.928
11
89.9414
21
-111.15
0
LINE
8
BLACK
10
89.9414
20
-111.15
11
88.4174
21
-111.15
0
LINE
8
BLACK
10
88.4174
20
-111.15
11
88.4174
21
-112.928
0
LINE
8
BLACK
10
72.6186
20
-112.928
11
74.1426
21
-112.928
0
LINE
8
BLACK
10
74.1426
20
-112.928
11
74.1426
21
-111.15
0
LINE
8
BLACK
10
74.1426
20
-111.15
11
72.6186
21
-111.15
0
LINE
8
BLACK
10
72.6186
20
-111.15
11
72.6186
21
-112.928
0
LINE
8
BLACK
10
72.6186
20
-104.75
11
74.1426
21
-104.75
0
LINE
8
BLACK
10
74.1426
20
-104.75
11
74.1426
21
-102.972
0
LINE
8
BLACK
10
74.1426
20
-102.972
11
72.6186
21
-102.972
0
LINE
8
BLACK
10
72.6186
20
-102.972
11
72.6186
21
-104.75
0
LINE
8
BLACK
10
68.0974
20
-104.75
11
69.6214
21
-104.75
0
LINE
8
BLACK
10
69.6214
20
-104.75
11
69.6214
21
-102.972
0
LINE
8
BLACK
10
69.6214
20
-102.972
11
68.0974
21
-102.972
0
LINE
8
BLACK
10
68.0974
20
-102.972
11
68.0974
21
-104.75
0
LINE
8
BLACK
10
68.0974
20
-112.928
11
69.6214
21
-112.928
0
LINE
8
BLACK
10
69.6214
20
-112.928
11
69.6214
21
-111.15
0
LINE
8
BLACK
10
69.6214
20
-111.15
11
68.0974
21
-111.15
0
LINE
8
BLACK
10
68.0974
20
-111.15
11
68.0974
21
-112.928
0
LINE
8
BLACK
10
107.798
20
-112.928
11
109.322
21
-112.928
0
LINE
8
BLACK
10
109.322
20
-112.928
11
109.322
21
-111.15
0
LINE
8
BLACK
10
109.322
20
-111.15
11
107.798
21
-111.15
0
LINE
8
BLACK
10
107.798
20
-111.15
11
107.798
21
-112.928
0
LINE
8
BLACK
10
107.798
20
-104.75
11
109.322
21
-104.75
0
LINE
8
BLACK
10
109.322
20
-104.75
11
109.322
21
-102.972
0
LINE
8
BLACK
10
109.322
20
-102.972
11
107.798
21
-102.972
0
LINE
8
BLACK
10
107.798
20
-102.972
11
107.798
21
-104.75
0
LINE
8
BLACK
10
103.276
20
-104.75
11
104.8
21
-104.75
0
LINE
8
BLACK
10
104.8
20
-104.75
11
104.8
21
-102.972
0
LINE
8
BLACK
10
104.8
20
-102.972
11
103.276
21
-102.972
0
LINE
8
BLACK
10
103.276
20
-102.972
11
103.276
21
-104.75
0
LINE
8
BLACK
10
103.276
20
-112.928
11
104.8
21
-112.928
0
LINE
8
BLACK
10
104.8
20
-112.928
11
104.8
21
-111.15
0
LINE
8
BLACK
10
104.8
20
-111.15
11
103.276
21
-111.15
0
LINE
8
BLACK
10
103.276
20
-111.15
11
103.276
21
-112.928
0
CIRCLE
8
BLACK
10
87.098
20
-54.636
40
0.45
0
CIRCLE
8
BLACK
10
84.098
20
-54.636
40
0.45
0
CIRCLE
8
BLACK
10
108.966
20
-100.965
40
0.508
0
CIRCLE
8
BLACK
10
111.506
20
-100.965
40
0.508
0
CIRCLE
8
BLACK
10
114.046
20
-100.965
40
0.508
0
CIRCLE
8
BLACK
10
117.856
20
-52.07
40
0.508
0
CIRCLE
8
BLACK
10
112.776
20
-52.324
40
0.508
0
CIRCLE
8
BLACK
10
110.236
20
-52.324
40
0.508
0
CIRCLE
8
BLACK
10
107.696
20
-52.324
40
0.508
0
CIRCLE
8
BLACK
10
105.156
20
-52.07
40
0.508
0
CIRCLE
8
BLACK
10
101.6
20
-51.7652
40
0.508
0
CIRCLE
8
BLACK
10
96.012
20
-52.2478
40
0.508
0
CIRCLE
8
BLACK
10
94.742
20
-58.42
40
0.508
0
CIRCLE
8
BLACK
10
92.202
20
-58.42
40
0.508
0
CIRCLE
8
BLACK
10
89.662
20
-58.42
40
0.508
0
CIRCLE
8
BLACK
10
103.886
20
-100.965
40
0.508
0
CIRCLE
8
BLACK
10
93.726
20
-100.965
40
0.508
0
CIRCLE
8
BLACK
10
116.586
20
-100.965
40
0.508
0
CIRCLE
8
BLACK
10
79.502
20
-53.34
40
0.508
0
CIRCLE
8
BLACK
10
121.666
20
-99.06
40
0.762
0
CIRCLE
8
BLACK
10
119.126
20
-99.06
40
0.762
0
CIRCLE
8
BLACK
10
116.586
20
-99.06
40
0.762
0
CIRCLE
8
BLACK
10
108.966
20
-99.06
40
0.762
0
CIRCLE
8
BLACK
10
111.506
20
-99.06
40
0.762
0
CIRCLE
8
BLACK
10
114.046
20
-99.06
40
0.762
0
CIRCLE
8
BLACK
10
103.886
20
-99.06
40
0.762
0
CIRCLE
8
BLACK
10
101.346
20
-99.06
40
0.762
0
CIRCLE
8
BLACK
10
98.806
20
-99.06
40
0.762
0
CIRCLE
8
BLACK
10
93.726
20
-99.06
40
0.762
0
CIRCLE
8
BLACK
10
91.186
20
-99.06
40
0.762
0
CIRCLE
8
BLACK
10
121.666
20
-50.8
40
0.762
0
CIRCLE
8
BLACK
10
119.126
20
-50.8
40
0.762
0
CIRCLE
8
BLACK
10
116.586
20
-50.8
40
0.762
0
CIRCLE
8
BLACK
10
114.046
20
-50.8
40
0.762
0
CIRCLE
8
BLACK
10
111.506
20
-50.8
40
0.762
0
CIRCLE
8
BLACK
10
108.966
20
-50.8
40
0.762
0
CIRCLE
8
BLACK
10
106.426
20
-50.8
40
0.762
0
CIRCLE
8
BLACK
10
103.886
20
-50.8
40
0.762
0
CIRCLE
8
BLACK
10
99.822
20
-50.8
40
0.762
0
CIRCLE
8
BLACK
10
97.282
20
-50.8
40
0.762
0
CIRCLE
8
BLACK
10
94.742
20
-50.8
40
0.762
0
CIRCLE
8
BLACK
10
92.202
20
-50.8
40
0.762
0
CIRCLE
8
BLACK
10
89.662
20
-50.8
40
0.762
0
CIRCLE
8
BLACK
10
87.122
20
-50.8
40
0.762
0
CIRCLE
8
BLACK
10
84.582
20
-50.8
40
0.762
0
CIRCLE
8
BLACK
10
82.042
20
-50.8
40
0.762
0
CIRCLE
8
BLACK
10
96.266
20
-99.06
40
0.762
0
CIRCLE
8
BLACK
10
124.206
20
-93.98
40
1.9685
0
CIRCLE
8
BLACK
10
73.406
20
-50.8
40
1.9685
0
CIRCLE
8
BLACK
10
72.136
20
-99.06
40
1.9685
0
CIRCLE
8
BLACK
10
88.646
20
-99.06
40
0.762
0
CIRCLE
8
BLACK
10
79.502
20
-50.8
40
0.762
0
CIRCLE
8
BLACK
10
76.962
20
-50.8
40
0.762
0
CIRCLE
8
BLACK
10
86.106
20
-99.06
40
0.762
0
LINE
8
BLACK
10
114.808
20
-92.456
11
116.332
21
-92.456
0
LINE
8
BLACK
10
116.332
20
-92.456
11
116.332
21
-90.932
0
LINE
8
BLACK
10
116.332
20
-90.932
11
114.808
21
-90.932
0
LINE
8
BLACK
10
114.808
20
-90.932
11
114.808
21
-92.456
0
CIRCLE
8
BLACK
10
118.11
20
-91.694
40
0.762
0
CIRCLE
8
BLACK
10
115.57
20
-89.154
40
0.762
0
CIRCLE
8
BLACK
10
118.11
20
-89.154
40
0.762
0
CIRCLE
8
BLACK
10
115.57
20
-86.614
40
0.762
0
CIRCLE
8
BLACK
10
118.11
20
-86.614
40
0.762
0
CIRCLE
8
BLACK
10
45.0596
20
-72.39
40
0.4445
0
CIRCLE
8
BLACK
10
75.3745
20
-67.6275
40
0.4445
0
CIRCLE
8
BLACK
10
42.672
20
-77.089
40
0.4445
0
CIRCLE
8
BLACK
10
73.8505
20
-68.961
40
0.4445
0
CIRCLE
8
BLACK
10
87.376
20
-61.087
40
0.4445
0
CIRCLE
8
BLACK
10
87.63
20
-112.039
40
0.4445
0
CIRCLE
8
BLACK
10
77.47
20
-112.039
40
0.4445
0
CIRCLE
8
BLACK
10
67.31
20
-112.039
40
0.4445
0
CIRCLE
8
BLACK
10
57.15
20
-112.039
40
0.4445
0
CIRCLE
8
BLACK
10
78.2955
20
-73.7235
40
0.4445
0
CIRCLE
8
BLACK
10
38.735
20
-63.6905
40
0.4445
0
CIRCLE
8
BLACK
10
38.735
20
-61.087
40
0.4445
0
CIRCLE
8
BLACK
10
82.2325
20
-95.123
40
0.4445
0
CIRCLE
8
BLACK
10
83.3755
20
-64.9605
40
0.4445
0
CIRCLE
8
BLACK
10
74.2315
20
-75.311
40
0.4445
0
CIRCLE
8
BLACK
10
111.125
20
-86.614
40
0.4445
0
CIRCLE
8
BLACK
10
100.711
20
-78.486
40
0.4445
0
CIRCLE
8
BLACK
10
75.8825
20
-55.4355
40
0.4445
0
CIRCLE
8
BLACK
10
44.2595
20
-55.4355
40
0.4445
0
CIRCLE
8
BLACK
10
60.96
20
-99.3775
40
0.4445
0
CIRCLE
8
BLACK
10
80.3275
20
-81.28
40
0.4445
0
CIRCLE
8
BLACK
10
62.1665
20
-84.201
40
0.4445
0
CIRCLE
8
BLACK
10
75.2475
20
-84.1375
40
0.4445
0
CIRCLE
8
BLACK
10
44.069
20
-73.7235
40
0.4445
0
CIRCLE
8
BLACK
10
74.9935
20
-68.707
40
0.4445
0
CIRCLE
8
BLACK
10
60.7695
20
-88.0745
40
0.4445
0
CIRCLE
8
BLACK
10
60.7695
20
-94.361
40
0.4445
0
CIRCLE
8
BLACK
10
82.677
20
-81.28
40
0.4445
0
CIRCLE
8
BLACK
10
83.5406
20
-105.943
40
0.4445
0
CIRCLE
8
BLACK
10
82.296
20
-74.168
40
0.4445
0
CIRCLE
8
BLACK
10
63.2206
20
-105.918
40
0.4445
0
CIRCLE
8
BLACK
10
81.534
20
-80.899
40
0.4445
0
CIRCLE
8
BLACK
10
38.6715
20
-66.6115
40
0.4445
0
CIRCLE
8
BLACK
10
76.2
20
-84.836
40
0.4445
0
CIRCLE
8
BLACK
10
60.706
20
-85.09
40
0.4445
0
CIRCLE
8
BLACK
10
63.4365
20
-90.2335
40
0.4445
0
CIRCLE
8
BLACK
10
71.6915
20
-70.993
40
0.4445
0
CIRCLE
8
BLACK
10
105.791
20
-91.567
40
0.4445
0
CIRCLE
8
BLACK
10
104.038
20
-105.918
40
0.4445
0
CIRCLE
8
BLACK
10
107.061
20
-78.486
40
0.4445
0
CIRCLE
8
BLACK
10
107.467
20
-85.4964
40
0.4445
0
CIRCLE
8
BLACK
10
64.8208
20
-86.868
40
0.4445
0
CIRCLE
8
BLACK
10
105.791
20
-78.486
40
0.4445
0
CIRCLE
8
BLACK
10
97.2185
20
-56.134
40
0.4445
0
CIRCLE
8
BLACK
10
121.666
20
-76.708
40
0.4445
0
CIRCLE
8
BLACK
10
104.521
20
-78.486
40
0.4445
0
CIRCLE
8
BLACK
10
97.155
20
-57.404
40
0.4445
0
CIRCLE
8
BLACK
10
81.2165
20
-68.7705
40
0.4445
0
CIRCLE
8
BLACK
10
76.8985
20
-68.7705
40
0.4445
0
CIRCLE
8
BLACK
10
79.9465
20
-99.7585
40
0.4445
0
CIRCLE
8
BLACK
10
74.3585
20
-83.312
40
0.4445
0
CIRCLE
8
BLACK
10
93.7006
20
-105.943
40
0.4445
0
CIRCLE
8
BLACK
10
80.391
20
-66.3575
40
0.4445
0
CIRCLE
8
BLACK
10
42.0624
20
-69.7484
40
0.4445
0
CIRCLE
8
BLACK
10
42.672
20
-75.8825
40
0.4445
0
CIRCLE
8
BLACK
10
78.994
20
-66.3448
40
0.4445
0
CIRCLE
8
BLACK
10
42.672
20
-74.7395
40
0.4445
0
CIRCLE
8
BLACK
10
78.1812
20
-67.6148
40
0.4445
0
CIRCLE
8
BLACK
10
81.2165
20
-67.6275
40
0.4445
0
CIRCLE
8
BLACK
10
96.901
20
-87.63
40
0.4445
0
CIRCLE
8
BLACK
10
77.4065
20
-74.549
40
0.4445
0
CIRCLE
8
BLACK
10
108.433
20
-84.6074
40
0.4445
0
CIRCLE
8
BLACK
10
65.786
20
-85.979
40
0.4445
0
CIRCLE
8
BLACK
10
73.3806
20
-105.918
40
0.4445
0
CIRCLE
8
BLACK
10
73.406
20
-82.4865
40
0.4445
0
CIRCLE
8
BLACK
10
33.02
20
-91.186
40
0.4445
0
CIRCLE
8
BLACK
10
71.628
20
-90.3605
40
0.4445
0
CIRCLE
8
BLACK
10
99.441
20
-89.281
40
0.4445
0
CIRCLE
8
BLACK
10
43.307
20
-88.138
40
0.4445
0
CIRCLE
8
BLACK
10
34.9885
20
-58.801
40
0.4445
0
CIRCLE
8
BLACK
10
53.848
20
-98.425
40
0.4445
0
CIRCLE
8
BLACK
10
47.498
20
-89.154
40
0.4445
0
CIRCLE
8
BLACK
10
44.196
20
-92.075
40
0.4445
0
CIRCLE
8
BLACK
10
57.8485
20
-89.916
40
0.4445
0
CIRCLE
8
BLACK
10
54.737
20
-89.916
40
0.4445
0
CIRCLE
8
BLACK
10
48.9585
20
-92.964
40
0.4445
0
CIRCLE
8
BLACK
10
58.674
20
-94.4245
40
0.4445
0
CIRCLE
8
BLACK
10
68.2625
20
-88.519
40
0.4445
0
CIRCLE
8
BLACK
10
87.884
20
-59.4995
40
0.4445
0
CIRCLE
8
BLACK
10
97.2185
20
-69.596
40
0.4445
0
CIRCLE
8
BLACK
10
87.884
20
-66.167
40
0.4445
0
CIRCLE
8
BLACK
10
85.852
20
-70.485
40
0.4445
0
CIRCLE
8
BLACK
10
109.792
20
-61.6585
40
0.4445
0
CIRCLE
8
BLACK
10
109.792
20
-57.15
40
0.4445
0
CIRCLE
8
BLACK
10
33.3375
20
-68.5165
40
0.4445
0
CIRCLE
8
BLACK
10
107.061
20
-76.581
40
0.4445
0
CIRCLE
8
BLACK
10
42.2275
20
-90.424
40
0.4445
0
CIRCLE
8
BLACK
10
42.2275
20
-86.1695
40
0.4445
0
LINE
8
BLACK
10
50.7619
20
-71.5772
11
50.7619
21
-68.4911
0
LINE
8
BLACK
10
50.5079
20
-71.5772
11
50.5079
21
-68.4911
0
ARC
8
BLACK
10
50.6349
20
-68.4911
40
0.127
50
360
51
540
0
ARC
8
BLACK
10
50.6349
20
-71.5772
40
0.127
50
180
51
360
0
LINE
8
BLACK
10
45.0596
20
-72.517
11
49.8221
21
-72.517
0
LINE
8
BLACK
10
45.0596
20
-72.263
11
49.8221
21
-72.263
0
ARC
8
BLACK
10
49.8221
20
-72.39
40
0.127
50
270
51
450
0
ARC
8
BLACK
10
45.0596
20
-72.39
40
0.127
50
90
51
270
0
LINE
8
BLACK
10
50.5451
20
-71.4874
11
49.7323
21
-72.3002
0
LINE
8
BLACK
10
50.7247
20
-71.667
11
49.9119
21
-72.4798
0
ARC
8
BLACK
10
49.8221
20
-72.39
40
0.127
50
135
51
315
0
ARC
8
BLACK
10
50.6349
20
-71.5772
40
0.127
50
-45
51
135
0
LINE
8
BLACK
10
51.7843
20
-67.4688
11
75.0888
21
-67.4688
0
LINE
8
BLACK
10
51.7843
20
-67.2148
11
75.0888
21
-67.2148
0
ARC
8
BLACK
10
75.0888
20
-67.3418
40
0.127
50
270
51
450
0
ARC
8
BLACK
10
51.7843
20
-67.3418
40
0.127
50
90
51
270
0
LINE
8
BLACK
10
74.9989
20
-67.4316
11
75.2847
21
-67.7173
0
LINE
8
BLACK
10
75.1786
20
-67.2519
11
75.4643
21
-67.5377
0
ARC
8
BLACK
10
75.3745
20
-67.6275
40
0.127
50
225
51
405
0
ARC
8
BLACK
10
75.0888
20
-67.3418
40
0.127
50
45
51
225
0
LINE
8
BLACK
10
51.6944
20
-67.2519
11
50.5451
21
-68.4013
0
LINE
8
BLACK
10
51.8741
20
-67.4316
11
50.7247
21
-68.5809
0
ARC
8
BLACK
10
50.6349
20
-68.4911
40
0.127
50
135
51
315
0
ARC
8
BLACK
10
51.7843
20
-67.3418
40
0.127
50
-45
51
135
0
LINE
8
BLACK
10
52.2224
20
-76.1746
11
52.2224
21
-69.8246
0
LINE
8
BLACK
10
51.9684
20
-76.1746
11
51.9684
21
-69.8246
0
ARC
8
BLACK
10
52.0954
20
-69.8246
40
0.127
50
360
51
540
0
ARC
8
BLACK
10
52.0954
20
-76.1746
40
0.127
50
180
51
360
0
LINE
8
BLACK
10
42.672
20
-77.216
11
51.181
21
-77.216
0
LINE
8
BLACK
10
42.672
20
-76.962
11
51.181
21
-76.962
0
ARC
8
BLACK
10
51.181
20
-77.089
40
0.127
50
270
51
450
0
ARC
8
BLACK
10
42.672
20
-77.089
40
0.127
50
90
51
270
0
LINE
8
BLACK
10
52.0056
20
-76.0848
11
51.0912
21
-76.9992
0
LINE
8
BLACK
10
52.1852
20
-76.2644
11
51.2708
21
-77.1788
0
ARC
8
BLACK
10
51.181
20
-77.089
40
0.127
50
135
51
315
0
ARC
8
BLACK
10
52.0954
20
-76.1746
40
0.127
50
-45
51
135
0
LINE
8
BLACK
10
52.959
20
-69.088
11
73.8505
21
-69.088
0
LINE
8
BLACK
10
52.959
20
-68.834
11
73.8505
21
-68.834
0
ARC
8
BLACK
10
73.8505
20
-68.961
40
0.127
50
270
51
450
0
ARC
8
BLACK
10
52.959
20
-68.961
40
0.127
50
90
51
270
0
LINE
8
BLACK
10
52.8692
20
-68.8712
11
52.0056
21
-69.7348
0
LINE
8
BLACK
10
53.0488
20
-69.0508
11
52.1852
21
-69.9144
0
ARC
8
BLACK
10
52.0954
20
-69.8246
40
0.127
50
135
51
315
0
ARC
8
BLACK
10
52.959
20
-68.961
40
0.127
50
-45
51
135
0
LINE
8
BLACK
10
87.63
20
-64.135
11
87.63
21
-61.087
0
LINE
8
BLACK
10
87.122
20
-64.135
11
87.122
21
-61.087
0
ARC
8
BLACK
10
87.376
20
-61.087
40
0.254
50
360
51
540
0
ARC
8
BLACK
10
87.376
20
-64.135
40
0.254
50
180
51
360
0
LINE
8
BLACK
10
83.3755
20
-65.2145
11
86.5505
21
-65.2145
0
LINE
8
BLACK
10
83.3755
20
-64.7065
11
86.5505
21
-64.7065
0
ARC
8
BLACK
10
86.5505
20
-64.9605
40
0.254
50
270
51
450
0
ARC
8
BLACK
10
83.3755
20
-64.9605
40
0.254
50
90
51
270
0
LINE
8
BLACK
10
87.1964
20
-63.9554
11
86.3709
21
-64.7809
0
LINE
8
BLACK
10
87.5556
20
-64.3146
11
86.7301
21
-65.1401
0
ARC
8
BLACK
10
86.5505
20
-64.9605
40
0.254
50
135
51
315
0
ARC
8
BLACK
10
87.376
20
-64.135
40
0.254
50
-45
51
135
0
LINE
8
BLACK
10
82.4865
20
-101.283
11
82.4865
21
-95.123
0
LINE
8
BLACK
10
81.9785
20
-101.283
11
81.9785
21
-95.123
0
ARC
8
BLACK
10
82.2325
20
-95.123
40
0.254
50
360
51
540
0
ARC
8
BLACK
10
82.2325
20
-101.283
40
0.254
50
180
51
360
0
LINE
8
BLACK
10
83.185
20
-102.489
11
85.8012
21
-102.489
0
LINE
8
BLACK
10
83.185
20
-101.981
11
85.8012
21
-101.981
0
ARC
8
BLACK
10
85.8012
20
-102.235
40
0.254
50
270
51
450
0
ARC
8
BLACK
10
83.185
20
-102.235
40
0.254
50
90
51
270
0
LINE
8
BLACK
10
82.0529
20
-101.462
11
83.0054
21
-102.415
0
LINE
8
BLACK
10
82.4121
20
-101.103
11
83.3646
21
-102.055
0
ARC
8
BLACK
10
83.185
20
-102.235
40
0.254
50
225
51
405
0
ARC
8
BLACK
10
82.2325
20
-101.283
40
0.254
50
45
51
225
0
LINE
8
BLACK
10
83.6295
20
-64.9605
11
83.6295
21
-63.0555
0
LINE
8
BLACK
10
83.1215
20
-64.9605
11
83.1215
21
-63.0555
0
ARC
8
BLACK
10
83.3755
20
-63.0555
40
0.254
50
360
51
540
0
ARC
8
BLACK
10
83.3755
20
-64.9605
40
0.254
50
180
51
360
0
LINE
8
BLACK
10
83.5551
20
-62.8759
11
82.8566
21
-62.1774
0
LINE
8
BLACK
10
83.1959
20
-63.2351
11
82.4974
21
-62.5366
0
ARC
8
BLACK
10
82.677
20
-62.357
40
0.254
50
405
51
585
0
ARC
8
BLACK
10
83.3755
20
-63.0555
40
0.254
50
225
51
405
0
LINE
8
BLACK
10
87.63
20
-112.293
11
89.1794
21
-112.293
0
LINE
8
BLACK
10
87.63
20
-111.785
11
89.1794
21
-111.785
0
ARC
8
BLACK
10
89.1794
20
-112.039
40
0.254
50
270
51
450
0
ARC
8
BLACK
10
87.63
20
-112.039
40
0.254
50
90
51
270
0
LINE
8
BLACK
10
77.47
20
-112.293
11
79.0194
21
-112.293
0
LINE
8
BLACK
10
77.47
20
-111.785
11
79.0194
21
-111.785
0
ARC
8
BLACK
10
79.0194
20
-112.039
40
0.254
50
270
51
450
0
ARC
8
BLACK
10
77.47
20
-112.039
40
0.254
50
90
51
270
0
LINE
8
BLACK
10
67.31
20
-112.293
11
68.8594
21
-112.293
0
LINE
8
BLACK
10
67.31
20
-111.785
11
68.8594
21
-111.785
0
ARC
8
BLACK
10
68.8594
20
-112.039
40
0.254
50
270
51
450
0
ARC
8
BLACK
10
67.31
20
-112.039
40
0.254
50
90
51
270
0
LINE
8
BLACK
10
57.15
20
-112.293
11
58.6994
21
-112.293
0
LINE
8
BLACK
10
57.15
20
-111.785
11
58.6994
21
-111.785
0
ARC
8
BLACK
10
58.6994
20
-112.039
40
0.254
50
270
51
450
0
ARC
8
BLACK
10
57.15
20
-112.039
40
0.254
50
90
51
270
0
LINE
8
BLACK
10
87.4268
20
-104.115
11
89.1794
21
-104.115
0
LINE
8
BLACK
10
87.4268
20
-103.607
11
89.1794
21
-103.607
0
ARC
8
BLACK
10
89.1794
20
-103.861
40
0.254
50
270
51
450
0
ARC
8
BLACK
10
87.4268
20
-103.861
40
0.254
50
90
51
270
0
LINE
8
BLACK
10
87.6064
20
-103.681
11
85.9808
21
-102.055
0
LINE
8
BLACK
10
87.2472
20
-104.04
11
85.6216
21
-102.415
0
ARC
8
BLACK
10
85.8012
20
-102.235
40
0.254
50
405
51
585
0
ARC
8
BLACK
10
87.4268
20
-103.861
40
0.254
50
225
51
405
0
LINE
8
BLACK
10
89.4334
20
-112.039
11
89.4334
21
-103.861
0
LINE
8
BLACK
10
88.9254
20
-112.039
11
88.9254
21
-103.861
0
ARC
8
BLACK
10
89.1794
20
-103.861
40
0.254
50
360
51
540
0
ARC
8
BLACK
10
89.1794
20
-112.039
40
0.254
50
180
51
360
0
LINE
8
BLACK
10
79.2734
20
-112.039
11
79.2734
21
-103.861
0
LINE
8
BLACK
10
78.7654
20
-112.039
11
78.7654
21
-103.861
0
ARC
8
BLACK
10
79.0194
20
-103.861
40
0.254
50
360
51
540
0
ARC
8
BLACK
10
79.0194
20
-112.039
40
0.254
50
180
51
360
0
LINE
8
BLACK
10
69.1134
20
-112.039
11
69.1134
21
-103.861
0
LINE
8
BLACK
10
68.6054
20
-112.039
11
68.6054
21
-103.861
0
ARC
8
BLACK
10
68.8594
20
-103.861
40
0.254
50
360
51
540
0
ARC
8
BLACK
10
68.8594
20
-112.039
40
0.254
50
180
51
360
0
LINE
8
BLACK
10
58.9534
20
-112.039
11
58.9534
21
-103.861
0
LINE
8
BLACK
10
58.4454
20
-112.039
11
58.4454
21
-103.861
0
ARC
8
BLACK
10
58.6994
20
-103.861
40
0.254
50
360
51
540
0
ARC
8
BLACK
10
58.6994
20
-112.039
40
0.254
50
180
51
360
0
LINE
8
BLACK
10
83.9216
20
-93.6879
11
83.9216
21
-73.6346
0
LINE
8
BLACK
10
83.4136
20
-93.6879
11
83.4136
21
-73.6346
0
ARC
8
BLACK
10
83.6676
20
-73.6346
40
0.254
50
360
51
540
0
ARC
8
BLACK
10
83.6676
20
-93.6879
40
0.254
50
180
51
360
0
LINE
8
BLACK
10
83.488
20
-93.5083
11
82.0529
21
-94.9434
0
LINE
8
BLACK
10
83.8472
20
-93.8675
11
82.4121
21
-95.3026
0
ARC
8
BLACK
10
82.2325
20
-95.123
40
0.254
50
135
51
315
0
ARC
8
BLACK
10
83.6676
20
-93.6879
40
0.254
50
-45
51
135
0
LINE
8
BLACK
10
81.5213
20
-73.2155
11
82.9945
21
-73.2155
0
LINE
8
BLACK
10
81.5213
20
-72.7075
11
82.9945
21
-72.7075
0
ARC
8
BLACK
10
82.9945
20
-72.9615
40
0.254
50
270
51
450
0
ARC
8
BLACK
10
81.5213
20
-72.9615
40
0.254
50
90
51
270
0
LINE
8
BLACK
10
83.8472
20
-73.455
11
83.1741
21
-72.7819
0
LINE
8
BLACK
10
83.488
20
-73.8142
11
82.8149
21
-73.1411
0
ARC
8
BLACK
10
82.9945
20
-72.9615
40
0.254
50
405
51
585
0
ARC
8
BLACK
10
83.6676
20
-73.6346
40
0.254
50
225
51
405
0
LINE
8
BLACK
10
74.2315
20
-75.565
11
75.692
21
-75.565
0
LINE
8
BLACK
10
74.2315
20
-75.057
11
75.692
21
-75.057
0
ARC
8
BLACK
10
75.692
20
-75.311
40
0.254
50
270
51
450
0
ARC
8
BLACK
10
74.2315
20
-75.311
40
0.254
50
90
51
270
0
LINE
8
BLACK
10
76.2526
20
-75.5124
11
75.8716
21
-75.1314
0
LINE
8
BLACK
10
75.8934
20
-75.8716
11
75.5124
21
-75.4906
0
ARC
8
BLACK
10
75.692
20
-75.311
40
0.254
50
405
51
585
0
ARC
8
BLACK
10
76.073
20
-75.692
40
0.254
50
225
51
405
0
LINE
8
BLACK
10
81.3417
20
-72.7819
11
80.7194
21
-73.4042
0
LINE
8
BLACK
10
81.7009
20
-73.1411
11
81.0786
21
-73.7634
0
ARC
8
BLACK
10
80.899
20
-73.5838
40
0.254
50
135
51
315
0
ARC
8
BLACK
10
81.5213
20
-72.9615
40
0.254
50
-45
51
135
0
LINE
8
BLACK
10
81.153
20
-75.1078
11
81.153
21
-73.5838
0
LINE
8
BLACK
10
80.645
20
-75.1078
11
80.645
21
-73.5838
0
ARC
8
BLACK
10
80.899
20
-73.5838
40
0.254
50
360
51
540
0
ARC
8
BLACK
10
80.899
20
-75.1078
40
0.254
50
180
51
360
0
LINE
8
BLACK
10
80.7194
20
-74.9282
11
80.1352
21
-75.5124
0
LINE
8
BLACK
10
81.0786
20
-75.2874
11
80.4944
21
-75.8716
0
ARC
8
BLACK
10
80.3148
20
-75.692
40
0.254
50
135
51
315
0
ARC
8
BLACK
10
80.899
20
-75.1078
40
0.254
50
-45
51
135
0
LINE
8
BLACK
10
76.073
20
-75.946
11
80.3148
21
-75.946
0
LINE
8
BLACK
10
76.073
20
-75.438
11
80.3148
21
-75.438
0
ARC
8
BLACK
10
80.3148
20
-75.692
40
0.254
50
270
51
450
0
ARC
8
BLACK
10
76.073
20
-75.692
40
0.254
50
90
51
270
0
LINE
8
BLACK
10
78.5495
20
-73.7235
11
78.5495
21
-71.3105
0
LINE
8
BLACK
10
78.0415
20
-73.7235
11
78.0415
21
-71.3105
0
ARC
8
BLACK
10
78.2955
20
-71.3105
40
0.254
50
360
51
540
0
ARC
8
BLACK
10
78.2955
20
-73.7235
40
0.254
50
180
51
360
0
LINE
8
BLACK
10
78.2955
20
-71.5645
11
82.0801
21
-71.5645
0
LINE
8
BLACK
10
78.2955
20
-71.0565
11
82.0801
21
-71.0565
0
ARC
8
BLACK
10
82.0801
20
-71.3105
40
0.254
50
270
51
450
0
ARC
8
BLACK
10
78.2955
20
-71.3105
40
0.254
50
90
51
270
0
LINE
8
BLACK
10
75.5269
20
-71.5645
11
78.2955
21
-71.5645
0
LINE
8
BLACK
10
75.5269
20
-71.0565
11
78.2955
21
-71.0565
0
ARC
8
BLACK
10
78.2955
20
-71.3105
40
0.254
50
270
51
450
0
ARC
8
BLACK
10
75.5269
20
-71.3105
40
0.254
50
90
51
270
0
LINE
8
BLACK
10
74.4855
20
-75.311
11
74.4855
21
-72.6059
0
LINE
8
BLACK
10
73.9775
20
-75.311
11
73.9775
21
-72.6059
0
ARC
8
BLACK
10
74.2315
20
-72.6059
40
0.254
50
360
51
540
0
ARC
8
BLACK
10
74.2315
20
-75.311
40
0.254
50
180
51
360
0
LINE
8
BLACK
10
75.3473
20
-71.1309
11
74.0519
21
-72.4263
0
LINE
8
BLACK
10
75.7065
20
-71.4901
11
74.4111
21
-72.7855
0
ARC
8
BLACK
10
74.2315
20
-72.6059
40
0.254
50
135
51
315
0
ARC
8
BLACK
10
75.5269
20
-71.3105
40
0.254
50
-45
51
135
0
LINE
8
BLACK
10
38.735
20
-62.611
11
82.677
21
-62.611
0
LINE
8
BLACK
10
38.735
20
-62.103
11
82.677
21
-62.103
0
ARC
8
BLACK
10
82.677
20
-62.357
40
0.254
50
270
51
450
0
ARC
8
BLACK
10
38.735
20
-62.357
40
0.254
50
90
51
270
0
LINE
8
BLACK
10
38.989
20
-63.6905
11
38.989
21
-62.357
0
LINE
8
BLACK
10
38.481
20
-63.6905
11
38.481
21
-62.357
0
ARC
8
BLACK
10
38.735
20
-62.357
40
0.254
50
360
51
540
0
ARC
8
BLACK
10
38.735
20
-63.6905
40
0.254
50
180
51
360
0
LINE
8
BLACK
10
38.989
20
-62.357
11
38.989
21
-61.087
0
LINE
8
BLACK
10
38.481
20
-62.357
11
38.481
21
-61.087
0
ARC
8
BLACK
10
38.735
20
-61.087
40
0.254
50
360
51
540
0
ARC
8
BLACK
10
38.735
20
-62.357
40
0.254
50
180
51
360
0
LINE
8
BLACK
10
83.6295
20
-70.0151
11
83.6295
21
-64.9605
0
LINE
8
BLACK
10
83.1215
20
-70.0151
11
83.1215
21
-64.9605
0
ARC
8
BLACK
10
83.3755
20
-64.9605
40
0.254
50
360
51
540
0
ARC
8
BLACK
10
83.3755
20
-70.0151
40
0.254
50
180
51
360
0
LINE
8
BLACK
10
82.2597
20
-71.4901
11
83.5551
21
-70.1947
0
LINE
8
BLACK
10
81.9005
20
-71.1309
11
83.1959
21
-69.8355
0
ARC
8
BLACK
10
83.3755
20
-70.0151
40
0.254
50
315
51
495
0
ARC
8
BLACK
10
82.0801
20
-71.3105
40
0.254
50
135
51
315
0
LINE
8
BLACK
10
111.125
20
-86.868
11
115.57
21
-86.868
0
LINE
8
BLACK
10
111.125
20
-86.36
11
115.57
21
-86.36
0
ARC
8
BLACK
10
115.57
20
-86.614
40
0.254
50
270
51
450
0
ARC
8
BLACK
10
111.125
20
-86.614
40
0.254
50
90
51
270
0
LINE
8
BLACK
10
96.6851
20
-78.613
11
100.711
21
-78.613
0
LINE
8
BLACK
10
96.6851
20
-78.359
11
100.711
21
-78.359
0
ARC
8
BLACK
10
100.711
20
-78.486
40
0.127
50
270
51
450
0
ARC
8
BLACK
10
96.6851
20
-78.486
40
0.127
50
90
51
270
0
LINE
8
BLACK
10
96.0619
20
-81.7871
11
95.7063
21
-82.1427
0
LINE
8
BLACK
10
96.2415
20
-81.9667
11
95.8859
21
-82.3223
0
ARC
8
BLACK
10
95.7961
20
-82.2325
40
0.127
50
135
51
315
0
ARC
8
BLACK
10
96.1517
20
-81.8769
40
0.127
50
-45
51
135
0
LINE
8
BLACK
10
96.2787
20
-81.8769
11
96.2787
21
-79.0194
0
LINE
8
BLACK
10
96.0247
20
-81.8769
11
96.0247
21
-79.0194
0
ARC
8
BLACK
10
96.1517
20
-79.0194
40
0.127
50
360
51
540
0
ARC
8
BLACK
10
96.1517
20
-81.8769
40
0.127
50
180
51
360
0
LINE
8
BLACK
10
96.5953
20
-78.3962
11
96.0619
21
-78.9296
0
LINE
8
BLACK
10
96.7749
20
-78.5758
11
96.2415
21
-79.1092
0
ARC
8
BLACK
10
96.1517
20
-79.0194
40
0.127
50
135
51
315
0
ARC
8
BLACK
10
96.6851
20
-78.486
40
0.127
50
-45
51
135
0
LINE
8
BLACK
10
94.996
20
-82.3595
11
95.7961
21
-82.3595
0
LINE
8
BLACK
10
94.996
20
-82.1055
11
95.7961
21
-82.1055
0
ARC
8
BLACK
10
95.7961
20
-82.2325
40
0.127
50
270
51
450
0
ARC
8
BLACK
10
94.996
20
-82.2325
40
0.127
50
90
51
270
0
LINE
8
BLACK
10
44.2595
20
-55.6895
11
75.8825
21
-55.6895
0
LINE
8
BLACK
10
44.2595
20
-55.1815
11
75.8825
21
-55.1815
0
ARC
8
BLACK
10
75.8825
20
-55.4355
40
0.254
50
270
51
450
0
ARC
8
BLACK
10
44.2595
20
-55.4355
40
0.254
50
90
51
270
0
LINE
8
BLACK
10
75.3745
20
-84.1375
11
75.3745
21
-81.9277
0
LINE
8
BLACK
10
75.1205
20
-84.1375
11
75.1205
21
-81.9277
0
ARC
8
BLACK
10
75.2475
20
-81.9277
40
0.127
50
360
51
540
0
ARC
8
BLACK
10
75.2475
20
-84.1375
40
0.127
50
180
51
360
0
LINE
8
BLACK
10
75.8952
20
-81.407
11
80.3275
21
-81.407
0
LINE
8
BLACK
10
75.8952
20
-81.153
11
80.3275
21
-81.153
0
ARC
8
BLACK
10
80.3275
20
-81.28
40
0.127
50
270
51
450
0
ARC
8
BLACK
10
75.8952
20
-81.28
40
0.127
50
90
51
270
0
LINE
8
BLACK
10
75.3373
20
-82.0175
11
75.985
21
-81.3698
0
LINE
8
BLACK
10
75.1577
20
-81.8379
11
75.8054
21
-81.1902
0
ARC
8
BLACK
10
75.8952
20
-81.28
40
0.127
50
315
51
495
0
ARC
8
BLACK
10
75.2475
20
-81.9277
40
0.127
50
135
51
315
0
LINE
8
BLACK
10
62.2935
20
-98.171
11
62.2935
21
-84.201
0
LINE
8
BLACK
10
62.0395
20
-98.171
11
62.0395
21
-84.201
0
ARC
8
BLACK
10
62.1665
20
-84.201
40
0.127
50
360
51
540
0
ARC
8
BLACK
10
62.1665
20
-98.171
40
0.127
50
180
51
360
0
LINE
8
BLACK
10
61.0498
20
-99.4673
11
62.2563
21
-98.2608
0
LINE
8
BLACK
10
60.8702
20
-99.2877
11
62.0767
21
-98.0812
0
ARC
8
BLACK
10
62.1665
20
-98.171
40
0.127
50
315
51
495
0
ARC
8
BLACK
10
60.96
20
-99.3775
40
0.127
50
135
51
315
0
LINE
8
BLACK
10
51.4985
20
-72.7837
11
51.4985
21
-69.0753
0
LINE
8
BLACK
10
51.2445
20
-72.7837
11
51.2445
21
-69.0753
0
ARC
8
BLACK
10
51.3715
20
-69.0753
40
0.127
50
360
51
540
0
ARC
8
BLACK
10
51.3715
20
-72.7837
40
0.127
50
180
51
360
0
LINE
8
BLACK
10
44.069
20
-73.8505
11
50.4317
21
-73.8505
0
LINE
8
BLACK
10
44.069
20
-73.5965
11
50.4317
21
-73.5965
0
ARC
8
BLACK
10
50.4317
20
-73.7235
40
0.127
50
270
51
450
0
ARC
8
BLACK
10
44.069
20
-73.7235
40
0.127
50
90
51
270
0
LINE
8
BLACK
10
51.2817
20
-72.6939
11
50.3419
21
-73.6337
0
LINE
8
BLACK
10
51.4613
20
-72.8735
11
50.5215
21
-73.8133
0
ARC
8
BLACK
10
50.4317
20
-73.7235
40
0.127
50
135
51
315
0
ARC
8
BLACK
10
51.3715
20
-72.7837
40
0.127
50
-45
51
135
0
LINE
8
BLACK
10
51.4613
20
-69.1651
11
52.4646
21
-68.1618
0
LINE
8
BLACK
10
51.2817
20
-68.9855
11
52.285
21
-67.9822
0
ARC
8
BLACK
10
52.3748
20
-68.072
40
0.127
50
315
51
495
0
ARC
8
BLACK
10
51.3715
20
-69.0753
40
0.127
50
135
51
315
0
LINE
8
BLACK
10
74.2687
20
-68.1618
11
74.9037
21
-68.7968
0
LINE
8
BLACK
10
74.4483
20
-67.9822
11
75.0833
21
-68.6172
0
ARC
8
BLACK
10
74.9935
20
-68.707
40
0.127
50
225
51
405
0
ARC
8
BLACK
10
74.3585
20
-68.072
40
0.127
50
45
51
225
0
LINE
8
BLACK
10
52.3748
20
-68.199
11
74.3585
21
-68.199
0
LINE
8
BLACK
10
52.3748
20
-67.945
11
74.3585
21
-67.945
0
ARC
8
BLACK
10
74.3585
20
-68.072
40
0.127
50
270
51
450
0
ARC
8
BLACK
10
52.3748
20
-68.072
40
0.127
50
90
51
270
0
LINE
8
BLACK
10
60.8965
20
-94.361
11
60.8965
21
-88.0745
0
LINE
8
BLACK
10
60.6425
20
-94.361
11
60.6425
21
-88.0745
0
ARC
8
BLACK
10
60.7695
20
-88.0745
40
0.127
50
360
51
540
0
ARC
8
BLACK
10
60.7695
20
-94.361
40
0.127
50
180
51
360
0
LINE
8
BLACK
10
81.6102
20
-103.988
11
83.5406
21
-103.988
0
LINE
8
BLACK
10
81.6102
20
-103.734
11
83.5406
21
-103.734
0
ARC
8
BLACK
10
83.5406
20
-103.861
40
0.127
50
270
51
450
0
ARC
8
BLACK
10
81.6102
20
-103.861
40
0.127
50
90
51
270
0
LINE
8
BLACK
10
81.7
20
-103.771
11
81.1793
21
-103.25
0
LINE
8
BLACK
10
81.5204
20
-103.95
11
80.9997
21
-103.43
0
ARC
8
BLACK
10
81.0895
20
-103.34
40
0.127
50
405
51
585
0
ARC
8
BLACK
10
81.6102
20
-103.861
40
0.127
50
225
51
405
0
LINE
8
BLACK
10
81.2165
20
-103.34
11
81.2165
21
-93.472
0
LINE
8
BLACK
10
80.9625
20
-103.34
11
80.9625
21
-93.472
0
ARC
8
BLACK
10
81.0895
20
-93.472
40
0.127
50
360
51
540
0
ARC
8
BLACK
10
81.0895
20
-103.34
40
0.127
50
180
51
360
0
LINE
8
BLACK
10
82.804
20
-91.8845
11
82.804
21
-81.28
0
LINE
8
BLACK
10
82.55
20
-91.8845
11
82.55
21
-81.28
0
ARC
8
BLACK
10
82.677
20
-81.28
40
0.127
50
360
51
540
0
ARC
8
BLACK
10
82.677
20
-91.8845
40
0.127
50
180
51
360
0
LINE
8
BLACK
10
82.5872
20
-91.7947
11
80.9997
21
-93.3822
0
LINE
8
BLACK
10
82.7668
20
-91.9743
11
81.1793
21
-93.5618
0
ARC
8
BLACK
10
81.0895
20
-93.472
40
0.127
50
135
51
315
0
ARC
8
BLACK
10
82.677
20
-91.8845
40
0.127
50
-45
51
135
0
LINE
8
BLACK
10
83.6676
20
-105.943
11
83.6676
21
-103.861
0
LINE
8
BLACK
10
83.4136
20
-105.943
11
83.4136
21
-103.861
0
ARC
8
BLACK
10
83.5406
20
-103.861
40
0.127
50
360
51
540
0
ARC
8
BLACK
10
83.5406
20
-105.943
40
0.127
50
180
51
360
0
LINE
8
BLACK
10
83.6676
20
-112.039
11
83.6676
21
-105.943
0
LINE
8
BLACK
10
83.4136
20
-112.039
11
83.4136
21
-105.943
0
ARC
8
BLACK
10
83.5406
20
-105.943
40
0.127
50
360
51
540
0
ARC
8
BLACK
10
83.5406
20
-112.039
40
0.127
50
180
51
360
0
LINE
8
BLACK
10
72.6694
20
-92.5322
11
72.6694
21
-79.8068
0
LINE
8
BLACK
10
72.4154
20
-92.5322
11
72.4154
21
-79.8068
0
ARC
8
BLACK
10
72.5424
20
-79.8068
40
0.127
50
360
51
540
0
ARC
8
BLACK
10
72.5424
20
-92.5322
40
0.127
50
180
51
360
0
LINE
8
BLACK
10
68.326
20
-100.203
11
68.326
21
-93.4974
0
LINE
8
BLACK
10
68.072
20
-100.203
11
68.072
21
-93.4974
0
ARC
8
BLACK
10
68.199
20
-93.4974
40
0.127
50
360
51
540
0
ARC
8
BLACK
10
68.199
20
-100.203
40
0.127
50
180
51
360
0
LINE
8
BLACK
10
68.5664
20
-92.9504
11
68.1092
21
-93.4076
0
LINE
8
BLACK
10
68.746
20
-93.13
11
68.2888
21
-93.5872
0
ARC
8
BLACK
10
68.199
20
-93.4974
40
0.127
50
135
51
315
0
ARC
8
BLACK
10
68.6562
20
-93.0402
40
0.127
50
-45
51
135
0
LINE
8
BLACK
10
68.6562
20
-93.1672
11
72.0344
21
-93.1672
0
LINE
8
BLACK
10
68.6562
20
-92.9132
11
72.0344
21
-92.9132
0
ARC
8
BLACK
10
72.0344
20
-93.0402
40
0.127
50
270
51
450
0
ARC
8
BLACK
10
68.6562
20
-93.0402
40
0.127
50
90
51
270
0
LINE
8
BLACK
10
72.4526
20
-92.4424
11
71.9446
21
-92.9504
0
LINE
8
BLACK
10
72.6322
20
-92.622
11
72.1242
21
-93.13
0
ARC
8
BLACK
10
72.0344
20
-93.0402
40
0.127
50
135
51
315
0
ARC
8
BLACK
10
72.5424
20
-92.5322
40
0.127
50
-45
51
135
0
LINE
8
BLACK
10
82.423
20
-76.9112
11
82.423
21
-74.168
0
LINE
8
BLACK
10
82.169
20
-76.9112
11
82.169
21
-74.168
0
ARC
8
BLACK
10
82.296
20
-74.168
40
0.127
50
360
51
540
0
ARC
8
BLACK
10
82.296
20
-76.9112
40
0.127
50
180
51
360
0
LINE
8
BLACK
10
63.2206
20
-103.988
11
64.5414
21
-103.988
0
LINE
8
BLACK
10
63.2206
20
-103.734
11
64.5414
21
-103.734
0
ARC
8
BLACK
10
64.5414
20
-103.861
40
0.127
50
270
51
450
0
ARC
8
BLACK
10
63.2206
20
-103.861
40
0.127
50
90
51
270
0
LINE
8
BLACK
10
68.1092
20
-100.113
11
64.4516
21
-103.771
0
LINE
8
BLACK
10
68.2888
20
-100.293
11
64.6312
21
-103.95
0
ARC
8
BLACK
10
64.5414
20
-103.861
40
0.127
50
135
51
315
0
ARC
8
BLACK
10
68.199
20
-100.203
40
0.127
50
-45
51
135
0
LINE
8
BLACK
10
74.6624
20
-77.5072
11
72.4526
21
-79.717
0
LINE
8
BLACK
10
74.842
20
-77.6868
11
72.6322
21
-79.8966
0
ARC
8
BLACK
10
72.5424
20
-79.8068
40
0.127
50
135
51
315
0
ARC
8
BLACK
10
74.7522
20
-77.597
40
0.127
50
-45
51
135
0
LINE
8
BLACK
10
74.7522
20
-77.724
11
81.6102
21
-77.724
0
LINE
8
BLACK
10
74.7522
20
-77.47
11
81.6102
21
-77.47
0
ARC
8
BLACK
10
81.6102
20
-77.597
40
0.127
50
270
51
450
0
ARC
8
BLACK
10
74.7522
20
-77.597
40
0.127
50
90
51
270
0
LINE
8
BLACK
10
82.2062
20
-76.8214
11
81.5204
21
-77.5072
0
LINE
8
BLACK
10
82.3858
20
-77.001
11
81.7
21
-77.6868
0
ARC
8
BLACK
10
81.6102
20
-77.597
40
0.127
50
135
51
315
0
ARC
8
BLACK
10
82.296
20
-76.9112
40
0.127
50
-45
51
135
0
LINE
8
BLACK
10
63.3476
20
-105.918
11
63.3476
21
-103.861
0
LINE
8
BLACK
10
63.0936
20
-105.918
11
63.0936
21
-103.861
0
ARC
8
BLACK
10
63.2206
20
-103.861
40
0.127
50
360
51
540
0
ARC
8
BLACK
10
63.2206
20
-105.918
40
0.127
50
180
51
360
0
LINE
8
BLACK
10
63.3476
20
-112.039
11
63.3476
21
-105.918
0
LINE
8
BLACK
10
63.0936
20
-112.039
11
63.0936
21
-105.918
0
ARC
8
BLACK
10
63.2206
20
-105.918
40
0.127
50
360
51
540
0
ARC
8
BLACK
10
63.2206
20
-112.039
40
0.127
50
180
51
360
0
LINE
8
BLACK
10
76.2
20
-84.963
11
81.026
21
-84.963
0
LINE
8
BLACK
10
76.2
20
-84.709
11
81.026
21
-84.709
0
ARC
8
BLACK
10
81.026
20
-84.836
40
0.127
50
270
51
450
0
ARC
8
BLACK
10
76.2
20
-84.836
40
0.127
50
90
51
270
0
LINE
8
BLACK
10
81.4442
20
-84.2382
11
80.9362
21
-84.7462
0
LINE
8
BLACK
10
81.6238
20
-84.4178
11
81.1158
21
-84.9258
0
ARC
8
BLACK
10
81.026
20
-84.836
40
0.127
50
135
51
315
0
ARC
8
BLACK
10
81.534
20
-84.328
40
0.127
50
-45
51
135
0
LINE
8
BLACK
10
81.661
20
-84.328
11
81.661
21
-80.899
0
LINE
8
BLACK
10
81.407
20
-84.328
11
81.407
21
-80.899
0
ARC
8
BLACK
10
81.534
20
-80.899
40
0.127
50
360
51
540
0
ARC
8
BLACK
10
81.534
20
-84.328
40
0.127
50
180
51
360
0
LINE
8
BLACK
10
38.6715
20
-66.7385
11
40.5765
21
-66.7385
0
LINE
8
BLACK
10
38.6715
20
-66.4845
11
40.5765
21
-66.4845
0
ARC
8
BLACK
10
40.5765
20
-66.6115
40
0.127
50
270
51
450
0
ARC
8
BLACK
10
38.6715
20
-66.6115
40
0.127
50
90
51
270
0
LINE
8
BLACK
10
41.275
20
-84.3915
11
41.275
21
-67.183
0
LINE
8
BLACK
10
41.021
20
-84.3915
11
41.021
21
-67.183
0
ARC
8
BLACK
10
41.148
20
-67.183
40
0.127
50
360
51
540
0
ARC
8
BLACK
10
41.148
20
-84.3915
40
0.127
50
180
51
360
0
LINE
8
BLACK
10
40.4867
20
-66.7013
11
41.0582
21
-67.2728
0
LINE
8
BLACK
10
40.6663
20
-66.5217
11
41.2378
21
-67.0932
0
ARC
8
BLACK
10
41.148
20
-67.183
40
0.127
50
225
51
405
0
ARC
8
BLACK
10
40.5765
20
-66.6115
40
0.127
50
45
51
225
0
LINE
8
BLACK
10
41.8465
20
-85.217
11
60.706
21
-85.217
0
LINE
8
BLACK
10
41.8465
20
-84.963
11
60.706
21
-84.963
0
ARC
8
BLACK
10
60.706
20
-85.09
40
0.127
50
270
51
450
0
ARC
8
BLACK
10
41.8465
20
-85.09
40
0.127
50
90
51
270
0
LINE
8
BLACK
10
41.9363
20
-85.0002
11
41.2378
21
-84.3017
0
LINE
8
BLACK
10
41.7567
20
-85.1798
11
41.0582
21
-84.4813
0
ARC
8
BLACK
10
41.148
20
-84.3915
40
0.127
50
405
51
585
0
ARC
8
BLACK
10
41.8465
20
-85.09
40
0.127
50
225
51
405
0
LINE
8
BLACK
10
94.869
20
-58.42
11
94.869
21
-57.5056
0
LINE
8
BLACK
10
94.615
20
-58.42
11
94.615
21
-57.5056
0
ARC
8
BLACK
10
94.742
20
-57.5056
40
0.127
50
360
51
540
0
ARC
8
BLACK
10
94.742
20
-58.42
40
0.127
50
180
51
360
0
LINE
8
BLACK
10
94.8318
20
-57.4158
11
92.2918
21
-54.8758
0
LINE
8
BLACK
10
94.6522
20
-57.5954
11
92.1122
21
-55.0554
0
ARC
8
BLACK
10
92.202
20
-54.9656
40
0.127
50
405
51
585
0
ARC
8
BLACK
10
94.742
20
-57.5056
40
0.127
50
225
51
405
0
LINE
8
BLACK
10
92.329
20
-54.9656
11
92.329
21
-50.8
0
LINE
8
BLACK
10
92.075
20
-54.9656
11
92.075
21
-50.8
0
ARC
8
BLACK
10
92.202
20
-50.8
40
0.127
50
360
51
540
0
ARC
8
BLACK
10
92.202
20
-54.9656
40
0.127
50
180
51
360
0
LINE
8
BLACK
10
92.329
20
-58.42
11
92.329
21
-56.4642
0
LINE
8
BLACK
10
92.075
20
-58.42
11
92.075
21
-56.4642
0
ARC
8
BLACK
10
92.202
20
-56.4642
40
0.127
50
360
51
540
0
ARC
8
BLACK
10
92.202
20
-58.42
40
0.127
50
180
51
360
0
LINE
8
BLACK
10
92.2918
20
-56.3744
11
89.7518
21
-53.8344
0
LINE
8
BLACK
10
92.1122
20
-56.554
11
89.5722
21
-54.014
0
ARC
8
BLACK
10
89.662
20
-53.9242
40
0.127
50
405
51
585
0
ARC
8
BLACK
10
92.202
20
-56.4642
40
0.127
50
225
51
405
0
LINE
8
BLACK
10
89.789
20
-53.9242
11
89.789
21
-50.8
0
LINE
8
BLACK
10
89.535
20
-53.9242
11
89.535
21
-50.8
0
ARC
8
BLACK
10
89.662
20
-50.8
40
0.127
50
360
51
540
0
ARC
8
BLACK
10
89.662
20
-53.9242
40
0.127
50
180
51
360
0
LINE
8
BLACK
10
89.789
20
-58.42
11
89.789
21
-55.3466
0
LINE
8
BLACK
10
89.535
20
-58.42
11
89.535
21
-55.3466
0
ARC
8
BLACK
10
89.662
20
-55.3466
40
0.127
50
360
51
540
0
ARC
8
BLACK
10
89.662
20
-58.42
40
0.127
50
180
51
360
0
LINE
8
BLACK
10
89.7518
20
-55.2568
11
87.2118
21
-52.7168
0
LINE
8
BLACK
10
89.5722
20
-55.4364
11
87.0322
21
-52.8964
0
ARC
8
BLACK
10
87.122
20
-52.8066
40
0.127
50
405
51
585
0
ARC
8
BLACK
10
89.662
20
-55.3466
40
0.127
50
225
51
405
0
LINE
8
BLACK
10
87.249
20
-52.8066
11
87.249
21
-50.8
0
LINE
8
BLACK
10
86.995
20
-52.8066
11
86.995
21
-50.8
0
ARC
8
BLACK
10
87.122
20
-50.8
40
0.127
50
360
51
540
0
ARC
8
BLACK
10
87.122
20
-52.8066
40
0.127
50
180
51
360
0
LINE
8
BLACK
10
63.5635
20
-90.2335
11
63.5635
21
-71.374
0
LINE
8
BLACK
10
63.3095
20
-90.2335
11
63.3095
21
-71.374
0
ARC
8
BLACK
10
63.4365
20
-71.374
40
0.127
50
360
51
540
0
ARC
8
BLACK
10
63.4365
20
-90.2335
40
0.127
50
180
51
360
0
LINE
8
BLACK
10
63.8175
20
-71.12
11
71.6915
21
-71.12
0
LINE
8
BLACK
10
63.8175
20
-70.866
11
71.6915
21
-70.866
0
ARC
8
BLACK
10
71.6915
20
-70.993
40
0.127
50
270
51
450
0
ARC
8
BLACK
10
63.8175
20
-70.993
40
0.127
50
90
51
270
0
LINE
8
BLACK
10
63.5263
20
-71.4638
11
63.9073
21
-71.0828
0
LINE
8
BLACK
10
63.3467
20
-71.2842
11
63.7277
21
-70.9032
0
ARC
8
BLACK
10
63.8175
20
-70.993
40
0.127
50
315
51
495
0
ARC
8
BLACK
10
63.4365
20
-71.374
40
0.127
50
135
51
315
0
LINE
8
BLACK
10
91.9217
20
-91.4772
11
91.0962
21
-92.3027
0
LINE
8
BLACK
10
92.1013
20
-91.6568
11
91.2758
21
-92.4823
0
ARC
8
BLACK
10
91.186
20
-92.3925
40
0.127
50
135
51
315
0
ARC
8
BLACK
10
92.0115
20
-91.567
40
0.127
50
-45
51
135
0
LINE
8
BLACK
10
91.313
20
-99.06
11
91.313
21
-92.3925
0
LINE
8
BLACK
10
91.059
20
-99.06
11
91.059
21
-92.3925
0
ARC
8
BLACK
10
91.186
20
-92.3925
40
0.127
50
360
51
540
0
ARC
8
BLACK
10
91.186
20
-99.06
40
0.127
50
180
51
360
0
LINE
8
BLACK
10
92.0115
20
-91.694
11
105.791
21
-91.694
0
LINE
8
BLACK
10
92.0115
20
-91.44
11
105.791
21
-91.44
0
ARC
8
BLACK
10
105.791
20
-91.567
40
0.127
50
270
51
450
0
ARC
8
BLACK
10
92.0115
20
-91.567
40
0.127
50
90
51
270
0
LINE
8
BLACK
10
116.75
20
-90.5138
11
118.02
21
-91.7838
0
LINE
8
BLACK
10
116.93
20
-90.3342
11
118.2
21
-91.6042
0
ARC
8
BLACK
10
118.11
20
-91.694
40
0.127
50
225
51
405
0
ARC
8
BLACK
10
116.84
20
-90.424
40
0.127
50
45
51
225
0
LINE
8
BLACK
10
98.1456
20
-103.988
11
104.038
21
-103.988
0
LINE
8
BLACK
10
98.1456
20
-103.734
11
104.038
21
-103.734
0
ARC
8
BLACK
10
104.038
20
-103.861
40
0.127
50
270
51
450
0
ARC
8
BLACK
10
98.1456
20
-103.861
40
0.127
50
90
51
270
0
LINE
8
BLACK
10
97.663
20
-103.251
11
97.663
21
-96.012
0
LINE
8
BLACK
10
97.409
20
-103.251
11
97.409
21
-96.012
0
ARC
8
BLACK
10
97.536
20
-96.012
40
0.127
50
360
51
540
0
ARC
8
BLACK
10
97.536
20
-103.251
40
0.127
50
180
51
360
0
LINE
8
BLACK
10
98.2354
20
-103.771
11
97.6258
21
-103.161
0
LINE
8
BLACK
10
98.0558
20
-103.95
11
97.4462
21
-103.341
0
ARC
8
BLACK
10
97.536
20
-103.251
40
0.127
50
405
51
585
0
ARC
8
BLACK
10
98.1456
20
-103.861
40
0.127
50
225
51
405
0
LINE
8
BLACK
10
104.165
20
-105.918
11
104.165
21
-103.861
0
LINE
8
BLACK
10
103.911
20
-105.918
11
103.911
21
-103.861
0
ARC
8
BLACK
10
104.038
20
-103.861
40
0.127
50
360
51
540
0
ARC
8
BLACK
10
104.038
20
-105.918
40
0.127
50
180
51
360
0
LINE
8
BLACK
10
104.165
20
-112.039
11
104.165
21
-105.918
0
LINE
8
BLACK
10
103.911
20
-112.039
11
103.911
21
-105.918
0
ARC
8
BLACK
10
104.038
20
-105.918
40
0.127
50
360
51
540
0
ARC
8
BLACK
10
104.038
20
-112.039
40
0.127
50
180
51
360
0
LINE
8
BLACK
10
97.6258
20
-96.1018
11
98.4894
21
-95.2382
0
LINE
8
BLACK
10
97.4462
20
-95.9222
11
98.3098
21
-95.0586
0
ARC
8
BLACK
10
98.3996
20
-95.1484
40
0.127
50
315
51
495
0
ARC
8
BLACK
10
97.536
20
-96.012
40
0.127
50
135
51
315
0
LINE
8
BLACK
10
98.3996
20
-95.2754
11
111.531
21
-95.2754
0
LINE
8
BLACK
10
98.3996
20
-95.0214
11
111.531
21
-95.0214
0
ARC
8
BLACK
10
111.531
20
-95.1484
40
0.127
50
270
51
450
0
ARC
8
BLACK
10
98.3996
20
-95.1484
40
0.127
50
90
51
270
0
LINE
8
BLACK
10
107.188
20
-80.3148
11
107.188
21
-78.486
0
LINE
8
BLACK
10
106.934
20
-80.3148
11
106.934
21
-78.486
0
ARC
8
BLACK
10
107.061
20
-78.486
40
0.127
50
360
51
540
0
ARC
8
BLACK
10
107.061
20
-80.3148
40
0.127
50
180
51
360
0
LINE
8
BLACK
10
111.621
20
-95.2382
11
112.256
21
-94.6032
0
LINE
8
BLACK
10
111.442
20
-95.0586
11
112.077
21
-94.4236
0
ARC
8
BLACK
10
112.166
20
-94.5134
40
0.127
50
315
51
495
0
ARC
8
BLACK
10
111.531
20
-95.1484
40
0.127
50
135
51
315
0
LINE
8
BLACK
10
106.971
20
-80.225
11
106.425
21
-80.7711
0
LINE
8
BLACK
10
107.151
20
-80.4046
11
106.605
21
-80.9507
0
ARC
8
BLACK
10
106.515
20
-80.8609
40
0.127
50
135
51
315
0
ARC
8
BLACK
10
107.061
20
-80.3148
40
0.127
50
-45
51
135
0
LINE
8
BLACK
10
112.293
20
-94.5134
11
112.293
21
-90.424
0
LINE
8
BLACK
10
112.039
20
-94.5134
11
112.039
21
-90.424
0
ARC
8
BLACK
10
112.166
20
-90.424
40
0.127
50
360
51
540
0
ARC
8
BLACK
10
112.166
20
-94.5134
40
0.127
50
180
51
360
0
LINE
8
BLACK
10
98.7044
20
-90.551
11
112.166
21
-90.551
0
LINE
8
BLACK
10
98.7044
20
-90.297
11
112.166
21
-90.297
0
ARC
8
BLACK
10
112.166
20
-90.424
40
0.127
50
270
51
450
0
ARC
8
BLACK
10
98.7044
20
-90.424
40
0.127
50
90
51
270
0
LINE
8
BLACK
10
98.7942
20
-90.3342
11
98.2608
21
-89.8008
0
LINE
8
BLACK
10
98.6146
20
-90.5138
11
98.0812
21
-89.9804
0
ARC
8
BLACK
10
98.171
20
-89.8906
40
0.127
50
405
51
585
0
ARC
8
BLACK
10
98.7044
20
-90.424
40
0.127
50
225
51
405
0
LINE
8
BLACK
10
98.298
20
-89.8906
11
98.298
21
-81.4197
0
LINE
8
BLACK
10
98.044
20
-89.8906
11
98.044
21
-81.4197
0
ARC
8
BLACK
10
98.171
20
-81.4197
40
0.127
50
360
51
540
0
ARC
8
BLACK
10
98.171
20
-89.8906
40
0.127
50
180
51
360
0
LINE
8
BLACK
10
98.2608
20
-81.5095
11
98.8196
21
-80.9507
0
LINE
8
BLACK
10
98.0812
20
-81.3299
11
98.64
21
-80.7711
0
ARC
8
BLACK
10
98.7298
20
-80.8609
40
0.127
50
315
51
495
0
ARC
8
BLACK
10
98.171
20
-81.4197
40
0.127
50
135
51
315
0
LINE
8
BLACK
10
98.7298
20
-80.9879
11
106.515
21
-80.9879
0
LINE
8
BLACK
10
98.7298
20
-80.7339
11
106.515
21
-80.7339
0
ARC
8
BLACK
10
106.515
20
-80.8609
40
0.127
50
270
51
450
0
ARC
8
BLACK
10
98.7298
20
-80.8609
40
0.127
50
90
51
270
0
LINE
8
BLACK
10
112.166
20
-90.551
11
116.84
21
-90.551
0
LINE
8
BLACK
10
112.166
20
-90.297
11
116.84
21
-90.297
0
ARC
8
BLACK
10
116.84
20
-90.424
40
0.127
50
270
51
450
0
ARC
8
BLACK
10
112.166
20
-90.424
40
0.127
50
90
51
270
0
LINE
8
BLACK
10
115.913
20
-73.5076
11
122.657
21
-73.5076
0
LINE
8
BLACK
10
115.913
20
-73.2536
11
122.657
21
-73.2536
0
ARC
8
BLACK
10
122.657
20
-73.3806
40
0.127
50
270
51
450
0
ARC
8
BLACK
10
115.913
20
-73.3806
40
0.127
50
90
51
270
0
LINE
8
BLACK
10
124.143
20
-55.6378
11
119.216
21
-50.7102
0
LINE
8
BLACK
10
123.964
20
-55.8174
11
119.036
21
-50.8898
0
ARC
8
BLACK
10
119.126
20
-50.8
40
0.127
50
405
51
585
0
ARC
8
BLACK
10
124.054
20
-55.7276
40
0.127
50
225
51
405
0
LINE
8
BLACK
10
124.181
20
-71.9836
11
124.181
21
-55.7276
0
LINE
8
BLACK
10
123.927
20
-71.9836
11
123.927
21
-55.7276
0
ARC
8
BLACK
10
124.054
20
-55.7276
40
0.127
50
360
51
540
0
ARC
8
BLACK
10
124.054
20
-71.9836
40
0.127
50
180
51
360
0
LINE
8
BLACK
10
122.746
20
-73.4704
11
124.143
21
-72.0734
0
LINE
8
BLACK
10
122.567
20
-73.2908
11
123.964
21
-71.8938
0
ARC
8
BLACK
10
124.054
20
-71.9836
40
0.127
50
315
51
495
0
ARC
8
BLACK
10
122.657
20
-73.3806
40
0.127
50
135
51
315
0
LINE
8
BLACK
10
107.594
20
-85.4964
11
107.594
21
-81.8261
0
LINE
8
BLACK
10
107.34
20
-85.4964
11
107.34
21
-81.8261
0
ARC
8
BLACK
10
107.467
20
-81.8261
40
0.127
50
360
51
540
0
ARC
8
BLACK
10
107.467
20
-85.4964
40
0.127
50
180
51
360
0
LINE
8
BLACK
10
115.823
20
-73.2908
11
107.378
21
-81.7363
0
LINE
8
BLACK
10
116.003
20
-73.4704
11
107.557
21
-81.9159
0
ARC
8
BLACK
10
107.467
20
-81.8261
40
0.127
50
135
51
315
0
ARC
8
BLACK
10
115.913
20
-73.3806
40
0.127
50
-45
51
135
0
LINE
8
BLACK
10
50.3682
20
-100.66
11
62.8904
21
-100.66
0
LINE
8
BLACK
10
50.3682
20
-100.406
11
62.8904
21
-100.406
0
ARC
8
BLACK
10
62.8904
20
-100.533
40
0.127
50
270
51
450
0
ARC
8
BLACK
10
50.3682
20
-100.533
40
0.127
50
90
51
270
0
LINE
8
BLACK
10
62.9802
20
-100.623
11
64.9218
21
-98.6814
0
LINE
8
BLACK
10
62.8006
20
-100.443
11
64.7422
21
-98.5018
0
ARC
8
BLACK
10
64.832
20
-98.5916
40
0.127
50
315
51
495
0
ARC
8
BLACK
10
62.8904
20
-100.533
40
0.127
50
135
51
315
0
LINE
8
BLACK
10
64.6892
20
-86.8682
11
64.7096
21
-98.5918
0
LINE
8
BLACK
10
64.9432
20
-86.8678
11
64.9636
21
-98.5914
0
ARC
8
BLACK
10
64.8366
20
-98.5916
40
0.127
50
180.1
51
360.1
0
ARC
8
BLACK
10
64.8162
20
-86.868
40
0.127
50
0.1
51
180.1
0
LINE
8
BLACK
10
50.2784
20
-100.443
11
49.4402
21
-101.282
0
LINE
8
BLACK
10
50.458
20
-100.623
11
49.6198
21
-101.461
0
ARC
8
BLACK
10
49.53
20
-101.371
40
0.127
50
135
51
315
0
ARC
8
BLACK
10
50.3682
20
-100.533
40
0.127
50
-45
51
135
0
LINE
8
BLACK
10
49.657
20
-105.41
11
49.657
21
-101.371
0
LINE
8
BLACK
10
49.403
20
-105.41
11
49.403
21
-101.371
0
ARC
8
BLACK
10
49.53
20
-101.371
40
0.127
50
360
51
540
0
ARC
8
BLACK
10
49.53
20
-105.41
40
0.127
50
180
51
360
0
LINE
8
BLACK
10
121.793
20
-99.06
11
121.793
21
-77.978
0
LINE
8
BLACK
10
121.539
20
-99.06
11
121.539
21
-77.978
0
ARC
8
BLACK
10
121.666
20
-77.978
40
0.127
50
360
51
540
0
ARC
8
BLACK
10
121.666
20
-99.06
40
0.127
50
180
51
360
0
LINE
8
BLACK
10
118.11
20
-78.105
11
121.666
21
-78.105
0
LINE
8
BLACK
10
118.11
20
-77.851
11
121.666
21
-77.851
0
ARC
8
BLACK
10
121.666
20
-77.978
40
0.127
50
270
51
450
0
ARC
8
BLACK
10
118.11
20
-77.978
40
0.127
50
90
51
270
0
LINE
8
BLACK
10
121.666
20
-78.105
11
124.498
21
-78.105
0
LINE
8
BLACK
10
121.666
20
-77.851
11
124.498
21
-77.851
0
ARC
8
BLACK
10
124.498
20
-77.978
40
0.127
50
270
51
450
0
ARC
8
BLACK
10
121.666
20
-77.978
40
0.127
50
90
51
270
0
LINE
8
BLACK
10
124.588
20
-78.0678
11
126.175
21
-76.4803
0
LINE
8
BLACK
10
124.408
20
-77.8882
11
125.996
21
-76.3007
0
ARC
8
BLACK
10
126.086
20
-76.3905
40
0.127
50
315
51
495
0
ARC
8
BLACK
10
124.498
20
-77.978
40
0.127
50
135
51
315
0
LINE
8
BLACK
10
126.213
20
-76.3905
11
126.213
21
-51.8414
0
LINE
8
BLACK
10
125.959
20
-76.3905
11
125.959
21
-51.8414
0
ARC
8
BLACK
10
126.086
20
-51.8414
40
0.127
50
360
51
540
0
ARC
8
BLACK
10
126.086
20
-76.3905
40
0.127
50
180
51
360
0
LINE
8
BLACK
10
126.175
20
-51.7516
11
123.051
21
-48.6274
0
LINE
8
BLACK
10
125.996
20
-51.9312
11
122.872
21
-48.807
0
ARC
8
BLACK
10
122.961
20
-48.7172
40
0.127
50
405
51
585
0
ARC
8
BLACK
10
126.086
20
-51.8414
40
0.127
50
225
51
405
0
LINE
8
BLACK
10
79.0448
20
-48.8442
11
122.961
21
-48.8442
0
LINE
8
BLACK
10
79.0448
20
-48.5902
11
122.961
21
-48.5902
0
ARC
8
BLACK
10
122.961
20
-48.7172
40
0.127
50
270
51
450
0
ARC
8
BLACK
10
79.0448
20
-48.7172
40
0.127
50
90
51
270
0
LINE
8
BLACK
10
78.955
20
-48.6274
11
76.8722
21
-50.7102
0
LINE
8
BLACK
10
79.1346
20
-48.807
11
77.0518
21
-50.8898
0
ARC
8
BLACK
10
76.962
20
-50.8
40
0.127
50
135
51
315
0
ARC
8
BLACK
10
79.0448
20
-48.7172
40
0.127
50
-45
51
135
0
LINE
8
BLACK
10
105.918
20
-78.486
11
105.918
21
-57.0992
0
LINE
8
BLACK
10
105.664
20
-78.486
11
105.664
21
-57.0992
0
ARC
8
BLACK
10
105.791
20
-57.0992
40
0.127
50
360
51
540
0
ARC
8
BLACK
10
105.791
20
-78.486
40
0.127
50
180
51
360
0
LINE
8
BLACK
10
97.2185
20
-56.261
11
104.826
21
-56.261
0
LINE
8
BLACK
10
97.2185
20
-56.007
11
104.826
21
-56.007
0
ARC
8
BLACK
10
104.826
20
-56.134
40
0.127
50
270
51
450
0
ARC
8
BLACK
10
97.2185
20
-56.134
40
0.127
50
90
51
270
0
LINE
8
BLACK
10
105.881
20
-57.0094
11
104.916
21
-56.0442
0
LINE
8
BLACK
10
105.701
20
-57.189
11
104.736
21
-56.2238
0
ARC
8
BLACK
10
104.826
20
-56.134
40
0.127
50
405
51
585
0
ARC
8
BLACK
10
105.791
20
-57.0992
40
0.127
50
225
51
405
0
LINE
8
BLACK
10
119.253
20
-99.06
11
119.253
21
-96.8502
0
LINE
8
BLACK
10
118.999
20
-99.06
11
118.999
21
-96.8502
0
ARC
8
BLACK
10
119.126
20
-96.8502
40
0.127
50
360
51
540
0
ARC
8
BLACK
10
119.126
20
-99.06
40
0.127
50
180
51
360
0
LINE
8
BLACK
10
118.11
20
-80.645
11
119.507
21
-80.645
0
LINE
8
BLACK
10
118.11
20
-80.391
11
119.507
21
-80.391
0
ARC
8
BLACK
10
119.507
20
-80.518
40
0.127
50
270
51
450
0
ARC
8
BLACK
10
118.11
20
-80.518
40
0.127
50
90
51
270
0
LINE
8
BLACK
10
120.308
20
-81.1394
11
119.597
21
-80.4282
0
LINE
8
BLACK
10
120.128
20
-81.319
11
119.417
21
-80.6078
0
ARC
8
BLACK
10
119.507
20
-80.518
40
0.127
50
405
51
585
0
ARC
8
BLACK
10
120.218
20
-81.2292
40
0.127
50
225
51
405
0
LINE
8
BLACK
10
120.345
20
-95.758
11
120.345
21
-81.2292
0
LINE
8
BLACK
10
120.091
20
-95.758
11
120.091
21
-81.2292
0
ARC
8
BLACK
10
120.218
20
-81.2292
40
0.127
50
360
51
540
0
ARC
8
BLACK
10
120.218
20
-95.758
40
0.127
50
180
51
360
0
LINE
8
BLACK
10
119.216
20
-96.94
11
120.308
21
-95.8478
0
LINE
8
BLACK
10
119.036
20
-96.7604
11
120.128
21
-95.6682
0
ARC
8
BLACK
10
120.218
20
-95.758
40
0.127
50
315
51
495
0
ARC
8
BLACK
10
119.126
20
-96.8502
40
0.127
50
135
51
315
0
LINE
8
BLACK
10
121.666
20
-76.835
11
123.33
21
-76.835
0
LINE
8
BLACK
10
121.666
20
-76.581
11
123.33
21
-76.581
0
ARC
8
BLACK
10
123.33
20
-76.708
40
0.127
50
270
51
450
0
ARC
8
BLACK
10
121.666
20
-76.708
40
0.127
50
90
51
270
0
LINE
8
BLACK
10
123.42
20
-76.7978
11
125.579
21
-74.6388
0
LINE
8
BLACK
10
123.24
20
-76.6182
11
125.399
21
-74.4592
0
ARC
8
BLACK
10
125.489
20
-74.549
40
0.127
50
315
51
495
0
ARC
8
BLACK
10
123.33
20
-76.708
40
0.127
50
135
51
315
0
LINE
8
BLACK
10
125.616
20
-74.549
11
125.616
21
-52.1462
0
LINE
8
BLACK
10
125.362
20
-74.549
11
125.362
21
-52.1462
0
ARC
8
BLACK
10
125.489
20
-52.1462
40
0.127
50
360
51
540
0
ARC
8
BLACK
10
125.489
20
-74.549
40
0.127
50
180
51
360
0
LINE
8
BLACK
10
125.579
20
-52.0564
11
122.696
21
-49.1735
0
LINE
8
BLACK
10
125.399
20
-52.236
11
122.516
21
-49.3531
0
ARC
8
BLACK
10
122.606
20
-49.2633
40
0.127
50
405
51
585
0
ARC
8
BLACK
10
125.489
20
-52.1462
40
0.127
50
225
51
405
0
LINE
8
BLACK
10
81.0387
20
-49.3903
11
122.606
21
-49.3903
0
LINE
8
BLACK
10
81.0387
20
-49.1363
11
122.606
21
-49.1363
0
ARC
8
BLACK
10
122.606
20
-49.2633
40
0.127
50
270
51
450
0
ARC
8
BLACK
10
81.0387
20
-49.2633
40
0.127
50
90
51
270
0
LINE
8
BLACK
10
80.9489
20
-49.1735
11
79.4122
21
-50.7102
0
LINE
8
BLACK
10
81.1285
20
-49.3531
11
79.5918
21
-50.8898
0
ARC
8
BLACK
10
79.502
20
-50.8
40
0.127
50
135
51
315
0
ARC
8
BLACK
10
81.0387
20
-49.2633
40
0.127
50
-45
51
135
0
LINE
8
BLACK
10
104.648
20
-78.486
11
104.648
21
-58.4708
0
LINE
8
BLACK
10
104.394
20
-78.486
11
104.394
21
-58.4708
0
ARC
8
BLACK
10
104.521
20
-58.4708
40
0.127
50
360
51
540
0
ARC
8
BLACK
10
104.521
20
-78.486
40
0.127
50
180
51
360
0
LINE
8
BLACK
10
97.155
20
-57.531
11
103.454
21
-57.531
0
LINE
8
BLACK
10
97.155
20
-57.277
11
103.454
21
-57.277
0
ARC
8
BLACK
10
103.454
20
-57.404
40
0.127
50
270
51
450
0
ARC
8
BLACK
10
97.155
20
-57.404
40
0.127
50
90
51
270
0
LINE
8
BLACK
10
104.611
20
-58.381
11
103.544
21
-57.3142
0
LINE
8
BLACK
10
104.431
20
-58.5606
11
103.364
21
-57.4938
0
ARC
8
BLACK
10
103.454
20
-57.404
40
0.127
50
405
51
585
0
ARC
8
BLACK
10
104.521
20
-58.4708
40
0.127
50
225
51
405
0
LINE
8
BLACK
10
76.8985
20
-68.8975
11
81.2165
21
-68.8975
0
LINE
8
BLACK
10
76.8985
20
-68.6435
11
81.2165
21
-68.6435
0
ARC
8
BLACK
10
81.2165
20
-68.7705
40
0.127
50
270
51
450
0
ARC
8
BLACK
10
76.8985
20
-68.7705
40
0.127
50
90
51
270
0
LINE
8
BLACK
10
80.0735
20
-99.7585
11
80.0735
21
-86.8553
0
LINE
8
BLACK
10
79.8195
20
-99.7585
11
79.8195
21
-86.8553
0
ARC
8
BLACK
10
79.9465
20
-86.8553
40
0.127
50
360
51
540
0
ARC
8
BLACK
10
79.9465
20
-99.7585
40
0.127
50
180
51
360
0
LINE
8
BLACK
10
80.0363
20
-86.7655
11
79.287
21
-86.0162
0
LINE
8
BLACK
10
79.8567
20
-86.9451
11
79.1074
21
-86.1958
0
ARC
8
BLACK
10
79.1972
20
-86.106
40
0.127
50
405
51
585
0
ARC
8
BLACK
10
79.9465
20
-86.8553
40
0.127
50
225
51
405
0
LINE
8
BLACK
10
75.057
20
-86.233
11
79.1972
21
-86.233
0
LINE
8
BLACK
10
75.057
20
-85.979
11
79.1972
21
-85.979
0
ARC
8
BLACK
10
79.1972
20
-86.106
40
0.127
50
270
51
450
0
ARC
8
BLACK
10
75.057
20
-86.106
40
0.127
50
90
51
270
0
LINE
8
BLACK
10
74.2687
20
-85.4973
11
74.9672
21
-86.1958
0
LINE
8
BLACK
10
74.4483
20
-85.3177
11
75.1468
21
-86.0162
0
ARC
8
BLACK
10
75.057
20
-86.106
40
0.127
50
225
51
405
0
ARC
8
BLACK
10
74.3585
20
-85.4075
40
0.127
50
45
51
225
0
LINE
8
BLACK
10
74.4855
20
-85.4075
11
74.4855
21
-83.312
0
LINE
8
BLACK
10
74.2315
20
-85.4075
11
74.2315
21
-83.312
0
ARC
8
BLACK
10
74.3585
20
-83.312
40
0.127
50
360
51
540
0
ARC
8
BLACK
10
74.3585
20
-85.4075
40
0.127
50
180
51
360
0
LINE
8
BLACK
10
93.8276
20
-105.943
11
93.8276
21
-103.861
0
LINE
8
BLACK
10
93.5736
20
-105.943
11
93.5736
21
-103.861
0
ARC
8
BLACK
10
93.7006
20
-103.861
40
0.127
50
360
51
540
0
ARC
8
BLACK
10
93.7006
20
-105.943
40
0.127
50
180
51
360
0
LINE
8
BLACK
10
93.8276
20
-112.039
11
93.8276
21
-105.943
0
LINE
8
BLACK
10
93.5736
20
-112.039
11
93.5736
21
-105.943
0
ARC
8
BLACK
10
93.7006
20
-105.943
40
0.127
50
360
51
540
0
ARC
8
BLACK
10
93.7006
20
-112.039
40
0.127
50
180
51
360
0
LINE
8
BLACK
10
79.4122
20
-65.5583
11
80.3012
21
-66.4473
0
LINE
8
BLACK
10
79.5918
20
-65.3787
11
80.4808
21
-66.2677
0
ARC
8
BLACK
10
80.391
20
-66.3575
40
0.127
50
225
51
405
0
ARC
8
BLACK
10
79.502
20
-65.4685
40
0.127
50
45
51
225
0
LINE
8
BLACK
10
42.545
20
-65.5955
11
79.502
21
-65.5955
0
LINE
8
BLACK
10
42.545
20
-65.3415
11
79.502
21
-65.3415
0
ARC
8
BLACK
10
79.502
20
-65.4685
40
0.127
50
270
51
450
0
ARC
8
BLACK
10
42.545
20
-65.4685
40
0.127
50
90
51
270
0
LINE
8
BLACK
10
42.4552
20
-65.3787
11
41.9726
21
-65.8613
0
LINE
8
BLACK
10
42.6348
20
-65.5583
11
42.1522
21
-66.0409
0
ARC
8
BLACK
10
42.0624
20
-65.9511
40
0.127
50
135
51
315
0
ARC
8
BLACK
10
42.545
20
-65.4685
40
0.127
50
-45
51
135
0
LINE
8
BLACK
10
42.1894
20
-69.7484
11
42.1894
21
-65.9511
0
LINE
8
BLACK
10
41.9354
20
-69.7484
11
41.9354
21
-65.9511
0
ARC
8
BLACK
10
42.0624
20
-65.9511
40
0.127
50
360
51
540
0
ARC
8
BLACK
10
42.0624
20
-69.7484
40
0.127
50
180
51
360
0
LINE
8
BLACK
10
42.5822
20
-75.7927
11
42.5187
21
-75.8562
0
LINE
8
BLACK
10
42.7618
20
-75.9723
11
42.6983
21
-76.0358
0
ARC
8
BLACK
10
42.6085
20
-75.946
40
0.127
50
135
51
315
0
ARC
8
BLACK
10
42.672
20
-75.8825
40
0.127
50
-45
51
135
0
LINE
8
BLACK
10
42.1005
20
-76.073
11
42.6085
21
-76.073
0
LINE
8
BLACK
10
42.1005
20
-75.819
11
42.6085
21
-75.819
0
ARC
8
BLACK
10
42.6085
20
-75.946
40
0.127
50
270
51
450
0
ARC
8
BLACK
10
42.1005
20
-75.946
40
0.127
50
90
51
270
0
LINE
8
BLACK
10
42.1903
20
-75.8562
11
41.8728
21
-75.5387
0
LINE
8
BLACK
10
42.0107
20
-76.0358
11
41.6932
21
-75.7183
0
ARC
8
BLACK
10
41.783
20
-75.6285
40
0.127
50
405
51
585
0
ARC
8
BLACK
10
42.1005
20
-75.946
40
0.127
50
225
51
405
0
LINE
8
BLACK
10
49.2388
20
-67.4125
11
50.458
21
-66.1933
0
LINE
8
BLACK
10
49.0592
20
-67.2329
11
50.2784
21
-66.0137
0
ARC
8
BLACK
10
50.3682
20
-66.1035
40
0.127
50
315
51
495
0
ARC
8
BLACK
10
49.149
20
-67.3227
40
0.127
50
135
51
315
0
LINE
8
BLACK
10
49.0592
20
-70.0777
11
48.3924
21
-70.7444
0
LINE
8
BLACK
10
49.2388
20
-70.2573
11
48.5721
21
-70.9241
0
ARC
8
BLACK
10
48.4823
20
-70.8343
40
0.127
50
135
51
315
0
ARC
8
BLACK
10
49.149
20
-70.1675
40
0.127
50
-45
51
135
0
LINE
8
BLACK
10
49.276
20
-70.1675
11
49.276
21
-67.3227
0
LINE
8
BLACK
10
49.022
20
-70.1675
11
49.022
21
-67.3227
0
ARC
8
BLACK
10
49.149
20
-67.3227
40
0.127
50
360
51
540
0
ARC
8
BLACK
10
49.149
20
-70.1675
40
0.127
50
180
51
360
0
LINE
8
BLACK
10
41.8728
20
-71.9083
11
42.8571
21
-70.9241
0
LINE
8
BLACK
10
41.6932
20
-71.7287
11
42.6774
21
-70.7444
0
ARC
8
BLACK
10
42.7672
20
-70.8343
40
0.127
50
315
51
495
0
ARC
8
BLACK
10
41.783
20
-71.8185
40
0.127
50
135
51
315
0
LINE
8
BLACK
10
42.7673
20
-70.9613
11
48.4823
21
-70.9613
0
LINE
8
BLACK
10
42.7673
20
-70.7073
11
48.4823
21
-70.7073
0
ARC
8
BLACK
10
48.4823
20
-70.8343
40
0.127
50
270
51
450
0
ARC
8
BLACK
10
42.7673
20
-70.8343
40
0.127
50
90
51
270
0
LINE
8
BLACK
10
41.91
20
-75.6285
11
41.91
21
-71.8185
0
LINE
8
BLACK
10
41.656
20
-75.6285
11
41.656
21
-71.8185
0
ARC
8
BLACK
10
41.783
20
-71.8185
40
0.127
50
360
51
540
0
ARC
8
BLACK
10
41.783
20
-75.6285
40
0.127
50
180
51
360
0
LINE
8
BLACK
10
78.6629
20
-66.1933
11
78.9042
21
-66.4346
0
LINE
8
BLACK
10
78.8425
20
-66.0137
11
79.0838
21
-66.255
0
ARC
8
BLACK
10
78.994
20
-66.3448
40
0.127
50
225
51
405
0
ARC
8
BLACK
10
78.7527
20
-66.1035
40
0.127
50
45
51
225
0
LINE
8
BLACK
10
50.3682
20
-66.2305
11
78.7527
21
-66.2305
0
LINE
8
BLACK
10
50.3682
20
-65.9765
11
78.7527
21
-65.9765
0
ARC
8
BLACK
10
78.7527
20
-66.1035
40
0.127
50
270
51
450
0
ARC
8
BLACK
10
50.3682
20
-66.1035
40
0.127
50
90
51
270
0
LINE
8
BLACK
10
51.0667
20
-66.8655
11
77.3049
21
-66.8655
0
LINE
8
BLACK
10
51.0667
20
-66.6115
11
77.3049
21
-66.6115
0
ARC
8
BLACK
10
77.3049
20
-66.7385
40
0.127
50
270
51
450
0
ARC
8
BLACK
10
51.0667
20
-66.7385
40
0.127
50
90
51
270
0
LINE
8
BLACK
10
77.2151
20
-66.8283
11
78.0914
21
-67.7046
0
LINE
8
BLACK
10
77.3947
20
-66.6487
11
78.271
21
-67.525
0
ARC
8
BLACK
10
78.1812
20
-67.6148
40
0.127
50
225
51
405
0
ARC
8
BLACK
10
77.3049
20
-66.7385
40
0.127
50
45
51
225
0
LINE
8
BLACK
10
42.7618
20
-72.1496
11
43.3587
21
-71.5527
0
LINE
8
BLACK
10
42.5822
20
-71.97
11
43.1791
21
-71.3731
0
ARC
8
BLACK
10
43.2689
20
-71.4629
40
0.127
50
315
51
495
0
ARC
8
BLACK
10
42.672
20
-72.0598
40
0.127
50
135
51
315
0
LINE
8
BLACK
10
43.2689
20
-71.5899
11
49.1236
21
-71.5899
0
LINE
8
BLACK
10
43.2689
20
-71.3359
11
49.1236
21
-71.3359
0
ARC
8
BLACK
10
49.1236
20
-71.4629
40
0.127
50
270
51
450
0
ARC
8
BLACK
10
43.2689
20
-71.4629
40
0.127
50
90
51
270
0
LINE
8
BLACK
10
49.2134
20
-71.5527
11
50.0008
21
-70.7653
0
LINE
8
BLACK
10
49.0338
20
-71.3731
11
49.8212
21
-70.5857
0
ARC
8
BLACK
10
49.911
20
-70.6755
40
0.127
50
315
51
495
0
ARC
8
BLACK
10
49.1236
20
-71.4629
40
0.127
50
135
51
315
0
LINE
8
BLACK
10
50.038
20
-70.6755
11
50.038
21
-67.8942
0
LINE
8
BLACK
10
49.784
20
-70.6755
11
49.784
21
-67.8942
0
ARC
8
BLACK
10
49.911
20
-67.8942
40
0.127
50
360
51
540
0
ARC
8
BLACK
10
49.911
20
-70.6755
40
0.127
50
180
51
360
0
LINE
8
BLACK
10
42.799
20
-74.7395
11
42.799
21
-72.0598
0
LINE
8
BLACK
10
42.545
20
-74.7395
11
42.545
21
-72.0598
0
ARC
8
BLACK
10
42.672
20
-72.0598
40
0.127
50
360
51
540
0
ARC
8
BLACK
10
42.672
20
-74.7395
40
0.127
50
180
51
360
0
LINE
8
BLACK
10
78.2837
20
-67.5377
11
78.271
21
-67.525
0
LINE
8
BLACK
10
78.1041
20
-67.7173
11
78.0914
21
-67.7046
0
ARC
8
BLACK
10
78.1812
20
-67.6148
40
0.127
50
405
51
585
0
ARC
8
BLACK
10
78.1939
20
-67.6275
40
0.127
50
225
51
405
0
LINE
8
BLACK
10
78.1939
20
-67.7545
11
81.2165
21
-67.7545
0
LINE
8
BLACK
10
78.1939
20
-67.5005
11
81.2165
21
-67.5005
0
ARC
8
BLACK
10
81.2165
20
-67.6275
40
0.127
50
270
51
450
0
ARC
8
BLACK
10
78.1939
20
-67.6275
40
0.127
50
90
51
270
0
LINE
8
BLACK
10
50.0008
20
-67.984
11
51.1565
21
-66.8283
0
LINE
8
BLACK
10
49.8212
20
-67.8044
11
50.9769
21
-66.6487
0
ARC
8
BLACK
10
51.0667
20
-66.7385
40
0.127
50
315
51
495
0
ARC
8
BLACK
10
49.911
20
-67.8942
40
0.127
50
135
51
315
0
LINE
8
BLACK
10
94.869
20
-66.929
11
94.869
21
-63.0428
0
LINE
8
BLACK
10
94.615
20
-66.929
11
94.615
21
-63.0428
0
ARC
8
BLACK
10
94.742
20
-63.0428
40
0.127
50
360
51
540
0
ARC
8
BLACK
10
94.742
20
-66.929
40
0.127
50
180
51
360
0
LINE
8
BLACK
10
96.4066
20
-57.7587
11
94.8318
21
-56.1839
0
LINE
8
BLACK
10
96.227
20
-57.9383
11
94.6522
21
-56.3635
0
ARC
8
BLACK
10
94.742
20
-56.2737
40
0.127
50
405
51
585
0
ARC
8
BLACK
10
96.3168
20
-57.8485
40
0.127
50
225
51
405
0
LINE
8
BLACK
10
96.4438
20
-61.468
11
96.4438
21
-57.8485
0
LINE
8
BLACK
10
96.1898
20
-61.468
11
96.1898
21
-57.8485
0
ARC
8
BLACK
10
96.3168
20
-57.8485
40
0.127
50
360
51
540
0
ARC
8
BLACK
10
96.3168
20
-61.468
40
0.127
50
180
51
360
0
LINE
8
BLACK
10
94.8318
20
-63.1326
11
96.4066
21
-61.5578
0
LINE
8
BLACK
10
94.6522
20
-62.953
11
96.227
21
-61.3782
0
ARC
8
BLACK
10
96.3168
20
-61.468
40
0.127
50
315
51
495
0
ARC
8
BLACK
10
94.742
20
-63.0428
40
0.127
50
135
51
315
0
LINE
8
BLACK
10
96.9908
20
-80.4935
11
97.6385
21
-79.8458
0
LINE
8
BLACK
10
96.8112
20
-80.3139
11
97.4589
21
-79.6662
0
ARC
8
BLACK
10
97.5487
20
-79.756
40
0.127
50
315
51
495
0
ARC
8
BLACK
10
96.901
20
-80.4037
40
0.127
50
135
51
315
0
LINE
8
BLACK
10
95.2763
20
-67.2837
11
94.8318
21
-66.8392
0
LINE
8
BLACK
10
95.0967
20
-67.4633
11
94.6522
21
-67.0188
0
ARC
8
BLACK
10
94.742
20
-66.929
40
0.127
50
405
51
585
0
ARC
8
BLACK
10
95.1865
20
-67.3735
40
0.127
50
225
51
405
0
LINE
8
BLACK
10
94.869
20
-56.2737
11
94.869
21
-50.8
0
LINE
8
BLACK
10
94.615
20
-56.2737
11
94.615
21
-50.8
0
ARC
8
BLACK
10
94.742
20
-50.8
40
0.127
50
360
51
540
0
ARC
8
BLACK
10
94.742
20
-56.2737
40
0.127
50
180
51
360
0
LINE
8
BLACK
10
95.1865
20
-67.5005
11
101.219
21
-67.5005
0
LINE
8
BLACK
10
95.1865
20
-67.2465
11
101.219
21
-67.2465
0
ARC
8
BLACK
10
101.219
20
-67.3735
40
0.127
50
270
51
450
0
ARC
8
BLACK
10
95.1865
20
-67.3735
40
0.127
50
90
51
270
0
LINE
8
BLACK
10
102.071
20
-68.0457
11
101.309
21
-67.2837
0
LINE
8
BLACK
10
101.891
20
-68.2253
11
101.129
21
-67.4633
0
ARC
8
BLACK
10
101.219
20
-67.3735
40
0.127
50
405
51
585
0
ARC
8
BLACK
10
101.981
20
-68.1355
40
0.127
50
225
51
405
0
LINE
8
BLACK
10
102.108
20
-79.0067
11
102.108
21
-68.1355
0
LINE
8
BLACK
10
101.854
20
-79.0067
11
101.854
21
-68.1355
0
ARC
8
BLACK
10
101.981
20
-68.1355
40
0.127
50
360
51
540
0
ARC
8
BLACK
10
101.981
20
-79.0067
40
0.127
50
180
51
360
0
LINE
8
BLACK
10
97.028
20
-87.63
11
97.028
21
-80.4037
0
LINE
8
BLACK
10
96.774
20
-87.63
11
96.774
21
-80.4037
0
ARC
8
BLACK
10
96.901
20
-80.4037
40
0.127
50
360
51
540
0
ARC
8
BLACK
10
96.901
20
-87.63
40
0.127
50
180
51
360
0
LINE
8
BLACK
10
101.322
20
-79.8458
11
102.071
21
-79.0965
0
LINE
8
BLACK
10
101.142
20
-79.6662
11
101.891
21
-78.9169
0
ARC
8
BLACK
10
101.981
20
-79.0067
40
0.127
50
315
51
495
0
ARC
8
BLACK
10
101.232
20
-79.756
40
0.127
50
135
51
315
0
LINE
8
BLACK
10
97.5487
20
-79.883
11
101.232
21
-79.883
0
LINE
8
BLACK
10
97.5487
20
-79.629
11
101.232
21
-79.629
0
ARC
8
BLACK
10
101.232
20
-79.756
40
0.127
50
270
51
450
0
ARC
8
BLACK
10
97.5487
20
-79.756
40
0.127
50
90
51
270
0
LINE
8
BLACK
10
81.026
20
-72.39
11
94.3483
21
-72.39
0
LINE
8
BLACK
10
81.026
20
-72.136
11
94.3483
21
-72.136
0
ARC
8
BLACK
10
94.3483
20
-72.263
40
0.127
50
270
51
450
0
ARC
8
BLACK
10
81.026
20
-72.263
40
0.127
50
90
51
270
0
LINE
8
BLACK
10
95.123
20
-79.6925
11
95.123
21
-72.9107
0
LINE
8
BLACK
10
94.869
20
-79.6925
11
94.869
21
-72.9107
0
ARC
8
BLACK
10
94.996
20
-72.9107
40
0.127
50
360
51
540
0
ARC
8
BLACK
10
94.996
20
-79.6925
40
0.127
50
180
51
360
0
LINE
8
BLACK
10
94.2585
20
-72.3528
11
94.9062
21
-73.0005
0
LINE
8
BLACK
10
94.4381
20
-72.1732
11
95.0858
21
-72.8209
0
ARC
8
BLACK
10
94.996
20
-72.9107
40
0.127
50
225
51
405
0
ARC
8
BLACK
10
94.3483
20
-72.263
40
0.127
50
45
51
225
0
LINE
8
BLACK
10
77.4065
20
-74.676
11
79.6925
21
-74.676
0
LINE
8
BLACK
10
77.4065
20
-74.422
11
79.6925
21
-74.422
0
ARC
8
BLACK
10
79.6925
20
-74.549
40
0.127
50
270
51
450
0
ARC
8
BLACK
10
77.4065
20
-74.549
40
0.127
50
90
51
270
0
LINE
8
BLACK
10
79.7823
20
-74.6388
11
80.0998
21
-74.3213
0
LINE
8
BLACK
10
79.6027
20
-74.4592
11
79.9202
21
-74.1417
0
ARC
8
BLACK
10
80.01
20
-74.2315
40
0.127
50
315
51
495
0
ARC
8
BLACK
10
79.6925
20
-74.549
40
0.127
50
135
51
315
0
LINE
8
BLACK
10
80.0998
20
-73.3688
11
81.1158
21
-72.3528
0
LINE
8
BLACK
10
79.9202
20
-73.1892
11
80.9362
21
-72.1732
0
ARC
8
BLACK
10
81.026
20
-72.263
40
0.127
50
315
51
495
0
ARC
8
BLACK
10
80.01
20
-73.279
40
0.127
50
135
51
315
0
LINE
8
BLACK
10
80.137
20
-74.2315
11
80.137
21
-73.279
0
LINE
8
BLACK
10
79.883
20
-74.2315
11
79.883
21
-73.279
0
ARC
8
BLACK
10
80.01
20
-73.279
40
0.127
50
360
51
540
0
ARC
8
BLACK
10
80.01
20
-74.2315
40
0.127
50
180
51
360
0
LINE
8
BLACK
10
116.586
20
-74.041
11
122.86
21
-74.041
0
LINE
8
BLACK
10
116.586
20
-73.787
11
122.86
21
-73.787
0
ARC
8
BLACK
10
122.86
20
-73.914
40
0.127
50
270
51
450
0
ARC
8
BLACK
10
116.586
20
-73.914
40
0.127
50
90
51
270
0
LINE
8
BLACK
10
124.69
20
-53.6439
11
121.756
21
-50.7102
0
LINE
8
BLACK
10
124.51
20
-53.8235
11
121.576
21
-50.8898
0
ARC
8
BLACK
10
121.666
20
-50.8
40
0.127
50
405
51
585
0
ARC
8
BLACK
10
124.6
20
-53.7337
40
0.127
50
225
51
405
0
LINE
8
BLACK
10
124.727
20
-72.1741
11
124.727
21
-53.7337
0
LINE
8
BLACK
10
124.473
20
-72.1741
11
124.473
21
-53.7337
0
ARC
8
BLACK
10
124.6
20
-53.7337
40
0.127
50
360
51
540
0
ARC
8
BLACK
10
124.6
20
-72.1741
40
0.127
50
180
51
360
0
LINE
8
BLACK
10
122.95
20
-74.0038
11
124.69
21
-72.2639
0
LINE
8
BLACK
10
122.77
20
-73.8242
11
124.51
21
-72.0843
0
ARC
8
BLACK
10
124.6
20
-72.1741
40
0.127
50
315
51
495
0
ARC
8
BLACK
10
122.86
20
-73.914
40
0.127
50
135
51
315
0
LINE
8
BLACK
10
108.56
20
-84.6074
11
108.56
21
-82.0674
0
LINE
8
BLACK
10
108.306
20
-84.6074
11
108.306
21
-82.0674
0
ARC
8
BLACK
10
108.433
20
-82.0674
40
0.127
50
360
51
540
0
ARC
8
BLACK
10
108.433
20
-84.6074
40
0.127
50
180
51
360
0
LINE
8
BLACK
10
108.522
20
-82.1572
11
116.676
21
-74.0038
0
LINE
8
BLACK
10
108.343
20
-81.9776
11
116.496
21
-73.8242
0
ARC
8
BLACK
10
116.586
20
-73.914
40
0.127
50
315
51
495
0
ARC
8
BLACK
10
108.433
20
-82.0674
40
0.127
50
135
51
315
0
LINE
8
BLACK
10
65.913
20
-99.0092
11
65.913
21
-85.979
0
LINE
8
BLACK
10
65.659
20
-99.0092
11
65.659
21
-85.979
0
ARC
8
BLACK
10
65.786
20
-85.979
40
0.127
50
360
51
540
0
ARC
8
BLACK
10
65.786
20
-99.0092
40
0.127
50
180
51
360
0
LINE
8
BLACK
10
65.6962
20
-98.9194
11
63.461
21
-101.155
0
LINE
8
BLACK
10
65.8758
20
-99.099
11
63.6406
21
-101.334
0
ARC
8
BLACK
10
63.5508
20
-101.244
40
0.127
50
135
51
315
0
ARC
8
BLACK
10
65.786
20
-99.0092
40
0.127
50
-45
51
135
0
LINE
8
BLACK
10
52.7422
20
-101.155
11
51.9802
21
-101.917
0
LINE
8
BLACK
10
52.9218
20
-101.334
11
52.1598
21
-102.096
0
ARC
8
BLACK
10
52.07
20
-102.006
40
0.127
50
135
51
315
0
ARC
8
BLACK
10
52.832
20
-101.244
40
0.127
50
-45
51
135
0
LINE
8
BLACK
10
52.197
20
-105.41
11
52.197
21
-102.006
0
LINE
8
BLACK
10
51.943
20
-105.41
11
51.943
21
-102.006
0
ARC
8
BLACK
10
52.07
20
-102.006
40
0.127
50
360
51
540
0
ARC
8
BLACK
10
52.07
20
-105.41
40
0.127
50
180
51
360
0
LINE
8
BLACK
10
52.832
20
-101.371
11
63.5508
21
-101.371
0
LINE
8
BLACK
10
52.832
20
-101.117
11
63.5508
21
-101.117
0
ARC
8
BLACK
10
63.5508
20
-101.244
40
0.127
50
270
51
450
0
ARC
8
BLACK
10
52.832
20
-101.244
40
0.127
50
90
51
270
0
LINE
8
BLACK
10
73.5076
20
-103.861
11
73.5076
21
-102.387
0
LINE
8
BLACK
10
73.2536
20
-103.861
11
73.2536
21
-102.387
0
ARC
8
BLACK
10
73.3806
20
-102.387
40
0.127
50
360
51
540
0
ARC
8
BLACK
10
73.3806
20
-103.861
40
0.127
50
180
51
360
0
LINE
8
BLACK
10
74.0791
20
-101.816
11
78.2828
21
-101.816
0
LINE
8
BLACK
10
74.0791
20
-101.562
11
78.2828
21
-101.562
0
ARC
8
BLACK
10
78.2828
20
-101.689
40
0.127
50
270
51
450
0
ARC
8
BLACK
10
74.0791
20
-101.689
40
0.127
50
90
51
270
0
LINE
8
BLACK
10
73.4704
20
-102.477
11
74.1689
21
-101.779
0
LINE
8
BLACK
10
73.2908
20
-102.298
11
73.9893
21
-101.599
0
ARC
8
BLACK
10
74.0791
20
-101.689
40
0.127
50
315
51
495
0
ARC
8
BLACK
10
73.3806
20
-102.387
40
0.127
50
135
51
315
0
LINE
8
BLACK
10
73.5076
20
-105.918
11
73.5076
21
-103.861
0
LINE
8
BLACK
10
73.2536
20
-105.918
11
73.2536
21
-103.861
0
ARC
8
BLACK
10
73.3806
20
-103.861
40
0.127
50
360
51
540
0
ARC
8
BLACK
10
73.3806
20
-105.918
40
0.127
50
180
51
360
0
LINE
8
BLACK
10
73.5076
20
-112.039
11
73.5076
21
-105.918
0
LINE
8
BLACK
10
73.2536
20
-112.039
11
73.2536
21
-105.918
0
ARC
8
BLACK
10
73.3806
20
-105.918
40
0.127
50
360
51
540
0
ARC
8
BLACK
10
73.3806
20
-112.039
40
0.127
50
180
51
360
0
LINE
8
BLACK
10
73.533
20
-86.2584
11
73.533
21
-82.4865
0
LINE
8
BLACK
10
73.279
20
-86.2584
11
73.279
21
-82.4865
0
ARC
8
BLACK
10
73.406
20
-82.4865
40
0.127
50
360
51
540
0
ARC
8
BLACK
10
73.406
20
-86.2584
40
0.127
50
180
51
360
0
LINE
8
BLACK
10
78.3726
20
-101.779
11
79.0203
21
-101.131
0
LINE
8
BLACK
10
78.193
20
-101.599
11
78.8407
21
-100.951
0
ARC
8
BLACK
10
78.9305
20
-101.041
40
0.127
50
315
51
495
0
ARC
8
BLACK
10
78.2828
20
-101.689
40
0.127
50
135
51
315
0
LINE
8
BLACK
10
79.0575
20
-101.041
11
79.0575
21
-87.63
0
LINE
8
BLACK
10
78.8035
20
-101.041
11
78.8035
21
-87.63
0
ARC
8
BLACK
10
78.9305
20
-87.63
40
0.127
50
360
51
540
0
ARC
8
BLACK
10
78.9305
20
-101.041
40
0.127
50
180
51
360
0
LINE
8
BLACK
10
79.0203
20
-87.5402
11
78.2583
21
-86.7782
0
LINE
8
BLACK
10
78.8407
20
-87.7198
11
78.0787
21
-86.9578
0
ARC
8
BLACK
10
78.1685
20
-86.868
40
0.127
50
405
51
585
0
ARC
8
BLACK
10
78.9305
20
-87.63
40
0.127
50
225
51
405
0
LINE
8
BLACK
10
74.0156
20
-86.995
11
78.1685
21
-86.995
0
LINE
8
BLACK
10
74.0156
20
-86.741
11
78.1685
21
-86.741
0
ARC
8
BLACK
10
78.1685
20
-86.868
40
0.127
50
270
51
450
0
ARC
8
BLACK
10
74.0156
20
-86.868
40
0.127
50
90
51
270
0
LINE
8
BLACK
10
74.1054
20
-86.7782
11
73.4958
21
-86.1686
0
LINE
8
BLACK
10
73.9258
20
-86.9578
11
73.3162
21
-86.3482
0
ARC
8
BLACK
10
73.406
20
-86.2584
40
0.127
50
405
51
585
0
ARC
8
BLACK
10
74.0156
20
-86.868
40
0.127
50
225
51
405
0
LINE
8
BLACK
10
96.52
20
-101.6
11
96.52
21
-99.06
0
LINE
8
BLACK
10
96.012
20
-101.6
11
96.012
21
-99.06
0
ARC
8
BLACK
10
96.266
20
-99.06
40
0.254
50
360
51
540
0
ARC
8
BLACK
10
96.266
20
-101.6
40
0.254
50
180
51
360
0
LINE
8
BLACK
10
88.9
20
-101.6
11
88.9
21
-99.06
0
LINE
8
BLACK
10
88.392
20
-101.6
11
88.392
21
-99.06
0
ARC
8
BLACK
10
88.646
20
-99.06
40
0.254
50
360
51
540
0
ARC
8
BLACK
10
88.646
20
-101.6
40
0.254
50
180
51
360
0
LINE
8
BLACK
10
89.5241
20
-102.119
11
88.8256
21
-101.42
0
LINE
8
BLACK
10
89.1649
20
-102.478
11
88.4664
21
-101.78
0
ARC
8
BLACK
10
88.646
20
-101.6
40
0.254
50
405
51
585
0
ARC
8
BLACK
10
89.3445
20
-102.299
40
0.254
50
225
51
405
0
LINE
8
BLACK
10
89.3445
20
-102.553
11
95.5675
21
-102.553
0
LINE
8
BLACK
10
89.3445
20
-102.045
11
95.5675
21
-102.045
0
ARC
8
BLACK
10
95.5675
20
-102.299
40
0.254
50
270
51
450
0
ARC
8
BLACK
10
89.3445
20
-102.299
40
0.254
50
90
51
270
0
LINE
8
BLACK
10
96.0864
20
-101.42
11
95.3879
21
-102.119
0
LINE
8
BLACK
10
96.4456
20
-101.78
11
95.7471
21
-102.478
0
ARC
8
BLACK
10
95.5675
20
-102.299
40
0.254
50
135
51
315
0
ARC
8
BLACK
10
96.266
20
-101.6
40
0.254
50
-45
51
135
0
LINE
8
BLACK
10
57.4548
20
-102.438
11
64.1604
21
-102.438
0
LINE
8
BLACK
10
57.4548
20
-101.93
11
64.1604
21
-101.93
0
ARC
8
BLACK
10
64.1604
20
-102.184
40
0.254
50
270
51
450
0
ARC
8
BLACK
10
57.4548
20
-102.184
40
0.254
50
90
51
270
0
LINE
8
BLACK
10
56.3354
20
-106.627
11
55.1924
21
-107.77
0
LINE
8
BLACK
10
56.6946
20
-106.987
11
55.5516
21
-108.13
0
ARC
8
BLACK
10
55.372
20
-107.95
40
0.254
50
135
51
315
0
ARC
8
BLACK
10
56.515
20
-106.807
40
0.254
50
-45
51
135
0
LINE
8
BLACK
10
56.769
20
-106.807
11
56.769
21
-103.124
0
LINE
8
BLACK
10
56.261
20
-106.807
11
56.261
21
-103.124
0
ARC
8
BLACK
10
56.515
20
-103.124
40
0.254
50
360
51
540
0
ARC
8
BLACK
10
56.515
20
-106.807
40
0.254
50
180
51
360
0
LINE
8
BLACK
10
57.2752
20
-102.005
11
56.3354
21
-102.944
0
LINE
8
BLACK
10
57.6344
20
-102.364
11
56.6946
21
-103.304
0
ARC
8
BLACK
10
56.515
20
-103.124
40
0.254
50
135
51
315
0
ARC
8
BLACK
10
57.4548
20
-102.184
40
0.254
50
-45
51
135
0
LINE
8
BLACK
10
64.34
20
-102.364
11
67.261
21
-99.4428
0
LINE
8
BLACK
10
63.9808
20
-102.005
11
66.9018
21
-99.0836
0
ARC
8
BLACK
10
67.0814
20
-99.2632
40
0.254
50
315
51
495
0
ARC
8
BLACK
10
64.1604
20
-102.184
40
0.254
50
135
51
315
0
LINE
8
BLACK
10
110.109
20
-87.63
11
110.109
21
-82.2325
0
LINE
8
BLACK
10
109.601
20
-87.63
11
109.601
21
-82.2325
0
ARC
8
BLACK
10
109.855
20
-82.2325
40
0.254
50
360
51
540
0
ARC
8
BLACK
10
109.855
20
-87.63
40
0.254
50
180
51
360
0
LINE
8
BLACK
10
110.035
20
-82.4121
11
116.829
21
-75.6176
0
LINE
8
BLACK
10
109.675
20
-82.0529
11
116.47
21
-75.2584
0
ARC
8
BLACK
10
116.65
20
-75.438
40
0.254
50
315
51
495
0
ARC
8
BLACK
10
109.855
20
-82.2325
40
0.254
50
135
51
315
0
LINE
8
BLACK
10
99.441
20
-89.535
11
108.204
21
-89.535
0
LINE
8
BLACK
10
99.441
20
-89.027
11
108.204
21
-89.027
0
ARC
8
BLACK
10
108.204
20
-89.281
40
0.254
50
270
51
450
0
ARC
8
BLACK
10
99.441
20
-89.281
40
0.254
50
90
51
270
0
LINE
8
BLACK
10
108.384
20
-89.4606
11
110.035
21
-87.8096
0
LINE
8
BLACK
10
108.024
20
-89.1014
11
109.675
21
-87.4504
0
ARC
8
BLACK
10
109.855
20
-87.63
40
0.254
50
315
51
495
0
ARC
8
BLACK
10
108.204
20
-89.281
40
0.254
50
135
51
315
0
LINE
8
BLACK
10
34.036
20
-100.457
11
45.72
21
-100.457
0
LINE
8
BLACK
10
34.036
20
-99.949
11
45.72
21
-99.949
0
ARC
8
BLACK
10
45.72
20
-100.203
40
0.254
50
270
51
450
0
ARC
8
BLACK
10
34.036
20
-100.203
40
0.254
50
90
51
270
0
LINE
8
BLACK
10
32.8404
20
-99.3666
11
33.8564
21
-100.383
0
LINE
8
BLACK
10
33.1996
20
-99.0074
11
34.2156
21
-100.023
0
ARC
8
BLACK
10
34.036
20
-100.203
40
0.254
50
225
51
405
0
ARC
8
BLACK
10
33.02
20
-99.187
40
0.254
50
45
51
225
0
LINE
8
BLACK
10
33.274
20
-99.187
11
33.274
21
-91.186
0
LINE
8
BLACK
10
32.766
20
-99.187
11
32.766
21
-91.186
0
ARC
8
BLACK
10
33.02
20
-91.186
40
0.254
50
360
51
540
0
ARC
8
BLACK
10
33.02
20
-99.187
40
0.254
50
180
51
360
0
LINE
8
BLACK
10
67.3354
20
-99.2632
11
67.3354
21
-91.4146
0
LINE
8
BLACK
10
66.8274
20
-99.2632
11
66.8274
21
-91.4146
0
ARC
8
BLACK
10
67.0814
20
-91.4146
40
0.254
50
360
51
540
0
ARC
8
BLACK
10
67.0814
20
-99.2632
40
0.254
50
180
51
360
0
LINE
8
BLACK
10
67.9559
20
-90.1809
11
66.9018
21
-91.235
0
LINE
8
BLACK
10
68.3151
20
-90.5401
11
67.261
21
-91.5942
0
ARC
8
BLACK
10
67.0814
20
-91.4146
40
0.254
50
135
51
315
0
ARC
8
BLACK
10
68.1355
20
-90.3605
40
0.254
50
-45
51
135
0
LINE
8
BLACK
10
68.1355
20
-90.6145
11
71.628
21
-90.6145
0
LINE
8
BLACK
10
68.1355
20
-90.1065
11
71.628
21
-90.1065
0
ARC
8
BLACK
10
71.628
20
-90.3605
40
0.254
50
270
51
450
0
ARC
8
BLACK
10
68.1355
20
-90.3605
40
0.254
50
90
51
270
0
LINE
8
BLACK
10
116.65
20
-75.692
11
118.11
21
-75.692
0
LINE
8
BLACK
10
116.65
20
-75.184
11
118.11
21
-75.184
0
ARC
8
BLACK
10
118.11
20
-75.438
40
0.254
50
270
51
450
0
ARC
8
BLACK
10
116.65
20
-75.438
40
0.254
50
90
51
270
0
LINE
8
BLACK
10
47.9425
20
-108.204
11
55.372
21
-108.204
0
LINE
8
BLACK
10
47.9425
20
-107.696
11
55.372
21
-107.696
0
ARC
8
BLACK
10
55.372
20
-107.95
40
0.254
50
270
51
450
0
ARC
8
BLACK
10
47.9425
20
-107.95
40
0.254
50
90
51
270
0
LINE
8
BLACK
10
47.244
20
-106.998
11
47.244
21
-105.41
0
LINE
8
BLACK
10
46.736
20
-106.998
11
46.736
21
-105.41
0
ARC
8
BLACK
10
46.99
20
-105.41
40
0.254
50
360
51
540
0
ARC
8
BLACK
10
46.99
20
-106.998
40
0.254
50
180
51
360
0
LINE
8
BLACK
10
48.1221
20
-107.77
11
47.1696
21
-106.818
0
LINE
8
BLACK
10
47.7629
20
-108.13
11
46.8104
21
-107.177
0
ARC
8
BLACK
10
46.99
20
-106.998
40
0.254
50
405
51
585
0
ARC
8
BLACK
10
47.9425
20
-107.95
40
0.254
50
225
51
405
0
LINE
8
BLACK
10
45.5404
20
-100.383
11
46.8104
21
-101.653
0
LINE
8
BLACK
10
45.8996
20
-100.023
11
47.1696
21
-101.293
0
ARC
8
BLACK
10
46.99
20
-101.473
40
0.254
50
225
51
405
0
ARC
8
BLACK
10
45.72
20
-100.203
40
0.254
50
45
51
225
0
LINE
8
BLACK
10
47.244
20
-105.41
11
47.244
21
-101.473
0
LINE
8
BLACK
10
46.736
20
-105.41
11
46.736
21
-101.473
0
ARC
8
BLACK
10
46.99
20
-101.473
40
0.254
50
360
51
540
0
ARC
8
BLACK
10
46.99
20
-105.41
40
0.254
50
180
51
360
0
LINE
8
BLACK
10
33.8827
20
-98.5783
11
34.5177
21
-99.2133
0
LINE
8
BLACK
10
34.0623
20
-98.3987
11
34.6973
21
-99.0337
0
ARC
8
BLACK
10
34.6075
20
-99.1235
40
0.127
50
225
51
405
0
ARC
8
BLACK
10
33.9725
20
-98.4885
40
0.127
50
45
51
225
0
LINE
8
BLACK
10
35.1155
20
-68.58
11
35.1155
21
-58.801
0
LINE
8
BLACK
10
34.8615
20
-68.58
11
34.8615
21
-58.801
0
ARC
8
BLACK
10
34.9885
20
-58.801
40
0.127
50
360
51
540
0
ARC
8
BLACK
10
34.9885
20
-68.58
40
0.127
50
180
51
360
0
LINE
8
BLACK
10
34.0995
20
-98.4885
11
34.0995
21
-69.596
0
LINE
8
BLACK
10
33.8455
20
-98.4885
11
33.8455
21
-69.596
0
ARC
8
BLACK
10
33.9725
20
-69.596
40
0.127
50
360
51
540
0
ARC
8
BLACK
10
33.9725
20
-98.4885
40
0.127
50
180
51
360
0
LINE
8
BLACK
10
34.8987
20
-68.4902
11
33.8827
21
-69.5062
0
LINE
8
BLACK
10
35.0783
20
-68.6698
11
34.0623
21
-69.6858
0
ARC
8
BLACK
10
33.9725
20
-69.596
40
0.127
50
135
51
315
0
ARC
8
BLACK
10
34.9885
20
-68.58
40
0.127
50
-45
51
135
0
LINE
8
BLACK
10
34.6075
20
-99.2505
11
42.6085
21
-99.2505
0
LINE
8
BLACK
10
34.6075
20
-98.9965
11
42.6085
21
-98.9965
0
ARC
8
BLACK
10
42.6085
20
-99.1235
40
0.127
50
270
51
450
0
ARC
8
BLACK
10
34.6075
20
-99.1235
40
0.127
50
90
51
270
0
LINE
8
BLACK
10
42.6983
20
-99.2133
11
43.3968
21
-98.5148
0
LINE
8
BLACK
10
42.5187
20
-99.0337
11
43.2172
21
-98.3352
0
ARC
8
BLACK
10
43.307
20
-98.425
40
0.127
50
315
51
495
0
ARC
8
BLACK
10
42.6085
20
-99.1235
40
0.127
50
135
51
315
0
LINE
8
BLACK
10
43.434
20
-98.425
11
43.434
21
-88.138
0
LINE
8
BLACK
10
43.18
20
-98.425
11
43.18
21
-88.138
0
ARC
8
BLACK
10
43.307
20
-88.138
40
0.127
50
360
51
540
0
ARC
8
BLACK
10
43.307
20
-98.425
40
0.127
50
180
51
360
0
LINE
8
BLACK
10
43.307
20
-98.552
11
53.848
21
-98.552
0
LINE
8
BLACK
10
43.307
20
-98.298
11
53.848
21
-98.298
0
ARC
8
BLACK
10
53.848
20
-98.425
40
0.127
50
270
51
450
0
ARC
8
BLACK
10
43.307
20
-98.425
40
0.127
50
90
51
270
0
LINE
8
BLACK
10
44.196
20
-92.1766
11
46.736
21
-92.1766
0
LINE
8
BLACK
10
44.196
20
-91.9734
11
46.736
21
-91.9734
0
ARC
8
BLACK
10
46.736
20
-92.075
40
0.1016
50
270
51
450
0
ARC
8
BLACK
10
44.196
20
-92.075
40
0.1016
50
90
51
270
0
LINE
8
BLACK
10
46.8078
20
-92.1468
11
47.5698
21
-91.3848
0
LINE
8
BLACK
10
46.6642
20
-92.0032
11
47.4262
21
-91.2412
0
ARC
8
BLACK
10
47.498
20
-91.313
40
0.1016
50
315
51
495
0
ARC
8
BLACK
10
46.736
20
-92.075
40
0.1016
50
135
51
315
0
LINE
8
BLACK
10
47.5996
20
-91.313
11
47.5996
21
-89.154
0
LINE
8
BLACK
10
47.3964
20
-91.313
11
47.3964
21
-89.154
0
ARC
8
BLACK
10
47.498
20
-89.154
40
0.1016
50
360
51
540
0
ARC
8
BLACK
10
47.498
20
-91.313
40
0.1016
50
180
51
360
0
LINE
8
BLACK
10
54.737
20
-90.0176
11
57.8485
21
-90.0176
0
LINE
8
BLACK
10
54.737
20
-89.8144
11
57.8485
21
-89.8144
0
ARC
8
BLACK
10
57.8485
20
-89.916
40
0.1016
50
270
51
450
0
ARC
8
BLACK
10
54.737
20
-89.916
40
0.1016
50
90
51
270
0
LINE
8
BLACK
10
48.9585
20
-93.0656
11
58.039
21
-93.0656
0
LINE
8
BLACK
10
48.9585
20
-92.8624
11
58.039
21
-92.8624
0
ARC
8
BLACK
10
58.039
20
-92.964
40
0.1016
50
270
51
450
0
ARC
8
BLACK
10
48.9585
20
-92.964
40
0.1016
50
90
51
270
0
LINE
8
BLACK
10
58.7756
20
-94.4245
11
58.7756
21
-93.599
0
LINE
8
BLACK
10
58.5724
20
-94.4245
11
58.5724
21
-93.599
0
ARC
8
BLACK
10
58.674
20
-93.599
40
0.1016
50
360
51
540
0
ARC
8
BLACK
10
58.674
20
-94.4245
40
0.1016
50
180
51
360
0
LINE
8
BLACK
10
58.7458
20
-93.5272
11
58.1108
21
-92.8922
0
LINE
8
BLACK
10
58.6022
20
-93.6708
11
57.9672
21
-93.0358
0
ARC
8
BLACK
10
58.039
20
-92.964
40
0.1016
50
405
51
585
0
ARC
8
BLACK
10
58.674
20
-93.599
40
0.1016
50
225
51
405
0
LINE
8
BLACK
10
36.957
20
-64.3255
11
36.957
21
-59.4995
0
LINE
8
BLACK
10
36.449
20
-64.3255
11
36.449
21
-59.4995
0
ARC
8
BLACK
10
36.703
20
-59.4995
40
0.254
50
360
51
540
0
ARC
8
BLACK
10
36.703
20
-64.3255
40
0.254
50
180
51
360
0
LINE
8
BLACK
10
39.5915
20
-56.865
11
39.5915
21
-53.1495
0
LINE
8
BLACK
10
39.0835
20
-56.865
11
39.0835
21
-53.1495
0
ARC
8
BLACK
10
39.3375
20
-53.1495
40
0.254
50
360
51
540
0
ARC
8
BLACK
10
39.3375
20
-56.865
40
0.254
50
180
51
360
0
LINE
8
BLACK
10
36.8826
20
-59.6791
11
39.5171
21
-57.0446
0
LINE
8
BLACK
10
36.5234
20
-59.3199
11
39.1579
21
-56.6854
0
ARC
8
BLACK
10
39.3375
20
-56.865
40
0.254
50
315
51
495
0
ARC
8
BLACK
10
36.703
20
-59.4995
40
0.254
50
135
51
315
0
LINE
8
BLACK
10
41.7322
20
-64.6938
11
81.3943
21
-64.6938
0
LINE
8
BLACK
10
41.7322
20
-64.1858
11
81.3943
21
-64.1858
0
ARC
8
BLACK
10
81.3943
20
-64.4398
40
0.254
50
270
51
450
0
ARC
8
BLACK
10
41.7322
20
-64.4398
40
0.254
50
90
51
270
0
LINE
8
BLACK
10
81.2147
20
-64.6194
11
82.1799
21
-65.5846
0
LINE
8
BLACK
10
81.5739
20
-64.2602
11
82.5391
21
-65.2254
0
ARC
8
BLACK
10
82.3595
20
-65.405
40
0.254
50
225
51
405
0
ARC
8
BLACK
10
81.3943
20
-64.4398
40
0.254
50
45
51
225
0
LINE
8
BLACK
10
82.6135
20
-69.342
11
82.6135
21
-65.405
0
LINE
8
BLACK
10
82.1055
20
-69.342
11
82.1055
21
-65.405
0
ARC
8
BLACK
10
82.3595
20
-65.405
40
0.254
50
360
51
540
0
ARC
8
BLACK
10
82.3595
20
-69.342
40
0.254
50
180
51
360
0
LINE
8
BLACK
10
81.4596
20
-70.6011
11
82.5391
21
-69.5216
0
LINE
8
BLACK
10
81.1004
20
-70.2419
11
82.1799
21
-69.1624
0
ARC
8
BLACK
10
82.3595
20
-69.342
40
0.254
50
315
51
495
0
ARC
8
BLACK
10
81.28
20
-70.4215
40
0.254
50
135
51
315
0
LINE
8
BLACK
10
74.5109
20
-70.6755
11
81.28
21
-70.6755
0
LINE
8
BLACK
10
74.5109
20
-70.1675
11
81.28
21
-70.1675
0
ARC
8
BLACK
10
81.28
20
-70.4215
40
0.254
50
270
51
450
0
ARC
8
BLACK
10
74.5109
20
-70.4215
40
0.254
50
90
51
270
0
LINE
8
BLACK
10
72.341
20
-72.9506
11
74.6905
21
-70.6011
0
LINE
8
BLACK
10
71.9818
20
-72.5914
11
74.3313
21
-70.2419
0
ARC
8
BLACK
10
74.5109
20
-70.4215
40
0.254
50
315
51
495
0
ARC
8
BLACK
10
72.1614
20
-72.771
40
0.254
50
135
51
315
0
LINE
8
BLACK
10
68.4421
20
-73.6491
11
69.1406
21
-72.9506
0
LINE
8
BLACK
10
68.0829
20
-73.2899
11
68.7814
21
-72.5914
0
ARC
8
BLACK
10
68.961
20
-72.771
40
0.254
50
315
51
495
0
ARC
8
BLACK
10
68.2625
20
-73.4695
40
0.254
50
135
51
315
0
LINE
8
BLACK
10
68.961
20
-73.025
11
72.1614
21
-73.025
0
LINE
8
BLACK
10
68.961
20
-72.517
11
72.1614
21
-72.517
0
ARC
8
BLACK
10
72.1614
20
-72.771
40
0.254
50
270
51
450
0
ARC
8
BLACK
10
68.961
20
-72.771
40
0.254
50
90
51
270
0
LINE
8
BLACK
10
68.5165
20
-88.519
11
68.5165
21
-73.4695
0
LINE
8
BLACK
10
68.0085
20
-88.519
11
68.0085
21
-73.4695
0
ARC
8
BLACK
10
68.2625
20
-73.4695
40
0.254
50
360
51
540
0
ARC
8
BLACK
10
68.2625
20
-88.519
40
0.254
50
180
51
360
0
LINE
8
BLACK
10
41.5526
20
-64.2602
11
40.8414
21
-64.9714
0
LINE
8
BLACK
10
41.9118
20
-64.6194
11
41.2006
21
-65.3306
0
ARC
8
BLACK
10
41.021
20
-65.151
40
0.254
50
135
51
315
0
ARC
8
BLACK
10
41.7322
20
-64.4398
40
0.254
50
-45
51
135
0
LINE
8
BLACK
10
37.5285
20
-65.405
11
41.021
21
-65.405
0
LINE
8
BLACK
10
37.5285
20
-64.897
11
41.021
21
-64.897
0
ARC
8
BLACK
10
41.021
20
-65.151
40
0.254
50
270
51
450
0
ARC
8
BLACK
10
37.5285
20
-65.151
40
0.254
50
90
51
270
0
LINE
8
BLACK
10
37.7081
20
-64.9714
11
36.8826
21
-64.1459
0
LINE
8
BLACK
10
37.3489
20
-65.3306
11
36.5234
21
-64.5051
0
ARC
8
BLACK
10
36.703
20
-64.3255
40
0.254
50
405
51
585
0
ARC
8
BLACK
10
37.5285
20
-65.151
40
0.254
50
225
51
405
0
LINE
8
BLACK
10
39.5915
20
-53.1495
11
39.5915
21
-47.783
0
LINE
8
BLACK
10
39.0835
20
-53.1495
11
39.0835
21
-47.783
0
ARC
8
BLACK
10
39.3375
20
-47.783
40
0.254
50
360
51
540
0
ARC
8
BLACK
10
39.3375
20
-53.1495
40
0.254
50
180
51
360
0
LINE
8
BLACK
10
39.5171
20
-47.6034
11
38.0891
21
-46.1754
0
LINE
8
BLACK
10
39.1579
20
-47.9626
11
37.7299
21
-46.5346
0
ARC
8
BLACK
10
37.9095
20
-46.355
40
0.254
50
405
51
585
0
ARC
8
BLACK
10
39.3375
20
-47.783
40
0.254
50
225
51
405
0
LINE
8
BLACK
10
36.3746
20
-46.1754
11
31.9296
21
-41.7304
0
LINE
8
BLACK
10
36.0154
20
-46.5346
11
31.5704
21
-42.0896
0
ARC
8
BLACK
10
31.75
20
-41.91
40
0.254
50
405
51
585
0
ARC
8
BLACK
10
36.195
20
-46.355
40
0.254
50
225
51
405
0
LINE
8
BLACK
10
36.195
20
-46.609
11
37.9095
21
-46.609
0
LINE
8
BLACK
10
36.195
20
-46.101
11
37.9095
21
-46.101
0
ARC
8
BLACK
10
37.9095
20
-46.355
40
0.254
50
270
51
450
0
ARC
8
BLACK
10
36.195
20
-46.355
40
0.254
50
90
51
270
0
LINE
8
BLACK
10
115.824
20
-95.6945
11
115.824
21
-91.694
0
LINE
8
BLACK
10
115.316
20
-95.6945
11
115.316
21
-91.694
0
ARC
8
BLACK
10
115.57
20
-91.694
40
0.254
50
360
51
540
0
ARC
8
BLACK
10
115.57
20
-95.6945
40
0.254
50
180
51
360
0
LINE
8
BLACK
10
114.797
20
-96.8266
11
115.75
21
-95.8741
0
LINE
8
BLACK
10
114.438
20
-96.4674
11
115.39
21
-95.5149
0
ARC
8
BLACK
10
115.57
20
-95.6945
40
0.254
50
315
51
495
0
ARC
8
BLACK
10
114.618
20
-96.647
40
0.254
50
135
51
315
0
LINE
8
BLACK
10
106.871
20
-103.442
11
106.871
21
-96.647
0
LINE
8
BLACK
10
106.363
20
-103.442
11
106.363
21
-96.647
0
ARC
8
BLACK
10
106.617
20
-96.647
40
0.254
50
360
51
540
0
ARC
8
BLACK
10
106.617
20
-103.442
40
0.254
50
180
51
360
0
LINE
8
BLACK
10
106.437
20
-103.621
11
106.856
21
-104.04
0
LINE
8
BLACK
10
106.796
20
-103.262
11
107.215
21
-103.681
0
ARC
8
BLACK
10
107.036
20
-103.861
40
0.254
50
225
51
405
0
ARC
8
BLACK
10
106.617
20
-103.442
40
0.254
50
45
51
225
0
LINE
8
BLACK
10
102.286
20
-96.901
11
106.617
21
-96.901
0
LINE
8
BLACK
10
102.286
20
-96.393
11
106.617
21
-96.393
0
ARC
8
BLACK
10
106.617
20
-96.647
40
0.254
50
270
51
450
0
ARC
8
BLACK
10
102.286
20
-96.647
40
0.254
50
90
51
270
0
LINE
8
BLACK
10
102.106
20
-96.4674
11
101.166
21
-97.4072
0
LINE
8
BLACK
10
102.465
20
-96.8266
11
101.526
21
-97.7664
0
ARC
8
BLACK
10
101.346
20
-97.5868
40
0.254
50
135
51
315
0
ARC
8
BLACK
10
102.286
20
-96.647
40
0.254
50
-45
51
135
0
LINE
8
BLACK
10
106.617
20
-96.901
11
114.618
21
-96.901
0
LINE
8
BLACK
10
106.617
20
-96.393
11
114.618
21
-96.393
0
ARC
8
BLACK
10
114.618
20
-96.647
40
0.254
50
270
51
450
0
ARC
8
BLACK
10
106.617
20
-96.647
40
0.254
50
90
51
270
0
LINE
8
BLACK
10
89.535
20
-64.77
11
89.535
21
-60.8965
0
LINE
8
BLACK
10
89.027
20
-64.77
11
89.027
21
-60.8965
0
ARC
8
BLACK
10
89.281
20
-60.8965
40
0.254
50
360
51
540
0
ARC
8
BLACK
10
89.281
20
-64.77
40
0.254
50
180
51
360
0
LINE
8
BLACK
10
89.4606
20
-60.7169
11
88.0636
21
-59.3199
0
LINE
8
BLACK
10
89.1014
20
-61.0761
11
87.7044
21
-59.6791
0
ARC
8
BLACK
10
87.884
20
-59.4995
40
0.254
50
405
51
585
0
ARC
8
BLACK
10
89.281
20
-60.8965
40
0.254
50
225
51
405
0
LINE
8
BLACK
10
89.1014
20
-64.5904
11
87.7044
21
-65.9874
0
LINE
8
BLACK
10
89.4606
20
-64.9496
11
88.0636
21
-66.3466
0
ARC
8
BLACK
10
87.884
20
-66.167
40
0.254
50
135
51
315
0
ARC
8
BLACK
10
89.281
20
-64.77
40
0.254
50
-45
51
135
0
LINE
8
BLACK
10
83.5025
20
-59.7535
11
87.884
21
-59.7535
0
LINE
8
BLACK
10
83.5025
20
-59.2455
11
87.884
21
-59.2455
0
ARC
8
BLACK
10
87.884
20
-59.4995
40
0.254
50
270
51
450
0
ARC
8
BLACK
10
83.5025
20
-59.4995
40
0.254
50
90
51
270
0
LINE
8
BLACK
10
84.836
20
-52.0446
11
84.836
21
-50.8
0
LINE
8
BLACK
10
84.328
20
-52.0446
11
84.328
21
-50.8
0
ARC
8
BLACK
10
84.582
20
-50.8
40
0.254
50
360
51
540
0
ARC
8
BLACK
10
84.582
20
-52.0446
40
0.254
50
180
51
360
0
LINE
8
BLACK
10
82.755
20
-54.2308
11
84.7616
21
-52.2242
0
LINE
8
BLACK
10
82.3958
20
-53.8716
11
84.4024
21
-51.865
0
ARC
8
BLACK
10
84.582
20
-52.0446
40
0.254
50
315
51
495
0
ARC
8
BLACK
10
82.5754
20
-54.0512
40
0.254
50
135
51
315
0
LINE
8
BLACK
10
82.8294
20
-58.5724
11
82.8294
21
-54.0512
0
LINE
8
BLACK
10
82.3214
20
-58.5724
11
82.3214
21
-54.0512
0
ARC
8
BLACK
10
82.5754
20
-54.0512
40
0.254
50
360
51
540
0
ARC
8
BLACK
10
82.5754
20
-58.5724
40
0.254
50
180
51
360
0
LINE
8
BLACK
10
83.6821
20
-59.3199
11
82.755
21
-58.3928
0
LINE
8
BLACK
10
83.3229
20
-59.6791
11
82.3958
21
-58.752
0
ARC
8
BLACK
10
82.5754
20
-58.5724
40
0.254
50
405
51
585
0
ARC
8
BLACK
10
83.5025
20
-59.4995
40
0.254
50
225
51
405
0
LINE
8
BLACK
10
107.036
20
-104.115
11
108.56
21
-104.115
0
LINE
8
BLACK
10
107.036
20
-103.607
11
108.56
21
-103.607
0
ARC
8
BLACK
10
108.56
20
-103.861
40
0.254
50
270
51
450
0
ARC
8
BLACK
10
107.036
20
-103.861
40
0.254
50
90
51
270
0
LINE
8
BLACK
10
87.884
20
-68.707
11
96.0755
21
-68.707
0
LINE
8
BLACK
10
87.884
20
-68.199
11
96.0755
21
-68.199
0
ARC
8
BLACK
10
96.0755
20
-68.453
40
0.254
50
270
51
450
0
ARC
8
BLACK
10
87.884
20
-68.453
40
0.254
50
90
51
270
0
LINE
8
BLACK
10
95.8959
20
-68.6326
11
97.0389
21
-69.7756
0
LINE
8
BLACK
10
96.2551
20
-68.2734
11
97.3981
21
-69.4164
0
ARC
8
BLACK
10
97.2185
20
-69.596
40
0.254
50
225
51
405
0
ARC
8
BLACK
10
96.0755
20
-68.453
40
0.254
50
45
51
225
0
LINE
8
BLACK
10
88.138
20
-68.453
11
88.138
21
-66.167
0
LINE
8
BLACK
10
87.63
20
-68.453
11
87.63
21
-66.167
0
ARC
8
BLACK
10
87.884
20
-66.167
40
0.254
50
360
51
540
0
ARC
8
BLACK
10
87.884
20
-68.453
40
0.254
50
180
51
360
0
LINE
8
BLACK
10
87.7044
20
-68.2734
11
85.6724
21
-70.3054
0
LINE
8
BLACK
10
88.0636
20
-68.6326
11
86.0316
21
-70.6646
0
ARC
8
BLACK
10
85.852
20
-70.485
40
0.254
50
135
51
315
0
ARC
8
BLACK
10
87.884
20
-68.453
40
0.254
50
-45
51
135
0
LINE
8
BLACK
10
108.814
20
-112.039
11
108.814
21
-103.861
0
LINE
8
BLACK
10
108.306
20
-112.039
11
108.306
21
-103.861
0
ARC
8
BLACK
10
108.56
20
-103.861
40
0.254
50
360
51
540
0
ARC
8
BLACK
10
108.56
20
-112.039
40
0.254
50
180
51
360
0
LINE
8
BLACK
10
101.6
20
-99.06
11
101.6
21
-97.5868
0
LINE
8
BLACK
10
101.092
20
-99.06
11
101.092
21
-97.5868
0
ARC
8
BLACK
10
101.346
20
-97.5868
40
0.254
50
360
51
540
0
ARC
8
BLACK
10
101.346
20
-99.06
40
0.254
50
180
51
360
0
LINE
8
BLACK
10
123.228
20
-71.0438
11
123.228
21
-70.1294
0
LINE
8
BLACK
10
122.72
20
-71.0438
11
122.72
21
-70.1294
0
ARC
8
BLACK
10
122.974
20
-70.1294
40
0.254
50
360
51
540
0
ARC
8
BLACK
10
122.974
20
-71.0438
40
0.254
50
180
51
360
0
LINE
8
BLACK
10
123.154
20
-69.9498
11
122.366
21
-69.1624
0
LINE
8
BLACK
10
122.794
20
-70.309
11
122.007
21
-69.5216
0
ARC
8
BLACK
10
122.187
20
-69.342
40
0.254
50
405
51
585
0
ARC
8
BLACK
10
122.974
20
-70.1294
40
0.254
50
225
51
405
0
LINE
8
BLACK
10
110.046
20
-68.3895
11
110.046
21
-61.6585
0
LINE
8
BLACK
10
109.538
20
-68.3895
11
109.538
21
-61.6585
0
ARC
8
BLACK
10
109.792
20
-61.6585
40
0.254
50
360
51
540
0
ARC
8
BLACK
10
109.792
20
-68.3895
40
0.254
50
180
51
360
0
LINE
8
BLACK
10
110.924
20
-69.1624
11
109.971
21
-68.2099
0
LINE
8
BLACK
10
110.564
20
-69.5216
11
109.612
21
-68.5691
0
ARC
8
BLACK
10
109.792
20
-68.3895
40
0.254
50
405
51
585
0
ARC
8
BLACK
10
110.744
20
-69.342
40
0.254
50
225
51
405
0
LINE
8
BLACK
10
110.744
20
-69.596
11
122.187
21
-69.596
0
LINE
8
BLACK
10
110.744
20
-69.088
11
122.187
21
-69.088
0
ARC
8
BLACK
10
122.187
20
-69.342
40
0.254
50
270
51
450
0
ARC
8
BLACK
10
110.744
20
-69.342
40
0.254
50
90
51
270
0
LINE
8
BLACK
10
110.046
20
-61.6585
11
110.046
21
-57.15
0
LINE
8
BLACK
10
109.538
20
-61.6585
11
109.538
21
-57.15
0
ARC
8
BLACK
10
109.792
20
-57.15
40
0.254
50
360
51
540
0
ARC
8
BLACK
10
109.792
20
-61.6585
40
0.254
50
180
51
360
0
LINE
8
BLACK
10
33.5915
20
-68.5165
11
33.5915
21
-53.1495
0
LINE
8
BLACK
10
33.0835
20
-68.5165
11
33.0835
21
-53.1495
0
ARC
8
BLACK
10
33.3375
20
-53.1495
40
0.254
50
360
51
540
0
ARC
8
BLACK
10
33.3375
20
-68.5165
40
0.254
50
180
51
360
0
LINE
8
BLACK
10
107.518
20
-71.1708
11
120.942
21
-71.1708
0
LINE
8
BLACK
10
107.518
20
-70.9168
11
120.942
21
-70.9168
0
ARC
8
BLACK
10
120.942
20
-71.0438
40
0.127
50
270
51
450
0
ARC
8
BLACK
10
107.518
20
-71.0438
40
0.127
50
90
51
270
0
LINE
8
BLACK
10
107.428
20
-70.954
11
106.971
21
-71.4112
0
LINE
8
BLACK
10
107.608
20
-71.1336
11
107.151
21
-71.5908
0
ARC
8
BLACK
10
107.061
20
-71.501
40
0.127
50
135
51
315
0
ARC
8
BLACK
10
107.518
20
-71.0438
40
0.127
50
-45
51
135
0
LINE
8
BLACK
10
107.188
20
-76.581
11
107.188
21
-71.501
0
LINE
8
BLACK
10
106.934
20
-76.581
11
106.934
21
-71.501
0
ARC
8
BLACK
10
107.061
20
-71.501
40
0.127
50
360
51
540
0
ARC
8
BLACK
10
107.061
20
-76.581
40
0.127
50
180
51
360
0
LINE
8
BLACK
10
42.3545
20
-90.424
11
42.3545
21
-86.1695
0
LINE
8
BLACK
10
42.1005
20
-90.424
11
42.1005
21
-86.1695
0
ARC
8
BLACK
10
42.2275
20
-86.1695
40
0.127
50
360
51
540
0
ARC
8
BLACK
10
42.2275
20
-90.424
40
0.127
50
180
51
360
0
CIRCLE
8
WHITE
10
45.0596
20
-72.39
40
0.3175
0
CIRCLE
8
WHITE
10
75.3745
20
-67.6275
40
0.3175
0
CIRCLE
8
WHITE
10
42.672
20
-77.089
40
0.3175
0
CIRCLE
8
WHITE
10
73.8505
20
-68.961
40
0.3175
0
CIRCLE
8
WHITE
10
87.376
20
-61.087
40
0.3175
0
CIRCLE
8
WHITE
10
87.63
20
-112.039
40
0.3175
0
CIRCLE
8
WHITE
10
77.47
20
-112.039
40
0.3175
0
CIRCLE
8
WHITE
10
67.31
20
-112.039
40
0.3175
0
CIRCLE
8
WHITE
10
57.15
20
-112.039
40
0.3175
0
CIRCLE
8
WHITE
10
78.2955
20
-73.7235
40
0.3175
0
CIRCLE
8
WHITE
10
38.735
20
-63.6905
40
0.3175
0
CIRCLE
8
WHITE
10
38.735
20
-61.087
40
0.3175
0
CIRCLE
8
WHITE
10
82.2325
20
-95.123
40
0.3175
0
CIRCLE
8
WHITE
10
83.3755
20
-64.9605
40
0.3175
0
CIRCLE
8
WHITE
10
74.2315
20
-75.311
40
0.3175
0
CIRCLE
8
WHITE
10
111.125
20
-86.614
40
0.3175
0
CIRCLE
8
WHITE
10
100.711
20
-78.486
40
0.3175
0
CIRCLE
8
WHITE
10
75.8825
20
-55.4355
40
0.3175
0
CIRCLE
8
WHITE
10
44.2595
20
-55.4355
40
0.3175
0
CIRCLE
8
WHITE
10
60.96
20
-99.3775
40
0.3175
0
CIRCLE
8
WHITE
10
80.3275
20
-81.28
40
0.3175
0
CIRCLE
8
WHITE
10
62.1665
20
-84.201
40
0.3175
0
CIRCLE
8
WHITE
10
75.2475
20
-84.1375
40
0.3175
0
CIRCLE
8
WHITE
10
44.069
20
-73.7235
40
0.3175
0
CIRCLE
8
WHITE
10
74.9935
20
-68.707
40
0.3175
0
CIRCLE
8
WHITE
10
60.7695
20
-88.0745
40
0.3175
0
CIRCLE
8
WHITE
10
60.7695
20
-94.361
40
0.3175
0
CIRCLE
8
WHITE
10
82.677
20
-81.28
40
0.3175
0
CIRCLE
8
WHITE
10
83.5406
20
-105.943
40
0.3175
0
CIRCLE
8
WHITE
10
82.296
20
-74.168
40
0.3175
0
CIRCLE
8
WHITE
10
63.2206
20
-105.918
40
0.3175
0
CIRCLE
8
WHITE
10
81.534
20
-80.899
40
0.3175
0
CIRCLE
8
WHITE
10
38.6715
20
-66.6115
40
0.3175
0
CIRCLE
8
WHITE
10
76.2
20
-84.836
40
0.3175
0
CIRCLE
8
WHITE
10
60.706
20
-85.09
40
0.3175
0
CIRCLE
8
WHITE
10
63.4365
20
-90.2335
40
0.3175
0
CIRCLE
8
WHITE
10
71.6915
20
-70.993
40
0.3175
0
CIRCLE
8
WHITE
10
105.791
20
-91.567
40
0.3175
0
CIRCLE
8
WHITE
10
104.038
20
-105.918
40
0.3175
0
CIRCLE
8
WHITE
10
107.061
20
-78.486
40
0.3175
0
CIRCLE
8
WHITE
10
107.467
20
-85.4964
40
0.3175
0
CIRCLE
8
WHITE
10
64.8208
20
-86.868
40
0.3175
0
CIRCLE
8
WHITE
10
105.791
20
-78.486
40
0.3175
0
CIRCLE
8
WHITE
10
97.2185
20
-56.134
40
0.3175
0
CIRCLE
8
WHITE
10
121.666
20
-76.708
40
0.3175
0
CIRCLE
8
WHITE
10
104.521
20
-78.486
40
0.3175
0
CIRCLE
8
WHITE
10
97.155
20
-57.404
40
0.3175
0
CIRCLE
8
WHITE
10
81.2165
20
-68.7705
40
0.3175
0
CIRCLE
8
WHITE
10
76.8985
20
-68.7705
40
0.3175
0
CIRCLE
8
WHITE
10
79.9465
20
-99.7585
40
0.3175
0
CIRCLE
8
WHITE
10
74.3585
20
-83.312
40
0.3175
0
CIRCLE
8
WHITE
10
93.7006
20
-105.943
40
0.3175
0
CIRCLE
8
WHITE
10
80.391
20
-66.3575
40
0.3175
0
CIRCLE
8
WHITE
10
42.0624
20
-69.7484
40
0.3175
0
CIRCLE
8
WHITE
10
42.672
20
-75.8825
40
0.3175
0
CIRCLE
8
WHITE
10
78.994
20
-66.3448
40
0.3175
0
CIRCLE
8
WHITE
10
42.672
20
-74.7395
40
0.3175
0
CIRCLE
8
WHITE
10
78.1812
20
-67.6148
40
0.3175
0
CIRCLE
8
WHITE
10
81.2165
20
-67.6275
40
0.3175
0
CIRCLE
8
WHITE
10
96.901
20
-87.63
40
0.3175
0
CIRCLE
8
WHITE
10
77.4065
20
-74.549
40
0.3175
0
CIRCLE
8
WHITE
10
108.433
20
-84.6074
40
0.3175
0
CIRCLE
8
WHITE
10
65.786
20
-85.979
40
0.3175
0
CIRCLE
8
WHITE
10
73.3806
20
-105.918
40
0.3175
0
CIRCLE
8
WHITE
10
73.406
20
-82.4865
40
0.3175
0
CIRCLE
8
WHITE
10
33.02
20
-91.186
40
0.3175
0
CIRCLE
8
WHITE
10
71.628
20
-90.3605
40
0.3175
0
CIRCLE
8
WHITE
10
99.441
20
-89.281
40
0.3175
0
CIRCLE
8
WHITE
10
43.307
20
-88.138
40
0.3175
0
CIRCLE
8
WHITE
10
34.9885
20
-58.801
40
0.3175
0
CIRCLE
8
WHITE
10
53.848
20
-98.425
40
0.3175
0
CIRCLE
8
WHITE
10
47.498
20
-89.154
40
0.3175
0
CIRCLE
8
WHITE
10
44.196
20
-92.075
40
0.3175
0
CIRCLE
8
WHITE
10
57.8485
20
-89.916
40
0.3175
0
CIRCLE
8
WHITE
10
54.737
20
-89.916
40
0.3175
0
CIRCLE
8
WHITE
10
48.9585
20
-92.964
40
0.3175
0
CIRCLE
8
WHITE
10
58.674
20
-94.4245
40
0.3175
0
CIRCLE
8
WHITE
10
68.2625
20
-88.519
40
0.3175
0
CIRCLE
8
WHITE
10
87.884
20
-59.4995
40
0.3175
0
CIRCLE
8
WHITE
10
97.2185
20
-69.596
40
0.3175
0
CIRCLE
8
WHITE
10
87.884
20
-66.167
40
0.3175
0
CIRCLE
8
WHITE
10
85.852
20
-70.485
40
0.3175
0
CIRCLE
8
WHITE
10
109.792
20
-61.6585
40
0.3175
0
CIRCLE
8
WHITE
10
109.792
20
-57.15
40
0.3175
0
CIRCLE
8
WHITE
10
33.3375
20
-68.5165
40
0.3175
0
CIRCLE
8
WHITE
10
107.061
20
-76.581
40
0.3175
0
CIRCLE
8
WHITE
10
42.2275
20
-90.424
40
0.3175
0
CIRCLE
8
WHITE
10
42.2275
20
-86.1695
40
0.3175
0
CIRCLE
8
WHITE
10
103.149
20
-78.486
40
0.3175
0
CIRCLE
8
WHITE
10
94.996
20
-82.2325
40
0.3175
0
CIRCLE
8
WHITE
10
41.91
20
-105.41
40
0.508
0
CIRCLE
8
WHITE
10
44.45
20
-105.41
40
0.508
0
CIRCLE
8
WHITE
10
46.99
20
-105.41
40
0.508
0
CIRCLE
8
WHITE
10
49.53
20
-105.41
40
0.508
0
CIRCLE
8
WHITE
10
52.07
20
-105.41
40
0.508
0
CIRCLE
8
WHITE
10
54.61
20
-105.41
40
0.508
0
LINE
8
WHITE
10
27.813
20
-43.18
11
35.687
21
-43.18
0
LINE
8
WHITE
10
27.813
20
-40.64
11
35.687
21
-40.64
0
ARC
8
WHITE
10
35.687
20
-41.91
40
1.27
50
270
51
450
0
ARC
8
WHITE
10
27.813
20
-41.91
40
1.27
50
90
51
270
0
CIRCLE
8
WHITE
10
118.11
20
-75.438
40
0.508
0
CIRCLE
8
WHITE
10
118.11
20
-77.978
40
0.508
0
CIRCLE
8
WHITE
10
118.11
20
-80.518
40
0.508
0
CIRCLE
8
WHITE
10
118.11
20
-83.058
40
0.508
0
CIRCLE
8
WHITE
10
94.996
20
-79.6925
40
0.3175
0
CIRCLE
8
WHITE
10
101.092
20
-93.472
40
0.3175
0
CIRCLE
8
WHITE
10
103.632
20
-93.472
40
0.3175
0
LINE
8
WHITE
10
116.713
20
-43.18
11
124.587
21
-43.18
0
LINE
8
WHITE
10
116.713
20
-40.64
11
124.587
21
-40.64
0
ARC
8
WHITE
10
124.587
20
-41.91
40
1.27
50
270
51
450
0
ARC
8
WHITE
10
116.713
20
-41.91
40
1.27
50
90
51
270
0
CIRCLE
8
WHITE
10
26.924
20
-89.8525
40
0.635
0
CIRCLE
8
WHITE
10
26.924
20
-83.2485
40
0.635
0
CIRCLE
8
WHITE
10
115.761
20
-53.2765
40
0.4445
0
CIRCLE
8
WHITE
10
115.761
20
-55.8165
40
0.4445
0
CIRCLE
8
WHITE
10
95.6945
20
-55.499
40
0.3175
0
CIRCLE
8
WHITE
10
28.194
20
-66.04
40
1.5875
0
CIRCLE
8
WHITE
10
28.194
20
-93.98
40
1.5875
0
LINE
8
WHITE
10
32.7533
20
-51.9557
11
32.7533
21
-54.3433
0
LINE
8
WHITE
10
33.9217
20
-51.9557
11
33.9217
21
-54.3433
0
ARC
8
WHITE
10
33.3375
20
-54.3433
40
0.5842
50
180
51
360
0
ARC
8
WHITE
10
33.3375
20
-51.9557
40
0.5842
50
0
51
180
0
LINE
8
WHITE
10
38.7533
20
-51.7017
11
38.7533
21
-54.5973
0
LINE
8
WHITE
10
39.9217
20
-51.7017
11
39.9217
21
-54.5973
0
ARC
8
WHITE
10
39.3375
20
-54.5973
40
0.5842
50
180
51
360
0
ARC
8
WHITE
10
39.3375
20
-51.7017
40
0.5842
50
0
51
180
0
LINE
8
WHITE
10
35.3215
20
-48.7575
11
37.3535
21
-48.7575
0
LINE
8
WHITE
10
35.3215
20
-47.7415
11
37.3535
21
-47.7415
0
ARC
8
WHITE
10
37.3535
20
-48.2495
40
0.508
50
270
51
450
0
ARC
8
WHITE
10
35.3215
20
-48.2495
40
0.508
50
90
51
270
0
CIRCLE
8
WHITE
10
122.844
20
-59.938
40
0.4445
0
CIRCLE
8
WHITE
10
122.844
20
-67.938
40
0.4445
0
CIRCLE
8
WHITE
10
87.098
20
-54.636
40
0.449999
0
CIRCLE
8
WHITE
10
84.098
20
-54.636
40
0.449999
0
CIRCLE
8
WHITE
10
108.966
20
-100.965
40
0.3175
0
CIRCLE
8
WHITE
10
111.506
20
-100.965
40
0.3175
0
CIRCLE
8
WHITE
10
114.046
20
-100.965
40
0.3175
0
CIRCLE
8
WHITE
10
117.856
20
-52.07
40
0.3175
0
CIRCLE
8
WHITE
10
112.776
20
-52.324
40
0.3175
0
CIRCLE
8
WHITE
10
110.236
20
-52.324
40
0.3175
0
CIRCLE
8
WHITE
10
107.696
20
-52.324
40
0.3175
0
CIRCLE
8
WHITE
10
105.156
20
-52.07
40
0.3175
0
CIRCLE
8
WHITE
10
101.6
20
-51.7652
40
0.3175
0
CIRCLE
8
WHITE
10
96.012
20
-52.2478
40
0.3175
0
CIRCLE
8
WHITE
10
94.742
20
-58.42
40
0.3175
0
CIRCLE
8
WHITE
10
92.202
20
-58.42
40
0.3175
0
CIRCLE
8
WHITE
10
89.662
20
-58.42
40
0.3175
0
CIRCLE
8
WHITE
10
103.886
20
-100.965
40
0.3175
0
CIRCLE
8
WHITE
10
93.726
20
-100.965
40
0.3175
0
CIRCLE
8
WHITE
10
116.586
20
-100.965
40
0.3175
0
CIRCLE
8
WHITE
10
79.502
20
-53.34
40
0.3175
0
CIRCLE
8
WHITE
10
121.666
20
-99.06
40
0.508
0
CIRCLE
8
WHITE
10
119.126
20
-99.06
40
0.508
0
CIRCLE
8
WHITE
10
116.586
20
-99.06
40
0.508
0
CIRCLE
8
WHITE
10
108.966
20
-99.06
40
0.508
0
CIRCLE
8
WHITE
10
111.506
20
-99.06
40
0.508
0
CIRCLE
8
WHITE
10
114.046
20
-99.06
40
0.508
0
CIRCLE
8
WHITE
10
103.886
20
-99.06
40
0.508
0
CIRCLE
8
WHITE
10
101.346
20
-99.06
40
0.508
0
CIRCLE
8
WHITE
10
98.806
20
-99.06
40
0.508
0
CIRCLE
8
WHITE
10
93.726
20
-99.06
40
0.508
0
CIRCLE
8
WHITE
10
91.186
20
-99.06
40
0.508
0
CIRCLE
8
WHITE
10
121.666
20
-50.8
40
0.508
0
CIRCLE
8
WHITE
10
119.126
20
-50.8
40
0.508
0
CIRCLE
8
WHITE
10
116.586
20
-50.8
40
0.508
0
CIRCLE
8
WHITE
10
114.046
20
-50.8
40
0.508
0
CIRCLE
8
WHITE
10
111.506
20
-50.8
40
0.508
0
CIRCLE
8
WHITE
10
108.966
20
-50.8
40
0.508
0
CIRCLE
8
WHITE
10
106.426
20
-50.8
40
0.508
0
CIRCLE
8
WHITE
10
103.886
20
-50.8
40
0.508
0
CIRCLE
8
WHITE
10
99.822
20
-50.8
40
0.508
0
CIRCLE
8
WHITE
10
97.282
20
-50.8
40
0.508
0
CIRCLE
8
WHITE
10
94.742
20
-50.8
40
0.508
0
CIRCLE
8
WHITE
10
92.202
20
-50.8
40
0.508
0
CIRCLE
8
WHITE
10
89.662
20
-50.8
40
0.508
0
CIRCLE
8
WHITE
10
87.122
20
-50.8
40
0.508
0
CIRCLE
8
WHITE
10
84.582
20
-50.8
40
0.508
0
CIRCLE
8
WHITE
10
82.042
20
-50.8
40
0.508
0
CIRCLE
8
WHITE
10
96.266
20
-99.06
40
0.508
0
CIRCLE
8
WHITE
10
124.206
20
-93.98
40
1.5875
0
CIRCLE
8
WHITE
10
73.406
20
-50.8
40
1.5875
0
CIRCLE
8
WHITE
10
72.136
20
-99.06
40
1.5875
0
CIRCLE
8
WHITE
10
88.646
20
-99.06
40
0.508
0
CIRCLE
8
WHITE
10
79.502
20
-50.8
40
0.508
0
CIRCLE
8
WHITE
10
76.962
20
-50.8
40
0.508
0
CIRCLE
8
WHITE
10
86.106
20
-99.06
40
0.508
0
CIRCLE
8
WHITE
10
115.57
20
-91.694
40
0.508
0
CIRCLE
8
WHITE
10
118.11
20
-91.694
40
0.508
0
CIRCLE
8
WHITE
10
115.57
20
-89.154
40
0.508
0
CIRCLE
8
WHITE
10
118.11
20
-89.154
40
0.508
0
CIRCLE
8
WHITE
10
115.57
20
-86.614
40
0.508
0
CIRCLE
8
WHITE
10
118.11
20
-86.614
40
0.508
  0
ENDSEC
  0
EOF
