G04 (created by PCBNEW (2013-mar-13)-testing) date Tuesday 04 June 2013 09:27:01 PM IST*
%MOIN*%
G04 Gerber Fmt 3.4, Leading zero omitted, Abs format*
%FSLAX34Y34*%
G01*
G70*
G90*
G04 APERTURE LIST*
%ADD10C,0.005000*%
%ADD11C,0.007874*%
%ADD12C,0.011811*%
G04 APERTURE END LIST*
G54D10*
X21400Y-19500D02*
G75*
G03X20900Y-19000I-500J0D01*
G74*
G01*
X26400Y-19000D02*
G75*
G03X25900Y-19500I0J-500D01*
G74*
G01*
X25400Y-20500D02*
G75*
G03X25900Y-20000I0J500D01*
G74*
G01*
X21400Y-20000D02*
G75*
G03X21900Y-20500I500J0D01*
G74*
G01*
X25900Y-19500D02*
X25900Y-20000D01*
X21400Y-19500D02*
X21400Y-20000D01*
X21900Y-20500D02*
X25400Y-20500D01*
X20900Y-19000D02*
X17500Y-19000D01*
X26400Y-19000D02*
X42500Y-19000D01*
X47500Y-40000D02*
G75*
G03X50000Y-37500I0J2500D01*
G74*
G01*
X42500Y-45000D02*
G75*
G03X45000Y-42500I0J2500D01*
G74*
G01*
X47500Y-40000D02*
G75*
G03X45000Y-42500I0J-2500D01*
G74*
G01*
X15000Y-42500D02*
G75*
G03X17500Y-45000I2500J0D01*
G74*
G01*
X10000Y-37500D02*
G75*
G03X12500Y-40000I2500J0D01*
G74*
G01*
X15000Y-42500D02*
G75*
G03X12500Y-40000I-2500J0D01*
G74*
G01*
X42500Y-19000D02*
G75*
G03X45000Y-16500I0J2500D01*
G74*
G01*
X50000Y-16500D02*
G75*
G03X47500Y-14000I-2500J0D01*
G74*
G01*
X47500Y-14000D02*
G75*
G03X45000Y-16500I0J-2500D01*
G74*
G01*
X15000Y-16500D02*
G75*
G03X17500Y-19000I2500J0D01*
G74*
G01*
X15000Y-16500D02*
G75*
G03X12500Y-14000I-2500J0D01*
G74*
G01*
X12500Y-14000D02*
G75*
G03X10000Y-16500I0J-2500D01*
G74*
G01*
X13850Y-38550D02*
X15350Y-38550D01*
X13850Y-27550D02*
X13850Y-38550D01*
X15350Y-27550D02*
X13850Y-27550D01*
X15350Y-38550D02*
X15350Y-27550D01*
X42500Y-45000D02*
X17500Y-45000D01*
X10000Y-37500D02*
X10000Y-16500D01*
X50000Y-16500D02*
X50000Y-37500D01*
G54D11*
X12875Y-35775D02*
X13125Y-36025D01*
X13125Y-35775D02*
X12875Y-36025D01*
X13000Y-26850D02*
X13250Y-27100D01*
X13250Y-26850D02*
X13000Y-27100D01*
X13650Y-23025D02*
X13900Y-23275D01*
X13900Y-23025D02*
X13650Y-23275D01*
X15100Y-26100D02*
X15350Y-26350D01*
X15350Y-26100D02*
X15100Y-26350D01*
X15125Y-23925D02*
X15375Y-24175D01*
X15375Y-23925D02*
X15125Y-24175D01*
X15125Y-24950D02*
X15375Y-25200D01*
X15375Y-24950D02*
X15125Y-25200D01*
X16435Y-27335D02*
X16685Y-27585D01*
X16685Y-27335D02*
X16435Y-27585D01*
X16500Y-33800D02*
X16750Y-34050D01*
X16750Y-33800D02*
X16500Y-34050D01*
X16500Y-35475D02*
X16750Y-35725D01*
X16750Y-35475D02*
X16500Y-35725D01*
X16675Y-29300D02*
X16925Y-29550D01*
X16925Y-29300D02*
X16675Y-29550D01*
X16675Y-29750D02*
X16925Y-30000D01*
X16925Y-29750D02*
X16675Y-30000D01*
X16675Y-30225D02*
X16925Y-30475D01*
X16925Y-30225D02*
X16675Y-30475D01*
X16925Y-34575D02*
X17175Y-34825D01*
X17175Y-34575D02*
X16925Y-34825D01*
X17225Y-28900D02*
X17475Y-29150D01*
X17475Y-28900D02*
X17225Y-29150D01*
X17275Y-36125D02*
X17525Y-36375D01*
X17525Y-36125D02*
X17275Y-36375D01*
X17300Y-21700D02*
X17550Y-21950D01*
X17550Y-21700D02*
X17300Y-21950D01*
X17615Y-28375D02*
X17865Y-28625D01*
X17865Y-28375D02*
X17615Y-28625D01*
X18575Y-34975D02*
X18825Y-35225D01*
X18825Y-34975D02*
X18575Y-35225D01*
X19150Y-36475D02*
X19400Y-36725D01*
X19400Y-36475D02*
X19150Y-36725D01*
X21075Y-38625D02*
X21325Y-38875D01*
X21325Y-38625D02*
X21075Y-38875D01*
X21425Y-35275D02*
X21675Y-35525D01*
X21675Y-35275D02*
X21425Y-35525D01*
X22650Y-35275D02*
X22900Y-35525D01*
X22900Y-35275D02*
X22650Y-35525D01*
X22975Y-37050D02*
X23225Y-37300D01*
X23225Y-37050D02*
X22975Y-37300D01*
X23775Y-33375D02*
X24025Y-33625D01*
X24025Y-33375D02*
X23775Y-33625D01*
X23800Y-34550D02*
X24050Y-34800D01*
X24050Y-34550D02*
X23800Y-34800D01*
X23800Y-37025D02*
X24050Y-37275D01*
X24050Y-37025D02*
X23800Y-37275D01*
X24350Y-33025D02*
X24600Y-33275D01*
X24600Y-33025D02*
X24350Y-33275D01*
X24350Y-39375D02*
X24600Y-39625D01*
X24600Y-39375D02*
X24350Y-39625D01*
X24850Y-35400D02*
X25100Y-35650D01*
X25100Y-35400D02*
X24850Y-35650D01*
X25395Y-34075D02*
X25645Y-34325D01*
X25645Y-34075D02*
X25395Y-34325D01*
X25775Y-33725D02*
X26025Y-33975D01*
X26025Y-33725D02*
X25775Y-33975D01*
X26750Y-34725D02*
X27000Y-34975D01*
X27000Y-34725D02*
X26750Y-34975D01*
X28075Y-35450D02*
X28325Y-35700D01*
X28325Y-35450D02*
X28075Y-35700D01*
X28100Y-27825D02*
X28350Y-28075D01*
X28350Y-27825D02*
X28100Y-28075D01*
X28775Y-32350D02*
X29025Y-32600D01*
X29025Y-32350D02*
X28775Y-32600D01*
X28950Y-27025D02*
X29200Y-27275D01*
X29200Y-27025D02*
X28950Y-27275D01*
X29075Y-35500D02*
X29325Y-35750D01*
X29325Y-35500D02*
X29075Y-35750D01*
X29100Y-29525D02*
X29350Y-29775D01*
X29350Y-29525D02*
X29100Y-29775D01*
X29150Y-32675D02*
X29400Y-32925D01*
X29400Y-32675D02*
X29150Y-32925D01*
X29400Y-26925D02*
X29650Y-27175D01*
X29650Y-26925D02*
X29400Y-27175D01*
X29500Y-33000D02*
X29750Y-33250D01*
X29750Y-33000D02*
X29500Y-33250D01*
X29550Y-26500D02*
X29800Y-26750D01*
X29800Y-26500D02*
X29550Y-26750D01*
X29750Y-21700D02*
X30000Y-21950D01*
X30000Y-21700D02*
X29750Y-21950D01*
X29875Y-33275D02*
X30125Y-33525D01*
X30125Y-33275D02*
X29875Y-33525D01*
X30150Y-26950D02*
X30400Y-27200D01*
X30400Y-26950D02*
X30150Y-27200D01*
X30350Y-29225D02*
X30600Y-29475D01*
X30600Y-29225D02*
X30350Y-29475D01*
X30450Y-38550D02*
X30700Y-38800D01*
X30700Y-38550D02*
X30450Y-38800D01*
X30655Y-26495D02*
X30905Y-26745D01*
X30905Y-26495D02*
X30655Y-26745D01*
X30700Y-28900D02*
X30950Y-29150D01*
X30950Y-28900D02*
X30700Y-29150D01*
X30975Y-25995D02*
X31225Y-26245D01*
X31225Y-25995D02*
X30975Y-26245D01*
X31350Y-39150D02*
X31600Y-39400D01*
X31600Y-39150D02*
X31350Y-39400D01*
X31500Y-31875D02*
X31750Y-32125D01*
X31750Y-31875D02*
X31500Y-32125D01*
X31525Y-26000D02*
X31775Y-26250D01*
X31775Y-26000D02*
X31525Y-26250D01*
X31850Y-26500D02*
X32100Y-26750D01*
X32100Y-26500D02*
X31850Y-26750D01*
X31850Y-26950D02*
X32100Y-27200D01*
X32100Y-26950D02*
X31850Y-27200D01*
X31975Y-31725D02*
X32225Y-31975D01*
X32225Y-31725D02*
X31975Y-31975D01*
X32250Y-37325D02*
X32500Y-37575D01*
X32500Y-37325D02*
X32250Y-37575D01*
X32275Y-29075D02*
X32525Y-29325D01*
X32525Y-29075D02*
X32275Y-29325D01*
X32425Y-31875D02*
X32675Y-32125D01*
X32675Y-31875D02*
X32425Y-32125D01*
X32700Y-25450D02*
X32950Y-25700D01*
X32950Y-25450D02*
X32700Y-25700D01*
X33175Y-23300D02*
X33425Y-23550D01*
X33425Y-23300D02*
X33175Y-23550D01*
X33175Y-25300D02*
X33425Y-25550D01*
X33425Y-25300D02*
X33175Y-25550D01*
X33175Y-27625D02*
X33425Y-27875D01*
X33425Y-27625D02*
X33175Y-27875D01*
X37275Y-31250D02*
X37525Y-31500D01*
X37525Y-31250D02*
X37275Y-31500D01*
X37275Y-32250D02*
X37525Y-32500D01*
X37525Y-32250D02*
X37275Y-32500D01*
X37550Y-21725D02*
X37800Y-21975D01*
X37800Y-21725D02*
X37550Y-21975D01*
X38025Y-34375D02*
X38275Y-34625D01*
X38275Y-34375D02*
X38025Y-34625D01*
X38125Y-22475D02*
X38375Y-22725D01*
X38375Y-22475D02*
X38125Y-22725D01*
X38150Y-21975D02*
X38400Y-22225D01*
X38400Y-21975D02*
X38150Y-22225D01*
X38150Y-27275D02*
X38400Y-27525D01*
X38400Y-27275D02*
X38150Y-27525D01*
X39025Y-35025D02*
X39275Y-35275D01*
X39275Y-35025D02*
X39025Y-35275D01*
X39525Y-30775D02*
X39775Y-31025D01*
X39775Y-30775D02*
X39525Y-31025D01*
X39675Y-36675D02*
X39925Y-36925D01*
X39925Y-36675D02*
X39675Y-36925D01*
X40485Y-30775D02*
X40735Y-31025D01*
X40735Y-30775D02*
X40485Y-31025D01*
X40675Y-36675D02*
X40925Y-36925D01*
X40925Y-36675D02*
X40675Y-36925D01*
X41025Y-30775D02*
X41275Y-31025D01*
X41275Y-30775D02*
X41025Y-31025D01*
X41525Y-30775D02*
X41775Y-31025D01*
X41775Y-30775D02*
X41525Y-31025D01*
X41525Y-35925D02*
X41775Y-36175D01*
X41775Y-35925D02*
X41525Y-36175D01*
X42025Y-30025D02*
X42275Y-30275D01*
X42275Y-30025D02*
X42025Y-30275D01*
X42025Y-30775D02*
X42275Y-31025D01*
X42275Y-30775D02*
X42025Y-31025D01*
X42185Y-33535D02*
X42435Y-33785D01*
X42435Y-33535D02*
X42185Y-33785D01*
X42565Y-33185D02*
X42815Y-33435D01*
X42815Y-33185D02*
X42565Y-33435D01*
X43100Y-22375D02*
X43350Y-22625D01*
X43350Y-22375D02*
X43100Y-22625D01*
X43100Y-24150D02*
X43350Y-24400D01*
X43350Y-24150D02*
X43100Y-24400D01*
X43625Y-33975D02*
X43875Y-34225D01*
X43875Y-33975D02*
X43625Y-34225D01*
X46400Y-37275D02*
X46650Y-37525D01*
X46650Y-37275D02*
X46400Y-37525D01*
X45750Y-20975D02*
G75*
G03X45750Y-20975I-175J0D01*
G74*
G01*
X45750Y-21975D02*
G75*
G03X45750Y-21975I-175J0D01*
G74*
G01*
X48538Y-23597D02*
G75*
G03X48538Y-23597I-175J0D01*
G74*
G01*
X48538Y-26747D02*
G75*
G03X48538Y-26747I-175J0D01*
G74*
G01*
X14306Y-18795D02*
X14306Y-19195D01*
X14106Y-18995D02*
X14506Y-18995D01*
X13906Y-19156D02*
X14706Y-19156D01*
X13906Y-18835D02*
X14706Y-18835D01*
X14706Y-19156D02*
G75*
G03X14706Y-18835I0J160D01*
G74*
G01*
X13906Y-18835D02*
G75*
G03X13906Y-19156I0J-160D01*
G74*
G01*
X16500Y-41300D02*
X16500Y-41700D01*
X16300Y-41500D02*
X16700Y-41500D01*
X17500Y-41300D02*
X17500Y-41700D01*
X17300Y-41500D02*
X17700Y-41500D01*
X18500Y-41300D02*
X18500Y-41700D01*
X18300Y-41500D02*
X18700Y-41500D01*
X19500Y-41300D02*
X19500Y-41700D01*
X19300Y-41500D02*
X19700Y-41500D01*
X20500Y-41300D02*
X20500Y-41700D01*
X20300Y-41500D02*
X20700Y-41500D01*
X21500Y-41300D02*
X21500Y-41700D01*
X21300Y-41500D02*
X21700Y-41500D01*
X24114Y-41520D02*
X24114Y-41920D01*
X23914Y-41720D02*
X24314Y-41720D01*
X24114Y-44079D02*
X24114Y-44479D01*
X23914Y-44279D02*
X24314Y-44279D01*
X25885Y-41520D02*
X25885Y-41920D01*
X25685Y-41720D02*
X26085Y-41720D01*
X25885Y-44079D02*
X25885Y-44479D01*
X25685Y-44279D02*
X26085Y-44279D01*
X28114Y-41520D02*
X28114Y-41920D01*
X27914Y-41720D02*
X28314Y-41720D01*
X28114Y-44079D02*
X28114Y-44479D01*
X27914Y-44279D02*
X28314Y-44279D01*
X29885Y-41520D02*
X29885Y-41920D01*
X29685Y-41720D02*
X30085Y-41720D01*
X29885Y-44079D02*
X29885Y-44479D01*
X29685Y-44279D02*
X30085Y-44279D01*
X30300Y-19800D02*
X30300Y-20200D01*
X30100Y-20000D02*
X30500Y-20000D01*
X31300Y-19800D02*
X31300Y-20200D01*
X31100Y-20000D02*
X31500Y-20000D01*
X32114Y-41520D02*
X32114Y-41920D01*
X31914Y-41720D02*
X32314Y-41720D01*
X32114Y-44079D02*
X32114Y-44479D01*
X31914Y-44279D02*
X32314Y-44279D01*
X32300Y-19800D02*
X32300Y-20200D01*
X32100Y-20000D02*
X32500Y-20000D01*
X33300Y-19800D02*
X33300Y-20200D01*
X33100Y-20000D02*
X33500Y-20000D01*
X33885Y-41520D02*
X33885Y-41920D01*
X33685Y-41720D02*
X34085Y-41720D01*
X33885Y-44079D02*
X33885Y-44479D01*
X33685Y-44279D02*
X34085Y-44279D01*
X33900Y-38800D02*
X33900Y-39200D01*
X33700Y-39000D02*
X34100Y-39000D01*
X34300Y-19800D02*
X34300Y-20200D01*
X34100Y-20000D02*
X34500Y-20000D01*
X34900Y-38800D02*
X34900Y-39200D01*
X34700Y-39000D02*
X35100Y-39000D01*
X35300Y-19800D02*
X35300Y-20200D01*
X35100Y-20000D02*
X35500Y-20000D01*
X35900Y-38800D02*
X35900Y-39200D01*
X35700Y-39000D02*
X36100Y-39000D01*
X36114Y-41520D02*
X36114Y-41920D01*
X35914Y-41720D02*
X36314Y-41720D01*
X36114Y-44079D02*
X36114Y-44479D01*
X35914Y-44279D02*
X36314Y-44279D01*
X36300Y-19800D02*
X36300Y-20200D01*
X36100Y-20000D02*
X36500Y-20000D01*
X36900Y-38800D02*
X36900Y-39200D01*
X36700Y-39000D02*
X37100Y-39000D01*
X37300Y-19800D02*
X37300Y-20200D01*
X37100Y-20000D02*
X37500Y-20000D01*
X37885Y-41520D02*
X37885Y-41920D01*
X37685Y-41720D02*
X38085Y-41720D01*
X37885Y-44079D02*
X37885Y-44479D01*
X37685Y-44279D02*
X38085Y-44279D01*
X37900Y-38800D02*
X37900Y-39200D01*
X37700Y-39000D02*
X38100Y-39000D01*
X38300Y-19800D02*
X38300Y-20200D01*
X38100Y-20000D02*
X38500Y-20000D01*
X38900Y-38800D02*
X38900Y-39200D01*
X38700Y-39000D02*
X39100Y-39000D01*
X39300Y-19800D02*
X39300Y-20200D01*
X39100Y-20000D02*
X39500Y-20000D01*
X39900Y-38800D02*
X39900Y-39200D01*
X39700Y-39000D02*
X40100Y-39000D01*
X40900Y-19800D02*
X40900Y-20200D01*
X40700Y-20000D02*
X41100Y-20000D01*
X40900Y-38800D02*
X40900Y-39200D01*
X40700Y-39000D02*
X41100Y-39000D01*
X40964Y-41520D02*
X40964Y-41920D01*
X40764Y-41720D02*
X41164Y-41720D01*
X40964Y-44079D02*
X40964Y-44479D01*
X40764Y-44279D02*
X41164Y-44279D01*
X41900Y-19800D02*
X41900Y-20200D01*
X41700Y-20000D02*
X42100Y-20000D01*
X42735Y-41520D02*
X42735Y-41920D01*
X42535Y-41720D02*
X42935Y-41720D01*
X42735Y-44079D02*
X42735Y-44479D01*
X42535Y-44279D02*
X42935Y-44279D01*
X42900Y-19800D02*
X42900Y-20200D01*
X42700Y-20000D02*
X43100Y-20000D01*
X42900Y-38800D02*
X42900Y-39200D01*
X42700Y-39000D02*
X43100Y-39000D01*
X43900Y-19800D02*
X43900Y-20200D01*
X43700Y-20000D02*
X44100Y-20000D01*
X43900Y-38800D02*
X43900Y-39200D01*
X43700Y-39000D02*
X44100Y-39000D01*
X44900Y-19800D02*
X44900Y-20200D01*
X44700Y-20000D02*
X45100Y-20000D01*
X44900Y-38800D02*
X44900Y-39200D01*
X44700Y-39000D02*
X45100Y-39000D01*
X45500Y-33900D02*
X45500Y-34300D01*
X45300Y-34100D02*
X45700Y-34100D01*
X45500Y-34900D02*
X45500Y-35300D01*
X45300Y-35100D02*
X45700Y-35100D01*
X45500Y-35900D02*
X45500Y-36300D01*
X45300Y-36100D02*
X45700Y-36100D01*
X45900Y-19800D02*
X45900Y-20200D01*
X45700Y-20000D02*
X46100Y-20000D01*
X45900Y-38800D02*
X45900Y-39200D01*
X45700Y-39000D02*
X46100Y-39000D01*
X46500Y-29500D02*
X46500Y-29900D01*
X46300Y-29700D02*
X46700Y-29700D01*
X46500Y-30500D02*
X46500Y-30900D01*
X46300Y-30700D02*
X46700Y-30700D01*
X46500Y-31500D02*
X46500Y-31900D01*
X46300Y-31700D02*
X46700Y-31700D01*
X46500Y-32500D02*
X46500Y-32900D01*
X46300Y-32700D02*
X46700Y-32700D01*
X46500Y-33900D02*
X46500Y-34300D01*
X46300Y-34100D02*
X46700Y-34100D01*
X46500Y-34900D02*
X46500Y-35300D01*
X46300Y-35100D02*
X46700Y-35100D01*
X46500Y-35900D02*
X46500Y-36300D01*
X46300Y-36100D02*
X46700Y-36100D01*
X46900Y-19800D02*
X46900Y-20200D01*
X46700Y-20000D02*
X47100Y-20000D01*
X46900Y-38800D02*
X46900Y-39200D01*
X46700Y-39000D02*
X47100Y-39000D01*
X47900Y-19800D02*
X47900Y-20200D01*
X47700Y-20000D02*
X48100Y-20000D01*
X47900Y-38800D02*
X47900Y-39200D01*
X47700Y-39000D02*
X48100Y-39000D01*
X13287Y-21087D02*
X13287Y-20762D01*
X12962Y-20762D01*
X12962Y-21087D01*
X13287Y-21087D01*
X12934Y-20455D02*
X12934Y-21395D01*
X13315Y-20455D02*
X13315Y-21395D01*
X12934Y-21395D02*
G75*
G03X13315Y-21395I190J0D01*
G74*
G01*
X13315Y-20455D02*
G75*
G03X12934Y-20455I-190J0D01*
G74*
G01*
X15649Y-21087D02*
X15649Y-20762D01*
X15324Y-20762D01*
X15324Y-21087D01*
X15649Y-21087D01*
X15296Y-20355D02*
X15296Y-21495D01*
X15677Y-20355D02*
X15677Y-21495D01*
X15296Y-21495D02*
G75*
G03X15677Y-21495I190J0D01*
G74*
G01*
X15677Y-20355D02*
G75*
G03X15296Y-20355I-190J0D01*
G74*
G01*
X10600Y-33025D02*
X10850Y-32775D01*
X10600Y-32525D01*
X10350Y-32775D01*
X10600Y-33025D01*
X10600Y-35625D02*
X10850Y-35375D01*
X10600Y-35125D01*
X10350Y-35375D01*
X10600Y-35625D01*
X12000Y-16000D02*
X13000Y-17000D01*
X13000Y-16000D02*
X12000Y-17000D01*
X13000Y-16500D02*
G75*
G03X13000Y-16500I-500J0D01*
G74*
G01*
X10950Y-16960D02*
X14049Y-16960D01*
X10950Y-16039D02*
X14049Y-16039D01*
X14049Y-16960D02*
G75*
G03X14049Y-16039I0J460D01*
G74*
G01*
X10950Y-16039D02*
G75*
G03X10950Y-16960I0J-460D01*
G74*
G01*
X47000Y-16000D02*
X48000Y-17000D01*
X48000Y-16000D02*
X47000Y-17000D01*
X48000Y-16500D02*
G75*
G03X48000Y-16500I-500J0D01*
G74*
G01*
X45950Y-16960D02*
X49049Y-16960D01*
X45950Y-16039D02*
X49049Y-16039D01*
X49049Y-16960D02*
G75*
G03X49049Y-16039I0J460D01*
G74*
G01*
X45950Y-16039D02*
G75*
G03X45950Y-16960I0J-460D01*
G74*
G01*
X10475Y-25375D02*
X11724Y-26624D01*
X11724Y-25375D02*
X10475Y-26624D01*
X11100Y-25375D02*
X11100Y-26624D01*
X10475Y-26000D02*
X11724Y-26000D01*
X10475Y-36375D02*
X11724Y-37624D01*
X11724Y-36375D02*
X10475Y-37624D01*
X11100Y-36375D02*
X11100Y-37624D01*
X10475Y-37000D02*
X11724Y-37000D01*
X27775Y-38375D02*
X29024Y-39624D01*
X29024Y-38375D02*
X27775Y-39624D01*
X28400Y-38375D02*
X28400Y-39624D01*
X27775Y-39000D02*
X29024Y-39000D01*
X28275Y-19375D02*
X29524Y-20624D01*
X29524Y-19375D02*
X28275Y-20624D01*
X28900Y-19375D02*
X28900Y-20624D01*
X28275Y-20000D02*
X29524Y-20000D01*
X48275Y-36375D02*
X49524Y-37624D01*
X49524Y-36375D02*
X48275Y-37624D01*
X48900Y-36375D02*
X48900Y-37624D01*
X48275Y-37000D02*
X49524Y-37000D01*
G54D12*
X11043Y-46858D02*
X11043Y-45677D01*
X11324Y-45677D01*
X11493Y-45733D01*
X11606Y-45846D01*
X11662Y-45958D01*
X11718Y-46183D01*
X11718Y-46352D01*
X11662Y-46577D01*
X11606Y-46689D01*
X11493Y-46802D01*
X11324Y-46858D01*
X11043Y-46858D01*
X12224Y-46858D02*
X12224Y-46071D01*
X12224Y-46296D02*
X12280Y-46183D01*
X12337Y-46127D01*
X12449Y-46071D01*
X12562Y-46071D01*
X12955Y-46858D02*
X12955Y-46071D01*
X12955Y-45677D02*
X12899Y-45733D01*
X12955Y-45789D01*
X13012Y-45733D01*
X12955Y-45677D01*
X12955Y-45789D01*
X13687Y-46858D02*
X13574Y-46802D01*
X13518Y-46689D01*
X13518Y-45677D01*
X14305Y-46858D02*
X14193Y-46802D01*
X14136Y-46689D01*
X14136Y-45677D01*
X15655Y-46858D02*
X15655Y-45677D01*
X16049Y-46521D01*
X16442Y-45677D01*
X16442Y-46858D01*
X17511Y-46858D02*
X17511Y-46239D01*
X17455Y-46127D01*
X17342Y-46071D01*
X17117Y-46071D01*
X17005Y-46127D01*
X17511Y-46802D02*
X17399Y-46858D01*
X17117Y-46858D01*
X17005Y-46802D01*
X16949Y-46689D01*
X16949Y-46577D01*
X17005Y-46464D01*
X17117Y-46408D01*
X17399Y-46408D01*
X17511Y-46352D01*
X18073Y-46071D02*
X18073Y-47252D01*
X18073Y-46127D02*
X18186Y-46071D01*
X18411Y-46071D01*
X18523Y-46127D01*
X18580Y-46183D01*
X18636Y-46296D01*
X18636Y-46633D01*
X18580Y-46746D01*
X18523Y-46802D01*
X18411Y-46858D01*
X18186Y-46858D01*
X18073Y-46802D01*
X19142Y-46746D02*
X19198Y-46802D01*
X19142Y-46858D01*
X19086Y-46802D01*
X19142Y-46746D01*
X19142Y-46858D01*
X19142Y-46127D02*
X19198Y-46183D01*
X19142Y-46239D01*
X19086Y-46183D01*
X19142Y-46127D01*
X19142Y-46239D01*
X9724Y-48679D02*
X9974Y-48929D01*
X9974Y-48679D02*
X9724Y-48929D01*
X11268Y-48157D02*
X11381Y-48157D01*
X11493Y-48213D01*
X11549Y-48270D01*
X11606Y-48382D01*
X11662Y-48607D01*
X11662Y-48888D01*
X11606Y-49113D01*
X11549Y-49226D01*
X11493Y-49282D01*
X11381Y-49338D01*
X11268Y-49338D01*
X11156Y-49282D01*
X11099Y-49226D01*
X11043Y-49113D01*
X10987Y-48888D01*
X10987Y-48607D01*
X11043Y-48382D01*
X11099Y-48270D01*
X11156Y-48213D01*
X11268Y-48157D01*
X12168Y-49226D02*
X12224Y-49282D01*
X12168Y-49338D01*
X12112Y-49282D01*
X12168Y-49226D01*
X12168Y-49338D01*
X13237Y-48157D02*
X13012Y-48157D01*
X12899Y-48213D01*
X12843Y-48270D01*
X12730Y-48438D01*
X12674Y-48663D01*
X12674Y-49113D01*
X12730Y-49226D01*
X12787Y-49282D01*
X12899Y-49338D01*
X13124Y-49338D01*
X13237Y-49282D01*
X13293Y-49226D01*
X13349Y-49113D01*
X13349Y-48832D01*
X13293Y-48720D01*
X13237Y-48663D01*
X13124Y-48607D01*
X12899Y-48607D01*
X12787Y-48663D01*
X12730Y-48720D01*
X12674Y-48832D01*
X14361Y-48551D02*
X14361Y-49338D01*
X14080Y-48101D02*
X13799Y-48945D01*
X14530Y-48945D01*
X14980Y-49338D02*
X14980Y-48551D01*
X14980Y-48663D02*
X15036Y-48607D01*
X15149Y-48551D01*
X15318Y-48551D01*
X15430Y-48607D01*
X15486Y-48720D01*
X15486Y-49338D01*
X15486Y-48720D02*
X15543Y-48607D01*
X15655Y-48551D01*
X15824Y-48551D01*
X15936Y-48607D01*
X15992Y-48720D01*
X15992Y-49338D01*
X16555Y-49338D02*
X16555Y-48551D01*
X16555Y-48663D02*
X16611Y-48607D01*
X16724Y-48551D01*
X16892Y-48551D01*
X17005Y-48607D01*
X17061Y-48720D01*
X17061Y-49338D01*
X17061Y-48720D02*
X17117Y-48607D01*
X17230Y-48551D01*
X17399Y-48551D01*
X17511Y-48607D01*
X17567Y-48720D01*
X17567Y-49338D01*
X19873Y-48101D02*
X18861Y-49620D01*
X21392Y-48157D02*
X21504Y-48157D01*
X21617Y-48213D01*
X21673Y-48270D01*
X21729Y-48382D01*
X21786Y-48607D01*
X21786Y-48888D01*
X21729Y-49113D01*
X21673Y-49226D01*
X21617Y-49282D01*
X21504Y-49338D01*
X21392Y-49338D01*
X21279Y-49282D01*
X21223Y-49226D01*
X21167Y-49113D01*
X21111Y-48888D01*
X21111Y-48607D01*
X21167Y-48382D01*
X21223Y-48270D01*
X21279Y-48213D01*
X21392Y-48157D01*
X22292Y-49226D02*
X22348Y-49282D01*
X22292Y-49338D01*
X22235Y-49282D01*
X22292Y-49226D01*
X22292Y-49338D01*
X23079Y-48157D02*
X23192Y-48157D01*
X23304Y-48213D01*
X23360Y-48270D01*
X23417Y-48382D01*
X23473Y-48607D01*
X23473Y-48888D01*
X23417Y-49113D01*
X23360Y-49226D01*
X23304Y-49282D01*
X23192Y-49338D01*
X23079Y-49338D01*
X22967Y-49282D01*
X22910Y-49226D01*
X22854Y-49113D01*
X22798Y-48888D01*
X22798Y-48607D01*
X22854Y-48382D01*
X22910Y-48270D01*
X22967Y-48213D01*
X23079Y-48157D01*
X23923Y-48270D02*
X23979Y-48213D01*
X24091Y-48157D01*
X24373Y-48157D01*
X24485Y-48213D01*
X24541Y-48270D01*
X24598Y-48382D01*
X24598Y-48495D01*
X24541Y-48663D01*
X23867Y-49338D01*
X24598Y-49338D01*
X25666Y-48157D02*
X25104Y-48157D01*
X25048Y-48720D01*
X25104Y-48663D01*
X25216Y-48607D01*
X25498Y-48607D01*
X25610Y-48663D01*
X25666Y-48720D01*
X25723Y-48832D01*
X25723Y-49113D01*
X25666Y-49226D01*
X25610Y-49282D01*
X25498Y-49338D01*
X25216Y-49338D01*
X25104Y-49282D01*
X25048Y-49226D01*
X26172Y-48157D02*
X26172Y-48382D01*
X26622Y-48157D02*
X26622Y-48382D01*
X28366Y-49788D02*
X28310Y-49732D01*
X28197Y-49563D01*
X28141Y-49451D01*
X28085Y-49282D01*
X28028Y-49001D01*
X28028Y-48776D01*
X28085Y-48495D01*
X28141Y-48326D01*
X28197Y-48213D01*
X28310Y-48045D01*
X28366Y-47989D01*
X28985Y-48663D02*
X28872Y-48607D01*
X28816Y-48551D01*
X28760Y-48438D01*
X28760Y-48382D01*
X28816Y-48270D01*
X28872Y-48213D01*
X28985Y-48157D01*
X29210Y-48157D01*
X29322Y-48213D01*
X29378Y-48270D01*
X29435Y-48382D01*
X29435Y-48438D01*
X29378Y-48551D01*
X29322Y-48607D01*
X29210Y-48663D01*
X28985Y-48663D01*
X28872Y-48720D01*
X28816Y-48776D01*
X28760Y-48888D01*
X28760Y-49113D01*
X28816Y-49226D01*
X28872Y-49282D01*
X28985Y-49338D01*
X29210Y-49338D01*
X29322Y-49282D01*
X29378Y-49226D01*
X29435Y-49113D01*
X29435Y-48888D01*
X29378Y-48776D01*
X29322Y-48720D01*
X29210Y-48663D01*
X30447Y-48157D02*
X30222Y-48157D01*
X30109Y-48213D01*
X30053Y-48270D01*
X29941Y-48438D01*
X29885Y-48663D01*
X29885Y-49113D01*
X29941Y-49226D01*
X29997Y-49282D01*
X30109Y-49338D01*
X30334Y-49338D01*
X30447Y-49282D01*
X30503Y-49226D01*
X30559Y-49113D01*
X30559Y-48832D01*
X30503Y-48720D01*
X30447Y-48663D01*
X30334Y-48607D01*
X30109Y-48607D01*
X29997Y-48663D01*
X29941Y-48720D01*
X29885Y-48832D01*
X31966Y-49338D02*
X31966Y-48157D01*
X32472Y-49338D02*
X32472Y-48720D01*
X32415Y-48607D01*
X32303Y-48551D01*
X32134Y-48551D01*
X32022Y-48607D01*
X31966Y-48663D01*
X33203Y-49338D02*
X33090Y-49282D01*
X33034Y-49226D01*
X32978Y-49113D01*
X32978Y-48776D01*
X33034Y-48663D01*
X33090Y-48607D01*
X33203Y-48551D01*
X33372Y-48551D01*
X33484Y-48607D01*
X33540Y-48663D01*
X33597Y-48776D01*
X33597Y-49113D01*
X33540Y-49226D01*
X33484Y-49282D01*
X33372Y-49338D01*
X33203Y-49338D01*
X34271Y-49338D02*
X34159Y-49282D01*
X34103Y-49170D01*
X34103Y-48157D01*
X35171Y-49282D02*
X35059Y-49338D01*
X34834Y-49338D01*
X34721Y-49282D01*
X34665Y-49170D01*
X34665Y-48720D01*
X34721Y-48607D01*
X34834Y-48551D01*
X35059Y-48551D01*
X35171Y-48607D01*
X35228Y-48720D01*
X35228Y-48832D01*
X34665Y-48945D01*
X35678Y-49282D02*
X35790Y-49338D01*
X36015Y-49338D01*
X36127Y-49282D01*
X36184Y-49170D01*
X36184Y-49113D01*
X36127Y-49001D01*
X36015Y-48945D01*
X35846Y-48945D01*
X35734Y-48888D01*
X35678Y-48776D01*
X35678Y-48720D01*
X35734Y-48607D01*
X35846Y-48551D01*
X36015Y-48551D01*
X36127Y-48607D01*
X36577Y-49788D02*
X36634Y-49732D01*
X36746Y-49563D01*
X36802Y-49451D01*
X36859Y-49282D01*
X36915Y-49001D01*
X36915Y-48776D01*
X36859Y-48495D01*
X36802Y-48326D01*
X36746Y-48213D01*
X36634Y-48045D01*
X36577Y-47989D01*
G54D11*
X9974Y-50363D02*
G75*
G03X9974Y-50363I-175J0D01*
G74*
G01*
G54D12*
X11268Y-49716D02*
X11381Y-49716D01*
X11493Y-49773D01*
X11549Y-49829D01*
X11606Y-49941D01*
X11662Y-50166D01*
X11662Y-50447D01*
X11606Y-50672D01*
X11549Y-50785D01*
X11493Y-50841D01*
X11381Y-50897D01*
X11268Y-50897D01*
X11156Y-50841D01*
X11099Y-50785D01*
X11043Y-50672D01*
X10987Y-50447D01*
X10987Y-50166D01*
X11043Y-49941D01*
X11099Y-49829D01*
X11156Y-49773D01*
X11268Y-49716D01*
X12168Y-50785D02*
X12224Y-50841D01*
X12168Y-50897D01*
X12112Y-50841D01*
X12168Y-50785D01*
X12168Y-50897D01*
X12899Y-50222D02*
X12787Y-50166D01*
X12730Y-50110D01*
X12674Y-49998D01*
X12674Y-49941D01*
X12730Y-49829D01*
X12787Y-49773D01*
X12899Y-49716D01*
X13124Y-49716D01*
X13237Y-49773D01*
X13293Y-49829D01*
X13349Y-49941D01*
X13349Y-49998D01*
X13293Y-50110D01*
X13237Y-50166D01*
X13124Y-50222D01*
X12899Y-50222D01*
X12787Y-50279D01*
X12730Y-50335D01*
X12674Y-50447D01*
X12674Y-50672D01*
X12730Y-50785D01*
X12787Y-50841D01*
X12899Y-50897D01*
X13124Y-50897D01*
X13237Y-50841D01*
X13293Y-50785D01*
X13349Y-50672D01*
X13349Y-50447D01*
X13293Y-50335D01*
X13237Y-50279D01*
X13124Y-50222D01*
X13912Y-50897D02*
X14136Y-50897D01*
X14249Y-50841D01*
X14305Y-50785D01*
X14418Y-50616D01*
X14474Y-50391D01*
X14474Y-49941D01*
X14418Y-49829D01*
X14361Y-49773D01*
X14249Y-49716D01*
X14024Y-49716D01*
X13912Y-49773D01*
X13855Y-49829D01*
X13799Y-49941D01*
X13799Y-50222D01*
X13855Y-50335D01*
X13912Y-50391D01*
X14024Y-50447D01*
X14249Y-50447D01*
X14361Y-50391D01*
X14418Y-50335D01*
X14474Y-50222D01*
X14980Y-50897D02*
X14980Y-50110D01*
X14980Y-50222D02*
X15036Y-50166D01*
X15149Y-50110D01*
X15318Y-50110D01*
X15430Y-50166D01*
X15486Y-50279D01*
X15486Y-50897D01*
X15486Y-50279D02*
X15543Y-50166D01*
X15655Y-50110D01*
X15824Y-50110D01*
X15936Y-50166D01*
X15992Y-50279D01*
X15992Y-50897D01*
X16555Y-50897D02*
X16555Y-50110D01*
X16555Y-50222D02*
X16611Y-50166D01*
X16724Y-50110D01*
X16892Y-50110D01*
X17005Y-50166D01*
X17061Y-50279D01*
X17061Y-50897D01*
X17061Y-50279D02*
X17117Y-50166D01*
X17230Y-50110D01*
X17399Y-50110D01*
X17511Y-50166D01*
X17567Y-50279D01*
X17567Y-50897D01*
X19873Y-49660D02*
X18861Y-51179D01*
X21392Y-49716D02*
X21504Y-49716D01*
X21617Y-49773D01*
X21673Y-49829D01*
X21729Y-49941D01*
X21786Y-50166D01*
X21786Y-50447D01*
X21729Y-50672D01*
X21673Y-50785D01*
X21617Y-50841D01*
X21504Y-50897D01*
X21392Y-50897D01*
X21279Y-50841D01*
X21223Y-50785D01*
X21167Y-50672D01*
X21111Y-50447D01*
X21111Y-50166D01*
X21167Y-49941D01*
X21223Y-49829D01*
X21279Y-49773D01*
X21392Y-49716D01*
X22292Y-50785D02*
X22348Y-50841D01*
X22292Y-50897D01*
X22235Y-50841D01*
X22292Y-50785D01*
X22292Y-50897D01*
X23079Y-49716D02*
X23192Y-49716D01*
X23304Y-49773D01*
X23360Y-49829D01*
X23417Y-49941D01*
X23473Y-50166D01*
X23473Y-50447D01*
X23417Y-50672D01*
X23360Y-50785D01*
X23304Y-50841D01*
X23192Y-50897D01*
X23079Y-50897D01*
X22967Y-50841D01*
X22910Y-50785D01*
X22854Y-50672D01*
X22798Y-50447D01*
X22798Y-50166D01*
X22854Y-49941D01*
X22910Y-49829D01*
X22967Y-49773D01*
X23079Y-49716D01*
X23867Y-49716D02*
X24598Y-49716D01*
X24204Y-50166D01*
X24373Y-50166D01*
X24485Y-50222D01*
X24541Y-50279D01*
X24598Y-50391D01*
X24598Y-50672D01*
X24541Y-50785D01*
X24485Y-50841D01*
X24373Y-50897D01*
X24035Y-50897D01*
X23923Y-50841D01*
X23867Y-50785D01*
X25666Y-49716D02*
X25104Y-49716D01*
X25048Y-50279D01*
X25104Y-50222D01*
X25216Y-50166D01*
X25498Y-50166D01*
X25610Y-50222D01*
X25666Y-50279D01*
X25723Y-50391D01*
X25723Y-50672D01*
X25666Y-50785D01*
X25610Y-50841D01*
X25498Y-50897D01*
X25216Y-50897D01*
X25104Y-50841D01*
X25048Y-50785D01*
X26172Y-49716D02*
X26172Y-49941D01*
X26622Y-49716D02*
X26622Y-49941D01*
X28366Y-51347D02*
X28310Y-51291D01*
X28197Y-51122D01*
X28141Y-51010D01*
X28085Y-50841D01*
X28028Y-50560D01*
X28028Y-50335D01*
X28085Y-50054D01*
X28141Y-49885D01*
X28197Y-49773D01*
X28310Y-49604D01*
X28366Y-49548D01*
X29322Y-50110D02*
X29322Y-50897D01*
X29041Y-49660D02*
X28760Y-50504D01*
X29491Y-50504D01*
X30841Y-50897D02*
X30841Y-49716D01*
X31347Y-50897D02*
X31347Y-50279D01*
X31291Y-50166D01*
X31178Y-50110D01*
X31009Y-50110D01*
X30897Y-50166D01*
X30841Y-50222D01*
X32078Y-50897D02*
X31966Y-50841D01*
X31909Y-50785D01*
X31853Y-50672D01*
X31853Y-50335D01*
X31909Y-50222D01*
X31966Y-50166D01*
X32078Y-50110D01*
X32247Y-50110D01*
X32359Y-50166D01*
X32415Y-50222D01*
X32472Y-50335D01*
X32472Y-50672D01*
X32415Y-50785D01*
X32359Y-50841D01*
X32247Y-50897D01*
X32078Y-50897D01*
X33147Y-50897D02*
X33034Y-50841D01*
X32978Y-50729D01*
X32978Y-49716D01*
X34046Y-50841D02*
X33934Y-50897D01*
X33709Y-50897D01*
X33597Y-50841D01*
X33540Y-50729D01*
X33540Y-50279D01*
X33597Y-50166D01*
X33709Y-50110D01*
X33934Y-50110D01*
X34046Y-50166D01*
X34103Y-50279D01*
X34103Y-50391D01*
X33540Y-50504D01*
X34553Y-50841D02*
X34665Y-50897D01*
X34890Y-50897D01*
X35003Y-50841D01*
X35059Y-50729D01*
X35059Y-50672D01*
X35003Y-50560D01*
X34890Y-50504D01*
X34721Y-50504D01*
X34609Y-50447D01*
X34553Y-50335D01*
X34553Y-50279D01*
X34609Y-50166D01*
X34721Y-50110D01*
X34890Y-50110D01*
X35003Y-50166D01*
X35453Y-51347D02*
X35509Y-51291D01*
X35621Y-51122D01*
X35678Y-51010D01*
X35734Y-50841D01*
X35790Y-50560D01*
X35790Y-50335D01*
X35734Y-50054D01*
X35678Y-49885D01*
X35621Y-49773D01*
X35509Y-49604D01*
X35453Y-49548D01*
X9774Y-51722D02*
X9774Y-52122D01*
X9574Y-51922D02*
X9974Y-51922D01*
X11662Y-52456D02*
X10987Y-52456D01*
X11324Y-52456D02*
X11324Y-51275D01*
X11212Y-51444D01*
X11099Y-51557D01*
X10987Y-51613D01*
X12168Y-52344D02*
X12224Y-52400D01*
X12168Y-52456D01*
X12112Y-52400D01*
X12168Y-52344D01*
X12168Y-52456D01*
X12955Y-51275D02*
X13068Y-51275D01*
X13180Y-51332D01*
X13237Y-51388D01*
X13293Y-51500D01*
X13349Y-51725D01*
X13349Y-52007D01*
X13293Y-52231D01*
X13237Y-52344D01*
X13180Y-52400D01*
X13068Y-52456D01*
X12955Y-52456D01*
X12843Y-52400D01*
X12787Y-52344D01*
X12730Y-52231D01*
X12674Y-52007D01*
X12674Y-51725D01*
X12730Y-51500D01*
X12787Y-51388D01*
X12843Y-51332D01*
X12955Y-51275D01*
X13799Y-51388D02*
X13855Y-51332D01*
X13968Y-51275D01*
X14249Y-51275D01*
X14361Y-51332D01*
X14418Y-51388D01*
X14474Y-51500D01*
X14474Y-51613D01*
X14418Y-51782D01*
X13743Y-52456D01*
X14474Y-52456D01*
X14980Y-52456D02*
X14980Y-51669D01*
X14980Y-51782D02*
X15036Y-51725D01*
X15149Y-51669D01*
X15318Y-51669D01*
X15430Y-51725D01*
X15486Y-51838D01*
X15486Y-52456D01*
X15486Y-51838D02*
X15543Y-51725D01*
X15655Y-51669D01*
X15824Y-51669D01*
X15936Y-51725D01*
X15992Y-51838D01*
X15992Y-52456D01*
X16555Y-52456D02*
X16555Y-51669D01*
X16555Y-51782D02*
X16611Y-51725D01*
X16724Y-51669D01*
X16892Y-51669D01*
X17005Y-51725D01*
X17061Y-51838D01*
X17061Y-52456D01*
X17061Y-51838D02*
X17117Y-51725D01*
X17230Y-51669D01*
X17399Y-51669D01*
X17511Y-51725D01*
X17567Y-51838D01*
X17567Y-52456D01*
X19873Y-51219D02*
X18861Y-52738D01*
X21392Y-51275D02*
X21504Y-51275D01*
X21617Y-51332D01*
X21673Y-51388D01*
X21729Y-51500D01*
X21786Y-51725D01*
X21786Y-52007D01*
X21729Y-52231D01*
X21673Y-52344D01*
X21617Y-52400D01*
X21504Y-52456D01*
X21392Y-52456D01*
X21279Y-52400D01*
X21223Y-52344D01*
X21167Y-52231D01*
X21111Y-52007D01*
X21111Y-51725D01*
X21167Y-51500D01*
X21223Y-51388D01*
X21279Y-51332D01*
X21392Y-51275D01*
X22292Y-52344D02*
X22348Y-52400D01*
X22292Y-52456D01*
X22235Y-52400D01*
X22292Y-52344D01*
X22292Y-52456D01*
X23079Y-51275D02*
X23192Y-51275D01*
X23304Y-51332D01*
X23360Y-51388D01*
X23417Y-51500D01*
X23473Y-51725D01*
X23473Y-52007D01*
X23417Y-52231D01*
X23360Y-52344D01*
X23304Y-52400D01*
X23192Y-52456D01*
X23079Y-52456D01*
X22967Y-52400D01*
X22910Y-52344D01*
X22854Y-52231D01*
X22798Y-52007D01*
X22798Y-51725D01*
X22854Y-51500D01*
X22910Y-51388D01*
X22967Y-51332D01*
X23079Y-51275D01*
X24485Y-51669D02*
X24485Y-52456D01*
X24204Y-51219D02*
X23923Y-52063D01*
X24654Y-52063D01*
X25329Y-51275D02*
X25441Y-51275D01*
X25554Y-51332D01*
X25610Y-51388D01*
X25666Y-51500D01*
X25723Y-51725D01*
X25723Y-52007D01*
X25666Y-52231D01*
X25610Y-52344D01*
X25554Y-52400D01*
X25441Y-52456D01*
X25329Y-52456D01*
X25216Y-52400D01*
X25160Y-52344D01*
X25104Y-52231D01*
X25048Y-52007D01*
X25048Y-51725D01*
X25104Y-51500D01*
X25160Y-51388D01*
X25216Y-51332D01*
X25329Y-51275D01*
X26172Y-51275D02*
X26172Y-51500D01*
X26622Y-51275D02*
X26622Y-51500D01*
X28366Y-52906D02*
X28310Y-52850D01*
X28197Y-52681D01*
X28141Y-52569D01*
X28085Y-52400D01*
X28028Y-52119D01*
X28028Y-51894D01*
X28085Y-51613D01*
X28141Y-51444D01*
X28197Y-51332D01*
X28310Y-51163D01*
X28366Y-51107D01*
X29322Y-51275D02*
X29097Y-51275D01*
X28985Y-51332D01*
X28928Y-51388D01*
X28816Y-51557D01*
X28760Y-51782D01*
X28760Y-52231D01*
X28816Y-52344D01*
X28872Y-52400D01*
X28985Y-52456D01*
X29210Y-52456D01*
X29322Y-52400D01*
X29378Y-52344D01*
X29435Y-52231D01*
X29435Y-51950D01*
X29378Y-51838D01*
X29322Y-51782D01*
X29210Y-51725D01*
X28985Y-51725D01*
X28872Y-51782D01*
X28816Y-51838D01*
X28760Y-51950D01*
X30109Y-51782D02*
X29997Y-51725D01*
X29941Y-51669D01*
X29885Y-51557D01*
X29885Y-51500D01*
X29941Y-51388D01*
X29997Y-51332D01*
X30109Y-51275D01*
X30334Y-51275D01*
X30447Y-51332D01*
X30503Y-51388D01*
X30559Y-51500D01*
X30559Y-51557D01*
X30503Y-51669D01*
X30447Y-51725D01*
X30334Y-51782D01*
X30109Y-51782D01*
X29997Y-51838D01*
X29941Y-51894D01*
X29885Y-52007D01*
X29885Y-52231D01*
X29941Y-52344D01*
X29997Y-52400D01*
X30109Y-52456D01*
X30334Y-52456D01*
X30447Y-52400D01*
X30503Y-52344D01*
X30559Y-52231D01*
X30559Y-52007D01*
X30503Y-51894D01*
X30447Y-51838D01*
X30334Y-51782D01*
X31966Y-52456D02*
X31966Y-51275D01*
X32472Y-52456D02*
X32472Y-51838D01*
X32415Y-51725D01*
X32303Y-51669D01*
X32134Y-51669D01*
X32022Y-51725D01*
X31966Y-51782D01*
X33203Y-52456D02*
X33090Y-52400D01*
X33034Y-52344D01*
X32978Y-52231D01*
X32978Y-51894D01*
X33034Y-51782D01*
X33090Y-51725D01*
X33203Y-51669D01*
X33372Y-51669D01*
X33484Y-51725D01*
X33540Y-51782D01*
X33597Y-51894D01*
X33597Y-52231D01*
X33540Y-52344D01*
X33484Y-52400D01*
X33372Y-52456D01*
X33203Y-52456D01*
X34271Y-52456D02*
X34159Y-52400D01*
X34103Y-52288D01*
X34103Y-51275D01*
X35171Y-52400D02*
X35059Y-52456D01*
X34834Y-52456D01*
X34721Y-52400D01*
X34665Y-52288D01*
X34665Y-51838D01*
X34721Y-51725D01*
X34834Y-51669D01*
X35059Y-51669D01*
X35171Y-51725D01*
X35228Y-51838D01*
X35228Y-51950D01*
X34665Y-52063D01*
X35678Y-52400D02*
X35790Y-52456D01*
X36015Y-52456D01*
X36127Y-52400D01*
X36184Y-52288D01*
X36184Y-52231D01*
X36127Y-52119D01*
X36015Y-52063D01*
X35846Y-52063D01*
X35734Y-52007D01*
X35678Y-51894D01*
X35678Y-51838D01*
X35734Y-51725D01*
X35846Y-51669D01*
X36015Y-51669D01*
X36127Y-51725D01*
X37590Y-52007D02*
X38490Y-52007D01*
X38040Y-52456D02*
X38040Y-51557D01*
X40571Y-52456D02*
X39896Y-52456D01*
X40233Y-52456D02*
X40233Y-51275D01*
X40121Y-51444D01*
X40008Y-51557D01*
X39896Y-51613D01*
X41921Y-52400D02*
X42033Y-52456D01*
X42258Y-52456D01*
X42370Y-52400D01*
X42427Y-52288D01*
X42427Y-52231D01*
X42370Y-52119D01*
X42258Y-52063D01*
X42089Y-52063D01*
X41977Y-52007D01*
X41921Y-51894D01*
X41921Y-51838D01*
X41977Y-51725D01*
X42089Y-51669D01*
X42258Y-51669D01*
X42370Y-51725D01*
X43102Y-52456D02*
X42989Y-52400D01*
X42933Y-52288D01*
X42933Y-51275D01*
X43720Y-52456D02*
X43608Y-52400D01*
X43552Y-52344D01*
X43495Y-52231D01*
X43495Y-51894D01*
X43552Y-51782D01*
X43608Y-51725D01*
X43720Y-51669D01*
X43889Y-51669D01*
X44001Y-51725D01*
X44058Y-51782D01*
X44114Y-51894D01*
X44114Y-52231D01*
X44058Y-52344D01*
X44001Y-52400D01*
X43889Y-52456D01*
X43720Y-52456D01*
X44451Y-51669D02*
X44901Y-51669D01*
X44620Y-51275D02*
X44620Y-52288D01*
X44676Y-52400D01*
X44789Y-52456D01*
X44901Y-52456D01*
X45183Y-52906D02*
X45239Y-52850D01*
X45351Y-52681D01*
X45408Y-52569D01*
X45464Y-52400D01*
X45520Y-52119D01*
X45520Y-51894D01*
X45464Y-51613D01*
X45408Y-51444D01*
X45351Y-51332D01*
X45239Y-51163D01*
X45183Y-51107D01*
G54D11*
X9907Y-53644D02*
X9907Y-53319D01*
X9582Y-53319D01*
X9582Y-53644D01*
X9907Y-53644D01*
G54D12*
X11662Y-54016D02*
X10987Y-54016D01*
X11324Y-54016D02*
X11324Y-52834D01*
X11212Y-53003D01*
X11099Y-53116D01*
X10987Y-53172D01*
X12168Y-53903D02*
X12224Y-53959D01*
X12168Y-54016D01*
X12112Y-53959D01*
X12168Y-53903D01*
X12168Y-54016D01*
X13349Y-54016D02*
X12674Y-54016D01*
X13012Y-54016D02*
X13012Y-52834D01*
X12899Y-53003D01*
X12787Y-53116D01*
X12674Y-53172D01*
X13743Y-52834D02*
X14530Y-52834D01*
X14024Y-54016D01*
X14980Y-54016D02*
X14980Y-53228D01*
X14980Y-53341D02*
X15036Y-53284D01*
X15149Y-53228D01*
X15318Y-53228D01*
X15430Y-53284D01*
X15486Y-53397D01*
X15486Y-54016D01*
X15486Y-53397D02*
X15543Y-53284D01*
X15655Y-53228D01*
X15824Y-53228D01*
X15936Y-53284D01*
X15992Y-53397D01*
X15992Y-54016D01*
X16555Y-54016D02*
X16555Y-53228D01*
X16555Y-53341D02*
X16611Y-53284D01*
X16724Y-53228D01*
X16892Y-53228D01*
X17005Y-53284D01*
X17061Y-53397D01*
X17061Y-54016D01*
X17061Y-53397D02*
X17117Y-53284D01*
X17230Y-53228D01*
X17399Y-53228D01*
X17511Y-53284D01*
X17567Y-53397D01*
X17567Y-54016D01*
X19873Y-52778D02*
X18861Y-54297D01*
X21392Y-52834D02*
X21504Y-52834D01*
X21617Y-52891D01*
X21673Y-52947D01*
X21729Y-53059D01*
X21786Y-53284D01*
X21786Y-53566D01*
X21729Y-53791D01*
X21673Y-53903D01*
X21617Y-53959D01*
X21504Y-54016D01*
X21392Y-54016D01*
X21279Y-53959D01*
X21223Y-53903D01*
X21167Y-53791D01*
X21111Y-53566D01*
X21111Y-53284D01*
X21167Y-53059D01*
X21223Y-52947D01*
X21279Y-52891D01*
X21392Y-52834D01*
X22292Y-53903D02*
X22348Y-53959D01*
X22292Y-54016D01*
X22235Y-53959D01*
X22292Y-53903D01*
X22292Y-54016D01*
X23079Y-52834D02*
X23192Y-52834D01*
X23304Y-52891D01*
X23360Y-52947D01*
X23417Y-53059D01*
X23473Y-53284D01*
X23473Y-53566D01*
X23417Y-53791D01*
X23360Y-53903D01*
X23304Y-53959D01*
X23192Y-54016D01*
X23079Y-54016D01*
X22967Y-53959D01*
X22910Y-53903D01*
X22854Y-53791D01*
X22798Y-53566D01*
X22798Y-53284D01*
X22854Y-53059D01*
X22910Y-52947D01*
X22967Y-52891D01*
X23079Y-52834D01*
X24485Y-53228D02*
X24485Y-54016D01*
X24204Y-52778D02*
X23923Y-53622D01*
X24654Y-53622D01*
X25610Y-52834D02*
X25385Y-52834D01*
X25273Y-52891D01*
X25216Y-52947D01*
X25104Y-53116D01*
X25048Y-53341D01*
X25048Y-53791D01*
X25104Y-53903D01*
X25160Y-53959D01*
X25273Y-54016D01*
X25498Y-54016D01*
X25610Y-53959D01*
X25666Y-53903D01*
X25723Y-53791D01*
X25723Y-53509D01*
X25666Y-53397D01*
X25610Y-53341D01*
X25498Y-53284D01*
X25273Y-53284D01*
X25160Y-53341D01*
X25104Y-53397D01*
X25048Y-53509D01*
X26172Y-52834D02*
X26172Y-53059D01*
X26622Y-52834D02*
X26622Y-53059D01*
X28366Y-54465D02*
X28310Y-54409D01*
X28197Y-54240D01*
X28141Y-54128D01*
X28085Y-53959D01*
X28028Y-53678D01*
X28028Y-53453D01*
X28085Y-53172D01*
X28141Y-53003D01*
X28197Y-52891D01*
X28310Y-52722D01*
X28366Y-52666D01*
X29041Y-52834D02*
X29153Y-52834D01*
X29266Y-52891D01*
X29322Y-52947D01*
X29378Y-53059D01*
X29435Y-53284D01*
X29435Y-53566D01*
X29378Y-53791D01*
X29322Y-53903D01*
X29266Y-53959D01*
X29153Y-54016D01*
X29041Y-54016D01*
X28928Y-53959D01*
X28872Y-53903D01*
X28816Y-53791D01*
X28760Y-53566D01*
X28760Y-53284D01*
X28816Y-53059D01*
X28872Y-52947D01*
X28928Y-52891D01*
X29041Y-52834D01*
X30841Y-54016D02*
X30841Y-52834D01*
X31347Y-54016D02*
X31347Y-53397D01*
X31291Y-53284D01*
X31178Y-53228D01*
X31009Y-53228D01*
X30897Y-53284D01*
X30841Y-53341D01*
X32078Y-54016D02*
X31966Y-53959D01*
X31909Y-53903D01*
X31853Y-53791D01*
X31853Y-53453D01*
X31909Y-53341D01*
X31966Y-53284D01*
X32078Y-53228D01*
X32247Y-53228D01*
X32359Y-53284D01*
X32415Y-53341D01*
X32472Y-53453D01*
X32472Y-53791D01*
X32415Y-53903D01*
X32359Y-53959D01*
X32247Y-54016D01*
X32078Y-54016D01*
X33147Y-54016D02*
X33034Y-53959D01*
X32978Y-53847D01*
X32978Y-52834D01*
X34046Y-53959D02*
X33934Y-54016D01*
X33709Y-54016D01*
X33597Y-53959D01*
X33540Y-53847D01*
X33540Y-53397D01*
X33597Y-53284D01*
X33709Y-53228D01*
X33934Y-53228D01*
X34046Y-53284D01*
X34103Y-53397D01*
X34103Y-53509D01*
X33540Y-53622D01*
X34553Y-53959D02*
X34665Y-54016D01*
X34890Y-54016D01*
X35003Y-53959D01*
X35059Y-53847D01*
X35059Y-53791D01*
X35003Y-53678D01*
X34890Y-53622D01*
X34721Y-53622D01*
X34609Y-53566D01*
X34553Y-53453D01*
X34553Y-53397D01*
X34609Y-53284D01*
X34721Y-53228D01*
X34890Y-53228D01*
X35003Y-53284D01*
X36465Y-53566D02*
X37365Y-53566D01*
X36915Y-54016D02*
X36915Y-53116D01*
X38771Y-52947D02*
X38827Y-52891D01*
X38940Y-52834D01*
X39221Y-52834D01*
X39333Y-52891D01*
X39390Y-52947D01*
X39446Y-53059D01*
X39446Y-53172D01*
X39390Y-53341D01*
X38715Y-54016D01*
X39446Y-54016D01*
X40796Y-53959D02*
X40908Y-54016D01*
X41133Y-54016D01*
X41246Y-53959D01*
X41302Y-53847D01*
X41302Y-53791D01*
X41246Y-53678D01*
X41133Y-53622D01*
X40964Y-53622D01*
X40852Y-53566D01*
X40796Y-53453D01*
X40796Y-53397D01*
X40852Y-53284D01*
X40964Y-53228D01*
X41133Y-53228D01*
X41246Y-53284D01*
X41977Y-54016D02*
X41864Y-53959D01*
X41808Y-53847D01*
X41808Y-52834D01*
X42595Y-54016D02*
X42483Y-53959D01*
X42427Y-53903D01*
X42370Y-53791D01*
X42370Y-53453D01*
X42427Y-53341D01*
X42483Y-53284D01*
X42595Y-53228D01*
X42764Y-53228D01*
X42877Y-53284D01*
X42933Y-53341D01*
X42989Y-53453D01*
X42989Y-53791D01*
X42933Y-53903D01*
X42877Y-53959D01*
X42764Y-54016D01*
X42595Y-54016D01*
X43327Y-53228D02*
X43777Y-53228D01*
X43495Y-52834D02*
X43495Y-53847D01*
X43552Y-53959D01*
X43664Y-54016D01*
X43777Y-54016D01*
X44114Y-53959D02*
X44226Y-54016D01*
X44451Y-54016D01*
X44564Y-53959D01*
X44620Y-53847D01*
X44620Y-53791D01*
X44564Y-53678D01*
X44451Y-53622D01*
X44283Y-53622D01*
X44170Y-53566D01*
X44114Y-53453D01*
X44114Y-53397D01*
X44170Y-53284D01*
X44283Y-53228D01*
X44451Y-53228D01*
X44564Y-53284D01*
X45014Y-54465D02*
X45070Y-54409D01*
X45183Y-54240D01*
X45239Y-54128D01*
X45295Y-53959D01*
X45351Y-53678D01*
X45351Y-53453D01*
X45295Y-53172D01*
X45239Y-53003D01*
X45183Y-52891D01*
X45070Y-52722D01*
X45014Y-52666D01*
G54D11*
X9724Y-55290D02*
X9974Y-55040D01*
X9724Y-54790D01*
X9474Y-55040D01*
X9724Y-55290D01*
G54D12*
X11662Y-55575D02*
X10987Y-55575D01*
X11324Y-55575D02*
X11324Y-54393D01*
X11212Y-54562D01*
X11099Y-54675D01*
X10987Y-54731D01*
X12168Y-55462D02*
X12224Y-55518D01*
X12168Y-55575D01*
X12112Y-55518D01*
X12168Y-55462D01*
X12168Y-55575D01*
X12674Y-54506D02*
X12730Y-54450D01*
X12843Y-54393D01*
X13124Y-54393D01*
X13237Y-54450D01*
X13293Y-54506D01*
X13349Y-54618D01*
X13349Y-54731D01*
X13293Y-54900D01*
X12618Y-55575D01*
X13349Y-55575D01*
X13743Y-54393D02*
X14530Y-54393D01*
X14024Y-55575D01*
X14980Y-55575D02*
X14980Y-54787D01*
X14980Y-54900D02*
X15036Y-54843D01*
X15149Y-54787D01*
X15318Y-54787D01*
X15430Y-54843D01*
X15486Y-54956D01*
X15486Y-55575D01*
X15486Y-54956D02*
X15543Y-54843D01*
X15655Y-54787D01*
X15824Y-54787D01*
X15936Y-54843D01*
X15992Y-54956D01*
X15992Y-55575D01*
X16555Y-55575D02*
X16555Y-54787D01*
X16555Y-54900D02*
X16611Y-54843D01*
X16724Y-54787D01*
X16892Y-54787D01*
X17005Y-54843D01*
X17061Y-54956D01*
X17061Y-55575D01*
X17061Y-54956D02*
X17117Y-54843D01*
X17230Y-54787D01*
X17399Y-54787D01*
X17511Y-54843D01*
X17567Y-54956D01*
X17567Y-55575D01*
X19873Y-54337D02*
X18861Y-55856D01*
X21392Y-54393D02*
X21504Y-54393D01*
X21617Y-54450D01*
X21673Y-54506D01*
X21729Y-54618D01*
X21786Y-54843D01*
X21786Y-55125D01*
X21729Y-55350D01*
X21673Y-55462D01*
X21617Y-55518D01*
X21504Y-55575D01*
X21392Y-55575D01*
X21279Y-55518D01*
X21223Y-55462D01*
X21167Y-55350D01*
X21111Y-55125D01*
X21111Y-54843D01*
X21167Y-54618D01*
X21223Y-54506D01*
X21279Y-54450D01*
X21392Y-54393D01*
X22292Y-55462D02*
X22348Y-55518D01*
X22292Y-55575D01*
X22235Y-55518D01*
X22292Y-55462D01*
X22292Y-55575D01*
X23079Y-54393D02*
X23192Y-54393D01*
X23304Y-54450D01*
X23360Y-54506D01*
X23417Y-54618D01*
X23473Y-54843D01*
X23473Y-55125D01*
X23417Y-55350D01*
X23360Y-55462D01*
X23304Y-55518D01*
X23192Y-55575D01*
X23079Y-55575D01*
X22967Y-55518D01*
X22910Y-55462D01*
X22854Y-55350D01*
X22798Y-55125D01*
X22798Y-54843D01*
X22854Y-54618D01*
X22910Y-54506D01*
X22967Y-54450D01*
X23079Y-54393D01*
X24541Y-54393D02*
X23979Y-54393D01*
X23923Y-54956D01*
X23979Y-54900D01*
X24091Y-54843D01*
X24373Y-54843D01*
X24485Y-54900D01*
X24541Y-54956D01*
X24598Y-55068D01*
X24598Y-55350D01*
X24541Y-55462D01*
X24485Y-55518D01*
X24373Y-55575D01*
X24091Y-55575D01*
X23979Y-55518D01*
X23923Y-55462D01*
X25329Y-54393D02*
X25441Y-54393D01*
X25554Y-54450D01*
X25610Y-54506D01*
X25666Y-54618D01*
X25723Y-54843D01*
X25723Y-55125D01*
X25666Y-55350D01*
X25610Y-55462D01*
X25554Y-55518D01*
X25441Y-55575D01*
X25329Y-55575D01*
X25216Y-55518D01*
X25160Y-55462D01*
X25104Y-55350D01*
X25048Y-55125D01*
X25048Y-54843D01*
X25104Y-54618D01*
X25160Y-54506D01*
X25216Y-54450D01*
X25329Y-54393D01*
X26172Y-54393D02*
X26172Y-54618D01*
X26622Y-54393D02*
X26622Y-54618D01*
X28366Y-56025D02*
X28310Y-55968D01*
X28197Y-55800D01*
X28141Y-55687D01*
X28085Y-55518D01*
X28028Y-55237D01*
X28028Y-55012D01*
X28085Y-54731D01*
X28141Y-54562D01*
X28197Y-54450D01*
X28310Y-54281D01*
X28366Y-54225D01*
X28760Y-54506D02*
X28816Y-54450D01*
X28928Y-54393D01*
X29210Y-54393D01*
X29322Y-54450D01*
X29378Y-54506D01*
X29435Y-54618D01*
X29435Y-54731D01*
X29378Y-54900D01*
X28703Y-55575D01*
X29435Y-55575D01*
X30841Y-55575D02*
X30841Y-54393D01*
X31347Y-55575D02*
X31347Y-54956D01*
X31291Y-54843D01*
X31178Y-54787D01*
X31009Y-54787D01*
X30897Y-54843D01*
X30841Y-54900D01*
X32078Y-55575D02*
X31966Y-55518D01*
X31909Y-55462D01*
X31853Y-55350D01*
X31853Y-55012D01*
X31909Y-54900D01*
X31966Y-54843D01*
X32078Y-54787D01*
X32247Y-54787D01*
X32359Y-54843D01*
X32415Y-54900D01*
X32472Y-55012D01*
X32472Y-55350D01*
X32415Y-55462D01*
X32359Y-55518D01*
X32247Y-55575D01*
X32078Y-55575D01*
X33147Y-55575D02*
X33034Y-55518D01*
X32978Y-55406D01*
X32978Y-54393D01*
X34046Y-55518D02*
X33934Y-55575D01*
X33709Y-55575D01*
X33597Y-55518D01*
X33540Y-55406D01*
X33540Y-54956D01*
X33597Y-54843D01*
X33709Y-54787D01*
X33934Y-54787D01*
X34046Y-54843D01*
X34103Y-54956D01*
X34103Y-55068D01*
X33540Y-55181D01*
X34553Y-55518D02*
X34665Y-55575D01*
X34890Y-55575D01*
X35003Y-55518D01*
X35059Y-55406D01*
X35059Y-55350D01*
X35003Y-55237D01*
X34890Y-55181D01*
X34721Y-55181D01*
X34609Y-55125D01*
X34553Y-55012D01*
X34553Y-54956D01*
X34609Y-54843D01*
X34721Y-54787D01*
X34890Y-54787D01*
X35003Y-54843D01*
X35453Y-56025D02*
X35509Y-55968D01*
X35621Y-55800D01*
X35678Y-55687D01*
X35734Y-55518D01*
X35790Y-55237D01*
X35790Y-55012D01*
X35734Y-54731D01*
X35678Y-54562D01*
X35621Y-54450D01*
X35509Y-54281D01*
X35453Y-54225D01*
X8974Y-56099D02*
X9974Y-57099D01*
X9974Y-56099D02*
X8974Y-57099D01*
G54D11*
X9974Y-56599D02*
G75*
G03X9974Y-56599I-500J0D01*
G74*
G01*
G54D12*
X10987Y-56065D02*
X11043Y-56009D01*
X11156Y-55953D01*
X11437Y-55953D01*
X11549Y-56009D01*
X11606Y-56065D01*
X11662Y-56177D01*
X11662Y-56290D01*
X11606Y-56459D01*
X10931Y-57134D01*
X11662Y-57134D01*
X12168Y-57021D02*
X12224Y-57077D01*
X12168Y-57134D01*
X12112Y-57077D01*
X12168Y-57021D01*
X12168Y-57134D01*
X13293Y-55953D02*
X12730Y-55953D01*
X12674Y-56515D01*
X12730Y-56459D01*
X12843Y-56402D01*
X13124Y-56402D01*
X13237Y-56459D01*
X13293Y-56515D01*
X13349Y-56627D01*
X13349Y-56909D01*
X13293Y-57021D01*
X13237Y-57077D01*
X13124Y-57134D01*
X12843Y-57134D01*
X12730Y-57077D01*
X12674Y-57021D01*
X14361Y-56346D02*
X14361Y-57134D01*
X14080Y-55896D02*
X13799Y-56740D01*
X14530Y-56740D01*
X14980Y-57134D02*
X14980Y-56346D01*
X14980Y-56459D02*
X15036Y-56402D01*
X15149Y-56346D01*
X15318Y-56346D01*
X15430Y-56402D01*
X15486Y-56515D01*
X15486Y-57134D01*
X15486Y-56515D02*
X15543Y-56402D01*
X15655Y-56346D01*
X15824Y-56346D01*
X15936Y-56402D01*
X15992Y-56515D01*
X15992Y-57134D01*
X16555Y-57134D02*
X16555Y-56346D01*
X16555Y-56459D02*
X16611Y-56402D01*
X16724Y-56346D01*
X16892Y-56346D01*
X17005Y-56402D01*
X17061Y-56515D01*
X17061Y-57134D01*
X17061Y-56515D02*
X17117Y-56402D01*
X17230Y-56346D01*
X17399Y-56346D01*
X17511Y-56402D01*
X17567Y-56515D01*
X17567Y-57134D01*
X19873Y-55896D02*
X18861Y-57415D01*
X21392Y-55953D02*
X21504Y-55953D01*
X21617Y-56009D01*
X21673Y-56065D01*
X21729Y-56177D01*
X21786Y-56402D01*
X21786Y-56684D01*
X21729Y-56909D01*
X21673Y-57021D01*
X21617Y-57077D01*
X21504Y-57134D01*
X21392Y-57134D01*
X21279Y-57077D01*
X21223Y-57021D01*
X21167Y-56909D01*
X21111Y-56684D01*
X21111Y-56402D01*
X21167Y-56177D01*
X21223Y-56065D01*
X21279Y-56009D01*
X21392Y-55953D01*
X22292Y-57021D02*
X22348Y-57077D01*
X22292Y-57134D01*
X22235Y-57077D01*
X22292Y-57021D01*
X22292Y-57134D01*
X23473Y-57134D02*
X22798Y-57134D01*
X23135Y-57134D02*
X23135Y-55953D01*
X23023Y-56121D01*
X22910Y-56234D01*
X22798Y-56290D01*
X24204Y-55953D02*
X24316Y-55953D01*
X24429Y-56009D01*
X24485Y-56065D01*
X24541Y-56177D01*
X24598Y-56402D01*
X24598Y-56684D01*
X24541Y-56909D01*
X24485Y-57021D01*
X24429Y-57077D01*
X24316Y-57134D01*
X24204Y-57134D01*
X24091Y-57077D01*
X24035Y-57021D01*
X23979Y-56909D01*
X23923Y-56684D01*
X23923Y-56402D01*
X23979Y-56177D01*
X24035Y-56065D01*
X24091Y-56009D01*
X24204Y-55953D01*
X25329Y-55953D02*
X25441Y-55953D01*
X25554Y-56009D01*
X25610Y-56065D01*
X25666Y-56177D01*
X25723Y-56402D01*
X25723Y-56684D01*
X25666Y-56909D01*
X25610Y-57021D01*
X25554Y-57077D01*
X25441Y-57134D01*
X25329Y-57134D01*
X25216Y-57077D01*
X25160Y-57021D01*
X25104Y-56909D01*
X25048Y-56684D01*
X25048Y-56402D01*
X25104Y-56177D01*
X25160Y-56065D01*
X25216Y-56009D01*
X25329Y-55953D01*
X26172Y-55953D02*
X26172Y-56177D01*
X26622Y-55953D02*
X26622Y-56177D01*
X28366Y-57584D02*
X28310Y-57527D01*
X28197Y-57359D01*
X28141Y-57246D01*
X28085Y-57077D01*
X28028Y-56796D01*
X28028Y-56571D01*
X28085Y-56290D01*
X28141Y-56121D01*
X28197Y-56009D01*
X28310Y-55840D01*
X28366Y-55784D01*
X29041Y-55953D02*
X29153Y-55953D01*
X29266Y-56009D01*
X29322Y-56065D01*
X29378Y-56177D01*
X29435Y-56402D01*
X29435Y-56684D01*
X29378Y-56909D01*
X29322Y-57021D01*
X29266Y-57077D01*
X29153Y-57134D01*
X29041Y-57134D01*
X28928Y-57077D01*
X28872Y-57021D01*
X28816Y-56909D01*
X28760Y-56684D01*
X28760Y-56402D01*
X28816Y-56177D01*
X28872Y-56065D01*
X28928Y-56009D01*
X29041Y-55953D01*
X30841Y-57134D02*
X30841Y-55953D01*
X31347Y-57134D02*
X31347Y-56515D01*
X31291Y-56402D01*
X31178Y-56346D01*
X31009Y-56346D01*
X30897Y-56402D01*
X30841Y-56459D01*
X32078Y-57134D02*
X31966Y-57077D01*
X31909Y-57021D01*
X31853Y-56909D01*
X31853Y-56571D01*
X31909Y-56459D01*
X31966Y-56402D01*
X32078Y-56346D01*
X32247Y-56346D01*
X32359Y-56402D01*
X32415Y-56459D01*
X32472Y-56571D01*
X32472Y-56909D01*
X32415Y-57021D01*
X32359Y-57077D01*
X32247Y-57134D01*
X32078Y-57134D01*
X33147Y-57134D02*
X33034Y-57077D01*
X32978Y-56965D01*
X32978Y-55953D01*
X34046Y-57077D02*
X33934Y-57134D01*
X33709Y-57134D01*
X33597Y-57077D01*
X33540Y-56965D01*
X33540Y-56515D01*
X33597Y-56402D01*
X33709Y-56346D01*
X33934Y-56346D01*
X34046Y-56402D01*
X34103Y-56515D01*
X34103Y-56627D01*
X33540Y-56740D01*
X34553Y-57077D02*
X34665Y-57134D01*
X34890Y-57134D01*
X35003Y-57077D01*
X35059Y-56965D01*
X35059Y-56909D01*
X35003Y-56796D01*
X34890Y-56740D01*
X34721Y-56740D01*
X34609Y-56684D01*
X34553Y-56571D01*
X34553Y-56515D01*
X34609Y-56402D01*
X34721Y-56346D01*
X34890Y-56346D01*
X35003Y-56402D01*
X36465Y-56684D02*
X37365Y-56684D01*
X36915Y-57134D02*
X36915Y-56234D01*
X38771Y-56065D02*
X38827Y-56009D01*
X38940Y-55953D01*
X39221Y-55953D01*
X39333Y-56009D01*
X39390Y-56065D01*
X39446Y-56177D01*
X39446Y-56290D01*
X39390Y-56459D01*
X38715Y-57134D01*
X39446Y-57134D01*
X40796Y-57077D02*
X40908Y-57134D01*
X41133Y-57134D01*
X41246Y-57077D01*
X41302Y-56965D01*
X41302Y-56909D01*
X41246Y-56796D01*
X41133Y-56740D01*
X40964Y-56740D01*
X40852Y-56684D01*
X40796Y-56571D01*
X40796Y-56515D01*
X40852Y-56402D01*
X40964Y-56346D01*
X41133Y-56346D01*
X41246Y-56402D01*
X41977Y-57134D02*
X41864Y-57077D01*
X41808Y-56965D01*
X41808Y-55953D01*
X42595Y-57134D02*
X42483Y-57077D01*
X42427Y-57021D01*
X42370Y-56909D01*
X42370Y-56571D01*
X42427Y-56459D01*
X42483Y-56402D01*
X42595Y-56346D01*
X42764Y-56346D01*
X42877Y-56402D01*
X42933Y-56459D01*
X42989Y-56571D01*
X42989Y-56909D01*
X42933Y-57021D01*
X42877Y-57077D01*
X42764Y-57134D01*
X42595Y-57134D01*
X43327Y-56346D02*
X43777Y-56346D01*
X43495Y-55953D02*
X43495Y-56965D01*
X43552Y-57077D01*
X43664Y-57134D01*
X43777Y-57134D01*
X44114Y-57077D02*
X44226Y-57134D01*
X44451Y-57134D01*
X44564Y-57077D01*
X44620Y-56965D01*
X44620Y-56909D01*
X44564Y-56796D01*
X44451Y-56740D01*
X44283Y-56740D01*
X44170Y-56684D01*
X44114Y-56571D01*
X44114Y-56515D01*
X44170Y-56402D01*
X44283Y-56346D01*
X44451Y-56346D01*
X44564Y-56402D01*
X45014Y-57584D02*
X45070Y-57527D01*
X45183Y-57359D01*
X45239Y-57246D01*
X45295Y-57077D01*
X45351Y-56796D01*
X45351Y-56571D01*
X45295Y-56290D01*
X45239Y-56121D01*
X45183Y-56009D01*
X45070Y-55840D01*
X45014Y-55784D01*
X8725Y-57533D02*
X9974Y-58783D01*
X9974Y-57533D02*
X8725Y-58783D01*
X9350Y-57533D02*
X9350Y-58783D01*
X8725Y-58158D02*
X9974Y-58158D01*
X10931Y-57512D02*
X11662Y-57512D01*
X11268Y-57962D01*
X11437Y-57962D01*
X11549Y-58018D01*
X11606Y-58074D01*
X11662Y-58186D01*
X11662Y-58468D01*
X11606Y-58580D01*
X11549Y-58636D01*
X11437Y-58693D01*
X11099Y-58693D01*
X10987Y-58636D01*
X10931Y-58580D01*
X12168Y-58580D02*
X12224Y-58636D01*
X12168Y-58693D01*
X12112Y-58636D01*
X12168Y-58580D01*
X12168Y-58693D01*
X13349Y-58693D02*
X12674Y-58693D01*
X13012Y-58693D02*
X13012Y-57512D01*
X12899Y-57680D01*
X12787Y-57793D01*
X12674Y-57849D01*
X13743Y-57512D02*
X14530Y-57512D01*
X14024Y-58693D01*
X14980Y-58693D02*
X14980Y-57905D01*
X14980Y-58018D02*
X15036Y-57962D01*
X15149Y-57905D01*
X15318Y-57905D01*
X15430Y-57962D01*
X15486Y-58074D01*
X15486Y-58693D01*
X15486Y-58074D02*
X15543Y-57962D01*
X15655Y-57905D01*
X15824Y-57905D01*
X15936Y-57962D01*
X15992Y-58074D01*
X15992Y-58693D01*
X16555Y-58693D02*
X16555Y-57905D01*
X16555Y-58018D02*
X16611Y-57962D01*
X16724Y-57905D01*
X16892Y-57905D01*
X17005Y-57962D01*
X17061Y-58074D01*
X17061Y-58693D01*
X17061Y-58074D02*
X17117Y-57962D01*
X17230Y-57905D01*
X17399Y-57905D01*
X17511Y-57962D01*
X17567Y-58074D01*
X17567Y-58693D01*
X19873Y-57455D02*
X18861Y-58974D01*
X21392Y-57512D02*
X21504Y-57512D01*
X21617Y-57568D01*
X21673Y-57624D01*
X21729Y-57737D01*
X21786Y-57962D01*
X21786Y-58243D01*
X21729Y-58468D01*
X21673Y-58580D01*
X21617Y-58636D01*
X21504Y-58693D01*
X21392Y-58693D01*
X21279Y-58636D01*
X21223Y-58580D01*
X21167Y-58468D01*
X21111Y-58243D01*
X21111Y-57962D01*
X21167Y-57737D01*
X21223Y-57624D01*
X21279Y-57568D01*
X21392Y-57512D01*
X22292Y-58580D02*
X22348Y-58636D01*
X22292Y-58693D01*
X22235Y-58636D01*
X22292Y-58580D01*
X22292Y-58693D01*
X23473Y-58693D02*
X22798Y-58693D01*
X23135Y-58693D02*
X23135Y-57512D01*
X23023Y-57680D01*
X22910Y-57793D01*
X22798Y-57849D01*
X23923Y-57624D02*
X23979Y-57568D01*
X24091Y-57512D01*
X24373Y-57512D01*
X24485Y-57568D01*
X24541Y-57624D01*
X24598Y-57737D01*
X24598Y-57849D01*
X24541Y-58018D01*
X23867Y-58693D01*
X24598Y-58693D01*
X25666Y-57512D02*
X25104Y-57512D01*
X25048Y-58074D01*
X25104Y-58018D01*
X25216Y-57962D01*
X25498Y-57962D01*
X25610Y-58018D01*
X25666Y-58074D01*
X25723Y-58186D01*
X25723Y-58468D01*
X25666Y-58580D01*
X25610Y-58636D01*
X25498Y-58693D01*
X25216Y-58693D01*
X25104Y-58636D01*
X25048Y-58580D01*
X26172Y-57512D02*
X26172Y-57737D01*
X26622Y-57512D02*
X26622Y-57737D01*
X28366Y-59143D02*
X28310Y-59086D01*
X28197Y-58918D01*
X28141Y-58805D01*
X28085Y-58636D01*
X28028Y-58355D01*
X28028Y-58130D01*
X28085Y-57849D01*
X28141Y-57680D01*
X28197Y-57568D01*
X28310Y-57399D01*
X28366Y-57343D01*
X29378Y-57512D02*
X28816Y-57512D01*
X28760Y-58074D01*
X28816Y-58018D01*
X28928Y-57962D01*
X29210Y-57962D01*
X29322Y-58018D01*
X29378Y-58074D01*
X29435Y-58186D01*
X29435Y-58468D01*
X29378Y-58580D01*
X29322Y-58636D01*
X29210Y-58693D01*
X28928Y-58693D01*
X28816Y-58636D01*
X28760Y-58580D01*
X30841Y-58693D02*
X30841Y-57512D01*
X31347Y-58693D02*
X31347Y-58074D01*
X31291Y-57962D01*
X31178Y-57905D01*
X31009Y-57905D01*
X30897Y-57962D01*
X30841Y-58018D01*
X32078Y-58693D02*
X31966Y-58636D01*
X31909Y-58580D01*
X31853Y-58468D01*
X31853Y-58130D01*
X31909Y-58018D01*
X31966Y-57962D01*
X32078Y-57905D01*
X32247Y-57905D01*
X32359Y-57962D01*
X32415Y-58018D01*
X32472Y-58130D01*
X32472Y-58468D01*
X32415Y-58580D01*
X32359Y-58636D01*
X32247Y-58693D01*
X32078Y-58693D01*
X33147Y-58693D02*
X33034Y-58636D01*
X32978Y-58524D01*
X32978Y-57512D01*
X34046Y-58636D02*
X33934Y-58693D01*
X33709Y-58693D01*
X33597Y-58636D01*
X33540Y-58524D01*
X33540Y-58074D01*
X33597Y-57962D01*
X33709Y-57905D01*
X33934Y-57905D01*
X34046Y-57962D01*
X34103Y-58074D01*
X34103Y-58186D01*
X33540Y-58299D01*
X34553Y-58636D02*
X34665Y-58693D01*
X34890Y-58693D01*
X35003Y-58636D01*
X35059Y-58524D01*
X35059Y-58468D01*
X35003Y-58355D01*
X34890Y-58299D01*
X34721Y-58299D01*
X34609Y-58243D01*
X34553Y-58130D01*
X34553Y-58074D01*
X34609Y-57962D01*
X34721Y-57905D01*
X34890Y-57905D01*
X35003Y-57962D01*
X35453Y-59143D02*
X35509Y-59086D01*
X35621Y-58918D01*
X35678Y-58805D01*
X35734Y-58636D01*
X35790Y-58355D01*
X35790Y-58130D01*
X35734Y-57849D01*
X35678Y-57680D01*
X35621Y-57568D01*
X35509Y-57399D01*
X35453Y-57343D01*
M02*
