<?xml version="1.0" encoding="UTF-8" standalone="no"?>
<!-- Created with Inkscape (http://www.inkscape.org/) -->

<svg
   xmlns:dc="http://purl.org/dc/elements/1.1/"
   xmlns:cc="http://creativecommons.org/ns#"
   xmlns:rdf="http://www.w3.org/1999/02/22-rdf-syntax-ns#"
   xmlns:svg="http://www.w3.org/2000/svg"
   xmlns="http://www.w3.org/2000/svg"
   xmlns:sodipodi="http://sodipodi.sourceforge.net/DTD/sodipodi-0.dtd"
   xmlns:inkscape="http://www.inkscape.org/namespaces/inkscape"
   width="305"
   height="245"
   id="svg3276"
   version="1.1"
   inkscape:version="0.48.0 r9654"
   sodipodi:docname="enter.svg">
  <defs
     id="defs3278" />
  <sodipodi:namedview
     id="base"
     pagecolor="#ffffff"
     bordercolor="#666666"
     borderopacity="1.0"
     inkscape:pageopacity="0.0"
     inkscape:pageshadow="2"
     inkscape:zoom="0.35"
     inkscape:cx="375"
     inkscape:cy="520"
     inkscape:document-units="px"
     inkscape:current-layer="layer1"
     showgrid="false"
     inkscape:window-width="1680"
     inkscape:window-height="1024"
     inkscape:window-x="-4"
     inkscape:window-y="-4"
     inkscape:window-maximized="1" />
  <metadata
     id="metadata3281">
    <rdf:RDF>
      <cc:Work
         rdf:about="">
        <dc:format>image/svg+xml</dc:format>
        <dc:type
           rdf:resource="http://purl.org/dc/dcmitype/StillImage" />
        <dc:title />
      </cc:Work>
    </rdf:RDF>
  </metadata>
  <g
     inkscape:label="Layer 1"
     inkscape:groupmode="layer"
     id="layer1"
     transform="translate(0,-807.36218)">
    <path
       style="fill:#000000;fill-opacity:1;stroke-width:1;stroke-miterlimit:4;stroke-dasharray:1, 1;stroke-dashoffset:10"
       d="m 230.11989,809.82734 c -12.98015,-1.22614 -25.92153,4.7887 -33.10843,15.71669 -9.15103,12.23134 -5.75374,28.41151 -6.69789,42.61962 2.75442,9.04683 -4.32609,8.25872 -11.11168,7.76554 -15.07882,0.002 -30.15898,-0.0209 -45.23589,0.25254 0.65745,-14.66745 3.86346,-29.15358 6.16276,-43.58924 2.75418,-9.28407 -5.6785,-19.83916 -15.42131,-16.77131 -12.96015,6.14268 -21.70223,18.33858 -32.468999,27.502 -26.87887,26.25748 -54.45032,51.88069 -80.31151,79.13617 -6.0327196,5.93843 -7.4945296,15.50984 -0.97858,21.87611 32.18367,34.0496 66.1179,66.88054 100.510169,98.64774 6.19087,7.1745 18.72922,9.4116 24.71717,0.6945 6.89277,-10.0932 0.15249,-22.1999 -0.1849,-33.1304 -0.7514,-6.6176 -1.53782,-13.33657 -2.0248,-19.96579 43.34872,0.0328 86.72326,1.48393 130.05714,0.53664 16.67487,-1.3615 32.15409,-15.58477 31.58879,-32.92326 0.69186,-37.6323 0.79918,-75.31692 -0.0177,-112.94734 0.1038,-10.53499 -3.16383,-21.68058 -12.47289,-27.68623 -12.97846,-10.74722 -30.97999,-6.91601 -46.46701,-7.79712 -2.17825,-0.004 -4.3563,0.0457 -6.53443,0.0631 z"
       id="path3263"
       inkscape:connector-curvature="0" />
    <path
       style="fill:#ffffff;fill-opacity:1;stroke-width:1;stroke-miterlimit:4;stroke-dasharray:1, 1;stroke-dashoffset:10"
       d="M 234.64286,16.232143 C 219.54664,14.642364 203.65797,24.710963 205,41.410714 203.97967,56.059563 208.6063,74.060806 192.14286,81.5 c -21.42309,-1.96722 -44.4628,3.933046 -65,-3.392857 C 112.1493,66.085231 126.92302,45.341494 124.55357,29.625 122.30709,23.054385 106.90783,44.775346 100.33406,48.46234 74.392686,74.106683 45.488577,98.446871 22.946429,126.58929 c 31.526045,35.50165 65.949168,68.79451 101.696431,100 2.04613,-19.43228 -15.00498,-45.2013 6.96428,-57.23215 46.25175,-1.52013 93.27773,3.10813 139.10715,-2.67857 17.25037,-9.63844 8.8415,-34.20962 11.69642,-50.08928 -1.53917,-30.518779 4.00966,-63.386824 -5.71428,-92.321433 -9.07805,-11.376952 -29.23236,-6.416699 -42.05357,-8.035714 z"
       id="path3088"
       inkscape:connector-curvature="0"
       transform="translate(0,807.36218)" />
  </g>
</svg>
