M48
INCH,TZ
T1C0.025
T2C0.032
T3C0.035
T4C0.040
T5C0.050
T6C0.060
T7C0.120
%
G90
G05
T1
X13275Y-18075
X13275Y-19000
X13575Y-14325
X13950Y-20750
X14600Y-14775
X15600Y-15150
X17600Y-18175
X24100Y-18175
X27100Y-17825
T2
X17600Y-15050
X18600Y-15050
X19600Y-15050
X30225Y-17600
X31225Y-17600
X44825Y-11700
T3
X15525Y-11225
X15525Y-12225
X15525Y-13225
X16525Y-11225
X16525Y-12225
X16525Y-13225
X16750Y-22800
X16750Y-23800
X17550Y-13275
X18250Y-20800
X18250Y-23800
X19350Y-21050
X19350Y-23050
X19550Y-13275
X20450Y-20800
X20450Y-23800
X21100Y-12750
X21100Y-15750
X21375Y-20800
X21375Y-23800
X22350Y-20800
X22350Y-23800
X23425Y-21050
X23425Y-23050
X23600Y-15225
X24450Y-20800
X24450Y-23800
X25350Y-20800
X25350Y-23800
X26250Y-20800
X26250Y-23800
X26600Y-15225
X27350Y-21050
X27350Y-23050
X29000Y-15850
X29000Y-16850
X30175Y-19350
X30175Y-21350
X31350Y-19350
X31350Y-21350
X31850Y-11425
X33850Y-11425
T4
X10700Y-12050
X10700Y-13050
X10700Y-14050
X10700Y-15050
X10700Y-16050
X10700Y-17050
X10700Y-18050
X10700Y-19050
X10700Y-20050
X10700Y-21050
X10700Y-22050
X10700Y-23050
X11700Y-11050
X11700Y-12050
X11700Y-13050
X11700Y-14050
X11700Y-15050
X11700Y-16050
X11700Y-17050
X11700Y-18050
X11700Y-19050
X11700Y-20050
X11700Y-21050
X11700Y-22050
X11700Y-23050
X11700Y-24050
X13450Y-11225
X13450Y-12225
X13450Y-13225
X13450Y-21850
X13450Y-22850
X13450Y-23850
X14100Y-16650
X14100Y-19650
X14450Y-11225
X14450Y-12225
X14450Y-13225
X14450Y-21850
X14450Y-22850
X14450Y-23850
X15100Y-16650
X15100Y-19650
X16100Y-16650
X16100Y-19650
X17100Y-16650
X17100Y-19650
X17550Y-11800
X18100Y-16650
X18100Y-19650
X18550Y-11800
X19100Y-16650
X19100Y-19650
X19550Y-11800
X20100Y-16650
X20100Y-19650
X20550Y-11800
X21100Y-16650
X21100Y-19650
X21550Y-11800
X22100Y-16650
X22100Y-19650
X22350Y-13350
X22350Y-14350
X22350Y-15350
X22550Y-11800
X23100Y-16650
X23100Y-19650
X24100Y-13950
X24100Y-16650
X24100Y-19650
X24125Y-11400
X24500Y-12900
X25100Y-16650
X25100Y-19650
X25500Y-12900
X25850Y-13950
X25875Y-11400
X26100Y-16650
X26100Y-19650
X27100Y-16650
X27100Y-19650
X27450Y-11700
X27450Y-12700
X27450Y-13700
X27450Y-14700
X28775Y-18475
X28775Y-19475
X28775Y-20475
X28775Y-21475
X29125Y-23250
X30125Y-23250
X30450Y-11700
X30450Y-12700
X30450Y-13700
X30450Y-14700
X31125Y-23250
X33075Y-23250
X34075Y-23250
X43775Y-11700
X43775Y-12700
X43775Y-13700
X43775Y-14700
X43775Y-15700
X43775Y-16700
X43775Y-17700
X43775Y-18700
X43775Y-19700
X43775Y-20700
X43775Y-21700
X43775Y-22700
X43775Y-23700
X43775Y-24700
X45525Y-15700
X45525Y-16700
X45525Y-17700
X45525Y-18700
X45525Y-19700
X45525Y-20700
X46750Y-17000
X46750Y-18000
X46750Y-19000
X46750Y-20000
X46750Y-21000
X46750Y-22000
X46750Y-23000
X46750Y-24000
X49750Y-17000
X49750Y-18000
X49750Y-19000
X49750Y-20000
X49750Y-21000
X49750Y-22000
X49750Y-23000
X49750Y-24000
X51525Y-15700
X51525Y-16700
X51525Y-17700
X51525Y-18700
X51525Y-19700
X51525Y-20700
T5
X23625Y-12400
X26375Y-12400
T6
X34250Y-13350
X34250Y-15350
X34250Y-17350
X34250Y-19350
X34250Y-21350
T7
X35825Y-11175
X35825Y-23525
X43875Y-9275
X43875Y-27125
T0
M30
