G04 (created by PCBNEW (2011-12-28 BZR 3254)-stable) date 6/11/2012 1:16:03 PM*
G01*
G70*
G90*
%MOIN*%
G04 Gerber Fmt 3.4, Leading zero omitted, Abs format*
%FSLAX34Y34*%
G04 APERTURE LIST*
%ADD10C,0.001000*%
%ADD11C,0.015000*%
%ADD12C,0.008000*%
G04 APERTURE END LIST*
G54D10*
G54D11*
X38000Y-10000D02*
X46000Y-10000D01*
X38000Y-25000D02*
X38000Y-10000D01*
X46000Y-25000D02*
X38000Y-25000D01*
X46000Y-10000D02*
X46000Y-25000D01*
X10000Y-25000D02*
X10000Y-10000D01*
X37000Y-25000D02*
X10000Y-25000D01*
X37000Y-10000D02*
X37000Y-25000D01*
X10000Y-10000D02*
X37000Y-10000D01*
G54D10*
X13150Y-17950D02*
X13400Y-18200D01*
X13400Y-17950D02*
X13150Y-18200D01*
X13150Y-18875D02*
X13400Y-19125D01*
X13400Y-18875D02*
X13150Y-19125D01*
X13450Y-14200D02*
X13700Y-14450D01*
X13700Y-14200D02*
X13450Y-14450D01*
X13825Y-20625D02*
X14075Y-20875D01*
X14075Y-20625D02*
X13825Y-20875D01*
X14475Y-14650D02*
X14725Y-14900D01*
X14725Y-14650D02*
X14475Y-14900D01*
X15475Y-15025D02*
X15725Y-15275D01*
X15725Y-15025D02*
X15475Y-15275D01*
X17475Y-18050D02*
X17725Y-18300D01*
X17725Y-18050D02*
X17475Y-18300D01*
X23975Y-18050D02*
X24225Y-18300D01*
X24225Y-18050D02*
X23975Y-18300D01*
X26975Y-17700D02*
X27225Y-17950D01*
X27225Y-17700D02*
X26975Y-17950D01*
X39675Y-21100D02*
X39925Y-21350D01*
X39925Y-21100D02*
X39675Y-21350D01*
X40625Y-21100D02*
X40875Y-21350D01*
X40875Y-21100D02*
X40625Y-21350D01*
X17760Y-15050D02*
X17756Y-15081D01*
X17747Y-15110D01*
X17733Y-15138D01*
X17713Y-15162D01*
X17689Y-15182D01*
X17662Y-15197D01*
X17632Y-15206D01*
X17601Y-15209D01*
X17571Y-15207D01*
X17541Y-15198D01*
X17513Y-15183D01*
X17489Y-15164D01*
X17468Y-15140D01*
X17453Y-15113D01*
X17444Y-15083D01*
X17441Y-15052D01*
X17443Y-15022D01*
X17452Y-14992D01*
X17466Y-14964D01*
X17485Y-14939D01*
X17509Y-14919D01*
X17536Y-14904D01*
X17566Y-14894D01*
X17597Y-14891D01*
X17627Y-14893D01*
X17657Y-14901D01*
X17685Y-14915D01*
X17710Y-14935D01*
X17730Y-14958D01*
X17746Y-14985D01*
X17756Y-15015D01*
X17759Y-15046D01*
X17760Y-15050D01*
X18760Y-15050D02*
X18756Y-15081D01*
X18747Y-15110D01*
X18733Y-15138D01*
X18713Y-15162D01*
X18689Y-15182D01*
X18662Y-15197D01*
X18632Y-15206D01*
X18601Y-15209D01*
X18571Y-15207D01*
X18541Y-15198D01*
X18513Y-15183D01*
X18489Y-15164D01*
X18468Y-15140D01*
X18453Y-15113D01*
X18444Y-15083D01*
X18441Y-15052D01*
X18443Y-15022D01*
X18452Y-14992D01*
X18466Y-14964D01*
X18485Y-14939D01*
X18509Y-14919D01*
X18536Y-14904D01*
X18566Y-14894D01*
X18597Y-14891D01*
X18627Y-14893D01*
X18657Y-14901D01*
X18685Y-14915D01*
X18710Y-14935D01*
X18730Y-14958D01*
X18746Y-14985D01*
X18756Y-15015D01*
X18759Y-15046D01*
X18760Y-15050D01*
X19760Y-15050D02*
X19756Y-15081D01*
X19747Y-15110D01*
X19733Y-15138D01*
X19713Y-15162D01*
X19689Y-15182D01*
X19662Y-15197D01*
X19632Y-15206D01*
X19601Y-15209D01*
X19571Y-15207D01*
X19541Y-15198D01*
X19513Y-15183D01*
X19489Y-15164D01*
X19468Y-15140D01*
X19453Y-15113D01*
X19444Y-15083D01*
X19441Y-15052D01*
X19443Y-15022D01*
X19452Y-14992D01*
X19466Y-14964D01*
X19485Y-14939D01*
X19509Y-14919D01*
X19536Y-14904D01*
X19566Y-14894D01*
X19597Y-14891D01*
X19627Y-14893D01*
X19657Y-14901D01*
X19685Y-14915D01*
X19710Y-14935D01*
X19730Y-14958D01*
X19746Y-14985D01*
X19756Y-15015D01*
X19759Y-15046D01*
X19760Y-15050D01*
X30385Y-17600D02*
X30381Y-17631D01*
X30372Y-17660D01*
X30358Y-17688D01*
X30338Y-17712D01*
X30314Y-17732D01*
X30287Y-17747D01*
X30257Y-17756D01*
X30226Y-17759D01*
X30196Y-17757D01*
X30166Y-17748D01*
X30138Y-17733D01*
X30114Y-17714D01*
X30093Y-17690D01*
X30078Y-17663D01*
X30069Y-17633D01*
X30066Y-17602D01*
X30068Y-17572D01*
X30077Y-17542D01*
X30091Y-17514D01*
X30110Y-17489D01*
X30134Y-17469D01*
X30161Y-17454D01*
X30191Y-17444D01*
X30222Y-17441D01*
X30252Y-17443D01*
X30282Y-17451D01*
X30310Y-17465D01*
X30335Y-17485D01*
X30355Y-17508D01*
X30371Y-17535D01*
X30381Y-17565D01*
X30384Y-17596D01*
X30385Y-17600D01*
X31385Y-17600D02*
X31381Y-17631D01*
X31372Y-17660D01*
X31358Y-17688D01*
X31338Y-17712D01*
X31314Y-17732D01*
X31287Y-17747D01*
X31257Y-17756D01*
X31226Y-17759D01*
X31196Y-17757D01*
X31166Y-17748D01*
X31138Y-17733D01*
X31114Y-17714D01*
X31093Y-17690D01*
X31078Y-17663D01*
X31069Y-17633D01*
X31066Y-17602D01*
X31068Y-17572D01*
X31077Y-17542D01*
X31091Y-17514D01*
X31110Y-17489D01*
X31134Y-17469D01*
X31161Y-17454D01*
X31191Y-17444D01*
X31222Y-17441D01*
X31252Y-17443D01*
X31282Y-17451D01*
X31310Y-17465D01*
X31335Y-17485D01*
X31355Y-17508D01*
X31371Y-17535D01*
X31381Y-17565D01*
X31384Y-17596D01*
X31385Y-17600D01*
X15525Y-11050D02*
X15525Y-11400D01*
X15700Y-11225D02*
X15350Y-11225D01*
X15525Y-12050D02*
X15525Y-12400D01*
X15700Y-12225D02*
X15350Y-12225D01*
X15525Y-13050D02*
X15525Y-13400D01*
X15700Y-13225D02*
X15350Y-13225D01*
X16525Y-11050D02*
X16525Y-11400D01*
X16700Y-11225D02*
X16350Y-11225D01*
X16525Y-12050D02*
X16525Y-12400D01*
X16700Y-12225D02*
X16350Y-12225D01*
X16525Y-13050D02*
X16525Y-13400D01*
X16700Y-13225D02*
X16350Y-13225D01*
X16750Y-22625D02*
X16750Y-22975D01*
X16925Y-22800D02*
X16575Y-22800D01*
X16750Y-23625D02*
X16750Y-23975D01*
X16925Y-23800D02*
X16575Y-23800D01*
X17550Y-13100D02*
X17550Y-13450D01*
X17725Y-13275D02*
X17375Y-13275D01*
X18250Y-20625D02*
X18250Y-20975D01*
X18425Y-20800D02*
X18075Y-20800D01*
X18250Y-23625D02*
X18250Y-23975D01*
X18425Y-23800D02*
X18075Y-23800D01*
X19350Y-20875D02*
X19350Y-21225D01*
X19525Y-21050D02*
X19175Y-21050D01*
X19350Y-22875D02*
X19350Y-23225D01*
X19525Y-23050D02*
X19175Y-23050D01*
X19550Y-13100D02*
X19550Y-13450D01*
X19725Y-13275D02*
X19375Y-13275D01*
X20450Y-20625D02*
X20450Y-20975D01*
X20625Y-20800D02*
X20275Y-20800D01*
X20450Y-23625D02*
X20450Y-23975D01*
X20625Y-23800D02*
X20275Y-23800D01*
X21100Y-12575D02*
X21100Y-12925D01*
X21275Y-12750D02*
X20925Y-12750D01*
X21100Y-15575D02*
X21100Y-15925D01*
X21275Y-15750D02*
X20925Y-15750D01*
X21375Y-20625D02*
X21375Y-20975D01*
X21550Y-20800D02*
X21200Y-20800D01*
X21375Y-23625D02*
X21375Y-23975D01*
X21550Y-23800D02*
X21200Y-23800D01*
X22350Y-20625D02*
X22350Y-20975D01*
X22525Y-20800D02*
X22175Y-20800D01*
X22350Y-23625D02*
X22350Y-23975D01*
X22525Y-23800D02*
X22175Y-23800D01*
X23425Y-20875D02*
X23425Y-21225D01*
X23600Y-21050D02*
X23250Y-21050D01*
X23425Y-22875D02*
X23425Y-23225D01*
X23600Y-23050D02*
X23250Y-23050D01*
X23600Y-15050D02*
X23600Y-15400D01*
X23775Y-15225D02*
X23425Y-15225D01*
X24450Y-20625D02*
X24450Y-20975D01*
X24625Y-20800D02*
X24275Y-20800D01*
X24450Y-23625D02*
X24450Y-23975D01*
X24625Y-23800D02*
X24275Y-23800D01*
X25350Y-20625D02*
X25350Y-20975D01*
X25525Y-20800D02*
X25175Y-20800D01*
X25350Y-23625D02*
X25350Y-23975D01*
X25525Y-23800D02*
X25175Y-23800D01*
X26250Y-20625D02*
X26250Y-20975D01*
X26425Y-20800D02*
X26075Y-20800D01*
X26250Y-23625D02*
X26250Y-23975D01*
X26425Y-23800D02*
X26075Y-23800D01*
X26600Y-15050D02*
X26600Y-15400D01*
X26775Y-15225D02*
X26425Y-15225D01*
X27350Y-20875D02*
X27350Y-21225D01*
X27525Y-21050D02*
X27175Y-21050D01*
X27350Y-22875D02*
X27350Y-23225D01*
X27525Y-23050D02*
X27175Y-23050D01*
X29000Y-15675D02*
X29000Y-16025D01*
X29175Y-15850D02*
X28825Y-15850D01*
X29000Y-16675D02*
X29000Y-17025D01*
X29175Y-16850D02*
X28825Y-16850D01*
X30175Y-19175D02*
X30175Y-19525D01*
X30350Y-19350D02*
X30000Y-19350D01*
X30175Y-21175D02*
X30175Y-21525D01*
X30350Y-21350D02*
X30000Y-21350D01*
X31350Y-19175D02*
X31350Y-19525D01*
X31525Y-19350D02*
X31175Y-19350D01*
X31350Y-21175D02*
X31350Y-21525D01*
X31525Y-21350D02*
X31175Y-21350D01*
X31850Y-11250D02*
X31850Y-11600D01*
X32025Y-11425D02*
X31675Y-11425D01*
X33850Y-11250D02*
X33850Y-11600D01*
X34025Y-11425D02*
X33675Y-11425D01*
X10900Y-12000D02*
X10896Y-12038D01*
X10884Y-12076D01*
X10866Y-12110D01*
X10841Y-12140D01*
X10811Y-12165D01*
X10777Y-12184D01*
X10740Y-12195D01*
X10701Y-12199D01*
X10663Y-12196D01*
X10626Y-12185D01*
X10591Y-12167D01*
X10561Y-12142D01*
X10535Y-12112D01*
X10517Y-12078D01*
X10505Y-12041D01*
X10501Y-12002D01*
X10504Y-11964D01*
X10515Y-11927D01*
X10532Y-11892D01*
X10557Y-11862D01*
X10586Y-11836D01*
X10620Y-11817D01*
X10658Y-11805D01*
X10696Y-11801D01*
X10734Y-11804D01*
X10772Y-11814D01*
X10807Y-11832D01*
X10837Y-11856D01*
X10863Y-11885D01*
X10882Y-11919D01*
X10895Y-11956D01*
X10899Y-11995D01*
X10900Y-12000D01*
X10500Y-11800D02*
X10900Y-12200D01*
X10900Y-11800D02*
X10500Y-12200D01*
X10900Y-13000D02*
X10896Y-13038D01*
X10884Y-13076D01*
X10866Y-13110D01*
X10841Y-13140D01*
X10811Y-13165D01*
X10777Y-13184D01*
X10740Y-13195D01*
X10701Y-13199D01*
X10663Y-13196D01*
X10626Y-13185D01*
X10591Y-13167D01*
X10561Y-13142D01*
X10535Y-13112D01*
X10517Y-13078D01*
X10505Y-13041D01*
X10501Y-13002D01*
X10504Y-12964D01*
X10515Y-12927D01*
X10532Y-12892D01*
X10557Y-12862D01*
X10586Y-12836D01*
X10620Y-12817D01*
X10658Y-12805D01*
X10696Y-12801D01*
X10734Y-12804D01*
X10772Y-12814D01*
X10807Y-12832D01*
X10837Y-12856D01*
X10863Y-12885D01*
X10882Y-12919D01*
X10895Y-12956D01*
X10899Y-12995D01*
X10900Y-13000D01*
X10500Y-12800D02*
X10900Y-13200D01*
X10900Y-12800D02*
X10500Y-13200D01*
X10900Y-14000D02*
X10896Y-14038D01*
X10884Y-14076D01*
X10866Y-14110D01*
X10841Y-14140D01*
X10811Y-14165D01*
X10777Y-14184D01*
X10740Y-14195D01*
X10701Y-14199D01*
X10663Y-14196D01*
X10626Y-14185D01*
X10591Y-14167D01*
X10561Y-14142D01*
X10535Y-14112D01*
X10517Y-14078D01*
X10505Y-14041D01*
X10501Y-14002D01*
X10504Y-13964D01*
X10515Y-13927D01*
X10532Y-13892D01*
X10557Y-13862D01*
X10586Y-13836D01*
X10620Y-13817D01*
X10658Y-13805D01*
X10696Y-13801D01*
X10734Y-13804D01*
X10772Y-13814D01*
X10807Y-13832D01*
X10837Y-13856D01*
X10863Y-13885D01*
X10882Y-13919D01*
X10895Y-13956D01*
X10899Y-13995D01*
X10900Y-14000D01*
X10500Y-13800D02*
X10900Y-14200D01*
X10900Y-13800D02*
X10500Y-14200D01*
X10900Y-15000D02*
X10896Y-15038D01*
X10884Y-15076D01*
X10866Y-15110D01*
X10841Y-15140D01*
X10811Y-15165D01*
X10777Y-15184D01*
X10740Y-15195D01*
X10701Y-15199D01*
X10663Y-15196D01*
X10626Y-15185D01*
X10591Y-15167D01*
X10561Y-15142D01*
X10535Y-15112D01*
X10517Y-15078D01*
X10505Y-15041D01*
X10501Y-15002D01*
X10504Y-14964D01*
X10515Y-14927D01*
X10532Y-14892D01*
X10557Y-14862D01*
X10586Y-14836D01*
X10620Y-14817D01*
X10658Y-14805D01*
X10696Y-14801D01*
X10734Y-14804D01*
X10772Y-14814D01*
X10807Y-14832D01*
X10837Y-14856D01*
X10863Y-14885D01*
X10882Y-14919D01*
X10895Y-14956D01*
X10899Y-14995D01*
X10900Y-15000D01*
X10500Y-14800D02*
X10900Y-15200D01*
X10900Y-14800D02*
X10500Y-15200D01*
X10900Y-16000D02*
X10896Y-16038D01*
X10884Y-16076D01*
X10866Y-16110D01*
X10841Y-16140D01*
X10811Y-16165D01*
X10777Y-16184D01*
X10740Y-16195D01*
X10701Y-16199D01*
X10663Y-16196D01*
X10626Y-16185D01*
X10591Y-16167D01*
X10561Y-16142D01*
X10535Y-16112D01*
X10517Y-16078D01*
X10505Y-16041D01*
X10501Y-16002D01*
X10504Y-15964D01*
X10515Y-15927D01*
X10532Y-15892D01*
X10557Y-15862D01*
X10586Y-15836D01*
X10620Y-15817D01*
X10658Y-15805D01*
X10696Y-15801D01*
X10734Y-15804D01*
X10772Y-15814D01*
X10807Y-15832D01*
X10837Y-15856D01*
X10863Y-15885D01*
X10882Y-15919D01*
X10895Y-15956D01*
X10899Y-15995D01*
X10900Y-16000D01*
X10500Y-15800D02*
X10900Y-16200D01*
X10900Y-15800D02*
X10500Y-16200D01*
X10900Y-17000D02*
X10896Y-17038D01*
X10884Y-17076D01*
X10866Y-17110D01*
X10841Y-17140D01*
X10811Y-17165D01*
X10777Y-17184D01*
X10740Y-17195D01*
X10701Y-17199D01*
X10663Y-17196D01*
X10626Y-17185D01*
X10591Y-17167D01*
X10561Y-17142D01*
X10535Y-17112D01*
X10517Y-17078D01*
X10505Y-17041D01*
X10501Y-17002D01*
X10504Y-16964D01*
X10515Y-16927D01*
X10532Y-16892D01*
X10557Y-16862D01*
X10586Y-16836D01*
X10620Y-16817D01*
X10658Y-16805D01*
X10696Y-16801D01*
X10734Y-16804D01*
X10772Y-16814D01*
X10807Y-16832D01*
X10837Y-16856D01*
X10863Y-16885D01*
X10882Y-16919D01*
X10895Y-16956D01*
X10899Y-16995D01*
X10900Y-17000D01*
X10500Y-16800D02*
X10900Y-17200D01*
X10900Y-16800D02*
X10500Y-17200D01*
X10900Y-18000D02*
X10896Y-18038D01*
X10884Y-18076D01*
X10866Y-18110D01*
X10841Y-18140D01*
X10811Y-18165D01*
X10777Y-18184D01*
X10740Y-18195D01*
X10701Y-18199D01*
X10663Y-18196D01*
X10626Y-18185D01*
X10591Y-18167D01*
X10561Y-18142D01*
X10535Y-18112D01*
X10517Y-18078D01*
X10505Y-18041D01*
X10501Y-18002D01*
X10504Y-17964D01*
X10515Y-17927D01*
X10532Y-17892D01*
X10557Y-17862D01*
X10586Y-17836D01*
X10620Y-17817D01*
X10658Y-17805D01*
X10696Y-17801D01*
X10734Y-17804D01*
X10772Y-17814D01*
X10807Y-17832D01*
X10837Y-17856D01*
X10863Y-17885D01*
X10882Y-17919D01*
X10895Y-17956D01*
X10899Y-17995D01*
X10900Y-18000D01*
X10500Y-17800D02*
X10900Y-18200D01*
X10900Y-17800D02*
X10500Y-18200D01*
X10900Y-19000D02*
X10896Y-19038D01*
X10884Y-19076D01*
X10866Y-19110D01*
X10841Y-19140D01*
X10811Y-19165D01*
X10777Y-19184D01*
X10740Y-19195D01*
X10701Y-19199D01*
X10663Y-19196D01*
X10626Y-19185D01*
X10591Y-19167D01*
X10561Y-19142D01*
X10535Y-19112D01*
X10517Y-19078D01*
X10505Y-19041D01*
X10501Y-19002D01*
X10504Y-18964D01*
X10515Y-18927D01*
X10532Y-18892D01*
X10557Y-18862D01*
X10586Y-18836D01*
X10620Y-18817D01*
X10658Y-18805D01*
X10696Y-18801D01*
X10734Y-18804D01*
X10772Y-18814D01*
X10807Y-18832D01*
X10837Y-18856D01*
X10863Y-18885D01*
X10882Y-18919D01*
X10895Y-18956D01*
X10899Y-18995D01*
X10900Y-19000D01*
X10500Y-18800D02*
X10900Y-19200D01*
X10900Y-18800D02*
X10500Y-19200D01*
X10900Y-20000D02*
X10896Y-20038D01*
X10884Y-20076D01*
X10866Y-20110D01*
X10841Y-20140D01*
X10811Y-20165D01*
X10777Y-20184D01*
X10740Y-20195D01*
X10701Y-20199D01*
X10663Y-20196D01*
X10626Y-20185D01*
X10591Y-20167D01*
X10561Y-20142D01*
X10535Y-20112D01*
X10517Y-20078D01*
X10505Y-20041D01*
X10501Y-20002D01*
X10504Y-19964D01*
X10515Y-19927D01*
X10532Y-19892D01*
X10557Y-19862D01*
X10586Y-19836D01*
X10620Y-19817D01*
X10658Y-19805D01*
X10696Y-19801D01*
X10734Y-19804D01*
X10772Y-19814D01*
X10807Y-19832D01*
X10837Y-19856D01*
X10863Y-19885D01*
X10882Y-19919D01*
X10895Y-19956D01*
X10899Y-19995D01*
X10900Y-20000D01*
X10500Y-19800D02*
X10900Y-20200D01*
X10900Y-19800D02*
X10500Y-20200D01*
X10900Y-21000D02*
X10896Y-21038D01*
X10884Y-21076D01*
X10866Y-21110D01*
X10841Y-21140D01*
X10811Y-21165D01*
X10777Y-21184D01*
X10740Y-21195D01*
X10701Y-21199D01*
X10663Y-21196D01*
X10626Y-21185D01*
X10591Y-21167D01*
X10561Y-21142D01*
X10535Y-21112D01*
X10517Y-21078D01*
X10505Y-21041D01*
X10501Y-21002D01*
X10504Y-20964D01*
X10515Y-20927D01*
X10532Y-20892D01*
X10557Y-20862D01*
X10586Y-20836D01*
X10620Y-20817D01*
X10658Y-20805D01*
X10696Y-20801D01*
X10734Y-20804D01*
X10772Y-20814D01*
X10807Y-20832D01*
X10837Y-20856D01*
X10863Y-20885D01*
X10882Y-20919D01*
X10895Y-20956D01*
X10899Y-20995D01*
X10900Y-21000D01*
X10500Y-20800D02*
X10900Y-21200D01*
X10900Y-20800D02*
X10500Y-21200D01*
X10900Y-22000D02*
X10896Y-22038D01*
X10884Y-22076D01*
X10866Y-22110D01*
X10841Y-22140D01*
X10811Y-22165D01*
X10777Y-22184D01*
X10740Y-22195D01*
X10701Y-22199D01*
X10663Y-22196D01*
X10626Y-22185D01*
X10591Y-22167D01*
X10561Y-22142D01*
X10535Y-22112D01*
X10517Y-22078D01*
X10505Y-22041D01*
X10501Y-22002D01*
X10504Y-21964D01*
X10515Y-21927D01*
X10532Y-21892D01*
X10557Y-21862D01*
X10586Y-21836D01*
X10620Y-21817D01*
X10658Y-21805D01*
X10696Y-21801D01*
X10734Y-21804D01*
X10772Y-21814D01*
X10807Y-21832D01*
X10837Y-21856D01*
X10863Y-21885D01*
X10882Y-21919D01*
X10895Y-21956D01*
X10899Y-21995D01*
X10900Y-22000D01*
X10500Y-21800D02*
X10900Y-22200D01*
X10900Y-21800D02*
X10500Y-22200D01*
X10900Y-23000D02*
X10896Y-23038D01*
X10884Y-23076D01*
X10866Y-23110D01*
X10841Y-23140D01*
X10811Y-23165D01*
X10777Y-23184D01*
X10740Y-23195D01*
X10701Y-23199D01*
X10663Y-23196D01*
X10626Y-23185D01*
X10591Y-23167D01*
X10561Y-23142D01*
X10535Y-23112D01*
X10517Y-23078D01*
X10505Y-23041D01*
X10501Y-23002D01*
X10504Y-22964D01*
X10515Y-22927D01*
X10532Y-22892D01*
X10557Y-22862D01*
X10586Y-22836D01*
X10620Y-22817D01*
X10658Y-22805D01*
X10696Y-22801D01*
X10734Y-22804D01*
X10772Y-22814D01*
X10807Y-22832D01*
X10837Y-22856D01*
X10863Y-22885D01*
X10882Y-22919D01*
X10895Y-22956D01*
X10899Y-22995D01*
X10900Y-23000D01*
X10500Y-22800D02*
X10900Y-23200D01*
X10900Y-22800D02*
X10500Y-23200D01*
X11900Y-11000D02*
X11896Y-11038D01*
X11884Y-11076D01*
X11866Y-11110D01*
X11841Y-11140D01*
X11811Y-11165D01*
X11777Y-11184D01*
X11740Y-11195D01*
X11701Y-11199D01*
X11663Y-11196D01*
X11626Y-11185D01*
X11591Y-11167D01*
X11561Y-11142D01*
X11535Y-11112D01*
X11517Y-11078D01*
X11505Y-11041D01*
X11501Y-11002D01*
X11504Y-10964D01*
X11515Y-10927D01*
X11532Y-10892D01*
X11557Y-10862D01*
X11586Y-10836D01*
X11620Y-10817D01*
X11658Y-10805D01*
X11696Y-10801D01*
X11734Y-10804D01*
X11772Y-10814D01*
X11807Y-10832D01*
X11837Y-10856D01*
X11863Y-10885D01*
X11882Y-10919D01*
X11895Y-10956D01*
X11899Y-10995D01*
X11900Y-11000D01*
X11500Y-10800D02*
X11900Y-11200D01*
X11900Y-10800D02*
X11500Y-11200D01*
X11900Y-12000D02*
X11896Y-12038D01*
X11884Y-12076D01*
X11866Y-12110D01*
X11841Y-12140D01*
X11811Y-12165D01*
X11777Y-12184D01*
X11740Y-12195D01*
X11701Y-12199D01*
X11663Y-12196D01*
X11626Y-12185D01*
X11591Y-12167D01*
X11561Y-12142D01*
X11535Y-12112D01*
X11517Y-12078D01*
X11505Y-12041D01*
X11501Y-12002D01*
X11504Y-11964D01*
X11515Y-11927D01*
X11532Y-11892D01*
X11557Y-11862D01*
X11586Y-11836D01*
X11620Y-11817D01*
X11658Y-11805D01*
X11696Y-11801D01*
X11734Y-11804D01*
X11772Y-11814D01*
X11807Y-11832D01*
X11837Y-11856D01*
X11863Y-11885D01*
X11882Y-11919D01*
X11895Y-11956D01*
X11899Y-11995D01*
X11900Y-12000D01*
X11500Y-11800D02*
X11900Y-12200D01*
X11900Y-11800D02*
X11500Y-12200D01*
X11900Y-13000D02*
X11896Y-13038D01*
X11884Y-13076D01*
X11866Y-13110D01*
X11841Y-13140D01*
X11811Y-13165D01*
X11777Y-13184D01*
X11740Y-13195D01*
X11701Y-13199D01*
X11663Y-13196D01*
X11626Y-13185D01*
X11591Y-13167D01*
X11561Y-13142D01*
X11535Y-13112D01*
X11517Y-13078D01*
X11505Y-13041D01*
X11501Y-13002D01*
X11504Y-12964D01*
X11515Y-12927D01*
X11532Y-12892D01*
X11557Y-12862D01*
X11586Y-12836D01*
X11620Y-12817D01*
X11658Y-12805D01*
X11696Y-12801D01*
X11734Y-12804D01*
X11772Y-12814D01*
X11807Y-12832D01*
X11837Y-12856D01*
X11863Y-12885D01*
X11882Y-12919D01*
X11895Y-12956D01*
X11899Y-12995D01*
X11900Y-13000D01*
X11500Y-12800D02*
X11900Y-13200D01*
X11900Y-12800D02*
X11500Y-13200D01*
X11900Y-14000D02*
X11896Y-14038D01*
X11884Y-14076D01*
X11866Y-14110D01*
X11841Y-14140D01*
X11811Y-14165D01*
X11777Y-14184D01*
X11740Y-14195D01*
X11701Y-14199D01*
X11663Y-14196D01*
X11626Y-14185D01*
X11591Y-14167D01*
X11561Y-14142D01*
X11535Y-14112D01*
X11517Y-14078D01*
X11505Y-14041D01*
X11501Y-14002D01*
X11504Y-13964D01*
X11515Y-13927D01*
X11532Y-13892D01*
X11557Y-13862D01*
X11586Y-13836D01*
X11620Y-13817D01*
X11658Y-13805D01*
X11696Y-13801D01*
X11734Y-13804D01*
X11772Y-13814D01*
X11807Y-13832D01*
X11837Y-13856D01*
X11863Y-13885D01*
X11882Y-13919D01*
X11895Y-13956D01*
X11899Y-13995D01*
X11900Y-14000D01*
X11500Y-13800D02*
X11900Y-14200D01*
X11900Y-13800D02*
X11500Y-14200D01*
X11900Y-15000D02*
X11896Y-15038D01*
X11884Y-15076D01*
X11866Y-15110D01*
X11841Y-15140D01*
X11811Y-15165D01*
X11777Y-15184D01*
X11740Y-15195D01*
X11701Y-15199D01*
X11663Y-15196D01*
X11626Y-15185D01*
X11591Y-15167D01*
X11561Y-15142D01*
X11535Y-15112D01*
X11517Y-15078D01*
X11505Y-15041D01*
X11501Y-15002D01*
X11504Y-14964D01*
X11515Y-14927D01*
X11532Y-14892D01*
X11557Y-14862D01*
X11586Y-14836D01*
X11620Y-14817D01*
X11658Y-14805D01*
X11696Y-14801D01*
X11734Y-14804D01*
X11772Y-14814D01*
X11807Y-14832D01*
X11837Y-14856D01*
X11863Y-14885D01*
X11882Y-14919D01*
X11895Y-14956D01*
X11899Y-14995D01*
X11900Y-15000D01*
X11500Y-14800D02*
X11900Y-15200D01*
X11900Y-14800D02*
X11500Y-15200D01*
X11900Y-16000D02*
X11896Y-16038D01*
X11884Y-16076D01*
X11866Y-16110D01*
X11841Y-16140D01*
X11811Y-16165D01*
X11777Y-16184D01*
X11740Y-16195D01*
X11701Y-16199D01*
X11663Y-16196D01*
X11626Y-16185D01*
X11591Y-16167D01*
X11561Y-16142D01*
X11535Y-16112D01*
X11517Y-16078D01*
X11505Y-16041D01*
X11501Y-16002D01*
X11504Y-15964D01*
X11515Y-15927D01*
X11532Y-15892D01*
X11557Y-15862D01*
X11586Y-15836D01*
X11620Y-15817D01*
X11658Y-15805D01*
X11696Y-15801D01*
X11734Y-15804D01*
X11772Y-15814D01*
X11807Y-15832D01*
X11837Y-15856D01*
X11863Y-15885D01*
X11882Y-15919D01*
X11895Y-15956D01*
X11899Y-15995D01*
X11900Y-16000D01*
X11500Y-15800D02*
X11900Y-16200D01*
X11900Y-15800D02*
X11500Y-16200D01*
X11900Y-17000D02*
X11896Y-17038D01*
X11884Y-17076D01*
X11866Y-17110D01*
X11841Y-17140D01*
X11811Y-17165D01*
X11777Y-17184D01*
X11740Y-17195D01*
X11701Y-17199D01*
X11663Y-17196D01*
X11626Y-17185D01*
X11591Y-17167D01*
X11561Y-17142D01*
X11535Y-17112D01*
X11517Y-17078D01*
X11505Y-17041D01*
X11501Y-17002D01*
X11504Y-16964D01*
X11515Y-16927D01*
X11532Y-16892D01*
X11557Y-16862D01*
X11586Y-16836D01*
X11620Y-16817D01*
X11658Y-16805D01*
X11696Y-16801D01*
X11734Y-16804D01*
X11772Y-16814D01*
X11807Y-16832D01*
X11837Y-16856D01*
X11863Y-16885D01*
X11882Y-16919D01*
X11895Y-16956D01*
X11899Y-16995D01*
X11900Y-17000D01*
X11500Y-16800D02*
X11900Y-17200D01*
X11900Y-16800D02*
X11500Y-17200D01*
X11900Y-18000D02*
X11896Y-18038D01*
X11884Y-18076D01*
X11866Y-18110D01*
X11841Y-18140D01*
X11811Y-18165D01*
X11777Y-18184D01*
X11740Y-18195D01*
X11701Y-18199D01*
X11663Y-18196D01*
X11626Y-18185D01*
X11591Y-18167D01*
X11561Y-18142D01*
X11535Y-18112D01*
X11517Y-18078D01*
X11505Y-18041D01*
X11501Y-18002D01*
X11504Y-17964D01*
X11515Y-17927D01*
X11532Y-17892D01*
X11557Y-17862D01*
X11586Y-17836D01*
X11620Y-17817D01*
X11658Y-17805D01*
X11696Y-17801D01*
X11734Y-17804D01*
X11772Y-17814D01*
X11807Y-17832D01*
X11837Y-17856D01*
X11863Y-17885D01*
X11882Y-17919D01*
X11895Y-17956D01*
X11899Y-17995D01*
X11900Y-18000D01*
X11500Y-17800D02*
X11900Y-18200D01*
X11900Y-17800D02*
X11500Y-18200D01*
X11900Y-19000D02*
X11896Y-19038D01*
X11884Y-19076D01*
X11866Y-19110D01*
X11841Y-19140D01*
X11811Y-19165D01*
X11777Y-19184D01*
X11740Y-19195D01*
X11701Y-19199D01*
X11663Y-19196D01*
X11626Y-19185D01*
X11591Y-19167D01*
X11561Y-19142D01*
X11535Y-19112D01*
X11517Y-19078D01*
X11505Y-19041D01*
X11501Y-19002D01*
X11504Y-18964D01*
X11515Y-18927D01*
X11532Y-18892D01*
X11557Y-18862D01*
X11586Y-18836D01*
X11620Y-18817D01*
X11658Y-18805D01*
X11696Y-18801D01*
X11734Y-18804D01*
X11772Y-18814D01*
X11807Y-18832D01*
X11837Y-18856D01*
X11863Y-18885D01*
X11882Y-18919D01*
X11895Y-18956D01*
X11899Y-18995D01*
X11900Y-19000D01*
X11500Y-18800D02*
X11900Y-19200D01*
X11900Y-18800D02*
X11500Y-19200D01*
X11900Y-20000D02*
X11896Y-20038D01*
X11884Y-20076D01*
X11866Y-20110D01*
X11841Y-20140D01*
X11811Y-20165D01*
X11777Y-20184D01*
X11740Y-20195D01*
X11701Y-20199D01*
X11663Y-20196D01*
X11626Y-20185D01*
X11591Y-20167D01*
X11561Y-20142D01*
X11535Y-20112D01*
X11517Y-20078D01*
X11505Y-20041D01*
X11501Y-20002D01*
X11504Y-19964D01*
X11515Y-19927D01*
X11532Y-19892D01*
X11557Y-19862D01*
X11586Y-19836D01*
X11620Y-19817D01*
X11658Y-19805D01*
X11696Y-19801D01*
X11734Y-19804D01*
X11772Y-19814D01*
X11807Y-19832D01*
X11837Y-19856D01*
X11863Y-19885D01*
X11882Y-19919D01*
X11895Y-19956D01*
X11899Y-19995D01*
X11900Y-20000D01*
X11500Y-19800D02*
X11900Y-20200D01*
X11900Y-19800D02*
X11500Y-20200D01*
X11900Y-21000D02*
X11896Y-21038D01*
X11884Y-21076D01*
X11866Y-21110D01*
X11841Y-21140D01*
X11811Y-21165D01*
X11777Y-21184D01*
X11740Y-21195D01*
X11701Y-21199D01*
X11663Y-21196D01*
X11626Y-21185D01*
X11591Y-21167D01*
X11561Y-21142D01*
X11535Y-21112D01*
X11517Y-21078D01*
X11505Y-21041D01*
X11501Y-21002D01*
X11504Y-20964D01*
X11515Y-20927D01*
X11532Y-20892D01*
X11557Y-20862D01*
X11586Y-20836D01*
X11620Y-20817D01*
X11658Y-20805D01*
X11696Y-20801D01*
X11734Y-20804D01*
X11772Y-20814D01*
X11807Y-20832D01*
X11837Y-20856D01*
X11863Y-20885D01*
X11882Y-20919D01*
X11895Y-20956D01*
X11899Y-20995D01*
X11900Y-21000D01*
X11500Y-20800D02*
X11900Y-21200D01*
X11900Y-20800D02*
X11500Y-21200D01*
X11900Y-22000D02*
X11896Y-22038D01*
X11884Y-22076D01*
X11866Y-22110D01*
X11841Y-22140D01*
X11811Y-22165D01*
X11777Y-22184D01*
X11740Y-22195D01*
X11701Y-22199D01*
X11663Y-22196D01*
X11626Y-22185D01*
X11591Y-22167D01*
X11561Y-22142D01*
X11535Y-22112D01*
X11517Y-22078D01*
X11505Y-22041D01*
X11501Y-22002D01*
X11504Y-21964D01*
X11515Y-21927D01*
X11532Y-21892D01*
X11557Y-21862D01*
X11586Y-21836D01*
X11620Y-21817D01*
X11658Y-21805D01*
X11696Y-21801D01*
X11734Y-21804D01*
X11772Y-21814D01*
X11807Y-21832D01*
X11837Y-21856D01*
X11863Y-21885D01*
X11882Y-21919D01*
X11895Y-21956D01*
X11899Y-21995D01*
X11900Y-22000D01*
X11500Y-21800D02*
X11900Y-22200D01*
X11900Y-21800D02*
X11500Y-22200D01*
X11900Y-23000D02*
X11896Y-23038D01*
X11884Y-23076D01*
X11866Y-23110D01*
X11841Y-23140D01*
X11811Y-23165D01*
X11777Y-23184D01*
X11740Y-23195D01*
X11701Y-23199D01*
X11663Y-23196D01*
X11626Y-23185D01*
X11591Y-23167D01*
X11561Y-23142D01*
X11535Y-23112D01*
X11517Y-23078D01*
X11505Y-23041D01*
X11501Y-23002D01*
X11504Y-22964D01*
X11515Y-22927D01*
X11532Y-22892D01*
X11557Y-22862D01*
X11586Y-22836D01*
X11620Y-22817D01*
X11658Y-22805D01*
X11696Y-22801D01*
X11734Y-22804D01*
X11772Y-22814D01*
X11807Y-22832D01*
X11837Y-22856D01*
X11863Y-22885D01*
X11882Y-22919D01*
X11895Y-22956D01*
X11899Y-22995D01*
X11900Y-23000D01*
X11500Y-22800D02*
X11900Y-23200D01*
X11900Y-22800D02*
X11500Y-23200D01*
X11900Y-24000D02*
X11896Y-24038D01*
X11884Y-24076D01*
X11866Y-24110D01*
X11841Y-24140D01*
X11811Y-24165D01*
X11777Y-24184D01*
X11740Y-24195D01*
X11701Y-24199D01*
X11663Y-24196D01*
X11626Y-24185D01*
X11591Y-24167D01*
X11561Y-24142D01*
X11535Y-24112D01*
X11517Y-24078D01*
X11505Y-24041D01*
X11501Y-24002D01*
X11504Y-23964D01*
X11515Y-23927D01*
X11532Y-23892D01*
X11557Y-23862D01*
X11586Y-23836D01*
X11620Y-23817D01*
X11658Y-23805D01*
X11696Y-23801D01*
X11734Y-23804D01*
X11772Y-23814D01*
X11807Y-23832D01*
X11837Y-23856D01*
X11863Y-23885D01*
X11882Y-23919D01*
X11895Y-23956D01*
X11899Y-23995D01*
X11900Y-24000D01*
X11500Y-23800D02*
X11900Y-24200D01*
X11900Y-23800D02*
X11500Y-24200D01*
X13650Y-11225D02*
X13646Y-11263D01*
X13634Y-11301D01*
X13616Y-11335D01*
X13591Y-11365D01*
X13561Y-11390D01*
X13527Y-11409D01*
X13490Y-11420D01*
X13451Y-11424D01*
X13413Y-11421D01*
X13376Y-11410D01*
X13341Y-11392D01*
X13311Y-11367D01*
X13285Y-11337D01*
X13267Y-11303D01*
X13255Y-11266D01*
X13251Y-11227D01*
X13254Y-11189D01*
X13265Y-11152D01*
X13282Y-11117D01*
X13307Y-11087D01*
X13336Y-11061D01*
X13370Y-11042D01*
X13408Y-11030D01*
X13446Y-11026D01*
X13484Y-11029D01*
X13522Y-11039D01*
X13557Y-11057D01*
X13587Y-11081D01*
X13613Y-11110D01*
X13632Y-11144D01*
X13645Y-11181D01*
X13649Y-11220D01*
X13650Y-11225D01*
X13250Y-11025D02*
X13650Y-11425D01*
X13650Y-11025D02*
X13250Y-11425D01*
X13650Y-12225D02*
X13646Y-12263D01*
X13634Y-12301D01*
X13616Y-12335D01*
X13591Y-12365D01*
X13561Y-12390D01*
X13527Y-12409D01*
X13490Y-12420D01*
X13451Y-12424D01*
X13413Y-12421D01*
X13376Y-12410D01*
X13341Y-12392D01*
X13311Y-12367D01*
X13285Y-12337D01*
X13267Y-12303D01*
X13255Y-12266D01*
X13251Y-12227D01*
X13254Y-12189D01*
X13265Y-12152D01*
X13282Y-12117D01*
X13307Y-12087D01*
X13336Y-12061D01*
X13370Y-12042D01*
X13408Y-12030D01*
X13446Y-12026D01*
X13484Y-12029D01*
X13522Y-12039D01*
X13557Y-12057D01*
X13587Y-12081D01*
X13613Y-12110D01*
X13632Y-12144D01*
X13645Y-12181D01*
X13649Y-12220D01*
X13650Y-12225D01*
X13250Y-12025D02*
X13650Y-12425D01*
X13650Y-12025D02*
X13250Y-12425D01*
X13650Y-13225D02*
X13646Y-13263D01*
X13634Y-13301D01*
X13616Y-13335D01*
X13591Y-13365D01*
X13561Y-13390D01*
X13527Y-13409D01*
X13490Y-13420D01*
X13451Y-13424D01*
X13413Y-13421D01*
X13376Y-13410D01*
X13341Y-13392D01*
X13311Y-13367D01*
X13285Y-13337D01*
X13267Y-13303D01*
X13255Y-13266D01*
X13251Y-13227D01*
X13254Y-13189D01*
X13265Y-13152D01*
X13282Y-13117D01*
X13307Y-13087D01*
X13336Y-13061D01*
X13370Y-13042D01*
X13408Y-13030D01*
X13446Y-13026D01*
X13484Y-13029D01*
X13522Y-13039D01*
X13557Y-13057D01*
X13587Y-13081D01*
X13613Y-13110D01*
X13632Y-13144D01*
X13645Y-13181D01*
X13649Y-13220D01*
X13650Y-13225D01*
X13250Y-13025D02*
X13650Y-13425D01*
X13650Y-13025D02*
X13250Y-13425D01*
X13650Y-21850D02*
X13646Y-21888D01*
X13634Y-21926D01*
X13616Y-21960D01*
X13591Y-21990D01*
X13561Y-22015D01*
X13527Y-22034D01*
X13490Y-22045D01*
X13451Y-22049D01*
X13413Y-22046D01*
X13376Y-22035D01*
X13341Y-22017D01*
X13311Y-21992D01*
X13285Y-21962D01*
X13267Y-21928D01*
X13255Y-21891D01*
X13251Y-21852D01*
X13254Y-21814D01*
X13265Y-21777D01*
X13282Y-21742D01*
X13307Y-21712D01*
X13336Y-21686D01*
X13370Y-21667D01*
X13408Y-21655D01*
X13446Y-21651D01*
X13484Y-21654D01*
X13522Y-21664D01*
X13557Y-21682D01*
X13587Y-21706D01*
X13613Y-21735D01*
X13632Y-21769D01*
X13645Y-21806D01*
X13649Y-21845D01*
X13650Y-21850D01*
X13250Y-21650D02*
X13650Y-22050D01*
X13650Y-21650D02*
X13250Y-22050D01*
X13650Y-22850D02*
X13646Y-22888D01*
X13634Y-22926D01*
X13616Y-22960D01*
X13591Y-22990D01*
X13561Y-23015D01*
X13527Y-23034D01*
X13490Y-23045D01*
X13451Y-23049D01*
X13413Y-23046D01*
X13376Y-23035D01*
X13341Y-23017D01*
X13311Y-22992D01*
X13285Y-22962D01*
X13267Y-22928D01*
X13255Y-22891D01*
X13251Y-22852D01*
X13254Y-22814D01*
X13265Y-22777D01*
X13282Y-22742D01*
X13307Y-22712D01*
X13336Y-22686D01*
X13370Y-22667D01*
X13408Y-22655D01*
X13446Y-22651D01*
X13484Y-22654D01*
X13522Y-22664D01*
X13557Y-22682D01*
X13587Y-22706D01*
X13613Y-22735D01*
X13632Y-22769D01*
X13645Y-22806D01*
X13649Y-22845D01*
X13650Y-22850D01*
X13250Y-22650D02*
X13650Y-23050D01*
X13650Y-22650D02*
X13250Y-23050D01*
X13650Y-23850D02*
X13646Y-23888D01*
X13634Y-23926D01*
X13616Y-23960D01*
X13591Y-23990D01*
X13561Y-24015D01*
X13527Y-24034D01*
X13490Y-24045D01*
X13451Y-24049D01*
X13413Y-24046D01*
X13376Y-24035D01*
X13341Y-24017D01*
X13311Y-23992D01*
X13285Y-23962D01*
X13267Y-23928D01*
X13255Y-23891D01*
X13251Y-23852D01*
X13254Y-23814D01*
X13265Y-23777D01*
X13282Y-23742D01*
X13307Y-23712D01*
X13336Y-23686D01*
X13370Y-23667D01*
X13408Y-23655D01*
X13446Y-23651D01*
X13484Y-23654D01*
X13522Y-23664D01*
X13557Y-23682D01*
X13587Y-23706D01*
X13613Y-23735D01*
X13632Y-23769D01*
X13645Y-23806D01*
X13649Y-23845D01*
X13650Y-23850D01*
X13250Y-23650D02*
X13650Y-24050D01*
X13650Y-23650D02*
X13250Y-24050D01*
X14300Y-16650D02*
X14296Y-16688D01*
X14284Y-16726D01*
X14266Y-16760D01*
X14241Y-16790D01*
X14211Y-16815D01*
X14177Y-16834D01*
X14140Y-16845D01*
X14101Y-16849D01*
X14063Y-16846D01*
X14026Y-16835D01*
X13991Y-16817D01*
X13961Y-16792D01*
X13935Y-16762D01*
X13917Y-16728D01*
X13905Y-16691D01*
X13901Y-16652D01*
X13904Y-16614D01*
X13915Y-16577D01*
X13932Y-16542D01*
X13957Y-16512D01*
X13986Y-16486D01*
X14020Y-16467D01*
X14058Y-16455D01*
X14096Y-16451D01*
X14134Y-16454D01*
X14172Y-16464D01*
X14207Y-16482D01*
X14237Y-16506D01*
X14263Y-16535D01*
X14282Y-16569D01*
X14295Y-16606D01*
X14299Y-16645D01*
X14300Y-16650D01*
X13900Y-16450D02*
X14300Y-16850D01*
X14300Y-16450D02*
X13900Y-16850D01*
X14300Y-19650D02*
X14296Y-19688D01*
X14284Y-19726D01*
X14266Y-19760D01*
X14241Y-19790D01*
X14211Y-19815D01*
X14177Y-19834D01*
X14140Y-19845D01*
X14101Y-19849D01*
X14063Y-19846D01*
X14026Y-19835D01*
X13991Y-19817D01*
X13961Y-19792D01*
X13935Y-19762D01*
X13917Y-19728D01*
X13905Y-19691D01*
X13901Y-19652D01*
X13904Y-19614D01*
X13915Y-19577D01*
X13932Y-19542D01*
X13957Y-19512D01*
X13986Y-19486D01*
X14020Y-19467D01*
X14058Y-19455D01*
X14096Y-19451D01*
X14134Y-19454D01*
X14172Y-19464D01*
X14207Y-19482D01*
X14237Y-19506D01*
X14263Y-19535D01*
X14282Y-19569D01*
X14295Y-19606D01*
X14299Y-19645D01*
X14300Y-19650D01*
X13900Y-19450D02*
X14300Y-19850D01*
X14300Y-19450D02*
X13900Y-19850D01*
X14650Y-11225D02*
X14646Y-11263D01*
X14634Y-11301D01*
X14616Y-11335D01*
X14591Y-11365D01*
X14561Y-11390D01*
X14527Y-11409D01*
X14490Y-11420D01*
X14451Y-11424D01*
X14413Y-11421D01*
X14376Y-11410D01*
X14341Y-11392D01*
X14311Y-11367D01*
X14285Y-11337D01*
X14267Y-11303D01*
X14255Y-11266D01*
X14251Y-11227D01*
X14254Y-11189D01*
X14265Y-11152D01*
X14282Y-11117D01*
X14307Y-11087D01*
X14336Y-11061D01*
X14370Y-11042D01*
X14408Y-11030D01*
X14446Y-11026D01*
X14484Y-11029D01*
X14522Y-11039D01*
X14557Y-11057D01*
X14587Y-11081D01*
X14613Y-11110D01*
X14632Y-11144D01*
X14645Y-11181D01*
X14649Y-11220D01*
X14650Y-11225D01*
X14250Y-11025D02*
X14650Y-11425D01*
X14650Y-11025D02*
X14250Y-11425D01*
X14650Y-12225D02*
X14646Y-12263D01*
X14634Y-12301D01*
X14616Y-12335D01*
X14591Y-12365D01*
X14561Y-12390D01*
X14527Y-12409D01*
X14490Y-12420D01*
X14451Y-12424D01*
X14413Y-12421D01*
X14376Y-12410D01*
X14341Y-12392D01*
X14311Y-12367D01*
X14285Y-12337D01*
X14267Y-12303D01*
X14255Y-12266D01*
X14251Y-12227D01*
X14254Y-12189D01*
X14265Y-12152D01*
X14282Y-12117D01*
X14307Y-12087D01*
X14336Y-12061D01*
X14370Y-12042D01*
X14408Y-12030D01*
X14446Y-12026D01*
X14484Y-12029D01*
X14522Y-12039D01*
X14557Y-12057D01*
X14587Y-12081D01*
X14613Y-12110D01*
X14632Y-12144D01*
X14645Y-12181D01*
X14649Y-12220D01*
X14650Y-12225D01*
X14250Y-12025D02*
X14650Y-12425D01*
X14650Y-12025D02*
X14250Y-12425D01*
X14650Y-13225D02*
X14646Y-13263D01*
X14634Y-13301D01*
X14616Y-13335D01*
X14591Y-13365D01*
X14561Y-13390D01*
X14527Y-13409D01*
X14490Y-13420D01*
X14451Y-13424D01*
X14413Y-13421D01*
X14376Y-13410D01*
X14341Y-13392D01*
X14311Y-13367D01*
X14285Y-13337D01*
X14267Y-13303D01*
X14255Y-13266D01*
X14251Y-13227D01*
X14254Y-13189D01*
X14265Y-13152D01*
X14282Y-13117D01*
X14307Y-13087D01*
X14336Y-13061D01*
X14370Y-13042D01*
X14408Y-13030D01*
X14446Y-13026D01*
X14484Y-13029D01*
X14522Y-13039D01*
X14557Y-13057D01*
X14587Y-13081D01*
X14613Y-13110D01*
X14632Y-13144D01*
X14645Y-13181D01*
X14649Y-13220D01*
X14650Y-13225D01*
X14250Y-13025D02*
X14650Y-13425D01*
X14650Y-13025D02*
X14250Y-13425D01*
X14650Y-21850D02*
X14646Y-21888D01*
X14634Y-21926D01*
X14616Y-21960D01*
X14591Y-21990D01*
X14561Y-22015D01*
X14527Y-22034D01*
X14490Y-22045D01*
X14451Y-22049D01*
X14413Y-22046D01*
X14376Y-22035D01*
X14341Y-22017D01*
X14311Y-21992D01*
X14285Y-21962D01*
X14267Y-21928D01*
X14255Y-21891D01*
X14251Y-21852D01*
X14254Y-21814D01*
X14265Y-21777D01*
X14282Y-21742D01*
X14307Y-21712D01*
X14336Y-21686D01*
X14370Y-21667D01*
X14408Y-21655D01*
X14446Y-21651D01*
X14484Y-21654D01*
X14522Y-21664D01*
X14557Y-21682D01*
X14587Y-21706D01*
X14613Y-21735D01*
X14632Y-21769D01*
X14645Y-21806D01*
X14649Y-21845D01*
X14650Y-21850D01*
X14250Y-21650D02*
X14650Y-22050D01*
X14650Y-21650D02*
X14250Y-22050D01*
X14650Y-22850D02*
X14646Y-22888D01*
X14634Y-22926D01*
X14616Y-22960D01*
X14591Y-22990D01*
X14561Y-23015D01*
X14527Y-23034D01*
X14490Y-23045D01*
X14451Y-23049D01*
X14413Y-23046D01*
X14376Y-23035D01*
X14341Y-23017D01*
X14311Y-22992D01*
X14285Y-22962D01*
X14267Y-22928D01*
X14255Y-22891D01*
X14251Y-22852D01*
X14254Y-22814D01*
X14265Y-22777D01*
X14282Y-22742D01*
X14307Y-22712D01*
X14336Y-22686D01*
X14370Y-22667D01*
X14408Y-22655D01*
X14446Y-22651D01*
X14484Y-22654D01*
X14522Y-22664D01*
X14557Y-22682D01*
X14587Y-22706D01*
X14613Y-22735D01*
X14632Y-22769D01*
X14645Y-22806D01*
X14649Y-22845D01*
X14650Y-22850D01*
X14250Y-22650D02*
X14650Y-23050D01*
X14650Y-22650D02*
X14250Y-23050D01*
X14650Y-23850D02*
X14646Y-23888D01*
X14634Y-23926D01*
X14616Y-23960D01*
X14591Y-23990D01*
X14561Y-24015D01*
X14527Y-24034D01*
X14490Y-24045D01*
X14451Y-24049D01*
X14413Y-24046D01*
X14376Y-24035D01*
X14341Y-24017D01*
X14311Y-23992D01*
X14285Y-23962D01*
X14267Y-23928D01*
X14255Y-23891D01*
X14251Y-23852D01*
X14254Y-23814D01*
X14265Y-23777D01*
X14282Y-23742D01*
X14307Y-23712D01*
X14336Y-23686D01*
X14370Y-23667D01*
X14408Y-23655D01*
X14446Y-23651D01*
X14484Y-23654D01*
X14522Y-23664D01*
X14557Y-23682D01*
X14587Y-23706D01*
X14613Y-23735D01*
X14632Y-23769D01*
X14645Y-23806D01*
X14649Y-23845D01*
X14650Y-23850D01*
X14250Y-23650D02*
X14650Y-24050D01*
X14650Y-23650D02*
X14250Y-24050D01*
X15300Y-16650D02*
X15296Y-16688D01*
X15284Y-16726D01*
X15266Y-16760D01*
X15241Y-16790D01*
X15211Y-16815D01*
X15177Y-16834D01*
X15140Y-16845D01*
X15101Y-16849D01*
X15063Y-16846D01*
X15026Y-16835D01*
X14991Y-16817D01*
X14961Y-16792D01*
X14935Y-16762D01*
X14917Y-16728D01*
X14905Y-16691D01*
X14901Y-16652D01*
X14904Y-16614D01*
X14915Y-16577D01*
X14932Y-16542D01*
X14957Y-16512D01*
X14986Y-16486D01*
X15020Y-16467D01*
X15058Y-16455D01*
X15096Y-16451D01*
X15134Y-16454D01*
X15172Y-16464D01*
X15207Y-16482D01*
X15237Y-16506D01*
X15263Y-16535D01*
X15282Y-16569D01*
X15295Y-16606D01*
X15299Y-16645D01*
X15300Y-16650D01*
X14900Y-16450D02*
X15300Y-16850D01*
X15300Y-16450D02*
X14900Y-16850D01*
X15300Y-19650D02*
X15296Y-19688D01*
X15284Y-19726D01*
X15266Y-19760D01*
X15241Y-19790D01*
X15211Y-19815D01*
X15177Y-19834D01*
X15140Y-19845D01*
X15101Y-19849D01*
X15063Y-19846D01*
X15026Y-19835D01*
X14991Y-19817D01*
X14961Y-19792D01*
X14935Y-19762D01*
X14917Y-19728D01*
X14905Y-19691D01*
X14901Y-19652D01*
X14904Y-19614D01*
X14915Y-19577D01*
X14932Y-19542D01*
X14957Y-19512D01*
X14986Y-19486D01*
X15020Y-19467D01*
X15058Y-19455D01*
X15096Y-19451D01*
X15134Y-19454D01*
X15172Y-19464D01*
X15207Y-19482D01*
X15237Y-19506D01*
X15263Y-19535D01*
X15282Y-19569D01*
X15295Y-19606D01*
X15299Y-19645D01*
X15300Y-19650D01*
X14900Y-19450D02*
X15300Y-19850D01*
X15300Y-19450D02*
X14900Y-19850D01*
X16300Y-16650D02*
X16296Y-16688D01*
X16284Y-16726D01*
X16266Y-16760D01*
X16241Y-16790D01*
X16211Y-16815D01*
X16177Y-16834D01*
X16140Y-16845D01*
X16101Y-16849D01*
X16063Y-16846D01*
X16026Y-16835D01*
X15991Y-16817D01*
X15961Y-16792D01*
X15935Y-16762D01*
X15917Y-16728D01*
X15905Y-16691D01*
X15901Y-16652D01*
X15904Y-16614D01*
X15915Y-16577D01*
X15932Y-16542D01*
X15957Y-16512D01*
X15986Y-16486D01*
X16020Y-16467D01*
X16058Y-16455D01*
X16096Y-16451D01*
X16134Y-16454D01*
X16172Y-16464D01*
X16207Y-16482D01*
X16237Y-16506D01*
X16263Y-16535D01*
X16282Y-16569D01*
X16295Y-16606D01*
X16299Y-16645D01*
X16300Y-16650D01*
X15900Y-16450D02*
X16300Y-16850D01*
X16300Y-16450D02*
X15900Y-16850D01*
X16300Y-19650D02*
X16296Y-19688D01*
X16284Y-19726D01*
X16266Y-19760D01*
X16241Y-19790D01*
X16211Y-19815D01*
X16177Y-19834D01*
X16140Y-19845D01*
X16101Y-19849D01*
X16063Y-19846D01*
X16026Y-19835D01*
X15991Y-19817D01*
X15961Y-19792D01*
X15935Y-19762D01*
X15917Y-19728D01*
X15905Y-19691D01*
X15901Y-19652D01*
X15904Y-19614D01*
X15915Y-19577D01*
X15932Y-19542D01*
X15957Y-19512D01*
X15986Y-19486D01*
X16020Y-19467D01*
X16058Y-19455D01*
X16096Y-19451D01*
X16134Y-19454D01*
X16172Y-19464D01*
X16207Y-19482D01*
X16237Y-19506D01*
X16263Y-19535D01*
X16282Y-19569D01*
X16295Y-19606D01*
X16299Y-19645D01*
X16300Y-19650D01*
X15900Y-19450D02*
X16300Y-19850D01*
X16300Y-19450D02*
X15900Y-19850D01*
X17300Y-16650D02*
X17296Y-16688D01*
X17284Y-16726D01*
X17266Y-16760D01*
X17241Y-16790D01*
X17211Y-16815D01*
X17177Y-16834D01*
X17140Y-16845D01*
X17101Y-16849D01*
X17063Y-16846D01*
X17026Y-16835D01*
X16991Y-16817D01*
X16961Y-16792D01*
X16935Y-16762D01*
X16917Y-16728D01*
X16905Y-16691D01*
X16901Y-16652D01*
X16904Y-16614D01*
X16915Y-16577D01*
X16932Y-16542D01*
X16957Y-16512D01*
X16986Y-16486D01*
X17020Y-16467D01*
X17058Y-16455D01*
X17096Y-16451D01*
X17134Y-16454D01*
X17172Y-16464D01*
X17207Y-16482D01*
X17237Y-16506D01*
X17263Y-16535D01*
X17282Y-16569D01*
X17295Y-16606D01*
X17299Y-16645D01*
X17300Y-16650D01*
X16900Y-16450D02*
X17300Y-16850D01*
X17300Y-16450D02*
X16900Y-16850D01*
X17300Y-19650D02*
X17296Y-19688D01*
X17284Y-19726D01*
X17266Y-19760D01*
X17241Y-19790D01*
X17211Y-19815D01*
X17177Y-19834D01*
X17140Y-19845D01*
X17101Y-19849D01*
X17063Y-19846D01*
X17026Y-19835D01*
X16991Y-19817D01*
X16961Y-19792D01*
X16935Y-19762D01*
X16917Y-19728D01*
X16905Y-19691D01*
X16901Y-19652D01*
X16904Y-19614D01*
X16915Y-19577D01*
X16932Y-19542D01*
X16957Y-19512D01*
X16986Y-19486D01*
X17020Y-19467D01*
X17058Y-19455D01*
X17096Y-19451D01*
X17134Y-19454D01*
X17172Y-19464D01*
X17207Y-19482D01*
X17237Y-19506D01*
X17263Y-19535D01*
X17282Y-19569D01*
X17295Y-19606D01*
X17299Y-19645D01*
X17300Y-19650D01*
X16900Y-19450D02*
X17300Y-19850D01*
X17300Y-19450D02*
X16900Y-19850D01*
X17750Y-11800D02*
X17746Y-11838D01*
X17734Y-11876D01*
X17716Y-11910D01*
X17691Y-11940D01*
X17661Y-11965D01*
X17627Y-11984D01*
X17590Y-11995D01*
X17551Y-11999D01*
X17513Y-11996D01*
X17476Y-11985D01*
X17441Y-11967D01*
X17411Y-11942D01*
X17385Y-11912D01*
X17367Y-11878D01*
X17355Y-11841D01*
X17351Y-11802D01*
X17354Y-11764D01*
X17365Y-11727D01*
X17382Y-11692D01*
X17407Y-11662D01*
X17436Y-11636D01*
X17470Y-11617D01*
X17508Y-11605D01*
X17546Y-11601D01*
X17584Y-11604D01*
X17622Y-11614D01*
X17657Y-11632D01*
X17687Y-11656D01*
X17713Y-11685D01*
X17732Y-11719D01*
X17745Y-11756D01*
X17749Y-11795D01*
X17750Y-11800D01*
X17350Y-11600D02*
X17750Y-12000D01*
X17750Y-11600D02*
X17350Y-12000D01*
X18300Y-16650D02*
X18296Y-16688D01*
X18284Y-16726D01*
X18266Y-16760D01*
X18241Y-16790D01*
X18211Y-16815D01*
X18177Y-16834D01*
X18140Y-16845D01*
X18101Y-16849D01*
X18063Y-16846D01*
X18026Y-16835D01*
X17991Y-16817D01*
X17961Y-16792D01*
X17935Y-16762D01*
X17917Y-16728D01*
X17905Y-16691D01*
X17901Y-16652D01*
X17904Y-16614D01*
X17915Y-16577D01*
X17932Y-16542D01*
X17957Y-16512D01*
X17986Y-16486D01*
X18020Y-16467D01*
X18058Y-16455D01*
X18096Y-16451D01*
X18134Y-16454D01*
X18172Y-16464D01*
X18207Y-16482D01*
X18237Y-16506D01*
X18263Y-16535D01*
X18282Y-16569D01*
X18295Y-16606D01*
X18299Y-16645D01*
X18300Y-16650D01*
X17900Y-16450D02*
X18300Y-16850D01*
X18300Y-16450D02*
X17900Y-16850D01*
X18300Y-19650D02*
X18296Y-19688D01*
X18284Y-19726D01*
X18266Y-19760D01*
X18241Y-19790D01*
X18211Y-19815D01*
X18177Y-19834D01*
X18140Y-19845D01*
X18101Y-19849D01*
X18063Y-19846D01*
X18026Y-19835D01*
X17991Y-19817D01*
X17961Y-19792D01*
X17935Y-19762D01*
X17917Y-19728D01*
X17905Y-19691D01*
X17901Y-19652D01*
X17904Y-19614D01*
X17915Y-19577D01*
X17932Y-19542D01*
X17957Y-19512D01*
X17986Y-19486D01*
X18020Y-19467D01*
X18058Y-19455D01*
X18096Y-19451D01*
X18134Y-19454D01*
X18172Y-19464D01*
X18207Y-19482D01*
X18237Y-19506D01*
X18263Y-19535D01*
X18282Y-19569D01*
X18295Y-19606D01*
X18299Y-19645D01*
X18300Y-19650D01*
X17900Y-19450D02*
X18300Y-19850D01*
X18300Y-19450D02*
X17900Y-19850D01*
X18750Y-11800D02*
X18746Y-11838D01*
X18734Y-11876D01*
X18716Y-11910D01*
X18691Y-11940D01*
X18661Y-11965D01*
X18627Y-11984D01*
X18590Y-11995D01*
X18551Y-11999D01*
X18513Y-11996D01*
X18476Y-11985D01*
X18441Y-11967D01*
X18411Y-11942D01*
X18385Y-11912D01*
X18367Y-11878D01*
X18355Y-11841D01*
X18351Y-11802D01*
X18354Y-11764D01*
X18365Y-11727D01*
X18382Y-11692D01*
X18407Y-11662D01*
X18436Y-11636D01*
X18470Y-11617D01*
X18508Y-11605D01*
X18546Y-11601D01*
X18584Y-11604D01*
X18622Y-11614D01*
X18657Y-11632D01*
X18687Y-11656D01*
X18713Y-11685D01*
X18732Y-11719D01*
X18745Y-11756D01*
X18749Y-11795D01*
X18750Y-11800D01*
X18350Y-11600D02*
X18750Y-12000D01*
X18750Y-11600D02*
X18350Y-12000D01*
X19300Y-16650D02*
X19296Y-16688D01*
X19284Y-16726D01*
X19266Y-16760D01*
X19241Y-16790D01*
X19211Y-16815D01*
X19177Y-16834D01*
X19140Y-16845D01*
X19101Y-16849D01*
X19063Y-16846D01*
X19026Y-16835D01*
X18991Y-16817D01*
X18961Y-16792D01*
X18935Y-16762D01*
X18917Y-16728D01*
X18905Y-16691D01*
X18901Y-16652D01*
X18904Y-16614D01*
X18915Y-16577D01*
X18932Y-16542D01*
X18957Y-16512D01*
X18986Y-16486D01*
X19020Y-16467D01*
X19058Y-16455D01*
X19096Y-16451D01*
X19134Y-16454D01*
X19172Y-16464D01*
X19207Y-16482D01*
X19237Y-16506D01*
X19263Y-16535D01*
X19282Y-16569D01*
X19295Y-16606D01*
X19299Y-16645D01*
X19300Y-16650D01*
X18900Y-16450D02*
X19300Y-16850D01*
X19300Y-16450D02*
X18900Y-16850D01*
X19300Y-19650D02*
X19296Y-19688D01*
X19284Y-19726D01*
X19266Y-19760D01*
X19241Y-19790D01*
X19211Y-19815D01*
X19177Y-19834D01*
X19140Y-19845D01*
X19101Y-19849D01*
X19063Y-19846D01*
X19026Y-19835D01*
X18991Y-19817D01*
X18961Y-19792D01*
X18935Y-19762D01*
X18917Y-19728D01*
X18905Y-19691D01*
X18901Y-19652D01*
X18904Y-19614D01*
X18915Y-19577D01*
X18932Y-19542D01*
X18957Y-19512D01*
X18986Y-19486D01*
X19020Y-19467D01*
X19058Y-19455D01*
X19096Y-19451D01*
X19134Y-19454D01*
X19172Y-19464D01*
X19207Y-19482D01*
X19237Y-19506D01*
X19263Y-19535D01*
X19282Y-19569D01*
X19295Y-19606D01*
X19299Y-19645D01*
X19300Y-19650D01*
X18900Y-19450D02*
X19300Y-19850D01*
X19300Y-19450D02*
X18900Y-19850D01*
X19750Y-11800D02*
X19746Y-11838D01*
X19734Y-11876D01*
X19716Y-11910D01*
X19691Y-11940D01*
X19661Y-11965D01*
X19627Y-11984D01*
X19590Y-11995D01*
X19551Y-11999D01*
X19513Y-11996D01*
X19476Y-11985D01*
X19441Y-11967D01*
X19411Y-11942D01*
X19385Y-11912D01*
X19367Y-11878D01*
X19355Y-11841D01*
X19351Y-11802D01*
X19354Y-11764D01*
X19365Y-11727D01*
X19382Y-11692D01*
X19407Y-11662D01*
X19436Y-11636D01*
X19470Y-11617D01*
X19508Y-11605D01*
X19546Y-11601D01*
X19584Y-11604D01*
X19622Y-11614D01*
X19657Y-11632D01*
X19687Y-11656D01*
X19713Y-11685D01*
X19732Y-11719D01*
X19745Y-11756D01*
X19749Y-11795D01*
X19750Y-11800D01*
X19350Y-11600D02*
X19750Y-12000D01*
X19750Y-11600D02*
X19350Y-12000D01*
X20300Y-16650D02*
X20296Y-16688D01*
X20284Y-16726D01*
X20266Y-16760D01*
X20241Y-16790D01*
X20211Y-16815D01*
X20177Y-16834D01*
X20140Y-16845D01*
X20101Y-16849D01*
X20063Y-16846D01*
X20026Y-16835D01*
X19991Y-16817D01*
X19961Y-16792D01*
X19935Y-16762D01*
X19917Y-16728D01*
X19905Y-16691D01*
X19901Y-16652D01*
X19904Y-16614D01*
X19915Y-16577D01*
X19932Y-16542D01*
X19957Y-16512D01*
X19986Y-16486D01*
X20020Y-16467D01*
X20058Y-16455D01*
X20096Y-16451D01*
X20134Y-16454D01*
X20172Y-16464D01*
X20207Y-16482D01*
X20237Y-16506D01*
X20263Y-16535D01*
X20282Y-16569D01*
X20295Y-16606D01*
X20299Y-16645D01*
X20300Y-16650D01*
X19900Y-16450D02*
X20300Y-16850D01*
X20300Y-16450D02*
X19900Y-16850D01*
X20300Y-19650D02*
X20296Y-19688D01*
X20284Y-19726D01*
X20266Y-19760D01*
X20241Y-19790D01*
X20211Y-19815D01*
X20177Y-19834D01*
X20140Y-19845D01*
X20101Y-19849D01*
X20063Y-19846D01*
X20026Y-19835D01*
X19991Y-19817D01*
X19961Y-19792D01*
X19935Y-19762D01*
X19917Y-19728D01*
X19905Y-19691D01*
X19901Y-19652D01*
X19904Y-19614D01*
X19915Y-19577D01*
X19932Y-19542D01*
X19957Y-19512D01*
X19986Y-19486D01*
X20020Y-19467D01*
X20058Y-19455D01*
X20096Y-19451D01*
X20134Y-19454D01*
X20172Y-19464D01*
X20207Y-19482D01*
X20237Y-19506D01*
X20263Y-19535D01*
X20282Y-19569D01*
X20295Y-19606D01*
X20299Y-19645D01*
X20300Y-19650D01*
X19900Y-19450D02*
X20300Y-19850D01*
X20300Y-19450D02*
X19900Y-19850D01*
X20750Y-11800D02*
X20746Y-11838D01*
X20734Y-11876D01*
X20716Y-11910D01*
X20691Y-11940D01*
X20661Y-11965D01*
X20627Y-11984D01*
X20590Y-11995D01*
X20551Y-11999D01*
X20513Y-11996D01*
X20476Y-11985D01*
X20441Y-11967D01*
X20411Y-11942D01*
X20385Y-11912D01*
X20367Y-11878D01*
X20355Y-11841D01*
X20351Y-11802D01*
X20354Y-11764D01*
X20365Y-11727D01*
X20382Y-11692D01*
X20407Y-11662D01*
X20436Y-11636D01*
X20470Y-11617D01*
X20508Y-11605D01*
X20546Y-11601D01*
X20584Y-11604D01*
X20622Y-11614D01*
X20657Y-11632D01*
X20687Y-11656D01*
X20713Y-11685D01*
X20732Y-11719D01*
X20745Y-11756D01*
X20749Y-11795D01*
X20750Y-11800D01*
X20350Y-11600D02*
X20750Y-12000D01*
X20750Y-11600D02*
X20350Y-12000D01*
X21300Y-16650D02*
X21296Y-16688D01*
X21284Y-16726D01*
X21266Y-16760D01*
X21241Y-16790D01*
X21211Y-16815D01*
X21177Y-16834D01*
X21140Y-16845D01*
X21101Y-16849D01*
X21063Y-16846D01*
X21026Y-16835D01*
X20991Y-16817D01*
X20961Y-16792D01*
X20935Y-16762D01*
X20917Y-16728D01*
X20905Y-16691D01*
X20901Y-16652D01*
X20904Y-16614D01*
X20915Y-16577D01*
X20932Y-16542D01*
X20957Y-16512D01*
X20986Y-16486D01*
X21020Y-16467D01*
X21058Y-16455D01*
X21096Y-16451D01*
X21134Y-16454D01*
X21172Y-16464D01*
X21207Y-16482D01*
X21237Y-16506D01*
X21263Y-16535D01*
X21282Y-16569D01*
X21295Y-16606D01*
X21299Y-16645D01*
X21300Y-16650D01*
X20900Y-16450D02*
X21300Y-16850D01*
X21300Y-16450D02*
X20900Y-16850D01*
X21300Y-19650D02*
X21296Y-19688D01*
X21284Y-19726D01*
X21266Y-19760D01*
X21241Y-19790D01*
X21211Y-19815D01*
X21177Y-19834D01*
X21140Y-19845D01*
X21101Y-19849D01*
X21063Y-19846D01*
X21026Y-19835D01*
X20991Y-19817D01*
X20961Y-19792D01*
X20935Y-19762D01*
X20917Y-19728D01*
X20905Y-19691D01*
X20901Y-19652D01*
X20904Y-19614D01*
X20915Y-19577D01*
X20932Y-19542D01*
X20957Y-19512D01*
X20986Y-19486D01*
X21020Y-19467D01*
X21058Y-19455D01*
X21096Y-19451D01*
X21134Y-19454D01*
X21172Y-19464D01*
X21207Y-19482D01*
X21237Y-19506D01*
X21263Y-19535D01*
X21282Y-19569D01*
X21295Y-19606D01*
X21299Y-19645D01*
X21300Y-19650D01*
X20900Y-19450D02*
X21300Y-19850D01*
X21300Y-19450D02*
X20900Y-19850D01*
X21750Y-11800D02*
X21746Y-11838D01*
X21734Y-11876D01*
X21716Y-11910D01*
X21691Y-11940D01*
X21661Y-11965D01*
X21627Y-11984D01*
X21590Y-11995D01*
X21551Y-11999D01*
X21513Y-11996D01*
X21476Y-11985D01*
X21441Y-11967D01*
X21411Y-11942D01*
X21385Y-11912D01*
X21367Y-11878D01*
X21355Y-11841D01*
X21351Y-11802D01*
X21354Y-11764D01*
X21365Y-11727D01*
X21382Y-11692D01*
X21407Y-11662D01*
X21436Y-11636D01*
X21470Y-11617D01*
X21508Y-11605D01*
X21546Y-11601D01*
X21584Y-11604D01*
X21622Y-11614D01*
X21657Y-11632D01*
X21687Y-11656D01*
X21713Y-11685D01*
X21732Y-11719D01*
X21745Y-11756D01*
X21749Y-11795D01*
X21750Y-11800D01*
X21350Y-11600D02*
X21750Y-12000D01*
X21750Y-11600D02*
X21350Y-12000D01*
X22300Y-16650D02*
X22296Y-16688D01*
X22284Y-16726D01*
X22266Y-16760D01*
X22241Y-16790D01*
X22211Y-16815D01*
X22177Y-16834D01*
X22140Y-16845D01*
X22101Y-16849D01*
X22063Y-16846D01*
X22026Y-16835D01*
X21991Y-16817D01*
X21961Y-16792D01*
X21935Y-16762D01*
X21917Y-16728D01*
X21905Y-16691D01*
X21901Y-16652D01*
X21904Y-16614D01*
X21915Y-16577D01*
X21932Y-16542D01*
X21957Y-16512D01*
X21986Y-16486D01*
X22020Y-16467D01*
X22058Y-16455D01*
X22096Y-16451D01*
X22134Y-16454D01*
X22172Y-16464D01*
X22207Y-16482D01*
X22237Y-16506D01*
X22263Y-16535D01*
X22282Y-16569D01*
X22295Y-16606D01*
X22299Y-16645D01*
X22300Y-16650D01*
X21900Y-16450D02*
X22300Y-16850D01*
X22300Y-16450D02*
X21900Y-16850D01*
X22300Y-19650D02*
X22296Y-19688D01*
X22284Y-19726D01*
X22266Y-19760D01*
X22241Y-19790D01*
X22211Y-19815D01*
X22177Y-19834D01*
X22140Y-19845D01*
X22101Y-19849D01*
X22063Y-19846D01*
X22026Y-19835D01*
X21991Y-19817D01*
X21961Y-19792D01*
X21935Y-19762D01*
X21917Y-19728D01*
X21905Y-19691D01*
X21901Y-19652D01*
X21904Y-19614D01*
X21915Y-19577D01*
X21932Y-19542D01*
X21957Y-19512D01*
X21986Y-19486D01*
X22020Y-19467D01*
X22058Y-19455D01*
X22096Y-19451D01*
X22134Y-19454D01*
X22172Y-19464D01*
X22207Y-19482D01*
X22237Y-19506D01*
X22263Y-19535D01*
X22282Y-19569D01*
X22295Y-19606D01*
X22299Y-19645D01*
X22300Y-19650D01*
X21900Y-19450D02*
X22300Y-19850D01*
X22300Y-19450D02*
X21900Y-19850D01*
X22550Y-13350D02*
X22546Y-13388D01*
X22534Y-13426D01*
X22516Y-13460D01*
X22491Y-13490D01*
X22461Y-13515D01*
X22427Y-13534D01*
X22390Y-13545D01*
X22351Y-13549D01*
X22313Y-13546D01*
X22276Y-13535D01*
X22241Y-13517D01*
X22211Y-13492D01*
X22185Y-13462D01*
X22167Y-13428D01*
X22155Y-13391D01*
X22151Y-13352D01*
X22154Y-13314D01*
X22165Y-13277D01*
X22182Y-13242D01*
X22207Y-13212D01*
X22236Y-13186D01*
X22270Y-13167D01*
X22308Y-13155D01*
X22346Y-13151D01*
X22384Y-13154D01*
X22422Y-13164D01*
X22457Y-13182D01*
X22487Y-13206D01*
X22513Y-13235D01*
X22532Y-13269D01*
X22545Y-13306D01*
X22549Y-13345D01*
X22550Y-13350D01*
X22150Y-13150D02*
X22550Y-13550D01*
X22550Y-13150D02*
X22150Y-13550D01*
X22550Y-14350D02*
X22546Y-14388D01*
X22534Y-14426D01*
X22516Y-14460D01*
X22491Y-14490D01*
X22461Y-14515D01*
X22427Y-14534D01*
X22390Y-14545D01*
X22351Y-14549D01*
X22313Y-14546D01*
X22276Y-14535D01*
X22241Y-14517D01*
X22211Y-14492D01*
X22185Y-14462D01*
X22167Y-14428D01*
X22155Y-14391D01*
X22151Y-14352D01*
X22154Y-14314D01*
X22165Y-14277D01*
X22182Y-14242D01*
X22207Y-14212D01*
X22236Y-14186D01*
X22270Y-14167D01*
X22308Y-14155D01*
X22346Y-14151D01*
X22384Y-14154D01*
X22422Y-14164D01*
X22457Y-14182D01*
X22487Y-14206D01*
X22513Y-14235D01*
X22532Y-14269D01*
X22545Y-14306D01*
X22549Y-14345D01*
X22550Y-14350D01*
X22150Y-14150D02*
X22550Y-14550D01*
X22550Y-14150D02*
X22150Y-14550D01*
X22550Y-15350D02*
X22546Y-15388D01*
X22534Y-15426D01*
X22516Y-15460D01*
X22491Y-15490D01*
X22461Y-15515D01*
X22427Y-15534D01*
X22390Y-15545D01*
X22351Y-15549D01*
X22313Y-15546D01*
X22276Y-15535D01*
X22241Y-15517D01*
X22211Y-15492D01*
X22185Y-15462D01*
X22167Y-15428D01*
X22155Y-15391D01*
X22151Y-15352D01*
X22154Y-15314D01*
X22165Y-15277D01*
X22182Y-15242D01*
X22207Y-15212D01*
X22236Y-15186D01*
X22270Y-15167D01*
X22308Y-15155D01*
X22346Y-15151D01*
X22384Y-15154D01*
X22422Y-15164D01*
X22457Y-15182D01*
X22487Y-15206D01*
X22513Y-15235D01*
X22532Y-15269D01*
X22545Y-15306D01*
X22549Y-15345D01*
X22550Y-15350D01*
X22150Y-15150D02*
X22550Y-15550D01*
X22550Y-15150D02*
X22150Y-15550D01*
X22750Y-11800D02*
X22746Y-11838D01*
X22734Y-11876D01*
X22716Y-11910D01*
X22691Y-11940D01*
X22661Y-11965D01*
X22627Y-11984D01*
X22590Y-11995D01*
X22551Y-11999D01*
X22513Y-11996D01*
X22476Y-11985D01*
X22441Y-11967D01*
X22411Y-11942D01*
X22385Y-11912D01*
X22367Y-11878D01*
X22355Y-11841D01*
X22351Y-11802D01*
X22354Y-11764D01*
X22365Y-11727D01*
X22382Y-11692D01*
X22407Y-11662D01*
X22436Y-11636D01*
X22470Y-11617D01*
X22508Y-11605D01*
X22546Y-11601D01*
X22584Y-11604D01*
X22622Y-11614D01*
X22657Y-11632D01*
X22687Y-11656D01*
X22713Y-11685D01*
X22732Y-11719D01*
X22745Y-11756D01*
X22749Y-11795D01*
X22750Y-11800D01*
X22350Y-11600D02*
X22750Y-12000D01*
X22750Y-11600D02*
X22350Y-12000D01*
X23300Y-16650D02*
X23296Y-16688D01*
X23284Y-16726D01*
X23266Y-16760D01*
X23241Y-16790D01*
X23211Y-16815D01*
X23177Y-16834D01*
X23140Y-16845D01*
X23101Y-16849D01*
X23063Y-16846D01*
X23026Y-16835D01*
X22991Y-16817D01*
X22961Y-16792D01*
X22935Y-16762D01*
X22917Y-16728D01*
X22905Y-16691D01*
X22901Y-16652D01*
X22904Y-16614D01*
X22915Y-16577D01*
X22932Y-16542D01*
X22957Y-16512D01*
X22986Y-16486D01*
X23020Y-16467D01*
X23058Y-16455D01*
X23096Y-16451D01*
X23134Y-16454D01*
X23172Y-16464D01*
X23207Y-16482D01*
X23237Y-16506D01*
X23263Y-16535D01*
X23282Y-16569D01*
X23295Y-16606D01*
X23299Y-16645D01*
X23300Y-16650D01*
X22900Y-16450D02*
X23300Y-16850D01*
X23300Y-16450D02*
X22900Y-16850D01*
X23300Y-19650D02*
X23296Y-19688D01*
X23284Y-19726D01*
X23266Y-19760D01*
X23241Y-19790D01*
X23211Y-19815D01*
X23177Y-19834D01*
X23140Y-19845D01*
X23101Y-19849D01*
X23063Y-19846D01*
X23026Y-19835D01*
X22991Y-19817D01*
X22961Y-19792D01*
X22935Y-19762D01*
X22917Y-19728D01*
X22905Y-19691D01*
X22901Y-19652D01*
X22904Y-19614D01*
X22915Y-19577D01*
X22932Y-19542D01*
X22957Y-19512D01*
X22986Y-19486D01*
X23020Y-19467D01*
X23058Y-19455D01*
X23096Y-19451D01*
X23134Y-19454D01*
X23172Y-19464D01*
X23207Y-19482D01*
X23237Y-19506D01*
X23263Y-19535D01*
X23282Y-19569D01*
X23295Y-19606D01*
X23299Y-19645D01*
X23300Y-19650D01*
X22900Y-19450D02*
X23300Y-19850D01*
X23300Y-19450D02*
X22900Y-19850D01*
X24300Y-13950D02*
X24296Y-13988D01*
X24284Y-14026D01*
X24266Y-14060D01*
X24241Y-14090D01*
X24211Y-14115D01*
X24177Y-14134D01*
X24140Y-14145D01*
X24101Y-14149D01*
X24063Y-14146D01*
X24026Y-14135D01*
X23991Y-14117D01*
X23961Y-14092D01*
X23935Y-14062D01*
X23917Y-14028D01*
X23905Y-13991D01*
X23901Y-13952D01*
X23904Y-13914D01*
X23915Y-13877D01*
X23932Y-13842D01*
X23957Y-13812D01*
X23986Y-13786D01*
X24020Y-13767D01*
X24058Y-13755D01*
X24096Y-13751D01*
X24134Y-13754D01*
X24172Y-13764D01*
X24207Y-13782D01*
X24237Y-13806D01*
X24263Y-13835D01*
X24282Y-13869D01*
X24295Y-13906D01*
X24299Y-13945D01*
X24300Y-13950D01*
X23900Y-13750D02*
X24300Y-14150D01*
X24300Y-13750D02*
X23900Y-14150D01*
X24300Y-16650D02*
X24296Y-16688D01*
X24284Y-16726D01*
X24266Y-16760D01*
X24241Y-16790D01*
X24211Y-16815D01*
X24177Y-16834D01*
X24140Y-16845D01*
X24101Y-16849D01*
X24063Y-16846D01*
X24026Y-16835D01*
X23991Y-16817D01*
X23961Y-16792D01*
X23935Y-16762D01*
X23917Y-16728D01*
X23905Y-16691D01*
X23901Y-16652D01*
X23904Y-16614D01*
X23915Y-16577D01*
X23932Y-16542D01*
X23957Y-16512D01*
X23986Y-16486D01*
X24020Y-16467D01*
X24058Y-16455D01*
X24096Y-16451D01*
X24134Y-16454D01*
X24172Y-16464D01*
X24207Y-16482D01*
X24237Y-16506D01*
X24263Y-16535D01*
X24282Y-16569D01*
X24295Y-16606D01*
X24299Y-16645D01*
X24300Y-16650D01*
X23900Y-16450D02*
X24300Y-16850D01*
X24300Y-16450D02*
X23900Y-16850D01*
X24300Y-19650D02*
X24296Y-19688D01*
X24284Y-19726D01*
X24266Y-19760D01*
X24241Y-19790D01*
X24211Y-19815D01*
X24177Y-19834D01*
X24140Y-19845D01*
X24101Y-19849D01*
X24063Y-19846D01*
X24026Y-19835D01*
X23991Y-19817D01*
X23961Y-19792D01*
X23935Y-19762D01*
X23917Y-19728D01*
X23905Y-19691D01*
X23901Y-19652D01*
X23904Y-19614D01*
X23915Y-19577D01*
X23932Y-19542D01*
X23957Y-19512D01*
X23986Y-19486D01*
X24020Y-19467D01*
X24058Y-19455D01*
X24096Y-19451D01*
X24134Y-19454D01*
X24172Y-19464D01*
X24207Y-19482D01*
X24237Y-19506D01*
X24263Y-19535D01*
X24282Y-19569D01*
X24295Y-19606D01*
X24299Y-19645D01*
X24300Y-19650D01*
X23900Y-19450D02*
X24300Y-19850D01*
X24300Y-19450D02*
X23900Y-19850D01*
X24325Y-11400D02*
X24321Y-11438D01*
X24309Y-11476D01*
X24291Y-11510D01*
X24266Y-11540D01*
X24236Y-11565D01*
X24202Y-11584D01*
X24165Y-11595D01*
X24126Y-11599D01*
X24088Y-11596D01*
X24051Y-11585D01*
X24016Y-11567D01*
X23986Y-11542D01*
X23960Y-11512D01*
X23942Y-11478D01*
X23930Y-11441D01*
X23926Y-11402D01*
X23929Y-11364D01*
X23940Y-11327D01*
X23957Y-11292D01*
X23982Y-11262D01*
X24011Y-11236D01*
X24045Y-11217D01*
X24083Y-11205D01*
X24121Y-11201D01*
X24159Y-11204D01*
X24197Y-11214D01*
X24232Y-11232D01*
X24262Y-11256D01*
X24288Y-11285D01*
X24307Y-11319D01*
X24320Y-11356D01*
X24324Y-11395D01*
X24325Y-11400D01*
X23925Y-11200D02*
X24325Y-11600D01*
X24325Y-11200D02*
X23925Y-11600D01*
X24700Y-12900D02*
X24696Y-12938D01*
X24684Y-12976D01*
X24666Y-13010D01*
X24641Y-13040D01*
X24611Y-13065D01*
X24577Y-13084D01*
X24540Y-13095D01*
X24501Y-13099D01*
X24463Y-13096D01*
X24426Y-13085D01*
X24391Y-13067D01*
X24361Y-13042D01*
X24335Y-13012D01*
X24317Y-12978D01*
X24305Y-12941D01*
X24301Y-12902D01*
X24304Y-12864D01*
X24315Y-12827D01*
X24332Y-12792D01*
X24357Y-12762D01*
X24386Y-12736D01*
X24420Y-12717D01*
X24458Y-12705D01*
X24496Y-12701D01*
X24534Y-12704D01*
X24572Y-12714D01*
X24607Y-12732D01*
X24637Y-12756D01*
X24663Y-12785D01*
X24682Y-12819D01*
X24695Y-12856D01*
X24699Y-12895D01*
X24700Y-12900D01*
X24300Y-12700D02*
X24700Y-13100D01*
X24700Y-12700D02*
X24300Y-13100D01*
X25300Y-16650D02*
X25296Y-16688D01*
X25284Y-16726D01*
X25266Y-16760D01*
X25241Y-16790D01*
X25211Y-16815D01*
X25177Y-16834D01*
X25140Y-16845D01*
X25101Y-16849D01*
X25063Y-16846D01*
X25026Y-16835D01*
X24991Y-16817D01*
X24961Y-16792D01*
X24935Y-16762D01*
X24917Y-16728D01*
X24905Y-16691D01*
X24901Y-16652D01*
X24904Y-16614D01*
X24915Y-16577D01*
X24932Y-16542D01*
X24957Y-16512D01*
X24986Y-16486D01*
X25020Y-16467D01*
X25058Y-16455D01*
X25096Y-16451D01*
X25134Y-16454D01*
X25172Y-16464D01*
X25207Y-16482D01*
X25237Y-16506D01*
X25263Y-16535D01*
X25282Y-16569D01*
X25295Y-16606D01*
X25299Y-16645D01*
X25300Y-16650D01*
X24900Y-16450D02*
X25300Y-16850D01*
X25300Y-16450D02*
X24900Y-16850D01*
X25300Y-19650D02*
X25296Y-19688D01*
X25284Y-19726D01*
X25266Y-19760D01*
X25241Y-19790D01*
X25211Y-19815D01*
X25177Y-19834D01*
X25140Y-19845D01*
X25101Y-19849D01*
X25063Y-19846D01*
X25026Y-19835D01*
X24991Y-19817D01*
X24961Y-19792D01*
X24935Y-19762D01*
X24917Y-19728D01*
X24905Y-19691D01*
X24901Y-19652D01*
X24904Y-19614D01*
X24915Y-19577D01*
X24932Y-19542D01*
X24957Y-19512D01*
X24986Y-19486D01*
X25020Y-19467D01*
X25058Y-19455D01*
X25096Y-19451D01*
X25134Y-19454D01*
X25172Y-19464D01*
X25207Y-19482D01*
X25237Y-19506D01*
X25263Y-19535D01*
X25282Y-19569D01*
X25295Y-19606D01*
X25299Y-19645D01*
X25300Y-19650D01*
X24900Y-19450D02*
X25300Y-19850D01*
X25300Y-19450D02*
X24900Y-19850D01*
X25700Y-12900D02*
X25696Y-12938D01*
X25684Y-12976D01*
X25666Y-13010D01*
X25641Y-13040D01*
X25611Y-13065D01*
X25577Y-13084D01*
X25540Y-13095D01*
X25501Y-13099D01*
X25463Y-13096D01*
X25426Y-13085D01*
X25391Y-13067D01*
X25361Y-13042D01*
X25335Y-13012D01*
X25317Y-12978D01*
X25305Y-12941D01*
X25301Y-12902D01*
X25304Y-12864D01*
X25315Y-12827D01*
X25332Y-12792D01*
X25357Y-12762D01*
X25386Y-12736D01*
X25420Y-12717D01*
X25458Y-12705D01*
X25496Y-12701D01*
X25534Y-12704D01*
X25572Y-12714D01*
X25607Y-12732D01*
X25637Y-12756D01*
X25663Y-12785D01*
X25682Y-12819D01*
X25695Y-12856D01*
X25699Y-12895D01*
X25700Y-12900D01*
X25300Y-12700D02*
X25700Y-13100D01*
X25700Y-12700D02*
X25300Y-13100D01*
X26050Y-13950D02*
X26046Y-13988D01*
X26034Y-14026D01*
X26016Y-14060D01*
X25991Y-14090D01*
X25961Y-14115D01*
X25927Y-14134D01*
X25890Y-14145D01*
X25851Y-14149D01*
X25813Y-14146D01*
X25776Y-14135D01*
X25741Y-14117D01*
X25711Y-14092D01*
X25685Y-14062D01*
X25667Y-14028D01*
X25655Y-13991D01*
X25651Y-13952D01*
X25654Y-13914D01*
X25665Y-13877D01*
X25682Y-13842D01*
X25707Y-13812D01*
X25736Y-13786D01*
X25770Y-13767D01*
X25808Y-13755D01*
X25846Y-13751D01*
X25884Y-13754D01*
X25922Y-13764D01*
X25957Y-13782D01*
X25987Y-13806D01*
X26013Y-13835D01*
X26032Y-13869D01*
X26045Y-13906D01*
X26049Y-13945D01*
X26050Y-13950D01*
X25650Y-13750D02*
X26050Y-14150D01*
X26050Y-13750D02*
X25650Y-14150D01*
X26075Y-11400D02*
X26071Y-11438D01*
X26059Y-11476D01*
X26041Y-11510D01*
X26016Y-11540D01*
X25986Y-11565D01*
X25952Y-11584D01*
X25915Y-11595D01*
X25876Y-11599D01*
X25838Y-11596D01*
X25801Y-11585D01*
X25766Y-11567D01*
X25736Y-11542D01*
X25710Y-11512D01*
X25692Y-11478D01*
X25680Y-11441D01*
X25676Y-11402D01*
X25679Y-11364D01*
X25690Y-11327D01*
X25707Y-11292D01*
X25732Y-11262D01*
X25761Y-11236D01*
X25795Y-11217D01*
X25833Y-11205D01*
X25871Y-11201D01*
X25909Y-11204D01*
X25947Y-11214D01*
X25982Y-11232D01*
X26012Y-11256D01*
X26038Y-11285D01*
X26057Y-11319D01*
X26070Y-11356D01*
X26074Y-11395D01*
X26075Y-11400D01*
X25675Y-11200D02*
X26075Y-11600D01*
X26075Y-11200D02*
X25675Y-11600D01*
X26300Y-16650D02*
X26296Y-16688D01*
X26284Y-16726D01*
X26266Y-16760D01*
X26241Y-16790D01*
X26211Y-16815D01*
X26177Y-16834D01*
X26140Y-16845D01*
X26101Y-16849D01*
X26063Y-16846D01*
X26026Y-16835D01*
X25991Y-16817D01*
X25961Y-16792D01*
X25935Y-16762D01*
X25917Y-16728D01*
X25905Y-16691D01*
X25901Y-16652D01*
X25904Y-16614D01*
X25915Y-16577D01*
X25932Y-16542D01*
X25957Y-16512D01*
X25986Y-16486D01*
X26020Y-16467D01*
X26058Y-16455D01*
X26096Y-16451D01*
X26134Y-16454D01*
X26172Y-16464D01*
X26207Y-16482D01*
X26237Y-16506D01*
X26263Y-16535D01*
X26282Y-16569D01*
X26295Y-16606D01*
X26299Y-16645D01*
X26300Y-16650D01*
X25900Y-16450D02*
X26300Y-16850D01*
X26300Y-16450D02*
X25900Y-16850D01*
X26300Y-19650D02*
X26296Y-19688D01*
X26284Y-19726D01*
X26266Y-19760D01*
X26241Y-19790D01*
X26211Y-19815D01*
X26177Y-19834D01*
X26140Y-19845D01*
X26101Y-19849D01*
X26063Y-19846D01*
X26026Y-19835D01*
X25991Y-19817D01*
X25961Y-19792D01*
X25935Y-19762D01*
X25917Y-19728D01*
X25905Y-19691D01*
X25901Y-19652D01*
X25904Y-19614D01*
X25915Y-19577D01*
X25932Y-19542D01*
X25957Y-19512D01*
X25986Y-19486D01*
X26020Y-19467D01*
X26058Y-19455D01*
X26096Y-19451D01*
X26134Y-19454D01*
X26172Y-19464D01*
X26207Y-19482D01*
X26237Y-19506D01*
X26263Y-19535D01*
X26282Y-19569D01*
X26295Y-19606D01*
X26299Y-19645D01*
X26300Y-19650D01*
X25900Y-19450D02*
X26300Y-19850D01*
X26300Y-19450D02*
X25900Y-19850D01*
X27300Y-16650D02*
X27296Y-16688D01*
X27284Y-16726D01*
X27266Y-16760D01*
X27241Y-16790D01*
X27211Y-16815D01*
X27177Y-16834D01*
X27140Y-16845D01*
X27101Y-16849D01*
X27063Y-16846D01*
X27026Y-16835D01*
X26991Y-16817D01*
X26961Y-16792D01*
X26935Y-16762D01*
X26917Y-16728D01*
X26905Y-16691D01*
X26901Y-16652D01*
X26904Y-16614D01*
X26915Y-16577D01*
X26932Y-16542D01*
X26957Y-16512D01*
X26986Y-16486D01*
X27020Y-16467D01*
X27058Y-16455D01*
X27096Y-16451D01*
X27134Y-16454D01*
X27172Y-16464D01*
X27207Y-16482D01*
X27237Y-16506D01*
X27263Y-16535D01*
X27282Y-16569D01*
X27295Y-16606D01*
X27299Y-16645D01*
X27300Y-16650D01*
X26900Y-16450D02*
X27300Y-16850D01*
X27300Y-16450D02*
X26900Y-16850D01*
X27300Y-19650D02*
X27296Y-19688D01*
X27284Y-19726D01*
X27266Y-19760D01*
X27241Y-19790D01*
X27211Y-19815D01*
X27177Y-19834D01*
X27140Y-19845D01*
X27101Y-19849D01*
X27063Y-19846D01*
X27026Y-19835D01*
X26991Y-19817D01*
X26961Y-19792D01*
X26935Y-19762D01*
X26917Y-19728D01*
X26905Y-19691D01*
X26901Y-19652D01*
X26904Y-19614D01*
X26915Y-19577D01*
X26932Y-19542D01*
X26957Y-19512D01*
X26986Y-19486D01*
X27020Y-19467D01*
X27058Y-19455D01*
X27096Y-19451D01*
X27134Y-19454D01*
X27172Y-19464D01*
X27207Y-19482D01*
X27237Y-19506D01*
X27263Y-19535D01*
X27282Y-19569D01*
X27295Y-19606D01*
X27299Y-19645D01*
X27300Y-19650D01*
X26900Y-19450D02*
X27300Y-19850D01*
X27300Y-19450D02*
X26900Y-19850D01*
X27650Y-11700D02*
X27646Y-11738D01*
X27634Y-11776D01*
X27616Y-11810D01*
X27591Y-11840D01*
X27561Y-11865D01*
X27527Y-11884D01*
X27490Y-11895D01*
X27451Y-11899D01*
X27413Y-11896D01*
X27376Y-11885D01*
X27341Y-11867D01*
X27311Y-11842D01*
X27285Y-11812D01*
X27267Y-11778D01*
X27255Y-11741D01*
X27251Y-11702D01*
X27254Y-11664D01*
X27265Y-11627D01*
X27282Y-11592D01*
X27307Y-11562D01*
X27336Y-11536D01*
X27370Y-11517D01*
X27408Y-11505D01*
X27446Y-11501D01*
X27484Y-11504D01*
X27522Y-11514D01*
X27557Y-11532D01*
X27587Y-11556D01*
X27613Y-11585D01*
X27632Y-11619D01*
X27645Y-11656D01*
X27649Y-11695D01*
X27650Y-11700D01*
X27250Y-11500D02*
X27650Y-11900D01*
X27650Y-11500D02*
X27250Y-11900D01*
X27650Y-12700D02*
X27646Y-12738D01*
X27634Y-12776D01*
X27616Y-12810D01*
X27591Y-12840D01*
X27561Y-12865D01*
X27527Y-12884D01*
X27490Y-12895D01*
X27451Y-12899D01*
X27413Y-12896D01*
X27376Y-12885D01*
X27341Y-12867D01*
X27311Y-12842D01*
X27285Y-12812D01*
X27267Y-12778D01*
X27255Y-12741D01*
X27251Y-12702D01*
X27254Y-12664D01*
X27265Y-12627D01*
X27282Y-12592D01*
X27307Y-12562D01*
X27336Y-12536D01*
X27370Y-12517D01*
X27408Y-12505D01*
X27446Y-12501D01*
X27484Y-12504D01*
X27522Y-12514D01*
X27557Y-12532D01*
X27587Y-12556D01*
X27613Y-12585D01*
X27632Y-12619D01*
X27645Y-12656D01*
X27649Y-12695D01*
X27650Y-12700D01*
X27250Y-12500D02*
X27650Y-12900D01*
X27650Y-12500D02*
X27250Y-12900D01*
X27650Y-13700D02*
X27646Y-13738D01*
X27634Y-13776D01*
X27616Y-13810D01*
X27591Y-13840D01*
X27561Y-13865D01*
X27527Y-13884D01*
X27490Y-13895D01*
X27451Y-13899D01*
X27413Y-13896D01*
X27376Y-13885D01*
X27341Y-13867D01*
X27311Y-13842D01*
X27285Y-13812D01*
X27267Y-13778D01*
X27255Y-13741D01*
X27251Y-13702D01*
X27254Y-13664D01*
X27265Y-13627D01*
X27282Y-13592D01*
X27307Y-13562D01*
X27336Y-13536D01*
X27370Y-13517D01*
X27408Y-13505D01*
X27446Y-13501D01*
X27484Y-13504D01*
X27522Y-13514D01*
X27557Y-13532D01*
X27587Y-13556D01*
X27613Y-13585D01*
X27632Y-13619D01*
X27645Y-13656D01*
X27649Y-13695D01*
X27650Y-13700D01*
X27250Y-13500D02*
X27650Y-13900D01*
X27650Y-13500D02*
X27250Y-13900D01*
X27650Y-14700D02*
X27646Y-14738D01*
X27634Y-14776D01*
X27616Y-14810D01*
X27591Y-14840D01*
X27561Y-14865D01*
X27527Y-14884D01*
X27490Y-14895D01*
X27451Y-14899D01*
X27413Y-14896D01*
X27376Y-14885D01*
X27341Y-14867D01*
X27311Y-14842D01*
X27285Y-14812D01*
X27267Y-14778D01*
X27255Y-14741D01*
X27251Y-14702D01*
X27254Y-14664D01*
X27265Y-14627D01*
X27282Y-14592D01*
X27307Y-14562D01*
X27336Y-14536D01*
X27370Y-14517D01*
X27408Y-14505D01*
X27446Y-14501D01*
X27484Y-14504D01*
X27522Y-14514D01*
X27557Y-14532D01*
X27587Y-14556D01*
X27613Y-14585D01*
X27632Y-14619D01*
X27645Y-14656D01*
X27649Y-14695D01*
X27650Y-14700D01*
X27250Y-14500D02*
X27650Y-14900D01*
X27650Y-14500D02*
X27250Y-14900D01*
X28975Y-18475D02*
X28971Y-18513D01*
X28959Y-18551D01*
X28941Y-18585D01*
X28916Y-18615D01*
X28886Y-18640D01*
X28852Y-18659D01*
X28815Y-18670D01*
X28776Y-18674D01*
X28738Y-18671D01*
X28701Y-18660D01*
X28666Y-18642D01*
X28636Y-18617D01*
X28610Y-18587D01*
X28592Y-18553D01*
X28580Y-18516D01*
X28576Y-18477D01*
X28579Y-18439D01*
X28590Y-18402D01*
X28607Y-18367D01*
X28632Y-18337D01*
X28661Y-18311D01*
X28695Y-18292D01*
X28733Y-18280D01*
X28771Y-18276D01*
X28809Y-18279D01*
X28847Y-18289D01*
X28882Y-18307D01*
X28912Y-18331D01*
X28938Y-18360D01*
X28957Y-18394D01*
X28970Y-18431D01*
X28974Y-18470D01*
X28975Y-18475D01*
X28575Y-18275D02*
X28975Y-18675D01*
X28975Y-18275D02*
X28575Y-18675D01*
X28975Y-19475D02*
X28971Y-19513D01*
X28959Y-19551D01*
X28941Y-19585D01*
X28916Y-19615D01*
X28886Y-19640D01*
X28852Y-19659D01*
X28815Y-19670D01*
X28776Y-19674D01*
X28738Y-19671D01*
X28701Y-19660D01*
X28666Y-19642D01*
X28636Y-19617D01*
X28610Y-19587D01*
X28592Y-19553D01*
X28580Y-19516D01*
X28576Y-19477D01*
X28579Y-19439D01*
X28590Y-19402D01*
X28607Y-19367D01*
X28632Y-19337D01*
X28661Y-19311D01*
X28695Y-19292D01*
X28733Y-19280D01*
X28771Y-19276D01*
X28809Y-19279D01*
X28847Y-19289D01*
X28882Y-19307D01*
X28912Y-19331D01*
X28938Y-19360D01*
X28957Y-19394D01*
X28970Y-19431D01*
X28974Y-19470D01*
X28975Y-19475D01*
X28575Y-19275D02*
X28975Y-19675D01*
X28975Y-19275D02*
X28575Y-19675D01*
X28975Y-20475D02*
X28971Y-20513D01*
X28959Y-20551D01*
X28941Y-20585D01*
X28916Y-20615D01*
X28886Y-20640D01*
X28852Y-20659D01*
X28815Y-20670D01*
X28776Y-20674D01*
X28738Y-20671D01*
X28701Y-20660D01*
X28666Y-20642D01*
X28636Y-20617D01*
X28610Y-20587D01*
X28592Y-20553D01*
X28580Y-20516D01*
X28576Y-20477D01*
X28579Y-20439D01*
X28590Y-20402D01*
X28607Y-20367D01*
X28632Y-20337D01*
X28661Y-20311D01*
X28695Y-20292D01*
X28733Y-20280D01*
X28771Y-20276D01*
X28809Y-20279D01*
X28847Y-20289D01*
X28882Y-20307D01*
X28912Y-20331D01*
X28938Y-20360D01*
X28957Y-20394D01*
X28970Y-20431D01*
X28974Y-20470D01*
X28975Y-20475D01*
X28575Y-20275D02*
X28975Y-20675D01*
X28975Y-20275D02*
X28575Y-20675D01*
X28975Y-21475D02*
X28971Y-21513D01*
X28959Y-21551D01*
X28941Y-21585D01*
X28916Y-21615D01*
X28886Y-21640D01*
X28852Y-21659D01*
X28815Y-21670D01*
X28776Y-21674D01*
X28738Y-21671D01*
X28701Y-21660D01*
X28666Y-21642D01*
X28636Y-21617D01*
X28610Y-21587D01*
X28592Y-21553D01*
X28580Y-21516D01*
X28576Y-21477D01*
X28579Y-21439D01*
X28590Y-21402D01*
X28607Y-21367D01*
X28632Y-21337D01*
X28661Y-21311D01*
X28695Y-21292D01*
X28733Y-21280D01*
X28771Y-21276D01*
X28809Y-21279D01*
X28847Y-21289D01*
X28882Y-21307D01*
X28912Y-21331D01*
X28938Y-21360D01*
X28957Y-21394D01*
X28970Y-21431D01*
X28974Y-21470D01*
X28975Y-21475D01*
X28575Y-21275D02*
X28975Y-21675D01*
X28975Y-21275D02*
X28575Y-21675D01*
X29325Y-23250D02*
X29321Y-23288D01*
X29309Y-23326D01*
X29291Y-23360D01*
X29266Y-23390D01*
X29236Y-23415D01*
X29202Y-23434D01*
X29165Y-23445D01*
X29126Y-23449D01*
X29088Y-23446D01*
X29051Y-23435D01*
X29016Y-23417D01*
X28986Y-23392D01*
X28960Y-23362D01*
X28942Y-23328D01*
X28930Y-23291D01*
X28926Y-23252D01*
X28929Y-23214D01*
X28940Y-23177D01*
X28957Y-23142D01*
X28982Y-23112D01*
X29011Y-23086D01*
X29045Y-23067D01*
X29083Y-23055D01*
X29121Y-23051D01*
X29159Y-23054D01*
X29197Y-23064D01*
X29232Y-23082D01*
X29262Y-23106D01*
X29288Y-23135D01*
X29307Y-23169D01*
X29320Y-23206D01*
X29324Y-23245D01*
X29325Y-23250D01*
X28925Y-23050D02*
X29325Y-23450D01*
X29325Y-23050D02*
X28925Y-23450D01*
X30325Y-23250D02*
X30321Y-23288D01*
X30309Y-23326D01*
X30291Y-23360D01*
X30266Y-23390D01*
X30236Y-23415D01*
X30202Y-23434D01*
X30165Y-23445D01*
X30126Y-23449D01*
X30088Y-23446D01*
X30051Y-23435D01*
X30016Y-23417D01*
X29986Y-23392D01*
X29960Y-23362D01*
X29942Y-23328D01*
X29930Y-23291D01*
X29926Y-23252D01*
X29929Y-23214D01*
X29940Y-23177D01*
X29957Y-23142D01*
X29982Y-23112D01*
X30011Y-23086D01*
X30045Y-23067D01*
X30083Y-23055D01*
X30121Y-23051D01*
X30159Y-23054D01*
X30197Y-23064D01*
X30232Y-23082D01*
X30262Y-23106D01*
X30288Y-23135D01*
X30307Y-23169D01*
X30320Y-23206D01*
X30324Y-23245D01*
X30325Y-23250D01*
X29925Y-23050D02*
X30325Y-23450D01*
X30325Y-23050D02*
X29925Y-23450D01*
X30650Y-11700D02*
X30646Y-11738D01*
X30634Y-11776D01*
X30616Y-11810D01*
X30591Y-11840D01*
X30561Y-11865D01*
X30527Y-11884D01*
X30490Y-11895D01*
X30451Y-11899D01*
X30413Y-11896D01*
X30376Y-11885D01*
X30341Y-11867D01*
X30311Y-11842D01*
X30285Y-11812D01*
X30267Y-11778D01*
X30255Y-11741D01*
X30251Y-11702D01*
X30254Y-11664D01*
X30265Y-11627D01*
X30282Y-11592D01*
X30307Y-11562D01*
X30336Y-11536D01*
X30370Y-11517D01*
X30408Y-11505D01*
X30446Y-11501D01*
X30484Y-11504D01*
X30522Y-11514D01*
X30557Y-11532D01*
X30587Y-11556D01*
X30613Y-11585D01*
X30632Y-11619D01*
X30645Y-11656D01*
X30649Y-11695D01*
X30650Y-11700D01*
X30250Y-11500D02*
X30650Y-11900D01*
X30650Y-11500D02*
X30250Y-11900D01*
X30650Y-12700D02*
X30646Y-12738D01*
X30634Y-12776D01*
X30616Y-12810D01*
X30591Y-12840D01*
X30561Y-12865D01*
X30527Y-12884D01*
X30490Y-12895D01*
X30451Y-12899D01*
X30413Y-12896D01*
X30376Y-12885D01*
X30341Y-12867D01*
X30311Y-12842D01*
X30285Y-12812D01*
X30267Y-12778D01*
X30255Y-12741D01*
X30251Y-12702D01*
X30254Y-12664D01*
X30265Y-12627D01*
X30282Y-12592D01*
X30307Y-12562D01*
X30336Y-12536D01*
X30370Y-12517D01*
X30408Y-12505D01*
X30446Y-12501D01*
X30484Y-12504D01*
X30522Y-12514D01*
X30557Y-12532D01*
X30587Y-12556D01*
X30613Y-12585D01*
X30632Y-12619D01*
X30645Y-12656D01*
X30649Y-12695D01*
X30650Y-12700D01*
X30250Y-12500D02*
X30650Y-12900D01*
X30650Y-12500D02*
X30250Y-12900D01*
X30650Y-13700D02*
X30646Y-13738D01*
X30634Y-13776D01*
X30616Y-13810D01*
X30591Y-13840D01*
X30561Y-13865D01*
X30527Y-13884D01*
X30490Y-13895D01*
X30451Y-13899D01*
X30413Y-13896D01*
X30376Y-13885D01*
X30341Y-13867D01*
X30311Y-13842D01*
X30285Y-13812D01*
X30267Y-13778D01*
X30255Y-13741D01*
X30251Y-13702D01*
X30254Y-13664D01*
X30265Y-13627D01*
X30282Y-13592D01*
X30307Y-13562D01*
X30336Y-13536D01*
X30370Y-13517D01*
X30408Y-13505D01*
X30446Y-13501D01*
X30484Y-13504D01*
X30522Y-13514D01*
X30557Y-13532D01*
X30587Y-13556D01*
X30613Y-13585D01*
X30632Y-13619D01*
X30645Y-13656D01*
X30649Y-13695D01*
X30650Y-13700D01*
X30250Y-13500D02*
X30650Y-13900D01*
X30650Y-13500D02*
X30250Y-13900D01*
X30650Y-14700D02*
X30646Y-14738D01*
X30634Y-14776D01*
X30616Y-14810D01*
X30591Y-14840D01*
X30561Y-14865D01*
X30527Y-14884D01*
X30490Y-14895D01*
X30451Y-14899D01*
X30413Y-14896D01*
X30376Y-14885D01*
X30341Y-14867D01*
X30311Y-14842D01*
X30285Y-14812D01*
X30267Y-14778D01*
X30255Y-14741D01*
X30251Y-14702D01*
X30254Y-14664D01*
X30265Y-14627D01*
X30282Y-14592D01*
X30307Y-14562D01*
X30336Y-14536D01*
X30370Y-14517D01*
X30408Y-14505D01*
X30446Y-14501D01*
X30484Y-14504D01*
X30522Y-14514D01*
X30557Y-14532D01*
X30587Y-14556D01*
X30613Y-14585D01*
X30632Y-14619D01*
X30645Y-14656D01*
X30649Y-14695D01*
X30650Y-14700D01*
X30250Y-14500D02*
X30650Y-14900D01*
X30650Y-14500D02*
X30250Y-14900D01*
X31325Y-23250D02*
X31321Y-23288D01*
X31309Y-23326D01*
X31291Y-23360D01*
X31266Y-23390D01*
X31236Y-23415D01*
X31202Y-23434D01*
X31165Y-23445D01*
X31126Y-23449D01*
X31088Y-23446D01*
X31051Y-23435D01*
X31016Y-23417D01*
X30986Y-23392D01*
X30960Y-23362D01*
X30942Y-23328D01*
X30930Y-23291D01*
X30926Y-23252D01*
X30929Y-23214D01*
X30940Y-23177D01*
X30957Y-23142D01*
X30982Y-23112D01*
X31011Y-23086D01*
X31045Y-23067D01*
X31083Y-23055D01*
X31121Y-23051D01*
X31159Y-23054D01*
X31197Y-23064D01*
X31232Y-23082D01*
X31262Y-23106D01*
X31288Y-23135D01*
X31307Y-23169D01*
X31320Y-23206D01*
X31324Y-23245D01*
X31325Y-23250D01*
X30925Y-23050D02*
X31325Y-23450D01*
X31325Y-23050D02*
X30925Y-23450D01*
X33275Y-23250D02*
X33271Y-23288D01*
X33259Y-23326D01*
X33241Y-23360D01*
X33216Y-23390D01*
X33186Y-23415D01*
X33152Y-23434D01*
X33115Y-23445D01*
X33076Y-23449D01*
X33038Y-23446D01*
X33001Y-23435D01*
X32966Y-23417D01*
X32936Y-23392D01*
X32910Y-23362D01*
X32892Y-23328D01*
X32880Y-23291D01*
X32876Y-23252D01*
X32879Y-23214D01*
X32890Y-23177D01*
X32907Y-23142D01*
X32932Y-23112D01*
X32961Y-23086D01*
X32995Y-23067D01*
X33033Y-23055D01*
X33071Y-23051D01*
X33109Y-23054D01*
X33147Y-23064D01*
X33182Y-23082D01*
X33212Y-23106D01*
X33238Y-23135D01*
X33257Y-23169D01*
X33270Y-23206D01*
X33274Y-23245D01*
X33275Y-23250D01*
X32875Y-23050D02*
X33275Y-23450D01*
X33275Y-23050D02*
X32875Y-23450D01*
X34275Y-23250D02*
X34271Y-23288D01*
X34259Y-23326D01*
X34241Y-23360D01*
X34216Y-23390D01*
X34186Y-23415D01*
X34152Y-23434D01*
X34115Y-23445D01*
X34076Y-23449D01*
X34038Y-23446D01*
X34001Y-23435D01*
X33966Y-23417D01*
X33936Y-23392D01*
X33910Y-23362D01*
X33892Y-23328D01*
X33880Y-23291D01*
X33876Y-23252D01*
X33879Y-23214D01*
X33890Y-23177D01*
X33907Y-23142D01*
X33932Y-23112D01*
X33961Y-23086D01*
X33995Y-23067D01*
X34033Y-23055D01*
X34071Y-23051D01*
X34109Y-23054D01*
X34147Y-23064D01*
X34182Y-23082D01*
X34212Y-23106D01*
X34238Y-23135D01*
X34257Y-23169D01*
X34270Y-23206D01*
X34274Y-23245D01*
X34275Y-23250D01*
X33875Y-23050D02*
X34275Y-23450D01*
X34275Y-23050D02*
X33875Y-23450D01*
X39150Y-10975D02*
X39146Y-11013D01*
X39134Y-11051D01*
X39116Y-11085D01*
X39091Y-11115D01*
X39061Y-11140D01*
X39027Y-11159D01*
X38990Y-11170D01*
X38951Y-11174D01*
X38913Y-11171D01*
X38876Y-11160D01*
X38841Y-11142D01*
X38811Y-11117D01*
X38785Y-11087D01*
X38767Y-11053D01*
X38755Y-11016D01*
X38751Y-10977D01*
X38754Y-10939D01*
X38765Y-10902D01*
X38782Y-10867D01*
X38807Y-10837D01*
X38836Y-10811D01*
X38870Y-10792D01*
X38908Y-10780D01*
X38946Y-10776D01*
X38984Y-10779D01*
X39022Y-10789D01*
X39057Y-10807D01*
X39087Y-10831D01*
X39113Y-10860D01*
X39132Y-10894D01*
X39145Y-10931D01*
X39149Y-10970D01*
X39150Y-10975D01*
X38750Y-10775D02*
X39150Y-11175D01*
X39150Y-10775D02*
X38750Y-11175D01*
X39150Y-11975D02*
X39146Y-12013D01*
X39134Y-12051D01*
X39116Y-12085D01*
X39091Y-12115D01*
X39061Y-12140D01*
X39027Y-12159D01*
X38990Y-12170D01*
X38951Y-12174D01*
X38913Y-12171D01*
X38876Y-12160D01*
X38841Y-12142D01*
X38811Y-12117D01*
X38785Y-12087D01*
X38767Y-12053D01*
X38755Y-12016D01*
X38751Y-11977D01*
X38754Y-11939D01*
X38765Y-11902D01*
X38782Y-11867D01*
X38807Y-11837D01*
X38836Y-11811D01*
X38870Y-11792D01*
X38908Y-11780D01*
X38946Y-11776D01*
X38984Y-11779D01*
X39022Y-11789D01*
X39057Y-11807D01*
X39087Y-11831D01*
X39113Y-11860D01*
X39132Y-11894D01*
X39145Y-11931D01*
X39149Y-11970D01*
X39150Y-11975D01*
X38750Y-11775D02*
X39150Y-12175D01*
X39150Y-11775D02*
X38750Y-12175D01*
X39150Y-12975D02*
X39146Y-13013D01*
X39134Y-13051D01*
X39116Y-13085D01*
X39091Y-13115D01*
X39061Y-13140D01*
X39027Y-13159D01*
X38990Y-13170D01*
X38951Y-13174D01*
X38913Y-13171D01*
X38876Y-13160D01*
X38841Y-13142D01*
X38811Y-13117D01*
X38785Y-13087D01*
X38767Y-13053D01*
X38755Y-13016D01*
X38751Y-12977D01*
X38754Y-12939D01*
X38765Y-12902D01*
X38782Y-12867D01*
X38807Y-12837D01*
X38836Y-12811D01*
X38870Y-12792D01*
X38908Y-12780D01*
X38946Y-12776D01*
X38984Y-12779D01*
X39022Y-12789D01*
X39057Y-12807D01*
X39087Y-12831D01*
X39113Y-12860D01*
X39132Y-12894D01*
X39145Y-12931D01*
X39149Y-12970D01*
X39150Y-12975D01*
X38750Y-12775D02*
X39150Y-13175D01*
X39150Y-12775D02*
X38750Y-13175D01*
X39150Y-13975D02*
X39146Y-14013D01*
X39134Y-14051D01*
X39116Y-14085D01*
X39091Y-14115D01*
X39061Y-14140D01*
X39027Y-14159D01*
X38990Y-14170D01*
X38951Y-14174D01*
X38913Y-14171D01*
X38876Y-14160D01*
X38841Y-14142D01*
X38811Y-14117D01*
X38785Y-14087D01*
X38767Y-14053D01*
X38755Y-14016D01*
X38751Y-13977D01*
X38754Y-13939D01*
X38765Y-13902D01*
X38782Y-13867D01*
X38807Y-13837D01*
X38836Y-13811D01*
X38870Y-13792D01*
X38908Y-13780D01*
X38946Y-13776D01*
X38984Y-13779D01*
X39022Y-13789D01*
X39057Y-13807D01*
X39087Y-13831D01*
X39113Y-13860D01*
X39132Y-13894D01*
X39145Y-13931D01*
X39149Y-13970D01*
X39150Y-13975D01*
X38750Y-13775D02*
X39150Y-14175D01*
X39150Y-13775D02*
X38750Y-14175D01*
X39150Y-14975D02*
X39146Y-15013D01*
X39134Y-15051D01*
X39116Y-15085D01*
X39091Y-15115D01*
X39061Y-15140D01*
X39027Y-15159D01*
X38990Y-15170D01*
X38951Y-15174D01*
X38913Y-15171D01*
X38876Y-15160D01*
X38841Y-15142D01*
X38811Y-15117D01*
X38785Y-15087D01*
X38767Y-15053D01*
X38755Y-15016D01*
X38751Y-14977D01*
X38754Y-14939D01*
X38765Y-14902D01*
X38782Y-14867D01*
X38807Y-14837D01*
X38836Y-14811D01*
X38870Y-14792D01*
X38908Y-14780D01*
X38946Y-14776D01*
X38984Y-14779D01*
X39022Y-14789D01*
X39057Y-14807D01*
X39087Y-14831D01*
X39113Y-14860D01*
X39132Y-14894D01*
X39145Y-14931D01*
X39149Y-14970D01*
X39150Y-14975D01*
X38750Y-14775D02*
X39150Y-15175D01*
X39150Y-14775D02*
X38750Y-15175D01*
X39150Y-15975D02*
X39146Y-16013D01*
X39134Y-16051D01*
X39116Y-16085D01*
X39091Y-16115D01*
X39061Y-16140D01*
X39027Y-16159D01*
X38990Y-16170D01*
X38951Y-16174D01*
X38913Y-16171D01*
X38876Y-16160D01*
X38841Y-16142D01*
X38811Y-16117D01*
X38785Y-16087D01*
X38767Y-16053D01*
X38755Y-16016D01*
X38751Y-15977D01*
X38754Y-15939D01*
X38765Y-15902D01*
X38782Y-15867D01*
X38807Y-15837D01*
X38836Y-15811D01*
X38870Y-15792D01*
X38908Y-15780D01*
X38946Y-15776D01*
X38984Y-15779D01*
X39022Y-15789D01*
X39057Y-15807D01*
X39087Y-15831D01*
X39113Y-15860D01*
X39132Y-15894D01*
X39145Y-15931D01*
X39149Y-15970D01*
X39150Y-15975D01*
X38750Y-15775D02*
X39150Y-16175D01*
X39150Y-15775D02*
X38750Y-16175D01*
X39150Y-16975D02*
X39146Y-17013D01*
X39134Y-17051D01*
X39116Y-17085D01*
X39091Y-17115D01*
X39061Y-17140D01*
X39027Y-17159D01*
X38990Y-17170D01*
X38951Y-17174D01*
X38913Y-17171D01*
X38876Y-17160D01*
X38841Y-17142D01*
X38811Y-17117D01*
X38785Y-17087D01*
X38767Y-17053D01*
X38755Y-17016D01*
X38751Y-16977D01*
X38754Y-16939D01*
X38765Y-16902D01*
X38782Y-16867D01*
X38807Y-16837D01*
X38836Y-16811D01*
X38870Y-16792D01*
X38908Y-16780D01*
X38946Y-16776D01*
X38984Y-16779D01*
X39022Y-16789D01*
X39057Y-16807D01*
X39087Y-16831D01*
X39113Y-16860D01*
X39132Y-16894D01*
X39145Y-16931D01*
X39149Y-16970D01*
X39150Y-16975D01*
X38750Y-16775D02*
X39150Y-17175D01*
X39150Y-16775D02*
X38750Y-17175D01*
X39150Y-17975D02*
X39146Y-18013D01*
X39134Y-18051D01*
X39116Y-18085D01*
X39091Y-18115D01*
X39061Y-18140D01*
X39027Y-18159D01*
X38990Y-18170D01*
X38951Y-18174D01*
X38913Y-18171D01*
X38876Y-18160D01*
X38841Y-18142D01*
X38811Y-18117D01*
X38785Y-18087D01*
X38767Y-18053D01*
X38755Y-18016D01*
X38751Y-17977D01*
X38754Y-17939D01*
X38765Y-17902D01*
X38782Y-17867D01*
X38807Y-17837D01*
X38836Y-17811D01*
X38870Y-17792D01*
X38908Y-17780D01*
X38946Y-17776D01*
X38984Y-17779D01*
X39022Y-17789D01*
X39057Y-17807D01*
X39087Y-17831D01*
X39113Y-17860D01*
X39132Y-17894D01*
X39145Y-17931D01*
X39149Y-17970D01*
X39150Y-17975D01*
X38750Y-17775D02*
X39150Y-18175D01*
X39150Y-17775D02*
X38750Y-18175D01*
X39150Y-18975D02*
X39146Y-19013D01*
X39134Y-19051D01*
X39116Y-19085D01*
X39091Y-19115D01*
X39061Y-19140D01*
X39027Y-19159D01*
X38990Y-19170D01*
X38951Y-19174D01*
X38913Y-19171D01*
X38876Y-19160D01*
X38841Y-19142D01*
X38811Y-19117D01*
X38785Y-19087D01*
X38767Y-19053D01*
X38755Y-19016D01*
X38751Y-18977D01*
X38754Y-18939D01*
X38765Y-18902D01*
X38782Y-18867D01*
X38807Y-18837D01*
X38836Y-18811D01*
X38870Y-18792D01*
X38908Y-18780D01*
X38946Y-18776D01*
X38984Y-18779D01*
X39022Y-18789D01*
X39057Y-18807D01*
X39087Y-18831D01*
X39113Y-18860D01*
X39132Y-18894D01*
X39145Y-18931D01*
X39149Y-18970D01*
X39150Y-18975D01*
X38750Y-18775D02*
X39150Y-19175D01*
X39150Y-18775D02*
X38750Y-19175D01*
X39150Y-19975D02*
X39146Y-20013D01*
X39134Y-20051D01*
X39116Y-20085D01*
X39091Y-20115D01*
X39061Y-20140D01*
X39027Y-20159D01*
X38990Y-20170D01*
X38951Y-20174D01*
X38913Y-20171D01*
X38876Y-20160D01*
X38841Y-20142D01*
X38811Y-20117D01*
X38785Y-20087D01*
X38767Y-20053D01*
X38755Y-20016D01*
X38751Y-19977D01*
X38754Y-19939D01*
X38765Y-19902D01*
X38782Y-19867D01*
X38807Y-19837D01*
X38836Y-19811D01*
X38870Y-19792D01*
X38908Y-19780D01*
X38946Y-19776D01*
X38984Y-19779D01*
X39022Y-19789D01*
X39057Y-19807D01*
X39087Y-19831D01*
X39113Y-19860D01*
X39132Y-19894D01*
X39145Y-19931D01*
X39149Y-19970D01*
X39150Y-19975D01*
X38750Y-19775D02*
X39150Y-20175D01*
X39150Y-19775D02*
X38750Y-20175D01*
X39150Y-20975D02*
X39146Y-21013D01*
X39134Y-21051D01*
X39116Y-21085D01*
X39091Y-21115D01*
X39061Y-21140D01*
X39027Y-21159D01*
X38990Y-21170D01*
X38951Y-21174D01*
X38913Y-21171D01*
X38876Y-21160D01*
X38841Y-21142D01*
X38811Y-21117D01*
X38785Y-21087D01*
X38767Y-21053D01*
X38755Y-21016D01*
X38751Y-20977D01*
X38754Y-20939D01*
X38765Y-20902D01*
X38782Y-20867D01*
X38807Y-20837D01*
X38836Y-20811D01*
X38870Y-20792D01*
X38908Y-20780D01*
X38946Y-20776D01*
X38984Y-20779D01*
X39022Y-20789D01*
X39057Y-20807D01*
X39087Y-20831D01*
X39113Y-20860D01*
X39132Y-20894D01*
X39145Y-20931D01*
X39149Y-20970D01*
X39150Y-20975D01*
X38750Y-20775D02*
X39150Y-21175D01*
X39150Y-20775D02*
X38750Y-21175D01*
X39150Y-21975D02*
X39146Y-22013D01*
X39134Y-22051D01*
X39116Y-22085D01*
X39091Y-22115D01*
X39061Y-22140D01*
X39027Y-22159D01*
X38990Y-22170D01*
X38951Y-22174D01*
X38913Y-22171D01*
X38876Y-22160D01*
X38841Y-22142D01*
X38811Y-22117D01*
X38785Y-22087D01*
X38767Y-22053D01*
X38755Y-22016D01*
X38751Y-21977D01*
X38754Y-21939D01*
X38765Y-21902D01*
X38782Y-21867D01*
X38807Y-21837D01*
X38836Y-21811D01*
X38870Y-21792D01*
X38908Y-21780D01*
X38946Y-21776D01*
X38984Y-21779D01*
X39022Y-21789D01*
X39057Y-21807D01*
X39087Y-21831D01*
X39113Y-21860D01*
X39132Y-21894D01*
X39145Y-21931D01*
X39149Y-21970D01*
X39150Y-21975D01*
X38750Y-21775D02*
X39150Y-22175D01*
X39150Y-21775D02*
X38750Y-22175D01*
X39150Y-22975D02*
X39146Y-23013D01*
X39134Y-23051D01*
X39116Y-23085D01*
X39091Y-23115D01*
X39061Y-23140D01*
X39027Y-23159D01*
X38990Y-23170D01*
X38951Y-23174D01*
X38913Y-23171D01*
X38876Y-23160D01*
X38841Y-23142D01*
X38811Y-23117D01*
X38785Y-23087D01*
X38767Y-23053D01*
X38755Y-23016D01*
X38751Y-22977D01*
X38754Y-22939D01*
X38765Y-22902D01*
X38782Y-22867D01*
X38807Y-22837D01*
X38836Y-22811D01*
X38870Y-22792D01*
X38908Y-22780D01*
X38946Y-22776D01*
X38984Y-22779D01*
X39022Y-22789D01*
X39057Y-22807D01*
X39087Y-22831D01*
X39113Y-22860D01*
X39132Y-22894D01*
X39145Y-22931D01*
X39149Y-22970D01*
X39150Y-22975D01*
X38750Y-22775D02*
X39150Y-23175D01*
X39150Y-22775D02*
X38750Y-23175D01*
X39150Y-23975D02*
X39146Y-24013D01*
X39134Y-24051D01*
X39116Y-24085D01*
X39091Y-24115D01*
X39061Y-24140D01*
X39027Y-24159D01*
X38990Y-24170D01*
X38951Y-24174D01*
X38913Y-24171D01*
X38876Y-24160D01*
X38841Y-24142D01*
X38811Y-24117D01*
X38785Y-24087D01*
X38767Y-24053D01*
X38755Y-24016D01*
X38751Y-23977D01*
X38754Y-23939D01*
X38765Y-23902D01*
X38782Y-23867D01*
X38807Y-23837D01*
X38836Y-23811D01*
X38870Y-23792D01*
X38908Y-23780D01*
X38946Y-23776D01*
X38984Y-23779D01*
X39022Y-23789D01*
X39057Y-23807D01*
X39087Y-23831D01*
X39113Y-23860D01*
X39132Y-23894D01*
X39145Y-23931D01*
X39149Y-23970D01*
X39150Y-23975D01*
X38750Y-23775D02*
X39150Y-24175D01*
X39150Y-23775D02*
X38750Y-24175D01*
X40225Y-10975D02*
X40221Y-11013D01*
X40209Y-11051D01*
X40191Y-11085D01*
X40166Y-11115D01*
X40136Y-11140D01*
X40102Y-11159D01*
X40065Y-11170D01*
X40026Y-11174D01*
X39988Y-11171D01*
X39951Y-11160D01*
X39916Y-11142D01*
X39886Y-11117D01*
X39860Y-11087D01*
X39842Y-11053D01*
X39830Y-11016D01*
X39826Y-10977D01*
X39829Y-10939D01*
X39840Y-10902D01*
X39857Y-10867D01*
X39882Y-10837D01*
X39911Y-10811D01*
X39945Y-10792D01*
X39983Y-10780D01*
X40021Y-10776D01*
X40059Y-10779D01*
X40097Y-10789D01*
X40132Y-10807D01*
X40162Y-10831D01*
X40188Y-10860D01*
X40207Y-10894D01*
X40220Y-10931D01*
X40224Y-10970D01*
X40225Y-10975D01*
X39825Y-10775D02*
X40225Y-11175D01*
X40225Y-10775D02*
X39825Y-11175D01*
X40425Y-14975D02*
X40421Y-15013D01*
X40409Y-15051D01*
X40391Y-15085D01*
X40366Y-15115D01*
X40336Y-15140D01*
X40302Y-15159D01*
X40265Y-15170D01*
X40226Y-15174D01*
X40188Y-15171D01*
X40151Y-15160D01*
X40116Y-15142D01*
X40086Y-15117D01*
X40060Y-15087D01*
X40042Y-15053D01*
X40030Y-15016D01*
X40026Y-14977D01*
X40029Y-14939D01*
X40040Y-14902D01*
X40057Y-14867D01*
X40082Y-14837D01*
X40111Y-14811D01*
X40145Y-14792D01*
X40183Y-14780D01*
X40221Y-14776D01*
X40259Y-14779D01*
X40297Y-14789D01*
X40332Y-14807D01*
X40362Y-14831D01*
X40388Y-14860D01*
X40407Y-14894D01*
X40420Y-14931D01*
X40424Y-14970D01*
X40425Y-14975D01*
X40025Y-14775D02*
X40425Y-15175D01*
X40425Y-14775D02*
X40025Y-15175D01*
X40425Y-15975D02*
X40421Y-16013D01*
X40409Y-16051D01*
X40391Y-16085D01*
X40366Y-16115D01*
X40336Y-16140D01*
X40302Y-16159D01*
X40265Y-16170D01*
X40226Y-16174D01*
X40188Y-16171D01*
X40151Y-16160D01*
X40116Y-16142D01*
X40086Y-16117D01*
X40060Y-16087D01*
X40042Y-16053D01*
X40030Y-16016D01*
X40026Y-15977D01*
X40029Y-15939D01*
X40040Y-15902D01*
X40057Y-15867D01*
X40082Y-15837D01*
X40111Y-15811D01*
X40145Y-15792D01*
X40183Y-15780D01*
X40221Y-15776D01*
X40259Y-15779D01*
X40297Y-15789D01*
X40332Y-15807D01*
X40362Y-15831D01*
X40388Y-15860D01*
X40407Y-15894D01*
X40420Y-15931D01*
X40424Y-15970D01*
X40425Y-15975D01*
X40025Y-15775D02*
X40425Y-16175D01*
X40425Y-15775D02*
X40025Y-16175D01*
X40425Y-16975D02*
X40421Y-17013D01*
X40409Y-17051D01*
X40391Y-17085D01*
X40366Y-17115D01*
X40336Y-17140D01*
X40302Y-17159D01*
X40265Y-17170D01*
X40226Y-17174D01*
X40188Y-17171D01*
X40151Y-17160D01*
X40116Y-17142D01*
X40086Y-17117D01*
X40060Y-17087D01*
X40042Y-17053D01*
X40030Y-17016D01*
X40026Y-16977D01*
X40029Y-16939D01*
X40040Y-16902D01*
X40057Y-16867D01*
X40082Y-16837D01*
X40111Y-16811D01*
X40145Y-16792D01*
X40183Y-16780D01*
X40221Y-16776D01*
X40259Y-16779D01*
X40297Y-16789D01*
X40332Y-16807D01*
X40362Y-16831D01*
X40388Y-16860D01*
X40407Y-16894D01*
X40420Y-16931D01*
X40424Y-16970D01*
X40425Y-16975D01*
X40025Y-16775D02*
X40425Y-17175D01*
X40425Y-16775D02*
X40025Y-17175D01*
X40425Y-17975D02*
X40421Y-18013D01*
X40409Y-18051D01*
X40391Y-18085D01*
X40366Y-18115D01*
X40336Y-18140D01*
X40302Y-18159D01*
X40265Y-18170D01*
X40226Y-18174D01*
X40188Y-18171D01*
X40151Y-18160D01*
X40116Y-18142D01*
X40086Y-18117D01*
X40060Y-18087D01*
X40042Y-18053D01*
X40030Y-18016D01*
X40026Y-17977D01*
X40029Y-17939D01*
X40040Y-17902D01*
X40057Y-17867D01*
X40082Y-17837D01*
X40111Y-17811D01*
X40145Y-17792D01*
X40183Y-17780D01*
X40221Y-17776D01*
X40259Y-17779D01*
X40297Y-17789D01*
X40332Y-17807D01*
X40362Y-17831D01*
X40388Y-17860D01*
X40407Y-17894D01*
X40420Y-17931D01*
X40424Y-17970D01*
X40425Y-17975D01*
X40025Y-17775D02*
X40425Y-18175D01*
X40425Y-17775D02*
X40025Y-18175D01*
X40425Y-18975D02*
X40421Y-19013D01*
X40409Y-19051D01*
X40391Y-19085D01*
X40366Y-19115D01*
X40336Y-19140D01*
X40302Y-19159D01*
X40265Y-19170D01*
X40226Y-19174D01*
X40188Y-19171D01*
X40151Y-19160D01*
X40116Y-19142D01*
X40086Y-19117D01*
X40060Y-19087D01*
X40042Y-19053D01*
X40030Y-19016D01*
X40026Y-18977D01*
X40029Y-18939D01*
X40040Y-18902D01*
X40057Y-18867D01*
X40082Y-18837D01*
X40111Y-18811D01*
X40145Y-18792D01*
X40183Y-18780D01*
X40221Y-18776D01*
X40259Y-18779D01*
X40297Y-18789D01*
X40332Y-18807D01*
X40362Y-18831D01*
X40388Y-18860D01*
X40407Y-18894D01*
X40420Y-18931D01*
X40424Y-18970D01*
X40425Y-18975D01*
X40025Y-18775D02*
X40425Y-19175D01*
X40425Y-18775D02*
X40025Y-19175D01*
X40425Y-19975D02*
X40421Y-20013D01*
X40409Y-20051D01*
X40391Y-20085D01*
X40366Y-20115D01*
X40336Y-20140D01*
X40302Y-20159D01*
X40265Y-20170D01*
X40226Y-20174D01*
X40188Y-20171D01*
X40151Y-20160D01*
X40116Y-20142D01*
X40086Y-20117D01*
X40060Y-20087D01*
X40042Y-20053D01*
X40030Y-20016D01*
X40026Y-19977D01*
X40029Y-19939D01*
X40040Y-19902D01*
X40057Y-19867D01*
X40082Y-19837D01*
X40111Y-19811D01*
X40145Y-19792D01*
X40183Y-19780D01*
X40221Y-19776D01*
X40259Y-19779D01*
X40297Y-19789D01*
X40332Y-19807D01*
X40362Y-19831D01*
X40388Y-19860D01*
X40407Y-19894D01*
X40420Y-19931D01*
X40424Y-19970D01*
X40425Y-19975D01*
X40025Y-19775D02*
X40425Y-20175D01*
X40425Y-19775D02*
X40025Y-20175D01*
X41950Y-14900D02*
X41946Y-14938D01*
X41934Y-14976D01*
X41916Y-15010D01*
X41891Y-15040D01*
X41861Y-15065D01*
X41827Y-15084D01*
X41790Y-15095D01*
X41751Y-15099D01*
X41713Y-15096D01*
X41676Y-15085D01*
X41641Y-15067D01*
X41611Y-15042D01*
X41585Y-15012D01*
X41567Y-14978D01*
X41555Y-14941D01*
X41551Y-14902D01*
X41554Y-14864D01*
X41565Y-14827D01*
X41582Y-14792D01*
X41607Y-14762D01*
X41636Y-14736D01*
X41670Y-14717D01*
X41708Y-14705D01*
X41746Y-14701D01*
X41784Y-14704D01*
X41822Y-14714D01*
X41857Y-14732D01*
X41887Y-14756D01*
X41913Y-14785D01*
X41932Y-14819D01*
X41945Y-14856D01*
X41949Y-14895D01*
X41950Y-14900D01*
X41550Y-14700D02*
X41950Y-15100D01*
X41950Y-14700D02*
X41550Y-15100D01*
X41950Y-15900D02*
X41946Y-15938D01*
X41934Y-15976D01*
X41916Y-16010D01*
X41891Y-16040D01*
X41861Y-16065D01*
X41827Y-16084D01*
X41790Y-16095D01*
X41751Y-16099D01*
X41713Y-16096D01*
X41676Y-16085D01*
X41641Y-16067D01*
X41611Y-16042D01*
X41585Y-16012D01*
X41567Y-15978D01*
X41555Y-15941D01*
X41551Y-15902D01*
X41554Y-15864D01*
X41565Y-15827D01*
X41582Y-15792D01*
X41607Y-15762D01*
X41636Y-15736D01*
X41670Y-15717D01*
X41708Y-15705D01*
X41746Y-15701D01*
X41784Y-15704D01*
X41822Y-15714D01*
X41857Y-15732D01*
X41887Y-15756D01*
X41913Y-15785D01*
X41932Y-15819D01*
X41945Y-15856D01*
X41949Y-15895D01*
X41950Y-15900D01*
X41550Y-15700D02*
X41950Y-16100D01*
X41950Y-15700D02*
X41550Y-16100D01*
X41950Y-16900D02*
X41946Y-16938D01*
X41934Y-16976D01*
X41916Y-17010D01*
X41891Y-17040D01*
X41861Y-17065D01*
X41827Y-17084D01*
X41790Y-17095D01*
X41751Y-17099D01*
X41713Y-17096D01*
X41676Y-17085D01*
X41641Y-17067D01*
X41611Y-17042D01*
X41585Y-17012D01*
X41567Y-16978D01*
X41555Y-16941D01*
X41551Y-16902D01*
X41554Y-16864D01*
X41565Y-16827D01*
X41582Y-16792D01*
X41607Y-16762D01*
X41636Y-16736D01*
X41670Y-16717D01*
X41708Y-16705D01*
X41746Y-16701D01*
X41784Y-16704D01*
X41822Y-16714D01*
X41857Y-16732D01*
X41887Y-16756D01*
X41913Y-16785D01*
X41932Y-16819D01*
X41945Y-16856D01*
X41949Y-16895D01*
X41950Y-16900D01*
X41550Y-16700D02*
X41950Y-17100D01*
X41950Y-16700D02*
X41550Y-17100D01*
X41950Y-17900D02*
X41946Y-17938D01*
X41934Y-17976D01*
X41916Y-18010D01*
X41891Y-18040D01*
X41861Y-18065D01*
X41827Y-18084D01*
X41790Y-18095D01*
X41751Y-18099D01*
X41713Y-18096D01*
X41676Y-18085D01*
X41641Y-18067D01*
X41611Y-18042D01*
X41585Y-18012D01*
X41567Y-17978D01*
X41555Y-17941D01*
X41551Y-17902D01*
X41554Y-17864D01*
X41565Y-17827D01*
X41582Y-17792D01*
X41607Y-17762D01*
X41636Y-17736D01*
X41670Y-17717D01*
X41708Y-17705D01*
X41746Y-17701D01*
X41784Y-17704D01*
X41822Y-17714D01*
X41857Y-17732D01*
X41887Y-17756D01*
X41913Y-17785D01*
X41932Y-17819D01*
X41945Y-17856D01*
X41949Y-17895D01*
X41950Y-17900D01*
X41550Y-17700D02*
X41950Y-18100D01*
X41950Y-17700D02*
X41550Y-18100D01*
X41950Y-18900D02*
X41946Y-18938D01*
X41934Y-18976D01*
X41916Y-19010D01*
X41891Y-19040D01*
X41861Y-19065D01*
X41827Y-19084D01*
X41790Y-19095D01*
X41751Y-19099D01*
X41713Y-19096D01*
X41676Y-19085D01*
X41641Y-19067D01*
X41611Y-19042D01*
X41585Y-19012D01*
X41567Y-18978D01*
X41555Y-18941D01*
X41551Y-18902D01*
X41554Y-18864D01*
X41565Y-18827D01*
X41582Y-18792D01*
X41607Y-18762D01*
X41636Y-18736D01*
X41670Y-18717D01*
X41708Y-18705D01*
X41746Y-18701D01*
X41784Y-18704D01*
X41822Y-18714D01*
X41857Y-18732D01*
X41887Y-18756D01*
X41913Y-18785D01*
X41932Y-18819D01*
X41945Y-18856D01*
X41949Y-18895D01*
X41950Y-18900D01*
X41550Y-18700D02*
X41950Y-19100D01*
X41950Y-18700D02*
X41550Y-19100D01*
X41950Y-19900D02*
X41946Y-19938D01*
X41934Y-19976D01*
X41916Y-20010D01*
X41891Y-20040D01*
X41861Y-20065D01*
X41827Y-20084D01*
X41790Y-20095D01*
X41751Y-20099D01*
X41713Y-20096D01*
X41676Y-20085D01*
X41641Y-20067D01*
X41611Y-20042D01*
X41585Y-20012D01*
X41567Y-19978D01*
X41555Y-19941D01*
X41551Y-19902D01*
X41554Y-19864D01*
X41565Y-19827D01*
X41582Y-19792D01*
X41607Y-19762D01*
X41636Y-19736D01*
X41670Y-19717D01*
X41708Y-19705D01*
X41746Y-19701D01*
X41784Y-19704D01*
X41822Y-19714D01*
X41857Y-19732D01*
X41887Y-19756D01*
X41913Y-19785D01*
X41932Y-19819D01*
X41945Y-19856D01*
X41949Y-19895D01*
X41950Y-19900D01*
X41550Y-19700D02*
X41950Y-20100D01*
X41950Y-19700D02*
X41550Y-20100D01*
X41950Y-20900D02*
X41946Y-20938D01*
X41934Y-20976D01*
X41916Y-21010D01*
X41891Y-21040D01*
X41861Y-21065D01*
X41827Y-21084D01*
X41790Y-21095D01*
X41751Y-21099D01*
X41713Y-21096D01*
X41676Y-21085D01*
X41641Y-21067D01*
X41611Y-21042D01*
X41585Y-21012D01*
X41567Y-20978D01*
X41555Y-20941D01*
X41551Y-20902D01*
X41554Y-20864D01*
X41565Y-20827D01*
X41582Y-20792D01*
X41607Y-20762D01*
X41636Y-20736D01*
X41670Y-20717D01*
X41708Y-20705D01*
X41746Y-20701D01*
X41784Y-20704D01*
X41822Y-20714D01*
X41857Y-20732D01*
X41887Y-20756D01*
X41913Y-20785D01*
X41932Y-20819D01*
X41945Y-20856D01*
X41949Y-20895D01*
X41950Y-20900D01*
X41550Y-20700D02*
X41950Y-21100D01*
X41950Y-20700D02*
X41550Y-21100D01*
X41950Y-21900D02*
X41946Y-21938D01*
X41934Y-21976D01*
X41916Y-22010D01*
X41891Y-22040D01*
X41861Y-22065D01*
X41827Y-22084D01*
X41790Y-22095D01*
X41751Y-22099D01*
X41713Y-22096D01*
X41676Y-22085D01*
X41641Y-22067D01*
X41611Y-22042D01*
X41585Y-22012D01*
X41567Y-21978D01*
X41555Y-21941D01*
X41551Y-21902D01*
X41554Y-21864D01*
X41565Y-21827D01*
X41582Y-21792D01*
X41607Y-21762D01*
X41636Y-21736D01*
X41670Y-21717D01*
X41708Y-21705D01*
X41746Y-21701D01*
X41784Y-21704D01*
X41822Y-21714D01*
X41857Y-21732D01*
X41887Y-21756D01*
X41913Y-21785D01*
X41932Y-21819D01*
X41945Y-21856D01*
X41949Y-21895D01*
X41950Y-21900D01*
X41550Y-21700D02*
X41950Y-22100D01*
X41950Y-21700D02*
X41550Y-22100D01*
X43425Y-14975D02*
X43421Y-15013D01*
X43409Y-15051D01*
X43391Y-15085D01*
X43366Y-15115D01*
X43336Y-15140D01*
X43302Y-15159D01*
X43265Y-15170D01*
X43226Y-15174D01*
X43188Y-15171D01*
X43151Y-15160D01*
X43116Y-15142D01*
X43086Y-15117D01*
X43060Y-15087D01*
X43042Y-15053D01*
X43030Y-15016D01*
X43026Y-14977D01*
X43029Y-14939D01*
X43040Y-14902D01*
X43057Y-14867D01*
X43082Y-14837D01*
X43111Y-14811D01*
X43145Y-14792D01*
X43183Y-14780D01*
X43221Y-14776D01*
X43259Y-14779D01*
X43297Y-14789D01*
X43332Y-14807D01*
X43362Y-14831D01*
X43388Y-14860D01*
X43407Y-14894D01*
X43420Y-14931D01*
X43424Y-14970D01*
X43425Y-14975D01*
X43025Y-14775D02*
X43425Y-15175D01*
X43425Y-14775D02*
X43025Y-15175D01*
X43425Y-15975D02*
X43421Y-16013D01*
X43409Y-16051D01*
X43391Y-16085D01*
X43366Y-16115D01*
X43336Y-16140D01*
X43302Y-16159D01*
X43265Y-16170D01*
X43226Y-16174D01*
X43188Y-16171D01*
X43151Y-16160D01*
X43116Y-16142D01*
X43086Y-16117D01*
X43060Y-16087D01*
X43042Y-16053D01*
X43030Y-16016D01*
X43026Y-15977D01*
X43029Y-15939D01*
X43040Y-15902D01*
X43057Y-15867D01*
X43082Y-15837D01*
X43111Y-15811D01*
X43145Y-15792D01*
X43183Y-15780D01*
X43221Y-15776D01*
X43259Y-15779D01*
X43297Y-15789D01*
X43332Y-15807D01*
X43362Y-15831D01*
X43388Y-15860D01*
X43407Y-15894D01*
X43420Y-15931D01*
X43424Y-15970D01*
X43425Y-15975D01*
X43025Y-15775D02*
X43425Y-16175D01*
X43425Y-15775D02*
X43025Y-16175D01*
X43425Y-16975D02*
X43421Y-17013D01*
X43409Y-17051D01*
X43391Y-17085D01*
X43366Y-17115D01*
X43336Y-17140D01*
X43302Y-17159D01*
X43265Y-17170D01*
X43226Y-17174D01*
X43188Y-17171D01*
X43151Y-17160D01*
X43116Y-17142D01*
X43086Y-17117D01*
X43060Y-17087D01*
X43042Y-17053D01*
X43030Y-17016D01*
X43026Y-16977D01*
X43029Y-16939D01*
X43040Y-16902D01*
X43057Y-16867D01*
X43082Y-16837D01*
X43111Y-16811D01*
X43145Y-16792D01*
X43183Y-16780D01*
X43221Y-16776D01*
X43259Y-16779D01*
X43297Y-16789D01*
X43332Y-16807D01*
X43362Y-16831D01*
X43388Y-16860D01*
X43407Y-16894D01*
X43420Y-16931D01*
X43424Y-16970D01*
X43425Y-16975D01*
X43025Y-16775D02*
X43425Y-17175D01*
X43425Y-16775D02*
X43025Y-17175D01*
X43425Y-17975D02*
X43421Y-18013D01*
X43409Y-18051D01*
X43391Y-18085D01*
X43366Y-18115D01*
X43336Y-18140D01*
X43302Y-18159D01*
X43265Y-18170D01*
X43226Y-18174D01*
X43188Y-18171D01*
X43151Y-18160D01*
X43116Y-18142D01*
X43086Y-18117D01*
X43060Y-18087D01*
X43042Y-18053D01*
X43030Y-18016D01*
X43026Y-17977D01*
X43029Y-17939D01*
X43040Y-17902D01*
X43057Y-17867D01*
X43082Y-17837D01*
X43111Y-17811D01*
X43145Y-17792D01*
X43183Y-17780D01*
X43221Y-17776D01*
X43259Y-17779D01*
X43297Y-17789D01*
X43332Y-17807D01*
X43362Y-17831D01*
X43388Y-17860D01*
X43407Y-17894D01*
X43420Y-17931D01*
X43424Y-17970D01*
X43425Y-17975D01*
X43025Y-17775D02*
X43425Y-18175D01*
X43425Y-17775D02*
X43025Y-18175D01*
X43425Y-18975D02*
X43421Y-19013D01*
X43409Y-19051D01*
X43391Y-19085D01*
X43366Y-19115D01*
X43336Y-19140D01*
X43302Y-19159D01*
X43265Y-19170D01*
X43226Y-19174D01*
X43188Y-19171D01*
X43151Y-19160D01*
X43116Y-19142D01*
X43086Y-19117D01*
X43060Y-19087D01*
X43042Y-19053D01*
X43030Y-19016D01*
X43026Y-18977D01*
X43029Y-18939D01*
X43040Y-18902D01*
X43057Y-18867D01*
X43082Y-18837D01*
X43111Y-18811D01*
X43145Y-18792D01*
X43183Y-18780D01*
X43221Y-18776D01*
X43259Y-18779D01*
X43297Y-18789D01*
X43332Y-18807D01*
X43362Y-18831D01*
X43388Y-18860D01*
X43407Y-18894D01*
X43420Y-18931D01*
X43424Y-18970D01*
X43425Y-18975D01*
X43025Y-18775D02*
X43425Y-19175D01*
X43425Y-18775D02*
X43025Y-19175D01*
X43425Y-19975D02*
X43421Y-20013D01*
X43409Y-20051D01*
X43391Y-20085D01*
X43366Y-20115D01*
X43336Y-20140D01*
X43302Y-20159D01*
X43265Y-20170D01*
X43226Y-20174D01*
X43188Y-20171D01*
X43151Y-20160D01*
X43116Y-20142D01*
X43086Y-20117D01*
X43060Y-20087D01*
X43042Y-20053D01*
X43030Y-20016D01*
X43026Y-19977D01*
X43029Y-19939D01*
X43040Y-19902D01*
X43057Y-19867D01*
X43082Y-19837D01*
X43111Y-19811D01*
X43145Y-19792D01*
X43183Y-19780D01*
X43221Y-19776D01*
X43259Y-19779D01*
X43297Y-19789D01*
X43332Y-19807D01*
X43362Y-19831D01*
X43388Y-19860D01*
X43407Y-19894D01*
X43420Y-19931D01*
X43424Y-19970D01*
X43425Y-19975D01*
X43025Y-19775D02*
X43425Y-20175D01*
X43425Y-19775D02*
X43025Y-20175D01*
X44950Y-14900D02*
X44946Y-14938D01*
X44934Y-14976D01*
X44916Y-15010D01*
X44891Y-15040D01*
X44861Y-15065D01*
X44827Y-15084D01*
X44790Y-15095D01*
X44751Y-15099D01*
X44713Y-15096D01*
X44676Y-15085D01*
X44641Y-15067D01*
X44611Y-15042D01*
X44585Y-15012D01*
X44567Y-14978D01*
X44555Y-14941D01*
X44551Y-14902D01*
X44554Y-14864D01*
X44565Y-14827D01*
X44582Y-14792D01*
X44607Y-14762D01*
X44636Y-14736D01*
X44670Y-14717D01*
X44708Y-14705D01*
X44746Y-14701D01*
X44784Y-14704D01*
X44822Y-14714D01*
X44857Y-14732D01*
X44887Y-14756D01*
X44913Y-14785D01*
X44932Y-14819D01*
X44945Y-14856D01*
X44949Y-14895D01*
X44950Y-14900D01*
X44550Y-14700D02*
X44950Y-15100D01*
X44950Y-14700D02*
X44550Y-15100D01*
X44950Y-15900D02*
X44946Y-15938D01*
X44934Y-15976D01*
X44916Y-16010D01*
X44891Y-16040D01*
X44861Y-16065D01*
X44827Y-16084D01*
X44790Y-16095D01*
X44751Y-16099D01*
X44713Y-16096D01*
X44676Y-16085D01*
X44641Y-16067D01*
X44611Y-16042D01*
X44585Y-16012D01*
X44567Y-15978D01*
X44555Y-15941D01*
X44551Y-15902D01*
X44554Y-15864D01*
X44565Y-15827D01*
X44582Y-15792D01*
X44607Y-15762D01*
X44636Y-15736D01*
X44670Y-15717D01*
X44708Y-15705D01*
X44746Y-15701D01*
X44784Y-15704D01*
X44822Y-15714D01*
X44857Y-15732D01*
X44887Y-15756D01*
X44913Y-15785D01*
X44932Y-15819D01*
X44945Y-15856D01*
X44949Y-15895D01*
X44950Y-15900D01*
X44550Y-15700D02*
X44950Y-16100D01*
X44950Y-15700D02*
X44550Y-16100D01*
X44950Y-16900D02*
X44946Y-16938D01*
X44934Y-16976D01*
X44916Y-17010D01*
X44891Y-17040D01*
X44861Y-17065D01*
X44827Y-17084D01*
X44790Y-17095D01*
X44751Y-17099D01*
X44713Y-17096D01*
X44676Y-17085D01*
X44641Y-17067D01*
X44611Y-17042D01*
X44585Y-17012D01*
X44567Y-16978D01*
X44555Y-16941D01*
X44551Y-16902D01*
X44554Y-16864D01*
X44565Y-16827D01*
X44582Y-16792D01*
X44607Y-16762D01*
X44636Y-16736D01*
X44670Y-16717D01*
X44708Y-16705D01*
X44746Y-16701D01*
X44784Y-16704D01*
X44822Y-16714D01*
X44857Y-16732D01*
X44887Y-16756D01*
X44913Y-16785D01*
X44932Y-16819D01*
X44945Y-16856D01*
X44949Y-16895D01*
X44950Y-16900D01*
X44550Y-16700D02*
X44950Y-17100D01*
X44950Y-16700D02*
X44550Y-17100D01*
X44950Y-17900D02*
X44946Y-17938D01*
X44934Y-17976D01*
X44916Y-18010D01*
X44891Y-18040D01*
X44861Y-18065D01*
X44827Y-18084D01*
X44790Y-18095D01*
X44751Y-18099D01*
X44713Y-18096D01*
X44676Y-18085D01*
X44641Y-18067D01*
X44611Y-18042D01*
X44585Y-18012D01*
X44567Y-17978D01*
X44555Y-17941D01*
X44551Y-17902D01*
X44554Y-17864D01*
X44565Y-17827D01*
X44582Y-17792D01*
X44607Y-17762D01*
X44636Y-17736D01*
X44670Y-17717D01*
X44708Y-17705D01*
X44746Y-17701D01*
X44784Y-17704D01*
X44822Y-17714D01*
X44857Y-17732D01*
X44887Y-17756D01*
X44913Y-17785D01*
X44932Y-17819D01*
X44945Y-17856D01*
X44949Y-17895D01*
X44950Y-17900D01*
X44550Y-17700D02*
X44950Y-18100D01*
X44950Y-17700D02*
X44550Y-18100D01*
X44950Y-18900D02*
X44946Y-18938D01*
X44934Y-18976D01*
X44916Y-19010D01*
X44891Y-19040D01*
X44861Y-19065D01*
X44827Y-19084D01*
X44790Y-19095D01*
X44751Y-19099D01*
X44713Y-19096D01*
X44676Y-19085D01*
X44641Y-19067D01*
X44611Y-19042D01*
X44585Y-19012D01*
X44567Y-18978D01*
X44555Y-18941D01*
X44551Y-18902D01*
X44554Y-18864D01*
X44565Y-18827D01*
X44582Y-18792D01*
X44607Y-18762D01*
X44636Y-18736D01*
X44670Y-18717D01*
X44708Y-18705D01*
X44746Y-18701D01*
X44784Y-18704D01*
X44822Y-18714D01*
X44857Y-18732D01*
X44887Y-18756D01*
X44913Y-18785D01*
X44932Y-18819D01*
X44945Y-18856D01*
X44949Y-18895D01*
X44950Y-18900D01*
X44550Y-18700D02*
X44950Y-19100D01*
X44950Y-18700D02*
X44550Y-19100D01*
X44950Y-19900D02*
X44946Y-19938D01*
X44934Y-19976D01*
X44916Y-20010D01*
X44891Y-20040D01*
X44861Y-20065D01*
X44827Y-20084D01*
X44790Y-20095D01*
X44751Y-20099D01*
X44713Y-20096D01*
X44676Y-20085D01*
X44641Y-20067D01*
X44611Y-20042D01*
X44585Y-20012D01*
X44567Y-19978D01*
X44555Y-19941D01*
X44551Y-19902D01*
X44554Y-19864D01*
X44565Y-19827D01*
X44582Y-19792D01*
X44607Y-19762D01*
X44636Y-19736D01*
X44670Y-19717D01*
X44708Y-19705D01*
X44746Y-19701D01*
X44784Y-19704D01*
X44822Y-19714D01*
X44857Y-19732D01*
X44887Y-19756D01*
X44913Y-19785D01*
X44932Y-19819D01*
X44945Y-19856D01*
X44949Y-19895D01*
X44950Y-19900D01*
X44550Y-19700D02*
X44950Y-20100D01*
X44950Y-19700D02*
X44550Y-20100D01*
X44950Y-20900D02*
X44946Y-20938D01*
X44934Y-20976D01*
X44916Y-21010D01*
X44891Y-21040D01*
X44861Y-21065D01*
X44827Y-21084D01*
X44790Y-21095D01*
X44751Y-21099D01*
X44713Y-21096D01*
X44676Y-21085D01*
X44641Y-21067D01*
X44611Y-21042D01*
X44585Y-21012D01*
X44567Y-20978D01*
X44555Y-20941D01*
X44551Y-20902D01*
X44554Y-20864D01*
X44565Y-20827D01*
X44582Y-20792D01*
X44607Y-20762D01*
X44636Y-20736D01*
X44670Y-20717D01*
X44708Y-20705D01*
X44746Y-20701D01*
X44784Y-20704D01*
X44822Y-20714D01*
X44857Y-20732D01*
X44887Y-20756D01*
X44913Y-20785D01*
X44932Y-20819D01*
X44945Y-20856D01*
X44949Y-20895D01*
X44950Y-20900D01*
X44550Y-20700D02*
X44950Y-21100D01*
X44950Y-20700D02*
X44550Y-21100D01*
X44950Y-21900D02*
X44946Y-21938D01*
X44934Y-21976D01*
X44916Y-22010D01*
X44891Y-22040D01*
X44861Y-22065D01*
X44827Y-22084D01*
X44790Y-22095D01*
X44751Y-22099D01*
X44713Y-22096D01*
X44676Y-22085D01*
X44641Y-22067D01*
X44611Y-22042D01*
X44585Y-22012D01*
X44567Y-21978D01*
X44555Y-21941D01*
X44551Y-21902D01*
X44554Y-21864D01*
X44565Y-21827D01*
X44582Y-21792D01*
X44607Y-21762D01*
X44636Y-21736D01*
X44670Y-21717D01*
X44708Y-21705D01*
X44746Y-21701D01*
X44784Y-21704D01*
X44822Y-21714D01*
X44857Y-21732D01*
X44887Y-21756D01*
X44913Y-21785D01*
X44932Y-21819D01*
X44945Y-21856D01*
X44949Y-21895D01*
X44950Y-21900D01*
X44550Y-21700D02*
X44950Y-22100D01*
X44950Y-21700D02*
X44550Y-22100D01*
X23875Y-12400D02*
X23870Y-12448D01*
X23856Y-12495D01*
X23833Y-12538D01*
X23802Y-12576D01*
X23764Y-12607D01*
X23721Y-12630D01*
X23675Y-12644D01*
X23626Y-12649D01*
X23579Y-12645D01*
X23532Y-12631D01*
X23489Y-12609D01*
X23451Y-12578D01*
X23419Y-12541D01*
X23396Y-12498D01*
X23381Y-12451D01*
X23376Y-12403D01*
X23380Y-12355D01*
X23393Y-12308D01*
X23415Y-12265D01*
X23446Y-12227D01*
X23483Y-12195D01*
X23525Y-12171D01*
X23572Y-12156D01*
X23620Y-12151D01*
X23668Y-12154D01*
X23715Y-12167D01*
X23758Y-12189D01*
X23797Y-12219D01*
X23829Y-12256D01*
X23853Y-12299D01*
X23868Y-12345D01*
X23874Y-12394D01*
X23875Y-12400D01*
X23375Y-12400D02*
X23875Y-12400D01*
X26625Y-12400D02*
X26620Y-12448D01*
X26606Y-12495D01*
X26583Y-12538D01*
X26552Y-12576D01*
X26514Y-12607D01*
X26471Y-12630D01*
X26425Y-12644D01*
X26376Y-12649D01*
X26329Y-12645D01*
X26282Y-12631D01*
X26239Y-12609D01*
X26201Y-12578D01*
X26169Y-12541D01*
X26146Y-12498D01*
X26131Y-12451D01*
X26126Y-12403D01*
X26130Y-12355D01*
X26143Y-12308D01*
X26165Y-12265D01*
X26196Y-12227D01*
X26233Y-12195D01*
X26275Y-12171D01*
X26322Y-12156D01*
X26370Y-12151D01*
X26418Y-12154D01*
X26465Y-12167D01*
X26508Y-12189D01*
X26547Y-12219D01*
X26579Y-12256D01*
X26603Y-12299D01*
X26618Y-12345D01*
X26624Y-12394D01*
X26625Y-12400D01*
X26125Y-12400D02*
X26625Y-12400D01*
X34550Y-13500D02*
X34544Y-13558D01*
X34527Y-13614D01*
X34499Y-13666D01*
X34462Y-13711D01*
X34417Y-13748D01*
X34366Y-13776D01*
X34310Y-13793D01*
X34252Y-13799D01*
X34194Y-13794D01*
X34138Y-13778D01*
X34086Y-13751D01*
X34041Y-13714D01*
X34003Y-13669D01*
X33975Y-13618D01*
X33957Y-13562D01*
X33951Y-13504D01*
X33955Y-13446D01*
X33972Y-13390D01*
X33998Y-13338D01*
X34035Y-13292D01*
X34079Y-13254D01*
X34130Y-13226D01*
X34186Y-13207D01*
X34244Y-13201D01*
X34302Y-13205D01*
X34358Y-13221D01*
X34410Y-13247D01*
X34456Y-13283D01*
X34495Y-13328D01*
X34524Y-13378D01*
X34542Y-13434D01*
X34549Y-13492D01*
X34550Y-13500D01*
X34250Y-13200D02*
X34250Y-13800D01*
X34550Y-15500D02*
X34544Y-15558D01*
X34527Y-15614D01*
X34499Y-15666D01*
X34462Y-15711D01*
X34417Y-15748D01*
X34366Y-15776D01*
X34310Y-15793D01*
X34252Y-15799D01*
X34194Y-15794D01*
X34138Y-15778D01*
X34086Y-15751D01*
X34041Y-15714D01*
X34003Y-15669D01*
X33975Y-15618D01*
X33957Y-15562D01*
X33951Y-15504D01*
X33955Y-15446D01*
X33972Y-15390D01*
X33998Y-15338D01*
X34035Y-15292D01*
X34079Y-15254D01*
X34130Y-15226D01*
X34186Y-15207D01*
X34244Y-15201D01*
X34302Y-15205D01*
X34358Y-15221D01*
X34410Y-15247D01*
X34456Y-15283D01*
X34495Y-15328D01*
X34524Y-15378D01*
X34542Y-15434D01*
X34549Y-15492D01*
X34550Y-15500D01*
X34250Y-15200D02*
X34250Y-15800D01*
X34550Y-17500D02*
X34544Y-17558D01*
X34527Y-17614D01*
X34499Y-17666D01*
X34462Y-17711D01*
X34417Y-17748D01*
X34366Y-17776D01*
X34310Y-17793D01*
X34252Y-17799D01*
X34194Y-17794D01*
X34138Y-17778D01*
X34086Y-17751D01*
X34041Y-17714D01*
X34003Y-17669D01*
X33975Y-17618D01*
X33957Y-17562D01*
X33951Y-17504D01*
X33955Y-17446D01*
X33972Y-17390D01*
X33998Y-17338D01*
X34035Y-17292D01*
X34079Y-17254D01*
X34130Y-17226D01*
X34186Y-17207D01*
X34244Y-17201D01*
X34302Y-17205D01*
X34358Y-17221D01*
X34410Y-17247D01*
X34456Y-17283D01*
X34495Y-17328D01*
X34524Y-17378D01*
X34542Y-17434D01*
X34549Y-17492D01*
X34550Y-17500D01*
X34250Y-17200D02*
X34250Y-17800D01*
X34550Y-19500D02*
X34544Y-19558D01*
X34527Y-19614D01*
X34499Y-19666D01*
X34462Y-19711D01*
X34417Y-19748D01*
X34366Y-19776D01*
X34310Y-19793D01*
X34252Y-19799D01*
X34194Y-19794D01*
X34138Y-19778D01*
X34086Y-19751D01*
X34041Y-19714D01*
X34003Y-19669D01*
X33975Y-19618D01*
X33957Y-19562D01*
X33951Y-19504D01*
X33955Y-19446D01*
X33972Y-19390D01*
X33998Y-19338D01*
X34035Y-19292D01*
X34079Y-19254D01*
X34130Y-19226D01*
X34186Y-19207D01*
X34244Y-19201D01*
X34302Y-19205D01*
X34358Y-19221D01*
X34410Y-19247D01*
X34456Y-19283D01*
X34495Y-19328D01*
X34524Y-19378D01*
X34542Y-19434D01*
X34549Y-19492D01*
X34550Y-19500D01*
X34250Y-19200D02*
X34250Y-19800D01*
X34550Y-21500D02*
X34544Y-21558D01*
X34527Y-21614D01*
X34499Y-21666D01*
X34462Y-21711D01*
X34417Y-21748D01*
X34366Y-21776D01*
X34310Y-21793D01*
X34252Y-21799D01*
X34194Y-21794D01*
X34138Y-21778D01*
X34086Y-21751D01*
X34041Y-21714D01*
X34003Y-21669D01*
X33975Y-21618D01*
X33957Y-21562D01*
X33951Y-21504D01*
X33955Y-21446D01*
X33972Y-21390D01*
X33998Y-21338D01*
X34035Y-21292D01*
X34079Y-21254D01*
X34130Y-21226D01*
X34186Y-21207D01*
X34244Y-21201D01*
X34302Y-21205D01*
X34358Y-21221D01*
X34410Y-21247D01*
X34456Y-21283D01*
X34495Y-21328D01*
X34524Y-21378D01*
X34542Y-21434D01*
X34549Y-21492D01*
X34550Y-21500D01*
X34250Y-21200D02*
X34250Y-21800D01*
X36249Y-11599D02*
X36249Y-10751D01*
X35401Y-10751D01*
X35401Y-11599D01*
X36249Y-11599D01*
X36249Y-24249D02*
X36249Y-23401D01*
X35401Y-23401D01*
X35401Y-24249D01*
X36249Y-24249D01*
X45249Y-11599D02*
X45249Y-10751D01*
X44401Y-10751D01*
X44401Y-11599D01*
X45249Y-11599D01*
X45249Y-24249D02*
X45249Y-23401D01*
X44401Y-23401D01*
X44401Y-24249D01*
X45249Y-24249D01*
G54D12*
X08300Y-27330D02*
X08300Y-26530D01*
X08491Y-26530D01*
X08605Y-26568D01*
X08681Y-26644D01*
X08720Y-26720D01*
X08758Y-26873D01*
X08758Y-26987D01*
X08720Y-27139D01*
X08681Y-27216D01*
X08605Y-27292D01*
X08491Y-27330D01*
X08300Y-27330D01*
X09100Y-27330D02*
X09100Y-26796D01*
X09100Y-26949D02*
X09139Y-26873D01*
X09177Y-26835D01*
X09253Y-26796D01*
X09329Y-26796D01*
X09595Y-27330D02*
X09595Y-26796D01*
X09595Y-26530D02*
X09557Y-26568D01*
X09595Y-26606D01*
X09634Y-26568D01*
X09595Y-26530D01*
X09595Y-26606D01*
X10091Y-27330D02*
X10015Y-27292D01*
X09976Y-27216D01*
X09976Y-26530D01*
X10510Y-27330D02*
X10434Y-27292D01*
X10395Y-27216D01*
X10395Y-26530D01*
X11424Y-27330D02*
X11424Y-26530D01*
X11691Y-27101D01*
X11958Y-26530D01*
X11958Y-27330D01*
X12681Y-27330D02*
X12681Y-26911D01*
X12643Y-26835D01*
X12567Y-26796D01*
X12415Y-26796D01*
X12338Y-26835D01*
X12681Y-27292D02*
X12605Y-27330D01*
X12415Y-27330D01*
X12338Y-27292D01*
X12300Y-27216D01*
X12300Y-27139D01*
X12338Y-27063D01*
X12415Y-27025D01*
X12605Y-27025D01*
X12681Y-26987D01*
X13062Y-26796D02*
X13062Y-27596D01*
X13062Y-26835D02*
X13139Y-26796D01*
X13291Y-26796D01*
X13367Y-26835D01*
X13405Y-26873D01*
X13443Y-26949D01*
X13443Y-27177D01*
X13405Y-27254D01*
X13367Y-27292D01*
X13291Y-27330D01*
X13139Y-27330D01*
X13062Y-27292D01*
X13786Y-27254D02*
X13825Y-27292D01*
X13786Y-27330D01*
X13748Y-27292D01*
X13786Y-27254D01*
X13786Y-27330D01*
X13786Y-26835D02*
X13825Y-26873D01*
X13786Y-26911D01*
X13748Y-26873D01*
X13786Y-26835D01*
X13786Y-26911D01*
X07660Y-28561D02*
X07910Y-28811D01*
X07910Y-28561D02*
X07660Y-28811D01*
X08453Y-28210D02*
X08529Y-28210D01*
X08605Y-28248D01*
X08643Y-28286D01*
X08681Y-28362D01*
X08720Y-28515D01*
X08720Y-28705D01*
X08681Y-28857D01*
X08643Y-28934D01*
X08605Y-28972D01*
X08529Y-29010D01*
X08453Y-29010D01*
X08377Y-28972D01*
X08339Y-28934D01*
X08300Y-28857D01*
X08262Y-28705D01*
X08262Y-28515D01*
X08300Y-28362D01*
X08339Y-28286D01*
X08377Y-28248D01*
X08453Y-28210D01*
X09062Y-28934D02*
X09101Y-28972D01*
X09062Y-29010D01*
X09024Y-28972D01*
X09062Y-28934D01*
X09062Y-29010D01*
X09596Y-28210D02*
X09672Y-28210D01*
X09748Y-28248D01*
X09786Y-28286D01*
X09824Y-28362D01*
X09863Y-28515D01*
X09863Y-28705D01*
X09824Y-28857D01*
X09786Y-28934D01*
X09748Y-28972D01*
X09672Y-29010D01*
X09596Y-29010D01*
X09520Y-28972D01*
X09482Y-28934D01*
X09443Y-28857D01*
X09405Y-28705D01*
X09405Y-28515D01*
X09443Y-28362D01*
X09482Y-28286D01*
X09520Y-28248D01*
X09596Y-28210D01*
X10167Y-28286D02*
X10205Y-28248D01*
X10282Y-28210D01*
X10472Y-28210D01*
X10548Y-28248D01*
X10586Y-28286D01*
X10625Y-28362D01*
X10625Y-28438D01*
X10586Y-28553D01*
X10129Y-29010D01*
X10625Y-29010D01*
X11348Y-28210D02*
X10967Y-28210D01*
X10929Y-28591D01*
X10967Y-28553D01*
X11044Y-28515D01*
X11234Y-28515D01*
X11310Y-28553D01*
X11348Y-28591D01*
X11387Y-28667D01*
X11387Y-28857D01*
X11348Y-28934D01*
X11310Y-28972D01*
X11234Y-29010D01*
X11044Y-29010D01*
X10967Y-28972D01*
X10929Y-28934D01*
X11691Y-28210D02*
X11691Y-28362D01*
X11996Y-28210D02*
X11996Y-28362D01*
X13521Y-28172D02*
X12835Y-29200D01*
X14550Y-28210D02*
X14626Y-28210D01*
X14702Y-28248D01*
X14740Y-28286D01*
X14778Y-28362D01*
X14817Y-28515D01*
X14817Y-28705D01*
X14778Y-28857D01*
X14740Y-28934D01*
X14702Y-28972D01*
X14626Y-29010D01*
X14550Y-29010D01*
X14474Y-28972D01*
X14436Y-28934D01*
X14397Y-28857D01*
X14359Y-28705D01*
X14359Y-28515D01*
X14397Y-28362D01*
X14436Y-28286D01*
X14474Y-28248D01*
X14550Y-28210D01*
X15159Y-28934D02*
X15198Y-28972D01*
X15159Y-29010D01*
X15121Y-28972D01*
X15159Y-28934D01*
X15159Y-29010D01*
X15883Y-28210D02*
X15731Y-28210D01*
X15655Y-28248D01*
X15617Y-28286D01*
X15540Y-28400D01*
X15502Y-28553D01*
X15502Y-28857D01*
X15540Y-28934D01*
X15579Y-28972D01*
X15655Y-29010D01*
X15807Y-29010D01*
X15883Y-28972D01*
X15921Y-28934D01*
X15960Y-28857D01*
X15960Y-28667D01*
X15921Y-28591D01*
X15883Y-28553D01*
X15807Y-28515D01*
X15655Y-28515D01*
X15579Y-28553D01*
X15540Y-28591D01*
X15502Y-28667D01*
X16645Y-28476D02*
X16645Y-29010D01*
X16455Y-28172D02*
X16264Y-28743D01*
X16760Y-28743D01*
X17064Y-29010D02*
X17064Y-28476D01*
X17064Y-28553D02*
X17103Y-28515D01*
X17179Y-28476D01*
X17293Y-28476D01*
X17369Y-28515D01*
X17407Y-28591D01*
X17407Y-29010D01*
X17407Y-28591D02*
X17445Y-28515D01*
X17522Y-28476D01*
X17636Y-28476D01*
X17712Y-28515D01*
X17750Y-28591D01*
X17750Y-29010D01*
X18131Y-29010D02*
X18131Y-28476D01*
X18131Y-28553D02*
X18170Y-28515D01*
X18246Y-28476D01*
X18360Y-28476D01*
X18436Y-28515D01*
X18474Y-28591D01*
X18474Y-29010D01*
X18474Y-28591D02*
X18512Y-28515D01*
X18589Y-28476D01*
X18703Y-28476D01*
X18779Y-28515D01*
X18817Y-28591D01*
X18817Y-29010D01*
X20037Y-29315D02*
X19999Y-29276D01*
X19923Y-29162D01*
X19885Y-29086D01*
X19847Y-28972D01*
X19808Y-28781D01*
X19808Y-28629D01*
X19847Y-28438D01*
X19885Y-28324D01*
X19923Y-28248D01*
X19999Y-28134D01*
X20037Y-28096D01*
X20761Y-29010D02*
X20303Y-29010D01*
X20532Y-29010D02*
X20532Y-28210D01*
X20456Y-28324D01*
X20380Y-28400D01*
X20303Y-28438D01*
X21523Y-29010D02*
X21065Y-29010D01*
X21294Y-29010D02*
X21294Y-28210D01*
X21218Y-28324D01*
X21142Y-28400D01*
X21065Y-28438D01*
X22475Y-29010D02*
X22475Y-28210D01*
X22818Y-29010D02*
X22818Y-28591D01*
X22780Y-28515D01*
X22704Y-28476D01*
X22590Y-28476D01*
X22514Y-28515D01*
X22475Y-28553D01*
X23314Y-29010D02*
X23238Y-28972D01*
X23199Y-28934D01*
X23161Y-28857D01*
X23161Y-28629D01*
X23199Y-28553D01*
X23238Y-28515D01*
X23314Y-28476D01*
X23428Y-28476D01*
X23504Y-28515D01*
X23542Y-28553D01*
X23580Y-28629D01*
X23580Y-28857D01*
X23542Y-28934D01*
X23504Y-28972D01*
X23428Y-29010D01*
X23314Y-29010D01*
X24038Y-29010D02*
X23962Y-28972D01*
X23923Y-28896D01*
X23923Y-28210D01*
X24647Y-28972D02*
X24571Y-29010D01*
X24419Y-29010D01*
X24342Y-28972D01*
X24304Y-28896D01*
X24304Y-28591D01*
X24342Y-28515D01*
X24419Y-28476D01*
X24571Y-28476D01*
X24647Y-28515D01*
X24685Y-28591D01*
X24685Y-28667D01*
X24304Y-28743D01*
X24990Y-28972D02*
X25067Y-29010D01*
X25219Y-29010D01*
X25295Y-28972D01*
X25333Y-28896D01*
X25333Y-28857D01*
X25295Y-28781D01*
X25219Y-28743D01*
X25105Y-28743D01*
X25028Y-28705D01*
X24990Y-28629D01*
X24990Y-28591D01*
X25028Y-28515D01*
X25105Y-28476D01*
X25219Y-28476D01*
X25295Y-28515D01*
X25600Y-29315D02*
X25638Y-29276D01*
X25715Y-29162D01*
X25753Y-29086D01*
X25791Y-28972D01*
X25829Y-28781D01*
X25829Y-28629D01*
X25791Y-28438D01*
X25753Y-28324D01*
X25715Y-28248D01*
X25638Y-28134D01*
X25600Y-28096D01*
G54D10*
X07910Y-29742D02*
X07906Y-29773D01*
X07897Y-29802D01*
X07883Y-29830D01*
X07863Y-29854D01*
X07839Y-29874D01*
X07812Y-29889D01*
X07782Y-29898D01*
X07751Y-29901D01*
X07721Y-29899D01*
X07691Y-29890D01*
X07663Y-29875D01*
X07639Y-29856D01*
X07618Y-29832D01*
X07603Y-29805D01*
X07594Y-29775D01*
X07591Y-29744D01*
X07593Y-29714D01*
X07602Y-29684D01*
X07616Y-29656D01*
X07635Y-29631D01*
X07659Y-29611D01*
X07686Y-29596D01*
X07716Y-29586D01*
X07747Y-29583D01*
X07777Y-29585D01*
X07807Y-29593D01*
X07835Y-29607D01*
X07860Y-29627D01*
X07880Y-29650D01*
X07896Y-29677D01*
X07906Y-29707D01*
X07909Y-29738D01*
X07910Y-29742D01*
G54D12*
X08453Y-29266D02*
X08529Y-29266D01*
X08605Y-29304D01*
X08643Y-29342D01*
X08681Y-29418D01*
X08720Y-29571D01*
X08720Y-29761D01*
X08681Y-29913D01*
X08643Y-29990D01*
X08605Y-30028D01*
X08529Y-30066D01*
X08453Y-30066D01*
X08377Y-30028D01*
X08339Y-29990D01*
X08300Y-29913D01*
X08262Y-29761D01*
X08262Y-29571D01*
X08300Y-29418D01*
X08339Y-29342D01*
X08377Y-29304D01*
X08453Y-29266D01*
X09062Y-29990D02*
X09101Y-30028D01*
X09062Y-30066D01*
X09024Y-30028D01*
X09062Y-29990D01*
X09062Y-30066D01*
X09596Y-29266D02*
X09672Y-29266D01*
X09748Y-29304D01*
X09786Y-29342D01*
X09824Y-29418D01*
X09863Y-29571D01*
X09863Y-29761D01*
X09824Y-29913D01*
X09786Y-29990D01*
X09748Y-30028D01*
X09672Y-30066D01*
X09596Y-30066D01*
X09520Y-30028D01*
X09482Y-29990D01*
X09443Y-29913D01*
X09405Y-29761D01*
X09405Y-29571D01*
X09443Y-29418D01*
X09482Y-29342D01*
X09520Y-29304D01*
X09596Y-29266D01*
X10129Y-29266D02*
X10625Y-29266D01*
X10358Y-29571D01*
X10472Y-29571D01*
X10548Y-29609D01*
X10586Y-29647D01*
X10625Y-29723D01*
X10625Y-29913D01*
X10586Y-29990D01*
X10548Y-30028D01*
X10472Y-30066D01*
X10244Y-30066D01*
X10167Y-30028D01*
X10129Y-29990D01*
X10929Y-29342D02*
X10967Y-29304D01*
X11044Y-29266D01*
X11234Y-29266D01*
X11310Y-29304D01*
X11348Y-29342D01*
X11387Y-29418D01*
X11387Y-29494D01*
X11348Y-29609D01*
X10891Y-30066D01*
X11387Y-30066D01*
X11691Y-29266D02*
X11691Y-29418D01*
X11996Y-29266D02*
X11996Y-29418D01*
X13521Y-29228D02*
X12835Y-30256D01*
X14550Y-29266D02*
X14626Y-29266D01*
X14702Y-29304D01*
X14740Y-29342D01*
X14778Y-29418D01*
X14817Y-29571D01*
X14817Y-29761D01*
X14778Y-29913D01*
X14740Y-29990D01*
X14702Y-30028D01*
X14626Y-30066D01*
X14550Y-30066D01*
X14474Y-30028D01*
X14436Y-29990D01*
X14397Y-29913D01*
X14359Y-29761D01*
X14359Y-29571D01*
X14397Y-29418D01*
X14436Y-29342D01*
X14474Y-29304D01*
X14550Y-29266D01*
X15159Y-29990D02*
X15198Y-30028D01*
X15159Y-30066D01*
X15121Y-30028D01*
X15159Y-29990D01*
X15159Y-30066D01*
X15655Y-29609D02*
X15579Y-29571D01*
X15540Y-29532D01*
X15502Y-29456D01*
X15502Y-29418D01*
X15540Y-29342D01*
X15579Y-29304D01*
X15655Y-29266D01*
X15807Y-29266D01*
X15883Y-29304D01*
X15921Y-29342D01*
X15960Y-29418D01*
X15960Y-29456D01*
X15921Y-29532D01*
X15883Y-29571D01*
X15807Y-29609D01*
X15655Y-29609D01*
X15579Y-29647D01*
X15540Y-29685D01*
X15502Y-29761D01*
X15502Y-29913D01*
X15540Y-29990D01*
X15579Y-30028D01*
X15655Y-30066D01*
X15807Y-30066D01*
X15883Y-30028D01*
X15921Y-29990D01*
X15960Y-29913D01*
X15960Y-29761D01*
X15921Y-29685D01*
X15883Y-29647D01*
X15807Y-29609D01*
X16722Y-30066D02*
X16264Y-30066D01*
X16493Y-30066D02*
X16493Y-29266D01*
X16417Y-29380D01*
X16341Y-29456D01*
X16264Y-29494D01*
X17064Y-30066D02*
X17064Y-29532D01*
X17064Y-29609D02*
X17103Y-29571D01*
X17179Y-29532D01*
X17293Y-29532D01*
X17369Y-29571D01*
X17407Y-29647D01*
X17407Y-30066D01*
X17407Y-29647D02*
X17445Y-29571D01*
X17522Y-29532D01*
X17636Y-29532D01*
X17712Y-29571D01*
X17750Y-29647D01*
X17750Y-30066D01*
X18131Y-30066D02*
X18131Y-29532D01*
X18131Y-29609D02*
X18170Y-29571D01*
X18246Y-29532D01*
X18360Y-29532D01*
X18436Y-29571D01*
X18474Y-29647D01*
X18474Y-30066D01*
X18474Y-29647D02*
X18512Y-29571D01*
X18589Y-29532D01*
X18703Y-29532D01*
X18779Y-29571D01*
X18817Y-29647D01*
X18817Y-30066D01*
X20037Y-30371D02*
X19999Y-30332D01*
X19923Y-30218D01*
X19885Y-30142D01*
X19847Y-30028D01*
X19808Y-29837D01*
X19808Y-29685D01*
X19847Y-29494D01*
X19885Y-29380D01*
X19923Y-29304D01*
X19999Y-29190D01*
X20037Y-29152D01*
X20722Y-29266D02*
X20341Y-29266D01*
X20303Y-29647D01*
X20341Y-29609D01*
X20418Y-29571D01*
X20608Y-29571D01*
X20684Y-29609D01*
X20722Y-29647D01*
X20761Y-29723D01*
X20761Y-29913D01*
X20722Y-29990D01*
X20684Y-30028D01*
X20608Y-30066D01*
X20418Y-30066D01*
X20341Y-30028D01*
X20303Y-29990D01*
X21713Y-30066D02*
X21713Y-29266D01*
X22056Y-30066D02*
X22056Y-29647D01*
X22018Y-29571D01*
X21942Y-29532D01*
X21828Y-29532D01*
X21752Y-29571D01*
X21713Y-29609D01*
X22552Y-30066D02*
X22476Y-30028D01*
X22437Y-29990D01*
X22399Y-29913D01*
X22399Y-29685D01*
X22437Y-29609D01*
X22476Y-29571D01*
X22552Y-29532D01*
X22666Y-29532D01*
X22742Y-29571D01*
X22780Y-29609D01*
X22818Y-29685D01*
X22818Y-29913D01*
X22780Y-29990D01*
X22742Y-30028D01*
X22666Y-30066D01*
X22552Y-30066D01*
X23276Y-30066D02*
X23200Y-30028D01*
X23161Y-29952D01*
X23161Y-29266D01*
X23885Y-30028D02*
X23809Y-30066D01*
X23657Y-30066D01*
X23580Y-30028D01*
X23542Y-29952D01*
X23542Y-29647D01*
X23580Y-29571D01*
X23657Y-29532D01*
X23809Y-29532D01*
X23885Y-29571D01*
X23923Y-29647D01*
X23923Y-29723D01*
X23542Y-29799D01*
X24228Y-30028D02*
X24305Y-30066D01*
X24457Y-30066D01*
X24533Y-30028D01*
X24571Y-29952D01*
X24571Y-29913D01*
X24533Y-29837D01*
X24457Y-29799D01*
X24343Y-29799D01*
X24266Y-29761D01*
X24228Y-29685D01*
X24228Y-29647D01*
X24266Y-29571D01*
X24343Y-29532D01*
X24457Y-29532D01*
X24533Y-29571D01*
X24838Y-30371D02*
X24876Y-30332D01*
X24953Y-30218D01*
X24991Y-30142D01*
X25029Y-30028D01*
X25067Y-29837D01*
X25067Y-29685D01*
X25029Y-29494D01*
X24991Y-29380D01*
X24953Y-29304D01*
X24876Y-29190D01*
X24838Y-29152D01*
X07735Y-30623D02*
X07735Y-30973D01*
X07910Y-30798D02*
X07560Y-30798D01*
X08453Y-30322D02*
X08529Y-30322D01*
X08605Y-30360D01*
X08643Y-30398D01*
X08681Y-30474D01*
X08720Y-30627D01*
X08720Y-30817D01*
X08681Y-30969D01*
X08643Y-31046D01*
X08605Y-31084D01*
X08529Y-31122D01*
X08453Y-31122D01*
X08377Y-31084D01*
X08339Y-31046D01*
X08300Y-30969D01*
X08262Y-30817D01*
X08262Y-30627D01*
X08300Y-30474D01*
X08339Y-30398D01*
X08377Y-30360D01*
X08453Y-30322D01*
X09062Y-31046D02*
X09101Y-31084D01*
X09062Y-31122D01*
X09024Y-31084D01*
X09062Y-31046D01*
X09062Y-31122D01*
X09596Y-30322D02*
X09672Y-30322D01*
X09748Y-30360D01*
X09786Y-30398D01*
X09824Y-30474D01*
X09863Y-30627D01*
X09863Y-30817D01*
X09824Y-30969D01*
X09786Y-31046D01*
X09748Y-31084D01*
X09672Y-31122D01*
X09596Y-31122D01*
X09520Y-31084D01*
X09482Y-31046D01*
X09443Y-30969D01*
X09405Y-30817D01*
X09405Y-30627D01*
X09443Y-30474D01*
X09482Y-30398D01*
X09520Y-30360D01*
X09596Y-30322D01*
X10129Y-30322D02*
X10625Y-30322D01*
X10358Y-30627D01*
X10472Y-30627D01*
X10548Y-30665D01*
X10586Y-30703D01*
X10625Y-30779D01*
X10625Y-30969D01*
X10586Y-31046D01*
X10548Y-31084D01*
X10472Y-31122D01*
X10244Y-31122D01*
X10167Y-31084D01*
X10129Y-31046D01*
X11348Y-30322D02*
X10967Y-30322D01*
X10929Y-30703D01*
X10967Y-30665D01*
X11044Y-30627D01*
X11234Y-30627D01*
X11310Y-30665D01*
X11348Y-30703D01*
X11387Y-30779D01*
X11387Y-30969D01*
X11348Y-31046D01*
X11310Y-31084D01*
X11234Y-31122D01*
X11044Y-31122D01*
X10967Y-31084D01*
X10929Y-31046D01*
X11691Y-30322D02*
X11691Y-30474D01*
X11996Y-30322D02*
X11996Y-30474D01*
X13521Y-30284D02*
X12835Y-31312D01*
X14550Y-30322D02*
X14626Y-30322D01*
X14702Y-30360D01*
X14740Y-30398D01*
X14778Y-30474D01*
X14817Y-30627D01*
X14817Y-30817D01*
X14778Y-30969D01*
X14740Y-31046D01*
X14702Y-31084D01*
X14626Y-31122D01*
X14550Y-31122D01*
X14474Y-31084D01*
X14436Y-31046D01*
X14397Y-30969D01*
X14359Y-30817D01*
X14359Y-30627D01*
X14397Y-30474D01*
X14436Y-30398D01*
X14474Y-30360D01*
X14550Y-30322D01*
X15159Y-31046D02*
X15198Y-31084D01*
X15159Y-31122D01*
X15121Y-31084D01*
X15159Y-31046D01*
X15159Y-31122D01*
X15655Y-30665D02*
X15579Y-30627D01*
X15540Y-30588D01*
X15502Y-30512D01*
X15502Y-30474D01*
X15540Y-30398D01*
X15579Y-30360D01*
X15655Y-30322D01*
X15807Y-30322D01*
X15883Y-30360D01*
X15921Y-30398D01*
X15960Y-30474D01*
X15960Y-30512D01*
X15921Y-30588D01*
X15883Y-30627D01*
X15807Y-30665D01*
X15655Y-30665D01*
X15579Y-30703D01*
X15540Y-30741D01*
X15502Y-30817D01*
X15502Y-30969D01*
X15540Y-31046D01*
X15579Y-31084D01*
X15655Y-31122D01*
X15807Y-31122D01*
X15883Y-31084D01*
X15921Y-31046D01*
X15960Y-30969D01*
X15960Y-30817D01*
X15921Y-30741D01*
X15883Y-30703D01*
X15807Y-30665D01*
X16341Y-31122D02*
X16493Y-31122D01*
X16569Y-31084D01*
X16607Y-31046D01*
X16683Y-30931D01*
X16722Y-30779D01*
X16722Y-30474D01*
X16683Y-30398D01*
X16645Y-30360D01*
X16569Y-30322D01*
X16417Y-30322D01*
X16341Y-30360D01*
X16302Y-30398D01*
X16264Y-30474D01*
X16264Y-30665D01*
X16302Y-30741D01*
X16341Y-30779D01*
X16417Y-30817D01*
X16569Y-30817D01*
X16645Y-30779D01*
X16683Y-30741D01*
X16722Y-30665D01*
X17064Y-31122D02*
X17064Y-30588D01*
X17064Y-30665D02*
X17103Y-30627D01*
X17179Y-30588D01*
X17293Y-30588D01*
X17369Y-30627D01*
X17407Y-30703D01*
X17407Y-31122D01*
X17407Y-30703D02*
X17445Y-30627D01*
X17522Y-30588D01*
X17636Y-30588D01*
X17712Y-30627D01*
X17750Y-30703D01*
X17750Y-31122D01*
X18131Y-31122D02*
X18131Y-30588D01*
X18131Y-30665D02*
X18170Y-30627D01*
X18246Y-30588D01*
X18360Y-30588D01*
X18436Y-30627D01*
X18474Y-30703D01*
X18474Y-31122D01*
X18474Y-30703D02*
X18512Y-30627D01*
X18589Y-30588D01*
X18703Y-30588D01*
X18779Y-30627D01*
X18817Y-30703D01*
X18817Y-31122D01*
X20037Y-31427D02*
X19999Y-31388D01*
X19923Y-31274D01*
X19885Y-31198D01*
X19847Y-31084D01*
X19808Y-30893D01*
X19808Y-30741D01*
X19847Y-30550D01*
X19885Y-30436D01*
X19923Y-30360D01*
X19999Y-30246D01*
X20037Y-30208D01*
X20684Y-30588D02*
X20684Y-31122D01*
X20494Y-30284D02*
X20303Y-30855D01*
X20799Y-30855D01*
X21065Y-30398D02*
X21103Y-30360D01*
X21180Y-30322D01*
X21370Y-30322D01*
X21446Y-30360D01*
X21484Y-30398D01*
X21523Y-30474D01*
X21523Y-30550D01*
X21484Y-30665D01*
X21027Y-31122D01*
X21523Y-31122D01*
X22475Y-31122D02*
X22475Y-30322D01*
X22818Y-31122D02*
X22818Y-30703D01*
X22780Y-30627D01*
X22704Y-30588D01*
X22590Y-30588D01*
X22514Y-30627D01*
X22475Y-30665D01*
X23314Y-31122D02*
X23238Y-31084D01*
X23199Y-31046D01*
X23161Y-30969D01*
X23161Y-30741D01*
X23199Y-30665D01*
X23238Y-30627D01*
X23314Y-30588D01*
X23428Y-30588D01*
X23504Y-30627D01*
X23542Y-30665D01*
X23580Y-30741D01*
X23580Y-30969D01*
X23542Y-31046D01*
X23504Y-31084D01*
X23428Y-31122D01*
X23314Y-31122D01*
X24038Y-31122D02*
X23962Y-31084D01*
X23923Y-31008D01*
X23923Y-30322D01*
X24647Y-31084D02*
X24571Y-31122D01*
X24419Y-31122D01*
X24342Y-31084D01*
X24304Y-31008D01*
X24304Y-30703D01*
X24342Y-30627D01*
X24419Y-30588D01*
X24571Y-30588D01*
X24647Y-30627D01*
X24685Y-30703D01*
X24685Y-30779D01*
X24304Y-30855D01*
X24990Y-31084D02*
X25067Y-31122D01*
X25219Y-31122D01*
X25295Y-31084D01*
X25333Y-31008D01*
X25333Y-30969D01*
X25295Y-30893D01*
X25219Y-30855D01*
X25105Y-30855D01*
X25028Y-30817D01*
X24990Y-30741D01*
X24990Y-30703D01*
X25028Y-30627D01*
X25105Y-30588D01*
X25219Y-30588D01*
X25295Y-30627D01*
X25600Y-31427D02*
X25638Y-31388D01*
X25715Y-31274D01*
X25753Y-31198D01*
X25791Y-31084D01*
X25829Y-30893D01*
X25829Y-30741D01*
X25791Y-30550D01*
X25753Y-30436D01*
X25715Y-30360D01*
X25638Y-30246D01*
X25600Y-30208D01*
G54D10*
X07910Y-31854D02*
X07906Y-31892D01*
X07894Y-31930D01*
X07876Y-31964D01*
X07851Y-31994D01*
X07821Y-32019D01*
X07787Y-32038D01*
X07750Y-32049D01*
X07711Y-32053D01*
X07673Y-32050D01*
X07636Y-32039D01*
X07601Y-32021D01*
X07571Y-31996D01*
X07545Y-31966D01*
X07527Y-31932D01*
X07515Y-31895D01*
X07511Y-31856D01*
X07514Y-31818D01*
X07525Y-31781D01*
X07542Y-31746D01*
X07567Y-31716D01*
X07596Y-31690D01*
X07630Y-31671D01*
X07668Y-31659D01*
X07706Y-31655D01*
X07744Y-31658D01*
X07782Y-31668D01*
X07817Y-31686D01*
X07847Y-31710D01*
X07873Y-31739D01*
X07892Y-31773D01*
X07905Y-31810D01*
X07909Y-31849D01*
X07910Y-31854D01*
X07510Y-31654D02*
X07910Y-32054D01*
X07910Y-31654D02*
X07510Y-32054D01*
G54D12*
X08453Y-31378D02*
X08529Y-31378D01*
X08605Y-31416D01*
X08643Y-31454D01*
X08681Y-31530D01*
X08720Y-31683D01*
X08720Y-31873D01*
X08681Y-32025D01*
X08643Y-32102D01*
X08605Y-32140D01*
X08529Y-32178D01*
X08453Y-32178D01*
X08377Y-32140D01*
X08339Y-32102D01*
X08300Y-32025D01*
X08262Y-31873D01*
X08262Y-31683D01*
X08300Y-31530D01*
X08339Y-31454D01*
X08377Y-31416D01*
X08453Y-31378D01*
X09062Y-32102D02*
X09101Y-32140D01*
X09062Y-32178D01*
X09024Y-32140D01*
X09062Y-32102D01*
X09062Y-32178D01*
X09596Y-31378D02*
X09672Y-31378D01*
X09748Y-31416D01*
X09786Y-31454D01*
X09824Y-31530D01*
X09863Y-31683D01*
X09863Y-31873D01*
X09824Y-32025D01*
X09786Y-32102D01*
X09748Y-32140D01*
X09672Y-32178D01*
X09596Y-32178D01*
X09520Y-32140D01*
X09482Y-32102D01*
X09443Y-32025D01*
X09405Y-31873D01*
X09405Y-31683D01*
X09443Y-31530D01*
X09482Y-31454D01*
X09520Y-31416D01*
X09596Y-31378D01*
X10548Y-31644D02*
X10548Y-32178D01*
X10358Y-31340D02*
X10167Y-31911D01*
X10663Y-31911D01*
X11120Y-31378D02*
X11196Y-31378D01*
X11272Y-31416D01*
X11310Y-31454D01*
X11348Y-31530D01*
X11387Y-31683D01*
X11387Y-31873D01*
X11348Y-32025D01*
X11310Y-32102D01*
X11272Y-32140D01*
X11196Y-32178D01*
X11120Y-32178D01*
X11044Y-32140D01*
X11006Y-32102D01*
X10967Y-32025D01*
X10929Y-31873D01*
X10929Y-31683D01*
X10967Y-31530D01*
X11006Y-31454D01*
X11044Y-31416D01*
X11120Y-31378D01*
X11691Y-31378D02*
X11691Y-31530D01*
X11996Y-31378D02*
X11996Y-31530D01*
X13521Y-31340D02*
X12835Y-32368D01*
X14817Y-32178D02*
X14359Y-32178D01*
X14588Y-32178D02*
X14588Y-31378D01*
X14512Y-31492D01*
X14436Y-31568D01*
X14359Y-31606D01*
X15159Y-32102D02*
X15198Y-32140D01*
X15159Y-32178D01*
X15121Y-32140D01*
X15159Y-32102D01*
X15159Y-32178D01*
X15693Y-31378D02*
X15769Y-31378D01*
X15845Y-31416D01*
X15883Y-31454D01*
X15921Y-31530D01*
X15960Y-31683D01*
X15960Y-31873D01*
X15921Y-32025D01*
X15883Y-32102D01*
X15845Y-32140D01*
X15769Y-32178D01*
X15693Y-32178D01*
X15617Y-32140D01*
X15579Y-32102D01*
X15540Y-32025D01*
X15502Y-31873D01*
X15502Y-31683D01*
X15540Y-31530D01*
X15579Y-31454D01*
X15617Y-31416D01*
X15693Y-31378D01*
X16264Y-31454D02*
X16302Y-31416D01*
X16379Y-31378D01*
X16569Y-31378D01*
X16645Y-31416D01*
X16683Y-31454D01*
X16722Y-31530D01*
X16722Y-31606D01*
X16683Y-31721D01*
X16226Y-32178D01*
X16722Y-32178D01*
X17064Y-32178D02*
X17064Y-31644D01*
X17064Y-31721D02*
X17103Y-31683D01*
X17179Y-31644D01*
X17293Y-31644D01*
X17369Y-31683D01*
X17407Y-31759D01*
X17407Y-32178D01*
X17407Y-31759D02*
X17445Y-31683D01*
X17522Y-31644D01*
X17636Y-31644D01*
X17712Y-31683D01*
X17750Y-31759D01*
X17750Y-32178D01*
X18131Y-32178D02*
X18131Y-31644D01*
X18131Y-31721D02*
X18170Y-31683D01*
X18246Y-31644D01*
X18360Y-31644D01*
X18436Y-31683D01*
X18474Y-31759D01*
X18474Y-32178D01*
X18474Y-31759D02*
X18512Y-31683D01*
X18589Y-31644D01*
X18703Y-31644D01*
X18779Y-31683D01*
X18817Y-31759D01*
X18817Y-32178D01*
X20037Y-32483D02*
X19999Y-32444D01*
X19923Y-32330D01*
X19885Y-32254D01*
X19847Y-32140D01*
X19808Y-31949D01*
X19808Y-31797D01*
X19847Y-31606D01*
X19885Y-31492D01*
X19923Y-31416D01*
X19999Y-31302D01*
X20037Y-31264D01*
X20761Y-32178D02*
X20303Y-32178D01*
X20532Y-32178D02*
X20532Y-31378D01*
X20456Y-31492D01*
X20380Y-31568D01*
X20303Y-31606D01*
X21446Y-31644D02*
X21446Y-32178D01*
X21256Y-31340D02*
X21065Y-31911D01*
X21561Y-31911D01*
X22285Y-32178D02*
X21827Y-32178D01*
X22056Y-32178D02*
X22056Y-31378D01*
X21980Y-31492D01*
X21904Y-31568D01*
X21827Y-31606D01*
X23237Y-32178D02*
X23237Y-31378D01*
X23580Y-32178D02*
X23580Y-31759D01*
X23542Y-31683D01*
X23466Y-31644D01*
X23352Y-31644D01*
X23276Y-31683D01*
X23237Y-31721D01*
X24076Y-32178D02*
X24000Y-32140D01*
X23961Y-32102D01*
X23923Y-32025D01*
X23923Y-31797D01*
X23961Y-31721D01*
X24000Y-31683D01*
X24076Y-31644D01*
X24190Y-31644D01*
X24266Y-31683D01*
X24304Y-31721D01*
X24342Y-31797D01*
X24342Y-32025D01*
X24304Y-32102D01*
X24266Y-32140D01*
X24190Y-32178D01*
X24076Y-32178D01*
X24800Y-32178D02*
X24724Y-32140D01*
X24685Y-32064D01*
X24685Y-31378D01*
X25409Y-32140D02*
X25333Y-32178D01*
X25181Y-32178D01*
X25104Y-32140D01*
X25066Y-32064D01*
X25066Y-31759D01*
X25104Y-31683D01*
X25181Y-31644D01*
X25333Y-31644D01*
X25409Y-31683D01*
X25447Y-31759D01*
X25447Y-31835D01*
X25066Y-31911D01*
X25752Y-32140D02*
X25829Y-32178D01*
X25981Y-32178D01*
X26057Y-32140D01*
X26095Y-32064D01*
X26095Y-32025D01*
X26057Y-31949D01*
X25981Y-31911D01*
X25867Y-31911D01*
X25790Y-31873D01*
X25752Y-31797D01*
X25752Y-31759D01*
X25790Y-31683D01*
X25867Y-31644D01*
X25981Y-31644D01*
X26057Y-31683D01*
X26362Y-32483D02*
X26400Y-32444D01*
X26477Y-32330D01*
X26515Y-32254D01*
X26553Y-32140D01*
X26591Y-31949D01*
X26591Y-31797D01*
X26553Y-31606D01*
X26515Y-31492D01*
X26477Y-31416D01*
X26400Y-31302D01*
X26362Y-31264D01*
G54D10*
X07910Y-32910D02*
X07905Y-32958D01*
X07891Y-33005D01*
X07868Y-33048D01*
X07837Y-33086D01*
X07799Y-33117D01*
X07756Y-33140D01*
X07710Y-33154D01*
X07661Y-33159D01*
X07614Y-33155D01*
X07567Y-33141D01*
X07524Y-33119D01*
X07486Y-33088D01*
X07454Y-33051D01*
X07431Y-33008D01*
X07416Y-32961D01*
X07411Y-32913D01*
X07415Y-32865D01*
X07428Y-32818D01*
X07450Y-32775D01*
X07481Y-32737D01*
X07518Y-32705D01*
X07560Y-32681D01*
X07607Y-32666D01*
X07655Y-32661D01*
X07703Y-32664D01*
X07750Y-32677D01*
X07793Y-32699D01*
X07832Y-32729D01*
X07864Y-32766D01*
X07888Y-32809D01*
X07903Y-32855D01*
X07909Y-32904D01*
X07910Y-32910D01*
X07410Y-32910D02*
X07910Y-32910D01*
G54D12*
X08453Y-32434D02*
X08529Y-32434D01*
X08605Y-32472D01*
X08643Y-32510D01*
X08681Y-32586D01*
X08720Y-32739D01*
X08720Y-32929D01*
X08681Y-33081D01*
X08643Y-33158D01*
X08605Y-33196D01*
X08529Y-33234D01*
X08453Y-33234D01*
X08377Y-33196D01*
X08339Y-33158D01*
X08300Y-33081D01*
X08262Y-32929D01*
X08262Y-32739D01*
X08300Y-32586D01*
X08339Y-32510D01*
X08377Y-32472D01*
X08453Y-32434D01*
X09062Y-33158D02*
X09101Y-33196D01*
X09062Y-33234D01*
X09024Y-33196D01*
X09062Y-33158D01*
X09062Y-33234D01*
X09596Y-32434D02*
X09672Y-32434D01*
X09748Y-32472D01*
X09786Y-32510D01*
X09824Y-32586D01*
X09863Y-32739D01*
X09863Y-32929D01*
X09824Y-33081D01*
X09786Y-33158D01*
X09748Y-33196D01*
X09672Y-33234D01*
X09596Y-33234D01*
X09520Y-33196D01*
X09482Y-33158D01*
X09443Y-33081D01*
X09405Y-32929D01*
X09405Y-32739D01*
X09443Y-32586D01*
X09482Y-32510D01*
X09520Y-32472D01*
X09596Y-32434D01*
X10586Y-32434D02*
X10205Y-32434D01*
X10167Y-32815D01*
X10205Y-32777D01*
X10282Y-32739D01*
X10472Y-32739D01*
X10548Y-32777D01*
X10586Y-32815D01*
X10625Y-32891D01*
X10625Y-33081D01*
X10586Y-33158D01*
X10548Y-33196D01*
X10472Y-33234D01*
X10282Y-33234D01*
X10205Y-33196D01*
X10167Y-33158D01*
X11120Y-32434D02*
X11196Y-32434D01*
X11272Y-32472D01*
X11310Y-32510D01*
X11348Y-32586D01*
X11387Y-32739D01*
X11387Y-32929D01*
X11348Y-33081D01*
X11310Y-33158D01*
X11272Y-33196D01*
X11196Y-33234D01*
X11120Y-33234D01*
X11044Y-33196D01*
X11006Y-33158D01*
X10967Y-33081D01*
X10929Y-32929D01*
X10929Y-32739D01*
X10967Y-32586D01*
X11006Y-32510D01*
X11044Y-32472D01*
X11120Y-32434D01*
X11691Y-32434D02*
X11691Y-32586D01*
X11996Y-32434D02*
X11996Y-32586D01*
X13521Y-32396D02*
X12835Y-33424D01*
X14817Y-33234D02*
X14359Y-33234D01*
X14588Y-33234D02*
X14588Y-32434D01*
X14512Y-32548D01*
X14436Y-32624D01*
X14359Y-32662D01*
X15159Y-33158D02*
X15198Y-33196D01*
X15159Y-33234D01*
X15121Y-33196D01*
X15159Y-33158D01*
X15159Y-33234D01*
X15502Y-32510D02*
X15540Y-32472D01*
X15617Y-32434D01*
X15807Y-32434D01*
X15883Y-32472D01*
X15921Y-32510D01*
X15960Y-32586D01*
X15960Y-32662D01*
X15921Y-32777D01*
X15464Y-33234D01*
X15960Y-33234D01*
X16226Y-32434D02*
X16760Y-32434D01*
X16417Y-33234D01*
X17064Y-33234D02*
X17064Y-32700D01*
X17064Y-32777D02*
X17103Y-32739D01*
X17179Y-32700D01*
X17293Y-32700D01*
X17369Y-32739D01*
X17407Y-32815D01*
X17407Y-33234D01*
X17407Y-32815D02*
X17445Y-32739D01*
X17522Y-32700D01*
X17636Y-32700D01*
X17712Y-32739D01*
X17750Y-32815D01*
X17750Y-33234D01*
X18131Y-33234D02*
X18131Y-32700D01*
X18131Y-32777D02*
X18170Y-32739D01*
X18246Y-32700D01*
X18360Y-32700D01*
X18436Y-32739D01*
X18474Y-32815D01*
X18474Y-33234D01*
X18474Y-32815D02*
X18512Y-32739D01*
X18589Y-32700D01*
X18703Y-32700D01*
X18779Y-32739D01*
X18817Y-32815D01*
X18817Y-33234D01*
X20037Y-33539D02*
X19999Y-33500D01*
X19923Y-33386D01*
X19885Y-33310D01*
X19847Y-33196D01*
X19808Y-33005D01*
X19808Y-32853D01*
X19847Y-32662D01*
X19885Y-32548D01*
X19923Y-32472D01*
X19999Y-32358D01*
X20037Y-32320D01*
X20303Y-32510D02*
X20341Y-32472D01*
X20418Y-32434D01*
X20608Y-32434D01*
X20684Y-32472D01*
X20722Y-32510D01*
X20761Y-32586D01*
X20761Y-32662D01*
X20722Y-32777D01*
X20265Y-33234D01*
X20761Y-33234D01*
X21713Y-33234D02*
X21713Y-32434D01*
X22056Y-33234D02*
X22056Y-32815D01*
X22018Y-32739D01*
X21942Y-32700D01*
X21828Y-32700D01*
X21752Y-32739D01*
X21713Y-32777D01*
X22552Y-33234D02*
X22476Y-33196D01*
X22437Y-33158D01*
X22399Y-33081D01*
X22399Y-32853D01*
X22437Y-32777D01*
X22476Y-32739D01*
X22552Y-32700D01*
X22666Y-32700D01*
X22742Y-32739D01*
X22780Y-32777D01*
X22818Y-32853D01*
X22818Y-33081D01*
X22780Y-33158D01*
X22742Y-33196D01*
X22666Y-33234D01*
X22552Y-33234D01*
X23276Y-33234D02*
X23200Y-33196D01*
X23161Y-33120D01*
X23161Y-32434D01*
X23885Y-33196D02*
X23809Y-33234D01*
X23657Y-33234D01*
X23580Y-33196D01*
X23542Y-33120D01*
X23542Y-32815D01*
X23580Y-32739D01*
X23657Y-32700D01*
X23809Y-32700D01*
X23885Y-32739D01*
X23923Y-32815D01*
X23923Y-32891D01*
X23542Y-32967D01*
X24228Y-33196D02*
X24305Y-33234D01*
X24457Y-33234D01*
X24533Y-33196D01*
X24571Y-33120D01*
X24571Y-33081D01*
X24533Y-33005D01*
X24457Y-32967D01*
X24343Y-32967D01*
X24266Y-32929D01*
X24228Y-32853D01*
X24228Y-32815D01*
X24266Y-32739D01*
X24343Y-32700D01*
X24457Y-32700D01*
X24533Y-32739D01*
X24838Y-33539D02*
X24876Y-33500D01*
X24953Y-33386D01*
X24991Y-33310D01*
X25029Y-33196D01*
X25067Y-33005D01*
X25067Y-32853D01*
X25029Y-32662D01*
X24991Y-32548D01*
X24953Y-32472D01*
X24876Y-32358D01*
X24838Y-32320D01*
G54D10*
X07910Y-33966D02*
X07904Y-34024D01*
X07887Y-34080D01*
X07859Y-34132D01*
X07822Y-34177D01*
X07777Y-34214D01*
X07726Y-34242D01*
X07670Y-34259D01*
X07612Y-34265D01*
X07554Y-34260D01*
X07498Y-34244D01*
X07446Y-34217D01*
X07401Y-34180D01*
X07363Y-34135D01*
X07335Y-34084D01*
X07317Y-34028D01*
X07311Y-33970D01*
X07315Y-33912D01*
X07332Y-33856D01*
X07358Y-33804D01*
X07395Y-33758D01*
X07439Y-33720D01*
X07490Y-33692D01*
X07546Y-33673D01*
X07604Y-33667D01*
X07662Y-33671D01*
X07718Y-33687D01*
X07770Y-33713D01*
X07816Y-33749D01*
X07855Y-33794D01*
X07884Y-33844D01*
X07902Y-33900D01*
X07909Y-33958D01*
X07910Y-33966D01*
X07610Y-33666D02*
X07610Y-34266D01*
G54D12*
X08453Y-33490D02*
X08529Y-33490D01*
X08605Y-33528D01*
X08643Y-33566D01*
X08681Y-33642D01*
X08720Y-33795D01*
X08720Y-33985D01*
X08681Y-34137D01*
X08643Y-34214D01*
X08605Y-34252D01*
X08529Y-34290D01*
X08453Y-34290D01*
X08377Y-34252D01*
X08339Y-34214D01*
X08300Y-34137D01*
X08262Y-33985D01*
X08262Y-33795D01*
X08300Y-33642D01*
X08339Y-33566D01*
X08377Y-33528D01*
X08453Y-33490D01*
X09062Y-34214D02*
X09101Y-34252D01*
X09062Y-34290D01*
X09024Y-34252D01*
X09062Y-34214D01*
X09062Y-34290D01*
X09596Y-33490D02*
X09672Y-33490D01*
X09748Y-33528D01*
X09786Y-33566D01*
X09824Y-33642D01*
X09863Y-33795D01*
X09863Y-33985D01*
X09824Y-34137D01*
X09786Y-34214D01*
X09748Y-34252D01*
X09672Y-34290D01*
X09596Y-34290D01*
X09520Y-34252D01*
X09482Y-34214D01*
X09443Y-34137D01*
X09405Y-33985D01*
X09405Y-33795D01*
X09443Y-33642D01*
X09482Y-33566D01*
X09520Y-33528D01*
X09596Y-33490D01*
X10548Y-33490D02*
X10396Y-33490D01*
X10320Y-33528D01*
X10282Y-33566D01*
X10205Y-33680D01*
X10167Y-33833D01*
X10167Y-34137D01*
X10205Y-34214D01*
X10244Y-34252D01*
X10320Y-34290D01*
X10472Y-34290D01*
X10548Y-34252D01*
X10586Y-34214D01*
X10625Y-34137D01*
X10625Y-33947D01*
X10586Y-33871D01*
X10548Y-33833D01*
X10472Y-33795D01*
X10320Y-33795D01*
X10244Y-33833D01*
X10205Y-33871D01*
X10167Y-33947D01*
X11120Y-33490D02*
X11196Y-33490D01*
X11272Y-33528D01*
X11310Y-33566D01*
X11348Y-33642D01*
X11387Y-33795D01*
X11387Y-33985D01*
X11348Y-34137D01*
X11310Y-34214D01*
X11272Y-34252D01*
X11196Y-34290D01*
X11120Y-34290D01*
X11044Y-34252D01*
X11006Y-34214D01*
X10967Y-34137D01*
X10929Y-33985D01*
X10929Y-33795D01*
X10967Y-33642D01*
X11006Y-33566D01*
X11044Y-33528D01*
X11120Y-33490D01*
X11691Y-33490D02*
X11691Y-33642D01*
X11996Y-33490D02*
X11996Y-33642D01*
X13521Y-33452D02*
X12835Y-34480D01*
X14817Y-34290D02*
X14359Y-34290D01*
X14588Y-34290D02*
X14588Y-33490D01*
X14512Y-33604D01*
X14436Y-33680D01*
X14359Y-33718D01*
X15159Y-34214D02*
X15198Y-34252D01*
X15159Y-34290D01*
X15121Y-34252D01*
X15159Y-34214D01*
X15159Y-34290D01*
X15921Y-33490D02*
X15540Y-33490D01*
X15502Y-33871D01*
X15540Y-33833D01*
X15617Y-33795D01*
X15807Y-33795D01*
X15883Y-33833D01*
X15921Y-33871D01*
X15960Y-33947D01*
X15960Y-34137D01*
X15921Y-34214D01*
X15883Y-34252D01*
X15807Y-34290D01*
X15617Y-34290D01*
X15540Y-34252D01*
X15502Y-34214D01*
X16264Y-33566D02*
X16302Y-33528D01*
X16379Y-33490D01*
X16569Y-33490D01*
X16645Y-33528D01*
X16683Y-33566D01*
X16722Y-33642D01*
X16722Y-33718D01*
X16683Y-33833D01*
X16226Y-34290D01*
X16722Y-34290D01*
X17064Y-34290D02*
X17064Y-33756D01*
X17064Y-33833D02*
X17103Y-33795D01*
X17179Y-33756D01*
X17293Y-33756D01*
X17369Y-33795D01*
X17407Y-33871D01*
X17407Y-34290D01*
X17407Y-33871D02*
X17445Y-33795D01*
X17522Y-33756D01*
X17636Y-33756D01*
X17712Y-33795D01*
X17750Y-33871D01*
X17750Y-34290D01*
X18131Y-34290D02*
X18131Y-33756D01*
X18131Y-33833D02*
X18170Y-33795D01*
X18246Y-33756D01*
X18360Y-33756D01*
X18436Y-33795D01*
X18474Y-33871D01*
X18474Y-34290D01*
X18474Y-33871D02*
X18512Y-33795D01*
X18589Y-33756D01*
X18703Y-33756D01*
X18779Y-33795D01*
X18817Y-33871D01*
X18817Y-34290D01*
X20037Y-34595D02*
X19999Y-34556D01*
X19923Y-34442D01*
X19885Y-34366D01*
X19847Y-34252D01*
X19808Y-34061D01*
X19808Y-33909D01*
X19847Y-33718D01*
X19885Y-33604D01*
X19923Y-33528D01*
X19999Y-33414D01*
X20037Y-33376D01*
X20722Y-33490D02*
X20341Y-33490D01*
X20303Y-33871D01*
X20341Y-33833D01*
X20418Y-33795D01*
X20608Y-33795D01*
X20684Y-33833D01*
X20722Y-33871D01*
X20761Y-33947D01*
X20761Y-34137D01*
X20722Y-34214D01*
X20684Y-34252D01*
X20608Y-34290D01*
X20418Y-34290D01*
X20341Y-34252D01*
X20303Y-34214D01*
X21713Y-34290D02*
X21713Y-33490D01*
X22056Y-34290D02*
X22056Y-33871D01*
X22018Y-33795D01*
X21942Y-33756D01*
X21828Y-33756D01*
X21752Y-33795D01*
X21713Y-33833D01*
X22552Y-34290D02*
X22476Y-34252D01*
X22437Y-34214D01*
X22399Y-34137D01*
X22399Y-33909D01*
X22437Y-33833D01*
X22476Y-33795D01*
X22552Y-33756D01*
X22666Y-33756D01*
X22742Y-33795D01*
X22780Y-33833D01*
X22818Y-33909D01*
X22818Y-34137D01*
X22780Y-34214D01*
X22742Y-34252D01*
X22666Y-34290D01*
X22552Y-34290D01*
X23276Y-34290D02*
X23200Y-34252D01*
X23161Y-34176D01*
X23161Y-33490D01*
X23885Y-34252D02*
X23809Y-34290D01*
X23657Y-34290D01*
X23580Y-34252D01*
X23542Y-34176D01*
X23542Y-33871D01*
X23580Y-33795D01*
X23657Y-33756D01*
X23809Y-33756D01*
X23885Y-33795D01*
X23923Y-33871D01*
X23923Y-33947D01*
X23542Y-34023D01*
X24228Y-34252D02*
X24305Y-34290D01*
X24457Y-34290D01*
X24533Y-34252D01*
X24571Y-34176D01*
X24571Y-34137D01*
X24533Y-34061D01*
X24457Y-34023D01*
X24343Y-34023D01*
X24266Y-33985D01*
X24228Y-33909D01*
X24228Y-33871D01*
X24266Y-33795D01*
X24343Y-33756D01*
X24457Y-33756D01*
X24533Y-33795D01*
X24838Y-34595D02*
X24876Y-34556D01*
X24953Y-34442D01*
X24991Y-34366D01*
X25029Y-34252D01*
X25067Y-34061D01*
X25067Y-33909D01*
X25029Y-33718D01*
X24991Y-33604D01*
X24953Y-33528D01*
X24876Y-33414D01*
X24838Y-33376D01*
G54D10*
X07734Y-35446D02*
X07734Y-34598D01*
X06886Y-34598D01*
X06886Y-35446D01*
X07734Y-35446D01*
G54D12*
X08453Y-34546D02*
X08529Y-34546D01*
X08605Y-34584D01*
X08643Y-34622D01*
X08681Y-34698D01*
X08720Y-34851D01*
X08720Y-35041D01*
X08681Y-35193D01*
X08643Y-35270D01*
X08605Y-35308D01*
X08529Y-35346D01*
X08453Y-35346D01*
X08377Y-35308D01*
X08339Y-35270D01*
X08300Y-35193D01*
X08262Y-35041D01*
X08262Y-34851D01*
X08300Y-34698D01*
X08339Y-34622D01*
X08377Y-34584D01*
X08453Y-34546D01*
X09062Y-35270D02*
X09101Y-35308D01*
X09062Y-35346D01*
X09024Y-35308D01*
X09062Y-35270D01*
X09062Y-35346D01*
X09863Y-35346D02*
X09405Y-35346D01*
X09634Y-35346D02*
X09634Y-34546D01*
X09558Y-34660D01*
X09482Y-34736D01*
X09405Y-34774D01*
X10167Y-34622D02*
X10205Y-34584D01*
X10282Y-34546D01*
X10472Y-34546D01*
X10548Y-34584D01*
X10586Y-34622D01*
X10625Y-34698D01*
X10625Y-34774D01*
X10586Y-34889D01*
X10129Y-35346D01*
X10625Y-35346D01*
X11120Y-34546D02*
X11196Y-34546D01*
X11272Y-34584D01*
X11310Y-34622D01*
X11348Y-34698D01*
X11387Y-34851D01*
X11387Y-35041D01*
X11348Y-35193D01*
X11310Y-35270D01*
X11272Y-35308D01*
X11196Y-35346D01*
X11120Y-35346D01*
X11044Y-35308D01*
X11006Y-35270D01*
X10967Y-35193D01*
X10929Y-35041D01*
X10929Y-34851D01*
X10967Y-34698D01*
X11006Y-34622D01*
X11044Y-34584D01*
X11120Y-34546D01*
X11691Y-34546D02*
X11691Y-34698D01*
X11996Y-34546D02*
X11996Y-34698D01*
X13521Y-34508D02*
X12835Y-35536D01*
X14321Y-34546D02*
X14817Y-34546D01*
X14550Y-34851D01*
X14664Y-34851D01*
X14740Y-34889D01*
X14778Y-34927D01*
X14817Y-35003D01*
X14817Y-35193D01*
X14778Y-35270D01*
X14740Y-35308D01*
X14664Y-35346D01*
X14436Y-35346D01*
X14359Y-35308D01*
X14321Y-35270D01*
X15159Y-35270D02*
X15198Y-35308D01*
X15159Y-35346D01*
X15121Y-35308D01*
X15159Y-35270D01*
X15159Y-35346D01*
X15693Y-34546D02*
X15769Y-34546D01*
X15845Y-34584D01*
X15883Y-34622D01*
X15921Y-34698D01*
X15960Y-34851D01*
X15960Y-35041D01*
X15921Y-35193D01*
X15883Y-35270D01*
X15845Y-35308D01*
X15769Y-35346D01*
X15693Y-35346D01*
X15617Y-35308D01*
X15579Y-35270D01*
X15540Y-35193D01*
X15502Y-35041D01*
X15502Y-34851D01*
X15540Y-34698D01*
X15579Y-34622D01*
X15617Y-34584D01*
X15693Y-34546D01*
X16683Y-34546D02*
X16302Y-34546D01*
X16264Y-34927D01*
X16302Y-34889D01*
X16379Y-34851D01*
X16569Y-34851D01*
X16645Y-34889D01*
X16683Y-34927D01*
X16722Y-35003D01*
X16722Y-35193D01*
X16683Y-35270D01*
X16645Y-35308D01*
X16569Y-35346D01*
X16379Y-35346D01*
X16302Y-35308D01*
X16264Y-35270D01*
X17064Y-35346D02*
X17064Y-34812D01*
X17064Y-34889D02*
X17103Y-34851D01*
X17179Y-34812D01*
X17293Y-34812D01*
X17369Y-34851D01*
X17407Y-34927D01*
X17407Y-35346D01*
X17407Y-34927D02*
X17445Y-34851D01*
X17522Y-34812D01*
X17636Y-34812D01*
X17712Y-34851D01*
X17750Y-34927D01*
X17750Y-35346D01*
X18131Y-35346D02*
X18131Y-34812D01*
X18131Y-34889D02*
X18170Y-34851D01*
X18246Y-34812D01*
X18360Y-34812D01*
X18436Y-34851D01*
X18474Y-34927D01*
X18474Y-35346D01*
X18474Y-34927D02*
X18512Y-34851D01*
X18589Y-34812D01*
X18703Y-34812D01*
X18779Y-34851D01*
X18817Y-34927D01*
X18817Y-35346D01*
X20037Y-35651D02*
X19999Y-35612D01*
X19923Y-35498D01*
X19885Y-35422D01*
X19847Y-35308D01*
X19808Y-35117D01*
X19808Y-34965D01*
X19847Y-34774D01*
X19885Y-34660D01*
X19923Y-34584D01*
X19999Y-34470D01*
X20037Y-34432D01*
X20684Y-34812D02*
X20684Y-35346D01*
X20494Y-34508D02*
X20303Y-35079D01*
X20799Y-35079D01*
X21713Y-35346D02*
X21713Y-34546D01*
X22056Y-35346D02*
X22056Y-34927D01*
X22018Y-34851D01*
X21942Y-34812D01*
X21828Y-34812D01*
X21752Y-34851D01*
X21713Y-34889D01*
X22552Y-35346D02*
X22476Y-35308D01*
X22437Y-35270D01*
X22399Y-35193D01*
X22399Y-34965D01*
X22437Y-34889D01*
X22476Y-34851D01*
X22552Y-34812D01*
X22666Y-34812D01*
X22742Y-34851D01*
X22780Y-34889D01*
X22818Y-34965D01*
X22818Y-35193D01*
X22780Y-35270D01*
X22742Y-35308D01*
X22666Y-35346D01*
X22552Y-35346D01*
X23276Y-35346D02*
X23200Y-35308D01*
X23161Y-35232D01*
X23161Y-34546D01*
X23885Y-35308D02*
X23809Y-35346D01*
X23657Y-35346D01*
X23580Y-35308D01*
X23542Y-35232D01*
X23542Y-34927D01*
X23580Y-34851D01*
X23657Y-34812D01*
X23809Y-34812D01*
X23885Y-34851D01*
X23923Y-34927D01*
X23923Y-35003D01*
X23542Y-35079D01*
X24228Y-35308D02*
X24305Y-35346D01*
X24457Y-35346D01*
X24533Y-35308D01*
X24571Y-35232D01*
X24571Y-35193D01*
X24533Y-35117D01*
X24457Y-35079D01*
X24343Y-35079D01*
X24266Y-35041D01*
X24228Y-34965D01*
X24228Y-34927D01*
X24266Y-34851D01*
X24343Y-34812D01*
X24457Y-34812D01*
X24533Y-34851D01*
X24838Y-35651D02*
X24876Y-35612D01*
X24953Y-35498D01*
X24991Y-35422D01*
X25029Y-35308D01*
X25067Y-35117D01*
X25067Y-34965D01*
X25029Y-34774D01*
X24991Y-34660D01*
X24953Y-34584D01*
X24876Y-34470D01*
X24838Y-34432D01*
M02*
