G04 (created by PCBNEW-RS274X (2011-05-25)-stable) date Monday 04 June 2012 10:45:48 PM IST*
G01*
G70*
G90*
%MOIN*%
G04 Gerber Fmt 3.4, Leading zero omitted, Abs format*
%FSLAX34Y34*%
G04 APERTURE LIST*
%ADD10C,0.006000*%
%ADD11C,0.012000*%
%ADD12C,0.015000*%
G04 APERTURE END LIST*
G54D10*
G54D11*
X48630Y-30008D02*
X48287Y-30008D01*
X48459Y-30008D02*
X48459Y-29408D01*
X48402Y-29494D01*
X48344Y-29551D01*
X48287Y-29579D01*
X48887Y-29951D02*
X48915Y-29979D01*
X48887Y-30008D01*
X48858Y-29979D01*
X48887Y-29951D01*
X48887Y-30008D01*
X49287Y-29408D02*
X49344Y-29408D01*
X49401Y-29436D01*
X49430Y-29465D01*
X49459Y-29522D01*
X49487Y-29636D01*
X49487Y-29779D01*
X49459Y-29894D01*
X49430Y-29951D01*
X49401Y-29979D01*
X49344Y-30008D01*
X49287Y-30008D01*
X49230Y-29979D01*
X49201Y-29951D01*
X49173Y-29894D01*
X49144Y-29779D01*
X49144Y-29636D01*
X49173Y-29522D01*
X49201Y-29465D01*
X49230Y-29436D01*
X49287Y-29408D01*
X49858Y-29408D02*
X49915Y-29408D01*
X49972Y-29436D01*
X50001Y-29465D01*
X50030Y-29522D01*
X50058Y-29636D01*
X50058Y-29779D01*
X50030Y-29894D01*
X50001Y-29951D01*
X49972Y-29979D01*
X49915Y-30008D01*
X49858Y-30008D01*
X49801Y-29979D01*
X49772Y-29951D01*
X49744Y-29894D01*
X49715Y-29779D01*
X49715Y-29636D01*
X49744Y-29522D01*
X49772Y-29465D01*
X49801Y-29436D01*
X49858Y-29408D01*
X50429Y-29408D02*
X50486Y-29408D01*
X50543Y-29436D01*
X50572Y-29465D01*
X50601Y-29522D01*
X50629Y-29636D01*
X50629Y-29779D01*
X50601Y-29894D01*
X50572Y-29951D01*
X50543Y-29979D01*
X50486Y-30008D01*
X50429Y-30008D01*
X50372Y-29979D01*
X50343Y-29951D01*
X50315Y-29894D01*
X50286Y-29779D01*
X50286Y-29636D01*
X50315Y-29522D01*
X50343Y-29465D01*
X50372Y-29436D01*
X50429Y-29408D01*
X51000Y-29408D02*
X51057Y-29408D01*
X51114Y-29436D01*
X51143Y-29465D01*
X51172Y-29522D01*
X51200Y-29636D01*
X51200Y-29779D01*
X51172Y-29894D01*
X51143Y-29951D01*
X51114Y-29979D01*
X51057Y-30008D01*
X51000Y-30008D01*
X50943Y-29979D01*
X50914Y-29951D01*
X50886Y-29894D01*
X50857Y-29779D01*
X50857Y-29636D01*
X50886Y-29522D01*
X50914Y-29465D01*
X50943Y-29436D01*
X51000Y-29408D01*
X51885Y-29408D02*
X51885Y-29522D01*
X52114Y-29408D02*
X52114Y-29522D01*
X45200Y-29225D02*
X55200Y-29225D01*
X45200Y-28200D02*
X45200Y-30305D01*
X55200Y-28200D02*
X55200Y-30305D01*
X55200Y-29225D02*
X54757Y-29455D01*
X55200Y-29225D02*
X54757Y-28995D01*
X45200Y-29225D02*
X45643Y-29455D01*
X45200Y-29225D02*
X45643Y-28995D01*
X44035Y-16287D02*
X44064Y-16316D01*
X44092Y-16373D01*
X44092Y-16516D01*
X44064Y-16573D01*
X44035Y-16602D01*
X43978Y-16630D01*
X43921Y-16630D01*
X43835Y-16602D01*
X43492Y-16259D01*
X43492Y-16630D01*
X43549Y-16887D02*
X43521Y-16915D01*
X43492Y-16887D01*
X43521Y-16858D01*
X43549Y-16887D01*
X43492Y-16887D01*
X44092Y-17287D02*
X44092Y-17344D01*
X44064Y-17401D01*
X44035Y-17430D01*
X43978Y-17459D01*
X43864Y-17487D01*
X43721Y-17487D01*
X43606Y-17459D01*
X43549Y-17430D01*
X43521Y-17401D01*
X43492Y-17344D01*
X43492Y-17287D01*
X43521Y-17230D01*
X43549Y-17201D01*
X43606Y-17173D01*
X43721Y-17144D01*
X43864Y-17144D01*
X43978Y-17173D01*
X44035Y-17201D01*
X44064Y-17230D01*
X44092Y-17287D01*
X44092Y-17858D02*
X44092Y-17915D01*
X44064Y-17972D01*
X44035Y-18001D01*
X43978Y-18030D01*
X43864Y-18058D01*
X43721Y-18058D01*
X43606Y-18030D01*
X43549Y-18001D01*
X43521Y-17972D01*
X43492Y-17915D01*
X43492Y-17858D01*
X43521Y-17801D01*
X43549Y-17772D01*
X43606Y-17744D01*
X43721Y-17715D01*
X43864Y-17715D01*
X43978Y-17744D01*
X44035Y-17772D01*
X44064Y-17801D01*
X44092Y-17858D01*
X44092Y-18429D02*
X44092Y-18486D01*
X44064Y-18543D01*
X44035Y-18572D01*
X43978Y-18601D01*
X43864Y-18629D01*
X43721Y-18629D01*
X43606Y-18601D01*
X43549Y-18572D01*
X43521Y-18543D01*
X43492Y-18486D01*
X43492Y-18429D01*
X43521Y-18372D01*
X43549Y-18343D01*
X43606Y-18315D01*
X43721Y-18286D01*
X43864Y-18286D01*
X43978Y-18315D01*
X44035Y-18343D01*
X44064Y-18372D01*
X44092Y-18429D01*
X44092Y-19000D02*
X44092Y-19057D01*
X44064Y-19114D01*
X44035Y-19143D01*
X43978Y-19172D01*
X43864Y-19200D01*
X43721Y-19200D01*
X43606Y-19172D01*
X43549Y-19143D01*
X43521Y-19114D01*
X43492Y-19057D01*
X43492Y-19000D01*
X43521Y-18943D01*
X43549Y-18914D01*
X43606Y-18886D01*
X43721Y-18857D01*
X43864Y-18857D01*
X43978Y-18886D01*
X44035Y-18914D01*
X44064Y-18943D01*
X44092Y-19000D01*
X44092Y-19885D02*
X43978Y-19885D01*
X44092Y-20114D02*
X43978Y-20114D01*
X44275Y-08200D02*
X44275Y-28200D01*
X45200Y-08200D02*
X43195Y-08200D01*
X45200Y-28200D02*
X43195Y-28200D01*
X44275Y-28200D02*
X44045Y-27757D01*
X44275Y-28200D02*
X44505Y-27757D01*
X44275Y-08200D02*
X44045Y-08643D01*
X44275Y-08200D02*
X44505Y-08643D01*
G54D12*
X45200Y-08200D02*
X55200Y-08200D01*
X45200Y-28200D02*
X45200Y-08200D01*
X55200Y-28200D02*
X45200Y-28200D01*
X55200Y-08200D02*
X55200Y-28200D01*
G54D11*
X37271Y-16430D02*
X37271Y-16087D01*
X37271Y-16259D02*
X37871Y-16259D01*
X37785Y-16202D01*
X37728Y-16144D01*
X37700Y-16087D01*
X37328Y-16687D02*
X37300Y-16715D01*
X37271Y-16687D01*
X37300Y-16658D01*
X37328Y-16687D01*
X37271Y-16687D01*
X37871Y-17230D02*
X37871Y-17116D01*
X37843Y-17059D01*
X37814Y-17030D01*
X37728Y-16973D01*
X37614Y-16944D01*
X37385Y-16944D01*
X37328Y-16973D01*
X37300Y-17001D01*
X37271Y-17059D01*
X37271Y-17173D01*
X37300Y-17230D01*
X37328Y-17259D01*
X37385Y-17287D01*
X37528Y-17287D01*
X37585Y-17259D01*
X37614Y-17230D01*
X37643Y-17173D01*
X37643Y-17059D01*
X37614Y-17001D01*
X37585Y-16973D01*
X37528Y-16944D01*
X37871Y-17658D02*
X37871Y-17715D01*
X37843Y-17772D01*
X37814Y-17801D01*
X37757Y-17830D01*
X37643Y-17858D01*
X37500Y-17858D01*
X37385Y-17830D01*
X37328Y-17801D01*
X37300Y-17772D01*
X37271Y-17715D01*
X37271Y-17658D01*
X37300Y-17601D01*
X37328Y-17572D01*
X37385Y-17544D01*
X37500Y-17515D01*
X37643Y-17515D01*
X37757Y-17544D01*
X37814Y-17572D01*
X37843Y-17601D01*
X37871Y-17658D01*
X37871Y-18229D02*
X37871Y-18286D01*
X37843Y-18343D01*
X37814Y-18372D01*
X37757Y-18401D01*
X37643Y-18429D01*
X37500Y-18429D01*
X37385Y-18401D01*
X37328Y-18372D01*
X37300Y-18343D01*
X37271Y-18286D01*
X37271Y-18229D01*
X37300Y-18172D01*
X37328Y-18143D01*
X37385Y-18115D01*
X37500Y-18086D01*
X37643Y-18086D01*
X37757Y-18115D01*
X37814Y-18143D01*
X37843Y-18172D01*
X37871Y-18229D01*
X37871Y-18800D02*
X37871Y-18857D01*
X37843Y-18914D01*
X37814Y-18943D01*
X37757Y-18972D01*
X37643Y-19000D01*
X37500Y-19000D01*
X37385Y-18972D01*
X37328Y-18943D01*
X37300Y-18914D01*
X37271Y-18857D01*
X37271Y-18800D01*
X37300Y-18743D01*
X37328Y-18714D01*
X37385Y-18686D01*
X37500Y-18657D01*
X37643Y-18657D01*
X37757Y-18686D01*
X37814Y-18714D01*
X37843Y-18743D01*
X37871Y-18800D01*
X37871Y-19685D02*
X37757Y-19685D01*
X37871Y-19914D02*
X37757Y-19914D01*
X36974Y-10000D02*
X36974Y-26000D01*
X36000Y-10000D02*
X38054Y-10000D01*
X36000Y-26000D02*
X38054Y-26000D01*
X36974Y-26000D02*
X36744Y-25557D01*
X36974Y-26000D02*
X37204Y-25557D01*
X36974Y-10000D02*
X36744Y-10443D01*
X36974Y-10000D02*
X37204Y-10443D01*
X21087Y-27090D02*
X21116Y-27061D01*
X21173Y-27033D01*
X21316Y-27033D01*
X21373Y-27061D01*
X21402Y-27090D01*
X21430Y-27147D01*
X21430Y-27204D01*
X21402Y-27290D01*
X21059Y-27633D01*
X21430Y-27633D01*
X21687Y-27576D02*
X21715Y-27604D01*
X21687Y-27633D01*
X21658Y-27604D01*
X21687Y-27576D01*
X21687Y-27633D01*
X22230Y-27033D02*
X22116Y-27033D01*
X22059Y-27061D01*
X22030Y-27090D01*
X21973Y-27176D01*
X21944Y-27290D01*
X21944Y-27519D01*
X21973Y-27576D01*
X22001Y-27604D01*
X22059Y-27633D01*
X22173Y-27633D01*
X22230Y-27604D01*
X22259Y-27576D01*
X22287Y-27519D01*
X22287Y-27376D01*
X22259Y-27319D01*
X22230Y-27290D01*
X22173Y-27261D01*
X22059Y-27261D01*
X22001Y-27290D01*
X21973Y-27319D01*
X21944Y-27376D01*
X22658Y-27033D02*
X22715Y-27033D01*
X22772Y-27061D01*
X22801Y-27090D01*
X22830Y-27147D01*
X22858Y-27261D01*
X22858Y-27404D01*
X22830Y-27519D01*
X22801Y-27576D01*
X22772Y-27604D01*
X22715Y-27633D01*
X22658Y-27633D01*
X22601Y-27604D01*
X22572Y-27576D01*
X22544Y-27519D01*
X22515Y-27404D01*
X22515Y-27261D01*
X22544Y-27147D01*
X22572Y-27090D01*
X22601Y-27061D01*
X22658Y-27033D01*
X23229Y-27033D02*
X23286Y-27033D01*
X23343Y-27061D01*
X23372Y-27090D01*
X23401Y-27147D01*
X23429Y-27261D01*
X23429Y-27404D01*
X23401Y-27519D01*
X23372Y-27576D01*
X23343Y-27604D01*
X23286Y-27633D01*
X23229Y-27633D01*
X23172Y-27604D01*
X23143Y-27576D01*
X23115Y-27519D01*
X23086Y-27404D01*
X23086Y-27261D01*
X23115Y-27147D01*
X23143Y-27090D01*
X23172Y-27061D01*
X23229Y-27033D01*
X23800Y-27033D02*
X23857Y-27033D01*
X23914Y-27061D01*
X23943Y-27090D01*
X23972Y-27147D01*
X24000Y-27261D01*
X24000Y-27404D01*
X23972Y-27519D01*
X23943Y-27576D01*
X23914Y-27604D01*
X23857Y-27633D01*
X23800Y-27633D01*
X23743Y-27604D01*
X23714Y-27576D01*
X23686Y-27519D01*
X23657Y-27404D01*
X23657Y-27261D01*
X23686Y-27147D01*
X23714Y-27090D01*
X23743Y-27061D01*
X23800Y-27033D01*
X24685Y-27033D02*
X24685Y-27147D01*
X24914Y-27033D02*
X24914Y-27147D01*
X10000Y-26850D02*
X36000Y-26850D01*
X10000Y-26000D02*
X10000Y-27930D01*
X36000Y-26000D02*
X36000Y-27930D01*
X36000Y-26850D02*
X35557Y-27080D01*
X36000Y-26850D02*
X35557Y-26620D01*
X10000Y-26850D02*
X10443Y-27080D01*
X10000Y-26850D02*
X10443Y-26620D01*
G54D12*
X10000Y-26000D02*
X10000Y-10000D01*
X36000Y-26000D02*
X10000Y-26000D01*
X36000Y-10000D02*
X36000Y-26000D01*
X10000Y-10000D02*
X36000Y-10000D01*
M02*
