G04 (created by PCBNEW-RS274X (2011-12-28 BZR 3254)-stable) date 6/5/2012 6:53:36 PM*
G01*
G70*
G90*
%MOIN*%
G04 Gerber Fmt 3.4, Leading zero omitted, Abs format*
%FSLAX34Y34*%
G04 APERTURE LIST*
%ADD10C,0.006000*%
%ADD11C,0.005000*%
%ADD12C,0.015000*%
G04 APERTURE END LIST*
G54D10*
G54D11*
X49414Y-29296D02*
X49242Y-29296D01*
X49328Y-29296D02*
X49328Y-28996D01*
X49299Y-29039D01*
X49271Y-29068D01*
X49242Y-29082D01*
X49542Y-29268D02*
X49557Y-29282D01*
X49542Y-29296D01*
X49528Y-29282D01*
X49542Y-29268D01*
X49542Y-29296D01*
X49743Y-28996D02*
X49771Y-28996D01*
X49800Y-29011D01*
X49814Y-29025D01*
X49828Y-29054D01*
X49843Y-29111D01*
X49843Y-29182D01*
X49828Y-29239D01*
X49814Y-29268D01*
X49800Y-29282D01*
X49771Y-29296D01*
X49743Y-29296D01*
X49714Y-29282D01*
X49700Y-29268D01*
X49685Y-29239D01*
X49671Y-29182D01*
X49671Y-29111D01*
X49685Y-29054D01*
X49700Y-29025D01*
X49714Y-29011D01*
X49743Y-28996D01*
X50029Y-28996D02*
X50057Y-28996D01*
X50086Y-29011D01*
X50100Y-29025D01*
X50114Y-29054D01*
X50129Y-29111D01*
X50129Y-29182D01*
X50114Y-29239D01*
X50100Y-29268D01*
X50086Y-29282D01*
X50057Y-29296D01*
X50029Y-29296D01*
X50000Y-29282D01*
X49986Y-29268D01*
X49971Y-29239D01*
X49957Y-29182D01*
X49957Y-29111D01*
X49971Y-29054D01*
X49986Y-29025D01*
X50000Y-29011D01*
X50029Y-28996D01*
X50315Y-28996D02*
X50343Y-28996D01*
X50372Y-29011D01*
X50386Y-29025D01*
X50400Y-29054D01*
X50415Y-29111D01*
X50415Y-29182D01*
X50400Y-29239D01*
X50386Y-29268D01*
X50372Y-29282D01*
X50343Y-29296D01*
X50315Y-29296D01*
X50286Y-29282D01*
X50272Y-29268D01*
X50257Y-29239D01*
X50243Y-29182D01*
X50243Y-29111D01*
X50257Y-29054D01*
X50272Y-29025D01*
X50286Y-29011D01*
X50315Y-28996D01*
X50601Y-28996D02*
X50629Y-28996D01*
X50658Y-29011D01*
X50672Y-29025D01*
X50686Y-29054D01*
X50701Y-29111D01*
X50701Y-29182D01*
X50686Y-29239D01*
X50672Y-29268D01*
X50658Y-29282D01*
X50629Y-29296D01*
X50601Y-29296D01*
X50572Y-29282D01*
X50558Y-29268D01*
X50543Y-29239D01*
X50529Y-29182D01*
X50529Y-29111D01*
X50543Y-29054D01*
X50558Y-29025D01*
X50572Y-29011D01*
X50601Y-28996D01*
X51044Y-28996D02*
X51044Y-29054D01*
X51158Y-28996D02*
X51158Y-29054D01*
X45200Y-28925D02*
X55200Y-28925D01*
X45200Y-28200D02*
X45200Y-29425D01*
X55200Y-28200D02*
X55200Y-29425D01*
X55200Y-28925D02*
X54757Y-29155D01*
X55200Y-28925D02*
X54757Y-28695D01*
X45200Y-28925D02*
X45643Y-29155D01*
X45200Y-28925D02*
X45643Y-28695D01*
X44300Y-17242D02*
X44314Y-17256D01*
X44329Y-17285D01*
X44329Y-17356D01*
X44314Y-17385D01*
X44300Y-17399D01*
X44271Y-17414D01*
X44243Y-17414D01*
X44200Y-17399D01*
X44029Y-17228D01*
X44029Y-17414D01*
X44057Y-17542D02*
X44043Y-17557D01*
X44029Y-17542D01*
X44043Y-17528D01*
X44057Y-17542D01*
X44029Y-17542D01*
X44329Y-17743D02*
X44329Y-17771D01*
X44314Y-17800D01*
X44300Y-17814D01*
X44271Y-17828D01*
X44214Y-17843D01*
X44143Y-17843D01*
X44086Y-17828D01*
X44057Y-17814D01*
X44043Y-17800D01*
X44029Y-17771D01*
X44029Y-17743D01*
X44043Y-17714D01*
X44057Y-17700D01*
X44086Y-17685D01*
X44143Y-17671D01*
X44214Y-17671D01*
X44271Y-17685D01*
X44300Y-17700D01*
X44314Y-17714D01*
X44329Y-17743D01*
X44329Y-18029D02*
X44329Y-18057D01*
X44314Y-18086D01*
X44300Y-18100D01*
X44271Y-18114D01*
X44214Y-18129D01*
X44143Y-18129D01*
X44086Y-18114D01*
X44057Y-18100D01*
X44043Y-18086D01*
X44029Y-18057D01*
X44029Y-18029D01*
X44043Y-18000D01*
X44057Y-17986D01*
X44086Y-17971D01*
X44143Y-17957D01*
X44214Y-17957D01*
X44271Y-17971D01*
X44300Y-17986D01*
X44314Y-18000D01*
X44329Y-18029D01*
X44329Y-18315D02*
X44329Y-18343D01*
X44314Y-18372D01*
X44300Y-18386D01*
X44271Y-18400D01*
X44214Y-18415D01*
X44143Y-18415D01*
X44086Y-18400D01*
X44057Y-18386D01*
X44043Y-18372D01*
X44029Y-18343D01*
X44029Y-18315D01*
X44043Y-18286D01*
X44057Y-18272D01*
X44086Y-18257D01*
X44143Y-18243D01*
X44214Y-18243D01*
X44271Y-18257D01*
X44300Y-18272D01*
X44314Y-18286D01*
X44329Y-18315D01*
X44329Y-18601D02*
X44329Y-18629D01*
X44314Y-18658D01*
X44300Y-18672D01*
X44271Y-18686D01*
X44214Y-18701D01*
X44143Y-18701D01*
X44086Y-18686D01*
X44057Y-18672D01*
X44043Y-18658D01*
X44029Y-18629D01*
X44029Y-18601D01*
X44043Y-18572D01*
X44057Y-18558D01*
X44086Y-18543D01*
X44143Y-18529D01*
X44214Y-18529D01*
X44271Y-18543D01*
X44300Y-18558D01*
X44314Y-18572D01*
X44329Y-18601D01*
X44329Y-19044D02*
X44271Y-19044D01*
X44329Y-19158D02*
X44271Y-19158D01*
X44400Y-08200D02*
X44400Y-28200D01*
X45200Y-08200D02*
X43900Y-08200D01*
X45200Y-28200D02*
X43900Y-28200D01*
X44400Y-28200D02*
X44170Y-27757D01*
X44400Y-28200D02*
X44630Y-27757D01*
X44400Y-08200D02*
X44170Y-08643D01*
X44400Y-08200D02*
X44630Y-08643D01*
X40403Y-16564D02*
X40403Y-16392D01*
X40403Y-16478D02*
X40703Y-16478D01*
X40660Y-16449D01*
X40631Y-16421D01*
X40617Y-16392D01*
X40431Y-16692D02*
X40417Y-16707D01*
X40403Y-16692D01*
X40417Y-16678D01*
X40431Y-16692D01*
X40403Y-16692D01*
X40603Y-16964D02*
X40403Y-16964D01*
X40717Y-16893D02*
X40503Y-16821D01*
X40503Y-17007D01*
X40703Y-17093D02*
X40703Y-17293D01*
X40403Y-17164D01*
X40703Y-17465D02*
X40703Y-17493D01*
X40688Y-17522D01*
X40674Y-17536D01*
X40645Y-17550D01*
X40588Y-17565D01*
X40517Y-17565D01*
X40460Y-17550D01*
X40431Y-17536D01*
X40417Y-17522D01*
X40403Y-17493D01*
X40403Y-17465D01*
X40417Y-17436D01*
X40431Y-17422D01*
X40460Y-17407D01*
X40517Y-17393D01*
X40588Y-17393D01*
X40645Y-17407D01*
X40674Y-17422D01*
X40688Y-17436D01*
X40703Y-17465D01*
X40703Y-17751D02*
X40703Y-17779D01*
X40688Y-17808D01*
X40674Y-17822D01*
X40645Y-17836D01*
X40588Y-17851D01*
X40517Y-17851D01*
X40460Y-17836D01*
X40431Y-17822D01*
X40417Y-17808D01*
X40403Y-17779D01*
X40403Y-17751D01*
X40417Y-17722D01*
X40431Y-17708D01*
X40460Y-17693D01*
X40517Y-17679D01*
X40588Y-17679D01*
X40645Y-17693D01*
X40674Y-17708D01*
X40688Y-17722D01*
X40703Y-17751D01*
X40703Y-18194D02*
X40645Y-18194D01*
X40703Y-18308D02*
X40645Y-18308D01*
X40274Y-10000D02*
X40274Y-24700D01*
X39400Y-10000D02*
X40774Y-10000D01*
X39400Y-24700D02*
X40774Y-24700D01*
X40274Y-24700D02*
X40044Y-24257D01*
X40274Y-24700D02*
X40504Y-24257D01*
X40274Y-10000D02*
X40044Y-10443D01*
X40274Y-10000D02*
X40504Y-10443D01*
X23742Y-25675D02*
X23756Y-25661D01*
X23785Y-25646D01*
X23856Y-25646D01*
X23885Y-25661D01*
X23899Y-25675D01*
X23914Y-25704D01*
X23914Y-25732D01*
X23899Y-25775D01*
X23728Y-25946D01*
X23914Y-25946D01*
X24042Y-25918D02*
X24057Y-25932D01*
X24042Y-25946D01*
X24028Y-25932D01*
X24042Y-25918D01*
X24042Y-25946D01*
X24200Y-25946D02*
X24257Y-25946D01*
X24285Y-25932D01*
X24300Y-25918D01*
X24328Y-25875D01*
X24343Y-25818D01*
X24343Y-25704D01*
X24328Y-25675D01*
X24314Y-25661D01*
X24285Y-25646D01*
X24228Y-25646D01*
X24200Y-25661D01*
X24185Y-25675D01*
X24171Y-25704D01*
X24171Y-25775D01*
X24185Y-25804D01*
X24200Y-25818D01*
X24228Y-25832D01*
X24285Y-25832D01*
X24314Y-25818D01*
X24328Y-25804D01*
X24343Y-25775D01*
X24600Y-25746D02*
X24600Y-25946D01*
X24529Y-25632D02*
X24457Y-25846D01*
X24643Y-25846D01*
X24815Y-25646D02*
X24843Y-25646D01*
X24872Y-25661D01*
X24886Y-25675D01*
X24900Y-25704D01*
X24915Y-25761D01*
X24915Y-25832D01*
X24900Y-25889D01*
X24886Y-25918D01*
X24872Y-25932D01*
X24843Y-25946D01*
X24815Y-25946D01*
X24786Y-25932D01*
X24772Y-25918D01*
X24757Y-25889D01*
X24743Y-25832D01*
X24743Y-25761D01*
X24757Y-25704D01*
X24772Y-25675D01*
X24786Y-25661D01*
X24815Y-25646D01*
X25101Y-25646D02*
X25129Y-25646D01*
X25158Y-25661D01*
X25172Y-25675D01*
X25186Y-25704D01*
X25201Y-25761D01*
X25201Y-25832D01*
X25186Y-25889D01*
X25172Y-25918D01*
X25158Y-25932D01*
X25129Y-25946D01*
X25101Y-25946D01*
X25072Y-25932D01*
X25058Y-25918D01*
X25043Y-25889D01*
X25029Y-25832D01*
X25029Y-25761D01*
X25043Y-25704D01*
X25058Y-25675D01*
X25072Y-25661D01*
X25101Y-25646D01*
X25544Y-25646D02*
X25544Y-25704D01*
X25658Y-25646D02*
X25658Y-25704D01*
X10000Y-25575D02*
X39400Y-25575D01*
X10000Y-24700D02*
X10000Y-26075D01*
X39400Y-24700D02*
X39400Y-26075D01*
X39400Y-25575D02*
X38957Y-25805D01*
X39400Y-25575D02*
X38957Y-25345D01*
X10000Y-25575D02*
X10443Y-25805D01*
X10000Y-25575D02*
X10443Y-25345D01*
G54D12*
X45200Y-08200D02*
X55200Y-08200D01*
X45200Y-28200D02*
X45200Y-08200D01*
X55200Y-28200D02*
X45200Y-28200D01*
X55200Y-08200D02*
X55200Y-28200D01*
X10000Y-24700D02*
X10000Y-10000D01*
X39400Y-24700D02*
X10000Y-24700D01*
X39400Y-10000D02*
X39400Y-24700D01*
X10000Y-10000D02*
X39400Y-10000D01*
M02*
