G04 (created by PCBNEW-RS274X (2011-12-28 BZR 3254)-stable) date 6/2/2012 6:45:15 PM*
G01*
G70*
G90*
%MOIN*%
G04 Gerber Fmt 3.4, Leading zero omitted, Abs format*
%FSLAX34Y34*%
G04 APERTURE LIST*
%ADD10C,0.006000*%
%ADD11C,0.007000*%
%ADD12C,0.015000*%
%ADD13C,0.010000*%
%ADD14C,0.012000*%
%ADD15C,0.005000*%
%ADD16C,0.004900*%
%ADD17R,0.090000X0.090000*%
%ADD18C,0.090000*%
%ADD19C,0.220000*%
%ADD20R,0.100000X0.070000*%
%ADD21O,0.100000X0.070000*%
%ADD22C,0.080000*%
%ADD23R,0.080000X0.080000*%
%ADD24O,0.110000X0.080000*%
%ADD25R,0.110000X0.080000*%
%ADD26O,0.080000X0.120000*%
%ADD27R,0.085000X0.085000*%
%ADD28C,0.085000*%
%ADD29C,0.100000*%
%ADD30R,0.140000X0.140000*%
%ADD31C,0.140000*%
%ADD32R,0.070000X0.100000*%
%ADD33O,0.070000X0.100000*%
G04 APERTURE END LIST*
G54D10*
X29011Y-22546D02*
X28996Y-22575D01*
X28996Y-22618D01*
X29011Y-22661D01*
X29039Y-22689D01*
X29068Y-22704D01*
X29125Y-22718D01*
X29168Y-22718D01*
X29225Y-22704D01*
X29254Y-22689D01*
X29282Y-22661D01*
X29296Y-22618D01*
X29296Y-22589D01*
X29282Y-22546D01*
X29268Y-22532D01*
X29168Y-22532D01*
X29168Y-22589D01*
X29296Y-22404D02*
X28996Y-22404D01*
X29296Y-22232D01*
X28996Y-22232D01*
X29296Y-22090D02*
X28996Y-22090D01*
X28996Y-22018D01*
X29011Y-21975D01*
X29039Y-21947D01*
X29068Y-21932D01*
X29125Y-21918D01*
X29168Y-21918D01*
X29225Y-21932D01*
X29254Y-21947D01*
X29282Y-21975D01*
X29296Y-22018D01*
X29296Y-22090D01*
X29396Y-21718D02*
X28968Y-21718D01*
X28996Y-21546D02*
X29296Y-21446D01*
X28996Y-21346D01*
X29268Y-21075D02*
X29282Y-21089D01*
X29296Y-21132D01*
X29296Y-21161D01*
X29282Y-21204D01*
X29254Y-21232D01*
X29225Y-21247D01*
X29168Y-21261D01*
X29125Y-21261D01*
X29068Y-21247D01*
X29039Y-21232D01*
X29011Y-21204D01*
X28996Y-21161D01*
X28996Y-21132D01*
X29011Y-21089D01*
X29025Y-21075D01*
X29268Y-20775D02*
X29282Y-20789D01*
X29296Y-20832D01*
X29296Y-20861D01*
X29282Y-20904D01*
X29254Y-20932D01*
X29225Y-20947D01*
X29168Y-20961D01*
X29125Y-20961D01*
X29068Y-20947D01*
X29039Y-20932D01*
X29011Y-20904D01*
X28996Y-20861D01*
X28996Y-20832D01*
X29011Y-20789D01*
X29025Y-20775D01*
X29396Y-20575D02*
X28968Y-20575D01*
X29282Y-20375D02*
X29296Y-20332D01*
X29296Y-20261D01*
X29282Y-20232D01*
X29268Y-20218D01*
X29239Y-20203D01*
X29211Y-20203D01*
X29182Y-20218D01*
X29168Y-20232D01*
X29154Y-20261D01*
X29139Y-20318D01*
X29125Y-20346D01*
X29111Y-20361D01*
X29082Y-20375D01*
X29054Y-20375D01*
X29025Y-20361D01*
X29011Y-20346D01*
X28996Y-20318D01*
X28996Y-20246D01*
X29011Y-20203D01*
X29268Y-19903D02*
X29282Y-19917D01*
X29296Y-19960D01*
X29296Y-19989D01*
X29282Y-20032D01*
X29254Y-20060D01*
X29225Y-20075D01*
X29168Y-20089D01*
X29125Y-20089D01*
X29068Y-20075D01*
X29039Y-20060D01*
X29011Y-20032D01*
X28996Y-19989D01*
X28996Y-19960D01*
X29011Y-19917D01*
X29025Y-19903D01*
X29296Y-19632D02*
X29296Y-19775D01*
X28996Y-19775D01*
X29396Y-19460D02*
X28968Y-19460D01*
X29282Y-19260D02*
X29296Y-19217D01*
X29296Y-19146D01*
X29282Y-19117D01*
X29268Y-19103D01*
X29239Y-19088D01*
X29211Y-19088D01*
X29182Y-19103D01*
X29168Y-19117D01*
X29154Y-19146D01*
X29139Y-19203D01*
X29125Y-19231D01*
X29111Y-19246D01*
X29082Y-19260D01*
X29054Y-19260D01*
X29025Y-19246D01*
X29011Y-19231D01*
X28996Y-19203D01*
X28996Y-19131D01*
X29011Y-19088D01*
X29296Y-18960D02*
X28996Y-18960D01*
X28996Y-18888D01*
X29011Y-18845D01*
X29039Y-18817D01*
X29068Y-18802D01*
X29125Y-18788D01*
X29168Y-18788D01*
X29225Y-18802D01*
X29254Y-18817D01*
X29282Y-18845D01*
X29296Y-18888D01*
X29296Y-18960D01*
X29211Y-18674D02*
X29211Y-18531D01*
X29296Y-18702D02*
X28996Y-18602D01*
X29296Y-18502D01*
G54D11*
X35762Y-17314D02*
X35362Y-17314D01*
X35762Y-17085D01*
X35362Y-17085D01*
X35724Y-16666D02*
X35743Y-16685D01*
X35762Y-16742D01*
X35762Y-16780D01*
X35743Y-16838D01*
X35705Y-16876D01*
X35667Y-16895D01*
X35590Y-16914D01*
X35533Y-16914D01*
X35457Y-16895D01*
X35419Y-16876D01*
X35381Y-16838D01*
X35362Y-16780D01*
X35362Y-16742D01*
X35381Y-16685D01*
X35400Y-16666D01*
X35762Y-13704D02*
X35762Y-13895D01*
X35362Y-13895D01*
X35362Y-13495D02*
X35362Y-13418D01*
X35381Y-13380D01*
X35419Y-13342D01*
X35495Y-13323D01*
X35629Y-13323D01*
X35705Y-13342D01*
X35743Y-13380D01*
X35762Y-13418D01*
X35762Y-13495D01*
X35743Y-13533D01*
X35705Y-13571D01*
X35629Y-13590D01*
X35495Y-13590D01*
X35419Y-13571D01*
X35381Y-13533D01*
X35362Y-13495D01*
X35648Y-13171D02*
X35648Y-12980D01*
X35762Y-13209D02*
X35362Y-13076D01*
X35762Y-12942D01*
X35762Y-12809D02*
X35362Y-12809D01*
X35362Y-12714D01*
X35381Y-12656D01*
X35419Y-12618D01*
X35457Y-12599D01*
X35533Y-12580D01*
X35590Y-12580D01*
X35667Y-12599D01*
X35705Y-12618D01*
X35743Y-12656D01*
X35762Y-12714D01*
X35762Y-12809D01*
X35610Y-12409D02*
X35610Y-12104D01*
X35762Y-12256D02*
X35457Y-12256D01*
X35381Y-15304D02*
X35362Y-15342D01*
X35362Y-15399D01*
X35381Y-15457D01*
X35419Y-15495D01*
X35457Y-15514D01*
X35533Y-15533D01*
X35590Y-15533D01*
X35667Y-15514D01*
X35705Y-15495D01*
X35743Y-15457D01*
X35762Y-15399D01*
X35762Y-15361D01*
X35743Y-15304D01*
X35724Y-15285D01*
X35590Y-15285D01*
X35590Y-15361D01*
X35762Y-15114D02*
X35362Y-15114D01*
X35762Y-14885D01*
X35362Y-14885D01*
X35762Y-14695D02*
X35362Y-14695D01*
X35362Y-14600D01*
X35381Y-14542D01*
X35419Y-14504D01*
X35457Y-14485D01*
X35533Y-14466D01*
X35590Y-14466D01*
X35667Y-14485D01*
X35705Y-14504D01*
X35743Y-14542D01*
X35762Y-14600D01*
X35762Y-14695D01*
X35381Y-19304D02*
X35362Y-19342D01*
X35362Y-19399D01*
X35381Y-19457D01*
X35419Y-19495D01*
X35457Y-19514D01*
X35533Y-19533D01*
X35590Y-19533D01*
X35667Y-19514D01*
X35705Y-19495D01*
X35743Y-19457D01*
X35762Y-19399D01*
X35762Y-19361D01*
X35743Y-19304D01*
X35724Y-19285D01*
X35590Y-19285D01*
X35590Y-19361D01*
X35762Y-19114D02*
X35362Y-19114D01*
X35762Y-18885D01*
X35362Y-18885D01*
X35762Y-18695D02*
X35362Y-18695D01*
X35362Y-18600D01*
X35381Y-18542D01*
X35419Y-18504D01*
X35457Y-18485D01*
X35533Y-18466D01*
X35590Y-18466D01*
X35667Y-18485D01*
X35705Y-18504D01*
X35743Y-18542D01*
X35762Y-18600D01*
X35762Y-18695D01*
X35362Y-21810D02*
X35762Y-21677D01*
X35362Y-21543D01*
X35800Y-21505D02*
X35800Y-21200D01*
X35552Y-20971D02*
X35571Y-20914D01*
X35590Y-20895D01*
X35629Y-20876D01*
X35686Y-20876D01*
X35724Y-20895D01*
X35743Y-20914D01*
X35762Y-20952D01*
X35762Y-21105D01*
X35362Y-21105D01*
X35362Y-20971D01*
X35381Y-20933D01*
X35400Y-20914D01*
X35438Y-20895D01*
X35476Y-20895D01*
X35514Y-20914D01*
X35533Y-20933D01*
X35552Y-20971D01*
X35552Y-21105D01*
X35648Y-20724D02*
X35648Y-20533D01*
X35762Y-20762D02*
X35362Y-20629D01*
X35762Y-20495D01*
X35362Y-20419D02*
X35362Y-20190D01*
X35762Y-20305D02*
X35362Y-20305D01*
X35362Y-23790D02*
X35762Y-23657D01*
X35362Y-23523D01*
X35800Y-23485D02*
X35800Y-23180D01*
X35762Y-23085D02*
X35362Y-23085D01*
X35381Y-22685D02*
X35362Y-22723D01*
X35362Y-22780D01*
X35381Y-22838D01*
X35419Y-22876D01*
X35457Y-22895D01*
X35533Y-22914D01*
X35590Y-22914D01*
X35667Y-22895D01*
X35705Y-22876D01*
X35743Y-22838D01*
X35762Y-22780D01*
X35762Y-22742D01*
X35743Y-22685D01*
X35724Y-22666D01*
X35590Y-22666D01*
X35590Y-22742D01*
X35762Y-22495D02*
X35362Y-22495D01*
X35762Y-22266D01*
X35362Y-22266D01*
G54D12*
X45200Y-08200D02*
X55200Y-08200D01*
X45200Y-28200D02*
X45200Y-08200D01*
X55200Y-28200D02*
X45200Y-28200D01*
X55200Y-08200D02*
X55200Y-28200D01*
X10000Y-26000D02*
X10000Y-10000D01*
X36000Y-26000D02*
X10000Y-26000D01*
X36000Y-10000D02*
X36000Y-26000D01*
X10000Y-10000D02*
X36000Y-10000D01*
G54D13*
X48725Y-13350D02*
X48723Y-13369D01*
X48717Y-13388D01*
X48708Y-13405D01*
X48695Y-13420D01*
X48680Y-13432D01*
X48663Y-13442D01*
X48645Y-13447D01*
X48625Y-13449D01*
X48607Y-13448D01*
X48588Y-13442D01*
X48571Y-13433D01*
X48556Y-13421D01*
X48543Y-13406D01*
X48534Y-13389D01*
X48528Y-13370D01*
X48526Y-13351D01*
X48527Y-13332D01*
X48533Y-13314D01*
X48541Y-13296D01*
X48554Y-13281D01*
X48568Y-13268D01*
X48585Y-13259D01*
X48604Y-13253D01*
X48623Y-13251D01*
X48642Y-13252D01*
X48661Y-13257D01*
X48678Y-13266D01*
X48693Y-13278D01*
X48706Y-13293D01*
X48716Y-13310D01*
X48722Y-13328D01*
X48724Y-13348D01*
X48725Y-13350D01*
X48650Y-13350D02*
X48649Y-13354D01*
X48648Y-13359D01*
X48645Y-13363D01*
X48642Y-13367D01*
X48638Y-13370D01*
X48634Y-13373D01*
X48630Y-13374D01*
X48625Y-13374D01*
X48621Y-13374D01*
X48616Y-13373D01*
X48612Y-13370D01*
X48608Y-13367D01*
X48605Y-13364D01*
X48603Y-13359D01*
X48601Y-13355D01*
X48601Y-13350D01*
X48601Y-13346D01*
X48602Y-13341D01*
X48604Y-13337D01*
X48608Y-13333D01*
X48611Y-13330D01*
X48615Y-13328D01*
X48620Y-13326D01*
X48625Y-13326D01*
X48629Y-13326D01*
X48634Y-13327D01*
X48638Y-13329D01*
X48642Y-13332D01*
X48645Y-13336D01*
X48647Y-13340D01*
X48649Y-13345D01*
X48649Y-13350D01*
X48650Y-13350D01*
X48825Y-13350D02*
X48821Y-13388D01*
X48809Y-13426D01*
X48791Y-13460D01*
X48766Y-13490D01*
X48736Y-13515D01*
X48702Y-13534D01*
X48665Y-13545D01*
X48626Y-13549D01*
X48588Y-13546D01*
X48551Y-13535D01*
X48516Y-13517D01*
X48486Y-13492D01*
X48460Y-13462D01*
X48442Y-13428D01*
X48430Y-13391D01*
X48426Y-13352D01*
X48429Y-13314D01*
X48440Y-13277D01*
X48457Y-13242D01*
X48482Y-13212D01*
X48511Y-13186D01*
X48545Y-13167D01*
X48583Y-13155D01*
X48621Y-13151D01*
X48659Y-13154D01*
X48697Y-13164D01*
X48732Y-13182D01*
X48762Y-13206D01*
X48788Y-13235D01*
X48807Y-13269D01*
X48820Y-13306D01*
X48824Y-13345D01*
X48825Y-13350D01*
X50525Y-10250D02*
X49025Y-10050D01*
X49025Y-10050D02*
X48625Y-09650D01*
X50725Y-10350D02*
X50725Y-12725D01*
X51125Y-12725D02*
X51125Y-10350D01*
X51025Y-10250D02*
X51125Y-10350D01*
X51025Y-10250D02*
X50825Y-10250D01*
X50825Y-10250D02*
X50725Y-10350D01*
X51025Y-12825D02*
X51125Y-12725D01*
X51025Y-12825D02*
X50825Y-12825D01*
X50825Y-12825D02*
X50725Y-12725D01*
X48825Y-12375D02*
X48825Y-10175D01*
X48625Y-12550D02*
X48825Y-12375D01*
X50725Y-13200D02*
X50725Y-13025D01*
X50725Y-13025D02*
X50525Y-12800D01*
X48825Y-12600D02*
X48625Y-12775D01*
X48625Y-12775D02*
X48625Y-12950D01*
X48425Y-12550D02*
X48425Y-09975D01*
X48425Y-12550D02*
X48625Y-12550D01*
X48825Y-10175D02*
X48625Y-09975D01*
X48625Y-09975D02*
X48425Y-09975D01*
X50725Y-13200D02*
X48625Y-12950D01*
X50525Y-12800D02*
X48825Y-12600D01*
X50725Y-10050D02*
X50725Y-09900D01*
X50725Y-09900D02*
X48625Y-09650D01*
X50725Y-10050D02*
X50525Y-10250D01*
X53225Y-13100D02*
X53425Y-13100D01*
X53425Y-13100D02*
X53425Y-10525D01*
X53425Y-10525D02*
X53225Y-10525D01*
X51325Y-12900D02*
X51125Y-13100D01*
X51125Y-13100D02*
X51125Y-13250D01*
X51125Y-13250D02*
X53225Y-13500D01*
X53025Y-10500D02*
X53225Y-10350D01*
X53225Y-10350D02*
X53225Y-10150D01*
X53225Y-10150D02*
X51125Y-09925D01*
X51125Y-10125D02*
X51125Y-09925D01*
X53225Y-13500D02*
X53225Y-13300D01*
X53225Y-13100D02*
X53025Y-12900D01*
X53025Y-12900D02*
X53025Y-10725D01*
X53025Y-10725D02*
X53225Y-10525D01*
X51325Y-12900D02*
X53025Y-13100D01*
X53025Y-13100D02*
X53225Y-13300D01*
X51325Y-10325D02*
X53025Y-10500D01*
X51325Y-10325D02*
X51125Y-10125D01*
X51325Y-23825D02*
X51125Y-23625D01*
X51325Y-23825D02*
X53025Y-24000D01*
X53025Y-26600D02*
X53225Y-26800D01*
X51325Y-26400D02*
X53025Y-26600D01*
X53025Y-24225D02*
X53225Y-24025D01*
X53025Y-26400D02*
X53025Y-24225D01*
X53225Y-26600D02*
X53025Y-26400D01*
X53225Y-27000D02*
X53225Y-26800D01*
X51125Y-23625D02*
X51125Y-23425D01*
X53225Y-23650D02*
X51125Y-23425D01*
X53225Y-23850D02*
X53225Y-23650D01*
X53025Y-24000D02*
X53225Y-23850D01*
X51125Y-26750D02*
X53225Y-27000D01*
X51125Y-26600D02*
X51125Y-26750D01*
X51325Y-26400D02*
X51125Y-26600D01*
X53425Y-24025D02*
X53225Y-24025D01*
X53425Y-26600D02*
X53425Y-24025D01*
X53225Y-26600D02*
X53425Y-26600D01*
X50725Y-23550D02*
X50525Y-23750D01*
X50725Y-23400D02*
X48625Y-23150D01*
X50725Y-23550D02*
X50725Y-23400D01*
X50525Y-26300D02*
X48825Y-26100D01*
X50725Y-26700D02*
X48625Y-26450D01*
X48625Y-23475D02*
X48425Y-23475D01*
X48825Y-23675D02*
X48625Y-23475D01*
X48425Y-26050D02*
X48625Y-26050D01*
X48425Y-26050D02*
X48425Y-23475D01*
X48625Y-26275D02*
X48625Y-26450D01*
X48825Y-26100D02*
X48625Y-26275D01*
X50725Y-26525D02*
X50525Y-26300D01*
X50725Y-26700D02*
X50725Y-26525D01*
X48625Y-26050D02*
X48825Y-25875D01*
X48825Y-25875D02*
X48825Y-23675D01*
X50825Y-26325D02*
X50725Y-26225D01*
X51025Y-26325D02*
X50825Y-26325D01*
X51025Y-26325D02*
X51125Y-26225D01*
X50825Y-23750D02*
X50725Y-23850D01*
X51025Y-23750D02*
X50825Y-23750D01*
X51025Y-23750D02*
X51125Y-23850D01*
X51125Y-26225D02*
X51125Y-23850D01*
X50725Y-23850D02*
X50725Y-26225D01*
X49025Y-23550D02*
X48625Y-23150D01*
X50525Y-23750D02*
X49025Y-23550D01*
X48825Y-26850D02*
X48821Y-26888D01*
X48809Y-26926D01*
X48791Y-26960D01*
X48766Y-26990D01*
X48736Y-27015D01*
X48702Y-27034D01*
X48665Y-27045D01*
X48626Y-27049D01*
X48588Y-27046D01*
X48551Y-27035D01*
X48516Y-27017D01*
X48486Y-26992D01*
X48460Y-26962D01*
X48442Y-26928D01*
X48430Y-26891D01*
X48426Y-26852D01*
X48429Y-26814D01*
X48440Y-26777D01*
X48457Y-26742D01*
X48482Y-26712D01*
X48511Y-26686D01*
X48545Y-26667D01*
X48583Y-26655D01*
X48621Y-26651D01*
X48659Y-26654D01*
X48697Y-26664D01*
X48732Y-26682D01*
X48762Y-26706D01*
X48788Y-26735D01*
X48807Y-26769D01*
X48820Y-26806D01*
X48824Y-26845D01*
X48825Y-26850D01*
X48650Y-26850D02*
X48649Y-26854D01*
X48648Y-26859D01*
X48645Y-26863D01*
X48642Y-26867D01*
X48638Y-26870D01*
X48634Y-26873D01*
X48630Y-26874D01*
X48625Y-26874D01*
X48621Y-26874D01*
X48616Y-26873D01*
X48612Y-26870D01*
X48608Y-26867D01*
X48605Y-26864D01*
X48603Y-26859D01*
X48601Y-26855D01*
X48601Y-26850D01*
X48601Y-26846D01*
X48602Y-26841D01*
X48604Y-26837D01*
X48608Y-26833D01*
X48611Y-26830D01*
X48615Y-26828D01*
X48620Y-26826D01*
X48625Y-26826D01*
X48629Y-26826D01*
X48634Y-26827D01*
X48638Y-26829D01*
X48642Y-26832D01*
X48645Y-26836D01*
X48647Y-26840D01*
X48649Y-26845D01*
X48649Y-26850D01*
X48650Y-26850D01*
X48725Y-26850D02*
X48723Y-26869D01*
X48717Y-26888D01*
X48708Y-26905D01*
X48695Y-26920D01*
X48680Y-26932D01*
X48663Y-26942D01*
X48645Y-26947D01*
X48625Y-26949D01*
X48607Y-26948D01*
X48588Y-26942D01*
X48571Y-26933D01*
X48556Y-26921D01*
X48543Y-26906D01*
X48534Y-26889D01*
X48528Y-26870D01*
X48526Y-26851D01*
X48527Y-26832D01*
X48533Y-26814D01*
X48541Y-26796D01*
X48554Y-26781D01*
X48568Y-26768D01*
X48585Y-26759D01*
X48604Y-26753D01*
X48623Y-26751D01*
X48642Y-26752D01*
X48661Y-26757D01*
X48678Y-26766D01*
X48693Y-26778D01*
X48706Y-26793D01*
X48716Y-26810D01*
X48722Y-26828D01*
X48724Y-26848D01*
X48725Y-26850D01*
X51325Y-14700D02*
X51125Y-14500D01*
X51325Y-14700D02*
X53025Y-14875D01*
X53025Y-17475D02*
X53225Y-17675D01*
X51325Y-17275D02*
X53025Y-17475D01*
X53025Y-15100D02*
X53225Y-14900D01*
X53025Y-17275D02*
X53025Y-15100D01*
X53225Y-17475D02*
X53025Y-17275D01*
X53225Y-17875D02*
X53225Y-17675D01*
X51125Y-14500D02*
X51125Y-14300D01*
X53225Y-14525D02*
X51125Y-14300D01*
X53225Y-14725D02*
X53225Y-14525D01*
X53025Y-14875D02*
X53225Y-14725D01*
X51125Y-17625D02*
X53225Y-17875D01*
X51125Y-17475D02*
X51125Y-17625D01*
X51325Y-17275D02*
X51125Y-17475D01*
X53425Y-14900D02*
X53225Y-14900D01*
X53425Y-17475D02*
X53425Y-14900D01*
X53225Y-17475D02*
X53425Y-17475D01*
X50725Y-14425D02*
X50525Y-14625D01*
X50725Y-14275D02*
X48625Y-14025D01*
X50725Y-14425D02*
X50725Y-14275D01*
X50525Y-17175D02*
X48825Y-16975D01*
X50725Y-17575D02*
X48625Y-17325D01*
X48625Y-14350D02*
X48425Y-14350D01*
X48825Y-14550D02*
X48625Y-14350D01*
X48425Y-16925D02*
X48625Y-16925D01*
X48425Y-16925D02*
X48425Y-14350D01*
X48625Y-17150D02*
X48625Y-17325D01*
X48825Y-16975D02*
X48625Y-17150D01*
X50725Y-17400D02*
X50525Y-17175D01*
X50725Y-17575D02*
X50725Y-17400D01*
X48625Y-16925D02*
X48825Y-16750D01*
X48825Y-16750D02*
X48825Y-14550D01*
X50825Y-17200D02*
X50725Y-17100D01*
X51025Y-17200D02*
X50825Y-17200D01*
X51025Y-17200D02*
X51125Y-17100D01*
X50825Y-14625D02*
X50725Y-14725D01*
X51025Y-14625D02*
X50825Y-14625D01*
X51025Y-14625D02*
X51125Y-14725D01*
X51125Y-17100D02*
X51125Y-14725D01*
X50725Y-14725D02*
X50725Y-17100D01*
X49025Y-14425D02*
X48625Y-14025D01*
X50525Y-14625D02*
X49025Y-14425D01*
X48825Y-17725D02*
X48821Y-17763D01*
X48809Y-17801D01*
X48791Y-17835D01*
X48766Y-17865D01*
X48736Y-17890D01*
X48702Y-17909D01*
X48665Y-17920D01*
X48626Y-17924D01*
X48588Y-17921D01*
X48551Y-17910D01*
X48516Y-17892D01*
X48486Y-17867D01*
X48460Y-17837D01*
X48442Y-17803D01*
X48430Y-17766D01*
X48426Y-17727D01*
X48429Y-17689D01*
X48440Y-17652D01*
X48457Y-17617D01*
X48482Y-17587D01*
X48511Y-17561D01*
X48545Y-17542D01*
X48583Y-17530D01*
X48621Y-17526D01*
X48659Y-17529D01*
X48697Y-17539D01*
X48732Y-17557D01*
X48762Y-17581D01*
X48788Y-17610D01*
X48807Y-17644D01*
X48820Y-17681D01*
X48824Y-17720D01*
X48825Y-17725D01*
X48650Y-17725D02*
X48649Y-17729D01*
X48648Y-17734D01*
X48645Y-17738D01*
X48642Y-17742D01*
X48638Y-17745D01*
X48634Y-17748D01*
X48630Y-17749D01*
X48625Y-17749D01*
X48621Y-17749D01*
X48616Y-17748D01*
X48612Y-17745D01*
X48608Y-17742D01*
X48605Y-17739D01*
X48603Y-17734D01*
X48601Y-17730D01*
X48601Y-17725D01*
X48601Y-17721D01*
X48602Y-17716D01*
X48604Y-17712D01*
X48608Y-17708D01*
X48611Y-17705D01*
X48615Y-17703D01*
X48620Y-17701D01*
X48625Y-17701D01*
X48629Y-17701D01*
X48634Y-17702D01*
X48638Y-17704D01*
X48642Y-17707D01*
X48645Y-17711D01*
X48647Y-17715D01*
X48649Y-17720D01*
X48649Y-17725D01*
X48650Y-17725D01*
X48725Y-17725D02*
X48723Y-17744D01*
X48717Y-17763D01*
X48708Y-17780D01*
X48695Y-17795D01*
X48680Y-17807D01*
X48663Y-17817D01*
X48645Y-17822D01*
X48625Y-17824D01*
X48607Y-17823D01*
X48588Y-17817D01*
X48571Y-17808D01*
X48556Y-17796D01*
X48543Y-17781D01*
X48534Y-17764D01*
X48528Y-17745D01*
X48526Y-17726D01*
X48527Y-17707D01*
X48533Y-17689D01*
X48541Y-17671D01*
X48554Y-17656D01*
X48568Y-17643D01*
X48585Y-17634D01*
X48604Y-17628D01*
X48623Y-17626D01*
X48642Y-17627D01*
X48661Y-17632D01*
X48678Y-17641D01*
X48693Y-17653D01*
X48706Y-17668D01*
X48716Y-17685D01*
X48722Y-17703D01*
X48724Y-17723D01*
X48725Y-17725D01*
X48725Y-22375D02*
X48723Y-22394D01*
X48717Y-22413D01*
X48708Y-22430D01*
X48695Y-22445D01*
X48680Y-22457D01*
X48663Y-22467D01*
X48645Y-22472D01*
X48625Y-22474D01*
X48607Y-22473D01*
X48588Y-22467D01*
X48571Y-22458D01*
X48556Y-22446D01*
X48543Y-22431D01*
X48534Y-22414D01*
X48528Y-22395D01*
X48526Y-22376D01*
X48527Y-22357D01*
X48533Y-22339D01*
X48541Y-22321D01*
X48554Y-22306D01*
X48568Y-22293D01*
X48585Y-22284D01*
X48604Y-22278D01*
X48623Y-22276D01*
X48642Y-22277D01*
X48661Y-22282D01*
X48678Y-22291D01*
X48693Y-22303D01*
X48706Y-22318D01*
X48716Y-22335D01*
X48722Y-22353D01*
X48724Y-22373D01*
X48725Y-22375D01*
X48650Y-22375D02*
X48649Y-22379D01*
X48648Y-22384D01*
X48645Y-22388D01*
X48642Y-22392D01*
X48638Y-22395D01*
X48634Y-22398D01*
X48630Y-22399D01*
X48625Y-22399D01*
X48621Y-22399D01*
X48616Y-22398D01*
X48612Y-22395D01*
X48608Y-22392D01*
X48605Y-22389D01*
X48603Y-22384D01*
X48601Y-22380D01*
X48601Y-22375D01*
X48601Y-22371D01*
X48602Y-22366D01*
X48604Y-22362D01*
X48608Y-22358D01*
X48611Y-22355D01*
X48615Y-22353D01*
X48620Y-22351D01*
X48625Y-22351D01*
X48629Y-22351D01*
X48634Y-22352D01*
X48638Y-22354D01*
X48642Y-22357D01*
X48645Y-22361D01*
X48647Y-22365D01*
X48649Y-22370D01*
X48649Y-22375D01*
X48650Y-22375D01*
X48825Y-22375D02*
X48821Y-22413D01*
X48809Y-22451D01*
X48791Y-22485D01*
X48766Y-22515D01*
X48736Y-22540D01*
X48702Y-22559D01*
X48665Y-22570D01*
X48626Y-22574D01*
X48588Y-22571D01*
X48551Y-22560D01*
X48516Y-22542D01*
X48486Y-22517D01*
X48460Y-22487D01*
X48442Y-22453D01*
X48430Y-22416D01*
X48426Y-22377D01*
X48429Y-22339D01*
X48440Y-22302D01*
X48457Y-22267D01*
X48482Y-22237D01*
X48511Y-22211D01*
X48545Y-22192D01*
X48583Y-22180D01*
X48621Y-22176D01*
X48659Y-22179D01*
X48697Y-22189D01*
X48732Y-22207D01*
X48762Y-22231D01*
X48788Y-22260D01*
X48807Y-22294D01*
X48820Y-22331D01*
X48824Y-22370D01*
X48825Y-22375D01*
X50525Y-19275D02*
X49025Y-19075D01*
X49025Y-19075D02*
X48625Y-18675D01*
X50725Y-19375D02*
X50725Y-21750D01*
X51125Y-21750D02*
X51125Y-19375D01*
X51025Y-19275D02*
X51125Y-19375D01*
X51025Y-19275D02*
X50825Y-19275D01*
X50825Y-19275D02*
X50725Y-19375D01*
X51025Y-21850D02*
X51125Y-21750D01*
X51025Y-21850D02*
X50825Y-21850D01*
X50825Y-21850D02*
X50725Y-21750D01*
X48825Y-21400D02*
X48825Y-19200D01*
X48625Y-21575D02*
X48825Y-21400D01*
X50725Y-22225D02*
X50725Y-22050D01*
X50725Y-22050D02*
X50525Y-21825D01*
X48825Y-21625D02*
X48625Y-21800D01*
X48625Y-21800D02*
X48625Y-21975D01*
X48425Y-21575D02*
X48425Y-19000D01*
X48425Y-21575D02*
X48625Y-21575D01*
X48825Y-19200D02*
X48625Y-19000D01*
X48625Y-19000D02*
X48425Y-19000D01*
X50725Y-22225D02*
X48625Y-21975D01*
X50525Y-21825D02*
X48825Y-21625D01*
X50725Y-19075D02*
X50725Y-18925D01*
X50725Y-18925D02*
X48625Y-18675D01*
X50725Y-19075D02*
X50525Y-19275D01*
X53225Y-22125D02*
X53425Y-22125D01*
X53425Y-22125D02*
X53425Y-19550D01*
X53425Y-19550D02*
X53225Y-19550D01*
X51325Y-21925D02*
X51125Y-22125D01*
X51125Y-22125D02*
X51125Y-22275D01*
X51125Y-22275D02*
X53225Y-22525D01*
X53025Y-19525D02*
X53225Y-19375D01*
X53225Y-19375D02*
X53225Y-19175D01*
X53225Y-19175D02*
X51125Y-18950D01*
X51125Y-19150D02*
X51125Y-18950D01*
X53225Y-22525D02*
X53225Y-22325D01*
X53225Y-22125D02*
X53025Y-21925D01*
X53025Y-21925D02*
X53025Y-19750D01*
X53025Y-19750D02*
X53225Y-19550D01*
X51325Y-21925D02*
X53025Y-22125D01*
X53025Y-22125D02*
X53225Y-22325D01*
X51325Y-19350D02*
X53025Y-19525D01*
X51325Y-19350D02*
X51125Y-19150D01*
X54675Y-18200D02*
X54675Y-08200D01*
X54675Y-08200D02*
X50925Y-08200D01*
X50925Y-08200D02*
X47175Y-08200D01*
X47175Y-08200D02*
X47175Y-18200D01*
X47175Y-18200D02*
X47175Y-28200D01*
X47175Y-28200D02*
X50925Y-28200D01*
X50925Y-28200D02*
X54675Y-28200D01*
X54675Y-28200D02*
X54675Y-18200D01*
X19000Y-14500D02*
X17000Y-14500D01*
X19000Y-15500D02*
X17000Y-15500D01*
X16500Y-15000D02*
X16502Y-15043D01*
X16508Y-15086D01*
X16518Y-15129D01*
X16531Y-15171D01*
X16547Y-15211D01*
X16567Y-15249D01*
X16591Y-15286D01*
X16617Y-15321D01*
X16647Y-15353D01*
X16679Y-15383D01*
X16714Y-15409D01*
X16751Y-15433D01*
X16789Y-15453D01*
X16829Y-15469D01*
X16871Y-15482D01*
X16914Y-15492D01*
X16957Y-15498D01*
X17000Y-15500D01*
X17000Y-14500D02*
X16957Y-14502D01*
X16914Y-14508D01*
X16871Y-14518D01*
X16829Y-14531D01*
X16789Y-14547D01*
X16751Y-14567D01*
X16714Y-14591D01*
X16679Y-14617D01*
X16647Y-14647D01*
X16617Y-14679D01*
X16591Y-14714D01*
X16567Y-14751D01*
X16547Y-14789D01*
X16531Y-14829D01*
X16518Y-14871D01*
X16508Y-14914D01*
X16502Y-14957D01*
X16500Y-15000D01*
X19000Y-15500D02*
X19043Y-15498D01*
X19086Y-15492D01*
X19129Y-15482D01*
X19171Y-15469D01*
X19211Y-15453D01*
X19250Y-15433D01*
X19286Y-15409D01*
X19321Y-15383D01*
X19353Y-15353D01*
X19383Y-15321D01*
X19409Y-15286D01*
X19433Y-15249D01*
X19453Y-15211D01*
X19469Y-15171D01*
X19482Y-15129D01*
X19492Y-15086D01*
X19498Y-15043D01*
X19500Y-15000D01*
X19500Y-15000D02*
X19498Y-14957D01*
X19492Y-14914D01*
X19482Y-14871D01*
X19469Y-14829D01*
X19453Y-14789D01*
X19433Y-14751D01*
X19409Y-14714D01*
X19383Y-14679D01*
X19353Y-14647D01*
X19321Y-14617D01*
X19286Y-14591D01*
X19250Y-14567D01*
X19211Y-14547D01*
X19171Y-14531D01*
X19129Y-14518D01*
X19086Y-14508D01*
X19043Y-14502D01*
X19000Y-14500D01*
X20400Y-10775D02*
X20400Y-11775D01*
X20325Y-11650D02*
X20325Y-10900D01*
X22250Y-11275D02*
X22230Y-11469D01*
X22174Y-11656D01*
X22082Y-11828D01*
X21959Y-11979D01*
X21809Y-12104D01*
X21637Y-12196D01*
X21451Y-12254D01*
X21256Y-12274D01*
X21063Y-12257D01*
X20876Y-12202D01*
X20703Y-12111D01*
X20551Y-11989D01*
X20425Y-11839D01*
X20331Y-11668D01*
X20272Y-11482D01*
X20251Y-11288D01*
X20267Y-11095D01*
X20321Y-10907D01*
X20410Y-10734D01*
X20531Y-10581D01*
X20680Y-10454D01*
X20850Y-10359D01*
X21036Y-10299D01*
X21230Y-10276D01*
X21423Y-10291D01*
X21611Y-10343D01*
X21785Y-10431D01*
X21939Y-10551D01*
X22067Y-10699D01*
X22163Y-10869D01*
X22225Y-11054D01*
X22249Y-11248D01*
X22250Y-11275D01*
X16675Y-23350D02*
X15625Y-23350D01*
X16525Y-23275D02*
X15775Y-23275D01*
X17150Y-24200D02*
X17130Y-24394D01*
X17074Y-24581D01*
X16982Y-24753D01*
X16859Y-24904D01*
X16709Y-25029D01*
X16537Y-25121D01*
X16351Y-25179D01*
X16156Y-25199D01*
X15963Y-25182D01*
X15776Y-25127D01*
X15603Y-25036D01*
X15451Y-24914D01*
X15325Y-24764D01*
X15231Y-24593D01*
X15172Y-24407D01*
X15151Y-24213D01*
X15167Y-24020D01*
X15221Y-23832D01*
X15310Y-23659D01*
X15431Y-23506D01*
X15580Y-23379D01*
X15750Y-23284D01*
X15936Y-23224D01*
X16130Y-23201D01*
X16323Y-23216D01*
X16511Y-23268D01*
X16685Y-23356D01*
X16839Y-23476D01*
X16967Y-23624D01*
X17063Y-23794D01*
X17125Y-23979D01*
X17149Y-24173D01*
X17150Y-24200D01*
X10850Y-24200D02*
X11350Y-24200D01*
X10850Y-24200D02*
X10600Y-23950D01*
X10600Y-23950D02*
X10600Y-23450D01*
X10600Y-23450D02*
X10850Y-23200D01*
X10850Y-23200D02*
X10600Y-22950D01*
X10600Y-22950D02*
X10600Y-22450D01*
X10600Y-22450D02*
X10850Y-22200D01*
X10850Y-22200D02*
X10600Y-21950D01*
X10600Y-21950D02*
X10600Y-21450D01*
X10600Y-21450D02*
X10850Y-21200D01*
X10850Y-21200D02*
X10600Y-20950D01*
X10600Y-20950D02*
X10600Y-20450D01*
X10600Y-20450D02*
X10850Y-20200D01*
X10850Y-20200D02*
X10600Y-19950D01*
X10600Y-19950D02*
X10600Y-19450D01*
X10600Y-19450D02*
X10850Y-19200D01*
X10850Y-19200D02*
X10600Y-18950D01*
X10600Y-18950D02*
X10600Y-18450D01*
X10600Y-18450D02*
X10850Y-18200D01*
X10850Y-18200D02*
X11350Y-18200D01*
X11350Y-18200D02*
X11600Y-18450D01*
X11600Y-18450D02*
X11600Y-18950D01*
X11600Y-18950D02*
X11350Y-19200D01*
X11350Y-19200D02*
X11600Y-19450D01*
X11600Y-19450D02*
X11600Y-19950D01*
X11600Y-19950D02*
X11350Y-20200D01*
X11350Y-20200D02*
X11600Y-20450D01*
X11600Y-20450D02*
X11600Y-20950D01*
X11600Y-20950D02*
X11350Y-21200D01*
X11350Y-21200D02*
X11600Y-21450D01*
X11600Y-21450D02*
X11600Y-21950D01*
X11600Y-21950D02*
X11350Y-22200D01*
X11350Y-22200D02*
X11600Y-22450D01*
X11600Y-22450D02*
X11600Y-22950D01*
X11600Y-22950D02*
X11350Y-23200D01*
X11350Y-23200D02*
X11600Y-23450D01*
X11600Y-23450D02*
X11600Y-23950D01*
X11600Y-23950D02*
X11350Y-24200D01*
X11350Y-24200D02*
X11600Y-24200D01*
X11600Y-24200D02*
X11600Y-25200D01*
X11600Y-25200D02*
X10625Y-25200D01*
X10625Y-25200D02*
X10600Y-25200D01*
X10600Y-25200D02*
X10600Y-24200D01*
X10600Y-24200D02*
X10850Y-24200D01*
X11350Y-12200D02*
X10850Y-12200D01*
X11350Y-12200D02*
X11600Y-12450D01*
X11600Y-12450D02*
X11600Y-12950D01*
X11600Y-12950D02*
X11350Y-13200D01*
X11350Y-13200D02*
X11600Y-13450D01*
X11600Y-13450D02*
X11600Y-13950D01*
X11600Y-13950D02*
X11350Y-14200D01*
X11350Y-14200D02*
X11600Y-14450D01*
X11600Y-14450D02*
X11600Y-14950D01*
X11600Y-14950D02*
X11350Y-15200D01*
X11350Y-15200D02*
X11600Y-15450D01*
X11600Y-15450D02*
X11600Y-15950D01*
X11600Y-15950D02*
X11350Y-16200D01*
X11350Y-16200D02*
X11600Y-16450D01*
X11600Y-16450D02*
X11600Y-16950D01*
X11600Y-16950D02*
X11350Y-17200D01*
X11350Y-17200D02*
X11600Y-17450D01*
X11600Y-17450D02*
X11600Y-17950D01*
X11600Y-17950D02*
X11350Y-18200D01*
X11350Y-18200D02*
X10850Y-18200D01*
X10850Y-18200D02*
X10600Y-17950D01*
X10600Y-17950D02*
X10600Y-17450D01*
X10600Y-17450D02*
X10850Y-17200D01*
X10850Y-17200D02*
X10600Y-16950D01*
X10600Y-16950D02*
X10600Y-16450D01*
X10600Y-16450D02*
X10850Y-16200D01*
X10850Y-16200D02*
X10600Y-15950D01*
X10600Y-15950D02*
X10600Y-15450D01*
X10600Y-15450D02*
X10850Y-15200D01*
X10850Y-15200D02*
X10600Y-14950D01*
X10600Y-14950D02*
X10600Y-14450D01*
X10600Y-14450D02*
X10850Y-14200D01*
X10850Y-14200D02*
X10600Y-13950D01*
X10600Y-13950D02*
X10600Y-13450D01*
X10600Y-13450D02*
X10850Y-13200D01*
X10850Y-13200D02*
X10600Y-12950D01*
X10600Y-12950D02*
X10600Y-12450D01*
X10600Y-12450D02*
X10850Y-12200D01*
X10850Y-12200D02*
X10600Y-12200D01*
X10600Y-12200D02*
X10600Y-11200D01*
X10600Y-11200D02*
X11575Y-11200D01*
X11575Y-11200D02*
X11600Y-11200D01*
X11600Y-11200D02*
X11600Y-12200D01*
X11600Y-12200D02*
X11350Y-12200D01*
X27625Y-12750D02*
X27875Y-12500D01*
X27775Y-12500D02*
X27625Y-12650D01*
X28725Y-12600D02*
X28325Y-12600D01*
X28725Y-12500D02*
X28725Y-12700D01*
X28725Y-12700D02*
X28325Y-12700D01*
X28325Y-12700D02*
X28325Y-12500D01*
X27625Y-14500D02*
X27625Y-12500D01*
X27625Y-12500D02*
X28525Y-12500D01*
X28525Y-12500D02*
X29425Y-12500D01*
X29425Y-12500D02*
X29425Y-14500D01*
X29425Y-14500D02*
X29425Y-16500D01*
X29425Y-16500D02*
X27625Y-16500D01*
X27625Y-16500D02*
X27625Y-14500D01*
X28275Y-22625D02*
X27775Y-22625D01*
X27775Y-22625D02*
X27775Y-21625D01*
X27775Y-21625D02*
X28025Y-21625D01*
X28025Y-21625D02*
X27775Y-21375D01*
X27775Y-21375D02*
X27775Y-20875D01*
X27775Y-20875D02*
X28025Y-20625D01*
X28025Y-20625D02*
X27775Y-20375D01*
X27775Y-20375D02*
X27775Y-19875D01*
X27775Y-19875D02*
X28025Y-19625D01*
X28025Y-19625D02*
X27775Y-19375D01*
X27775Y-19375D02*
X27775Y-18875D01*
X27775Y-18875D02*
X28025Y-18625D01*
X28025Y-18625D02*
X28525Y-18625D01*
X28525Y-18625D02*
X28775Y-18875D01*
X28775Y-18875D02*
X28775Y-19375D01*
X28775Y-19375D02*
X28525Y-19625D01*
X28525Y-19625D02*
X28775Y-19875D01*
X28775Y-19875D02*
X28775Y-20375D01*
X28775Y-20375D02*
X28525Y-20625D01*
X28525Y-20625D02*
X28775Y-20875D01*
X28775Y-20875D02*
X28775Y-21375D01*
X28775Y-21375D02*
X28525Y-21625D01*
X28525Y-21625D02*
X28775Y-21625D01*
X28775Y-21625D02*
X28775Y-22625D01*
X28775Y-22625D02*
X28275Y-22625D01*
X18500Y-21250D02*
X18250Y-21500D01*
X18250Y-21400D02*
X18400Y-21250D01*
X18250Y-21250D02*
X19250Y-21250D01*
X19250Y-21250D02*
X19250Y-24150D01*
X19250Y-24150D02*
X18250Y-24150D01*
X18250Y-24150D02*
X18250Y-21250D01*
X28725Y-11200D02*
X28475Y-10950D01*
X28575Y-10950D02*
X28725Y-11100D01*
X28725Y-10950D02*
X28725Y-11950D01*
X28725Y-11950D02*
X25825Y-11950D01*
X25825Y-11950D02*
X25825Y-10950D01*
X25825Y-10950D02*
X28725Y-10950D01*
X14925Y-13750D02*
X14675Y-13500D01*
X14775Y-13500D02*
X14925Y-13650D01*
X14925Y-13500D02*
X14925Y-14500D01*
X14925Y-14500D02*
X12025Y-14500D01*
X12025Y-14500D02*
X12025Y-13500D01*
X12025Y-13500D02*
X14925Y-13500D01*
X26500Y-21250D02*
X26250Y-21500D01*
X26250Y-21400D02*
X26400Y-21250D01*
X26250Y-21250D02*
X27250Y-21250D01*
X27250Y-21250D02*
X27250Y-24150D01*
X27250Y-24150D02*
X26250Y-24150D01*
X26250Y-24150D02*
X26250Y-21250D01*
X31025Y-19675D02*
X30775Y-19925D01*
X30775Y-19825D02*
X30925Y-19675D01*
X30775Y-19675D02*
X31775Y-19675D01*
X31775Y-19675D02*
X31775Y-22575D01*
X31775Y-22575D02*
X30775Y-22575D01*
X30775Y-22575D02*
X30775Y-19675D01*
X30375Y-22575D02*
X30625Y-22325D01*
X30625Y-22425D02*
X30475Y-22575D01*
X30625Y-22575D02*
X29625Y-22575D01*
X29625Y-22575D02*
X29625Y-19675D01*
X29625Y-19675D02*
X30625Y-19675D01*
X30625Y-19675D02*
X30625Y-22575D01*
X22575Y-21250D02*
X22325Y-21500D01*
X22325Y-21400D02*
X22475Y-21250D01*
X22325Y-21250D02*
X23325Y-21250D01*
X23325Y-21250D02*
X23325Y-24150D01*
X23325Y-24150D02*
X22325Y-24150D01*
X22325Y-24150D02*
X22325Y-21250D01*
G54D12*
X30125Y-25375D02*
X30125Y-24925D01*
X28925Y-25375D02*
X28925Y-24925D01*
X27425Y-24925D02*
X27425Y-23475D01*
X27425Y-23475D02*
X31625Y-23475D01*
X31625Y-23475D02*
X31625Y-24925D01*
X27425Y-25375D02*
X27425Y-24925D01*
X27425Y-24925D02*
X31625Y-24925D01*
X31625Y-24925D02*
X31625Y-25375D01*
X29525Y-25375D02*
X31625Y-25375D01*
X29525Y-25375D02*
X27425Y-25375D01*
G54D13*
X23500Y-17600D02*
X23500Y-17500D01*
X23500Y-17500D02*
X23400Y-17500D01*
X23400Y-18500D02*
X23500Y-18500D01*
X23500Y-18500D02*
X23500Y-18400D01*
X22500Y-18400D02*
X22500Y-18500D01*
X22500Y-18500D02*
X22600Y-18500D01*
X22600Y-17500D02*
X22500Y-17500D01*
X22500Y-17500D02*
X22500Y-17600D01*
G54D14*
X14950Y-22200D02*
X14950Y-25200D01*
X14950Y-25200D02*
X12950Y-25200D01*
X12950Y-25200D02*
X12950Y-22200D01*
X13950Y-22200D02*
X13950Y-23200D01*
X13950Y-23200D02*
X12950Y-23200D01*
X14950Y-22200D02*
X12950Y-22200D01*
G54D13*
X29475Y-18525D02*
X29475Y-17475D01*
X29425Y-18425D02*
X29425Y-17575D01*
X29075Y-18150D02*
X29075Y-17800D01*
X31325Y-18000D02*
X31305Y-18194D01*
X31249Y-18381D01*
X31157Y-18553D01*
X31034Y-18704D01*
X30884Y-18829D01*
X30712Y-18921D01*
X30526Y-18979D01*
X30331Y-18999D01*
X30138Y-18982D01*
X29951Y-18927D01*
X29778Y-18836D01*
X29626Y-18714D01*
X29500Y-18564D01*
X29406Y-18393D01*
X29347Y-18207D01*
X29326Y-18013D01*
X29342Y-17820D01*
X29396Y-17632D01*
X29485Y-17459D01*
X29606Y-17306D01*
X29755Y-17179D01*
X29925Y-17084D01*
X30111Y-17024D01*
X30305Y-17001D01*
X30498Y-17016D01*
X30686Y-17068D01*
X30860Y-17156D01*
X31014Y-17276D01*
X31142Y-17424D01*
X31238Y-17594D01*
X31300Y-17779D01*
X31324Y-17973D01*
X31325Y-18000D01*
X24400Y-14050D02*
X23450Y-14050D01*
X23450Y-14050D02*
X23450Y-14950D01*
X23450Y-14950D02*
X24400Y-14950D01*
X24400Y-14950D02*
X25350Y-14950D01*
X25350Y-14950D02*
X25350Y-14050D01*
X25350Y-14050D02*
X24400Y-14050D01*
G54D15*
X25780Y-11995D02*
X25780Y-14755D01*
X25780Y-14755D02*
X25680Y-14755D01*
X25680Y-14755D02*
X25680Y-13575D01*
X25680Y-13575D02*
X23120Y-13575D01*
X23120Y-13575D02*
X23120Y-14755D01*
X23120Y-14755D02*
X23020Y-14755D01*
X23020Y-14755D02*
X23020Y-11995D01*
X23020Y-11995D02*
X25780Y-11995D01*
X24720Y-11205D02*
X24720Y-11695D01*
X24080Y-11205D02*
X24080Y-11695D01*
X24990Y-11995D02*
X24990Y-11695D01*
X24990Y-11695D02*
X23810Y-11695D01*
X23810Y-11695D02*
X23810Y-11995D01*
X24990Y-10435D02*
X23810Y-10435D01*
X23810Y-10435D02*
X23810Y-11205D01*
X23810Y-11205D02*
X24990Y-11205D01*
X24990Y-11205D02*
X24990Y-10435D01*
X23810Y-10435D02*
X23810Y-11205D01*
G54D14*
X15250Y-15480D02*
X15250Y-13500D01*
X15250Y-13500D02*
X16250Y-13500D01*
X16250Y-13500D02*
X16250Y-15500D01*
X16250Y-15500D02*
X15250Y-15500D01*
X15500Y-15500D02*
X15250Y-15250D01*
X19800Y-15480D02*
X19800Y-13500D01*
X19800Y-13500D02*
X20800Y-13500D01*
X20800Y-13500D02*
X20800Y-15500D01*
X20800Y-15500D02*
X19800Y-15500D01*
X20050Y-15500D02*
X19800Y-15250D01*
G54D13*
X20000Y-11950D02*
X19000Y-11950D01*
X19000Y-11850D02*
X20000Y-11850D01*
X20000Y-11750D02*
X19000Y-11750D01*
X14100Y-12450D02*
X14000Y-12450D01*
X15100Y-12450D02*
X14900Y-12450D01*
X16100Y-12450D02*
X15900Y-12450D01*
X17100Y-12450D02*
X16900Y-12450D01*
X18100Y-12450D02*
X17900Y-12450D01*
X19100Y-12450D02*
X18900Y-12450D01*
X20000Y-12450D02*
X19900Y-12450D01*
X14500Y-11650D02*
X14500Y-11050D01*
X15500Y-11650D02*
X15500Y-11050D01*
X16500Y-11650D02*
X16500Y-11050D01*
X17500Y-11650D02*
X17500Y-11050D01*
X18500Y-11650D02*
X18500Y-11050D01*
X19500Y-11650D02*
X19500Y-11050D01*
X19000Y-12450D02*
X19000Y-11650D01*
X20000Y-12450D02*
X20000Y-11650D01*
X20000Y-11650D02*
X14000Y-11650D01*
X14000Y-11650D02*
X14000Y-12450D01*
G54D14*
X32150Y-12000D02*
X35150Y-12000D01*
X32150Y-18000D02*
X35150Y-18000D01*
X32650Y-12000D02*
X32650Y-18000D01*
X35150Y-12000D02*
X35150Y-18000D01*
X32150Y-12000D02*
X32150Y-18000D01*
X32150Y-18000D02*
X35150Y-18000D01*
X32150Y-24000D02*
X35150Y-24000D01*
X32650Y-18000D02*
X32650Y-24000D01*
X35150Y-18000D02*
X35150Y-24000D01*
X32150Y-18000D02*
X32150Y-24000D01*
G54D13*
X21350Y-22700D02*
X22150Y-22700D01*
X21350Y-22600D02*
X22150Y-22600D01*
X21350Y-22500D02*
X22150Y-22500D01*
X21350Y-22400D02*
X22150Y-22400D01*
X22150Y-24000D02*
X22150Y-22400D01*
X21350Y-24000D02*
X21350Y-22400D01*
X21750Y-24000D02*
X22150Y-24000D01*
X21750Y-24000D02*
X21350Y-24000D01*
X21750Y-24000D02*
X21750Y-24325D01*
X21750Y-22400D02*
X21750Y-22075D01*
X25250Y-22700D02*
X26050Y-22700D01*
X25250Y-22600D02*
X26050Y-22600D01*
X25250Y-22500D02*
X26050Y-22500D01*
X25250Y-22400D02*
X26050Y-22400D01*
X26050Y-24000D02*
X26050Y-22400D01*
X25250Y-24000D02*
X25250Y-22400D01*
X25650Y-24000D02*
X26050Y-24000D01*
X25650Y-24000D02*
X25250Y-24000D01*
X25650Y-24000D02*
X25650Y-24325D01*
X25650Y-22400D02*
X25650Y-22075D01*
X17650Y-24050D02*
X17650Y-24300D01*
X17650Y-22350D02*
X17650Y-22100D01*
X17925Y-23700D02*
X18000Y-23750D01*
X18000Y-23750D02*
X18000Y-24050D01*
X17925Y-23200D02*
X17925Y-22750D01*
X17925Y-22750D02*
X18000Y-22700D01*
X18000Y-22700D02*
X18000Y-22350D01*
X17925Y-23200D02*
X17925Y-23700D01*
X17375Y-22750D02*
X17300Y-22700D01*
X17300Y-22700D02*
X17300Y-22350D01*
X17375Y-23200D02*
X17375Y-22750D01*
X17375Y-23200D02*
X17375Y-23700D01*
X17375Y-23700D02*
X17300Y-23750D01*
X17300Y-23750D02*
X17300Y-24050D01*
X17300Y-24050D02*
X18000Y-24050D01*
X18000Y-22350D02*
X17300Y-22350D01*
X25275Y-16000D02*
X25525Y-16000D01*
X23575Y-16000D02*
X23325Y-16000D01*
X24925Y-15725D02*
X24975Y-15650D01*
X24975Y-15650D02*
X25275Y-15650D01*
X24425Y-15725D02*
X23975Y-15725D01*
X23975Y-15725D02*
X23925Y-15650D01*
X23925Y-15650D02*
X23575Y-15650D01*
X24425Y-15725D02*
X24925Y-15725D01*
X23975Y-16275D02*
X23925Y-16350D01*
X23925Y-16350D02*
X23575Y-16350D01*
X24425Y-16275D02*
X23975Y-16275D01*
X24425Y-16275D02*
X24925Y-16275D01*
X24925Y-16275D02*
X24975Y-16350D01*
X24975Y-16350D02*
X25275Y-16350D01*
X25275Y-16350D02*
X25275Y-15650D01*
X23575Y-15650D02*
X23575Y-16350D01*
X21275Y-13650D02*
X21275Y-13400D01*
X21275Y-15350D02*
X21275Y-15600D01*
X21000Y-14000D02*
X20925Y-13950D01*
X20925Y-13950D02*
X20925Y-13650D01*
X21000Y-14500D02*
X21000Y-14950D01*
X21000Y-14950D02*
X20925Y-15000D01*
X20925Y-15000D02*
X20925Y-15350D01*
X21000Y-14500D02*
X21000Y-14000D01*
X21550Y-14950D02*
X21625Y-15000D01*
X21625Y-15000D02*
X21625Y-15350D01*
X21550Y-14500D02*
X21550Y-14950D01*
X21550Y-14500D02*
X21550Y-14000D01*
X21550Y-14000D02*
X21625Y-13950D01*
X21625Y-13950D02*
X21625Y-13650D01*
X21625Y-13650D02*
X20925Y-13650D01*
X20925Y-15350D02*
X21625Y-15350D01*
X22100Y-15350D02*
X22100Y-15600D01*
X22100Y-13650D02*
X22100Y-13400D01*
X22375Y-15000D02*
X22450Y-15050D01*
X22450Y-15050D02*
X22450Y-15350D01*
X22375Y-14500D02*
X22375Y-14050D01*
X22375Y-14050D02*
X22450Y-14000D01*
X22450Y-14000D02*
X22450Y-13650D01*
X22375Y-14500D02*
X22375Y-15000D01*
X21825Y-14050D02*
X21750Y-14000D01*
X21750Y-14000D02*
X21750Y-13650D01*
X21825Y-14500D02*
X21825Y-14050D01*
X21825Y-14500D02*
X21825Y-15000D01*
X21825Y-15000D02*
X21750Y-15050D01*
X21750Y-15050D02*
X21750Y-15350D01*
X21750Y-15350D02*
X22450Y-15350D01*
X22450Y-13650D02*
X21750Y-13650D01*
X24750Y-22350D02*
X24750Y-22100D01*
X24750Y-24050D02*
X24750Y-24300D01*
X24475Y-22700D02*
X24400Y-22650D01*
X24400Y-22650D02*
X24400Y-22350D01*
X24475Y-23200D02*
X24475Y-23650D01*
X24475Y-23650D02*
X24400Y-23700D01*
X24400Y-23700D02*
X24400Y-24050D01*
X24475Y-23200D02*
X24475Y-22700D01*
X25025Y-23650D02*
X25100Y-23700D01*
X25100Y-23700D02*
X25100Y-24050D01*
X25025Y-23200D02*
X25025Y-23650D01*
X25025Y-23200D02*
X25025Y-22700D01*
X25025Y-22700D02*
X25100Y-22650D01*
X25100Y-22650D02*
X25100Y-22350D01*
X25100Y-22350D02*
X24400Y-22350D01*
X24400Y-24050D02*
X25100Y-24050D01*
X23850Y-22350D02*
X23850Y-22100D01*
X23850Y-24050D02*
X23850Y-24300D01*
X23575Y-22700D02*
X23500Y-22650D01*
X23500Y-22650D02*
X23500Y-22350D01*
X23575Y-23200D02*
X23575Y-23650D01*
X23575Y-23650D02*
X23500Y-23700D01*
X23500Y-23700D02*
X23500Y-24050D01*
X23575Y-23200D02*
X23575Y-22700D01*
X24125Y-23650D02*
X24200Y-23700D01*
X24200Y-23700D02*
X24200Y-24050D01*
X24125Y-23200D02*
X24125Y-23650D01*
X24125Y-23200D02*
X24125Y-22700D01*
X24125Y-22700D02*
X24200Y-22650D01*
X24200Y-22650D02*
X24200Y-22350D01*
X24200Y-22350D02*
X23500Y-22350D01*
X23500Y-24050D02*
X24200Y-24050D01*
X20775Y-22350D02*
X20775Y-22100D01*
X20775Y-24050D02*
X20775Y-24300D01*
X20500Y-22700D02*
X20425Y-22650D01*
X20425Y-22650D02*
X20425Y-22350D01*
X20500Y-23200D02*
X20500Y-23650D01*
X20500Y-23650D02*
X20425Y-23700D01*
X20425Y-23700D02*
X20425Y-24050D01*
X20500Y-23200D02*
X20500Y-22700D01*
X21050Y-23650D02*
X21125Y-23700D01*
X21125Y-23700D02*
X21125Y-24050D01*
X21050Y-23200D02*
X21050Y-23650D01*
X21050Y-23200D02*
X21050Y-22700D01*
X21050Y-22700D02*
X21125Y-22650D01*
X21125Y-22650D02*
X21125Y-22350D01*
X21125Y-22350D02*
X20425Y-22350D01*
X20425Y-24050D02*
X21125Y-24050D01*
X19850Y-22350D02*
X19850Y-22100D01*
X19850Y-24050D02*
X19850Y-24300D01*
X19575Y-22700D02*
X19500Y-22650D01*
X19500Y-22650D02*
X19500Y-22350D01*
X19575Y-23200D02*
X19575Y-23650D01*
X19575Y-23650D02*
X19500Y-23700D01*
X19500Y-23700D02*
X19500Y-24050D01*
X19575Y-23200D02*
X19575Y-22700D01*
X20125Y-23650D02*
X20200Y-23700D01*
X20200Y-23700D02*
X20200Y-24050D01*
X20125Y-23200D02*
X20125Y-23650D01*
X20125Y-23200D02*
X20125Y-22700D01*
X20125Y-22700D02*
X20200Y-22650D01*
X20200Y-22650D02*
X20200Y-22350D01*
X20200Y-22350D02*
X19500Y-22350D01*
X19500Y-24050D02*
X20200Y-24050D01*
X12475Y-19750D02*
X12475Y-17850D01*
X27500Y-19750D02*
X12475Y-19750D01*
X27000Y-18300D02*
X27500Y-18300D01*
X27000Y-19300D02*
X27000Y-18300D01*
X27500Y-19300D02*
X27000Y-19300D01*
X27500Y-19750D02*
X27500Y-17850D01*
X27500Y-17850D02*
X12475Y-17850D01*
G54D10*
X54287Y-09770D02*
X53887Y-09770D01*
X53887Y-09675D01*
X53906Y-09617D01*
X53944Y-09579D01*
X53982Y-09560D01*
X54058Y-09541D01*
X54115Y-09541D01*
X54192Y-09560D01*
X54230Y-09579D01*
X54268Y-09617D01*
X54287Y-09675D01*
X54287Y-09770D01*
X54287Y-09370D02*
X53887Y-09370D01*
X53887Y-09217D01*
X53906Y-09179D01*
X53925Y-09160D01*
X53963Y-09141D01*
X54020Y-09141D01*
X54058Y-09160D01*
X54077Y-09179D01*
X54096Y-09217D01*
X54096Y-09370D01*
X54287Y-08760D02*
X54287Y-08989D01*
X54287Y-08875D02*
X53887Y-08875D01*
X53944Y-08913D01*
X53982Y-08951D01*
X54001Y-08989D01*
X48885Y-08946D02*
X48742Y-08946D01*
X48742Y-08646D01*
X48985Y-08789D02*
X49085Y-08789D01*
X49128Y-08946D02*
X48985Y-08946D01*
X48985Y-08646D01*
X49128Y-08646D01*
X49256Y-08946D02*
X49256Y-08646D01*
X49328Y-08646D01*
X49371Y-08661D01*
X49399Y-08689D01*
X49414Y-08718D01*
X49428Y-08775D01*
X49428Y-08818D01*
X49414Y-08875D01*
X49399Y-08904D01*
X49371Y-08932D01*
X49328Y-08946D01*
X49256Y-08946D01*
X49485Y-08975D02*
X49714Y-08975D01*
X49914Y-08746D02*
X49914Y-08946D01*
X49843Y-08632D02*
X49771Y-08846D01*
X49957Y-08846D01*
X50043Y-08646D02*
X50243Y-08946D01*
X50243Y-08646D02*
X50043Y-08946D01*
X50329Y-08646D02*
X50529Y-08646D01*
X50400Y-08946D01*
X50629Y-08932D02*
X50672Y-08946D01*
X50743Y-08946D01*
X50772Y-08932D01*
X50786Y-08918D01*
X50801Y-08889D01*
X50801Y-08861D01*
X50786Y-08832D01*
X50772Y-08818D01*
X50743Y-08804D01*
X50686Y-08789D01*
X50658Y-08775D01*
X50643Y-08761D01*
X50629Y-08732D01*
X50629Y-08704D01*
X50643Y-08675D01*
X50658Y-08661D01*
X50686Y-08646D01*
X50758Y-08646D01*
X50801Y-08661D01*
X50929Y-08789D02*
X51029Y-08789D01*
X51072Y-08946D02*
X50929Y-08946D01*
X50929Y-08646D01*
X51072Y-08646D01*
X51358Y-08661D02*
X51329Y-08646D01*
X51286Y-08646D01*
X51243Y-08661D01*
X51215Y-08689D01*
X51200Y-08718D01*
X51186Y-08775D01*
X51186Y-08818D01*
X51200Y-08875D01*
X51215Y-08904D01*
X51243Y-08932D01*
X51286Y-08946D01*
X51315Y-08946D01*
X51358Y-08932D01*
X51372Y-08918D01*
X51372Y-08818D01*
X51315Y-08818D01*
X17762Y-16274D02*
X18162Y-16007D01*
X17762Y-16007D02*
X18162Y-16274D01*
X18162Y-15645D02*
X18162Y-15874D01*
X18162Y-15760D02*
X17762Y-15760D01*
X17819Y-15798D01*
X17857Y-15836D01*
X17876Y-15874D01*
X17493Y-14121D02*
X17321Y-14121D01*
X17407Y-14121D02*
X17407Y-13821D01*
X17378Y-13864D01*
X17350Y-13893D01*
X17321Y-13907D01*
X17750Y-13821D02*
X17693Y-13821D01*
X17664Y-13836D01*
X17650Y-13850D01*
X17621Y-13893D01*
X17607Y-13950D01*
X17607Y-14064D01*
X17621Y-14093D01*
X17636Y-14107D01*
X17664Y-14121D01*
X17721Y-14121D01*
X17750Y-14107D01*
X17764Y-14093D01*
X17779Y-14064D01*
X17779Y-13993D01*
X17764Y-13964D01*
X17750Y-13950D01*
X17721Y-13936D01*
X17664Y-13936D01*
X17636Y-13950D01*
X17621Y-13964D01*
X17607Y-13993D01*
X17907Y-14121D02*
X17907Y-13821D01*
X18007Y-14036D01*
X18107Y-13821D01*
X18107Y-14121D01*
X18250Y-14121D02*
X18250Y-13821D01*
X18250Y-13964D02*
X18422Y-13964D01*
X18422Y-14121D02*
X18422Y-13821D01*
X18536Y-13921D02*
X18693Y-13921D01*
X18536Y-14121D01*
X18693Y-14121D01*
X22687Y-10895D02*
X22287Y-10895D01*
X22287Y-10800D01*
X22306Y-10742D01*
X22344Y-10704D01*
X22382Y-10685D01*
X22458Y-10666D01*
X22515Y-10666D01*
X22592Y-10685D01*
X22630Y-10704D01*
X22668Y-10742D01*
X22687Y-10800D01*
X22687Y-10895D01*
X22287Y-10533D02*
X22287Y-10285D01*
X22439Y-10419D01*
X22439Y-10361D01*
X22458Y-10323D01*
X22477Y-10304D01*
X22515Y-10285D01*
X22611Y-10285D01*
X22649Y-10304D01*
X22668Y-10323D01*
X22687Y-10361D01*
X22687Y-10476D01*
X22668Y-10514D01*
X22649Y-10533D01*
X23121Y-11054D02*
X22821Y-11054D01*
X22821Y-10982D01*
X22836Y-10939D01*
X22864Y-10911D01*
X22893Y-10896D01*
X22950Y-10882D01*
X22993Y-10882D01*
X23050Y-10896D01*
X23079Y-10911D01*
X23107Y-10939D01*
X23121Y-10982D01*
X23121Y-11054D01*
X22964Y-10654D02*
X22979Y-10611D01*
X22993Y-10596D01*
X23021Y-10582D01*
X23064Y-10582D01*
X23093Y-10596D01*
X23107Y-10611D01*
X23121Y-10639D01*
X23121Y-10754D01*
X22821Y-10754D01*
X22821Y-10654D01*
X22836Y-10625D01*
X22850Y-10611D01*
X22879Y-10596D01*
X22907Y-10596D01*
X22936Y-10611D01*
X22950Y-10625D01*
X22964Y-10654D01*
X22964Y-10754D01*
X22836Y-10296D02*
X22821Y-10325D01*
X22821Y-10368D01*
X22836Y-10411D01*
X22864Y-10439D01*
X22893Y-10454D01*
X22950Y-10468D01*
X22993Y-10468D01*
X23050Y-10454D01*
X23079Y-10439D01*
X23107Y-10411D01*
X23121Y-10368D01*
X23121Y-10339D01*
X23107Y-10296D01*
X23093Y-10282D01*
X22993Y-10282D01*
X22993Y-10339D01*
X16937Y-25770D02*
X16537Y-25770D01*
X16537Y-25675D01*
X16556Y-25617D01*
X16594Y-25579D01*
X16632Y-25560D01*
X16708Y-25541D01*
X16765Y-25541D01*
X16842Y-25560D01*
X16880Y-25579D01*
X16918Y-25617D01*
X16937Y-25675D01*
X16937Y-25770D01*
X16670Y-25198D02*
X16937Y-25198D01*
X16518Y-25294D02*
X16804Y-25389D01*
X16804Y-25141D01*
X16271Y-22800D02*
X15971Y-22800D01*
X15971Y-22685D01*
X15986Y-22657D01*
X16000Y-22642D01*
X16029Y-22628D01*
X16071Y-22628D01*
X16100Y-22642D01*
X16114Y-22657D01*
X16129Y-22685D01*
X16129Y-22800D01*
X15971Y-22528D02*
X16271Y-22457D01*
X16057Y-22400D01*
X16271Y-22342D01*
X15971Y-22271D01*
X16271Y-21985D02*
X16129Y-22085D01*
X16271Y-22157D02*
X15971Y-22157D01*
X15971Y-22042D01*
X15986Y-22014D01*
X16000Y-21999D01*
X16029Y-21985D01*
X16071Y-21985D01*
X16100Y-21999D01*
X16114Y-22014D01*
X16129Y-22042D01*
X16129Y-22157D01*
X12162Y-25195D02*
X11762Y-25195D01*
X11762Y-25042D01*
X11781Y-25004D01*
X11800Y-24985D01*
X11838Y-24966D01*
X11895Y-24966D01*
X11933Y-24985D01*
X11952Y-25004D01*
X11971Y-25042D01*
X11971Y-25195D01*
X11800Y-24814D02*
X11781Y-24795D01*
X11762Y-24757D01*
X11762Y-24661D01*
X11781Y-24623D01*
X11800Y-24604D01*
X11838Y-24585D01*
X11876Y-24585D01*
X11933Y-24604D01*
X12162Y-24833D01*
X12162Y-24585D01*
X12071Y-22572D02*
X11771Y-22572D01*
X11986Y-22472D01*
X11771Y-22372D01*
X12071Y-22372D01*
X11914Y-22229D02*
X11914Y-22129D01*
X12071Y-22086D02*
X12071Y-22229D01*
X11771Y-22229D01*
X11771Y-22086D01*
X11771Y-22000D02*
X11771Y-21829D01*
X12071Y-21915D02*
X11771Y-21915D01*
X11914Y-21729D02*
X11914Y-21629D01*
X12071Y-21586D02*
X12071Y-21729D01*
X11771Y-21729D01*
X11771Y-21586D01*
X12071Y-21286D02*
X11929Y-21386D01*
X12071Y-21458D02*
X11771Y-21458D01*
X11771Y-21343D01*
X11786Y-21315D01*
X11800Y-21300D01*
X11829Y-21286D01*
X11871Y-21286D01*
X11900Y-21300D01*
X11914Y-21315D01*
X11929Y-21343D01*
X11929Y-21458D01*
X12100Y-21229D02*
X12100Y-21000D01*
X12071Y-20786D02*
X12071Y-20929D01*
X11771Y-20929D01*
X11012Y-11020D02*
X10612Y-11020D01*
X10612Y-10867D01*
X10631Y-10829D01*
X10650Y-10810D01*
X10688Y-10791D01*
X10745Y-10791D01*
X10783Y-10810D01*
X10802Y-10829D01*
X10821Y-10867D01*
X10821Y-11020D01*
X11012Y-10410D02*
X11012Y-10639D01*
X11012Y-10525D02*
X10612Y-10525D01*
X10669Y-10563D01*
X10707Y-10601D01*
X10726Y-10639D01*
X12096Y-16907D02*
X11796Y-16907D01*
X12011Y-16807D01*
X11796Y-16707D01*
X12096Y-16707D01*
X11939Y-16564D02*
X11939Y-16464D01*
X12096Y-16421D02*
X12096Y-16564D01*
X11796Y-16564D01*
X11796Y-16421D01*
X11796Y-16335D02*
X11796Y-16164D01*
X12096Y-16250D02*
X11796Y-16250D01*
X11939Y-16064D02*
X11939Y-15964D01*
X12096Y-15921D02*
X12096Y-16064D01*
X11796Y-16064D01*
X11796Y-15921D01*
X12096Y-15621D02*
X11954Y-15721D01*
X12096Y-15793D02*
X11796Y-15793D01*
X11796Y-15678D01*
X11811Y-15650D01*
X11825Y-15635D01*
X11854Y-15621D01*
X11896Y-15621D01*
X11925Y-15635D01*
X11939Y-15650D01*
X11954Y-15678D01*
X11954Y-15793D01*
X12125Y-15564D02*
X12125Y-15335D01*
X12096Y-15264D02*
X11796Y-15264D01*
X11939Y-15264D02*
X11939Y-15092D01*
X12096Y-15092D02*
X11796Y-15092D01*
X26037Y-13255D02*
X26361Y-13255D01*
X26399Y-13236D01*
X26418Y-13217D01*
X26437Y-13179D01*
X26437Y-13102D01*
X26418Y-13064D01*
X26399Y-13045D01*
X26361Y-13026D01*
X26037Y-13026D01*
X26437Y-12626D02*
X26437Y-12855D01*
X26437Y-12741D02*
X26037Y-12741D01*
X26094Y-12779D01*
X26132Y-12817D01*
X26151Y-12855D01*
X28207Y-13679D02*
X28221Y-13636D01*
X28221Y-13565D01*
X28207Y-13536D01*
X28193Y-13522D01*
X28164Y-13507D01*
X28136Y-13507D01*
X28107Y-13522D01*
X28093Y-13536D01*
X28079Y-13565D01*
X28064Y-13622D01*
X28050Y-13650D01*
X28036Y-13665D01*
X28007Y-13679D01*
X27979Y-13679D01*
X27950Y-13665D01*
X27936Y-13650D01*
X27921Y-13622D01*
X27921Y-13550D01*
X27936Y-13507D01*
X28207Y-13393D02*
X28221Y-13350D01*
X28221Y-13279D01*
X28207Y-13250D01*
X28193Y-13236D01*
X28164Y-13221D01*
X28136Y-13221D01*
X28107Y-13236D01*
X28093Y-13250D01*
X28079Y-13279D01*
X28064Y-13336D01*
X28050Y-13364D01*
X28036Y-13379D01*
X28007Y-13393D01*
X27979Y-13393D01*
X27950Y-13379D01*
X27936Y-13364D01*
X27921Y-13336D01*
X27921Y-13264D01*
X27936Y-13221D01*
X28221Y-12921D02*
X28079Y-13021D01*
X28221Y-13093D02*
X27921Y-13093D01*
X27921Y-12978D01*
X27936Y-12950D01*
X27950Y-12935D01*
X27979Y-12921D01*
X28021Y-12921D01*
X28050Y-12935D01*
X28064Y-12950D01*
X28079Y-12978D01*
X28079Y-13093D01*
X28437Y-18470D02*
X28037Y-18470D01*
X28037Y-18317D01*
X28056Y-18279D01*
X28075Y-18260D01*
X28113Y-18241D01*
X28170Y-18241D01*
X28208Y-18260D01*
X28227Y-18279D01*
X28246Y-18317D01*
X28246Y-18470D01*
X28037Y-17898D02*
X28037Y-17975D01*
X28056Y-18013D01*
X28075Y-18032D01*
X28132Y-18070D01*
X28208Y-18089D01*
X28361Y-18089D01*
X28399Y-18070D01*
X28418Y-18051D01*
X28437Y-18013D01*
X28437Y-17936D01*
X28418Y-17898D01*
X28399Y-17879D01*
X28361Y-17860D01*
X28265Y-17860D01*
X28227Y-17879D01*
X28208Y-17898D01*
X28189Y-17936D01*
X28189Y-18013D01*
X28208Y-18051D01*
X28227Y-18070D01*
X28265Y-18089D01*
X27496Y-20918D02*
X27196Y-20918D01*
X27225Y-20789D02*
X27211Y-20775D01*
X27196Y-20746D01*
X27196Y-20675D01*
X27211Y-20646D01*
X27225Y-20632D01*
X27254Y-20617D01*
X27282Y-20617D01*
X27325Y-20632D01*
X27496Y-20803D01*
X27496Y-20617D01*
X27468Y-20317D02*
X27482Y-20331D01*
X27496Y-20374D01*
X27496Y-20403D01*
X27482Y-20446D01*
X27454Y-20474D01*
X27425Y-20489D01*
X27368Y-20503D01*
X27325Y-20503D01*
X27268Y-20489D01*
X27239Y-20474D01*
X27211Y-20446D01*
X27196Y-20403D01*
X27196Y-20374D01*
X27211Y-20331D01*
X27225Y-20317D01*
X18874Y-24691D02*
X18893Y-24710D01*
X18912Y-24767D01*
X18912Y-24805D01*
X18893Y-24863D01*
X18855Y-24901D01*
X18817Y-24920D01*
X18740Y-24939D01*
X18683Y-24939D01*
X18607Y-24920D01*
X18569Y-24901D01*
X18531Y-24863D01*
X18512Y-24805D01*
X18512Y-24767D01*
X18531Y-24710D01*
X18550Y-24691D01*
X18512Y-24558D02*
X18512Y-24310D01*
X18664Y-24444D01*
X18664Y-24386D01*
X18683Y-24348D01*
X18702Y-24329D01*
X18740Y-24310D01*
X18836Y-24310D01*
X18874Y-24329D01*
X18893Y-24348D01*
X18912Y-24386D01*
X18912Y-24501D01*
X18893Y-24539D01*
X18874Y-24558D01*
X18871Y-23035D02*
X18871Y-23207D01*
X18871Y-23121D02*
X18571Y-23121D01*
X18614Y-23150D01*
X18643Y-23178D01*
X18657Y-23207D01*
X18571Y-22849D02*
X18571Y-22821D01*
X18586Y-22792D01*
X18600Y-22778D01*
X18629Y-22764D01*
X18686Y-22749D01*
X18757Y-22749D01*
X18814Y-22764D01*
X18843Y-22778D01*
X18857Y-22792D01*
X18871Y-22821D01*
X18871Y-22849D01*
X18857Y-22878D01*
X18843Y-22892D01*
X18814Y-22907D01*
X18757Y-22921D01*
X18686Y-22921D01*
X18629Y-22907D01*
X18600Y-22892D01*
X18586Y-22878D01*
X18571Y-22849D01*
X18571Y-22563D02*
X18571Y-22535D01*
X18586Y-22506D01*
X18600Y-22492D01*
X18629Y-22478D01*
X18686Y-22463D01*
X18757Y-22463D01*
X18814Y-22478D01*
X18843Y-22492D01*
X18857Y-22506D01*
X18871Y-22535D01*
X18871Y-22563D01*
X18857Y-22592D01*
X18843Y-22606D01*
X18814Y-22621D01*
X18757Y-22635D01*
X18686Y-22635D01*
X18629Y-22621D01*
X18600Y-22606D01*
X18586Y-22592D01*
X18571Y-22563D01*
X18671Y-22335D02*
X18871Y-22335D01*
X18700Y-22335D02*
X18686Y-22320D01*
X18671Y-22292D01*
X18671Y-22249D01*
X18686Y-22220D01*
X18714Y-22206D01*
X18871Y-22206D01*
X27018Y-10749D02*
X26999Y-10768D01*
X26942Y-10787D01*
X26904Y-10787D01*
X26846Y-10768D01*
X26808Y-10730D01*
X26789Y-10692D01*
X26770Y-10615D01*
X26770Y-10558D01*
X26789Y-10482D01*
X26808Y-10444D01*
X26846Y-10406D01*
X26904Y-10387D01*
X26942Y-10387D01*
X26999Y-10406D01*
X27018Y-10425D01*
X27399Y-10787D02*
X27170Y-10787D01*
X27284Y-10787D02*
X27284Y-10387D01*
X27246Y-10444D01*
X27208Y-10482D01*
X27170Y-10501D01*
X27646Y-10387D02*
X27685Y-10387D01*
X27723Y-10406D01*
X27742Y-10425D01*
X27761Y-10463D01*
X27780Y-10539D01*
X27780Y-10635D01*
X27761Y-10711D01*
X27742Y-10749D01*
X27723Y-10768D01*
X27685Y-10787D01*
X27646Y-10787D01*
X27608Y-10768D01*
X27589Y-10749D01*
X27570Y-10711D01*
X27551Y-10635D01*
X27551Y-10539D01*
X27570Y-10463D01*
X27589Y-10425D01*
X27608Y-10406D01*
X27646Y-10387D01*
X27083Y-11571D02*
X26911Y-11571D01*
X26997Y-11571D02*
X26997Y-11271D01*
X26968Y-11314D01*
X26940Y-11343D01*
X26911Y-11357D01*
X27269Y-11271D02*
X27297Y-11271D01*
X27326Y-11286D01*
X27340Y-11300D01*
X27354Y-11329D01*
X27369Y-11386D01*
X27369Y-11457D01*
X27354Y-11514D01*
X27340Y-11543D01*
X27326Y-11557D01*
X27297Y-11571D01*
X27269Y-11571D01*
X27240Y-11557D01*
X27226Y-11543D01*
X27211Y-11514D01*
X27197Y-11457D01*
X27197Y-11386D01*
X27211Y-11329D01*
X27226Y-11300D01*
X27240Y-11286D01*
X27269Y-11271D01*
X27497Y-11371D02*
X27497Y-11571D01*
X27497Y-11400D02*
X27512Y-11386D01*
X27540Y-11371D01*
X27583Y-11371D01*
X27612Y-11386D01*
X27626Y-11414D01*
X27626Y-11571D01*
X13224Y-15091D02*
X13243Y-15110D01*
X13262Y-15167D01*
X13262Y-15205D01*
X13243Y-15263D01*
X13205Y-15301D01*
X13167Y-15320D01*
X13090Y-15339D01*
X13033Y-15339D01*
X12957Y-15320D01*
X12919Y-15301D01*
X12881Y-15263D01*
X12862Y-15205D01*
X12862Y-15167D01*
X12881Y-15110D01*
X12900Y-15091D01*
X12995Y-14748D02*
X13262Y-14748D01*
X12843Y-14844D02*
X13129Y-14939D01*
X13129Y-14691D01*
X13140Y-14121D02*
X12968Y-14121D01*
X13054Y-14121D02*
X13054Y-13821D01*
X13025Y-13864D01*
X12997Y-13893D01*
X12968Y-13907D01*
X13326Y-13821D02*
X13354Y-13821D01*
X13383Y-13836D01*
X13397Y-13850D01*
X13411Y-13879D01*
X13426Y-13936D01*
X13426Y-14007D01*
X13411Y-14064D01*
X13397Y-14093D01*
X13383Y-14107D01*
X13354Y-14121D01*
X13326Y-14121D01*
X13297Y-14107D01*
X13283Y-14093D01*
X13268Y-14064D01*
X13254Y-14007D01*
X13254Y-13936D01*
X13268Y-13879D01*
X13283Y-13850D01*
X13297Y-13836D01*
X13326Y-13821D01*
X13612Y-13821D02*
X13640Y-13821D01*
X13669Y-13836D01*
X13683Y-13850D01*
X13697Y-13879D01*
X13712Y-13936D01*
X13712Y-14007D01*
X13697Y-14064D01*
X13683Y-14093D01*
X13669Y-14107D01*
X13640Y-14121D01*
X13612Y-14121D01*
X13583Y-14107D01*
X13569Y-14093D01*
X13554Y-14064D01*
X13540Y-14007D01*
X13540Y-13936D01*
X13554Y-13879D01*
X13569Y-13850D01*
X13583Y-13836D01*
X13612Y-13821D01*
X13840Y-13921D02*
X13840Y-14121D01*
X13840Y-13950D02*
X13855Y-13936D01*
X13883Y-13921D01*
X13926Y-13921D01*
X13955Y-13936D01*
X13969Y-13964D01*
X13969Y-14121D01*
X26874Y-24691D02*
X26893Y-24710D01*
X26912Y-24767D01*
X26912Y-24805D01*
X26893Y-24863D01*
X26855Y-24901D01*
X26817Y-24920D01*
X26740Y-24939D01*
X26683Y-24939D01*
X26607Y-24920D01*
X26569Y-24901D01*
X26531Y-24863D01*
X26512Y-24805D01*
X26512Y-24767D01*
X26531Y-24710D01*
X26550Y-24691D01*
X26912Y-24501D02*
X26912Y-24425D01*
X26893Y-24386D01*
X26874Y-24367D01*
X26817Y-24329D01*
X26740Y-24310D01*
X26588Y-24310D01*
X26550Y-24329D01*
X26531Y-24348D01*
X26512Y-24386D01*
X26512Y-24463D01*
X26531Y-24501D01*
X26550Y-24520D01*
X26588Y-24539D01*
X26683Y-24539D01*
X26721Y-24520D01*
X26740Y-24501D01*
X26760Y-24463D01*
X26760Y-24386D01*
X26740Y-24348D01*
X26721Y-24329D01*
X26683Y-24310D01*
X26871Y-22892D02*
X26871Y-23064D01*
X26871Y-22978D02*
X26571Y-22978D01*
X26614Y-23007D01*
X26643Y-23035D01*
X26657Y-23064D01*
X26571Y-22706D02*
X26571Y-22678D01*
X26586Y-22649D01*
X26600Y-22635D01*
X26629Y-22621D01*
X26686Y-22606D01*
X26757Y-22606D01*
X26814Y-22621D01*
X26843Y-22635D01*
X26857Y-22649D01*
X26871Y-22678D01*
X26871Y-22706D01*
X26857Y-22735D01*
X26843Y-22749D01*
X26814Y-22764D01*
X26757Y-22778D01*
X26686Y-22778D01*
X26629Y-22764D01*
X26600Y-22749D01*
X26586Y-22735D01*
X26571Y-22706D01*
X26671Y-22478D02*
X26871Y-22478D01*
X26700Y-22478D02*
X26686Y-22463D01*
X26671Y-22435D01*
X26671Y-22392D01*
X26686Y-22363D01*
X26714Y-22349D01*
X26871Y-22349D01*
X31399Y-23091D02*
X31418Y-23110D01*
X31437Y-23167D01*
X31437Y-23205D01*
X31418Y-23263D01*
X31380Y-23301D01*
X31342Y-23320D01*
X31265Y-23339D01*
X31208Y-23339D01*
X31132Y-23320D01*
X31094Y-23301D01*
X31056Y-23263D01*
X31037Y-23205D01*
X31037Y-23167D01*
X31056Y-23110D01*
X31075Y-23091D01*
X31037Y-22748D02*
X31037Y-22825D01*
X31056Y-22863D01*
X31075Y-22882D01*
X31132Y-22920D01*
X31208Y-22939D01*
X31361Y-22939D01*
X31399Y-22920D01*
X31418Y-22901D01*
X31437Y-22863D01*
X31437Y-22786D01*
X31418Y-22748D01*
X31399Y-22729D01*
X31361Y-22710D01*
X31265Y-22710D01*
X31227Y-22729D01*
X31208Y-22748D01*
X31189Y-22786D01*
X31189Y-22863D01*
X31208Y-22901D01*
X31227Y-22920D01*
X31265Y-22939D01*
X31396Y-21460D02*
X31396Y-21632D01*
X31396Y-21546D02*
X31096Y-21546D01*
X31139Y-21575D01*
X31168Y-21603D01*
X31182Y-21632D01*
X31096Y-21274D02*
X31096Y-21246D01*
X31111Y-21217D01*
X31125Y-21203D01*
X31154Y-21189D01*
X31211Y-21174D01*
X31282Y-21174D01*
X31339Y-21189D01*
X31368Y-21203D01*
X31382Y-21217D01*
X31396Y-21246D01*
X31396Y-21274D01*
X31382Y-21303D01*
X31368Y-21317D01*
X31339Y-21332D01*
X31282Y-21346D01*
X31211Y-21346D01*
X31154Y-21332D01*
X31125Y-21317D01*
X31111Y-21303D01*
X31096Y-21274D01*
X31096Y-20988D02*
X31096Y-20960D01*
X31111Y-20931D01*
X31125Y-20917D01*
X31154Y-20903D01*
X31211Y-20888D01*
X31282Y-20888D01*
X31339Y-20903D01*
X31368Y-20917D01*
X31382Y-20931D01*
X31396Y-20960D01*
X31396Y-20988D01*
X31382Y-21017D01*
X31368Y-21031D01*
X31339Y-21046D01*
X31282Y-21060D01*
X31211Y-21060D01*
X31154Y-21046D01*
X31125Y-21031D01*
X31111Y-21017D01*
X31096Y-20988D01*
X31196Y-20760D02*
X31396Y-20760D01*
X31225Y-20760D02*
X31211Y-20745D01*
X31196Y-20717D01*
X31196Y-20674D01*
X31211Y-20645D01*
X31239Y-20631D01*
X31396Y-20631D01*
X30249Y-23091D02*
X30268Y-23110D01*
X30287Y-23167D01*
X30287Y-23205D01*
X30268Y-23263D01*
X30230Y-23301D01*
X30192Y-23320D01*
X30115Y-23339D01*
X30058Y-23339D01*
X29982Y-23320D01*
X29944Y-23301D01*
X29906Y-23263D01*
X29887Y-23205D01*
X29887Y-23167D01*
X29906Y-23110D01*
X29925Y-23091D01*
X29887Y-22958D02*
X29887Y-22691D01*
X30287Y-22863D01*
X30246Y-21460D02*
X30246Y-21632D01*
X30246Y-21546D02*
X29946Y-21546D01*
X29989Y-21575D01*
X30018Y-21603D01*
X30032Y-21632D01*
X29946Y-21274D02*
X29946Y-21246D01*
X29961Y-21217D01*
X29975Y-21203D01*
X30004Y-21189D01*
X30061Y-21174D01*
X30132Y-21174D01*
X30189Y-21189D01*
X30218Y-21203D01*
X30232Y-21217D01*
X30246Y-21246D01*
X30246Y-21274D01*
X30232Y-21303D01*
X30218Y-21317D01*
X30189Y-21332D01*
X30132Y-21346D01*
X30061Y-21346D01*
X30004Y-21332D01*
X29975Y-21317D01*
X29961Y-21303D01*
X29946Y-21274D01*
X29946Y-20988D02*
X29946Y-20960D01*
X29961Y-20931D01*
X29975Y-20917D01*
X30004Y-20903D01*
X30061Y-20888D01*
X30132Y-20888D01*
X30189Y-20903D01*
X30218Y-20917D01*
X30232Y-20931D01*
X30246Y-20960D01*
X30246Y-20988D01*
X30232Y-21017D01*
X30218Y-21031D01*
X30189Y-21046D01*
X30132Y-21060D01*
X30061Y-21060D01*
X30004Y-21046D01*
X29975Y-21031D01*
X29961Y-21017D01*
X29946Y-20988D01*
X30046Y-20760D02*
X30246Y-20760D01*
X30075Y-20760D02*
X30061Y-20745D01*
X30046Y-20717D01*
X30046Y-20674D01*
X30061Y-20645D01*
X30089Y-20631D01*
X30246Y-20631D01*
X22949Y-24716D02*
X22968Y-24735D01*
X22987Y-24792D01*
X22987Y-24830D01*
X22968Y-24888D01*
X22930Y-24926D01*
X22892Y-24945D01*
X22815Y-24964D01*
X22758Y-24964D01*
X22682Y-24945D01*
X22644Y-24926D01*
X22606Y-24888D01*
X22587Y-24830D01*
X22587Y-24792D01*
X22606Y-24735D01*
X22625Y-24716D01*
X22758Y-24488D02*
X22739Y-24526D01*
X22720Y-24545D01*
X22682Y-24564D01*
X22663Y-24564D01*
X22625Y-24545D01*
X22606Y-24526D01*
X22587Y-24488D01*
X22587Y-24411D01*
X22606Y-24373D01*
X22625Y-24354D01*
X22663Y-24335D01*
X22682Y-24335D01*
X22720Y-24354D01*
X22739Y-24373D01*
X22758Y-24411D01*
X22758Y-24488D01*
X22777Y-24526D01*
X22796Y-24545D01*
X22835Y-24564D01*
X22911Y-24564D01*
X22949Y-24545D01*
X22968Y-24526D01*
X22987Y-24488D01*
X22987Y-24411D01*
X22968Y-24373D01*
X22949Y-24354D01*
X22911Y-24335D01*
X22835Y-24335D01*
X22796Y-24354D01*
X22777Y-24373D01*
X22758Y-24411D01*
X22946Y-22892D02*
X22946Y-23064D01*
X22946Y-22978D02*
X22646Y-22978D01*
X22689Y-23007D01*
X22718Y-23035D01*
X22732Y-23064D01*
X22646Y-22706D02*
X22646Y-22678D01*
X22661Y-22649D01*
X22675Y-22635D01*
X22704Y-22621D01*
X22761Y-22606D01*
X22832Y-22606D01*
X22889Y-22621D01*
X22918Y-22635D01*
X22932Y-22649D01*
X22946Y-22678D01*
X22946Y-22706D01*
X22932Y-22735D01*
X22918Y-22749D01*
X22889Y-22764D01*
X22832Y-22778D01*
X22761Y-22778D01*
X22704Y-22764D01*
X22675Y-22749D01*
X22661Y-22735D01*
X22646Y-22706D01*
X22746Y-22478D02*
X22946Y-22478D01*
X22775Y-22478D02*
X22761Y-22463D01*
X22746Y-22435D01*
X22746Y-22392D01*
X22761Y-22363D01*
X22789Y-22349D01*
X22946Y-22349D01*
X31837Y-25430D02*
X32161Y-25430D01*
X32199Y-25411D01*
X32218Y-25392D01*
X32237Y-25354D01*
X32237Y-25277D01*
X32218Y-25239D01*
X32199Y-25220D01*
X32161Y-25201D01*
X31837Y-25201D01*
X31875Y-25030D02*
X31856Y-25011D01*
X31837Y-24973D01*
X31837Y-24877D01*
X31856Y-24839D01*
X31875Y-24820D01*
X31913Y-24801D01*
X31951Y-24801D01*
X32008Y-24820D01*
X32237Y-25049D01*
X32237Y-24801D01*
X28996Y-25546D02*
X29196Y-25546D01*
X29067Y-25846D01*
X29353Y-25675D02*
X29325Y-25661D01*
X29310Y-25646D01*
X29296Y-25618D01*
X29296Y-25604D01*
X29310Y-25575D01*
X29325Y-25561D01*
X29353Y-25546D01*
X29410Y-25546D01*
X29439Y-25561D01*
X29453Y-25575D01*
X29468Y-25604D01*
X29468Y-25618D01*
X29453Y-25646D01*
X29439Y-25661D01*
X29410Y-25675D01*
X29353Y-25675D01*
X29325Y-25689D01*
X29310Y-25704D01*
X29296Y-25732D01*
X29296Y-25789D01*
X29310Y-25818D01*
X29325Y-25832D01*
X29353Y-25846D01*
X29410Y-25846D01*
X29439Y-25832D01*
X29453Y-25818D01*
X29468Y-25789D01*
X29468Y-25732D01*
X29453Y-25704D01*
X29439Y-25689D01*
X29410Y-25675D01*
X29654Y-25546D02*
X29682Y-25546D01*
X29711Y-25561D01*
X29725Y-25575D01*
X29739Y-25604D01*
X29754Y-25661D01*
X29754Y-25732D01*
X29739Y-25789D01*
X29725Y-25818D01*
X29711Y-25832D01*
X29682Y-25846D01*
X29654Y-25846D01*
X29625Y-25832D01*
X29611Y-25818D01*
X29596Y-25789D01*
X29582Y-25732D01*
X29582Y-25661D01*
X29596Y-25604D01*
X29611Y-25575D01*
X29625Y-25561D01*
X29654Y-25546D01*
X30025Y-25546D02*
X29882Y-25546D01*
X29868Y-25689D01*
X29882Y-25675D01*
X29911Y-25661D01*
X29982Y-25661D01*
X30011Y-25675D01*
X30025Y-25689D01*
X30040Y-25718D01*
X30040Y-25789D01*
X30025Y-25818D01*
X30011Y-25832D01*
X29982Y-25846D01*
X29911Y-25846D01*
X29882Y-25832D01*
X29868Y-25818D01*
G54D16*
X27782Y-24557D02*
X27847Y-24754D01*
X27913Y-24557D01*
X28016Y-24557D02*
X28054Y-24557D01*
X28073Y-24567D01*
X28091Y-24585D01*
X28101Y-24623D01*
X28101Y-24689D01*
X28091Y-24726D01*
X28073Y-24745D01*
X28054Y-24754D01*
X28016Y-24754D01*
X27998Y-24745D01*
X27979Y-24726D01*
X27970Y-24689D01*
X27970Y-24623D01*
X27979Y-24585D01*
X27998Y-24567D01*
X28016Y-24557D01*
X29375Y-25067D02*
X29356Y-25057D01*
X29328Y-25057D01*
X29300Y-25067D01*
X29281Y-25085D01*
X29272Y-25104D01*
X29263Y-25142D01*
X29263Y-25170D01*
X29272Y-25207D01*
X29281Y-25226D01*
X29300Y-25245D01*
X29328Y-25254D01*
X29347Y-25254D01*
X29375Y-25245D01*
X29384Y-25235D01*
X29384Y-25170D01*
X29347Y-25170D01*
X29469Y-25254D02*
X29469Y-25057D01*
X29581Y-25254D01*
X29581Y-25057D01*
X29675Y-25254D02*
X29675Y-25057D01*
X29722Y-25057D01*
X29750Y-25067D01*
X29769Y-25085D01*
X29778Y-25104D01*
X29787Y-25142D01*
X29787Y-25170D01*
X29778Y-25207D01*
X29769Y-25226D01*
X29750Y-25245D01*
X29722Y-25254D01*
X29675Y-25254D01*
X30988Y-24557D02*
X31053Y-24754D01*
X31119Y-24557D01*
X31185Y-24754D02*
X31185Y-24557D01*
G54D10*
X14137Y-21995D02*
X13737Y-21995D01*
X14137Y-21766D02*
X13908Y-21938D01*
X13737Y-21766D02*
X13965Y-21995D01*
X13870Y-21423D02*
X14137Y-21423D01*
X13718Y-21519D02*
X14004Y-21614D01*
X14004Y-21366D01*
X13196Y-22018D02*
X12896Y-22018D01*
X13182Y-21889D02*
X13196Y-21846D01*
X13196Y-21775D01*
X13182Y-21746D01*
X13168Y-21732D01*
X13139Y-21717D01*
X13111Y-21717D01*
X13082Y-21732D01*
X13068Y-21746D01*
X13054Y-21775D01*
X13039Y-21832D01*
X13025Y-21860D01*
X13011Y-21875D01*
X12982Y-21889D01*
X12954Y-21889D01*
X12925Y-21875D01*
X12911Y-21860D01*
X12896Y-21832D01*
X12896Y-21760D01*
X12911Y-21717D01*
X13196Y-21589D02*
X12896Y-21589D01*
X12896Y-21474D01*
X12911Y-21446D01*
X12925Y-21431D01*
X12954Y-21417D01*
X12996Y-21417D01*
X13025Y-21431D01*
X13039Y-21446D01*
X13054Y-21474D01*
X13054Y-21589D01*
X31349Y-16841D02*
X31368Y-16860D01*
X31387Y-16917D01*
X31387Y-16955D01*
X31368Y-17013D01*
X31330Y-17051D01*
X31292Y-17070D01*
X31215Y-17089D01*
X31158Y-17089D01*
X31082Y-17070D01*
X31044Y-17051D01*
X31006Y-17013D01*
X30987Y-16955D01*
X30987Y-16917D01*
X31006Y-16860D01*
X31025Y-16841D01*
X30987Y-16479D02*
X30987Y-16670D01*
X31177Y-16689D01*
X31158Y-16670D01*
X31139Y-16632D01*
X31139Y-16536D01*
X31158Y-16498D01*
X31177Y-16479D01*
X31215Y-16460D01*
X31311Y-16460D01*
X31349Y-16479D01*
X31368Y-16498D01*
X31387Y-16536D01*
X31387Y-16632D01*
X31368Y-16670D01*
X31349Y-16689D01*
X29990Y-17546D02*
X29818Y-17546D01*
X29904Y-17546D02*
X29904Y-17246D01*
X29875Y-17289D01*
X29847Y-17318D01*
X29818Y-17332D01*
X30176Y-17246D02*
X30204Y-17246D01*
X30233Y-17261D01*
X30247Y-17275D01*
X30261Y-17304D01*
X30276Y-17361D01*
X30276Y-17432D01*
X30261Y-17489D01*
X30247Y-17518D01*
X30233Y-17532D01*
X30204Y-17546D01*
X30176Y-17546D01*
X30147Y-17532D01*
X30133Y-17518D01*
X30118Y-17489D01*
X30104Y-17432D01*
X30104Y-17361D01*
X30118Y-17304D01*
X30133Y-17275D01*
X30147Y-17261D01*
X30176Y-17246D01*
X30462Y-17246D02*
X30490Y-17246D01*
X30519Y-17261D01*
X30533Y-17275D01*
X30547Y-17304D01*
X30562Y-17361D01*
X30562Y-17432D01*
X30547Y-17489D01*
X30533Y-17518D01*
X30519Y-17532D01*
X30490Y-17546D01*
X30462Y-17546D01*
X30433Y-17532D01*
X30419Y-17518D01*
X30404Y-17489D01*
X30390Y-17432D01*
X30390Y-17361D01*
X30404Y-17304D01*
X30419Y-17275D01*
X30433Y-17261D01*
X30462Y-17246D01*
X30819Y-17346D02*
X30819Y-17546D01*
X30690Y-17346D02*
X30690Y-17504D01*
X30705Y-17532D01*
X30733Y-17546D01*
X30776Y-17546D01*
X30805Y-17532D01*
X30819Y-17518D01*
X25543Y-11883D02*
X25562Y-11826D01*
X25562Y-11730D01*
X25543Y-11692D01*
X25524Y-11673D01*
X25486Y-11654D01*
X25448Y-11654D01*
X25410Y-11673D01*
X25390Y-11692D01*
X25371Y-11730D01*
X25352Y-11807D01*
X25333Y-11845D01*
X25314Y-11864D01*
X25276Y-11883D01*
X25238Y-11883D01*
X25200Y-11864D01*
X25181Y-11845D01*
X25162Y-11807D01*
X25162Y-11711D01*
X25181Y-11654D01*
X25162Y-11521D02*
X25562Y-11426D01*
X25276Y-11349D01*
X25562Y-11273D01*
X25162Y-11178D01*
X25562Y-10816D02*
X25562Y-11045D01*
X25562Y-10931D02*
X25162Y-10931D01*
X25219Y-10969D01*
X25257Y-11007D01*
X25276Y-11045D01*
X23671Y-11714D02*
X23529Y-11814D01*
X23671Y-11886D02*
X23371Y-11886D01*
X23371Y-11771D01*
X23386Y-11743D01*
X23400Y-11728D01*
X23429Y-11714D01*
X23471Y-11714D01*
X23500Y-11728D01*
X23514Y-11743D01*
X23529Y-11771D01*
X23529Y-11886D01*
X23657Y-11600D02*
X23671Y-11557D01*
X23671Y-11486D01*
X23657Y-11457D01*
X23643Y-11443D01*
X23614Y-11428D01*
X23586Y-11428D01*
X23557Y-11443D01*
X23543Y-11457D01*
X23529Y-11486D01*
X23514Y-11543D01*
X23500Y-11571D01*
X23486Y-11586D01*
X23457Y-11600D01*
X23429Y-11600D01*
X23400Y-11586D01*
X23386Y-11571D01*
X23371Y-11543D01*
X23371Y-11471D01*
X23386Y-11428D01*
X23371Y-11342D02*
X23371Y-11171D01*
X23671Y-11257D02*
X23371Y-11257D01*
X15849Y-16091D02*
X15868Y-16110D01*
X15887Y-16167D01*
X15887Y-16205D01*
X15868Y-16263D01*
X15830Y-16301D01*
X15792Y-16320D01*
X15715Y-16339D01*
X15658Y-16339D01*
X15582Y-16320D01*
X15544Y-16301D01*
X15506Y-16263D01*
X15487Y-16205D01*
X15487Y-16167D01*
X15506Y-16110D01*
X15525Y-16091D01*
X15525Y-15939D02*
X15506Y-15920D01*
X15487Y-15882D01*
X15487Y-15786D01*
X15506Y-15748D01*
X15525Y-15729D01*
X15563Y-15710D01*
X15601Y-15710D01*
X15658Y-15729D01*
X15887Y-15958D01*
X15887Y-15710D01*
X20424Y-15966D02*
X20443Y-15985D01*
X20462Y-16042D01*
X20462Y-16080D01*
X20443Y-16138D01*
X20405Y-16176D01*
X20367Y-16195D01*
X20290Y-16214D01*
X20233Y-16214D01*
X20157Y-16195D01*
X20119Y-16176D01*
X20081Y-16138D01*
X20062Y-16080D01*
X20062Y-16042D01*
X20081Y-15985D01*
X20100Y-15966D01*
X20462Y-15585D02*
X20462Y-15814D01*
X20462Y-15700D02*
X20062Y-15700D01*
X20119Y-15738D01*
X20157Y-15776D01*
X20176Y-15814D01*
X19187Y-11120D02*
X18787Y-11120D01*
X19187Y-10891D02*
X18958Y-11063D01*
X18787Y-10891D02*
X19015Y-11120D01*
X18787Y-10758D02*
X18787Y-10510D01*
X18939Y-10644D01*
X18939Y-10586D01*
X18958Y-10548D01*
X18977Y-10529D01*
X19015Y-10510D01*
X19111Y-10510D01*
X19149Y-10529D01*
X19168Y-10548D01*
X19187Y-10586D01*
X19187Y-10701D01*
X19168Y-10739D01*
X19149Y-10758D01*
X15014Y-11218D02*
X15014Y-11318D01*
X15171Y-11318D02*
X14871Y-11318D01*
X14871Y-11175D01*
X14871Y-11103D02*
X14871Y-10932D01*
X15171Y-11018D02*
X14871Y-11018D01*
X15171Y-10832D02*
X14871Y-10832D01*
X14871Y-10760D01*
X14886Y-10717D01*
X14914Y-10689D01*
X14943Y-10674D01*
X15000Y-10660D01*
X15043Y-10660D01*
X15100Y-10674D01*
X15129Y-10689D01*
X15157Y-10717D01*
X15171Y-10760D01*
X15171Y-10832D01*
X15171Y-10532D02*
X14871Y-10532D01*
X33112Y-11820D02*
X32712Y-11820D01*
X33112Y-11591D02*
X32883Y-11763D01*
X32712Y-11591D02*
X32940Y-11820D01*
X32750Y-11439D02*
X32731Y-11420D01*
X32712Y-11382D01*
X32712Y-11286D01*
X32731Y-11248D01*
X32750Y-11229D01*
X32788Y-11210D01*
X32826Y-11210D01*
X32883Y-11229D01*
X33112Y-11458D01*
X33112Y-11210D01*
X32546Y-15343D02*
X32546Y-15486D01*
X32246Y-15486D01*
X32246Y-15185D02*
X32246Y-15128D01*
X32261Y-15100D01*
X32289Y-15071D01*
X32346Y-15057D01*
X32446Y-15057D01*
X32504Y-15071D01*
X32532Y-15100D01*
X32546Y-15128D01*
X32546Y-15185D01*
X32532Y-15214D01*
X32504Y-15243D01*
X32446Y-15257D01*
X32346Y-15257D01*
X32289Y-15243D01*
X32261Y-15214D01*
X32246Y-15185D01*
X32461Y-14943D02*
X32461Y-14800D01*
X32546Y-14971D02*
X32246Y-14871D01*
X32546Y-14771D01*
X32546Y-14672D02*
X32246Y-14672D01*
X32246Y-14600D01*
X32261Y-14557D01*
X32289Y-14529D01*
X32318Y-14514D01*
X32375Y-14500D01*
X32418Y-14500D01*
X32475Y-14514D01*
X32504Y-14529D01*
X32532Y-14557D01*
X32546Y-14600D01*
X32546Y-14672D01*
X33187Y-24720D02*
X32787Y-24720D01*
X33187Y-24491D02*
X32958Y-24663D01*
X32787Y-24491D02*
X33015Y-24720D01*
X33187Y-24110D02*
X33187Y-24339D01*
X33187Y-24225D02*
X32787Y-24225D01*
X32844Y-24263D01*
X32882Y-24301D01*
X32901Y-24339D01*
X32389Y-21822D02*
X32404Y-21779D01*
X32418Y-21764D01*
X32446Y-21750D01*
X32489Y-21750D01*
X32518Y-21764D01*
X32532Y-21779D01*
X32546Y-21807D01*
X32546Y-21922D01*
X32246Y-21922D01*
X32246Y-21822D01*
X32261Y-21793D01*
X32275Y-21779D01*
X32304Y-21764D01*
X32332Y-21764D01*
X32361Y-21779D01*
X32375Y-21793D01*
X32389Y-21822D01*
X32389Y-21922D01*
X32461Y-21636D02*
X32461Y-21493D01*
X32546Y-21664D02*
X32246Y-21564D01*
X32546Y-21464D01*
X32246Y-21407D02*
X32246Y-21236D01*
X32546Y-21322D02*
X32246Y-21322D01*
X32575Y-21207D02*
X32575Y-20978D01*
X32546Y-20907D02*
X32246Y-20907D01*
X32461Y-20807D01*
X32246Y-20707D01*
X32546Y-20707D01*
X32246Y-20506D02*
X32246Y-20449D01*
X32261Y-20421D01*
X32289Y-20392D01*
X32346Y-20378D01*
X32446Y-20378D01*
X32504Y-20392D01*
X32532Y-20421D01*
X32546Y-20449D01*
X32546Y-20506D01*
X32532Y-20535D01*
X32504Y-20564D01*
X32446Y-20578D01*
X32346Y-20578D01*
X32289Y-20564D01*
X32261Y-20535D01*
X32246Y-20506D01*
X32546Y-20250D02*
X32246Y-20250D01*
X32546Y-20078D01*
X32246Y-20078D01*
X21912Y-25820D02*
X21512Y-25820D01*
X21512Y-25725D01*
X21531Y-25667D01*
X21569Y-25629D01*
X21607Y-25610D01*
X21683Y-25591D01*
X21740Y-25591D01*
X21817Y-25610D01*
X21855Y-25629D01*
X21893Y-25667D01*
X21912Y-25725D01*
X21912Y-25820D01*
X21912Y-25210D02*
X21912Y-25439D01*
X21912Y-25325D02*
X21512Y-25325D01*
X21569Y-25363D01*
X21607Y-25401D01*
X21626Y-25439D01*
X25862Y-25845D02*
X25462Y-25845D01*
X25462Y-25750D01*
X25481Y-25692D01*
X25519Y-25654D01*
X25557Y-25635D01*
X25633Y-25616D01*
X25690Y-25616D01*
X25767Y-25635D01*
X25805Y-25654D01*
X25843Y-25692D01*
X25862Y-25750D01*
X25862Y-25845D01*
X25500Y-25464D02*
X25481Y-25445D01*
X25462Y-25407D01*
X25462Y-25311D01*
X25481Y-25273D01*
X25500Y-25254D01*
X25538Y-25235D01*
X25576Y-25235D01*
X25633Y-25254D01*
X25862Y-25483D01*
X25862Y-25235D01*
X48212Y-11995D02*
X47812Y-11995D01*
X47812Y-11842D01*
X47831Y-11804D01*
X47850Y-11785D01*
X47888Y-11766D01*
X47945Y-11766D01*
X47983Y-11785D01*
X48002Y-11804D01*
X48021Y-11842D01*
X48021Y-11995D01*
X47812Y-11404D02*
X47812Y-11595D01*
X48002Y-11614D01*
X47983Y-11595D01*
X47964Y-11557D01*
X47964Y-11461D01*
X47983Y-11423D01*
X48002Y-11404D01*
X48040Y-11385D01*
X48136Y-11385D01*
X48174Y-11404D01*
X48193Y-11423D01*
X48212Y-11461D01*
X48212Y-11557D01*
X48193Y-11595D01*
X48174Y-11614D01*
X17812Y-25616D02*
X17621Y-25750D01*
X17812Y-25845D02*
X17412Y-25845D01*
X17412Y-25692D01*
X17431Y-25654D01*
X17450Y-25635D01*
X17488Y-25616D01*
X17545Y-25616D01*
X17583Y-25635D01*
X17602Y-25654D01*
X17621Y-25692D01*
X17621Y-25845D01*
X17583Y-25388D02*
X17564Y-25426D01*
X17545Y-25445D01*
X17507Y-25464D01*
X17488Y-25464D01*
X17450Y-25445D01*
X17431Y-25426D01*
X17412Y-25388D01*
X17412Y-25311D01*
X17431Y-25273D01*
X17450Y-25254D01*
X17488Y-25235D01*
X17507Y-25235D01*
X17545Y-25254D01*
X17564Y-25273D01*
X17583Y-25311D01*
X17583Y-25388D01*
X17602Y-25426D01*
X17621Y-25445D01*
X17660Y-25464D01*
X17736Y-25464D01*
X17774Y-25445D01*
X17793Y-25426D01*
X17812Y-25388D01*
X17812Y-25311D01*
X17793Y-25273D01*
X17774Y-25254D01*
X17736Y-25235D01*
X17660Y-25235D01*
X17621Y-25254D01*
X17602Y-25273D01*
X17583Y-25311D01*
X17821Y-23235D02*
X17821Y-23407D01*
X17821Y-23321D02*
X17521Y-23321D01*
X17564Y-23350D01*
X17593Y-23378D01*
X17607Y-23407D01*
X17821Y-23107D02*
X17521Y-23107D01*
X17707Y-23078D02*
X17821Y-22992D01*
X17621Y-22992D02*
X17736Y-23107D01*
X24359Y-15587D02*
X24225Y-15396D01*
X24130Y-15587D02*
X24130Y-15187D01*
X24283Y-15187D01*
X24321Y-15206D01*
X24340Y-15225D01*
X24359Y-15263D01*
X24359Y-15320D01*
X24340Y-15358D01*
X24321Y-15377D01*
X24283Y-15396D01*
X24130Y-15396D01*
X24492Y-15187D02*
X24759Y-15187D01*
X24587Y-15587D01*
X23918Y-15900D02*
X23932Y-15886D01*
X23961Y-15871D01*
X24032Y-15871D01*
X24061Y-15886D01*
X24075Y-15900D01*
X24090Y-15929D01*
X24090Y-15957D01*
X24075Y-16000D01*
X23904Y-16171D01*
X24090Y-16171D01*
X24190Y-15871D02*
X24390Y-15871D01*
X24261Y-16171D01*
X24562Y-15871D02*
X24590Y-15871D01*
X24619Y-15886D01*
X24633Y-15900D01*
X24647Y-15929D01*
X24662Y-15986D01*
X24662Y-16057D01*
X24647Y-16114D01*
X24633Y-16143D01*
X24619Y-16157D01*
X24590Y-16171D01*
X24562Y-16171D01*
X24533Y-16157D01*
X24519Y-16143D01*
X24504Y-16114D01*
X24490Y-16057D01*
X24490Y-15986D01*
X24504Y-15929D01*
X24519Y-15900D01*
X24533Y-15886D01*
X24562Y-15871D01*
X24790Y-16014D02*
X24890Y-16014D01*
X24933Y-16171D02*
X24790Y-16171D01*
X24790Y-15871D01*
X24933Y-15871D01*
X20837Y-13016D02*
X20646Y-13150D01*
X20837Y-13245D02*
X20437Y-13245D01*
X20437Y-13092D01*
X20456Y-13054D01*
X20475Y-13035D01*
X20513Y-13016D01*
X20570Y-13016D01*
X20608Y-13035D01*
X20627Y-13054D01*
X20646Y-13092D01*
X20646Y-13245D01*
X20437Y-12673D02*
X20437Y-12750D01*
X20456Y-12788D01*
X20475Y-12807D01*
X20532Y-12845D01*
X20608Y-12864D01*
X20761Y-12864D01*
X20799Y-12845D01*
X20818Y-12826D01*
X20837Y-12788D01*
X20837Y-12711D01*
X20818Y-12673D01*
X20799Y-12654D01*
X20761Y-12635D01*
X20665Y-12635D01*
X20627Y-12654D01*
X20608Y-12673D01*
X20589Y-12711D01*
X20589Y-12788D01*
X20608Y-12826D01*
X20627Y-12845D01*
X20665Y-12864D01*
X21446Y-14535D02*
X21446Y-14707D01*
X21446Y-14621D02*
X21146Y-14621D01*
X21189Y-14650D01*
X21218Y-14678D01*
X21232Y-14707D01*
X21446Y-14407D02*
X21146Y-14407D01*
X21332Y-14378D02*
X21446Y-14292D01*
X21246Y-14292D02*
X21361Y-14407D01*
X22912Y-13016D02*
X22721Y-13150D01*
X22912Y-13245D02*
X22512Y-13245D01*
X22512Y-13092D01*
X22531Y-13054D01*
X22550Y-13035D01*
X22588Y-13016D01*
X22645Y-13016D01*
X22683Y-13035D01*
X22702Y-13054D01*
X22721Y-13092D01*
X22721Y-13245D01*
X22512Y-12654D02*
X22512Y-12845D01*
X22702Y-12864D01*
X22683Y-12845D01*
X22664Y-12807D01*
X22664Y-12711D01*
X22683Y-12673D01*
X22702Y-12654D01*
X22740Y-12635D01*
X22836Y-12635D01*
X22874Y-12654D01*
X22893Y-12673D01*
X22912Y-12711D01*
X22912Y-12807D01*
X22893Y-12845D01*
X22874Y-12864D01*
X22271Y-14678D02*
X22271Y-14850D01*
X22271Y-14764D02*
X21971Y-14764D01*
X22014Y-14793D01*
X22043Y-14821D01*
X22057Y-14850D01*
X21971Y-14492D02*
X21971Y-14464D01*
X21986Y-14435D01*
X22000Y-14421D01*
X22029Y-14407D01*
X22086Y-14392D01*
X22157Y-14392D01*
X22214Y-14407D01*
X22243Y-14421D01*
X22257Y-14435D01*
X22271Y-14464D01*
X22271Y-14492D01*
X22257Y-14521D01*
X22243Y-14535D01*
X22214Y-14550D01*
X22157Y-14564D01*
X22086Y-14564D01*
X22029Y-14550D01*
X22000Y-14535D01*
X21986Y-14521D01*
X21971Y-14492D01*
X22271Y-14264D02*
X21971Y-14264D01*
X22157Y-14235D02*
X22271Y-14149D01*
X22071Y-14149D02*
X22186Y-14264D01*
X24912Y-25591D02*
X24721Y-25725D01*
X24912Y-25820D02*
X24512Y-25820D01*
X24512Y-25667D01*
X24531Y-25629D01*
X24550Y-25610D01*
X24588Y-25591D01*
X24645Y-25591D01*
X24683Y-25610D01*
X24702Y-25629D01*
X24721Y-25667D01*
X24721Y-25820D01*
X24645Y-25248D02*
X24912Y-25248D01*
X24493Y-25344D02*
X24779Y-25439D01*
X24779Y-25191D01*
X24721Y-23407D02*
X24921Y-23407D01*
X24607Y-23478D02*
X24821Y-23550D01*
X24821Y-23364D01*
X24621Y-23192D02*
X24621Y-23164D01*
X24636Y-23135D01*
X24650Y-23121D01*
X24679Y-23107D01*
X24736Y-23092D01*
X24807Y-23092D01*
X24864Y-23107D01*
X24893Y-23121D01*
X24907Y-23135D01*
X24921Y-23164D01*
X24921Y-23192D01*
X24907Y-23221D01*
X24893Y-23235D01*
X24864Y-23250D01*
X24807Y-23264D01*
X24736Y-23264D01*
X24679Y-23250D01*
X24650Y-23235D01*
X24636Y-23221D01*
X24621Y-23192D01*
X24921Y-22964D02*
X24621Y-22964D01*
X24807Y-22935D02*
X24921Y-22849D01*
X24721Y-22849D02*
X24836Y-22964D01*
X24012Y-25566D02*
X23821Y-25700D01*
X24012Y-25795D02*
X23612Y-25795D01*
X23612Y-25642D01*
X23631Y-25604D01*
X23650Y-25585D01*
X23688Y-25566D01*
X23745Y-25566D01*
X23783Y-25585D01*
X23802Y-25604D01*
X23821Y-25642D01*
X23821Y-25795D01*
X23612Y-25433D02*
X23612Y-25185D01*
X23764Y-25319D01*
X23764Y-25261D01*
X23783Y-25223D01*
X23802Y-25204D01*
X23840Y-25185D01*
X23936Y-25185D01*
X23974Y-25204D01*
X23993Y-25223D01*
X24012Y-25261D01*
X24012Y-25376D01*
X23993Y-25414D01*
X23974Y-25433D01*
X24021Y-23521D02*
X24021Y-23693D01*
X24021Y-23607D02*
X23721Y-23607D01*
X23764Y-23636D01*
X23793Y-23664D01*
X23807Y-23693D01*
X24021Y-23235D02*
X24021Y-23407D01*
X24021Y-23321D02*
X23721Y-23321D01*
X23764Y-23350D01*
X23793Y-23378D01*
X23807Y-23407D01*
X23721Y-23049D02*
X23721Y-23021D01*
X23736Y-22992D01*
X23750Y-22978D01*
X23779Y-22964D01*
X23836Y-22949D01*
X23907Y-22949D01*
X23964Y-22964D01*
X23993Y-22978D01*
X24007Y-22992D01*
X24021Y-23021D01*
X24021Y-23049D01*
X24007Y-23078D01*
X23993Y-23092D01*
X23964Y-23107D01*
X23907Y-23121D01*
X23836Y-23121D01*
X23779Y-23107D01*
X23750Y-23092D01*
X23736Y-23078D01*
X23721Y-23049D01*
X24021Y-22821D02*
X23721Y-22821D01*
X23907Y-22792D02*
X24021Y-22706D01*
X23821Y-22706D02*
X23936Y-22821D01*
X20937Y-25566D02*
X20746Y-25700D01*
X20937Y-25795D02*
X20537Y-25795D01*
X20537Y-25642D01*
X20556Y-25604D01*
X20575Y-25585D01*
X20613Y-25566D01*
X20670Y-25566D01*
X20708Y-25585D01*
X20727Y-25604D01*
X20746Y-25642D01*
X20746Y-25795D01*
X20575Y-25414D02*
X20556Y-25395D01*
X20537Y-25357D01*
X20537Y-25261D01*
X20556Y-25223D01*
X20575Y-25204D01*
X20613Y-25185D01*
X20651Y-25185D01*
X20708Y-25204D01*
X20937Y-25433D01*
X20937Y-25185D01*
X20746Y-23407D02*
X20946Y-23407D01*
X20632Y-23478D02*
X20846Y-23550D01*
X20846Y-23364D01*
X20646Y-23192D02*
X20646Y-23164D01*
X20661Y-23135D01*
X20675Y-23121D01*
X20704Y-23107D01*
X20761Y-23092D01*
X20832Y-23092D01*
X20889Y-23107D01*
X20918Y-23121D01*
X20932Y-23135D01*
X20946Y-23164D01*
X20946Y-23192D01*
X20932Y-23221D01*
X20918Y-23235D01*
X20889Y-23250D01*
X20832Y-23264D01*
X20761Y-23264D01*
X20704Y-23250D01*
X20675Y-23235D01*
X20661Y-23221D01*
X20646Y-23192D01*
X20946Y-22964D02*
X20646Y-22964D01*
X20832Y-22935D02*
X20946Y-22849D01*
X20746Y-22849D02*
X20861Y-22964D01*
X20012Y-25541D02*
X19821Y-25675D01*
X20012Y-25770D02*
X19612Y-25770D01*
X19612Y-25617D01*
X19631Y-25579D01*
X19650Y-25560D01*
X19688Y-25541D01*
X19745Y-25541D01*
X19783Y-25560D01*
X19802Y-25579D01*
X19821Y-25617D01*
X19821Y-25770D01*
X20012Y-25160D02*
X20012Y-25389D01*
X20012Y-25275D02*
X19612Y-25275D01*
X19669Y-25313D01*
X19707Y-25351D01*
X19726Y-25389D01*
X20021Y-23521D02*
X20021Y-23693D01*
X20021Y-23607D02*
X19721Y-23607D01*
X19764Y-23636D01*
X19793Y-23664D01*
X19807Y-23693D01*
X20021Y-23235D02*
X20021Y-23407D01*
X20021Y-23321D02*
X19721Y-23321D01*
X19764Y-23350D01*
X19793Y-23378D01*
X19807Y-23407D01*
X19721Y-23049D02*
X19721Y-23021D01*
X19736Y-22992D01*
X19750Y-22978D01*
X19779Y-22964D01*
X19836Y-22949D01*
X19907Y-22949D01*
X19964Y-22964D01*
X19993Y-22978D01*
X20007Y-22992D01*
X20021Y-23021D01*
X20021Y-23049D01*
X20007Y-23078D01*
X19993Y-23092D01*
X19964Y-23107D01*
X19907Y-23121D01*
X19836Y-23121D01*
X19779Y-23107D01*
X19750Y-23092D01*
X19736Y-23078D01*
X19721Y-23049D01*
X20021Y-22821D02*
X19721Y-22821D01*
X19907Y-22792D02*
X20021Y-22706D01*
X19821Y-22706D02*
X19936Y-22821D01*
X26987Y-17630D02*
X27311Y-17630D01*
X27349Y-17611D01*
X27368Y-17592D01*
X27387Y-17554D01*
X27387Y-17477D01*
X27368Y-17439D01*
X27349Y-17420D01*
X27311Y-17401D01*
X26987Y-17401D01*
X26987Y-17249D02*
X26987Y-17001D01*
X27139Y-17135D01*
X27139Y-17077D01*
X27158Y-17039D01*
X27177Y-17020D01*
X27215Y-17001D01*
X27311Y-17001D01*
X27349Y-17020D01*
X27368Y-17039D01*
X27387Y-17077D01*
X27387Y-17192D01*
X27368Y-17230D01*
X27349Y-17249D01*
X23664Y-18286D02*
X23807Y-18286D01*
X23636Y-18371D02*
X23736Y-18071D01*
X23836Y-18371D01*
X23893Y-18071D02*
X24064Y-18071D01*
X23978Y-18371D02*
X23978Y-18071D01*
X24164Y-18371D02*
X24164Y-18071D01*
X24264Y-18286D01*
X24364Y-18071D01*
X24364Y-18371D01*
X24507Y-18214D02*
X24607Y-18214D01*
X24650Y-18371D02*
X24507Y-18371D01*
X24507Y-18071D01*
X24650Y-18071D01*
X24936Y-18086D02*
X24907Y-18071D01*
X24864Y-18071D01*
X24821Y-18086D01*
X24793Y-18114D01*
X24778Y-18143D01*
X24764Y-18200D01*
X24764Y-18243D01*
X24778Y-18300D01*
X24793Y-18329D01*
X24821Y-18357D01*
X24864Y-18371D01*
X24893Y-18371D01*
X24936Y-18357D01*
X24950Y-18343D01*
X24950Y-18243D01*
X24893Y-18243D01*
X25064Y-18286D02*
X25207Y-18286D01*
X25036Y-18371D02*
X25136Y-18071D01*
X25236Y-18371D01*
X25307Y-18071D02*
X25493Y-18071D01*
X25393Y-18186D01*
X25435Y-18186D01*
X25464Y-18200D01*
X25478Y-18214D01*
X25493Y-18243D01*
X25493Y-18314D01*
X25478Y-18343D01*
X25464Y-18357D01*
X25435Y-18371D01*
X25350Y-18371D01*
X25321Y-18357D01*
X25307Y-18343D01*
X25607Y-18100D02*
X25621Y-18086D01*
X25650Y-18071D01*
X25721Y-18071D01*
X25750Y-18086D01*
X25764Y-18100D01*
X25779Y-18129D01*
X25779Y-18157D01*
X25764Y-18200D01*
X25593Y-18371D01*
X25779Y-18371D01*
X25950Y-18200D02*
X25922Y-18186D01*
X25907Y-18171D01*
X25893Y-18143D01*
X25893Y-18129D01*
X25907Y-18100D01*
X25922Y-18086D01*
X25950Y-18071D01*
X26007Y-18071D01*
X26036Y-18086D01*
X26050Y-18100D01*
X26065Y-18129D01*
X26065Y-18143D01*
X26050Y-18171D01*
X26036Y-18186D01*
X26007Y-18200D01*
X25950Y-18200D01*
X25922Y-18214D01*
X25907Y-18229D01*
X25893Y-18257D01*
X25893Y-18314D01*
X25907Y-18343D01*
X25922Y-18357D01*
X25950Y-18371D01*
X26007Y-18371D01*
X26036Y-18357D01*
X26050Y-18343D01*
X26065Y-18314D01*
X26065Y-18257D01*
X26050Y-18229D01*
X26036Y-18214D01*
X26007Y-18200D01*
X26193Y-18257D02*
X26422Y-18257D01*
X26564Y-18371D02*
X26564Y-18071D01*
X26679Y-18071D01*
X26707Y-18086D01*
X26722Y-18100D01*
X26736Y-18129D01*
X26736Y-18171D01*
X26722Y-18200D01*
X26707Y-18214D01*
X26679Y-18229D01*
X26564Y-18229D01*
%LPC*%
G54D17*
X13450Y-12625D03*
G54D18*
X13450Y-11625D03*
X13450Y-10625D03*
X12450Y-10625D03*
X12450Y-11625D03*
X12450Y-12625D03*
G54D17*
X29525Y-11700D03*
G54D18*
X30525Y-11700D03*
X31525Y-11700D03*
X31525Y-10700D03*
X30525Y-10700D03*
X29525Y-10700D03*
G54D19*
X35000Y-11000D03*
X46275Y-09275D03*
X46275Y-27125D03*
X35000Y-25000D03*
G54D18*
X47925Y-15700D03*
X47925Y-16700D03*
X47925Y-17700D03*
X47925Y-18700D03*
X47925Y-19700D03*
X47925Y-20700D03*
X53925Y-20700D03*
X53925Y-19700D03*
X53925Y-18700D03*
X53925Y-17700D03*
X53925Y-16700D03*
X53925Y-15700D03*
G54D20*
X49150Y-24000D03*
G54D21*
X49150Y-23000D03*
X49150Y-22000D03*
X49150Y-21000D03*
X49150Y-20000D03*
X49150Y-19000D03*
X49150Y-18000D03*
X49150Y-17000D03*
X52150Y-17000D03*
X52150Y-18000D03*
X52150Y-19000D03*
X52150Y-20000D03*
X52150Y-21000D03*
X52150Y-22000D03*
X52150Y-23000D03*
X52150Y-24000D03*
G54D22*
X19000Y-15000D03*
X17000Y-15000D03*
G54D23*
X18000Y-15000D03*
G54D22*
X21750Y-11275D03*
G54D23*
X20750Y-11275D03*
G54D22*
X16150Y-24700D03*
G54D23*
X16150Y-23700D03*
G54D17*
X11100Y-24700D03*
G54D18*
X11100Y-23700D03*
X11100Y-22700D03*
X11100Y-21700D03*
X11100Y-20700D03*
X11100Y-19700D03*
X11100Y-18700D03*
G54D17*
X46175Y-24700D03*
G54D18*
X46175Y-23700D03*
X46175Y-22700D03*
X46175Y-21700D03*
X46175Y-20700D03*
X46175Y-19700D03*
X46175Y-18700D03*
G54D17*
X46175Y-11700D03*
G54D18*
X46175Y-12700D03*
X46175Y-13700D03*
X46175Y-14700D03*
X46175Y-15700D03*
X46175Y-16700D03*
X46175Y-17700D03*
G54D17*
X11100Y-11700D03*
G54D18*
X11100Y-12700D03*
X11100Y-13700D03*
X11100Y-14700D03*
X11100Y-15700D03*
X11100Y-16700D03*
X11100Y-17700D03*
G54D24*
X27025Y-13000D03*
X27025Y-14000D03*
G54D25*
X27025Y-15000D03*
G54D24*
X27025Y-16000D03*
X30025Y-16000D03*
X30025Y-15000D03*
X30025Y-14000D03*
X30025Y-13000D03*
G54D17*
X28275Y-22125D03*
G54D18*
X28275Y-21125D03*
X28275Y-20125D03*
X28275Y-19125D03*
G54D22*
X18750Y-21700D03*
X18750Y-23700D03*
X28275Y-11450D03*
X26275Y-11450D03*
X14475Y-14000D03*
X12475Y-14000D03*
X26750Y-21700D03*
X26750Y-23700D03*
X31275Y-20125D03*
X31275Y-22125D03*
X30125Y-22125D03*
X30125Y-20125D03*
X22825Y-21700D03*
X22825Y-23700D03*
G54D26*
X29525Y-24175D03*
X30525Y-24175D03*
X28525Y-24175D03*
G54D27*
X13450Y-22700D03*
G54D28*
X14450Y-22700D03*
X13450Y-23700D03*
X14450Y-23700D03*
X13450Y-24700D03*
X14450Y-24700D03*
G54D23*
X30825Y-18000D03*
G54D22*
X29825Y-18000D03*
G54D18*
X25275Y-13000D03*
X23525Y-13000D03*
G54D29*
X25775Y-14000D03*
X23025Y-14000D03*
G54D18*
X23900Y-14500D03*
X24900Y-14500D03*
G54D22*
X15750Y-15000D03*
X15750Y-14000D03*
X20300Y-15000D03*
X20300Y-14000D03*
G54D17*
X19500Y-12450D03*
G54D18*
X18500Y-12450D03*
X17500Y-12450D03*
X16500Y-12450D03*
X15500Y-12450D03*
X14500Y-12450D03*
G54D30*
X33650Y-13000D03*
G54D31*
X33650Y-15000D03*
X33650Y-17000D03*
G54D30*
X33650Y-19000D03*
G54D31*
X33650Y-21000D03*
X33650Y-23000D03*
G54D17*
X21750Y-21700D03*
G54D18*
X21750Y-24700D03*
G54D17*
X25650Y-21700D03*
G54D18*
X25650Y-24700D03*
G54D29*
X47225Y-11700D03*
G54D22*
X17650Y-24700D03*
X17650Y-21700D03*
X25925Y-16000D03*
X22925Y-16000D03*
X21275Y-13000D03*
X21275Y-16000D03*
X22100Y-16000D03*
X22100Y-13000D03*
X24750Y-21700D03*
X24750Y-24700D03*
X23850Y-21700D03*
X23850Y-24700D03*
X20775Y-21700D03*
X20775Y-24700D03*
X19850Y-21700D03*
X19850Y-24700D03*
G54D32*
X26500Y-17300D03*
G54D33*
X25500Y-17300D03*
X24500Y-17300D03*
X23500Y-17300D03*
X22500Y-17300D03*
X21500Y-17300D03*
X20500Y-17300D03*
X19500Y-17300D03*
X18500Y-17300D03*
X17500Y-17300D03*
X16500Y-17300D03*
X15500Y-17300D03*
X14500Y-17300D03*
X13500Y-17300D03*
X13500Y-20300D03*
X14500Y-20300D03*
X15500Y-20300D03*
X16500Y-20300D03*
X17500Y-20300D03*
X18500Y-20300D03*
X19500Y-20300D03*
X20500Y-20300D03*
X21500Y-20300D03*
X22500Y-20300D03*
X23500Y-20300D03*
X24500Y-20300D03*
X25500Y-20300D03*
X26500Y-20300D03*
M02*
