M48
;DRILL file {PCBnew (2010-05-05 BZR 2356)-stable} date 12/23/10 15:55:23
;FORMAT={-.-/ absolute / inch / decimal}
R,T
VER,1
FMAT,2
INCH,TZ
TCST,OFF
ICI,OFF
ATC,ON
T1C0.020
T2C0.032
T3C0.040
T4C0.080
T5C0.125
%
M47
G05
M72
T1
X1.050Y-1.250
X1.150Y-1.475
X1.275Y-1.125
X1.325Y-2.100
X1.550Y-2.100
X1.600Y-1.600
X1.650Y-1.075
T2
X1.090Y-1.410
X1.160Y-1.340
X1.240Y-1.260
X1.310Y-1.190
X1.865Y-1.140
X1.935Y-1.210
X2.075Y-1.750
X2.075Y-1.950
T3
X2.050Y-1.300
X2.150Y-1.300
T4
X1.185Y-1.600
X2.015Y-1.600
T5
X1.100Y-1.100
X1.100Y-2.100
X2.100Y-1.100
X2.100Y-2.100
T0
M30
