G04 (created by PCBNEW-RS274X (2012-01-19 BZR 3256)-stable) date 2/21/2013 2:40:08 PM*
G01*
G70*
G90*
%MOIN*%
G04 Gerber Fmt 3.4, Leading zero omitted, Abs format*
%FSLAX34Y34*%
G04 APERTURE LIST*
%ADD10C,0.006000*%
%ADD11C,0.015000*%
%ADD12C,0.005000*%
%ADD13C,0.010000*%
%ADD14C,0.004000*%
%ADD15R,0.080000X0.080000*%
%ADD16C,0.080000*%
%ADD17C,0.260000*%
%ADD18R,0.140000X0.140000*%
%ADD19R,0.040000X0.065000*%
%ADD20C,0.090000*%
%ADD21R,0.090000X0.090000*%
%ADD22R,0.076000X0.062000*%
G04 APERTURE END LIST*
G54D10*
X103074Y-12346D02*
X103017Y-12346D01*
X102989Y-12361D01*
X102960Y-12389D01*
X102946Y-12446D01*
X102946Y-12546D01*
X102960Y-12604D01*
X102989Y-12632D01*
X103017Y-12646D01*
X103074Y-12646D01*
X103103Y-12632D01*
X103132Y-12604D01*
X103146Y-12546D01*
X103146Y-12446D01*
X103132Y-12389D01*
X103103Y-12361D01*
X103074Y-12346D01*
X102689Y-12446D02*
X102689Y-12646D01*
X102818Y-12446D02*
X102818Y-12604D01*
X102803Y-12632D01*
X102775Y-12646D01*
X102732Y-12646D01*
X102703Y-12632D01*
X102689Y-12618D01*
X102589Y-12446D02*
X102475Y-12446D01*
X102547Y-12346D02*
X102547Y-12604D01*
X102532Y-12632D01*
X102504Y-12646D01*
X102475Y-12646D01*
X102475Y-13346D02*
X102675Y-13646D01*
X102675Y-13346D02*
X102475Y-13646D01*
X103103Y-14361D02*
X103132Y-14346D01*
X103175Y-14346D01*
X103218Y-14361D01*
X103246Y-14389D01*
X103261Y-14418D01*
X103275Y-14475D01*
X103275Y-14518D01*
X103261Y-14575D01*
X103246Y-14604D01*
X103218Y-14632D01*
X103175Y-14646D01*
X103146Y-14646D01*
X103103Y-14632D01*
X103089Y-14618D01*
X103089Y-14518D01*
X103146Y-14518D01*
X102961Y-14646D02*
X102961Y-14346D01*
X102789Y-14646D01*
X102789Y-14346D01*
X102647Y-14646D02*
X102647Y-14346D01*
X102575Y-14346D01*
X102532Y-14361D01*
X102504Y-14389D01*
X102489Y-14418D01*
X102475Y-14475D01*
X102475Y-14518D01*
X102489Y-14575D01*
X102504Y-14604D01*
X102532Y-14632D01*
X102575Y-14646D01*
X102647Y-14646D01*
X90026Y-11953D02*
X90026Y-11834D01*
X90145Y-11822D01*
X90133Y-11834D01*
X90121Y-11857D01*
X90121Y-11917D01*
X90133Y-11941D01*
X90145Y-11953D01*
X90169Y-11964D01*
X90229Y-11964D01*
X90252Y-11953D01*
X90264Y-11941D01*
X90276Y-11917D01*
X90276Y-11857D01*
X90264Y-11834D01*
X90252Y-11822D01*
X90026Y-12036D02*
X90276Y-12119D01*
X90026Y-12202D01*
X88589Y-13028D02*
X88601Y-13063D01*
X88601Y-13123D01*
X88589Y-13147D01*
X88577Y-13159D01*
X88554Y-13170D01*
X88530Y-13170D01*
X88506Y-13159D01*
X88494Y-13147D01*
X88482Y-13123D01*
X88470Y-13075D01*
X88458Y-13051D01*
X88446Y-13040D01*
X88423Y-13028D01*
X88399Y-13028D01*
X88375Y-13040D01*
X88363Y-13051D01*
X88351Y-13075D01*
X88351Y-13135D01*
X88363Y-13170D01*
X88577Y-13420D02*
X88589Y-13408D01*
X88601Y-13373D01*
X88601Y-13349D01*
X88589Y-13313D01*
X88565Y-13289D01*
X88542Y-13278D01*
X88494Y-13266D01*
X88458Y-13266D01*
X88411Y-13278D01*
X88387Y-13289D01*
X88363Y-13313D01*
X88351Y-13349D01*
X88351Y-13373D01*
X88363Y-13408D01*
X88375Y-13420D01*
X88601Y-13647D02*
X88601Y-13528D01*
X88351Y-13528D01*
X87589Y-12997D02*
X87601Y-13032D01*
X87601Y-13092D01*
X87589Y-13116D01*
X87577Y-13128D01*
X87554Y-13139D01*
X87530Y-13139D01*
X87506Y-13128D01*
X87494Y-13116D01*
X87482Y-13092D01*
X87470Y-13044D01*
X87458Y-13020D01*
X87446Y-13009D01*
X87423Y-12997D01*
X87399Y-12997D01*
X87375Y-13009D01*
X87363Y-13020D01*
X87351Y-13044D01*
X87351Y-13104D01*
X87363Y-13139D01*
X87601Y-13247D02*
X87351Y-13247D01*
X87351Y-13306D01*
X87363Y-13342D01*
X87387Y-13366D01*
X87411Y-13377D01*
X87458Y-13389D01*
X87494Y-13389D01*
X87542Y-13377D01*
X87565Y-13366D01*
X87589Y-13342D01*
X87601Y-13306D01*
X87601Y-13247D01*
X87530Y-13485D02*
X87530Y-13604D01*
X87601Y-13461D02*
X87351Y-13544D01*
X87601Y-13627D01*
X86363Y-13109D02*
X86351Y-13086D01*
X86351Y-13050D01*
X86363Y-13014D01*
X86387Y-12990D01*
X86411Y-12979D01*
X86458Y-12967D01*
X86494Y-12967D01*
X86542Y-12979D01*
X86565Y-12990D01*
X86589Y-13014D01*
X86601Y-13050D01*
X86601Y-13074D01*
X86589Y-13109D01*
X86577Y-13121D01*
X86494Y-13121D01*
X86494Y-13074D01*
X86601Y-13229D02*
X86351Y-13229D01*
X86601Y-13371D01*
X86351Y-13371D01*
X86601Y-13491D02*
X86351Y-13491D01*
X86351Y-13550D01*
X86363Y-13586D01*
X86387Y-13610D01*
X86411Y-13621D01*
X86458Y-13633D01*
X86494Y-13633D01*
X86542Y-13621D01*
X86565Y-13610D01*
X86589Y-13586D01*
X86601Y-13550D01*
X86601Y-13491D01*
X55528Y-12136D02*
X55557Y-12121D01*
X55600Y-12121D01*
X55643Y-12136D01*
X55671Y-12164D01*
X55686Y-12193D01*
X55700Y-12250D01*
X55700Y-12293D01*
X55686Y-12350D01*
X55671Y-12379D01*
X55643Y-12407D01*
X55600Y-12421D01*
X55571Y-12421D01*
X55528Y-12407D01*
X55514Y-12393D01*
X55514Y-12293D01*
X55571Y-12293D01*
X55386Y-12421D02*
X55386Y-12121D01*
X55214Y-12421D01*
X55214Y-12121D01*
X55072Y-12421D02*
X55072Y-12121D01*
X55000Y-12121D01*
X54957Y-12136D01*
X54929Y-12164D01*
X54914Y-12193D01*
X54900Y-12250D01*
X54900Y-12293D01*
X54914Y-12350D01*
X54929Y-12379D01*
X54957Y-12407D01*
X55000Y-12421D01*
X55072Y-12421D01*
X54700Y-12521D02*
X54700Y-12093D01*
X54514Y-12421D02*
X54357Y-12221D01*
X54514Y-12221D02*
X54357Y-12421D01*
X54171Y-12521D02*
X54171Y-12093D01*
X53899Y-12121D02*
X53842Y-12121D01*
X53814Y-12136D01*
X53785Y-12164D01*
X53771Y-12221D01*
X53771Y-12321D01*
X53785Y-12379D01*
X53814Y-12407D01*
X53842Y-12421D01*
X53899Y-12421D01*
X53928Y-12407D01*
X53957Y-12379D01*
X53971Y-12321D01*
X53971Y-12221D01*
X53957Y-12164D01*
X53928Y-12136D01*
X53899Y-12121D01*
X53514Y-12221D02*
X53514Y-12421D01*
X53643Y-12221D02*
X53643Y-12379D01*
X53628Y-12407D01*
X53600Y-12421D01*
X53557Y-12421D01*
X53528Y-12407D01*
X53514Y-12393D01*
X53414Y-12221D02*
X53300Y-12221D01*
X53372Y-12121D02*
X53372Y-12379D01*
X53357Y-12407D01*
X53329Y-12421D01*
X53300Y-12421D01*
X53129Y-12521D02*
X53129Y-12093D01*
X52772Y-12121D02*
X52915Y-12121D01*
X52929Y-12264D01*
X52915Y-12250D01*
X52886Y-12236D01*
X52815Y-12236D01*
X52786Y-12250D01*
X52772Y-12264D01*
X52757Y-12293D01*
X52757Y-12364D01*
X52772Y-12393D01*
X52786Y-12407D01*
X52815Y-12421D01*
X52886Y-12421D01*
X52915Y-12407D01*
X52929Y-12393D01*
X52671Y-12121D02*
X52571Y-12421D01*
X52471Y-12121D01*
X55507Y-11461D02*
X55536Y-11446D01*
X55579Y-11446D01*
X55622Y-11461D01*
X55650Y-11489D01*
X55665Y-11518D01*
X55679Y-11575D01*
X55679Y-11618D01*
X55665Y-11675D01*
X55650Y-11704D01*
X55622Y-11732D01*
X55579Y-11746D01*
X55550Y-11746D01*
X55507Y-11732D01*
X55493Y-11718D01*
X55493Y-11618D01*
X55550Y-11618D01*
X55365Y-11746D02*
X55365Y-11446D01*
X55193Y-11746D01*
X55193Y-11446D01*
X55051Y-11746D02*
X55051Y-11446D01*
X54979Y-11446D01*
X54936Y-11461D01*
X54908Y-11489D01*
X54893Y-11518D01*
X54879Y-11575D01*
X54879Y-11618D01*
X54893Y-11675D01*
X54908Y-11704D01*
X54936Y-11732D01*
X54979Y-11746D01*
X55051Y-11746D01*
X54679Y-11846D02*
X54679Y-11418D01*
X54493Y-11746D02*
X54336Y-11546D01*
X54493Y-11546D02*
X54336Y-11746D01*
X54150Y-11846D02*
X54150Y-11418D01*
X53936Y-11746D02*
X53936Y-11446D01*
X53793Y-11546D02*
X53793Y-11746D01*
X53793Y-11575D02*
X53778Y-11561D01*
X53750Y-11546D01*
X53707Y-11546D01*
X53678Y-11561D01*
X53664Y-11589D01*
X53664Y-11746D01*
X53450Y-11846D02*
X53450Y-11418D01*
X53093Y-11446D02*
X53236Y-11446D01*
X53250Y-11589D01*
X53236Y-11575D01*
X53207Y-11561D01*
X53136Y-11561D01*
X53107Y-11575D01*
X53093Y-11589D01*
X53078Y-11618D01*
X53078Y-11689D01*
X53093Y-11718D01*
X53107Y-11732D01*
X53136Y-11746D01*
X53207Y-11746D01*
X53236Y-11732D01*
X53250Y-11718D01*
X52992Y-11446D02*
X52892Y-11746D01*
X52792Y-11446D01*
G54D11*
X10000Y-16000D02*
X10000Y-10000D01*
X106000Y-16000D02*
X10000Y-16000D01*
X106000Y-10000D02*
X106000Y-16000D01*
X10000Y-10000D02*
X106000Y-10000D01*
G54D12*
X11400Y-15000D02*
X11400Y-11000D01*
X11400Y-11000D02*
X10400Y-11000D01*
X10400Y-11000D02*
X10400Y-15000D01*
X10400Y-15000D02*
X11400Y-15000D01*
G54D13*
X59900Y-11200D02*
X60000Y-11200D01*
X58900Y-11200D02*
X59100Y-11200D01*
X57900Y-11200D02*
X58100Y-11200D01*
X56900Y-11200D02*
X57100Y-11200D01*
X56000Y-11200D02*
X56100Y-11200D01*
X59000Y-10700D02*
X60000Y-10700D01*
X59000Y-10600D02*
X60000Y-10600D01*
X59000Y-10500D02*
X60000Y-10500D01*
X59000Y-11200D02*
X59000Y-10400D01*
X57000Y-11200D02*
X57000Y-10400D01*
X56000Y-11200D02*
X56000Y-10400D01*
X56000Y-10400D02*
X58000Y-10400D01*
X58000Y-10400D02*
X60000Y-10400D01*
X60000Y-10400D02*
X60000Y-11200D01*
G54D12*
X16825Y-12575D02*
X15175Y-12575D01*
X16825Y-12525D02*
X15175Y-12525D01*
X16825Y-12475D02*
X15175Y-12475D01*
X15175Y-12425D02*
X16825Y-12425D01*
X16825Y-12375D02*
X15175Y-12375D01*
X15175Y-12325D02*
X16825Y-12325D01*
X16825Y-12275D02*
X15175Y-12275D01*
X16825Y-11575D02*
X16825Y-12225D01*
X16825Y-12225D02*
X15175Y-12225D01*
X15175Y-12225D02*
X15175Y-11575D01*
X15225Y-11550D02*
X15225Y-12175D01*
X15225Y-12175D02*
X16775Y-12175D01*
X16775Y-12175D02*
X16775Y-11575D01*
X16725Y-11550D02*
X16725Y-12125D01*
X16725Y-12125D02*
X15275Y-12125D01*
X15275Y-12125D02*
X15275Y-11550D01*
X16725Y-14450D02*
X16850Y-14450D01*
X15275Y-11550D02*
X15150Y-11550D01*
X15150Y-11550D02*
X15150Y-14450D01*
X15150Y-14450D02*
X15275Y-14450D01*
X16850Y-14450D02*
X16850Y-11550D01*
X16850Y-11550D02*
X16725Y-11550D01*
G54D13*
X89100Y-12750D02*
X89100Y-16000D01*
X89200Y-16000D02*
X89200Y-12750D01*
X89300Y-12750D02*
X89300Y-16000D01*
X89400Y-16000D02*
X89400Y-12750D01*
X89500Y-12750D02*
X89500Y-16000D01*
X89600Y-16000D02*
X89600Y-12750D01*
X89700Y-12750D02*
X89700Y-16000D01*
X89800Y-16000D02*
X89800Y-12750D01*
X89900Y-12750D02*
X89900Y-16000D01*
X89000Y-12750D02*
X89000Y-16000D01*
X87000Y-12750D02*
X87000Y-16000D01*
X88000Y-16000D02*
X86000Y-16000D01*
X86000Y-16000D02*
X86000Y-12750D01*
X86000Y-12750D02*
X88000Y-12750D01*
X88000Y-16000D02*
X90000Y-16000D01*
X90000Y-16000D02*
X90000Y-12750D01*
X90000Y-12750D02*
X88000Y-12750D01*
X88000Y-12750D02*
X88000Y-16000D01*
X89900Y-11200D02*
X90000Y-11200D01*
X88900Y-11200D02*
X89100Y-11200D01*
X87900Y-11200D02*
X88100Y-11200D01*
X86900Y-11200D02*
X87100Y-11200D01*
X86000Y-11200D02*
X86100Y-11200D01*
X89000Y-10700D02*
X90000Y-10700D01*
X89000Y-10600D02*
X90000Y-10600D01*
X89000Y-10500D02*
X90000Y-10500D01*
X89000Y-11200D02*
X89000Y-10400D01*
X87000Y-11200D02*
X87000Y-10400D01*
X86000Y-11200D02*
X86000Y-10400D01*
X86000Y-10400D02*
X88000Y-10400D01*
X88000Y-10400D02*
X90000Y-10400D01*
X90000Y-10400D02*
X90000Y-11200D01*
G54D10*
X76000Y-13650D02*
X75900Y-13650D01*
X76000Y-13600D02*
X75850Y-13600D01*
X76000Y-13550D02*
X75800Y-13550D01*
X76000Y-14350D02*
X75900Y-14350D01*
X76000Y-14400D02*
X75850Y-14400D01*
X76000Y-14450D02*
X75800Y-14450D01*
X75000Y-14350D02*
X75100Y-14350D01*
X75000Y-14400D02*
X75150Y-14400D01*
X75000Y-14450D02*
X75200Y-14450D01*
X75000Y-13650D02*
X75100Y-13650D01*
X75000Y-13600D02*
X75150Y-13600D01*
X75000Y-13550D02*
X75200Y-13550D01*
X75750Y-13500D02*
X76000Y-13750D01*
X76000Y-14250D02*
X75750Y-14500D01*
X76000Y-13500D02*
X76000Y-13750D01*
X76000Y-13750D02*
X76000Y-14250D01*
X76000Y-14250D02*
X76000Y-14500D01*
X76000Y-13500D02*
X75750Y-13500D01*
X75750Y-13500D02*
X75250Y-13500D01*
X75000Y-14250D02*
X75000Y-14500D01*
X75000Y-14500D02*
X75250Y-14500D01*
X75250Y-13500D02*
X75000Y-13500D01*
X75000Y-13500D02*
X75000Y-13750D01*
X77000Y-12250D02*
X77000Y-11750D01*
X77000Y-13250D02*
X77000Y-12750D01*
X77000Y-14250D02*
X77000Y-13750D01*
X75250Y-14500D02*
X76750Y-14500D01*
X75000Y-13750D02*
X75000Y-14250D01*
X75000Y-12750D02*
X75000Y-13250D01*
X75000Y-11750D02*
X75000Y-12250D01*
X76750Y-11500D02*
X75250Y-11500D01*
X75000Y-14250D02*
X75250Y-14500D01*
X75000Y-13250D02*
X75250Y-13500D01*
X75250Y-13500D02*
X75000Y-13750D01*
X75000Y-12250D02*
X75250Y-12500D01*
X75250Y-12500D02*
X75000Y-12750D01*
X75250Y-11500D02*
X75000Y-11750D01*
X77000Y-11750D02*
X76750Y-11500D01*
X77000Y-12750D02*
X76750Y-12500D01*
X76750Y-12500D02*
X77000Y-12250D01*
X77000Y-13750D02*
X76750Y-13500D01*
X76750Y-13500D02*
X77000Y-13250D01*
X76750Y-14500D02*
X77000Y-14250D01*
G54D12*
X83000Y-12700D02*
X81000Y-12700D01*
X81000Y-12700D02*
X81000Y-14500D01*
X81000Y-14500D02*
X83000Y-14500D01*
X83000Y-14500D02*
X83000Y-12700D01*
X83000Y-13300D02*
X82800Y-13300D01*
X82800Y-13300D02*
X82800Y-13800D01*
X82800Y-13800D02*
X83000Y-13800D01*
G54D13*
X102250Y-11900D02*
X105500Y-11900D01*
X105500Y-11800D02*
X102250Y-11800D01*
X102250Y-11700D02*
X105500Y-11700D01*
X105500Y-11600D02*
X102250Y-11600D01*
X102250Y-11500D02*
X105500Y-11500D01*
X105500Y-11400D02*
X102250Y-11400D01*
X102250Y-11300D02*
X105500Y-11300D01*
X105500Y-11200D02*
X102250Y-11200D01*
X102250Y-11100D02*
X105500Y-11100D01*
X102250Y-12000D02*
X105500Y-12000D01*
X102250Y-14000D02*
X105500Y-14000D01*
X105500Y-13000D02*
X105500Y-15000D01*
X105500Y-15000D02*
X102250Y-15000D01*
X102250Y-15000D02*
X102250Y-13000D01*
X105500Y-13000D02*
X105500Y-11000D01*
X105500Y-11000D02*
X102250Y-11000D01*
X102250Y-11000D02*
X102250Y-13000D01*
X102250Y-13000D02*
X105500Y-13000D01*
G54D10*
X83300Y-11950D02*
X83300Y-12650D01*
X84150Y-11950D02*
X84150Y-12650D01*
X83300Y-13100D02*
X83300Y-13450D01*
X84150Y-13450D02*
X84150Y-13100D01*
X84150Y-12650D02*
X83300Y-12650D01*
X84150Y-11950D02*
X83300Y-11950D01*
X84150Y-13450D02*
X83300Y-13450D01*
G54D13*
X59100Y-12750D02*
X59100Y-16000D01*
X59200Y-16000D02*
X59200Y-12750D01*
X59300Y-12750D02*
X59300Y-16000D01*
X59400Y-16000D02*
X59400Y-12750D01*
X59500Y-12750D02*
X59500Y-16000D01*
X59600Y-16000D02*
X59600Y-12750D01*
X59700Y-12750D02*
X59700Y-16000D01*
X59800Y-16000D02*
X59800Y-12750D01*
X59900Y-12750D02*
X59900Y-16000D01*
X59000Y-12750D02*
X59000Y-16000D01*
X57000Y-12750D02*
X57000Y-16000D01*
X58000Y-16000D02*
X56000Y-16000D01*
X56000Y-16000D02*
X56000Y-12750D01*
X56000Y-12750D02*
X58000Y-12750D01*
X58000Y-16000D02*
X60000Y-16000D01*
X60000Y-16000D02*
X60000Y-12750D01*
X60000Y-12750D02*
X58000Y-12750D01*
X58000Y-12750D02*
X58000Y-16000D01*
G54D10*
X11195Y-15487D02*
X11195Y-15087D01*
X11042Y-15087D01*
X11004Y-15106D01*
X10985Y-15125D01*
X10966Y-15163D01*
X10966Y-15220D01*
X10985Y-15258D01*
X11004Y-15277D01*
X11042Y-15296D01*
X11195Y-15296D01*
X10814Y-15125D02*
X10795Y-15106D01*
X10757Y-15087D01*
X10661Y-15087D01*
X10623Y-15106D01*
X10604Y-15125D01*
X10585Y-15163D01*
X10585Y-15201D01*
X10604Y-15258D01*
X10833Y-15487D01*
X10585Y-15487D01*
X12089Y-10743D02*
X12103Y-10757D01*
X12146Y-10771D01*
X12175Y-10771D01*
X12218Y-10757D01*
X12246Y-10729D01*
X12261Y-10700D01*
X12275Y-10643D01*
X12275Y-10600D01*
X12261Y-10543D01*
X12246Y-10514D01*
X12218Y-10486D01*
X12175Y-10471D01*
X12146Y-10471D01*
X12103Y-10486D01*
X12089Y-10500D01*
X11903Y-10471D02*
X11846Y-10471D01*
X11818Y-10486D01*
X11789Y-10514D01*
X11775Y-10571D01*
X11775Y-10671D01*
X11789Y-10729D01*
X11818Y-10757D01*
X11846Y-10771D01*
X11903Y-10771D01*
X11932Y-10757D01*
X11961Y-10729D01*
X11975Y-10671D01*
X11975Y-10571D01*
X11961Y-10514D01*
X11932Y-10486D01*
X11903Y-10471D01*
X11647Y-10771D02*
X11647Y-10471D01*
X11475Y-10771D01*
X11475Y-10471D01*
X11333Y-10771D02*
X11333Y-10471D01*
X11161Y-10771D01*
X11161Y-10471D01*
X11090Y-10800D02*
X10861Y-10800D01*
X10818Y-10471D02*
X10747Y-10771D01*
X10690Y-10557D01*
X10632Y-10771D01*
X10561Y-10471D01*
X12203Y-14336D02*
X12232Y-14321D01*
X12275Y-14321D01*
X12318Y-14336D01*
X12346Y-14364D01*
X12361Y-14393D01*
X12375Y-14450D01*
X12375Y-14493D01*
X12361Y-14550D01*
X12346Y-14579D01*
X12318Y-14607D01*
X12275Y-14621D01*
X12246Y-14621D01*
X12203Y-14607D01*
X12189Y-14593D01*
X12189Y-14493D01*
X12246Y-14493D01*
X12061Y-14621D02*
X12061Y-14321D01*
X11889Y-14621D01*
X11889Y-14321D01*
X11747Y-14621D02*
X11747Y-14321D01*
X11675Y-14321D01*
X11632Y-14336D01*
X11604Y-14364D01*
X11589Y-14393D01*
X11575Y-14450D01*
X11575Y-14493D01*
X11589Y-14550D01*
X11604Y-14579D01*
X11632Y-14607D01*
X11675Y-14621D01*
X11747Y-14621D01*
X12386Y-12596D02*
X12386Y-12296D01*
X12243Y-12396D02*
X12243Y-12596D01*
X12243Y-12425D02*
X12228Y-12411D01*
X12200Y-12396D01*
X12157Y-12396D01*
X12128Y-12411D01*
X12114Y-12439D01*
X12114Y-12596D01*
X12207Y-11321D02*
X12350Y-11321D01*
X12364Y-11464D01*
X12350Y-11450D01*
X12321Y-11436D01*
X12250Y-11436D01*
X12221Y-11450D01*
X12207Y-11464D01*
X12192Y-11493D01*
X12192Y-11564D01*
X12207Y-11593D01*
X12221Y-11607D01*
X12250Y-11621D01*
X12321Y-11621D01*
X12350Y-11607D01*
X12364Y-11593D01*
X12106Y-11321D02*
X12006Y-11621D01*
X11906Y-11321D01*
X55747Y-10696D02*
X55747Y-10396D01*
X55632Y-10396D01*
X55604Y-10411D01*
X55589Y-10425D01*
X55575Y-10454D01*
X55575Y-10496D01*
X55589Y-10525D01*
X55604Y-10539D01*
X55632Y-10554D01*
X55747Y-10554D01*
X55289Y-10696D02*
X55461Y-10696D01*
X55375Y-10696D02*
X55375Y-10396D01*
X55404Y-10439D01*
X55432Y-10468D01*
X55461Y-10482D01*
X55599Y-11193D02*
X55613Y-11207D01*
X55656Y-11221D01*
X55685Y-11221D01*
X55728Y-11207D01*
X55756Y-11179D01*
X55771Y-11150D01*
X55785Y-11093D01*
X55785Y-11050D01*
X55771Y-10993D01*
X55756Y-10964D01*
X55728Y-10936D01*
X55685Y-10921D01*
X55656Y-10921D01*
X55613Y-10936D01*
X55599Y-10950D01*
X55413Y-10921D02*
X55356Y-10921D01*
X55328Y-10936D01*
X55299Y-10964D01*
X55285Y-11021D01*
X55285Y-11121D01*
X55299Y-11179D01*
X55328Y-11207D01*
X55356Y-11221D01*
X55413Y-11221D01*
X55442Y-11207D01*
X55471Y-11179D01*
X55485Y-11121D01*
X55485Y-11021D01*
X55471Y-10964D01*
X55442Y-10936D01*
X55413Y-10921D01*
X55157Y-11221D02*
X55157Y-10921D01*
X54985Y-11221D01*
X54985Y-10921D01*
X54843Y-11221D02*
X54843Y-10921D01*
X54671Y-11221D01*
X54671Y-10921D01*
X54600Y-11250D02*
X54371Y-11250D01*
X54300Y-11221D02*
X54300Y-10921D01*
X54128Y-11221D01*
X54128Y-10921D01*
G54D14*
X17318Y-12207D02*
X17332Y-12193D01*
X17346Y-12150D01*
X17346Y-12121D01*
X17332Y-12078D01*
X17304Y-12050D01*
X17275Y-12035D01*
X17218Y-12021D01*
X17175Y-12021D01*
X17118Y-12035D01*
X17089Y-12050D01*
X17061Y-12078D01*
X17046Y-12121D01*
X17046Y-12150D01*
X17061Y-12193D01*
X17075Y-12207D01*
X17346Y-12493D02*
X17346Y-12321D01*
X17346Y-12407D02*
X17046Y-12407D01*
X17089Y-12378D01*
X17118Y-12350D01*
X17132Y-12321D01*
X17046Y-12593D02*
X17046Y-12793D01*
X17346Y-12664D01*
X14746Y-11786D02*
X14946Y-11786D01*
X14632Y-11715D02*
X14846Y-11643D01*
X14846Y-11829D01*
X14646Y-11915D02*
X14646Y-12115D01*
X14946Y-11986D01*
X14746Y-12358D02*
X14946Y-12358D01*
X14746Y-12229D02*
X14904Y-12229D01*
X14932Y-12244D01*
X14946Y-12272D01*
X14946Y-12315D01*
X14932Y-12344D01*
X14918Y-12358D01*
X14932Y-12515D02*
X14946Y-12515D01*
X14975Y-12500D01*
X14989Y-12486D01*
X14775Y-12686D02*
X14761Y-12658D01*
X14746Y-12643D01*
X14718Y-12629D01*
X14704Y-12629D01*
X14675Y-12643D01*
X14661Y-12658D01*
X14646Y-12686D01*
X14646Y-12743D01*
X14661Y-12772D01*
X14675Y-12786D01*
X14704Y-12801D01*
X14718Y-12801D01*
X14746Y-12786D01*
X14761Y-12772D01*
X14775Y-12743D01*
X14775Y-12686D01*
X14789Y-12658D01*
X14804Y-12643D01*
X14832Y-12629D01*
X14889Y-12629D01*
X14918Y-12643D01*
X14932Y-12658D01*
X14946Y-12686D01*
X14946Y-12743D01*
X14932Y-12772D01*
X14918Y-12786D01*
X14889Y-12801D01*
X14832Y-12801D01*
X14804Y-12786D01*
X14789Y-12772D01*
X14775Y-12743D01*
X14646Y-12887D02*
X14946Y-12987D01*
X14646Y-13087D01*
G54D10*
X17157Y-14211D02*
X17157Y-14440D01*
X17182Y-11561D02*
X17182Y-11790D01*
X17296Y-11676D02*
X17068Y-11676D01*
X80032Y-15021D02*
X80032Y-14721D01*
X79960Y-14721D01*
X79917Y-14736D01*
X79889Y-14764D01*
X79874Y-14793D01*
X79860Y-14850D01*
X79860Y-14893D01*
X79874Y-14950D01*
X79889Y-14979D01*
X79917Y-15007D01*
X79960Y-15021D01*
X80032Y-15021D01*
X79603Y-15021D02*
X79603Y-14864D01*
X79617Y-14836D01*
X79646Y-14821D01*
X79703Y-14821D01*
X79732Y-14836D01*
X79603Y-15007D02*
X79632Y-15021D01*
X79703Y-15021D01*
X79732Y-15007D01*
X79746Y-14979D01*
X79746Y-14950D01*
X79732Y-14921D01*
X79703Y-14907D01*
X79632Y-14907D01*
X79603Y-14893D01*
X79503Y-14821D02*
X79389Y-14821D01*
X79461Y-14721D02*
X79461Y-14979D01*
X79446Y-15007D01*
X79418Y-15021D01*
X79389Y-15021D01*
X79161Y-15021D02*
X79161Y-14864D01*
X79175Y-14836D01*
X79204Y-14821D01*
X79261Y-14821D01*
X79290Y-14836D01*
X79161Y-15007D02*
X79190Y-15021D01*
X79261Y-15021D01*
X79290Y-15007D01*
X79304Y-14979D01*
X79304Y-14950D01*
X79290Y-14921D01*
X79261Y-14907D01*
X79190Y-14907D01*
X79161Y-14893D01*
X79090Y-15050D02*
X78861Y-15050D01*
X78790Y-15021D02*
X78790Y-14721D01*
X78647Y-14821D02*
X78647Y-15021D01*
X78647Y-14850D02*
X78632Y-14836D01*
X78604Y-14821D01*
X78561Y-14821D01*
X78532Y-14836D01*
X78518Y-14864D01*
X78518Y-15021D01*
X84622Y-14746D02*
X84622Y-14446D01*
X84507Y-14446D01*
X84479Y-14461D01*
X84464Y-14475D01*
X84450Y-14504D01*
X84450Y-14546D01*
X84464Y-14575D01*
X84479Y-14589D01*
X84507Y-14604D01*
X84622Y-14604D01*
X84222Y-14589D02*
X84179Y-14604D01*
X84164Y-14618D01*
X84150Y-14646D01*
X84150Y-14689D01*
X84164Y-14718D01*
X84179Y-14732D01*
X84207Y-14746D01*
X84322Y-14746D01*
X84322Y-14446D01*
X84222Y-14446D01*
X84193Y-14461D01*
X84179Y-14475D01*
X84164Y-14504D01*
X84164Y-14532D01*
X84179Y-14561D01*
X84193Y-14575D01*
X84222Y-14589D01*
X84322Y-14589D01*
X84050Y-14446D02*
X83864Y-14446D01*
X83964Y-14561D01*
X83922Y-14561D01*
X83893Y-14575D01*
X83879Y-14589D01*
X83864Y-14618D01*
X83864Y-14689D01*
X83879Y-14718D01*
X83893Y-14732D01*
X83922Y-14746D01*
X84007Y-14746D01*
X84036Y-14732D01*
X84050Y-14718D01*
X85740Y-15321D02*
X85740Y-15021D01*
X85625Y-15021D01*
X85597Y-15036D01*
X85582Y-15050D01*
X85568Y-15079D01*
X85568Y-15121D01*
X85582Y-15150D01*
X85597Y-15164D01*
X85625Y-15179D01*
X85740Y-15179D01*
X85282Y-15321D02*
X85454Y-15321D01*
X85368Y-15321D02*
X85368Y-15021D01*
X85397Y-15064D01*
X85425Y-15093D01*
X85454Y-15107D01*
X85168Y-15050D02*
X85154Y-15036D01*
X85125Y-15021D01*
X85054Y-15021D01*
X85025Y-15036D01*
X85011Y-15050D01*
X84996Y-15079D01*
X84996Y-15107D01*
X85011Y-15150D01*
X85182Y-15321D01*
X84996Y-15321D01*
X85560Y-15743D02*
X85574Y-15757D01*
X85617Y-15771D01*
X85646Y-15771D01*
X85689Y-15757D01*
X85717Y-15729D01*
X85732Y-15700D01*
X85746Y-15643D01*
X85746Y-15600D01*
X85732Y-15543D01*
X85717Y-15514D01*
X85689Y-15486D01*
X85646Y-15471D01*
X85617Y-15471D01*
X85574Y-15486D01*
X85560Y-15500D01*
X85460Y-15471D02*
X85274Y-15471D01*
X85374Y-15586D01*
X85332Y-15586D01*
X85303Y-15600D01*
X85289Y-15614D01*
X85274Y-15643D01*
X85274Y-15714D01*
X85289Y-15743D01*
X85303Y-15757D01*
X85332Y-15771D01*
X85417Y-15771D01*
X85446Y-15757D01*
X85460Y-15743D01*
X85160Y-15757D02*
X85117Y-15771D01*
X85046Y-15771D01*
X85017Y-15757D01*
X85003Y-15743D01*
X84988Y-15714D01*
X84988Y-15686D01*
X85003Y-15657D01*
X85017Y-15643D01*
X85046Y-15629D01*
X85103Y-15614D01*
X85131Y-15600D01*
X85146Y-15586D01*
X85160Y-15557D01*
X85160Y-15529D01*
X85146Y-15500D01*
X85131Y-15486D01*
X85103Y-15471D01*
X85031Y-15471D01*
X84988Y-15486D01*
X84760Y-15614D02*
X84717Y-15629D01*
X84702Y-15643D01*
X84688Y-15671D01*
X84688Y-15714D01*
X84702Y-15743D01*
X84717Y-15757D01*
X84745Y-15771D01*
X84860Y-15771D01*
X84860Y-15471D01*
X84760Y-15471D01*
X84731Y-15486D01*
X84717Y-15500D01*
X84702Y-15529D01*
X84702Y-15557D01*
X84717Y-15586D01*
X84731Y-15600D01*
X84760Y-15614D01*
X84860Y-15614D01*
X84631Y-15800D02*
X84402Y-15800D01*
X84273Y-15471D02*
X84216Y-15471D01*
X84188Y-15486D01*
X84159Y-15514D01*
X84145Y-15571D01*
X84145Y-15671D01*
X84159Y-15729D01*
X84188Y-15757D01*
X84216Y-15771D01*
X84273Y-15771D01*
X84302Y-15757D01*
X84331Y-15729D01*
X84345Y-15671D01*
X84345Y-15571D01*
X84331Y-15514D01*
X84302Y-15486D01*
X84273Y-15471D01*
X83888Y-15571D02*
X83888Y-15771D01*
X84017Y-15571D02*
X84017Y-15729D01*
X84002Y-15757D01*
X83974Y-15771D01*
X83931Y-15771D01*
X83902Y-15757D01*
X83888Y-15743D01*
X83788Y-15571D02*
X83674Y-15571D01*
X83746Y-15471D02*
X83746Y-15729D01*
X83731Y-15757D01*
X83703Y-15771D01*
X83674Y-15771D01*
X85697Y-10671D02*
X85697Y-10371D01*
X85582Y-10371D01*
X85554Y-10386D01*
X85539Y-10400D01*
X85525Y-10429D01*
X85525Y-10471D01*
X85539Y-10500D01*
X85554Y-10514D01*
X85582Y-10529D01*
X85697Y-10529D01*
X85382Y-10671D02*
X85325Y-10671D01*
X85297Y-10657D01*
X85282Y-10643D01*
X85254Y-10600D01*
X85239Y-10543D01*
X85239Y-10429D01*
X85254Y-10400D01*
X85268Y-10386D01*
X85297Y-10371D01*
X85354Y-10371D01*
X85382Y-10386D01*
X85397Y-10400D01*
X85411Y-10429D01*
X85411Y-10500D01*
X85397Y-10529D01*
X85382Y-10543D01*
X85354Y-10557D01*
X85297Y-10557D01*
X85268Y-10543D01*
X85254Y-10529D01*
X85239Y-10500D01*
X85514Y-11143D02*
X85528Y-11157D01*
X85571Y-11171D01*
X85600Y-11171D01*
X85643Y-11157D01*
X85671Y-11129D01*
X85686Y-11100D01*
X85700Y-11043D01*
X85700Y-11000D01*
X85686Y-10943D01*
X85671Y-10914D01*
X85643Y-10886D01*
X85600Y-10871D01*
X85571Y-10871D01*
X85528Y-10886D01*
X85514Y-10900D01*
X85414Y-10871D02*
X85228Y-10871D01*
X85328Y-10986D01*
X85286Y-10986D01*
X85257Y-11000D01*
X85243Y-11014D01*
X85228Y-11043D01*
X85228Y-11114D01*
X85243Y-11143D01*
X85257Y-11157D01*
X85286Y-11171D01*
X85371Y-11171D01*
X85400Y-11157D01*
X85414Y-11143D01*
X85114Y-11157D02*
X85071Y-11171D01*
X85000Y-11171D01*
X84971Y-11157D01*
X84957Y-11143D01*
X84942Y-11114D01*
X84942Y-11086D01*
X84957Y-11057D01*
X84971Y-11043D01*
X85000Y-11029D01*
X85057Y-11014D01*
X85085Y-11000D01*
X85100Y-10986D01*
X85114Y-10957D01*
X85114Y-10929D01*
X85100Y-10900D01*
X85085Y-10886D01*
X85057Y-10871D01*
X84985Y-10871D01*
X84942Y-10886D01*
X84714Y-11014D02*
X84671Y-11029D01*
X84656Y-11043D01*
X84642Y-11071D01*
X84642Y-11114D01*
X84656Y-11143D01*
X84671Y-11157D01*
X84699Y-11171D01*
X84814Y-11171D01*
X84814Y-10871D01*
X84714Y-10871D01*
X84685Y-10886D01*
X84671Y-10900D01*
X84656Y-10929D01*
X84656Y-10957D01*
X84671Y-10986D01*
X84685Y-11000D01*
X84714Y-11014D01*
X84814Y-11014D01*
X84585Y-11200D02*
X84356Y-11200D01*
X84285Y-11171D02*
X84285Y-10871D01*
X84142Y-10971D02*
X84142Y-11171D01*
X84142Y-11000D02*
X84127Y-10986D01*
X84099Y-10971D01*
X84056Y-10971D01*
X84027Y-10986D01*
X84013Y-11014D01*
X84013Y-11171D01*
G54D12*
X75815Y-11321D02*
X75815Y-11021D01*
X75700Y-11021D01*
X75672Y-11036D01*
X75657Y-11050D01*
X75643Y-11079D01*
X75643Y-11121D01*
X75657Y-11150D01*
X75672Y-11164D01*
X75700Y-11179D01*
X75815Y-11179D01*
X75357Y-11321D02*
X75529Y-11321D01*
X75443Y-11321D02*
X75443Y-11021D01*
X75472Y-11064D01*
X75500Y-11093D01*
X75529Y-11107D01*
X75071Y-11321D02*
X75243Y-11321D01*
X75157Y-11321D02*
X75157Y-11021D01*
X75186Y-11064D01*
X75214Y-11093D01*
X75243Y-11107D01*
X76943Y-11321D02*
X76943Y-11021D01*
X76814Y-11307D02*
X76771Y-11321D01*
X76700Y-11321D01*
X76671Y-11307D01*
X76657Y-11293D01*
X76642Y-11264D01*
X76642Y-11236D01*
X76657Y-11207D01*
X76671Y-11193D01*
X76700Y-11179D01*
X76757Y-11164D01*
X76785Y-11150D01*
X76800Y-11136D01*
X76814Y-11107D01*
X76814Y-11079D01*
X76800Y-11050D01*
X76785Y-11036D01*
X76757Y-11021D01*
X76685Y-11021D01*
X76642Y-11036D01*
X76514Y-11321D02*
X76514Y-11021D01*
X76399Y-11021D01*
X76371Y-11036D01*
X76356Y-11050D01*
X76342Y-11079D01*
X76342Y-11121D01*
X76356Y-11150D01*
X76371Y-11164D01*
X76399Y-11179D01*
X76514Y-11179D01*
X77351Y-13863D02*
X77232Y-13780D01*
X77351Y-13721D02*
X77101Y-13721D01*
X77101Y-13816D01*
X77113Y-13840D01*
X77125Y-13851D01*
X77149Y-13863D01*
X77185Y-13863D01*
X77208Y-13851D01*
X77220Y-13840D01*
X77232Y-13816D01*
X77232Y-13721D01*
X77339Y-13959D02*
X77351Y-13994D01*
X77351Y-14054D01*
X77339Y-14078D01*
X77327Y-14090D01*
X77304Y-14101D01*
X77280Y-14101D01*
X77256Y-14090D01*
X77244Y-14078D01*
X77232Y-14054D01*
X77220Y-14006D01*
X77208Y-13982D01*
X77196Y-13971D01*
X77173Y-13959D01*
X77149Y-13959D01*
X77125Y-13971D01*
X77113Y-13982D01*
X77101Y-14006D01*
X77101Y-14066D01*
X77113Y-14101D01*
X77101Y-14173D02*
X77101Y-14316D01*
X77351Y-14244D02*
X77101Y-14244D01*
X77339Y-12679D02*
X77351Y-12714D01*
X77351Y-12774D01*
X77339Y-12798D01*
X77327Y-12810D01*
X77304Y-12821D01*
X77280Y-12821D01*
X77256Y-12810D01*
X77244Y-12798D01*
X77232Y-12774D01*
X77220Y-12726D01*
X77208Y-12702D01*
X77196Y-12691D01*
X77173Y-12679D01*
X77149Y-12679D01*
X77125Y-12691D01*
X77113Y-12702D01*
X77101Y-12726D01*
X77101Y-12786D01*
X77113Y-12821D01*
X77327Y-13071D02*
X77339Y-13059D01*
X77351Y-13024D01*
X77351Y-13000D01*
X77339Y-12964D01*
X77315Y-12940D01*
X77292Y-12929D01*
X77244Y-12917D01*
X77208Y-12917D01*
X77161Y-12929D01*
X77137Y-12940D01*
X77113Y-12964D01*
X77101Y-13000D01*
X77101Y-13024D01*
X77113Y-13059D01*
X77125Y-13071D01*
X77351Y-13179D02*
X77101Y-13179D01*
X77351Y-13321D02*
X77208Y-13214D01*
X77101Y-13321D02*
X77244Y-13179D01*
X77351Y-11608D02*
X77101Y-11608D01*
X77280Y-11691D01*
X77101Y-11774D01*
X77351Y-11774D01*
X77351Y-11894D02*
X77101Y-11894D01*
X77339Y-12001D02*
X77351Y-12036D01*
X77351Y-12096D01*
X77339Y-12120D01*
X77327Y-12132D01*
X77304Y-12143D01*
X77280Y-12143D01*
X77256Y-12132D01*
X77244Y-12120D01*
X77232Y-12096D01*
X77220Y-12048D01*
X77208Y-12024D01*
X77196Y-12013D01*
X77173Y-12001D01*
X77149Y-12001D01*
X77125Y-12013D01*
X77113Y-12024D01*
X77101Y-12048D01*
X77101Y-12108D01*
X77113Y-12143D01*
X77101Y-12298D02*
X77101Y-12346D01*
X77113Y-12370D01*
X77137Y-12393D01*
X77185Y-12405D01*
X77268Y-12405D01*
X77315Y-12393D01*
X77339Y-12370D01*
X77351Y-12346D01*
X77351Y-12298D01*
X77339Y-12274D01*
X77315Y-12251D01*
X77268Y-12239D01*
X77185Y-12239D01*
X77137Y-12251D01*
X77113Y-12274D01*
X77101Y-12298D01*
X74613Y-13809D02*
X74601Y-13786D01*
X74601Y-13750D01*
X74613Y-13714D01*
X74637Y-13690D01*
X74661Y-13679D01*
X74708Y-13667D01*
X74744Y-13667D01*
X74792Y-13679D01*
X74815Y-13690D01*
X74839Y-13714D01*
X74851Y-13750D01*
X74851Y-13774D01*
X74839Y-13809D01*
X74827Y-13821D01*
X74744Y-13821D01*
X74744Y-13774D01*
X74851Y-13929D02*
X74601Y-13929D01*
X74851Y-14071D01*
X74601Y-14071D01*
X74851Y-14191D02*
X74601Y-14191D01*
X74601Y-14250D01*
X74613Y-14286D01*
X74637Y-14310D01*
X74661Y-14321D01*
X74708Y-14333D01*
X74744Y-14333D01*
X74792Y-14321D01*
X74815Y-14310D01*
X74839Y-14286D01*
X74851Y-14250D01*
X74851Y-14191D01*
X74851Y-12608D02*
X74601Y-12608D01*
X74780Y-12691D01*
X74601Y-12774D01*
X74851Y-12774D01*
X74601Y-12941D02*
X74601Y-12989D01*
X74613Y-13013D01*
X74637Y-13036D01*
X74685Y-13048D01*
X74768Y-13048D01*
X74815Y-13036D01*
X74839Y-13013D01*
X74851Y-12989D01*
X74851Y-12941D01*
X74839Y-12917D01*
X74815Y-12894D01*
X74768Y-12882D01*
X74685Y-12882D01*
X74637Y-12894D01*
X74613Y-12917D01*
X74601Y-12941D01*
X74839Y-13144D02*
X74851Y-13179D01*
X74851Y-13239D01*
X74839Y-13263D01*
X74827Y-13275D01*
X74804Y-13286D01*
X74780Y-13286D01*
X74756Y-13275D01*
X74744Y-13263D01*
X74732Y-13239D01*
X74720Y-13191D01*
X74708Y-13167D01*
X74696Y-13156D01*
X74673Y-13144D01*
X74649Y-13144D01*
X74625Y-13156D01*
X74613Y-13167D01*
X74601Y-13191D01*
X74601Y-13251D01*
X74613Y-13286D01*
X74851Y-13394D02*
X74601Y-13394D01*
X74601Y-11834D02*
X74601Y-11715D01*
X74720Y-11703D01*
X74708Y-11715D01*
X74696Y-11738D01*
X74696Y-11798D01*
X74708Y-11822D01*
X74720Y-11834D01*
X74744Y-11845D01*
X74804Y-11845D01*
X74827Y-11834D01*
X74839Y-11822D01*
X74851Y-11798D01*
X74851Y-11738D01*
X74839Y-11715D01*
X74827Y-11703D01*
X74601Y-11917D02*
X74851Y-12000D01*
X74601Y-12083D01*
X74601Y-12214D02*
X74601Y-12238D01*
X74613Y-12262D01*
X74625Y-12274D01*
X74649Y-12286D01*
X74696Y-12297D01*
X74756Y-12297D01*
X74804Y-12286D01*
X74827Y-12274D01*
X74839Y-12262D01*
X74851Y-12238D01*
X74851Y-12214D01*
X74839Y-12190D01*
X74827Y-12178D01*
X74804Y-12167D01*
X74756Y-12155D01*
X74696Y-12155D01*
X74649Y-12167D01*
X74625Y-12178D01*
X74613Y-12190D01*
X74601Y-12214D01*
X83151Y-13841D02*
X83354Y-13841D01*
X83377Y-13852D01*
X83389Y-13864D01*
X83401Y-13888D01*
X83401Y-13936D01*
X83389Y-13960D01*
X83377Y-13971D01*
X83354Y-13983D01*
X83151Y-13983D01*
X83401Y-14233D02*
X83401Y-14091D01*
X83401Y-14162D02*
X83151Y-14162D01*
X83187Y-14138D01*
X83211Y-14114D01*
X83223Y-14091D01*
X83151Y-14317D02*
X83151Y-14483D01*
X83401Y-14376D01*
G54D10*
X100371Y-12178D02*
X100071Y-12178D01*
X100071Y-12293D01*
X100086Y-12321D01*
X100100Y-12336D01*
X100129Y-12350D01*
X100171Y-12350D01*
X100200Y-12336D01*
X100214Y-12321D01*
X100229Y-12293D01*
X100229Y-12178D01*
X100071Y-12450D02*
X100071Y-12636D01*
X100186Y-12536D01*
X100186Y-12578D01*
X100200Y-12607D01*
X100214Y-12621D01*
X100243Y-12636D01*
X100314Y-12636D01*
X100343Y-12621D01*
X100357Y-12607D01*
X100371Y-12578D01*
X100371Y-12493D01*
X100357Y-12464D01*
X100343Y-12450D01*
X100843Y-12372D02*
X100857Y-12358D01*
X100871Y-12315D01*
X100871Y-12286D01*
X100857Y-12243D01*
X100829Y-12215D01*
X100800Y-12200D01*
X100743Y-12186D01*
X100700Y-12186D01*
X100643Y-12200D01*
X100614Y-12215D01*
X100586Y-12243D01*
X100571Y-12286D01*
X100571Y-12315D01*
X100586Y-12358D01*
X100600Y-12372D01*
X100571Y-12558D02*
X100571Y-12615D01*
X100586Y-12643D01*
X100614Y-12672D01*
X100671Y-12686D01*
X100771Y-12686D01*
X100829Y-12672D01*
X100857Y-12643D01*
X100871Y-12615D01*
X100871Y-12558D01*
X100857Y-12529D01*
X100829Y-12500D01*
X100771Y-12486D01*
X100671Y-12486D01*
X100614Y-12500D01*
X100586Y-12529D01*
X100571Y-12558D01*
X100871Y-12814D02*
X100571Y-12814D01*
X100871Y-12986D01*
X100571Y-12986D01*
X100871Y-13128D02*
X100571Y-13128D01*
X100871Y-13300D01*
X100571Y-13300D01*
X100900Y-13371D02*
X100900Y-13600D01*
X100714Y-13671D02*
X100714Y-13771D01*
X100871Y-13814D02*
X100871Y-13671D01*
X100571Y-13671D01*
X100571Y-13814D01*
G54D14*
X84568Y-12507D02*
X84582Y-12493D01*
X84596Y-12450D01*
X84596Y-12421D01*
X84582Y-12378D01*
X84554Y-12350D01*
X84525Y-12335D01*
X84468Y-12321D01*
X84425Y-12321D01*
X84368Y-12335D01*
X84339Y-12350D01*
X84311Y-12378D01*
X84296Y-12421D01*
X84296Y-12450D01*
X84311Y-12493D01*
X84325Y-12507D01*
X84596Y-12793D02*
X84596Y-12621D01*
X84596Y-12707D02*
X84296Y-12707D01*
X84339Y-12678D01*
X84368Y-12650D01*
X84382Y-12621D01*
X84425Y-12964D02*
X84411Y-12936D01*
X84396Y-12921D01*
X84368Y-12907D01*
X84354Y-12907D01*
X84325Y-12921D01*
X84311Y-12936D01*
X84296Y-12964D01*
X84296Y-13021D01*
X84311Y-13050D01*
X84325Y-13064D01*
X84354Y-13079D01*
X84368Y-13079D01*
X84396Y-13064D01*
X84411Y-13050D01*
X84425Y-13021D01*
X84425Y-12964D01*
X84439Y-12936D01*
X84454Y-12921D01*
X84482Y-12907D01*
X84539Y-12907D01*
X84568Y-12921D01*
X84582Y-12936D01*
X84596Y-12964D01*
X84596Y-13021D01*
X84582Y-13050D01*
X84568Y-13064D01*
X84539Y-13079D01*
X84482Y-13079D01*
X84454Y-13064D01*
X84439Y-13050D01*
X84425Y-13021D01*
X85046Y-12365D02*
X85046Y-12193D01*
X85046Y-12279D02*
X84746Y-12279D01*
X84789Y-12250D01*
X84818Y-12222D01*
X84832Y-12193D01*
X84746Y-12551D02*
X84746Y-12579D01*
X84761Y-12608D01*
X84775Y-12622D01*
X84804Y-12636D01*
X84861Y-12651D01*
X84932Y-12651D01*
X84989Y-12636D01*
X85018Y-12622D01*
X85032Y-12608D01*
X85046Y-12579D01*
X85046Y-12551D01*
X85032Y-12522D01*
X85018Y-12508D01*
X84989Y-12493D01*
X84932Y-12479D01*
X84861Y-12479D01*
X84804Y-12493D01*
X84775Y-12508D01*
X84761Y-12522D01*
X84746Y-12551D01*
X84746Y-12837D02*
X84746Y-12865D01*
X84761Y-12894D01*
X84775Y-12908D01*
X84804Y-12922D01*
X84861Y-12937D01*
X84932Y-12937D01*
X84989Y-12922D01*
X85018Y-12908D01*
X85032Y-12894D01*
X85046Y-12865D01*
X85046Y-12837D01*
X85032Y-12808D01*
X85018Y-12794D01*
X84989Y-12779D01*
X84932Y-12765D01*
X84861Y-12765D01*
X84804Y-12779D01*
X84775Y-12794D01*
X84761Y-12808D01*
X84746Y-12837D01*
X84846Y-13065D02*
X85046Y-13065D01*
X84875Y-13065D02*
X84861Y-13080D01*
X84846Y-13108D01*
X84846Y-13151D01*
X84861Y-13180D01*
X84889Y-13194D01*
X85046Y-13194D01*
G54D10*
X55747Y-15146D02*
X55747Y-14846D01*
X55632Y-14846D01*
X55604Y-14861D01*
X55589Y-14875D01*
X55575Y-14904D01*
X55575Y-14946D01*
X55589Y-14975D01*
X55604Y-14989D01*
X55632Y-15004D01*
X55747Y-15004D01*
X55318Y-14946D02*
X55318Y-15146D01*
X55389Y-14832D02*
X55461Y-15046D01*
X55275Y-15046D01*
X55560Y-15768D02*
X55574Y-15782D01*
X55617Y-15796D01*
X55646Y-15796D01*
X55689Y-15782D01*
X55717Y-15754D01*
X55732Y-15725D01*
X55746Y-15668D01*
X55746Y-15625D01*
X55732Y-15568D01*
X55717Y-15539D01*
X55689Y-15511D01*
X55646Y-15496D01*
X55617Y-15496D01*
X55574Y-15511D01*
X55560Y-15525D01*
X55374Y-15496D02*
X55317Y-15496D01*
X55289Y-15511D01*
X55260Y-15539D01*
X55246Y-15596D01*
X55246Y-15696D01*
X55260Y-15754D01*
X55289Y-15782D01*
X55317Y-15796D01*
X55374Y-15796D01*
X55403Y-15782D01*
X55432Y-15754D01*
X55446Y-15696D01*
X55446Y-15596D01*
X55432Y-15539D01*
X55403Y-15511D01*
X55374Y-15496D01*
X55118Y-15796D02*
X55118Y-15496D01*
X54946Y-15796D01*
X54946Y-15496D01*
X54804Y-15796D02*
X54804Y-15496D01*
X54632Y-15796D01*
X54632Y-15496D01*
X54561Y-15825D02*
X54332Y-15825D01*
X54275Y-15782D02*
X54232Y-15796D01*
X54161Y-15796D01*
X54132Y-15782D01*
X54118Y-15768D01*
X54103Y-15739D01*
X54103Y-15711D01*
X54118Y-15682D01*
X54132Y-15668D01*
X54161Y-15654D01*
X54218Y-15639D01*
X54246Y-15625D01*
X54261Y-15611D01*
X54275Y-15582D01*
X54275Y-15554D01*
X54261Y-15525D01*
X54246Y-15511D01*
X54218Y-15496D01*
X54146Y-15496D01*
X54103Y-15511D01*
%LPC*%
G54D15*
X10900Y-14500D03*
G54D16*
X10900Y-13500D03*
X10900Y-12500D03*
X10900Y-11500D03*
G54D15*
X59500Y-11200D03*
G54D16*
X58500Y-11200D03*
X57500Y-11200D03*
X56500Y-11200D03*
G54D17*
X22000Y-13000D03*
X46000Y-13000D03*
X70000Y-13000D03*
X94000Y-13000D03*
G54D16*
X61950Y-11000D03*
X60450Y-11000D03*
X11675Y-12975D03*
X104450Y-13500D03*
G54D18*
X16000Y-11400D03*
X16000Y-14600D03*
G54D16*
X80600Y-14900D03*
X83450Y-15050D03*
X89500Y-12000D03*
X88500Y-12000D03*
X87500Y-12000D03*
G54D15*
X86500Y-12000D03*
G54D16*
X89500Y-11200D03*
X88500Y-11200D03*
X87500Y-11200D03*
G54D15*
X86500Y-11200D03*
G54D16*
X76500Y-12000D03*
X75500Y-12000D03*
X76500Y-13000D03*
X75500Y-13000D03*
X76500Y-14000D03*
G54D15*
X75500Y-14000D03*
G54D19*
X82750Y-12350D03*
X82250Y-12350D03*
X81750Y-12350D03*
X81250Y-12350D03*
X81250Y-14850D03*
X81750Y-14850D03*
X82250Y-14850D03*
X82750Y-14850D03*
G54D20*
X101500Y-11500D03*
X101500Y-12500D03*
X101500Y-13500D03*
G54D21*
X101500Y-14500D03*
G54D22*
X83725Y-12300D03*
X83725Y-13100D03*
G54D15*
X59500Y-12000D03*
G54D16*
X58500Y-12000D03*
X57500Y-12000D03*
X56500Y-12000D03*
M02*
