G04 (created by PCBNEW (2013-mar-13)-testing) date Sunday 21 April 2013 10:40:16 PM IST*
%MOIN*%
G04 Gerber Fmt 3.4, Leading zero omitted, Abs format*
%FSLAX34Y34*%
G01*
G70*
G90*
G04 APERTURE LIST*
%ADD10C,0.003*%
%ADD11C,0.005*%
%ADD12R,0.065X0.04*%
%ADD13C,0.195*%
%ADD14R,0.06X0.1*%
%ADD15R,0.08X0.11*%
%ADD16O,0.08X0.11*%
%ADD17R,0.0712X0.079*%
%ADD18R,0.062X0.076*%
G04 APERTURE END LIST*
G54D10*
G54D11*
X10000Y-22000D02*
X10000Y-10000D01*
X22000Y-22000D02*
X10000Y-22000D01*
X22000Y-10000D02*
X22000Y-22000D01*
X10000Y-10000D02*
X22000Y-10000D01*
G54D12*
X14000Y-17750D03*
X14000Y-17250D03*
X14000Y-16750D03*
X14000Y-16250D03*
X14000Y-15750D03*
X14000Y-15250D03*
X14000Y-14750D03*
X14000Y-14250D03*
X18000Y-14250D03*
X18000Y-14750D03*
X18000Y-15250D03*
X18000Y-15750D03*
X18000Y-16250D03*
X18000Y-16750D03*
X18000Y-17250D03*
X18000Y-17750D03*
G54D13*
X21000Y-11000D03*
X11000Y-11000D03*
X11000Y-21000D03*
X21000Y-21000D03*
G54D14*
X17500Y-10850D03*
X16500Y-12150D03*
X15500Y-10800D03*
X14500Y-12150D03*
X14500Y-21150D03*
X15500Y-19850D03*
X16500Y-21200D03*
X17500Y-19850D03*
G54D15*
X20500Y-13000D03*
G54D16*
X21500Y-13000D03*
G54D17*
X11725Y-16750D03*
X12475Y-16750D03*
X11725Y-15750D03*
X12475Y-15750D03*
X11725Y-18050D03*
X12475Y-18050D03*
G54D18*
X20450Y-15750D03*
X19650Y-15750D03*
M02*
