G04 (created by PCBNEW-RS274X (2011-12-28 BZR 3254)-stable) date 3/10/2012 5:09:00 PM*
G01*
G70*
G90*
%MOIN*%
G04 Gerber Fmt 3.4, Leading zero omitted, Abs format*
%FSLAX34Y34*%
G04 APERTURE LIST*
%ADD10C,0.006000*%
%ADD11C,0.010000*%
%ADD12C,0.060000*%
%ADD13R,0.050000X0.060000*%
%ADD14R,0.120000X0.280000*%
%ADD15R,0.280000X0.280000*%
%ADD16C,0.065000*%
%ADD17R,0.060000X0.100000*%
%ADD18R,0.100000X0.060000*%
%ADD19R,0.062000X0.076000*%
%ADD20R,0.043600X0.098700*%
%ADD21R,0.079000X0.071200*%
%ADD22R,0.080000X0.080000*%
%ADD23C,0.080000*%
%ADD24C,0.140000*%
G04 APERTURE END LIST*
G54D10*
G54D11*
X10000Y-10000D02*
X35000Y-10000D01*
X35000Y-22000D02*
X10000Y-22000D01*
X35000Y-10000D02*
X35000Y-22000D01*
X10000Y-22000D02*
X10000Y-10000D01*
G54D12*
X25325Y-19600D03*
X24325Y-19600D03*
X23325Y-19600D03*
X22325Y-19600D03*
X20325Y-19600D03*
X17675Y-13300D03*
X18675Y-13300D03*
X19675Y-13300D03*
X21325Y-19600D03*
X15875Y-18700D03*
X17350Y-21625D03*
X17475Y-18700D03*
X26325Y-21100D03*
G54D13*
X18825Y-15875D03*
X18825Y-17125D03*
X19225Y-17125D03*
X19225Y-15875D03*
G54D14*
X30725Y-15350D03*
X22525Y-15350D03*
G54D15*
X26625Y-15350D03*
G54D12*
X20675Y-13300D03*
G54D16*
X11600Y-19650D03*
X14750Y-19650D03*
G54D17*
X17450Y-19850D03*
X16450Y-21150D03*
X15450Y-19850D03*
X14450Y-21150D03*
G54D18*
X10800Y-14500D03*
X12100Y-15500D03*
X10800Y-16500D03*
X12100Y-17500D03*
G54D17*
X17450Y-10850D03*
X16450Y-12150D03*
X15450Y-10850D03*
X14450Y-12150D03*
G54D18*
X19800Y-14500D03*
X21100Y-15500D03*
X19800Y-16500D03*
X21100Y-17500D03*
G54D19*
X15975Y-13200D03*
X15175Y-13200D03*
G54D20*
X17475Y-17906D03*
X16975Y-17906D03*
X16475Y-17906D03*
X15975Y-17906D03*
X15475Y-17906D03*
X14975Y-17906D03*
X14475Y-17906D03*
X13975Y-17906D03*
X13975Y-14244D03*
X14475Y-14244D03*
X14975Y-14244D03*
X15475Y-14244D03*
X15975Y-14244D03*
X16475Y-14244D03*
X16975Y-14244D03*
X17475Y-14244D03*
G54D12*
X27325Y-19600D03*
X26325Y-19600D03*
G54D21*
X18400Y-17950D03*
X18400Y-18700D03*
G54D22*
X33900Y-15500D03*
G54D23*
X33900Y-14500D03*
X33900Y-13500D03*
X33900Y-12500D03*
X33900Y-11500D03*
X33900Y-10500D03*
G54D22*
X33900Y-21500D03*
G54D23*
X33900Y-20500D03*
X33900Y-19500D03*
X33900Y-18500D03*
X33900Y-17500D03*
X33900Y-16500D03*
G54D22*
X32325Y-19600D03*
G54D23*
X32325Y-18600D03*
X32325Y-17600D03*
X32325Y-16600D03*
X32325Y-15600D03*
X32325Y-14600D03*
G54D22*
X31125Y-12100D03*
G54D23*
X31125Y-13100D03*
G54D22*
X27325Y-21100D03*
G54D23*
X28325Y-21100D03*
X29325Y-21100D03*
X30325Y-21100D03*
X31325Y-21100D03*
X32325Y-21100D03*
G54D22*
X20325Y-21100D03*
G54D23*
X21325Y-21100D03*
X22325Y-21100D03*
X23325Y-21100D03*
X24325Y-21100D03*
X25325Y-21100D03*
G54D22*
X18675Y-11800D03*
G54D23*
X18675Y-10800D03*
X19675Y-11800D03*
X19675Y-10800D03*
X20675Y-11800D03*
X20675Y-10800D03*
G54D24*
X18725Y-21250D03*
M02*
