G04 (created by PCBNEW-RS274X (2011-12-28 BZR 3254)-stable) date 3/10/2012 5:09:00 PM*
G01*
G70*
G90*
%MOIN*%
G04 Gerber Fmt 3.4, Leading zero omitted, Abs format*
%FSLAX34Y34*%
G04 APERTURE LIST*
%ADD10C,0.006000*%
%ADD11C,0.010000*%
%ADD12C,0.040000*%
%ADD13R,0.030000X0.040000*%
%ADD14R,0.100000X0.260000*%
%ADD15R,0.260000X0.260000*%
%ADD16C,0.045000*%
%ADD17R,0.040000X0.080000*%
%ADD18R,0.080000X0.040000*%
%ADD19R,0.042000X0.056000*%
%ADD20R,0.023600X0.078700*%
%ADD21R,0.059000X0.051200*%
%ADD22R,0.060000X0.060000*%
%ADD23C,0.060000*%
%ADD24C,0.120000*%
%ADD25C,0.035000*%
%ADD26C,0.008000*%
G04 APERTURE END LIST*
G54D10*
G54D11*
X10000Y-10000D02*
X35000Y-10000D01*
X35000Y-22000D02*
X10000Y-22000D01*
X35000Y-10000D02*
X35000Y-22000D01*
X10000Y-22000D02*
X10000Y-10000D01*
G54D12*
X25325Y-19600D03*
X24325Y-19600D03*
X23325Y-19600D03*
X22325Y-19600D03*
X20325Y-19600D03*
X17675Y-13300D03*
X18675Y-13300D03*
X19675Y-13300D03*
X21325Y-19600D03*
X15875Y-18700D03*
X17350Y-21625D03*
X17475Y-18700D03*
X26325Y-21100D03*
G54D13*
X18825Y-15875D03*
X18825Y-17125D03*
X19225Y-17125D03*
X19225Y-15875D03*
G54D14*
X30725Y-15350D03*
X22525Y-15350D03*
G54D15*
X26625Y-15350D03*
G54D12*
X20675Y-13300D03*
G54D16*
X11600Y-19650D03*
X14750Y-19650D03*
G54D17*
X17450Y-19850D03*
X16450Y-21150D03*
X15450Y-19850D03*
X14450Y-21150D03*
G54D18*
X10800Y-14500D03*
X12100Y-15500D03*
X10800Y-16500D03*
X12100Y-17500D03*
G54D17*
X17450Y-10850D03*
X16450Y-12150D03*
X15450Y-10850D03*
X14450Y-12150D03*
G54D18*
X19800Y-14500D03*
X21100Y-15500D03*
X19800Y-16500D03*
X21100Y-17500D03*
G54D19*
X15975Y-13200D03*
X15175Y-13200D03*
G54D20*
X17475Y-17906D03*
X16975Y-17906D03*
X16475Y-17906D03*
X15975Y-17906D03*
X15475Y-17906D03*
X14975Y-17906D03*
X14475Y-17906D03*
X13975Y-17906D03*
X13975Y-14244D03*
X14475Y-14244D03*
X14975Y-14244D03*
X15475Y-14244D03*
X15975Y-14244D03*
X16475Y-14244D03*
X16975Y-14244D03*
X17475Y-14244D03*
G54D12*
X27325Y-19600D03*
X26325Y-19600D03*
G54D21*
X18400Y-17950D03*
X18400Y-18700D03*
G54D22*
X33900Y-15500D03*
G54D23*
X33900Y-14500D03*
X33900Y-13500D03*
X33900Y-12500D03*
X33900Y-11500D03*
X33900Y-10500D03*
G54D22*
X33900Y-21500D03*
G54D23*
X33900Y-20500D03*
X33900Y-19500D03*
X33900Y-18500D03*
X33900Y-17500D03*
X33900Y-16500D03*
G54D22*
X32325Y-19600D03*
G54D23*
X32325Y-18600D03*
X32325Y-17600D03*
X32325Y-16600D03*
X32325Y-15600D03*
X32325Y-14600D03*
G54D22*
X31125Y-12100D03*
G54D23*
X31125Y-13100D03*
G54D22*
X27325Y-21100D03*
G54D23*
X28325Y-21100D03*
X29325Y-21100D03*
X30325Y-21100D03*
X31325Y-21100D03*
X32325Y-21100D03*
G54D22*
X20325Y-21100D03*
G54D23*
X21325Y-21100D03*
X22325Y-21100D03*
X23325Y-21100D03*
X24325Y-21100D03*
X25325Y-21100D03*
G54D22*
X18675Y-11800D03*
G54D23*
X18675Y-10800D03*
X19675Y-11800D03*
X19675Y-10800D03*
X20675Y-11800D03*
X20675Y-10800D03*
G54D24*
X18725Y-21250D03*
G54D25*
X19350Y-13800D03*
X11150Y-17950D03*
X11150Y-17150D03*
X33000Y-12500D03*
X13075Y-16875D03*
X29925Y-13125D03*
X32350Y-10500D03*
X24375Y-12975D03*
X32650Y-11875D03*
X23000Y-12825D03*
X15500Y-15125D03*
X13325Y-14025D03*
X18075Y-14450D03*
X25150Y-18750D03*
X23900Y-13175D03*
X23450Y-16075D03*
X19075Y-14950D03*
X20850Y-18100D03*
X17950Y-13900D03*
X14950Y-15125D03*
X13800Y-12125D03*
X20875Y-14675D03*
X21625Y-16825D03*
X23350Y-15450D03*
X15975Y-21150D03*
X17200Y-16981D03*
X30400Y-18150D03*
X20075Y-18750D03*
X19075Y-17900D03*
X32225Y-13650D03*
X14925Y-21150D03*
X29400Y-18625D03*
X29400Y-19650D03*
X17475Y-14850D03*
X17075Y-15700D03*
X23025Y-16950D03*
X13325Y-18325D03*
X15450Y-21625D03*
X16200Y-17175D03*
X19800Y-15775D03*
X16875Y-16500D03*
X10375Y-17500D03*
X15575Y-15800D03*
X14450Y-12850D03*
X18425Y-19600D03*
X12950Y-14450D03*
X28025Y-11500D03*
X22675Y-13750D03*
X15975Y-14925D03*
X27775Y-13700D03*
X12775Y-17500D03*
X30525Y-17025D03*
G54D26*
X29625Y-11050D02*
X25300Y-11050D01*
X25050Y-13550D02*
X24875Y-13725D01*
X25050Y-11300D02*
X25050Y-13550D01*
X25300Y-11050D02*
X25050Y-11300D01*
X23125Y-13275D02*
X23575Y-13725D01*
X19350Y-13800D02*
X20950Y-13800D01*
X16575Y-20200D02*
X16300Y-20200D01*
X20950Y-13800D02*
X21475Y-13275D01*
X16050Y-19950D02*
X16050Y-19375D01*
X17825Y-20700D02*
X17075Y-20700D01*
X23575Y-13725D02*
X24875Y-13725D01*
X19650Y-21350D02*
X19650Y-20600D01*
X21325Y-21100D02*
X21325Y-21400D01*
X29925Y-13125D02*
X29925Y-11350D01*
X16050Y-19375D02*
X15925Y-19250D01*
X11425Y-16875D02*
X13075Y-16875D01*
X16300Y-20200D02*
X16050Y-19950D01*
X21475Y-13275D02*
X23125Y-13275D01*
X19975Y-21675D02*
X19650Y-21350D01*
X15250Y-19025D02*
X11600Y-19025D01*
X21050Y-21675D02*
X19975Y-21675D01*
X19300Y-20250D02*
X18275Y-20250D01*
X31825Y-11600D02*
X31575Y-11350D01*
X21325Y-21400D02*
X21050Y-21675D01*
X19650Y-20600D02*
X19300Y-20250D01*
X31825Y-12325D02*
X31825Y-11600D01*
X31575Y-11350D02*
X29925Y-11350D01*
X15925Y-19250D02*
X15475Y-19250D01*
X33000Y-12500D02*
X32000Y-12500D01*
X32000Y-12500D02*
X31825Y-12325D01*
X11150Y-18575D02*
X11150Y-17950D01*
X11150Y-17150D02*
X11425Y-16875D01*
X17075Y-20700D02*
X16575Y-20200D01*
X15475Y-19250D02*
X15250Y-19025D01*
X18275Y-20250D02*
X17825Y-20700D01*
X29625Y-11050D02*
X29925Y-11350D01*
X11600Y-19025D02*
X11150Y-18575D01*
X32300Y-10450D02*
X32350Y-10500D01*
X24375Y-10875D02*
X24800Y-10450D01*
X24800Y-10450D02*
X32300Y-10450D01*
X24375Y-12975D02*
X24375Y-10875D01*
X23450Y-13325D02*
X23650Y-13525D01*
X20825Y-12375D02*
X23300Y-12375D01*
X19675Y-13300D02*
X19900Y-13300D01*
X32650Y-11875D02*
X32300Y-11875D01*
X31950Y-10750D02*
X25175Y-10750D01*
X32300Y-11875D02*
X32125Y-11700D01*
X23650Y-13525D02*
X24575Y-13525D01*
X25175Y-10750D02*
X24800Y-11125D01*
X23450Y-12525D02*
X23450Y-13325D01*
X19900Y-13300D02*
X20825Y-12375D01*
X32125Y-10925D02*
X31950Y-10750D01*
X24800Y-13300D02*
X24575Y-13525D01*
X24800Y-11125D02*
X24800Y-13300D01*
X32125Y-11700D02*
X32125Y-10925D01*
X23300Y-12375D02*
X23450Y-12525D01*
X23000Y-12825D02*
X21150Y-12825D01*
X21150Y-12825D02*
X20675Y-13300D01*
X20175Y-12310D02*
X19985Y-12500D01*
X18075Y-14450D02*
X18425Y-14450D01*
X19675Y-10800D02*
X20175Y-11300D01*
X15500Y-15125D02*
X15500Y-15300D01*
X13325Y-14025D02*
X13325Y-15300D01*
X15500Y-15300D02*
X15275Y-15525D01*
X19175Y-12850D02*
X19525Y-12500D01*
X18850Y-13750D02*
X19175Y-13425D01*
X20175Y-11300D02*
X20175Y-12310D01*
X18425Y-14450D02*
X18850Y-14025D01*
X13550Y-15525D02*
X15275Y-15525D01*
X18850Y-14025D02*
X18850Y-13750D01*
X13325Y-15300D02*
X13550Y-15525D01*
X19525Y-12500D02*
X19985Y-12500D01*
X19175Y-13425D02*
X19175Y-12850D01*
X21050Y-20375D02*
X23575Y-20375D01*
X25150Y-18750D02*
X24025Y-18750D01*
X24025Y-18750D02*
X23825Y-18950D01*
X23575Y-20375D02*
X23825Y-20125D01*
X20675Y-11800D02*
X23650Y-11800D01*
X23900Y-12050D02*
X23900Y-13175D01*
X20325Y-21100D02*
X21050Y-20375D01*
X23650Y-11800D02*
X23900Y-12050D01*
X23825Y-20125D02*
X23825Y-18950D01*
X30325Y-17600D02*
X31325Y-17600D01*
X23450Y-17975D02*
X23625Y-18150D01*
X23450Y-16075D02*
X23450Y-17975D01*
X31325Y-17600D02*
X32325Y-16600D01*
X29775Y-18150D02*
X30325Y-17600D01*
X23625Y-18150D02*
X29775Y-18150D01*
X17950Y-13900D02*
X18050Y-13900D01*
X20450Y-15725D02*
X20725Y-16000D01*
X21225Y-16175D02*
X21225Y-16875D01*
X21225Y-16875D02*
X21075Y-17025D01*
X20300Y-17350D02*
X20300Y-17725D01*
X18050Y-13900D02*
X18200Y-13750D01*
X20725Y-16000D02*
X21050Y-16000D01*
X20300Y-17725D02*
X20675Y-18100D01*
X19675Y-11800D02*
X18975Y-12500D01*
X19075Y-14950D02*
X20225Y-14950D01*
X20625Y-17025D02*
X20300Y-17350D01*
X20225Y-14950D02*
X20450Y-15175D01*
X21050Y-16000D02*
X21225Y-16175D01*
X18475Y-12500D02*
X18975Y-12500D01*
X18200Y-12775D02*
X18475Y-12500D01*
X20675Y-18100D02*
X20850Y-18100D01*
X18200Y-13750D02*
X18200Y-12775D01*
X20450Y-15175D02*
X20450Y-15725D01*
X21075Y-17025D02*
X20625Y-17025D01*
X13800Y-12650D02*
X13675Y-12775D01*
X13850Y-15125D02*
X13675Y-14950D01*
X13675Y-12775D02*
X13675Y-14950D01*
X14950Y-15125D02*
X13850Y-15125D01*
X13800Y-12125D02*
X13800Y-12650D01*
X21625Y-16825D02*
X21625Y-16600D01*
X21775Y-16450D02*
X21775Y-15125D01*
X21625Y-16600D02*
X21775Y-16450D01*
X21775Y-15125D02*
X21325Y-14675D01*
X21325Y-14675D02*
X20875Y-14675D01*
X31775Y-16150D02*
X32325Y-15600D01*
X23775Y-17825D02*
X23775Y-15875D01*
X31775Y-16150D02*
X31775Y-16849D01*
X31274Y-17350D02*
X30100Y-17350D01*
X34450Y-16050D02*
X33900Y-15500D01*
X34450Y-17950D02*
X33900Y-18500D01*
X34450Y-17950D02*
X34450Y-16050D01*
X29500Y-17950D02*
X30100Y-17350D01*
X23900Y-17950D02*
X29500Y-17950D01*
X23775Y-17825D02*
X23900Y-17950D01*
X23775Y-15875D02*
X23350Y-15450D01*
X31775Y-16849D02*
X31274Y-17350D01*
X17475Y-17906D02*
X17475Y-18700D01*
X15975Y-21150D02*
X16450Y-21150D01*
X24825Y-19424D02*
X24825Y-19800D01*
X10675Y-15800D02*
X10400Y-15800D01*
X16200Y-16500D02*
X10800Y-16500D01*
X30400Y-18725D02*
X30400Y-18150D01*
X15975Y-10625D02*
X15975Y-10375D01*
X16975Y-17475D02*
X17200Y-17250D01*
X30400Y-18150D02*
X31775Y-18150D01*
X18400Y-17950D02*
X18400Y-17350D01*
X18031Y-16981D02*
X17200Y-16981D01*
X10250Y-12894D02*
X10250Y-15650D01*
X10400Y-15800D02*
X10250Y-15650D01*
X31775Y-18150D02*
X32325Y-17600D01*
X30050Y-19075D02*
X25174Y-19075D01*
X19225Y-18750D02*
X20075Y-18750D01*
X22325Y-21100D02*
X22825Y-20600D01*
X16681Y-16981D02*
X16200Y-16500D01*
X24825Y-19800D02*
X24025Y-20600D01*
X18132Y-10257D02*
X18675Y-10800D01*
X12294Y-10850D02*
X10250Y-12894D01*
X19075Y-18600D02*
X19225Y-18750D01*
X15450Y-10850D02*
X12294Y-10850D01*
X18132Y-10257D02*
X16093Y-10257D01*
X15450Y-10850D02*
X15750Y-10850D01*
X22825Y-20600D02*
X24025Y-20600D01*
X10800Y-16500D02*
X10800Y-15925D01*
X18400Y-17350D02*
X18031Y-16981D01*
X17200Y-16981D02*
X16681Y-16981D01*
X19075Y-17900D02*
X19075Y-18600D01*
X10800Y-15925D02*
X10675Y-15800D01*
X25174Y-19075D02*
X24825Y-19424D01*
X17200Y-17250D02*
X17200Y-16981D01*
X15750Y-10850D02*
X15975Y-10625D01*
X15975Y-10375D02*
X16093Y-10257D01*
X30050Y-19075D02*
X30400Y-18725D01*
X16975Y-17906D02*
X16975Y-17475D01*
X16475Y-14244D02*
X16475Y-14925D01*
X20300Y-14500D02*
X20675Y-14125D01*
X19800Y-14500D02*
X20300Y-14500D01*
X30725Y-14200D02*
X31275Y-13650D01*
X16250Y-13200D02*
X15975Y-13200D01*
X18073Y-15200D02*
X18773Y-14500D01*
X21300Y-14125D02*
X22525Y-15350D01*
X16475Y-14244D02*
X16475Y-13425D01*
X19800Y-14500D02*
X18773Y-14500D01*
X16750Y-15200D02*
X18073Y-15200D01*
X16475Y-14925D02*
X16750Y-15200D01*
X30725Y-15350D02*
X30725Y-14200D01*
X31275Y-13650D02*
X32225Y-13650D01*
X16475Y-13425D02*
X16250Y-13200D01*
X20675Y-14125D02*
X21300Y-14125D01*
X14925Y-21150D02*
X14450Y-21150D01*
X15975Y-17906D02*
X15975Y-18600D01*
X15975Y-18600D02*
X15875Y-18700D01*
X29825Y-21425D02*
X29825Y-20500D01*
X29200Y-18425D02*
X29400Y-18625D01*
X16450Y-12150D02*
X15050Y-12150D01*
X13150Y-11425D02*
X14725Y-11425D01*
X20175Y-15350D02*
X20175Y-15800D01*
X29200Y-18425D02*
X23025Y-18425D01*
X29400Y-19650D02*
X29400Y-20075D01*
X20100Y-15275D02*
X20175Y-15350D01*
X30050Y-21650D02*
X29825Y-21425D01*
X17550Y-15700D02*
X17075Y-15700D01*
X12643Y-15500D02*
X13368Y-16225D01*
X17550Y-15699D02*
X17749Y-15500D01*
X12100Y-15500D02*
X12100Y-12475D01*
X29825Y-20500D02*
X29400Y-20075D01*
X32125Y-21650D02*
X30050Y-21650D01*
X17550Y-15700D02*
X17550Y-15699D01*
X16275Y-15700D02*
X15750Y-16225D01*
X12100Y-15500D02*
X12643Y-15500D01*
X32325Y-21450D02*
X32125Y-21650D01*
X20675Y-18425D02*
X23025Y-18425D01*
X20175Y-15800D02*
X20600Y-16225D01*
X20050Y-17276D02*
X20050Y-17800D01*
X20600Y-16225D02*
X20600Y-16725D01*
X17475Y-14244D02*
X17475Y-14850D01*
X12100Y-12475D02*
X13150Y-11425D01*
X20300Y-17025D02*
X20301Y-17025D01*
X20600Y-16725D02*
X20300Y-17025D01*
X18400Y-15275D02*
X20100Y-15275D01*
X32325Y-21100D02*
X32325Y-21450D01*
X14925Y-11625D02*
X14725Y-11425D01*
X15050Y-12150D02*
X14925Y-12025D01*
X17749Y-15500D02*
X18175Y-15500D01*
X17075Y-15700D02*
X16275Y-15700D01*
X14925Y-12025D02*
X14925Y-11625D01*
X15750Y-16225D02*
X13368Y-16225D01*
X18175Y-15500D02*
X18400Y-15275D01*
X20050Y-17800D02*
X20675Y-18425D01*
X20301Y-17025D02*
X20050Y-17276D01*
X23025Y-16950D02*
X23025Y-18425D01*
X17450Y-10850D02*
X16950Y-10850D01*
X33350Y-19701D02*
X33350Y-10725D01*
X15150Y-11525D02*
X16475Y-11525D01*
X31500Y-20400D02*
X31325Y-20575D01*
X16725Y-11275D02*
X16475Y-11525D01*
X15150Y-11525D02*
X14850Y-11225D01*
X31325Y-21100D02*
X31325Y-20575D01*
X16950Y-10850D02*
X16725Y-11075D01*
X32651Y-20400D02*
X31500Y-20400D01*
X12725Y-11225D02*
X10800Y-13150D01*
X19025Y-11300D02*
X18275Y-11300D01*
X33350Y-10725D02*
X32806Y-10181D01*
X19175Y-10550D02*
X19175Y-11150D01*
X19175Y-11150D02*
X19025Y-11300D01*
X19544Y-10181D02*
X19175Y-10550D01*
X17450Y-12050D02*
X17450Y-10850D01*
X32651Y-20400D02*
X33350Y-19701D01*
X17450Y-10850D02*
X17825Y-10850D01*
X14850Y-11225D02*
X12725Y-11225D01*
X16975Y-12525D02*
X17450Y-12050D01*
X16725Y-11075D02*
X16725Y-11275D01*
X18275Y-11300D02*
X17825Y-10850D01*
X16975Y-14244D02*
X16975Y-12525D01*
X10800Y-14500D02*
X10800Y-13150D01*
X32806Y-10181D02*
X19544Y-10181D01*
X16875Y-19050D02*
X18050Y-19050D01*
X16475Y-17906D02*
X16475Y-17450D01*
X16475Y-17906D02*
X16475Y-18650D01*
X18050Y-19050D02*
X18400Y-18700D01*
X16200Y-17175D02*
X13575Y-17175D01*
X16475Y-18650D02*
X16875Y-19050D01*
X16475Y-17450D02*
X16200Y-17175D01*
X19800Y-16500D02*
X16875Y-16500D01*
X13325Y-17425D02*
X13325Y-18325D01*
X13575Y-17175D02*
X13325Y-17425D01*
X15450Y-19850D02*
X15450Y-21625D01*
X19800Y-16500D02*
X19800Y-15775D01*
X32325Y-19600D02*
X32325Y-19125D01*
X14475Y-14244D02*
X14475Y-13225D01*
X20475Y-18650D02*
X19375Y-17550D01*
X34700Y-14300D02*
X34700Y-19700D01*
X14975Y-14244D02*
X14975Y-13725D01*
X34700Y-19700D02*
X33900Y-20500D01*
X12100Y-17500D02*
X12775Y-17500D01*
X14975Y-17906D02*
X14975Y-18725D01*
X24575Y-20450D02*
X24325Y-20700D01*
X32675Y-18600D02*
X32925Y-18350D01*
X13800Y-18775D02*
X13975Y-18600D01*
X26625Y-15350D02*
X24025Y-15350D01*
X23525Y-14050D02*
X23225Y-13750D01*
X15475Y-18775D02*
X15475Y-18800D01*
X32325Y-18600D02*
X32675Y-18600D01*
X32925Y-13750D02*
X32275Y-13100D01*
X20475Y-18950D02*
X20475Y-18650D01*
X14100Y-13200D02*
X14450Y-13200D01*
X15175Y-13200D02*
X15175Y-13650D01*
X15175Y-13650D02*
X15050Y-13650D01*
X19375Y-17550D02*
X18900Y-17550D01*
X30500Y-19125D02*
X30350Y-19275D01*
X14450Y-12150D02*
X14450Y-12850D01*
X13975Y-17906D02*
X13975Y-18600D01*
X14475Y-13225D02*
X14450Y-13200D01*
X26325Y-20450D02*
X27350Y-20450D01*
X13975Y-14244D02*
X13975Y-13325D01*
X12775Y-17500D02*
X12775Y-18650D01*
X14450Y-13200D02*
X15175Y-13200D01*
X14450Y-12850D02*
X14450Y-13200D01*
X20350Y-19075D02*
X20475Y-18950D01*
X15025Y-18775D02*
X15475Y-18775D01*
X14125Y-18775D02*
X13975Y-18625D01*
X12900Y-18775D02*
X13800Y-18775D01*
X14475Y-18775D02*
X15025Y-18775D01*
X14975Y-18725D02*
X15025Y-18775D01*
X15475Y-18800D02*
X15725Y-19050D01*
X19675Y-19075D02*
X20350Y-19075D01*
X19150Y-19600D02*
X19675Y-19075D01*
X15475Y-17906D02*
X15475Y-18775D01*
X18425Y-19425D02*
X18300Y-19300D01*
X18425Y-19600D02*
X18425Y-19425D01*
X15725Y-19050D02*
X16150Y-19050D01*
X15975Y-14925D02*
X15975Y-14244D01*
X15400Y-13650D02*
X15175Y-13650D01*
X24325Y-21100D02*
X23325Y-21100D01*
X13400Y-15800D02*
X12950Y-15350D01*
X28025Y-12425D02*
X28025Y-11500D01*
X27775Y-12675D02*
X28025Y-12425D01*
X13975Y-18600D02*
X13975Y-18625D01*
X18825Y-17125D02*
X18825Y-17475D01*
X16400Y-19300D02*
X16150Y-19050D01*
X34700Y-14300D02*
X33900Y-13500D01*
X27775Y-13700D02*
X27775Y-12675D01*
X24325Y-20700D02*
X24325Y-21100D01*
X28525Y-19275D02*
X27350Y-20450D01*
X23525Y-14850D02*
X23525Y-14050D01*
X15575Y-15800D02*
X13400Y-15800D01*
X18425Y-19600D02*
X19150Y-19600D01*
X27775Y-14200D02*
X26625Y-15350D01*
X15475Y-14244D02*
X15475Y-13725D01*
X27775Y-13700D02*
X27775Y-14200D01*
X22675Y-13750D02*
X23225Y-13750D01*
X12775Y-18650D02*
X12900Y-18775D01*
X18900Y-17550D02*
X18825Y-17475D01*
X24025Y-15350D02*
X23525Y-14850D01*
X14975Y-13725D02*
X15050Y-13650D01*
X12950Y-14450D02*
X12950Y-15350D01*
X32925Y-18350D02*
X32925Y-13750D01*
X32275Y-13100D02*
X31125Y-13100D01*
X30350Y-19275D02*
X28525Y-19275D01*
X24575Y-20450D02*
X26325Y-20450D01*
X14475Y-17906D02*
X14475Y-18775D01*
X12100Y-17500D02*
X10375Y-17500D01*
X14125Y-18775D02*
X14475Y-18775D01*
X32325Y-19125D02*
X30500Y-19125D01*
X32325Y-19125D02*
X32325Y-18600D01*
X26325Y-19600D02*
X26325Y-20450D01*
X13975Y-13325D02*
X14100Y-13200D01*
X15475Y-13725D02*
X15400Y-13650D01*
X18300Y-19300D02*
X16400Y-19300D01*
X31275Y-17025D02*
X31550Y-16750D01*
X31550Y-16750D02*
X31550Y-15375D01*
X31550Y-15375D02*
X32325Y-14600D01*
X30525Y-17025D02*
X31275Y-17025D01*
M02*
