G04 (created by PCBNEW-RS274X (2011-03-30 BZR 2932)-stable) date 07/30/11 13:09:53*
G01*
G70*
G90*
%MOIN*%
G04 Gerber Fmt 3.4, Leading zero omitted, Abs format*
%FSLAX34Y34*%
G04 APERTURE LIST*
%ADD10C,0.006000*%
%ADD11C,0.015000*%
%ADD12O,0.220000X0.120000*%
%ADD13R,0.220000X0.120000*%
%ADD14O,0.120000X0.220000*%
%ADD15R,0.120000X0.220000*%
%ADD16O,0.140000X0.060000*%
%ADD17C,0.090000*%
%ADD18R,0.090000X0.090000*%
%ADD19O,0.120000X0.080000*%
%ADD20R,0.120000X0.080000*%
%ADD21C,0.160000*%
%ADD22O,0.080000X0.120000*%
%ADD23R,0.080000X0.120000*%
%ADD24C,0.100000*%
%ADD25O,0.110000X0.080000*%
%ADD26R,0.100000X0.100000*%
%ADD27R,0.080000X0.100000*%
%ADD28O,0.080000X0.100000*%
%ADD29R,0.080000X0.110000*%
%ADD30O,0.080000X0.110000*%
%ADD31C,0.220000*%
%ADD32R,0.100000X0.080000*%
%ADD33O,0.100000X0.080000*%
%ADD34R,0.260000X0.060000*%
%ADD35R,0.160000X0.120000*%
%ADD36R,0.260000X0.120000*%
%ADD37C,0.520000*%
%ADD38R,0.070000X0.220000*%
%ADD39R,0.260000X0.070000*%
%ADD40R,0.260000X0.085000*%
%ADD41O,0.140000X0.080000*%
%ADD42R,0.720000X0.520000*%
%ADD43R,0.140000X0.080000*%
G04 APERTURE END LIST*
G54D10*
G54D11*
X10000Y-100000D02*
X10000Y-10000D01*
X130000Y-100000D02*
X10000Y-100000D01*
X130000Y-10000D02*
X130000Y-100000D01*
X10000Y-10000D02*
X130000Y-10000D01*
G54D12*
X125500Y-19250D03*
G54D13*
X125500Y-21650D03*
G54D14*
X123600Y-20450D03*
X123100Y-23900D03*
G54D15*
X120700Y-23900D03*
G54D12*
X121900Y-22000D03*
G54D14*
X117375Y-95500D03*
G54D15*
X114975Y-95500D03*
G54D12*
X116175Y-93600D03*
G54D16*
X25380Y-20750D03*
X24620Y-20250D03*
X25380Y-19750D03*
X24620Y-19250D03*
X31380Y-20750D03*
X30620Y-20250D03*
X31380Y-19750D03*
X30620Y-19250D03*
X37380Y-20750D03*
X36620Y-20250D03*
X37380Y-19750D03*
X36620Y-19250D03*
X43380Y-20750D03*
X42620Y-20250D03*
X43380Y-19750D03*
X42620Y-19250D03*
X49380Y-20750D03*
X48620Y-20250D03*
X49380Y-19750D03*
X48620Y-19250D03*
X55380Y-20750D03*
X54620Y-20250D03*
X55380Y-19750D03*
X54620Y-19250D03*
X61380Y-20750D03*
X60620Y-20250D03*
X61380Y-19750D03*
X60620Y-19250D03*
X67380Y-20750D03*
X66620Y-20250D03*
X67380Y-19750D03*
X66620Y-19250D03*
X73380Y-20750D03*
X72620Y-20250D03*
X73380Y-19750D03*
X72620Y-19250D03*
X79380Y-20750D03*
X78620Y-20250D03*
X79380Y-19750D03*
X78620Y-19250D03*
X85380Y-20750D03*
X84620Y-20250D03*
X85380Y-19750D03*
X84620Y-19250D03*
X91380Y-20750D03*
X90620Y-20250D03*
X91380Y-19750D03*
X90620Y-19250D03*
X97380Y-20750D03*
X96620Y-20250D03*
X97380Y-19750D03*
X96620Y-19250D03*
X103380Y-20750D03*
X102620Y-20250D03*
X103380Y-19750D03*
X102620Y-19250D03*
X109380Y-20750D03*
X108620Y-20250D03*
X109380Y-19750D03*
X108620Y-19250D03*
X115380Y-20750D03*
X114620Y-20250D03*
X115380Y-19750D03*
X114620Y-19250D03*
X25380Y-26750D03*
X24620Y-26250D03*
X25380Y-25750D03*
X24620Y-25250D03*
X31380Y-26750D03*
X30620Y-26250D03*
X31380Y-25750D03*
X30620Y-25250D03*
X37380Y-26750D03*
X36620Y-26250D03*
X37380Y-25750D03*
X36620Y-25250D03*
X43380Y-26750D03*
X42620Y-26250D03*
X43380Y-25750D03*
X42620Y-25250D03*
X49380Y-26750D03*
X48620Y-26250D03*
X49380Y-25750D03*
X48620Y-25250D03*
X55380Y-26750D03*
X54620Y-26250D03*
X55380Y-25750D03*
X54620Y-25250D03*
X61380Y-26750D03*
X60620Y-26250D03*
X61380Y-25750D03*
X60620Y-25250D03*
X67380Y-26750D03*
X66620Y-26250D03*
X67380Y-25750D03*
X66620Y-25250D03*
X73380Y-26750D03*
X72620Y-26250D03*
X73380Y-25750D03*
X72620Y-25250D03*
X79380Y-26750D03*
X78620Y-26250D03*
X79380Y-25750D03*
X78620Y-25250D03*
X85380Y-26750D03*
X84620Y-26250D03*
X85380Y-25750D03*
X84620Y-25250D03*
X91380Y-26750D03*
X90620Y-26250D03*
X91380Y-25750D03*
X90620Y-25250D03*
X97380Y-26750D03*
X96620Y-26250D03*
X97380Y-25750D03*
X96620Y-25250D03*
X103380Y-26750D03*
X102620Y-26250D03*
X103380Y-25750D03*
X102620Y-25250D03*
X109380Y-26750D03*
X108620Y-26250D03*
X109380Y-25750D03*
X108620Y-25250D03*
X115380Y-26750D03*
X114620Y-26250D03*
X115380Y-25750D03*
X114620Y-25250D03*
X25380Y-32750D03*
X24620Y-32250D03*
X25380Y-31750D03*
X24620Y-31250D03*
X31380Y-32750D03*
X30620Y-32250D03*
X31380Y-31750D03*
X30620Y-31250D03*
X37380Y-32750D03*
X36620Y-32250D03*
X37380Y-31750D03*
X36620Y-31250D03*
X43380Y-32750D03*
X42620Y-32250D03*
X43380Y-31750D03*
X42620Y-31250D03*
X49380Y-32750D03*
X48620Y-32250D03*
X49380Y-31750D03*
X48620Y-31250D03*
X55380Y-32750D03*
X54620Y-32250D03*
X55380Y-31750D03*
X54620Y-31250D03*
X61380Y-32750D03*
X60620Y-32250D03*
X61380Y-31750D03*
X60620Y-31250D03*
X67380Y-32750D03*
X66620Y-32250D03*
X67380Y-31750D03*
X66620Y-31250D03*
X73380Y-32750D03*
X72620Y-32250D03*
X73380Y-31750D03*
X72620Y-31250D03*
X79380Y-32750D03*
X78620Y-32250D03*
X79380Y-31750D03*
X78620Y-31250D03*
X85380Y-32750D03*
X84620Y-32250D03*
X85380Y-31750D03*
X84620Y-31250D03*
X91380Y-32750D03*
X90620Y-32250D03*
X91380Y-31750D03*
X90620Y-31250D03*
X97380Y-32750D03*
X96620Y-32250D03*
X97380Y-31750D03*
X96620Y-31250D03*
X103380Y-32750D03*
X102620Y-32250D03*
X103380Y-31750D03*
X102620Y-31250D03*
X109380Y-32750D03*
X108620Y-32250D03*
X109380Y-31750D03*
X108620Y-31250D03*
X115380Y-32750D03*
X114620Y-32250D03*
X115380Y-31750D03*
X114620Y-31250D03*
X25380Y-38750D03*
X24620Y-38250D03*
X25380Y-37750D03*
X24620Y-37250D03*
X31380Y-38750D03*
X30620Y-38250D03*
X31380Y-37750D03*
X30620Y-37250D03*
X37380Y-38750D03*
X36620Y-38250D03*
X37380Y-37750D03*
X36620Y-37250D03*
X43380Y-38750D03*
X42620Y-38250D03*
X43380Y-37750D03*
X42620Y-37250D03*
X49380Y-38750D03*
X48620Y-38250D03*
X49380Y-37750D03*
X48620Y-37250D03*
X55380Y-38750D03*
X54620Y-38250D03*
X55380Y-37750D03*
X54620Y-37250D03*
X61380Y-38750D03*
X60620Y-38250D03*
X61380Y-37750D03*
X60620Y-37250D03*
X67380Y-38750D03*
X66620Y-38250D03*
X67380Y-37750D03*
X66620Y-37250D03*
X73380Y-38750D03*
X72620Y-38250D03*
X73380Y-37750D03*
X72620Y-37250D03*
X79380Y-38750D03*
X78620Y-38250D03*
X79380Y-37750D03*
X78620Y-37250D03*
X85380Y-38750D03*
X84620Y-38250D03*
X85380Y-37750D03*
X84620Y-37250D03*
X91380Y-38750D03*
X90620Y-38250D03*
X91380Y-37750D03*
X90620Y-37250D03*
X97380Y-38750D03*
X96620Y-38250D03*
X97380Y-37750D03*
X96620Y-37250D03*
X103380Y-38750D03*
X102620Y-38250D03*
X103380Y-37750D03*
X102620Y-37250D03*
X109380Y-38750D03*
X108620Y-38250D03*
X109380Y-37750D03*
X108620Y-37250D03*
X115380Y-38750D03*
X114620Y-38250D03*
X115380Y-37750D03*
X114620Y-37250D03*
X25380Y-44750D03*
X24620Y-44250D03*
X25380Y-43750D03*
X24620Y-43250D03*
X31380Y-44750D03*
X30620Y-44250D03*
X31380Y-43750D03*
X30620Y-43250D03*
X37380Y-44750D03*
X36620Y-44250D03*
X37380Y-43750D03*
X36620Y-43250D03*
X43380Y-44750D03*
X42620Y-44250D03*
X43380Y-43750D03*
X42620Y-43250D03*
X49380Y-44750D03*
X48620Y-44250D03*
X49380Y-43750D03*
X48620Y-43250D03*
X55380Y-44750D03*
X54620Y-44250D03*
X55380Y-43750D03*
X54620Y-43250D03*
X61380Y-44750D03*
X60620Y-44250D03*
X61380Y-43750D03*
X60620Y-43250D03*
X67380Y-44750D03*
X66620Y-44250D03*
X67380Y-43750D03*
X66620Y-43250D03*
X73380Y-44750D03*
X72620Y-44250D03*
X73380Y-43750D03*
X72620Y-43250D03*
X79380Y-44750D03*
X78620Y-44250D03*
X79380Y-43750D03*
X78620Y-43250D03*
X85380Y-44750D03*
X84620Y-44250D03*
X85380Y-43750D03*
X84620Y-43250D03*
X91380Y-44750D03*
X90620Y-44250D03*
X91380Y-43750D03*
X90620Y-43250D03*
X97380Y-44750D03*
X96620Y-44250D03*
X97380Y-43750D03*
X96620Y-43250D03*
X103380Y-44750D03*
X102620Y-44250D03*
X103380Y-43750D03*
X102620Y-43250D03*
X109380Y-44750D03*
X108620Y-44250D03*
X109380Y-43750D03*
X108620Y-43250D03*
X115380Y-44750D03*
X114620Y-44250D03*
X115380Y-43750D03*
X114620Y-43250D03*
X25380Y-50750D03*
X24620Y-50250D03*
X25380Y-49750D03*
X24620Y-49250D03*
X31380Y-50750D03*
X30620Y-50250D03*
X31380Y-49750D03*
X30620Y-49250D03*
X37380Y-50750D03*
X36620Y-50250D03*
X37380Y-49750D03*
X36620Y-49250D03*
X43380Y-50750D03*
X42620Y-50250D03*
X43380Y-49750D03*
X42620Y-49250D03*
X49380Y-50750D03*
X48620Y-50250D03*
X49380Y-49750D03*
X48620Y-49250D03*
X55380Y-50750D03*
X54620Y-50250D03*
X55380Y-49750D03*
X54620Y-49250D03*
X61380Y-50750D03*
X60620Y-50250D03*
X61380Y-49750D03*
X60620Y-49250D03*
X67380Y-50750D03*
X66620Y-50250D03*
X67380Y-49750D03*
X66620Y-49250D03*
X73380Y-50750D03*
X72620Y-50250D03*
X73380Y-49750D03*
X72620Y-49250D03*
X79380Y-50750D03*
X78620Y-50250D03*
X79380Y-49750D03*
X78620Y-49250D03*
X85380Y-50750D03*
X84620Y-50250D03*
X85380Y-49750D03*
X84620Y-49250D03*
X91380Y-50750D03*
X90620Y-50250D03*
X91380Y-49750D03*
X90620Y-49250D03*
X97380Y-50750D03*
X96620Y-50250D03*
X97380Y-49750D03*
X96620Y-49250D03*
X103380Y-50750D03*
X102620Y-50250D03*
X103380Y-49750D03*
X102620Y-49250D03*
X109380Y-50750D03*
X108620Y-50250D03*
X109380Y-49750D03*
X108620Y-49250D03*
X115380Y-50750D03*
X114620Y-50250D03*
X115380Y-49750D03*
X114620Y-49250D03*
X25380Y-56750D03*
X24620Y-56250D03*
X25380Y-55750D03*
X24620Y-55250D03*
X31380Y-56750D03*
X30620Y-56250D03*
X31380Y-55750D03*
X30620Y-55250D03*
X37380Y-56750D03*
X36620Y-56250D03*
X37380Y-55750D03*
X36620Y-55250D03*
X43380Y-56750D03*
X42620Y-56250D03*
X43380Y-55750D03*
X42620Y-55250D03*
X49380Y-56750D03*
X48620Y-56250D03*
X49380Y-55750D03*
X48620Y-55250D03*
X55380Y-56750D03*
X54620Y-56250D03*
X55380Y-55750D03*
X54620Y-55250D03*
X61380Y-56750D03*
X60620Y-56250D03*
X61380Y-55750D03*
X60620Y-55250D03*
X67380Y-56750D03*
X66620Y-56250D03*
X67380Y-55750D03*
X66620Y-55250D03*
X73380Y-56750D03*
X72620Y-56250D03*
X73380Y-55750D03*
X72620Y-55250D03*
X79380Y-56750D03*
X78620Y-56250D03*
X79380Y-55750D03*
X78620Y-55250D03*
X85380Y-56750D03*
X84620Y-56250D03*
X85380Y-55750D03*
X84620Y-55250D03*
X91380Y-56750D03*
X90620Y-56250D03*
X91380Y-55750D03*
X90620Y-55250D03*
X97380Y-56750D03*
X96620Y-56250D03*
X97380Y-55750D03*
X96620Y-55250D03*
X103380Y-56750D03*
X102620Y-56250D03*
X103380Y-55750D03*
X102620Y-55250D03*
X109380Y-56750D03*
X108620Y-56250D03*
X109380Y-55750D03*
X108620Y-55250D03*
X115380Y-56750D03*
X114620Y-56250D03*
X115380Y-55750D03*
X114620Y-55250D03*
X25380Y-62750D03*
X24620Y-62250D03*
X25380Y-61750D03*
X24620Y-61250D03*
X31380Y-62750D03*
X30620Y-62250D03*
X31380Y-61750D03*
X30620Y-61250D03*
X37380Y-62750D03*
X36620Y-62250D03*
X37380Y-61750D03*
X36620Y-61250D03*
X43380Y-62750D03*
X42620Y-62250D03*
X43380Y-61750D03*
X42620Y-61250D03*
X49380Y-62750D03*
X48620Y-62250D03*
X49380Y-61750D03*
X48620Y-61250D03*
X55380Y-62750D03*
X54620Y-62250D03*
X55380Y-61750D03*
X54620Y-61250D03*
X61380Y-62750D03*
X60620Y-62250D03*
X61380Y-61750D03*
X60620Y-61250D03*
X67380Y-62750D03*
X66620Y-62250D03*
X67380Y-61750D03*
X66620Y-61250D03*
X73380Y-62750D03*
X72620Y-62250D03*
X73380Y-61750D03*
X72620Y-61250D03*
X79380Y-62750D03*
X78620Y-62250D03*
X79380Y-61750D03*
X78620Y-61250D03*
X85380Y-62750D03*
X84620Y-62250D03*
X85380Y-61750D03*
X84620Y-61250D03*
X91380Y-62750D03*
X90620Y-62250D03*
X91380Y-61750D03*
X90620Y-61250D03*
X97380Y-62750D03*
X96620Y-62250D03*
X97380Y-61750D03*
X96620Y-61250D03*
X103380Y-62750D03*
X102620Y-62250D03*
X103380Y-61750D03*
X102620Y-61250D03*
X109380Y-62750D03*
X108620Y-62250D03*
X109380Y-61750D03*
X108620Y-61250D03*
X115380Y-62750D03*
X114620Y-62250D03*
X115380Y-61750D03*
X114620Y-61250D03*
X25380Y-68750D03*
X24620Y-68250D03*
X25380Y-67750D03*
X24620Y-67250D03*
X31380Y-68750D03*
X30620Y-68250D03*
X31380Y-67750D03*
X30620Y-67250D03*
X37380Y-68750D03*
X36620Y-68250D03*
X37380Y-67750D03*
X36620Y-67250D03*
X43380Y-68750D03*
X42620Y-68250D03*
X43380Y-67750D03*
X42620Y-67250D03*
X49380Y-68750D03*
X48620Y-68250D03*
X49380Y-67750D03*
X48620Y-67250D03*
X55380Y-68750D03*
X54620Y-68250D03*
X55380Y-67750D03*
X54620Y-67250D03*
X61380Y-68750D03*
X60620Y-68250D03*
X61380Y-67750D03*
X60620Y-67250D03*
X67380Y-68750D03*
X66620Y-68250D03*
X67380Y-67750D03*
X66620Y-67250D03*
X73380Y-68750D03*
X72620Y-68250D03*
X73380Y-67750D03*
X72620Y-67250D03*
X79380Y-68750D03*
X78620Y-68250D03*
X79380Y-67750D03*
X78620Y-67250D03*
X85380Y-68750D03*
X84620Y-68250D03*
X85380Y-67750D03*
X84620Y-67250D03*
X91380Y-68750D03*
X90620Y-68250D03*
X91380Y-67750D03*
X90620Y-67250D03*
X97380Y-68750D03*
X96620Y-68250D03*
X97380Y-67750D03*
X96620Y-67250D03*
X103380Y-68750D03*
X102620Y-68250D03*
X103380Y-67750D03*
X102620Y-67250D03*
X109380Y-68750D03*
X108620Y-68250D03*
X109380Y-67750D03*
X108620Y-67250D03*
X115380Y-68750D03*
X114620Y-68250D03*
X115380Y-67750D03*
X114620Y-67250D03*
X25380Y-74750D03*
X24620Y-74250D03*
X25380Y-73750D03*
X24620Y-73250D03*
X31380Y-74750D03*
X30620Y-74250D03*
X31380Y-73750D03*
X30620Y-73250D03*
X37380Y-74750D03*
X36620Y-74250D03*
X37380Y-73750D03*
X36620Y-73250D03*
X43380Y-74750D03*
X42620Y-74250D03*
X43380Y-73750D03*
X42620Y-73250D03*
X49380Y-74750D03*
X48620Y-74250D03*
X49380Y-73750D03*
X48620Y-73250D03*
X55380Y-74750D03*
X54620Y-74250D03*
X55380Y-73750D03*
X54620Y-73250D03*
X61380Y-74750D03*
X60620Y-74250D03*
X61380Y-73750D03*
X60620Y-73250D03*
X67380Y-74750D03*
X66620Y-74250D03*
X67380Y-73750D03*
X66620Y-73250D03*
X73380Y-74750D03*
X72620Y-74250D03*
X73380Y-73750D03*
X72620Y-73250D03*
X79380Y-74750D03*
X78620Y-74250D03*
X79380Y-73750D03*
X78620Y-73250D03*
X85380Y-74750D03*
X84620Y-74250D03*
X85380Y-73750D03*
X84620Y-73250D03*
X91380Y-74750D03*
X90620Y-74250D03*
X91380Y-73750D03*
X90620Y-73250D03*
X97380Y-74750D03*
X96620Y-74250D03*
X97380Y-73750D03*
X96620Y-73250D03*
X103380Y-74750D03*
X102620Y-74250D03*
X103380Y-73750D03*
X102620Y-73250D03*
X109380Y-74750D03*
X108620Y-74250D03*
X109380Y-73750D03*
X108620Y-73250D03*
X115380Y-74750D03*
X114620Y-74250D03*
X115380Y-73750D03*
X114620Y-73250D03*
G54D17*
X128500Y-64750D03*
X128500Y-66750D03*
X128500Y-65750D03*
X121500Y-63750D03*
X123500Y-63750D03*
G54D18*
X123500Y-38825D03*
G54D17*
X123500Y-37825D03*
G54D18*
X126150Y-28250D03*
G54D17*
X126150Y-29250D03*
G54D19*
X128250Y-91250D03*
X128250Y-90250D03*
X128250Y-89250D03*
G54D20*
X128250Y-88250D03*
G54D21*
X16000Y-72500D03*
X16000Y-37000D03*
G54D20*
X13000Y-88250D03*
G54D19*
X13000Y-89250D03*
X13000Y-90250D03*
X13000Y-91250D03*
G54D22*
X22000Y-94000D03*
X23000Y-94000D03*
G54D23*
X24000Y-94000D03*
G54D22*
X25000Y-94000D03*
X26000Y-94000D03*
X27000Y-94000D03*
G54D18*
X31250Y-96250D03*
G54D17*
X31250Y-97250D03*
X30250Y-96250D03*
X30250Y-97250D03*
X29250Y-96250D03*
X29250Y-97250D03*
G54D20*
X56250Y-92750D03*
G54D19*
X56250Y-91750D03*
G54D22*
X103500Y-91000D03*
G54D23*
X104500Y-91000D03*
G54D22*
X105500Y-91000D03*
X106500Y-91000D03*
X107500Y-91000D03*
X108500Y-91000D03*
X109500Y-91000D03*
X110500Y-91000D03*
X123500Y-83000D03*
X124500Y-83000D03*
G54D23*
X125500Y-83000D03*
G54D22*
X126500Y-83000D03*
X128475Y-37825D03*
G54D23*
X127475Y-37825D03*
G54D22*
X126475Y-37825D03*
X24500Y-91600D03*
X25500Y-91600D03*
X26500Y-91600D03*
G54D24*
X43000Y-97500D03*
G54D17*
X79625Y-97250D03*
X81375Y-97250D03*
G54D24*
X79125Y-96250D03*
X81875Y-96250D03*
G54D17*
X18125Y-97250D03*
X19875Y-97250D03*
G54D24*
X17625Y-96250D03*
X20375Y-96250D03*
G54D17*
X58625Y-97250D03*
X60375Y-97250D03*
G54D24*
X58125Y-96250D03*
X60875Y-96250D03*
G54D17*
X65625Y-97250D03*
X67375Y-97250D03*
G54D24*
X65125Y-96250D03*
X67875Y-96250D03*
G54D17*
X72625Y-97250D03*
X74375Y-97250D03*
G54D24*
X72125Y-96250D03*
X74875Y-96250D03*
G54D25*
X25000Y-79500D03*
X25000Y-80500D03*
X31000Y-79500D03*
X31000Y-80500D03*
X37000Y-79500D03*
X37000Y-80500D03*
X43000Y-79500D03*
X43000Y-80500D03*
X49000Y-79500D03*
X49000Y-80500D03*
X55000Y-79500D03*
X55000Y-80500D03*
X61000Y-79500D03*
X61000Y-80500D03*
X67000Y-79500D03*
X67000Y-80500D03*
X73000Y-79500D03*
X73000Y-80500D03*
X79000Y-79500D03*
X79000Y-80500D03*
X85000Y-79500D03*
X85000Y-80500D03*
X91000Y-79500D03*
X91000Y-80500D03*
X97000Y-79500D03*
X97000Y-80500D03*
X103000Y-79500D03*
X103000Y-80500D03*
X109000Y-79500D03*
X109000Y-80500D03*
X115000Y-79500D03*
X115000Y-80500D03*
X25000Y-85500D03*
X25000Y-86500D03*
X31000Y-85500D03*
X31000Y-86500D03*
X37000Y-85500D03*
X37000Y-86500D03*
X43000Y-85500D03*
X43000Y-86500D03*
X49000Y-85500D03*
X49000Y-86500D03*
X55000Y-85500D03*
X55000Y-86500D03*
X61000Y-85500D03*
X61000Y-86500D03*
X67000Y-85500D03*
X67000Y-86500D03*
X73000Y-85500D03*
X73000Y-86500D03*
X79000Y-85500D03*
X79000Y-86500D03*
X85000Y-85500D03*
X85000Y-86500D03*
X91000Y-85500D03*
X91000Y-86500D03*
X97000Y-85500D03*
X97000Y-86500D03*
X103000Y-85500D03*
X103000Y-86500D03*
X109000Y-85500D03*
X109000Y-86500D03*
X115000Y-85500D03*
X115000Y-86500D03*
G54D26*
X52000Y-95300D03*
G54D24*
X52000Y-92300D03*
X52000Y-93300D03*
G54D23*
X124900Y-43900D03*
G54D22*
X125900Y-43900D03*
G54D27*
X40250Y-98475D03*
G54D28*
X41250Y-98475D03*
G54D20*
X19000Y-83000D03*
G54D19*
X19000Y-82000D03*
X19000Y-81000D03*
X19000Y-80000D03*
X19000Y-79000D03*
X19000Y-78000D03*
X19000Y-77000D03*
X19000Y-76000D03*
X19000Y-75000D03*
X19000Y-74000D03*
X19000Y-73000D03*
X19000Y-72000D03*
X13000Y-72000D03*
X13000Y-73000D03*
X13000Y-74000D03*
X13000Y-75000D03*
X13000Y-76000D03*
X13000Y-77000D03*
X13000Y-78000D03*
X13000Y-79000D03*
X13000Y-80000D03*
X13000Y-81000D03*
X13000Y-82000D03*
X13000Y-83000D03*
G54D20*
X13000Y-26500D03*
G54D19*
X13000Y-27500D03*
X13000Y-28500D03*
X13000Y-29500D03*
X13000Y-30500D03*
X13000Y-31500D03*
X13000Y-32500D03*
X13000Y-33500D03*
X13000Y-34500D03*
X13000Y-35500D03*
X13000Y-36500D03*
X13000Y-37500D03*
X19000Y-37500D03*
X19000Y-36500D03*
X19000Y-35500D03*
X19000Y-34500D03*
X19000Y-33500D03*
X19000Y-32500D03*
X19000Y-31500D03*
X19000Y-30500D03*
X19000Y-29500D03*
X19000Y-28500D03*
X19000Y-27500D03*
X19000Y-26500D03*
G54D29*
X95250Y-91500D03*
G54D30*
X94250Y-91500D03*
X93250Y-91500D03*
X92250Y-91500D03*
X91250Y-91500D03*
X90250Y-91500D03*
X89250Y-91500D03*
X88250Y-91500D03*
X87250Y-91500D03*
X86250Y-91500D03*
X85250Y-91500D03*
X84250Y-91500D03*
X84250Y-97500D03*
X85250Y-97500D03*
X86250Y-97500D03*
X87250Y-97500D03*
X88250Y-97500D03*
X89250Y-97500D03*
X90250Y-97500D03*
X91250Y-97500D03*
X92250Y-97500D03*
X93250Y-97500D03*
X94250Y-97500D03*
X95250Y-97500D03*
G54D17*
X110000Y-96250D03*
X111000Y-96250D03*
X112000Y-96250D03*
G54D18*
X112000Y-95250D03*
X111000Y-95250D03*
X110000Y-95250D03*
G54D17*
X107000Y-96250D03*
X108000Y-96250D03*
X109000Y-96250D03*
G54D18*
X109000Y-95250D03*
X108000Y-95250D03*
X107000Y-95250D03*
G54D17*
X104000Y-96250D03*
X105000Y-96250D03*
X106000Y-96250D03*
G54D18*
X106000Y-95250D03*
X105000Y-95250D03*
X104000Y-95250D03*
G54D17*
X101000Y-96250D03*
X102000Y-96250D03*
X103000Y-96250D03*
G54D18*
X103000Y-95250D03*
X102000Y-95250D03*
X101000Y-95250D03*
G54D17*
X111000Y-97250D03*
X111000Y-98250D03*
X111000Y-99250D03*
X112000Y-99250D03*
X112000Y-98250D03*
X112000Y-97250D03*
X109000Y-97250D03*
X109000Y-98250D03*
X109000Y-99250D03*
X110000Y-99250D03*
X110000Y-98250D03*
X110000Y-97250D03*
X107000Y-97250D03*
X107000Y-98250D03*
X107000Y-99250D03*
X108000Y-99250D03*
X108000Y-98250D03*
X108000Y-97250D03*
X105000Y-97250D03*
X105000Y-98250D03*
X105000Y-99250D03*
X106000Y-99250D03*
X106000Y-98250D03*
X106000Y-97250D03*
X103000Y-97250D03*
X103000Y-98250D03*
X103000Y-99250D03*
X104000Y-99250D03*
X104000Y-98250D03*
X104000Y-97250D03*
X101000Y-97250D03*
X101000Y-98250D03*
X101000Y-99250D03*
X102000Y-99250D03*
X102000Y-98250D03*
X102000Y-97250D03*
X112000Y-94250D03*
X112000Y-93250D03*
X112000Y-92250D03*
X111000Y-92250D03*
X111000Y-93250D03*
X111000Y-94250D03*
X110000Y-94250D03*
X110000Y-93250D03*
X110000Y-92250D03*
X109000Y-92250D03*
X109000Y-93250D03*
X109000Y-94250D03*
X108000Y-94250D03*
X108000Y-93250D03*
X108000Y-92250D03*
X107000Y-92250D03*
X107000Y-93250D03*
X107000Y-94250D03*
X106000Y-94250D03*
X106000Y-93250D03*
X106000Y-92250D03*
X105000Y-92250D03*
X105000Y-93250D03*
X105000Y-94250D03*
X104000Y-94250D03*
X104000Y-93250D03*
X104000Y-92250D03*
X103000Y-92250D03*
X103000Y-93250D03*
X103000Y-94250D03*
X102000Y-94250D03*
X102000Y-93250D03*
X102000Y-92250D03*
X101000Y-92250D03*
X101000Y-93250D03*
X101000Y-94250D03*
G54D31*
X129000Y-73500D03*
X120000Y-73500D03*
X129000Y-83500D03*
X120000Y-83500D03*
G54D29*
X46750Y-93000D03*
G54D30*
X45750Y-93000D03*
X44750Y-93000D03*
X43750Y-93000D03*
X42750Y-93000D03*
X41750Y-93000D03*
X40750Y-93000D03*
X39750Y-93000D03*
X38750Y-93000D03*
X37750Y-93000D03*
X36750Y-93000D03*
X35750Y-93000D03*
X34750Y-93000D03*
X33750Y-93000D03*
X33750Y-96000D03*
X34750Y-96000D03*
X35750Y-96000D03*
X36750Y-96000D03*
X37750Y-96000D03*
X38750Y-96000D03*
X39750Y-96000D03*
X40750Y-96000D03*
X41750Y-96000D03*
X42750Y-96000D03*
X43750Y-96000D03*
X44750Y-96000D03*
X45750Y-96000D03*
X46750Y-96000D03*
G54D17*
X42750Y-91750D03*
X40750Y-91750D03*
X97250Y-93750D03*
X97250Y-95750D03*
X31000Y-92750D03*
X31000Y-90750D03*
X123950Y-28250D03*
X123950Y-30250D03*
X39250Y-91750D03*
X37250Y-91750D03*
X38250Y-91750D03*
G54D31*
X11500Y-11500D03*
X40750Y-11500D03*
X70000Y-11500D03*
X99250Y-11500D03*
X128500Y-11500D03*
X128500Y-40500D03*
X128500Y-69500D03*
X128500Y-98500D03*
X99250Y-98500D03*
X70000Y-98500D03*
X11500Y-98500D03*
X11500Y-69500D03*
X11500Y-40500D03*
G54D23*
X123500Y-74000D03*
G54D22*
X124500Y-74000D03*
X125500Y-74000D03*
X126500Y-74000D03*
G54D32*
X24750Y-12750D03*
G54D33*
X24750Y-13750D03*
X24750Y-14750D03*
G54D32*
X30250Y-12750D03*
G54D33*
X30250Y-13750D03*
X30250Y-14750D03*
G54D32*
X36250Y-12750D03*
G54D33*
X36250Y-13750D03*
X36250Y-14750D03*
G54D32*
X43000Y-12750D03*
G54D33*
X43000Y-13750D03*
X43000Y-14750D03*
G54D32*
X49000Y-12750D03*
G54D33*
X49000Y-13750D03*
X49000Y-14750D03*
G54D32*
X55000Y-12750D03*
G54D33*
X55000Y-13750D03*
X55000Y-14750D03*
G54D32*
X61000Y-12750D03*
G54D33*
X61000Y-13750D03*
X61000Y-14750D03*
G54D32*
X66250Y-12750D03*
G54D33*
X66250Y-13750D03*
X66250Y-14750D03*
G54D32*
X73750Y-12750D03*
G54D33*
X73750Y-13750D03*
X73750Y-14750D03*
G54D32*
X79000Y-12750D03*
G54D33*
X79000Y-13750D03*
X79000Y-14750D03*
G54D32*
X85000Y-12750D03*
G54D33*
X85000Y-13750D03*
X85000Y-14750D03*
G54D32*
X91000Y-12750D03*
G54D33*
X91000Y-13750D03*
X91000Y-14750D03*
G54D32*
X95750Y-12750D03*
G54D33*
X95750Y-13750D03*
X95750Y-14750D03*
G54D32*
X103000Y-12750D03*
G54D33*
X103000Y-13750D03*
X103000Y-14750D03*
G54D32*
X109000Y-12750D03*
G54D33*
X109000Y-13750D03*
X109000Y-14750D03*
G54D32*
X115000Y-12750D03*
G54D33*
X115000Y-13750D03*
X115000Y-14750D03*
G54D32*
X55750Y-95575D03*
G54D33*
X55750Y-96575D03*
X55750Y-97575D03*
G54D34*
X124450Y-60950D03*
X124450Y-51900D03*
G54D35*
X123950Y-61725D03*
G54D36*
X124450Y-51125D03*
G54D37*
X124450Y-56425D03*
G54D38*
X119450Y-56425D03*
X129450Y-56425D03*
G54D35*
X124950Y-61725D03*
G54D39*
X124450Y-62575D03*
X124450Y-50275D03*
G54D40*
X124450Y-60350D03*
X124450Y-52500D03*
G54D15*
X120300Y-56425D03*
X128600Y-56425D03*
G54D41*
X120420Y-34750D03*
X120420Y-32750D03*
G54D42*
X125500Y-33750D03*
G54D43*
X121050Y-33750D03*
G54D17*
X118800Y-28250D03*
X122800Y-28250D03*
G54D20*
X11500Y-18000D03*
G54D19*
X11500Y-17000D03*
X11500Y-16000D03*
G54D17*
X121500Y-66750D03*
X124500Y-66750D03*
X121500Y-65750D03*
X124500Y-65750D03*
X121500Y-64750D03*
X124500Y-64750D03*
X47250Y-97500D03*
X44250Y-97500D03*
X48750Y-98500D03*
X51750Y-98500D03*
X37750Y-98250D03*
X34750Y-98250D03*
X52750Y-98500D03*
X55750Y-98500D03*
X51750Y-97500D03*
X48750Y-97500D03*
X27250Y-14750D03*
X27250Y-11750D03*
X33250Y-14750D03*
X33250Y-11750D03*
X38500Y-14750D03*
X38500Y-11750D03*
X45250Y-14750D03*
X45250Y-11750D03*
X51250Y-14750D03*
X51250Y-11750D03*
X57250Y-14750D03*
X57250Y-11750D03*
X63250Y-14750D03*
X63250Y-11750D03*
X72250Y-14750D03*
X72250Y-11750D03*
X76250Y-14750D03*
X76250Y-11750D03*
X81250Y-14750D03*
X81250Y-11750D03*
X87250Y-14750D03*
X87250Y-11750D03*
X93250Y-14750D03*
X93250Y-11750D03*
X101500Y-14750D03*
X101500Y-11750D03*
X105250Y-14750D03*
X105250Y-11750D03*
X111250Y-14750D03*
X111250Y-11750D03*
X22750Y-14750D03*
X22750Y-11750D03*
X123475Y-43900D03*
X120475Y-43900D03*
X44250Y-98500D03*
X47250Y-98500D03*
X43750Y-91750D03*
X46750Y-91750D03*
X59500Y-93250D03*
X62500Y-93250D03*
X65500Y-93250D03*
X68500Y-93250D03*
X71500Y-93250D03*
X74500Y-93250D03*
X77500Y-93250D03*
X80500Y-93250D03*
M02*
