G04 (created by PCBNEW-RS274X (2011-03-30 BZR 2932)-stable) date 07/30/11 13:10:33*
G01*
G70*
G90*
%MOIN*%
G04 Gerber Fmt 3.4, Leading zero omitted, Abs format*
%FSLAX34Y34*%
G04 APERTURE LIST*
%ADD10C,0.006000*%
%ADD11C,0.060000*%
%ADD12C,0.300000*%
%ADD13C,0.600000*%
%ADD14C,0.010000*%
%ADD15C,0.008000*%
%ADD16C,0.015000*%
%ADD17O,0.220000X0.120000*%
%ADD18R,0.220000X0.120000*%
%ADD19O,0.120000X0.220000*%
%ADD20R,0.120000X0.220000*%
%ADD21O,0.140000X0.060000*%
%ADD22R,0.040000X0.065000*%
%ADD23R,0.191000X0.051400*%
%ADD24C,0.090000*%
%ADD25R,0.090000X0.090000*%
%ADD26O,0.120000X0.080000*%
%ADD27R,0.120000X0.080000*%
%ADD28C,0.160000*%
%ADD29O,0.080000X0.120000*%
%ADD30R,0.080000X0.120000*%
%ADD31C,0.100000*%
%ADD32O,0.110000X0.080000*%
%ADD33R,0.100000X0.100000*%
%ADD34R,0.080000X0.100000*%
%ADD35O,0.080000X0.100000*%
%ADD36R,0.080000X0.110000*%
%ADD37O,0.080000X0.110000*%
%ADD38C,0.220000*%
%ADD39R,0.100000X0.080000*%
%ADD40O,0.100000X0.080000*%
%ADD41R,0.160000X0.120000*%
%ADD42R,0.260000X0.120000*%
%ADD43R,0.260000X0.085000*%
%ADD44O,0.140000X0.080000*%
%ADD45R,0.140000X0.080000*%
%ADD46R,0.080000X0.080000*%
G04 APERTURE END LIST*
G54D10*
G54D11*
X47492Y-28389D02*
X46921Y-30389D01*
X46350Y-28961D01*
X45778Y-30389D01*
X45207Y-28389D01*
X44349Y-28389D02*
X43635Y-30389D01*
X42921Y-28389D02*
X43635Y-30389D01*
X43921Y-31104D01*
X44064Y-31246D01*
X44349Y-31389D01*
X41349Y-30389D02*
X41635Y-30246D01*
X41778Y-30104D01*
X41921Y-29818D01*
X41921Y-28961D01*
X41778Y-28675D01*
X41635Y-28532D01*
X41349Y-28389D01*
X40921Y-28389D01*
X40635Y-28532D01*
X40492Y-28675D01*
X40349Y-28961D01*
X40349Y-29818D01*
X40492Y-30104D01*
X40635Y-30246D01*
X40921Y-30389D01*
X41349Y-30389D01*
X38635Y-30389D02*
X38921Y-30246D01*
X39064Y-29961D01*
X39064Y-27389D01*
X36207Y-28389D02*
X36207Y-30389D01*
X37493Y-28389D02*
X37493Y-29961D01*
X37350Y-30246D01*
X37064Y-30389D01*
X36636Y-30389D01*
X36350Y-30246D01*
X36207Y-30104D01*
X34779Y-30389D02*
X34779Y-28389D01*
X34779Y-28675D02*
X34636Y-28532D01*
X34350Y-28389D01*
X33922Y-28389D01*
X33636Y-28532D01*
X33493Y-28818D01*
X33493Y-30389D01*
X33493Y-28818D02*
X33350Y-28532D01*
X33064Y-28389D01*
X32636Y-28389D01*
X32350Y-28532D01*
X32207Y-28818D01*
X32207Y-30389D01*
X30779Y-30104D02*
X30636Y-30246D01*
X30779Y-30389D01*
X30922Y-30246D01*
X30779Y-30104D01*
X30779Y-30389D01*
X28064Y-30246D02*
X28350Y-30389D01*
X28921Y-30389D01*
X29207Y-30246D01*
X29350Y-30104D01*
X29493Y-29818D01*
X29493Y-28961D01*
X29350Y-28675D01*
X29207Y-28532D01*
X28921Y-28389D01*
X28350Y-28389D01*
X28064Y-28532D01*
X26350Y-30389D02*
X26636Y-30246D01*
X26779Y-30104D01*
X26922Y-29818D01*
X26922Y-28961D01*
X26779Y-28675D01*
X26636Y-28532D01*
X26350Y-28389D01*
X25922Y-28389D01*
X25636Y-28532D01*
X25493Y-28675D01*
X25350Y-28961D01*
X25350Y-29818D01*
X25493Y-30104D01*
X25636Y-30246D01*
X25922Y-30389D01*
X26350Y-30389D01*
X24065Y-30389D02*
X24065Y-28389D01*
X24065Y-28675D02*
X23922Y-28532D01*
X23636Y-28389D01*
X23208Y-28389D01*
X22922Y-28532D01*
X22779Y-28818D01*
X22779Y-30389D01*
X22779Y-28818D02*
X22636Y-28532D01*
X22350Y-28389D01*
X21922Y-28389D01*
X21636Y-28532D01*
X21493Y-28818D01*
X21493Y-30389D01*
X47467Y-22539D02*
X46753Y-24539D01*
X46039Y-22539D01*
X45039Y-21825D02*
X44896Y-21682D01*
X44610Y-21539D01*
X43896Y-21539D01*
X43610Y-21682D01*
X43467Y-21825D01*
X43324Y-22111D01*
X43324Y-22396D01*
X43467Y-22825D01*
X45181Y-24539D01*
X43324Y-24539D01*
X45942Y-18254D02*
X46085Y-18396D01*
X46514Y-18539D01*
X46800Y-18539D01*
X47228Y-18396D01*
X47514Y-18111D01*
X47657Y-17825D01*
X47800Y-17254D01*
X47800Y-16825D01*
X47657Y-16254D01*
X47514Y-15968D01*
X47228Y-15682D01*
X46800Y-15539D01*
X46514Y-15539D01*
X46085Y-15682D01*
X45942Y-15825D01*
X44228Y-18539D02*
X44514Y-18396D01*
X44657Y-18111D01*
X44657Y-15539D01*
X42657Y-18539D02*
X42943Y-18396D01*
X43086Y-18254D01*
X43229Y-17968D01*
X43229Y-17111D01*
X43086Y-16825D01*
X42943Y-16682D01*
X42657Y-16539D01*
X42229Y-16539D01*
X41943Y-16682D01*
X41800Y-16825D01*
X41657Y-17111D01*
X41657Y-17968D01*
X41800Y-18254D01*
X41943Y-18396D01*
X42229Y-18539D01*
X42657Y-18539D01*
X39086Y-18396D02*
X39372Y-18539D01*
X39943Y-18539D01*
X40229Y-18396D01*
X40372Y-18254D01*
X40515Y-17968D01*
X40515Y-17111D01*
X40372Y-16825D01*
X40229Y-16682D01*
X39943Y-16539D01*
X39372Y-16539D01*
X39086Y-16682D01*
X37801Y-18539D02*
X37801Y-15539D01*
X37515Y-17396D02*
X36658Y-18539D01*
X36658Y-16539D02*
X37801Y-17682D01*
X35800Y-15539D02*
X34086Y-15539D01*
X34943Y-18539D02*
X34943Y-15539D01*
X33086Y-18539D02*
X33086Y-15539D01*
X33086Y-16968D02*
X31371Y-16968D01*
X31371Y-18539D02*
X31371Y-15539D01*
X28228Y-18539D02*
X29228Y-17111D01*
X29943Y-18539D02*
X29943Y-15539D01*
X28800Y-15539D01*
X28514Y-15682D01*
X28371Y-15825D01*
X28228Y-16111D01*
X28228Y-16539D01*
X28371Y-16825D01*
X28514Y-16968D01*
X28800Y-17111D01*
X29943Y-17111D01*
X26943Y-16968D02*
X25943Y-16968D01*
X25514Y-18539D02*
X26943Y-18539D01*
X26943Y-15539D01*
X25514Y-15539D01*
X24229Y-16968D02*
X23229Y-16968D01*
X22800Y-18539D02*
X24229Y-18539D01*
X24229Y-15539D01*
X22800Y-15539D01*
G54D12*
X62000Y-43000D02*
X61973Y-42390D01*
X61893Y-41785D01*
X61761Y-41189D01*
X61577Y-40606D01*
X61344Y-40042D01*
X61062Y-39500D01*
X60734Y-38985D01*
X60362Y-38501D01*
X59949Y-38051D01*
X59499Y-37638D01*
X59015Y-37266D01*
X58500Y-36938D01*
X57958Y-36656D01*
X57394Y-36423D01*
X56811Y-36239D01*
X56215Y-36107D01*
X55610Y-36027D01*
X55000Y-36000D01*
X54390Y-36027D01*
X53785Y-36107D01*
X53189Y-36239D01*
X52606Y-36423D01*
X52042Y-36656D01*
X51500Y-36938D01*
X50985Y-37266D01*
X50501Y-37638D01*
X50051Y-38051D01*
X49638Y-38501D01*
X49266Y-38985D01*
X48938Y-39501D01*
X48656Y-40042D01*
X48423Y-40606D01*
X48239Y-41189D01*
X48107Y-41785D01*
X48027Y-42390D01*
X48000Y-43000D01*
X48027Y-43610D01*
X48107Y-44215D01*
X48239Y-44811D01*
X48423Y-45394D01*
X48656Y-45958D01*
X48938Y-46499D01*
X49266Y-47015D01*
X49638Y-47499D01*
X50051Y-47949D01*
X50501Y-48362D01*
X50985Y-48734D01*
X51501Y-49062D01*
X52042Y-49344D01*
X52606Y-49577D01*
X53189Y-49761D01*
X53785Y-49893D01*
X54390Y-49973D01*
X55000Y-50000D01*
X55000Y-50000D02*
X54129Y-50039D01*
X53264Y-50152D01*
X52412Y-50341D01*
X51580Y-50604D01*
X50774Y-50937D01*
X50000Y-51340D01*
X49265Y-51809D01*
X48573Y-52340D01*
X47929Y-52929D01*
X47340Y-53573D01*
X46809Y-54265D01*
X46340Y-55001D01*
X45937Y-55774D01*
X45604Y-56580D01*
X45341Y-57412D01*
X45152Y-58264D01*
X45039Y-59129D01*
X45000Y-60000D01*
X45039Y-60871D01*
X45152Y-61736D01*
X45341Y-62588D01*
X45604Y-63420D01*
X45937Y-64226D01*
X46340Y-64999D01*
X46809Y-65735D01*
X47340Y-66427D01*
X47929Y-67071D01*
X48573Y-67660D01*
X49265Y-68191D01*
X50001Y-68660D01*
X50774Y-69063D01*
X51580Y-69396D01*
X52412Y-69659D01*
X53264Y-69848D01*
X54129Y-69961D01*
X55000Y-70000D01*
X55871Y-69961D01*
X56736Y-69848D01*
X57588Y-69659D01*
X58420Y-69396D01*
X59226Y-69063D01*
X60000Y-68660D01*
X60735Y-68191D01*
X61427Y-67660D01*
X62071Y-67071D01*
X62660Y-66427D01*
X63191Y-65735D01*
X63660Y-64999D01*
X64063Y-64226D01*
X64396Y-63420D01*
X64659Y-62588D01*
X64848Y-61736D01*
X64961Y-60871D01*
X65000Y-60000D01*
G54D13*
X35000Y-55000D02*
X35134Y-58050D01*
X35532Y-61077D01*
X36193Y-64058D01*
X37111Y-66970D01*
X38280Y-69791D01*
X39690Y-72499D01*
X41330Y-75075D01*
X43189Y-77497D01*
X45252Y-79748D01*
X47503Y-81811D01*
X49925Y-83670D01*
X52501Y-85310D01*
X55209Y-86720D01*
X58030Y-87889D01*
X60942Y-88807D01*
X63923Y-89468D01*
X66950Y-89866D01*
X70000Y-90000D01*
X73050Y-89866D01*
X76077Y-89468D01*
X79058Y-88807D01*
X81970Y-87889D01*
X84791Y-86720D01*
X87500Y-85310D01*
X90075Y-83670D01*
X92497Y-81811D01*
X94748Y-79748D01*
X96811Y-77497D01*
X98670Y-75075D01*
X100310Y-72499D01*
X101720Y-69791D01*
X102889Y-66970D01*
X103807Y-64058D01*
X104468Y-61077D01*
X104866Y-58050D01*
X105000Y-55000D01*
X104866Y-51950D01*
X104468Y-48923D01*
X103807Y-45942D01*
X102889Y-43030D01*
X101720Y-40209D01*
X100310Y-37501D01*
X98670Y-34925D01*
X96811Y-32503D01*
X94748Y-30252D01*
X92497Y-28189D01*
X90075Y-26330D01*
X87500Y-24690D01*
X84791Y-23280D01*
X81970Y-22111D01*
X79058Y-21193D01*
X76077Y-20532D01*
X73050Y-20134D01*
X70000Y-20000D01*
G54D12*
X12000Y-60000D02*
X19000Y-60000D01*
G54D14*
X70000Y-55000D02*
X70000Y-56000D01*
X70000Y-55000D02*
X70000Y-54000D01*
X70000Y-55000D02*
X71000Y-55000D01*
X70000Y-55000D02*
X69000Y-55000D01*
X70250Y-55000D02*
X70245Y-55048D01*
X70231Y-55095D01*
X70208Y-55138D01*
X70177Y-55176D01*
X70139Y-55207D01*
X70096Y-55230D01*
X70050Y-55244D01*
X70001Y-55249D01*
X69954Y-55245D01*
X69907Y-55231D01*
X69864Y-55209D01*
X69826Y-55178D01*
X69794Y-55141D01*
X69771Y-55098D01*
X69756Y-55051D01*
X69751Y-55003D01*
X69755Y-54955D01*
X69768Y-54908D01*
X69790Y-54865D01*
X69821Y-54827D01*
X69858Y-54795D01*
X69900Y-54771D01*
X69947Y-54756D01*
X69995Y-54751D01*
X70043Y-54754D01*
X70090Y-54767D01*
X70133Y-54789D01*
X70172Y-54819D01*
X70204Y-54856D01*
X70228Y-54899D01*
X70243Y-54945D01*
X70249Y-54994D01*
X70250Y-55000D01*
G54D15*
X127757Y-78002D02*
X128043Y-78002D01*
X127900Y-78002D02*
X127900Y-77502D01*
X127948Y-77574D01*
X127995Y-77621D01*
X128043Y-77645D01*
X122927Y-76568D02*
X122927Y-76282D01*
X122927Y-76425D02*
X122427Y-76425D01*
X122499Y-76377D01*
X122546Y-76330D01*
X122570Y-76282D01*
G54D16*
X10000Y-100000D02*
X10000Y-10000D01*
X130000Y-100000D02*
X10000Y-100000D01*
X130000Y-10000D02*
X130000Y-100000D01*
X10000Y-10000D02*
X130000Y-10000D01*
G54D14*
X122900Y-77325D02*
X122899Y-77334D01*
X122896Y-77344D01*
X122891Y-77352D01*
X122885Y-77360D01*
X122877Y-77366D01*
X122869Y-77371D01*
X122860Y-77373D01*
X122850Y-77374D01*
X122841Y-77374D01*
X122832Y-77371D01*
X122823Y-77366D01*
X122816Y-77360D01*
X122809Y-77353D01*
X122805Y-77344D01*
X122802Y-77335D01*
X122801Y-77325D01*
X122801Y-77316D01*
X122804Y-77307D01*
X122808Y-77298D01*
X122815Y-77291D01*
X122822Y-77284D01*
X122830Y-77280D01*
X122840Y-77277D01*
X122849Y-77276D01*
X122858Y-77276D01*
X122868Y-77279D01*
X122876Y-77283D01*
X122884Y-77289D01*
X122890Y-77297D01*
X122895Y-77305D01*
X122898Y-77314D01*
X122899Y-77324D01*
X122900Y-77325D01*
X123000Y-77325D02*
X122997Y-77354D01*
X122988Y-77382D01*
X122974Y-77408D01*
X122956Y-77430D01*
X122933Y-77449D01*
X122908Y-77463D01*
X122880Y-77471D01*
X122851Y-77474D01*
X122822Y-77472D01*
X122794Y-77464D01*
X122768Y-77450D01*
X122746Y-77432D01*
X122727Y-77409D01*
X122713Y-77384D01*
X122704Y-77356D01*
X122701Y-77327D01*
X122703Y-77298D01*
X122711Y-77270D01*
X122724Y-77244D01*
X122743Y-77221D01*
X122765Y-77202D01*
X122790Y-77188D01*
X122818Y-77179D01*
X122847Y-77176D01*
X122876Y-77178D01*
X122904Y-77186D01*
X122930Y-77199D01*
X122953Y-77217D01*
X122972Y-77239D01*
X122987Y-77264D01*
X122996Y-77292D01*
X122999Y-77321D01*
X123000Y-77325D01*
X122850Y-76950D02*
X122475Y-77325D01*
X127525Y-76950D02*
X122475Y-76950D01*
X122475Y-80100D02*
X127525Y-80100D01*
X122475Y-76950D02*
X122475Y-80100D01*
X127525Y-80100D02*
X127525Y-76950D01*
X126500Y-77500D02*
X126200Y-77200D01*
X125000Y-77400D02*
X125017Y-77399D01*
X125034Y-77396D01*
X125051Y-77393D01*
X125068Y-77387D01*
X125084Y-77381D01*
X125100Y-77373D01*
X125114Y-77363D01*
X125128Y-77353D01*
X125141Y-77341D01*
X125153Y-77328D01*
X125163Y-77314D01*
X125173Y-77299D01*
X125181Y-77284D01*
X125187Y-77268D01*
X125193Y-77251D01*
X125196Y-77234D01*
X125199Y-77217D01*
X125200Y-77200D01*
X124800Y-77200D02*
X124801Y-77217D01*
X124804Y-77234D01*
X124807Y-77251D01*
X124813Y-77268D01*
X124819Y-77284D01*
X124827Y-77299D01*
X124837Y-77314D01*
X124847Y-77328D01*
X124859Y-77341D01*
X124872Y-77353D01*
X124886Y-77363D01*
X124900Y-77373D01*
X124916Y-77381D01*
X124932Y-77387D01*
X124949Y-77393D01*
X124966Y-77396D01*
X124983Y-77399D01*
X125000Y-77400D01*
X125000Y-79875D02*
X126500Y-79875D01*
X126500Y-79875D02*
X126500Y-79500D01*
X125000Y-79875D02*
X123500Y-79875D01*
X123500Y-79875D02*
X123500Y-79500D01*
X125000Y-77200D02*
X126500Y-77200D01*
X126500Y-77200D02*
X126500Y-77500D01*
X125000Y-77200D02*
X123500Y-77200D01*
X123500Y-77200D02*
X123500Y-77500D01*
X125000Y-77700D02*
X125017Y-77699D01*
X125034Y-77696D01*
X125051Y-77693D01*
X125068Y-77687D01*
X125084Y-77681D01*
X125100Y-77673D01*
X125114Y-77663D01*
X125128Y-77653D01*
X125141Y-77641D01*
X125153Y-77628D01*
X125163Y-77614D01*
X125173Y-77599D01*
X125181Y-77584D01*
X125187Y-77568D01*
X125193Y-77551D01*
X125196Y-77534D01*
X125199Y-77517D01*
X125200Y-77500D01*
X124800Y-77500D02*
X124801Y-77517D01*
X124804Y-77534D01*
X124807Y-77551D01*
X124813Y-77568D01*
X124819Y-77584D01*
X124827Y-77599D01*
X124837Y-77614D01*
X124847Y-77628D01*
X124859Y-77641D01*
X124872Y-77653D01*
X124886Y-77663D01*
X124900Y-77673D01*
X124916Y-77681D01*
X124932Y-77687D01*
X124949Y-77693D01*
X124966Y-77696D01*
X124983Y-77699D01*
X125000Y-77700D01*
X124575Y-78500D02*
X124575Y-77500D01*
X125000Y-77500D02*
X125425Y-77500D01*
X125425Y-77500D02*
X125425Y-78500D01*
X125425Y-78500D02*
X125425Y-79500D01*
X125425Y-79500D02*
X125000Y-79500D01*
X125000Y-79500D02*
X124575Y-79500D01*
X124575Y-79500D02*
X124575Y-78500D01*
X124575Y-77500D02*
X125000Y-77500D01*
G54D16*
X129250Y-98500D02*
X129235Y-98645D01*
X129193Y-98785D01*
X129124Y-98915D01*
X129032Y-99028D01*
X128919Y-99121D01*
X128790Y-99191D01*
X128650Y-99234D01*
X128505Y-99249D01*
X128360Y-99236D01*
X128220Y-99195D01*
X128090Y-99127D01*
X127976Y-99035D01*
X127882Y-98923D01*
X127811Y-98795D01*
X127767Y-98655D01*
X127751Y-98510D01*
X127763Y-98365D01*
X127803Y-98224D01*
X127870Y-98094D01*
X127961Y-97980D01*
X128072Y-97885D01*
X128200Y-97813D01*
X128339Y-97768D01*
X128485Y-97751D01*
X128630Y-97762D01*
X128771Y-97801D01*
X128901Y-97867D01*
X129017Y-97957D01*
X129112Y-98068D01*
X129185Y-98195D01*
X129231Y-98334D01*
X129249Y-98480D01*
X129250Y-98500D01*
X129250Y-11500D02*
X129235Y-11645D01*
X129193Y-11785D01*
X129124Y-11915D01*
X129032Y-12028D01*
X128919Y-12121D01*
X128790Y-12191D01*
X128650Y-12234D01*
X128505Y-12249D01*
X128360Y-12236D01*
X128220Y-12195D01*
X128090Y-12127D01*
X127976Y-12035D01*
X127882Y-11923D01*
X127811Y-11795D01*
X127767Y-11655D01*
X127751Y-11510D01*
X127763Y-11365D01*
X127803Y-11224D01*
X127870Y-11094D01*
X127961Y-10980D01*
X128072Y-10885D01*
X128200Y-10813D01*
X128339Y-10768D01*
X128485Y-10751D01*
X128630Y-10762D01*
X128771Y-10801D01*
X128901Y-10867D01*
X129017Y-10957D01*
X129112Y-11068D01*
X129185Y-11195D01*
X129231Y-11334D01*
X129249Y-11480D01*
X129250Y-11500D01*
X12250Y-98500D02*
X12235Y-98645D01*
X12193Y-98785D01*
X12124Y-98915D01*
X12032Y-99028D01*
X11919Y-99121D01*
X11790Y-99191D01*
X11650Y-99234D01*
X11505Y-99249D01*
X11360Y-99236D01*
X11220Y-99195D01*
X11090Y-99127D01*
X10976Y-99035D01*
X10882Y-98923D01*
X10811Y-98795D01*
X10767Y-98655D01*
X10751Y-98510D01*
X10763Y-98365D01*
X10803Y-98224D01*
X10870Y-98094D01*
X10961Y-97980D01*
X11072Y-97885D01*
X11200Y-97813D01*
X11339Y-97768D01*
X11485Y-97751D01*
X11630Y-97762D01*
X11771Y-97801D01*
X11901Y-97867D01*
X12017Y-97957D01*
X12112Y-98068D01*
X12185Y-98195D01*
X12231Y-98334D01*
X12249Y-98480D01*
X12250Y-98500D01*
X12250Y-11500D02*
X12235Y-11645D01*
X12193Y-11785D01*
X12124Y-11915D01*
X12032Y-12028D01*
X11919Y-12121D01*
X11790Y-12191D01*
X11650Y-12234D01*
X11505Y-12249D01*
X11360Y-12236D01*
X11220Y-12195D01*
X11090Y-12127D01*
X10976Y-12035D01*
X10882Y-11923D01*
X10811Y-11795D01*
X10767Y-11655D01*
X10751Y-11510D01*
X10763Y-11365D01*
X10803Y-11224D01*
X10870Y-11094D01*
X10961Y-10980D01*
X11072Y-10885D01*
X11200Y-10813D01*
X11339Y-10768D01*
X11485Y-10751D01*
X11630Y-10762D01*
X11771Y-10801D01*
X11901Y-10867D01*
X12017Y-10957D01*
X12112Y-11068D01*
X12185Y-11195D01*
X12231Y-11334D01*
X12249Y-11480D01*
X12250Y-11500D01*
G54D15*
X121593Y-75718D02*
X122079Y-75718D01*
X122136Y-75746D01*
X122164Y-75775D01*
X122193Y-75832D01*
X122193Y-75946D01*
X122164Y-76004D01*
X122136Y-76032D01*
X122079Y-76061D01*
X121593Y-76061D01*
X122193Y-76661D02*
X122193Y-76318D01*
X122193Y-76490D02*
X121593Y-76490D01*
X121679Y-76433D01*
X121736Y-76375D01*
X121764Y-76318D01*
X122193Y-76891D02*
X121593Y-76891D01*
X121593Y-77034D01*
X121621Y-77119D01*
X121679Y-77177D01*
X121736Y-77205D01*
X121850Y-77234D01*
X121936Y-77234D01*
X122050Y-77205D01*
X122107Y-77177D01*
X122164Y-77119D01*
X122193Y-77034D01*
X122193Y-76891D01*
X122164Y-77462D02*
X122193Y-77548D01*
X122193Y-77691D01*
X122164Y-77748D01*
X122136Y-77777D01*
X122079Y-77805D01*
X122021Y-77805D01*
X121964Y-77777D01*
X121936Y-77748D01*
X121907Y-77691D01*
X121879Y-77577D01*
X121850Y-77519D01*
X121821Y-77491D01*
X121764Y-77462D01*
X121707Y-77462D01*
X121650Y-77491D01*
X121621Y-77519D01*
X121593Y-77577D01*
X121593Y-77719D01*
X121621Y-77805D01*
X121593Y-78005D02*
X121593Y-78376D01*
X121821Y-78176D01*
X121821Y-78262D01*
X121850Y-78319D01*
X121879Y-78348D01*
X121936Y-78376D01*
X122079Y-78376D01*
X122136Y-78348D01*
X122164Y-78319D01*
X122193Y-78262D01*
X122193Y-78090D01*
X122164Y-78033D01*
X122136Y-78005D01*
X121650Y-78604D02*
X121621Y-78633D01*
X121593Y-78690D01*
X121593Y-78833D01*
X121621Y-78890D01*
X121650Y-78919D01*
X121707Y-78947D01*
X121764Y-78947D01*
X121850Y-78919D01*
X122193Y-78576D01*
X122193Y-78947D01*
X121593Y-79147D02*
X121593Y-79518D01*
X121821Y-79318D01*
X121821Y-79404D01*
X121850Y-79461D01*
X121879Y-79490D01*
X121936Y-79518D01*
X122079Y-79518D01*
X122136Y-79490D01*
X122164Y-79461D01*
X122193Y-79404D01*
X122193Y-79232D01*
X122164Y-79175D01*
X122136Y-79147D01*
X122193Y-80089D02*
X122193Y-79746D01*
X122193Y-79918D02*
X121593Y-79918D01*
X121679Y-79861D01*
X121736Y-79803D01*
X121764Y-79746D01*
X128810Y-77318D02*
X128810Y-76718D01*
X128181Y-77261D02*
X128210Y-77289D01*
X128296Y-77318D01*
X128353Y-77318D01*
X128438Y-77289D01*
X128496Y-77232D01*
X128524Y-77175D01*
X128553Y-77061D01*
X128553Y-76975D01*
X128524Y-76861D01*
X128496Y-76804D01*
X128438Y-76746D01*
X128353Y-76718D01*
X128296Y-76718D01*
X128210Y-76746D01*
X128181Y-76775D01*
X127610Y-77318D02*
X127953Y-77318D01*
X127781Y-77318D02*
X127781Y-76718D01*
X127838Y-76804D01*
X127896Y-76861D01*
X127953Y-76889D01*
X126609Y-76043D02*
X126609Y-75443D01*
X126466Y-75443D01*
X126381Y-75471D01*
X126323Y-75529D01*
X126295Y-75586D01*
X126266Y-75700D01*
X126266Y-75786D01*
X126295Y-75900D01*
X126323Y-75957D01*
X126381Y-76014D01*
X126466Y-76043D01*
X126609Y-76043D01*
X126038Y-76014D02*
X125952Y-76043D01*
X125809Y-76043D01*
X125752Y-76014D01*
X125723Y-75986D01*
X125695Y-75929D01*
X125695Y-75871D01*
X125723Y-75814D01*
X125752Y-75786D01*
X125809Y-75757D01*
X125923Y-75729D01*
X125981Y-75700D01*
X126009Y-75671D01*
X126038Y-75614D01*
X126038Y-75557D01*
X126009Y-75500D01*
X125981Y-75471D01*
X125923Y-75443D01*
X125781Y-75443D01*
X125695Y-75471D01*
X125124Y-76043D02*
X125467Y-76043D01*
X125295Y-76043D02*
X125295Y-75443D01*
X125352Y-75529D01*
X125410Y-75586D01*
X125467Y-75614D01*
X124924Y-75443D02*
X124553Y-75443D01*
X124753Y-75671D01*
X124667Y-75671D01*
X124610Y-75700D01*
X124581Y-75729D01*
X124553Y-75786D01*
X124553Y-75929D01*
X124581Y-75986D01*
X124610Y-76014D01*
X124667Y-76043D01*
X124839Y-76043D01*
X124896Y-76014D01*
X124924Y-75986D01*
X124182Y-75443D02*
X124125Y-75443D01*
X124068Y-75471D01*
X124039Y-75500D01*
X124010Y-75557D01*
X123982Y-75671D01*
X123982Y-75814D01*
X124010Y-75929D01*
X124039Y-75986D01*
X124068Y-76014D01*
X124125Y-76043D01*
X124182Y-76043D01*
X124239Y-76014D01*
X124268Y-75986D01*
X124296Y-75929D01*
X124325Y-75814D01*
X124325Y-75671D01*
X124296Y-75557D01*
X124268Y-75500D01*
X124239Y-75471D01*
X124182Y-75443D01*
X123782Y-75443D02*
X123382Y-75443D01*
X123639Y-76043D01*
%LPC*%
G54D17*
X125500Y-19250D03*
G54D18*
X125500Y-21650D03*
G54D19*
X123600Y-20450D03*
X123100Y-23900D03*
G54D20*
X120700Y-23900D03*
G54D17*
X121900Y-22000D03*
G54D19*
X117375Y-95500D03*
G54D20*
X114975Y-95500D03*
G54D17*
X116175Y-93600D03*
G54D21*
X25380Y-20750D03*
X24620Y-20250D03*
X25380Y-19750D03*
X24620Y-19250D03*
X31380Y-20750D03*
X30620Y-20250D03*
X31380Y-19750D03*
X30620Y-19250D03*
X37380Y-20750D03*
X36620Y-20250D03*
X37380Y-19750D03*
X36620Y-19250D03*
X43380Y-20750D03*
X42620Y-20250D03*
X43380Y-19750D03*
X42620Y-19250D03*
X49380Y-20750D03*
X48620Y-20250D03*
X49380Y-19750D03*
X48620Y-19250D03*
X55380Y-20750D03*
X54620Y-20250D03*
X55380Y-19750D03*
X54620Y-19250D03*
X61380Y-20750D03*
X60620Y-20250D03*
X61380Y-19750D03*
X60620Y-19250D03*
X67380Y-20750D03*
X66620Y-20250D03*
X67380Y-19750D03*
X66620Y-19250D03*
X73380Y-20750D03*
X72620Y-20250D03*
X73380Y-19750D03*
X72620Y-19250D03*
X79380Y-20750D03*
X78620Y-20250D03*
X79380Y-19750D03*
X78620Y-19250D03*
X85380Y-20750D03*
X84620Y-20250D03*
X85380Y-19750D03*
X84620Y-19250D03*
X91380Y-20750D03*
X90620Y-20250D03*
X91380Y-19750D03*
X90620Y-19250D03*
X97380Y-20750D03*
X96620Y-20250D03*
X97380Y-19750D03*
X96620Y-19250D03*
X103380Y-20750D03*
X102620Y-20250D03*
X103380Y-19750D03*
X102620Y-19250D03*
X109380Y-20750D03*
X108620Y-20250D03*
X109380Y-19750D03*
X108620Y-19250D03*
X115380Y-20750D03*
X114620Y-20250D03*
X115380Y-19750D03*
X114620Y-19250D03*
X25380Y-26750D03*
X24620Y-26250D03*
X25380Y-25750D03*
X24620Y-25250D03*
X31380Y-26750D03*
X30620Y-26250D03*
X31380Y-25750D03*
X30620Y-25250D03*
X37380Y-26750D03*
X36620Y-26250D03*
X37380Y-25750D03*
X36620Y-25250D03*
X43380Y-26750D03*
X42620Y-26250D03*
X43380Y-25750D03*
X42620Y-25250D03*
X49380Y-26750D03*
X48620Y-26250D03*
X49380Y-25750D03*
X48620Y-25250D03*
X55380Y-26750D03*
X54620Y-26250D03*
X55380Y-25750D03*
X54620Y-25250D03*
X61380Y-26750D03*
X60620Y-26250D03*
X61380Y-25750D03*
X60620Y-25250D03*
X67380Y-26750D03*
X66620Y-26250D03*
X67380Y-25750D03*
X66620Y-25250D03*
X73380Y-26750D03*
X72620Y-26250D03*
X73380Y-25750D03*
X72620Y-25250D03*
X79380Y-26750D03*
X78620Y-26250D03*
X79380Y-25750D03*
X78620Y-25250D03*
X85380Y-26750D03*
X84620Y-26250D03*
X85380Y-25750D03*
X84620Y-25250D03*
X91380Y-26750D03*
X90620Y-26250D03*
X91380Y-25750D03*
X90620Y-25250D03*
X97380Y-26750D03*
X96620Y-26250D03*
X97380Y-25750D03*
X96620Y-25250D03*
X103380Y-26750D03*
X102620Y-26250D03*
X103380Y-25750D03*
X102620Y-25250D03*
X109380Y-26750D03*
X108620Y-26250D03*
X109380Y-25750D03*
X108620Y-25250D03*
X115380Y-26750D03*
X114620Y-26250D03*
X115380Y-25750D03*
X114620Y-25250D03*
X25380Y-32750D03*
X24620Y-32250D03*
X25380Y-31750D03*
X24620Y-31250D03*
X31380Y-32750D03*
X30620Y-32250D03*
X31380Y-31750D03*
X30620Y-31250D03*
X37380Y-32750D03*
X36620Y-32250D03*
X37380Y-31750D03*
X36620Y-31250D03*
X43380Y-32750D03*
X42620Y-32250D03*
X43380Y-31750D03*
X42620Y-31250D03*
X49380Y-32750D03*
X48620Y-32250D03*
X49380Y-31750D03*
X48620Y-31250D03*
X55380Y-32750D03*
X54620Y-32250D03*
X55380Y-31750D03*
X54620Y-31250D03*
X61380Y-32750D03*
X60620Y-32250D03*
X61380Y-31750D03*
X60620Y-31250D03*
X67380Y-32750D03*
X66620Y-32250D03*
X67380Y-31750D03*
X66620Y-31250D03*
X73380Y-32750D03*
X72620Y-32250D03*
X73380Y-31750D03*
X72620Y-31250D03*
X79380Y-32750D03*
X78620Y-32250D03*
X79380Y-31750D03*
X78620Y-31250D03*
X85380Y-32750D03*
X84620Y-32250D03*
X85380Y-31750D03*
X84620Y-31250D03*
X91380Y-32750D03*
X90620Y-32250D03*
X91380Y-31750D03*
X90620Y-31250D03*
X97380Y-32750D03*
X96620Y-32250D03*
X97380Y-31750D03*
X96620Y-31250D03*
X103380Y-32750D03*
X102620Y-32250D03*
X103380Y-31750D03*
X102620Y-31250D03*
X109380Y-32750D03*
X108620Y-32250D03*
X109380Y-31750D03*
X108620Y-31250D03*
X115380Y-32750D03*
X114620Y-32250D03*
X115380Y-31750D03*
X114620Y-31250D03*
X25380Y-38750D03*
X24620Y-38250D03*
X25380Y-37750D03*
X24620Y-37250D03*
X31380Y-38750D03*
X30620Y-38250D03*
X31380Y-37750D03*
X30620Y-37250D03*
X37380Y-38750D03*
X36620Y-38250D03*
X37380Y-37750D03*
X36620Y-37250D03*
X43380Y-38750D03*
X42620Y-38250D03*
X43380Y-37750D03*
X42620Y-37250D03*
X49380Y-38750D03*
X48620Y-38250D03*
X49380Y-37750D03*
X48620Y-37250D03*
X55380Y-38750D03*
X54620Y-38250D03*
X55380Y-37750D03*
X54620Y-37250D03*
X61380Y-38750D03*
X60620Y-38250D03*
X61380Y-37750D03*
X60620Y-37250D03*
X67380Y-38750D03*
X66620Y-38250D03*
X67380Y-37750D03*
X66620Y-37250D03*
X73380Y-38750D03*
X72620Y-38250D03*
X73380Y-37750D03*
X72620Y-37250D03*
X79380Y-38750D03*
X78620Y-38250D03*
X79380Y-37750D03*
X78620Y-37250D03*
X85380Y-38750D03*
X84620Y-38250D03*
X85380Y-37750D03*
X84620Y-37250D03*
X91380Y-38750D03*
X90620Y-38250D03*
X91380Y-37750D03*
X90620Y-37250D03*
X97380Y-38750D03*
X96620Y-38250D03*
X97380Y-37750D03*
X96620Y-37250D03*
X103380Y-38750D03*
X102620Y-38250D03*
X103380Y-37750D03*
X102620Y-37250D03*
X109380Y-38750D03*
X108620Y-38250D03*
X109380Y-37750D03*
X108620Y-37250D03*
X115380Y-38750D03*
X114620Y-38250D03*
X115380Y-37750D03*
X114620Y-37250D03*
X25380Y-44750D03*
X24620Y-44250D03*
X25380Y-43750D03*
X24620Y-43250D03*
X31380Y-44750D03*
X30620Y-44250D03*
X31380Y-43750D03*
X30620Y-43250D03*
X37380Y-44750D03*
X36620Y-44250D03*
X37380Y-43750D03*
X36620Y-43250D03*
X43380Y-44750D03*
X42620Y-44250D03*
X43380Y-43750D03*
X42620Y-43250D03*
X49380Y-44750D03*
X48620Y-44250D03*
X49380Y-43750D03*
X48620Y-43250D03*
X55380Y-44750D03*
X54620Y-44250D03*
X55380Y-43750D03*
X54620Y-43250D03*
X61380Y-44750D03*
X60620Y-44250D03*
X61380Y-43750D03*
X60620Y-43250D03*
X67380Y-44750D03*
X66620Y-44250D03*
X67380Y-43750D03*
X66620Y-43250D03*
X73380Y-44750D03*
X72620Y-44250D03*
X73380Y-43750D03*
X72620Y-43250D03*
X79380Y-44750D03*
X78620Y-44250D03*
X79380Y-43750D03*
X78620Y-43250D03*
X85380Y-44750D03*
X84620Y-44250D03*
X85380Y-43750D03*
X84620Y-43250D03*
X91380Y-44750D03*
X90620Y-44250D03*
X91380Y-43750D03*
X90620Y-43250D03*
X97380Y-44750D03*
X96620Y-44250D03*
X97380Y-43750D03*
X96620Y-43250D03*
X103380Y-44750D03*
X102620Y-44250D03*
X103380Y-43750D03*
X102620Y-43250D03*
X109380Y-44750D03*
X108620Y-44250D03*
X109380Y-43750D03*
X108620Y-43250D03*
X115380Y-44750D03*
X114620Y-44250D03*
X115380Y-43750D03*
X114620Y-43250D03*
X25380Y-50750D03*
X24620Y-50250D03*
X25380Y-49750D03*
X24620Y-49250D03*
X31380Y-50750D03*
X30620Y-50250D03*
X31380Y-49750D03*
X30620Y-49250D03*
X37380Y-50750D03*
X36620Y-50250D03*
X37380Y-49750D03*
X36620Y-49250D03*
X43380Y-50750D03*
X42620Y-50250D03*
X43380Y-49750D03*
X42620Y-49250D03*
X49380Y-50750D03*
X48620Y-50250D03*
X49380Y-49750D03*
X48620Y-49250D03*
X55380Y-50750D03*
X54620Y-50250D03*
X55380Y-49750D03*
X54620Y-49250D03*
X61380Y-50750D03*
X60620Y-50250D03*
X61380Y-49750D03*
X60620Y-49250D03*
X67380Y-50750D03*
X66620Y-50250D03*
X67380Y-49750D03*
X66620Y-49250D03*
X73380Y-50750D03*
X72620Y-50250D03*
X73380Y-49750D03*
X72620Y-49250D03*
X79380Y-50750D03*
X78620Y-50250D03*
X79380Y-49750D03*
X78620Y-49250D03*
X85380Y-50750D03*
X84620Y-50250D03*
X85380Y-49750D03*
X84620Y-49250D03*
X91380Y-50750D03*
X90620Y-50250D03*
X91380Y-49750D03*
X90620Y-49250D03*
X97380Y-50750D03*
X96620Y-50250D03*
X97380Y-49750D03*
X96620Y-49250D03*
X103380Y-50750D03*
X102620Y-50250D03*
X103380Y-49750D03*
X102620Y-49250D03*
X109380Y-50750D03*
X108620Y-50250D03*
X109380Y-49750D03*
X108620Y-49250D03*
X115380Y-50750D03*
X114620Y-50250D03*
X115380Y-49750D03*
X114620Y-49250D03*
X25380Y-56750D03*
X24620Y-56250D03*
X25380Y-55750D03*
X24620Y-55250D03*
X31380Y-56750D03*
X30620Y-56250D03*
X31380Y-55750D03*
X30620Y-55250D03*
X37380Y-56750D03*
X36620Y-56250D03*
X37380Y-55750D03*
X36620Y-55250D03*
X43380Y-56750D03*
X42620Y-56250D03*
X43380Y-55750D03*
X42620Y-55250D03*
X49380Y-56750D03*
X48620Y-56250D03*
X49380Y-55750D03*
X48620Y-55250D03*
X55380Y-56750D03*
X54620Y-56250D03*
X55380Y-55750D03*
X54620Y-55250D03*
X61380Y-56750D03*
X60620Y-56250D03*
X61380Y-55750D03*
X60620Y-55250D03*
X67380Y-56750D03*
X66620Y-56250D03*
X67380Y-55750D03*
X66620Y-55250D03*
X73380Y-56750D03*
X72620Y-56250D03*
X73380Y-55750D03*
X72620Y-55250D03*
X79380Y-56750D03*
X78620Y-56250D03*
X79380Y-55750D03*
X78620Y-55250D03*
X85380Y-56750D03*
X84620Y-56250D03*
X85380Y-55750D03*
X84620Y-55250D03*
X91380Y-56750D03*
X90620Y-56250D03*
X91380Y-55750D03*
X90620Y-55250D03*
X97380Y-56750D03*
X96620Y-56250D03*
X97380Y-55750D03*
X96620Y-55250D03*
X103380Y-56750D03*
X102620Y-56250D03*
X103380Y-55750D03*
X102620Y-55250D03*
X109380Y-56750D03*
X108620Y-56250D03*
X109380Y-55750D03*
X108620Y-55250D03*
X115380Y-56750D03*
X114620Y-56250D03*
X115380Y-55750D03*
X114620Y-55250D03*
X25380Y-62750D03*
X24620Y-62250D03*
X25380Y-61750D03*
X24620Y-61250D03*
X31380Y-62750D03*
X30620Y-62250D03*
X31380Y-61750D03*
X30620Y-61250D03*
X37380Y-62750D03*
X36620Y-62250D03*
X37380Y-61750D03*
X36620Y-61250D03*
X43380Y-62750D03*
X42620Y-62250D03*
X43380Y-61750D03*
X42620Y-61250D03*
X49380Y-62750D03*
X48620Y-62250D03*
X49380Y-61750D03*
X48620Y-61250D03*
X55380Y-62750D03*
X54620Y-62250D03*
X55380Y-61750D03*
X54620Y-61250D03*
X61380Y-62750D03*
X60620Y-62250D03*
X61380Y-61750D03*
X60620Y-61250D03*
X67380Y-62750D03*
X66620Y-62250D03*
X67380Y-61750D03*
X66620Y-61250D03*
X73380Y-62750D03*
X72620Y-62250D03*
X73380Y-61750D03*
X72620Y-61250D03*
X79380Y-62750D03*
X78620Y-62250D03*
X79380Y-61750D03*
X78620Y-61250D03*
X85380Y-62750D03*
X84620Y-62250D03*
X85380Y-61750D03*
X84620Y-61250D03*
X91380Y-62750D03*
X90620Y-62250D03*
X91380Y-61750D03*
X90620Y-61250D03*
X97380Y-62750D03*
X96620Y-62250D03*
X97380Y-61750D03*
X96620Y-61250D03*
X103380Y-62750D03*
X102620Y-62250D03*
X103380Y-61750D03*
X102620Y-61250D03*
X109380Y-62750D03*
X108620Y-62250D03*
X109380Y-61750D03*
X108620Y-61250D03*
X115380Y-62750D03*
X114620Y-62250D03*
X115380Y-61750D03*
X114620Y-61250D03*
X25380Y-68750D03*
X24620Y-68250D03*
X25380Y-67750D03*
X24620Y-67250D03*
X31380Y-68750D03*
X30620Y-68250D03*
X31380Y-67750D03*
X30620Y-67250D03*
X37380Y-68750D03*
X36620Y-68250D03*
X37380Y-67750D03*
X36620Y-67250D03*
X43380Y-68750D03*
X42620Y-68250D03*
X43380Y-67750D03*
X42620Y-67250D03*
X49380Y-68750D03*
X48620Y-68250D03*
X49380Y-67750D03*
X48620Y-67250D03*
X55380Y-68750D03*
X54620Y-68250D03*
X55380Y-67750D03*
X54620Y-67250D03*
X61380Y-68750D03*
X60620Y-68250D03*
X61380Y-67750D03*
X60620Y-67250D03*
X67380Y-68750D03*
X66620Y-68250D03*
X67380Y-67750D03*
X66620Y-67250D03*
X73380Y-68750D03*
X72620Y-68250D03*
X73380Y-67750D03*
X72620Y-67250D03*
X79380Y-68750D03*
X78620Y-68250D03*
X79380Y-67750D03*
X78620Y-67250D03*
X85380Y-68750D03*
X84620Y-68250D03*
X85380Y-67750D03*
X84620Y-67250D03*
X91380Y-68750D03*
X90620Y-68250D03*
X91380Y-67750D03*
X90620Y-67250D03*
X97380Y-68750D03*
X96620Y-68250D03*
X97380Y-67750D03*
X96620Y-67250D03*
X103380Y-68750D03*
X102620Y-68250D03*
X103380Y-67750D03*
X102620Y-67250D03*
X109380Y-68750D03*
X108620Y-68250D03*
X109380Y-67750D03*
X108620Y-67250D03*
X115380Y-68750D03*
X114620Y-68250D03*
X115380Y-67750D03*
X114620Y-67250D03*
X25380Y-74750D03*
X24620Y-74250D03*
X25380Y-73750D03*
X24620Y-73250D03*
X31380Y-74750D03*
X30620Y-74250D03*
X31380Y-73750D03*
X30620Y-73250D03*
X37380Y-74750D03*
X36620Y-74250D03*
X37380Y-73750D03*
X36620Y-73250D03*
X43380Y-74750D03*
X42620Y-74250D03*
X43380Y-73750D03*
X42620Y-73250D03*
X49380Y-74750D03*
X48620Y-74250D03*
X49380Y-73750D03*
X48620Y-73250D03*
X55380Y-74750D03*
X54620Y-74250D03*
X55380Y-73750D03*
X54620Y-73250D03*
X61380Y-74750D03*
X60620Y-74250D03*
X61380Y-73750D03*
X60620Y-73250D03*
X67380Y-74750D03*
X66620Y-74250D03*
X67380Y-73750D03*
X66620Y-73250D03*
X73380Y-74750D03*
X72620Y-74250D03*
X73380Y-73750D03*
X72620Y-73250D03*
X79380Y-74750D03*
X78620Y-74250D03*
X79380Y-73750D03*
X78620Y-73250D03*
X85380Y-74750D03*
X84620Y-74250D03*
X85380Y-73750D03*
X84620Y-73250D03*
X91380Y-74750D03*
X90620Y-74250D03*
X91380Y-73750D03*
X90620Y-73250D03*
X97380Y-74750D03*
X96620Y-74250D03*
X97380Y-73750D03*
X96620Y-73250D03*
X103380Y-74750D03*
X102620Y-74250D03*
X103380Y-73750D03*
X102620Y-73250D03*
X109380Y-74750D03*
X108620Y-74250D03*
X109380Y-73750D03*
X108620Y-73250D03*
X115380Y-74750D03*
X114620Y-74250D03*
X115380Y-73750D03*
X114620Y-73250D03*
G54D22*
X123250Y-76500D03*
X123750Y-76500D03*
X124250Y-76500D03*
X124750Y-76500D03*
X125250Y-76500D03*
X125750Y-76500D03*
X126250Y-76500D03*
X126750Y-76500D03*
X126750Y-80500D03*
X126250Y-80500D03*
X125750Y-80500D03*
X125250Y-80500D03*
X124750Y-80500D03*
X124250Y-80500D03*
X123750Y-80500D03*
X123250Y-80500D03*
G54D23*
X126445Y-77750D03*
X126445Y-78250D03*
X126445Y-78750D03*
X126445Y-79250D03*
X123555Y-79250D03*
X123555Y-78750D03*
X123555Y-78250D03*
X123555Y-77750D03*
G54D24*
X128500Y-64750D03*
X128500Y-66750D03*
X128500Y-65750D03*
X121500Y-63750D03*
X123500Y-63750D03*
G54D25*
X123500Y-38825D03*
G54D24*
X123500Y-37825D03*
G54D25*
X126150Y-28250D03*
G54D24*
X126150Y-29250D03*
G54D26*
X128250Y-91250D03*
X128250Y-90250D03*
X128250Y-89250D03*
G54D27*
X128250Y-88250D03*
G54D28*
X16000Y-72500D03*
X16000Y-37000D03*
G54D27*
X13000Y-88250D03*
G54D26*
X13000Y-89250D03*
X13000Y-90250D03*
X13000Y-91250D03*
G54D29*
X22000Y-94000D03*
X23000Y-94000D03*
G54D30*
X24000Y-94000D03*
G54D29*
X25000Y-94000D03*
X26000Y-94000D03*
X27000Y-94000D03*
G54D25*
X31250Y-96250D03*
G54D24*
X31250Y-97250D03*
X30250Y-96250D03*
X30250Y-97250D03*
X29250Y-96250D03*
X29250Y-97250D03*
G54D27*
X56250Y-92750D03*
G54D26*
X56250Y-91750D03*
G54D29*
X103500Y-91000D03*
G54D30*
X104500Y-91000D03*
G54D29*
X105500Y-91000D03*
X106500Y-91000D03*
X107500Y-91000D03*
X108500Y-91000D03*
X109500Y-91000D03*
X110500Y-91000D03*
X123500Y-83000D03*
X124500Y-83000D03*
G54D30*
X125500Y-83000D03*
G54D29*
X126500Y-83000D03*
X128475Y-37825D03*
G54D30*
X127475Y-37825D03*
G54D29*
X126475Y-37825D03*
X24500Y-91600D03*
X25500Y-91600D03*
X26500Y-91600D03*
G54D31*
X43000Y-97500D03*
G54D24*
X79625Y-97250D03*
X81375Y-97250D03*
G54D31*
X79125Y-96250D03*
X81875Y-96250D03*
G54D24*
X18125Y-97250D03*
X19875Y-97250D03*
G54D31*
X17625Y-96250D03*
X20375Y-96250D03*
G54D24*
X58625Y-97250D03*
X60375Y-97250D03*
G54D31*
X58125Y-96250D03*
X60875Y-96250D03*
G54D24*
X65625Y-97250D03*
X67375Y-97250D03*
G54D31*
X65125Y-96250D03*
X67875Y-96250D03*
G54D24*
X72625Y-97250D03*
X74375Y-97250D03*
G54D31*
X72125Y-96250D03*
X74875Y-96250D03*
G54D32*
X25000Y-79500D03*
X25000Y-80500D03*
X31000Y-79500D03*
X31000Y-80500D03*
X37000Y-79500D03*
X37000Y-80500D03*
X43000Y-79500D03*
X43000Y-80500D03*
X49000Y-79500D03*
X49000Y-80500D03*
X55000Y-79500D03*
X55000Y-80500D03*
X61000Y-79500D03*
X61000Y-80500D03*
X67000Y-79500D03*
X67000Y-80500D03*
X73000Y-79500D03*
X73000Y-80500D03*
X79000Y-79500D03*
X79000Y-80500D03*
X85000Y-79500D03*
X85000Y-80500D03*
X91000Y-79500D03*
X91000Y-80500D03*
X97000Y-79500D03*
X97000Y-80500D03*
X103000Y-79500D03*
X103000Y-80500D03*
X109000Y-79500D03*
X109000Y-80500D03*
X115000Y-79500D03*
X115000Y-80500D03*
X25000Y-85500D03*
X25000Y-86500D03*
X31000Y-85500D03*
X31000Y-86500D03*
X37000Y-85500D03*
X37000Y-86500D03*
X43000Y-85500D03*
X43000Y-86500D03*
X49000Y-85500D03*
X49000Y-86500D03*
X55000Y-85500D03*
X55000Y-86500D03*
X61000Y-85500D03*
X61000Y-86500D03*
X67000Y-85500D03*
X67000Y-86500D03*
X73000Y-85500D03*
X73000Y-86500D03*
X79000Y-85500D03*
X79000Y-86500D03*
X85000Y-85500D03*
X85000Y-86500D03*
X91000Y-85500D03*
X91000Y-86500D03*
X97000Y-85500D03*
X97000Y-86500D03*
X103000Y-85500D03*
X103000Y-86500D03*
X109000Y-85500D03*
X109000Y-86500D03*
X115000Y-85500D03*
X115000Y-86500D03*
G54D33*
X52000Y-95300D03*
G54D31*
X52000Y-92300D03*
X52000Y-93300D03*
G54D30*
X124900Y-43900D03*
G54D29*
X125900Y-43900D03*
G54D34*
X40250Y-98475D03*
G54D35*
X41250Y-98475D03*
G54D27*
X19000Y-83000D03*
G54D26*
X19000Y-82000D03*
X19000Y-81000D03*
X19000Y-80000D03*
X19000Y-79000D03*
X19000Y-78000D03*
X19000Y-77000D03*
X19000Y-76000D03*
X19000Y-75000D03*
X19000Y-74000D03*
X19000Y-73000D03*
X19000Y-72000D03*
X13000Y-72000D03*
X13000Y-73000D03*
X13000Y-74000D03*
X13000Y-75000D03*
X13000Y-76000D03*
X13000Y-77000D03*
X13000Y-78000D03*
X13000Y-79000D03*
X13000Y-80000D03*
X13000Y-81000D03*
X13000Y-82000D03*
X13000Y-83000D03*
G54D27*
X13000Y-26500D03*
G54D26*
X13000Y-27500D03*
X13000Y-28500D03*
X13000Y-29500D03*
X13000Y-30500D03*
X13000Y-31500D03*
X13000Y-32500D03*
X13000Y-33500D03*
X13000Y-34500D03*
X13000Y-35500D03*
X13000Y-36500D03*
X13000Y-37500D03*
X19000Y-37500D03*
X19000Y-36500D03*
X19000Y-35500D03*
X19000Y-34500D03*
X19000Y-33500D03*
X19000Y-32500D03*
X19000Y-31500D03*
X19000Y-30500D03*
X19000Y-29500D03*
X19000Y-28500D03*
X19000Y-27500D03*
X19000Y-26500D03*
G54D36*
X95250Y-91500D03*
G54D37*
X94250Y-91500D03*
X93250Y-91500D03*
X92250Y-91500D03*
X91250Y-91500D03*
X90250Y-91500D03*
X89250Y-91500D03*
X88250Y-91500D03*
X87250Y-91500D03*
X86250Y-91500D03*
X85250Y-91500D03*
X84250Y-91500D03*
X84250Y-97500D03*
X85250Y-97500D03*
X86250Y-97500D03*
X87250Y-97500D03*
X88250Y-97500D03*
X89250Y-97500D03*
X90250Y-97500D03*
X91250Y-97500D03*
X92250Y-97500D03*
X93250Y-97500D03*
X94250Y-97500D03*
X95250Y-97500D03*
G54D24*
X110000Y-96250D03*
X111000Y-96250D03*
X112000Y-96250D03*
G54D25*
X112000Y-95250D03*
X111000Y-95250D03*
X110000Y-95250D03*
G54D24*
X107000Y-96250D03*
X108000Y-96250D03*
X109000Y-96250D03*
G54D25*
X109000Y-95250D03*
X108000Y-95250D03*
X107000Y-95250D03*
G54D24*
X104000Y-96250D03*
X105000Y-96250D03*
X106000Y-96250D03*
G54D25*
X106000Y-95250D03*
X105000Y-95250D03*
X104000Y-95250D03*
G54D24*
X101000Y-96250D03*
X102000Y-96250D03*
X103000Y-96250D03*
G54D25*
X103000Y-95250D03*
X102000Y-95250D03*
X101000Y-95250D03*
G54D24*
X111000Y-97250D03*
X111000Y-98250D03*
X111000Y-99250D03*
X112000Y-99250D03*
X112000Y-98250D03*
X112000Y-97250D03*
X109000Y-97250D03*
X109000Y-98250D03*
X109000Y-99250D03*
X110000Y-99250D03*
X110000Y-98250D03*
X110000Y-97250D03*
X107000Y-97250D03*
X107000Y-98250D03*
X107000Y-99250D03*
X108000Y-99250D03*
X108000Y-98250D03*
X108000Y-97250D03*
X105000Y-97250D03*
X105000Y-98250D03*
X105000Y-99250D03*
X106000Y-99250D03*
X106000Y-98250D03*
X106000Y-97250D03*
X103000Y-97250D03*
X103000Y-98250D03*
X103000Y-99250D03*
X104000Y-99250D03*
X104000Y-98250D03*
X104000Y-97250D03*
X101000Y-97250D03*
X101000Y-98250D03*
X101000Y-99250D03*
X102000Y-99250D03*
X102000Y-98250D03*
X102000Y-97250D03*
X112000Y-94250D03*
X112000Y-93250D03*
X112000Y-92250D03*
X111000Y-92250D03*
X111000Y-93250D03*
X111000Y-94250D03*
X110000Y-94250D03*
X110000Y-93250D03*
X110000Y-92250D03*
X109000Y-92250D03*
X109000Y-93250D03*
X109000Y-94250D03*
X108000Y-94250D03*
X108000Y-93250D03*
X108000Y-92250D03*
X107000Y-92250D03*
X107000Y-93250D03*
X107000Y-94250D03*
X106000Y-94250D03*
X106000Y-93250D03*
X106000Y-92250D03*
X105000Y-92250D03*
X105000Y-93250D03*
X105000Y-94250D03*
X104000Y-94250D03*
X104000Y-93250D03*
X104000Y-92250D03*
X103000Y-92250D03*
X103000Y-93250D03*
X103000Y-94250D03*
X102000Y-94250D03*
X102000Y-93250D03*
X102000Y-92250D03*
X101000Y-92250D03*
X101000Y-93250D03*
X101000Y-94250D03*
G54D38*
X129000Y-73500D03*
X120000Y-73500D03*
X129000Y-83500D03*
X120000Y-83500D03*
G54D36*
X46750Y-93000D03*
G54D37*
X45750Y-93000D03*
X44750Y-93000D03*
X43750Y-93000D03*
X42750Y-93000D03*
X41750Y-93000D03*
X40750Y-93000D03*
X39750Y-93000D03*
X38750Y-93000D03*
X37750Y-93000D03*
X36750Y-93000D03*
X35750Y-93000D03*
X34750Y-93000D03*
X33750Y-93000D03*
X33750Y-96000D03*
X34750Y-96000D03*
X35750Y-96000D03*
X36750Y-96000D03*
X37750Y-96000D03*
X38750Y-96000D03*
X39750Y-96000D03*
X40750Y-96000D03*
X41750Y-96000D03*
X42750Y-96000D03*
X43750Y-96000D03*
X44750Y-96000D03*
X45750Y-96000D03*
X46750Y-96000D03*
G54D24*
X42750Y-91750D03*
X40750Y-91750D03*
X97250Y-93750D03*
X97250Y-95750D03*
X31000Y-92750D03*
X31000Y-90750D03*
X123950Y-28250D03*
X123950Y-30250D03*
X39250Y-91750D03*
X37250Y-91750D03*
X38250Y-91750D03*
G54D38*
X11500Y-11500D03*
X40750Y-11500D03*
X70000Y-11500D03*
X99250Y-11500D03*
X128500Y-11500D03*
X128500Y-40500D03*
X128500Y-69500D03*
X128500Y-98500D03*
X99250Y-98500D03*
X70000Y-98500D03*
X11500Y-98500D03*
X11500Y-69500D03*
X11500Y-40500D03*
G54D30*
X123500Y-74000D03*
G54D29*
X124500Y-74000D03*
X125500Y-74000D03*
X126500Y-74000D03*
G54D39*
X24750Y-12750D03*
G54D40*
X24750Y-13750D03*
X24750Y-14750D03*
G54D39*
X30250Y-12750D03*
G54D40*
X30250Y-13750D03*
X30250Y-14750D03*
G54D39*
X36250Y-12750D03*
G54D40*
X36250Y-13750D03*
X36250Y-14750D03*
G54D39*
X43000Y-12750D03*
G54D40*
X43000Y-13750D03*
X43000Y-14750D03*
G54D39*
X49000Y-12750D03*
G54D40*
X49000Y-13750D03*
X49000Y-14750D03*
G54D39*
X55000Y-12750D03*
G54D40*
X55000Y-13750D03*
X55000Y-14750D03*
G54D39*
X61000Y-12750D03*
G54D40*
X61000Y-13750D03*
X61000Y-14750D03*
G54D39*
X66250Y-12750D03*
G54D40*
X66250Y-13750D03*
X66250Y-14750D03*
G54D39*
X73750Y-12750D03*
G54D40*
X73750Y-13750D03*
X73750Y-14750D03*
G54D39*
X79000Y-12750D03*
G54D40*
X79000Y-13750D03*
X79000Y-14750D03*
G54D39*
X85000Y-12750D03*
G54D40*
X85000Y-13750D03*
X85000Y-14750D03*
G54D39*
X91000Y-12750D03*
G54D40*
X91000Y-13750D03*
X91000Y-14750D03*
G54D39*
X95750Y-12750D03*
G54D40*
X95750Y-13750D03*
X95750Y-14750D03*
G54D39*
X103000Y-12750D03*
G54D40*
X103000Y-13750D03*
X103000Y-14750D03*
G54D39*
X109000Y-12750D03*
G54D40*
X109000Y-13750D03*
X109000Y-14750D03*
G54D39*
X115000Y-12750D03*
G54D40*
X115000Y-13750D03*
X115000Y-14750D03*
G54D39*
X55750Y-95575D03*
G54D40*
X55750Y-96575D03*
X55750Y-97575D03*
G54D41*
X123950Y-61725D03*
G54D42*
X124450Y-51125D03*
G54D41*
X124950Y-61725D03*
G54D43*
X124450Y-60350D03*
X124450Y-52500D03*
G54D20*
X120300Y-56425D03*
X128600Y-56425D03*
G54D44*
X120420Y-34750D03*
X120420Y-32750D03*
G54D45*
X121050Y-33750D03*
G54D46*
X119500Y-33350D03*
X119500Y-34150D03*
G54D24*
X118800Y-28250D03*
X122800Y-28250D03*
G54D46*
X120400Y-28250D03*
X121200Y-28250D03*
G54D27*
X11500Y-18000D03*
G54D26*
X11500Y-17000D03*
X11500Y-16000D03*
G54D46*
X12500Y-17100D03*
X12500Y-17900D03*
G54D24*
X121500Y-66750D03*
X124500Y-66750D03*
X121500Y-65750D03*
X124500Y-65750D03*
X121500Y-64750D03*
X124500Y-64750D03*
X47250Y-97500D03*
X44250Y-97500D03*
X48750Y-98500D03*
X51750Y-98500D03*
X37750Y-98250D03*
X34750Y-98250D03*
X52750Y-98500D03*
X55750Y-98500D03*
X51750Y-97500D03*
X48750Y-97500D03*
X27250Y-14750D03*
X27250Y-11750D03*
X33250Y-14750D03*
X33250Y-11750D03*
X38500Y-14750D03*
X38500Y-11750D03*
X45250Y-14750D03*
X45250Y-11750D03*
X51250Y-14750D03*
X51250Y-11750D03*
X57250Y-14750D03*
X57250Y-11750D03*
X63250Y-14750D03*
X63250Y-11750D03*
X72250Y-14750D03*
X72250Y-11750D03*
X76250Y-14750D03*
X76250Y-11750D03*
X81250Y-14750D03*
X81250Y-11750D03*
X87250Y-14750D03*
X87250Y-11750D03*
X93250Y-14750D03*
X93250Y-11750D03*
X101500Y-14750D03*
X101500Y-11750D03*
X105250Y-14750D03*
X105250Y-11750D03*
X111250Y-14750D03*
X111250Y-11750D03*
X22750Y-14750D03*
X22750Y-11750D03*
X123475Y-43900D03*
X120475Y-43900D03*
X44250Y-98500D03*
X47250Y-98500D03*
X43750Y-91750D03*
X46750Y-91750D03*
X59500Y-93250D03*
X62500Y-93250D03*
X65500Y-93250D03*
X68500Y-93250D03*
X71500Y-93250D03*
X74500Y-93250D03*
X77500Y-93250D03*
X80500Y-93250D03*
M02*
