M48
INCH,TZ
T1C0.025
T2C0.035
T3C0.040
T4C0.046
T5C0.050
T6C0.100
T7C0.125
%
G90
G05
T1
X13000Y-28950
X13125Y-26775
X13325Y-35925
X15225Y-25875
X15250Y-24050
X15250Y-25075
X16560Y-27460
X16625Y-33925
X16625Y-35600
X16800Y-29425
X16800Y-29875
X16800Y-30350
X17275Y-34425
X17350Y-29025
X17400Y-36250
X17600Y-21825
X17740Y-28500
X18700Y-34950
X19275Y-36600
X21200Y-38750
X21550Y-35400
X22775Y-35400
X23100Y-37175
X23900Y-33500
X23925Y-34675
X23925Y-37150
X24475Y-33150
X24475Y-39500
X24975Y-35525
X25525Y-34550
X25900Y-34150
X26875Y-34850
X28200Y-35575
X28225Y-27950
X29075Y-27150
X29200Y-35625
X29225Y-29650
X29525Y-27050
X29675Y-26625
X29700Y-21825
X30275Y-27075
X30475Y-29350
X30780Y-26620
X30825Y-29025
X30825Y-38675
X30875Y-31900
X31100Y-26120
X31650Y-26125
X31925Y-31900
X31975Y-26625
X31975Y-27075
X32375Y-37450
X32400Y-29200
X32800Y-31900
X32825Y-25575
X33300Y-22000
X33300Y-25575
X33300Y-27750
X33775Y-30900
X37400Y-31375
X37400Y-32025
X37400Y-34125
X37425Y-34875
X38150Y-35200
X38250Y-22600
X38275Y-22100
X39150Y-34650
X39650Y-30900
X39925Y-27975
X40850Y-30900
X41350Y-30900
X41650Y-36050
X41900Y-30900
X42150Y-34325
X42650Y-34325
X43750Y-34100
X43850Y-24325
X43850Y-26275
X46350Y-26300
X47225Y-37400
T2
X45250Y-20975
X45250Y-21975
X46900Y-23675
X46900Y-26825
T3
X16500Y-41500
X17500Y-41500
X18500Y-41500
X19500Y-41500
X20500Y-41500
X21500Y-41500
X24114Y-41720
X24114Y-44280
X25886Y-41720
X25886Y-44280
X28114Y-41720
X28114Y-44280
X29886Y-41720
X29886Y-44280
X30300Y-20000
X31300Y-20000
X32114Y-41720
X32114Y-44280
X32300Y-20000
X33300Y-20000
X33886Y-41720
X33886Y-44280
X33900Y-39000
X34300Y-20000
X34900Y-39000
X35300Y-20000
X35900Y-39000
X36114Y-41720
X36114Y-44280
X36300Y-20000
X36900Y-39000
X37300Y-20000
X37886Y-41720
X37886Y-44280
X37900Y-39000
X38300Y-20000
X38900Y-39000
X39300Y-20000
X39900Y-39000
X40900Y-20000
X40900Y-39000
X40964Y-41720
X40964Y-44280
X41900Y-20000
X42736Y-41720
X42736Y-44280
X42900Y-20000
X42900Y-39000
X43900Y-20000
X43900Y-39000
X44900Y-20000
X44900Y-39000
X45500Y-34100
X45500Y-35100
X45500Y-36100
X45900Y-20000
X45900Y-39000
X46500Y-29700
X46500Y-30700
X46500Y-31700
X46500Y-32700
X46500Y-34100
X46500Y-35100
X46500Y-36100
X46900Y-20000
X46900Y-39000
X47900Y-20000
X47900Y-39000
T5
X10600Y-33700
X10600Y-36300
T7
X28400Y-39000
X28900Y-20000
X48900Y-26000
X48900Y-37000
T4
X13125Y-20455G85X13125Y-21395
G05
X13905Y-18925G85X14845Y-18925
G05
X15525Y-20355G85X15525Y-21495
G05
T6
X11500Y-16500G85X13500Y-16500
G05
X46500Y-16500G85X48500Y-16500
G05
T0
M30
