G04 (created by PCBNEW (2013-03-15 BZR 4003)-stable) date 17-Apr-13 1:34:21 PM*
%MOIN*%
G04 Gerber Fmt 3.4, Leading zero omitted, Abs format*
%FSLAX34Y34*%
G01*
G70*
G90*
G04 APERTURE LIST*
%ADD10C,0.006*%
%ADD11C,0.016*%
%ADD12C,0.01*%
%ADD13C,0.005*%
%ADD14C,0.00590551*%
%ADD15C,0.0031*%
%ADD16C,0.008*%
%ADD17R,0.0394X0.0236*%
%ADD18R,0.0394X0.0315*%
%ADD19R,0.042X0.056*%
%ADD20R,0.056X0.042*%
%ADD21R,0.059X0.0512*%
%ADD22R,0.0512X0.059*%
%ADD23R,0.0472X0.0315*%
%ADD24C,0.04*%
%ADD25R,0.06X0.06*%
%ADD26C,0.06*%
%ADD27R,0.0787X0.0177*%
%ADD28R,0.0177X0.0787*%
%ADD29C,0.4*%
%ADD30C,0.07*%
%ADD31R,0.07X0.07*%
%ADD32C,0.155*%
%ADD33C,0.08*%
%ADD34R,0.054X0.016*%
%ADD35R,0.056X0.063*%
%ADD36R,0.075X0.075*%
%ADD37C,0.075*%
%ADD38R,0.03X0.03*%
%ADD39R,0.08X0.024*%
%ADD40R,0.06X0.03*%
%ADD41R,0.06X0.04*%
%ADD42R,0.08X0.06*%
%ADD43C,0.045*%
%ADD44R,0.0394X0.0354*%
%ADD45R,0.0984252X0.11811*%
%ADD46O,0.12X0.18*%
%ADD47R,0.12X0.18*%
%ADD48O,0.18X0.12*%
%ADD49R,0.3X0.1*%
%ADD50R,0.02X0.05*%
%ADD51R,0.1337X0.059*%
%ADD52R,0.1377X0.0392*%
%ADD53R,0.0944882X0.0787402*%
%ADD54R,0.0590551X0.019685*%
%ADD55R,0.225X0.225*%
%ADD56C,0.6*%
G04 APERTURE END LIST*
G54D10*
G54D11*
X42940Y-43373D02*
X42940Y-42573D01*
X42559Y-43373D02*
X42559Y-42573D01*
X42369Y-42573D01*
X42254Y-42611D01*
X42178Y-42688D01*
X42140Y-42764D01*
X42102Y-42916D01*
X42102Y-43030D01*
X42140Y-43183D01*
X42178Y-43259D01*
X42254Y-43335D01*
X42369Y-43373D01*
X42559Y-43373D01*
X41759Y-43297D02*
X41721Y-43335D01*
X41759Y-43373D01*
X41797Y-43335D01*
X41759Y-43297D01*
X41759Y-43373D01*
X41759Y-42878D02*
X41721Y-42916D01*
X41759Y-42954D01*
X41797Y-42916D01*
X41759Y-42878D01*
X41759Y-42954D01*
G54D12*
X23575Y-43750D02*
X23575Y-42250D01*
X43275Y-43750D02*
X23575Y-43750D01*
X43275Y-42250D02*
X43275Y-43750D01*
X23575Y-42250D02*
X43275Y-42250D01*
G54D10*
X13085Y-18686D02*
X12819Y-18686D01*
X12990Y-19086D01*
X12419Y-18820D02*
X12266Y-18820D01*
X12361Y-18686D02*
X12361Y-19029D01*
X12342Y-19067D01*
X12304Y-19086D01*
X12266Y-19086D01*
X12076Y-19086D02*
X12114Y-19067D01*
X12133Y-19048D01*
X12152Y-19010D01*
X12152Y-18896D01*
X12133Y-18858D01*
X12114Y-18839D01*
X12076Y-18820D01*
X12019Y-18820D01*
X11980Y-18839D01*
X11961Y-18858D01*
X11942Y-18896D01*
X11942Y-19010D01*
X11961Y-19048D01*
X11980Y-19067D01*
X12019Y-19086D01*
X12076Y-19086D01*
X11257Y-19086D02*
X11485Y-19086D01*
X11371Y-19086D02*
X11371Y-18686D01*
X11409Y-18744D01*
X11447Y-18782D01*
X11485Y-18801D01*
X11104Y-18725D02*
X11085Y-18705D01*
X11047Y-18686D01*
X10952Y-18686D01*
X10914Y-18705D01*
X10895Y-18725D01*
X10876Y-18763D01*
X10876Y-18801D01*
X10895Y-18858D01*
X11123Y-19086D01*
X10876Y-19086D01*
X10761Y-18686D02*
X10628Y-19086D01*
X10495Y-18686D01*
X12763Y-37536D02*
X12953Y-37536D01*
X12972Y-37727D01*
X12953Y-37708D01*
X12915Y-37689D01*
X12820Y-37689D01*
X12782Y-37708D01*
X12763Y-37727D01*
X12744Y-37765D01*
X12744Y-37860D01*
X12763Y-37898D01*
X12782Y-37917D01*
X12820Y-37936D01*
X12915Y-37936D01*
X12953Y-37917D01*
X12972Y-37898D01*
X12629Y-37536D02*
X12496Y-37936D01*
X12363Y-37536D01*
X11925Y-37936D02*
X11925Y-37670D01*
X11925Y-37708D02*
X11905Y-37689D01*
X11867Y-37670D01*
X11810Y-37670D01*
X11772Y-37689D01*
X11753Y-37727D01*
X11753Y-37936D01*
X11753Y-37727D02*
X11734Y-37689D01*
X11696Y-37670D01*
X11639Y-37670D01*
X11601Y-37689D01*
X11582Y-37727D01*
X11582Y-37936D01*
X11220Y-37936D02*
X11220Y-37727D01*
X11239Y-37689D01*
X11277Y-37670D01*
X11353Y-37670D01*
X11391Y-37689D01*
X11220Y-37917D02*
X11258Y-37936D01*
X11353Y-37936D01*
X11391Y-37917D01*
X11410Y-37879D01*
X11410Y-37841D01*
X11391Y-37803D01*
X11353Y-37784D01*
X11258Y-37784D01*
X11220Y-37765D01*
X11067Y-37936D02*
X10858Y-37670D01*
X11067Y-37670D02*
X10858Y-37936D01*
X13482Y-32511D02*
X13234Y-32511D01*
X13367Y-32664D01*
X13310Y-32664D01*
X13272Y-32683D01*
X13253Y-32702D01*
X13234Y-32740D01*
X13234Y-32835D01*
X13253Y-32873D01*
X13272Y-32892D01*
X13310Y-32911D01*
X13424Y-32911D01*
X13463Y-32892D01*
X13482Y-32873D01*
X13120Y-32511D02*
X12986Y-32911D01*
X12853Y-32511D01*
X12758Y-32511D02*
X12491Y-32511D01*
X12663Y-32911D01*
X12034Y-32911D02*
X12034Y-32645D01*
X12034Y-32683D02*
X12015Y-32664D01*
X11977Y-32645D01*
X11920Y-32645D01*
X11882Y-32664D01*
X11863Y-32702D01*
X11863Y-32911D01*
X11863Y-32702D02*
X11844Y-32664D01*
X11805Y-32645D01*
X11748Y-32645D01*
X11710Y-32664D01*
X11691Y-32702D01*
X11691Y-32911D01*
X11329Y-32911D02*
X11329Y-32702D01*
X11348Y-32664D01*
X11386Y-32645D01*
X11463Y-32645D01*
X11501Y-32664D01*
X11329Y-32892D02*
X11367Y-32911D01*
X11463Y-32911D01*
X11501Y-32892D01*
X11520Y-32854D01*
X11520Y-32816D01*
X11501Y-32778D01*
X11463Y-32759D01*
X11367Y-32759D01*
X11329Y-32740D01*
X11177Y-32911D02*
X10967Y-32645D01*
X11177Y-32645D02*
X10967Y-32911D01*
X49627Y-30316D02*
X49127Y-30316D01*
X49175Y-30466D02*
X49151Y-30483D01*
X49127Y-30516D01*
X49127Y-30600D01*
X49151Y-30633D01*
X49175Y-30650D01*
X49222Y-30666D01*
X49270Y-30666D01*
X49341Y-30650D01*
X49627Y-30450D01*
X49627Y-30666D01*
X49579Y-31016D02*
X49603Y-31000D01*
X49627Y-30950D01*
X49627Y-30916D01*
X49603Y-30866D01*
X49555Y-30833D01*
X49508Y-30816D01*
X49413Y-30800D01*
X49341Y-30800D01*
X49246Y-30816D01*
X49198Y-30833D01*
X49151Y-30866D01*
X49127Y-30916D01*
X49127Y-30950D01*
X49151Y-31000D01*
X49175Y-31016D01*
X49389Y-31383D02*
X49365Y-31366D01*
X49341Y-31333D01*
X49341Y-31300D01*
X49365Y-31266D01*
X49389Y-31250D01*
X49436Y-31233D01*
X49484Y-31233D01*
X49532Y-31250D01*
X49555Y-31266D01*
X49579Y-31300D01*
X49579Y-31333D01*
X49555Y-31366D01*
X49532Y-31383D01*
X49341Y-31383D02*
X49532Y-31383D01*
X49555Y-31400D01*
X49555Y-31416D01*
X49532Y-31450D01*
X49484Y-31466D01*
X49365Y-31466D01*
X49294Y-31433D01*
X49246Y-31383D01*
X49222Y-31316D01*
X49246Y-31250D01*
X49294Y-31200D01*
X49365Y-31166D01*
X49460Y-31150D01*
X49555Y-31166D01*
X49627Y-31200D01*
X49675Y-31250D01*
X49698Y-31316D01*
X49675Y-31383D01*
X49627Y-31433D01*
X49127Y-31783D02*
X49127Y-31616D01*
X49365Y-31600D01*
X49341Y-31616D01*
X49317Y-31650D01*
X49317Y-31733D01*
X49341Y-31766D01*
X49365Y-31783D01*
X49413Y-31800D01*
X49532Y-31800D01*
X49579Y-31783D01*
X49603Y-31766D01*
X49627Y-31733D01*
X49627Y-31650D01*
X49603Y-31616D01*
X49579Y-31600D01*
X49127Y-31900D02*
X49627Y-32016D01*
X49127Y-32133D01*
X49627Y-33725D02*
X49127Y-33725D01*
X49603Y-33874D02*
X49627Y-33924D01*
X49627Y-34008D01*
X49603Y-34041D01*
X49579Y-34058D01*
X49532Y-34074D01*
X49484Y-34074D01*
X49436Y-34058D01*
X49413Y-34041D01*
X49389Y-34008D01*
X49365Y-33941D01*
X49341Y-33908D01*
X49317Y-33891D01*
X49270Y-33874D01*
X49222Y-33874D01*
X49175Y-33891D01*
X49151Y-33908D01*
X49127Y-33941D01*
X49127Y-34024D01*
X49151Y-34074D01*
X49627Y-34225D02*
X49127Y-34225D01*
X49127Y-34358D01*
X49151Y-34391D01*
X49175Y-34408D01*
X49222Y-34425D01*
X49294Y-34425D01*
X49341Y-34408D01*
X49365Y-34391D01*
X49389Y-34358D01*
X49389Y-34225D01*
X49389Y-34791D02*
X49365Y-34775D01*
X49341Y-34741D01*
X49341Y-34708D01*
X49365Y-34675D01*
X49389Y-34658D01*
X49436Y-34641D01*
X49484Y-34641D01*
X49532Y-34658D01*
X49555Y-34675D01*
X49579Y-34708D01*
X49579Y-34741D01*
X49555Y-34775D01*
X49532Y-34791D01*
X49341Y-34791D02*
X49532Y-34791D01*
X49555Y-34808D01*
X49555Y-34825D01*
X49532Y-34858D01*
X49484Y-34875D01*
X49365Y-34875D01*
X49294Y-34841D01*
X49246Y-34791D01*
X49222Y-34725D01*
X49246Y-34658D01*
X49294Y-34608D01*
X49365Y-34575D01*
X49460Y-34558D01*
X49555Y-34575D01*
X49627Y-34608D01*
X49675Y-34658D01*
X49698Y-34725D01*
X49675Y-34791D01*
X49627Y-34841D01*
X49127Y-34991D02*
X49127Y-35208D01*
X49317Y-35091D01*
X49317Y-35141D01*
X49341Y-35175D01*
X49365Y-35191D01*
X49413Y-35208D01*
X49532Y-35208D01*
X49579Y-35191D01*
X49603Y-35175D01*
X49627Y-35141D01*
X49627Y-35041D01*
X49603Y-35008D01*
X49579Y-34991D01*
X49127Y-35308D02*
X49627Y-35425D01*
X49127Y-35541D01*
X49127Y-35625D02*
X49127Y-35841D01*
X49317Y-35725D01*
X49317Y-35775D01*
X49341Y-35808D01*
X49365Y-35825D01*
X49413Y-35841D01*
X49532Y-35841D01*
X49579Y-35825D01*
X49603Y-35808D01*
X49627Y-35775D01*
X49627Y-35675D01*
X49603Y-35641D01*
X49579Y-35625D01*
G54D13*
X22125Y-19000D02*
X17500Y-19000D01*
X25175Y-19000D02*
X42500Y-19000D01*
X24625Y-19550D02*
X25175Y-19000D01*
X23625Y-19550D02*
X24625Y-19550D01*
X22675Y-19550D02*
X22125Y-19000D01*
X23675Y-19550D02*
X22675Y-19550D01*
X48810Y-32535D02*
X48839Y-32521D01*
X48882Y-32521D01*
X48925Y-32535D01*
X48953Y-32564D01*
X48967Y-32592D01*
X48982Y-32650D01*
X48982Y-32692D01*
X48967Y-32750D01*
X48953Y-32778D01*
X48925Y-32807D01*
X48882Y-32821D01*
X48853Y-32821D01*
X48810Y-32807D01*
X48796Y-32792D01*
X48796Y-32692D01*
X48853Y-32692D01*
X48667Y-32821D02*
X48667Y-32521D01*
X48496Y-32821D01*
X48496Y-32521D01*
X48353Y-32821D02*
X48353Y-32521D01*
X48282Y-32521D01*
X48239Y-32535D01*
X48210Y-32564D01*
X48196Y-32592D01*
X48182Y-32650D01*
X48182Y-32692D01*
X48196Y-32750D01*
X48210Y-32778D01*
X48239Y-32807D01*
X48282Y-32821D01*
X48353Y-32821D01*
X48910Y-31807D02*
X48867Y-31821D01*
X48796Y-31821D01*
X48767Y-31807D01*
X48753Y-31792D01*
X48739Y-31764D01*
X48739Y-31735D01*
X48753Y-31707D01*
X48767Y-31692D01*
X48796Y-31678D01*
X48853Y-31664D01*
X48882Y-31650D01*
X48896Y-31635D01*
X48910Y-31607D01*
X48910Y-31578D01*
X48896Y-31550D01*
X48882Y-31535D01*
X48853Y-31521D01*
X48782Y-31521D01*
X48739Y-31535D01*
X48610Y-31821D02*
X48610Y-31521D01*
X48539Y-31521D01*
X48496Y-31535D01*
X48467Y-31564D01*
X48453Y-31592D01*
X48439Y-31650D01*
X48439Y-31692D01*
X48453Y-31750D01*
X48467Y-31778D01*
X48496Y-31807D01*
X48539Y-31821D01*
X48610Y-31821D01*
X48325Y-31735D02*
X48182Y-31735D01*
X48353Y-31821D02*
X48253Y-31521D01*
X48153Y-31821D01*
X48871Y-30807D02*
X48828Y-30821D01*
X48757Y-30821D01*
X48728Y-30807D01*
X48714Y-30792D01*
X48700Y-30764D01*
X48700Y-30735D01*
X48714Y-30707D01*
X48728Y-30692D01*
X48757Y-30678D01*
X48814Y-30664D01*
X48842Y-30650D01*
X48857Y-30635D01*
X48871Y-30607D01*
X48871Y-30578D01*
X48857Y-30550D01*
X48842Y-30535D01*
X48814Y-30521D01*
X48742Y-30521D01*
X48700Y-30535D01*
X48400Y-30792D02*
X48414Y-30807D01*
X48457Y-30821D01*
X48485Y-30821D01*
X48528Y-30807D01*
X48557Y-30778D01*
X48571Y-30750D01*
X48585Y-30692D01*
X48585Y-30650D01*
X48571Y-30592D01*
X48557Y-30564D01*
X48528Y-30535D01*
X48485Y-30521D01*
X48457Y-30521D01*
X48414Y-30535D01*
X48400Y-30550D01*
X48128Y-30821D02*
X48271Y-30821D01*
X48271Y-30521D01*
G54D10*
X48428Y-29521D02*
X48571Y-29521D01*
X48585Y-29664D01*
X48571Y-29650D01*
X48542Y-29635D01*
X48471Y-29635D01*
X48442Y-29650D01*
X48428Y-29664D01*
X48414Y-29692D01*
X48414Y-29764D01*
X48428Y-29792D01*
X48442Y-29807D01*
X48471Y-29821D01*
X48542Y-29821D01*
X48571Y-29807D01*
X48585Y-29792D01*
X48328Y-29521D02*
X48228Y-29821D01*
X48128Y-29521D01*
G54D13*
X47500Y-40000D02*
G75*
G03X50000Y-37500I0J2500D01*
G74*
G01*
X42500Y-45000D02*
G75*
G03X45000Y-42500I0J2500D01*
G74*
G01*
X47500Y-40000D02*
G75*
G03X45000Y-42500I0J-2500D01*
G74*
G01*
X15000Y-42500D02*
G75*
G03X17500Y-45000I2500J0D01*
G74*
G01*
X10000Y-37500D02*
G75*
G03X12500Y-40000I2500J0D01*
G74*
G01*
X15000Y-42500D02*
G75*
G03X12500Y-40000I-2500J0D01*
G74*
G01*
X42500Y-19000D02*
G75*
G03X45000Y-16500I0J2500D01*
G74*
G01*
X50000Y-16500D02*
G75*
G03X47500Y-14000I-2500J0D01*
G74*
G01*
X47500Y-14000D02*
G75*
G03X45000Y-16500I0J-2500D01*
G74*
G01*
X15000Y-16500D02*
G75*
G03X17500Y-19000I2500J0D01*
G74*
G01*
X15000Y-16500D02*
G75*
G03X12500Y-14000I-2500J0D01*
G74*
G01*
X12500Y-14000D02*
G75*
G03X10000Y-16500I0J-2500D01*
G74*
G01*
X14150Y-38550D02*
X15650Y-38550D01*
X14150Y-27550D02*
X14150Y-38550D01*
X15650Y-27550D02*
X14150Y-27550D01*
X15650Y-38550D02*
X15650Y-27550D01*
X42500Y-45000D02*
X17500Y-45000D01*
X10000Y-37500D02*
X10000Y-16500D01*
X50000Y-16500D02*
X50000Y-37500D01*
G54D14*
X23628Y-37486D02*
G75*
G03X23628Y-37486I-39J0D01*
G74*
G01*
X23687Y-37900D02*
X23687Y-38411D01*
X23687Y-38411D02*
X23412Y-38411D01*
X23412Y-38411D02*
X23412Y-37388D01*
X23412Y-37388D02*
X23687Y-37388D01*
X23687Y-37388D02*
X23687Y-37900D01*
X14353Y-25611D02*
G75*
G03X14353Y-25611I-39J0D01*
G74*
G01*
X14412Y-26025D02*
X14412Y-26536D01*
X14412Y-26536D02*
X14137Y-26536D01*
X14137Y-26536D02*
X14137Y-25513D01*
X14137Y-25513D02*
X14412Y-25513D01*
X14412Y-25513D02*
X14412Y-26025D01*
X23628Y-34986D02*
G75*
G03X23628Y-34986I-39J0D01*
G74*
G01*
X23687Y-35400D02*
X23687Y-35911D01*
X23687Y-35911D02*
X23412Y-35911D01*
X23412Y-35911D02*
X23412Y-34888D01*
X23412Y-34888D02*
X23687Y-34888D01*
X23687Y-34888D02*
X23687Y-35400D01*
X20028Y-39336D02*
G75*
G03X20028Y-39336I-39J0D01*
G74*
G01*
X20087Y-39750D02*
X20087Y-40261D01*
X20087Y-40261D02*
X19812Y-40261D01*
X19812Y-40261D02*
X19812Y-39238D01*
X19812Y-39238D02*
X20087Y-39238D01*
X20087Y-39238D02*
X20087Y-39750D01*
X23550Y-37013D02*
G75*
G03X23550Y-37013I-39J0D01*
G74*
G01*
X23412Y-36600D02*
X23412Y-36088D01*
X23412Y-36088D02*
X23687Y-36088D01*
X23687Y-36088D02*
X23687Y-37111D01*
X23687Y-37111D02*
X23412Y-37111D01*
X23412Y-37111D02*
X23412Y-36600D01*
X23703Y-39336D02*
G75*
G03X23703Y-39336I-39J0D01*
G74*
G01*
X23762Y-39750D02*
X23762Y-40261D01*
X23762Y-40261D02*
X23487Y-40261D01*
X23487Y-40261D02*
X23487Y-39238D01*
X23487Y-39238D02*
X23762Y-39238D01*
X23762Y-39238D02*
X23762Y-39750D01*
X14353Y-24411D02*
G75*
G03X14353Y-24411I-39J0D01*
G74*
G01*
X14412Y-24825D02*
X14412Y-25336D01*
X14412Y-25336D02*
X14137Y-25336D01*
X14137Y-25336D02*
X14137Y-24313D01*
X14137Y-24313D02*
X14412Y-24313D01*
X14412Y-24313D02*
X14412Y-24825D01*
G54D15*
X14425Y-23212D02*
G75*
G03X14425Y-23212I-62J0D01*
G74*
G01*
X14025Y-24175D02*
X14425Y-24175D01*
X14025Y-23150D02*
X14425Y-23150D01*
X14425Y-24175D02*
X14425Y-23150D01*
X14025Y-23150D02*
X14025Y-24175D01*
G54D10*
X41625Y-25150D02*
X40925Y-25150D01*
X41625Y-26000D02*
X40925Y-26000D01*
X40475Y-25150D02*
X40125Y-25150D01*
X40125Y-26000D02*
X40475Y-26000D01*
X40925Y-26000D02*
X40925Y-25150D01*
X41625Y-26000D02*
X41625Y-25150D01*
X40125Y-26000D02*
X40125Y-25150D01*
X28850Y-35275D02*
X29550Y-35275D01*
X28850Y-34425D02*
X29550Y-34425D01*
X30000Y-35275D02*
X30350Y-35275D01*
X30350Y-34425D02*
X30000Y-34425D01*
X29550Y-34425D02*
X29550Y-35275D01*
X28850Y-34425D02*
X28850Y-35275D01*
X30350Y-34425D02*
X30350Y-35275D01*
X19400Y-34650D02*
X20100Y-34650D01*
X19400Y-33800D02*
X20100Y-33800D01*
X20550Y-34650D02*
X20900Y-34650D01*
X20900Y-33800D02*
X20550Y-33800D01*
X20100Y-33800D02*
X20100Y-34650D01*
X19400Y-33800D02*
X19400Y-34650D01*
X20900Y-33800D02*
X20900Y-34650D01*
X21200Y-31375D02*
X21900Y-31375D01*
X21200Y-30525D02*
X21900Y-30525D01*
X22350Y-31375D02*
X22700Y-31375D01*
X22700Y-30525D02*
X22350Y-30525D01*
X21900Y-30525D02*
X21900Y-31375D01*
X21200Y-30525D02*
X21200Y-31375D01*
X22700Y-30525D02*
X22700Y-31375D01*
X19400Y-33425D02*
X20100Y-33425D01*
X19400Y-32575D02*
X20100Y-32575D01*
X20550Y-33425D02*
X20900Y-33425D01*
X20900Y-32575D02*
X20550Y-32575D01*
X20100Y-32575D02*
X20100Y-33425D01*
X19400Y-32575D02*
X19400Y-33425D01*
X20900Y-32575D02*
X20900Y-33425D01*
X21200Y-32600D02*
X21900Y-32600D01*
X21200Y-31750D02*
X21900Y-31750D01*
X22350Y-32600D02*
X22700Y-32600D01*
X22700Y-31750D02*
X22350Y-31750D01*
X21900Y-31750D02*
X21900Y-32600D01*
X21200Y-31750D02*
X21200Y-32600D01*
X22700Y-31750D02*
X22700Y-32600D01*
X16645Y-27130D02*
X16645Y-26430D01*
X15795Y-27130D02*
X15795Y-26430D01*
X16645Y-25980D02*
X16645Y-25630D01*
X15795Y-25630D02*
X15795Y-25980D01*
X15795Y-26430D02*
X16645Y-26430D01*
X15795Y-27130D02*
X16645Y-27130D01*
X15795Y-25630D02*
X16645Y-25630D01*
X21200Y-30175D02*
X21900Y-30175D01*
X21200Y-29325D02*
X21900Y-29325D01*
X22350Y-30175D02*
X22700Y-30175D01*
X22700Y-29325D02*
X22350Y-29325D01*
X21900Y-29325D02*
X21900Y-30175D01*
X21200Y-29325D02*
X21200Y-30175D01*
X22700Y-29325D02*
X22700Y-30175D01*
X19400Y-31025D02*
X20100Y-31025D01*
X19400Y-30175D02*
X20100Y-30175D01*
X20550Y-31025D02*
X20900Y-31025D01*
X20900Y-30175D02*
X20550Y-30175D01*
X20100Y-30175D02*
X20100Y-31025D01*
X19400Y-30175D02*
X19400Y-31025D01*
X20900Y-30175D02*
X20900Y-31025D01*
X18125Y-27125D02*
X18125Y-26425D01*
X17275Y-27125D02*
X17275Y-26425D01*
X18125Y-25975D02*
X18125Y-25625D01*
X17275Y-25625D02*
X17275Y-25975D01*
X17275Y-26425D02*
X18125Y-26425D01*
X17275Y-27125D02*
X18125Y-27125D01*
X17275Y-25625D02*
X18125Y-25625D01*
X21200Y-33775D02*
X21900Y-33775D01*
X21200Y-32925D02*
X21900Y-32925D01*
X22350Y-33775D02*
X22700Y-33775D01*
X22700Y-32925D02*
X22350Y-32925D01*
X21900Y-32925D02*
X21900Y-33775D01*
X21200Y-32925D02*
X21200Y-33775D01*
X22700Y-32925D02*
X22700Y-33775D01*
X21200Y-37625D02*
X21900Y-37625D01*
X21200Y-36775D02*
X21900Y-36775D01*
X22350Y-37625D02*
X22700Y-37625D01*
X22700Y-36775D02*
X22350Y-36775D01*
X21900Y-36775D02*
X21900Y-37625D01*
X21200Y-36775D02*
X21200Y-37625D01*
X22700Y-36775D02*
X22700Y-37625D01*
X19400Y-32225D02*
X20100Y-32225D01*
X19400Y-31375D02*
X20100Y-31375D01*
X20550Y-32225D02*
X20900Y-32225D01*
X20900Y-31375D02*
X20550Y-31375D01*
X20100Y-31375D02*
X20100Y-32225D01*
X19400Y-31375D02*
X19400Y-32225D01*
X20900Y-31375D02*
X20900Y-32225D01*
X21200Y-36425D02*
X21900Y-36425D01*
X21200Y-35575D02*
X21900Y-35575D01*
X22350Y-36425D02*
X22700Y-36425D01*
X22700Y-35575D02*
X22350Y-35575D01*
X21900Y-35575D02*
X21900Y-36425D01*
X21200Y-35575D02*
X21200Y-36425D01*
X22700Y-35575D02*
X22700Y-36425D01*
X34525Y-28575D02*
X35225Y-28575D01*
X34525Y-27725D02*
X35225Y-27725D01*
X35675Y-28575D02*
X36025Y-28575D01*
X36025Y-27725D02*
X35675Y-27725D01*
X35225Y-27725D02*
X35225Y-28575D01*
X34525Y-27725D02*
X34525Y-28575D01*
X36025Y-27725D02*
X36025Y-28575D01*
X22700Y-34075D02*
X22000Y-34075D01*
X22700Y-34925D02*
X22000Y-34925D01*
X21550Y-34075D02*
X21200Y-34075D01*
X21200Y-34925D02*
X21550Y-34925D01*
X22000Y-34925D02*
X22000Y-34075D01*
X22700Y-34925D02*
X22700Y-34075D01*
X21200Y-34925D02*
X21200Y-34075D01*
X19400Y-37025D02*
X20100Y-37025D01*
X19400Y-36175D02*
X20100Y-36175D01*
X20550Y-37025D02*
X20900Y-37025D01*
X20900Y-36175D02*
X20550Y-36175D01*
X20100Y-36175D02*
X20100Y-37025D01*
X19400Y-36175D02*
X19400Y-37025D01*
X20900Y-36175D02*
X20900Y-37025D01*
X19400Y-38225D02*
X20100Y-38225D01*
X19400Y-37375D02*
X20100Y-37375D01*
X20550Y-38225D02*
X20900Y-38225D01*
X20900Y-37375D02*
X20550Y-37375D01*
X20100Y-37375D02*
X20100Y-38225D01*
X19400Y-37375D02*
X19400Y-38225D01*
X20900Y-37375D02*
X20900Y-38225D01*
X19400Y-29825D02*
X20100Y-29825D01*
X19400Y-28975D02*
X20100Y-28975D01*
X20550Y-29825D02*
X20900Y-29825D01*
X20900Y-28975D02*
X20550Y-28975D01*
X20100Y-28975D02*
X20100Y-29825D01*
X19400Y-28975D02*
X19400Y-29825D01*
X20900Y-28975D02*
X20900Y-29825D01*
X26800Y-37150D02*
X26800Y-36450D01*
X25950Y-37150D02*
X25950Y-36450D01*
X26800Y-36000D02*
X26800Y-35650D01*
X25950Y-35650D02*
X25950Y-36000D01*
X25950Y-36450D02*
X26800Y-36450D01*
X25950Y-37150D02*
X26800Y-37150D01*
X25950Y-35650D02*
X26800Y-35650D01*
X12675Y-25950D02*
X12675Y-26575D01*
X12675Y-26575D02*
X11825Y-26575D01*
X11825Y-26575D02*
X11825Y-25950D01*
X11825Y-25650D02*
X11825Y-25050D01*
X11825Y-25050D02*
X11825Y-25025D01*
X11825Y-25025D02*
X12675Y-25025D01*
X12675Y-25025D02*
X12675Y-25650D01*
X21975Y-39600D02*
X21975Y-38975D01*
X21975Y-38975D02*
X22825Y-38975D01*
X22825Y-38975D02*
X22825Y-39600D01*
X22825Y-39900D02*
X22825Y-40500D01*
X22825Y-40500D02*
X22825Y-40525D01*
X22825Y-40525D02*
X21975Y-40525D01*
X21975Y-40525D02*
X21975Y-39900D01*
X19025Y-39900D02*
X19025Y-40525D01*
X19025Y-40525D02*
X18175Y-40525D01*
X18175Y-40525D02*
X18175Y-39900D01*
X18175Y-39600D02*
X18175Y-39000D01*
X18175Y-39000D02*
X18175Y-38975D01*
X18175Y-38975D02*
X19025Y-38975D01*
X19025Y-38975D02*
X19025Y-39600D01*
X20000Y-35825D02*
X19375Y-35825D01*
X19375Y-35825D02*
X19375Y-34975D01*
X19375Y-34975D02*
X20000Y-34975D01*
X20300Y-34975D02*
X20900Y-34975D01*
X20900Y-34975D02*
X20925Y-34975D01*
X20925Y-34975D02*
X20925Y-35825D01*
X20925Y-35825D02*
X20300Y-35825D01*
X17075Y-39600D02*
X17075Y-38975D01*
X17075Y-38975D02*
X17925Y-38975D01*
X17925Y-38975D02*
X17925Y-39600D01*
X17925Y-39900D02*
X17925Y-40500D01*
X17925Y-40500D02*
X17925Y-40525D01*
X17925Y-40525D02*
X17075Y-40525D01*
X17075Y-40525D02*
X17075Y-39900D01*
X20925Y-39600D02*
X20925Y-38975D01*
X20925Y-38975D02*
X21775Y-38975D01*
X21775Y-38975D02*
X21775Y-39600D01*
X21775Y-39900D02*
X21775Y-40500D01*
X21775Y-40500D02*
X21775Y-40525D01*
X21775Y-40525D02*
X20925Y-40525D01*
X20925Y-40525D02*
X20925Y-39900D01*
X39700Y-28425D02*
X40325Y-28425D01*
X40325Y-28425D02*
X40325Y-29275D01*
X40325Y-29275D02*
X39700Y-29275D01*
X39400Y-29275D02*
X38800Y-29275D01*
X38800Y-29275D02*
X38775Y-29275D01*
X38775Y-29275D02*
X38775Y-28425D01*
X38775Y-28425D02*
X39400Y-28425D01*
X10700Y-23900D02*
X10700Y-23275D01*
X10700Y-23275D02*
X11550Y-23275D01*
X11550Y-23275D02*
X11550Y-23900D01*
X11550Y-24200D02*
X11550Y-24800D01*
X11550Y-24800D02*
X11550Y-24825D01*
X11550Y-24825D02*
X10700Y-24825D01*
X10700Y-24825D02*
X10700Y-24200D01*
X25400Y-37150D02*
X25400Y-36450D01*
X24550Y-37150D02*
X24550Y-36450D01*
X25400Y-36000D02*
X25400Y-35650D01*
X24550Y-35650D02*
X24550Y-36000D01*
X24550Y-36450D02*
X25400Y-36450D01*
X24550Y-37150D02*
X25400Y-37150D01*
X24550Y-35650D02*
X25400Y-35650D01*
X38800Y-30275D02*
X39500Y-30275D01*
X38800Y-29425D02*
X39500Y-29425D01*
X39950Y-30275D02*
X40300Y-30275D01*
X40300Y-29425D02*
X39950Y-29425D01*
X39500Y-29425D02*
X39500Y-30275D01*
X38800Y-29425D02*
X38800Y-30275D01*
X40300Y-29425D02*
X40300Y-30275D01*
X38650Y-36050D02*
X37950Y-36050D01*
X38650Y-36900D02*
X37950Y-36900D01*
X37500Y-36050D02*
X37150Y-36050D01*
X37150Y-36900D02*
X37500Y-36900D01*
X37950Y-36900D02*
X37950Y-36050D01*
X38650Y-36900D02*
X38650Y-36050D01*
X37150Y-36900D02*
X37150Y-36050D01*
X12675Y-24825D02*
X12675Y-24125D01*
X11825Y-24825D02*
X11825Y-24125D01*
X12675Y-23675D02*
X12675Y-23325D01*
X11825Y-23325D02*
X11825Y-23675D01*
X11825Y-24125D02*
X12675Y-24125D01*
X11825Y-24825D02*
X12675Y-24825D01*
X11825Y-23325D02*
X12675Y-23325D01*
X36025Y-30450D02*
X35325Y-30450D01*
X36025Y-31300D02*
X35325Y-31300D01*
X34875Y-30450D02*
X34525Y-30450D01*
X34525Y-31300D02*
X34875Y-31300D01*
X35325Y-31300D02*
X35325Y-30450D01*
X36025Y-31300D02*
X36025Y-30450D01*
X34525Y-31300D02*
X34525Y-30450D01*
X26750Y-31425D02*
X26750Y-32125D01*
X27600Y-31425D02*
X27600Y-32125D01*
X26750Y-32575D02*
X26750Y-32925D01*
X27600Y-32925D02*
X27600Y-32575D01*
X27600Y-32125D02*
X26750Y-32125D01*
X27600Y-31425D02*
X26750Y-31425D01*
X27600Y-32925D02*
X26750Y-32925D01*
X10700Y-25025D02*
X10700Y-25725D01*
X11550Y-25025D02*
X11550Y-25725D01*
X10700Y-26175D02*
X10700Y-26525D01*
X11550Y-26525D02*
X11550Y-26175D01*
X11550Y-25725D02*
X10700Y-25725D01*
X11550Y-25025D02*
X10700Y-25025D01*
X11550Y-26525D02*
X10700Y-26525D01*
X34125Y-30250D02*
X34125Y-29550D01*
X33275Y-30250D02*
X33275Y-29550D01*
X34125Y-29100D02*
X34125Y-28750D01*
X33275Y-28750D02*
X33275Y-29100D01*
X33275Y-29550D02*
X34125Y-29550D01*
X33275Y-30250D02*
X34125Y-30250D01*
X33275Y-28750D02*
X34125Y-28750D01*
X34950Y-29200D02*
X34950Y-28825D01*
X34950Y-28825D02*
X36050Y-28825D01*
X36050Y-28825D02*
X36050Y-30150D01*
X36050Y-30150D02*
X36050Y-30175D01*
X36050Y-30175D02*
X34950Y-30175D01*
X34950Y-30175D02*
X34950Y-29800D01*
X34950Y-29800D02*
X34350Y-29800D01*
X34350Y-29800D02*
X34350Y-29500D01*
X34350Y-29500D02*
X34350Y-29200D01*
X34350Y-29200D02*
X34950Y-29200D01*
X34400Y-40075D02*
X35025Y-40075D01*
X35025Y-40075D02*
X35025Y-40925D01*
X35025Y-40925D02*
X34400Y-40925D01*
X34100Y-40925D02*
X33500Y-40925D01*
X33500Y-40925D02*
X33475Y-40925D01*
X33475Y-40925D02*
X33475Y-40075D01*
X33475Y-40075D02*
X34100Y-40075D01*
X38425Y-40050D02*
X39050Y-40050D01*
X39050Y-40050D02*
X39050Y-40900D01*
X39050Y-40900D02*
X38425Y-40900D01*
X38125Y-40900D02*
X37525Y-40900D01*
X37525Y-40900D02*
X37500Y-40900D01*
X37500Y-40900D02*
X37500Y-40050D01*
X37500Y-40050D02*
X38125Y-40050D01*
X30425Y-40075D02*
X31050Y-40075D01*
X31050Y-40075D02*
X31050Y-40925D01*
X31050Y-40925D02*
X30425Y-40925D01*
X30125Y-40925D02*
X29525Y-40925D01*
X29525Y-40925D02*
X29500Y-40925D01*
X29500Y-40925D02*
X29500Y-40075D01*
X29500Y-40075D02*
X30125Y-40075D01*
X42525Y-40950D02*
X41900Y-40950D01*
X41900Y-40950D02*
X41900Y-40100D01*
X41900Y-40100D02*
X42525Y-40100D01*
X42825Y-40100D02*
X43425Y-40100D01*
X43425Y-40100D02*
X43450Y-40100D01*
X43450Y-40100D02*
X43450Y-40950D01*
X43450Y-40950D02*
X42825Y-40950D01*
X16850Y-41975D02*
X16850Y-41925D01*
X16900Y-41975D02*
X16900Y-41875D01*
X16950Y-41975D02*
X16950Y-41825D01*
X16150Y-41975D02*
X16150Y-41925D01*
X16100Y-41975D02*
X16100Y-41875D01*
X16050Y-41975D02*
X16050Y-41825D01*
X16150Y-41025D02*
X16150Y-41075D01*
X16100Y-41025D02*
X16100Y-41125D01*
X16050Y-41025D02*
X16050Y-41175D01*
X16850Y-41025D02*
X16850Y-41075D01*
X16900Y-41025D02*
X16900Y-41100D01*
X16950Y-41025D02*
X16950Y-41175D01*
X16750Y-42000D02*
X16975Y-42000D01*
X16975Y-42000D02*
X17000Y-42000D01*
X17000Y-42000D02*
X17000Y-41775D01*
X16000Y-41750D02*
X16000Y-42000D01*
X16000Y-42000D02*
X16250Y-42000D01*
X17000Y-41250D02*
X17000Y-41000D01*
X17000Y-41000D02*
X16750Y-41000D01*
X16000Y-41250D02*
X16000Y-41000D01*
X16000Y-41000D02*
X16250Y-41000D01*
X17000Y-41750D02*
X17000Y-41250D01*
X16000Y-41750D02*
X16000Y-41250D01*
X16000Y-41250D02*
X16250Y-41000D01*
X16250Y-41000D02*
X16750Y-41000D01*
X16750Y-41000D02*
X17000Y-41250D01*
X17000Y-41250D02*
X17250Y-41000D01*
X17250Y-41000D02*
X17750Y-41000D01*
X17750Y-41000D02*
X18000Y-41250D01*
X18000Y-41250D02*
X18250Y-41000D01*
X18250Y-41000D02*
X18750Y-41000D01*
X18750Y-41000D02*
X19000Y-41250D01*
X19000Y-41250D02*
X19250Y-41000D01*
X19250Y-41000D02*
X19750Y-41000D01*
X19750Y-41000D02*
X20000Y-41250D01*
X20000Y-41250D02*
X20250Y-41000D01*
X20250Y-41000D02*
X20750Y-41000D01*
X20750Y-41000D02*
X21000Y-41250D01*
X21000Y-41250D02*
X21250Y-41000D01*
X21250Y-41000D02*
X21750Y-41000D01*
X21750Y-41000D02*
X22000Y-41250D01*
X22000Y-41250D02*
X22000Y-41750D01*
X22000Y-41750D02*
X21750Y-42000D01*
X21750Y-42000D02*
X21250Y-42000D01*
X21250Y-42000D02*
X21000Y-41750D01*
X21000Y-41750D02*
X20750Y-42000D01*
X20750Y-42000D02*
X20250Y-42000D01*
X20250Y-42000D02*
X20000Y-41750D01*
X20000Y-41750D02*
X19750Y-42000D01*
X19750Y-42000D02*
X19250Y-42000D01*
X19250Y-42000D02*
X19000Y-41750D01*
X19000Y-41750D02*
X18750Y-42000D01*
X18750Y-42000D02*
X18250Y-42000D01*
X18250Y-42000D02*
X18000Y-41750D01*
X18000Y-41750D02*
X17750Y-42000D01*
X17750Y-42000D02*
X17250Y-42000D01*
X17250Y-42000D02*
X17000Y-41750D01*
X17000Y-41750D02*
X16750Y-42000D01*
X16750Y-42000D02*
X16250Y-42000D01*
X16250Y-42000D02*
X16000Y-41750D01*
X22275Y-41100D02*
X22275Y-41800D01*
X23125Y-41100D02*
X23125Y-41800D01*
X22275Y-42250D02*
X22275Y-42600D01*
X23125Y-42600D02*
X23125Y-42250D01*
X23125Y-41800D02*
X22275Y-41800D01*
X23125Y-41100D02*
X22275Y-41100D01*
X23125Y-42600D02*
X22275Y-42600D01*
X28350Y-31150D02*
X28275Y-31150D01*
X28350Y-31150D02*
X28350Y-31225D01*
X28400Y-31100D02*
X28225Y-31100D01*
X28400Y-31100D02*
X28400Y-31275D01*
X28450Y-31050D02*
X28175Y-31050D01*
X28450Y-31050D02*
X28450Y-31325D01*
X28500Y-31000D02*
X28125Y-31000D01*
X28500Y-31000D02*
X28500Y-31375D01*
X28550Y-30950D02*
X28075Y-30950D01*
X28550Y-30950D02*
X28550Y-31425D01*
X27975Y-30900D02*
X28600Y-30900D01*
X28600Y-30900D02*
X28600Y-31500D01*
X28725Y-31625D02*
X32125Y-31625D01*
X32125Y-31625D02*
X32125Y-27375D01*
X32125Y-27375D02*
X27875Y-27375D01*
X27875Y-27375D02*
X27875Y-30800D01*
X27875Y-30800D02*
X28725Y-31625D01*
G54D12*
X46500Y-33100D02*
X46500Y-33200D01*
X46500Y-32100D02*
X46500Y-32300D01*
X46500Y-31100D02*
X46500Y-31300D01*
X46500Y-30100D02*
X46500Y-30300D01*
X46500Y-29200D02*
X46500Y-29300D01*
X47000Y-32200D02*
X47000Y-33200D01*
X47100Y-32200D02*
X47100Y-33200D01*
X47200Y-32200D02*
X47200Y-33200D01*
X46500Y-32200D02*
X47300Y-32200D01*
X47300Y-32700D02*
X47900Y-32700D01*
X47300Y-31700D02*
X47900Y-31700D01*
X47300Y-30700D02*
X47900Y-30700D01*
X47300Y-29700D02*
X47900Y-29700D01*
X46500Y-30200D02*
X47300Y-30200D01*
X46500Y-29200D02*
X47300Y-29200D01*
X47300Y-29200D02*
X47300Y-31200D01*
X47300Y-31200D02*
X47300Y-33200D01*
X47300Y-33200D02*
X46500Y-33200D01*
G54D15*
X27975Y-35962D02*
G75*
G03X27975Y-35962I-62J0D01*
G74*
G01*
X27575Y-36925D02*
X27975Y-36925D01*
X27575Y-35900D02*
X27975Y-35900D01*
X27975Y-36925D02*
X27975Y-35900D01*
X27575Y-35900D02*
X27575Y-36925D01*
G54D10*
X37200Y-21625D02*
X37200Y-22250D01*
X37200Y-22250D02*
X36350Y-22250D01*
X36350Y-22250D02*
X36350Y-21625D01*
X36350Y-21325D02*
X36350Y-20725D01*
X36350Y-20725D02*
X36350Y-20700D01*
X36350Y-20700D02*
X37200Y-20700D01*
X37200Y-20700D02*
X37200Y-21325D01*
X40400Y-23850D02*
X41100Y-23850D01*
X40400Y-23000D02*
X41100Y-23000D01*
X41550Y-23850D02*
X41900Y-23850D01*
X41900Y-23000D02*
X41550Y-23000D01*
X41100Y-23000D02*
X41100Y-23850D01*
X40400Y-23000D02*
X40400Y-23850D01*
X41900Y-23000D02*
X41900Y-23850D01*
X46750Y-36600D02*
X47000Y-36350D01*
X46750Y-35600D02*
X47000Y-35350D01*
X47000Y-35850D02*
X46750Y-35600D01*
X46750Y-34600D02*
X47000Y-34350D01*
X47000Y-34850D02*
X46750Y-34600D01*
X47000Y-33850D02*
X46750Y-33600D01*
X45250Y-33600D02*
X45000Y-33850D01*
X45250Y-34600D02*
X45000Y-34850D01*
X45000Y-34350D02*
X45250Y-34600D01*
X45250Y-35600D02*
X45000Y-35850D01*
X45000Y-35350D02*
X45250Y-35600D01*
X45000Y-36350D02*
X45250Y-36600D01*
X46750Y-33600D02*
X45250Y-33600D01*
X45000Y-33850D02*
X45000Y-34350D01*
X45000Y-34850D02*
X45000Y-35350D01*
X45000Y-35850D02*
X45000Y-36350D01*
X45250Y-36600D02*
X46750Y-36600D01*
X47000Y-36350D02*
X47000Y-35850D01*
X47000Y-35350D02*
X47000Y-34850D01*
X47000Y-34350D02*
X47000Y-33850D01*
X45000Y-35600D02*
X45000Y-35850D01*
X45250Y-35600D02*
X45000Y-35600D01*
X45000Y-36600D02*
X45250Y-36600D01*
X45000Y-36350D02*
X45000Y-36600D01*
X45750Y-35600D02*
X45250Y-35600D01*
X46000Y-35600D02*
X45750Y-35600D01*
X46000Y-36350D02*
X46000Y-36600D01*
X46000Y-35850D02*
X46000Y-36350D01*
X46000Y-35600D02*
X46000Y-35850D01*
X46000Y-36350D02*
X45750Y-36600D01*
X45750Y-35600D02*
X46000Y-35850D01*
X45000Y-35650D02*
X45200Y-35650D01*
X45000Y-35700D02*
X45150Y-35700D01*
X45000Y-35750D02*
X45100Y-35750D01*
X45000Y-36550D02*
X45200Y-36550D01*
X45000Y-36500D02*
X45150Y-36500D01*
X45000Y-36450D02*
X45100Y-36450D01*
X46000Y-36550D02*
X45800Y-36550D01*
X46000Y-36500D02*
X45850Y-36500D01*
X46000Y-36450D02*
X45900Y-36450D01*
X46000Y-35650D02*
X45800Y-35650D01*
X46000Y-35700D02*
X45850Y-35700D01*
X46000Y-35750D02*
X45900Y-35750D01*
X26400Y-40075D02*
X27025Y-40075D01*
X27025Y-40075D02*
X27025Y-40925D01*
X27025Y-40925D02*
X26400Y-40925D01*
X26100Y-40925D02*
X25500Y-40925D01*
X25500Y-40925D02*
X25475Y-40925D01*
X25475Y-40925D02*
X25475Y-40075D01*
X25475Y-40075D02*
X26100Y-40075D01*
X39875Y-23000D02*
X39175Y-23000D01*
X39875Y-23850D02*
X39175Y-23850D01*
X38725Y-23000D02*
X38375Y-23000D01*
X38375Y-23850D02*
X38725Y-23850D01*
X39175Y-23850D02*
X39175Y-23000D01*
X39875Y-23850D02*
X39875Y-23000D01*
X38375Y-23850D02*
X38375Y-23000D01*
X45050Y-30450D02*
X45050Y-31150D01*
X45900Y-30450D02*
X45900Y-31150D01*
X45050Y-31600D02*
X45050Y-31950D01*
X45900Y-31950D02*
X45900Y-31600D01*
X45900Y-31150D02*
X45050Y-31150D01*
X45900Y-30450D02*
X45050Y-30450D01*
X45900Y-31950D02*
X45050Y-31950D01*
X12150Y-35000D02*
X12150Y-33575D01*
X12150Y-33575D02*
X11975Y-33575D01*
X12150Y-36425D02*
X11975Y-36425D01*
X12150Y-35000D02*
X12150Y-36425D01*
X11975Y-36425D02*
X11975Y-36700D01*
X11975Y-36700D02*
X10000Y-36700D01*
X10000Y-36700D02*
X10000Y-35000D01*
X10000Y-35000D02*
X10000Y-33300D01*
X10000Y-33300D02*
X11975Y-33300D01*
X11975Y-33300D02*
X11975Y-33575D01*
X10225Y-33975D02*
X10075Y-33975D01*
X10225Y-36025D02*
X10075Y-36025D01*
X10225Y-36025D02*
X10225Y-36100D01*
X10225Y-36100D02*
X10075Y-36025D01*
X10075Y-36025D02*
X10225Y-35950D01*
X10225Y-35950D02*
X10225Y-36025D01*
X10225Y-34050D02*
X10225Y-33900D01*
X10225Y-33900D02*
X10075Y-33975D01*
X10075Y-33975D02*
X10225Y-34050D01*
G54D15*
X27975Y-34387D02*
G75*
G03X27975Y-34387I-62J0D01*
G74*
G01*
X27575Y-35350D02*
X27975Y-35350D01*
X27575Y-34325D02*
X27975Y-34325D01*
X27975Y-35350D02*
X27975Y-34325D01*
X27575Y-34325D02*
X27575Y-35350D01*
G54D10*
X28850Y-36850D02*
X29550Y-36850D01*
X28850Y-36000D02*
X29550Y-36000D01*
X30000Y-36850D02*
X30350Y-36850D01*
X30350Y-36000D02*
X30000Y-36000D01*
X29550Y-36000D02*
X29550Y-36850D01*
X28850Y-36000D02*
X28850Y-36850D01*
X30350Y-36000D02*
X30350Y-36850D01*
X32025Y-22425D02*
X32025Y-21250D01*
X32575Y-22425D02*
X32575Y-21250D01*
X32575Y-21350D02*
X32025Y-21350D01*
X32575Y-22425D02*
X32025Y-22425D01*
X32025Y-21400D02*
X32575Y-21400D01*
X32025Y-21300D02*
X32575Y-21300D01*
X32575Y-21250D02*
X32025Y-21250D01*
X40750Y-20875D02*
X40675Y-20800D01*
X39800Y-20900D02*
X40100Y-20900D01*
X39800Y-20850D02*
X40100Y-20850D01*
X39800Y-20800D02*
X39800Y-20950D01*
X39800Y-20950D02*
X40100Y-20950D01*
X40100Y-20950D02*
X40100Y-20800D01*
X40750Y-22825D02*
X40750Y-22900D01*
X40750Y-22900D02*
X39150Y-22900D01*
X39150Y-22900D02*
X39150Y-22825D01*
X39150Y-20875D02*
X39150Y-20800D01*
X39150Y-20800D02*
X40750Y-20800D01*
X40750Y-20800D02*
X40750Y-20875D01*
X48600Y-27550D02*
X48600Y-23200D01*
X48600Y-27550D02*
X48300Y-27550D01*
X48600Y-23200D02*
X47950Y-23200D01*
X48300Y-27525D02*
X48300Y-26850D01*
X48300Y-26850D02*
X47925Y-24675D01*
X47925Y-23200D02*
X47925Y-24675D01*
X46200Y-22725D02*
X42600Y-22725D01*
X42600Y-27925D02*
X42600Y-26700D01*
X46275Y-28625D02*
X43150Y-28625D01*
X43150Y-28625D02*
X43150Y-27925D01*
X43150Y-27925D02*
X42600Y-27925D01*
X47100Y-28625D02*
X48300Y-28625D01*
X48300Y-28625D02*
X48300Y-27525D01*
X47200Y-22725D02*
X47925Y-22725D01*
X47925Y-22725D02*
X47925Y-23200D01*
X26125Y-31250D02*
X25800Y-31250D01*
X25800Y-31250D02*
X25800Y-32450D01*
X25800Y-32450D02*
X26450Y-32450D01*
X26450Y-32450D02*
X26450Y-31250D01*
X26450Y-31250D02*
X26125Y-31250D01*
X24450Y-31250D02*
X24125Y-31250D01*
X24125Y-31250D02*
X24125Y-32450D01*
X24125Y-32450D02*
X24775Y-32450D01*
X24775Y-32450D02*
X24775Y-31250D01*
X24775Y-31250D02*
X24450Y-31250D01*
X25250Y-30325D02*
X25450Y-30325D01*
X24850Y-30325D02*
X24650Y-30325D01*
X24850Y-30725D02*
X24850Y-29925D01*
X25250Y-29925D02*
X25250Y-30725D01*
X25000Y-30075D02*
X25000Y-30575D01*
X25100Y-30075D02*
X25100Y-30575D01*
X25050Y-30075D02*
X25050Y-30575D01*
X25100Y-30075D02*
X25000Y-30075D01*
X25000Y-30575D02*
X25100Y-30575D01*
X24375Y-29600D02*
X23150Y-29600D01*
X23150Y-29600D02*
X23150Y-31050D01*
X23150Y-31050D02*
X24375Y-31050D01*
X25725Y-29600D02*
X26950Y-29600D01*
X26950Y-29600D02*
X26950Y-31050D01*
X26950Y-31050D02*
X25750Y-31050D01*
G54D12*
X11525Y-19225D02*
X13295Y-19225D01*
X10025Y-19225D02*
X11525Y-19225D01*
X15325Y-19395D02*
X15325Y-19915D01*
X15325Y-22625D02*
X15325Y-21935D01*
X10325Y-22625D02*
X10025Y-22625D01*
X10025Y-22625D02*
X10025Y-19225D01*
X10325Y-22625D02*
X15325Y-22625D01*
G54D10*
X45750Y-20825D02*
X49000Y-20825D01*
X49000Y-20825D02*
X49000Y-22125D01*
X49000Y-22125D02*
X45750Y-22125D01*
X38775Y-33025D02*
X38775Y-33775D01*
X38400Y-33025D02*
X38775Y-33025D01*
X38400Y-33775D02*
X38775Y-33775D01*
X38400Y-32225D02*
X38725Y-31900D01*
X38650Y-31900D02*
X38400Y-32150D01*
X38400Y-32075D02*
X38575Y-31900D01*
X38500Y-31900D02*
X38400Y-32000D01*
X38400Y-31900D02*
X38400Y-34900D01*
X43400Y-31900D02*
X38400Y-31900D01*
X43400Y-34900D02*
X43400Y-31900D01*
X38400Y-34900D02*
X43400Y-34900D01*
X10000Y-28250D02*
X13525Y-28250D01*
X10000Y-30000D02*
X10000Y-31750D01*
X10000Y-31750D02*
X13525Y-31750D01*
X13525Y-31750D02*
X13525Y-31375D01*
X13525Y-31375D02*
X12175Y-31375D01*
X12175Y-31375D02*
X12175Y-28625D01*
X12175Y-28625D02*
X13525Y-28625D01*
X13525Y-28625D02*
X13525Y-28250D01*
X10000Y-28250D02*
X10000Y-30000D01*
X16098Y-27671D02*
X16098Y-37828D01*
X17239Y-28773D02*
X17239Y-27671D01*
X17239Y-27671D02*
X16098Y-27671D01*
X17239Y-28773D02*
X18283Y-28773D01*
X16098Y-37828D02*
X17239Y-37828D01*
X17239Y-37828D02*
X17239Y-36726D01*
X17239Y-36726D02*
X18283Y-36726D01*
X18283Y-36726D02*
X18283Y-28773D01*
X15966Y-36985D02*
X15277Y-36985D01*
X15966Y-28914D02*
X15277Y-28914D01*
X14159Y-28714D02*
X15340Y-29305D01*
X15340Y-29305D02*
X16029Y-29305D01*
X15340Y-37966D02*
X16029Y-37966D01*
X15340Y-37966D02*
X14159Y-36785D01*
X16100Y-22175D02*
X18650Y-22175D01*
X18650Y-25175D02*
X16100Y-25175D01*
X28650Y-25175D02*
X31200Y-25175D01*
X31200Y-22175D02*
X28650Y-22175D01*
X19150Y-20325D02*
X19150Y-21175D01*
X19150Y-20325D02*
G75*
G02X20450Y-19025I1300J0D01*
G74*
G01*
X28150Y-20325D02*
X28150Y-21175D01*
X26850Y-19025D02*
G75*
G02X28150Y-20325I0J-1300D01*
G74*
G01*
X18650Y-21175D02*
X19150Y-21175D01*
X28650Y-21175D02*
X28150Y-21175D01*
X18650Y-26175D02*
X19150Y-26175D01*
X19150Y-26175D02*
X20650Y-28225D01*
X20650Y-28725D02*
X20650Y-28225D01*
X26650Y-28725D02*
X26650Y-28225D01*
X26650Y-28225D02*
X28150Y-26175D01*
X28650Y-26175D02*
X28150Y-26175D01*
X18650Y-25175D02*
X18650Y-26175D01*
X18650Y-22175D02*
X18650Y-21175D01*
X28650Y-25175D02*
X28650Y-26175D01*
X28650Y-22175D02*
X28650Y-21175D01*
X28450Y-23675D02*
G75*
G03X28450Y-23675I-4800J0D01*
G74*
G01*
X16100Y-22175D02*
X16100Y-25175D01*
X31200Y-22175D02*
X31200Y-25175D01*
X23650Y-28725D02*
X20650Y-28725D01*
X23650Y-28725D02*
X26650Y-28725D01*
G54D14*
X22150Y-19025D02*
X20450Y-19025D01*
X22650Y-19525D02*
X22150Y-19025D01*
X23650Y-19525D02*
X22650Y-19525D01*
X24650Y-19525D02*
X23650Y-19525D01*
X25150Y-19025D02*
X24650Y-19525D01*
X26850Y-19025D02*
X25150Y-19025D01*
G54D10*
X27650Y-23675D02*
G75*
G03X27650Y-23675I-4000J0D01*
G74*
G01*
X24663Y-38375D02*
X24701Y-38355D01*
X24739Y-38317D01*
X24796Y-38260D01*
X24834Y-38241D01*
X24872Y-38241D01*
X24853Y-38336D02*
X24891Y-38317D01*
X24929Y-38279D01*
X24948Y-38203D01*
X24948Y-38070D01*
X24929Y-37994D01*
X24891Y-37955D01*
X24853Y-37936D01*
X24777Y-37936D01*
X24739Y-37955D01*
X24701Y-37994D01*
X24682Y-38070D01*
X24682Y-38203D01*
X24701Y-38279D01*
X24739Y-38317D01*
X24777Y-38336D01*
X24853Y-38336D01*
X24320Y-37936D02*
X24510Y-37936D01*
X24529Y-38127D01*
X24510Y-38108D01*
X24472Y-38089D01*
X24377Y-38089D01*
X24339Y-38108D01*
X24320Y-38127D01*
X24301Y-38165D01*
X24301Y-38260D01*
X24320Y-38298D01*
X24339Y-38317D01*
X24377Y-38336D01*
X24472Y-38336D01*
X24510Y-38317D01*
X24529Y-38298D01*
X15363Y-26550D02*
X15401Y-26530D01*
X15439Y-26492D01*
X15496Y-26435D01*
X15534Y-26416D01*
X15572Y-26416D01*
X15553Y-26511D02*
X15591Y-26492D01*
X15629Y-26454D01*
X15648Y-26378D01*
X15648Y-26245D01*
X15629Y-26169D01*
X15591Y-26130D01*
X15553Y-26111D01*
X15477Y-26111D01*
X15439Y-26130D01*
X15401Y-26169D01*
X15382Y-26245D01*
X15382Y-26378D01*
X15401Y-26454D01*
X15439Y-26492D01*
X15477Y-26511D01*
X15553Y-26511D01*
X15229Y-26150D02*
X15210Y-26130D01*
X15172Y-26111D01*
X15077Y-26111D01*
X15039Y-26130D01*
X15020Y-26150D01*
X15001Y-26188D01*
X15001Y-26226D01*
X15020Y-26283D01*
X15248Y-26511D01*
X15001Y-26511D01*
X24688Y-35225D02*
X24726Y-35205D01*
X24764Y-35167D01*
X24821Y-35110D01*
X24859Y-35091D01*
X24897Y-35091D01*
X24878Y-35186D02*
X24916Y-35167D01*
X24954Y-35129D01*
X24973Y-35053D01*
X24973Y-34920D01*
X24954Y-34844D01*
X24916Y-34805D01*
X24878Y-34786D01*
X24802Y-34786D01*
X24764Y-34805D01*
X24726Y-34844D01*
X24707Y-34920D01*
X24707Y-35053D01*
X24726Y-35129D01*
X24764Y-35167D01*
X24802Y-35186D01*
X24878Y-35186D01*
X24364Y-34920D02*
X24364Y-35186D01*
X24459Y-34767D02*
X24554Y-35053D01*
X24307Y-35053D01*
X19988Y-39150D02*
X20026Y-39130D01*
X20064Y-39092D01*
X20121Y-39035D01*
X20159Y-39016D01*
X20197Y-39016D01*
X20178Y-39111D02*
X20216Y-39092D01*
X20254Y-39054D01*
X20273Y-38978D01*
X20273Y-38845D01*
X20254Y-38769D01*
X20216Y-38730D01*
X20178Y-38711D01*
X20102Y-38711D01*
X20064Y-38730D01*
X20026Y-38769D01*
X20007Y-38845D01*
X20007Y-38978D01*
X20026Y-39054D01*
X20064Y-39092D01*
X20102Y-39111D01*
X20178Y-39111D01*
X19664Y-38711D02*
X19740Y-38711D01*
X19778Y-38730D01*
X19797Y-38750D01*
X19835Y-38807D01*
X19854Y-38883D01*
X19854Y-39035D01*
X19835Y-39073D01*
X19816Y-39092D01*
X19778Y-39111D01*
X19702Y-39111D01*
X19664Y-39092D01*
X19645Y-39073D01*
X19626Y-39035D01*
X19626Y-38940D01*
X19645Y-38902D01*
X19664Y-38883D01*
X19702Y-38864D01*
X19778Y-38864D01*
X19816Y-38883D01*
X19835Y-38902D01*
X19854Y-38940D01*
X24395Y-36336D02*
X24395Y-35936D01*
X24299Y-35936D01*
X24242Y-35955D01*
X24204Y-35994D01*
X24185Y-36032D01*
X24166Y-36108D01*
X24166Y-36165D01*
X24185Y-36241D01*
X24204Y-36279D01*
X24242Y-36317D01*
X24299Y-36336D01*
X24395Y-36336D01*
X23785Y-36336D02*
X24014Y-36336D01*
X23899Y-36336D02*
X23899Y-35936D01*
X23938Y-35994D01*
X23976Y-36032D01*
X24014Y-36051D01*
X24138Y-39200D02*
X24176Y-39180D01*
X24214Y-39142D01*
X24271Y-39085D01*
X24309Y-39066D01*
X24347Y-39066D01*
X24328Y-39161D02*
X24366Y-39142D01*
X24404Y-39104D01*
X24423Y-39028D01*
X24423Y-38895D01*
X24404Y-38819D01*
X24366Y-38780D01*
X24328Y-38761D01*
X24252Y-38761D01*
X24214Y-38780D01*
X24176Y-38819D01*
X24157Y-38895D01*
X24157Y-39028D01*
X24176Y-39104D01*
X24214Y-39142D01*
X24252Y-39161D01*
X24328Y-39161D01*
X24023Y-38761D02*
X23757Y-38761D01*
X23928Y-39161D01*
X15388Y-24850D02*
X15426Y-24830D01*
X15464Y-24792D01*
X15521Y-24735D01*
X15559Y-24716D01*
X15597Y-24716D01*
X15578Y-24811D02*
X15616Y-24792D01*
X15654Y-24754D01*
X15673Y-24678D01*
X15673Y-24545D01*
X15654Y-24469D01*
X15616Y-24430D01*
X15578Y-24411D01*
X15502Y-24411D01*
X15464Y-24430D01*
X15426Y-24469D01*
X15407Y-24545D01*
X15407Y-24678D01*
X15426Y-24754D01*
X15464Y-24792D01*
X15502Y-24811D01*
X15578Y-24811D01*
X15273Y-24411D02*
X15026Y-24411D01*
X15159Y-24564D01*
X15102Y-24564D01*
X15064Y-24583D01*
X15045Y-24602D01*
X15026Y-24640D01*
X15026Y-24735D01*
X15045Y-24773D01*
X15064Y-24792D01*
X15102Y-24811D01*
X15216Y-24811D01*
X15254Y-24792D01*
X15273Y-24773D01*
X15388Y-23850D02*
X15426Y-23830D01*
X15464Y-23792D01*
X15521Y-23735D01*
X15559Y-23716D01*
X15597Y-23716D01*
X15578Y-23811D02*
X15616Y-23792D01*
X15654Y-23754D01*
X15673Y-23678D01*
X15673Y-23545D01*
X15654Y-23469D01*
X15616Y-23430D01*
X15578Y-23411D01*
X15502Y-23411D01*
X15464Y-23430D01*
X15426Y-23469D01*
X15407Y-23545D01*
X15407Y-23678D01*
X15426Y-23754D01*
X15464Y-23792D01*
X15502Y-23811D01*
X15578Y-23811D01*
X15026Y-23811D02*
X15254Y-23811D01*
X15140Y-23811D02*
X15140Y-23411D01*
X15178Y-23469D01*
X15216Y-23507D01*
X15254Y-23526D01*
X40941Y-26498D02*
X40960Y-26517D01*
X41017Y-26536D01*
X41055Y-26536D01*
X41113Y-26517D01*
X41151Y-26479D01*
X41170Y-26441D01*
X41189Y-26365D01*
X41189Y-26308D01*
X41170Y-26232D01*
X41151Y-26194D01*
X41113Y-26155D01*
X41055Y-26136D01*
X41017Y-26136D01*
X40960Y-26155D01*
X40941Y-26175D01*
X40579Y-26136D02*
X40770Y-26136D01*
X40789Y-26327D01*
X40770Y-26308D01*
X40732Y-26289D01*
X40636Y-26289D01*
X40598Y-26308D01*
X40579Y-26327D01*
X40560Y-26365D01*
X40560Y-26460D01*
X40579Y-26498D01*
X40598Y-26517D01*
X40636Y-26536D01*
X40732Y-26536D01*
X40770Y-26517D01*
X40789Y-26498D01*
X31257Y-34973D02*
X31276Y-34992D01*
X31333Y-35011D01*
X31371Y-35011D01*
X31428Y-34992D01*
X31466Y-34954D01*
X31485Y-34916D01*
X31504Y-34840D01*
X31504Y-34783D01*
X31485Y-34707D01*
X31466Y-34669D01*
X31428Y-34630D01*
X31371Y-34611D01*
X31333Y-34611D01*
X31276Y-34630D01*
X31257Y-34650D01*
X31123Y-34611D02*
X30876Y-34611D01*
X31009Y-34764D01*
X30952Y-34764D01*
X30914Y-34783D01*
X30895Y-34802D01*
X30876Y-34840D01*
X30876Y-34935D01*
X30895Y-34973D01*
X30914Y-34992D01*
X30952Y-35011D01*
X31066Y-35011D01*
X31104Y-34992D01*
X31123Y-34973D01*
X30628Y-34611D02*
X30590Y-34611D01*
X30552Y-34630D01*
X30533Y-34650D01*
X30514Y-34688D01*
X30495Y-34764D01*
X30495Y-34859D01*
X30514Y-34935D01*
X30533Y-34973D01*
X30552Y-34992D01*
X30590Y-35011D01*
X30628Y-35011D01*
X30666Y-34992D01*
X30685Y-34973D01*
X30704Y-34935D01*
X30723Y-34859D01*
X30723Y-34764D01*
X30704Y-34688D01*
X30685Y-34650D01*
X30666Y-34630D01*
X30628Y-34611D01*
X19057Y-34348D02*
X19076Y-34367D01*
X19133Y-34386D01*
X19171Y-34386D01*
X19228Y-34367D01*
X19266Y-34329D01*
X19285Y-34291D01*
X19304Y-34215D01*
X19304Y-34158D01*
X19285Y-34082D01*
X19266Y-34044D01*
X19228Y-34005D01*
X19171Y-33986D01*
X19133Y-33986D01*
X19076Y-34005D01*
X19057Y-34025D01*
X18904Y-34025D02*
X18885Y-34005D01*
X18847Y-33986D01*
X18752Y-33986D01*
X18714Y-34005D01*
X18695Y-34025D01*
X18676Y-34063D01*
X18676Y-34101D01*
X18695Y-34158D01*
X18923Y-34386D01*
X18676Y-34386D01*
X18428Y-33986D02*
X18390Y-33986D01*
X18352Y-34005D01*
X18333Y-34025D01*
X18314Y-34063D01*
X18295Y-34139D01*
X18295Y-34234D01*
X18314Y-34310D01*
X18333Y-34348D01*
X18352Y-34367D01*
X18390Y-34386D01*
X18428Y-34386D01*
X18466Y-34367D01*
X18485Y-34348D01*
X18504Y-34310D01*
X18523Y-34234D01*
X18523Y-34139D01*
X18504Y-34063D01*
X18485Y-34025D01*
X18466Y-34005D01*
X18428Y-33986D01*
X23607Y-31523D02*
X23626Y-31542D01*
X23683Y-31561D01*
X23721Y-31561D01*
X23778Y-31542D01*
X23816Y-31504D01*
X23835Y-31466D01*
X23854Y-31390D01*
X23854Y-31333D01*
X23835Y-31257D01*
X23816Y-31219D01*
X23778Y-31180D01*
X23721Y-31161D01*
X23683Y-31161D01*
X23626Y-31180D01*
X23607Y-31200D01*
X23226Y-31561D02*
X23454Y-31561D01*
X23340Y-31561D02*
X23340Y-31161D01*
X23378Y-31219D01*
X23416Y-31257D01*
X23454Y-31276D01*
X22864Y-31161D02*
X23054Y-31161D01*
X23073Y-31352D01*
X23054Y-31333D01*
X23016Y-31314D01*
X22921Y-31314D01*
X22883Y-31333D01*
X22864Y-31352D01*
X22845Y-31390D01*
X22845Y-31485D01*
X22864Y-31523D01*
X22883Y-31542D01*
X22921Y-31561D01*
X23016Y-31561D01*
X23054Y-31542D01*
X23073Y-31523D01*
X19032Y-33123D02*
X19051Y-33142D01*
X19108Y-33161D01*
X19146Y-33161D01*
X19203Y-33142D01*
X19241Y-33104D01*
X19260Y-33066D01*
X19279Y-32990D01*
X19279Y-32933D01*
X19260Y-32857D01*
X19241Y-32819D01*
X19203Y-32780D01*
X19146Y-32761D01*
X19108Y-32761D01*
X19051Y-32780D01*
X19032Y-32800D01*
X18651Y-33161D02*
X18879Y-33161D01*
X18765Y-33161D02*
X18765Y-32761D01*
X18803Y-32819D01*
X18841Y-32857D01*
X18879Y-32876D01*
X18422Y-32933D02*
X18460Y-32914D01*
X18479Y-32895D01*
X18498Y-32857D01*
X18498Y-32838D01*
X18479Y-32800D01*
X18460Y-32780D01*
X18422Y-32761D01*
X18346Y-32761D01*
X18308Y-32780D01*
X18289Y-32800D01*
X18270Y-32838D01*
X18270Y-32857D01*
X18289Y-32895D01*
X18308Y-32914D01*
X18346Y-32933D01*
X18422Y-32933D01*
X18460Y-32952D01*
X18479Y-32971D01*
X18498Y-33009D01*
X18498Y-33085D01*
X18479Y-33123D01*
X18460Y-33142D01*
X18422Y-33161D01*
X18346Y-33161D01*
X18308Y-33142D01*
X18289Y-33123D01*
X18270Y-33085D01*
X18270Y-33009D01*
X18289Y-32971D01*
X18308Y-32952D01*
X18346Y-32933D01*
X23607Y-32548D02*
X23626Y-32567D01*
X23683Y-32586D01*
X23721Y-32586D01*
X23778Y-32567D01*
X23816Y-32529D01*
X23835Y-32491D01*
X23854Y-32415D01*
X23854Y-32358D01*
X23835Y-32282D01*
X23816Y-32244D01*
X23778Y-32205D01*
X23721Y-32186D01*
X23683Y-32186D01*
X23626Y-32205D01*
X23607Y-32225D01*
X23226Y-32586D02*
X23454Y-32586D01*
X23340Y-32586D02*
X23340Y-32186D01*
X23378Y-32244D01*
X23416Y-32282D01*
X23454Y-32301D01*
X23092Y-32186D02*
X22826Y-32186D01*
X22997Y-32586D01*
X15432Y-27323D02*
X15451Y-27342D01*
X15508Y-27361D01*
X15546Y-27361D01*
X15603Y-27342D01*
X15641Y-27304D01*
X15660Y-27266D01*
X15679Y-27190D01*
X15679Y-27133D01*
X15660Y-27057D01*
X15641Y-27019D01*
X15603Y-26980D01*
X15546Y-26961D01*
X15508Y-26961D01*
X15451Y-26980D01*
X15432Y-27000D01*
X15051Y-27361D02*
X15279Y-27361D01*
X15165Y-27361D02*
X15165Y-26961D01*
X15203Y-27019D01*
X15241Y-27057D01*
X15279Y-27076D01*
X14803Y-26961D02*
X14765Y-26961D01*
X14727Y-26980D01*
X14708Y-27000D01*
X14689Y-27038D01*
X14670Y-27114D01*
X14670Y-27209D01*
X14689Y-27285D01*
X14708Y-27323D01*
X14727Y-27342D01*
X14765Y-27361D01*
X14803Y-27361D01*
X14841Y-27342D01*
X14860Y-27323D01*
X14879Y-27285D01*
X14898Y-27209D01*
X14898Y-27114D01*
X14879Y-27038D01*
X14860Y-27000D01*
X14841Y-26980D01*
X14803Y-26961D01*
X23557Y-29373D02*
X23576Y-29392D01*
X23633Y-29411D01*
X23671Y-29411D01*
X23728Y-29392D01*
X23766Y-29354D01*
X23785Y-29316D01*
X23804Y-29240D01*
X23804Y-29183D01*
X23785Y-29107D01*
X23766Y-29069D01*
X23728Y-29030D01*
X23671Y-29011D01*
X23633Y-29011D01*
X23576Y-29030D01*
X23557Y-29050D01*
X23176Y-29411D02*
X23404Y-29411D01*
X23290Y-29411D02*
X23290Y-29011D01*
X23328Y-29069D01*
X23366Y-29107D01*
X23404Y-29126D01*
X23042Y-29011D02*
X22795Y-29011D01*
X22928Y-29164D01*
X22871Y-29164D01*
X22833Y-29183D01*
X22814Y-29202D01*
X22795Y-29240D01*
X22795Y-29335D01*
X22814Y-29373D01*
X22833Y-29392D01*
X22871Y-29411D01*
X22985Y-29411D01*
X23023Y-29392D01*
X23042Y-29373D01*
X19032Y-30723D02*
X19051Y-30742D01*
X19108Y-30761D01*
X19146Y-30761D01*
X19203Y-30742D01*
X19241Y-30704D01*
X19260Y-30666D01*
X19279Y-30590D01*
X19279Y-30533D01*
X19260Y-30457D01*
X19241Y-30419D01*
X19203Y-30380D01*
X19146Y-30361D01*
X19108Y-30361D01*
X19051Y-30380D01*
X19032Y-30400D01*
X18651Y-30761D02*
X18879Y-30761D01*
X18765Y-30761D02*
X18765Y-30361D01*
X18803Y-30419D01*
X18841Y-30457D01*
X18879Y-30476D01*
X18308Y-30495D02*
X18308Y-30761D01*
X18403Y-30342D02*
X18498Y-30628D01*
X18251Y-30628D01*
X17947Y-27618D02*
X17966Y-27637D01*
X18023Y-27656D01*
X18061Y-27656D01*
X18118Y-27637D01*
X18156Y-27599D01*
X18175Y-27561D01*
X18194Y-27485D01*
X18194Y-27428D01*
X18175Y-27352D01*
X18156Y-27314D01*
X18118Y-27275D01*
X18061Y-27256D01*
X18023Y-27256D01*
X17966Y-27275D01*
X17947Y-27295D01*
X17566Y-27656D02*
X17794Y-27656D01*
X17680Y-27656D02*
X17680Y-27256D01*
X17718Y-27314D01*
X17756Y-27352D01*
X17794Y-27371D01*
X17185Y-27656D02*
X17413Y-27656D01*
X17299Y-27656D02*
X17299Y-27256D01*
X17337Y-27314D01*
X17375Y-27352D01*
X17413Y-27371D01*
X23607Y-33473D02*
X23626Y-33492D01*
X23683Y-33511D01*
X23721Y-33511D01*
X23778Y-33492D01*
X23816Y-33454D01*
X23835Y-33416D01*
X23854Y-33340D01*
X23854Y-33283D01*
X23835Y-33207D01*
X23816Y-33169D01*
X23778Y-33130D01*
X23721Y-33111D01*
X23683Y-33111D01*
X23626Y-33130D01*
X23607Y-33150D01*
X23226Y-33511D02*
X23454Y-33511D01*
X23340Y-33511D02*
X23340Y-33111D01*
X23378Y-33169D01*
X23416Y-33207D01*
X23454Y-33226D01*
X23035Y-33511D02*
X22959Y-33511D01*
X22921Y-33492D01*
X22902Y-33473D01*
X22864Y-33416D01*
X22845Y-33340D01*
X22845Y-33188D01*
X22864Y-33150D01*
X22883Y-33130D01*
X22921Y-33111D01*
X22997Y-33111D01*
X23035Y-33130D01*
X23054Y-33150D01*
X23073Y-33188D01*
X23073Y-33283D01*
X23054Y-33321D01*
X23035Y-33340D01*
X22997Y-33359D01*
X22921Y-33359D01*
X22883Y-33340D01*
X22864Y-33321D01*
X22845Y-33283D01*
X22207Y-38123D02*
X22226Y-38142D01*
X22283Y-38161D01*
X22321Y-38161D01*
X22378Y-38142D01*
X22416Y-38104D01*
X22435Y-38066D01*
X22454Y-37990D01*
X22454Y-37933D01*
X22435Y-37857D01*
X22416Y-37819D01*
X22378Y-37780D01*
X22321Y-37761D01*
X22283Y-37761D01*
X22226Y-37780D01*
X22207Y-37800D01*
X22054Y-37800D02*
X22035Y-37780D01*
X21997Y-37761D01*
X21902Y-37761D01*
X21864Y-37780D01*
X21845Y-37800D01*
X21826Y-37838D01*
X21826Y-37876D01*
X21845Y-37933D01*
X22073Y-38161D01*
X21826Y-38161D01*
X21483Y-37895D02*
X21483Y-38161D01*
X21578Y-37742D02*
X21673Y-38028D01*
X21426Y-38028D01*
X19057Y-31923D02*
X19076Y-31942D01*
X19133Y-31961D01*
X19171Y-31961D01*
X19228Y-31942D01*
X19266Y-31904D01*
X19285Y-31866D01*
X19304Y-31790D01*
X19304Y-31733D01*
X19285Y-31657D01*
X19266Y-31619D01*
X19228Y-31580D01*
X19171Y-31561D01*
X19133Y-31561D01*
X19076Y-31580D01*
X19057Y-31600D01*
X18676Y-31961D02*
X18904Y-31961D01*
X18790Y-31961D02*
X18790Y-31561D01*
X18828Y-31619D01*
X18866Y-31657D01*
X18904Y-31676D01*
X18333Y-31561D02*
X18409Y-31561D01*
X18447Y-31580D01*
X18466Y-31600D01*
X18504Y-31657D01*
X18523Y-31733D01*
X18523Y-31885D01*
X18504Y-31923D01*
X18485Y-31942D01*
X18447Y-31961D01*
X18371Y-31961D01*
X18333Y-31942D01*
X18314Y-31923D01*
X18295Y-31885D01*
X18295Y-31790D01*
X18314Y-31752D01*
X18333Y-31733D01*
X18371Y-31714D01*
X18447Y-31714D01*
X18485Y-31733D01*
X18504Y-31752D01*
X18523Y-31790D01*
X22532Y-35398D02*
X22551Y-35417D01*
X22608Y-35436D01*
X22646Y-35436D01*
X22703Y-35417D01*
X22741Y-35379D01*
X22760Y-35341D01*
X22779Y-35265D01*
X22779Y-35208D01*
X22760Y-35132D01*
X22741Y-35094D01*
X22703Y-35055D01*
X22646Y-35036D01*
X22608Y-35036D01*
X22551Y-35055D01*
X22532Y-35075D01*
X22379Y-35075D02*
X22360Y-35055D01*
X22322Y-35036D01*
X22227Y-35036D01*
X22189Y-35055D01*
X22170Y-35075D01*
X22151Y-35113D01*
X22151Y-35151D01*
X22170Y-35208D01*
X22398Y-35436D01*
X22151Y-35436D01*
X21998Y-35075D02*
X21979Y-35055D01*
X21941Y-35036D01*
X21846Y-35036D01*
X21808Y-35055D01*
X21789Y-35075D01*
X21770Y-35113D01*
X21770Y-35151D01*
X21789Y-35208D01*
X22017Y-35436D01*
X21770Y-35436D01*
X36591Y-28273D02*
X36610Y-28292D01*
X36667Y-28311D01*
X36705Y-28311D01*
X36763Y-28292D01*
X36801Y-28254D01*
X36820Y-28216D01*
X36839Y-28140D01*
X36839Y-28083D01*
X36820Y-28007D01*
X36801Y-27969D01*
X36763Y-27930D01*
X36705Y-27911D01*
X36667Y-27911D01*
X36610Y-27930D01*
X36591Y-27950D01*
X36458Y-27911D02*
X36191Y-27911D01*
X36363Y-28311D01*
X23582Y-34473D02*
X23601Y-34492D01*
X23658Y-34511D01*
X23696Y-34511D01*
X23753Y-34492D01*
X23791Y-34454D01*
X23810Y-34416D01*
X23829Y-34340D01*
X23829Y-34283D01*
X23810Y-34207D01*
X23791Y-34169D01*
X23753Y-34130D01*
X23696Y-34111D01*
X23658Y-34111D01*
X23601Y-34130D01*
X23582Y-34150D01*
X23429Y-34150D02*
X23410Y-34130D01*
X23372Y-34111D01*
X23277Y-34111D01*
X23239Y-34130D01*
X23220Y-34150D01*
X23201Y-34188D01*
X23201Y-34226D01*
X23220Y-34283D01*
X23448Y-34511D01*
X23201Y-34511D01*
X22820Y-34511D02*
X23048Y-34511D01*
X22934Y-34511D02*
X22934Y-34111D01*
X22972Y-34169D01*
X23010Y-34207D01*
X23048Y-34226D01*
X19032Y-37198D02*
X19051Y-37217D01*
X19108Y-37236D01*
X19146Y-37236D01*
X19203Y-37217D01*
X19241Y-37179D01*
X19260Y-37141D01*
X19279Y-37065D01*
X19279Y-37008D01*
X19260Y-36932D01*
X19241Y-36894D01*
X19203Y-36855D01*
X19146Y-36836D01*
X19108Y-36836D01*
X19051Y-36855D01*
X19032Y-36875D01*
X18879Y-36875D02*
X18860Y-36855D01*
X18822Y-36836D01*
X18727Y-36836D01*
X18689Y-36855D01*
X18670Y-36875D01*
X18651Y-36913D01*
X18651Y-36951D01*
X18670Y-37008D01*
X18898Y-37236D01*
X18651Y-37236D01*
X18517Y-36836D02*
X18270Y-36836D01*
X18403Y-36989D01*
X18346Y-36989D01*
X18308Y-37008D01*
X18289Y-37027D01*
X18270Y-37065D01*
X18270Y-37160D01*
X18289Y-37198D01*
X18308Y-37217D01*
X18346Y-37236D01*
X18460Y-37236D01*
X18498Y-37217D01*
X18517Y-37198D01*
X19032Y-37998D02*
X19051Y-38017D01*
X19108Y-38036D01*
X19146Y-38036D01*
X19203Y-38017D01*
X19241Y-37979D01*
X19260Y-37941D01*
X19279Y-37865D01*
X19279Y-37808D01*
X19260Y-37732D01*
X19241Y-37694D01*
X19203Y-37655D01*
X19146Y-37636D01*
X19108Y-37636D01*
X19051Y-37655D01*
X19032Y-37675D01*
X18879Y-37675D02*
X18860Y-37655D01*
X18822Y-37636D01*
X18727Y-37636D01*
X18689Y-37655D01*
X18670Y-37675D01*
X18651Y-37713D01*
X18651Y-37751D01*
X18670Y-37808D01*
X18898Y-38036D01*
X18651Y-38036D01*
X18289Y-37636D02*
X18479Y-37636D01*
X18498Y-37827D01*
X18479Y-37808D01*
X18441Y-37789D01*
X18346Y-37789D01*
X18308Y-37808D01*
X18289Y-37827D01*
X18270Y-37865D01*
X18270Y-37960D01*
X18289Y-37998D01*
X18308Y-38017D01*
X18346Y-38036D01*
X18441Y-38036D01*
X18479Y-38017D01*
X18498Y-37998D01*
X19057Y-29523D02*
X19076Y-29542D01*
X19133Y-29561D01*
X19171Y-29561D01*
X19228Y-29542D01*
X19266Y-29504D01*
X19285Y-29466D01*
X19304Y-29390D01*
X19304Y-29333D01*
X19285Y-29257D01*
X19266Y-29219D01*
X19228Y-29180D01*
X19171Y-29161D01*
X19133Y-29161D01*
X19076Y-29180D01*
X19057Y-29200D01*
X18676Y-29561D02*
X18904Y-29561D01*
X18790Y-29561D02*
X18790Y-29161D01*
X18828Y-29219D01*
X18866Y-29257D01*
X18904Y-29276D01*
X18523Y-29200D02*
X18504Y-29180D01*
X18466Y-29161D01*
X18371Y-29161D01*
X18333Y-29180D01*
X18314Y-29200D01*
X18295Y-29238D01*
X18295Y-29276D01*
X18314Y-29333D01*
X18542Y-29561D01*
X18295Y-29561D01*
X26632Y-35373D02*
X26651Y-35392D01*
X26708Y-35411D01*
X26746Y-35411D01*
X26803Y-35392D01*
X26841Y-35354D01*
X26860Y-35316D01*
X26879Y-35240D01*
X26879Y-35183D01*
X26860Y-35107D01*
X26841Y-35069D01*
X26803Y-35030D01*
X26746Y-35011D01*
X26708Y-35011D01*
X26651Y-35030D01*
X26632Y-35050D01*
X26479Y-35050D02*
X26460Y-35030D01*
X26422Y-35011D01*
X26327Y-35011D01*
X26289Y-35030D01*
X26270Y-35050D01*
X26251Y-35088D01*
X26251Y-35126D01*
X26270Y-35183D01*
X26498Y-35411D01*
X26251Y-35411D01*
X26022Y-35183D02*
X26060Y-35164D01*
X26079Y-35145D01*
X26098Y-35107D01*
X26098Y-35088D01*
X26079Y-35050D01*
X26060Y-35030D01*
X26022Y-35011D01*
X25946Y-35011D01*
X25908Y-35030D01*
X25889Y-35050D01*
X25870Y-35088D01*
X25870Y-35107D01*
X25889Y-35145D01*
X25908Y-35164D01*
X25946Y-35183D01*
X26022Y-35183D01*
X26060Y-35202D01*
X26079Y-35221D01*
X26098Y-35259D01*
X26098Y-35335D01*
X26079Y-35373D01*
X26060Y-35392D01*
X26022Y-35411D01*
X25946Y-35411D01*
X25908Y-35392D01*
X25889Y-35373D01*
X25870Y-35335D01*
X25870Y-35259D01*
X25889Y-35221D01*
X25908Y-35202D01*
X25946Y-35183D01*
X13211Y-26183D02*
X13021Y-26050D01*
X13211Y-25954D02*
X12811Y-25954D01*
X12811Y-26107D01*
X12830Y-26145D01*
X12850Y-26164D01*
X12888Y-26183D01*
X12945Y-26183D01*
X12983Y-26164D01*
X13002Y-26145D01*
X13021Y-26107D01*
X13021Y-25954D01*
X13211Y-26564D02*
X13211Y-26335D01*
X13211Y-26450D02*
X12811Y-26450D01*
X12869Y-26411D01*
X12907Y-26373D01*
X12926Y-26335D01*
X22782Y-38811D02*
X22915Y-38621D01*
X23010Y-38811D02*
X23010Y-38411D01*
X22858Y-38411D01*
X22820Y-38430D01*
X22801Y-38450D01*
X22782Y-38488D01*
X22782Y-38545D01*
X22801Y-38583D01*
X22820Y-38602D01*
X22858Y-38621D01*
X23010Y-38621D01*
X22401Y-38811D02*
X22629Y-38811D01*
X22515Y-38811D02*
X22515Y-38411D01*
X22553Y-38469D01*
X22591Y-38507D01*
X22629Y-38526D01*
X22248Y-38450D02*
X22229Y-38430D01*
X22191Y-38411D01*
X22096Y-38411D01*
X22058Y-38430D01*
X22039Y-38450D01*
X22020Y-38488D01*
X22020Y-38526D01*
X22039Y-38583D01*
X22267Y-38811D01*
X22020Y-38811D01*
X18857Y-38811D02*
X18990Y-38621D01*
X19085Y-38811D02*
X19085Y-38411D01*
X18933Y-38411D01*
X18895Y-38430D01*
X18876Y-38450D01*
X18857Y-38488D01*
X18857Y-38545D01*
X18876Y-38583D01*
X18895Y-38602D01*
X18933Y-38621D01*
X19085Y-38621D01*
X18476Y-38811D02*
X18704Y-38811D01*
X18590Y-38811D02*
X18590Y-38411D01*
X18628Y-38469D01*
X18666Y-38507D01*
X18704Y-38526D01*
X18095Y-38811D02*
X18323Y-38811D01*
X18209Y-38811D02*
X18209Y-38411D01*
X18247Y-38469D01*
X18285Y-38507D01*
X18323Y-38526D01*
X19016Y-35636D02*
X19149Y-35446D01*
X19245Y-35636D02*
X19245Y-35236D01*
X19092Y-35236D01*
X19054Y-35255D01*
X19035Y-35275D01*
X19016Y-35313D01*
X19016Y-35370D01*
X19035Y-35408D01*
X19054Y-35427D01*
X19092Y-35446D01*
X19245Y-35446D01*
X18826Y-35636D02*
X18749Y-35636D01*
X18711Y-35617D01*
X18692Y-35598D01*
X18654Y-35541D01*
X18635Y-35465D01*
X18635Y-35313D01*
X18654Y-35275D01*
X18673Y-35255D01*
X18711Y-35236D01*
X18788Y-35236D01*
X18826Y-35255D01*
X18845Y-35275D01*
X18864Y-35313D01*
X18864Y-35408D01*
X18845Y-35446D01*
X18826Y-35465D01*
X18788Y-35484D01*
X18711Y-35484D01*
X18673Y-35465D01*
X18654Y-35446D01*
X18635Y-35408D01*
X17566Y-38811D02*
X17699Y-38621D01*
X17795Y-38811D02*
X17795Y-38411D01*
X17642Y-38411D01*
X17604Y-38430D01*
X17585Y-38450D01*
X17566Y-38488D01*
X17566Y-38545D01*
X17585Y-38583D01*
X17604Y-38602D01*
X17642Y-38621D01*
X17795Y-38621D01*
X17433Y-38411D02*
X17185Y-38411D01*
X17319Y-38564D01*
X17261Y-38564D01*
X17223Y-38583D01*
X17204Y-38602D01*
X17185Y-38640D01*
X17185Y-38735D01*
X17204Y-38773D01*
X17223Y-38792D01*
X17261Y-38811D01*
X17376Y-38811D01*
X17414Y-38792D01*
X17433Y-38773D01*
X21607Y-38811D02*
X21740Y-38621D01*
X21835Y-38811D02*
X21835Y-38411D01*
X21683Y-38411D01*
X21645Y-38430D01*
X21626Y-38450D01*
X21607Y-38488D01*
X21607Y-38545D01*
X21626Y-38583D01*
X21645Y-38602D01*
X21683Y-38621D01*
X21835Y-38621D01*
X21226Y-38811D02*
X21454Y-38811D01*
X21340Y-38811D02*
X21340Y-38411D01*
X21378Y-38469D01*
X21416Y-38507D01*
X21454Y-38526D01*
X20978Y-38411D02*
X20940Y-38411D01*
X20902Y-38430D01*
X20883Y-38450D01*
X20864Y-38488D01*
X20845Y-38564D01*
X20845Y-38659D01*
X20864Y-38735D01*
X20883Y-38773D01*
X20902Y-38792D01*
X20940Y-38811D01*
X20978Y-38811D01*
X21016Y-38792D01*
X21035Y-38773D01*
X21054Y-38735D01*
X21073Y-38659D01*
X21073Y-38564D01*
X21054Y-38488D01*
X21035Y-38450D01*
X21016Y-38430D01*
X20978Y-38411D01*
X41257Y-29011D02*
X41390Y-28821D01*
X41485Y-29011D02*
X41485Y-28611D01*
X41333Y-28611D01*
X41295Y-28630D01*
X41276Y-28650D01*
X41257Y-28688D01*
X41257Y-28745D01*
X41276Y-28783D01*
X41295Y-28802D01*
X41333Y-28821D01*
X41485Y-28821D01*
X40876Y-29011D02*
X41104Y-29011D01*
X40990Y-29011D02*
X40990Y-28611D01*
X41028Y-28669D01*
X41066Y-28707D01*
X41104Y-28726D01*
X40533Y-28611D02*
X40609Y-28611D01*
X40647Y-28630D01*
X40666Y-28650D01*
X40704Y-28707D01*
X40723Y-28783D01*
X40723Y-28935D01*
X40704Y-28973D01*
X40685Y-28992D01*
X40647Y-29011D01*
X40571Y-29011D01*
X40533Y-28992D01*
X40514Y-28973D01*
X40495Y-28935D01*
X40495Y-28840D01*
X40514Y-28802D01*
X40533Y-28783D01*
X40571Y-28764D01*
X40647Y-28764D01*
X40685Y-28783D01*
X40704Y-28802D01*
X40723Y-28840D01*
X10561Y-23508D02*
X10371Y-23375D01*
X10561Y-23279D02*
X10161Y-23279D01*
X10161Y-23432D01*
X10180Y-23470D01*
X10200Y-23489D01*
X10238Y-23508D01*
X10295Y-23508D01*
X10333Y-23489D01*
X10352Y-23470D01*
X10371Y-23432D01*
X10371Y-23279D01*
X10200Y-23660D02*
X10180Y-23679D01*
X10161Y-23717D01*
X10161Y-23813D01*
X10180Y-23851D01*
X10200Y-23870D01*
X10238Y-23889D01*
X10276Y-23889D01*
X10333Y-23870D01*
X10561Y-23641D01*
X10561Y-23889D01*
X25232Y-37623D02*
X25251Y-37642D01*
X25308Y-37661D01*
X25346Y-37661D01*
X25403Y-37642D01*
X25441Y-37604D01*
X25460Y-37566D01*
X25479Y-37490D01*
X25479Y-37433D01*
X25460Y-37357D01*
X25441Y-37319D01*
X25403Y-37280D01*
X25346Y-37261D01*
X25308Y-37261D01*
X25251Y-37280D01*
X25232Y-37300D01*
X25079Y-37300D02*
X25060Y-37280D01*
X25022Y-37261D01*
X24927Y-37261D01*
X24889Y-37280D01*
X24870Y-37300D01*
X24851Y-37338D01*
X24851Y-37376D01*
X24870Y-37433D01*
X25098Y-37661D01*
X24851Y-37661D01*
X24508Y-37261D02*
X24584Y-37261D01*
X24622Y-37280D01*
X24641Y-37300D01*
X24679Y-37357D01*
X24698Y-37433D01*
X24698Y-37585D01*
X24679Y-37623D01*
X24660Y-37642D01*
X24622Y-37661D01*
X24546Y-37661D01*
X24508Y-37642D01*
X24489Y-37623D01*
X24470Y-37585D01*
X24470Y-37490D01*
X24489Y-37452D01*
X24508Y-37433D01*
X24546Y-37414D01*
X24622Y-37414D01*
X24660Y-37433D01*
X24679Y-37452D01*
X24698Y-37490D01*
X40866Y-29948D02*
X40885Y-29967D01*
X40942Y-29986D01*
X40980Y-29986D01*
X41038Y-29967D01*
X41076Y-29929D01*
X41095Y-29891D01*
X41114Y-29815D01*
X41114Y-29758D01*
X41095Y-29682D01*
X41076Y-29644D01*
X41038Y-29605D01*
X40980Y-29586D01*
X40942Y-29586D01*
X40885Y-29605D01*
X40866Y-29625D01*
X40523Y-29720D02*
X40523Y-29986D01*
X40619Y-29567D02*
X40714Y-29853D01*
X40466Y-29853D01*
X36741Y-36598D02*
X36760Y-36617D01*
X36817Y-36636D01*
X36855Y-36636D01*
X36913Y-36617D01*
X36951Y-36579D01*
X36970Y-36541D01*
X36989Y-36465D01*
X36989Y-36408D01*
X36970Y-36332D01*
X36951Y-36294D01*
X36913Y-36255D01*
X36855Y-36236D01*
X36817Y-36236D01*
X36760Y-36255D01*
X36741Y-36275D01*
X36589Y-36275D02*
X36570Y-36255D01*
X36532Y-36236D01*
X36436Y-36236D01*
X36398Y-36255D01*
X36379Y-36275D01*
X36360Y-36313D01*
X36360Y-36351D01*
X36379Y-36408D01*
X36608Y-36636D01*
X36360Y-36636D01*
X13173Y-23558D02*
X13192Y-23539D01*
X13211Y-23482D01*
X13211Y-23444D01*
X13192Y-23386D01*
X13154Y-23348D01*
X13116Y-23329D01*
X13040Y-23310D01*
X12983Y-23310D01*
X12907Y-23329D01*
X12869Y-23348D01*
X12830Y-23386D01*
X12811Y-23444D01*
X12811Y-23482D01*
X12830Y-23539D01*
X12850Y-23558D01*
X13211Y-23939D02*
X13211Y-23710D01*
X13211Y-23825D02*
X12811Y-23825D01*
X12869Y-23786D01*
X12907Y-23748D01*
X12926Y-23710D01*
X36591Y-30823D02*
X36610Y-30842D01*
X36667Y-30861D01*
X36705Y-30861D01*
X36763Y-30842D01*
X36801Y-30804D01*
X36820Y-30766D01*
X36839Y-30690D01*
X36839Y-30633D01*
X36820Y-30557D01*
X36801Y-30519D01*
X36763Y-30480D01*
X36705Y-30461D01*
X36667Y-30461D01*
X36610Y-30480D01*
X36591Y-30500D01*
X36363Y-30633D02*
X36401Y-30614D01*
X36420Y-30595D01*
X36439Y-30557D01*
X36439Y-30538D01*
X36420Y-30500D01*
X36401Y-30480D01*
X36363Y-30461D01*
X36286Y-30461D01*
X36248Y-30480D01*
X36229Y-30500D01*
X36210Y-30538D01*
X36210Y-30557D01*
X36229Y-30595D01*
X36248Y-30614D01*
X36286Y-30633D01*
X36363Y-30633D01*
X36401Y-30652D01*
X36420Y-30671D01*
X36439Y-30709D01*
X36439Y-30785D01*
X36420Y-30823D01*
X36401Y-30842D01*
X36363Y-30861D01*
X36286Y-30861D01*
X36248Y-30842D01*
X36229Y-30823D01*
X36210Y-30785D01*
X36210Y-30709D01*
X36229Y-30671D01*
X36248Y-30652D01*
X36286Y-30633D01*
X27432Y-33423D02*
X27451Y-33442D01*
X27508Y-33461D01*
X27546Y-33461D01*
X27603Y-33442D01*
X27641Y-33404D01*
X27660Y-33366D01*
X27679Y-33290D01*
X27679Y-33233D01*
X27660Y-33157D01*
X27641Y-33119D01*
X27603Y-33080D01*
X27546Y-33061D01*
X27508Y-33061D01*
X27451Y-33080D01*
X27432Y-33100D01*
X27279Y-33100D02*
X27260Y-33080D01*
X27222Y-33061D01*
X27127Y-33061D01*
X27089Y-33080D01*
X27070Y-33100D01*
X27051Y-33138D01*
X27051Y-33176D01*
X27070Y-33233D01*
X27298Y-33461D01*
X27051Y-33461D01*
X26860Y-33461D02*
X26784Y-33461D01*
X26746Y-33442D01*
X26727Y-33423D01*
X26689Y-33366D01*
X26670Y-33290D01*
X26670Y-33138D01*
X26689Y-33100D01*
X26708Y-33080D01*
X26746Y-33061D01*
X26822Y-33061D01*
X26860Y-33080D01*
X26879Y-33100D01*
X26898Y-33138D01*
X26898Y-33233D01*
X26879Y-33271D01*
X26860Y-33290D01*
X26822Y-33309D01*
X26746Y-33309D01*
X26708Y-33290D01*
X26689Y-33271D01*
X26670Y-33233D01*
X10548Y-26158D02*
X10567Y-26139D01*
X10586Y-26082D01*
X10586Y-26044D01*
X10567Y-25986D01*
X10529Y-25948D01*
X10491Y-25929D01*
X10415Y-25910D01*
X10358Y-25910D01*
X10282Y-25929D01*
X10244Y-25948D01*
X10205Y-25986D01*
X10186Y-26044D01*
X10186Y-26082D01*
X10205Y-26139D01*
X10225Y-26158D01*
X10186Y-26291D02*
X10186Y-26539D01*
X10339Y-26405D01*
X10339Y-26463D01*
X10358Y-26501D01*
X10377Y-26520D01*
X10415Y-26539D01*
X10510Y-26539D01*
X10548Y-26520D01*
X10567Y-26501D01*
X10586Y-26463D01*
X10586Y-26348D01*
X10567Y-26310D01*
X10548Y-26291D01*
X33957Y-28523D02*
X33976Y-28542D01*
X34033Y-28561D01*
X34071Y-28561D01*
X34128Y-28542D01*
X34166Y-28504D01*
X34185Y-28466D01*
X34204Y-28390D01*
X34204Y-28333D01*
X34185Y-28257D01*
X34166Y-28219D01*
X34128Y-28180D01*
X34071Y-28161D01*
X34033Y-28161D01*
X33976Y-28180D01*
X33957Y-28200D01*
X33804Y-28200D02*
X33785Y-28180D01*
X33747Y-28161D01*
X33652Y-28161D01*
X33614Y-28180D01*
X33595Y-28200D01*
X33576Y-28238D01*
X33576Y-28276D01*
X33595Y-28333D01*
X33823Y-28561D01*
X33576Y-28561D01*
X33442Y-28161D02*
X33176Y-28161D01*
X33347Y-28561D01*
X36854Y-29261D02*
X36854Y-29585D01*
X36835Y-29623D01*
X36816Y-29642D01*
X36778Y-29661D01*
X36702Y-29661D01*
X36664Y-29642D01*
X36645Y-29623D01*
X36626Y-29585D01*
X36626Y-29261D01*
X36226Y-29661D02*
X36454Y-29661D01*
X36340Y-29661D02*
X36340Y-29261D01*
X36378Y-29319D01*
X36416Y-29357D01*
X36454Y-29376D01*
X35591Y-40636D02*
X35724Y-40446D01*
X35820Y-40636D02*
X35820Y-40236D01*
X35667Y-40236D01*
X35629Y-40255D01*
X35610Y-40275D01*
X35591Y-40313D01*
X35591Y-40370D01*
X35610Y-40408D01*
X35629Y-40427D01*
X35667Y-40446D01*
X35820Y-40446D01*
X35248Y-40370D02*
X35248Y-40636D01*
X35344Y-40217D02*
X35439Y-40503D01*
X35191Y-40503D01*
X39566Y-40636D02*
X39699Y-40446D01*
X39795Y-40636D02*
X39795Y-40236D01*
X39642Y-40236D01*
X39604Y-40255D01*
X39585Y-40275D01*
X39566Y-40313D01*
X39566Y-40370D01*
X39585Y-40408D01*
X39604Y-40427D01*
X39642Y-40446D01*
X39795Y-40446D01*
X39204Y-40236D02*
X39395Y-40236D01*
X39414Y-40427D01*
X39395Y-40408D01*
X39357Y-40389D01*
X39261Y-40389D01*
X39223Y-40408D01*
X39204Y-40427D01*
X39185Y-40465D01*
X39185Y-40560D01*
X39204Y-40598D01*
X39223Y-40617D01*
X39261Y-40636D01*
X39357Y-40636D01*
X39395Y-40617D01*
X39414Y-40598D01*
X31591Y-40661D02*
X31724Y-40471D01*
X31820Y-40661D02*
X31820Y-40261D01*
X31667Y-40261D01*
X31629Y-40280D01*
X31610Y-40300D01*
X31591Y-40338D01*
X31591Y-40395D01*
X31610Y-40433D01*
X31629Y-40452D01*
X31667Y-40471D01*
X31820Y-40471D01*
X31248Y-40261D02*
X31324Y-40261D01*
X31363Y-40280D01*
X31382Y-40300D01*
X31420Y-40357D01*
X31439Y-40433D01*
X31439Y-40585D01*
X31420Y-40623D01*
X31401Y-40642D01*
X31363Y-40661D01*
X31286Y-40661D01*
X31248Y-40642D01*
X31229Y-40623D01*
X31210Y-40585D01*
X31210Y-40490D01*
X31229Y-40452D01*
X31248Y-40433D01*
X31286Y-40414D01*
X31363Y-40414D01*
X31401Y-40433D01*
X31420Y-40452D01*
X31439Y-40490D01*
X43991Y-40686D02*
X44124Y-40496D01*
X44220Y-40686D02*
X44220Y-40286D01*
X44067Y-40286D01*
X44029Y-40305D01*
X44010Y-40325D01*
X43991Y-40363D01*
X43991Y-40420D01*
X44010Y-40458D01*
X44029Y-40477D01*
X44067Y-40496D01*
X44220Y-40496D01*
X43858Y-40286D02*
X43591Y-40286D01*
X43763Y-40686D01*
X36939Y-32060D02*
X36796Y-32060D01*
X36967Y-32146D02*
X36867Y-31846D01*
X36767Y-32146D01*
X36696Y-31846D02*
X36510Y-31846D01*
X36610Y-31960D01*
X36567Y-31960D01*
X36539Y-31975D01*
X36524Y-31989D01*
X36510Y-32017D01*
X36510Y-32089D01*
X36524Y-32117D01*
X36539Y-32132D01*
X36567Y-32146D01*
X36653Y-32146D01*
X36682Y-32132D01*
X36696Y-32117D01*
X34667Y-31610D02*
X34524Y-31610D01*
X34696Y-31696D02*
X34596Y-31396D01*
X34496Y-31696D01*
X34396Y-31696D02*
X34396Y-31396D01*
X34324Y-31396D01*
X34282Y-31410D01*
X34253Y-31439D01*
X34239Y-31467D01*
X34224Y-31525D01*
X34224Y-31567D01*
X34239Y-31625D01*
X34253Y-31653D01*
X34282Y-31682D01*
X34324Y-31696D01*
X34396Y-31696D01*
X34124Y-31396D02*
X33924Y-31396D01*
X34053Y-31696D01*
X33882Y-31725D02*
X33653Y-31725D01*
X33610Y-31396D02*
X33425Y-31396D01*
X33525Y-31510D01*
X33482Y-31510D01*
X33453Y-31525D01*
X33439Y-31539D01*
X33425Y-31567D01*
X33425Y-31639D01*
X33439Y-31667D01*
X33453Y-31682D01*
X33482Y-31696D01*
X33567Y-31696D01*
X33596Y-31682D01*
X33610Y-31667D01*
X33339Y-31396D02*
X33239Y-31696D01*
X33139Y-31396D01*
X33067Y-31396D02*
X32882Y-31396D01*
X32982Y-31510D01*
X32939Y-31510D01*
X32910Y-31525D01*
X32896Y-31539D01*
X32882Y-31567D01*
X32882Y-31639D01*
X32896Y-31667D01*
X32910Y-31682D01*
X32939Y-31696D01*
X33025Y-31696D01*
X33053Y-31682D01*
X33067Y-31667D01*
X16745Y-40861D02*
X16745Y-40461D01*
X16592Y-40461D01*
X16554Y-40480D01*
X16535Y-40500D01*
X16516Y-40538D01*
X16516Y-40595D01*
X16535Y-40633D01*
X16554Y-40652D01*
X16592Y-40671D01*
X16745Y-40671D01*
X16383Y-40461D02*
X16135Y-40461D01*
X16269Y-40614D01*
X16211Y-40614D01*
X16173Y-40633D01*
X16154Y-40652D01*
X16135Y-40690D01*
X16135Y-40785D01*
X16154Y-40823D01*
X16173Y-40842D01*
X16211Y-40861D01*
X16326Y-40861D01*
X16364Y-40842D01*
X16383Y-40823D01*
X19488Y-43115D02*
X19654Y-43115D01*
X19654Y-43377D02*
X19654Y-42877D01*
X19416Y-42877D01*
X19297Y-42877D02*
X19011Y-42877D01*
X19154Y-43377D02*
X19154Y-42877D01*
X18845Y-43377D02*
X18845Y-42877D01*
X18726Y-42877D01*
X18654Y-42901D01*
X18607Y-42948D01*
X18583Y-42996D01*
X18559Y-43091D01*
X18559Y-43163D01*
X18583Y-43258D01*
X18607Y-43305D01*
X18654Y-43353D01*
X18726Y-43377D01*
X18845Y-43377D01*
X18345Y-43377D02*
X18345Y-42877D01*
G54D13*
X21742Y-42210D02*
X21771Y-42196D01*
X21814Y-42196D01*
X21857Y-42210D01*
X21885Y-42239D01*
X21900Y-42267D01*
X21914Y-42325D01*
X21914Y-42367D01*
X21900Y-42425D01*
X21885Y-42453D01*
X21857Y-42482D01*
X21814Y-42496D01*
X21785Y-42496D01*
X21742Y-42482D01*
X21728Y-42467D01*
X21728Y-42367D01*
X21785Y-42367D01*
X21428Y-42496D02*
X21528Y-42353D01*
X21600Y-42496D02*
X21600Y-42196D01*
X21485Y-42196D01*
X21457Y-42210D01*
X21442Y-42225D01*
X21428Y-42253D01*
X21428Y-42296D01*
X21442Y-42325D01*
X21457Y-42339D01*
X21485Y-42353D01*
X21600Y-42353D01*
X21300Y-42496D02*
X21300Y-42196D01*
X21128Y-42496D01*
X21128Y-42196D01*
X20985Y-42467D02*
X20971Y-42482D01*
X20985Y-42496D01*
X21000Y-42482D01*
X20985Y-42467D01*
X20985Y-42496D01*
X20785Y-42353D02*
X20785Y-42496D01*
X20885Y-42196D02*
X20785Y-42353D01*
X20685Y-42196D01*
X20585Y-42339D02*
X20485Y-42339D01*
X20442Y-42496D02*
X20585Y-42496D01*
X20585Y-42196D01*
X20442Y-42196D01*
X20171Y-42496D02*
X20314Y-42496D01*
X20314Y-42196D01*
X20071Y-42467D02*
X20057Y-42482D01*
X20071Y-42496D01*
X20085Y-42482D01*
X20071Y-42467D01*
X20071Y-42496D01*
X19871Y-42196D02*
X19814Y-42196D01*
X19785Y-42210D01*
X19757Y-42239D01*
X19742Y-42296D01*
X19742Y-42396D01*
X19757Y-42453D01*
X19785Y-42482D01*
X19814Y-42496D01*
X19871Y-42496D01*
X19900Y-42482D01*
X19928Y-42453D01*
X19942Y-42396D01*
X19942Y-42296D01*
X19928Y-42239D01*
X19900Y-42210D01*
X19871Y-42196D01*
X19442Y-42496D02*
X19542Y-42353D01*
X19614Y-42496D02*
X19614Y-42196D01*
X19500Y-42196D01*
X19471Y-42210D01*
X19457Y-42225D01*
X19442Y-42253D01*
X19442Y-42296D01*
X19457Y-42325D01*
X19471Y-42339D01*
X19500Y-42353D01*
X19614Y-42353D01*
X19157Y-42210D02*
X19185Y-42196D01*
X19228Y-42196D01*
X19271Y-42210D01*
X19300Y-42239D01*
X19314Y-42267D01*
X19328Y-42325D01*
X19328Y-42367D01*
X19314Y-42425D01*
X19300Y-42453D01*
X19271Y-42482D01*
X19228Y-42496D01*
X19200Y-42496D01*
X19157Y-42482D01*
X19142Y-42467D01*
X19142Y-42367D01*
X19200Y-42367D01*
X19014Y-42467D02*
X19000Y-42482D01*
X19014Y-42496D01*
X19028Y-42482D01*
X19014Y-42467D01*
X19014Y-42496D01*
X18700Y-42496D02*
X18800Y-42353D01*
X18871Y-42496D02*
X18871Y-42196D01*
X18757Y-42196D01*
X18728Y-42210D01*
X18714Y-42225D01*
X18700Y-42253D01*
X18700Y-42296D01*
X18714Y-42325D01*
X18728Y-42339D01*
X18757Y-42353D01*
X18871Y-42353D01*
X18571Y-42339D02*
X18471Y-42339D01*
X18428Y-42496D02*
X18571Y-42496D01*
X18571Y-42196D01*
X18428Y-42196D01*
X18299Y-42496D02*
X18299Y-42196D01*
X18228Y-42196D01*
X18185Y-42210D01*
X18157Y-42239D01*
X18142Y-42267D01*
X18128Y-42325D01*
X18128Y-42367D01*
X18142Y-42425D01*
X18157Y-42453D01*
X18185Y-42482D01*
X18228Y-42496D01*
X18299Y-42496D01*
X17999Y-42467D02*
X17985Y-42482D01*
X17999Y-42496D01*
X18014Y-42482D01*
X17999Y-42467D01*
X17999Y-42496D01*
X17757Y-42339D02*
X17714Y-42353D01*
X17700Y-42367D01*
X17685Y-42396D01*
X17685Y-42439D01*
X17700Y-42467D01*
X17714Y-42482D01*
X17742Y-42496D01*
X17857Y-42496D01*
X17857Y-42196D01*
X17757Y-42196D01*
X17728Y-42210D01*
X17714Y-42225D01*
X17700Y-42253D01*
X17700Y-42282D01*
X17714Y-42310D01*
X17728Y-42325D01*
X17757Y-42339D01*
X17857Y-42339D01*
X17385Y-42496D02*
X17485Y-42353D01*
X17557Y-42496D02*
X17557Y-42196D01*
X17442Y-42196D01*
X17414Y-42210D01*
X17400Y-42225D01*
X17385Y-42253D01*
X17385Y-42296D01*
X17400Y-42325D01*
X17414Y-42339D01*
X17442Y-42353D01*
X17557Y-42353D01*
X17257Y-42496D02*
X17257Y-42196D01*
X17085Y-42496D01*
X17085Y-42196D01*
X16942Y-42467D02*
X16928Y-42482D01*
X16942Y-42496D01*
X16957Y-42482D01*
X16942Y-42467D01*
X16942Y-42496D01*
X16699Y-42339D02*
X16657Y-42353D01*
X16642Y-42367D01*
X16628Y-42396D01*
X16628Y-42439D01*
X16642Y-42467D01*
X16657Y-42482D01*
X16685Y-42496D01*
X16799Y-42496D01*
X16799Y-42196D01*
X16699Y-42196D01*
X16671Y-42210D01*
X16657Y-42225D01*
X16642Y-42253D01*
X16642Y-42282D01*
X16657Y-42310D01*
X16671Y-42325D01*
X16699Y-42339D01*
X16799Y-42339D01*
X16357Y-42496D02*
X16499Y-42496D01*
X16499Y-42196D01*
X16257Y-42496D02*
X16257Y-42196D01*
X16085Y-42496D02*
X16214Y-42325D01*
X16085Y-42196D02*
X16257Y-42367D01*
G54D10*
X22957Y-43148D02*
X22976Y-43167D01*
X23033Y-43186D01*
X23071Y-43186D01*
X23128Y-43167D01*
X23166Y-43129D01*
X23185Y-43091D01*
X23204Y-43015D01*
X23204Y-42958D01*
X23185Y-42882D01*
X23166Y-42844D01*
X23128Y-42805D01*
X23071Y-42786D01*
X23033Y-42786D01*
X22976Y-42805D01*
X22957Y-42825D01*
X22823Y-42786D02*
X22576Y-42786D01*
X22709Y-42939D01*
X22652Y-42939D01*
X22614Y-42958D01*
X22595Y-42977D01*
X22576Y-43015D01*
X22576Y-43110D01*
X22595Y-43148D01*
X22614Y-43167D01*
X22652Y-43186D01*
X22766Y-43186D01*
X22804Y-43167D01*
X22823Y-43148D01*
X22195Y-43186D02*
X22423Y-43186D01*
X22309Y-43186D02*
X22309Y-42786D01*
X22347Y-42844D01*
X22385Y-42882D01*
X22423Y-42901D01*
X29354Y-31761D02*
X29354Y-32085D01*
X29335Y-32123D01*
X29316Y-32142D01*
X29278Y-32161D01*
X29202Y-32161D01*
X29164Y-32142D01*
X29145Y-32123D01*
X29126Y-32085D01*
X29126Y-31761D01*
X28954Y-31800D02*
X28935Y-31780D01*
X28897Y-31761D01*
X28802Y-31761D01*
X28764Y-31780D01*
X28745Y-31800D01*
X28726Y-31838D01*
X28726Y-31876D01*
X28745Y-31933D01*
X28973Y-32161D01*
X28726Y-32161D01*
X45845Y-32536D02*
X45845Y-32136D01*
X45692Y-32136D01*
X45654Y-32155D01*
X45635Y-32175D01*
X45616Y-32213D01*
X45616Y-32270D01*
X45635Y-32308D01*
X45654Y-32327D01*
X45692Y-32346D01*
X45845Y-32346D01*
X45273Y-32270D02*
X45273Y-32536D01*
X45369Y-32117D02*
X45464Y-32403D01*
X45216Y-32403D01*
X45632Y-33023D02*
X45651Y-33042D01*
X45708Y-33061D01*
X45746Y-33061D01*
X45803Y-33042D01*
X45841Y-33004D01*
X45860Y-32966D01*
X45879Y-32890D01*
X45879Y-32833D01*
X45860Y-32757D01*
X45841Y-32719D01*
X45803Y-32680D01*
X45746Y-32661D01*
X45708Y-32661D01*
X45651Y-32680D01*
X45632Y-32700D01*
X45498Y-32661D02*
X45251Y-32661D01*
X45384Y-32814D01*
X45327Y-32814D01*
X45289Y-32833D01*
X45270Y-32852D01*
X45251Y-32890D01*
X45251Y-32985D01*
X45270Y-33023D01*
X45289Y-33042D01*
X45327Y-33061D01*
X45441Y-33061D01*
X45479Y-33042D01*
X45498Y-33023D01*
X45098Y-33042D02*
X45041Y-33061D01*
X44946Y-33061D01*
X44908Y-33042D01*
X44889Y-33023D01*
X44870Y-32985D01*
X44870Y-32947D01*
X44889Y-32909D01*
X44908Y-32890D01*
X44946Y-32871D01*
X45022Y-32852D01*
X45060Y-32833D01*
X45079Y-32814D01*
X45098Y-32776D01*
X45098Y-32738D01*
X45079Y-32700D01*
X45060Y-32680D01*
X45022Y-32661D01*
X44927Y-32661D01*
X44870Y-32680D01*
X44565Y-32852D02*
X44508Y-32871D01*
X44489Y-32890D01*
X44470Y-32928D01*
X44470Y-32985D01*
X44489Y-33023D01*
X44508Y-33042D01*
X44546Y-33061D01*
X44698Y-33061D01*
X44698Y-32661D01*
X44565Y-32661D01*
X44527Y-32680D01*
X44508Y-32700D01*
X44489Y-32738D01*
X44489Y-32776D01*
X44508Y-32814D01*
X44527Y-32833D01*
X44565Y-32852D01*
X44698Y-32852D01*
X36971Y-31496D02*
X36971Y-31196D01*
X36857Y-31196D01*
X36828Y-31210D01*
X36814Y-31225D01*
X36800Y-31253D01*
X36800Y-31296D01*
X36814Y-31325D01*
X36828Y-31339D01*
X36857Y-31353D01*
X36971Y-31353D01*
X36571Y-31339D02*
X36528Y-31353D01*
X36514Y-31367D01*
X36500Y-31396D01*
X36500Y-31439D01*
X36514Y-31467D01*
X36528Y-31482D01*
X36557Y-31496D01*
X36671Y-31496D01*
X36671Y-31196D01*
X36571Y-31196D01*
X36542Y-31210D01*
X36528Y-31225D01*
X36514Y-31253D01*
X36514Y-31282D01*
X36528Y-31310D01*
X36542Y-31325D01*
X36571Y-31339D01*
X36671Y-31339D01*
X36385Y-31225D02*
X36371Y-31210D01*
X36342Y-31196D01*
X36271Y-31196D01*
X36242Y-31210D01*
X36228Y-31225D01*
X36214Y-31253D01*
X36214Y-31282D01*
X36228Y-31325D01*
X36400Y-31496D01*
X36214Y-31496D01*
X36989Y-34910D02*
X36846Y-34910D01*
X37017Y-34996D02*
X36917Y-34696D01*
X36817Y-34996D01*
X36717Y-34996D02*
X36717Y-34696D01*
X36646Y-34696D01*
X36603Y-34710D01*
X36574Y-34739D01*
X36560Y-34767D01*
X36546Y-34825D01*
X36546Y-34867D01*
X36560Y-34925D01*
X36574Y-34953D01*
X36603Y-34982D01*
X36646Y-34996D01*
X36717Y-34996D01*
X36446Y-34696D02*
X36246Y-34696D01*
X36374Y-34996D01*
X36936Y-34077D02*
X36879Y-34096D01*
X36860Y-34115D01*
X36841Y-34153D01*
X36841Y-34210D01*
X36860Y-34248D01*
X36879Y-34267D01*
X36917Y-34286D01*
X37070Y-34286D01*
X37070Y-33886D01*
X36936Y-33886D01*
X36898Y-33905D01*
X36879Y-33925D01*
X36860Y-33963D01*
X36860Y-34001D01*
X36879Y-34039D01*
X36898Y-34058D01*
X36936Y-34077D01*
X37070Y-34077D01*
X36708Y-33886D02*
X36460Y-33886D01*
X36594Y-34039D01*
X36536Y-34039D01*
X36498Y-34058D01*
X36479Y-34077D01*
X36460Y-34115D01*
X36460Y-34210D01*
X36479Y-34248D01*
X36498Y-34267D01*
X36536Y-34286D01*
X36651Y-34286D01*
X36689Y-34267D01*
X36708Y-34248D01*
X28504Y-37186D02*
X28504Y-37510D01*
X28485Y-37548D01*
X28466Y-37567D01*
X28428Y-37586D01*
X28352Y-37586D01*
X28314Y-37567D01*
X28295Y-37548D01*
X28276Y-37510D01*
X28276Y-37186D01*
X28123Y-37186D02*
X27876Y-37186D01*
X28009Y-37339D01*
X27952Y-37339D01*
X27914Y-37358D01*
X27895Y-37377D01*
X27876Y-37415D01*
X27876Y-37510D01*
X27895Y-37548D01*
X27914Y-37567D01*
X27952Y-37586D01*
X28066Y-37586D01*
X28104Y-37567D01*
X28123Y-37548D01*
X36841Y-22786D02*
X36974Y-22596D01*
X37070Y-22786D02*
X37070Y-22386D01*
X36917Y-22386D01*
X36879Y-22405D01*
X36860Y-22425D01*
X36841Y-22463D01*
X36841Y-22520D01*
X36860Y-22558D01*
X36879Y-22577D01*
X36917Y-22596D01*
X37070Y-22596D01*
X36613Y-22558D02*
X36651Y-22539D01*
X36670Y-22520D01*
X36689Y-22482D01*
X36689Y-22463D01*
X36670Y-22425D01*
X36651Y-22405D01*
X36613Y-22386D01*
X36536Y-22386D01*
X36498Y-22405D01*
X36479Y-22425D01*
X36460Y-22463D01*
X36460Y-22482D01*
X36479Y-22520D01*
X36498Y-22539D01*
X36536Y-22558D01*
X36613Y-22558D01*
X36651Y-22577D01*
X36670Y-22596D01*
X36689Y-22634D01*
X36689Y-22710D01*
X36670Y-22748D01*
X36651Y-22767D01*
X36613Y-22786D01*
X36536Y-22786D01*
X36498Y-22767D01*
X36479Y-22748D01*
X36460Y-22710D01*
X36460Y-22634D01*
X36479Y-22596D01*
X36498Y-22577D01*
X36536Y-22558D01*
X41407Y-24348D02*
X41426Y-24367D01*
X41483Y-24386D01*
X41521Y-24386D01*
X41578Y-24367D01*
X41616Y-24329D01*
X41635Y-24291D01*
X41654Y-24215D01*
X41654Y-24158D01*
X41635Y-24082D01*
X41616Y-24044D01*
X41578Y-24005D01*
X41521Y-23986D01*
X41483Y-23986D01*
X41426Y-24005D01*
X41407Y-24025D01*
X41273Y-23986D02*
X41026Y-23986D01*
X41159Y-24139D01*
X41102Y-24139D01*
X41064Y-24158D01*
X41045Y-24177D01*
X41026Y-24215D01*
X41026Y-24310D01*
X41045Y-24348D01*
X41064Y-24367D01*
X41102Y-24386D01*
X41216Y-24386D01*
X41254Y-24367D01*
X41273Y-24348D01*
X40873Y-24025D02*
X40854Y-24005D01*
X40816Y-23986D01*
X40721Y-23986D01*
X40683Y-24005D01*
X40664Y-24025D01*
X40645Y-24063D01*
X40645Y-24101D01*
X40664Y-24158D01*
X40892Y-24386D01*
X40645Y-24386D01*
X46995Y-37186D02*
X46995Y-36786D01*
X46842Y-36786D01*
X46804Y-36805D01*
X46785Y-36825D01*
X46766Y-36863D01*
X46766Y-36920D01*
X46785Y-36958D01*
X46804Y-36977D01*
X46842Y-36996D01*
X46995Y-36996D01*
X46614Y-36825D02*
X46595Y-36805D01*
X46557Y-36786D01*
X46461Y-36786D01*
X46423Y-36805D01*
X46404Y-36825D01*
X46385Y-36863D01*
X46385Y-36901D01*
X46404Y-36958D01*
X46633Y-37186D01*
X46385Y-37186D01*
X45790Y-37186D02*
X45790Y-36786D01*
X45619Y-37167D02*
X45561Y-37186D01*
X45466Y-37186D01*
X45428Y-37167D01*
X45409Y-37148D01*
X45390Y-37110D01*
X45390Y-37072D01*
X45409Y-37034D01*
X45428Y-37015D01*
X45466Y-36996D01*
X45542Y-36977D01*
X45580Y-36958D01*
X45599Y-36939D01*
X45619Y-36901D01*
X45619Y-36863D01*
X45599Y-36825D01*
X45580Y-36805D01*
X45542Y-36786D01*
X45447Y-36786D01*
X45390Y-36805D01*
X45219Y-37186D02*
X45219Y-36786D01*
X45066Y-36786D01*
X45028Y-36805D01*
X45009Y-36825D01*
X44990Y-36863D01*
X44990Y-36920D01*
X45009Y-36958D01*
X45028Y-36977D01*
X45066Y-36996D01*
X45219Y-36996D01*
X44858Y-33861D02*
X44641Y-33861D01*
X44758Y-34014D01*
X44708Y-34014D01*
X44675Y-34033D01*
X44658Y-34052D01*
X44641Y-34090D01*
X44641Y-34185D01*
X44658Y-34223D01*
X44675Y-34242D01*
X44708Y-34261D01*
X44808Y-34261D01*
X44841Y-34242D01*
X44858Y-34223D01*
X44541Y-33861D02*
X44425Y-34261D01*
X44308Y-33861D01*
X44225Y-33861D02*
X44008Y-33861D01*
X44125Y-34014D01*
X44075Y-34014D01*
X44041Y-34033D01*
X44025Y-34052D01*
X44008Y-34090D01*
X44008Y-34185D01*
X44025Y-34223D01*
X44041Y-34242D01*
X44075Y-34261D01*
X44175Y-34261D01*
X44208Y-34242D01*
X44225Y-34223D01*
X44849Y-35261D02*
X44849Y-34861D01*
X44733Y-35147D01*
X44616Y-34861D01*
X44616Y-35261D01*
X44383Y-34861D02*
X44316Y-34861D01*
X44283Y-34880D01*
X44249Y-34919D01*
X44233Y-34995D01*
X44233Y-35128D01*
X44249Y-35204D01*
X44283Y-35242D01*
X44316Y-35261D01*
X44383Y-35261D01*
X44416Y-35242D01*
X44449Y-35204D01*
X44466Y-35128D01*
X44466Y-34995D01*
X44449Y-34919D01*
X44416Y-34880D01*
X44383Y-34861D01*
X44100Y-35242D02*
X44050Y-35261D01*
X43966Y-35261D01*
X43933Y-35242D01*
X43916Y-35223D01*
X43900Y-35185D01*
X43900Y-35147D01*
X43916Y-35109D01*
X43933Y-35090D01*
X43966Y-35071D01*
X44033Y-35052D01*
X44066Y-35033D01*
X44083Y-35014D01*
X44100Y-34976D01*
X44100Y-34938D01*
X44083Y-34900D01*
X44066Y-34880D01*
X44033Y-34861D01*
X43950Y-34861D01*
X43900Y-34880D01*
X43749Y-35261D02*
X43749Y-34861D01*
X44666Y-35880D02*
X44699Y-35861D01*
X44749Y-35861D01*
X44799Y-35880D01*
X44833Y-35919D01*
X44849Y-35957D01*
X44866Y-36033D01*
X44866Y-36090D01*
X44849Y-36166D01*
X44833Y-36204D01*
X44799Y-36242D01*
X44749Y-36261D01*
X44716Y-36261D01*
X44666Y-36242D01*
X44649Y-36223D01*
X44649Y-36090D01*
X44716Y-36090D01*
X44499Y-36261D02*
X44499Y-35861D01*
X44299Y-36261D01*
X44299Y-35861D01*
X44133Y-36261D02*
X44133Y-35861D01*
X44050Y-35861D01*
X44000Y-35880D01*
X43966Y-35919D01*
X43950Y-35957D01*
X43933Y-36033D01*
X43933Y-36090D01*
X43950Y-36166D01*
X43966Y-36204D01*
X44000Y-36242D01*
X44050Y-36261D01*
X44133Y-36261D01*
X48249Y-34261D02*
X48249Y-33861D01*
X48133Y-34147D01*
X48016Y-33861D01*
X48016Y-34261D01*
X47849Y-34261D02*
X47849Y-33861D01*
X47700Y-34242D02*
X47650Y-34261D01*
X47566Y-34261D01*
X47533Y-34242D01*
X47516Y-34223D01*
X47500Y-34185D01*
X47500Y-34147D01*
X47516Y-34109D01*
X47533Y-34090D01*
X47566Y-34071D01*
X47633Y-34052D01*
X47666Y-34033D01*
X47683Y-34014D01*
X47700Y-33976D01*
X47700Y-33938D01*
X47683Y-33900D01*
X47666Y-33880D01*
X47633Y-33861D01*
X47550Y-33861D01*
X47500Y-33880D01*
X47283Y-33861D02*
X47216Y-33861D01*
X47183Y-33880D01*
X47149Y-33919D01*
X47133Y-33995D01*
X47133Y-34128D01*
X47149Y-34204D01*
X47183Y-34242D01*
X47216Y-34261D01*
X47283Y-34261D01*
X47316Y-34242D01*
X47349Y-34204D01*
X47366Y-34128D01*
X47366Y-33995D01*
X47349Y-33919D01*
X47316Y-33880D01*
X47283Y-33861D01*
X48050Y-35242D02*
X48000Y-35261D01*
X47916Y-35261D01*
X47883Y-35242D01*
X47866Y-35223D01*
X47850Y-35185D01*
X47850Y-35147D01*
X47866Y-35109D01*
X47883Y-35090D01*
X47916Y-35071D01*
X47983Y-35052D01*
X48016Y-35033D01*
X48033Y-35014D01*
X48050Y-34976D01*
X48050Y-34938D01*
X48033Y-34900D01*
X48016Y-34880D01*
X47983Y-34861D01*
X47900Y-34861D01*
X47850Y-34880D01*
X47499Y-35223D02*
X47516Y-35242D01*
X47566Y-35261D01*
X47599Y-35261D01*
X47649Y-35242D01*
X47683Y-35204D01*
X47699Y-35166D01*
X47716Y-35090D01*
X47716Y-35033D01*
X47699Y-34957D01*
X47683Y-34919D01*
X47649Y-34880D01*
X47599Y-34861D01*
X47566Y-34861D01*
X47516Y-34880D01*
X47499Y-34900D01*
X47349Y-35261D02*
X47349Y-34861D01*
X47149Y-35261D02*
X47299Y-35033D01*
X47149Y-34861D02*
X47349Y-35090D01*
X47791Y-36261D02*
X47908Y-36071D01*
X47991Y-36261D02*
X47991Y-35861D01*
X47858Y-35861D01*
X47825Y-35880D01*
X47808Y-35900D01*
X47791Y-35938D01*
X47791Y-35995D01*
X47808Y-36033D01*
X47825Y-36052D01*
X47858Y-36071D01*
X47991Y-36071D01*
X47658Y-36242D02*
X47608Y-36261D01*
X47525Y-36261D01*
X47491Y-36242D01*
X47475Y-36223D01*
X47458Y-36185D01*
X47458Y-36147D01*
X47475Y-36109D01*
X47491Y-36090D01*
X47525Y-36071D01*
X47591Y-36052D01*
X47625Y-36033D01*
X47641Y-36014D01*
X47658Y-35976D01*
X47658Y-35938D01*
X47641Y-35900D01*
X47625Y-35880D01*
X47591Y-35861D01*
X47508Y-35861D01*
X47458Y-35880D01*
X47358Y-35861D02*
X47158Y-35861D01*
X47258Y-36261D02*
X47258Y-35861D01*
X27932Y-40661D02*
X28065Y-40471D01*
X28160Y-40661D02*
X28160Y-40261D01*
X28008Y-40261D01*
X27970Y-40280D01*
X27951Y-40300D01*
X27932Y-40338D01*
X27932Y-40395D01*
X27951Y-40433D01*
X27970Y-40452D01*
X28008Y-40471D01*
X28160Y-40471D01*
X27551Y-40661D02*
X27779Y-40661D01*
X27665Y-40661D02*
X27665Y-40261D01*
X27703Y-40319D01*
X27741Y-40357D01*
X27779Y-40376D01*
X27417Y-40261D02*
X27170Y-40261D01*
X27303Y-40414D01*
X27246Y-40414D01*
X27208Y-40433D01*
X27189Y-40452D01*
X27170Y-40490D01*
X27170Y-40585D01*
X27189Y-40623D01*
X27208Y-40642D01*
X27246Y-40661D01*
X27360Y-40661D01*
X27398Y-40642D01*
X27417Y-40623D01*
X39382Y-24348D02*
X39401Y-24367D01*
X39458Y-24386D01*
X39496Y-24386D01*
X39553Y-24367D01*
X39591Y-24329D01*
X39610Y-24291D01*
X39629Y-24215D01*
X39629Y-24158D01*
X39610Y-24082D01*
X39591Y-24044D01*
X39553Y-24005D01*
X39496Y-23986D01*
X39458Y-23986D01*
X39401Y-24005D01*
X39382Y-24025D01*
X39248Y-23986D02*
X39001Y-23986D01*
X39134Y-24139D01*
X39077Y-24139D01*
X39039Y-24158D01*
X39020Y-24177D01*
X39001Y-24215D01*
X39001Y-24310D01*
X39020Y-24348D01*
X39039Y-24367D01*
X39077Y-24386D01*
X39191Y-24386D01*
X39229Y-24367D01*
X39248Y-24348D01*
X38867Y-23986D02*
X38620Y-23986D01*
X38753Y-24139D01*
X38696Y-24139D01*
X38658Y-24158D01*
X38639Y-24177D01*
X38620Y-24215D01*
X38620Y-24310D01*
X38639Y-24348D01*
X38658Y-24367D01*
X38696Y-24386D01*
X38810Y-24386D01*
X38848Y-24367D01*
X38867Y-24348D01*
X45732Y-30248D02*
X45751Y-30267D01*
X45808Y-30286D01*
X45846Y-30286D01*
X45903Y-30267D01*
X45941Y-30229D01*
X45960Y-30191D01*
X45979Y-30115D01*
X45979Y-30058D01*
X45960Y-29982D01*
X45941Y-29944D01*
X45903Y-29905D01*
X45846Y-29886D01*
X45808Y-29886D01*
X45751Y-29905D01*
X45732Y-29925D01*
X45598Y-29886D02*
X45351Y-29886D01*
X45484Y-30039D01*
X45427Y-30039D01*
X45389Y-30058D01*
X45370Y-30077D01*
X45351Y-30115D01*
X45351Y-30210D01*
X45370Y-30248D01*
X45389Y-30267D01*
X45427Y-30286D01*
X45541Y-30286D01*
X45579Y-30267D01*
X45598Y-30248D01*
X45008Y-30020D02*
X45008Y-30286D01*
X45103Y-29867D02*
X45198Y-30153D01*
X44951Y-30153D01*
X12970Y-36661D02*
X12970Y-36261D01*
X12817Y-36261D01*
X12779Y-36280D01*
X12760Y-36300D01*
X12741Y-36338D01*
X12741Y-36395D01*
X12760Y-36433D01*
X12779Y-36452D01*
X12817Y-36471D01*
X12970Y-36471D01*
X12608Y-36261D02*
X12341Y-36261D01*
X12513Y-36661D01*
X12966Y-36936D02*
X12966Y-37260D01*
X12947Y-37298D01*
X12928Y-37317D01*
X12890Y-37336D01*
X12814Y-37336D01*
X12776Y-37317D01*
X12757Y-37298D01*
X12738Y-37260D01*
X12738Y-36936D01*
X12547Y-36936D02*
X12547Y-37260D01*
X12528Y-37298D01*
X12509Y-37317D01*
X12471Y-37336D01*
X12395Y-37336D01*
X12357Y-37317D01*
X12338Y-37298D01*
X12319Y-37260D01*
X12319Y-36936D01*
X12147Y-37317D02*
X12090Y-37336D01*
X11995Y-37336D01*
X11957Y-37317D01*
X11938Y-37298D01*
X11919Y-37260D01*
X11919Y-37222D01*
X11938Y-37184D01*
X11957Y-37165D01*
X11995Y-37146D01*
X12071Y-37127D01*
X12109Y-37108D01*
X12128Y-37089D01*
X12147Y-37051D01*
X12147Y-37013D01*
X12128Y-36975D01*
X12109Y-36955D01*
X12071Y-36936D01*
X11976Y-36936D01*
X11919Y-36955D01*
X11614Y-37127D02*
X11557Y-37146D01*
X11538Y-37165D01*
X11519Y-37203D01*
X11519Y-37260D01*
X11538Y-37298D01*
X11557Y-37317D01*
X11595Y-37336D01*
X11747Y-37336D01*
X11747Y-36936D01*
X11614Y-36936D01*
X11576Y-36955D01*
X11557Y-36975D01*
X11538Y-37013D01*
X11538Y-37051D01*
X11557Y-37089D01*
X11576Y-37108D01*
X11614Y-37127D01*
X11747Y-37127D01*
X11442Y-37375D02*
X11138Y-37375D01*
X10909Y-37127D02*
X10852Y-37146D01*
X10833Y-37165D01*
X10814Y-37203D01*
X10814Y-37260D01*
X10833Y-37298D01*
X10852Y-37317D01*
X10890Y-37336D01*
X11042Y-37336D01*
X11042Y-36936D01*
X10909Y-36936D01*
X10871Y-36955D01*
X10852Y-36975D01*
X10833Y-37013D01*
X10833Y-37051D01*
X10852Y-37089D01*
X10871Y-37108D01*
X10909Y-37127D01*
X11042Y-37127D01*
X28504Y-33761D02*
X28504Y-34085D01*
X28485Y-34123D01*
X28466Y-34142D01*
X28428Y-34161D01*
X28352Y-34161D01*
X28314Y-34142D01*
X28295Y-34123D01*
X28276Y-34085D01*
X28276Y-33761D01*
X27914Y-33761D02*
X27990Y-33761D01*
X28028Y-33780D01*
X28047Y-33800D01*
X28085Y-33857D01*
X28104Y-33933D01*
X28104Y-34085D01*
X28085Y-34123D01*
X28066Y-34142D01*
X28028Y-34161D01*
X27952Y-34161D01*
X27914Y-34142D01*
X27895Y-34123D01*
X27876Y-34085D01*
X27876Y-33990D01*
X27895Y-33952D01*
X27914Y-33933D01*
X27952Y-33914D01*
X28028Y-33914D01*
X28066Y-33933D01*
X28085Y-33952D01*
X28104Y-33990D01*
X31257Y-36548D02*
X31276Y-36567D01*
X31333Y-36586D01*
X31371Y-36586D01*
X31428Y-36567D01*
X31466Y-36529D01*
X31485Y-36491D01*
X31504Y-36415D01*
X31504Y-36358D01*
X31485Y-36282D01*
X31466Y-36244D01*
X31428Y-36205D01*
X31371Y-36186D01*
X31333Y-36186D01*
X31276Y-36205D01*
X31257Y-36225D01*
X31123Y-36186D02*
X30876Y-36186D01*
X31009Y-36339D01*
X30952Y-36339D01*
X30914Y-36358D01*
X30895Y-36377D01*
X30876Y-36415D01*
X30876Y-36510D01*
X30895Y-36548D01*
X30914Y-36567D01*
X30952Y-36586D01*
X31066Y-36586D01*
X31104Y-36567D01*
X31123Y-36548D01*
X30514Y-36186D02*
X30704Y-36186D01*
X30723Y-36377D01*
X30704Y-36358D01*
X30666Y-36339D01*
X30571Y-36339D01*
X30533Y-36358D01*
X30514Y-36377D01*
X30495Y-36415D01*
X30495Y-36510D01*
X30514Y-36548D01*
X30533Y-36567D01*
X30571Y-36586D01*
X30666Y-36586D01*
X30704Y-36567D01*
X30723Y-36548D01*
X32595Y-21086D02*
X32595Y-20686D01*
X32499Y-20686D01*
X32442Y-20705D01*
X32404Y-20744D01*
X32385Y-20782D01*
X32366Y-20858D01*
X32366Y-20915D01*
X32385Y-20991D01*
X32404Y-21029D01*
X32442Y-21067D01*
X32499Y-21086D01*
X32595Y-21086D01*
X32214Y-20725D02*
X32195Y-20705D01*
X32157Y-20686D01*
X32061Y-20686D01*
X32023Y-20705D01*
X32004Y-20725D01*
X31985Y-20763D01*
X31985Y-20801D01*
X32004Y-20858D01*
X32233Y-21086D01*
X31985Y-21086D01*
X40404Y-20261D02*
X40404Y-20585D01*
X40385Y-20623D01*
X40366Y-20642D01*
X40328Y-20661D01*
X40252Y-20661D01*
X40214Y-20642D01*
X40195Y-20623D01*
X40176Y-20585D01*
X40176Y-20261D01*
X39795Y-20261D02*
X39985Y-20261D01*
X40004Y-20452D01*
X39985Y-20433D01*
X39947Y-20414D01*
X39852Y-20414D01*
X39814Y-20433D01*
X39795Y-20452D01*
X39776Y-20490D01*
X39776Y-20585D01*
X39795Y-20623D01*
X39814Y-20642D01*
X39852Y-20661D01*
X39947Y-20661D01*
X39985Y-20642D01*
X40004Y-20623D01*
X49479Y-28592D02*
X49422Y-28611D01*
X49327Y-28611D01*
X49289Y-28592D01*
X49270Y-28573D01*
X49251Y-28535D01*
X49251Y-28497D01*
X49270Y-28459D01*
X49289Y-28440D01*
X49327Y-28421D01*
X49403Y-28402D01*
X49441Y-28383D01*
X49460Y-28364D01*
X49479Y-28326D01*
X49479Y-28288D01*
X49460Y-28250D01*
X49441Y-28230D01*
X49403Y-28211D01*
X49308Y-28211D01*
X49251Y-28230D01*
X49079Y-28611D02*
X49079Y-28211D01*
X48984Y-28211D01*
X48927Y-28230D01*
X48889Y-28269D01*
X48870Y-28307D01*
X48851Y-28383D01*
X48851Y-28440D01*
X48870Y-28516D01*
X48889Y-28554D01*
X48927Y-28592D01*
X48984Y-28611D01*
X49079Y-28611D01*
X48470Y-28611D02*
X48698Y-28611D01*
X48584Y-28611D02*
X48584Y-28211D01*
X48622Y-28269D01*
X48660Y-28307D01*
X48698Y-28326D01*
X47742Y-22926D02*
X47761Y-22983D01*
X47761Y-23078D01*
X47742Y-23116D01*
X47723Y-23135D01*
X47685Y-23154D01*
X47647Y-23154D01*
X47609Y-23135D01*
X47590Y-23116D01*
X47571Y-23078D01*
X47552Y-23002D01*
X47533Y-22964D01*
X47514Y-22945D01*
X47476Y-22926D01*
X47438Y-22926D01*
X47400Y-22945D01*
X47380Y-22964D01*
X47361Y-23002D01*
X47361Y-23097D01*
X47380Y-23154D01*
X47761Y-23326D02*
X47361Y-23326D01*
X47361Y-23421D01*
X47380Y-23478D01*
X47419Y-23516D01*
X47457Y-23535D01*
X47533Y-23554D01*
X47590Y-23554D01*
X47666Y-23535D01*
X47704Y-23516D01*
X47742Y-23478D01*
X47761Y-23421D01*
X47761Y-23326D01*
X47800Y-23630D02*
X47800Y-23935D01*
X47723Y-24259D02*
X47742Y-24240D01*
X47761Y-24183D01*
X47761Y-24145D01*
X47742Y-24088D01*
X47704Y-24050D01*
X47666Y-24030D01*
X47590Y-24011D01*
X47533Y-24011D01*
X47457Y-24030D01*
X47419Y-24050D01*
X47380Y-24088D01*
X47361Y-24145D01*
X47361Y-24183D01*
X47380Y-24240D01*
X47400Y-24259D01*
X47647Y-24411D02*
X47647Y-24602D01*
X47761Y-24373D02*
X47361Y-24507D01*
X47761Y-24640D01*
X47761Y-25002D02*
X47571Y-24869D01*
X47761Y-24773D02*
X47361Y-24773D01*
X47361Y-24926D01*
X47380Y-24964D01*
X47400Y-24983D01*
X47438Y-25002D01*
X47495Y-25002D01*
X47533Y-24983D01*
X47552Y-24964D01*
X47571Y-24926D01*
X47571Y-24773D01*
X47761Y-25173D02*
X47361Y-25173D01*
X47361Y-25269D01*
X47380Y-25326D01*
X47419Y-25364D01*
X47457Y-25383D01*
X47533Y-25402D01*
X47590Y-25402D01*
X47666Y-25383D01*
X47704Y-25364D01*
X47742Y-25326D01*
X47761Y-25269D01*
X47761Y-25173D01*
X47800Y-25478D02*
X47800Y-25783D01*
X47761Y-25878D02*
X47361Y-25878D01*
X47647Y-26011D01*
X47361Y-26145D01*
X47761Y-26145D01*
X47761Y-26335D02*
X47361Y-26335D01*
X47723Y-26754D02*
X47742Y-26735D01*
X47761Y-26678D01*
X47761Y-26640D01*
X47742Y-26583D01*
X47704Y-26545D01*
X47666Y-26526D01*
X47590Y-26507D01*
X47533Y-26507D01*
X47457Y-26526D01*
X47419Y-26545D01*
X47380Y-26583D01*
X47361Y-26640D01*
X47361Y-26678D01*
X47380Y-26735D01*
X47400Y-26754D01*
X47761Y-27154D02*
X47571Y-27021D01*
X47761Y-26926D02*
X47361Y-26926D01*
X47361Y-27078D01*
X47380Y-27116D01*
X47400Y-27135D01*
X47438Y-27154D01*
X47495Y-27154D01*
X47533Y-27135D01*
X47552Y-27116D01*
X47571Y-27078D01*
X47571Y-26926D01*
X47361Y-27402D02*
X47361Y-27478D01*
X47380Y-27516D01*
X47419Y-27554D01*
X47495Y-27573D01*
X47628Y-27573D01*
X47704Y-27554D01*
X47742Y-27516D01*
X47761Y-27478D01*
X47761Y-27402D01*
X47742Y-27364D01*
X47704Y-27326D01*
X47628Y-27307D01*
X47495Y-27307D01*
X47419Y-27326D01*
X47380Y-27364D01*
X47361Y-27402D01*
X25466Y-31623D02*
X25485Y-31642D01*
X25542Y-31661D01*
X25580Y-31661D01*
X25638Y-31642D01*
X25676Y-31604D01*
X25695Y-31566D01*
X25714Y-31490D01*
X25714Y-31433D01*
X25695Y-31357D01*
X25676Y-31319D01*
X25638Y-31280D01*
X25580Y-31261D01*
X25542Y-31261D01*
X25485Y-31280D01*
X25466Y-31300D01*
X25123Y-31261D02*
X25199Y-31261D01*
X25238Y-31280D01*
X25257Y-31300D01*
X25295Y-31357D01*
X25314Y-31433D01*
X25314Y-31585D01*
X25295Y-31623D01*
X25276Y-31642D01*
X25238Y-31661D01*
X25161Y-31661D01*
X25123Y-31642D01*
X25104Y-31623D01*
X25085Y-31585D01*
X25085Y-31490D01*
X25104Y-31452D01*
X25123Y-31433D01*
X25161Y-31414D01*
X25238Y-31414D01*
X25276Y-31433D01*
X25295Y-31452D01*
X25314Y-31490D01*
X25266Y-32398D02*
X25285Y-32417D01*
X25342Y-32436D01*
X25380Y-32436D01*
X25438Y-32417D01*
X25476Y-32379D01*
X25495Y-32341D01*
X25514Y-32265D01*
X25514Y-32208D01*
X25495Y-32132D01*
X25476Y-32094D01*
X25438Y-32055D01*
X25380Y-32036D01*
X25342Y-32036D01*
X25285Y-32055D01*
X25266Y-32075D01*
X25076Y-32436D02*
X24999Y-32436D01*
X24961Y-32417D01*
X24942Y-32398D01*
X24904Y-32341D01*
X24885Y-32265D01*
X24885Y-32113D01*
X24904Y-32075D01*
X24923Y-32055D01*
X24961Y-32036D01*
X25038Y-32036D01*
X25076Y-32055D01*
X25095Y-32075D01*
X25114Y-32113D01*
X25114Y-32208D01*
X25095Y-32246D01*
X25076Y-32265D01*
X25038Y-32284D01*
X24961Y-32284D01*
X24923Y-32265D01*
X24904Y-32246D01*
X24885Y-32208D01*
X25373Y-29086D02*
X25107Y-29486D01*
X25107Y-29086D02*
X25373Y-29486D01*
X24745Y-29486D02*
X24973Y-29486D01*
X24859Y-29486D02*
X24859Y-29086D01*
X24897Y-29144D01*
X24935Y-29182D01*
X24973Y-29201D01*
X27113Y-29258D02*
X27151Y-29239D01*
X27170Y-29220D01*
X27189Y-29182D01*
X27189Y-29163D01*
X27170Y-29125D01*
X27151Y-29105D01*
X27113Y-29086D01*
X27036Y-29086D01*
X26998Y-29105D01*
X26979Y-29125D01*
X26960Y-29163D01*
X26960Y-29182D01*
X26979Y-29220D01*
X26998Y-29239D01*
X27036Y-29258D01*
X27113Y-29258D01*
X27151Y-29277D01*
X27170Y-29296D01*
X27189Y-29334D01*
X27189Y-29410D01*
X27170Y-29448D01*
X27151Y-29467D01*
X27113Y-29486D01*
X27036Y-29486D01*
X26998Y-29467D01*
X26979Y-29448D01*
X26960Y-29410D01*
X26960Y-29334D01*
X26979Y-29296D01*
X26998Y-29277D01*
X27036Y-29258D01*
X26789Y-29486D02*
X26789Y-29086D01*
X26655Y-29372D01*
X26522Y-29086D01*
X26522Y-29486D01*
X26332Y-29486D02*
X26332Y-29086D01*
X26332Y-29277D02*
X26103Y-29277D01*
X26103Y-29486D02*
X26103Y-29086D01*
X25951Y-29220D02*
X25741Y-29220D01*
X25951Y-29486D01*
X25741Y-29486D01*
X16295Y-19286D02*
X16295Y-18886D01*
X16142Y-18886D01*
X16104Y-18905D01*
X16085Y-18925D01*
X16066Y-18963D01*
X16066Y-19020D01*
X16085Y-19058D01*
X16104Y-19077D01*
X16142Y-19096D01*
X16295Y-19096D01*
X15723Y-18886D02*
X15799Y-18886D01*
X15838Y-18905D01*
X15857Y-18925D01*
X15895Y-18982D01*
X15914Y-19058D01*
X15914Y-19210D01*
X15895Y-19248D01*
X15876Y-19267D01*
X15838Y-19286D01*
X15761Y-19286D01*
X15723Y-19267D01*
X15704Y-19248D01*
X15685Y-19210D01*
X15685Y-19115D01*
X15704Y-19077D01*
X15723Y-19058D01*
X15761Y-19039D01*
X15838Y-19039D01*
X15876Y-19058D01*
X15895Y-19077D01*
X15914Y-19115D01*
X16815Y-19436D02*
X16682Y-19836D01*
X16548Y-19436D01*
X16510Y-19875D02*
X16205Y-19875D01*
X16110Y-19836D02*
X16110Y-19436D01*
X15920Y-19836D02*
X15920Y-19436D01*
X15691Y-19836D01*
X15691Y-19436D01*
X44823Y-21236D02*
X44557Y-21636D01*
X44557Y-21236D02*
X44823Y-21636D01*
X44423Y-21275D02*
X44404Y-21255D01*
X44366Y-21236D01*
X44271Y-21236D01*
X44233Y-21255D01*
X44214Y-21275D01*
X44195Y-21313D01*
X44195Y-21351D01*
X44214Y-21408D01*
X44442Y-21636D01*
X44195Y-21636D01*
X49161Y-19951D02*
X49161Y-20198D01*
X49314Y-20065D01*
X49314Y-20122D01*
X49333Y-20160D01*
X49352Y-20179D01*
X49390Y-20198D01*
X49485Y-20198D01*
X49523Y-20179D01*
X49542Y-20160D01*
X49561Y-20122D01*
X49561Y-20008D01*
X49542Y-19970D01*
X49523Y-19951D01*
X49200Y-20351D02*
X49180Y-20370D01*
X49161Y-20408D01*
X49161Y-20503D01*
X49180Y-20541D01*
X49200Y-20560D01*
X49238Y-20579D01*
X49276Y-20579D01*
X49333Y-20560D01*
X49561Y-20332D01*
X49561Y-20579D01*
X49523Y-20751D02*
X49542Y-20770D01*
X49561Y-20751D01*
X49542Y-20732D01*
X49523Y-20751D01*
X49561Y-20751D01*
X49161Y-20903D02*
X49161Y-21170D01*
X49561Y-20998D01*
X49161Y-21494D02*
X49161Y-21417D01*
X49180Y-21379D01*
X49200Y-21360D01*
X49257Y-21322D01*
X49333Y-21303D01*
X49485Y-21303D01*
X49523Y-21322D01*
X49542Y-21341D01*
X49561Y-21379D01*
X49561Y-21455D01*
X49542Y-21494D01*
X49523Y-21513D01*
X49485Y-21532D01*
X49390Y-21532D01*
X49352Y-21513D01*
X49333Y-21494D01*
X49314Y-21455D01*
X49314Y-21379D01*
X49333Y-21341D01*
X49352Y-21322D01*
X49390Y-21303D01*
X49333Y-21760D02*
X49314Y-21722D01*
X49295Y-21703D01*
X49257Y-21684D01*
X49238Y-21684D01*
X49200Y-21703D01*
X49180Y-21722D01*
X49161Y-21760D01*
X49161Y-21836D01*
X49180Y-21875D01*
X49200Y-21894D01*
X49238Y-21913D01*
X49257Y-21913D01*
X49295Y-21894D01*
X49314Y-21875D01*
X49333Y-21836D01*
X49333Y-21760D01*
X49352Y-21722D01*
X49371Y-21703D01*
X49409Y-21684D01*
X49485Y-21684D01*
X49523Y-21703D01*
X49542Y-21722D01*
X49561Y-21760D01*
X49561Y-21836D01*
X49542Y-21875D01*
X49523Y-21894D01*
X49485Y-21913D01*
X49409Y-21913D01*
X49371Y-21894D01*
X49352Y-21875D01*
X49333Y-21836D01*
X49561Y-22084D02*
X49161Y-22084D01*
X49409Y-22122D02*
X49561Y-22236D01*
X49295Y-22236D02*
X49447Y-22084D01*
X49561Y-22408D02*
X49161Y-22408D01*
X49352Y-22408D02*
X49352Y-22636D01*
X49561Y-22636D02*
X49161Y-22636D01*
X49295Y-22789D02*
X49295Y-22998D01*
X49561Y-22789D01*
X49561Y-22998D01*
X38179Y-33161D02*
X38179Y-33485D01*
X38160Y-33523D01*
X38141Y-33542D01*
X38103Y-33561D01*
X38027Y-33561D01*
X37989Y-33542D01*
X37970Y-33523D01*
X37951Y-33485D01*
X37951Y-33161D01*
X37589Y-33295D02*
X37589Y-33561D01*
X37684Y-33142D02*
X37779Y-33428D01*
X37532Y-33428D01*
X38182Y-32561D02*
X37953Y-32561D01*
X38067Y-32961D02*
X38067Y-32561D01*
X37858Y-32561D02*
X37591Y-32961D01*
X37591Y-32561D02*
X37858Y-32961D01*
X37458Y-32942D02*
X37401Y-32961D01*
X37305Y-32961D01*
X37267Y-32942D01*
X37248Y-32923D01*
X37229Y-32885D01*
X37229Y-32847D01*
X37248Y-32809D01*
X37267Y-32790D01*
X37305Y-32771D01*
X37382Y-32752D01*
X37420Y-32733D01*
X37439Y-32714D01*
X37458Y-32676D01*
X37458Y-32638D01*
X37439Y-32600D01*
X37420Y-32580D01*
X37382Y-32561D01*
X37286Y-32561D01*
X37229Y-32580D01*
X36982Y-32561D02*
X36944Y-32561D01*
X36905Y-32580D01*
X36886Y-32600D01*
X36867Y-32638D01*
X36848Y-32714D01*
X36848Y-32809D01*
X36867Y-32885D01*
X36886Y-32923D01*
X36905Y-32942D01*
X36944Y-32961D01*
X36982Y-32961D01*
X37020Y-32942D01*
X37039Y-32923D01*
X37058Y-32885D01*
X37077Y-32809D01*
X37077Y-32714D01*
X37058Y-32638D01*
X37039Y-32600D01*
X37020Y-32580D01*
X36982Y-32561D01*
X36467Y-32961D02*
X36696Y-32961D01*
X36582Y-32961D02*
X36582Y-32561D01*
X36620Y-32619D01*
X36658Y-32657D01*
X36696Y-32676D01*
X36220Y-32561D02*
X36182Y-32561D01*
X36144Y-32580D01*
X36125Y-32600D01*
X36105Y-32638D01*
X36086Y-32714D01*
X36086Y-32809D01*
X36105Y-32885D01*
X36125Y-32923D01*
X36144Y-32942D01*
X36182Y-32961D01*
X36220Y-32961D01*
X36258Y-32942D01*
X36277Y-32923D01*
X36296Y-32885D01*
X36315Y-32809D01*
X36315Y-32714D01*
X36296Y-32638D01*
X36277Y-32600D01*
X36258Y-32580D01*
X36220Y-32561D01*
X35858Y-32733D02*
X35896Y-32714D01*
X35915Y-32695D01*
X35934Y-32657D01*
X35934Y-32638D01*
X35915Y-32600D01*
X35896Y-32580D01*
X35858Y-32561D01*
X35782Y-32561D01*
X35744Y-32580D01*
X35725Y-32600D01*
X35705Y-32638D01*
X35705Y-32657D01*
X35725Y-32695D01*
X35744Y-32714D01*
X35782Y-32733D01*
X35858Y-32733D01*
X35896Y-32752D01*
X35915Y-32771D01*
X35934Y-32809D01*
X35934Y-32885D01*
X35915Y-32923D01*
X35896Y-32942D01*
X35858Y-32961D01*
X35782Y-32961D01*
X35744Y-32942D01*
X35725Y-32923D01*
X35705Y-32885D01*
X35705Y-32809D01*
X35725Y-32771D01*
X35744Y-32752D01*
X35782Y-32733D01*
X13495Y-32336D02*
X13495Y-31936D01*
X13342Y-31936D01*
X13304Y-31955D01*
X13285Y-31975D01*
X13266Y-32013D01*
X13266Y-32070D01*
X13285Y-32108D01*
X13304Y-32127D01*
X13342Y-32146D01*
X13495Y-32146D01*
X12904Y-31936D02*
X13095Y-31936D01*
X13114Y-32127D01*
X13095Y-32108D01*
X13057Y-32089D01*
X12961Y-32089D01*
X12923Y-32108D01*
X12904Y-32127D01*
X12885Y-32165D01*
X12885Y-32260D01*
X12904Y-32298D01*
X12923Y-32317D01*
X12961Y-32336D01*
X13057Y-32336D01*
X13095Y-32317D01*
X13114Y-32298D01*
X12315Y-31936D02*
X12315Y-32222D01*
X12334Y-32279D01*
X12372Y-32317D01*
X12429Y-32336D01*
X12467Y-32336D01*
X12144Y-32317D02*
X12086Y-32336D01*
X11991Y-32336D01*
X11953Y-32317D01*
X11934Y-32298D01*
X11915Y-32260D01*
X11915Y-32222D01*
X11934Y-32184D01*
X11953Y-32165D01*
X11991Y-32146D01*
X12067Y-32127D01*
X12105Y-32108D01*
X12124Y-32089D01*
X12144Y-32051D01*
X12144Y-32013D01*
X12124Y-31975D01*
X12105Y-31955D01*
X12067Y-31936D01*
X11972Y-31936D01*
X11915Y-31955D01*
X11801Y-31936D02*
X11572Y-31936D01*
X11686Y-32336D02*
X11686Y-31936D01*
X11534Y-32375D02*
X11229Y-32375D01*
X11172Y-31936D02*
X10925Y-31936D01*
X11058Y-32089D01*
X11001Y-32089D01*
X10963Y-32108D01*
X10944Y-32127D01*
X10925Y-32165D01*
X10925Y-32260D01*
X10944Y-32298D01*
X10963Y-32317D01*
X11001Y-32336D01*
X11115Y-32336D01*
X11153Y-32317D01*
X11172Y-32298D01*
X10810Y-31936D02*
X10677Y-32336D01*
X10544Y-31936D01*
X10448Y-31936D02*
X10201Y-31936D01*
X10334Y-32089D01*
X10277Y-32089D01*
X10239Y-32108D01*
X10220Y-32127D01*
X10201Y-32165D01*
X10201Y-32260D01*
X10220Y-32298D01*
X10239Y-32317D01*
X10277Y-32336D01*
X10391Y-32336D01*
X10429Y-32317D01*
X10448Y-32298D01*
G54D16*
X13505Y-28863D02*
X13505Y-29168D01*
X13505Y-30831D02*
X13505Y-31136D01*
X13657Y-30984D02*
X13353Y-30984D01*
G54D10*
X31164Y-21877D02*
X31107Y-21896D01*
X31088Y-21915D01*
X31069Y-21953D01*
X31069Y-22010D01*
X31088Y-22048D01*
X31107Y-22067D01*
X31145Y-22086D01*
X31297Y-22086D01*
X31297Y-21686D01*
X31164Y-21686D01*
X31126Y-21705D01*
X31107Y-21725D01*
X31088Y-21763D01*
X31088Y-21801D01*
X31107Y-21839D01*
X31126Y-21858D01*
X31164Y-21877D01*
X31297Y-21877D01*
X30954Y-21686D02*
X30726Y-21686D01*
X30840Y-22086D02*
X30840Y-21686D01*
X30383Y-22086D02*
X30611Y-22086D01*
X30497Y-22086D02*
X30497Y-21686D01*
X30535Y-21744D01*
X30573Y-21782D01*
X30611Y-21801D01*
X31164Y-21327D02*
X31107Y-21346D01*
X31088Y-21365D01*
X31069Y-21403D01*
X31069Y-21460D01*
X31088Y-21498D01*
X31107Y-21517D01*
X31145Y-21536D01*
X31297Y-21536D01*
X31297Y-21136D01*
X31164Y-21136D01*
X31126Y-21155D01*
X31107Y-21175D01*
X31088Y-21213D01*
X31088Y-21251D01*
X31107Y-21289D01*
X31126Y-21308D01*
X31164Y-21327D01*
X31297Y-21327D01*
X30726Y-21536D02*
X30726Y-21327D01*
X30745Y-21289D01*
X30783Y-21270D01*
X30859Y-21270D01*
X30897Y-21289D01*
X30726Y-21517D02*
X30764Y-21536D01*
X30859Y-21536D01*
X30897Y-21517D01*
X30916Y-21479D01*
X30916Y-21441D01*
X30897Y-21403D01*
X30859Y-21384D01*
X30764Y-21384D01*
X30726Y-21365D01*
X30592Y-21270D02*
X30440Y-21270D01*
X30535Y-21136D02*
X30535Y-21479D01*
X30516Y-21517D01*
X30478Y-21536D01*
X30440Y-21536D01*
X30364Y-21270D02*
X30211Y-21270D01*
X30307Y-21136D02*
X30307Y-21479D01*
X30288Y-21517D01*
X30249Y-21536D01*
X30211Y-21536D01*
X30173Y-21575D02*
X29869Y-21575D01*
X29545Y-21498D02*
X29564Y-21517D01*
X29621Y-21536D01*
X29659Y-21536D01*
X29716Y-21517D01*
X29754Y-21479D01*
X29773Y-21441D01*
X29792Y-21365D01*
X29792Y-21308D01*
X29773Y-21232D01*
X29754Y-21194D01*
X29716Y-21155D01*
X29659Y-21136D01*
X29621Y-21136D01*
X29564Y-21155D01*
X29545Y-21175D01*
X29316Y-21536D02*
X29354Y-21517D01*
X29373Y-21479D01*
X29373Y-21136D01*
X29164Y-21536D02*
X29164Y-21270D01*
X29164Y-21136D02*
X29183Y-21155D01*
X29164Y-21175D01*
X29145Y-21155D01*
X29164Y-21136D01*
X29164Y-21175D01*
X28973Y-21270D02*
X28973Y-21670D01*
X28973Y-21289D02*
X28935Y-21270D01*
X28859Y-21270D01*
X28821Y-21289D01*
X28802Y-21308D01*
X28783Y-21346D01*
X28783Y-21460D01*
X28802Y-21498D01*
X28821Y-21517D01*
X28859Y-21536D01*
X28935Y-21536D01*
X28973Y-21517D01*
X23885Y-27364D02*
X23842Y-27378D01*
X23828Y-27392D01*
X23814Y-27421D01*
X23814Y-27464D01*
X23828Y-27492D01*
X23842Y-27507D01*
X23871Y-27521D01*
X23985Y-27521D01*
X23985Y-27221D01*
X23885Y-27221D01*
X23857Y-27235D01*
X23842Y-27250D01*
X23828Y-27278D01*
X23828Y-27307D01*
X23842Y-27335D01*
X23857Y-27350D01*
X23885Y-27364D01*
X23985Y-27364D01*
X23728Y-27221D02*
X23557Y-27221D01*
X23642Y-27521D02*
X23642Y-27221D01*
X23471Y-27250D02*
X23457Y-27235D01*
X23428Y-27221D01*
X23357Y-27221D01*
X23328Y-27235D01*
X23314Y-27250D01*
X23300Y-27278D01*
X23300Y-27307D01*
X23314Y-27350D01*
X23485Y-27521D01*
X23300Y-27521D01*
X24635Y-28014D02*
X24592Y-28028D01*
X24578Y-28042D01*
X24564Y-28071D01*
X24564Y-28114D01*
X24578Y-28142D01*
X24592Y-28157D01*
X24621Y-28171D01*
X24735Y-28171D01*
X24735Y-27871D01*
X24635Y-27871D01*
X24607Y-27885D01*
X24592Y-27900D01*
X24578Y-27928D01*
X24578Y-27957D01*
X24592Y-27985D01*
X24607Y-28000D01*
X24635Y-28014D01*
X24735Y-28014D01*
X24449Y-28085D02*
X24307Y-28085D01*
X24478Y-28171D02*
X24378Y-27871D01*
X24278Y-28171D01*
X24221Y-27871D02*
X24049Y-27871D01*
X24135Y-28171D02*
X24135Y-27871D01*
X23992Y-27871D02*
X23821Y-27871D01*
X23907Y-28171D02*
X23907Y-27871D01*
X23792Y-28200D02*
X23564Y-28200D01*
X23321Y-28142D02*
X23335Y-28157D01*
X23378Y-28171D01*
X23407Y-28171D01*
X23450Y-28157D01*
X23478Y-28128D01*
X23492Y-28100D01*
X23507Y-28042D01*
X23507Y-28000D01*
X23492Y-27942D01*
X23478Y-27914D01*
X23450Y-27885D01*
X23407Y-27871D01*
X23378Y-27871D01*
X23335Y-27885D01*
X23321Y-27900D01*
X23135Y-27871D02*
X23078Y-27871D01*
X23050Y-27885D01*
X23021Y-27914D01*
X23007Y-27971D01*
X23007Y-28071D01*
X23021Y-28128D01*
X23050Y-28157D01*
X23078Y-28171D01*
X23135Y-28171D01*
X23164Y-28157D01*
X23192Y-28128D01*
X23207Y-28071D01*
X23207Y-27971D01*
X23192Y-27914D01*
X23164Y-27885D01*
X23135Y-27871D01*
X22878Y-28171D02*
X22878Y-27871D01*
X22735Y-28171D02*
X22735Y-27871D01*
X22564Y-28171D01*
X22564Y-27871D01*
X38403Y-21146D02*
X38403Y-21389D01*
X38389Y-21417D01*
X38375Y-21432D01*
X38346Y-21446D01*
X38289Y-21446D01*
X38260Y-21432D01*
X38246Y-21417D01*
X38232Y-21389D01*
X38232Y-21146D01*
X37946Y-21146D02*
X38089Y-21146D01*
X38103Y-21289D01*
X38089Y-21275D01*
X38060Y-21260D01*
X37989Y-21260D01*
X37960Y-21275D01*
X37946Y-21289D01*
X37932Y-21317D01*
X37932Y-21389D01*
X37946Y-21417D01*
X37960Y-21432D01*
X37989Y-21446D01*
X38060Y-21446D01*
X38089Y-21432D01*
X38103Y-21417D01*
X37589Y-21132D02*
X37846Y-21517D01*
X37517Y-21146D02*
X37317Y-21146D01*
X37446Y-21446D01*
%LPC*%
G54D17*
X23924Y-38156D03*
X23924Y-37644D03*
X23176Y-37900D03*
X14649Y-26281D03*
X14649Y-25769D03*
X13901Y-26025D03*
X23924Y-35656D03*
X23924Y-35144D03*
X23176Y-35400D03*
X20324Y-40006D03*
X20324Y-39494D03*
X19576Y-39750D03*
X23176Y-36344D03*
X23176Y-36856D03*
X23924Y-36600D03*
X23999Y-40006D03*
X23999Y-39494D03*
X23251Y-39750D03*
X14649Y-25081D03*
X14649Y-24569D03*
X13901Y-24825D03*
G54D18*
X13792Y-23675D03*
X14658Y-24050D03*
X14658Y-23300D03*
G54D19*
X41275Y-25575D03*
X40475Y-25575D03*
X29200Y-34850D03*
X30000Y-34850D03*
X19750Y-34225D03*
X20550Y-34225D03*
X21550Y-30950D03*
X22350Y-30950D03*
X19750Y-33000D03*
X20550Y-33000D03*
X21550Y-32175D03*
X22350Y-32175D03*
G54D20*
X16220Y-26780D03*
X16220Y-25980D03*
G54D19*
X21550Y-29750D03*
X22350Y-29750D03*
X19750Y-30600D03*
X20550Y-30600D03*
G54D20*
X17700Y-26775D03*
X17700Y-25975D03*
G54D19*
X21550Y-33350D03*
X22350Y-33350D03*
X21550Y-37200D03*
X22350Y-37200D03*
X19750Y-31800D03*
X20550Y-31800D03*
X21550Y-36000D03*
X22350Y-36000D03*
X34875Y-28150D03*
X35675Y-28150D03*
X22350Y-34500D03*
X21550Y-34500D03*
X19750Y-36600D03*
X20550Y-36600D03*
X19750Y-37800D03*
X20550Y-37800D03*
X19750Y-29400D03*
X20550Y-29400D03*
G54D20*
X26375Y-36800D03*
X26375Y-36000D03*
G54D21*
X12250Y-26175D03*
X12250Y-25425D03*
X22400Y-39375D03*
X22400Y-40125D03*
X18600Y-40125D03*
X18600Y-39375D03*
G54D22*
X19775Y-35400D03*
X20525Y-35400D03*
G54D21*
X17500Y-39375D03*
X17500Y-40125D03*
X21350Y-39375D03*
X21350Y-40125D03*
G54D22*
X39925Y-28850D03*
X39175Y-28850D03*
G54D21*
X11125Y-23675D03*
X11125Y-24425D03*
G54D20*
X24975Y-36800D03*
X24975Y-36000D03*
G54D19*
X39150Y-29850D03*
X39950Y-29850D03*
X38300Y-36475D03*
X37500Y-36475D03*
G54D20*
X12250Y-24475D03*
X12250Y-23675D03*
G54D19*
X35675Y-30875D03*
X34875Y-30875D03*
G54D20*
X27175Y-31775D03*
X27175Y-32575D03*
X11125Y-25375D03*
X11125Y-26175D03*
X33700Y-29900D03*
X33700Y-29100D03*
G54D23*
X35675Y-29125D03*
X34725Y-29500D03*
X35675Y-29875D03*
G54D22*
X34625Y-40500D03*
X33875Y-40500D03*
X38650Y-40475D03*
X37900Y-40475D03*
X30650Y-40500D03*
X29900Y-40500D03*
X42300Y-40525D03*
X43050Y-40525D03*
G54D24*
X37400Y-32025D03*
X33775Y-30900D03*
G54D25*
X16500Y-41500D03*
X17500Y-41500D03*
G54D26*
X18500Y-41500D03*
X19500Y-41500D03*
X20500Y-41500D03*
X21500Y-41500D03*
G54D20*
X22700Y-41450D03*
X22700Y-42250D03*
G54D27*
X28366Y-28398D03*
X28366Y-28713D03*
X28366Y-29028D03*
X28366Y-29343D03*
X28366Y-29657D03*
X28366Y-29972D03*
X28366Y-30287D03*
X28366Y-30602D03*
X31634Y-30602D03*
X31634Y-28398D03*
X31634Y-28713D03*
X31634Y-29028D03*
X31634Y-29343D03*
X31634Y-29657D03*
X31634Y-29972D03*
X31634Y-30287D03*
G54D28*
X28898Y-31134D03*
X29213Y-31134D03*
X29528Y-31134D03*
X29843Y-31134D03*
X30157Y-31134D03*
X30472Y-31134D03*
X30787Y-31134D03*
X31102Y-31134D03*
X28898Y-27866D03*
X29213Y-27866D03*
X29528Y-27866D03*
X29843Y-27866D03*
X30157Y-27866D03*
X30472Y-27866D03*
X30787Y-27866D03*
X31102Y-27866D03*
G54D29*
X12500Y-16500D03*
G54D30*
X46500Y-29700D03*
X46500Y-30700D03*
X46500Y-31700D03*
G54D31*
X46500Y-32700D03*
G54D24*
X37400Y-31375D03*
X37425Y-34875D03*
X37400Y-34125D03*
G54D29*
X47500Y-16500D03*
G54D26*
X47900Y-39000D03*
X46900Y-39000D03*
X45900Y-39000D03*
X42900Y-39000D03*
X43900Y-39000D03*
X44900Y-39000D03*
X40900Y-39000D03*
X39900Y-39000D03*
X38900Y-39000D03*
X36900Y-39000D03*
X35900Y-39000D03*
X47900Y-20000D03*
X46900Y-20000D03*
X45900Y-20000D03*
X44900Y-20000D03*
X43900Y-20000D03*
X42900Y-20000D03*
X41900Y-20000D03*
X40900Y-20000D03*
X39300Y-20000D03*
X38300Y-20000D03*
X37300Y-20000D03*
X36300Y-20000D03*
X35300Y-20000D03*
X34300Y-20000D03*
X33300Y-20000D03*
X32300Y-20000D03*
X37900Y-39000D03*
G54D32*
X48900Y-37000D03*
X48900Y-26000D03*
X28900Y-20000D03*
X28400Y-39000D03*
G54D26*
X34900Y-39000D03*
X31300Y-20000D03*
X30300Y-20000D03*
X33900Y-39000D03*
G54D18*
X27342Y-36425D03*
X28208Y-36800D03*
X28208Y-36050D03*
G54D21*
X36775Y-21850D03*
X36775Y-21100D03*
G54D19*
X40750Y-23425D03*
X41550Y-23425D03*
G54D33*
X42735Y-44279D03*
X40964Y-41720D03*
X40964Y-44279D03*
X42735Y-41720D03*
X29885Y-44279D03*
X28114Y-41720D03*
X28114Y-44279D03*
X29885Y-41720D03*
X37885Y-44279D03*
X36114Y-41720D03*
X36114Y-44279D03*
X37885Y-41720D03*
X33885Y-44279D03*
X32114Y-41720D03*
X32114Y-44279D03*
X33885Y-41720D03*
G54D26*
X45500Y-36100D03*
X46500Y-36100D03*
X45500Y-35100D03*
X46500Y-35100D03*
X45500Y-34100D03*
G54D25*
X46500Y-34100D03*
G54D33*
X25885Y-44279D03*
X24114Y-41720D03*
X24114Y-44279D03*
X25885Y-41720D03*
G54D22*
X26625Y-40500D03*
X25875Y-40500D03*
G54D19*
X39525Y-23425D03*
X38725Y-23425D03*
G54D20*
X45475Y-30800D03*
X45475Y-31600D03*
G54D34*
X11650Y-35000D03*
X11650Y-34744D03*
X11650Y-34488D03*
X11650Y-35256D03*
X11650Y-35512D03*
G54D35*
X11550Y-36250D03*
X11550Y-33750D03*
G54D36*
X10600Y-35475D03*
X10600Y-34525D03*
G54D37*
X10600Y-36300D03*
X10600Y-33700D03*
G54D18*
X27342Y-34850D03*
X28208Y-35225D03*
X28208Y-34475D03*
G54D19*
X29200Y-36425D03*
X30000Y-36425D03*
G54D38*
X32300Y-21675D03*
X32300Y-22150D03*
G54D39*
X39000Y-21100D03*
X40900Y-21100D03*
X39000Y-21600D03*
X39000Y-22100D03*
X39000Y-22600D03*
X40900Y-21600D03*
X40900Y-22100D03*
X40900Y-22600D03*
G54D40*
X42600Y-24700D03*
X42600Y-24267D03*
X42600Y-23834D03*
X42600Y-23401D03*
X42600Y-22968D03*
X42600Y-25133D03*
X42600Y-25566D03*
X42600Y-25999D03*
X42600Y-26432D03*
G54D41*
X42836Y-22438D03*
G54D42*
X46684Y-22574D03*
G54D41*
X46684Y-28637D03*
G54D25*
X42754Y-28315D03*
G54D43*
X46900Y-23675D03*
X46900Y-26825D03*
G54D44*
X26125Y-32146D03*
X26125Y-31554D03*
X24450Y-32146D03*
X24450Y-31554D03*
G54D45*
X23775Y-30325D03*
X26325Y-30325D03*
G54D46*
X13125Y-20925D03*
G54D47*
X15525Y-20925D03*
G54D48*
X14375Y-18925D03*
G54D26*
X45250Y-20975D03*
X45250Y-21975D03*
G54D49*
X47350Y-21475D03*
G54D50*
X43150Y-35300D03*
X42650Y-35300D03*
X42150Y-35300D03*
X41650Y-35300D03*
X41150Y-35300D03*
X40650Y-35300D03*
X40150Y-35300D03*
X39650Y-35300D03*
X39150Y-35300D03*
X38650Y-35300D03*
X38650Y-31500D03*
X39150Y-31500D03*
X39650Y-31500D03*
X40150Y-31500D03*
X40650Y-31500D03*
X41150Y-31500D03*
X41650Y-31500D03*
X42150Y-31500D03*
X42650Y-31500D03*
X43150Y-31500D03*
G54D51*
X10819Y-31318D03*
G54D52*
X13004Y-30393D03*
X13004Y-29607D03*
G54D51*
X10819Y-28682D03*
G54D53*
X16668Y-28163D03*
X16668Y-37336D03*
G54D54*
X17950Y-28911D03*
X17950Y-29108D03*
X17950Y-29305D03*
X17950Y-29501D03*
X17950Y-29698D03*
X17950Y-29895D03*
X17950Y-30092D03*
X17950Y-30289D03*
X17950Y-30486D03*
X17950Y-30683D03*
X17950Y-30879D03*
X17950Y-31076D03*
X17950Y-31273D03*
X17950Y-31470D03*
X17950Y-31667D03*
X17950Y-31864D03*
X17950Y-32061D03*
X17950Y-32257D03*
X17950Y-32454D03*
X17950Y-32651D03*
X17950Y-32848D03*
X17950Y-33045D03*
X17950Y-33242D03*
X17950Y-33438D03*
X17950Y-33635D03*
X17950Y-33832D03*
X17950Y-34029D03*
X17950Y-34226D03*
X17950Y-34423D03*
X17950Y-34620D03*
X17950Y-34816D03*
X17950Y-35013D03*
X17950Y-35210D03*
X17950Y-35407D03*
X17950Y-35604D03*
X17950Y-35801D03*
X17950Y-35998D03*
X17950Y-36194D03*
X17950Y-36391D03*
X17950Y-36588D03*
G54D55*
X29700Y-23675D03*
X17600Y-23675D03*
G54D56*
X23650Y-23675D03*
G54D24*
X37675Y-21850D03*
M02*
