G04 (created by PCBNEW (2013-03-15 BZR 4003)-stable) date 16-Apr-13 6:58:48 PM*
%MOIN*%
G04 Gerber Fmt 3.4, Leading zero omitted, Abs format*
%FSLAX34Y34*%
G01*
G70*
G90*
G04 APERTURE LIST*
%ADD10C,0.006*%
%ADD11C,0.005*%
%ADD12R,0.0394X0.0236*%
%ADD13R,0.0394X0.0315*%
%ADD14R,0.042X0.056*%
%ADD15R,0.056X0.042*%
%ADD16R,0.059X0.0512*%
%ADD17R,0.0512X0.059*%
%ADD18R,0.0472X0.0315*%
%ADD19R,0.0787X0.0177*%
%ADD20R,0.0177X0.0787*%
%ADD21R,0.054X0.016*%
%ADD22R,0.056X0.063*%
%ADD23R,0.075X0.075*%
%ADD24C,0.075*%
%ADD25R,0.03X0.03*%
%ADD26R,0.08X0.024*%
%ADD27R,0.06X0.03*%
%ADD28R,0.06X0.04*%
%ADD29R,0.08X0.06*%
%ADD30R,0.06X0.06*%
%ADD31R,0.0394X0.0354*%
%ADD32R,0.0984252X0.11811*%
%ADD33R,0.3X0.1*%
%ADD34R,0.02X0.05*%
%ADD35R,0.1337X0.059*%
%ADD36R,0.1377X0.0392*%
%ADD37R,0.225X0.225*%
%ADD38C,0.6*%
%ADD39R,0.0787402X0.0629921*%
%ADD40R,0.0433071X0.00393701*%
G04 APERTURE END LIST*
G54D10*
G54D11*
X22125Y-19000D02*
X17500Y-19000D01*
X25175Y-19000D02*
X42500Y-19000D01*
X24625Y-19550D02*
X25175Y-19000D01*
X23625Y-19550D02*
X24625Y-19550D01*
X22675Y-19550D02*
X22125Y-19000D01*
X23675Y-19550D02*
X22675Y-19550D01*
X47500Y-40000D02*
G75*
G03X50000Y-37500I0J2500D01*
G74*
G01*
X42500Y-45000D02*
G75*
G03X45000Y-42500I0J2500D01*
G74*
G01*
X47500Y-40000D02*
G75*
G03X45000Y-42500I0J-2500D01*
G74*
G01*
X15000Y-42500D02*
G75*
G03X17500Y-45000I2500J0D01*
G74*
G01*
X10000Y-37500D02*
G75*
G03X12500Y-40000I2500J0D01*
G74*
G01*
X15000Y-42500D02*
G75*
G03X12500Y-40000I-2500J0D01*
G74*
G01*
X42500Y-19000D02*
G75*
G03X45000Y-16500I0J2500D01*
G74*
G01*
X50000Y-16500D02*
G75*
G03X47500Y-14000I-2500J0D01*
G74*
G01*
X47500Y-14000D02*
G75*
G03X45000Y-16500I0J-2500D01*
G74*
G01*
X15000Y-16500D02*
G75*
G03X17500Y-19000I2500J0D01*
G74*
G01*
X15000Y-16500D02*
G75*
G03X12500Y-14000I-2500J0D01*
G74*
G01*
X12500Y-14000D02*
G75*
G03X10000Y-16500I0J-2500D01*
G74*
G01*
X14150Y-38550D02*
X15650Y-38550D01*
X14150Y-27550D02*
X14150Y-38550D01*
X15650Y-27550D02*
X14150Y-27550D01*
X15650Y-38550D02*
X15650Y-27550D01*
X42500Y-45000D02*
X17500Y-45000D01*
X10000Y-37500D02*
X10000Y-16500D01*
X50000Y-16500D02*
X50000Y-37500D01*
G54D12*
X23924Y-38156D03*
X23924Y-37644D03*
X23176Y-37900D03*
X14649Y-26281D03*
X14649Y-25769D03*
X13901Y-26025D03*
X23924Y-35656D03*
X23924Y-35144D03*
X23176Y-35400D03*
X20324Y-40006D03*
X20324Y-39494D03*
X19576Y-39750D03*
X23176Y-36344D03*
X23176Y-36856D03*
X23924Y-36600D03*
X23999Y-40006D03*
X23999Y-39494D03*
X23251Y-39750D03*
X14649Y-25081D03*
X14649Y-24569D03*
X13901Y-24825D03*
G54D13*
X13792Y-23675D03*
X14658Y-24050D03*
X14658Y-23300D03*
G54D14*
X41275Y-25575D03*
X40475Y-25575D03*
X29200Y-34850D03*
X30000Y-34850D03*
X19750Y-34225D03*
X20550Y-34225D03*
X21550Y-30950D03*
X22350Y-30950D03*
X19750Y-33000D03*
X20550Y-33000D03*
X21550Y-32175D03*
X22350Y-32175D03*
G54D15*
X16220Y-26780D03*
X16220Y-25980D03*
G54D14*
X21550Y-29750D03*
X22350Y-29750D03*
X19750Y-30600D03*
X20550Y-30600D03*
G54D15*
X17700Y-26775D03*
X17700Y-25975D03*
G54D14*
X21550Y-33350D03*
X22350Y-33350D03*
X21550Y-37200D03*
X22350Y-37200D03*
X19750Y-31800D03*
X20550Y-31800D03*
X21550Y-36000D03*
X22350Y-36000D03*
X34875Y-28150D03*
X35675Y-28150D03*
X22350Y-34500D03*
X21550Y-34500D03*
X19750Y-36600D03*
X20550Y-36600D03*
X19750Y-37800D03*
X20550Y-37800D03*
X19750Y-29400D03*
X20550Y-29400D03*
G54D15*
X26375Y-36800D03*
X26375Y-36000D03*
G54D16*
X12250Y-26175D03*
X12250Y-25425D03*
X22400Y-39375D03*
X22400Y-40125D03*
X18600Y-40125D03*
X18600Y-39375D03*
G54D17*
X19775Y-35400D03*
X20525Y-35400D03*
G54D16*
X17500Y-39375D03*
X17500Y-40125D03*
X21350Y-39375D03*
X21350Y-40125D03*
G54D17*
X39925Y-28850D03*
X39175Y-28850D03*
G54D16*
X11125Y-23675D03*
X11125Y-24425D03*
G54D15*
X24975Y-36800D03*
X24975Y-36000D03*
G54D14*
X39150Y-29850D03*
X39950Y-29850D03*
X38300Y-36475D03*
X37500Y-36475D03*
G54D15*
X12250Y-24475D03*
X12250Y-23675D03*
G54D14*
X35675Y-30875D03*
X34875Y-30875D03*
G54D15*
X27175Y-31775D03*
X27175Y-32575D03*
X11125Y-25375D03*
X11125Y-26175D03*
X33700Y-29900D03*
X33700Y-29100D03*
G54D18*
X35675Y-29125D03*
X34725Y-29500D03*
X35675Y-29875D03*
G54D17*
X34625Y-40500D03*
X33875Y-40500D03*
X38650Y-40475D03*
X37900Y-40475D03*
X30650Y-40500D03*
X29900Y-40500D03*
X42300Y-40525D03*
X43050Y-40525D03*
G54D15*
X22700Y-41450D03*
X22700Y-42250D03*
G54D19*
X28366Y-28398D03*
X28366Y-28713D03*
X28366Y-29028D03*
X28366Y-29343D03*
X28366Y-29657D03*
X28366Y-29972D03*
X28366Y-30287D03*
X28366Y-30602D03*
X31634Y-30602D03*
X31634Y-28398D03*
X31634Y-28713D03*
X31634Y-29028D03*
X31634Y-29343D03*
X31634Y-29657D03*
X31634Y-29972D03*
X31634Y-30287D03*
G54D20*
X28898Y-31134D03*
X29213Y-31134D03*
X29528Y-31134D03*
X29843Y-31134D03*
X30157Y-31134D03*
X30472Y-31134D03*
X30787Y-31134D03*
X31102Y-31134D03*
X28898Y-27866D03*
X29213Y-27866D03*
X29528Y-27866D03*
X29843Y-27866D03*
X30157Y-27866D03*
X30472Y-27866D03*
X30787Y-27866D03*
X31102Y-27866D03*
G54D13*
X27342Y-36425D03*
X28208Y-36800D03*
X28208Y-36050D03*
G54D16*
X36775Y-21850D03*
X36775Y-21100D03*
G54D14*
X40750Y-23425D03*
X41550Y-23425D03*
G54D17*
X26625Y-40500D03*
X25875Y-40500D03*
G54D14*
X39525Y-23425D03*
X38725Y-23425D03*
G54D15*
X45475Y-30800D03*
X45475Y-31600D03*
G54D21*
X11650Y-35000D03*
X11650Y-34744D03*
X11650Y-34488D03*
X11650Y-35256D03*
X11650Y-35512D03*
G54D22*
X11550Y-36250D03*
X11550Y-33750D03*
G54D23*
X10600Y-35475D03*
X10600Y-34525D03*
G54D24*
X10600Y-36300D03*
X10600Y-33700D03*
G54D13*
X27342Y-34850D03*
X28208Y-35225D03*
X28208Y-34475D03*
G54D14*
X29200Y-36425D03*
X30000Y-36425D03*
G54D25*
X32300Y-21675D03*
X32300Y-22150D03*
G54D26*
X39000Y-21100D03*
X40900Y-21100D03*
X39000Y-21600D03*
X39000Y-22100D03*
X39000Y-22600D03*
X40900Y-21600D03*
X40900Y-22100D03*
X40900Y-22600D03*
G54D27*
X42600Y-24700D03*
X42600Y-24267D03*
X42600Y-23834D03*
X42600Y-23401D03*
X42600Y-22968D03*
X42600Y-25133D03*
X42600Y-25566D03*
X42600Y-25999D03*
X42600Y-26432D03*
G54D28*
X42836Y-22438D03*
G54D29*
X46684Y-22574D03*
G54D28*
X46684Y-28637D03*
G54D30*
X42754Y-28315D03*
G54D31*
X26125Y-32146D03*
X26125Y-31554D03*
X24450Y-32146D03*
X24450Y-31554D03*
G54D32*
X23775Y-30325D03*
X26325Y-30325D03*
G54D33*
X47350Y-21475D03*
G54D34*
X43150Y-35300D03*
X42650Y-35300D03*
X42150Y-35300D03*
X41650Y-35300D03*
X41150Y-35300D03*
X40650Y-35300D03*
X40150Y-35300D03*
X39650Y-35300D03*
X39150Y-35300D03*
X38650Y-35300D03*
X38650Y-31500D03*
X39150Y-31500D03*
X39650Y-31500D03*
X40150Y-31500D03*
X40650Y-31500D03*
X41150Y-31500D03*
X41650Y-31500D03*
X42150Y-31500D03*
X42650Y-31500D03*
X43150Y-31500D03*
G54D35*
X10819Y-31318D03*
G54D36*
X13004Y-30393D03*
X13004Y-29607D03*
G54D35*
X10819Y-28682D03*
G54D37*
X29700Y-23675D03*
X17600Y-23675D03*
G54D38*
X23650Y-23675D03*
G54D39*
X16643Y-28163D03*
X16643Y-37336D03*
G54D40*
X17925Y-28911D03*
X17925Y-29108D03*
X17925Y-29305D03*
X17925Y-29501D03*
X17925Y-29698D03*
X17925Y-29895D03*
X17925Y-30092D03*
X17925Y-30289D03*
X17925Y-30486D03*
X17925Y-30683D03*
X17925Y-30879D03*
X17925Y-31076D03*
X17925Y-31273D03*
X17925Y-31470D03*
X17925Y-31667D03*
X17925Y-31864D03*
X17925Y-32061D03*
X17925Y-32257D03*
X17925Y-32454D03*
X17925Y-32651D03*
X17925Y-32848D03*
X17925Y-33045D03*
X17925Y-33242D03*
X17925Y-33438D03*
X17925Y-33635D03*
X17925Y-33832D03*
X17925Y-34029D03*
X17925Y-34226D03*
X17925Y-34423D03*
X17925Y-34620D03*
X17925Y-34816D03*
X17925Y-35013D03*
X17925Y-35210D03*
X17925Y-35407D03*
X17925Y-35604D03*
X17925Y-35801D03*
X17925Y-35998D03*
X17925Y-36194D03*
X17925Y-36391D03*
X17925Y-36588D03*
M02*
