<?xml version="1.0" encoding="UTF-8"?>
<!DOCTYPE svg PUBLIC "-//W3C//DTD SVG 1.1//EN" "http://www.w3.org/Graphics/SVG/1.1/DTD/svg11.dtd"><svg version="1.1" viewBox="0 0 50800 30480" preserveAspectRatio="xMidYMid" fill-rule="evenodd" xmlns="http://www.w3.org/2000/svg" xmlns:xlink="http://www.w3.org/1999/xlink"><g visibility="visible" id="Default"><desc>Master slide</desc><g style="stroke:none;fill:none"><rect x="0" y="0" width="50800" height="30480"/></g></g><g visibility="visible" id="page5"><desc>Slide</desc><g><desc>Drawing</desc><g><g style="stroke:rgb(0,0,255);fill:none"><path style="fill:none" d="M 1232,1383 C 1260,1383 1284,1377 1309,1363 1333,1349 1350,1331 1365,1307 1379,1282 1385,1259 1385,1230 1385,1201 1379,1179 1365,1154 1350,1130 1333,1112 1309,1098 1285,1084 1260,1078 1232,1078 1204,1078 1180,1084 1156,1098 1132,1112 1114,1130 1099,1154 1084,1178 1079,1202 1079,1231 1079,1260 1085,1282 1099,1307 1113,1332 1131,1349 1156,1363 1181,1377 1204,1383 1232,1383"/><path style="fill:none" d="M 1232,15937 C 1260,15937 1284,15931 1309,15917 1333,15903 1350,15885 1365,15861 1380,15837 1385,15813 1385,15785 1385,15757 1379,15733 1365,15708 1351,15683 1333,15666 1309,15652 1285,15638 1260,15632 1232,15632 1204,15632 1180,15638 1156,15652 1132,15666 1114,15684 1099,15708 1084,15732 1079,15756 1079,15785 1079,15814 1085,15836 1099,15861 1113,15886 1131,15903 1156,15917 1181,15931 1204,15937 1232,15937"/><path style="fill:none" d="M 19596,1383 C 19624,1383 19648,1377 19673,1363 19698,1349 19714,1331 19729,1307 19743,1282 19749,1259 19749,1230 19749,1201 19743,1179 19729,1154 19714,1130 19697,1112 19673,1098 19649,1084 19624,1078 19596,1078 19568,1078 19544,1084 19520,1098 19496,1112 19478,1130 19463,1154 19448,1178 19443,1202 19443,1231 19443,1260 19449,1282 19463,1307 19477,1332 19495,1349 19520,1363 19545,1377 19568,1383 19596,1383"/><path style="fill:none" d="M 19596,15937 C 19624,15937 19648,15931 19673,15917 19698,15903 19714,15885 19729,15861 19744,15837 19749,15813 19749,15785 19749,15757 19743,15733 19729,15708 19715,15683 19697,15666 19673,15652 19649,15638 19624,15632 19596,15632 19568,15632 19544,15638 19520,15652 19496,15666 19478,15684 19463,15708 19448,15732 19443,15756 19443,15785 19443,15814 19449,15836 19463,15861 19477,15886 19495,15903 19520,15917 19545,15931 19568,15937 19596,15937"/><path style="fill:none" d="M 8204,1383 C 8232,1383 8256,1377 8281,1363 8306,1349 8322,1331 8337,1307 8351,1282 8357,1259 8357,1230 8357,1201 8351,1179 8337,1154 8322,1130 8305,1112 8281,1098 8257,1084 8232,1078 8204,1078 8176,1078 8152,1084 8128,1098 8104,1112 8086,1130 8071,1154 8056,1178 8051,1202 8051,1231 8051,1260 8057,1282 8071,1307 8085,1332 8103,1349 8128,1363 8153,1377 8176,1383 8204,1383"/><path style="fill:none" d="M 8204,15937 C 8232,15937 8256,15931 8281,15917 8306,15903 8322,15885 8337,15861 8352,15837 8357,15813 8357,15785 8357,15757 8351,15733 8337,15708 8323,15683 8305,15666 8281,15652 8257,15638 8232,15632 8204,15632 8176,15632 8152,15638 8128,15652 8104,15666 8086,15684 8071,15708 8056,15732 8051,15756 8051,15785 8051,15814 8057,15836 8071,15861 8085,15886 8103,15903 8128,15917 8153,15931 8176,15937 8204,15937"/><path style="fill:none" d="M 7290,1396 C 7318,1396 7342,1390 7367,1376 7392,1362 7408,1344 7423,1320 7437,1295 7443,1272 7443,1243 7443,1214 7437,1192 7423,1167 7408,1143 7391,1125 7367,1111 7343,1097 7318,1091 7290,1091 7262,1091 7238,1097 7214,1111 7190,1125 7172,1143 7157,1167 7142,1191 7137,1215 7137,1244 7137,1273 7143,1295 7157,1320 7171,1345 7189,1362 7214,1376 7239,1390 7262,1396 7290,1396"/><path style="fill:none" d="M 7290,15950 C 7318,15950 7342,15944 7367,15930 7392,15916 7408,15898 7423,15874 7438,15850 7443,15826 7443,15798 7443,15770 7437,15746 7423,15721 7409,15696 7391,15679 7367,15665 7343,15651 7318,15645 7290,15645 7262,15645 7238,15651 7214,15665 7190,15679 7172,15697 7157,15721 7142,15745 7137,15769 7137,15798 7137,15827 7143,15849 7157,15874 7171,15899 7189,15916 7214,15930 7239,15944 7262,15950 7290,15950"/><path style="fill:none" d="M 19590,8889 C 19618,8889 19642,8883 19667,8869 19692,8855 19708,8837 19723,8813 19738,8789 19743,8765 19743,8737 19743,8709 19737,8685 19723,8660 19709,8635 19691,8618 19667,8604 19643,8590 19618,8584 19590,8584 19562,8584 19538,8590 19514,8604 19490,8618 19472,8636 19457,8660 19442,8684 19437,8708 19437,8737 19437,8766 19443,8788 19457,8813 19471,8838 19489,8855 19514,8869 19539,8883 19562,8889 19590,8889"/><path style="fill:none" d="M 8198,8889 C 8226,8889 8250,8883 8275,8869 8300,8855 8316,8837 8331,8813 8346,8789 8351,8765 8351,8737 8351,8709 8345,8685 8331,8660 8317,8635 8299,8618 8275,8604 8251,8590 8226,8584 8198,8584 8170,8584 8146,8590 8122,8604 8098,8618 8080,8636 8065,8660 8050,8684 8045,8708 8045,8737 8045,8766 8051,8788 8065,8813 8079,8838 8097,8855 8122,8869 8147,8883 8170,8889 8198,8889"/><path style="fill:none" d="M 19590,7949 C 19618,7949 19642,7943 19667,7929 19692,7915 19708,7897 19723,7873 19738,7849 19743,7825 19743,7797 19743,7769 19737,7745 19723,7720 19709,7695 19691,7678 19667,7664 19643,7650 19618,7644 19590,7644 19562,7644 19538,7650 19514,7664 19490,7678 19472,7696 19457,7720 19442,7744 19437,7768 19437,7797 19437,7826 19443,7848 19457,7873 19471,7898 19489,7915 19514,7929 19539,7943 19562,7949 19590,7949"/><path style="fill:none" d="M 8198,7949 C 8226,7949 8250,7943 8275,7929 8300,7915 8316,7897 8331,7873 8346,7849 8351,7825 8351,7797 8351,7769 8345,7745 8331,7720 8317,7695 8299,7678 8275,7664 8251,7650 8226,7644 8198,7644 8170,7644 8146,7650 8122,7664 8098,7678 8080,7696 8065,7720 8050,7744 8045,7768 8045,7797 8045,7826 8051,7848 8065,7873 8079,7898 8097,7915 8122,7929 8147,7943 8170,7949 8198,7949"/><path style="fill:none" d="M 8198,5307 C 8226,5307 8250,5301 8275,5287 8300,5273 8316,5255 8331,5231 8346,5207 8351,5183 8351,5155 8351,5127 8345,5103 8331,5078 8317,5053 8299,5036 8275,5022 8251,5008 8226,5002 8198,5002 8170,5002 8146,5008 8122,5022 8098,5036 8080,5054 8065,5078 8050,5102 8045,5126 8045,5155 8045,5184 8051,5206 8065,5231 8079,5256 8097,5273 8122,5287 8147,5301 8170,5307 8198,5307"/><path style="fill:none" d="M 19590,4367 C 19618,4367 19642,4361 19667,4347 19692,4333 19708,4315 19723,4291 19738,4267 19743,4243 19743,4215 19743,4187 19737,4163 19723,4138 19709,4113 19691,4096 19667,4082 19642,4068 19618,4062 19590,4062 19562,4062 19538,4068 19514,4082 19489,4096 19472,4114 19457,4138 19442,4162 19437,4186 19437,4215 19437,4244 19443,4266 19457,4291 19471,4316 19489,4333 19514,4347 19539,4361 19562,4367 19590,4367"/><path style="fill:none" d="M 8198,4367 C 8226,4367 8250,4361 8275,4347 8300,4333 8316,4315 8331,4291 8346,4267 8351,4243 8351,4215 8351,4187 8345,4163 8331,4138 8317,4113 8299,4096 8275,4082 8250,4068 8226,4062 8198,4062 8170,4062 8146,4068 8122,4082 8097,4096 8080,4114 8065,4138 8050,4162 8045,4186 8045,4215 8045,4244 8051,4266 8065,4291 8079,4316 8097,4333 8122,4347 8147,4361 8170,4367 8198,4367"/><path style="fill:none" d="M 17297,7949 C 17325,7949 17349,7943 17374,7929 17399,7915 17415,7897 17430,7873 17445,7849 17450,7825 17450,7797 17450,7769 17444,7745 17430,7720 17416,7695 17398,7678 17374,7664 17350,7650 17325,7644 17297,7644 17269,7644 17245,7650 17221,7664 17197,7678 17179,7696 17164,7720 17149,7744 17144,7768 17144,7797 17144,7826 17150,7848 17164,7873 17178,7898 17196,7915 17221,7929 17246,7943 17269,7949 17297,7949"/><path style="fill:none" d="M 17297,5307 C 17325,5307 17349,5301 17374,5287 17399,5273 17415,5255 17430,5231 17445,5207 17450,5183 17450,5155 17450,5127 17444,5103 17430,5078 17416,5053 17398,5036 17374,5022 17350,5008 17325,5002 17297,5002 17269,5002 17245,5008 17221,5022 17197,5036 17179,5054 17164,5078 17149,5102 17144,5126 17144,5155 17144,5184 17150,5206 17164,5231 17178,5256 17196,5273 17221,5287 17246,5301 17269,5307 17297,5307"/><path style="fill:none" d="M 16358,7949 C 16386,7949 16410,7943 16435,7929 16460,7915 16476,7897 16491,7873 16506,7849 16511,7825 16511,7797 16511,7769 16505,7745 16491,7720 16477,7695 16459,7678 16435,7664 16411,7650 16386,7644 16358,7644 16330,7644 16306,7650 16282,7664 16258,7678 16240,7696 16225,7720 16210,7744 16205,7768 16205,7797 16205,7826 16211,7848 16225,7873 16239,7898 16257,7915 16282,7929 16307,7943 16330,7949 16358,7949"/><path style="fill:none" d="M 16358,5307 C 16386,5307 16410,5301 16435,5287 16460,5273 16476,5255 16491,5231 16506,5207 16511,5183 16511,5155 16511,5127 16505,5103 16491,5078 16477,5053 16459,5036 16435,5022 16411,5008 16386,5002 16358,5002 16330,5002 16306,5008 16282,5022 16258,5036 16240,5054 16225,5078 16210,5102 16205,5126 16205,5155 16205,5184 16211,5206 16225,5231 16239,5256 16257,5273 16282,5287 16307,5301 16330,5307 16358,5307"/><path style="fill:none" d="M 4039,1269 L 3835,1269 3835,1626 4039,1626 4039,1880 4394,1880 C 4394,1796 4393,1711 4394,1626 L 4597,1626 4597,1269 4394,1269 4394,634 4978,634 4978,0 6502,0 6502,635 10033,635 10033,0 14605,0 14605,635 18161,635 C 18160,423 18162,212 18161,0 L 19678,0 19678,635 C 19847,635 20100,634 20269,634 L 20269,1269 20066,1269 20066,1626 20269,1626 C 20271,1711 20268,1796 20269,1880 L 20625,1880 C 20624,1796 20625,1711 20625,1626 L 20828,1626 20828,1269 20625,1269 20625,634 21209,634 21209,0 22733,0 22733,635 24003,635 24003,3175 24640,3175 C 24640,3598 24639,3895 24639,4318 L 24003,4318 C 24003,4463 24004,4757 24003,4902 L 23131,4902 23131,4699 22709,4699 22709,4902 22381,4902 22381,5258 22709,5258 22709,5461 23131,5461 23131,5258 24003,5258 C 24004,5401 24003,5699 24003,5842 L 24639,5842 C 24641,6266 24637,6559 24639,6983 24387,6983 24255,6985 24003,6985 24004,8001 24002,9017 24003,10033 L 24640,10033 C 24640,10459 24638,10750 24638,11176 L 24003,11176 C 24003,11319 24004,11616 24003,11760 L 23131,11760 23131,11557 22709,11557 22709,11760 C 21955,11760 23141,11759 22381,11760 L 22381,12116 C 23141,12115 21955,12116 22709,12116 L 22709,12319 23131,12319 23131,12116 24003,12116 C 24004,12259 24003,12557 24003,12700 L 24640,12700 C 24640,13123 24638,13420 24638,13843 L 24003,13843 24003,16383 22733,16383 22733,17018 21209,17018 C 21209,16808 21211,16593 21211,16383 L 20623,16383 C 20623,16171 20625,15961 20625,15750 L 20828,15750 20828,15396 20625,15396 C 20624,15311 20626,15228 20625,15144 L 20269,15144 C 20270,15228 20268,15311 20269,15396 L 20066,15396 20066,15750 20269,15750 20269,16383 19679,16383 C 19679,16595 19678,16808 19678,17018 L 18161,17018 18161,16383 14605,16383 14605,17018 10033,17018 10033,16383 6502,16383 6502,17018 4978,17018 4978,16383 4394,16383 4394,15750 4597,15750 4597,15396 4394,15396 C 4393,15311 4395,15228 4394,15144 L 4039,15144 4039,15396 3835,15396 3835,15750 4039,15750 4039,16383 3454,16383 3454,17018 1930,17018 1930,16383 635,16383 635,13843 C 424,13843 253,13842 2,13842 2,13419 0,13123 0,12700 L 635,12700 C 636,12558 635,12258 635,12116 L 1506,12116 1506,12319 1926,12319 1926,12116 2223,12116 2223,11760 C 2123,11759 2026,11760 1926,11760 L 1926,11557 1506,11557 1506,11760 635,11760 C 634,11613 636,11322 635,11176 L 0,11176 C 0,10752 2,10455 2,10031 253,10031 385,10033 635,10033 L 635,6985 C 384,6985 252,6983 1,6983 1,6559 0,6266 0,5842 L 635,5842 635,5258 1506,5258 1506,5461 1926,5461 1926,5258 2223,5258 2223,4902 1926,4902 1926,4699 1506,4699 1506,4902 635,4902 635,4318 0,4318 0,3175 635,3175 C 634,2329 636,1481 635,635 L 1930,635 1930,0 3457,0 3457,635 C 3627,635 3868,634 4039,634 L 4039,1269"/><path style="fill:none" d="M 14491,12116 C 14344,12116 14224,12036 14224,11938 14224,11840 14344,11760 14491,11760 L 21577,11760 C 21724,11760 21844,11840 21844,11938 21844,12036 21724,12116 21577,12116 L 14491,12116"/></g><g/></g></g><g><desc>Drawing</desc><g><g style="stroke:rgb(0,0,255);fill:none"><path style="fill:none" d="M 25400,5283 C 25437,5283 25469,5274 25502,5256 25535,5238 25557,5214 25576,5182 25595,5150 25603,5117 25603,5080 25603,5043 25594,5011 25576,4979 25558,4947 25534,4923 25502,4904 25470,4885 25437,4877 25400,4877 25363,4877 25331,4886 25299,4904 25267,4922 25243,4946 25224,4979 25205,5012 25197,5043 25197,5080 25197,5117 25206,5149 25224,5182 25242,5215 25266,5237 25299,5256 25332,5275 25363,5283 25400,5283"/><path style="fill:none" d="M 25400,12141 C 25437,12141 25469,12132 25502,12114 25535,12096 25557,12072 25576,12040 25595,12008 25603,11975 25603,11938 25603,11901 25594,11869 25576,11837 25558,11805 25534,11781 25502,11762 25470,11743 25437,11735 25400,11735 25363,11735 25331,11744 25299,11762 25267,11780 25243,11804 25224,11837 25205,11870 25197,11901 25197,11938 25197,11975 25206,12007 25224,12040 25242,12073 25266,12095 25299,12114 25332,12133 25363,12141 25400,12141"/><path style="fill:none" d="M 26696,14580 L 28778,14580 C 28974,14580 29134,14420 29134,14224 L 29134,9754 C 29134,9558 28974,9398 28778,9398 L 26696,9398 C 26500,9398 26340,9558 26340,9754 L 26340,14224 C 26340,14420 26500,14580 26696,14580"/><path style="fill:none" d="M 30150,635 L 30150,0 33960,0 33960,3175 33318,3175 33318,6985 33960,6985 33960,10033 33318,10033 C 33318,11303 33323,12573 33323,13843 L 33960,13843 33960,17018 30155,17018 C 30155,16808 30150,16593 30150,16383 L 27610,16383 C 27610,16593 27612,16808 27612,17018 L 25070,17018 25070,13843 25705,13843 25705,12700 25070,12700 C 24930,12700 24810,12668 24689,12598 24568,12528 24480,12440 24410,12319 24340,12198 24308,12078 24308,11938 24308,11798 24340,11678 24410,11557 24480,11436 24568,11348 24689,11278 24810,11208 24930,11176 25070,11176 25090,11176 25110,11177 25129,11178 L 25705,11178 25705,10033 25070,10033 25070,6985 25705,6985 25705,5842 25070,5842 C 24930,5842 24810,5810 24689,5740 24568,5670 24480,5582 24410,5461 24340,5340 24308,5220 24308,5080 24308,4940 24340,4820 24410,4699 24480,4578 24568,4490 24689,4420 24810,4350 24930,4318 25070,4318 L 25705,4318 25705,3175 25070,3175 25070,0 27610,0 27610,635 30150,635"/></g><g/></g></g><g><desc>Drawing</desc><g><g style="stroke:rgb(0,0,255);fill:none"><path style="fill:none" d="M 34500,5283 C 34537,5283 34569,5274 34602,5256 34635,5238 34657,5214 34676,5182 34695,5150 34703,5117 34703,5080 34703,5043 34694,5011 34676,4979 34658,4947 34634,4923 34602,4904 34570,4885 34537,4877 34500,4877 34463,4877 34431,4886 34399,4904 34367,4922 34343,4946 34324,4979 34305,5012 34297,5043 34297,5080 34297,5117 34306,5149 34324,5182 34342,5215 34366,5237 34399,5256 34432,5275 34463,5283 34500,5283"/><path style="fill:none" d="M 34500,12141 C 34537,12141 34569,12132 34602,12114 34635,12096 34657,12072 34676,12040 34695,12008 34703,11975 34703,11938 34703,11901 34694,11869 34676,11837 34658,11805 34634,11781 34602,11762 34570,11743 34537,11735 34500,11735 34463,11735 34431,11744 34399,11762 34367,11780 34343,11804 34324,11837 34305,11870 34297,11901 34297,11938 34297,11975 34306,12007 34324,12040 34342,12073 34366,12095 34399,12114 34432,12133 34463,12141 34500,12141"/><path style="fill:none" d="M 35796,14580 L 37878,14580 C 38074,14580 38234,14420 38234,14224 L 38234,9754 C 38234,9558 38074,9398 37878,9398 L 35796,9398 C 35600,9398 35440,9558 35440,9754 L 35440,14224 C 35440,14420 35600,14580 35796,14580"/><path style="fill:none" d="M 39250,635 L 39250,0 43060,0 43060,3175 42418,3175 42418,6985 43060,6985 43060,10033 42418,10033 C 42418,11303 42423,12573 42423,13843 L 43060,13843 43060,17018 39255,17018 C 39255,16808 39250,16593 39250,16383 L 36710,16383 C 36710,16593 36712,16808 36712,17018 L 34170,17018 34170,13843 34805,13843 34805,12700 34170,12700 C 34030,12700 33910,12668 33789,12598 33668,12528 33580,12440 33510,12319 33440,12198 33408,12078 33408,11938 33408,11798 33440,11678 33510,11557 33580,11436 33668,11348 33789,11278 33910,11208 34030,11176 34170,11176 34190,11176 34210,11177 34229,11178 L 34805,11178 34805,10033 34170,10033 34170,6985 34805,6985 34805,5842 34170,5842 C 34030,5842 33910,5810 33789,5740 33668,5670 33580,5582 33510,5461 33440,5340 33408,5220 33408,5080 33408,4940 33440,4820 33510,4699 33580,4578 33668,4490 33789,4420 33910,4350 34030,4318 34170,4318 L 34805,4318 34805,3175 34170,3175 34170,0 36710,0 36710,635 39250,635"/></g><g/></g></g><g><desc>Drawing</desc><g><g style="stroke:rgb(0,0,255);fill:none"><path style="fill:none" d="M 5283,25840 C 5283,25803 5274,25771 5256,25738 5238,25705 5214,25683 5182,25664 5150,25645 5117,25637 5080,25637 5043,25637 5011,25646 4979,25664 4947,25682 4923,25706 4904,25738 4885,25770 4877,25803 4877,25840 4877,25877 4886,25909 4904,25941 4922,25973 4946,25997 4979,26016 5012,26035 5043,26043 5080,26043 5117,26043 5149,26034 5182,26016 5215,25998 5237,25974 5256,25941 5275,25908 5283,25877 5283,25840"/><path style="fill:none" d="M 12141,25840 C 12141,25803 12132,25771 12114,25738 12096,25705 12072,25683 12040,25664 12008,25645 11975,25637 11938,25637 11901,25637 11869,25646 11837,25664 11805,25682 11781,25706 11762,25738 11743,25770 11735,25803 11735,25840 11735,25877 11744,25909 11762,25941 11780,25973 11804,25997 11837,26016 11870,26035 11901,26043 11938,26043 11975,26043 12007,26034 12040,26016 12073,25998 12095,25974 12114,25941 12133,25908 12141,25877 12141,25840"/><path style="fill:none" d="M 635,21090 L 0,21090 0,17280 3175,17280 3175,17918 C 4445,17918 5715,17913 6985,17913 L 6985,17280 10033,17280 10033,17918 C 11303,17918 12573,17913 13843,17913 L 13843,17280 17018,17280 17018,21090 16383,21090 16383,23630 C 16593,23630 16808,23628 17018,23628 L 17018,26170 13843,26170 13843,25535 12700,25535 12700,26170 C 12700,26310 12668,26430 12598,26551 12528,26672 12440,26760 12319,26830 12198,26900 12078,26932 11938,26932 11798,26932 11678,26900 11557,26830 11436,26760 11348,26672 11278,26551 11208,26430 11176,26310 11176,26170 11176,26150 11177,26130 11178,26111 L 11178,25535 10033,25535 10033,26170 6985,26170 6985,25535 5842,25535 5842,26170 C 5842,26310 5810,26430 5740,26551 5670,26672 5582,26760 5461,26830 5340,26900 5220,26932 5080,26932 4940,26932 4820,26900 4699,26830 4578,26760 4490,26672 4420,26551 4350,26430 4318,26310 4318,26170 L 4318,25535 3175,25535 3175,26170 0,26170 0,23630 635,23630 635,21090"/></g><g/></g></g><g><desc>Drawing</desc><g><g style="stroke:rgb(0,0,255);fill:none"><path style="fill:none" d="M 22583,25840 C 22583,25803 22574,25771 22556,25738 22538,25705 22514,25683 22482,25664 22450,25645 22417,25637 22380,25637 22343,25637 22311,25646 22279,25664 22247,25682 22223,25706 22204,25738 22185,25770 22177,25803 22177,25840 22177,25877 22186,25909 22204,25941 22222,25973 22246,25997 22279,26016 22312,26035 22343,26043 22380,26043 22417,26043 22449,26034 22482,26016 22515,25998 22537,25974 22556,25941 22575,25908 22583,25877 22583,25840"/><path style="fill:none" d="M 29441,25840 C 29441,25803 29432,25771 29414,25738 29396,25705 29372,25683 29340,25664 29308,25645 29275,25637 29238,25637 29201,25637 29169,25646 29137,25664 29105,25682 29081,25706 29062,25738 29043,25770 29035,25803 29035,25840 29035,25877 29044,25909 29062,25941 29080,25973 29104,25997 29137,26016 29170,26035 29201,26043 29238,26043 29275,26043 29307,26034 29340,26016 29373,25998 29395,25974 29414,25941 29433,25908 29441,25877 29441,25840"/><path style="fill:none" d="M 17935,21090 L 17300,21090 17300,17280 20475,17280 20475,17918 C 21745,17918 23015,17913 24285,17913 L 24285,17280 27333,17280 27333,17918 C 28603,17918 29873,17913 31143,17913 L 31143,17280 34318,17280 34318,21090 33683,21090 33683,23630 C 33893,23630 34108,23628 34318,23628 L 34318,26170 31143,26170 31143,25535 30000,25535 30000,26170 C 30000,26310 29968,26430 29898,26551 29828,26672 29740,26760 29619,26830 29498,26900 29378,26932 29238,26932 29098,26932 28978,26900 28857,26830 28736,26760 28648,26672 28578,26551 28508,26430 28476,26310 28476,26170 28476,26150 28477,26130 28478,26111 L 28478,25535 27333,25535 27333,26170 24285,26170 24285,25535 23142,25535 23142,26170 C 23142,26310 23110,26430 23040,26551 22970,26672 22882,26760 22761,26830 22640,26900 22520,26932 22380,26932 22240,26932 22120,26900 21999,26830 21878,26760 21790,26672 21720,26551 21650,26430 21618,26310 21618,26170 L 21618,25535 20475,25535 20475,26170 17300,26170 17300,23630 17935,23630 17935,21090"/></g><g/></g></g></g></svg>