<?xml version="1.0" encoding="UTF-8"?>
<!DOCTYPE svg PUBLIC "-//W3C//DTD SVG 1.1//EN" "http://www.w3.org/Graphics/SVG/1.1/DTD/svg11.dtd"><svg version="1.1" viewBox="0 0 50800 30480" preserveAspectRatio="xMidYMid" fill-rule="evenodd" xmlns="http://www.w3.org/2000/svg" xmlns:xlink="http://www.w3.org/1999/xlink"><g visibility="visible" id="Default"><desc>Master slide</desc><g style="stroke:none;fill:none"><rect x="0" y="0" width="50800" height="30480"/></g></g><g visibility="visible" id="page5"><desc>Slide</desc><g><desc>Group</desc><g><desc>Drawing</desc><g><g style="stroke:rgb(0,0,255);fill:none"><path style="fill:none" d="M 29083,635 L 29083,0 29083,635"/><path style="fill:none" d="M 29083,0 L 32893,0 29083,0"/><path style="fill:none" d="M 32893,3175 L 32251,3175 32893,3175"/><path style="fill:none" d="M 32251,3175 L 32251,6985 32251,3175"/><path style="fill:none" d="M 32251,6985 L 32893,6985 32251,6985"/><path style="fill:none" d="M 32893,10033 L 32251,10033 32893,10033"/><path style="fill:none" d="M 32251,10033 C 32251,11303 32256,12573 32256,13843 L 32251,10033"/><path style="fill:none" d="M 32256,13843 L 32893,13843 32256,13843"/><path style="fill:none" d="M 32893,17018 L 29088,17018 32893,17018"/><path style="fill:none" d="M 29088,17018 C 29088,16808 29083,16593 29083,16383 L 29088,17018"/><path style="fill:none" d="M 29083,16383 L 26543,16383 29083,16383"/><path style="fill:none" d="M 26543,16383 C 26543,16593 26545,16808 26545,17018 L 26543,16383"/><path style="fill:none" d="M 26545,17018 L 24003,17018 26545,17018"/><path style="fill:none" d="M 24003,17018 L 24003,16383 24003,17018"/><path style="fill:none" d="M 24003,12117 L 24003,11761 24003,12117"/><path style="fill:none" d="M 24003,5258 L 24003,4902 24003,5258"/><path style="fill:none" d="M 24003,635 L 24003,0 24003,635"/><path style="fill:none" d="M 24003,0 L 26543,0 24003,0"/><path style="fill:none" d="M 26543,0 L 26543,635 26543,0"/><path style="fill:none" d="M 26543,635 L 29083,635 26543,635"/></g><g/></g></g><g><desc>Drawing</desc><g><g style="stroke:rgb(0,0,255);fill:none"><path style="fill:none" d="M 24333,5283 C 24370,5283 24402,5274 24435,5256 24468,5238 24490,5214 24509,5182 24528,5150 24536,5117 24536,5080 24536,5043 24527,5011 24509,4979 24491,4947 24467,4923 24435,4904 24403,4885 24370,4877 24333,4877 24296,4877 24264,4886 24232,4904 24200,4922 24176,4946 24157,4979 24138,5012 24130,5043 24130,5080 24130,5117 24139,5149 24157,5182 24175,5215 24199,5237 24232,5256 24265,5275 24296,5283 24333,5283"/></g><g/></g></g><g><desc>Drawing</desc><g><g style="stroke:rgb(0,0,255);fill:none"><path style="fill:none" d="M 24333,12141 C 24370,12141 24402,12132 24435,12114 24468,12096 24490,12072 24509,12040 24528,12008 24536,11975 24536,11938 24536,11901 24527,11869 24509,11837 24491,11805 24467,11781 24435,11762 24403,11743 24370,11735 24333,11735 24296,11735 24264,11744 24232,11762 24200,11780 24176,11804 24157,11837 24138,11870 24130,11901 24130,11938 24130,11975 24139,12007 24157,12040 24175,12073 24199,12095 24232,12114 24265,12133 24296,12141 24333,12141"/></g><g/></g></g><g><desc>Drawing</desc><g><g style="stroke:rgb(0,0,255);fill:none"><path style="fill:none" d="M 25629,14580 L 27711,14580 C 27907,14580 28067,14420 28067,14224 L 28067,9754 C 28067,9558 27907,9398 27711,9398 L 25629,9398 C 25433,9398 25273,9558 25273,9754 L 25273,14224 C 25273,14420 25433,14580 25629,14580"/></g><g/></g></g></g><g><desc>Drawing</desc><g><g style="stroke:rgb(0,0,255);fill:none"><path style="fill:none" d="M 37973,635 L 37973,0 41783,0 41783,3175 41145,3175 C 41145,4445 41150,5715 41150,6985 L 41783,6985 41783,10033 41145,10033 C 41145,11303 41150,12573 41150,13843 L 41783,13843 41783,17018 37973,17018 37973,16383 35433,16383 C 35433,16593 35435,16808 35435,17018 L 32893,17018 32893,13843 33528,13843 33528,12700 32893,12700 32893,11178 33528,11178 33528,10033 32893,10033 32893,6985 33528,6985 33528,5842 32893,5842 32893,4318 33528,4318 33528,3175 32893,3175 32893,0 35433,0 35433,635 37973,635"/><path style="fill:none" d="M 33223,5283 C 33260,5283 33292,5274 33325,5256 33358,5238 33380,5214 33399,5182 33418,5150 33426,5117 33426,5080 33426,5043 33417,5011 33399,4979 33381,4947 33357,4923 33325,4904 33293,4885 33260,4877 33223,4877 33186,4877 33154,4886 33122,4904 33090,4922 33066,4946 33047,4979 33028,5012 33020,5043 33020,5080 33020,5117 33029,5149 33047,5182 33065,5215 33089,5237 33122,5256 33155,5275 33186,5283 33223,5283"/><path style="fill:none" d="M 33223,12141 C 33260,12141 33292,12132 33325,12114 33358,12096 33380,12072 33399,12040 33418,12008 33426,11975 33426,11938 33426,11901 33417,11869 33399,11837 33381,11805 33357,11781 33325,11762 33293,11743 33260,11735 33223,11735 33186,11735 33154,11744 33122,11762 33090,11780 33066,11804 33047,11837 33028,11870 33020,11901 33020,11938 33020,11975 33029,12007 33047,12040 33065,12073 33089,12095 33122,12114 33155,12133 33186,12141 33223,12141"/></g><g/></g></g><g><desc>Group</desc><g><desc>Drawing</desc><g><g style="stroke:rgb(0,0,255);fill:none"><path style="fill:none" d="M 46863,635 L 46863,0 46863,635"/><path style="fill:none" d="M 46863,0 L 50673,0 46863,0"/><path style="fill:none" d="M 50673,0 L 50673,3175 50673,0"/><path style="fill:none" d="M 50673,3175 L 50031,3175 50673,3175"/><path style="fill:none" d="M 50031,3175 L 50031,6985 50031,3175"/><path style="fill:none" d="M 50031,6985 L 50673,6985 50031,6985"/><path style="fill:none" d="M 50673,6985 L 50673,10033 50673,6985"/><path style="fill:none" d="M 50673,10033 L 50031,10033 50673,10033"/><path style="fill:none" d="M 50031,10033 C 50031,11303 50036,12573 50036,13843 L 50031,10033"/><path style="fill:none" d="M 50036,13843 L 50673,13843 50036,13843"/><path style="fill:none" d="M 50673,13843 L 50673,17018 50673,13843"/><path style="fill:none" d="M 50673,17018 L 46868,17018 50673,17018"/><path style="fill:none" d="M 46868,17018 C 46868,16808 46863,16593 46863,16383 L 46868,17018"/><path style="fill:none" d="M 46863,16383 L 44323,16383 46863,16383"/><path style="fill:none" d="M 44323,16383 C 44323,16593 44325,16808 44325,17018 L 44323,16383"/><path style="fill:none" d="M 44325,17018 L 41783,17018 44325,17018"/><path style="fill:none" d="M 41783,13843 L 42418,13843 41783,13843"/><path style="fill:none" d="M 42418,13843 L 42418,12700 42418,13843"/><path style="fill:none" d="M 42418,12700 L 41783,12700 42418,12700"/><path style="fill:none" d="M 41783,12700 L 41783,11178 41783,12700"/><path style="fill:none" d="M 41783,11178 L 42418,11178 41783,11178"/><path style="fill:none" d="M 42418,11178 L 42418,10033 42418,11178"/><path style="fill:none" d="M 42418,10033 L 41783,10033 42418,10033"/><path style="fill:none" d="M 41783,6985 L 42418,6985 41783,6985"/><path style="fill:none" d="M 42418,6985 L 42418,5842 42418,6985"/><path style="fill:none" d="M 42418,5842 L 41783,5842 42418,5842"/><path style="fill:none" d="M 41783,5842 L 41783,4318 41783,5842"/><path style="fill:none" d="M 41783,4318 L 42418,4318 41783,4318"/><path style="fill:none" d="M 42418,4318 L 42418,3175 42418,4318"/><path style="fill:none" d="M 42418,3175 L 41783,3175 42418,3175"/><path style="fill:none" d="M 41783,0 L 44323,0 41783,0"/><path style="fill:none" d="M 44323,0 L 44323,635 44323,0"/><path style="fill:none" d="M 44323,635 L 46863,635 44323,635"/></g><g/></g></g><g><desc>Drawing</desc><g><g style="stroke:rgb(0,0,255);fill:none"><path style="fill:none" d="M 42113,5283 C 42150,5283 42182,5274 42215,5256 42248,5238 42270,5214 42289,5182 42308,5150 42316,5117 42316,5080 42316,5043 42307,5011 42289,4979 42271,4947 42247,4923 42215,4904 42183,4885 42150,4877 42113,4877 42076,4877 42044,4886 42012,4904 41980,4922 41956,4946 41937,4979 41918,5012 41910,5043 41910,5080 41910,5117 41919,5149 41937,5182 41955,5215 41979,5237 42012,5256 42045,5275 42076,5283 42113,5283"/></g><g/></g></g><g><desc>Drawing</desc><g><g style="stroke:rgb(0,0,255);fill:none"><path style="fill:none" d="M 42113,12141 C 42150,12141 42182,12132 42215,12114 42248,12096 42270,12072 42289,12040 42308,12008 42316,11975 42316,11938 42316,11901 42307,11869 42289,11837 42271,11805 42247,11781 42215,11762 42183,11743 42150,11735 42113,11735 42076,11735 42044,11744 42012,11762 41980,11780 41956,11804 41937,11837 41918,11870 41910,11901 41910,11938 41910,11975 41919,12007 41937,12040 41955,12073 41979,12095 42012,12114 42045,12133 42076,12141 42113,12141"/></g><g/></g></g><g><desc>Drawing</desc><g><g style="stroke:rgb(0,0,255);fill:none"><path style="fill:none" d="M 43409,14580 L 45491,14580 C 45687,14580 45847,14420 45847,14224 L 45847,9754 C 45847,9558 45687,9398 45491,9398 L 43409,9398 C 43213,9398 43053,9558 43053,9754 L 43053,14224 C 43053,14420 43213,14580 43409,14580"/></g><g/></g></g></g><g><desc>Drawing</desc><g><g style="stroke:rgb(0,0,255);fill:none"><path style="fill:none" d="M 635,21082 L 0,21082 0,17272 3175,17272 3175,17910 C 4445,17910 5715,17905 6985,17905 L 6985,17272 10033,17272 10033,17910 C 11303,17910 12573,17905 13843,17905 L 13843,17272 17018,17272 17018,21082 16383,21082 16383,23622 C 16593,23622 16808,23620 17018,23620 L 17018,26162 13843,26162 13843,25527 12700,25527 12700,26162 11178,26162 11178,25527 10033,25527 10033,26162 6985,26162 6985,25527 5842,25527 5842,26162 4318,26162 4318,25527 3175,25527 3175,26162 0,26162 0,23622 635,23622 635,21082"/><path style="fill:none" d="M 5283,25832 C 5283,25795 5274,25763 5256,25730 5238,25697 5214,25675 5182,25656 5150,25637 5117,25629 5080,25629 5043,25629 5011,25638 4979,25656 4947,25674 4923,25698 4904,25730 4885,25762 4877,25795 4877,25832 4877,25869 4886,25901 4904,25933 4922,25965 4946,25989 4979,26008 5012,26027 5043,26035 5080,26035 5117,26035 5149,26026 5182,26008 5215,25990 5237,25966 5256,25933 5275,25900 5283,25869 5283,25832"/><path style="fill:none" d="M 12141,25832 C 12141,25795 12132,25763 12114,25730 12096,25697 12072,25675 12040,25656 12008,25637 11975,25629 11938,25629 11901,25629 11869,25638 11837,25656 11805,25674 11781,25698 11762,25730 11743,25762 11735,25795 11735,25832 11735,25869 11744,25901 11762,25933 11780,25965 11804,25989 11837,26008 11870,26027 11901,26035 11938,26035 11975,26035 12007,26026 12040,26008 12073,25990 12095,25966 12114,25933 12133,25900 12141,25869 12141,25832"/></g><g/></g></g><g><desc>Drawing</desc><g><g style="stroke:rgb(0,0,255);fill:none"><path style="fill:none" d="M 23408,15635 C 23380,15635 23356,15641 23331,15655 23307,15669 23290,15687 23275,15711 23261,15736 23255,15759 23255,15788 23255,15817 23261,15839 23275,15864 23290,15888 23307,15906 23331,15920 23355,15934 23380,15940 23408,15940 23436,15940 23460,15934 23484,15920 23508,15906 23526,15888 23541,15864 23556,15840 23561,15816 23561,15787 23561,15758 23555,15736 23541,15711 23527,15686 23509,15669 23484,15655 23459,15641 23436,15635 23408,15635"/><path style="fill:none" d="M 23408,1081 C 23380,1081 23356,1087 23331,1101 23307,1115 23290,1133 23275,1157 23260,1181 23255,1205 23255,1233 23255,1261 23261,1285 23275,1310 23289,1335 23307,1352 23331,1366 23355,1380 23380,1386 23408,1386 23436,1386 23460,1380 23484,1366 23508,1352 23526,1334 23541,1310 23556,1286 23561,1262 23561,1233 23561,1204 23555,1182 23541,1157 23527,1132 23509,1115 23484,1101 23459,1087 23436,1081 23408,1081"/><path style="fill:none" d="M 5044,15635 C 5016,15635 4992,15641 4967,15655 4942,15669 4926,15687 4911,15711 4897,15736 4891,15759 4891,15788 4891,15817 4897,15839 4911,15864 4926,15888 4943,15906 4967,15920 4991,15934 5016,15940 5044,15940 5072,15940 5096,15934 5120,15920 5144,15906 5162,15888 5177,15864 5192,15840 5197,15816 5197,15787 5197,15758 5191,15736 5177,15711 5163,15686 5145,15669 5120,15655 5095,15641 5072,15635 5044,15635"/><path style="fill:none" d="M 5044,1081 C 5016,1081 4992,1087 4967,1101 4942,1115 4926,1133 4911,1157 4896,1181 4891,1205 4891,1233 4891,1261 4897,1285 4911,1310 4925,1335 4943,1352 4967,1366 4991,1380 5016,1386 5044,1386 5072,1386 5096,1380 5120,1366 5144,1352 5162,1334 5177,1310 5192,1286 5197,1262 5197,1233 5197,1204 5191,1182 5177,1157 5163,1132 5145,1115 5120,1101 5095,1087 5072,1081 5044,1081"/><path style="fill:none" d="M 16436,15635 C 16408,15635 16384,15641 16359,15655 16334,15669 16318,15687 16303,15711 16289,15736 16283,15759 16283,15788 16283,15817 16289,15839 16303,15864 16318,15888 16335,15906 16359,15920 16383,15934 16408,15940 16436,15940 16464,15940 16488,15934 16512,15920 16536,15906 16554,15888 16569,15864 16584,15840 16589,15816 16589,15787 16589,15758 16583,15736 16569,15711 16555,15686 16537,15669 16512,15655 16487,15641 16464,15635 16436,15635"/><path style="fill:none" d="M 16436,1081 C 16408,1081 16384,1087 16359,1101 16334,1115 16318,1133 16303,1157 16288,1181 16283,1205 16283,1233 16283,1261 16289,1285 16303,1310 16317,1335 16335,1352 16359,1366 16383,1380 16408,1386 16436,1386 16464,1386 16488,1380 16512,1366 16536,1352 16554,1334 16569,1310 16584,1286 16589,1262 16589,1233 16589,1204 16583,1182 16569,1157 16555,1132 16537,1115 16512,1101 16487,1087 16464,1081 16436,1081"/><path style="fill:none" d="M 17350,15622 C 17322,15622 17298,15628 17273,15642 17248,15656 17232,15674 17217,15698 17203,15723 17197,15746 17197,15775 17197,15804 17203,15826 17217,15851 17232,15875 17249,15893 17273,15907 17297,15921 17322,15927 17350,15927 17378,15927 17402,15921 17426,15907 17450,15893 17468,15875 17483,15851 17498,15827 17503,15803 17503,15774 17503,15745 17497,15723 17483,15698 17469,15673 17451,15656 17426,15642 17401,15628 17378,15622 17350,15622"/><path style="fill:none" d="M 17350,1068 C 17322,1068 17298,1074 17273,1088 17248,1102 17232,1120 17217,1144 17202,1168 17197,1192 17197,1220 17197,1248 17203,1272 17217,1297 17231,1322 17249,1339 17273,1353 17297,1367 17322,1373 17350,1373 17378,1373 17402,1367 17426,1353 17450,1339 17468,1321 17483,1297 17498,1273 17503,1249 17503,1220 17503,1191 17497,1169 17483,1144 17469,1119 17451,1102 17426,1088 17401,1074 17378,1068 17350,1068"/><path style="fill:none" d="M 5050,8129 C 5022,8129 4998,8135 4973,8149 4948,8163 4932,8181 4917,8205 4902,8229 4897,8253 4897,8281 4897,8309 4903,8333 4917,8358 4931,8383 4949,8400 4973,8414 4997,8428 5022,8434 5050,8434 5078,8434 5102,8428 5126,8414 5150,8400 5168,8382 5183,8358 5198,8334 5203,8310 5203,8281 5203,8252 5197,8230 5183,8205 5169,8180 5151,8163 5126,8149 5101,8135 5078,8129 5050,8129"/><path style="fill:none" d="M 16442,8129 C 16414,8129 16390,8135 16365,8149 16340,8163 16324,8181 16309,8205 16294,8229 16289,8253 16289,8281 16289,8309 16295,8333 16309,8358 16323,8383 16341,8400 16365,8414 16389,8428 16414,8434 16442,8434 16470,8434 16494,8428 16518,8414 16542,8400 16560,8382 16575,8358 16590,8334 16595,8310 16595,8281 16595,8252 16589,8230 16575,8205 16561,8180 16543,8163 16518,8149 16493,8135 16470,8129 16442,8129"/><path style="fill:none" d="M 5050,9069 C 5022,9069 4998,9075 4973,9089 4948,9103 4932,9121 4917,9145 4902,9169 4897,9193 4897,9221 4897,9249 4903,9273 4917,9298 4931,9323 4949,9340 4973,9354 4997,9368 5022,9374 5050,9374 5078,9374 5102,9368 5126,9354 5150,9340 5168,9322 5183,9298 5198,9274 5203,9250 5203,9221 5203,9192 5197,9170 5183,9145 5169,9120 5151,9103 5126,9089 5101,9075 5078,9069 5050,9069"/><path style="fill:none" d="M 16442,9069 C 16414,9069 16390,9075 16365,9089 16340,9103 16324,9121 16309,9145 16294,9169 16289,9193 16289,9221 16289,9249 16295,9273 16309,9298 16323,9323 16341,9340 16365,9354 16389,9368 16414,9374 16442,9374 16470,9374 16494,9368 16518,9354 16542,9340 16560,9322 16575,9298 16590,9274 16595,9250 16595,9221 16595,9192 16589,9170 16575,9145 16561,9120 16543,9103 16518,9089 16493,9075 16470,9069 16442,9069"/><path style="fill:none" d="M 16442,11711 C 16414,11711 16390,11717 16365,11731 16340,11745 16324,11763 16309,11787 16294,11811 16289,11835 16289,11863 16289,11891 16295,11915 16309,11940 16323,11965 16341,11982 16365,11996 16389,12010 16414,12016 16442,12016 16470,12016 16494,12010 16518,11996 16542,11982 16560,11964 16575,11940 16590,11916 16595,11892 16595,11863 16595,11834 16589,11812 16575,11787 16561,11762 16543,11745 16518,11731 16493,11717 16470,11711 16442,11711"/><path style="fill:none" d="M 5050,12651 C 5022,12651 4998,12657 4973,12671 4948,12685 4932,12703 4917,12727 4902,12751 4897,12775 4897,12803 4897,12831 4903,12855 4917,12880 4931,12905 4949,12922 4973,12936 4998,12950 5022,12956 5050,12956 5078,12956 5102,12950 5126,12936 5151,12922 5168,12904 5183,12880 5198,12856 5203,12832 5203,12803 5203,12774 5197,12752 5183,12727 5169,12702 5151,12685 5126,12671 5101,12657 5078,12651 5050,12651"/><path style="fill:none" d="M 16442,12651 C 16414,12651 16390,12657 16365,12671 16340,12685 16324,12703 16309,12727 16294,12751 16289,12775 16289,12803 16289,12831 16295,12855 16309,12880 16323,12905 16341,12922 16365,12936 16390,12950 16414,12956 16442,12956 16470,12956 16494,12950 16518,12936 16543,12922 16560,12904 16575,12880 16590,12856 16595,12832 16595,12803 16595,12774 16589,12752 16575,12727 16561,12702 16543,12685 16518,12671 16493,12657 16470,12651 16442,12651"/><path style="fill:none" d="M 7343,9069 C 7315,9069 7291,9075 7266,9089 7241,9103 7225,9121 7210,9145 7195,9169 7190,9193 7190,9221 7190,9249 7196,9273 7210,9298 7224,9323 7242,9340 7266,9354 7290,9368 7315,9374 7343,9374 7371,9374 7395,9368 7419,9354 7443,9340 7461,9322 7476,9298 7491,9274 7496,9250 7496,9221 7496,9192 7490,9170 7476,9145 7462,9120 7444,9103 7419,9089 7394,9075 7371,9069 7343,9069"/><path style="fill:none" d="M 7343,11711 C 7315,11711 7291,11717 7266,11731 7241,11745 7225,11763 7210,11787 7195,11811 7190,11835 7190,11863 7190,11891 7196,11915 7210,11940 7224,11965 7242,11982 7266,11996 7290,12010 7315,12016 7343,12016 7371,12016 7395,12010 7419,11996 7443,11982 7461,11964 7476,11940 7491,11916 7496,11892 7496,11863 7496,11834 7490,11812 7476,11787 7462,11762 7444,11745 7419,11731 7394,11717 7371,11711 7343,11711"/><path style="fill:none" d="M 8282,9069 C 8254,9069 8230,9075 8205,9089 8180,9103 8164,9121 8149,9145 8134,9169 8129,9193 8129,9221 8129,9249 8135,9273 8149,9298 8163,9323 8181,9340 8205,9354 8229,9368 8254,9374 8282,9374 8310,9374 8334,9368 8358,9354 8382,9340 8400,9322 8415,9298 8430,9274 8435,9250 8435,9221 8435,9192 8429,9170 8415,9145 8401,9120 8383,9103 8358,9089 8333,9075 8310,9069 8282,9069"/><path style="fill:none" d="M 8282,11711 C 8254,11711 8230,11717 8205,11731 8180,11745 8164,11763 8149,11787 8134,11811 8129,11835 8129,11863 8129,11891 8135,11915 8149,11940 8163,11965 8181,11982 8205,11996 8229,12010 8254,12016 8282,12016 8310,12016 8334,12010 8358,11996 8382,11982 8400,11964 8415,11940 8430,11916 8435,11892 8435,11863 8435,11834 8429,11812 8415,11787 8401,11762 8383,11745 8358,11731 8333,11717 8310,11711 8282,11711"/><path style="fill:none" d="M 20601,15749 L 20805,15749 20805,15392 20601,15392 20601,15138 20246,15138 C 20246,15222 20247,15307 20246,15392 L 20043,15392 20043,15749 20246,15749 20246,16384 19662,16384 19662,17018 18138,17018 18138,16383 14607,16383 14607,17018 10035,17018 10035,16383 6479,16383 C 6480,16595 6478,16806 6479,17018 L 4962,17018 4962,16383 C 4793,16383 4540,16384 4371,16384 L 4371,15749 4574,15749 4574,15392 4371,15392 C 4369,15307 4372,15222 4371,15138 L 4015,15138 C 4016,15222 4015,15307 4015,15392 L 3812,15392 3812,15749 4015,15749 4015,16384 3431,16384 3431,17018 1907,17018 1907,16383 637,16383 637,13843 0,13843 C 0,13420 1,13123 1,12700 L 637,12700 C 637,12555 636,12261 637,12116 L 1509,12116 1509,12319 1931,12319 1931,12116 2259,12116 2259,11760 1931,11760 1931,11557 1509,11557 1509,11760 637,11760 C 636,11617 637,11319 637,11176 L 1,11176 C -1,10752 3,10459 1,10035 253,10035 385,10033 637,10033 636,9017 638,8001 637,6985 L 0,6985 C 0,6559 2,6268 2,5842 L 637,5842 C 637,5699 636,5402 637,5258 L 1509,5258 1509,5461 1931,5461 1931,5258 C 2685,5258 1499,5259 2259,5258 L 2259,4902 C 1499,4903 2685,4902 1931,4902 L 1931,4699 1509,4699 1509,4902 637,4902 C 636,4759 637,4461 637,4318 L 0,4318 C 0,3895 2,3598 2,3175 L 637,3175 637,635 1907,635 1907,0 3431,0 C 3431,210 3429,425 3429,635 L 4017,635 C 4017,847 4015,1057 4015,1268 L 3812,1268 3812,1622 4015,1622 C 4016,1707 4014,1790 4015,1874 L 4371,1874 C 4370,1790 4372,1707 4371,1622 L 4574,1622 4574,1268 4371,1268 4371,635 4961,635 C 4961,423 4962,210 4962,0 L 6479,0 6479,635 10035,635 10035,0 14607,0 14607,635 18138,635 18138,0 19662,0 19662,635 20246,635 20246,1268 20043,1268 20043,1622 20246,1622 C 20247,1707 20245,1790 20246,1874 L 20601,1874 20601,1622 20805,1622 20805,1268 20601,1268 20601,635 21186,635 21186,0 22710,0 22710,635 24005,635 24005,3175 C 24216,3175 24387,3176 24638,3176 24638,3599 24640,3895 24640,4318 L 24005,4318 C 24004,4460 24005,4760 24005,4902 L 23134,4902 23134,4699 22714,4699 22714,4902 22417,4902 22417,5258 C 22517,5259 22614,5258 22714,5258 L 22714,5461 23134,5461 23134,5258 24005,5258 C 24006,5405 24004,5696 24005,5842 L 24640,5842 C 24640,6266 24638,6563 24638,6987 24387,6987 24255,6985 24005,6985 L 24005,10033 C 24256,10033 24388,10035 24639,10035 24639,10459 24640,10752 24640,11176 L 24005,11176 24005,11760 23134,11760 23134,11557 22714,11557 22714,11760 22417,11760 22417,12116 22714,12116 22714,12319 23134,12319 23134,12116 24005,12116 24005,12700 24640,12700 24640,13843 24005,13843 C 24006,14689 24004,15537 24005,16383 L 22710,16383 22710,17018 21183,17018 21183,16383 C 21013,16383 20772,16384 20601,16384 L 20601,15749"/><path style="fill:none" d="M 7698,4902 C 7796,4902 7876,4982 7876,5080 7876,5178 7796,5258 7698,5258 L 2974,5258 C 2876,5258 2796,5178 2796,5080 2796,4982 2876,4902 2974,4902 L 7698,4902"/></g><g/></g></g></g></svg>