G04 (created by PCBNEW-RS274X (2012-01-19 BZR 3256)-stable) date 10/16/2012 1:39:51 PM*
G01*
G70*
G90*
%MOIN*%
G04 Gerber Fmt 3.4, Leading zero omitted, Abs format*
%FSLAX34Y34*%
G04 APERTURE LIST*
%ADD10C,0.006000*%
%ADD11C,0.012000*%
%ADD12C,0.015000*%
%ADD13C,0.010000*%
%ADD14C,0.005000*%
G04 APERTURE END LIST*
G54D10*
G54D11*
X25470Y-17666D02*
X26004Y-17513D01*
X25623Y-17361D01*
X26004Y-17209D01*
X25470Y-17056D01*
X25470Y-16828D02*
X26004Y-16637D01*
X25470Y-16447D02*
X26004Y-16637D01*
X26194Y-16713D01*
X26232Y-16752D01*
X26270Y-16828D01*
X26004Y-16027D02*
X25966Y-16103D01*
X25928Y-16142D01*
X25851Y-16180D01*
X25623Y-16180D01*
X25547Y-16142D01*
X25509Y-16103D01*
X25470Y-16027D01*
X25470Y-15913D01*
X25509Y-15837D01*
X25547Y-15799D01*
X25623Y-15761D01*
X25851Y-15761D01*
X25928Y-15799D01*
X25966Y-15837D01*
X26004Y-15913D01*
X26004Y-16027D01*
X26004Y-15303D02*
X25966Y-15379D01*
X25890Y-15418D01*
X25204Y-15418D01*
X25470Y-14656D02*
X26004Y-14656D01*
X25470Y-14999D02*
X25890Y-14999D01*
X25966Y-14960D01*
X26004Y-14884D01*
X26004Y-14770D01*
X25966Y-14694D01*
X25928Y-14656D01*
X26004Y-14275D02*
X25470Y-14275D01*
X25547Y-14275D02*
X25509Y-14236D01*
X25470Y-14160D01*
X25470Y-14046D01*
X25509Y-13970D01*
X25585Y-13932D01*
X26004Y-13932D01*
X25585Y-13932D02*
X25509Y-13894D01*
X25470Y-13817D01*
X25470Y-13703D01*
X25509Y-13627D01*
X25585Y-13589D01*
X26004Y-13589D01*
X25928Y-13208D02*
X25966Y-13169D01*
X26004Y-13208D01*
X25966Y-13246D01*
X25928Y-13208D01*
X26004Y-13208D01*
X25966Y-12484D02*
X26004Y-12560D01*
X26004Y-12712D01*
X25966Y-12788D01*
X25928Y-12827D01*
X25851Y-12865D01*
X25623Y-12865D01*
X25547Y-12827D01*
X25509Y-12788D01*
X25470Y-12712D01*
X25470Y-12560D01*
X25509Y-12484D01*
X26004Y-12026D02*
X25966Y-12102D01*
X25928Y-12141D01*
X25851Y-12179D01*
X25623Y-12179D01*
X25547Y-12141D01*
X25509Y-12102D01*
X25470Y-12026D01*
X25470Y-11912D01*
X25509Y-11836D01*
X25547Y-11798D01*
X25623Y-11760D01*
X25851Y-11760D01*
X25928Y-11798D01*
X25966Y-11836D01*
X26004Y-11912D01*
X26004Y-12026D01*
X26004Y-11417D02*
X25470Y-11417D01*
X25547Y-11417D02*
X25509Y-11378D01*
X25470Y-11302D01*
X25470Y-11188D01*
X25509Y-11112D01*
X25585Y-11074D01*
X26004Y-11074D01*
X25585Y-11074D02*
X25509Y-11036D01*
X25470Y-10959D01*
X25470Y-10845D01*
X25509Y-10769D01*
X25585Y-10731D01*
X26004Y-10731D01*
G54D12*
X34200Y-11150D02*
X34180Y-11344D01*
X34124Y-11531D01*
X34032Y-11703D01*
X33909Y-11854D01*
X33759Y-11979D01*
X33587Y-12071D01*
X33401Y-12129D01*
X33206Y-12149D01*
X33013Y-12132D01*
X32826Y-12077D01*
X32653Y-11986D01*
X32501Y-11864D01*
X32375Y-11714D01*
X32281Y-11543D01*
X32222Y-11357D01*
X32201Y-11163D01*
X32217Y-10970D01*
X32271Y-10782D01*
X32360Y-10609D01*
X32481Y-10456D01*
X32630Y-10329D01*
X32800Y-10234D01*
X32986Y-10174D01*
X33180Y-10151D01*
X33373Y-10166D01*
X33561Y-10218D01*
X33735Y-10306D01*
X33889Y-10426D01*
X34017Y-10574D01*
X34113Y-10744D01*
X34175Y-10929D01*
X34199Y-11123D01*
X34200Y-11150D01*
X34200Y-17150D02*
X34180Y-17344D01*
X34124Y-17531D01*
X34032Y-17703D01*
X33909Y-17854D01*
X33759Y-17979D01*
X33587Y-18071D01*
X33401Y-18129D01*
X33206Y-18149D01*
X33013Y-18132D01*
X32826Y-18077D01*
X32653Y-17986D01*
X32501Y-17864D01*
X32375Y-17714D01*
X32281Y-17543D01*
X32222Y-17357D01*
X32201Y-17163D01*
X32217Y-16970D01*
X32271Y-16782D01*
X32360Y-16609D01*
X32481Y-16456D01*
X32630Y-16329D01*
X32800Y-16234D01*
X32986Y-16174D01*
X33180Y-16151D01*
X33373Y-16166D01*
X33561Y-16218D01*
X33735Y-16306D01*
X33889Y-16426D01*
X34017Y-16574D01*
X34113Y-16744D01*
X34175Y-16929D01*
X34199Y-17123D01*
X34200Y-17150D01*
X25000Y-10000D02*
X25000Y-18300D01*
G54D13*
X35750Y-11050D02*
X35750Y-17250D01*
X35750Y-17250D02*
X34550Y-17250D01*
X34550Y-17250D02*
X34550Y-11050D01*
X34550Y-11050D02*
X35750Y-11050D01*
X35750Y-12150D02*
X34550Y-12150D01*
X30375Y-12750D02*
X29875Y-12750D01*
X30375Y-15550D02*
X29875Y-15550D01*
X30375Y-16575D02*
X30375Y-15350D01*
X30375Y-11725D02*
X30375Y-12950D01*
X31850Y-11475D02*
X31850Y-12950D01*
X30375Y-16575D02*
X30625Y-16825D01*
X30625Y-16825D02*
X31850Y-16825D01*
X31850Y-16825D02*
X31850Y-15350D01*
X31850Y-11475D02*
X30625Y-11475D01*
X30625Y-11475D02*
X30375Y-11725D01*
G54D14*
X36312Y-11620D02*
X35912Y-11620D01*
X35912Y-11467D01*
X35931Y-11429D01*
X35950Y-11410D01*
X35988Y-11391D01*
X36045Y-11391D01*
X36083Y-11410D01*
X36102Y-11429D01*
X36121Y-11467D01*
X36121Y-11620D01*
X35950Y-11239D02*
X35931Y-11220D01*
X35912Y-11182D01*
X35912Y-11086D01*
X35931Y-11048D01*
X35950Y-11029D01*
X35988Y-11010D01*
X36026Y-11010D01*
X36083Y-11029D01*
X36312Y-11258D01*
X36312Y-11010D01*
X36337Y-17249D02*
X35937Y-17249D01*
X35937Y-17096D01*
X35956Y-17058D01*
X35975Y-17039D01*
X36013Y-17020D01*
X36070Y-17020D01*
X36108Y-17039D01*
X36127Y-17058D01*
X36146Y-17096D01*
X36146Y-17249D01*
X35937Y-16849D02*
X36261Y-16849D01*
X36299Y-16830D01*
X36318Y-16811D01*
X36337Y-16773D01*
X36337Y-16696D01*
X36318Y-16658D01*
X36299Y-16639D01*
X36261Y-16620D01*
X35937Y-16620D01*
X36337Y-16430D02*
X35937Y-16430D01*
X36223Y-16296D01*
X35937Y-16163D01*
X36337Y-16163D01*
X36337Y-15973D02*
X35937Y-15973D01*
X35937Y-15820D01*
X35956Y-15782D01*
X35975Y-15763D01*
X36013Y-15744D01*
X36070Y-15744D01*
X36108Y-15763D01*
X36127Y-15782D01*
X36146Y-15820D01*
X36146Y-15973D01*
X36375Y-15668D02*
X36375Y-15363D01*
X36299Y-15039D02*
X36318Y-15058D01*
X36337Y-15115D01*
X36337Y-15153D01*
X36318Y-15211D01*
X36280Y-15249D01*
X36242Y-15268D01*
X36165Y-15287D01*
X36108Y-15287D01*
X36032Y-15268D01*
X35994Y-15249D01*
X35956Y-15211D01*
X35937Y-15153D01*
X35937Y-15115D01*
X35956Y-15058D01*
X35975Y-15039D01*
X35937Y-14792D02*
X35937Y-14715D01*
X35956Y-14677D01*
X35994Y-14639D01*
X36070Y-14620D01*
X36204Y-14620D01*
X36280Y-14639D01*
X36318Y-14677D01*
X36337Y-14715D01*
X36337Y-14792D01*
X36318Y-14830D01*
X36280Y-14868D01*
X36204Y-14887D01*
X36070Y-14887D01*
X35994Y-14868D01*
X35956Y-14830D01*
X35937Y-14792D01*
X36337Y-14449D02*
X35937Y-14449D01*
X36337Y-14220D01*
X35937Y-14220D01*
X36337Y-14030D02*
X35937Y-14030D01*
X36337Y-13801D01*
X35937Y-13801D01*
X30212Y-12045D02*
X29812Y-12045D01*
X29812Y-11892D01*
X29831Y-11854D01*
X29850Y-11835D01*
X29888Y-11816D01*
X29945Y-11816D01*
X29983Y-11835D01*
X30002Y-11854D01*
X30021Y-11892D01*
X30021Y-12045D01*
X30212Y-11435D02*
X30212Y-11664D01*
X30212Y-11550D02*
X29812Y-11550D01*
X29869Y-11588D01*
X29907Y-11626D01*
X29926Y-11664D01*
X32837Y-15750D02*
X32437Y-15750D01*
X32437Y-15597D01*
X32456Y-15559D01*
X32475Y-15540D01*
X32513Y-15521D01*
X32570Y-15521D01*
X32608Y-15540D01*
X32627Y-15559D01*
X32646Y-15597D01*
X32646Y-15750D01*
X32437Y-15350D02*
X32761Y-15350D01*
X32799Y-15331D01*
X32818Y-15312D01*
X32837Y-15274D01*
X32837Y-15197D01*
X32818Y-15159D01*
X32799Y-15140D01*
X32761Y-15121D01*
X32437Y-15121D01*
X32837Y-14931D02*
X32437Y-14931D01*
X32723Y-14797D01*
X32437Y-14664D01*
X32837Y-14664D01*
X32837Y-14474D02*
X32437Y-14474D01*
X32437Y-14321D01*
X32456Y-14283D01*
X32475Y-14264D01*
X32513Y-14245D01*
X32570Y-14245D01*
X32608Y-14264D01*
X32627Y-14283D01*
X32646Y-14321D01*
X32646Y-14474D01*
X32875Y-14169D02*
X32875Y-13864D01*
X32627Y-13635D02*
X32627Y-13769D01*
X32837Y-13769D02*
X32437Y-13769D01*
X32437Y-13578D01*
X32837Y-13235D02*
X32837Y-13426D01*
X32437Y-13426D01*
X32627Y-13102D02*
X32627Y-12968D01*
X32837Y-12911D02*
X32837Y-13102D01*
X32437Y-13102D01*
X32437Y-12911D01*
X32437Y-12778D02*
X32837Y-12511D01*
X32437Y-12511D02*
X32837Y-12778D01*
M02*
