<?xml version="1.0" standalone="no"?>
 <!DOCTYPE svg PUBLIC "-//W3C//DTD SVG 1.1//EN" 
 "http://www.w3.org/Graphics/SVG/1.1/DTD/svg11.dtd"> 
<svg xmlns="http://www.w3.org/2000/svg" version="1.1" 
    width="29.7002cm" height="21.0007cm" viewBox="0 0 116930 82680 ">
<title>SVG Picture created as uControl_v2_tjs-B_SilkS.svg date 2013/08/21 19:13:31 </title>
  <desc>Picture generated by PCBNEW </desc>
<g style="fill:#000000; fill-opacity:1;stroke:#000000; stroke-opacity:1;
stroke-linecap:round; stroke-linejoin:round; "
 transform="translate(0 0) scale(1 1)">
</g>
<g style="fill:#000000; fill-opacity:0.0; 
stroke:#000000; stroke-width:39.3701; stroke-opacity:1; 
stroke-linecap:round; stroke-linejoin:round;">
<rect x="-845466" y="-845466" width="0" height="0" rx="0" />
<rect x="-845466" y="-845466" width="0" height="0" rx="0" />
<path d="M-845466 -845466
L-845466 -845466
" />
<path d="M-845466 -845466
L-845466 -845466
" />
<path d="M-845466 -845466
L-845466 -845466
" />
<path d="M-845466 -845466
L-845466 -845466
" />
<path d="M-845466 -845466
L-845466 -845466
" />
<path d="M-845353 -845227
L-845269 -845199
L-845128 -845199
L-845072 -845227
L-845044 -845255
L-845016 -845311
L-845016 -845367
L-845044 -845423
L-845072 -845451
L-845128 845451
L-845241 845423
L-845297 845395
L-845325 845367
L-845353 845311
L-845353 845255
L-845325 845199
L-845297 845171
L-845241 845142
L-845100 845142
L-845016 845171
" />
<path d="M-844763 -845199
L-844763 845142
" />
<path d="M-844510 -845199
L-844510 845423
L-844538 845367
L-844595 845339
L-844679 845339
L-844735 845367
L-844763 845395
" />
<path d="M-844005 -845227
L-844061 -845199
L-844173 -845199
L-844229 -845227
L-844257 -845283
L-844257 845423
L-844229 845367
L-844173 845339
L-844061 845339
L-844005 845367
L-843976 845423
L-843976 -845451
L-844257 -845395
" />
<path d="M-843499 -845227
L-843555 -845199
L-843667 -845199
L-843724 -845227
L-843752 -845283
L-843752 845423
L-843724 845367
L-843667 845339
L-843555 845339
L-843499 845367
L-843471 845423
L-843471 -845451
L-843752 -845395
" />
<path d="M-843302 845339
L-843077 845339
" />
<path d="M-843218 845142
L-843218 -845283
L-843190 -845227
L-843134 -845199
L-843077 -845199
" />
<path d="M-842881 -845255
L-842853 -845227
L-842881 -845199
L-842909 -845227
L-842881 -845255
L-842881 -845199
" />
<path d="M-842881 845367
L-842853 845395
L-842881 845423
L-842909 845395
L-842881 845367
L-842881 845423
" />
<path d="M-841729 845114
L-842235 -845058
" />
<path d="M-841532 -845199
L-841532 845142
" />
<path d="M-841279 -845199
L-841279 845423
L-841307 845367
L-841364 845339
L-841448 845339
L-841504 845367
L-841532 845395
" />
<path d="M-840914 -845199
L-840970 -845227
L-840998 -845255
L-841026 -845311
L-841026 845451
L-840998 845395
L-840970 845367
L-840914 845339
L-840830 845339
L-840774 845367
L-840746 845395
L-840717 845451
L-840717 -845311
L-840746 -845255
L-840774 -845227
L-840830 -845199
L-840914 -845199
" />
<path d="M-840465 -845199
L-840465 845339
" />
<path d="M-840465 845395
L-840436 845367
L-840380 845339
L-840296 845339
L-840240 845367
L-840212 845423
L-840212 -845199
" />
<path d="M-840212 845423
L-840184 845367
L-840127 845339
L-840043 845339
L-839987 845367
L-839959 845423
L-839959 -845199
" />
<path d="M-839453 -845227
L-839509 -845199
L-839622 -845199
L-839678 -845227
L-839706 -845283
L-839706 845423
L-839678 845367
L-839622 845339
L-839509 845339
L-839453 845367
L-839425 845423
L-839425 -845451
L-839706 -845395
" />
<path d="M-838751 845114
L-839256 -845058
" />
<path d="M-838554 845339
L-838554 -845086
L-838582 -845030
L-838638 -845002
L-838666 -845002
" />
<path d="M-838554 845142
L-838582 845171
L-838554 845199
L-838526 845171
L-838554 845142
L-838554 845199
" />
<path d="M-838020 845339
L-838020 -845199
" />
<path d="M-838273 845339
L-838273 -845283
L-838245 -845227
L-838189 -845199
L-838105 -845199
L-838048 -845227
L-838020 -845255
" />
<path d="M-837767 -845227
L-837711 -845199
L-837599 -845199
L-837543 -845227
L-837515 -845283
L-837515 -845311
L-837543 -845367
L-837599 -845395
L-837683 -845395
L-837739 -845423
L-837767 845451
L-837767 845423
L-837739 845367
L-837683 845339
L-837599 845339
L-837543 845367
" />
<path d="M-837346 845339
L-837121 845339
" />
<path d="M-837262 845142
L-837262 -845283
L-837234 -845227
L-837177 -845199
L-837121 -845199
" />
<path d="M-836925 -845199
L-836925 845339
" />
<path d="M-836925 845142
L-836953 845171
L-836925 845199
L-836896 845171
L-836925 845142
L-836925 845199
" />
<path d="M-836644 845339
L-836644 -845199
" />
<path d="M-836644 845395
L-836616 845367
L-836559 845339
L-836475 845339
L-836419 845367
L-836391 845423
L-836391 -845199
" />
<path d="M-835688 845114
L-836194 -845058
" />
<path d="M-835239 -845227
L-835295 -845199
L-835407 -845199
L-835464 -845227
L-835492 -845255
L-835520 -845311
L-835520 845451
L-835492 845395
L-835464 845367
L-835407 845339
L-835295 845339
L-835239 845367
" />
<path d="M-834902 -845199
L-834958 -845227
L-834986 -845255
L-835014 -845311
L-835014 845451
L-834986 845395
L-834958 845367
L-834902 845339
L-834817 845339
L-834761 845367
L-834733 845395
L-834705 845451
L-834705 -845311
L-834733 -845255
L-834761 -845227
L-834817 -845199
L-834902 -845199
" />
<path d="M-834199 -845199
L-834199 845142
" />
<path d="M-834199 -845227
L-834256 -845199
L-834368 -845199
L-834424 -845227
L-834452 -845255
L-834480 -845311
L-834480 845451
L-834452 845395
L-834424 845367
L-834368 845339
L-834256 845339
L-834199 845367
" />
<path d="M-833694 -845227
L-833750 -845199
L-833862 -845199
L-833918 -845227
L-833946 -845283
L-833946 845423
L-833918 845367
L-833862 845339
L-833750 845339
L-833694 845367
L-833666 845423
L-833666 -845451
L-833946 -845395
" />
<path d="M-832991 845114
L-833497 -845058
" />
<path d="M-832542 -845227
L-832598 -845199
L-832710 -845199
L-832766 -845227
L-832795 -845255
L-832823 -845311
L-832823 845451
L-832795 845395
L-832766 845367
L-832710 845339
L-832598 845339
L-832542 845367
" />
<path d="M-832205 -845199
L-832261 -845227
L-832289 -845283
L-832289 845142
" />
<path d="M-831896 -845199
L-831952 -845227
L-831980 -845255
L-832008 -845311
L-832008 845451
L-831980 845395
L-831952 845367
L-831896 845339
L-831811 845339
L-831755 845367
L-831727 845395
L-831699 845451
L-831699 -845311
L-831727 -845255
L-831755 -845227
L-831811 -845199
L-831896 -845199
" />
<path d="M-831193 -845227
L-831249 -845199
L-831362 -845199
L-831418 -845227
L-831446 -845255
L-831474 -845311
L-831474 845451
L-831446 845395
L-831418 845367
L-831362 845339
L-831249 845339
L-831193 845367
" />
<path d="M-830940 -845199
L-830940 845142
" />
<path d="M-830884 -845423
L-830716 -845199
" />
<path d="M-830716 845339
L-830940 -845367
" />
<path d="M-830547 845339
L-830322 845339
" />
<path d="M-830463 845142
L-830463 -845283
L-830435 -845227
L-830378 -845199
L-830322 -845199
" />
<path d="M-830126 -845199
L-830126 845142
" />
<path d="M-829873 -845199
L-829873 845423
L-829901 845367
L-829957 845339
L-830041 845339
L-830097 845367
L-830126 845395
" />
<path d="M-829592 -845199
L-829592 845339
" />
<path d="M-829592 845451
L-829564 845395
L-829536 845367
L-829479 845339
L-829423 845339
" />
<path d="M-829002 -845227
L-829058 -845199
L-829170 -845199
L-829226 -845227
L-829255 -845283
L-829255 845423
L-829226 845367
L-829170 845339
L-829058 845339
L-829002 845367
L-828974 845423
L-828974 -845451
L-829255 -845395
" />
<path d="M-828496 -845227
L-828552 -845199
L-828665 -845199
L-828721 -845227
L-828749 -845283
L-828749 845423
L-828721 845367
L-828665 845339
L-828552 845339
L-828496 845367
L-828468 845423
L-828468 -845451
L-828749 -845395
" />
<path d="M-827794 845114
L-828299 -845058
" />
<path d="M-827597 -845199
L-827597 845142
" />
<path d="M-827260 -845199
L-827513 845395
" />
<path d="M-827260 845142
L-827597 -845451
" />
<path d="M-827007 -845199
L-827007 845339
" />
<path d="M-827007 845142
L-827035 845171
L-827007 845199
L-826979 845171
L-827007 845142
L-827007 845199
" />
<path d="M-826389 -845255
L-826417 -845227
L-826501 -845199
L-826557 -845199
L-826642 -845227
L-826698 -845283
L-826726 -845339
L-826754 -845451
L-826754 845395
L-826726 845283
L-826698 845227
L-826642 845171
L-826557 845142
L-826501 845142
L-826417 845171
L-826389 845199
" />
<path d="M-825883 -845199
L-825883 845423
L-825911 845367
L-825967 845339
L-826080 845339
L-826136 845367
" />
<path d="M-825883 -845227
L-825939 -845199
L-826080 -845199
L-826136 -845227
L-826164 -845283
L-826164 -845339
L-826136 -845395
L-826080 -845423
L-825939 -845423
L-825883 -845451
" />
<path d="M-825349 -845199
L-825349 845142
" />
<path d="M-825349 -845227
L-825406 -845199
L-825518 -845199
L-825574 -845227
L-825602 -845255
L-825630 -845311
L-825630 845451
L-825602 845395
L-825574 845367
L-825518 845339
L-825406 845339
L-825349 845367
" />
<path d="M-824647 845114
L-825153 -845058
" />
<path d="M-824197 845339
L-824197 -845199
" />
<path d="M-824450 845339
L-824450 -845283
L-824422 -845227
L-824366 -845199
L-824282 -845199
L-824226 -845227
L-824197 -845255
" />
<path d="M-823579 -845255
L-823607 -845227
L-823692 -845199
L-823748 -845199
L-823832 -845227
L-823888 -845283
L-823916 -845339
L-823945 -845451
L-823945 845395
L-823916 845283
L-823888 845227
L-823832 845171
L-823748 845142
L-823692 845142
L-823607 845171
L-823579 845199
" />
<path d="M-823242 -845199
L-823298 -845227
L-823326 -845255
L-823355 -845311
L-823355 845451
L-823326 845395
L-823298 845367
L-823242 845339
L-823158 845339
L-823102 845367
L-823074 845395
L-823046 845451
L-823046 -845311
L-823074 -845255
L-823102 -845227
L-823158 -845199
L-823242 -845199
" />
<path d="M-822793 845339
L-822793 -845199
" />
<path d="M-822793 845395
L-822765 845367
L-822708 845339
L-822624 845339
L-822568 845367
L-822540 845423
L-822540 -845199
" />
<path d="M-822343 845339
L-822118 845339
" />
<path d="M-822259 845142
L-822259 -845283
L-822231 -845227
L-822175 -845199
L-822118 -845199
" />
<path d="M-821922 -845199
L-821922 845339
" />
<path d="M-821922 845451
L-821894 845395
L-821866 845367
L-821809 845339
L-821753 845339
" />
<path d="M-821472 -845199
L-821528 -845227
L-821556 -845255
L-821585 -845311
L-821585 845451
L-821556 845395
L-821528 845367
L-821472 845339
L-821388 845339
L-821332 845367
L-821304 845395
L-821276 845451
L-821276 -845311
L-821304 -845255
L-821332 -845227
L-821388 -845199
L-821472 -845199
" />
<path d="M-820938 -845199
L-820995 -845227
L-821023 -845283
L-821023 845142
" />
<path d="M-820854 -845142
L-820405 -845142
" />
<path d="M-820320 845339
L-820180 -845199
L-820039 845339
" />
<path d="M-819843 845199
L-819815 845171
L-819758 845142
L-819618 845142
L-819562 845171
L-819534 845199
L-819506 845255
L-819506 845311
L-819534 845395
L-819871 -845199
L-819506 -845199
" />
<path d="M-818831 845114
L-819337 -845058
" />
<path d="M-818382 845339
L-818382 -845199
" />
<path d="M-818635 845339
L-818635 -845283
L-818606 -845227
L-818550 -845199
L-818466 -845199
L-818410 -845227
L-818382 -845255
" />
<path d="M-817764 -845255
L-817792 -845227
L-817876 -845199
L-817932 -845199
L-818016 -845227
L-818073 -845283
L-818101 -845339
L-818129 -845451
L-818129 845395
L-818101 845283
L-818073 845227
L-818016 845171
L-817932 845142
L-817876 845142
L-817792 845171
L-817764 845199
" />
<path d="M-817426 -845199
L-817483 -845227
L-817511 -845255
L-817539 -845311
L-817539 845451
L-817511 845395
L-817483 845367
L-817426 845339
L-817342 845339
L-817286 845367
L-817258 845395
L-817230 845451
L-817230 -845311
L-817258 -845255
L-817286 -845227
L-817342 -845199
L-817426 -845199
" />
<path d="M-816977 845339
L-816977 -845199
" />
<path d="M-816977 845395
L-816949 845367
L-816893 845339
L-816808 845339
L-816752 845367
L-816724 845423
L-816724 -845199
" />
<path d="M-816527 845339
L-816303 845339
" />
<path d="M-816443 845142
L-816443 -845283
L-816415 -845227
L-816359 -845199
L-816303 -845199
" />
<path d="M-816106 -845199
L-816106 845339
" />
<path d="M-816106 845451
L-816078 845395
L-816050 845367
L-815994 845339
L-815937 845339
" />
<path d="M-815656 -845199
L-815713 -845227
L-815741 -845255
L-815769 -845311
L-815769 845451
L-815741 845395
L-815713 845367
L-815656 845339
L-815572 845339
L-815516 845367
L-815488 845395
L-815460 845451
L-815460 -845311
L-815488 -845255
L-815516 -845227
L-815572 -845199
L-815656 -845199
" />
<path d="M-815123 -845199
L-815179 -845227
L-815207 -845283
L-815207 845142
" />
<path d="M-815038 -845142
L-814589 -845142
" />
<path d="M-814505 845339
L-814364 -845199
L-814224 845339
" />
<path d="M-814027 845199
L-813999 845171
L-813943 845142
L-813802 845142
L-813746 845171
L-813718 845199
L-813690 845255
L-813690 845311
L-813718 845395
L-814055 -845199
L-813690 -845199
" />
<path d="M-813577 -845142
L-813128 -845142
" />
<path d="M-813072 845339
L-812847 845339
" />
<path d="M-812987 845142
L-812987 -845283
L-812959 -845227
L-812903 -845199
L-812847 -845199
" />
<path d="M-812650 845339
L-812650 -845086
L-812678 -845030
L-812735 -845002
L-812763 -845002
" />
<path d="M-812650 845142
L-812678 845171
L-812650 845199
L-812622 845171
L-812650 845142
L-812650 845199
" />
<path d="M-812397 -845227
L-812341 -845199
L-812229 -845199
L-812173 -845227
L-812145 -845283
L-812145 -845311
L-812173 -845367
L-812229 -845395
L-812313 -845395
L-812369 -845423
L-812397 845451
L-812397 845423
L-812369 845367
L-812313 845339
L-812229 845339
L-812173 845367
" />
<path d="M-811892 -845255
L-811864 -845227
L-811892 -845199
L-811920 -845227
L-811892 -845255
L-811892 -845199
" />
<path d="M-811611 -845199
L-811611 845142
" />
<path d="M-811555 -845423
L-811386 -845199
" />
<path d="M-811386 845339
L-811611 -845367
" />
<path d="M-811133 -845199
L-811133 845339
" />
<path d="M-811133 845142
L-811161 845171
L-811133 845199
L-811105 845171
L-811133 845142
L-811133 845199
" />
<path d="M-810599 -845227
L-810656 -845199
L-810768 -845199
L-810824 -845227
L-810852 -845255
L-810880 -845311
L-810880 845451
L-810852 845395
L-810824 845367
L-810768 845339
L-810656 845339
L-810599 845367
" />
<path d="M-810094 -845199
L-810094 845423
L-810122 845367
L-810178 845339
L-810290 845339
L-810346 845367
" />
<path d="M-810094 -845227
L-810150 -845199
L-810290 -845199
L-810346 -845227
L-810375 -845283
L-810375 -845339
L-810346 -845395
L-810290 -845423
L-810150 -845423
L-810094 -845451
" />
<path d="M-809560 -845199
L-809560 845142
" />
<path d="M-809560 -845227
L-809616 -845199
L-809728 -845199
L-809785 -845227
L-809813 -845255
L-809841 -845311
L-809841 845451
L-809813 845395
L-809785 845367
L-809728 845339
L-809616 845339
L-809560 845367
" />
<path d="M-809419 -845142
L-808970 -845142
" />
<path d="M-808829 845339
L-808829 -845002
" />
<path d="M-808829 845367
L-808773 845339
L-808661 845339
L-808605 845367
L-808576 845395
L-808548 845451
L-808548 -845311
L-808576 -845255
L-808605 -845227
L-808661 -845199
L-808773 -845199
L-808829 -845227
" />
<path d="M-808043 -845227
L-808099 -845199
L-808211 -845199
L-808267 -845227
L-808296 -845255
L-808324 -845311
L-808324 845451
L-808296 845395
L-808267 845367
L-808211 845339
L-808099 845339
L-808043 845367
" />
<path d="M-807790 -845199
L-807790 845142
" />
<path d="M-807790 845367
L-807734 845339
L-807621 845339
L-807565 845367
L-807537 845395
L-807509 845451
L-807509 -845311
L-807537 -845255
L-807565 -845227
L-807621 -845199
L-807734 -845199
L-807790 -845227
" />
<path d="M-845128 845423
L-845325 845423
" />
<path d="M-845325 -845199
L-845325 845142
L-845044 845142
" />
<path d="M-844819 -845199
L-844819 845339
" />
<path d="M-844819 845142
L-844847 845171
L-844819 845199
L-844791 845171
L-844819 845142
L-844819 845199
" />
<path d="M-844454 -845199
L-844510 -845227
L-844538 -845283
L-844538 845142
" />
<path d="M-844005 -845227
L-844061 -845199
L-844173 -845199
L-844229 -845227
L-844257 -845283
L-844257 845423
L-844229 845367
L-844173 845339
L-844061 845339
L-844005 845367
L-843976 845423
L-843976 -845451
L-844257 -845395
" />
<path d="M-843724 -845255
L-843696 -845227
L-843724 -845199
L-843752 -845227
L-843724 -845255
L-843724 -845199
" />
<path d="M-843724 845367
L-843696 845395
L-843724 845423
L-843752 845395
L-843724 845367
L-843724 845423
" />
</g>
<g style="fill:#000000; fill-opacity:0.0; 
stroke:#000000; stroke-width:118; stroke-opacity:1; 
stroke-linecap:round; stroke-linejoin:round;">
<path d="M-845409 845142
L-845072 845142
" />
<path d="M-845241 -845199
L-845241 845142
" />
<path d="M-844876 -845199
L-844876 845339
" />
<path d="M-844876 845142
L-844904 845171
L-844876 845199
L-844847 845171
L-844876 845142
L-844876 845199
" />
<path d="M-844679 845339
L-844454 845339
" />
<path d="M-844595 845142
L-844595 -845283
L-844566 -845227
L-844510 -845199
L-844454 -845199
" />
<path d="M-844173 -845199
L-844229 -845227
L-844257 -845283
L-844257 845142
" />
<path d="M-843724 -845227
L-843780 -845199
L-843892 -845199
L-843948 -845227
L-843976 -845283
L-843976 845423
L-843948 845367
L-843892 845339
L-843780 845339
L-843724 845367
L-843696 845423
L-843696 -845451
L-843976 -845395
" />
<path d="M-843443 -845255
L-843415 -845227
L-843443 -845199
L-843471 -845227
L-843443 -845255
L-843443 -845199
" />
<path d="M-843443 845367
L-843415 845395
L-843443 845423
L-843471 845395
L-843443 845367
L-843443 845423
" />
</g>
<g style="fill:#000000; fill-opacity:0.0; 
stroke:#000000; stroke-width:39.3701; stroke-opacity:1; 
stroke-linecap:round; stroke-linejoin:round;">
<path d="M-845325 -845199
L-845325 845142
" />
<path d="M-844791 -845199
L-844791 845142
" />
<path d="M-844791 -845227
L-844847 -845199
L-844960 -845199
L-845016 -845227
L-845044 -845255
L-845072 -845311
L-845072 845451
L-845044 845395
L-845016 845367
L-844960 845339
L-844847 845339
L-844791 845367
" />
<path d="M-844510 -845255
L-844482 -845227
L-844510 -845199
L-844538 -845227
L-844510 -845255
L-844510 -845199
" />
<path d="M-844510 845367
L-844482 845395
L-844510 845423
L-844538 845395
L-844510 845367
L-844510 845423
" />
<path d="M-843471 -845199
L-843808 -845199
" />
<path d="M-843639 -845199
L-843639 845142
L-843696 845227
L-843752 845283
L-843808 845311
" />
<path d="M-842796 845114
L-843302 -845058
" />
<path d="M-842291 -845199
L-842628 -845199
" />
<path d="M-842459 -845199
L-842459 845142
L-842516 845227
L-842572 845283
L-842628 845311
" />
<path d="M-845353 -845227
L-845269 -845199
L-845128 -845199
L-845072 -845227
L-845044 -845255
L-845016 -845311
L-845016 -845367
L-845044 -845423
L-845072 -845451
L-845128 845451
L-845241 845423
L-845297 845395
L-845325 845367
L-845353 845311
L-845353 845255
L-845325 845199
L-845297 845171
L-845241 845142
L-845100 845142
L-845016 845171
" />
<path d="M-844763 -845199
L-844763 845339
" />
<path d="M-844763 845142
L-844791 845171
L-844763 845199
L-844735 845171
L-844763 845142
L-844763 845199
" />
<path d="M-844538 845339
L-844229 845339
L-844538 -845199
L-844229 -845199
" />
<path d="M-843780 -845227
L-843836 -845199
L-843948 -845199
L-844005 -845227
L-844033 -845283
L-844033 845423
L-844005 845367
L-843948 845339
L-843836 845339
L-843780 845367
L-843752 845423
L-843752 -845451
L-844033 -845395
" />
<path d="M-843499 -845255
L-843471 -845227
L-843499 -845199
L-843527 -845227
L-843499 -845255
L-843499 -845199
" />
<path d="M-843499 845367
L-843471 845395
L-843499 845423
L-843527 845395
L-843499 845367
L-843499 845423
" />
<path d="M-842796 -845367
L-842516 -845367
" />
<path d="M-842853 -845199
L-842656 845142
L-842459 -845199
" />
<path d="M-842010 845339
L-842010 -845199
" />
<path d="M-842150 845114
L-842291 -845395
L-841926 -845395
" />
</g>
<g style="fill:#000000; fill-opacity:0.0; 
stroke:#000000; stroke-width:118; stroke-opacity:1; 
stroke-linecap:round; stroke-linejoin:round;">
<path d="M-844988 -845199
L-845185 845451
" />
<path d="M-845325 -845199
L-845325 845142
L-845100 845142
L-845044 845171
L-845016 845199
L-844988 845255
L-844988 845339
L-845016 845395
L-845044 845423
L-845100 845451
L-845325 845451
" />
<path d="M-844510 -845227
L-844566 -845199
L-844679 -845199
L-844735 -845227
L-844763 -845283
L-844763 845423
L-844735 845367
L-844679 845339
L-844566 845339
L-844510 845367
L-844482 845423
L-844482 -845451
L-844763 -845395
" />
<path d="M-844286 845339
L-844145 -845199
L-844005 845339
" />
<path d="M-843780 -845255
L-843752 -845227
L-843780 -845199
L-843808 -845227
L-843780 -845255
L-843780 -845199
" />
<path d="M-843780 845367
L-843752 845395
L-843780 845423
L-843808 845395
L-843780 845367
L-843780 845423
" />
</g>
<g style="fill:#000000; fill-opacity:0.0; 
stroke:#000000; stroke-width:39.3701; stroke-opacity:1; 
stroke-linecap:round; stroke-linejoin:round;">
<path d="M-845325 -845199
L-845325 845142
" />
<path d="M-844988 -845199
L-845241 845395
" />
<path d="M-844988 845142
L-845325 -845451
" />
<path d="M-844735 -845199
L-844735 845339
" />
<path d="M-844735 845142
L-844763 845171
L-844735 845199
L-844707 845171
L-844735 845142
L-844735 845199
" />
<path d="M-844117 -845255
L-844145 -845227
L-844229 -845199
L-844286 -845199
L-844370 -845227
L-844426 -845283
L-844454 -845339
L-844482 -845451
L-844482 845395
L-844454 845283
L-844426 845227
L-844370 845171
L-844286 845142
L-844229 845142
L-844145 845171
L-844117 845199
" />
<path d="M-843611 -845199
L-843611 845423
L-843639 845367
L-843696 845339
L-843808 845339
L-843864 845367
" />
<path d="M-843611 -845227
L-843667 -845199
L-843808 -845199
L-843864 -845227
L-843892 -845283
L-843892 -845339
L-843864 -845395
L-843808 -845423
L-843667 -845423
L-843611 -845451
" />
<path d="M-843077 -845199
L-843077 845142
" />
<path d="M-843077 -845227
L-843134 -845199
L-843246 -845199
L-843302 -845227
L-843330 -845255
L-843358 -845311
L-843358 845451
L-843330 845395
L-843302 845367
L-843246 845339
L-843134 845339
L-843077 845367
" />
<path d="M-842347 845423
L-842150 845423
" />
<path d="M-842066 -845199
L-842347 -845199
L-842347 845142
L-842066 845142
" />
<path d="M-841813 -845255
L-841785 -845227
L-841813 -845199
L-841841 -845227
L-841813 -845255
L-841813 -845199
" />
<path d="M-841532 -845199
L-841532 845142
L-841392 845142
L-841307 845171
L-841251 845227
L-841223 845283
L-841195 845395
L-841195 -845451
L-841223 -845339
L-841251 -845283
L-841307 -845227
L-841392 -845199
L-841532 -845199
" />
<path d="M-840942 -845255
L-840914 -845227
L-840942 -845199
L-840970 -845227
L-840942 -845255
L-840942 -845199
" />
<path d="M-840689 -845367
L-840408 -845367
" />
<path d="M-840746 -845199
L-840549 845142
L-840352 -845199
" />
<path d="M-840156 -845255
L-840127 -845227
L-840156 -845199
L-840184 -845227
L-840156 -845255
L-840156 -845199
" />
<path d="M-838976 845339
L-838976 -845002
" />
<path d="M-838976 845367
L-838919 845339
L-838807 845339
L-838751 845367
L-838723 845395
L-838695 845451
L-838695 -845311
L-838723 -845255
L-838751 -845227
L-838807 -845199
L-838919 -845199
L-838976 -845227
" />
<path d="M-838189 -845227
L-838245 -845199
L-838357 -845199
L-838414 -845227
L-838442 -845255
L-838470 -845311
L-838470 845451
L-838442 845395
L-838414 845367
L-838357 845339
L-838245 845339
L-838189 845367
" />
<path d="M-837936 -845199
L-837936 845142
" />
<path d="M-837936 845367
L-837880 845339
L-837767 845339
L-837711 845367
L-837683 845395
L-837655 845451
L-837655 -845311
L-837683 -845255
L-837711 -845227
L-837767 -845199
L-837880 -845199
L-837936 -845227
" />
<path d="M-837402 845339
L-837402 -845199
" />
<path d="M-837402 845395
L-837374 845367
L-837318 845339
L-837234 845339
L-837177 845367
L-837149 845423
L-837149 -845199
" />
<path d="M-836644 -845227
L-836700 -845199
L-836812 -845199
L-836868 -845227
L-836896 -845283
L-836896 845423
L-836868 845367
L-836812 845339
L-836700 845339
L-836644 845367
L-836616 845423
L-836616 -845451
L-836896 -845395
" />
<path d="M-836419 845339
L-836306 -845199
L-836194 845451
L-836082 -845199
L-835969 845339
" />
<path d="M-835126 -844974
L-835155 -845002
L-835211 -845086
L-835239 -845142
L-835267 -845227
L-835295 -845367
L-835295 845451
L-835267 845311
L-835239 845227
L-835211 845171
L-835155 845086
L-835126 845058
" />
<path d="M-834930 845199
L-834902 845171
L-834846 845142
L-834705 845142
L-834649 845171
L-834621 845199
L-834593 845255
L-834593 845311
L-834621 845395
L-834958 -845199
L-834593 -845199
" />
<path d="M-834227 845142
L-834171 845142
L-834115 845171
L-834087 845199
L-834059 845255
L-834031 845367
L-834031 -845423
L-834059 -845311
L-834087 -845255
L-834115 -845227
L-834171 -845199
L-834227 -845199
L-834284 -845227
L-834312 -845255
L-834340 -845311
L-834368 -845423
L-834368 845367
L-834340 845255
L-834312 845199
L-834284 845171
L-834227 845142
" />
<path d="M-833469 -845199
L-833806 -845199
" />
<path d="M-833637 -845199
L-833637 845142
L-833694 845227
L-833750 845283
L-833806 845311
" />
<path d="M-833272 845142
L-832907 845142
L-833104 845367
L-833019 845367
L-832963 845395
L-832935 845423
L-832907 -845451
L-832907 -845311
L-832935 -845255
L-832963 -845227
L-833019 -845199
L-833188 -845199
L-833244 -845227
L-833272 -845255
" />
<path d="M-832654 -845423
L-832205 -845423
" />
<path d="M-831924 -845199
L-831924 845339
" />
<path d="M-831924 845395
L-831896 845367
L-831839 845339
L-831755 845339
L-831699 845367
L-831671 845423
L-831671 -845199
" />
<path d="M-831671 845423
L-831643 845367
L-831586 845339
L-831502 845339
L-831446 845367
L-831418 845423
L-831418 -845199
" />
<path d="M-830884 -845199
L-830884 845423
L-830912 845367
L-830968 845339
L-831081 845339
L-831137 845367
" />
<path d="M-830884 -845227
L-830940 -845199
L-831081 -845199
L-831137 -845227
L-831165 -845283
L-831165 -845339
L-831137 -845395
L-831081 -845423
L-830940 -845423
L-830884 -845451
" />
<path d="M-830603 -845199
L-830603 845339
" />
<path d="M-830603 845451
L-830575 845395
L-830547 845367
L-830491 845339
L-830435 845339
" />
<path d="M-830238 -845423
L-829788 -845423
" />
<path d="M-829198 -845199
L-829536 -845199
" />
<path d="M-829367 -845199
L-829367 845142
L-829423 845227
L-829479 845283
L-829536 845311
" />
<path d="M-829002 845142
L-828636 845142
L-828833 845367
L-828749 845367
L-828693 845395
L-828665 845423
L-828636 -845451
L-828636 -845311
L-828665 -845255
L-828693 -845227
L-828749 -845199
L-828917 -845199
L-828974 -845227
L-829002 -845255
" />
<path d="M-828440 -844974
L-828412 -845002
L-828356 -845086
L-828327 -845142
L-828299 -845227
L-828271 -845367
L-828271 845451
L-828299 845311
L-828327 845227
L-828356 845171
L-828412 845086
L-828440 845058
" />
<path d="M-827990 -845423
L-827541 -845423
" />
<path d="M-827344 845339
L-827119 845339
" />
<path d="M-827260 845142
L-827260 -845283
L-827232 -845227
L-827176 -845199
L-827119 -845199
" />
<path d="M-826698 -845227
L-826754 -845199
L-826866 -845199
L-826923 -845227
L-826951 -845283
L-826951 845423
L-826923 845367
L-826866 845339
L-826754 845339
L-826698 845367
L-826670 845423
L-826670 -845451
L-826951 -845395
" />
<path d="M-826445 -845227
L-826389 -845199
L-826276 -845199
L-826220 -845227
L-826192 -845283
L-826192 -845311
L-826220 -845367
L-826276 -845395
L-826361 -845395
L-826417 -845423
L-826445 845451
L-826445 845423
L-826417 845367
L-826361 845339
L-826276 845339
L-826220 845367
" />
<path d="M-826024 845339
L-825799 845339
" />
<path d="M-825939 845142
L-825939 -845283
L-825911 -845227
L-825855 -845199
L-825799 -845199
" />
<path d="M-825602 -845199
L-825602 845339
" />
<path d="M-825602 845142
L-825630 845171
L-825602 845199
L-825574 845171
L-825602 845142
L-825602 845199
" />
<path d="M-825321 845339
L-825321 -845199
" />
<path d="M-825321 845395
L-825293 845367
L-825237 845339
L-825153 845339
L-825096 845367
L-825068 845423
L-825068 -845199
" />
<path d="M-824535 845339
L-824535 -845114
L-824563 -845058
L-824591 -845030
L-824647 -845002
L-824731 -845002
L-824787 -845030
" />
<path d="M-824535 -845227
L-824591 -845199
L-824703 -845199
L-824759 -845227
L-824787 -845255
L-824816 -845311
L-824816 845451
L-824787 845395
L-824759 845367
L-824703 845339
L-824591 845339
L-824535 845367
" />
<path d="M-845325 -845199
L-845325 845142
L-845185 845142
L-845100 845171
L-845044 845227
L-845016 845283
L-844988 845395
L-844988 -845451
L-845016 -845339
L-845044 -845283
L-845100 -845227
L-845185 -845199
L-845325 -845199
" />
<path d="M-844482 -845199
L-844482 845423
L-844510 845367
L-844566 845339
L-844679 845339
L-844735 845367
" />
<path d="M-844482 -845227
L-844538 -845199
L-844679 -845199
L-844735 -845227
L-844763 -845283
L-844763 -845339
L-844735 -845395
L-844679 -845423
L-844538 -845423
L-844482 -845451
" />
<path d="M-844286 845339
L-844061 845339
" />
<path d="M-844201 845142
L-844201 -845283
L-844173 -845227
L-844117 -845199
L-844061 -845199
" />
<path d="M-843639 -845227
L-843696 -845199
L-843808 -845199
L-843864 -845227
L-843892 -845283
L-843892 845423
L-843864 845367
L-843808 845339
L-843696 845339
L-843639 845367
L-843611 845423
L-843611 -845451
L-843892 -845395
" />
<path d="M-843358 -845255
L-843330 -845227
L-843358 -845199
L-843386 -845227
L-843358 -845255
L-843358 -845199
" />
<path d="M-843358 845367
L-843330 845395
L-843358 845423
L-843386 845395
L-843358 845367
L-843358 845423
" />
<path d="M-845466 -845466
L-845466 -845466
" />
<path d="M-845466 -845466
L-845466 -845466
" />
<path d="M-845466 -845466
L-845466 -845466
" />
</g>
<g style="fill:#C2C200; fill-opacity:0.0; 
stroke:#C2C200; stroke-width:50; stroke-opacity:1; 
stroke-linecap:round; stroke-linejoin:round;">
<path d="M87500 10000
L87500 70000
" />
<path d="M12500 70000
L87500 70000
" />
<path d="M12500 70000
L12500 10000
" />
<path d="M12500 10000
L87500 10000
" />
</g>
<g style="fill:#840084; fill-opacity:0.0; 
stroke:#840084; stroke-width:120; stroke-opacity:1; 
stroke-linecap:round; stroke-linejoin:round;">
<path d="M46128 53825
L46661 53825
" />
<path d="M46128 53567
L46547 53567
L46623 53596
L46661 53653
L46661 53739
L46623 53796
L46585 53825
" />
<path d="M46585 54453
L46623 54425
L46661 54339
L46661 54282
L46623 54196
L46547 54139
L46471 54110
L46319 54082
L46204 54082
L46052 54110
L45976 54139
L45900 54196
L45861 54282
L45861 54339
L45900 54425
L45938 54453
" />
<path d="M46661 54796
L46623 54739
L46585 54710
L46509 54682
L46280 54682
L46204 54710
L46166 54739
L46128 54796
L46128 54882
L46166 54939
L46204 54967
L46280 54996
L46509 54996
L46585 54967
L46623 54939
L46661 54882
L46661 54796
" />
<path d="M46128 55253
L46661 55253
" />
<path d="M46204 55253
L46166 55282
L46128 55339
L46128 55425
L46166 55482
L46242 55510
L46661 55510
" />
<path d="M46128 55710
L46128 55939
" />
<path d="M45861 55796
L46547 55796
L46623 55825
L46661 55882
L46661 55939
" />
<path d="M46661 56139
L46128 56139
" />
<path d="M46280 56139
L46204 56167
L46166 56196
L46128 56253
L46128 56310
" />
<path d="M46661 56596
L46623 56539
L46585 56510
L46509 56482
L46280 56482
L46204 56510
L46166 56539
L46128 56596
L46128 56682
L46166 56739
L46204 56767
L46280 56796
L46509 56796
L46585 56767
L46623 56739
L46661 56682
L46661 56596
" />
<path d="M46661 57139
L46623 57082
L46547 57053
L45861 57053
" />
</g>
<g style="fill:#840084; fill-opacity:0.0; 
stroke:#840084; stroke-width:60; stroke-opacity:1; 
stroke-linecap:round; stroke-linejoin:round;">
<path d="M44714 53572
L44980 53648
L44790 53725
L44980 53801
L44714 53877
" />
<path d="M44714 53991
L44980 54086
" />
<path d="M44714 54182
L44980 54086
L45076 54048
L45095 54029
L45114 53991
" />
<path d="M44980 54391
L44961 54353
L44942 54334
L44904 54315
L44790 54315
L44752 54334
L44733 54353
L44714 54391
L44714 54448
L44733 54486
L44752 54505
L44790 54525
L44904 54525
L44942 54505
L44961 54486
L44980 54448
L44980 54391
" />
<path d="M44980 54753
L44961 54715
L44923 54696
L44580 54696
" />
<path d="M44714 55077
L44980 55077
" />
<path d="M44714 54905
L44923 54905
L44961 54925
L44980 54963
L44980 55020
L44961 55058
L44942 55077
" />
<path d="M44980 55267
L44714 55267
" />
<path d="M44752 55267
L44733 55286
L44714 55325
L44714 55382
L44733 55420
L44771 55439
L44980 55439
" />
<path d="M44771 55439
L44733 55458
L44714 55496
L44714 55553
L44733 55591
L44771 55610
L44980 55610
" />
<path d="M44942 55801
L44961 55820
L44980 55801
L44961 55782
L44942 55801
L44980 55801
" />
<path d="M44961 56163
L44980 56125
L44980 56048
L44961 56010
L44942 55991
L44904 55972
L44790 55972
L44752 55991
L44733 56010
L44714 56048
L44714 56125
L44733 56163
" />
<path d="M44980 56391
L44961 56353
L44942 56334
L44904 56315
L44790 56315
L44752 56334
L44733 56353
L44714 56391
L44714 56448
L44733 56486
L44752 56505
L44790 56525
L44904 56525
L44942 56505
L44961 56486
L44980 56448
L44980 56391
" />
<path d="M44980 56696
L44714 56696
" />
<path d="M44752 56696
L44733 56715
L44714 56753
L44714 56810
L44733 56848
L44771 56867
L44980 56867
" />
<path d="M44771 56867
L44733 56886
L44714 56925
L44714 56982
L44733 57020
L44771 57039
L44980 57039
" />
</g>
<g style="fill:#840084; fill-opacity:0.0; 
stroke:#840084; stroke-width:50; stroke-opacity:1; 
stroke-linecap:round; stroke-linejoin:round;">
<path d="M46377 63858
L46377 63508
L46244 63508
L46211 63525
L46194 63541
L46177 63575
L46177 63625
L46194 63658
L46211 63675
L46244 63691
L46377 63691
" />
<path d="M46044 63541
L46027 63525
L45994 63508
L45911 63508
L45877 63525
L45861 63541
L45844 63575
L45844 63608
L45861 63658
L46061 63858
L45844 63858
" />
<path d="M45727 63508
L45494 63508
L45644 63858
" />
<path d="M50494 63675
L50444 63691
L50427 63708
L50411 63741
L50411 63791
L50427 63825
L50444 63841
L50477 63858
L50611 63858
L50611 63508
L50494 63508
L50461 63525
L50444 63541
L50427 63575
L50427 63608
L50444 63641
L50461 63658
L50494 63675
L50611 63675
" />
<path d="M50061 63825
L50077 63841
L50127 63858
L50161 63858
L50211 63841
L50244 63808
L50261 63775
L50277 63708
L50277 63658
L50261 63591
L50244 63558
L50211 63525
L50161 63508
L50127 63508
L50077 63525
L50061 63541
" />
<path d="M49911 63858
L49911 63508
L49794 63758
L49677 63508
L49677 63858
" />
<path d="M49527 63541
L49511 63525
L49477 63508
L49394 63508
L49361 63525
L49344 63541
L49327 63575
L49327 63608
L49344 63658
L49544 63858
L49327 63858
" />
<path d="M49127 63658
L49161 63641
L49177 63625
L49194 63591
L49194 63575
L49177 63541
L49161 63525
L49127 63508
L49061 63508
L49027 63525
L49011 63541
L48994 63575
L48994 63591
L49011 63625
L49027 63641
L49061 63658
L49127 63658
L49161 63675
L49177 63691
L49194 63725
L49194 63791
L49177 63825
L49161 63841
L49127 63858
L49061 63858
L49027 63841
L49011 63825
L48994 63791
L48994 63725
L49011 63691
L49027 63675
L49061 63658
" />
<path d="M48877 63508
L48661 63508
L48777 63641
L48727 63641
L48694 63658
L48677 63675
L48661 63708
L48661 63791
L48677 63825
L48694 63841
L48727 63858
L48827 63858
L48861 63841
L48877 63825
" />
<path d="M48344 63508
L48511 63508
L48527 63675
L48511 63658
L48477 63641
L48394 63641
L48361 63658
L48344 63675
L48327 63708
L48327 63791
L48344 63825
L48361 63841
L48394 63858
L48477 63858
L48511 63841
L48527 63825
" />
<path d="M48261 63891
L47994 63891
" />
<path d="M47727 63525
L47761 63508
L47811 63508
L47861 63525
L47894 63558
L47911 63591
L47927 63658
L47927 63708
L47911 63775
L47894 63808
L47861 63841
L47811 63858
L47777 63858
L47727 63841
L47711 63825
L47711 63708
L47777 63708
" />
<path d="M47561 63858
L47561 63508
L47427 63508
L47394 63525
L47377 63541
L47361 63575
L47361 63625
L47377 63658
L47394 63675
L47427 63691
L47561 63691
" />
<path d="M47211 63858
L47211 63508
" />
<path d="M46977 63508
L46911 63508
L46877 63525
L46844 63558
L46827 63625
L46827 63741
L46844 63808
L46877 63841
L46911 63858
L46977 63858
L47011 63841
L47044 63808
L47061 63741
L47061 63625
L47044 63558
L47011 63525
L46977 63508
" />
<path d="M37377 64000
L50377 64000
" />
<path d="M50377 66000
L37377 66000
" />
<path d="M37377 66000
L37377 64000
" />
<path d="M50377 64000
L50377 66000
" />
</g>
<g style="fill:#840000; fill-opacity:0.0; 
stroke:#840000; stroke-width:39.3701; stroke-opacity:1; 
stroke-linecap:round; stroke-linejoin:round;">
</g>
<g style="fill:#840000; fill-opacity:1.0; 
stroke:#840000; stroke-width:39.3701; stroke-opacity:1; 
stroke-linecap:round; stroke-linejoin:round;">
<circle cx="13825" cy="11325" r="1180.31" /> 
<circle cx="37675" cy="11325" r="1180.31" /> 
<circle cx="13825" cy="68675" r="1180.31" /> 
<circle cx="37675" cy="68675" r="1180.31" /> 
<circle cx="13825" cy="40825" r="1180.31" /> 
<circle cx="41325" cy="68675" r="1180.31" /> 
<circle cx="86175" cy="68675" r="1180.31" /> 
<circle cx="86175" cy="40825" r="1180.31" /> 
<circle cx="13825" cy="23075" r="1180.31" /> 
<circle cx="81925" cy="13325" r="1180.31" /> 
<circle cx="86175" cy="11325" r="1180.31" /> 
<circle cx="13825" cy="37175" r="1180.31" /> 
<circle cx="73375" cy="37175" r="1180.31" /> 
<circle cx="73375" cy="26725" r="1180.31" /> 
<circle cx="77025" cy="26725" r="1180.31" /> 
<circle cx="77025" cy="37175" r="1180.31" /> 
<circle cx="86175" cy="37175" r="1180.31" /> 
<circle cx="85925.2" cy="26476.4" r="1180.31" /> 
<circle cx="41325" cy="11325" r="1180.31" /> 
<circle cx="13825" cy="26725" r="1180.31" /> 
</g>
<g style="fill:#008400; fill-opacity:1.0; 
stroke:#008400; stroke-width:39.3701; stroke-opacity:1; 
stroke-linecap:round; stroke-linejoin:round;">
<circle cx="83917.3" cy="54747.6" r="730.315" /> 
<circle cx="83917.3" cy="63047.6" r="730.315" /> 
</g>
<g style="fill:#840000; fill-opacity:1.0; 
stroke:#840000; stroke-width:39.3701; stroke-opacity:1; 
stroke-linecap:round; stroke-linejoin:round;">
<circle cx="76425" cy="13325" r="1180.31" /> 
<circle cx="80675" cy="37175" r="1180.31" /> 
<circle cx="65452.8" cy="26476.4" r="1180.31" /> 
<circle cx="80675" cy="40825" r="1180.31" /> 
<circle cx="37878" cy="64500" r="280.315" /> 
<circle cx="37878" cy="65500" r="280.315" /> 
<circle cx="38878" cy="64500" r="280.315" /> 
<circle cx="38878" cy="65500" r="280.315" /> 
<circle cx="39878" cy="64500" r="280.315" /> 
<polyline style="fill-rule:evenodd;"
points="39597,65780
39597,65219
40158,65219
40158,65780
39597,65780
" /> 
<circle cx="40878" cy="64500" r="280.315" /> 
<circle cx="40878" cy="65500" r="280.315" /> 
<circle cx="41878" cy="64500" r="280.315" /> 
<circle cx="41878" cy="65500" r="280.315" /> 
<circle cx="42878" cy="64500" r="280.315" /> 
<circle cx="42878" cy="65500" r="280.315" /> 
<circle cx="43878" cy="64500" r="280.315" /> 
<circle cx="43878" cy="65500" r="280.315" /> 
<circle cx="44878" cy="64500" r="280.315" /> 
<circle cx="44878" cy="65500" r="280.315" /> 
<circle cx="45878" cy="64500" r="280.315" /> 
<circle cx="45878" cy="65500" r="280.315" /> 
<circle cx="46878" cy="64500" r="280.315" /> 
<circle cx="46878" cy="65500" r="280.315" /> 
<circle cx="47878" cy="64500" r="280.315" /> 
<circle cx="47878" cy="65500" r="280.315" /> 
<circle cx="48878" cy="64500" r="280.315" /> 
<circle cx="48878" cy="65500" r="280.315" /> 
<circle cx="49878" cy="64500" r="280.315" /> 
<circle cx="49878" cy="65500" r="280.315" /> 
<circle cx="46978" cy="51500" r="1180.31" /> 
<circle cx="68478" cy="61550" r="1180.31" /> 
</g> 
</svg>
