G04 (created by PCBNEW-RS274X (2012-01-19 BZR 3256)-stable) date 12/1/2012 11:37:36 AM*
G01*
G70*
G90*
%MOIN*%
G04 Gerber Fmt 3.4, Leading zero omitted, Abs format*
%FSLAX34Y34*%
G04 APERTURE LIST*
%ADD10C,0.006000*%
%ADD11C,0.015000*%
%ADD12C,0.012000*%
G04 APERTURE END LIST*
G54D10*
G54D11*
X146500Y-07000D02*
X146500Y-13000D01*
G54D12*
X06361Y-08230D02*
X06361Y-08287D01*
X06323Y-08344D01*
X06285Y-08373D01*
X06209Y-08402D01*
X06056Y-08430D01*
X05866Y-08430D01*
X05714Y-08402D01*
X05637Y-08373D01*
X05599Y-08344D01*
X05561Y-08287D01*
X05561Y-08230D01*
X05599Y-08173D01*
X05637Y-08144D01*
X05714Y-08116D01*
X05866Y-08087D01*
X06056Y-08087D01*
X06209Y-08116D01*
X06285Y-08144D01*
X06323Y-08173D01*
X06361Y-08230D01*
X05637Y-08687D02*
X05599Y-08715D01*
X05561Y-08687D01*
X05599Y-08658D01*
X05637Y-08687D01*
X05561Y-08687D01*
X06361Y-09230D02*
X06361Y-09116D01*
X06323Y-09059D01*
X06285Y-09030D01*
X06171Y-08973D01*
X06018Y-08944D01*
X05714Y-08944D01*
X05637Y-08973D01*
X05599Y-09001D01*
X05561Y-09059D01*
X05561Y-09173D01*
X05599Y-09230D01*
X05637Y-09259D01*
X05714Y-09287D01*
X05904Y-09287D01*
X05980Y-09259D01*
X06018Y-09230D01*
X06056Y-09173D01*
X06056Y-09059D01*
X06018Y-09001D01*
X05980Y-08973D01*
X05904Y-08944D01*
X06361Y-09658D02*
X06361Y-09715D01*
X06323Y-09772D01*
X06285Y-09801D01*
X06209Y-09830D01*
X06056Y-09858D01*
X05866Y-09858D01*
X05714Y-09830D01*
X05637Y-09801D01*
X05599Y-09772D01*
X05561Y-09715D01*
X05561Y-09658D01*
X05599Y-09601D01*
X05637Y-09572D01*
X05714Y-09544D01*
X05866Y-09515D01*
X06056Y-09515D01*
X06209Y-09544D01*
X06285Y-09572D01*
X06323Y-09601D01*
X06361Y-09658D01*
X06361Y-10229D02*
X06361Y-10286D01*
X06323Y-10343D01*
X06285Y-10372D01*
X06209Y-10401D01*
X06056Y-10429D01*
X05866Y-10429D01*
X05714Y-10401D01*
X05637Y-10372D01*
X05599Y-10343D01*
X05561Y-10286D01*
X05561Y-10229D01*
X05599Y-10172D01*
X05637Y-10143D01*
X05714Y-10115D01*
X05866Y-10086D01*
X06056Y-10086D01*
X06209Y-10115D01*
X06285Y-10143D01*
X06323Y-10172D01*
X06361Y-10229D01*
X06361Y-10800D02*
X06361Y-10857D01*
X06323Y-10914D01*
X06285Y-10943D01*
X06209Y-10972D01*
X06056Y-11000D01*
X05866Y-11000D01*
X05714Y-10972D01*
X05637Y-10943D01*
X05599Y-10914D01*
X05561Y-10857D01*
X05561Y-10800D01*
X05599Y-10743D01*
X05637Y-10714D01*
X05714Y-10686D01*
X05866Y-10657D01*
X06056Y-10657D01*
X06209Y-10686D01*
X06285Y-10714D01*
X06323Y-10743D01*
X06361Y-10800D01*
X06361Y-11685D02*
X06209Y-11685D01*
X06361Y-11914D02*
X06209Y-11914D01*
X06525Y-07000D02*
X06525Y-13000D01*
X07000Y-07000D02*
X05245Y-07000D01*
X07000Y-13000D02*
X05245Y-13000D01*
X06525Y-13000D02*
X06295Y-12557D01*
X06525Y-13000D02*
X06755Y-12557D01*
X06525Y-07000D02*
X06295Y-07443D01*
X06525Y-07000D02*
X06755Y-07443D01*
X75144Y-16389D02*
X74801Y-16389D01*
X74973Y-16389D02*
X74973Y-15589D01*
X74916Y-15703D01*
X74858Y-15779D01*
X74801Y-15817D01*
X75344Y-15589D02*
X75715Y-15589D01*
X75515Y-15894D01*
X75601Y-15894D01*
X75658Y-15932D01*
X75687Y-15970D01*
X75715Y-16046D01*
X75715Y-16236D01*
X75687Y-16313D01*
X75658Y-16351D01*
X75601Y-16389D01*
X75429Y-16389D01*
X75372Y-16351D01*
X75344Y-16313D01*
X75972Y-16313D02*
X76000Y-16351D01*
X75972Y-16389D01*
X75943Y-16351D01*
X75972Y-16313D01*
X75972Y-16389D01*
X76286Y-16389D02*
X76401Y-16389D01*
X76458Y-16351D01*
X76486Y-16313D01*
X76544Y-16198D01*
X76572Y-16046D01*
X76572Y-15741D01*
X76544Y-15665D01*
X76515Y-15627D01*
X76458Y-15589D01*
X76344Y-15589D01*
X76286Y-15627D01*
X76258Y-15665D01*
X76229Y-15741D01*
X76229Y-15932D01*
X76258Y-16008D01*
X76286Y-16046D01*
X76344Y-16084D01*
X76458Y-16084D01*
X76515Y-16046D01*
X76544Y-16008D01*
X76572Y-15932D01*
X76943Y-15589D02*
X77000Y-15589D01*
X77057Y-15627D01*
X77086Y-15665D01*
X77115Y-15741D01*
X77143Y-15894D01*
X77143Y-16084D01*
X77115Y-16236D01*
X77086Y-16313D01*
X77057Y-16351D01*
X77000Y-16389D01*
X76943Y-16389D01*
X76886Y-16351D01*
X76857Y-16313D01*
X76829Y-16236D01*
X76800Y-16084D01*
X76800Y-15894D01*
X76829Y-15741D01*
X76857Y-15665D01*
X76886Y-15627D01*
X76943Y-15589D01*
X77514Y-15589D02*
X77571Y-15589D01*
X77628Y-15627D01*
X77657Y-15665D01*
X77686Y-15741D01*
X77714Y-15894D01*
X77714Y-16084D01*
X77686Y-16236D01*
X77657Y-16313D01*
X77628Y-16351D01*
X77571Y-16389D01*
X77514Y-16389D01*
X77457Y-16351D01*
X77428Y-16313D01*
X77400Y-16236D01*
X77371Y-16084D01*
X77371Y-15894D01*
X77400Y-15741D01*
X77428Y-15665D01*
X77457Y-15627D01*
X77514Y-15589D01*
X78085Y-15589D02*
X78142Y-15589D01*
X78199Y-15627D01*
X78228Y-15665D01*
X78257Y-15741D01*
X78285Y-15894D01*
X78285Y-16084D01*
X78257Y-16236D01*
X78228Y-16313D01*
X78199Y-16351D01*
X78142Y-16389D01*
X78085Y-16389D01*
X78028Y-16351D01*
X77999Y-16313D01*
X77971Y-16236D01*
X77942Y-16084D01*
X77942Y-15894D01*
X77971Y-15741D01*
X77999Y-15665D01*
X78028Y-15627D01*
X78085Y-15589D01*
X78970Y-15589D02*
X78970Y-15741D01*
X79199Y-15589D02*
X79199Y-15741D01*
X07500Y-15425D02*
X146500Y-15425D01*
X07500Y-14250D02*
X07500Y-16705D01*
X146500Y-14250D02*
X146500Y-16705D01*
X146500Y-15425D02*
X146057Y-15655D01*
X146500Y-15425D02*
X146057Y-15195D01*
X07500Y-15425D02*
X07943Y-15655D01*
X07500Y-15425D02*
X07943Y-15195D01*
G54D11*
X07500Y-13000D02*
X07500Y-07000D01*
X146500Y-13000D02*
X07500Y-13000D01*
X07500Y-07000D02*
X146500Y-07000D01*
M02*
