G04 (created by PCBNEW-RS274X (2011-07-08 BZR 3044)-stable) date 1/5/2012 3:32:16 PM*
G01*
G70*
G90*
%MOIN*%
G04 Gerber Fmt 3.4, Leading zero omitted, Abs format*
%FSLAX34Y34*%
G04 APERTURE LIST*
%ADD10C,0.006000*%
%ADD11C,0.012000*%
%ADD12C,0.015000*%
G04 APERTURE END LIST*
G54D10*
G54D11*
X11768Y-53373D02*
X11768Y-53259D01*
X11740Y-53202D01*
X11711Y-53173D01*
X11625Y-53116D01*
X11511Y-53087D01*
X11282Y-53087D01*
X11225Y-53116D01*
X11197Y-53144D01*
X11168Y-53202D01*
X11168Y-53316D01*
X11197Y-53373D01*
X11225Y-53402D01*
X11282Y-53430D01*
X11425Y-53430D01*
X11482Y-53402D01*
X11511Y-53373D01*
X11540Y-53316D01*
X11540Y-53202D01*
X11511Y-53144D01*
X11482Y-53116D01*
X11425Y-53087D01*
X11225Y-53687D02*
X11197Y-53715D01*
X11168Y-53687D01*
X11197Y-53658D01*
X11225Y-53687D01*
X11168Y-53687D01*
X11768Y-54087D02*
X11768Y-54144D01*
X11740Y-54201D01*
X11711Y-54230D01*
X11654Y-54259D01*
X11540Y-54287D01*
X11397Y-54287D01*
X11282Y-54259D01*
X11225Y-54230D01*
X11197Y-54201D01*
X11168Y-54144D01*
X11168Y-54087D01*
X11197Y-54030D01*
X11225Y-54001D01*
X11282Y-53973D01*
X11397Y-53944D01*
X11540Y-53944D01*
X11654Y-53973D01*
X11711Y-54001D01*
X11740Y-54030D01*
X11768Y-54087D01*
X11768Y-54658D02*
X11768Y-54715D01*
X11740Y-54772D01*
X11711Y-54801D01*
X11654Y-54830D01*
X11540Y-54858D01*
X11397Y-54858D01*
X11282Y-54830D01*
X11225Y-54801D01*
X11197Y-54772D01*
X11168Y-54715D01*
X11168Y-54658D01*
X11197Y-54601D01*
X11225Y-54572D01*
X11282Y-54544D01*
X11397Y-54515D01*
X11540Y-54515D01*
X11654Y-54544D01*
X11711Y-54572D01*
X11740Y-54601D01*
X11768Y-54658D01*
X11768Y-55229D02*
X11768Y-55286D01*
X11740Y-55343D01*
X11711Y-55372D01*
X11654Y-55401D01*
X11540Y-55429D01*
X11397Y-55429D01*
X11282Y-55401D01*
X11225Y-55372D01*
X11197Y-55343D01*
X11168Y-55286D01*
X11168Y-55229D01*
X11197Y-55172D01*
X11225Y-55143D01*
X11282Y-55115D01*
X11397Y-55086D01*
X11540Y-55086D01*
X11654Y-55115D01*
X11711Y-55143D01*
X11740Y-55172D01*
X11768Y-55229D01*
X11768Y-55800D02*
X11768Y-55857D01*
X11740Y-55914D01*
X11711Y-55943D01*
X11654Y-55972D01*
X11540Y-56000D01*
X11397Y-56000D01*
X11282Y-55972D01*
X11225Y-55943D01*
X11197Y-55914D01*
X11168Y-55857D01*
X11168Y-55800D01*
X11197Y-55743D01*
X11225Y-55714D01*
X11282Y-55686D01*
X11397Y-55657D01*
X11540Y-55657D01*
X11654Y-55686D01*
X11711Y-55714D01*
X11740Y-55743D01*
X11768Y-55800D01*
X11768Y-56685D02*
X11654Y-56685D01*
X11768Y-56914D02*
X11654Y-56914D01*
X11951Y-25000D02*
X11951Y-85000D01*
X12000Y-25000D02*
X10871Y-25000D01*
X12000Y-85000D02*
X10871Y-85000D01*
X11951Y-85000D02*
X11721Y-84557D01*
X11951Y-85000D02*
X12181Y-84557D01*
X11951Y-25000D02*
X11721Y-25443D01*
X11951Y-25000D02*
X12181Y-25443D01*
X40373Y-24054D02*
X40259Y-24054D01*
X40202Y-24082D01*
X40173Y-24111D01*
X40116Y-24197D01*
X40087Y-24311D01*
X40087Y-24540D01*
X40116Y-24597D01*
X40144Y-24625D01*
X40202Y-24654D01*
X40316Y-24654D01*
X40373Y-24625D01*
X40402Y-24597D01*
X40430Y-24540D01*
X40430Y-24397D01*
X40402Y-24340D01*
X40373Y-24311D01*
X40316Y-24282D01*
X40202Y-24282D01*
X40144Y-24311D01*
X40116Y-24340D01*
X40087Y-24397D01*
X40687Y-24597D02*
X40715Y-24625D01*
X40687Y-24654D01*
X40658Y-24625D01*
X40687Y-24597D01*
X40687Y-24654D01*
X41087Y-24054D02*
X41144Y-24054D01*
X41201Y-24082D01*
X41230Y-24111D01*
X41259Y-24168D01*
X41287Y-24282D01*
X41287Y-24425D01*
X41259Y-24540D01*
X41230Y-24597D01*
X41201Y-24625D01*
X41144Y-24654D01*
X41087Y-24654D01*
X41030Y-24625D01*
X41001Y-24597D01*
X40973Y-24540D01*
X40944Y-24425D01*
X40944Y-24282D01*
X40973Y-24168D01*
X41001Y-24111D01*
X41030Y-24082D01*
X41087Y-24054D01*
X41658Y-24054D02*
X41715Y-24054D01*
X41772Y-24082D01*
X41801Y-24111D01*
X41830Y-24168D01*
X41858Y-24282D01*
X41858Y-24425D01*
X41830Y-24540D01*
X41801Y-24597D01*
X41772Y-24625D01*
X41715Y-24654D01*
X41658Y-24654D01*
X41601Y-24625D01*
X41572Y-24597D01*
X41544Y-24540D01*
X41515Y-24425D01*
X41515Y-24282D01*
X41544Y-24168D01*
X41572Y-24111D01*
X41601Y-24082D01*
X41658Y-24054D01*
X42229Y-24054D02*
X42286Y-24054D01*
X42343Y-24082D01*
X42372Y-24111D01*
X42401Y-24168D01*
X42429Y-24282D01*
X42429Y-24425D01*
X42401Y-24540D01*
X42372Y-24597D01*
X42343Y-24625D01*
X42286Y-24654D01*
X42229Y-24654D01*
X42172Y-24625D01*
X42143Y-24597D01*
X42115Y-24540D01*
X42086Y-24425D01*
X42086Y-24282D01*
X42115Y-24168D01*
X42143Y-24111D01*
X42172Y-24082D01*
X42229Y-24054D01*
X42800Y-24054D02*
X42857Y-24054D01*
X42914Y-24082D01*
X42943Y-24111D01*
X42972Y-24168D01*
X43000Y-24282D01*
X43000Y-24425D01*
X42972Y-24540D01*
X42943Y-24597D01*
X42914Y-24625D01*
X42857Y-24654D01*
X42800Y-24654D01*
X42743Y-24625D01*
X42714Y-24597D01*
X42686Y-24540D01*
X42657Y-24425D01*
X42657Y-24282D01*
X42686Y-24168D01*
X42714Y-24111D01*
X42743Y-24082D01*
X42800Y-24054D01*
X43685Y-24054D02*
X43685Y-24168D01*
X43914Y-24054D02*
X43914Y-24168D01*
X12000Y-24951D02*
X72000Y-24951D01*
X12000Y-25000D02*
X12000Y-23871D01*
X72000Y-25000D02*
X72000Y-23871D01*
X72000Y-24951D02*
X71557Y-25181D01*
X72000Y-24951D02*
X71557Y-24721D01*
X12000Y-24951D02*
X12443Y-25181D01*
X12000Y-24951D02*
X12443Y-24721D01*
X19153Y-13757D02*
X19153Y-13700D01*
X19181Y-13643D01*
X19210Y-13614D01*
X19267Y-13585D01*
X19381Y-13557D01*
X19524Y-13557D01*
X19639Y-13585D01*
X19696Y-13614D01*
X19724Y-13643D01*
X19753Y-13700D01*
X19753Y-13757D01*
X19724Y-13814D01*
X19696Y-13843D01*
X19639Y-13871D01*
X19524Y-13900D01*
X19381Y-13900D01*
X19267Y-13871D01*
X19210Y-13843D01*
X19181Y-13814D01*
X19153Y-13757D01*
X19696Y-13300D02*
X19724Y-13272D01*
X19753Y-13300D01*
X19724Y-13329D01*
X19696Y-13300D01*
X19753Y-13300D01*
X19153Y-13071D02*
X19153Y-12700D01*
X19381Y-12900D01*
X19381Y-12814D01*
X19410Y-12757D01*
X19439Y-12728D01*
X19496Y-12700D01*
X19639Y-12700D01*
X19696Y-12728D01*
X19724Y-12757D01*
X19753Y-12814D01*
X19753Y-12986D01*
X19724Y-13043D01*
X19696Y-13071D01*
X19753Y-12415D02*
X19753Y-12300D01*
X19724Y-12243D01*
X19696Y-12215D01*
X19610Y-12157D01*
X19496Y-12129D01*
X19267Y-12129D01*
X19210Y-12157D01*
X19181Y-12186D01*
X19153Y-12243D01*
X19153Y-12357D01*
X19181Y-12415D01*
X19210Y-12443D01*
X19267Y-12472D01*
X19410Y-12472D01*
X19467Y-12443D01*
X19496Y-12415D01*
X19524Y-12357D01*
X19524Y-12243D01*
X19496Y-12186D01*
X19467Y-12157D01*
X19410Y-12129D01*
X19153Y-11929D02*
X19153Y-11529D01*
X19753Y-11786D01*
X19153Y-11015D02*
X19153Y-11301D01*
X19439Y-11330D01*
X19410Y-11301D01*
X19381Y-11244D01*
X19381Y-11101D01*
X19410Y-11044D01*
X19439Y-11015D01*
X19496Y-10987D01*
X19639Y-10987D01*
X19696Y-11015D01*
X19724Y-11044D01*
X19753Y-11101D01*
X19753Y-11244D01*
X19724Y-11301D01*
X19696Y-11330D01*
X19153Y-10302D02*
X19267Y-10302D01*
X19153Y-10073D02*
X19267Y-10073D01*
X20050Y-13975D02*
X20050Y-10000D01*
X22200Y-13975D02*
X18970Y-13975D01*
X22200Y-10000D02*
X18970Y-10000D01*
X20050Y-10000D02*
X20280Y-10443D01*
X20050Y-10000D02*
X19820Y-10443D01*
X20050Y-13975D02*
X20280Y-13532D01*
X20050Y-13975D02*
X19820Y-13532D01*
X46230Y-13029D02*
X46287Y-13029D01*
X46344Y-13057D01*
X46373Y-13086D01*
X46402Y-13143D01*
X46430Y-13257D01*
X46430Y-13400D01*
X46402Y-13515D01*
X46373Y-13572D01*
X46344Y-13600D01*
X46287Y-13629D01*
X46230Y-13629D01*
X46173Y-13600D01*
X46144Y-13572D01*
X46116Y-13515D01*
X46087Y-13400D01*
X46087Y-13257D01*
X46116Y-13143D01*
X46144Y-13086D01*
X46173Y-13057D01*
X46230Y-13029D01*
X46687Y-13572D02*
X46715Y-13600D01*
X46687Y-13629D01*
X46658Y-13600D01*
X46687Y-13572D01*
X46687Y-13629D01*
X47230Y-13029D02*
X47116Y-13029D01*
X47059Y-13057D01*
X47030Y-13086D01*
X46973Y-13172D01*
X46944Y-13286D01*
X46944Y-13515D01*
X46973Y-13572D01*
X47001Y-13600D01*
X47059Y-13629D01*
X47173Y-13629D01*
X47230Y-13600D01*
X47259Y-13572D01*
X47287Y-13515D01*
X47287Y-13372D01*
X47259Y-13315D01*
X47230Y-13286D01*
X47173Y-13257D01*
X47059Y-13257D01*
X47001Y-13286D01*
X46973Y-13315D01*
X46944Y-13372D01*
X47658Y-13029D02*
X47715Y-13029D01*
X47772Y-13057D01*
X47801Y-13086D01*
X47830Y-13143D01*
X47858Y-13257D01*
X47858Y-13400D01*
X47830Y-13515D01*
X47801Y-13572D01*
X47772Y-13600D01*
X47715Y-13629D01*
X47658Y-13629D01*
X47601Y-13600D01*
X47572Y-13572D01*
X47544Y-13515D01*
X47515Y-13400D01*
X47515Y-13257D01*
X47544Y-13143D01*
X47572Y-13086D01*
X47601Y-13057D01*
X47658Y-13029D01*
X48229Y-13029D02*
X48286Y-13029D01*
X48343Y-13057D01*
X48372Y-13086D01*
X48401Y-13143D01*
X48429Y-13257D01*
X48429Y-13400D01*
X48401Y-13515D01*
X48372Y-13572D01*
X48343Y-13600D01*
X48286Y-13629D01*
X48229Y-13629D01*
X48172Y-13600D01*
X48143Y-13572D01*
X48115Y-13515D01*
X48086Y-13400D01*
X48086Y-13257D01*
X48115Y-13143D01*
X48143Y-13086D01*
X48172Y-13057D01*
X48229Y-13029D01*
X48800Y-13029D02*
X48857Y-13029D01*
X48914Y-13057D01*
X48943Y-13086D01*
X48972Y-13143D01*
X49000Y-13257D01*
X49000Y-13400D01*
X48972Y-13515D01*
X48943Y-13572D01*
X48914Y-13600D01*
X48857Y-13629D01*
X48800Y-13629D01*
X48743Y-13600D01*
X48714Y-13572D01*
X48686Y-13515D01*
X48657Y-13400D01*
X48657Y-13257D01*
X48686Y-13143D01*
X48714Y-13086D01*
X48743Y-13057D01*
X48800Y-13029D01*
X49685Y-13029D02*
X49685Y-13143D01*
X49914Y-13029D02*
X49914Y-13143D01*
X45000Y-13926D02*
X51000Y-13926D01*
X45000Y-13975D02*
X45000Y-12846D01*
X51000Y-13975D02*
X51000Y-12846D01*
X51000Y-13926D02*
X50557Y-14156D01*
X51000Y-13926D02*
X50557Y-13696D01*
X45000Y-13926D02*
X45443Y-14156D01*
X45000Y-13926D02*
X45443Y-13696D01*
X40230Y-13029D02*
X40287Y-13029D01*
X40344Y-13057D01*
X40373Y-13086D01*
X40402Y-13143D01*
X40430Y-13257D01*
X40430Y-13400D01*
X40402Y-13515D01*
X40373Y-13572D01*
X40344Y-13600D01*
X40287Y-13629D01*
X40230Y-13629D01*
X40173Y-13600D01*
X40144Y-13572D01*
X40116Y-13515D01*
X40087Y-13400D01*
X40087Y-13257D01*
X40116Y-13143D01*
X40144Y-13086D01*
X40173Y-13057D01*
X40230Y-13029D01*
X40687Y-13572D02*
X40715Y-13600D01*
X40687Y-13629D01*
X40658Y-13600D01*
X40687Y-13572D01*
X40687Y-13629D01*
X41230Y-13029D02*
X41116Y-13029D01*
X41059Y-13057D01*
X41030Y-13086D01*
X40973Y-13172D01*
X40944Y-13286D01*
X40944Y-13515D01*
X40973Y-13572D01*
X41001Y-13600D01*
X41059Y-13629D01*
X41173Y-13629D01*
X41230Y-13600D01*
X41259Y-13572D01*
X41287Y-13515D01*
X41287Y-13372D01*
X41259Y-13315D01*
X41230Y-13286D01*
X41173Y-13257D01*
X41059Y-13257D01*
X41001Y-13286D01*
X40973Y-13315D01*
X40944Y-13372D01*
X41658Y-13029D02*
X41715Y-13029D01*
X41772Y-13057D01*
X41801Y-13086D01*
X41830Y-13143D01*
X41858Y-13257D01*
X41858Y-13400D01*
X41830Y-13515D01*
X41801Y-13572D01*
X41772Y-13600D01*
X41715Y-13629D01*
X41658Y-13629D01*
X41601Y-13600D01*
X41572Y-13572D01*
X41544Y-13515D01*
X41515Y-13400D01*
X41515Y-13257D01*
X41544Y-13143D01*
X41572Y-13086D01*
X41601Y-13057D01*
X41658Y-13029D01*
X42229Y-13029D02*
X42286Y-13029D01*
X42343Y-13057D01*
X42372Y-13086D01*
X42401Y-13143D01*
X42429Y-13257D01*
X42429Y-13400D01*
X42401Y-13515D01*
X42372Y-13572D01*
X42343Y-13600D01*
X42286Y-13629D01*
X42229Y-13629D01*
X42172Y-13600D01*
X42143Y-13572D01*
X42115Y-13515D01*
X42086Y-13400D01*
X42086Y-13257D01*
X42115Y-13143D01*
X42143Y-13086D01*
X42172Y-13057D01*
X42229Y-13029D01*
X42800Y-13029D02*
X42857Y-13029D01*
X42914Y-13057D01*
X42943Y-13086D01*
X42972Y-13143D01*
X43000Y-13257D01*
X43000Y-13400D01*
X42972Y-13515D01*
X42943Y-13572D01*
X42914Y-13600D01*
X42857Y-13629D01*
X42800Y-13629D01*
X42743Y-13600D01*
X42714Y-13572D01*
X42686Y-13515D01*
X42657Y-13400D01*
X42657Y-13257D01*
X42686Y-13143D01*
X42714Y-13086D01*
X42743Y-13057D01*
X42800Y-13029D01*
X43685Y-13029D02*
X43685Y-13143D01*
X43914Y-13029D02*
X43914Y-13143D01*
X39000Y-13926D02*
X45000Y-13926D01*
X39000Y-13975D02*
X39000Y-12846D01*
X45000Y-13975D02*
X45000Y-12846D01*
X45000Y-13926D02*
X44557Y-14156D01*
X45000Y-13926D02*
X44557Y-13696D01*
X39000Y-13926D02*
X39443Y-14156D01*
X39000Y-13926D02*
X39443Y-13696D01*
X34230Y-13029D02*
X34287Y-13029D01*
X34344Y-13057D01*
X34373Y-13086D01*
X34402Y-13143D01*
X34430Y-13257D01*
X34430Y-13400D01*
X34402Y-13515D01*
X34373Y-13572D01*
X34344Y-13600D01*
X34287Y-13629D01*
X34230Y-13629D01*
X34173Y-13600D01*
X34144Y-13572D01*
X34116Y-13515D01*
X34087Y-13400D01*
X34087Y-13257D01*
X34116Y-13143D01*
X34144Y-13086D01*
X34173Y-13057D01*
X34230Y-13029D01*
X34687Y-13572D02*
X34715Y-13600D01*
X34687Y-13629D01*
X34658Y-13600D01*
X34687Y-13572D01*
X34687Y-13629D01*
X35230Y-13029D02*
X35116Y-13029D01*
X35059Y-13057D01*
X35030Y-13086D01*
X34973Y-13172D01*
X34944Y-13286D01*
X34944Y-13515D01*
X34973Y-13572D01*
X35001Y-13600D01*
X35059Y-13629D01*
X35173Y-13629D01*
X35230Y-13600D01*
X35259Y-13572D01*
X35287Y-13515D01*
X35287Y-13372D01*
X35259Y-13315D01*
X35230Y-13286D01*
X35173Y-13257D01*
X35059Y-13257D01*
X35001Y-13286D01*
X34973Y-13315D01*
X34944Y-13372D01*
X35658Y-13029D02*
X35715Y-13029D01*
X35772Y-13057D01*
X35801Y-13086D01*
X35830Y-13143D01*
X35858Y-13257D01*
X35858Y-13400D01*
X35830Y-13515D01*
X35801Y-13572D01*
X35772Y-13600D01*
X35715Y-13629D01*
X35658Y-13629D01*
X35601Y-13600D01*
X35572Y-13572D01*
X35544Y-13515D01*
X35515Y-13400D01*
X35515Y-13257D01*
X35544Y-13143D01*
X35572Y-13086D01*
X35601Y-13057D01*
X35658Y-13029D01*
X36229Y-13029D02*
X36286Y-13029D01*
X36343Y-13057D01*
X36372Y-13086D01*
X36401Y-13143D01*
X36429Y-13257D01*
X36429Y-13400D01*
X36401Y-13515D01*
X36372Y-13572D01*
X36343Y-13600D01*
X36286Y-13629D01*
X36229Y-13629D01*
X36172Y-13600D01*
X36143Y-13572D01*
X36115Y-13515D01*
X36086Y-13400D01*
X36086Y-13257D01*
X36115Y-13143D01*
X36143Y-13086D01*
X36172Y-13057D01*
X36229Y-13029D01*
X36800Y-13029D02*
X36857Y-13029D01*
X36914Y-13057D01*
X36943Y-13086D01*
X36972Y-13143D01*
X37000Y-13257D01*
X37000Y-13400D01*
X36972Y-13515D01*
X36943Y-13572D01*
X36914Y-13600D01*
X36857Y-13629D01*
X36800Y-13629D01*
X36743Y-13600D01*
X36714Y-13572D01*
X36686Y-13515D01*
X36657Y-13400D01*
X36657Y-13257D01*
X36686Y-13143D01*
X36714Y-13086D01*
X36743Y-13057D01*
X36800Y-13029D01*
X37685Y-13029D02*
X37685Y-13143D01*
X37914Y-13029D02*
X37914Y-13143D01*
X33000Y-13926D02*
X39000Y-13926D01*
X33000Y-13975D02*
X33000Y-12846D01*
X39000Y-13975D02*
X39000Y-12846D01*
X39000Y-13926D02*
X38557Y-14156D01*
X39000Y-13926D02*
X38557Y-13696D01*
X33000Y-13926D02*
X33443Y-14156D01*
X33000Y-13926D02*
X33443Y-13696D01*
X26030Y-13629D02*
X25687Y-13629D01*
X25859Y-13629D02*
X25859Y-13029D01*
X25802Y-13115D01*
X25744Y-13172D01*
X25687Y-13200D01*
X26287Y-13572D02*
X26315Y-13600D01*
X26287Y-13629D01*
X26258Y-13600D01*
X26287Y-13572D01*
X26287Y-13629D01*
X26687Y-13029D02*
X26744Y-13029D01*
X26801Y-13057D01*
X26830Y-13086D01*
X26859Y-13143D01*
X26887Y-13257D01*
X26887Y-13400D01*
X26859Y-13515D01*
X26830Y-13572D01*
X26801Y-13600D01*
X26744Y-13629D01*
X26687Y-13629D01*
X26630Y-13600D01*
X26601Y-13572D01*
X26573Y-13515D01*
X26544Y-13400D01*
X26544Y-13257D01*
X26573Y-13143D01*
X26601Y-13086D01*
X26630Y-13057D01*
X26687Y-13029D01*
X27230Y-13286D02*
X27172Y-13257D01*
X27144Y-13229D01*
X27115Y-13172D01*
X27115Y-13143D01*
X27144Y-13086D01*
X27172Y-13057D01*
X27230Y-13029D01*
X27344Y-13029D01*
X27401Y-13057D01*
X27430Y-13086D01*
X27458Y-13143D01*
X27458Y-13172D01*
X27430Y-13229D01*
X27401Y-13257D01*
X27344Y-13286D01*
X27230Y-13286D01*
X27172Y-13315D01*
X27144Y-13343D01*
X27115Y-13400D01*
X27115Y-13515D01*
X27144Y-13572D01*
X27172Y-13600D01*
X27230Y-13629D01*
X27344Y-13629D01*
X27401Y-13600D01*
X27430Y-13572D01*
X27458Y-13515D01*
X27458Y-13400D01*
X27430Y-13343D01*
X27401Y-13315D01*
X27344Y-13286D01*
X27829Y-13029D02*
X27886Y-13029D01*
X27943Y-13057D01*
X27972Y-13086D01*
X28001Y-13143D01*
X28029Y-13257D01*
X28029Y-13400D01*
X28001Y-13515D01*
X27972Y-13572D01*
X27943Y-13600D01*
X27886Y-13629D01*
X27829Y-13629D01*
X27772Y-13600D01*
X27743Y-13572D01*
X27715Y-13515D01*
X27686Y-13400D01*
X27686Y-13257D01*
X27715Y-13143D01*
X27743Y-13086D01*
X27772Y-13057D01*
X27829Y-13029D01*
X28400Y-13029D02*
X28457Y-13029D01*
X28514Y-13057D01*
X28543Y-13086D01*
X28572Y-13143D01*
X28600Y-13257D01*
X28600Y-13400D01*
X28572Y-13515D01*
X28543Y-13572D01*
X28514Y-13600D01*
X28457Y-13629D01*
X28400Y-13629D01*
X28343Y-13600D01*
X28314Y-13572D01*
X28286Y-13515D01*
X28257Y-13400D01*
X28257Y-13257D01*
X28286Y-13143D01*
X28314Y-13086D01*
X28343Y-13057D01*
X28400Y-13029D01*
X29285Y-13029D02*
X29285Y-13143D01*
X29514Y-13029D02*
X29514Y-13143D01*
X22200Y-13926D02*
X33000Y-13926D01*
X22200Y-13975D02*
X22200Y-12846D01*
X33000Y-13975D02*
X33000Y-12846D01*
X33000Y-13926D02*
X32557Y-14156D01*
X33000Y-13926D02*
X32557Y-13696D01*
X22200Y-13926D02*
X22643Y-14156D01*
X22200Y-13926D02*
X22643Y-13696D01*
X14530Y-13629D02*
X14187Y-13629D01*
X14359Y-13629D02*
X14359Y-13029D01*
X14302Y-13115D01*
X14244Y-13172D01*
X14187Y-13200D01*
X14787Y-13572D02*
X14815Y-13600D01*
X14787Y-13629D01*
X14758Y-13600D01*
X14787Y-13572D01*
X14787Y-13629D01*
X15044Y-13086D02*
X15073Y-13057D01*
X15130Y-13029D01*
X15273Y-13029D01*
X15330Y-13057D01*
X15359Y-13086D01*
X15387Y-13143D01*
X15387Y-13200D01*
X15359Y-13286D01*
X15016Y-13629D01*
X15387Y-13629D01*
X15615Y-13086D02*
X15644Y-13057D01*
X15701Y-13029D01*
X15844Y-13029D01*
X15901Y-13057D01*
X15930Y-13086D01*
X15958Y-13143D01*
X15958Y-13200D01*
X15930Y-13286D01*
X15587Y-13629D01*
X15958Y-13629D01*
X16329Y-13029D02*
X16386Y-13029D01*
X16443Y-13057D01*
X16472Y-13086D01*
X16501Y-13143D01*
X16529Y-13257D01*
X16529Y-13400D01*
X16501Y-13515D01*
X16472Y-13572D01*
X16443Y-13600D01*
X16386Y-13629D01*
X16329Y-13629D01*
X16272Y-13600D01*
X16243Y-13572D01*
X16215Y-13515D01*
X16186Y-13400D01*
X16186Y-13257D01*
X16215Y-13143D01*
X16243Y-13086D01*
X16272Y-13057D01*
X16329Y-13029D01*
X16900Y-13029D02*
X16957Y-13029D01*
X17014Y-13057D01*
X17043Y-13086D01*
X17072Y-13143D01*
X17100Y-13257D01*
X17100Y-13400D01*
X17072Y-13515D01*
X17043Y-13572D01*
X17014Y-13600D01*
X16957Y-13629D01*
X16900Y-13629D01*
X16843Y-13600D01*
X16814Y-13572D01*
X16786Y-13515D01*
X16757Y-13400D01*
X16757Y-13257D01*
X16786Y-13143D01*
X16814Y-13086D01*
X16843Y-13057D01*
X16900Y-13029D01*
X17785Y-13029D02*
X17785Y-13143D01*
X18014Y-13029D02*
X18014Y-13143D01*
X22200Y-13926D02*
X10000Y-13926D01*
X22200Y-13975D02*
X22200Y-12846D01*
X10000Y-13975D02*
X10000Y-12846D01*
X10000Y-13926D02*
X10443Y-13696D01*
X10000Y-13926D02*
X10443Y-14156D01*
X22200Y-13926D02*
X21757Y-13696D01*
X22200Y-13926D02*
X21757Y-14156D01*
X40373Y-10504D02*
X40259Y-10504D01*
X40202Y-10532D01*
X40173Y-10561D01*
X40116Y-10647D01*
X40087Y-10761D01*
X40087Y-10990D01*
X40116Y-11047D01*
X40144Y-11075D01*
X40202Y-11104D01*
X40316Y-11104D01*
X40373Y-11075D01*
X40402Y-11047D01*
X40430Y-10990D01*
X40430Y-10847D01*
X40402Y-10790D01*
X40373Y-10761D01*
X40316Y-10732D01*
X40202Y-10732D01*
X40144Y-10761D01*
X40116Y-10790D01*
X40087Y-10847D01*
X40687Y-11047D02*
X40715Y-11075D01*
X40687Y-11104D01*
X40658Y-11075D01*
X40687Y-11047D01*
X40687Y-11104D01*
X41287Y-11104D02*
X40944Y-11104D01*
X41116Y-11104D02*
X41116Y-10504D01*
X41059Y-10590D01*
X41001Y-10647D01*
X40944Y-10675D01*
X41658Y-10504D02*
X41715Y-10504D01*
X41772Y-10532D01*
X41801Y-10561D01*
X41830Y-10618D01*
X41858Y-10732D01*
X41858Y-10875D01*
X41830Y-10990D01*
X41801Y-11047D01*
X41772Y-11075D01*
X41715Y-11104D01*
X41658Y-11104D01*
X41601Y-11075D01*
X41572Y-11047D01*
X41544Y-10990D01*
X41515Y-10875D01*
X41515Y-10732D01*
X41544Y-10618D01*
X41572Y-10561D01*
X41601Y-10532D01*
X41658Y-10504D01*
X42229Y-10504D02*
X42286Y-10504D01*
X42343Y-10532D01*
X42372Y-10561D01*
X42401Y-10618D01*
X42429Y-10732D01*
X42429Y-10875D01*
X42401Y-10990D01*
X42372Y-11047D01*
X42343Y-11075D01*
X42286Y-11104D01*
X42229Y-11104D01*
X42172Y-11075D01*
X42143Y-11047D01*
X42115Y-10990D01*
X42086Y-10875D01*
X42086Y-10732D01*
X42115Y-10618D01*
X42143Y-10561D01*
X42172Y-10532D01*
X42229Y-10504D01*
X42800Y-10504D02*
X42857Y-10504D01*
X42914Y-10532D01*
X42943Y-10561D01*
X42972Y-10618D01*
X43000Y-10732D01*
X43000Y-10875D01*
X42972Y-10990D01*
X42943Y-11047D01*
X42914Y-11075D01*
X42857Y-11104D01*
X42800Y-11104D01*
X42743Y-11075D01*
X42714Y-11047D01*
X42686Y-10990D01*
X42657Y-10875D01*
X42657Y-10732D01*
X42686Y-10618D01*
X42714Y-10561D01*
X42743Y-10532D01*
X42800Y-10504D01*
X43685Y-10504D02*
X43685Y-10618D01*
X43914Y-10504D02*
X43914Y-10618D01*
X11500Y-11401D02*
X72500Y-11401D01*
X11500Y-11500D02*
X11500Y-10321D01*
X72500Y-11500D02*
X72500Y-10321D01*
X72500Y-11401D02*
X72057Y-11631D01*
X72500Y-11401D02*
X72057Y-11171D01*
X11500Y-11401D02*
X11943Y-11631D01*
X11500Y-11401D02*
X11943Y-11171D01*
X40373Y-08054D02*
X40259Y-08054D01*
X40202Y-08082D01*
X40173Y-08111D01*
X40116Y-08197D01*
X40087Y-08311D01*
X40087Y-08540D01*
X40116Y-08597D01*
X40144Y-08625D01*
X40202Y-08654D01*
X40316Y-08654D01*
X40373Y-08625D01*
X40402Y-08597D01*
X40430Y-08540D01*
X40430Y-08397D01*
X40402Y-08340D01*
X40373Y-08311D01*
X40316Y-08282D01*
X40202Y-08282D01*
X40144Y-08311D01*
X40116Y-08340D01*
X40087Y-08397D01*
X40687Y-08597D02*
X40715Y-08625D01*
X40687Y-08654D01*
X40658Y-08625D01*
X40687Y-08597D01*
X40687Y-08654D01*
X41230Y-08254D02*
X41230Y-08654D01*
X41087Y-08025D02*
X40944Y-08454D01*
X41316Y-08454D01*
X41658Y-08054D02*
X41715Y-08054D01*
X41772Y-08082D01*
X41801Y-08111D01*
X41830Y-08168D01*
X41858Y-08282D01*
X41858Y-08425D01*
X41830Y-08540D01*
X41801Y-08597D01*
X41772Y-08625D01*
X41715Y-08654D01*
X41658Y-08654D01*
X41601Y-08625D01*
X41572Y-08597D01*
X41544Y-08540D01*
X41515Y-08425D01*
X41515Y-08282D01*
X41544Y-08168D01*
X41572Y-08111D01*
X41601Y-08082D01*
X41658Y-08054D01*
X42229Y-08054D02*
X42286Y-08054D01*
X42343Y-08082D01*
X42372Y-08111D01*
X42401Y-08168D01*
X42429Y-08282D01*
X42429Y-08425D01*
X42401Y-08540D01*
X42372Y-08597D01*
X42343Y-08625D01*
X42286Y-08654D01*
X42229Y-08654D01*
X42172Y-08625D01*
X42143Y-08597D01*
X42115Y-08540D01*
X42086Y-08425D01*
X42086Y-08282D01*
X42115Y-08168D01*
X42143Y-08111D01*
X42172Y-08082D01*
X42229Y-08054D01*
X42800Y-08054D02*
X42857Y-08054D01*
X42914Y-08082D01*
X42943Y-08111D01*
X42972Y-08168D01*
X43000Y-08282D01*
X43000Y-08425D01*
X42972Y-08540D01*
X42943Y-08597D01*
X42914Y-08625D01*
X42857Y-08654D01*
X42800Y-08654D01*
X42743Y-08625D01*
X42714Y-08597D01*
X42686Y-08540D01*
X42657Y-08425D01*
X42657Y-08282D01*
X42686Y-08168D01*
X42714Y-08111D01*
X42743Y-08082D01*
X42800Y-08054D01*
X43685Y-08054D02*
X43685Y-08168D01*
X43914Y-08054D02*
X43914Y-08168D01*
X10000Y-08951D02*
X74000Y-08951D01*
X10000Y-10000D02*
X10000Y-07871D01*
X74000Y-10000D02*
X74000Y-07871D01*
X74000Y-08951D02*
X73557Y-09181D01*
X74000Y-08951D02*
X73557Y-08721D01*
X10000Y-08951D02*
X10443Y-09181D01*
X10000Y-08951D02*
X10443Y-08721D01*
X78896Y-97480D02*
X78896Y-97537D01*
X78868Y-97594D01*
X78839Y-97623D01*
X78782Y-97652D01*
X78668Y-97680D01*
X78525Y-97680D01*
X78410Y-97652D01*
X78353Y-97623D01*
X78325Y-97594D01*
X78296Y-97537D01*
X78296Y-97480D01*
X78325Y-97423D01*
X78353Y-97394D01*
X78410Y-97366D01*
X78525Y-97337D01*
X78668Y-97337D01*
X78782Y-97366D01*
X78839Y-97394D01*
X78868Y-97423D01*
X78896Y-97480D01*
X78353Y-97937D02*
X78325Y-97965D01*
X78296Y-97937D01*
X78325Y-97908D01*
X78353Y-97937D01*
X78296Y-97937D01*
X78296Y-98537D02*
X78296Y-98194D01*
X78296Y-98366D02*
X78896Y-98366D01*
X78810Y-98309D01*
X78753Y-98251D01*
X78725Y-98194D01*
X78896Y-99080D02*
X78896Y-98794D01*
X78610Y-98765D01*
X78639Y-98794D01*
X78668Y-98851D01*
X78668Y-98994D01*
X78639Y-99051D01*
X78610Y-99080D01*
X78553Y-99108D01*
X78410Y-99108D01*
X78353Y-99080D01*
X78325Y-99051D01*
X78296Y-98994D01*
X78296Y-98851D01*
X78325Y-98794D01*
X78353Y-98765D01*
X78896Y-99479D02*
X78896Y-99536D01*
X78868Y-99593D01*
X78839Y-99622D01*
X78782Y-99651D01*
X78668Y-99679D01*
X78525Y-99679D01*
X78410Y-99651D01*
X78353Y-99622D01*
X78325Y-99593D01*
X78296Y-99536D01*
X78296Y-99479D01*
X78325Y-99422D01*
X78353Y-99393D01*
X78410Y-99365D01*
X78525Y-99336D01*
X78668Y-99336D01*
X78782Y-99365D01*
X78839Y-99393D01*
X78868Y-99422D01*
X78896Y-99479D01*
X78896Y-100050D02*
X78896Y-100107D01*
X78868Y-100164D01*
X78839Y-100193D01*
X78782Y-100222D01*
X78668Y-100250D01*
X78525Y-100250D01*
X78410Y-100222D01*
X78353Y-100193D01*
X78325Y-100164D01*
X78296Y-100107D01*
X78296Y-100050D01*
X78325Y-99993D01*
X78353Y-99964D01*
X78410Y-99936D01*
X78525Y-99907D01*
X78668Y-99907D01*
X78782Y-99936D01*
X78839Y-99964D01*
X78868Y-99993D01*
X78896Y-100050D01*
X78896Y-100935D02*
X78782Y-100935D01*
X78896Y-101164D02*
X78782Y-101164D01*
X77999Y-98500D02*
X77999Y-100000D01*
X77500Y-98500D02*
X79079Y-98500D01*
X77500Y-100000D02*
X79079Y-100000D01*
X77999Y-100000D02*
X77769Y-99557D01*
X77999Y-100000D02*
X78229Y-99557D01*
X77999Y-98500D02*
X77769Y-98943D01*
X77999Y-98500D02*
X78229Y-98943D01*
X78183Y-12520D02*
X78183Y-12463D01*
X78211Y-12406D01*
X78240Y-12377D01*
X78297Y-12348D01*
X78411Y-12320D01*
X78554Y-12320D01*
X78669Y-12348D01*
X78726Y-12377D01*
X78754Y-12406D01*
X78783Y-12463D01*
X78783Y-12520D01*
X78754Y-12577D01*
X78726Y-12606D01*
X78669Y-12634D01*
X78554Y-12663D01*
X78411Y-12663D01*
X78297Y-12634D01*
X78240Y-12606D01*
X78211Y-12577D01*
X78183Y-12520D01*
X78726Y-12063D02*
X78754Y-12035D01*
X78783Y-12063D01*
X78754Y-12092D01*
X78726Y-12063D01*
X78783Y-12063D01*
X78783Y-11463D02*
X78783Y-11806D01*
X78783Y-11634D02*
X78183Y-11634D01*
X78269Y-11691D01*
X78326Y-11749D01*
X78354Y-11806D01*
X78183Y-10920D02*
X78183Y-11206D01*
X78469Y-11235D01*
X78440Y-11206D01*
X78411Y-11149D01*
X78411Y-11006D01*
X78440Y-10949D01*
X78469Y-10920D01*
X78526Y-10892D01*
X78669Y-10892D01*
X78726Y-10920D01*
X78754Y-10949D01*
X78783Y-11006D01*
X78783Y-11149D01*
X78754Y-11206D01*
X78726Y-11235D01*
X78183Y-10521D02*
X78183Y-10464D01*
X78211Y-10407D01*
X78240Y-10378D01*
X78297Y-10349D01*
X78411Y-10321D01*
X78554Y-10321D01*
X78669Y-10349D01*
X78726Y-10378D01*
X78754Y-10407D01*
X78783Y-10464D01*
X78783Y-10521D01*
X78754Y-10578D01*
X78726Y-10607D01*
X78669Y-10635D01*
X78554Y-10664D01*
X78411Y-10664D01*
X78297Y-10635D01*
X78240Y-10607D01*
X78211Y-10578D01*
X78183Y-10521D01*
X78183Y-09950D02*
X78183Y-09893D01*
X78211Y-09836D01*
X78240Y-09807D01*
X78297Y-09778D01*
X78411Y-09750D01*
X78554Y-09750D01*
X78669Y-09778D01*
X78726Y-09807D01*
X78754Y-09836D01*
X78783Y-09893D01*
X78783Y-09950D01*
X78754Y-10007D01*
X78726Y-10036D01*
X78669Y-10064D01*
X78554Y-10093D01*
X78411Y-10093D01*
X78297Y-10064D01*
X78240Y-10036D01*
X78211Y-10007D01*
X78183Y-09950D01*
X78183Y-09065D02*
X78297Y-09065D01*
X78183Y-08836D02*
X78297Y-08836D01*
X78000Y-11500D02*
X78000Y-10000D01*
X77500Y-11500D02*
X79080Y-11500D01*
X77500Y-10000D02*
X79080Y-10000D01*
X78000Y-10000D02*
X78230Y-10443D01*
X78000Y-10000D02*
X77770Y-10443D01*
X78000Y-11500D02*
X78230Y-11057D01*
X78000Y-11500D02*
X77770Y-11057D01*
X04917Y-53144D02*
X04917Y-53259D01*
X04946Y-53316D01*
X04974Y-53344D01*
X05060Y-53402D01*
X05174Y-53430D01*
X05403Y-53430D01*
X05460Y-53402D01*
X05489Y-53373D01*
X05517Y-53316D01*
X05517Y-53202D01*
X05489Y-53144D01*
X05460Y-53116D01*
X05403Y-53087D01*
X05260Y-53087D01*
X05203Y-53116D01*
X05174Y-53144D01*
X05146Y-53202D01*
X05146Y-53316D01*
X05174Y-53373D01*
X05203Y-53402D01*
X05260Y-53430D01*
X04974Y-53687D02*
X04946Y-53715D01*
X04917Y-53687D01*
X04946Y-53658D01*
X04974Y-53687D01*
X04917Y-53687D01*
X05517Y-54087D02*
X05517Y-54144D01*
X05489Y-54201D01*
X05460Y-54230D01*
X05403Y-54259D01*
X05289Y-54287D01*
X05146Y-54287D01*
X05031Y-54259D01*
X04974Y-54230D01*
X04946Y-54201D01*
X04917Y-54144D01*
X04917Y-54087D01*
X04946Y-54030D01*
X04974Y-54001D01*
X05031Y-53973D01*
X05146Y-53944D01*
X05289Y-53944D01*
X05403Y-53973D01*
X05460Y-54001D01*
X05489Y-54030D01*
X05517Y-54087D01*
X05517Y-54658D02*
X05517Y-54715D01*
X05489Y-54772D01*
X05460Y-54801D01*
X05403Y-54830D01*
X05289Y-54858D01*
X05146Y-54858D01*
X05031Y-54830D01*
X04974Y-54801D01*
X04946Y-54772D01*
X04917Y-54715D01*
X04917Y-54658D01*
X04946Y-54601D01*
X04974Y-54572D01*
X05031Y-54544D01*
X05146Y-54515D01*
X05289Y-54515D01*
X05403Y-54544D01*
X05460Y-54572D01*
X05489Y-54601D01*
X05517Y-54658D01*
X05517Y-55229D02*
X05517Y-55286D01*
X05489Y-55343D01*
X05460Y-55372D01*
X05403Y-55401D01*
X05289Y-55429D01*
X05146Y-55429D01*
X05031Y-55401D01*
X04974Y-55372D01*
X04946Y-55343D01*
X04917Y-55286D01*
X04917Y-55229D01*
X04946Y-55172D01*
X04974Y-55143D01*
X05031Y-55115D01*
X05146Y-55086D01*
X05289Y-55086D01*
X05403Y-55115D01*
X05460Y-55143D01*
X05489Y-55172D01*
X05517Y-55229D01*
X05517Y-55800D02*
X05517Y-55857D01*
X05489Y-55914D01*
X05460Y-55943D01*
X05403Y-55972D01*
X05289Y-56000D01*
X05146Y-56000D01*
X05031Y-55972D01*
X04974Y-55943D01*
X04946Y-55914D01*
X04917Y-55857D01*
X04917Y-55800D01*
X04946Y-55743D01*
X04974Y-55714D01*
X05031Y-55686D01*
X05146Y-55657D01*
X05289Y-55657D01*
X05403Y-55686D01*
X05460Y-55714D01*
X05489Y-55743D01*
X05517Y-55800D01*
X05517Y-56685D02*
X05403Y-56685D01*
X05517Y-56914D02*
X05403Y-56914D01*
X05700Y-10000D02*
X05700Y-100000D01*
X06500Y-10000D02*
X04620Y-10000D01*
X06500Y-100000D02*
X04620Y-100000D01*
X05700Y-100000D02*
X05470Y-99557D01*
X05700Y-100000D02*
X05930Y-99557D01*
X05700Y-10000D02*
X05470Y-10443D01*
X05700Y-10000D02*
X05930Y-10443D01*
X12230Y-34854D02*
X12287Y-34854D01*
X12344Y-34882D01*
X12373Y-34911D01*
X12402Y-34968D01*
X12430Y-35082D01*
X12430Y-35225D01*
X12402Y-35340D01*
X12373Y-35397D01*
X12344Y-35425D01*
X12287Y-35454D01*
X12230Y-35454D01*
X12173Y-35425D01*
X12144Y-35397D01*
X12116Y-35340D01*
X12087Y-35225D01*
X12087Y-35082D01*
X12116Y-34968D01*
X12144Y-34911D01*
X12173Y-34882D01*
X12230Y-34854D01*
X12687Y-35397D02*
X12715Y-35425D01*
X12687Y-35454D01*
X12658Y-35425D01*
X12687Y-35397D01*
X12687Y-35454D01*
X13230Y-35054D02*
X13230Y-35454D01*
X13087Y-34825D02*
X12944Y-35254D01*
X13316Y-35254D01*
X13658Y-34854D02*
X13715Y-34854D01*
X13772Y-34882D01*
X13801Y-34911D01*
X13830Y-34968D01*
X13858Y-35082D01*
X13858Y-35225D01*
X13830Y-35340D01*
X13801Y-35397D01*
X13772Y-35425D01*
X13715Y-35454D01*
X13658Y-35454D01*
X13601Y-35425D01*
X13572Y-35397D01*
X13544Y-35340D01*
X13515Y-35225D01*
X13515Y-35082D01*
X13544Y-34968D01*
X13572Y-34911D01*
X13601Y-34882D01*
X13658Y-34854D01*
X14229Y-34854D02*
X14286Y-34854D01*
X14343Y-34882D01*
X14372Y-34911D01*
X14401Y-34968D01*
X14429Y-35082D01*
X14429Y-35225D01*
X14401Y-35340D01*
X14372Y-35397D01*
X14343Y-35425D01*
X14286Y-35454D01*
X14229Y-35454D01*
X14172Y-35425D01*
X14143Y-35397D01*
X14115Y-35340D01*
X14086Y-35225D01*
X14086Y-35082D01*
X14115Y-34968D01*
X14143Y-34911D01*
X14172Y-34882D01*
X14229Y-34854D01*
X14800Y-34854D02*
X14857Y-34854D01*
X14914Y-34882D01*
X14943Y-34911D01*
X14972Y-34968D01*
X15000Y-35082D01*
X15000Y-35225D01*
X14972Y-35340D01*
X14943Y-35397D01*
X14914Y-35425D01*
X14857Y-35454D01*
X14800Y-35454D01*
X14743Y-35425D01*
X14714Y-35397D01*
X14686Y-35340D01*
X14657Y-35225D01*
X14657Y-35082D01*
X14686Y-34968D01*
X14714Y-34911D01*
X14743Y-34882D01*
X14800Y-34854D01*
X15685Y-34854D02*
X15685Y-34968D01*
X15914Y-34854D02*
X15914Y-34968D01*
X12000Y-35751D02*
X16000Y-35751D01*
X12000Y-36250D02*
X12000Y-34671D01*
X16000Y-36250D02*
X16000Y-34671D01*
X16000Y-35751D02*
X15557Y-35981D01*
X16000Y-35751D02*
X15557Y-35521D01*
X12000Y-35751D02*
X12443Y-35981D01*
X12000Y-35751D02*
X12443Y-35521D01*
X08767Y-39230D02*
X08767Y-39287D01*
X08739Y-39344D01*
X08710Y-39373D01*
X08653Y-39402D01*
X08539Y-39430D01*
X08396Y-39430D01*
X08281Y-39402D01*
X08224Y-39373D01*
X08196Y-39344D01*
X08167Y-39287D01*
X08167Y-39230D01*
X08196Y-39173D01*
X08224Y-39144D01*
X08281Y-39116D01*
X08396Y-39087D01*
X08539Y-39087D01*
X08653Y-39116D01*
X08710Y-39144D01*
X08739Y-39173D01*
X08767Y-39230D01*
X08224Y-39687D02*
X08196Y-39715D01*
X08167Y-39687D01*
X08196Y-39658D01*
X08224Y-39687D01*
X08167Y-39687D01*
X08767Y-39916D02*
X08767Y-40316D01*
X08167Y-40059D01*
X08767Y-40658D02*
X08767Y-40715D01*
X08739Y-40772D01*
X08710Y-40801D01*
X08653Y-40830D01*
X08539Y-40858D01*
X08396Y-40858D01*
X08281Y-40830D01*
X08224Y-40801D01*
X08196Y-40772D01*
X08167Y-40715D01*
X08167Y-40658D01*
X08196Y-40601D01*
X08224Y-40572D01*
X08281Y-40544D01*
X08396Y-40515D01*
X08539Y-40515D01*
X08653Y-40544D01*
X08710Y-40572D01*
X08739Y-40601D01*
X08767Y-40658D01*
X08767Y-41229D02*
X08767Y-41286D01*
X08739Y-41343D01*
X08710Y-41372D01*
X08653Y-41401D01*
X08539Y-41429D01*
X08396Y-41429D01*
X08281Y-41401D01*
X08224Y-41372D01*
X08196Y-41343D01*
X08167Y-41286D01*
X08167Y-41229D01*
X08196Y-41172D01*
X08224Y-41143D01*
X08281Y-41115D01*
X08396Y-41086D01*
X08539Y-41086D01*
X08653Y-41115D01*
X08710Y-41143D01*
X08739Y-41172D01*
X08767Y-41229D01*
X08767Y-41800D02*
X08767Y-41857D01*
X08739Y-41914D01*
X08710Y-41943D01*
X08653Y-41972D01*
X08539Y-42000D01*
X08396Y-42000D01*
X08281Y-41972D01*
X08224Y-41943D01*
X08196Y-41914D01*
X08167Y-41857D01*
X08167Y-41800D01*
X08196Y-41743D01*
X08224Y-41714D01*
X08281Y-41686D01*
X08396Y-41657D01*
X08539Y-41657D01*
X08653Y-41686D01*
X08710Y-41714D01*
X08739Y-41743D01*
X08767Y-41800D01*
X08767Y-42685D02*
X08653Y-42685D01*
X08767Y-42914D02*
X08653Y-42914D01*
X08950Y-37500D02*
X08950Y-44500D01*
X10500Y-37500D02*
X07870Y-37500D01*
X10500Y-44500D02*
X07870Y-44500D01*
X08950Y-44500D02*
X08720Y-44057D01*
X08950Y-44500D02*
X09180Y-44057D01*
X08950Y-37500D02*
X08720Y-37943D01*
X08950Y-37500D02*
X09180Y-37943D01*
X78296Y-87430D02*
X78296Y-87087D01*
X78296Y-87259D02*
X78896Y-87259D01*
X78810Y-87202D01*
X78753Y-87144D01*
X78725Y-87087D01*
X78353Y-87687D02*
X78325Y-87715D01*
X78296Y-87687D01*
X78325Y-87658D01*
X78353Y-87687D01*
X78296Y-87687D01*
X78296Y-88001D02*
X78296Y-88116D01*
X78325Y-88173D01*
X78353Y-88201D01*
X78439Y-88259D01*
X78553Y-88287D01*
X78782Y-88287D01*
X78839Y-88259D01*
X78868Y-88230D01*
X78896Y-88173D01*
X78896Y-88059D01*
X78868Y-88001D01*
X78839Y-87973D01*
X78782Y-87944D01*
X78639Y-87944D01*
X78582Y-87973D01*
X78553Y-88001D01*
X78525Y-88059D01*
X78525Y-88173D01*
X78553Y-88230D01*
X78582Y-88259D01*
X78639Y-88287D01*
X78896Y-88658D02*
X78896Y-88715D01*
X78868Y-88772D01*
X78839Y-88801D01*
X78782Y-88830D01*
X78668Y-88858D01*
X78525Y-88858D01*
X78410Y-88830D01*
X78353Y-88801D01*
X78325Y-88772D01*
X78296Y-88715D01*
X78296Y-88658D01*
X78325Y-88601D01*
X78353Y-88572D01*
X78410Y-88544D01*
X78525Y-88515D01*
X78668Y-88515D01*
X78782Y-88544D01*
X78839Y-88572D01*
X78868Y-88601D01*
X78896Y-88658D01*
X78896Y-89229D02*
X78896Y-89286D01*
X78868Y-89343D01*
X78839Y-89372D01*
X78782Y-89401D01*
X78668Y-89429D01*
X78525Y-89429D01*
X78410Y-89401D01*
X78353Y-89372D01*
X78325Y-89343D01*
X78296Y-89286D01*
X78296Y-89229D01*
X78325Y-89172D01*
X78353Y-89143D01*
X78410Y-89115D01*
X78525Y-89086D01*
X78668Y-89086D01*
X78782Y-89115D01*
X78839Y-89143D01*
X78868Y-89172D01*
X78896Y-89229D01*
X78896Y-89800D02*
X78896Y-89857D01*
X78868Y-89914D01*
X78839Y-89943D01*
X78782Y-89972D01*
X78668Y-90000D01*
X78525Y-90000D01*
X78410Y-89972D01*
X78353Y-89943D01*
X78325Y-89914D01*
X78296Y-89857D01*
X78296Y-89800D01*
X78325Y-89743D01*
X78353Y-89714D01*
X78410Y-89686D01*
X78525Y-89657D01*
X78668Y-89657D01*
X78782Y-89686D01*
X78839Y-89714D01*
X78868Y-89743D01*
X78896Y-89800D01*
X78896Y-90685D02*
X78782Y-90685D01*
X78896Y-90914D02*
X78782Y-90914D01*
X77999Y-79500D02*
X77999Y-98500D01*
X77500Y-79500D02*
X79079Y-79500D01*
X77500Y-98500D02*
X79079Y-98500D01*
X77999Y-98500D02*
X77769Y-98057D01*
X77999Y-98500D02*
X78229Y-98057D01*
X77999Y-79500D02*
X77769Y-79943D01*
X77999Y-79500D02*
X78229Y-79943D01*
X78696Y-53373D02*
X78296Y-53373D01*
X78925Y-53230D02*
X78496Y-53087D01*
X78496Y-53459D01*
X78353Y-53687D02*
X78325Y-53715D01*
X78296Y-53687D01*
X78325Y-53658D01*
X78353Y-53687D01*
X78296Y-53687D01*
X78296Y-54001D02*
X78296Y-54116D01*
X78325Y-54173D01*
X78353Y-54201D01*
X78439Y-54259D01*
X78553Y-54287D01*
X78782Y-54287D01*
X78839Y-54259D01*
X78868Y-54230D01*
X78896Y-54173D01*
X78896Y-54059D01*
X78868Y-54001D01*
X78839Y-53973D01*
X78782Y-53944D01*
X78639Y-53944D01*
X78582Y-53973D01*
X78553Y-54001D01*
X78525Y-54059D01*
X78525Y-54173D01*
X78553Y-54230D01*
X78582Y-54259D01*
X78639Y-54287D01*
X78896Y-54658D02*
X78896Y-54715D01*
X78868Y-54772D01*
X78839Y-54801D01*
X78782Y-54830D01*
X78668Y-54858D01*
X78525Y-54858D01*
X78410Y-54830D01*
X78353Y-54801D01*
X78325Y-54772D01*
X78296Y-54715D01*
X78296Y-54658D01*
X78325Y-54601D01*
X78353Y-54572D01*
X78410Y-54544D01*
X78525Y-54515D01*
X78668Y-54515D01*
X78782Y-54544D01*
X78839Y-54572D01*
X78868Y-54601D01*
X78896Y-54658D01*
X78896Y-55229D02*
X78896Y-55286D01*
X78868Y-55343D01*
X78839Y-55372D01*
X78782Y-55401D01*
X78668Y-55429D01*
X78525Y-55429D01*
X78410Y-55401D01*
X78353Y-55372D01*
X78325Y-55343D01*
X78296Y-55286D01*
X78296Y-55229D01*
X78325Y-55172D01*
X78353Y-55143D01*
X78410Y-55115D01*
X78525Y-55086D01*
X78668Y-55086D01*
X78782Y-55115D01*
X78839Y-55143D01*
X78868Y-55172D01*
X78896Y-55229D01*
X78896Y-55800D02*
X78896Y-55857D01*
X78868Y-55914D01*
X78839Y-55943D01*
X78782Y-55972D01*
X78668Y-56000D01*
X78525Y-56000D01*
X78410Y-55972D01*
X78353Y-55943D01*
X78325Y-55914D01*
X78296Y-55857D01*
X78296Y-55800D01*
X78325Y-55743D01*
X78353Y-55714D01*
X78410Y-55686D01*
X78525Y-55657D01*
X78668Y-55657D01*
X78782Y-55686D01*
X78839Y-55714D01*
X78868Y-55743D01*
X78896Y-55800D01*
X78896Y-56685D02*
X78782Y-56685D01*
X78896Y-56914D02*
X78782Y-56914D01*
X77999Y-30500D02*
X77999Y-79500D01*
X77500Y-30500D02*
X79079Y-30500D01*
X77500Y-79500D02*
X79079Y-79500D01*
X77999Y-79500D02*
X77769Y-79057D01*
X77999Y-79500D02*
X78229Y-79057D01*
X77999Y-30500D02*
X77769Y-30943D01*
X77999Y-30500D02*
X78229Y-30943D01*
X78296Y-19430D02*
X78296Y-19087D01*
X78296Y-19259D02*
X78896Y-19259D01*
X78810Y-19202D01*
X78753Y-19144D01*
X78725Y-19087D01*
X78353Y-19687D02*
X78325Y-19715D01*
X78296Y-19687D01*
X78325Y-19658D01*
X78353Y-19687D01*
X78296Y-19687D01*
X78296Y-20001D02*
X78296Y-20116D01*
X78325Y-20173D01*
X78353Y-20201D01*
X78439Y-20259D01*
X78553Y-20287D01*
X78782Y-20287D01*
X78839Y-20259D01*
X78868Y-20230D01*
X78896Y-20173D01*
X78896Y-20059D01*
X78868Y-20001D01*
X78839Y-19973D01*
X78782Y-19944D01*
X78639Y-19944D01*
X78582Y-19973D01*
X78553Y-20001D01*
X78525Y-20059D01*
X78525Y-20173D01*
X78553Y-20230D01*
X78582Y-20259D01*
X78639Y-20287D01*
X78896Y-20658D02*
X78896Y-20715D01*
X78868Y-20772D01*
X78839Y-20801D01*
X78782Y-20830D01*
X78668Y-20858D01*
X78525Y-20858D01*
X78410Y-20830D01*
X78353Y-20801D01*
X78325Y-20772D01*
X78296Y-20715D01*
X78296Y-20658D01*
X78325Y-20601D01*
X78353Y-20572D01*
X78410Y-20544D01*
X78525Y-20515D01*
X78668Y-20515D01*
X78782Y-20544D01*
X78839Y-20572D01*
X78868Y-20601D01*
X78896Y-20658D01*
X78896Y-21229D02*
X78896Y-21286D01*
X78868Y-21343D01*
X78839Y-21372D01*
X78782Y-21401D01*
X78668Y-21429D01*
X78525Y-21429D01*
X78410Y-21401D01*
X78353Y-21372D01*
X78325Y-21343D01*
X78296Y-21286D01*
X78296Y-21229D01*
X78325Y-21172D01*
X78353Y-21143D01*
X78410Y-21115D01*
X78525Y-21086D01*
X78668Y-21086D01*
X78782Y-21115D01*
X78839Y-21143D01*
X78868Y-21172D01*
X78896Y-21229D01*
X78896Y-21800D02*
X78896Y-21857D01*
X78868Y-21914D01*
X78839Y-21943D01*
X78782Y-21972D01*
X78668Y-22000D01*
X78525Y-22000D01*
X78410Y-21972D01*
X78353Y-21943D01*
X78325Y-21914D01*
X78296Y-21857D01*
X78296Y-21800D01*
X78325Y-21743D01*
X78353Y-21714D01*
X78410Y-21686D01*
X78525Y-21657D01*
X78668Y-21657D01*
X78782Y-21686D01*
X78839Y-21714D01*
X78868Y-21743D01*
X78896Y-21800D01*
X78896Y-22685D02*
X78782Y-22685D01*
X78896Y-22914D02*
X78782Y-22914D01*
X77999Y-11500D02*
X77999Y-30500D01*
X77500Y-11500D02*
X79079Y-11500D01*
X77500Y-30500D02*
X79079Y-30500D01*
X77999Y-30500D02*
X77769Y-30057D01*
X77999Y-30500D02*
X78229Y-30057D01*
X77999Y-11500D02*
X77769Y-11943D01*
X77999Y-11500D02*
X78229Y-11943D01*
G54D12*
X10000Y-100000D02*
X10000Y-10000D01*
X74000Y-100000D02*
X10000Y-100000D01*
X74000Y-10000D02*
X74000Y-100000D01*
X10000Y-10000D02*
X74000Y-10000D01*
M02*
