G04 (created by PCBNEW-RS274X (2011-07-08 BZR 3044)-stable) date 1/5/2012 3:27:40 PM*
G01*
G70*
G90*
%MOIN*%
G04 Gerber Fmt 3.4, Leading zero omitted, Abs format*
%FSLAX34Y34*%
G04 APERTURE LIST*
%ADD10C,0.006000*%
%ADD11C,0.200000*%
%ADD12C,0.015000*%
%ADD13C,0.008000*%
%ADD14C,0.010000*%
%ADD15C,0.100000*%
%ADD16C,0.200000*%
%ADD17R,0.200000X0.200000*%
%ADD18O,0.140000X0.240000*%
%ADD19C,0.080000*%
%ADD20R,0.070000X0.100000*%
%ADD21O,0.070000X0.100000*%
%ADD22C,0.220000*%
%ADD23R,0.090000X0.090000*%
%ADD24C,0.090000*%
%ADD25C,0.100000*%
%ADD26C,0.260000*%
%ADD27R,0.080000X0.080000*%
%ADD28C,0.170000*%
%ADD29R,0.065000X0.040000*%
%ADD30R,0.085000X0.085000*%
%ADD31C,0.085000*%
%ADD32O,0.080000X0.120000*%
%ADD33R,0.100000X0.060000*%
%ADD34C,0.070000*%
G04 APERTURE END LIST*
G54D10*
X51405Y-93537D02*
X51405Y-93137D01*
X51310Y-93137D01*
X51252Y-93156D01*
X51214Y-93194D01*
X51195Y-93232D01*
X51176Y-93308D01*
X51176Y-93365D01*
X51195Y-93442D01*
X51214Y-93480D01*
X51252Y-93518D01*
X51310Y-93537D01*
X51405Y-93537D01*
X50871Y-93327D02*
X50814Y-93346D01*
X50795Y-93365D01*
X50776Y-93404D01*
X50776Y-93461D01*
X50795Y-93499D01*
X50814Y-93518D01*
X50852Y-93537D01*
X51005Y-93537D01*
X51005Y-93137D01*
X50871Y-93137D01*
X50833Y-93156D01*
X50814Y-93175D01*
X50795Y-93213D01*
X50795Y-93251D01*
X50814Y-93289D01*
X50833Y-93308D01*
X50871Y-93327D01*
X51005Y-93327D01*
X50395Y-93156D02*
X50433Y-93137D01*
X50490Y-93137D01*
X50548Y-93156D01*
X50586Y-93194D01*
X50605Y-93232D01*
X50624Y-93308D01*
X50624Y-93365D01*
X50605Y-93442D01*
X50586Y-93480D01*
X50548Y-93518D01*
X50490Y-93537D01*
X50452Y-93537D01*
X50395Y-93518D01*
X50376Y-93499D01*
X50376Y-93365D01*
X50452Y-93365D01*
X51430Y-92012D02*
X51201Y-92012D01*
X51316Y-92412D02*
X51316Y-92012D01*
X51106Y-92012D02*
X50839Y-92412D01*
X50839Y-92012D02*
X51106Y-92412D01*
X50687Y-92412D02*
X50687Y-92012D01*
X50592Y-92012D01*
X50534Y-92031D01*
X50496Y-92069D01*
X50477Y-92107D01*
X50458Y-92183D01*
X50458Y-92240D01*
X50477Y-92317D01*
X50496Y-92355D01*
X50534Y-92393D01*
X50592Y-92412D01*
X50687Y-92412D01*
G54D11*
X24825Y-60950D02*
X24825Y-70500D01*
X24824Y-60729D02*
X24799Y-60186D01*
X24726Y-59648D01*
X24607Y-59118D01*
X24442Y-58601D01*
X24232Y-58100D01*
X23980Y-57619D01*
X23686Y-57162D01*
X23354Y-56733D01*
X22986Y-56333D01*
X22584Y-55968D01*
X22152Y-55639D01*
X21693Y-55349D01*
X21211Y-55100D01*
X20708Y-54894D01*
X20190Y-54732D01*
X19659Y-54616D01*
X19120Y-54547D01*
X18579Y-54526D01*
X29050Y-51325D02*
X29050Y-51025D01*
X29075Y-68550D02*
X29075Y-54500D01*
X29076Y-68721D02*
X29124Y-69334D01*
X29226Y-69941D01*
X29380Y-70537D01*
X29585Y-71117D01*
X29840Y-71677D01*
X30143Y-72213D01*
X30492Y-72720D01*
X30883Y-73195D01*
X31315Y-73633D01*
X31783Y-74033D01*
X32284Y-74390D01*
X32814Y-74703D01*
X33369Y-74968D01*
X33946Y-75183D01*
X34539Y-75348D01*
X35144Y-75460D01*
X35756Y-75519D01*
X36371Y-75524D01*
X36684Y-62912D02*
X37715Y-63958D01*
X38833Y-64910D01*
X40031Y-65760D01*
X41297Y-66504D01*
X42624Y-67134D01*
X44001Y-67646D01*
X45417Y-68036D01*
X46861Y-68301D01*
X48324Y-68439D01*
X49791Y-68449D01*
X51255Y-68331D01*
X52704Y-68086D01*
X54125Y-67716D01*
X55509Y-67224D01*
X56844Y-66612D01*
X58121Y-65887D01*
X59330Y-65053D01*
X60462Y-64116D01*
X61508Y-63085D01*
X62460Y-61967D01*
X63310Y-60769D01*
X64054Y-59503D01*
X64684Y-58176D01*
X65196Y-56799D01*
X65586Y-55383D01*
X65851Y-53939D01*
X65989Y-52476D01*
X65999Y-51009D01*
X65881Y-49545D01*
X65636Y-48096D01*
X65266Y-46675D01*
X64774Y-45291D01*
X64162Y-43956D01*
X63437Y-42679D01*
X62603Y-41470D01*
X61666Y-40338D01*
X60635Y-39292D01*
X59517Y-38340D01*
X58319Y-37490D01*
X57053Y-36746D01*
X55726Y-36116D01*
X54349Y-35604D01*
X52933Y-35214D01*
X51489Y-34949D01*
X50026Y-34811D01*
X48559Y-34801D01*
X43012Y-42518D02*
X42480Y-42651D01*
X41961Y-42831D01*
X41461Y-43055D01*
X40982Y-43322D01*
X40528Y-43629D01*
X40102Y-43975D01*
X39708Y-44356D01*
X39349Y-44771D01*
X39028Y-45215D01*
X38746Y-45686D01*
X38506Y-46179D01*
X38311Y-46691D01*
X38161Y-47219D01*
X38057Y-47757D01*
X38001Y-48303D01*
X37992Y-48850D01*
X38031Y-49397D01*
X38118Y-49938D01*
X38251Y-50470D01*
X38431Y-50989D01*
X38655Y-51489D01*
X38922Y-51968D01*
X39229Y-52422D01*
X39575Y-52848D01*
X39956Y-53242D01*
X40371Y-53601D01*
X40815Y-53922D01*
X41286Y-54204D01*
X41779Y-54444D01*
X42291Y-54639D01*
X42819Y-54789D01*
X43357Y-54893D01*
X43903Y-54949D01*
X44450Y-54958D01*
X44997Y-54919D01*
X45538Y-54832D01*
X46070Y-54699D01*
X46589Y-54519D01*
X47089Y-54295D01*
X47568Y-54028D01*
X48022Y-53721D01*
X48448Y-53375D01*
X44272Y-35026D02*
X43943Y-34984D01*
X43612Y-34971D01*
X43281Y-34986D01*
X42952Y-35031D01*
X42628Y-35104D01*
X42312Y-35205D01*
X42005Y-35333D01*
X41712Y-35487D01*
X41432Y-35666D01*
X41170Y-35869D01*
X40926Y-36094D01*
X40702Y-36340D01*
X40501Y-36604D01*
X40324Y-36885D01*
X40171Y-37179D01*
X40045Y-37487D01*
X39947Y-37804D01*
X39876Y-38128D01*
X39834Y-38457D01*
X39821Y-38788D01*
X39836Y-39119D01*
X39881Y-39448D01*
X39954Y-39772D01*
X40055Y-40088D01*
X40183Y-40395D01*
X40337Y-40688D01*
X40516Y-40968D01*
X40719Y-41230D01*
X40944Y-41474D01*
X41190Y-41698D01*
X41454Y-41899D01*
X41735Y-42076D01*
X42029Y-42229D01*
X42337Y-42355D01*
X42654Y-42453D01*
X42978Y-42524D01*
G54D12*
X10000Y-100000D02*
X10000Y-10000D01*
X74000Y-100000D02*
X10000Y-100000D01*
X74000Y-10000D02*
X74000Y-100000D01*
X10000Y-10000D02*
X74000Y-10000D01*
G54D13*
X61825Y-20675D02*
X64975Y-20675D01*
X64975Y-16375D02*
X61825Y-16375D01*
X64975Y-20675D02*
X64975Y-16375D01*
X61825Y-16375D02*
X61825Y-20675D01*
X63575Y-20675D02*
X63575Y-20375D01*
X63575Y-20375D02*
X63175Y-20375D01*
X63175Y-20375D02*
X63175Y-20675D01*
G54D14*
X51675Y-92425D02*
X51675Y-91825D01*
X51675Y-91825D02*
X52875Y-91825D01*
X52875Y-91825D02*
X52875Y-92425D01*
X52875Y-93125D02*
X52875Y-93725D01*
X52875Y-93725D02*
X51675Y-93725D01*
X51675Y-93725D02*
X51675Y-93125D01*
X45875Y-15850D02*
X44125Y-15850D01*
X44125Y-12100D02*
X45875Y-12100D01*
X43525Y-12700D02*
X43525Y-15250D01*
X46475Y-12700D02*
X46475Y-15250D01*
G54D15*
X45316Y-13975D02*
X45309Y-14036D01*
X45292Y-14095D01*
X45263Y-14149D01*
X45224Y-14197D01*
X45176Y-14236D01*
X45122Y-14266D01*
X45063Y-14284D01*
X45002Y-14290D01*
X44941Y-14285D01*
X44882Y-14267D01*
X44827Y-14239D01*
X44779Y-14200D01*
X44740Y-14153D01*
X44710Y-14099D01*
X44691Y-14040D01*
X44685Y-13979D01*
X44690Y-13918D01*
X44707Y-13859D01*
X44735Y-13804D01*
X44773Y-13756D01*
X44820Y-13716D01*
X44874Y-13686D01*
X44933Y-13667D01*
X44994Y-13660D01*
X45054Y-13664D01*
X45114Y-13681D01*
X45169Y-13709D01*
X45217Y-13747D01*
X45258Y-13793D01*
X45288Y-13847D01*
X45308Y-13905D01*
X45315Y-13967D01*
X45316Y-13975D01*
G54D14*
X39875Y-15850D02*
X38125Y-15850D01*
X38125Y-12100D02*
X39875Y-12100D01*
X37525Y-12700D02*
X37525Y-15250D01*
X40475Y-12700D02*
X40475Y-15250D01*
G54D15*
X39316Y-13975D02*
X39309Y-14036D01*
X39292Y-14095D01*
X39263Y-14149D01*
X39224Y-14197D01*
X39176Y-14236D01*
X39122Y-14266D01*
X39063Y-14284D01*
X39002Y-14290D01*
X38941Y-14285D01*
X38882Y-14267D01*
X38827Y-14239D01*
X38779Y-14200D01*
X38740Y-14153D01*
X38710Y-14099D01*
X38691Y-14040D01*
X38685Y-13979D01*
X38690Y-13918D01*
X38707Y-13859D01*
X38735Y-13804D01*
X38773Y-13756D01*
X38820Y-13716D01*
X38874Y-13686D01*
X38933Y-13667D01*
X38994Y-13660D01*
X39054Y-13664D01*
X39114Y-13681D01*
X39169Y-13709D01*
X39217Y-13747D01*
X39258Y-13793D01*
X39288Y-13847D01*
X39308Y-13905D01*
X39315Y-13967D01*
X39316Y-13975D01*
G54D14*
X33875Y-15850D02*
X32125Y-15850D01*
X32125Y-12100D02*
X33875Y-12100D01*
X31525Y-12700D02*
X31525Y-15250D01*
X34475Y-12700D02*
X34475Y-15250D01*
G54D15*
X33316Y-13975D02*
X33309Y-14036D01*
X33292Y-14095D01*
X33263Y-14149D01*
X33224Y-14197D01*
X33176Y-14236D01*
X33122Y-14266D01*
X33063Y-14284D01*
X33002Y-14290D01*
X32941Y-14285D01*
X32882Y-14267D01*
X32827Y-14239D01*
X32779Y-14200D01*
X32740Y-14153D01*
X32710Y-14099D01*
X32691Y-14040D01*
X32685Y-13979D01*
X32690Y-13918D01*
X32707Y-13859D01*
X32735Y-13804D01*
X32773Y-13756D01*
X32820Y-13716D01*
X32874Y-13686D01*
X32933Y-13667D01*
X32994Y-13660D01*
X33054Y-13664D01*
X33114Y-13681D01*
X33169Y-13709D01*
X33217Y-13747D01*
X33258Y-13793D01*
X33288Y-13847D01*
X33308Y-13905D01*
X33315Y-13967D01*
X33316Y-13975D01*
G54D14*
X23075Y-15850D02*
X21325Y-15850D01*
X21325Y-12100D02*
X23075Y-12100D01*
X20725Y-12700D02*
X20725Y-15250D01*
X23675Y-12700D02*
X23675Y-15250D01*
G54D15*
X22516Y-13975D02*
X22509Y-14036D01*
X22492Y-14095D01*
X22463Y-14149D01*
X22424Y-14197D01*
X22376Y-14236D01*
X22322Y-14266D01*
X22263Y-14284D01*
X22202Y-14290D01*
X22141Y-14285D01*
X22082Y-14267D01*
X22027Y-14239D01*
X21979Y-14200D01*
X21940Y-14153D01*
X21910Y-14099D01*
X21891Y-14040D01*
X21885Y-13979D01*
X21890Y-13918D01*
X21907Y-13859D01*
X21935Y-13804D01*
X21973Y-13756D01*
X22020Y-13716D01*
X22074Y-13686D01*
X22133Y-13667D01*
X22194Y-13660D01*
X22254Y-13664D01*
X22314Y-13681D01*
X22369Y-13709D01*
X22417Y-13747D01*
X22458Y-13793D01*
X22488Y-13847D01*
X22508Y-13905D01*
X22515Y-13967D01*
X22516Y-13975D01*
G54D14*
X51875Y-15850D02*
X50125Y-15850D01*
X50125Y-12100D02*
X51875Y-12100D01*
X49525Y-12700D02*
X49525Y-15250D01*
X52475Y-12700D02*
X52475Y-15250D01*
G54D15*
X51316Y-13975D02*
X51309Y-14036D01*
X51292Y-14095D01*
X51263Y-14149D01*
X51224Y-14197D01*
X51176Y-14236D01*
X51122Y-14266D01*
X51063Y-14284D01*
X51002Y-14290D01*
X50941Y-14285D01*
X50882Y-14267D01*
X50827Y-14239D01*
X50779Y-14200D01*
X50740Y-14153D01*
X50710Y-14099D01*
X50691Y-14040D01*
X50685Y-13979D01*
X50690Y-13918D01*
X50707Y-13859D01*
X50735Y-13804D01*
X50773Y-13756D01*
X50820Y-13716D01*
X50874Y-13686D01*
X50933Y-13667D01*
X50994Y-13660D01*
X51054Y-13664D01*
X51114Y-13681D01*
X51169Y-13709D01*
X51217Y-13747D01*
X51258Y-13793D01*
X51288Y-13847D01*
X51308Y-13905D01*
X51315Y-13967D01*
X51316Y-13975D01*
G54D10*
X61605Y-20987D02*
X61605Y-21311D01*
X61586Y-21349D01*
X61567Y-21368D01*
X61529Y-21387D01*
X61452Y-21387D01*
X61414Y-21368D01*
X61395Y-21349D01*
X61376Y-21311D01*
X61376Y-20987D01*
X61014Y-20987D02*
X61091Y-20987D01*
X61129Y-21006D01*
X61148Y-21025D01*
X61186Y-21082D01*
X61205Y-21158D01*
X61205Y-21311D01*
X61186Y-21349D01*
X61167Y-21368D01*
X61129Y-21387D01*
X61052Y-21387D01*
X61014Y-21368D01*
X60995Y-21349D01*
X60976Y-21311D01*
X60976Y-21215D01*
X60995Y-21177D01*
X61014Y-21158D01*
X61052Y-21139D01*
X61129Y-21139D01*
X61167Y-21158D01*
X61186Y-21177D01*
X61205Y-21215D01*
X64642Y-21387D02*
X64642Y-20987D01*
X64547Y-20987D01*
X64489Y-21006D01*
X64451Y-21044D01*
X64432Y-21082D01*
X64413Y-21158D01*
X64413Y-21215D01*
X64432Y-21292D01*
X64451Y-21330D01*
X64489Y-21368D01*
X64547Y-21387D01*
X64642Y-21387D01*
X64261Y-21368D02*
X64204Y-21387D01*
X64108Y-21387D01*
X64070Y-21368D01*
X64051Y-21349D01*
X64032Y-21311D01*
X64032Y-21273D01*
X64051Y-21235D01*
X64070Y-21215D01*
X64108Y-21196D01*
X64185Y-21177D01*
X64223Y-21158D01*
X64242Y-21139D01*
X64261Y-21101D01*
X64261Y-21063D01*
X64242Y-21025D01*
X64223Y-21006D01*
X64185Y-20987D01*
X64089Y-20987D01*
X64032Y-21006D01*
X63899Y-20987D02*
X63651Y-20987D01*
X63785Y-21139D01*
X63727Y-21139D01*
X63689Y-21158D01*
X63670Y-21177D01*
X63651Y-21215D01*
X63651Y-21311D01*
X63670Y-21349D01*
X63689Y-21368D01*
X63727Y-21387D01*
X63842Y-21387D01*
X63880Y-21368D01*
X63899Y-21349D01*
X63499Y-21025D02*
X63480Y-21006D01*
X63442Y-20987D01*
X63346Y-20987D01*
X63308Y-21006D01*
X63289Y-21025D01*
X63270Y-21063D01*
X63270Y-21101D01*
X63289Y-21158D01*
X63518Y-21387D01*
X63270Y-21387D01*
X63137Y-20987D02*
X62889Y-20987D01*
X63023Y-21139D01*
X62965Y-21139D01*
X62927Y-21158D01*
X62908Y-21177D01*
X62889Y-21215D01*
X62889Y-21311D01*
X62908Y-21349D01*
X62927Y-21368D01*
X62965Y-21387D01*
X63080Y-21387D01*
X63118Y-21368D01*
X63137Y-21349D01*
X62508Y-21387D02*
X62737Y-21387D01*
X62623Y-21387D02*
X62623Y-20987D01*
X62661Y-21044D01*
X62699Y-21082D01*
X62737Y-21101D01*
X62337Y-21387D02*
X62337Y-20987D01*
X62108Y-21387D01*
X62108Y-20987D01*
X52570Y-91637D02*
X52570Y-91237D01*
X52341Y-91637D02*
X52513Y-91408D01*
X52341Y-91237D02*
X52570Y-91465D01*
X52208Y-91237D02*
X51960Y-91237D01*
X52094Y-91389D01*
X52036Y-91389D01*
X51998Y-91408D01*
X51979Y-91427D01*
X51960Y-91465D01*
X51960Y-91561D01*
X51979Y-91599D01*
X51998Y-91618D01*
X52036Y-91637D01*
X52151Y-91637D01*
X52189Y-91618D01*
X52208Y-91599D01*
X55671Y-92537D02*
X55404Y-92537D01*
X55576Y-92937D01*
X55271Y-92918D02*
X55214Y-92937D01*
X55118Y-92937D01*
X55080Y-92918D01*
X55061Y-92899D01*
X55042Y-92861D01*
X55042Y-92823D01*
X55061Y-92785D01*
X55080Y-92765D01*
X55118Y-92746D01*
X55195Y-92727D01*
X55233Y-92708D01*
X55252Y-92689D01*
X55271Y-92651D01*
X55271Y-92613D01*
X55252Y-92575D01*
X55233Y-92556D01*
X55195Y-92537D01*
X55099Y-92537D01*
X55042Y-92556D01*
X54718Y-92918D02*
X54756Y-92937D01*
X54833Y-92937D01*
X54871Y-92918D01*
X54890Y-92880D01*
X54890Y-92727D01*
X54871Y-92689D01*
X54833Y-92670D01*
X54756Y-92670D01*
X54718Y-92689D01*
X54699Y-92727D01*
X54699Y-92765D01*
X54890Y-92804D01*
X54356Y-92670D02*
X54356Y-92994D01*
X54375Y-93032D01*
X54394Y-93051D01*
X54433Y-93070D01*
X54490Y-93070D01*
X54528Y-93051D01*
X54356Y-92918D02*
X54394Y-92937D01*
X54471Y-92937D01*
X54509Y-92918D01*
X54528Y-92899D01*
X54547Y-92861D01*
X54547Y-92746D01*
X54528Y-92708D01*
X54509Y-92689D01*
X54471Y-92670D01*
X54394Y-92670D01*
X54356Y-92689D01*
X54261Y-92975D02*
X53956Y-92975D01*
X53880Y-92918D02*
X53823Y-92937D01*
X53727Y-92937D01*
X53689Y-92918D01*
X53670Y-92899D01*
X53651Y-92861D01*
X53651Y-92823D01*
X53670Y-92785D01*
X53689Y-92765D01*
X53727Y-92746D01*
X53804Y-92727D01*
X53842Y-92708D01*
X53861Y-92689D01*
X53880Y-92651D01*
X53880Y-92613D01*
X53861Y-92575D01*
X53842Y-92556D01*
X53804Y-92537D01*
X53708Y-92537D01*
X53651Y-92556D01*
X53327Y-92918D02*
X53365Y-92937D01*
X53442Y-92937D01*
X53480Y-92918D01*
X53499Y-92880D01*
X53499Y-92727D01*
X53480Y-92689D01*
X53442Y-92670D01*
X53365Y-92670D01*
X53327Y-92689D01*
X53308Y-92727D01*
X53308Y-92765D01*
X53499Y-92804D01*
X53080Y-92937D02*
X53118Y-92918D01*
X53137Y-92880D01*
X53137Y-92537D01*
X45724Y-11843D02*
X45667Y-11862D01*
X45571Y-11862D01*
X45533Y-11843D01*
X45514Y-11824D01*
X45495Y-11786D01*
X45495Y-11748D01*
X45514Y-11710D01*
X45533Y-11690D01*
X45571Y-11671D01*
X45648Y-11652D01*
X45686Y-11633D01*
X45705Y-11614D01*
X45724Y-11576D01*
X45724Y-11538D01*
X45705Y-11500D01*
X45686Y-11481D01*
X45648Y-11462D01*
X45552Y-11462D01*
X45495Y-11481D01*
X45362Y-11462D02*
X45267Y-11862D01*
X45190Y-11576D01*
X45114Y-11862D01*
X45019Y-11462D01*
X44657Y-11862D02*
X44886Y-11862D01*
X44772Y-11862D02*
X44772Y-11462D01*
X44810Y-11519D01*
X44848Y-11557D01*
X44886Y-11576D01*
X44505Y-11500D02*
X44486Y-11481D01*
X44448Y-11462D01*
X44352Y-11462D01*
X44314Y-11481D01*
X44295Y-11500D01*
X44276Y-11538D01*
X44276Y-11576D01*
X44295Y-11633D01*
X44524Y-11862D01*
X44276Y-11862D01*
X45409Y-11212D02*
X45409Y-10812D01*
X45219Y-11212D02*
X45219Y-10812D01*
X44990Y-11212D01*
X44990Y-10812D01*
X44571Y-11174D02*
X44590Y-11193D01*
X44647Y-11212D01*
X44685Y-11212D01*
X44743Y-11193D01*
X44781Y-11155D01*
X44800Y-11117D01*
X44819Y-11040D01*
X44819Y-10983D01*
X44800Y-10907D01*
X44781Y-10869D01*
X44743Y-10831D01*
X44685Y-10812D01*
X44647Y-10812D01*
X44590Y-10831D01*
X44571Y-10850D01*
X39724Y-11843D02*
X39667Y-11862D01*
X39571Y-11862D01*
X39533Y-11843D01*
X39514Y-11824D01*
X39495Y-11786D01*
X39495Y-11748D01*
X39514Y-11710D01*
X39533Y-11690D01*
X39571Y-11671D01*
X39648Y-11652D01*
X39686Y-11633D01*
X39705Y-11614D01*
X39724Y-11576D01*
X39724Y-11538D01*
X39705Y-11500D01*
X39686Y-11481D01*
X39648Y-11462D01*
X39552Y-11462D01*
X39495Y-11481D01*
X39362Y-11462D02*
X39267Y-11862D01*
X39190Y-11576D01*
X39114Y-11862D01*
X39019Y-11462D01*
X38886Y-11500D02*
X38867Y-11481D01*
X38829Y-11462D01*
X38733Y-11462D01*
X38695Y-11481D01*
X38676Y-11500D01*
X38657Y-11538D01*
X38657Y-11576D01*
X38676Y-11633D01*
X38905Y-11862D01*
X38657Y-11862D01*
X38505Y-11500D02*
X38486Y-11481D01*
X38448Y-11462D01*
X38352Y-11462D01*
X38314Y-11481D01*
X38295Y-11500D01*
X38276Y-11538D01*
X38276Y-11576D01*
X38295Y-11633D01*
X38524Y-11862D01*
X38276Y-11862D01*
X39486Y-11212D02*
X39486Y-10812D01*
X39391Y-10812D01*
X39333Y-10831D01*
X39295Y-10869D01*
X39276Y-10907D01*
X39257Y-10983D01*
X39257Y-11040D01*
X39276Y-11117D01*
X39295Y-11155D01*
X39333Y-11193D01*
X39391Y-11212D01*
X39486Y-11212D01*
X39086Y-11002D02*
X38952Y-11002D01*
X38895Y-11212D02*
X39086Y-11212D01*
X39086Y-10812D01*
X38895Y-10812D01*
X38495Y-11174D02*
X38514Y-11193D01*
X38571Y-11212D01*
X38609Y-11212D01*
X38667Y-11193D01*
X38705Y-11155D01*
X38724Y-11117D01*
X38743Y-11040D01*
X38743Y-10983D01*
X38724Y-10907D01*
X38705Y-10869D01*
X38667Y-10831D01*
X38609Y-10812D01*
X38571Y-10812D01*
X38514Y-10831D01*
X38495Y-10850D01*
X33724Y-11843D02*
X33667Y-11862D01*
X33571Y-11862D01*
X33533Y-11843D01*
X33514Y-11824D01*
X33495Y-11786D01*
X33495Y-11748D01*
X33514Y-11710D01*
X33533Y-11690D01*
X33571Y-11671D01*
X33648Y-11652D01*
X33686Y-11633D01*
X33705Y-11614D01*
X33724Y-11576D01*
X33724Y-11538D01*
X33705Y-11500D01*
X33686Y-11481D01*
X33648Y-11462D01*
X33552Y-11462D01*
X33495Y-11481D01*
X33362Y-11462D02*
X33267Y-11862D01*
X33190Y-11576D01*
X33114Y-11862D01*
X33019Y-11462D01*
X32905Y-11462D02*
X32657Y-11462D01*
X32791Y-11614D01*
X32733Y-11614D01*
X32695Y-11633D01*
X32676Y-11652D01*
X32657Y-11690D01*
X32657Y-11786D01*
X32676Y-11824D01*
X32695Y-11843D01*
X32733Y-11862D01*
X32848Y-11862D01*
X32886Y-11843D01*
X32905Y-11824D01*
X32505Y-11500D02*
X32486Y-11481D01*
X32448Y-11462D01*
X32352Y-11462D01*
X32314Y-11481D01*
X32295Y-11500D01*
X32276Y-11538D01*
X32276Y-11576D01*
X32295Y-11633D01*
X32524Y-11862D01*
X32276Y-11862D01*
X33724Y-11212D02*
X33724Y-10812D01*
X33590Y-11098D01*
X33457Y-10812D01*
X33457Y-11212D01*
X33191Y-10812D02*
X33114Y-10812D01*
X33076Y-10831D01*
X33038Y-10869D01*
X33019Y-10945D01*
X33019Y-11079D01*
X33038Y-11155D01*
X33076Y-11193D01*
X33114Y-11212D01*
X33191Y-11212D01*
X33229Y-11193D01*
X33267Y-11155D01*
X33286Y-11079D01*
X33286Y-10945D01*
X33267Y-10869D01*
X33229Y-10831D01*
X33191Y-10812D01*
X32848Y-11212D02*
X32848Y-10812D01*
X32753Y-10812D01*
X32695Y-10831D01*
X32657Y-10869D01*
X32638Y-10907D01*
X32619Y-10983D01*
X32619Y-11040D01*
X32638Y-11117D01*
X32657Y-11155D01*
X32695Y-11193D01*
X32753Y-11212D01*
X32848Y-11212D01*
X32448Y-11002D02*
X32314Y-11002D01*
X32257Y-11212D02*
X32448Y-11212D01*
X32448Y-10812D01*
X32257Y-10812D01*
X22924Y-11843D02*
X22867Y-11862D01*
X22771Y-11862D01*
X22733Y-11843D01*
X22714Y-11824D01*
X22695Y-11786D01*
X22695Y-11748D01*
X22714Y-11710D01*
X22733Y-11690D01*
X22771Y-11671D01*
X22848Y-11652D01*
X22886Y-11633D01*
X22905Y-11614D01*
X22924Y-11576D01*
X22924Y-11538D01*
X22905Y-11500D01*
X22886Y-11481D01*
X22848Y-11462D01*
X22752Y-11462D01*
X22695Y-11481D01*
X22562Y-11462D02*
X22467Y-11862D01*
X22390Y-11576D01*
X22314Y-11862D01*
X22219Y-11462D01*
X21895Y-11595D02*
X21895Y-11862D01*
X21991Y-11443D02*
X22086Y-11729D01*
X21838Y-11729D01*
X21705Y-11500D02*
X21686Y-11481D01*
X21648Y-11462D01*
X21552Y-11462D01*
X21514Y-11481D01*
X21495Y-11500D01*
X21476Y-11538D01*
X21476Y-11576D01*
X21495Y-11633D01*
X21724Y-11862D01*
X21476Y-11862D01*
X22419Y-11212D02*
X22553Y-11021D01*
X22648Y-11212D02*
X22648Y-10812D01*
X22495Y-10812D01*
X22457Y-10831D01*
X22438Y-10850D01*
X22419Y-10888D01*
X22419Y-10945D01*
X22438Y-10983D01*
X22457Y-11002D01*
X22495Y-11021D01*
X22648Y-11021D01*
X22267Y-11193D02*
X22210Y-11212D01*
X22114Y-11212D01*
X22076Y-11193D01*
X22057Y-11174D01*
X22038Y-11136D01*
X22038Y-11098D01*
X22057Y-11060D01*
X22076Y-11040D01*
X22114Y-11021D01*
X22191Y-11002D01*
X22229Y-10983D01*
X22248Y-10964D01*
X22267Y-10926D01*
X22267Y-10888D01*
X22248Y-10850D01*
X22229Y-10831D01*
X22191Y-10812D01*
X22095Y-10812D01*
X22038Y-10831D01*
X21924Y-10812D02*
X21695Y-10812D01*
X21810Y-11212D02*
X21810Y-10812D01*
X51724Y-11843D02*
X51667Y-11862D01*
X51571Y-11862D01*
X51533Y-11843D01*
X51514Y-11824D01*
X51495Y-11786D01*
X51495Y-11748D01*
X51514Y-11710D01*
X51533Y-11690D01*
X51571Y-11671D01*
X51648Y-11652D01*
X51686Y-11633D01*
X51705Y-11614D01*
X51724Y-11576D01*
X51724Y-11538D01*
X51705Y-11500D01*
X51686Y-11481D01*
X51648Y-11462D01*
X51552Y-11462D01*
X51495Y-11481D01*
X51362Y-11462D02*
X51267Y-11862D01*
X51190Y-11576D01*
X51114Y-11862D01*
X51019Y-11462D01*
X50676Y-11462D02*
X50867Y-11462D01*
X50886Y-11652D01*
X50867Y-11633D01*
X50829Y-11614D01*
X50733Y-11614D01*
X50695Y-11633D01*
X50676Y-11652D01*
X50657Y-11690D01*
X50657Y-11786D01*
X50676Y-11824D01*
X50695Y-11843D01*
X50733Y-11862D01*
X50829Y-11862D01*
X50867Y-11843D01*
X50886Y-11824D01*
X50505Y-11500D02*
X50486Y-11481D01*
X50448Y-11462D01*
X50352Y-11462D01*
X50314Y-11481D01*
X50295Y-11500D01*
X50276Y-11538D01*
X50276Y-11576D01*
X50295Y-11633D01*
X50524Y-11862D01*
X50276Y-11862D01*
X51829Y-11002D02*
X51695Y-11002D01*
X51638Y-11212D02*
X51829Y-11212D01*
X51829Y-10812D01*
X51638Y-10812D01*
X51467Y-11212D02*
X51467Y-10812D01*
X51238Y-11212D01*
X51238Y-10812D01*
X51105Y-10812D02*
X50876Y-10812D01*
X50991Y-11212D02*
X50991Y-10812D01*
X50743Y-11002D02*
X50609Y-11002D01*
X50552Y-11212D02*
X50743Y-11212D01*
X50743Y-10812D01*
X50552Y-10812D01*
X50152Y-11212D02*
X50286Y-11021D01*
X50381Y-11212D02*
X50381Y-10812D01*
X50228Y-10812D01*
X50190Y-10831D01*
X50171Y-10850D01*
X50152Y-10888D01*
X50152Y-10945D01*
X50171Y-10983D01*
X50190Y-11002D01*
X50228Y-11021D01*
X50381Y-11021D01*
%LPC*%
G54D16*
X62550Y-90900D03*
G54D17*
X62550Y-88500D03*
G54D18*
X64550Y-89650D03*
G54D19*
X33400Y-91600D03*
X31400Y-91600D03*
X32400Y-91600D03*
X70300Y-89500D03*
X70300Y-91500D03*
X20000Y-91450D03*
X20000Y-93450D03*
X59000Y-92400D03*
X59000Y-94400D03*
X37450Y-91600D03*
X35450Y-91600D03*
G54D20*
X41400Y-93000D03*
G54D21*
X40400Y-93000D03*
X39400Y-93000D03*
X38400Y-93000D03*
X37400Y-93000D03*
X36400Y-93000D03*
X35400Y-93000D03*
X34400Y-93000D03*
X33400Y-93000D03*
X32400Y-93000D03*
X31400Y-93000D03*
X30400Y-93000D03*
X29400Y-93000D03*
X28400Y-93000D03*
X28400Y-96000D03*
X29400Y-96000D03*
X30400Y-96000D03*
X31400Y-96000D03*
X32400Y-96000D03*
X33400Y-96000D03*
X34400Y-96000D03*
X35400Y-96000D03*
X36400Y-96000D03*
X37400Y-96000D03*
X38400Y-96000D03*
X39400Y-96000D03*
X40400Y-96000D03*
X41400Y-96000D03*
G54D22*
X58875Y-23675D03*
X67875Y-23675D03*
X58875Y-14675D03*
X67875Y-14675D03*
G54D23*
X44225Y-21500D03*
G54D24*
X44225Y-20500D03*
X44225Y-19500D03*
X43225Y-19500D03*
X43225Y-20500D03*
X43225Y-21500D03*
G54D23*
X46225Y-21500D03*
G54D24*
X46225Y-20500D03*
X46225Y-19500D03*
X45225Y-19500D03*
X45225Y-20500D03*
X45225Y-21500D03*
G54D23*
X48225Y-21500D03*
G54D24*
X48225Y-20500D03*
X48225Y-19500D03*
X47225Y-19500D03*
X47225Y-20500D03*
X47225Y-21500D03*
G54D23*
X50225Y-21500D03*
G54D24*
X50225Y-20500D03*
X50225Y-19500D03*
X49225Y-19500D03*
X49225Y-20500D03*
X49225Y-21500D03*
G54D23*
X52225Y-21500D03*
G54D24*
X52225Y-20500D03*
X52225Y-19500D03*
X51225Y-19500D03*
X51225Y-20500D03*
X51225Y-21500D03*
G54D23*
X54225Y-21500D03*
G54D24*
X54225Y-20500D03*
X54225Y-19500D03*
X53225Y-19500D03*
X53225Y-20500D03*
X53225Y-21500D03*
G54D23*
X43225Y-24500D03*
G54D24*
X43225Y-25500D03*
X43225Y-26500D03*
X44225Y-26500D03*
X44225Y-25500D03*
X44225Y-24500D03*
G54D23*
X45225Y-24500D03*
G54D24*
X45225Y-25500D03*
X45225Y-26500D03*
X46225Y-26500D03*
X46225Y-25500D03*
X46225Y-24500D03*
G54D23*
X47225Y-24500D03*
G54D24*
X47225Y-25500D03*
X47225Y-26500D03*
X48225Y-26500D03*
X48225Y-25500D03*
X48225Y-24500D03*
G54D23*
X49225Y-24500D03*
G54D24*
X49225Y-25500D03*
X49225Y-26500D03*
X50225Y-26500D03*
X50225Y-25500D03*
X50225Y-24500D03*
G54D23*
X51225Y-24500D03*
G54D24*
X51225Y-25500D03*
X51225Y-26500D03*
X52225Y-26500D03*
X52225Y-25500D03*
X52225Y-24500D03*
G54D23*
X53225Y-24500D03*
G54D24*
X53225Y-25500D03*
X53225Y-26500D03*
X54225Y-26500D03*
X54225Y-25500D03*
X54225Y-24500D03*
G54D23*
X43225Y-23500D03*
G54D24*
X44225Y-23500D03*
X45225Y-23500D03*
X45225Y-22500D03*
X44225Y-22500D03*
X43225Y-22500D03*
G54D23*
X46225Y-23500D03*
G54D24*
X47225Y-23500D03*
X48225Y-23500D03*
X48225Y-22500D03*
X47225Y-22500D03*
X46225Y-22500D03*
G54D23*
X49225Y-23500D03*
G54D24*
X50225Y-23500D03*
X51225Y-23500D03*
X51225Y-22500D03*
X50225Y-22500D03*
X49225Y-22500D03*
G54D23*
X52225Y-23500D03*
G54D24*
X53225Y-23500D03*
X54225Y-23500D03*
X54225Y-22500D03*
X53225Y-22500D03*
X52225Y-22500D03*
G54D20*
X56700Y-90400D03*
G54D21*
X55700Y-90400D03*
X54700Y-90400D03*
X53700Y-90400D03*
X52700Y-90400D03*
X51700Y-90400D03*
X50700Y-90400D03*
X49700Y-90400D03*
X48700Y-90400D03*
X47700Y-90400D03*
X46700Y-90400D03*
X45700Y-90400D03*
X45700Y-96400D03*
X46700Y-96400D03*
X47700Y-96400D03*
X48700Y-96400D03*
X49700Y-96400D03*
X50700Y-96400D03*
X51700Y-96400D03*
X52700Y-96400D03*
X53700Y-96400D03*
X54700Y-96400D03*
X55700Y-96400D03*
X56700Y-96400D03*
G54D25*
X45875Y-12700D03*
X44125Y-12700D03*
X46375Y-13700D03*
X43625Y-13700D03*
X39875Y-12700D03*
X38125Y-12700D03*
X40375Y-13700D03*
X37625Y-13700D03*
X33875Y-12700D03*
X32125Y-12700D03*
X34375Y-13700D03*
X31625Y-13700D03*
X23075Y-12700D03*
X21325Y-12700D03*
X23575Y-13700D03*
X20825Y-13700D03*
X51875Y-12700D03*
X50125Y-12700D03*
X52375Y-13700D03*
X49625Y-13700D03*
X37700Y-97500D03*
G54D22*
X27150Y-21750D03*
G54D26*
X72500Y-11500D03*
X11500Y-11500D03*
X11500Y-98500D03*
X72500Y-98500D03*
X12000Y-25000D03*
X72000Y-25000D03*
G54D27*
X66450Y-88800D03*
G54D19*
X67450Y-88800D03*
X35400Y-98500D03*
X35400Y-97500D03*
X41800Y-18100D03*
X42800Y-18100D03*
G54D20*
X16350Y-24750D03*
G54D21*
X17350Y-24750D03*
X18350Y-24750D03*
X19350Y-24750D03*
X20350Y-24750D03*
X21350Y-24750D03*
X22350Y-24750D03*
X23350Y-24750D03*
X24350Y-24750D03*
X25350Y-24750D03*
X26350Y-24750D03*
X27350Y-24750D03*
X27350Y-18750D03*
X26350Y-18750D03*
X25350Y-18750D03*
X24350Y-18750D03*
X23350Y-18750D03*
X22350Y-18750D03*
X21350Y-18750D03*
X20350Y-18750D03*
X19350Y-18750D03*
X18350Y-18750D03*
X17350Y-18750D03*
X16350Y-18750D03*
G54D26*
X72000Y-85000D03*
G54D19*
X68650Y-20050D03*
X68650Y-22050D03*
G54D28*
X59250Y-18550D03*
X67550Y-18550D03*
G54D29*
X61375Y-20275D03*
X61375Y-19775D03*
X61375Y-19275D03*
X61375Y-18775D03*
X61375Y-18275D03*
X61375Y-17775D03*
X61375Y-17275D03*
X61375Y-16775D03*
X65375Y-16775D03*
X65375Y-17275D03*
X65375Y-17775D03*
X65375Y-18275D03*
X65375Y-18775D03*
X65375Y-19275D03*
X65375Y-19775D03*
X65375Y-20275D03*
G54D19*
X34425Y-91600D03*
X34425Y-90600D03*
X30375Y-91600D03*
X30375Y-90600D03*
G54D20*
X16350Y-23250D03*
G54D21*
X17350Y-23250D03*
X18350Y-23250D03*
X19350Y-23250D03*
X20350Y-23250D03*
X21350Y-23250D03*
X22350Y-23250D03*
X23350Y-23250D03*
X23350Y-20250D03*
X22350Y-20250D03*
X21350Y-20250D03*
X20350Y-20250D03*
X19350Y-20250D03*
X18350Y-20250D03*
X17350Y-20250D03*
X16350Y-20250D03*
G54D24*
X14600Y-15600D03*
X15600Y-11600D03*
X16600Y-15600D03*
X15600Y-15600D03*
X14600Y-14600D03*
X16600Y-14600D03*
X15600Y-14600D03*
X15600Y-16600D03*
X16600Y-13600D03*
X14600Y-13600D03*
X15600Y-13600D03*
X15600Y-12600D03*
X14600Y-12600D03*
X16600Y-12600D03*
X15600Y-17600D03*
X15600Y-10600D03*
X14600Y-10600D03*
X16600Y-17600D03*
X16600Y-10600D03*
X14600Y-17600D03*
G54D26*
X12000Y-85000D03*
G54D19*
X58525Y-19900D03*
X55525Y-19900D03*
X58525Y-21100D03*
X55525Y-21100D03*
X57750Y-16400D03*
X54750Y-16400D03*
X13350Y-20600D03*
X13350Y-17600D03*
X48725Y-12700D03*
X48725Y-15700D03*
X42000Y-97500D03*
X39000Y-97500D03*
X42725Y-12700D03*
X42725Y-15700D03*
X36725Y-12700D03*
X36725Y-15700D03*
X30725Y-12700D03*
X30725Y-15700D03*
X42000Y-98700D03*
X39000Y-98700D03*
X38400Y-91600D03*
X41400Y-91600D03*
X32400Y-98500D03*
X29400Y-98500D03*
X40500Y-16600D03*
X40500Y-19600D03*
X38575Y-23600D03*
X35575Y-23600D03*
X33500Y-23525D03*
X30500Y-23525D03*
X33500Y-24450D03*
X30500Y-24450D03*
G54D30*
X27000Y-99000D03*
G54D31*
X26000Y-99000D03*
X27000Y-98000D03*
X26000Y-98000D03*
X27000Y-97000D03*
X26000Y-97000D03*
G54D30*
X24000Y-97000D03*
G54D31*
X23000Y-97000D03*
X22000Y-97000D03*
G54D30*
X24000Y-95000D03*
G54D31*
X23000Y-95000D03*
X22000Y-95000D03*
G54D23*
X15000Y-95000D03*
G54D24*
X16000Y-95000D03*
X17000Y-95000D03*
X18000Y-95000D03*
X19000Y-95000D03*
X20000Y-95000D03*
G54D23*
X14000Y-88500D03*
G54D24*
X14000Y-89500D03*
X14000Y-90500D03*
X14000Y-91500D03*
G54D30*
X59625Y-98300D03*
G54D31*
X58625Y-98300D03*
X57625Y-98300D03*
G54D24*
X72600Y-91500D03*
X72600Y-90500D03*
X72600Y-89500D03*
G54D23*
X72600Y-88500D03*
X27050Y-12450D03*
G54D24*
X28050Y-12450D03*
G54D23*
X48350Y-17750D03*
G54D24*
X49350Y-17750D03*
X50350Y-17750D03*
X51350Y-17750D03*
X52350Y-17750D03*
X53350Y-17750D03*
X54350Y-17750D03*
X55350Y-17750D03*
G54D23*
X61875Y-23675D03*
G54D24*
X62875Y-23675D03*
X63875Y-23675D03*
X64875Y-23675D03*
G54D23*
X64875Y-14675D03*
G54D24*
X63875Y-14675D03*
X62875Y-14675D03*
X61875Y-14675D03*
G54D23*
X64875Y-12275D03*
G54D24*
X63875Y-12275D03*
X62875Y-12275D03*
X61875Y-12275D03*
G54D19*
X68350Y-86000D03*
X68350Y-85000D03*
X68350Y-84000D03*
X67350Y-85000D03*
X65150Y-86000D03*
X65150Y-85000D03*
X65150Y-84000D03*
X64150Y-85000D03*
X61800Y-86000D03*
X61800Y-85000D03*
X61800Y-84000D03*
X60800Y-85000D03*
X58200Y-86000D03*
X58200Y-85000D03*
X58200Y-84000D03*
X57200Y-85000D03*
X54600Y-86000D03*
X54600Y-85000D03*
X54600Y-84000D03*
X53600Y-85000D03*
X51000Y-86000D03*
X51000Y-85000D03*
X51000Y-84000D03*
X50000Y-85000D03*
X47400Y-86000D03*
X47400Y-85000D03*
X47400Y-84000D03*
X46400Y-85000D03*
X43800Y-86000D03*
X43800Y-85000D03*
X43800Y-84000D03*
X42800Y-85000D03*
X40200Y-86000D03*
X40200Y-85000D03*
X40200Y-84000D03*
X39200Y-85000D03*
X36600Y-86000D03*
X36600Y-85000D03*
X36600Y-84000D03*
X35600Y-85000D03*
X33000Y-86000D03*
X33000Y-85000D03*
X33000Y-84000D03*
X32000Y-85000D03*
X29400Y-86000D03*
X29400Y-85000D03*
X29400Y-84000D03*
X28400Y-85000D03*
X25800Y-86000D03*
X25800Y-85000D03*
X25800Y-84000D03*
X24800Y-85000D03*
X22200Y-86000D03*
X22200Y-85000D03*
X22200Y-84000D03*
X21200Y-85000D03*
X19000Y-86000D03*
X19000Y-85000D03*
X19000Y-84000D03*
X18000Y-85000D03*
X16600Y-86000D03*
X16600Y-85000D03*
X16600Y-84000D03*
X15600Y-85000D03*
X30500Y-17550D03*
X30500Y-18550D03*
X30500Y-19550D03*
X31500Y-18550D03*
X20150Y-87075D03*
X19150Y-87075D03*
X20150Y-86000D03*
X20150Y-85000D03*
X23500Y-86000D03*
X23500Y-85000D03*
X27100Y-86000D03*
X27100Y-85000D03*
X30700Y-86000D03*
X30700Y-85000D03*
X34300Y-86000D03*
X34300Y-85000D03*
X37900Y-86000D03*
X37900Y-85000D03*
X41500Y-86000D03*
X41500Y-85000D03*
X45100Y-86000D03*
X45100Y-85000D03*
X48700Y-86000D03*
X48700Y-85000D03*
X52300Y-86000D03*
X52300Y-85000D03*
X55900Y-86000D03*
X55900Y-85000D03*
X59500Y-86000D03*
X59500Y-85000D03*
X62950Y-86000D03*
X62950Y-85000D03*
X66300Y-86000D03*
X66300Y-85000D03*
X66300Y-87000D03*
X67300Y-87000D03*
G54D32*
X67500Y-79500D03*
X68500Y-79500D03*
X63500Y-79500D03*
X64500Y-79500D03*
X59500Y-79500D03*
X60500Y-79500D03*
X55500Y-79500D03*
X56500Y-79500D03*
X51500Y-79500D03*
X52500Y-79500D03*
X47500Y-79500D03*
X48500Y-79500D03*
X43500Y-79500D03*
X44500Y-79500D03*
X39500Y-79500D03*
X40500Y-79500D03*
X35500Y-79500D03*
X36500Y-79500D03*
X31500Y-79500D03*
X32500Y-79500D03*
X27500Y-79500D03*
X28500Y-79500D03*
X23500Y-79500D03*
X24500Y-79500D03*
X19500Y-79500D03*
X20500Y-79500D03*
X15500Y-79500D03*
X16500Y-79500D03*
X11500Y-79500D03*
X12500Y-79500D03*
X71500Y-72500D03*
X72500Y-72500D03*
X67500Y-72500D03*
X68500Y-72500D03*
X63500Y-72500D03*
X64500Y-72500D03*
X59500Y-72500D03*
X60500Y-72500D03*
X55500Y-72500D03*
X56500Y-72500D03*
X51500Y-72500D03*
X52500Y-72500D03*
X47500Y-72500D03*
X48500Y-72500D03*
X43500Y-72500D03*
X44500Y-72500D03*
X39500Y-72500D03*
X40500Y-72500D03*
X35500Y-72500D03*
X36500Y-72500D03*
X31500Y-72500D03*
X32500Y-72500D03*
X27500Y-72500D03*
X28500Y-72500D03*
X23500Y-72500D03*
X24500Y-72500D03*
X19500Y-72500D03*
X20500Y-72500D03*
X15500Y-72500D03*
X16500Y-72500D03*
X11500Y-72500D03*
X12500Y-72500D03*
X71500Y-65500D03*
X72500Y-65500D03*
X67500Y-65500D03*
X68500Y-65500D03*
X63500Y-65500D03*
X64500Y-65500D03*
X59500Y-65500D03*
X60500Y-65500D03*
X55500Y-65500D03*
X56500Y-65500D03*
X51500Y-65500D03*
X52500Y-65500D03*
X47500Y-65500D03*
X48500Y-65500D03*
X43500Y-65500D03*
X44500Y-65500D03*
X39500Y-65500D03*
X40500Y-65500D03*
X35500Y-65500D03*
X36500Y-65500D03*
X31500Y-65500D03*
X32500Y-65500D03*
X27500Y-65500D03*
X28500Y-65500D03*
X23500Y-65500D03*
X24500Y-65500D03*
X19500Y-65500D03*
X20500Y-65500D03*
X15500Y-65500D03*
X16500Y-65500D03*
X11500Y-65500D03*
X12500Y-65500D03*
X71500Y-58500D03*
X72500Y-58500D03*
X67500Y-58500D03*
X68500Y-58500D03*
X63500Y-58500D03*
X64500Y-58500D03*
X59500Y-58500D03*
X60500Y-58500D03*
X55500Y-58500D03*
X56500Y-58500D03*
X51500Y-58500D03*
X52500Y-58500D03*
X47500Y-58500D03*
X48500Y-58500D03*
X43500Y-58500D03*
X44500Y-58500D03*
X39500Y-58500D03*
X40500Y-58500D03*
X35500Y-58500D03*
X36500Y-58500D03*
X31500Y-58500D03*
X32500Y-58500D03*
X27500Y-58500D03*
X28500Y-58500D03*
X23500Y-58500D03*
X24500Y-58500D03*
X71500Y-79500D03*
X72500Y-79500D03*
X15500Y-58500D03*
X16500Y-58500D03*
X11500Y-58500D03*
X12500Y-58500D03*
X71500Y-51500D03*
X72500Y-51500D03*
X67500Y-51500D03*
X68500Y-51500D03*
X63500Y-51500D03*
X64500Y-51500D03*
X59500Y-51500D03*
X60500Y-51500D03*
X55500Y-51500D03*
X56500Y-51500D03*
X51500Y-51500D03*
X52500Y-51500D03*
X47500Y-51500D03*
X48500Y-51500D03*
X43500Y-51500D03*
X44500Y-51500D03*
X39500Y-51500D03*
X40500Y-51500D03*
X35500Y-51500D03*
X36500Y-51500D03*
X31500Y-51500D03*
X32500Y-51500D03*
X27500Y-51500D03*
X28500Y-51500D03*
X23500Y-51500D03*
X24500Y-51500D03*
X19500Y-51500D03*
X20500Y-51500D03*
X15500Y-51500D03*
X16500Y-51500D03*
X11500Y-51500D03*
X12500Y-51500D03*
X71500Y-44500D03*
X72500Y-44500D03*
X67500Y-44500D03*
X68500Y-44500D03*
X63500Y-44500D03*
X64500Y-44500D03*
X59500Y-44500D03*
X60500Y-44500D03*
X55500Y-44500D03*
X56500Y-44500D03*
X51500Y-44500D03*
X52500Y-44500D03*
X47500Y-44500D03*
X48500Y-44500D03*
X43500Y-44500D03*
X44500Y-44500D03*
X39500Y-44500D03*
X40500Y-44500D03*
X35500Y-44500D03*
X36500Y-44500D03*
X31500Y-44500D03*
X32500Y-44500D03*
X27500Y-44500D03*
X28500Y-44500D03*
X23500Y-44500D03*
X24500Y-44500D03*
X19500Y-44500D03*
X20500Y-44500D03*
X15500Y-44500D03*
X16500Y-44500D03*
X11500Y-44500D03*
X12500Y-44500D03*
X71500Y-37500D03*
X72500Y-37500D03*
X67500Y-37500D03*
X68500Y-37500D03*
X63500Y-37500D03*
X64500Y-37500D03*
X59500Y-37500D03*
X60500Y-37500D03*
X55500Y-37500D03*
X56500Y-37500D03*
X51500Y-37500D03*
X52500Y-37500D03*
X47500Y-37500D03*
X48500Y-37500D03*
X43500Y-37500D03*
X44500Y-37500D03*
X39500Y-37500D03*
X40500Y-37500D03*
X35500Y-37500D03*
X36500Y-37500D03*
X31500Y-37500D03*
X32500Y-37500D03*
X27500Y-37500D03*
X28500Y-37500D03*
X23500Y-37500D03*
X24500Y-37500D03*
X19500Y-37500D03*
X20500Y-37500D03*
X15500Y-37500D03*
X16500Y-37500D03*
X11500Y-37500D03*
X12500Y-37500D03*
X71500Y-30500D03*
X72500Y-30500D03*
X67500Y-30500D03*
X68500Y-30500D03*
X63500Y-30500D03*
X64500Y-30500D03*
X59500Y-30500D03*
X60500Y-30500D03*
X55500Y-30500D03*
X56500Y-30500D03*
X51500Y-30500D03*
X52500Y-30500D03*
X47500Y-30500D03*
X48500Y-30500D03*
X43500Y-30500D03*
X44500Y-30500D03*
X39500Y-30500D03*
X40500Y-30500D03*
X35500Y-30500D03*
X36500Y-30500D03*
X31500Y-30500D03*
X32500Y-30500D03*
X27500Y-30500D03*
X28500Y-30500D03*
X19500Y-58500D03*
X20500Y-58500D03*
X11500Y-30500D03*
X12500Y-30500D03*
X15500Y-30500D03*
X16500Y-30500D03*
X19500Y-30500D03*
X20500Y-30500D03*
X23500Y-30500D03*
X24500Y-30500D03*
G54D33*
X52275Y-93275D03*
X52275Y-92775D03*
X52275Y-92275D03*
G54D25*
X36000Y-20500D03*
X36000Y-17500D03*
X36000Y-18500D03*
X36000Y-21500D03*
G54D19*
X33500Y-22625D03*
X30500Y-22625D03*
G54D34*
X69380Y-94110D03*
X69380Y-95490D03*
G54D25*
X45875Y-15250D03*
X44125Y-15250D03*
X39875Y-15250D03*
X38125Y-15250D03*
X33875Y-15250D03*
X32125Y-15250D03*
X23075Y-15250D03*
X21325Y-15250D03*
X51875Y-15250D03*
X50125Y-15250D03*
M02*
