G04 (created by PCBNEW-RS274X (2011-07-08 BZR 3044)-stable) date 12/15/2011 6:01:31 PM*
G01*
G70*
G90*
%MOIN*%
G04 Gerber Fmt 3.4, Leading zero omitted, Abs format*
%FSLAX34Y34*%
G04 APERTURE LIST*
%ADD10C,0.006000*%
%ADD11C,0.015000*%
%ADD12C,0.180000*%
%ADD13R,0.180000X0.180000*%
%ADD14O,0.120000X0.220000*%
%ADD15C,0.060000*%
%ADD16R,0.050000X0.080000*%
%ADD17O,0.050000X0.080000*%
%ADD18C,0.200000*%
%ADD19R,0.070000X0.070000*%
%ADD20C,0.070000*%
%ADD21C,0.080000*%
%ADD22C,0.240000*%
%ADD23R,0.060000X0.060000*%
%ADD24C,0.250000*%
%ADD25R,0.065000X0.065000*%
%ADD26C,0.065000*%
%ADD27O,0.060000X0.100000*%
%ADD28R,0.078700X0.019600*%
%ADD29O,0.100000X0.080000*%
%ADD30C,0.050000*%
%ADD31C,0.056000*%
%ADD32O,0.050000X0.100000*%
%ADD33C,0.130000*%
%ADD34C,0.008000*%
%ADD35C,0.020000*%
G04 APERTURE END LIST*
G54D10*
G54D11*
X10000Y-100000D02*
X10000Y-10000D01*
X74000Y-100000D02*
X10000Y-100000D01*
X74000Y-10000D02*
X74000Y-100000D01*
X10000Y-10000D02*
X74000Y-10000D01*
G54D12*
X62550Y-90900D03*
G54D13*
X62550Y-88500D03*
G54D14*
X64550Y-89650D03*
G54D15*
X33400Y-91600D03*
X31400Y-91600D03*
X32400Y-91600D03*
X70300Y-89500D03*
X70300Y-91500D03*
X20000Y-91450D03*
X20000Y-93450D03*
X59000Y-92400D03*
X59000Y-94400D03*
X37450Y-91600D03*
X35450Y-91600D03*
G54D16*
X41400Y-93000D03*
G54D17*
X40400Y-93000D03*
X39400Y-93000D03*
X38400Y-93000D03*
X37400Y-93000D03*
X36400Y-93000D03*
X35400Y-93000D03*
X34400Y-93000D03*
X33400Y-93000D03*
X32400Y-93000D03*
X31400Y-93000D03*
X30400Y-93000D03*
X29400Y-93000D03*
X28400Y-93000D03*
X28400Y-96000D03*
X29400Y-96000D03*
X30400Y-96000D03*
X31400Y-96000D03*
X32400Y-96000D03*
X33400Y-96000D03*
X34400Y-96000D03*
X35400Y-96000D03*
X36400Y-96000D03*
X37400Y-96000D03*
X38400Y-96000D03*
X39400Y-96000D03*
X40400Y-96000D03*
X41400Y-96000D03*
G54D18*
X58875Y-23675D03*
X67875Y-23675D03*
X58875Y-14675D03*
X67875Y-14675D03*
G54D19*
X44225Y-21500D03*
G54D20*
X44225Y-20500D03*
X44225Y-19500D03*
X43225Y-19500D03*
X43225Y-20500D03*
X43225Y-21500D03*
G54D19*
X46225Y-21500D03*
G54D20*
X46225Y-20500D03*
X46225Y-19500D03*
X45225Y-19500D03*
X45225Y-20500D03*
X45225Y-21500D03*
G54D19*
X48225Y-21500D03*
G54D20*
X48225Y-20500D03*
X48225Y-19500D03*
X47225Y-19500D03*
X47225Y-20500D03*
X47225Y-21500D03*
G54D19*
X50225Y-21500D03*
G54D20*
X50225Y-20500D03*
X50225Y-19500D03*
X49225Y-19500D03*
X49225Y-20500D03*
X49225Y-21500D03*
G54D19*
X52225Y-21500D03*
G54D20*
X52225Y-20500D03*
X52225Y-19500D03*
X51225Y-19500D03*
X51225Y-20500D03*
X51225Y-21500D03*
G54D19*
X54225Y-21500D03*
G54D20*
X54225Y-20500D03*
X54225Y-19500D03*
X53225Y-19500D03*
X53225Y-20500D03*
X53225Y-21500D03*
G54D19*
X43225Y-24500D03*
G54D20*
X43225Y-25500D03*
X43225Y-26500D03*
X44225Y-26500D03*
X44225Y-25500D03*
X44225Y-24500D03*
G54D19*
X45225Y-24500D03*
G54D20*
X45225Y-25500D03*
X45225Y-26500D03*
X46225Y-26500D03*
X46225Y-25500D03*
X46225Y-24500D03*
G54D19*
X47225Y-24500D03*
G54D20*
X47225Y-25500D03*
X47225Y-26500D03*
X48225Y-26500D03*
X48225Y-25500D03*
X48225Y-24500D03*
G54D19*
X49225Y-24500D03*
G54D20*
X49225Y-25500D03*
X49225Y-26500D03*
X50225Y-26500D03*
X50225Y-25500D03*
X50225Y-24500D03*
G54D19*
X51225Y-24500D03*
G54D20*
X51225Y-25500D03*
X51225Y-26500D03*
X52225Y-26500D03*
X52225Y-25500D03*
X52225Y-24500D03*
G54D19*
X53225Y-24500D03*
G54D20*
X53225Y-25500D03*
X53225Y-26500D03*
X54225Y-26500D03*
X54225Y-25500D03*
X54225Y-24500D03*
G54D19*
X43225Y-23500D03*
G54D20*
X44225Y-23500D03*
X45225Y-23500D03*
X45225Y-22500D03*
X44225Y-22500D03*
X43225Y-22500D03*
G54D19*
X46225Y-23500D03*
G54D20*
X47225Y-23500D03*
X48225Y-23500D03*
X48225Y-22500D03*
X47225Y-22500D03*
X46225Y-22500D03*
G54D19*
X49225Y-23500D03*
G54D20*
X50225Y-23500D03*
X51225Y-23500D03*
X51225Y-22500D03*
X50225Y-22500D03*
X49225Y-22500D03*
G54D19*
X52225Y-23500D03*
G54D20*
X53225Y-23500D03*
X54225Y-23500D03*
X54225Y-22500D03*
X53225Y-22500D03*
X52225Y-22500D03*
G54D16*
X56700Y-90400D03*
G54D17*
X55700Y-90400D03*
X54700Y-90400D03*
X53700Y-90400D03*
X52700Y-90400D03*
X51700Y-90400D03*
X50700Y-90400D03*
X49700Y-90400D03*
X48700Y-90400D03*
X47700Y-90400D03*
X46700Y-90400D03*
X45700Y-90400D03*
X45700Y-96400D03*
X46700Y-96400D03*
X47700Y-96400D03*
X48700Y-96400D03*
X49700Y-96400D03*
X50700Y-96400D03*
X51700Y-96400D03*
X52700Y-96400D03*
X53700Y-96400D03*
X54700Y-96400D03*
X55700Y-96400D03*
X56700Y-96400D03*
G54D21*
X45875Y-12700D03*
X44125Y-12700D03*
X46375Y-13700D03*
X43625Y-13700D03*
X39875Y-12700D03*
X38125Y-12700D03*
X40375Y-13700D03*
X37625Y-13700D03*
X33875Y-12700D03*
X32125Y-12700D03*
X34375Y-13700D03*
X31625Y-13700D03*
X23075Y-12700D03*
X21325Y-12700D03*
X23575Y-13700D03*
X20825Y-13700D03*
X51875Y-12700D03*
X50125Y-12700D03*
X52375Y-13700D03*
X49625Y-13700D03*
X37700Y-97500D03*
G54D18*
X26150Y-21750D03*
G54D22*
X72500Y-11500D03*
X11500Y-11500D03*
X11500Y-98500D03*
X72500Y-98500D03*
X12000Y-25000D03*
X72000Y-25000D03*
G54D23*
X66450Y-88425D03*
G54D15*
X67450Y-88425D03*
X35400Y-98500D03*
X35400Y-97500D03*
X41800Y-18100D03*
X42800Y-18100D03*
G54D16*
X15350Y-24750D03*
G54D17*
X16350Y-24750D03*
X17350Y-24750D03*
X18350Y-24750D03*
X19350Y-24750D03*
X20350Y-24750D03*
X21350Y-24750D03*
X22350Y-24750D03*
X23350Y-24750D03*
X24350Y-24750D03*
X25350Y-24750D03*
X26350Y-24750D03*
X26350Y-18750D03*
X25350Y-18750D03*
X24350Y-18750D03*
X23350Y-18750D03*
X22350Y-18750D03*
X21350Y-18750D03*
X20350Y-18750D03*
X19350Y-18750D03*
X18350Y-18750D03*
X17350Y-18750D03*
X16350Y-18750D03*
X15350Y-18750D03*
G54D22*
X72000Y-85000D03*
G54D15*
X68650Y-20050D03*
X68650Y-22050D03*
G54D24*
X63400Y-18550D03*
G54D15*
X34425Y-91600D03*
X34425Y-90600D03*
X30375Y-91600D03*
X30375Y-90600D03*
G54D16*
X15350Y-23250D03*
G54D17*
X16350Y-23250D03*
X17350Y-23250D03*
X18350Y-23250D03*
X19350Y-23250D03*
X20350Y-23250D03*
X21350Y-23250D03*
X22350Y-23250D03*
X22350Y-20250D03*
X21350Y-20250D03*
X20350Y-20250D03*
X19350Y-20250D03*
X18350Y-20250D03*
X17350Y-20250D03*
X16350Y-20250D03*
X15350Y-20250D03*
G54D20*
X14600Y-15600D03*
X15600Y-11600D03*
X16600Y-15600D03*
X15600Y-15600D03*
X14600Y-14600D03*
X16600Y-14600D03*
X15600Y-14600D03*
X15600Y-16600D03*
X16600Y-13600D03*
X14600Y-13600D03*
X15600Y-13600D03*
X15600Y-12600D03*
X14600Y-12600D03*
X16600Y-12600D03*
X15600Y-17600D03*
X15600Y-10600D03*
X14600Y-10600D03*
X16600Y-17600D03*
X16600Y-10600D03*
X14600Y-17600D03*
G54D22*
X12000Y-85000D03*
G54D15*
X58525Y-19900D03*
X55525Y-19900D03*
X58525Y-21100D03*
X55525Y-21100D03*
X57750Y-16400D03*
X54750Y-16400D03*
X13350Y-20600D03*
X13350Y-17600D03*
X49500Y-15700D03*
X52500Y-15700D03*
X42000Y-97500D03*
X39000Y-97500D03*
X43500Y-15700D03*
X46500Y-15700D03*
X37500Y-15700D03*
X40500Y-15700D03*
X31500Y-15700D03*
X34500Y-15700D03*
X42000Y-98700D03*
X39000Y-98700D03*
X38400Y-91600D03*
X41400Y-91600D03*
X32400Y-98500D03*
X29400Y-98500D03*
X40500Y-16600D03*
X40500Y-19600D03*
X38575Y-23600D03*
X35575Y-23600D03*
X33500Y-23275D03*
X30500Y-23275D03*
X33500Y-24200D03*
X30500Y-24200D03*
G54D25*
X27000Y-99000D03*
G54D26*
X26000Y-99000D03*
X27000Y-98000D03*
X26000Y-98000D03*
X27000Y-97000D03*
X26000Y-97000D03*
G54D25*
X24000Y-97000D03*
G54D26*
X23000Y-97000D03*
X22000Y-97000D03*
G54D25*
X24000Y-95000D03*
G54D26*
X23000Y-95000D03*
X22000Y-95000D03*
G54D19*
X15000Y-95000D03*
G54D20*
X16000Y-95000D03*
X17000Y-95000D03*
X18000Y-95000D03*
X19000Y-95000D03*
X20000Y-95000D03*
G54D19*
X14000Y-88500D03*
G54D20*
X14000Y-89500D03*
X14000Y-90500D03*
X14000Y-91500D03*
G54D25*
X59625Y-98300D03*
G54D26*
X58625Y-98300D03*
X57625Y-98300D03*
G54D20*
X72600Y-91500D03*
X72600Y-90500D03*
X72600Y-89500D03*
G54D19*
X72600Y-88500D03*
X27050Y-12450D03*
G54D20*
X28050Y-12450D03*
G54D19*
X48350Y-17750D03*
G54D20*
X49350Y-17750D03*
X50350Y-17750D03*
X51350Y-17750D03*
X52350Y-17750D03*
X53350Y-17750D03*
X54350Y-17750D03*
X55350Y-17750D03*
G54D19*
X64875Y-12275D03*
G54D20*
X63875Y-12275D03*
X62875Y-12275D03*
X61875Y-12275D03*
G54D15*
X68350Y-86000D03*
X68350Y-85000D03*
X68350Y-84000D03*
X67350Y-85000D03*
X65150Y-86000D03*
X65150Y-85000D03*
X65150Y-84000D03*
X64150Y-85000D03*
X61800Y-86000D03*
X61800Y-85000D03*
X61800Y-84000D03*
X60800Y-85000D03*
X58200Y-86000D03*
X58200Y-85000D03*
X58200Y-84000D03*
X57200Y-85000D03*
X54600Y-86000D03*
X54600Y-85000D03*
X54600Y-84000D03*
X53600Y-85000D03*
X51000Y-86000D03*
X51000Y-85000D03*
X51000Y-84000D03*
X50000Y-85000D03*
X47400Y-86000D03*
X47400Y-85000D03*
X47400Y-84000D03*
X46400Y-85000D03*
X43800Y-86000D03*
X43800Y-85000D03*
X43800Y-84000D03*
X42800Y-85000D03*
X40200Y-86000D03*
X40200Y-85000D03*
X40200Y-84000D03*
X39200Y-85000D03*
X36600Y-86000D03*
X36600Y-85000D03*
X36600Y-84000D03*
X35600Y-85000D03*
X33000Y-86000D03*
X33000Y-85000D03*
X33000Y-84000D03*
X32000Y-85000D03*
X29400Y-86000D03*
X29400Y-85000D03*
X29400Y-84000D03*
X28400Y-85000D03*
X25800Y-86000D03*
X25800Y-85000D03*
X25800Y-84000D03*
X24800Y-85000D03*
X22200Y-86000D03*
X22200Y-85000D03*
X22200Y-84000D03*
X21200Y-85000D03*
X19000Y-86000D03*
X19000Y-85000D03*
X19000Y-84000D03*
X18000Y-85000D03*
X15800Y-86000D03*
X15800Y-85000D03*
X15800Y-84000D03*
X14800Y-85000D03*
X30500Y-17550D03*
X30500Y-18550D03*
X30500Y-19550D03*
X31500Y-18550D03*
X16950Y-86000D03*
X16950Y-85000D03*
X20150Y-86000D03*
X20150Y-85000D03*
X23500Y-86000D03*
X23500Y-85000D03*
X27100Y-86000D03*
X27100Y-85000D03*
X30700Y-86000D03*
X30700Y-85000D03*
X34300Y-86000D03*
X34300Y-85000D03*
X37900Y-86000D03*
X37900Y-85000D03*
X41500Y-86000D03*
X41500Y-85000D03*
X45100Y-86000D03*
X45100Y-85000D03*
X48700Y-86000D03*
X48700Y-85000D03*
X52300Y-86000D03*
X52300Y-85000D03*
X55900Y-86000D03*
X55900Y-85000D03*
X59500Y-86000D03*
X59500Y-85000D03*
X62950Y-86000D03*
X62950Y-85000D03*
X66300Y-86000D03*
X66300Y-85000D03*
X69500Y-86000D03*
X69500Y-85000D03*
G54D27*
X67500Y-79500D03*
X68500Y-79500D03*
X63500Y-79500D03*
X64500Y-79500D03*
X59500Y-79500D03*
X60500Y-79500D03*
X55500Y-79500D03*
X56500Y-79500D03*
X51500Y-79500D03*
X52500Y-79500D03*
X47500Y-79500D03*
X48500Y-79500D03*
X43500Y-79500D03*
X44500Y-79500D03*
X39500Y-79500D03*
X40500Y-79500D03*
X35500Y-79500D03*
X36500Y-79500D03*
X31500Y-79500D03*
X32500Y-79500D03*
X27500Y-79500D03*
X28500Y-79500D03*
X23500Y-79500D03*
X24500Y-79500D03*
X19500Y-79500D03*
X20500Y-79500D03*
X15500Y-79500D03*
X16500Y-79500D03*
X11500Y-79500D03*
X12500Y-79500D03*
X71500Y-72500D03*
X72500Y-72500D03*
X67500Y-72500D03*
X68500Y-72500D03*
X63500Y-72500D03*
X64500Y-72500D03*
X59500Y-72500D03*
X60500Y-72500D03*
X55500Y-72500D03*
X56500Y-72500D03*
X51500Y-72500D03*
X52500Y-72500D03*
X47500Y-72500D03*
X48500Y-72500D03*
X43500Y-72500D03*
X44500Y-72500D03*
X39500Y-72500D03*
X40500Y-72500D03*
X35500Y-72500D03*
X36500Y-72500D03*
X31500Y-72500D03*
X32500Y-72500D03*
X27500Y-72500D03*
X28500Y-72500D03*
X23500Y-72500D03*
X24500Y-72500D03*
X19500Y-72500D03*
X20500Y-72500D03*
X15500Y-72500D03*
X16500Y-72500D03*
X11500Y-72500D03*
X12500Y-72500D03*
X71500Y-65500D03*
X72500Y-65500D03*
X67500Y-65500D03*
X68500Y-65500D03*
X63500Y-65500D03*
X64500Y-65500D03*
X59500Y-65500D03*
X60500Y-65500D03*
X55500Y-65500D03*
X56500Y-65500D03*
X51500Y-65500D03*
X52500Y-65500D03*
X47500Y-65500D03*
X48500Y-65500D03*
X43500Y-65500D03*
X44500Y-65500D03*
X39500Y-65500D03*
X40500Y-65500D03*
X35500Y-65500D03*
X36500Y-65500D03*
X31500Y-65500D03*
X32500Y-65500D03*
X27500Y-65500D03*
X28500Y-65500D03*
X23500Y-65500D03*
X24500Y-65500D03*
X19500Y-65500D03*
X20500Y-65500D03*
X15500Y-65500D03*
X16500Y-65500D03*
X11500Y-65500D03*
X12500Y-65500D03*
X71500Y-58500D03*
X72500Y-58500D03*
X67500Y-58500D03*
X68500Y-58500D03*
X63500Y-58500D03*
X64500Y-58500D03*
X59500Y-58500D03*
X60500Y-58500D03*
X55500Y-58500D03*
X56500Y-58500D03*
X51500Y-58500D03*
X52500Y-58500D03*
X47500Y-58500D03*
X48500Y-58500D03*
X43500Y-58500D03*
X44500Y-58500D03*
X39500Y-58500D03*
X40500Y-58500D03*
X35500Y-58500D03*
X36500Y-58500D03*
X31500Y-58500D03*
X32500Y-58500D03*
X27500Y-58500D03*
X28500Y-58500D03*
X23500Y-58500D03*
X24500Y-58500D03*
X71500Y-79500D03*
X72500Y-79500D03*
X15500Y-58500D03*
X16500Y-58500D03*
X11500Y-58500D03*
X12500Y-58500D03*
X71500Y-51500D03*
X72500Y-51500D03*
X67500Y-51500D03*
X68500Y-51500D03*
X63500Y-51500D03*
X64500Y-51500D03*
X59500Y-51500D03*
X60500Y-51500D03*
X55500Y-51500D03*
X56500Y-51500D03*
X51500Y-51500D03*
X52500Y-51500D03*
X47500Y-51500D03*
X48500Y-51500D03*
X43500Y-51500D03*
X44500Y-51500D03*
X39500Y-51500D03*
X40500Y-51500D03*
X35500Y-51500D03*
X36500Y-51500D03*
X31500Y-51500D03*
X32500Y-51500D03*
X27500Y-51500D03*
X28500Y-51500D03*
X23500Y-51500D03*
X24500Y-51500D03*
X19500Y-51500D03*
X20500Y-51500D03*
X15500Y-51500D03*
X16500Y-51500D03*
X11500Y-51500D03*
X12500Y-51500D03*
X71500Y-44500D03*
X72500Y-44500D03*
X67500Y-44500D03*
X68500Y-44500D03*
X63500Y-44500D03*
X64500Y-44500D03*
X59500Y-44500D03*
X60500Y-44500D03*
X55500Y-44500D03*
X56500Y-44500D03*
X51500Y-44500D03*
X52500Y-44500D03*
X47500Y-44500D03*
X48500Y-44500D03*
X43500Y-44500D03*
X44500Y-44500D03*
X39500Y-44500D03*
X40500Y-44500D03*
X35500Y-44500D03*
X36500Y-44500D03*
X31500Y-44500D03*
X32500Y-44500D03*
X27500Y-44500D03*
X28500Y-44500D03*
X23500Y-44500D03*
X24500Y-44500D03*
X19500Y-44500D03*
X20500Y-44500D03*
X15500Y-44500D03*
X16500Y-44500D03*
X11500Y-44500D03*
X12500Y-44500D03*
X71500Y-37500D03*
X72500Y-37500D03*
X67500Y-37500D03*
X68500Y-37500D03*
X63500Y-37500D03*
X64500Y-37500D03*
X59500Y-37500D03*
X60500Y-37500D03*
X55500Y-37500D03*
X56500Y-37500D03*
X51500Y-37500D03*
X52500Y-37500D03*
X47500Y-37500D03*
X48500Y-37500D03*
X43500Y-37500D03*
X44500Y-37500D03*
X39500Y-37500D03*
X40500Y-37500D03*
X35500Y-37500D03*
X36500Y-37500D03*
X31500Y-37500D03*
X32500Y-37500D03*
X27500Y-37500D03*
X28500Y-37500D03*
X23500Y-37500D03*
X24500Y-37500D03*
X19500Y-37500D03*
X20500Y-37500D03*
X15500Y-37500D03*
X16500Y-37500D03*
X11500Y-37500D03*
X12500Y-37500D03*
X71500Y-30500D03*
X72500Y-30500D03*
X67500Y-30500D03*
X68500Y-30500D03*
X63500Y-30500D03*
X64500Y-30500D03*
X59500Y-30500D03*
X60500Y-30500D03*
X55500Y-30500D03*
X56500Y-30500D03*
X51500Y-30500D03*
X52500Y-30500D03*
X47500Y-30500D03*
X48500Y-30500D03*
X43500Y-30500D03*
X44500Y-30500D03*
X39500Y-30500D03*
X40500Y-30500D03*
X35500Y-30500D03*
X36500Y-30500D03*
X31500Y-30500D03*
X32500Y-30500D03*
X27500Y-30500D03*
X28500Y-30500D03*
X19500Y-58500D03*
X20500Y-58500D03*
X11500Y-30500D03*
X12500Y-30500D03*
X15500Y-30500D03*
X16500Y-30500D03*
X19500Y-30500D03*
X20500Y-30500D03*
X23500Y-30500D03*
X24500Y-30500D03*
G54D28*
X68495Y-95429D03*
X68495Y-95114D03*
X68495Y-94800D03*
X68495Y-94486D03*
X68495Y-94171D03*
G54D29*
X70680Y-93363D03*
X70680Y-96237D03*
X68593Y-96237D03*
X68593Y-93363D03*
G54D30*
X69380Y-94110D03*
X69380Y-95490D03*
G54D31*
X66750Y-95292D03*
X65970Y-95292D03*
G54D32*
X66750Y-94308D03*
G54D33*
X67820Y-92430D03*
X67820Y-97170D03*
G54D32*
X65970Y-94308D03*
G54D21*
X36000Y-20500D03*
X36000Y-17500D03*
X36000Y-18500D03*
X36000Y-21500D03*
G54D15*
X33500Y-22375D03*
X30500Y-22375D03*
G54D30*
X42200Y-90925D03*
X38725Y-25675D03*
X49800Y-11025D03*
X39325Y-16650D03*
X37025Y-25450D03*
X37025Y-23600D03*
X42200Y-92200D03*
X34275Y-19300D03*
X34850Y-26850D03*
X31725Y-26850D03*
X57850Y-27100D03*
X47200Y-95525D03*
X47200Y-93275D03*
X25400Y-95075D03*
X28250Y-88450D03*
X41400Y-89150D03*
X28250Y-91450D03*
X26500Y-91450D03*
X70400Y-25975D03*
X62875Y-24925D03*
X60800Y-96650D03*
X61325Y-97125D03*
X61875Y-24925D03*
X69925Y-26450D03*
X19000Y-93275D03*
X69350Y-82900D03*
X40500Y-28375D03*
X69350Y-28375D03*
X13200Y-27550D03*
X13800Y-28000D03*
X14350Y-28525D03*
X14900Y-28975D03*
X22200Y-28825D03*
X24850Y-23625D03*
X42725Y-90400D03*
X63375Y-18525D03*
X38550Y-89875D03*
X17325Y-89875D03*
X24000Y-92450D03*
G54D34*
X51700Y-97600D02*
X51700Y-96400D01*
X50975Y-98325D02*
X51700Y-97600D01*
X43750Y-98325D02*
X50975Y-98325D01*
X42250Y-96825D02*
X43750Y-98325D01*
X39575Y-96825D02*
X42250Y-96825D01*
X39400Y-96650D02*
X39575Y-96825D01*
X39400Y-96000D02*
X39400Y-96650D01*
X42200Y-90925D02*
X42200Y-91500D01*
X42200Y-91500D02*
X42700Y-92000D01*
X38725Y-25675D02*
X38275Y-25675D01*
X37500Y-24900D02*
X37500Y-15700D01*
X38275Y-25675D02*
X37500Y-24900D01*
X42700Y-94550D02*
X42700Y-92000D01*
X37400Y-96000D02*
X37400Y-95300D01*
X37400Y-95300D02*
X37875Y-94825D01*
X37875Y-94825D02*
X42425Y-94825D01*
X42425Y-94825D02*
X42700Y-94550D01*
X50125Y-11350D02*
X50125Y-12700D01*
X49800Y-11025D02*
X50125Y-11350D01*
X39325Y-16650D02*
X39325Y-14900D01*
X41850Y-14550D02*
X41850Y-13000D01*
X41850Y-13000D02*
X42150Y-12700D01*
X42150Y-12700D02*
X44125Y-12700D01*
X39325Y-14900D02*
X39500Y-14725D01*
X39500Y-14725D02*
X41675Y-14725D01*
X41675Y-14725D02*
X41850Y-14550D01*
X42200Y-92200D02*
X42200Y-94225D01*
X42200Y-94225D02*
X41900Y-94525D01*
X37025Y-23600D02*
X37025Y-25450D01*
X36400Y-96000D02*
X36400Y-94975D01*
X36850Y-94525D02*
X41900Y-94525D01*
X36400Y-94975D02*
X36850Y-94525D01*
X27050Y-16125D02*
X27050Y-12450D01*
X27700Y-16775D02*
X27050Y-16125D01*
X33850Y-16775D02*
X27700Y-16775D01*
X34300Y-17225D02*
X33850Y-16775D01*
X34300Y-19275D02*
X34300Y-17225D01*
X34275Y-19300D02*
X34300Y-19275D01*
X34850Y-26850D02*
X31725Y-26850D01*
X56550Y-17750D02*
X56825Y-18025D01*
X56825Y-18025D02*
X56825Y-26075D01*
X56825Y-26075D02*
X57850Y-27100D01*
X56550Y-17750D02*
X55350Y-17750D01*
X37700Y-97500D02*
X36775Y-97500D01*
X31325Y-98500D02*
X29400Y-98500D01*
X33000Y-96825D02*
X31325Y-98500D01*
X36100Y-96825D02*
X33000Y-96825D01*
X36775Y-97500D02*
X36100Y-96825D01*
X47200Y-95525D02*
X47200Y-93275D01*
X30400Y-96000D02*
X30400Y-95400D01*
X30075Y-95075D02*
X25400Y-95075D01*
X30400Y-95400D02*
X30075Y-95075D01*
X31725Y-88450D02*
X28250Y-88450D01*
X32025Y-88750D02*
X31725Y-88450D01*
X39675Y-88750D02*
X32025Y-88750D01*
X40075Y-89150D02*
X39675Y-88750D01*
X41400Y-89150D02*
X40075Y-89150D01*
X41400Y-93000D02*
X41400Y-91600D01*
X28250Y-91450D02*
X26500Y-91450D01*
X26500Y-91450D02*
X20000Y-91450D01*
X40000Y-93950D02*
X25675Y-93950D01*
X21200Y-93150D02*
X20200Y-94150D01*
X24875Y-93150D02*
X21200Y-93150D01*
X25675Y-93950D02*
X24875Y-93150D01*
X18000Y-94375D02*
X18000Y-95000D01*
X40400Y-93550D02*
X40000Y-93950D01*
X20200Y-94150D02*
X18225Y-94150D01*
X18225Y-94150D02*
X18000Y-94375D01*
X40400Y-93000D02*
X40400Y-93550D01*
X31751Y-97250D02*
X28973Y-97250D01*
X28973Y-97250D02*
X28223Y-98000D01*
X32400Y-96000D02*
X32400Y-96601D01*
X27000Y-98000D02*
X28223Y-98000D01*
X32400Y-96601D02*
X31751Y-97250D01*
X43363Y-89688D02*
X39663Y-89688D01*
X39663Y-89688D02*
X39000Y-89025D01*
X62875Y-24925D02*
X62875Y-25750D01*
X63100Y-25975D02*
X70400Y-25975D01*
X62875Y-25750D02*
X63100Y-25975D01*
X43600Y-89925D02*
X43600Y-91150D01*
X43900Y-96000D02*
X41400Y-96000D01*
X44100Y-95800D02*
X43900Y-96000D01*
X44100Y-91650D02*
X44100Y-95800D01*
X43600Y-91150D02*
X44100Y-91650D01*
X14000Y-89500D02*
X15775Y-89500D01*
X15775Y-89500D02*
X16250Y-89025D01*
X16250Y-89025D02*
X39000Y-89025D01*
X64650Y-96375D02*
X64650Y-92052D01*
X64375Y-96650D02*
X64650Y-96375D01*
X60800Y-96650D02*
X64375Y-96650D01*
X72600Y-89500D02*
X72025Y-89500D01*
X65800Y-90900D02*
X65800Y-90902D01*
X66200Y-90500D02*
X65800Y-90900D01*
X71025Y-90500D02*
X66200Y-90500D01*
X72025Y-89500D02*
X71025Y-90500D01*
X64650Y-92052D02*
X65800Y-90902D01*
X43363Y-89688D02*
X43600Y-89925D01*
X66275Y-90925D02*
X66275Y-90923D01*
X71275Y-90925D02*
X66275Y-90925D01*
X71700Y-90500D02*
X71275Y-90925D01*
X64950Y-92248D02*
X64950Y-96875D01*
X66275Y-90923D02*
X64950Y-92248D01*
X72600Y-90500D02*
X71700Y-90500D01*
X61325Y-97125D02*
X61350Y-97100D01*
X61350Y-97100D02*
X64725Y-97100D01*
X64725Y-97100D02*
X64950Y-96875D01*
X43138Y-89963D02*
X39413Y-89963D01*
X39413Y-89963D02*
X38825Y-89375D01*
X69925Y-26450D02*
X62075Y-26450D01*
X61875Y-26250D02*
X61875Y-24925D01*
X62075Y-26450D02*
X61875Y-26250D01*
X43325Y-90150D02*
X43325Y-91275D01*
X43475Y-95350D02*
X40625Y-95350D01*
X43825Y-95000D02*
X43475Y-95350D01*
X43825Y-91775D02*
X43825Y-95000D01*
X43325Y-91275D02*
X43825Y-91775D01*
X16700Y-89375D02*
X15575Y-90500D01*
X43325Y-90150D02*
X43138Y-89963D01*
X38825Y-89375D02*
X16700Y-89375D01*
X40400Y-95575D02*
X40625Y-95350D01*
X40400Y-96000D02*
X40400Y-95575D01*
X15575Y-90500D02*
X14000Y-90500D01*
X39400Y-93000D02*
X39400Y-93400D01*
X39400Y-93400D02*
X39150Y-93650D01*
X19400Y-92875D02*
X19000Y-93275D01*
X25050Y-92875D02*
X19400Y-92875D01*
X25825Y-93650D02*
X25050Y-92875D01*
X39150Y-93650D02*
X25825Y-93650D01*
G54D35*
X58625Y-99200D02*
X42625Y-99200D01*
X42625Y-99200D02*
X42500Y-99325D01*
X27875Y-99325D02*
X27575Y-99625D01*
X42500Y-99325D02*
X27875Y-99325D01*
X58625Y-99200D02*
X65875Y-99200D01*
X65875Y-99200D02*
X66350Y-98725D01*
X70300Y-83850D02*
X69350Y-82900D01*
X70300Y-89500D02*
X70300Y-83850D01*
X69350Y-28375D02*
X40500Y-28375D01*
X66350Y-98725D02*
X66350Y-95975D01*
X68495Y-95429D02*
X67721Y-95429D01*
X67721Y-95429D02*
X67175Y-95975D01*
X67175Y-95975D02*
X66350Y-95975D01*
X65567Y-94308D02*
X65970Y-94308D01*
X66350Y-95975D02*
X65650Y-95975D01*
X65650Y-95975D02*
X65350Y-95675D01*
X65350Y-95675D02*
X65350Y-94525D01*
X65350Y-94525D02*
X65567Y-94308D01*
X58625Y-98300D02*
X58625Y-99200D01*
X24000Y-97000D02*
X24000Y-99075D01*
X24550Y-99625D02*
X27575Y-99625D01*
X24000Y-99075D02*
X24550Y-99625D01*
X68350Y-82650D02*
X71500Y-79500D01*
X68350Y-84000D02*
X68350Y-82650D01*
X65150Y-81850D02*
X67500Y-79500D01*
X65150Y-84000D02*
X65150Y-81850D01*
X61800Y-84000D02*
X61800Y-81200D01*
X61800Y-81200D02*
X63500Y-79500D01*
X58200Y-84000D02*
X58200Y-80800D01*
X58200Y-80800D02*
X59500Y-79500D01*
X54600Y-84000D02*
X54600Y-80400D01*
X54600Y-80400D02*
X55500Y-79500D01*
X51000Y-80000D02*
X51500Y-79500D01*
X51000Y-84000D02*
X51000Y-80000D01*
X47500Y-79500D02*
X47500Y-83900D01*
X47500Y-83900D02*
X47400Y-84000D01*
X43500Y-79500D02*
X43500Y-83700D01*
X43500Y-83700D02*
X43800Y-84000D01*
X39500Y-79500D02*
X39500Y-83300D01*
X39500Y-83300D02*
X40200Y-84000D01*
X35500Y-79500D02*
X35500Y-82900D01*
X35500Y-82900D02*
X36600Y-84000D01*
X31500Y-79500D02*
X31500Y-82500D01*
X31500Y-82500D02*
X33000Y-84000D01*
X27500Y-79500D02*
X27500Y-82100D01*
X27500Y-82100D02*
X29400Y-84000D01*
X23500Y-79500D02*
X23500Y-81700D01*
X23500Y-81700D02*
X25800Y-84000D01*
X19500Y-79500D02*
X19500Y-81300D01*
X19500Y-81300D02*
X22200Y-84000D01*
X15500Y-79500D02*
X15500Y-80500D01*
X15500Y-80500D02*
X19000Y-84000D01*
X11500Y-79500D02*
X11500Y-80500D01*
X15000Y-84000D02*
X15800Y-84000D01*
X11500Y-80500D02*
X15000Y-84000D01*
G54D34*
X56700Y-90400D02*
X56700Y-89200D01*
X57625Y-88275D02*
X59350Y-88275D01*
X56700Y-89200D02*
X57625Y-88275D01*
X68350Y-87150D02*
X60475Y-87150D01*
X59350Y-88275D02*
X60475Y-87150D01*
X69500Y-86000D02*
X68350Y-87150D01*
X55700Y-90400D02*
X55700Y-89050D01*
X57000Y-87750D02*
X59425Y-87750D01*
X55700Y-89050D02*
X57000Y-87750D01*
X66300Y-86000D02*
X65450Y-86850D01*
X60325Y-86850D02*
X59425Y-87750D01*
X60325Y-86850D02*
X65450Y-86850D01*
X54700Y-90400D02*
X54700Y-89225D01*
X56675Y-87250D02*
X59500Y-87250D01*
X54700Y-89225D02*
X56675Y-87250D01*
X60200Y-86550D02*
X59500Y-87250D01*
X62550Y-86550D02*
X60200Y-86550D01*
X62950Y-86150D02*
X62550Y-86550D01*
X62950Y-86000D02*
X62950Y-86150D01*
X53700Y-90400D02*
X53700Y-89250D01*
X58700Y-86800D02*
X59500Y-86000D01*
X56150Y-86800D02*
X58700Y-86800D01*
X53700Y-89250D02*
X56150Y-86800D01*
X52700Y-90400D02*
X52700Y-89200D01*
X52700Y-89200D02*
X55900Y-86000D01*
X51700Y-90400D02*
X51700Y-86600D01*
X51700Y-86600D02*
X52300Y-86000D01*
X50700Y-90400D02*
X50700Y-88000D01*
X50700Y-88000D02*
X48700Y-86000D01*
X45100Y-86000D02*
X46650Y-87550D01*
X49525Y-87550D02*
X49700Y-87725D01*
X46650Y-87550D02*
X49525Y-87550D01*
X49700Y-90400D02*
X49700Y-87725D01*
X44075Y-86550D02*
X45400Y-87875D01*
X48525Y-87875D02*
X48700Y-88050D01*
X45400Y-87875D02*
X48525Y-87875D01*
X42050Y-86550D02*
X41500Y-86000D01*
X48700Y-90400D02*
X48700Y-88050D01*
X44075Y-86550D02*
X42050Y-86550D01*
X45275Y-88225D02*
X43900Y-86850D01*
X47475Y-88225D02*
X45275Y-88225D01*
X47700Y-88450D02*
X47475Y-88225D01*
X47700Y-90400D02*
X47700Y-88450D01*
X38750Y-86850D02*
X37900Y-86000D01*
X43900Y-86850D02*
X38750Y-86850D01*
X38600Y-87150D02*
X38150Y-86700D01*
X43725Y-87150D02*
X38600Y-87150D01*
X45100Y-88525D02*
X43725Y-87150D01*
X46525Y-88525D02*
X45100Y-88525D01*
X46700Y-88700D02*
X46525Y-88525D01*
X46700Y-90400D02*
X46700Y-88700D01*
X35000Y-86700D02*
X34300Y-86000D01*
X38150Y-86700D02*
X35000Y-86700D01*
X31675Y-86975D02*
X30700Y-86000D01*
X38025Y-86975D02*
X31675Y-86975D01*
X38475Y-87425D02*
X38025Y-86975D01*
X43500Y-87425D02*
X38475Y-87425D01*
X45025Y-88950D02*
X43500Y-87425D01*
X45025Y-90575D02*
X45025Y-88950D01*
X45700Y-91250D02*
X45025Y-90575D01*
X45700Y-96400D02*
X45700Y-91250D01*
X37900Y-87250D02*
X31500Y-87250D01*
X30775Y-86525D02*
X27625Y-86525D01*
X31500Y-87250D02*
X30775Y-86525D01*
X46700Y-96400D02*
X46700Y-96900D01*
X27625Y-86525D02*
X27100Y-86000D01*
X38350Y-87700D02*
X37900Y-87250D01*
X43300Y-87700D02*
X38350Y-87700D01*
X44750Y-89150D02*
X43300Y-87700D01*
X44750Y-90700D02*
X44750Y-89150D01*
X45200Y-91150D02*
X44750Y-90700D01*
X45200Y-96750D02*
X45200Y-91150D01*
X45550Y-97100D02*
X45200Y-96750D01*
X46500Y-97100D02*
X45550Y-97100D01*
X46700Y-96900D02*
X46500Y-97100D01*
X37775Y-87525D02*
X31325Y-87525D01*
X30575Y-86775D02*
X24275Y-86775D01*
X31325Y-87525D02*
X30575Y-86775D01*
X47700Y-96400D02*
X47700Y-97100D01*
X24275Y-86775D02*
X23500Y-86000D01*
X38225Y-87975D02*
X37775Y-87525D01*
X43100Y-87975D02*
X38225Y-87975D01*
X44450Y-89325D02*
X43100Y-87975D01*
X44450Y-90800D02*
X44450Y-89325D01*
X44925Y-91275D02*
X44450Y-90800D01*
X44925Y-97175D02*
X44925Y-91275D01*
X45150Y-97400D02*
X44925Y-97175D01*
X47400Y-97400D02*
X45150Y-97400D01*
X47700Y-97100D02*
X47400Y-97400D01*
X37625Y-87800D02*
X31175Y-87800D01*
X30425Y-87050D02*
X21200Y-87050D01*
X31175Y-87800D02*
X30425Y-87050D01*
X48700Y-96400D02*
X48700Y-97350D01*
X21200Y-87050D02*
X20150Y-86000D01*
X38075Y-88250D02*
X37625Y-87800D01*
X42900Y-88250D02*
X38075Y-88250D01*
X44150Y-89500D02*
X42900Y-88250D01*
X44150Y-90900D02*
X44150Y-89500D01*
X44650Y-91400D02*
X44150Y-90900D01*
X44650Y-97375D02*
X44650Y-91400D01*
X44975Y-97700D02*
X44650Y-97375D01*
X48350Y-97700D02*
X44975Y-97700D01*
X48700Y-97350D02*
X48350Y-97700D01*
X37500Y-88075D02*
X31075Y-88075D01*
X30300Y-87300D02*
X18250Y-87300D01*
X31075Y-88075D02*
X30300Y-87300D01*
X49700Y-96400D02*
X49700Y-97625D01*
X18250Y-87300D02*
X16950Y-86000D01*
X37950Y-88525D02*
X37500Y-88075D01*
X42700Y-88525D02*
X37950Y-88525D01*
X43875Y-89700D02*
X42700Y-88525D01*
X43875Y-91025D02*
X43875Y-89700D01*
X44375Y-91525D02*
X43875Y-91025D01*
X44375Y-97575D02*
X44375Y-91525D01*
X44800Y-98000D02*
X44375Y-97575D01*
X49325Y-98000D02*
X44800Y-98000D01*
X49700Y-97625D02*
X49325Y-98000D01*
G54D35*
X12500Y-30500D02*
X12500Y-27425D01*
X19350Y-26100D02*
X19350Y-24750D01*
X18475Y-26975D02*
X19350Y-26100D01*
X12950Y-26975D02*
X18475Y-26975D01*
X12500Y-27425D02*
X12950Y-26975D01*
X12500Y-30500D02*
X12500Y-29450D01*
X12500Y-29450D02*
X16500Y-29450D01*
X16500Y-30500D02*
X16500Y-29450D01*
X20500Y-30500D02*
X20500Y-29450D01*
X24500Y-30500D02*
X24500Y-29450D01*
X28500Y-30500D02*
X28500Y-29450D01*
X32500Y-30500D02*
X32500Y-29450D01*
X36500Y-30500D02*
X36500Y-29450D01*
X40500Y-30500D02*
X40500Y-29450D01*
X44500Y-30500D02*
X44500Y-29450D01*
X48500Y-30500D02*
X48500Y-29450D01*
X52500Y-30500D02*
X52500Y-29450D01*
X56500Y-30500D02*
X56500Y-29450D01*
X60500Y-30500D02*
X60500Y-29450D01*
X64500Y-30500D02*
X64500Y-29450D01*
X68500Y-30500D02*
X68500Y-29450D01*
X72500Y-29450D02*
X72500Y-30500D01*
X16500Y-29450D02*
X20500Y-29450D01*
X20500Y-29450D02*
X24500Y-29450D01*
X24500Y-29450D02*
X28500Y-29450D01*
X28500Y-29450D02*
X32500Y-29450D01*
X32500Y-29450D02*
X36500Y-29450D01*
X36500Y-29450D02*
X40500Y-29450D01*
X40500Y-29450D02*
X44500Y-29450D01*
X44500Y-29450D02*
X48500Y-29450D01*
X48500Y-29450D02*
X52500Y-29450D01*
X52500Y-29450D02*
X56500Y-29450D01*
X56500Y-29450D02*
X60500Y-29450D01*
X60500Y-29450D02*
X64500Y-29450D01*
X64500Y-29450D02*
X68500Y-29450D01*
X68500Y-29450D02*
X72500Y-29450D01*
G54D11*
X13200Y-27550D02*
X18700Y-27550D01*
G54D35*
X20350Y-24750D02*
X20350Y-25900D01*
X20350Y-25900D02*
X18700Y-27550D01*
X68500Y-37500D02*
X68500Y-36450D01*
X64500Y-37500D02*
X64500Y-36450D01*
X60500Y-37500D02*
X60500Y-36450D01*
X56500Y-37500D02*
X56500Y-36450D01*
X52500Y-37500D02*
X52500Y-36450D01*
X48500Y-37500D02*
X48500Y-36450D01*
X44500Y-37500D02*
X44500Y-36450D01*
X40500Y-37500D02*
X40500Y-36450D01*
X36500Y-37500D02*
X36500Y-36450D01*
X32500Y-37500D02*
X32500Y-36450D01*
X28500Y-37500D02*
X28500Y-36450D01*
X24500Y-37500D02*
X24500Y-36450D01*
X20500Y-37500D02*
X20500Y-36450D01*
X16500Y-37500D02*
X16500Y-36450D01*
X72500Y-37500D02*
X72500Y-36450D01*
X12500Y-36450D02*
X12500Y-37500D01*
X16500Y-36450D02*
X12500Y-36450D01*
X72500Y-36450D02*
X68500Y-36450D01*
X68500Y-36450D02*
X64500Y-36450D01*
X64500Y-36450D02*
X60500Y-36450D01*
X60500Y-36450D02*
X56500Y-36450D01*
X56500Y-36450D02*
X52500Y-36450D01*
X52500Y-36450D02*
X48500Y-36450D01*
X48500Y-36450D02*
X44500Y-36450D01*
X44500Y-36450D02*
X40500Y-36450D01*
X40500Y-36450D02*
X36500Y-36450D01*
X36500Y-36450D02*
X32500Y-36450D01*
X32500Y-36450D02*
X28500Y-36450D01*
X28500Y-36450D02*
X24500Y-36450D01*
X24500Y-36450D02*
X20500Y-36450D01*
X20500Y-36450D02*
X16500Y-36450D01*
X13800Y-28000D02*
X19175Y-28000D01*
X21350Y-24750D02*
X21350Y-25825D01*
X21350Y-25825D02*
X19175Y-28000D01*
X68500Y-44500D02*
X68500Y-43450D01*
X64500Y-44500D02*
X64500Y-43450D01*
X60500Y-44500D02*
X60500Y-43450D01*
X56500Y-44500D02*
X56500Y-43450D01*
X52500Y-44500D02*
X52500Y-43450D01*
X48500Y-44500D02*
X48500Y-43450D01*
X44500Y-44500D02*
X44500Y-43450D01*
X40500Y-44500D02*
X40500Y-43450D01*
X36500Y-44500D02*
X36500Y-43450D01*
X32500Y-44500D02*
X32500Y-43450D01*
X28500Y-44500D02*
X28500Y-43450D01*
X24500Y-44500D02*
X24500Y-43450D01*
X20500Y-44500D02*
X20500Y-43450D01*
X16500Y-44500D02*
X16500Y-43450D01*
X72500Y-44500D02*
X72500Y-43450D01*
X12500Y-43450D02*
X12500Y-44500D01*
X16500Y-43450D02*
X12500Y-43450D01*
X72500Y-43450D02*
X68500Y-43450D01*
X68500Y-43450D02*
X64500Y-43450D01*
X64500Y-43450D02*
X60500Y-43450D01*
X60500Y-43450D02*
X56500Y-43450D01*
X56500Y-43450D02*
X52500Y-43450D01*
X52500Y-43450D02*
X48500Y-43450D01*
X48500Y-43450D02*
X44500Y-43450D01*
X44500Y-43450D02*
X40500Y-43450D01*
X40500Y-43450D02*
X36500Y-43450D01*
X36500Y-43450D02*
X32500Y-43450D01*
X32500Y-43450D02*
X28500Y-43450D01*
X28500Y-43450D02*
X24500Y-43450D01*
X24500Y-43450D02*
X20500Y-43450D01*
X20500Y-43450D02*
X16500Y-43450D01*
X68500Y-51500D02*
X68500Y-50450D01*
X64500Y-51500D02*
X64500Y-50450D01*
X60500Y-51500D02*
X60500Y-50450D01*
X56500Y-51500D02*
X56500Y-50450D01*
X52500Y-51500D02*
X52500Y-50450D01*
X48500Y-51500D02*
X48500Y-50450D01*
X44500Y-51500D02*
X44500Y-50450D01*
X40500Y-51500D02*
X40500Y-50450D01*
X36500Y-51500D02*
X36500Y-50450D01*
X32500Y-51500D02*
X32500Y-50450D01*
X28500Y-51500D02*
X28500Y-50450D01*
X24500Y-51500D02*
X24500Y-50450D01*
X20500Y-51500D02*
X20500Y-50450D01*
X16500Y-51500D02*
X16500Y-50450D01*
G54D11*
X14350Y-28525D02*
X19525Y-28525D01*
G54D35*
X22350Y-25700D02*
X22350Y-24750D01*
X19525Y-28525D02*
X22350Y-25700D01*
X72500Y-50450D02*
X68500Y-50450D01*
X68500Y-50450D02*
X64500Y-50450D01*
X64500Y-50450D02*
X60500Y-50450D01*
X60500Y-50450D02*
X56500Y-50450D01*
X56500Y-50450D02*
X52500Y-50450D01*
X52500Y-50450D02*
X48500Y-50450D01*
X48500Y-50450D02*
X44500Y-50450D01*
X44500Y-50450D02*
X40500Y-50450D01*
X40500Y-50450D02*
X36500Y-50450D01*
X36500Y-50450D02*
X32500Y-50450D01*
X32500Y-50450D02*
X28500Y-50450D01*
X28500Y-50450D02*
X24500Y-50450D01*
X24500Y-50450D02*
X20500Y-50450D01*
X20500Y-50450D02*
X16500Y-50450D01*
X16500Y-50450D02*
X12500Y-50450D01*
X72500Y-51500D02*
X72500Y-50450D01*
X12500Y-50450D02*
X12500Y-51500D01*
X14900Y-28975D02*
X19975Y-28975D01*
X19975Y-28975D02*
X23350Y-25600D01*
X23350Y-25600D02*
X23350Y-24750D01*
X16500Y-58500D02*
X16500Y-57450D01*
X20500Y-58500D02*
X20500Y-57450D01*
X24500Y-58500D02*
X24500Y-57450D01*
X28500Y-58500D02*
X28500Y-57450D01*
X32500Y-58500D02*
X32500Y-57450D01*
X36500Y-58500D02*
X36500Y-57450D01*
X40500Y-58500D02*
X40500Y-57450D01*
X44500Y-58500D02*
X44500Y-57450D01*
X48500Y-58500D02*
X48500Y-57450D01*
X52500Y-58500D02*
X52500Y-57450D01*
X56500Y-58500D02*
X56500Y-57450D01*
X60500Y-58500D02*
X60500Y-57450D01*
X64500Y-58500D02*
X64500Y-57450D01*
X68500Y-58500D02*
X68500Y-57450D01*
X12500Y-58500D02*
X12500Y-57450D01*
X72500Y-57450D02*
X72500Y-58500D01*
X12500Y-57450D02*
X16500Y-57450D01*
X16500Y-57450D02*
X20500Y-57450D01*
X20500Y-57450D02*
X24500Y-57450D01*
X24500Y-57450D02*
X28500Y-57450D01*
X28500Y-57450D02*
X32500Y-57450D01*
X32500Y-57450D02*
X36500Y-57450D01*
X36500Y-57450D02*
X40500Y-57450D01*
X40500Y-57450D02*
X44500Y-57450D01*
X44500Y-57450D02*
X48500Y-57450D01*
X48500Y-57450D02*
X52500Y-57450D01*
X52500Y-57450D02*
X56500Y-57450D01*
X56500Y-57450D02*
X60500Y-57450D01*
X60500Y-57450D02*
X64500Y-57450D01*
X64500Y-57450D02*
X68500Y-57450D01*
X68500Y-57450D02*
X72500Y-57450D01*
X22200Y-28825D02*
X22200Y-27600D01*
X22200Y-27600D02*
X24350Y-25450D01*
X24350Y-24750D02*
X24350Y-25450D01*
X16500Y-65500D02*
X16500Y-64450D01*
X20500Y-65500D02*
X20500Y-64450D01*
X24500Y-65500D02*
X24500Y-64450D01*
X28500Y-65500D02*
X28500Y-64450D01*
X32500Y-65500D02*
X32500Y-64450D01*
X36500Y-65500D02*
X36500Y-64450D01*
X40500Y-65500D02*
X40500Y-64450D01*
X44500Y-65500D02*
X44500Y-64450D01*
X48500Y-65500D02*
X48500Y-64450D01*
X52500Y-65500D02*
X52500Y-64450D01*
X56500Y-65500D02*
X56500Y-64450D01*
X60500Y-65500D02*
X60500Y-64450D01*
X64500Y-65500D02*
X64500Y-64450D01*
X68500Y-65500D02*
X68500Y-64450D01*
X12500Y-65500D02*
X12500Y-64450D01*
X72500Y-64450D02*
X72500Y-65500D01*
X12500Y-64450D02*
X16500Y-64450D01*
X16500Y-64450D02*
X20500Y-64450D01*
X20500Y-64450D02*
X24500Y-64450D01*
X24500Y-64450D02*
X28500Y-64450D01*
X28500Y-64450D02*
X32500Y-64450D01*
X32500Y-64450D02*
X36500Y-64450D01*
X36500Y-64450D02*
X40500Y-64450D01*
X40500Y-64450D02*
X44500Y-64450D01*
X44500Y-64450D02*
X48500Y-64450D01*
X48500Y-64450D02*
X52500Y-64450D01*
X52500Y-64450D02*
X56500Y-64450D01*
X56500Y-64450D02*
X60500Y-64450D01*
X60500Y-64450D02*
X64500Y-64450D01*
X64500Y-64450D02*
X68500Y-64450D01*
X68500Y-64450D02*
X72500Y-64450D01*
X25350Y-22950D02*
X23600Y-21200D01*
X20650Y-21200D02*
X23600Y-21200D01*
X20650Y-21200D02*
X20350Y-20900D01*
X20350Y-20900D02*
X20350Y-20250D01*
X25350Y-24750D02*
X25350Y-22950D01*
X16500Y-72500D02*
X16500Y-71450D01*
X20500Y-72500D02*
X20500Y-71450D01*
X24500Y-72500D02*
X24500Y-71450D01*
X28500Y-72500D02*
X28500Y-71450D01*
X32500Y-72500D02*
X32500Y-71450D01*
X36500Y-72500D02*
X36500Y-71450D01*
X40500Y-72500D02*
X40500Y-71450D01*
X44500Y-72500D02*
X44500Y-71450D01*
X48500Y-72500D02*
X48500Y-71450D01*
X52500Y-72500D02*
X52500Y-71450D01*
X56500Y-72500D02*
X56500Y-71450D01*
X60500Y-72500D02*
X60500Y-71450D01*
X64500Y-72500D02*
X64500Y-71450D01*
X68500Y-72500D02*
X68500Y-71450D01*
X12500Y-72500D02*
X12500Y-71450D01*
X72500Y-71450D02*
X72500Y-72500D01*
X12500Y-71450D02*
X16500Y-71450D01*
X16500Y-71450D02*
X20500Y-71450D01*
X20500Y-71450D02*
X24500Y-71450D01*
X24500Y-71450D02*
X28500Y-71450D01*
X28500Y-71450D02*
X32500Y-71450D01*
X32500Y-71450D02*
X36500Y-71450D01*
X36500Y-71450D02*
X40500Y-71450D01*
X40500Y-71450D02*
X44500Y-71450D01*
X44500Y-71450D02*
X48500Y-71450D01*
X48500Y-71450D02*
X52500Y-71450D01*
X52500Y-71450D02*
X56500Y-71450D01*
X56500Y-71450D02*
X60500Y-71450D01*
X60500Y-71450D02*
X64500Y-71450D01*
X64500Y-71450D02*
X68500Y-71450D01*
X68500Y-71450D02*
X72500Y-71450D01*
X19350Y-20250D02*
X19350Y-21400D01*
X24850Y-22975D02*
X24850Y-23625D01*
X23925Y-22050D02*
X24850Y-22975D01*
X20000Y-22050D02*
X23925Y-22050D01*
X19350Y-21400D02*
X20000Y-22050D01*
X16500Y-79500D02*
X16500Y-78450D01*
X20500Y-79500D02*
X20500Y-78450D01*
X24500Y-79500D02*
X24500Y-78450D01*
X28500Y-79500D02*
X28500Y-78450D01*
X32500Y-79500D02*
X32500Y-78450D01*
X36500Y-79500D02*
X36500Y-78450D01*
X40500Y-79500D02*
X40500Y-78450D01*
X44500Y-79500D02*
X44500Y-78450D01*
X48500Y-79500D02*
X48500Y-78450D01*
X52500Y-79500D02*
X52500Y-78450D01*
X56500Y-79500D02*
X56500Y-78450D01*
X60500Y-79500D02*
X60500Y-78450D01*
X64500Y-79500D02*
X64500Y-78450D01*
X68500Y-79500D02*
X68500Y-78450D01*
X12500Y-79500D02*
X12500Y-78450D01*
X72500Y-78450D02*
X72500Y-79500D01*
X12500Y-78450D02*
X16500Y-78450D01*
X16500Y-78450D02*
X20500Y-78450D01*
X20500Y-78450D02*
X24500Y-78450D01*
X24500Y-78450D02*
X28500Y-78450D01*
X28500Y-78450D02*
X32500Y-78450D01*
X32500Y-78450D02*
X36500Y-78450D01*
X36500Y-78450D02*
X40500Y-78450D01*
X40500Y-78450D02*
X44500Y-78450D01*
X44500Y-78450D02*
X48500Y-78450D01*
X48500Y-78450D02*
X52500Y-78450D01*
X52500Y-78450D02*
X56500Y-78450D01*
X56500Y-78450D02*
X60500Y-78450D01*
X60500Y-78450D02*
X64500Y-78450D01*
X64500Y-78450D02*
X68500Y-78450D01*
X68500Y-78450D02*
X72500Y-78450D01*
X21000Y-94450D02*
X21000Y-96025D01*
X26000Y-97000D02*
X26000Y-96350D01*
X25675Y-96025D02*
X21000Y-96025D01*
X26000Y-96350D02*
X25675Y-96025D01*
X34650Y-94350D02*
X25100Y-94350D01*
X21625Y-93825D02*
X21000Y-94450D01*
X24575Y-93825D02*
X21625Y-93825D01*
X25100Y-94350D02*
X24575Y-93825D01*
X21000Y-96025D02*
X16275Y-96025D01*
X16000Y-95750D02*
X16000Y-95000D01*
X16275Y-96025D02*
X16000Y-95750D01*
X35400Y-96000D02*
X35400Y-95100D01*
X35400Y-95100D02*
X34650Y-94350D01*
X59625Y-98300D02*
X59625Y-97250D01*
X59625Y-97250D02*
X59275Y-96900D01*
X59275Y-96900D02*
X59000Y-96900D01*
X59000Y-94400D02*
X59000Y-96900D01*
X57625Y-98300D02*
X57625Y-97299D01*
X58024Y-96900D02*
X59000Y-96900D01*
X57625Y-97299D02*
X58024Y-96900D01*
X45700Y-90400D02*
X47325Y-92025D01*
X47325Y-92025D02*
X50375Y-92025D01*
X35450Y-91600D02*
X35450Y-90700D01*
X35450Y-90700D02*
X35550Y-90600D01*
X41150Y-90600D02*
X41350Y-90400D01*
X35550Y-90600D02*
X41150Y-90600D01*
X35350Y-90600D02*
X34425Y-90600D01*
X35450Y-90700D02*
X35350Y-90600D01*
X16200Y-90600D02*
X15300Y-91500D01*
X30375Y-90600D02*
X16200Y-90600D01*
X15300Y-91500D02*
X14000Y-91500D01*
X67820Y-92430D02*
X72255Y-92430D01*
X73500Y-97500D02*
X72500Y-98500D01*
X73500Y-93675D02*
X73500Y-97500D01*
X72255Y-92430D02*
X73500Y-93675D01*
X66750Y-94308D02*
X67833Y-94308D01*
X67833Y-94308D02*
X67820Y-94295D01*
X67820Y-94295D02*
X68011Y-94486D01*
X68495Y-94486D02*
X68011Y-94486D01*
X67820Y-94295D02*
X67820Y-92430D01*
X68495Y-94486D02*
X68495Y-94171D01*
X42725Y-90400D02*
X41350Y-90400D01*
X32400Y-91600D02*
X32400Y-90600D01*
X34425Y-90600D02*
X32400Y-90600D01*
X32400Y-90600D02*
X30375Y-90600D01*
X50700Y-94400D02*
X50700Y-92350D01*
X50700Y-92350D02*
X50375Y-92025D01*
X34400Y-93000D02*
X34400Y-92650D01*
X34400Y-92650D02*
X35450Y-91600D01*
X59000Y-94400D02*
X50700Y-94400D01*
X50700Y-96400D02*
X50700Y-94400D01*
X34500Y-15700D02*
X34500Y-15050D01*
X34500Y-15050D02*
X34125Y-14675D01*
X34125Y-14675D02*
X30975Y-14675D01*
X30975Y-14675D02*
X30650Y-14350D01*
X30650Y-14350D02*
X30650Y-12900D01*
X30650Y-12900D02*
X30200Y-12450D01*
X30200Y-12450D02*
X28050Y-12450D01*
X63375Y-18525D02*
X63400Y-18550D01*
X68495Y-94800D02*
X68495Y-94486D01*
G54D34*
X33500Y-23275D02*
X34450Y-23275D01*
X34925Y-21500D02*
X36000Y-21500D01*
X34650Y-21775D02*
X34925Y-21500D01*
X34650Y-23075D02*
X34650Y-21775D01*
X34450Y-23275D02*
X34650Y-23075D01*
X33500Y-23275D02*
X32550Y-23275D01*
X31650Y-22375D02*
X30500Y-22375D01*
X32550Y-23275D02*
X31650Y-22375D01*
X32400Y-98500D02*
X35400Y-98500D01*
X33400Y-91600D02*
X34425Y-91600D01*
X33400Y-93000D02*
X33400Y-91600D01*
X14600Y-12250D02*
X14750Y-12100D01*
X16600Y-10600D02*
X17200Y-10600D01*
X17425Y-10825D02*
X17425Y-17300D01*
X17425Y-17300D02*
X17125Y-17600D01*
X14750Y-12100D02*
X16075Y-12100D01*
X16075Y-12100D02*
X16600Y-11575D01*
X16600Y-11575D02*
X16600Y-10600D01*
X14600Y-12600D02*
X14600Y-12250D01*
X17200Y-10600D02*
X17425Y-10825D01*
X17125Y-17600D02*
X16600Y-17600D01*
X30375Y-91600D02*
X31400Y-91600D01*
X32400Y-93000D02*
X32400Y-92600D01*
X32400Y-92600D02*
X31400Y-91600D01*
X54600Y-86000D02*
X54600Y-85500D01*
X58200Y-86000D02*
X58200Y-85500D01*
X61800Y-86000D02*
X61800Y-85500D01*
X65150Y-86000D02*
X65150Y-85500D01*
X68350Y-86000D02*
X67850Y-85500D01*
X65150Y-85500D02*
X67850Y-85500D01*
X15800Y-86000D02*
X16300Y-85500D01*
X16300Y-85500D02*
X19000Y-85500D01*
X19000Y-85500D02*
X22200Y-85500D01*
X61800Y-85500D02*
X65150Y-85500D01*
X58200Y-85500D02*
X61800Y-85500D01*
X54600Y-85500D02*
X58200Y-85500D01*
X51000Y-85500D02*
X54600Y-85500D01*
X47400Y-85500D02*
X51000Y-85500D01*
X43800Y-85500D02*
X47400Y-85500D01*
X40200Y-85500D02*
X43800Y-85500D01*
X36600Y-85500D02*
X40200Y-85500D01*
X19000Y-86000D02*
X19000Y-85500D01*
X22200Y-86000D02*
X22200Y-85500D01*
X29400Y-86000D02*
X29400Y-85500D01*
X33000Y-86000D02*
X33000Y-85500D01*
X36600Y-86000D02*
X36600Y-85500D01*
X40200Y-86000D02*
X40200Y-85500D01*
X43800Y-86000D02*
X43800Y-85500D01*
X47400Y-86000D02*
X47400Y-85500D01*
X51000Y-86000D02*
X51000Y-85500D01*
X22200Y-85500D02*
X25800Y-85500D01*
X25800Y-85500D02*
X29400Y-85500D01*
X29400Y-85500D02*
X33000Y-85500D01*
X33000Y-85500D02*
X36600Y-85500D01*
X25800Y-86000D02*
X25800Y-85500D01*
X21200Y-85000D02*
X22200Y-85000D01*
X22200Y-85000D02*
X23500Y-85000D01*
X25800Y-85000D02*
X27100Y-85000D01*
X24800Y-85000D02*
X25800Y-85000D01*
X28400Y-85000D02*
X29400Y-85000D01*
X29400Y-85000D02*
X30700Y-85000D01*
X32000Y-85000D02*
X33000Y-85000D01*
X33000Y-85000D02*
X34300Y-85000D01*
X36600Y-85000D02*
X37900Y-85000D01*
X35600Y-85000D02*
X36600Y-85000D01*
X39200Y-85000D02*
X40200Y-85000D01*
X40200Y-85000D02*
X41500Y-85000D01*
X43800Y-85000D02*
X45100Y-85000D01*
X42800Y-85000D02*
X43800Y-85000D01*
X46400Y-85000D02*
X47400Y-85000D01*
X47400Y-85000D02*
X48700Y-85000D01*
X51000Y-85000D02*
X52300Y-85000D01*
X50000Y-85000D02*
X51000Y-85000D01*
X54600Y-85000D02*
X55900Y-85000D01*
X53600Y-85000D02*
X54600Y-85000D01*
X58200Y-85000D02*
X59500Y-85000D01*
X57200Y-85000D02*
X58200Y-85000D01*
X61800Y-85000D02*
X62950Y-85000D01*
X60800Y-85000D02*
X61800Y-85000D01*
X64150Y-85000D02*
X65150Y-85000D01*
X65150Y-85000D02*
X66300Y-85000D01*
X67350Y-85000D02*
X68350Y-85000D01*
X68350Y-85000D02*
X69500Y-85000D01*
X19000Y-85000D02*
X20150Y-85000D01*
X18000Y-85000D02*
X19000Y-85000D01*
X14800Y-85000D02*
X15800Y-85000D01*
X15800Y-85000D02*
X16950Y-85000D01*
G54D35*
X30500Y-17550D02*
X28750Y-17550D01*
X28375Y-17925D02*
X28375Y-19500D01*
X28750Y-17550D02*
X28375Y-17925D01*
X49350Y-17750D02*
X49350Y-17075D01*
X51325Y-13250D02*
X51875Y-12700D01*
X51325Y-16350D02*
X51325Y-13250D01*
X50950Y-16725D02*
X51325Y-16350D01*
X49700Y-16725D02*
X50950Y-16725D01*
X49350Y-17075D02*
X49700Y-16725D01*
X66000Y-90100D02*
X63350Y-92750D01*
X10700Y-81400D02*
X10700Y-27100D01*
X14000Y-84700D02*
X10700Y-81400D01*
X38550Y-89875D02*
X17325Y-89875D01*
X14000Y-88500D02*
X12825Y-88500D01*
X12825Y-88500D02*
X12525Y-88800D01*
X14000Y-84700D02*
X14000Y-88500D01*
X63350Y-92750D02*
X60275Y-92750D01*
X60275Y-92750D02*
X59925Y-92400D01*
X59000Y-92400D02*
X59925Y-92400D01*
X71725Y-88500D02*
X71400Y-88825D01*
X71400Y-88825D02*
X71400Y-89625D01*
X71400Y-89625D02*
X70925Y-90100D01*
X70925Y-90100D02*
X66000Y-90100D01*
X71725Y-88500D02*
X72600Y-88500D01*
X35575Y-23600D02*
X35575Y-25100D01*
X35575Y-25100D02*
X35125Y-25550D01*
X35125Y-25550D02*
X29000Y-25550D01*
X29000Y-25550D02*
X28375Y-24925D01*
X28375Y-24925D02*
X28375Y-19500D01*
X37450Y-91600D02*
X36800Y-91600D01*
X36800Y-91600D02*
X35400Y-93000D01*
X38400Y-91600D02*
X37450Y-91600D01*
X13775Y-23275D02*
X13775Y-25550D01*
X12650Y-18750D02*
X12150Y-19250D01*
X12150Y-19250D02*
X12150Y-21650D01*
X12150Y-21650D02*
X13775Y-23275D01*
X15350Y-18750D02*
X12650Y-18750D01*
X13775Y-25550D02*
X12500Y-26825D01*
X12500Y-26825D02*
X10975Y-26825D01*
X10975Y-26825D02*
X10700Y-27100D01*
X42000Y-97500D02*
X42000Y-98700D01*
X12525Y-88800D02*
X12525Y-92150D01*
X12525Y-92150D02*
X12825Y-92450D01*
X12825Y-92450D02*
X24000Y-92450D01*
X42000Y-98700D02*
X56500Y-98700D01*
X56500Y-98700D02*
X56700Y-98500D01*
X56700Y-98500D02*
X56700Y-96400D01*
X15350Y-18750D02*
X15350Y-19150D01*
X15700Y-19500D02*
X28375Y-19500D01*
X15350Y-19150D02*
X15700Y-19500D01*
M02*
