M48
INCH,TZ
T1C0.020
T2C0.032
T3C0.040
T4C0.050
T5C0.052
T6C0.080
T7C0.120
T8C0.158
%
G90
G05
T1
X1.150Y-7.500
X1.150Y-7.600
X1.350Y-2.050
X1.350Y-2.150
X1.375Y-6.375
X1.425Y-2.225
X1.475Y-8.725
X1.500Y-2.750
X1.500Y-8.450
X1.500Y-9.125
X1.550Y-4.300
X1.575Y-2.775
X1.575Y-2.925
X1.575Y-3.500
X1.575Y-3.925
X1.575Y-6.400
X1.575Y-8.525
X1.575Y-9.850
X1.600Y-2.050
X1.600Y-2.475
X1.600Y-2.650
X1.650Y-6.825
X1.675Y-8.825
X1.675Y-9.050
X1.700Y-6.725
X1.750Y-8.300
X1.750Y-9.350
X1.775Y-4.175
X1.775Y-6.125
X1.800Y-3.975
X1.825Y-5.975
X1.875Y-6.275
X1.925Y-6.675
X1.975Y-3.600
X2.000Y-4.250
X2.000Y-4.400
X2.025Y-6.775
X2.025Y-9.850
X2.050Y-4.775
X2.050Y-4.975
X2.075Y-3.700
X2.100Y-5.375
X2.100Y-5.575
X2.100Y-6.125
X2.100Y-6.425
X2.100Y-6.500
X2.100Y-6.575
X2.100Y-8.975
X2.125Y-5.975
X2.150Y-6.275
X2.175Y-5.075
X2.175Y-8.650
X2.175Y-8.900
X2.200Y-2.975
X2.200Y-3.175
X2.325Y-8.825
X2.350Y-2.375
X2.350Y-6.575
X2.425Y-8.900
X2.475Y-7.650
X2.573Y-3.575
X2.575Y-1.775
X2.575Y-2.375
X2.575Y-2.975
X2.575Y-4.175
X2.575Y-4.775
X2.575Y-5.375
X2.575Y-5.975
X2.575Y-6.575
X2.575Y-7.175
X2.625Y-8.975
X2.700Y-2.875
X2.700Y-4.175
X2.700Y-6.425
X2.700Y-6.950
X2.800Y-9.675
X2.825Y-3.775
X2.825Y-4.075
X2.925Y-8.825
X2.925Y-9.000
X3.050Y-9.475
X3.125Y-9.525
X3.175Y-1.775
X3.175Y-2.375
X3.175Y-2.975
X3.175Y-4.175
X3.175Y-4.775
X3.175Y-5.375
X3.175Y-5.975
X3.175Y-6.575
X3.175Y-7.175
X3.193Y-3.575
X3.275Y-8.975
X3.275Y-9.700
X3.325Y-9.775
X3.375Y-9.025
X3.375Y-9.850
X3.475Y-9.100
X3.775Y-1.775
X3.775Y-2.375
X3.775Y-2.975
X3.775Y-4.175
X3.775Y-4.775
X3.775Y-5.375
X3.775Y-5.975
X3.775Y-6.575
X3.775Y-7.175
X3.785Y-3.575
X3.975Y-9.500
X4.075Y-9.088
X4.075Y-9.450
X4.175Y-9.400
X4.255Y-9.088
X4.375Y-1.775
X4.375Y-2.375
X4.375Y-2.975
X4.375Y-4.175
X4.375Y-4.775
X4.375Y-5.375
X4.375Y-5.975
X4.375Y-6.575
X4.375Y-7.175
X4.383Y-3.575
X4.800Y-9.350
X4.800Y-9.525
X4.800Y-9.925
X4.875Y-9.173
X4.875Y-9.300
X4.975Y-1.775
X4.975Y-2.375
X4.975Y-2.975
X4.975Y-4.175
X4.975Y-4.775
X4.975Y-5.375
X4.975Y-5.975
X4.975Y-6.575
X4.975Y-7.175
X4.980Y-3.575
X5.025Y-9.600
X5.550Y-1.075
X5.575Y-1.775
X5.575Y-2.375
X5.575Y-2.975
X5.575Y-3.575
X5.575Y-4.175
X5.575Y-4.775
X5.575Y-5.375
X5.575Y-5.975
X5.575Y-6.575
X5.575Y-7.175
X5.700Y-9.500
X5.800Y-9.350
X5.865Y-9.475
X6.133Y-9.475
X6.175Y-1.775
X6.175Y-2.375
X6.175Y-2.975
X6.175Y-3.575
X6.175Y-4.175
X6.175Y-4.775
X6.175Y-5.375
X6.175Y-5.975
X6.175Y-6.575
X6.175Y-7.175
X6.775Y-1.775
X6.775Y-2.375
X6.775Y-2.975
X6.775Y-4.175
X6.775Y-4.775
X6.775Y-5.375
X6.775Y-5.975
X6.775Y-6.575
X6.775Y-7.175
X6.780Y-3.575
X7.373Y-3.575
X7.375Y-1.775
X7.375Y-2.375
X7.375Y-2.975
X7.375Y-4.175
X7.375Y-4.775
X7.375Y-5.375
X7.375Y-5.975
X7.375Y-6.575
X7.375Y-7.175
X7.535Y-9.475
X7.975Y-1.775
X7.975Y-2.375
X7.975Y-2.975
X7.975Y-4.175
X7.975Y-4.775
X7.975Y-5.375
X7.975Y-5.975
X7.975Y-6.575
X7.975Y-7.175
X7.978Y-3.575
X8.175Y-9.450
X8.250Y-9.500
X8.325Y-9.550
X8.400Y-9.600
X8.575Y-1.775
X8.575Y-2.375
X8.575Y-2.975
X8.575Y-4.175
X8.575Y-4.775
X8.575Y-5.375
X8.575Y-5.975
X8.575Y-6.575
X8.575Y-7.175
X8.588Y-3.575
X9.175Y-1.775
X9.175Y-2.375
X9.175Y-2.975
X9.175Y-4.175
X9.175Y-4.775
X9.175Y-5.375
X9.175Y-5.975
X9.175Y-6.575
X9.175Y-7.175
X9.180Y-3.575
X9.775Y-1.775
X9.775Y-2.375
X9.775Y-2.975
X9.775Y-4.175
X9.775Y-4.775
X9.775Y-5.375
X9.775Y-5.975
X9.775Y-6.575
X9.775Y-7.175
X9.780Y-3.575
X9.925Y-9.625
X10.375Y-1.775
X10.375Y-2.375
X10.375Y-2.975
X10.375Y-4.175
X10.375Y-4.775
X10.375Y-5.375
X10.375Y-5.975
X10.375Y-6.575
X10.375Y-7.175
X10.390Y-3.575
X10.975Y-1.775
X10.975Y-2.375
X10.975Y-2.975
X10.975Y-4.175
X10.975Y-4.775
X10.975Y-5.375
X10.975Y-5.975
X10.975Y-6.575
X10.975Y-7.175
X10.990Y-3.575
X11.200Y-8.450
X11.575Y-1.775
X11.575Y-2.375
X11.575Y-2.975
X11.575Y-4.175
X11.575Y-4.775
X11.575Y-5.375
X11.575Y-5.975
X11.575Y-6.575
X11.575Y-7.175
X11.925Y-8.575
X12.135Y-8.715
X12.135Y-8.850
X12.325Y-3.375
X12.350Y-8.550
X12.425Y-8.152
X12.750Y-7.650
T2
X2.275Y-1.175
X2.275Y-1.475
X2.475Y-1.275
X2.475Y-1.375
X2.475Y-1.475
X2.500Y-1.925
X2.500Y-1.975
X2.500Y-2.025
X2.500Y-2.075
X2.500Y-2.525
X2.500Y-2.575
X2.500Y-2.625
X2.500Y-2.675
X2.500Y-3.125
X2.500Y-3.175
X2.500Y-3.225
X2.500Y-3.275
X2.500Y-3.725
X2.500Y-3.775
X2.500Y-3.825
X2.500Y-3.875
X2.500Y-4.325
X2.500Y-4.375
X2.500Y-4.425
X2.500Y-4.475
X2.500Y-4.925
X2.500Y-4.975
X2.500Y-5.025
X2.500Y-5.075
X2.500Y-5.525
X2.500Y-5.575
X2.500Y-5.625
X2.500Y-5.675
X2.500Y-6.125
X2.500Y-6.175
X2.500Y-6.225
X2.500Y-6.275
X2.500Y-6.725
X2.500Y-6.775
X2.500Y-6.825
X2.500Y-6.875
X2.500Y-7.325
X2.500Y-7.375
X2.500Y-7.425
X2.500Y-7.475
X2.500Y-7.950
X2.500Y-8.050
X2.500Y-8.550
X2.500Y-8.650
X2.725Y-1.175
X2.725Y-1.475
X3.025Y-1.275
X3.025Y-1.375
X3.025Y-1.475
X3.100Y-1.925
X3.100Y-1.975
X3.100Y-2.025
X3.100Y-2.075
X3.100Y-2.525
X3.100Y-2.575
X3.100Y-2.625
X3.100Y-2.675
X3.100Y-3.125
X3.100Y-3.175
X3.100Y-3.225
X3.100Y-3.275
X3.100Y-3.725
X3.100Y-3.775
X3.100Y-3.825
X3.100Y-3.875
X3.100Y-4.325
X3.100Y-4.375
X3.100Y-4.425
X3.100Y-4.475
X3.100Y-4.925
X3.100Y-4.975
X3.100Y-5.025
X3.100Y-5.075
X3.100Y-5.525
X3.100Y-5.575
X3.100Y-5.625
X3.100Y-5.675
X3.100Y-6.125
X3.100Y-6.175
X3.100Y-6.225
X3.100Y-6.275
X3.100Y-6.725
X3.100Y-6.775
X3.100Y-6.825
X3.100Y-6.875
X3.100Y-7.325
X3.100Y-7.375
X3.100Y-7.425
X3.100Y-7.475
X3.100Y-7.950
X3.100Y-8.050
X3.100Y-8.550
X3.100Y-8.650
X3.100Y-9.075
X3.100Y-9.275
X3.325Y-1.175
X3.325Y-1.475
X3.375Y-9.300
X3.375Y-9.600
X3.475Y-9.300
X3.475Y-9.600
X3.475Y-9.825
X3.575Y-9.300
X3.575Y-9.600
X3.625Y-1.275
X3.625Y-1.375
X3.625Y-1.475
X3.675Y-9.300
X3.675Y-9.600
X3.700Y-1.925
X3.700Y-1.975
X3.700Y-2.025
X3.700Y-2.075
X3.700Y-2.525
X3.700Y-2.575
X3.700Y-2.625
X3.700Y-2.675
X3.700Y-3.125
X3.700Y-3.175
X3.700Y-3.225
X3.700Y-3.275
X3.700Y-3.725
X3.700Y-3.775
X3.700Y-3.825
X3.700Y-3.875
X3.700Y-4.325
X3.700Y-4.375
X3.700Y-4.425
X3.700Y-4.475
X3.700Y-4.925
X3.700Y-4.975
X3.700Y-5.025
X3.700Y-5.075
X3.700Y-5.525
X3.700Y-5.575
X3.700Y-5.625
X3.700Y-5.675
X3.700Y-6.125
X3.700Y-6.175
X3.700Y-6.225
X3.700Y-6.275
X3.700Y-6.725
X3.700Y-6.775
X3.700Y-6.825
X3.700Y-6.875
X3.700Y-7.325
X3.700Y-7.375
X3.700Y-7.425
X3.700Y-7.475
X3.700Y-7.950
X3.700Y-8.050
X3.700Y-8.550
X3.700Y-8.650
X3.725Y-9.175
X3.775Y-9.300
X3.775Y-9.600
X3.775Y-9.825
X3.825Y-9.175
X3.850Y-1.175
X3.850Y-1.475
X3.875Y-9.300
X3.875Y-9.600
X3.925Y-9.175
X3.975Y-9.300
X3.975Y-9.600
X4.025Y-9.848
X4.075Y-9.175
X4.075Y-9.300
X4.075Y-9.600
X4.125Y-9.848
X4.175Y-9.300
X4.175Y-9.600
X4.275Y-9.175
X4.275Y-9.300
X4.275Y-9.600
X4.300Y-1.275
X4.300Y-1.375
X4.300Y-1.475
X4.300Y-1.925
X4.300Y-1.975
X4.300Y-2.025
X4.300Y-2.075
X4.300Y-2.525
X4.300Y-2.575
X4.300Y-2.625
X4.300Y-2.675
X4.300Y-3.125
X4.300Y-3.175
X4.300Y-3.225
X4.300Y-3.275
X4.300Y-3.725
X4.300Y-3.775
X4.300Y-3.825
X4.300Y-3.875
X4.300Y-4.325
X4.300Y-4.375
X4.300Y-4.425
X4.300Y-4.475
X4.300Y-4.925
X4.300Y-4.975
X4.300Y-5.025
X4.300Y-5.075
X4.300Y-5.525
X4.300Y-5.575
X4.300Y-5.625
X4.300Y-5.675
X4.300Y-6.125
X4.300Y-6.175
X4.300Y-6.225
X4.300Y-6.275
X4.300Y-6.725
X4.300Y-6.775
X4.300Y-6.825
X4.300Y-6.875
X4.300Y-7.325
X4.300Y-7.375
X4.300Y-7.425
X4.300Y-7.475
X4.300Y-7.950
X4.300Y-8.050
X4.300Y-8.550
X4.300Y-8.650
X4.300Y-9.750
X4.375Y-9.175
X4.375Y-9.300
X4.375Y-9.600
X4.425Y-9.750
X4.425Y-9.850
X4.475Y-9.300
X4.475Y-9.600
X4.525Y-1.175
X4.525Y-1.475
X4.575Y-9.300
X4.575Y-9.600
X4.675Y-9.175
X4.675Y-9.300
X4.675Y-9.600
X4.725Y-9.750
X4.725Y-9.850
X4.875Y-9.750
X4.875Y-9.850
X4.900Y-1.275
X4.900Y-1.375
X4.900Y-1.475
X4.900Y-1.925
X4.900Y-1.975
X4.900Y-2.025
X4.900Y-2.075
X4.900Y-2.525
X4.900Y-2.575
X4.900Y-2.625
X4.900Y-2.675
X4.900Y-3.125
X4.900Y-3.175
X4.900Y-3.225
X4.900Y-3.275
X4.900Y-3.725
X4.900Y-3.775
X4.900Y-3.825
X4.900Y-3.875
X4.900Y-4.325
X4.900Y-4.375
X4.900Y-4.425
X4.900Y-4.475
X4.900Y-4.925
X4.900Y-4.975
X4.900Y-5.025
X4.900Y-5.075
X4.900Y-5.525
X4.900Y-5.575
X4.900Y-5.625
X4.900Y-5.675
X4.900Y-6.125
X4.900Y-6.175
X4.900Y-6.225
X4.900Y-6.275
X4.900Y-6.725
X4.900Y-6.775
X4.900Y-6.825
X4.900Y-6.875
X4.900Y-7.325
X4.900Y-7.375
X4.900Y-7.425
X4.900Y-7.475
X4.900Y-7.950
X4.900Y-8.050
X4.900Y-8.550
X4.900Y-8.650
X5.125Y-1.175
X5.125Y-1.475
X5.175Y-9.750
X5.175Y-9.850
X5.275Y-9.850
X5.500Y-1.275
X5.500Y-1.375
X5.500Y-1.475
X5.500Y-1.925
X5.500Y-1.975
X5.500Y-2.025
X5.500Y-2.075
X5.500Y-2.525
X5.500Y-2.575
X5.500Y-2.625
X5.500Y-2.675
X5.500Y-3.125
X5.500Y-3.175
X5.500Y-3.225
X5.500Y-3.275
X5.500Y-3.725
X5.500Y-3.775
X5.500Y-3.825
X5.500Y-3.875
X5.500Y-4.325
X5.500Y-4.375
X5.500Y-4.425
X5.500Y-4.475
X5.500Y-4.925
X5.500Y-4.975
X5.500Y-5.025
X5.500Y-5.075
X5.500Y-5.525
X5.500Y-5.575
X5.500Y-5.625
X5.500Y-5.675
X5.500Y-6.125
X5.500Y-6.175
X5.500Y-6.225
X5.500Y-6.275
X5.500Y-6.725
X5.500Y-6.775
X5.500Y-6.825
X5.500Y-6.875
X5.500Y-7.325
X5.500Y-7.375
X5.500Y-7.425
X5.500Y-7.475
X5.500Y-7.950
X5.500Y-8.050
X5.500Y-8.550
X5.500Y-8.650
X5.575Y-9.558
X5.575Y-9.658
X5.575Y-9.758
X5.575Y-9.850
X5.725Y-1.175
X5.725Y-1.475
X5.950Y-9.325
X6.100Y-1.275
X6.100Y-1.375
X6.100Y-1.475
X6.100Y-1.925
X6.100Y-1.975
X6.100Y-2.025
X6.100Y-2.075
X6.100Y-2.525
X6.100Y-2.575
X6.100Y-2.625
X6.100Y-2.675
X6.100Y-3.125
X6.100Y-3.175
X6.100Y-3.225
X6.100Y-3.275
X6.100Y-3.725
X6.100Y-3.775
X6.100Y-3.825
X6.100Y-3.875
X6.100Y-4.325
X6.100Y-4.375
X6.100Y-4.425
X6.100Y-4.475
X6.100Y-4.925
X6.100Y-4.975
X6.100Y-5.025
X6.100Y-5.075
X6.100Y-5.525
X6.100Y-5.575
X6.100Y-5.625
X6.100Y-5.675
X6.100Y-6.125
X6.100Y-6.175
X6.100Y-6.225
X6.100Y-6.275
X6.100Y-6.725
X6.100Y-6.775
X6.100Y-6.825
X6.100Y-6.875
X6.100Y-7.325
X6.100Y-7.375
X6.100Y-7.425
X6.100Y-7.475
X6.100Y-7.950
X6.100Y-8.050
X6.100Y-8.550
X6.100Y-8.650
X6.250Y-9.325
X6.325Y-1.175
X6.325Y-1.475
X6.550Y-9.325
X6.625Y-1.275
X6.625Y-1.375
X6.625Y-1.475
X6.700Y-1.925
X6.700Y-1.975
X6.700Y-2.025
X6.700Y-2.075
X6.700Y-2.525
X6.700Y-2.575
X6.700Y-2.625
X6.700Y-2.675
X6.700Y-3.125
X6.700Y-3.175
X6.700Y-3.225
X6.700Y-3.275
X6.700Y-3.725
X6.700Y-3.775
X6.700Y-3.825
X6.700Y-3.875
X6.700Y-4.325
X6.700Y-4.375
X6.700Y-4.425
X6.700Y-4.475
X6.700Y-4.925
X6.700Y-4.975
X6.700Y-5.025
X6.700Y-5.075
X6.700Y-5.525
X6.700Y-5.575
X6.700Y-5.625
X6.700Y-5.675
X6.700Y-6.125
X6.700Y-6.175
X6.700Y-6.225
X6.700Y-6.275
X6.700Y-6.725
X6.700Y-6.775
X6.700Y-6.825
X6.700Y-6.875
X6.700Y-7.325
X6.700Y-7.375
X6.700Y-7.425
X6.700Y-7.475
X6.700Y-7.950
X6.700Y-8.050
X6.700Y-8.550
X6.700Y-8.650
X6.850Y-9.325
X7.150Y-9.325
X7.225Y-1.175
X7.225Y-1.475
X7.300Y-1.925
X7.300Y-1.975
X7.300Y-2.025
X7.300Y-2.075
X7.300Y-2.525
X7.300Y-2.575
X7.300Y-2.625
X7.300Y-2.675
X7.300Y-3.125
X7.300Y-3.175
X7.300Y-3.225
X7.300Y-3.275
X7.300Y-3.725
X7.300Y-3.775
X7.300Y-3.825
X7.300Y-3.875
X7.300Y-4.325
X7.300Y-4.375
X7.300Y-4.425
X7.300Y-4.475
X7.300Y-4.925
X7.300Y-4.975
X7.300Y-5.025
X7.300Y-5.075
X7.300Y-5.525
X7.300Y-5.575
X7.300Y-5.625
X7.300Y-5.675
X7.300Y-6.125
X7.300Y-6.175
X7.300Y-6.225
X7.300Y-6.275
X7.300Y-6.725
X7.300Y-6.775
X7.300Y-6.825
X7.300Y-6.875
X7.300Y-7.325
X7.300Y-7.375
X7.300Y-7.425
X7.300Y-7.475
X7.300Y-7.950
X7.300Y-8.050
X7.300Y-8.550
X7.300Y-8.650
X7.375Y-1.275
X7.375Y-1.375
X7.375Y-1.475
X7.450Y-9.325
X7.625Y-1.175
X7.625Y-1.475
X7.750Y-9.325
X7.900Y-1.275
X7.900Y-1.375
X7.900Y-1.475
X7.900Y-1.925
X7.900Y-1.975
X7.900Y-2.025
X7.900Y-2.075
X7.900Y-2.525
X7.900Y-2.575
X7.900Y-2.625
X7.900Y-2.675
X7.900Y-3.125
X7.900Y-3.175
X7.900Y-3.225
X7.900Y-3.275
X7.900Y-3.725
X7.900Y-3.775
X7.900Y-3.825
X7.900Y-3.875
X7.900Y-4.325
X7.900Y-4.375
X7.900Y-4.425
X7.900Y-4.475
X7.900Y-4.925
X7.900Y-4.975
X7.900Y-5.025
X7.900Y-5.075
X7.900Y-5.525
X7.900Y-5.575
X7.900Y-5.625
X7.900Y-5.675
X7.900Y-6.125
X7.900Y-6.175
X7.900Y-6.225
X7.900Y-6.275
X7.900Y-6.725
X7.900Y-6.775
X7.900Y-6.825
X7.900Y-6.875
X7.900Y-7.325
X7.900Y-7.375
X7.900Y-7.425
X7.900Y-7.475
X7.900Y-7.950
X7.900Y-8.050
X7.900Y-8.550
X7.900Y-8.650
X8.050Y-9.325
X8.125Y-1.175
X8.125Y-1.475
X8.425Y-9.150
X8.425Y-9.750
X8.500Y-1.275
X8.500Y-1.375
X8.500Y-1.475
X8.500Y-1.925
X8.500Y-1.975
X8.500Y-2.025
X8.500Y-2.075
X8.500Y-2.525
X8.500Y-2.575
X8.500Y-2.625
X8.500Y-2.675
X8.500Y-3.125
X8.500Y-3.175
X8.500Y-3.225
X8.500Y-3.275
X8.500Y-3.725
X8.500Y-3.775
X8.500Y-3.825
X8.500Y-3.875
X8.500Y-4.325
X8.500Y-4.375
X8.500Y-4.425
X8.500Y-4.475
X8.500Y-4.925
X8.500Y-4.975
X8.500Y-5.025
X8.500Y-5.075
X8.500Y-5.525
X8.500Y-5.575
X8.500Y-5.625
X8.500Y-5.675
X8.500Y-6.125
X8.500Y-6.175
X8.500Y-6.225
X8.500Y-6.275
X8.500Y-6.725
X8.500Y-6.775
X8.500Y-6.825
X8.500Y-6.875
X8.500Y-7.325
X8.500Y-7.375
X8.500Y-7.425
X8.500Y-7.475
X8.500Y-7.950
X8.500Y-8.050
X8.500Y-8.550
X8.500Y-8.650
X8.525Y-9.150
X8.525Y-9.750
X8.625Y-9.150
X8.625Y-9.750
X8.725Y-1.175
X8.725Y-1.475
X8.725Y-9.150
X8.725Y-9.750
X8.825Y-9.150
X8.825Y-9.750
X8.925Y-9.150
X8.925Y-9.750
X9.025Y-9.150
X9.025Y-9.750
X9.100Y-1.275
X9.100Y-1.375
X9.100Y-1.475
X9.100Y-1.925
X9.100Y-1.975
X9.100Y-2.025
X9.100Y-2.075
X9.100Y-2.525
X9.100Y-2.575
X9.100Y-2.625
X9.100Y-2.675
X9.100Y-3.125
X9.100Y-3.175
X9.100Y-3.225
X9.100Y-3.275
X9.100Y-3.725
X9.100Y-3.775
X9.100Y-3.825
X9.100Y-3.875
X9.100Y-4.325
X9.100Y-4.375
X9.100Y-4.425
X9.100Y-4.475
X9.100Y-4.925
X9.100Y-4.975
X9.100Y-5.025
X9.100Y-5.075
X9.100Y-5.525
X9.100Y-5.575
X9.100Y-5.625
X9.100Y-5.675
X9.100Y-6.125
X9.100Y-6.175
X9.100Y-6.225
X9.100Y-6.275
X9.100Y-6.725
X9.100Y-6.775
X9.100Y-6.825
X9.100Y-6.875
X9.100Y-7.325
X9.100Y-7.375
X9.100Y-7.425
X9.100Y-7.475
X9.100Y-7.950
X9.100Y-8.050
X9.100Y-8.550
X9.100Y-8.650
X9.125Y-9.150
X9.125Y-9.750
X9.225Y-9.150
X9.225Y-9.750
X9.325Y-1.175
X9.325Y-1.475
X9.325Y-9.150
X9.325Y-9.750
X9.425Y-9.150
X9.425Y-9.750
X9.525Y-9.150
X9.525Y-9.750
X9.575Y-1.275
X9.575Y-1.375
X9.575Y-1.475
X9.700Y-1.925
X9.700Y-1.975
X9.700Y-2.025
X9.700Y-2.075
X9.700Y-2.525
X9.700Y-2.575
X9.700Y-2.625
X9.700Y-2.675
X9.700Y-3.125
X9.700Y-3.175
X9.700Y-3.225
X9.700Y-3.275
X9.700Y-3.725
X9.700Y-3.775
X9.700Y-3.825
X9.700Y-3.875
X9.700Y-4.325
X9.700Y-4.375
X9.700Y-4.425
X9.700Y-4.475
X9.700Y-4.925
X9.700Y-4.975
X9.700Y-5.025
X9.700Y-5.075
X9.700Y-5.525
X9.700Y-5.575
X9.700Y-5.625
X9.700Y-5.675
X9.700Y-6.125
X9.700Y-6.175
X9.700Y-6.225
X9.700Y-6.275
X9.700Y-6.725
X9.700Y-6.775
X9.700Y-6.825
X9.700Y-6.875
X9.700Y-7.325
X9.700Y-7.375
X9.700Y-7.425
X9.700Y-7.475
X9.700Y-7.950
X9.700Y-8.050
X9.700Y-8.550
X9.700Y-8.650
X9.725Y-9.375
X9.725Y-9.575
X10.150Y-1.175
X10.150Y-1.475
X10.300Y-1.275
X10.300Y-1.375
X10.300Y-1.475
X10.300Y-1.925
X10.300Y-1.975
X10.300Y-2.025
X10.300Y-2.075
X10.300Y-2.525
X10.300Y-2.575
X10.300Y-2.625
X10.300Y-2.675
X10.300Y-3.125
X10.300Y-3.175
X10.300Y-3.225
X10.300Y-3.275
X10.300Y-3.725
X10.300Y-3.775
X10.300Y-3.825
X10.300Y-3.875
X10.300Y-4.325
X10.300Y-4.375
X10.300Y-4.425
X10.300Y-4.475
X10.300Y-4.925
X10.300Y-4.975
X10.300Y-5.025
X10.300Y-5.075
X10.300Y-5.525
X10.300Y-5.575
X10.300Y-5.625
X10.300Y-5.675
X10.300Y-6.125
X10.300Y-6.175
X10.300Y-6.225
X10.300Y-6.275
X10.300Y-6.725
X10.300Y-6.775
X10.300Y-6.825
X10.300Y-6.875
X10.300Y-7.325
X10.300Y-7.375
X10.300Y-7.425
X10.300Y-7.475
X10.300Y-7.950
X10.300Y-8.050
X10.300Y-8.550
X10.300Y-8.650
X10.525Y-1.175
X10.525Y-1.475
X10.900Y-1.275
X10.900Y-1.375
X10.900Y-1.475
X10.900Y-1.925
X10.900Y-1.975
X10.900Y-2.025
X10.900Y-2.075
X10.900Y-2.525
X10.900Y-2.575
X10.900Y-2.625
X10.900Y-2.675
X10.900Y-3.125
X10.900Y-3.175
X10.900Y-3.225
X10.900Y-3.275
X10.900Y-3.725
X10.900Y-3.775
X10.900Y-3.825
X10.900Y-3.875
X10.900Y-4.325
X10.900Y-4.375
X10.900Y-4.425
X10.900Y-4.475
X10.900Y-4.925
X10.900Y-4.975
X10.900Y-5.025
X10.900Y-5.075
X10.900Y-5.525
X10.900Y-5.575
X10.900Y-5.625
X10.900Y-5.675
X10.900Y-6.125
X10.900Y-6.175
X10.900Y-6.225
X10.900Y-6.275
X10.900Y-6.725
X10.900Y-6.775
X10.900Y-6.825
X10.900Y-6.875
X10.900Y-7.325
X10.900Y-7.375
X10.900Y-7.425
X10.900Y-7.475
X10.900Y-7.950
X10.900Y-8.050
X10.900Y-8.550
X10.900Y-8.650
X11.125Y-1.175
X11.125Y-1.475
X11.500Y-1.275
X11.500Y-1.375
X11.500Y-1.475
X11.500Y-1.925
X11.500Y-1.975
X11.500Y-2.025
X11.500Y-2.075
X11.500Y-2.525
X11.500Y-2.575
X11.500Y-2.625
X11.500Y-2.675
X11.500Y-3.125
X11.500Y-3.175
X11.500Y-3.225
X11.500Y-3.275
X11.500Y-3.725
X11.500Y-3.775
X11.500Y-3.825
X11.500Y-3.875
X11.500Y-4.325
X11.500Y-4.375
X11.500Y-4.425
X11.500Y-4.475
X11.500Y-4.925
X11.500Y-4.975
X11.500Y-5.025
X11.500Y-5.075
X11.500Y-5.525
X11.500Y-5.575
X11.500Y-5.625
X11.500Y-5.675
X11.500Y-6.125
X11.500Y-6.175
X11.500Y-6.225
X11.500Y-6.275
X11.500Y-6.725
X11.500Y-6.775
X11.500Y-6.825
X11.500Y-6.875
X11.500Y-7.325
X11.500Y-7.375
X11.500Y-7.425
X11.500Y-7.475
X11.500Y-7.950
X11.500Y-8.050
X11.500Y-8.550
X11.500Y-8.650
X11.880Y-2.825
X12.048Y-4.390
X12.072Y-3.275
X12.072Y-3.475
X12.075Y-3.375
X12.150Y-6.375
X12.150Y-6.475
X12.150Y-6.575
X12.150Y-6.675
X12.280Y-2.825
X12.348Y-4.390
X12.350Y-3.783
X12.350Y-3.883
X12.350Y-6.375
X12.395Y-2.825
X12.395Y-3.025
X12.450Y-6.475
X12.450Y-6.575
X12.450Y-6.675
X12.490Y-4.390
X12.590Y-4.390
X12.615Y-2.825
X12.615Y-2.925
X12.850Y-6.475
X12.850Y-6.575
X12.850Y-6.675
T3
X1.150Y-1.600
X1.150Y-1.700
X1.150Y-1.800
X1.300Y-2.650
X1.300Y-2.750
X1.300Y-2.850
X1.300Y-2.950
X1.300Y-3.050
X1.300Y-3.150
X1.300Y-3.250
X1.300Y-3.350
X1.300Y-3.450
X1.300Y-3.550
X1.300Y-3.650
X1.300Y-3.750
X1.300Y-7.200
X1.300Y-7.300
X1.300Y-7.400
X1.300Y-7.500
X1.300Y-7.600
X1.300Y-7.700
X1.300Y-7.800
X1.300Y-7.900
X1.300Y-8.000
X1.300Y-8.100
X1.300Y-8.200
X1.300Y-8.300
X1.300Y-8.825
X1.300Y-8.925
X1.300Y-9.025
X1.300Y-9.125
X1.813Y-9.725
X1.900Y-2.650
X1.900Y-2.750
X1.900Y-2.850
X1.900Y-2.950
X1.900Y-3.050
X1.900Y-3.150
X1.900Y-3.250
X1.900Y-3.350
X1.900Y-3.450
X1.900Y-3.550
X1.900Y-3.650
X1.900Y-3.750
X1.900Y-7.200
X1.900Y-7.300
X1.900Y-7.400
X1.900Y-7.500
X1.900Y-7.600
X1.900Y-7.700
X1.900Y-7.800
X1.900Y-7.900
X1.900Y-8.000
X1.900Y-8.100
X1.900Y-8.200
X1.900Y-8.300
X1.988Y-9.725
X2.200Y-9.400
X2.300Y-9.400
X2.400Y-9.400
X2.450Y-9.160
X2.500Y-9.400
X2.550Y-9.160
X2.600Y-9.400
X2.650Y-9.160
X2.700Y-9.400
X2.925Y-9.625
X2.925Y-9.725
X3.025Y-9.625
X3.025Y-9.725
X3.125Y-9.625
X3.125Y-9.725
X5.200Y-9.230
X5.200Y-9.330
X5.200Y-9.530
X5.625Y-9.175
X5.625Y-9.275
X5.863Y-9.725
X6.038Y-9.725
X6.563Y-9.725
X6.738Y-9.725
X7.263Y-9.725
X7.438Y-9.725
X7.963Y-9.725
X8.138Y-9.725
X10.100Y-9.225
X10.100Y-9.325
X10.100Y-9.425
X10.100Y-9.525
X10.100Y-9.625
X10.100Y-9.725
X10.100Y-9.825
X10.100Y-9.925
X10.200Y-9.225
X10.200Y-9.325
X10.200Y-9.425
X10.200Y-9.525
X10.200Y-9.625
X10.200Y-9.725
X10.200Y-9.825
X10.200Y-9.925
X10.300Y-9.225
X10.300Y-9.325
X10.300Y-9.425
X10.300Y-9.525
X10.300Y-9.625
X10.300Y-9.725
X10.300Y-9.825
X10.300Y-9.925
X10.350Y-9.100
X10.400Y-9.225
X10.400Y-9.325
X10.400Y-9.425
X10.400Y-9.525
X10.400Y-9.625
X10.400Y-9.725
X10.400Y-9.825
X10.400Y-9.925
X10.450Y-9.100
X10.500Y-9.225
X10.500Y-9.325
X10.500Y-9.425
X10.500Y-9.525
X10.500Y-9.625
X10.500Y-9.725
X10.500Y-9.825
X10.500Y-9.925
X10.550Y-9.100
X10.600Y-9.225
X10.600Y-9.325
X10.600Y-9.425
X10.600Y-9.525
X10.600Y-9.625
X10.600Y-9.725
X10.600Y-9.825
X10.600Y-9.925
X10.650Y-9.100
X10.700Y-9.225
X10.700Y-9.325
X10.700Y-9.425
X10.700Y-9.525
X10.700Y-9.625
X10.700Y-9.725
X10.700Y-9.825
X10.700Y-9.925
X10.750Y-9.100
X10.800Y-9.225
X10.800Y-9.325
X10.800Y-9.425
X10.800Y-9.525
X10.800Y-9.625
X10.800Y-9.725
X10.800Y-9.825
X10.800Y-9.925
X10.850Y-9.100
X10.900Y-9.225
X10.900Y-9.325
X10.900Y-9.425
X10.900Y-9.525
X10.900Y-9.625
X10.900Y-9.725
X10.900Y-9.825
X10.900Y-9.925
X10.950Y-9.100
X11.000Y-9.225
X11.000Y-9.325
X11.000Y-9.425
X11.000Y-9.525
X11.000Y-9.625
X11.000Y-9.725
X11.000Y-9.825
X11.000Y-9.925
X11.050Y-9.100
X11.100Y-9.225
X11.100Y-9.325
X11.100Y-9.425
X11.100Y-9.525
X11.100Y-9.625
X11.100Y-9.725
X11.100Y-9.825
X11.100Y-9.925
X11.200Y-9.225
X11.200Y-9.325
X11.200Y-9.425
X11.200Y-9.525
X11.200Y-9.625
X11.200Y-9.725
X11.200Y-9.825
X11.200Y-9.925
X12.350Y-7.400
X12.350Y-8.300
X12.395Y-6.173
X12.445Y-5.112
X12.450Y-7.400
X12.450Y-8.300
X12.495Y-6.173
X12.550Y-7.400
X12.550Y-8.300
X12.648Y-3.783
X12.650Y-7.400
X12.650Y-8.300
X12.748Y-3.783
X12.825Y-8.825
X12.825Y-8.925
X12.825Y-9.025
X12.825Y-9.125
X12.848Y-3.783
T4
X1.763Y-9.625
X2.038Y-9.625
X5.813Y-9.625
X6.088Y-9.625
X6.513Y-9.625
X6.788Y-9.625
X7.213Y-9.625
X7.488Y-9.625
X7.913Y-9.625
X8.188Y-9.625
T5
X12.445Y-5.250
X12.445Y-6.035
T6
X12.030Y-5.643
X12.860Y-5.643
T7
X1.150Y-1.150
X1.150Y-4.050
X1.150Y-6.950
X1.150Y-9.850
X1.600Y-3.700
X1.600Y-7.250
X4.075Y-1.150
X7.000Y-1.150
X7.000Y-9.850
X9.925Y-1.150
X9.925Y-9.850
X12.000Y-7.350
X12.000Y-8.350
X12.850Y-1.150
X12.850Y-4.050
X12.850Y-6.950
X12.850Y-9.850
X12.900Y-7.350
X12.900Y-8.350
T8
X12.712Y-3.375
T3
X11.498Y-9.600G85X11.498Y-9.500
G05
X11.668Y-9.360G85X11.568Y-9.360
G05
X11.738Y-9.600G85X11.738Y-9.500
G05
X12.070Y-2.440G85X12.070Y-2.340
G05
X12.240Y-2.200G85X12.140Y-2.200
G05
X12.310Y-2.440G85X12.310Y-2.340
G05
X12.360Y-1.995G85X12.360Y-2.095
G05
X12.600Y-1.925G85X12.500Y-1.925
G05
X12.600Y-2.165G85X12.500Y-2.165
G05
T0
M30
