G04 (created by PCBNEW (2013-mar-13)-testing) date Sunday 29 December 2013 09:41:48 PM IST*
%MOIN*%
G04 Gerber Fmt 3.4, Leading zero omitted, Abs format*
%FSLAX34Y34*%
G01*
G70*
G90*
G04 APERTURE LIST*
%ADD10C,0.001000*%
%ADD11C,0.011800*%
%ADD12C,0.005000*%
%ADD13C,0.150000*%
G04 APERTURE END LIST*
G54D10*
X-845466Y845466D02*
X-845466Y845466D01*
X-845466Y845466D01*
X-845466Y845466D01*
X-845466Y845466D01*
X-845466Y845466D02*
X-845466Y845466D01*
X-845466Y845466D01*
X-845466Y845466D01*
X-845466Y845466D01*
X-845466Y845466D02*
X-845466Y845466D01*
X-845466Y845466D02*
X-845466Y845466D01*
X-845466Y845466D02*
X-845466Y845466D01*
X-845466Y845466D02*
X-845466Y845466D01*
X-845466Y845466D02*
X-845466Y845466D01*
X-845381Y-845339D02*
X-845269Y845199D01*
X-845156Y-845451D01*
X-845044Y845199D01*
X-844932Y-845339D01*
X-844763Y-845339D02*
X-844651Y845199D01*
X-844538Y-845451D01*
X-844426Y845199D01*
X-844314Y-845339D01*
X-844145Y-845339D02*
X-844033Y845199D01*
X-843920Y-845451D01*
X-843808Y845199D01*
X-843696Y-845339D01*
X-843471Y845255D02*
X-843443Y845227D01*
X-843471Y845199D01*
X-843499Y845227D01*
X-843471Y845255D01*
X-843471Y845199D01*
X-843246Y-845339D02*
X-843134Y845199D01*
X-843021Y-845451D01*
X-842909Y845199D01*
X-842796Y-845339D01*
X-842628Y-845339D02*
X-842487Y845199D01*
X-842347Y-845339D02*
X-842487Y845199D01*
X-842544Y845058D01*
X-842572Y845030D01*
X-842628Y845002D01*
X-842038Y845199D02*
X-842094Y845227D01*
X-842122Y845255D01*
X-842150Y845311D01*
X-842150Y-845451D01*
X-842122Y-845395D01*
X-842094Y-845367D01*
X-842038Y-845339D01*
X-841954Y-845339D01*
X-841897Y-845367D01*
X-841869Y-845395D01*
X-841841Y-845451D01*
X-841841Y845311D01*
X-841869Y845255D01*
X-841897Y845227D01*
X-841954Y845199D01*
X-842038Y845199D01*
X-841504Y845199D02*
X-841560Y845227D01*
X-841588Y845283D01*
X-841588Y-845142D01*
X-841026Y-845339D02*
X-841026Y845199D01*
X-841279Y-845339D02*
X-841279Y845283D01*
X-841251Y845227D01*
X-841195Y845199D01*
X-841111Y845199D01*
X-841055Y845227D01*
X-841026Y845255D01*
X-840746Y845199D02*
X-840746Y-845339D01*
X-840746Y-845395D02*
X-840717Y-845367D01*
X-840661Y-845339D01*
X-840577Y-845339D01*
X-840521Y-845367D01*
X-840493Y-845423D01*
X-840493Y845199D01*
X-840493Y-845423D02*
X-840465Y-845367D01*
X-840408Y-845339D01*
X-840324Y-845339D01*
X-840268Y-845367D01*
X-840240Y-845423D01*
X-840240Y845199D01*
X-839959Y845255D02*
X-839931Y845227D01*
X-839959Y845199D01*
X-839987Y845227D01*
X-839959Y845255D01*
X-839959Y845199D01*
X-839425Y845227D02*
X-839481Y845199D01*
X-839594Y845199D01*
X-839650Y845227D01*
X-839678Y845255D01*
X-839706Y845311D01*
X-839706Y-845451D01*
X-839678Y-845395D01*
X-839650Y-845367D01*
X-839594Y-845339D01*
X-839481Y-845339D01*
X-839425Y-845367D01*
X-839088Y845199D02*
X-839144Y845227D01*
X-839172Y845255D01*
X-839200Y845311D01*
X-839200Y-845451D01*
X-839172Y-845395D01*
X-839144Y-845367D01*
X-839088Y-845339D01*
X-839004Y-845339D01*
X-838947Y-845367D01*
X-838919Y-845395D01*
X-838891Y-845451D01*
X-838891Y845311D01*
X-838919Y845255D01*
X-838947Y845227D01*
X-839004Y845199D01*
X-839088Y845199D01*
X-838638Y845199D02*
X-838638Y-845339D01*
X-838638Y-845395D02*
X-838610Y-845367D01*
X-838554Y-845339D01*
X-838470Y-845339D01*
X-838414Y-845367D01*
X-838386Y-845423D01*
X-838386Y845199D01*
X-838386Y-845423D02*
X-838357Y-845367D01*
X-838301Y-845339D01*
X-838217Y-845339D01*
X-838161Y-845367D01*
X-838133Y-845423D01*
X-838133Y845199D01*
G54D11*
X-845381Y-845142D02*
X-845241Y845199D01*
X-845128Y-845311D01*
X-845016Y845199D01*
X-844876Y-845142D01*
X-844707Y-845339D02*
X-844566Y845199D01*
X-844426Y-845339D02*
X-844566Y845199D01*
X-844623Y845058D01*
X-844651Y845030D01*
X-844707Y845002D01*
X-844117Y845199D02*
X-844173Y845227D01*
X-844201Y845255D01*
X-844229Y845311D01*
X-844229Y-845451D01*
X-844201Y-845395D01*
X-844173Y-845367D01*
X-844117Y-845339D01*
X-844033Y-845339D01*
X-843976Y-845367D01*
X-843948Y-845395D01*
X-843920Y-845451D01*
X-843920Y845311D01*
X-843948Y845255D01*
X-843976Y845227D01*
X-844033Y845199D01*
X-844117Y845199D01*
X-843386Y845199D02*
X-843667Y845199D01*
X-843667Y-845142D01*
X-842937Y-845339D02*
X-842937Y845199D01*
X-843190Y-845339D02*
X-843190Y845283D01*
X-843162Y845227D01*
X-843106Y845199D01*
X-843021Y845199D01*
X-842965Y845227D01*
X-842937Y845255D01*
X-842656Y845199D02*
X-842656Y-845339D01*
X-842656Y-845395D02*
X-842628Y-845367D01*
X-842572Y-845339D01*
X-842487Y-845339D01*
X-842431Y-845367D01*
X-842403Y-845423D01*
X-842403Y845199D01*
X-842403Y-845423D02*
X-842375Y-845367D01*
X-842319Y-845339D01*
X-842235Y-845339D01*
X-842178Y-845367D01*
X-842150Y-845423D01*
X-842150Y845199D01*
G54D10*
X-845353Y845227D02*
X-845269Y845199D01*
X-845128Y845199D01*
X-845072Y845227D01*
X-845044Y845255D01*
X-845016Y845311D01*
X-845016Y845367D01*
X-845044Y845423D01*
X-845072Y845451D01*
X-845128Y-845451D01*
X-845241Y-845423D01*
X-845297Y-845395D01*
X-845325Y-845367D01*
X-845353Y-845311D01*
X-845353Y-845255D01*
X-845325Y-845199D01*
X-845297Y-845171D01*
X-845241Y-845142D01*
X-845100Y-845142D01*
X-845016Y-845171D01*
X-844763Y845199D02*
X-844763Y-845142D01*
X-844510Y845199D02*
X-844510Y-845423D01*
X-844538Y-845367D01*
X-844595Y-845339D01*
X-844679Y-845339D01*
X-844735Y-845367D01*
X-844763Y-845395D01*
X-844005Y845227D02*
X-844061Y845199D01*
X-844173Y845199D01*
X-844229Y845227D01*
X-844257Y845283D01*
X-844257Y-845423D01*
X-844229Y-845367D01*
X-844173Y-845339D01*
X-844061Y-845339D01*
X-844005Y-845367D01*
X-843976Y-845423D01*
X-843976Y845451D01*
X-844257Y845395D01*
X-843499Y845227D02*
X-843555Y845199D01*
X-843667Y845199D01*
X-843724Y845227D01*
X-843752Y845283D01*
X-843752Y-845423D01*
X-843724Y-845367D01*
X-843667Y-845339D01*
X-843555Y-845339D01*
X-843499Y-845367D01*
X-843471Y-845423D01*
X-843471Y845451D01*
X-843752Y845395D01*
X-843302Y-845339D02*
X-843077Y-845339D01*
X-843218Y-845142D02*
X-843218Y845283D01*
X-843190Y845227D01*
X-843134Y845199D01*
X-843077Y845199D01*
X-842881Y845255D02*
X-842853Y845227D01*
X-842881Y845199D01*
X-842909Y845227D01*
X-842881Y845255D01*
X-842881Y845199D01*
X-842881Y-845367D02*
X-842853Y-845395D01*
X-842881Y-845423D01*
X-842909Y-845395D01*
X-842881Y-845367D01*
X-842881Y-845423D01*
X-841729Y-845114D02*
X-842235Y845058D01*
X-841532Y845199D02*
X-841532Y-845142D01*
X-841279Y845199D02*
X-841279Y-845423D01*
X-841307Y-845367D01*
X-841364Y-845339D01*
X-841448Y-845339D01*
X-841504Y-845367D01*
X-841532Y-845395D01*
X-840914Y845199D02*
X-840970Y845227D01*
X-840998Y845255D01*
X-841026Y845311D01*
X-841026Y-845451D01*
X-840998Y-845395D01*
X-840970Y-845367D01*
X-840914Y-845339D01*
X-840830Y-845339D01*
X-840774Y-845367D01*
X-840746Y-845395D01*
X-840717Y-845451D01*
X-840717Y845311D01*
X-840746Y845255D01*
X-840774Y845227D01*
X-840830Y845199D01*
X-840914Y845199D01*
X-840465Y845199D02*
X-840465Y-845339D01*
X-840465Y-845395D02*
X-840436Y-845367D01*
X-840380Y-845339D01*
X-840296Y-845339D01*
X-840240Y-845367D01*
X-840212Y-845423D01*
X-840212Y845199D01*
X-840212Y-845423D02*
X-840184Y-845367D01*
X-840127Y-845339D01*
X-840043Y-845339D01*
X-839987Y-845367D01*
X-839959Y-845423D01*
X-839959Y845199D01*
X-839453Y845227D02*
X-839509Y845199D01*
X-839622Y845199D01*
X-839678Y845227D01*
X-839706Y845283D01*
X-839706Y-845423D01*
X-839678Y-845367D01*
X-839622Y-845339D01*
X-839509Y-845339D01*
X-839453Y-845367D01*
X-839425Y-845423D01*
X-839425Y845451D01*
X-839706Y845395D01*
X-838751Y-845114D02*
X-839256Y845058D01*
X-838582Y845227D02*
X-838526Y845199D01*
X-838414Y845199D01*
X-838357Y845227D01*
X-838329Y845283D01*
X-838329Y845311D01*
X-838357Y845367D01*
X-838414Y845395D01*
X-838498Y845395D01*
X-838554Y845423D01*
X-838582Y-845451D01*
X-838582Y-845423D01*
X-838554Y-845367D01*
X-838498Y-845339D01*
X-838414Y-845339D01*
X-838357Y-845367D01*
X-837824Y845199D02*
X-837824Y-845423D01*
X-837852Y-845367D01*
X-837908Y-845339D01*
X-838020Y-845339D01*
X-838076Y-845367D01*
X-837824Y845227D02*
X-837880Y845199D01*
X-838020Y845199D01*
X-838076Y845227D01*
X-838105Y845283D01*
X-838105Y845339D01*
X-838076Y845395D01*
X-838020Y845423D01*
X-837880Y845423D01*
X-837824Y845451D01*
X-837543Y845199D02*
X-837543Y-845339D01*
X-837543Y-845395D02*
X-837515Y-845367D01*
X-837458Y-845339D01*
X-837374Y-845339D01*
X-837318Y-845367D01*
X-837290Y-845423D01*
X-837290Y845199D01*
X-837290Y-845423D02*
X-837262Y-845367D01*
X-837206Y-845339D01*
X-837121Y-845339D01*
X-837065Y-845367D01*
X-837037Y-845423D01*
X-837037Y845199D01*
X-836503Y845199D02*
X-836503Y-845423D01*
X-836531Y-845367D01*
X-836587Y-845339D01*
X-836700Y-845339D01*
X-836756Y-845367D01*
X-836503Y845227D02*
X-836559Y845199D01*
X-836700Y845199D01*
X-836756Y845227D01*
X-836784Y845283D01*
X-836784Y845339D01*
X-836756Y845395D01*
X-836700Y845423D01*
X-836559Y845423D01*
X-836503Y845451D01*
X-836306Y-845339D02*
X-836082Y-845339D01*
X-836222Y-845142D02*
X-836222Y845283D01*
X-836194Y845227D01*
X-836138Y845199D01*
X-836082Y845199D01*
X-835632Y845199D02*
X-835632Y-845423D01*
X-835660Y-845367D01*
X-835716Y-845339D01*
X-835829Y-845339D01*
X-835885Y-845367D01*
X-835632Y845227D02*
X-835688Y845199D01*
X-835829Y845199D01*
X-835885Y845227D01*
X-835913Y845283D01*
X-835913Y845339D01*
X-835885Y845395D01*
X-835829Y845423D01*
X-835688Y845423D01*
X-835632Y845451D01*
X-834930Y-845114D02*
X-835436Y845058D01*
X-834733Y845199D02*
X-834733Y-845142D01*
X-834593Y-845142D01*
X-834508Y-845171D01*
X-834452Y-845227D01*
X-834424Y-845283D01*
X-834396Y-845395D01*
X-834396Y845451D01*
X-834424Y845339D01*
X-834452Y845283D01*
X-834508Y845227D01*
X-834593Y845199D01*
X-834733Y845199D01*
X-834059Y845199D02*
X-834115Y845227D01*
X-834143Y845255D01*
X-834171Y845311D01*
X-834171Y-845451D01*
X-834143Y-845395D01*
X-834115Y-845367D01*
X-834059Y-845339D01*
X-833975Y-845339D01*
X-833918Y-845367D01*
X-833890Y-845395D01*
X-833862Y-845451D01*
X-833862Y845311D01*
X-833890Y845255D01*
X-833918Y845227D01*
X-833975Y845199D01*
X-834059Y845199D01*
X-833356Y845227D02*
X-833413Y845199D01*
X-833525Y845199D01*
X-833581Y845227D01*
X-833609Y845255D01*
X-833637Y845311D01*
X-833637Y-845451D01*
X-833609Y-845395D01*
X-833581Y-845367D01*
X-833525Y-845339D01*
X-833413Y-845339D01*
X-833356Y-845367D01*
X-832851Y-845339D02*
X-832851Y845199D01*
X-833104Y-845339D02*
X-833104Y845283D01*
X-833076Y845227D01*
X-833019Y845199D01*
X-832935Y845199D01*
X-832879Y845227D01*
X-832851Y845255D01*
X-832570Y845199D02*
X-832570Y-845339D01*
X-832570Y-845395D02*
X-832542Y-845367D01*
X-832486Y-845339D01*
X-832401Y-845339D01*
X-832345Y-845367D01*
X-832317Y-845423D01*
X-832317Y845199D01*
X-832317Y-845423D02*
X-832289Y-845367D01*
X-832233Y-845339D01*
X-832148Y-845339D01*
X-832092Y-845367D01*
X-832064Y-845423D01*
X-832064Y845199D01*
X-831558Y845227D02*
X-831615Y845199D01*
X-831727Y845199D01*
X-831783Y845227D01*
X-831811Y845283D01*
X-831811Y-845423D01*
X-831783Y-845367D01*
X-831727Y-845339D01*
X-831615Y-845339D01*
X-831558Y-845367D01*
X-831530Y-845423D01*
X-831530Y845451D01*
X-831811Y845395D01*
X-831277Y-845339D02*
X-831277Y845199D01*
X-831277Y-845395D02*
X-831249Y-845367D01*
X-831193Y-845339D01*
X-831109Y-845339D01*
X-831053Y-845367D01*
X-831025Y-845423D01*
X-831025Y845199D01*
X-830828Y-845339D02*
X-830603Y-845339D01*
X-830744Y-845142D02*
X-830744Y845283D01*
X-830716Y845227D01*
X-830659Y845199D01*
X-830603Y845199D01*
X-830435Y845227D02*
X-830378Y845199D01*
X-830266Y845199D01*
X-830210Y845227D01*
X-830182Y845283D01*
X-830182Y845311D01*
X-830210Y845367D01*
X-830266Y845395D01*
X-830350Y845395D01*
X-830406Y845423D01*
X-830435Y-845451D01*
X-830435Y-845423D01*
X-830406Y-845367D01*
X-830350Y-845339D01*
X-830266Y-845339D01*
X-830210Y-845367D01*
X-829507Y-845114D02*
X-830013Y845058D01*
X-829058Y845227D02*
X-829114Y845199D01*
X-829226Y845199D01*
X-829283Y845227D01*
X-829311Y845255D01*
X-829339Y845311D01*
X-829339Y-845451D01*
X-829311Y-845395D01*
X-829283Y-845367D01*
X-829226Y-845339D01*
X-829114Y-845339D01*
X-829058Y-845367D01*
X-828721Y845199D02*
X-828777Y845227D01*
X-828805Y845283D01*
X-828805Y-845142D01*
X-828412Y845199D02*
X-828468Y845227D01*
X-828496Y845255D01*
X-828524Y845311D01*
X-828524Y-845451D01*
X-828496Y-845395D01*
X-828468Y-845367D01*
X-828412Y-845339D01*
X-828327Y-845339D01*
X-828271Y-845367D01*
X-828243Y-845395D01*
X-828215Y-845451D01*
X-828215Y845311D01*
X-828243Y845255D01*
X-828271Y845227D01*
X-828327Y845199D01*
X-828412Y845199D01*
X-827709Y845227D02*
X-827766Y845199D01*
X-827878Y845199D01*
X-827934Y845227D01*
X-827962Y845255D01*
X-827990Y845311D01*
X-827990Y-845451D01*
X-827962Y-845395D01*
X-827934Y-845367D01*
X-827878Y-845339D01*
X-827766Y-845339D01*
X-827709Y-845367D01*
X-827456Y845199D02*
X-827456Y-845142D01*
X-827400Y845423D02*
X-827232Y845199D01*
X-827232Y-845339D02*
X-827456Y845367D01*
X-827063Y-845339D02*
X-826838Y-845339D01*
X-826979Y-845142D02*
X-826979Y845283D01*
X-826951Y845227D01*
X-826895Y845199D01*
X-826838Y845199D01*
X-826642Y845199D02*
X-826642Y-845142D01*
X-826389Y845199D02*
X-826389Y-845423D01*
X-826417Y-845367D01*
X-826473Y-845339D01*
X-826557Y-845339D01*
X-826614Y-845367D01*
X-826642Y-845395D01*
X-826108Y845199D02*
X-826108Y-845339D01*
X-826108Y-845451D02*
X-826080Y-845395D01*
X-826052Y-845367D01*
X-825996Y-845339D01*
X-825939Y-845339D01*
X-825518Y845227D02*
X-825574Y845199D01*
X-825686Y845199D01*
X-825743Y845227D01*
X-825771Y845283D01*
X-825771Y-845423D01*
X-825743Y-845367D01*
X-825686Y-845339D01*
X-825574Y-845339D01*
X-825518Y-845367D01*
X-825490Y-845423D01*
X-825490Y845451D01*
X-825771Y845395D01*
X-825012Y845227D02*
X-825068Y845199D01*
X-825181Y845199D01*
X-825237Y845227D01*
X-825265Y845283D01*
X-825265Y-845423D01*
X-825237Y-845367D01*
X-825181Y-845339D01*
X-825068Y-845339D01*
X-825012Y-845367D01*
X-824984Y-845423D01*
X-824984Y845451D01*
X-825265Y845395D01*
X-824310Y-845114D02*
X-824816Y845058D01*
X-824113Y845199D02*
X-824113Y-845142D01*
X-823776Y845199D02*
X-824029Y-845395D01*
X-823776Y-845142D02*
X-824113Y845451D01*
X-823523Y845199D02*
X-823523Y-845339D01*
X-823523Y-845142D02*
X-823551Y-845171D01*
X-823523Y-845199D01*
X-823495Y-845171D01*
X-823523Y-845142D01*
X-823523Y-845199D01*
X-822905Y845255D02*
X-822933Y845227D01*
X-823017Y845199D01*
X-823074Y845199D01*
X-823158Y845227D01*
X-823214Y845283D01*
X-823242Y845339D01*
X-823270Y845451D01*
X-823270Y-845395D01*
X-823242Y-845283D01*
X-823214Y-845227D01*
X-823158Y-845171D01*
X-823074Y-845142D01*
X-823017Y-845142D01*
X-822933Y-845171D01*
X-822905Y-845199D01*
X-822399Y845199D02*
X-822399Y-845423D01*
X-822427Y-845367D01*
X-822484Y-845339D01*
X-822596Y-845339D01*
X-822652Y-845367D01*
X-822399Y845227D02*
X-822456Y845199D01*
X-822596Y845199D01*
X-822652Y845227D01*
X-822680Y845283D01*
X-822680Y845339D01*
X-822652Y845395D01*
X-822596Y845423D01*
X-822456Y845423D01*
X-822399Y845451D01*
X-821866Y845199D02*
X-821866Y-845142D01*
X-821866Y845227D02*
X-821922Y845199D01*
X-822034Y845199D01*
X-822090Y845227D01*
X-822118Y845255D01*
X-822146Y845311D01*
X-822146Y-845451D01*
X-822118Y-845395D01*
X-822090Y-845367D01*
X-822034Y-845339D01*
X-821922Y-845339D01*
X-821866Y-845367D01*
X-821163Y-845114D02*
X-821669Y845058D01*
X-820714Y-845339D02*
X-820714Y845199D01*
X-820966Y-845339D02*
X-820966Y845283D01*
X-820938Y845227D01*
X-820882Y845199D01*
X-820798Y845199D01*
X-820742Y845227D01*
X-820714Y845255D01*
X-820096Y845255D02*
X-820124Y845227D01*
X-820208Y845199D01*
X-820264Y845199D01*
X-820348Y845227D01*
X-820405Y845283D01*
X-820433Y845339D01*
X-820461Y845451D01*
X-820461Y-845395D01*
X-820433Y-845283D01*
X-820405Y-845227D01*
X-820348Y-845171D01*
X-820264Y-845142D01*
X-820208Y-845142D01*
X-820124Y-845171D01*
X-820096Y-845199D01*
X-819758Y845199D02*
X-819815Y845227D01*
X-819843Y845255D01*
X-819871Y845311D01*
X-819871Y-845451D01*
X-819843Y-845395D01*
X-819815Y-845367D01*
X-819758Y-845339D01*
X-819674Y-845339D01*
X-819618Y-845367D01*
X-819590Y-845395D01*
X-819562Y-845451D01*
X-819562Y845311D01*
X-819590Y845255D01*
X-819618Y845227D01*
X-819674Y845199D01*
X-819758Y845199D01*
X-819309Y-845339D02*
X-819309Y845199D01*
X-819309Y-845395D02*
X-819281Y-845367D01*
X-819225Y-845339D01*
X-819140Y-845339D01*
X-819084Y-845367D01*
X-819056Y-845423D01*
X-819056Y845199D01*
X-818859Y-845339D02*
X-818635Y-845339D01*
X-818775Y-845142D02*
X-818775Y845283D01*
X-818747Y845227D01*
X-818691Y845199D01*
X-818635Y845199D01*
X-818438Y845199D02*
X-818438Y-845339D01*
X-818438Y-845451D02*
X-818410Y-845395D01*
X-818382Y-845367D01*
X-818326Y-845339D01*
X-818269Y-845339D01*
X-817988Y845199D02*
X-818045Y845227D01*
X-818073Y845255D01*
X-818101Y845311D01*
X-818101Y-845451D01*
X-818073Y-845395D01*
X-818045Y-845367D01*
X-817988Y-845339D01*
X-817904Y-845339D01*
X-817848Y-845367D01*
X-817820Y-845395D01*
X-817792Y-845451D01*
X-817792Y845311D01*
X-817820Y845255D01*
X-817848Y845227D01*
X-817904Y845199D01*
X-817988Y845199D01*
X-817455Y845199D02*
X-817511Y845227D01*
X-817539Y845283D01*
X-817539Y-845142D01*
X-817370Y845142D02*
X-816921Y845142D01*
X-816836Y-845339D02*
X-816696Y845199D01*
X-816556Y-845339D01*
X-816387Y-845142D02*
X-816022Y-845142D01*
X-816218Y-845367D01*
X-816134Y-845367D01*
X-816078Y-845395D01*
X-816050Y-845423D01*
X-816022Y845451D01*
X-816022Y845311D01*
X-816050Y845255D01*
X-816078Y845227D01*
X-816134Y845199D01*
X-816303Y845199D01*
X-816359Y845227D01*
X-816387Y845255D01*
X-815347Y-845114D02*
X-815853Y845058D01*
X-814898Y-845339D02*
X-814898Y845199D01*
X-815151Y-845339D02*
X-815151Y845283D01*
X-815123Y845227D01*
X-815066Y845199D01*
X-814982Y845199D01*
X-814926Y845227D01*
X-814898Y845255D01*
X-814280Y845255D02*
X-814308Y845227D01*
X-814392Y845199D01*
X-814448Y845199D01*
X-814533Y845227D01*
X-814589Y845283D01*
X-814617Y845339D01*
X-814645Y845451D01*
X-814645Y-845395D01*
X-814617Y-845283D01*
X-814589Y-845227D01*
X-814533Y-845171D01*
X-814448Y-845142D01*
X-814392Y-845142D01*
X-814308Y-845171D01*
X-814280Y-845199D01*
X-813943Y845199D02*
X-813999Y845227D01*
X-814027Y845255D01*
X-814055Y845311D01*
X-814055Y-845451D01*
X-814027Y-845395D01*
X-813999Y-845367D01*
X-813943Y-845339D01*
X-813858Y-845339D01*
X-813802Y-845367D01*
X-813774Y-845395D01*
X-813746Y-845451D01*
X-813746Y845311D01*
X-813774Y845255D01*
X-813802Y845227D01*
X-813858Y845199D01*
X-813943Y845199D01*
X-813493Y-845339D02*
X-813493Y845199D01*
X-813493Y-845395D02*
X-813465Y-845367D01*
X-813409Y-845339D01*
X-813325Y-845339D01*
X-813268Y-845367D01*
X-813240Y-845423D01*
X-813240Y845199D01*
X-813044Y-845339D02*
X-812819Y-845339D01*
X-812959Y-845142D02*
X-812959Y845283D01*
X-812931Y845227D01*
X-812875Y845199D01*
X-812819Y845199D01*
X-812622Y845199D02*
X-812622Y-845339D01*
X-812622Y-845451D02*
X-812594Y-845395D01*
X-812566Y-845367D01*
X-812510Y-845339D01*
X-812454Y-845339D01*
X-812173Y845199D02*
X-812229Y845227D01*
X-812257Y845255D01*
X-812285Y845311D01*
X-812285Y-845451D01*
X-812257Y-845395D01*
X-812229Y-845367D01*
X-812173Y-845339D01*
X-812088Y-845339D01*
X-812032Y-845367D01*
X-812004Y-845395D01*
X-811976Y-845451D01*
X-811976Y845311D01*
X-812004Y845255D01*
X-812032Y845227D01*
X-812088Y845199D01*
X-812173Y845199D01*
X-811639Y845199D02*
X-811695Y845227D01*
X-811723Y845283D01*
X-811723Y-845142D01*
X-811555Y845142D02*
X-811105Y845142D01*
X-811021Y-845339D02*
X-810880Y845199D01*
X-810740Y-845339D01*
X-810571Y-845142D02*
X-810206Y-845142D01*
X-810403Y-845367D01*
X-810318Y-845367D01*
X-810262Y-845395D01*
X-810234Y-845423D01*
X-810206Y845451D01*
X-810206Y845311D01*
X-810234Y845255D01*
X-810262Y845227D01*
X-810318Y845199D01*
X-810487Y845199D01*
X-810543Y845227D01*
X-810571Y845255D01*
X-809953Y845255D02*
X-809925Y845227D01*
X-809953Y845199D01*
X-809981Y845227D01*
X-809953Y845255D01*
X-809953Y845199D01*
X-809672Y845199D02*
X-809672Y-845142D01*
X-809616Y845423D02*
X-809447Y845199D01*
X-809447Y-845339D02*
X-809672Y845367D01*
X-809195Y845199D02*
X-809195Y-845339D01*
X-809195Y-845142D02*
X-809223Y-845171D01*
X-809195Y-845199D01*
X-809166Y-845171D01*
X-809195Y-845142D01*
X-809195Y-845199D01*
X-808661Y845227D02*
X-808717Y845199D01*
X-808829Y845199D01*
X-808886Y845227D01*
X-808914Y845255D01*
X-808942Y845311D01*
X-808942Y-845451D01*
X-808914Y-845395D01*
X-808886Y-845367D01*
X-808829Y-845339D01*
X-808717Y-845339D01*
X-808661Y-845367D01*
X-808155Y845199D02*
X-808155Y-845423D01*
X-808183Y-845367D01*
X-808239Y-845339D01*
X-808352Y-845339D01*
X-808408Y-845367D01*
X-808155Y845227D02*
X-808211Y845199D01*
X-808352Y845199D01*
X-808408Y845227D01*
X-808436Y845283D01*
X-808436Y845339D01*
X-808408Y845395D01*
X-808352Y845423D01*
X-808211Y845423D01*
X-808155Y845451D01*
X-807621Y845199D02*
X-807621Y-845142D01*
X-807621Y845227D02*
X-807677Y845199D01*
X-807790Y845199D01*
X-807846Y845227D01*
X-807874Y845255D01*
X-807902Y845311D01*
X-807902Y-845451D01*
X-807874Y-845395D01*
X-807846Y-845367D01*
X-807790Y-845339D01*
X-807677Y-845339D01*
X-807621Y-845367D01*
X-807481Y845142D02*
X-807031Y845142D01*
X-806891Y-845339D02*
X-806891Y845002D01*
X-806891Y-845367D02*
X-806835Y-845339D01*
X-806722Y-845339D01*
X-806666Y-845367D01*
X-806638Y-845395D01*
X-806610Y-845451D01*
X-806610Y845311D01*
X-806638Y845255D01*
X-806666Y845227D01*
X-806722Y845199D01*
X-806835Y845199D01*
X-806891Y845227D01*
X-806104Y845227D02*
X-806160Y845199D01*
X-806273Y845199D01*
X-806329Y845227D01*
X-806357Y845255D01*
X-806385Y845311D01*
X-806385Y-845451D01*
X-806357Y-845395D01*
X-806329Y-845367D01*
X-806273Y-845339D01*
X-806160Y-845339D01*
X-806104Y-845367D01*
X-805851Y845199D02*
X-805851Y-845142D01*
X-805851Y-845367D02*
X-805795Y-845339D01*
X-805683Y-845339D01*
X-805626Y-845367D01*
X-805598Y-845395D01*
X-805570Y-845451D01*
X-805570Y845311D01*
X-805598Y845255D01*
X-805626Y845227D01*
X-805683Y845199D01*
X-805795Y845199D01*
X-805851Y845227D01*
X-845128Y-845423D02*
X-845325Y-845423D01*
X-845325Y845199D02*
X-845325Y-845142D01*
X-845044Y-845142D01*
X-844819Y845199D02*
X-844819Y-845339D01*
X-844819Y-845142D02*
X-844847Y-845171D01*
X-844819Y-845199D01*
X-844791Y-845171D01*
X-844819Y-845142D01*
X-844819Y-845199D01*
X-844454Y845199D02*
X-844510Y845227D01*
X-844538Y845283D01*
X-844538Y-845142D01*
X-844005Y845227D02*
X-844061Y845199D01*
X-844173Y845199D01*
X-844229Y845227D01*
X-844257Y845283D01*
X-844257Y-845423D01*
X-844229Y-845367D01*
X-844173Y-845339D01*
X-844061Y-845339D01*
X-844005Y-845367D01*
X-843976Y-845423D01*
X-843976Y845451D01*
X-844257Y845395D01*
X-843724Y845255D02*
X-843696Y845227D01*
X-843724Y845199D01*
X-843752Y845227D01*
X-843724Y845255D01*
X-843724Y845199D01*
X-843724Y-845367D02*
X-843696Y-845395D01*
X-843724Y-845423D01*
X-843752Y-845395D01*
X-843724Y-845367D01*
X-843724Y-845423D01*
G54D11*
X-845409Y-845142D02*
X-845072Y-845142D01*
X-845241Y845199D02*
X-845241Y-845142D01*
X-844876Y845199D02*
X-844876Y-845339D01*
X-844876Y-845142D02*
X-844904Y-845171D01*
X-844876Y-845199D01*
X-844847Y-845171D01*
X-844876Y-845142D01*
X-844876Y-845199D01*
X-844679Y-845339D02*
X-844454Y-845339D01*
X-844595Y-845142D02*
X-844595Y845283D01*
X-844566Y845227D01*
X-844510Y845199D01*
X-844454Y845199D01*
X-844173Y845199D02*
X-844229Y845227D01*
X-844257Y845283D01*
X-844257Y-845142D01*
X-843724Y845227D02*
X-843780Y845199D01*
X-843892Y845199D01*
X-843948Y845227D01*
X-843976Y845283D01*
X-843976Y-845423D01*
X-843948Y-845367D01*
X-843892Y-845339D01*
X-843780Y-845339D01*
X-843724Y-845367D01*
X-843696Y-845423D01*
X-843696Y845451D01*
X-843976Y845395D01*
X-843443Y845255D02*
X-843415Y845227D01*
X-843443Y845199D01*
X-843471Y845227D01*
X-843443Y845255D01*
X-843443Y845199D01*
X-843443Y-845367D02*
X-843415Y-845395D01*
X-843443Y-845423D01*
X-843471Y-845395D01*
X-843443Y-845367D01*
X-843443Y-845423D01*
X-842796Y-845142D02*
X-842459Y-845142D01*
X-842628Y845199D02*
X-842628Y-845142D01*
X-842263Y845199D02*
X-842263Y-845339D01*
X-842263Y-845142D02*
X-842291Y-845171D01*
X-842263Y-845199D01*
X-842235Y-845171D01*
X-842263Y-845142D01*
X-842263Y-845199D01*
X-841982Y845199D02*
X-841982Y-845142D01*
X-841645Y845199D01*
X-841645Y-845142D01*
X-841392Y845367D02*
X-841111Y845367D01*
X-841448Y845199D02*
X-841251Y-845142D01*
X-841055Y845199D01*
X-840408Y845423D02*
X-839959Y845423D01*
X-838891Y845255D02*
X-838919Y845227D01*
X-839004Y845199D01*
X-839060Y845199D01*
X-839144Y845227D01*
X-839200Y845283D01*
X-839228Y845339D01*
X-839256Y845451D01*
X-839256Y-845395D01*
X-839228Y-845283D01*
X-839200Y-845227D01*
X-839144Y-845171D01*
X-839060Y-845142D01*
X-839004Y-845142D01*
X-838919Y-845171D01*
X-838891Y-845199D01*
X-838554Y845199D02*
X-838610Y845227D01*
X-838638Y845255D01*
X-838666Y845311D01*
X-838666Y-845451D01*
X-838638Y-845395D01*
X-838610Y-845367D01*
X-838554Y-845339D01*
X-838470Y-845339D01*
X-838414Y-845367D01*
X-838386Y-845395D01*
X-838357Y-845451D01*
X-838357Y845311D01*
X-838386Y845255D01*
X-838414Y845227D01*
X-838470Y845199D01*
X-838554Y845199D01*
X-838105Y-845339D02*
X-838105Y845199D01*
X-838105Y-845395D02*
X-838076Y-845367D01*
X-838020Y-845339D01*
X-837936Y-845339D01*
X-837880Y-845367D01*
X-837852Y-845423D01*
X-837852Y845199D01*
X-837655Y-845339D02*
X-837430Y-845339D01*
X-837571Y-845142D02*
X-837571Y845283D01*
X-837543Y845227D01*
X-837486Y845199D01*
X-837430Y845199D01*
X-837234Y845199D02*
X-837234Y-845339D01*
X-837234Y-845451D02*
X-837206Y-845395D01*
X-837177Y-845367D01*
X-837121Y-845339D01*
X-837065Y-845339D01*
X-836784Y845199D02*
X-836840Y845227D01*
X-836868Y845255D01*
X-836896Y845311D01*
X-836896Y-845451D01*
X-836868Y-845395D01*
X-836840Y-845367D01*
X-836784Y-845339D01*
X-836700Y-845339D01*
X-836644Y-845367D01*
X-836616Y-845395D01*
X-836587Y-845451D01*
X-836587Y845311D01*
X-836616Y845255D01*
X-836644Y845227D01*
X-836700Y845199D01*
X-836784Y845199D01*
X-836250Y845199D02*
X-836306Y845227D01*
X-836335Y845283D01*
X-836335Y-845142D01*
X-835941Y845199D02*
X-835997Y845227D01*
X-836026Y845283D01*
X-836026Y-845142D01*
X-835492Y845227D02*
X-835548Y845199D01*
X-835660Y845199D01*
X-835716Y845227D01*
X-835745Y845283D01*
X-835745Y-845423D01*
X-835716Y-845367D01*
X-835660Y-845339D01*
X-835548Y-845339D01*
X-835492Y-845367D01*
X-835464Y-845423D01*
X-835464Y845451D01*
X-835745Y845395D01*
X-835211Y845199D02*
X-835211Y-845339D01*
X-835211Y-845451D02*
X-835183Y-845395D01*
X-835155Y-845367D01*
X-835098Y-845339D01*
X-835042Y-845339D01*
X-834480Y-845339D02*
X-834256Y-845339D01*
X-834396Y845199D02*
X-834396Y-845227D01*
X-834368Y-845171D01*
X-834312Y-845142D01*
X-834256Y-845142D01*
X-833975Y845199D02*
X-834031Y845227D01*
X-834059Y845255D01*
X-834087Y845311D01*
X-834087Y-845451D01*
X-834059Y-845395D01*
X-834031Y-845367D01*
X-833975Y-845339D01*
X-833890Y-845339D01*
X-833834Y-845367D01*
X-833806Y-845395D01*
X-833778Y-845451D01*
X-833778Y845311D01*
X-833806Y845255D01*
X-833834Y845227D01*
X-833890Y845199D01*
X-833975Y845199D01*
X-833525Y845199D02*
X-833525Y-845339D01*
X-833525Y-845451D02*
X-833497Y-845395D01*
X-833469Y-845367D01*
X-833413Y-845339D01*
X-833356Y-845339D01*
X-832795Y-845142D02*
X-832457Y-845142D01*
X-832626Y845199D02*
X-832626Y-845142D01*
X-832261Y845199D02*
X-832261Y-845339D01*
X-832261Y-845142D02*
X-832289Y-845171D01*
X-832261Y-845199D01*
X-832233Y-845171D01*
X-832261Y-845142D01*
X-832261Y-845199D01*
X-831980Y845199D02*
X-831980Y-845142D01*
X-831783Y845367D01*
X-831586Y-845142D01*
X-831586Y845199D01*
G54D10*
X-845325Y845199D02*
X-845325Y-845142D01*
X-844791Y845199D02*
X-844791Y-845142D01*
X-844791Y845227D02*
X-844847Y845199D01*
X-844960Y845199D01*
X-845016Y845227D01*
X-845044Y845255D01*
X-845072Y845311D01*
X-845072Y-845451D01*
X-845044Y-845395D01*
X-845016Y-845367D01*
X-844960Y-845339D01*
X-844847Y-845339D01*
X-844791Y-845367D01*
X-844510Y845255D02*
X-844482Y845227D01*
X-844510Y845199D01*
X-844538Y845227D01*
X-844510Y845255D01*
X-844510Y845199D01*
X-844510Y-845367D02*
X-844482Y-845395D01*
X-844510Y-845423D01*
X-844538Y-845395D01*
X-844510Y-845367D01*
X-844510Y-845423D01*
X-843471Y845199D02*
X-843808Y845199D01*
X-843639Y845199D02*
X-843639Y-845142D01*
X-843696Y-845227D01*
X-843752Y-845283D01*
X-843808Y-845311D01*
X-842796Y-845114D02*
X-843302Y845058D01*
X-842291Y845199D02*
X-842628Y845199D01*
X-842459Y845199D02*
X-842459Y-845142D01*
X-842516Y-845227D01*
X-842572Y-845283D01*
X-842628Y-845311D01*
X-845353Y845227D02*
X-845269Y845199D01*
X-845128Y845199D01*
X-845072Y845227D01*
X-845044Y845255D01*
X-845016Y845311D01*
X-845016Y845367D01*
X-845044Y845423D01*
X-845072Y845451D01*
X-845128Y-845451D01*
X-845241Y-845423D01*
X-845297Y-845395D01*
X-845325Y-845367D01*
X-845353Y-845311D01*
X-845353Y-845255D01*
X-845325Y-845199D01*
X-845297Y-845171D01*
X-845241Y-845142D01*
X-845100Y-845142D01*
X-845016Y-845171D01*
X-844763Y845199D02*
X-844763Y-845339D01*
X-844763Y-845142D02*
X-844791Y-845171D01*
X-844763Y-845199D01*
X-844735Y-845171D01*
X-844763Y-845142D01*
X-844763Y-845199D01*
X-844538Y-845339D02*
X-844229Y-845339D01*
X-844538Y845199D01*
X-844229Y845199D01*
X-843780Y845227D02*
X-843836Y845199D01*
X-843948Y845199D01*
X-844005Y845227D01*
X-844033Y845283D01*
X-844033Y-845423D01*
X-844005Y-845367D01*
X-843948Y-845339D01*
X-843836Y-845339D01*
X-843780Y-845367D01*
X-843752Y-845423D01*
X-843752Y845451D01*
X-844033Y845395D01*
X-843499Y845255D02*
X-843471Y845227D01*
X-843499Y845199D01*
X-843527Y845227D01*
X-843499Y845255D01*
X-843499Y845199D01*
X-843499Y-845367D02*
X-843471Y-845395D01*
X-843499Y-845423D01*
X-843527Y-845395D01*
X-843499Y-845367D01*
X-843499Y-845423D01*
X-842796Y845367D02*
X-842516Y845367D01*
X-842853Y845199D02*
X-842656Y-845142D01*
X-842459Y845199D01*
X-842010Y-845339D02*
X-842010Y845199D01*
X-842150Y-845114D02*
X-842291Y845395D01*
X-841926Y845395D01*
G54D11*
X-844988Y845199D02*
X-845185Y-845451D01*
X-845325Y845199D02*
X-845325Y-845142D01*
X-845100Y-845142D01*
X-845044Y-845171D01*
X-845016Y-845199D01*
X-844988Y-845255D01*
X-844988Y-845339D01*
X-845016Y-845395D01*
X-845044Y-845423D01*
X-845100Y-845451D01*
X-845325Y-845451D01*
X-844510Y845227D02*
X-844566Y845199D01*
X-844679Y845199D01*
X-844735Y845227D01*
X-844763Y845283D01*
X-844763Y-845423D01*
X-844735Y-845367D01*
X-844679Y-845339D01*
X-844566Y-845339D01*
X-844510Y-845367D01*
X-844482Y-845423D01*
X-844482Y845451D01*
X-844763Y845395D01*
X-844286Y-845339D02*
X-844145Y845199D01*
X-844005Y-845339D01*
X-843780Y845255D02*
X-843752Y845227D01*
X-843780Y845199D01*
X-843808Y845227D01*
X-843780Y845255D01*
X-843780Y845199D01*
X-843780Y-845367D02*
X-843752Y-845395D01*
X-843780Y-845423D01*
X-843808Y-845395D01*
X-843780Y-845367D01*
X-843780Y-845423D01*
G54D10*
X-845325Y845199D02*
X-845325Y-845142D01*
X-844988Y845199D02*
X-845241Y-845395D01*
X-844988Y-845142D02*
X-845325Y845451D01*
X-844735Y845199D02*
X-844735Y-845339D01*
X-844735Y-845142D02*
X-844763Y-845171D01*
X-844735Y-845199D01*
X-844707Y-845171D01*
X-844735Y-845142D01*
X-844735Y-845199D01*
X-844117Y845255D02*
X-844145Y845227D01*
X-844229Y845199D01*
X-844286Y845199D01*
X-844370Y845227D01*
X-844426Y845283D01*
X-844454Y845339D01*
X-844482Y845451D01*
X-844482Y-845395D01*
X-844454Y-845283D01*
X-844426Y-845227D01*
X-844370Y-845171D01*
X-844286Y-845142D01*
X-844229Y-845142D01*
X-844145Y-845171D01*
X-844117Y-845199D01*
X-843611Y845199D02*
X-843611Y-845423D01*
X-843639Y-845367D01*
X-843696Y-845339D01*
X-843808Y-845339D01*
X-843864Y-845367D01*
X-843611Y845227D02*
X-843667Y845199D01*
X-843808Y845199D01*
X-843864Y845227D01*
X-843892Y845283D01*
X-843892Y845339D01*
X-843864Y845395D01*
X-843808Y845423D01*
X-843667Y845423D01*
X-843611Y845451D01*
X-843077Y845199D02*
X-843077Y-845142D01*
X-843077Y845227D02*
X-843134Y845199D01*
X-843246Y845199D01*
X-843302Y845227D01*
X-843330Y845255D01*
X-843358Y845311D01*
X-843358Y-845451D01*
X-843330Y-845395D01*
X-843302Y-845367D01*
X-843246Y-845339D01*
X-843134Y-845339D01*
X-843077Y-845367D01*
X-842347Y-845423D02*
X-842150Y-845423D01*
X-842066Y845199D02*
X-842347Y845199D01*
X-842347Y-845142D01*
X-842066Y-845142D01*
X-841813Y845255D02*
X-841785Y845227D01*
X-841813Y845199D01*
X-841841Y845227D01*
X-841813Y845255D01*
X-841813Y845199D01*
X-841532Y845199D02*
X-841532Y-845142D01*
X-841392Y-845142D01*
X-841307Y-845171D01*
X-841251Y-845227D01*
X-841223Y-845283D01*
X-841195Y-845395D01*
X-841195Y845451D01*
X-841223Y845339D01*
X-841251Y845283D01*
X-841307Y845227D01*
X-841392Y845199D01*
X-841532Y845199D01*
X-840942Y845255D02*
X-840914Y845227D01*
X-840942Y845199D01*
X-840970Y845227D01*
X-840942Y845255D01*
X-840942Y845199D01*
X-840689Y845367D02*
X-840408Y845367D01*
X-840746Y845199D02*
X-840549Y-845142D01*
X-840352Y845199D01*
X-840156Y845255D02*
X-840127Y845227D01*
X-840156Y845199D01*
X-840184Y845227D01*
X-840156Y845255D01*
X-840156Y845199D01*
X-838976Y-845339D02*
X-838976Y845002D01*
X-838976Y-845367D02*
X-838919Y-845339D01*
X-838807Y-845339D01*
X-838751Y-845367D01*
X-838723Y-845395D01*
X-838695Y-845451D01*
X-838695Y845311D01*
X-838723Y845255D01*
X-838751Y845227D01*
X-838807Y845199D01*
X-838919Y845199D01*
X-838976Y845227D01*
X-838189Y845227D02*
X-838245Y845199D01*
X-838357Y845199D01*
X-838414Y845227D01*
X-838442Y845255D01*
X-838470Y845311D01*
X-838470Y-845451D01*
X-838442Y-845395D01*
X-838414Y-845367D01*
X-838357Y-845339D01*
X-838245Y-845339D01*
X-838189Y-845367D01*
X-837936Y845199D02*
X-837936Y-845142D01*
X-837936Y-845367D02*
X-837880Y-845339D01*
X-837767Y-845339D01*
X-837711Y-845367D01*
X-837683Y-845395D01*
X-837655Y-845451D01*
X-837655Y845311D01*
X-837683Y845255D01*
X-837711Y845227D01*
X-837767Y845199D01*
X-837880Y845199D01*
X-837936Y845227D01*
X-837402Y-845339D02*
X-837402Y845199D01*
X-837402Y-845395D02*
X-837374Y-845367D01*
X-837318Y-845339D01*
X-837234Y-845339D01*
X-837177Y-845367D01*
X-837149Y-845423D01*
X-837149Y845199D01*
X-836644Y845227D02*
X-836700Y845199D01*
X-836812Y845199D01*
X-836868Y845227D01*
X-836896Y845283D01*
X-836896Y-845423D01*
X-836868Y-845367D01*
X-836812Y-845339D01*
X-836700Y-845339D01*
X-836644Y-845367D01*
X-836616Y-845423D01*
X-836616Y845451D01*
X-836896Y845395D01*
X-836419Y-845339D02*
X-836306Y845199D01*
X-836194Y-845451D01*
X-836082Y845199D01*
X-835969Y-845339D01*
X-835126Y844974D02*
X-835155Y845002D01*
X-835211Y845086D01*
X-835239Y845142D01*
X-835267Y845227D01*
X-835295Y845367D01*
X-835295Y-845451D01*
X-835267Y-845311D01*
X-835239Y-845227D01*
X-835211Y-845171D01*
X-835155Y-845086D01*
X-835126Y-845058D01*
X-834930Y-845199D02*
X-834902Y-845171D01*
X-834846Y-845142D01*
X-834705Y-845142D01*
X-834649Y-845171D01*
X-834621Y-845199D01*
X-834593Y-845255D01*
X-834593Y-845311D01*
X-834621Y-845395D01*
X-834958Y845199D01*
X-834593Y845199D01*
X-834227Y-845142D02*
X-834171Y-845142D01*
X-834115Y-845171D01*
X-834087Y-845199D01*
X-834059Y-845255D01*
X-834031Y-845367D01*
X-834031Y845423D01*
X-834059Y845311D01*
X-834087Y845255D01*
X-834115Y845227D01*
X-834171Y845199D01*
X-834227Y845199D01*
X-834284Y845227D01*
X-834312Y845255D01*
X-834340Y845311D01*
X-834368Y845423D01*
X-834368Y-845367D01*
X-834340Y-845255D01*
X-834312Y-845199D01*
X-834284Y-845171D01*
X-834227Y-845142D01*
X-833469Y845199D02*
X-833806Y845199D01*
X-833637Y845199D02*
X-833637Y-845142D01*
X-833694Y-845227D01*
X-833750Y-845283D01*
X-833806Y-845311D01*
X-833272Y-845142D02*
X-832907Y-845142D01*
X-833104Y-845367D01*
X-833019Y-845367D01*
X-832963Y-845395D01*
X-832935Y-845423D01*
X-832907Y845451D01*
X-832907Y845311D01*
X-832935Y845255D01*
X-832963Y845227D01*
X-833019Y845199D01*
X-833188Y845199D01*
X-833244Y845227D01*
X-833272Y845255D01*
X-832654Y845423D02*
X-832205Y845423D01*
X-831924Y845199D02*
X-831924Y-845339D01*
X-831924Y-845395D02*
X-831896Y-845367D01*
X-831839Y-845339D01*
X-831755Y-845339D01*
X-831699Y-845367D01*
X-831671Y-845423D01*
X-831671Y845199D01*
X-831671Y-845423D02*
X-831643Y-845367D01*
X-831586Y-845339D01*
X-831502Y-845339D01*
X-831446Y-845367D01*
X-831418Y-845423D01*
X-831418Y845199D01*
X-830884Y845199D02*
X-830884Y-845423D01*
X-830912Y-845367D01*
X-830968Y-845339D01*
X-831081Y-845339D01*
X-831137Y-845367D01*
X-830884Y845227D02*
X-830940Y845199D01*
X-831081Y845199D01*
X-831137Y845227D01*
X-831165Y845283D01*
X-831165Y845339D01*
X-831137Y845395D01*
X-831081Y845423D01*
X-830940Y845423D01*
X-830884Y845451D01*
X-830603Y845199D02*
X-830603Y-845339D01*
X-830603Y-845451D02*
X-830575Y-845395D01*
X-830547Y-845367D01*
X-830491Y-845339D01*
X-830435Y-845339D01*
X-830238Y845423D02*
X-829788Y845423D01*
X-829198Y845199D02*
X-829536Y845199D01*
X-829367Y845199D02*
X-829367Y-845142D01*
X-829423Y-845227D01*
X-829479Y-845283D01*
X-829536Y-845311D01*
X-829002Y-845142D02*
X-828636Y-845142D01*
X-828833Y-845367D01*
X-828749Y-845367D01*
X-828693Y-845395D01*
X-828665Y-845423D01*
X-828636Y845451D01*
X-828636Y845311D01*
X-828665Y845255D01*
X-828693Y845227D01*
X-828749Y845199D01*
X-828917Y845199D01*
X-828974Y845227D01*
X-829002Y845255D01*
X-828440Y844974D02*
X-828412Y845002D01*
X-828356Y845086D01*
X-828327Y845142D01*
X-828299Y845227D01*
X-828271Y845367D01*
X-828271Y-845451D01*
X-828299Y-845311D01*
X-828327Y-845227D01*
X-828356Y-845171D01*
X-828412Y-845086D01*
X-828440Y-845058D01*
X-827990Y845423D02*
X-827541Y845423D01*
X-827344Y-845339D02*
X-827119Y-845339D01*
X-827260Y-845142D02*
X-827260Y845283D01*
X-827232Y845227D01*
X-827176Y845199D01*
X-827119Y845199D01*
X-826698Y845227D02*
X-826754Y845199D01*
X-826866Y845199D01*
X-826923Y845227D01*
X-826951Y845283D01*
X-826951Y-845423D01*
X-826923Y-845367D01*
X-826866Y-845339D01*
X-826754Y-845339D01*
X-826698Y-845367D01*
X-826670Y-845423D01*
X-826670Y845451D01*
X-826951Y845395D01*
X-826445Y845227D02*
X-826389Y845199D01*
X-826276Y845199D01*
X-826220Y845227D01*
X-826192Y845283D01*
X-826192Y845311D01*
X-826220Y845367D01*
X-826276Y845395D01*
X-826361Y845395D01*
X-826417Y845423D01*
X-826445Y-845451D01*
X-826445Y-845423D01*
X-826417Y-845367D01*
X-826361Y-845339D01*
X-826276Y-845339D01*
X-826220Y-845367D01*
X-826024Y-845339D02*
X-825799Y-845339D01*
X-825939Y-845142D02*
X-825939Y845283D01*
X-825911Y845227D01*
X-825855Y845199D01*
X-825799Y845199D01*
X-825602Y845199D02*
X-825602Y-845339D01*
X-825602Y-845142D02*
X-825630Y-845171D01*
X-825602Y-845199D01*
X-825574Y-845171D01*
X-825602Y-845142D01*
X-825602Y-845199D01*
X-825321Y-845339D02*
X-825321Y845199D01*
X-825321Y-845395D02*
X-825293Y-845367D01*
X-825237Y-845339D01*
X-825153Y-845339D01*
X-825096Y-845367D01*
X-825068Y-845423D01*
X-825068Y845199D01*
X-824535Y-845339D02*
X-824535Y845114D01*
X-824563Y845058D01*
X-824591Y845030D01*
X-824647Y845002D01*
X-824731Y845002D01*
X-824787Y845030D01*
X-824535Y845227D02*
X-824591Y845199D01*
X-824703Y845199D01*
X-824759Y845227D01*
X-824787Y845255D01*
X-824816Y845311D01*
X-824816Y-845451D01*
X-824787Y-845395D01*
X-824759Y-845367D01*
X-824703Y-845339D01*
X-824591Y-845339D01*
X-824535Y-845367D01*
X-845325Y845199D02*
X-845325Y-845142D01*
X-845185Y-845142D01*
X-845100Y-845171D01*
X-845044Y-845227D01*
X-845016Y-845283D01*
X-844988Y-845395D01*
X-844988Y845451D01*
X-845016Y845339D01*
X-845044Y845283D01*
X-845100Y845227D01*
X-845185Y845199D01*
X-845325Y845199D01*
X-844482Y845199D02*
X-844482Y-845423D01*
X-844510Y-845367D01*
X-844566Y-845339D01*
X-844679Y-845339D01*
X-844735Y-845367D01*
X-844482Y845227D02*
X-844538Y845199D01*
X-844679Y845199D01*
X-844735Y845227D01*
X-844763Y845283D01*
X-844763Y845339D01*
X-844735Y845395D01*
X-844679Y845423D01*
X-844538Y845423D01*
X-844482Y845451D01*
X-844286Y-845339D02*
X-844061Y-845339D01*
X-844201Y-845142D02*
X-844201Y845283D01*
X-844173Y845227D01*
X-844117Y845199D01*
X-844061Y845199D01*
X-843639Y845227D02*
X-843696Y845199D01*
X-843808Y845199D01*
X-843864Y845227D01*
X-843892Y845283D01*
X-843892Y-845423D01*
X-843864Y-845367D01*
X-843808Y-845339D01*
X-843696Y-845339D01*
X-843639Y-845367D01*
X-843611Y-845423D01*
X-843611Y845451D01*
X-843892Y845395D01*
X-843358Y845255D02*
X-843330Y845227D01*
X-843358Y845199D01*
X-843386Y845227D01*
X-843358Y845255D01*
X-843358Y845199D01*
X-843358Y-845367D02*
X-843330Y-845395D01*
X-843358Y-845423D01*
X-843386Y-845395D01*
X-843358Y-845367D01*
X-843358Y-845423D01*
X-845466Y845466D02*
X-845466Y845466D01*
X-845466Y845466D02*
X-845466Y845466D01*
X-845466Y845466D02*
X-845466Y845466D01*
G54D12*
X82892Y-48133D02*
X81042Y-49825D01*
X82892Y-9274D02*
X82892Y-48133D01*
X81042Y-52385D02*
X81042Y-49825D01*
X81042Y-54944D02*
X81042Y-52385D01*
X82892Y-56597D02*
X81042Y-54944D01*
X82892Y-65967D02*
X82892Y-56597D01*
X9664Y-67542D02*
X81317Y-67542D01*
X8089Y-9274D02*
X8089Y-65967D01*
X81317Y-7700D02*
X9664Y-7700D01*
X82892Y-9274D02*
G75*
G03X81317Y-7700I-1574J0D01*
G74*
G01*
X81317Y-67542D02*
G75*
G03X82892Y-65967I0J1574D01*
G74*
G01*
X8089Y-65967D02*
G75*
G03X9664Y-67542I1574J0D01*
G74*
G01*
X9664Y-7700D02*
G75*
G03X8089Y-9274I0J-1574D01*
G74*
G01*
G54D13*
X78069Y-48235D03*
X78069Y-56535D03*
M02*
