M48
INCH,TZ
T1C0.025
T2C0.035
T3C0.040
T4C0.050
T5C0.110
T6C0.120
%
G90
G05
T1
X10350Y-18700
X10375Y-24500
X10825Y-29225
X11025Y-24500
X11050Y-14125
X11675Y-24500
X11900Y-22475
X12350Y-17850
X13225Y-15200
X13800Y-27225
X14225Y-15575
X14499Y-17135
X14700Y-19300
X15025Y-18025
X15200Y-15600
X15275Y-24200
X15275Y-26225
X15500Y-13825
X16600Y-23025
X16650Y-24250
X17025Y-17675
X17150Y-20525
X17275Y-19125
X17525Y-17675
X17775Y-18500
X17975Y-14725
X18150Y-16225
X18695Y-15225
X19350Y-13575
X19500Y-23075
X19725Y-19575
X19775Y-18600
X20225Y-19575
X20550Y-13675
X20675Y-21550
X20800Y-23700
X21300Y-17525
X21300Y-18275
X22200Y-10350
X22200Y-18725
X22600Y-23050
X23025Y-28600
X23200Y-23725
X23350Y-15875
X23525Y-22475
X23725Y-20950
X23800Y-17525
X23900Y-12275
X24125Y-21300
X24650Y-28600
X25125Y-25050
X25275Y-15300
X25925Y-13450
X25925Y-14300
X25925Y-16275
X25925Y-16750
X25925Y-17650
X25925Y-18100
X25950Y-30200
X26250Y-22425
X26525Y-20950
X26550Y-22000
X27075Y-28475
X27525Y-20950
X27825Y-16275
X27825Y-16750
X27825Y-18100
X28900Y-27550
X28975Y-13050
X29325Y-18775
X30075Y-29300
X30450Y-28150
X30550Y-21825
X30900Y-27200
X32875Y-28125
X32900Y-21625
X32950Y-14850
X32950Y-17300
X32975Y-13050
X33350Y-15850
X33400Y-22275
X34925Y-13050
X34925Y-13500
X35950Y-18300
X38950Y-27775
X39000Y-22200
T2
X11800Y-14200
X11800Y-17350
X25400Y-23450
X25400Y-26450
X26400Y-23450
X26400Y-26450
X27400Y-23450
X27400Y-26450
X28400Y-23450
X28400Y-26450
X29400Y-23450
X29400Y-26450
X30400Y-23450
X30400Y-26450
X31400Y-23450
X31400Y-26450
X32400Y-23450
X32400Y-26450
X33400Y-23450
X33400Y-26450
X34400Y-23450
X34400Y-26450
X35400Y-23450
X35400Y-26450
X36400Y-23450
X36400Y-26450
X37400Y-23450
X37400Y-26450
X38400Y-23450
X38400Y-26450
T3
X10700Y-10900
X10700Y-11900
X11075Y-20150
X11700Y-10900
X11700Y-11900
X12075Y-20150
X12700Y-10900
X12700Y-11900
X13075Y-20150
X13700Y-10900
X13700Y-11900
X14700Y-10900
X14700Y-11900
X15700Y-10900
X15700Y-11900
X16700Y-10900
X16700Y-11900
X17700Y-10900
X17700Y-11900
X18000Y-23500
X18000Y-24500
X18000Y-25500
X18000Y-26500
X18000Y-27500
X18000Y-28500
X18000Y-29500
X18000Y-30500
X18700Y-10900
X18700Y-11900
X19000Y-23500
X19000Y-24500
X19000Y-25500
X19000Y-26500
X19000Y-27500
X19000Y-28500
X19000Y-29500
X19000Y-30500
X19700Y-10900
X19700Y-11900
X20000Y-23500
X20000Y-24500
X20000Y-25500
X20000Y-26500
X20000Y-27500
X20000Y-28500
X20000Y-29500
X20000Y-30500
X20700Y-10900
X20700Y-11900
X21700Y-10900
X21700Y-11900
X22700Y-10900
X22700Y-11900
X23975Y-11125
X24975Y-11125
X25975Y-11125
X26975Y-11125
X27575Y-30125
X27975Y-11125
X28575Y-30125
X28975Y-11125
X29575Y-30125
X29975Y-11125
X30575Y-30125
X30975Y-11125
X31200Y-13800
X31200Y-14800
X31200Y-15800
X31200Y-16800
X31200Y-17800
X31200Y-18800
X31200Y-19800
X31200Y-20800
X31575Y-30125
X31975Y-11125
X32200Y-13800
X32200Y-14800
X32200Y-15800
X32200Y-16800
X32200Y-17800
X32200Y-18800
X32200Y-19800
X32200Y-20800
X32575Y-30125
X32975Y-11125
X33575Y-30125
X34575Y-11125
X34575Y-30125
X35575Y-11125
X36575Y-11125
X36575Y-13800
X36575Y-15300
X36575Y-18800
X36575Y-19800
X36575Y-20800
X36575Y-30125
X37575Y-11125
X37575Y-13800
X37575Y-15300
X37575Y-18800
X37575Y-19800
X37575Y-20800
X37575Y-30125
X38575Y-11125
X38575Y-13800
X38575Y-15300
X38575Y-30125
X39575Y-11125
X39575Y-13800
X39575Y-15300
X39575Y-30125
X40575Y-11125
X40575Y-13800
X40575Y-15300
X40575Y-30125
X41575Y-11125
X41575Y-13800
X41575Y-15300
X41575Y-30125
T4
X10575Y-25700
X10575Y-28300
T5
X14350Y-30450
T6
X13100Y-28450
X15500Y-28450
X22075Y-30125
X42575Y-17125
X42575Y-28125
T0
M30
