G04 (created by PCBNEW-RS274X (2011-05-25)-stable) date Sunday 24 June 2012 07:21:40 PM IST*
G01*
G70*
G90*
%MOIN*%
G04 Gerber Fmt 3.4, Leading zero omitted, Abs format*
%FSLAX34Y34*%
G04 APERTURE LIST*
%ADD10C,0.006000*%
%ADD11C,0.005000*%
%ADD12R,0.060000X0.060000*%
%ADD13C,0.060000*%
%ADD14R,0.056000X0.042000*%
%ADD15R,0.050000X0.040000*%
%ADD16R,0.061000X0.019700*%
%ADD17R,0.039400X0.059100*%
%ADD18R,0.042000X0.056000*%
%ADD19R,0.051200X0.059000*%
%ADD20R,0.059000X0.051200*%
%ADD21C,0.040000*%
%ADD22R,0.044000X0.023600*%
%ADD23R,0.080000X0.150000*%
%ADD24R,0.080000X0.060000*%
%ADD25R,0.031500X0.047200*%
%ADD26R,0.024000X0.080000*%
%ADD27R,0.120000X0.064000*%
%ADD28R,0.080000X0.050000*%
%ADD29O,0.080000X0.050000*%
%ADD30C,0.075000*%
%ADD31R,0.060000X0.030000*%
%ADD32R,0.060000X0.040000*%
%ADD33C,0.045000*%
%ADD34R,0.030000X0.030000*%
%ADD35R,0.060000X0.080000*%
%ADD36R,0.100000X0.105000*%
%ADD37R,0.050000X0.030000*%
%ADD38C,0.160000*%
%ADD39R,0.160000X0.160000*%
%ADD40O,0.200000X0.130000*%
%ADD41O,0.060000X0.090000*%
%ADD42R,0.060000X0.090000*%
%ADD43O,0.060000X0.100000*%
%ADD44R,0.060000X0.100000*%
%ADD45C,0.180000*%
%ADD46C,0.035000*%
%ADD47C,0.020000*%
%ADD48C,0.015000*%
%ADD49C,0.010000*%
G04 APERTURE END LIST*
G54D10*
G54D11*
X43700Y-22300D02*
X43700Y-31250D01*
X43700Y-16600D02*
X43700Y-10000D01*
X39200Y-22300D02*
X43700Y-22300D01*
X39200Y-16600D02*
X39200Y-22300D01*
X43700Y-16600D02*
X39200Y-16600D01*
X10000Y-10000D02*
X43700Y-10000D01*
X43700Y-31250D02*
X10000Y-31250D01*
X10000Y-31250D02*
X10000Y-10000D01*
G54D12*
X18000Y-30500D03*
X18000Y-29500D03*
X18000Y-28500D03*
X18000Y-27500D03*
X18000Y-26500D03*
X18000Y-25500D03*
X18000Y-24500D03*
X18000Y-23500D03*
G54D13*
X19000Y-30500D03*
X19000Y-29500D03*
X19000Y-28500D03*
X19000Y-27500D03*
X19000Y-26500D03*
X19000Y-25500D03*
X19000Y-24500D03*
X19000Y-23500D03*
G54D14*
X11925Y-26225D03*
X11925Y-25425D03*
X17650Y-21525D03*
X17650Y-22325D03*
G54D15*
X23225Y-19475D03*
X23225Y-20275D03*
X26175Y-20275D03*
X26175Y-19475D03*
X25175Y-20275D03*
X25175Y-19475D03*
G54D14*
X20550Y-16650D03*
X20550Y-15850D03*
G54D16*
X17325Y-14225D03*
X17325Y-14725D03*
X17325Y-15225D03*
X17325Y-15725D03*
X17325Y-16225D03*
X17325Y-16725D03*
X17325Y-17225D03*
X19425Y-17225D03*
X19425Y-16725D03*
X19425Y-16225D03*
X19425Y-15725D03*
X19425Y-15225D03*
X19425Y-14725D03*
X19425Y-14225D03*
G54D17*
X22075Y-14425D03*
X22075Y-16475D03*
X22775Y-16475D03*
X22775Y-14425D03*
G54D14*
X34875Y-14050D03*
X34875Y-14850D03*
G54D18*
X15475Y-23525D03*
X16275Y-23525D03*
X16275Y-19875D03*
X15475Y-19875D03*
X15475Y-22525D03*
X16275Y-22525D03*
G54D19*
X18725Y-13175D03*
X17975Y-13175D03*
G54D20*
X20550Y-14950D03*
X20550Y-14200D03*
X20550Y-18275D03*
X20550Y-17525D03*
X23225Y-18275D03*
X23225Y-17525D03*
X24200Y-19500D03*
X24200Y-20250D03*
X27175Y-19500D03*
X27175Y-20250D03*
G54D21*
X11675Y-24500D03*
X11025Y-24500D03*
X10375Y-24500D03*
G54D20*
X21150Y-21550D03*
X21150Y-22300D03*
G54D19*
X22250Y-21425D03*
X23000Y-21425D03*
G54D20*
X22200Y-19500D03*
X22200Y-20250D03*
G54D22*
X15225Y-20775D03*
X15225Y-21525D03*
X15225Y-21150D03*
X16275Y-21525D03*
X16275Y-20775D03*
G54D23*
X13300Y-22475D03*
G54D24*
X10800Y-22475D03*
X10800Y-23375D03*
X10800Y-21575D03*
G54D25*
X18025Y-19575D03*
X17650Y-20525D03*
X17275Y-19575D03*
G54D26*
X18725Y-20250D03*
X18725Y-22150D03*
X19225Y-20250D03*
X19725Y-20250D03*
X20225Y-20250D03*
X19225Y-22150D03*
X19725Y-22150D03*
X20225Y-22150D03*
G54D14*
X21150Y-19475D03*
X21150Y-20275D03*
G54D27*
X23925Y-29525D03*
X25725Y-29500D03*
X15025Y-25425D03*
X13225Y-25450D03*
G54D12*
X13075Y-20150D03*
G54D13*
X11075Y-20150D03*
X12075Y-20150D03*
X20000Y-30500D03*
X20000Y-29500D03*
X20000Y-28500D03*
X20000Y-27500D03*
X20000Y-26500D03*
X20000Y-25500D03*
X20000Y-24500D03*
X20000Y-23500D03*
X36575Y-15300D03*
X37575Y-15300D03*
G54D12*
X38575Y-15300D03*
G54D13*
X39575Y-15300D03*
X40575Y-15300D03*
X41575Y-15300D03*
G54D28*
X31200Y-13800D03*
G54D29*
X31200Y-14800D03*
X31200Y-15800D03*
X31200Y-16800D03*
X31200Y-17800D03*
X31200Y-18800D03*
X31200Y-19800D03*
X31200Y-20800D03*
G54D28*
X32200Y-13800D03*
G54D29*
X32200Y-14800D03*
X32200Y-15800D03*
X32200Y-16800D03*
X32200Y-17800D03*
X32200Y-18800D03*
X32200Y-19800D03*
X32200Y-20800D03*
G54D30*
X10575Y-28300D03*
X10575Y-25700D03*
G54D13*
X37575Y-20800D03*
X36575Y-20800D03*
X37575Y-19800D03*
X36575Y-19800D03*
X37575Y-18800D03*
G54D12*
X36575Y-18800D03*
X41575Y-13800D03*
X40575Y-13800D03*
G54D13*
X39575Y-13800D03*
X38575Y-13800D03*
X37575Y-13800D03*
X36575Y-13800D03*
G54D31*
X16100Y-15225D03*
X16100Y-14792D03*
X16100Y-14359D03*
X16100Y-13926D03*
X16100Y-13493D03*
X16100Y-15658D03*
X16100Y-16091D03*
X16100Y-16524D03*
X16100Y-16957D03*
G54D32*
X15864Y-12963D03*
G54D24*
X12016Y-13099D03*
G54D32*
X12016Y-19162D03*
G54D12*
X15946Y-18840D03*
G54D33*
X11800Y-14200D03*
X11800Y-17350D03*
G54D34*
X37525Y-17100D03*
X37525Y-16625D03*
X36525Y-17100D03*
X36525Y-16625D03*
G54D35*
X12325Y-30525D03*
X10825Y-30525D03*
G54D24*
X21725Y-23725D03*
X21725Y-25225D03*
G54D36*
X16650Y-25425D03*
G54D37*
X16650Y-26350D03*
G54D38*
X13100Y-28450D03*
G54D39*
X15500Y-28450D03*
G54D40*
X14350Y-30450D03*
G54D13*
X10700Y-11900D03*
X10700Y-10900D03*
X11700Y-11900D03*
X11700Y-10900D03*
X12700Y-11900D03*
G54D12*
X12700Y-10900D03*
G54D13*
X13700Y-11900D03*
X13700Y-10900D03*
X14700Y-11900D03*
X14700Y-10900D03*
X15700Y-11900D03*
X15700Y-10900D03*
X16700Y-11900D03*
X16700Y-10900D03*
X17700Y-11900D03*
X17700Y-10900D03*
X18700Y-11900D03*
X18700Y-10900D03*
X19700Y-11900D03*
X19700Y-10900D03*
X20700Y-11900D03*
X20700Y-10900D03*
X21700Y-11900D03*
X21700Y-10900D03*
X22700Y-11900D03*
X22700Y-10900D03*
X34575Y-18800D03*
X34575Y-19800D03*
X34575Y-20800D03*
G54D41*
X37400Y-23450D03*
X36400Y-23450D03*
X35400Y-23450D03*
X34400Y-23450D03*
X33400Y-23450D03*
X32400Y-23450D03*
G54D42*
X31400Y-23450D03*
G54D41*
X30400Y-23450D03*
X29400Y-23450D03*
X28400Y-23450D03*
X27400Y-23450D03*
X26400Y-23450D03*
X25400Y-23450D03*
X38400Y-23450D03*
X25400Y-26450D03*
X26400Y-26450D03*
X27400Y-26450D03*
X28400Y-26450D03*
X29400Y-26450D03*
X30400Y-26450D03*
X31400Y-26450D03*
G54D42*
X32400Y-26450D03*
G54D41*
X33400Y-26450D03*
X34400Y-26450D03*
X35400Y-26450D03*
X36400Y-26450D03*
X37400Y-26450D03*
X38400Y-26450D03*
G54D43*
X41575Y-30125D03*
X40575Y-30125D03*
X39575Y-30125D03*
X36575Y-30125D03*
X37575Y-30125D03*
X38575Y-30125D03*
X34575Y-30125D03*
G54D44*
X33575Y-30125D03*
X32575Y-30125D03*
G54D43*
X30575Y-30125D03*
X29575Y-30125D03*
X41575Y-11125D03*
X40575Y-11125D03*
X39575Y-11125D03*
X38575Y-11125D03*
X37575Y-11125D03*
X36575Y-11125D03*
X35575Y-11125D03*
X34575Y-11125D03*
X32975Y-11125D03*
X31975Y-11125D03*
X30975Y-11125D03*
X29975Y-11125D03*
X28975Y-11125D03*
X27975Y-11125D03*
G54D44*
X26975Y-11125D03*
G54D43*
X25975Y-11125D03*
X31575Y-30125D03*
G54D45*
X22075Y-30125D03*
X42575Y-28125D03*
G54D43*
X28575Y-30125D03*
X27575Y-30125D03*
X24975Y-11125D03*
X23975Y-11125D03*
G54D46*
X34575Y-17175D03*
X14499Y-17135D03*
X21300Y-18275D03*
X17025Y-17675D03*
X19500Y-23075D03*
X24125Y-21300D03*
X18695Y-15225D03*
X23025Y-28600D03*
X24650Y-28600D03*
X26250Y-22425D03*
X25925Y-18100D03*
X27825Y-18100D03*
X25925Y-16750D03*
X27825Y-16750D03*
X34300Y-15825D03*
X33400Y-22275D03*
X28900Y-27550D03*
X30900Y-27200D03*
X33350Y-15850D03*
X15500Y-13825D03*
X34925Y-13050D03*
X14225Y-15575D03*
X19350Y-13575D03*
X32975Y-13050D03*
X28975Y-13050D03*
X25925Y-17650D03*
X35950Y-18325D03*
X25925Y-13450D03*
X18150Y-16225D03*
X20550Y-13675D03*
X19775Y-18600D03*
X23800Y-17525D03*
X32950Y-17300D03*
X32950Y-14850D03*
X17775Y-18500D03*
X38475Y-22200D03*
X22200Y-10350D03*
X13225Y-15200D03*
X34925Y-13500D03*
X25925Y-14300D03*
X23900Y-12275D03*
X30450Y-28150D03*
X17525Y-17675D03*
X15025Y-18025D03*
X27825Y-16275D03*
X25925Y-16275D03*
X21300Y-17525D03*
X23200Y-23725D03*
X10825Y-29225D03*
X15275Y-26225D03*
X10350Y-18700D03*
X12350Y-17850D03*
X38950Y-27775D03*
X20800Y-23700D03*
X17275Y-19125D03*
X11900Y-22475D03*
X15625Y-24200D03*
X14700Y-19300D03*
X33425Y-21575D03*
X23725Y-20950D03*
X17975Y-14725D03*
X20225Y-19575D03*
X26525Y-20950D03*
X27525Y-20950D03*
X25275Y-15300D03*
X17150Y-20525D03*
X13800Y-27225D03*
X16650Y-24250D03*
X20675Y-21550D03*
X23525Y-22475D03*
X27075Y-28475D03*
X25125Y-25050D03*
X23350Y-15875D03*
X29325Y-18775D03*
X22600Y-23050D03*
X30075Y-29300D03*
X15200Y-15600D03*
X16600Y-23025D03*
X30550Y-21525D03*
X11050Y-14125D03*
X32875Y-28125D03*
X25950Y-30200D03*
X26550Y-22000D03*
X22200Y-18725D03*
X19725Y-19575D03*
G54D47*
X38375Y-16625D02*
X38375Y-16300D01*
X38375Y-16300D02*
X38750Y-15925D01*
X38375Y-17625D02*
X38375Y-16625D01*
X38375Y-21400D02*
X38375Y-17625D01*
X38375Y-17625D02*
X36225Y-17625D01*
X36225Y-17625D02*
X35775Y-17175D01*
X35775Y-17175D02*
X34575Y-17175D01*
X38750Y-15925D02*
X39299Y-15925D01*
X39299Y-15925D02*
X39575Y-15649D01*
X39575Y-15649D02*
X39575Y-15300D01*
X38688Y-22688D02*
X38413Y-22688D01*
X38075Y-21700D02*
X38375Y-21400D01*
X38075Y-22350D02*
X38075Y-21700D01*
X38413Y-22688D02*
X38075Y-22350D01*
X18950Y-14225D02*
X19425Y-14225D01*
X18725Y-14000D02*
X18950Y-14225D01*
X16688Y-18412D02*
X17025Y-18075D01*
X20550Y-15425D02*
X20550Y-14950D01*
X19425Y-14725D02*
X19425Y-15225D01*
X19500Y-23075D02*
X19500Y-22925D01*
X19225Y-22150D02*
X19225Y-22650D01*
X16688Y-19737D02*
X16688Y-18412D01*
X20225Y-18275D02*
X20025Y-18075D01*
X30575Y-29575D02*
X30575Y-30125D01*
X27522Y-21525D02*
X28075Y-20972D01*
X21300Y-18275D02*
X20550Y-18275D01*
X31362Y-28788D02*
X30575Y-29575D01*
X17025Y-18075D02*
X17025Y-17675D01*
X39100Y-23100D02*
X38688Y-22688D01*
X37337Y-28788D02*
X31362Y-28788D01*
X25000Y-21525D02*
X27522Y-21525D01*
X20025Y-18075D02*
X17025Y-18075D01*
X19425Y-14225D02*
X19425Y-14725D01*
X20050Y-15425D02*
X20550Y-15425D01*
X27175Y-19500D02*
X27850Y-19500D01*
X19425Y-15225D02*
X18695Y-15225D01*
X16275Y-19875D02*
X16550Y-19875D01*
X37525Y-16625D02*
X38375Y-16625D01*
X28075Y-19725D02*
X28075Y-20972D01*
X27850Y-19500D02*
X28075Y-19725D01*
X39100Y-27025D02*
X37337Y-28788D01*
X39100Y-23100D02*
X39100Y-27025D01*
X19425Y-15225D02*
X19850Y-15225D01*
X24125Y-21300D02*
X24775Y-21300D01*
X15499Y-16176D02*
X15000Y-16675D01*
X15000Y-16675D02*
X14675Y-16675D01*
X14499Y-16848D02*
X14675Y-16672D01*
X20550Y-15850D02*
X20550Y-15425D01*
X24775Y-21300D02*
X25000Y-21525D01*
X18725Y-13175D02*
X18725Y-14000D01*
X19500Y-22925D02*
X19225Y-22650D01*
X16275Y-20775D02*
X16275Y-19875D01*
X20550Y-18275D02*
X20225Y-18275D01*
X15499Y-15848D02*
X15499Y-16176D01*
X14675Y-16675D02*
X14675Y-16672D01*
X19850Y-15225D02*
X20050Y-15425D01*
X14499Y-17135D02*
X14499Y-16848D01*
X15689Y-15658D02*
X16100Y-15658D01*
X15499Y-15848D02*
X15689Y-15658D01*
X16550Y-19875D02*
X16688Y-19737D01*
X21175Y-25225D02*
X20450Y-24500D01*
X20450Y-24500D02*
X20000Y-24500D01*
X21725Y-25225D02*
X21175Y-25225D01*
X23925Y-28600D02*
X23025Y-28600D01*
X23925Y-29525D02*
X23925Y-28600D01*
X24650Y-28600D02*
X23925Y-28600D01*
X19000Y-29500D02*
X19000Y-30500D01*
X26250Y-22425D02*
X27900Y-22425D01*
X27900Y-22425D02*
X27900Y-22400D01*
X34575Y-19800D02*
X33800Y-19800D01*
X33800Y-19800D02*
X33275Y-20325D01*
X33275Y-20325D02*
X33275Y-21150D01*
X33275Y-21150D02*
X32475Y-21950D01*
X32475Y-21950D02*
X28350Y-21950D01*
X28350Y-21950D02*
X27900Y-22400D01*
X27900Y-22400D02*
X27900Y-22700D01*
X31400Y-25550D02*
X31225Y-25375D01*
X31400Y-26450D02*
X31400Y-25550D01*
G54D48*
X27900Y-22700D02*
X27900Y-24925D01*
G54D47*
X28350Y-25375D02*
X31225Y-25375D01*
X27900Y-24925D02*
X28350Y-25375D01*
G54D49*
X36525Y-17100D02*
X37025Y-17100D01*
X37025Y-17100D02*
X37525Y-17100D01*
X40575Y-15300D02*
X40575Y-14875D01*
X37025Y-16300D02*
X37025Y-17100D01*
X37375Y-15950D02*
X37025Y-16300D01*
X37800Y-15950D02*
X37375Y-15950D01*
X38075Y-15675D02*
X37800Y-15950D01*
X38075Y-14775D02*
X38075Y-15675D01*
X38150Y-14700D02*
X38075Y-14775D01*
X40400Y-14700D02*
X38150Y-14700D01*
X40575Y-14875D02*
X40400Y-14700D01*
X25925Y-18100D02*
X27825Y-18100D01*
X25400Y-26775D02*
X25200Y-26975D01*
X25200Y-26975D02*
X20900Y-26975D01*
X25400Y-26450D02*
X25400Y-26775D01*
X20000Y-27500D02*
X20375Y-27500D01*
X20375Y-27500D02*
X20900Y-26975D01*
X27825Y-16750D02*
X25925Y-16750D01*
X36575Y-15300D02*
X36050Y-15825D01*
X36050Y-15825D02*
X34300Y-15825D01*
X33400Y-22275D02*
X29575Y-22275D01*
X29575Y-22275D02*
X28400Y-23450D01*
X21950Y-27550D02*
X28900Y-27550D01*
X21950Y-27550D02*
X20000Y-29500D01*
X37575Y-15300D02*
X36675Y-16200D01*
X33700Y-16200D02*
X33350Y-15850D01*
X36675Y-16200D02*
X33700Y-16200D01*
X30900Y-27200D02*
X27925Y-27200D01*
X27400Y-23450D02*
X27400Y-25075D01*
X27900Y-25575D02*
X27900Y-27200D01*
X27925Y-27200D02*
X27900Y-27200D01*
X27400Y-25075D02*
X27900Y-25575D01*
X21300Y-27200D02*
X20000Y-28500D01*
X27925Y-27200D02*
X21300Y-27200D01*
X14750Y-15050D02*
X14225Y-15575D01*
X15500Y-14200D02*
X15500Y-13825D01*
X16100Y-14359D02*
X15659Y-14359D01*
X15659Y-14359D02*
X15500Y-14200D01*
X19875Y-13050D02*
X19350Y-13575D01*
X28975Y-13050D02*
X19875Y-13050D01*
X34925Y-13050D02*
X32975Y-13050D01*
X14750Y-14050D02*
X14975Y-13825D01*
X14975Y-13825D02*
X15500Y-13825D01*
X28975Y-11125D02*
X28975Y-13050D01*
X14750Y-14050D02*
X14750Y-15050D01*
X33050Y-17900D02*
X35525Y-17900D01*
X35525Y-17900D02*
X35950Y-18325D01*
X33050Y-17900D02*
X32650Y-18300D01*
X25925Y-13450D02*
X21275Y-13450D01*
X30550Y-18300D02*
X32650Y-18300D01*
X25925Y-17650D02*
X29900Y-17650D01*
X29900Y-17650D02*
X30550Y-18300D01*
X21275Y-13450D02*
X21050Y-13675D01*
X29975Y-11125D02*
X29975Y-13100D01*
X20950Y-25850D02*
X20600Y-25500D01*
X24151Y-25850D02*
X20950Y-25850D01*
X20000Y-25500D02*
X20600Y-25500D01*
X27400Y-25675D02*
X27150Y-25425D01*
X20550Y-14200D02*
X20550Y-13675D01*
X27400Y-26450D02*
X27400Y-25675D01*
X17325Y-16225D02*
X18150Y-16225D01*
X21050Y-13675D02*
X20550Y-13675D01*
X24576Y-25425D02*
X24151Y-25850D01*
X29625Y-13450D02*
X25925Y-13450D01*
X29975Y-13100D02*
X29625Y-13450D01*
X27150Y-25425D02*
X24576Y-25425D01*
X38100Y-21300D02*
X38100Y-19025D01*
X37875Y-18800D02*
X37575Y-18800D01*
X38100Y-19025D02*
X37875Y-18800D01*
X33275Y-17625D02*
X35825Y-17625D01*
X37575Y-18375D02*
X37575Y-18800D01*
X33275Y-17625D02*
X32950Y-17300D01*
X35825Y-17625D02*
X36350Y-18150D01*
X36350Y-18150D02*
X37350Y-18150D01*
X37350Y-18150D02*
X37575Y-18375D01*
X38400Y-23450D02*
X38400Y-23325D01*
X37775Y-21625D02*
X38100Y-21300D01*
X37775Y-22700D02*
X37775Y-21625D01*
X38400Y-23325D02*
X37775Y-22700D01*
X31500Y-27425D02*
X34646Y-27425D01*
X35175Y-25600D02*
X34900Y-25875D01*
X23225Y-17125D02*
X23225Y-17525D01*
X30075Y-27775D02*
X29575Y-28275D01*
X24025Y-17300D02*
X23800Y-17525D01*
X23800Y-17525D02*
X23225Y-17525D01*
X34900Y-27171D02*
X34646Y-27425D01*
X32950Y-14850D02*
X34875Y-14850D01*
X32950Y-17300D02*
X24025Y-17300D01*
X19150Y-18500D02*
X19250Y-18600D01*
X29575Y-28275D02*
X29575Y-30125D01*
X34900Y-25875D02*
X34900Y-27171D01*
X22775Y-16475D02*
X22775Y-14425D01*
X22775Y-16675D02*
X23225Y-17125D01*
X31150Y-27775D02*
X31500Y-27425D01*
X38400Y-23450D02*
X38400Y-25350D01*
X38150Y-25600D02*
X35175Y-25600D01*
X38400Y-25350D02*
X38150Y-25600D01*
X22775Y-16475D02*
X22775Y-16675D01*
X19250Y-18600D02*
X19775Y-18600D01*
X17775Y-18500D02*
X19150Y-18500D01*
X31150Y-27775D02*
X30075Y-27775D01*
X38650Y-16450D02*
X38650Y-21625D01*
X38475Y-21800D02*
X38475Y-22200D01*
X38650Y-21625D02*
X38475Y-21800D01*
X38850Y-16250D02*
X39375Y-16250D01*
X38650Y-16450D02*
X38850Y-16250D01*
X41575Y-10425D02*
X41575Y-11125D01*
X39300Y-13075D02*
X41575Y-13075D01*
X41575Y-13075D02*
X42600Y-13075D01*
X42775Y-15675D02*
X42550Y-15900D01*
X42550Y-15900D02*
X39725Y-15900D01*
X42775Y-13250D02*
X42775Y-15675D01*
X42600Y-13075D02*
X42775Y-13250D01*
X39725Y-15900D02*
X39375Y-16250D01*
X41350Y-10200D02*
X41575Y-10425D01*
X41575Y-13075D02*
X41575Y-11125D01*
X39300Y-13075D02*
X38575Y-13800D01*
X22350Y-10200D02*
X22200Y-10350D01*
X41350Y-10200D02*
X22350Y-10200D01*
X15200Y-12275D02*
X15200Y-11600D01*
X15200Y-11600D02*
X15400Y-11400D01*
X14950Y-12525D02*
X15200Y-12275D01*
X23450Y-11125D02*
X23975Y-11125D01*
X10900Y-15200D02*
X10600Y-14900D01*
X11275Y-12525D02*
X10600Y-13200D01*
X23175Y-11400D02*
X15400Y-11400D01*
X14950Y-12525D02*
X11275Y-12525D01*
X13225Y-15200D02*
X10900Y-15200D01*
X33050Y-14300D02*
X33225Y-14125D01*
X23175Y-11400D02*
X23450Y-11125D01*
X33050Y-14300D02*
X25925Y-14300D01*
X33225Y-14125D02*
X33225Y-13675D01*
X33225Y-13675D02*
X33400Y-13500D01*
X10600Y-14900D02*
X10600Y-13200D01*
X34925Y-13500D02*
X33400Y-13500D01*
X37400Y-26450D02*
X37400Y-27425D01*
X24975Y-11125D02*
X24975Y-12100D01*
X24975Y-12100D02*
X24800Y-12275D01*
X24800Y-12275D02*
X23900Y-12275D01*
X30450Y-28150D02*
X31100Y-28150D01*
X31600Y-27650D02*
X37175Y-27650D01*
X37175Y-27650D02*
X37400Y-27425D01*
X31100Y-28150D02*
X31600Y-27650D01*
X38675Y-12700D02*
X37575Y-13800D01*
X40275Y-12700D02*
X38675Y-12700D01*
X40275Y-12700D02*
X40575Y-12400D01*
X40575Y-12400D02*
X40575Y-11125D01*
X16100Y-15225D02*
X17325Y-15225D01*
X15475Y-17575D02*
X15025Y-18025D01*
X17525Y-17675D02*
X18225Y-17675D01*
X15475Y-16650D02*
X15475Y-17575D01*
X18225Y-17675D02*
X18675Y-17225D01*
X16100Y-16524D02*
X15601Y-16524D01*
X15601Y-16524D02*
X15475Y-16650D01*
X18675Y-17225D02*
X19425Y-17225D01*
X16725Y-16625D02*
X16725Y-16175D01*
X16825Y-16725D02*
X16725Y-16625D01*
X16725Y-16175D02*
X16641Y-16091D01*
X17325Y-16725D02*
X16825Y-16725D01*
X16641Y-16091D02*
X16100Y-16091D01*
X19425Y-16725D02*
X19750Y-16725D01*
X20000Y-26500D02*
X20600Y-26500D01*
X19750Y-16725D02*
X20550Y-17525D01*
X24672Y-25700D02*
X24297Y-26075D01*
X26400Y-26450D02*
X26400Y-25900D01*
X26200Y-25700D02*
X24672Y-25700D01*
X26400Y-25900D02*
X26200Y-25700D01*
X24297Y-26075D02*
X21025Y-26075D01*
X27825Y-16275D02*
X25925Y-16275D01*
X21025Y-26075D02*
X20600Y-26500D01*
X20550Y-17525D02*
X21300Y-17525D01*
G54D47*
X23200Y-23725D02*
X21725Y-23725D01*
X36575Y-20800D02*
X34575Y-20800D01*
X14050Y-22475D02*
X14600Y-23025D01*
X20825Y-23725D02*
X20800Y-23700D01*
X24200Y-19500D02*
X24200Y-18650D01*
X11925Y-26225D02*
X15275Y-26225D01*
X10825Y-30525D02*
X10825Y-29225D01*
X15475Y-22525D02*
X15475Y-22050D01*
X19950Y-19125D02*
X20225Y-18850D01*
X15225Y-21800D02*
X15225Y-21525D01*
X15475Y-22050D02*
X15225Y-21800D01*
X10350Y-18075D02*
X10350Y-18700D01*
X14700Y-20775D02*
X14700Y-20675D01*
X23225Y-18275D02*
X22025Y-18275D01*
X15225Y-20775D02*
X14700Y-20775D01*
X38950Y-27775D02*
X38950Y-28975D01*
X31575Y-29600D02*
X31575Y-30125D01*
X21725Y-23725D02*
X20825Y-23725D01*
X11650Y-27025D02*
X11925Y-26750D01*
X11925Y-26750D02*
X11925Y-26225D01*
X11650Y-28825D02*
X11650Y-27025D01*
X14050Y-22475D02*
X13300Y-22475D01*
X15225Y-21525D02*
X14700Y-21525D01*
X38750Y-29175D02*
X32000Y-29175D01*
X15475Y-23025D02*
X14600Y-23025D01*
X36575Y-20800D02*
X36575Y-22175D01*
X32400Y-22900D02*
X32625Y-22675D01*
X32400Y-23450D02*
X32400Y-22900D01*
X15475Y-24000D02*
X15625Y-24200D01*
X32625Y-22675D02*
X36075Y-22675D01*
X23825Y-18275D02*
X23225Y-18275D01*
X21150Y-18850D02*
X20225Y-18850D01*
X12350Y-17850D02*
X10575Y-17850D01*
X17275Y-19575D02*
X17275Y-19125D01*
X21150Y-19475D02*
X21150Y-18850D01*
X32000Y-29175D02*
X31575Y-29600D01*
X19950Y-19125D02*
X18725Y-19125D01*
X18725Y-19125D02*
X18725Y-20250D01*
X14700Y-21525D02*
X14700Y-20675D01*
X15475Y-23525D02*
X15475Y-24000D01*
X22025Y-18275D02*
X21450Y-18850D01*
X18725Y-19125D02*
X17275Y-19125D01*
X21450Y-18850D02*
X21150Y-18850D01*
X13300Y-22475D02*
X10800Y-22475D01*
X15475Y-22525D02*
X15475Y-23025D01*
X11650Y-28825D02*
X11250Y-29225D01*
X10800Y-22475D02*
X11900Y-22475D01*
X15475Y-23025D02*
X15475Y-23525D01*
X11250Y-29225D02*
X10825Y-29225D01*
X36075Y-22675D02*
X36575Y-22175D01*
X14700Y-19300D02*
X14700Y-20675D01*
X24200Y-18650D02*
X23825Y-18275D01*
X38950Y-28975D02*
X38750Y-29175D01*
X10575Y-17850D02*
X10350Y-18075D01*
G54D49*
X21150Y-22300D02*
X21875Y-22300D01*
X22250Y-21925D02*
X22250Y-21425D01*
X21875Y-22300D02*
X22250Y-21925D01*
X21150Y-22675D02*
X21000Y-22825D01*
X19850Y-22825D02*
X19725Y-22700D01*
X21150Y-22300D02*
X21150Y-22675D01*
X21000Y-22825D02*
X19850Y-22825D01*
X19725Y-22700D02*
X19725Y-22150D01*
X18725Y-22150D02*
X18725Y-21125D01*
X18025Y-19925D02*
X18225Y-20125D01*
X18225Y-20125D02*
X18225Y-20625D01*
X18025Y-19575D02*
X18025Y-19925D01*
X18725Y-21125D02*
X18225Y-20625D01*
G54D47*
X16650Y-26750D02*
X16425Y-26975D01*
X15500Y-27175D02*
X15500Y-28450D01*
X16650Y-26350D02*
X16650Y-26750D01*
X16425Y-26975D02*
X15700Y-26975D01*
X15700Y-26975D02*
X15500Y-27175D01*
G54D49*
X33900Y-20450D02*
X33900Y-21100D01*
X33900Y-21100D02*
X33425Y-21575D01*
X37075Y-20300D02*
X34050Y-20300D01*
X34050Y-20300D02*
X33900Y-20450D01*
X27975Y-12575D02*
X27975Y-11125D01*
X18225Y-12425D02*
X19575Y-12425D01*
X17975Y-12675D02*
X17975Y-13175D01*
X18225Y-12425D02*
X17975Y-12675D01*
X17325Y-14725D02*
X17975Y-14725D01*
X17975Y-13175D02*
X17975Y-14725D01*
X20225Y-20250D02*
X20225Y-19575D01*
X19575Y-12425D02*
X19925Y-12775D01*
X19925Y-12775D02*
X27775Y-12775D01*
X23725Y-20950D02*
X26525Y-20950D01*
X27775Y-12775D02*
X27975Y-12575D01*
X37075Y-20300D02*
X37575Y-19800D01*
X26525Y-20950D02*
X27525Y-20950D01*
G54D47*
X35900Y-15150D02*
X35900Y-14700D01*
X36200Y-14400D02*
X38975Y-14400D01*
X38975Y-14400D02*
X39575Y-13800D01*
X36200Y-14400D02*
X35900Y-14700D01*
X25275Y-15300D02*
X35750Y-15300D01*
X35750Y-15300D02*
X35900Y-15150D01*
X17150Y-20525D02*
X17650Y-20525D01*
X14300Y-27450D02*
X14300Y-29000D01*
X13775Y-29525D02*
X13325Y-29525D01*
X13325Y-29525D02*
X12325Y-30525D01*
X14075Y-27225D02*
X14300Y-27450D01*
X13775Y-29525D02*
X14300Y-29000D01*
X13800Y-27225D02*
X14075Y-27225D01*
X16650Y-25425D02*
X16650Y-24250D01*
X34575Y-30500D02*
X34575Y-30125D01*
X15025Y-25425D02*
X15025Y-24875D01*
X10800Y-23775D02*
X11025Y-24000D01*
X34575Y-30500D02*
X34150Y-30925D01*
X10800Y-23375D02*
X10800Y-23775D01*
X14750Y-24600D02*
X12525Y-24600D01*
X21150Y-21550D02*
X20675Y-21550D01*
X11025Y-24000D02*
X11925Y-24000D01*
X11925Y-24000D02*
X12525Y-24600D01*
X25125Y-25050D02*
X23825Y-23750D01*
X15025Y-25425D02*
X16650Y-25425D01*
X27050Y-30925D02*
X26850Y-30725D01*
X26850Y-29675D02*
X26850Y-30725D01*
X15025Y-24875D02*
X14750Y-24600D01*
X34150Y-30925D02*
X27050Y-30925D01*
X27075Y-29450D02*
X26850Y-29675D01*
X23825Y-22775D02*
X23525Y-22475D01*
X23825Y-23750D02*
X23825Y-22775D01*
X27075Y-28475D02*
X27075Y-29450D01*
X30425Y-16300D02*
X32675Y-16300D01*
X36525Y-16625D02*
X33000Y-16625D01*
X23350Y-15875D02*
X30000Y-15875D01*
X30000Y-15875D02*
X30425Y-16300D01*
X33000Y-16625D02*
X32675Y-16300D01*
G54D49*
X20000Y-30500D02*
X20575Y-30500D01*
X29775Y-27550D02*
X29400Y-27925D01*
X34400Y-24850D02*
X34175Y-25075D01*
X32900Y-25250D02*
X32900Y-27050D01*
X32750Y-27200D02*
X32900Y-27050D01*
X31050Y-27550D02*
X31400Y-27200D01*
X21925Y-27925D02*
X29400Y-27925D01*
X20775Y-29075D02*
X20775Y-30300D01*
X31400Y-27200D02*
X32750Y-27200D01*
X31050Y-27550D02*
X29775Y-27550D01*
X21925Y-27925D02*
X20775Y-29075D01*
X34400Y-23450D02*
X34400Y-24850D01*
X20575Y-30500D02*
X20775Y-30300D01*
X34175Y-25075D02*
X33075Y-25075D01*
X33075Y-25075D02*
X32900Y-25250D01*
X35675Y-14050D02*
X34875Y-14050D01*
X36575Y-13800D02*
X35925Y-13800D01*
X35925Y-13800D02*
X35675Y-14050D01*
G54D47*
X36575Y-18800D02*
X35475Y-18800D01*
X35475Y-18800D02*
X34875Y-18200D01*
X32900Y-18825D02*
X32900Y-21025D01*
X33525Y-18200D02*
X32900Y-18825D01*
X34875Y-18200D02*
X33525Y-18200D01*
X29325Y-18775D02*
X30300Y-18775D01*
X30300Y-18775D02*
X30550Y-19025D01*
X28450Y-18775D02*
X26400Y-18775D01*
X29325Y-18775D02*
X28450Y-18775D01*
X21150Y-20775D02*
X23000Y-20775D01*
X23000Y-20775D02*
X23000Y-20750D01*
X23000Y-21425D02*
X23000Y-20750D01*
X23225Y-20525D02*
X23225Y-20275D01*
X23000Y-20750D02*
X23225Y-20525D01*
X23000Y-21425D02*
X23000Y-22650D01*
X23000Y-22650D02*
X22600Y-23050D01*
X23000Y-21425D02*
X23425Y-21425D01*
X24000Y-22000D02*
X26550Y-22000D01*
X23425Y-21425D02*
X24000Y-22000D01*
X16075Y-17450D02*
X16525Y-17450D01*
X16600Y-23025D02*
X16275Y-23025D01*
X15475Y-19875D02*
X15475Y-18840D01*
X20225Y-22150D02*
X20225Y-21125D01*
X31400Y-24500D02*
X31400Y-23450D01*
X15946Y-18840D02*
X15946Y-17579D01*
X32375Y-21550D02*
X30550Y-21550D01*
X26400Y-18775D02*
X26175Y-19000D01*
X15750Y-21025D02*
X15750Y-20575D01*
X16750Y-17225D02*
X16525Y-17450D01*
X13550Y-25425D02*
X13225Y-25450D01*
X16600Y-23025D02*
X17650Y-23025D01*
X16100Y-14792D02*
X16508Y-14792D01*
X15625Y-21150D02*
X15750Y-21025D01*
X20375Y-20975D02*
X20950Y-20975D01*
X18600Y-16225D02*
X19425Y-16225D01*
X10800Y-21200D02*
X10350Y-20750D01*
X13075Y-20150D02*
X13075Y-19175D01*
X10350Y-19525D02*
X10713Y-19162D01*
X20225Y-21125D02*
X20375Y-20975D01*
X14676Y-13099D02*
X14812Y-12963D01*
X32900Y-21025D02*
X32375Y-21550D01*
X18000Y-23500D02*
X18000Y-23375D01*
X11050Y-13475D02*
X11050Y-14125D01*
X14100Y-13099D02*
X14676Y-13099D01*
X20950Y-20975D02*
X21150Y-20775D01*
X16275Y-22525D02*
X16275Y-23025D01*
X16508Y-14792D02*
X16692Y-14608D01*
X18600Y-16225D02*
X18600Y-15875D01*
X15750Y-20575D02*
X15475Y-20300D01*
X17325Y-15725D02*
X18450Y-15725D01*
X21100Y-16650D02*
X20550Y-16650D01*
X19800Y-16225D02*
X19425Y-16225D01*
X17925Y-17225D02*
X18600Y-16550D01*
X10713Y-19162D02*
X12016Y-19162D01*
X18000Y-23375D02*
X17650Y-23025D01*
X20225Y-16650D02*
X19800Y-16225D01*
X13062Y-19162D02*
X12016Y-19162D01*
X16692Y-14458D02*
X16692Y-14608D01*
X18450Y-15725D02*
X18600Y-15875D01*
X30550Y-19025D02*
X30550Y-21550D01*
X15946Y-18840D02*
X15475Y-18840D01*
X11375Y-25425D02*
X11100Y-25700D01*
X27526Y-22000D02*
X28450Y-21076D01*
X32575Y-28425D02*
X30950Y-28425D01*
X32875Y-28125D02*
X32575Y-28425D01*
X30950Y-28425D02*
X30075Y-29300D01*
X18000Y-29500D02*
X18000Y-30500D01*
X11925Y-25425D02*
X11375Y-25425D01*
X11100Y-25700D02*
X10575Y-25700D01*
X13850Y-16250D02*
X14100Y-16250D01*
X12016Y-13099D02*
X14100Y-13099D01*
X15475Y-20300D02*
X15475Y-19875D01*
X17325Y-14225D02*
X16925Y-14225D01*
X26175Y-19475D02*
X26175Y-19000D01*
X12016Y-13099D02*
X11426Y-13099D01*
X17325Y-17225D02*
X17925Y-17225D01*
X16100Y-14792D02*
X15558Y-14792D01*
X15200Y-15150D02*
X15200Y-15600D01*
X25950Y-29725D02*
X25725Y-29500D01*
X14550Y-16250D02*
X15200Y-15600D01*
X15558Y-14792D02*
X15200Y-15150D01*
X14100Y-18840D02*
X14350Y-18840D01*
X14100Y-16250D02*
X14100Y-18840D01*
X25950Y-30200D02*
X25950Y-29725D01*
X22075Y-16475D02*
X21275Y-16475D01*
X10800Y-21575D02*
X10800Y-21200D01*
X13075Y-19175D02*
X13062Y-19162D01*
X14100Y-16250D02*
X14550Y-16250D01*
X26550Y-22000D02*
X27526Y-22000D01*
X13650Y-14950D02*
X13650Y-16050D01*
X28450Y-21076D02*
X28450Y-18775D01*
X13650Y-16050D02*
X13850Y-16250D01*
X17650Y-22325D02*
X17650Y-23025D01*
X17325Y-17225D02*
X16750Y-17225D01*
X15225Y-21150D02*
X15625Y-21150D01*
X16925Y-14225D02*
X16692Y-14458D01*
X20550Y-16650D02*
X20225Y-16650D01*
X22075Y-14425D02*
X22075Y-16475D01*
X15475Y-18840D02*
X14350Y-18840D01*
X10350Y-20750D02*
X10350Y-19525D01*
X18600Y-16550D02*
X18600Y-16225D01*
X16275Y-23025D02*
X16275Y-23525D01*
X13650Y-14950D02*
X14100Y-14500D01*
X21275Y-16475D02*
X21100Y-16650D01*
X14100Y-13099D02*
X14100Y-14500D01*
X11426Y-13099D02*
X11050Y-13475D01*
X30550Y-21550D02*
X30550Y-21525D01*
X15946Y-17579D02*
X16075Y-17450D01*
X32400Y-26450D02*
X32400Y-25500D01*
X14350Y-18840D02*
X13410Y-18840D01*
X13410Y-18840D02*
X13075Y-19175D01*
X14812Y-12963D02*
X15864Y-12963D01*
X32400Y-25500D02*
X31400Y-24500D01*
X11925Y-25425D02*
X13550Y-25425D01*
X21150Y-20275D02*
X21150Y-20775D01*
X25175Y-19475D02*
X26175Y-19475D01*
G54D49*
X26200Y-20250D02*
X26175Y-20275D01*
X27175Y-20250D02*
X26200Y-20250D01*
X24200Y-20250D02*
X25150Y-20250D01*
X25150Y-20250D02*
X25175Y-20275D01*
X22200Y-20250D02*
X22450Y-20250D01*
X22450Y-20250D02*
X23225Y-19475D01*
X17650Y-21525D02*
X16275Y-21525D01*
X22200Y-19500D02*
X22200Y-18725D01*
X19725Y-19575D02*
X19725Y-20250D01*
X19225Y-20250D02*
X19725Y-20250D01*
G54D10*
G36*
X15750Y-24325D02*
X15420Y-24325D01*
X15420Y-24030D01*
X15420Y-23580D01*
X15420Y-23470D01*
X15420Y-23030D01*
X15420Y-23020D01*
X15420Y-22580D01*
X15420Y-22470D01*
X15420Y-22020D01*
X15345Y-21945D01*
X15206Y-21946D01*
X15096Y-21991D01*
X15012Y-22075D01*
X14966Y-22185D01*
X14966Y-22304D01*
X14965Y-22395D01*
X15040Y-22470D01*
X15420Y-22470D01*
X15420Y-22580D01*
X15040Y-22580D01*
X14965Y-22655D01*
X14966Y-22746D01*
X14966Y-22865D01*
X15012Y-22975D01*
X15062Y-23025D01*
X15012Y-23075D01*
X14966Y-23185D01*
X14966Y-23304D01*
X14965Y-23395D01*
X15040Y-23470D01*
X15420Y-23470D01*
X15420Y-23580D01*
X15040Y-23580D01*
X14965Y-23655D01*
X14966Y-23746D01*
X14966Y-23865D01*
X15012Y-23975D01*
X15096Y-24059D01*
X15206Y-24104D01*
X15345Y-24105D01*
X15420Y-24030D01*
X15420Y-24325D01*
X14955Y-24325D01*
X14884Y-24277D01*
X14750Y-24250D01*
X14000Y-24250D01*
X14000Y-22605D01*
X14000Y-22345D01*
X13999Y-21666D01*
X13954Y-21556D01*
X13870Y-21472D01*
X13760Y-21426D01*
X13641Y-21426D01*
X13430Y-21425D01*
X13355Y-21500D01*
X13355Y-22420D01*
X13925Y-22420D01*
X14000Y-22345D01*
X14000Y-22605D01*
X13925Y-22530D01*
X13355Y-22530D01*
X13355Y-23450D01*
X13430Y-23525D01*
X13641Y-23524D01*
X13760Y-23524D01*
X13870Y-23478D01*
X13954Y-23394D01*
X13999Y-23284D01*
X14000Y-22605D01*
X14000Y-24250D01*
X13245Y-24250D01*
X13245Y-23450D01*
X13245Y-22530D01*
X13245Y-22420D01*
X13245Y-21500D01*
X13170Y-21425D01*
X12959Y-21426D01*
X12840Y-21426D01*
X12730Y-21472D01*
X12646Y-21556D01*
X12601Y-21666D01*
X12600Y-22345D01*
X12675Y-22420D01*
X13245Y-22420D01*
X13245Y-22530D01*
X12675Y-22530D01*
X12600Y-22605D01*
X12601Y-23284D01*
X12646Y-23394D01*
X12730Y-23478D01*
X12840Y-23524D01*
X12959Y-23524D01*
X13170Y-23525D01*
X13245Y-23450D01*
X13245Y-24250D01*
X12669Y-24250D01*
X12172Y-23753D01*
X12059Y-23677D01*
X11925Y-23650D01*
X11449Y-23650D01*
X11449Y-23626D01*
X11449Y-23026D01*
X11426Y-22971D01*
X11454Y-22944D01*
X11499Y-22834D01*
X11500Y-22605D01*
X11425Y-22530D01*
X11350Y-22530D01*
X11350Y-22420D01*
X11425Y-22420D01*
X11500Y-22345D01*
X11499Y-22116D01*
X11454Y-22006D01*
X11426Y-21978D01*
X11449Y-21925D01*
X11449Y-21826D01*
X11449Y-21226D01*
X11411Y-21134D01*
X11350Y-21073D01*
X11350Y-20629D01*
X11386Y-20615D01*
X11401Y-20600D01*
X11749Y-20600D01*
X11764Y-20615D01*
X11966Y-20699D01*
X12184Y-20699D01*
X12386Y-20615D01*
X12401Y-20600D01*
X12573Y-20600D01*
X12634Y-20661D01*
X12725Y-20699D01*
X12824Y-20699D01*
X13424Y-20699D01*
X13516Y-20661D01*
X13586Y-20591D01*
X13624Y-20500D01*
X13624Y-20401D01*
X13624Y-19801D01*
X13586Y-19709D01*
X13525Y-19648D01*
X13525Y-19219D01*
X13554Y-19190D01*
X14100Y-19190D01*
X14350Y-19190D01*
X14900Y-19190D01*
X14900Y-20376D01*
X14835Y-20404D01*
X14751Y-20488D01*
X14706Y-20598D01*
X14705Y-20645D01*
X14780Y-20720D01*
X14900Y-20720D01*
X14900Y-20806D01*
X14864Y-20821D01*
X14855Y-20830D01*
X14780Y-20830D01*
X14705Y-20905D01*
X14706Y-20952D01*
X14751Y-21062D01*
X14756Y-21067D01*
X14756Y-21081D01*
X14756Y-21233D01*
X14751Y-21238D01*
X14706Y-21348D01*
X14705Y-21395D01*
X14780Y-21470D01*
X14855Y-21470D01*
X14864Y-21479D01*
X14900Y-21494D01*
X14900Y-21580D01*
X14780Y-21580D01*
X14705Y-21655D01*
X14706Y-21702D01*
X14751Y-21812D01*
X14835Y-21896D01*
X14945Y-21942D01*
X15064Y-21942D01*
X15095Y-21943D01*
X15170Y-21868D01*
X15170Y-21750D01*
X15280Y-21750D01*
X15280Y-21868D01*
X15355Y-21943D01*
X15386Y-21942D01*
X15505Y-21942D01*
X15615Y-21896D01*
X15699Y-21812D01*
X15724Y-21750D01*
X15750Y-21750D01*
X15750Y-21948D01*
X15744Y-21946D01*
X15605Y-21945D01*
X15530Y-22020D01*
X15530Y-22420D01*
X15530Y-22470D01*
X15530Y-22580D01*
X15530Y-22630D01*
X15530Y-23020D01*
X15530Y-23030D01*
X15530Y-23420D01*
X15530Y-23470D01*
X15530Y-23580D01*
X15530Y-23630D01*
X15530Y-24030D01*
X15605Y-24105D01*
X15744Y-24104D01*
X15750Y-24101D01*
X15750Y-24325D01*
X15750Y-24325D01*
G37*
G54D49*
X15750Y-24325D02*
X15420Y-24325D01*
X15420Y-24030D01*
X15420Y-23580D01*
X15420Y-23470D01*
X15420Y-23030D01*
X15420Y-23020D01*
X15420Y-22580D01*
X15420Y-22470D01*
X15420Y-22020D01*
X15345Y-21945D01*
X15206Y-21946D01*
X15096Y-21991D01*
X15012Y-22075D01*
X14966Y-22185D01*
X14966Y-22304D01*
X14965Y-22395D01*
X15040Y-22470D01*
X15420Y-22470D01*
X15420Y-22580D01*
X15040Y-22580D01*
X14965Y-22655D01*
X14966Y-22746D01*
X14966Y-22865D01*
X15012Y-22975D01*
X15062Y-23025D01*
X15012Y-23075D01*
X14966Y-23185D01*
X14966Y-23304D01*
X14965Y-23395D01*
X15040Y-23470D01*
X15420Y-23470D01*
X15420Y-23580D01*
X15040Y-23580D01*
X14965Y-23655D01*
X14966Y-23746D01*
X14966Y-23865D01*
X15012Y-23975D01*
X15096Y-24059D01*
X15206Y-24104D01*
X15345Y-24105D01*
X15420Y-24030D01*
X15420Y-24325D01*
X14955Y-24325D01*
X14884Y-24277D01*
X14750Y-24250D01*
X14000Y-24250D01*
X14000Y-22605D01*
X14000Y-22345D01*
X13999Y-21666D01*
X13954Y-21556D01*
X13870Y-21472D01*
X13760Y-21426D01*
X13641Y-21426D01*
X13430Y-21425D01*
X13355Y-21500D01*
X13355Y-22420D01*
X13925Y-22420D01*
X14000Y-22345D01*
X14000Y-22605D01*
X13925Y-22530D01*
X13355Y-22530D01*
X13355Y-23450D01*
X13430Y-23525D01*
X13641Y-23524D01*
X13760Y-23524D01*
X13870Y-23478D01*
X13954Y-23394D01*
X13999Y-23284D01*
X14000Y-22605D01*
X14000Y-24250D01*
X13245Y-24250D01*
X13245Y-23450D01*
X13245Y-22530D01*
X13245Y-22420D01*
X13245Y-21500D01*
X13170Y-21425D01*
X12959Y-21426D01*
X12840Y-21426D01*
X12730Y-21472D01*
X12646Y-21556D01*
X12601Y-21666D01*
X12600Y-22345D01*
X12675Y-22420D01*
X13245Y-22420D01*
X13245Y-22530D01*
X12675Y-22530D01*
X12600Y-22605D01*
X12601Y-23284D01*
X12646Y-23394D01*
X12730Y-23478D01*
X12840Y-23524D01*
X12959Y-23524D01*
X13170Y-23525D01*
X13245Y-23450D01*
X13245Y-24250D01*
X12669Y-24250D01*
X12172Y-23753D01*
X12059Y-23677D01*
X11925Y-23650D01*
X11449Y-23650D01*
X11449Y-23626D01*
X11449Y-23026D01*
X11426Y-22971D01*
X11454Y-22944D01*
X11499Y-22834D01*
X11500Y-22605D01*
X11425Y-22530D01*
X11350Y-22530D01*
X11350Y-22420D01*
X11425Y-22420D01*
X11500Y-22345D01*
X11499Y-22116D01*
X11454Y-22006D01*
X11426Y-21978D01*
X11449Y-21925D01*
X11449Y-21826D01*
X11449Y-21226D01*
X11411Y-21134D01*
X11350Y-21073D01*
X11350Y-20629D01*
X11386Y-20615D01*
X11401Y-20600D01*
X11749Y-20600D01*
X11764Y-20615D01*
X11966Y-20699D01*
X12184Y-20699D01*
X12386Y-20615D01*
X12401Y-20600D01*
X12573Y-20600D01*
X12634Y-20661D01*
X12725Y-20699D01*
X12824Y-20699D01*
X13424Y-20699D01*
X13516Y-20661D01*
X13586Y-20591D01*
X13624Y-20500D01*
X13624Y-20401D01*
X13624Y-19801D01*
X13586Y-19709D01*
X13525Y-19648D01*
X13525Y-19219D01*
X13554Y-19190D01*
X14100Y-19190D01*
X14350Y-19190D01*
X14900Y-19190D01*
X14900Y-20376D01*
X14835Y-20404D01*
X14751Y-20488D01*
X14706Y-20598D01*
X14705Y-20645D01*
X14780Y-20720D01*
X14900Y-20720D01*
X14900Y-20806D01*
X14864Y-20821D01*
X14855Y-20830D01*
X14780Y-20830D01*
X14705Y-20905D01*
X14706Y-20952D01*
X14751Y-21062D01*
X14756Y-21067D01*
X14756Y-21081D01*
X14756Y-21233D01*
X14751Y-21238D01*
X14706Y-21348D01*
X14705Y-21395D01*
X14780Y-21470D01*
X14855Y-21470D01*
X14864Y-21479D01*
X14900Y-21494D01*
X14900Y-21580D01*
X14780Y-21580D01*
X14705Y-21655D01*
X14706Y-21702D01*
X14751Y-21812D01*
X14835Y-21896D01*
X14945Y-21942D01*
X15064Y-21942D01*
X15095Y-21943D01*
X15170Y-21868D01*
X15170Y-21750D01*
X15280Y-21750D01*
X15280Y-21868D01*
X15355Y-21943D01*
X15386Y-21942D01*
X15505Y-21942D01*
X15615Y-21896D01*
X15699Y-21812D01*
X15724Y-21750D01*
X15750Y-21750D01*
X15750Y-21948D01*
X15744Y-21946D01*
X15605Y-21945D01*
X15530Y-22020D01*
X15530Y-22420D01*
X15530Y-22470D01*
X15530Y-22580D01*
X15530Y-22630D01*
X15530Y-23020D01*
X15530Y-23030D01*
X15530Y-23420D01*
X15530Y-23470D01*
X15530Y-23580D01*
X15530Y-23630D01*
X15530Y-24030D01*
X15605Y-24105D01*
X15744Y-24104D01*
X15750Y-24101D01*
X15750Y-24325D01*
M02*
