G04 (created by PCBNEW-RS274X (2011-12-28 BZR 3254)-stable) date 8/23/2012 6:26:50 PM*
G01*
G70*
G90*
%MOIN*%
G04 Gerber Fmt 3.4, Leading zero omitted, Abs format*
%FSLAX34Y34*%
G04 APERTURE LIST*
%ADD10C,0.006000*%
%ADD11C,0.005000*%
%ADD12R,0.060000X0.060000*%
%ADD13C,0.060000*%
%ADD14R,0.070000X0.087500*%
%ADD15R,0.016500X0.057900*%
%ADD16R,0.051200X0.059000*%
%ADD17R,0.042000X0.056000*%
%ADD18R,0.056000X0.042000*%
%ADD19R,0.059000X0.051200*%
%ADD20C,0.040000*%
%ADD21R,0.051200X0.041300*%
%ADD22R,0.023600X0.078700*%
%ADD23R,0.180000X0.140000*%
%ADD24R,0.080000X0.050000*%
%ADD25O,0.080000X0.050000*%
%ADD26R,0.054000X0.016000*%
%ADD27R,0.056000X0.063000*%
%ADD28R,0.075000X0.075000*%
%ADD29C,0.075000*%
%ADD30C,0.045000*%
%ADD31R,0.105000X0.100000*%
%ADD32R,0.030000X0.050000*%
%ADD33O,0.120000X0.180000*%
%ADD34R,0.120000X0.180000*%
%ADD35O,0.180000X0.120000*%
%ADD36O,0.030000X0.070000*%
%ADD37R,0.030000X0.030000*%
%ADD38C,0.180000*%
%ADD39C,0.100000*%
%ADD40O,0.060000X0.090000*%
%ADD41R,0.060000X0.090000*%
%ADD42C,0.035000*%
%ADD43C,0.020000*%
%ADD44C,0.015000*%
%ADD45C,0.010000*%
G04 APERTURE END LIST*
G54D10*
G54D11*
X43500Y-57000D02*
X43500Y-35000D01*
X10000Y-35000D02*
X43500Y-35000D01*
X43500Y-57000D02*
X10000Y-57000D01*
X10000Y-57000D02*
X10000Y-35000D01*
G54D12*
X18000Y-56250D03*
X18000Y-55250D03*
X18000Y-54250D03*
X18000Y-53250D03*
X18000Y-52250D03*
X18000Y-51250D03*
X18000Y-50250D03*
X18000Y-49250D03*
G54D13*
X19000Y-56250D03*
X19000Y-55250D03*
X19000Y-54250D03*
X19000Y-53250D03*
X19000Y-52250D03*
X19000Y-51250D03*
X19000Y-50250D03*
X19000Y-49250D03*
G54D14*
X12325Y-56075D03*
X10825Y-56075D03*
G54D15*
X13747Y-39098D03*
X14003Y-39098D03*
X14259Y-39098D03*
X14515Y-39098D03*
X12983Y-41300D03*
X12979Y-39098D03*
X13235Y-39098D03*
X13491Y-39098D03*
X14771Y-41302D03*
X14515Y-41302D03*
X14259Y-41302D03*
X14003Y-41302D03*
X13747Y-41302D03*
X13491Y-41302D03*
X14771Y-39098D03*
X13235Y-41300D03*
X12723Y-39098D03*
X15027Y-39098D03*
X15027Y-41302D03*
X12723Y-41302D03*
G54D16*
X12075Y-44025D03*
X12825Y-44025D03*
G54D17*
X11025Y-38250D03*
X11825Y-38250D03*
X11025Y-41300D03*
X11825Y-41300D03*
G54D18*
X28800Y-45075D03*
X28800Y-44275D03*
G54D17*
X32400Y-49300D03*
X31600Y-49300D03*
X15100Y-44925D03*
X14300Y-44925D03*
G54D18*
X29850Y-45075D03*
X29850Y-44275D03*
G54D19*
X41075Y-50700D03*
X41075Y-51450D03*
X40075Y-50700D03*
X40075Y-51450D03*
G54D20*
X11675Y-49500D03*
X11025Y-49500D03*
X10375Y-49500D03*
G54D21*
X29775Y-46700D03*
X28875Y-45950D03*
X29775Y-45950D03*
X28875Y-46700D03*
G54D22*
X16125Y-49956D03*
X15625Y-49956D03*
X15125Y-49956D03*
X14625Y-49956D03*
X14125Y-49956D03*
X13625Y-49956D03*
X13125Y-49956D03*
X12625Y-49956D03*
X12625Y-46294D03*
X13125Y-46294D03*
X13625Y-46294D03*
X14125Y-46294D03*
X14625Y-46294D03*
X15125Y-46294D03*
X15625Y-46294D03*
X16125Y-46294D03*
G54D16*
X16775Y-51700D03*
X16025Y-51700D03*
G54D23*
X22600Y-49050D03*
X22600Y-38850D03*
G54D13*
X20000Y-56250D03*
X20000Y-55250D03*
X20000Y-54250D03*
X20000Y-53250D03*
X20000Y-52250D03*
X20000Y-51250D03*
X20000Y-50250D03*
X20000Y-49250D03*
X42950Y-36050D03*
X42950Y-37050D03*
G54D12*
X42950Y-38050D03*
G54D13*
X42950Y-39050D03*
X42950Y-40050D03*
X42950Y-41050D03*
G54D24*
X31000Y-39000D03*
G54D25*
X31000Y-40000D03*
X31000Y-41000D03*
X31000Y-42000D03*
X31000Y-43000D03*
X31000Y-44000D03*
X31000Y-45000D03*
X31000Y-46000D03*
G54D24*
X32000Y-39000D03*
G54D25*
X32000Y-40000D03*
X32000Y-41000D03*
X32000Y-42000D03*
X32000Y-43000D03*
X32000Y-44000D03*
X32000Y-45000D03*
X32000Y-46000D03*
G54D26*
X11625Y-52000D03*
X11625Y-51744D03*
X11625Y-51488D03*
X11625Y-52256D03*
X11625Y-52512D03*
G54D27*
X11525Y-53250D03*
X11525Y-50750D03*
G54D28*
X10575Y-52475D03*
X10575Y-51525D03*
G54D29*
X10575Y-53300D03*
X10575Y-50700D03*
G54D13*
X37575Y-45800D03*
X36575Y-45800D03*
X37575Y-44800D03*
X36575Y-44800D03*
X37575Y-43800D03*
G54D12*
X36575Y-43800D03*
G54D30*
X11800Y-39200D03*
X11800Y-42350D03*
G54D31*
X24650Y-54500D03*
G54D32*
X25575Y-54500D03*
G54D33*
X13100Y-53450D03*
G54D34*
X15500Y-53450D03*
G54D35*
X14350Y-55450D03*
G54D13*
X10700Y-36900D03*
X10700Y-35900D03*
X11700Y-36900D03*
X11700Y-35900D03*
X12700Y-36900D03*
G54D12*
X12700Y-35900D03*
G54D13*
X13700Y-36900D03*
X13700Y-35900D03*
X14700Y-36900D03*
X14700Y-35900D03*
X15700Y-36900D03*
X15700Y-35900D03*
X16700Y-36900D03*
X16700Y-35900D03*
X17700Y-36900D03*
X17700Y-35900D03*
X18700Y-36900D03*
X18700Y-35900D03*
X19700Y-36900D03*
X19700Y-35900D03*
X20700Y-36900D03*
X20700Y-35900D03*
X21700Y-36900D03*
X21700Y-35900D03*
X22700Y-36900D03*
X22700Y-35900D03*
X34575Y-43800D03*
X34575Y-44800D03*
X34575Y-45800D03*
X41575Y-54125D03*
X40575Y-54125D03*
X39575Y-54125D03*
X38575Y-54125D03*
X37575Y-54125D03*
X36575Y-54125D03*
G54D12*
X41575Y-53125D03*
X40575Y-53125D03*
X39575Y-53125D03*
X38575Y-53125D03*
X37575Y-53125D03*
X36575Y-53125D03*
G54D36*
X11950Y-45075D03*
X10950Y-45075D03*
X11450Y-46275D03*
G54D37*
X10950Y-45675D03*
X11450Y-45675D03*
X11950Y-45675D03*
G54D12*
X41575Y-38800D03*
X40575Y-38800D03*
G54D13*
X39575Y-38800D03*
X38575Y-38800D03*
X37575Y-38800D03*
X36575Y-38800D03*
X41575Y-55125D03*
X40575Y-55125D03*
X39575Y-55125D03*
X36575Y-55125D03*
X37575Y-55125D03*
X38575Y-55125D03*
X34575Y-55125D03*
G54D12*
X33575Y-55125D03*
X32575Y-55125D03*
G54D13*
X30575Y-55125D03*
X29575Y-55125D03*
X41575Y-36125D03*
X40575Y-36125D03*
X39575Y-36125D03*
X38575Y-36125D03*
X37575Y-36125D03*
X36575Y-36125D03*
X35575Y-36125D03*
X34575Y-36125D03*
X32975Y-36125D03*
X31975Y-36125D03*
X30975Y-36125D03*
X29975Y-36125D03*
X28975Y-36125D03*
X27975Y-36125D03*
G54D12*
X26975Y-36125D03*
G54D13*
X25975Y-36125D03*
X31575Y-55125D03*
G54D38*
X22075Y-55125D03*
G54D39*
X42575Y-53125D03*
G54D13*
X28575Y-55125D03*
X27575Y-55125D03*
X24975Y-36125D03*
X23975Y-36125D03*
G54D40*
X37400Y-47975D03*
X36400Y-47975D03*
X35400Y-47975D03*
X34400Y-47975D03*
X33400Y-47975D03*
X32400Y-47975D03*
G54D41*
X31400Y-47975D03*
G54D40*
X30400Y-47975D03*
X29400Y-47975D03*
X28400Y-47975D03*
X27400Y-47975D03*
X26400Y-47975D03*
X25400Y-47975D03*
X38400Y-47975D03*
X25400Y-50975D03*
X26400Y-50975D03*
X27400Y-50975D03*
X28400Y-50975D03*
X29400Y-50975D03*
X30400Y-50975D03*
X31400Y-50975D03*
G54D41*
X32400Y-50975D03*
G54D40*
X33400Y-50975D03*
X34400Y-50975D03*
X35400Y-50975D03*
X36400Y-50975D03*
X37400Y-50975D03*
X38400Y-50975D03*
G54D42*
X18750Y-40225D03*
X33375Y-42300D03*
X34575Y-42300D03*
X27800Y-44500D03*
X24125Y-46300D03*
X21300Y-43275D03*
X19500Y-48075D03*
X14499Y-42135D03*
X35825Y-55050D03*
X33975Y-53125D03*
X17025Y-42675D03*
X23025Y-53600D03*
X24650Y-53600D03*
X26100Y-47100D03*
X41675Y-40525D03*
X40350Y-40525D03*
X25925Y-42550D03*
X27625Y-42550D03*
X28175Y-41625D03*
X25575Y-41625D03*
X40350Y-39925D03*
X35400Y-40825D03*
X41675Y-39925D03*
X28900Y-52225D03*
X33400Y-46175D03*
X30900Y-51825D03*
X35825Y-38350D03*
X32975Y-38050D03*
X14225Y-40575D03*
X19550Y-38825D03*
X29425Y-38050D03*
X15500Y-38825D03*
X25925Y-38450D03*
X18150Y-41225D03*
X25400Y-42450D03*
X20550Y-38675D03*
X32950Y-39850D03*
X23800Y-42525D03*
X29350Y-41975D03*
X19775Y-43600D03*
X17775Y-43500D03*
X22200Y-35350D03*
X40175Y-37525D03*
X41075Y-37525D03*
X25275Y-39300D03*
X21275Y-40375D03*
X13225Y-40200D03*
X34925Y-38500D03*
X24450Y-38325D03*
X30450Y-53150D03*
X24450Y-37075D03*
X20950Y-38325D03*
X15025Y-43025D03*
X17525Y-42675D03*
X25100Y-41275D03*
X21300Y-42525D03*
X27825Y-41275D03*
X12625Y-47475D03*
X15275Y-51225D03*
X10350Y-43700D03*
X15625Y-49200D03*
X20800Y-48700D03*
X10825Y-54225D03*
X12350Y-42850D03*
X17075Y-44125D03*
X23150Y-47475D03*
X14700Y-44300D03*
X41575Y-49950D03*
X23375Y-45950D03*
X20000Y-44575D03*
X27925Y-45350D03*
X29700Y-43300D03*
X32875Y-45325D03*
X27275Y-42925D03*
X18000Y-40250D03*
X16975Y-45525D03*
X25275Y-40300D03*
X13800Y-52225D03*
X26850Y-53475D03*
X16650Y-49250D03*
X24625Y-49500D03*
X20400Y-46550D03*
X23725Y-47475D03*
X23350Y-40875D03*
X30075Y-54300D03*
X22600Y-47025D03*
X15200Y-40600D03*
X13350Y-43325D03*
X29325Y-43775D03*
X30550Y-46525D03*
X32400Y-53125D03*
X26550Y-46700D03*
X11050Y-39125D03*
X12300Y-46300D03*
X25950Y-55200D03*
X16600Y-48025D03*
X22200Y-43725D03*
X19500Y-44575D03*
G54D43*
X24125Y-52075D02*
X25925Y-53875D01*
X30575Y-55125D02*
X30575Y-54125D01*
X20950Y-47775D02*
X19800Y-47775D01*
X21250Y-48075D02*
X20950Y-47775D01*
X24125Y-51050D02*
X24125Y-51075D01*
X34575Y-42300D02*
X34575Y-43800D01*
X24125Y-46300D02*
X24125Y-43650D01*
X21250Y-50750D02*
X21250Y-48075D01*
X23750Y-43275D02*
X21300Y-43275D01*
X33975Y-53125D02*
X35250Y-53125D01*
X18750Y-41252D02*
X17867Y-42135D01*
X24125Y-51050D02*
X24125Y-52075D01*
X30325Y-53875D02*
X30575Y-54125D01*
X24125Y-46300D02*
X24125Y-51050D01*
X29225Y-42500D02*
X27800Y-43925D01*
X21575Y-51075D02*
X21250Y-50750D01*
X18750Y-40225D02*
X18750Y-41252D01*
X14499Y-42135D02*
X17025Y-42135D01*
X33375Y-42300D02*
X33100Y-42300D01*
X19800Y-47775D02*
X19500Y-48075D01*
X24125Y-43650D02*
X23750Y-43275D01*
X35250Y-53125D02*
X35675Y-53550D01*
X32900Y-42500D02*
X29225Y-42500D01*
X35675Y-54900D02*
X35825Y-55050D01*
X33100Y-42300D02*
X32900Y-42500D01*
X30325Y-53875D02*
X25925Y-53875D01*
X27800Y-43925D02*
X27800Y-44500D01*
X17025Y-42135D02*
X17867Y-42135D01*
X17025Y-42675D02*
X17025Y-42135D01*
X35675Y-53550D02*
X35675Y-54900D01*
X24125Y-51075D02*
X21575Y-51075D01*
X20000Y-49250D02*
X20000Y-50250D01*
X24650Y-53600D02*
X24650Y-54500D01*
X19000Y-55250D02*
X19000Y-54250D01*
X19000Y-53250D02*
X19000Y-52250D01*
X19125Y-56775D02*
X20525Y-56775D01*
X19000Y-51250D02*
X19000Y-50250D01*
X23025Y-53600D02*
X21625Y-53600D01*
X20800Y-54425D02*
X21625Y-53600D01*
X20800Y-56500D02*
X20800Y-54425D01*
X19000Y-56250D02*
X19000Y-56650D01*
X19000Y-56650D02*
X19125Y-56775D01*
X20525Y-56775D02*
X20800Y-56500D01*
X19000Y-50250D02*
X19000Y-49250D01*
X19000Y-52250D02*
X19000Y-51250D01*
X19000Y-54250D02*
X19000Y-53250D01*
X26550Y-43175D02*
X26550Y-37175D01*
X26150Y-36925D02*
X25975Y-36750D01*
G54D44*
X25725Y-44000D02*
X26550Y-43175D01*
X25725Y-46725D02*
X26100Y-47100D01*
G54D43*
X26550Y-37175D02*
X26300Y-36925D01*
G54D44*
X25725Y-44000D02*
X25725Y-46725D01*
G54D43*
X25975Y-36750D02*
X25975Y-36125D01*
X26300Y-36925D02*
X26150Y-36925D01*
G54D45*
X41675Y-40525D02*
X40350Y-40525D01*
X28525Y-41500D02*
X28525Y-37725D01*
X32975Y-37025D02*
X32975Y-36125D01*
X28900Y-37350D02*
X32650Y-37350D01*
X32650Y-37350D02*
X32975Y-37025D01*
X28900Y-37350D02*
X28525Y-37725D01*
X28075Y-42550D02*
X27625Y-42550D01*
X25250Y-43475D02*
X25925Y-42800D01*
X25250Y-47225D02*
X25250Y-43475D01*
X28525Y-41500D02*
X28525Y-42100D01*
X25925Y-42800D02*
X25925Y-42550D01*
X25400Y-47975D02*
X25400Y-47375D01*
X28525Y-42100D02*
X28075Y-42550D01*
X25400Y-47375D02*
X25250Y-47225D01*
X31975Y-36900D02*
X31975Y-36125D01*
X31750Y-37125D02*
X31975Y-36900D01*
X25275Y-49150D02*
X24588Y-48463D01*
X25400Y-51675D02*
X25400Y-50975D01*
X24588Y-48463D02*
X24588Y-46887D01*
X26900Y-49350D02*
X26700Y-49150D01*
X25575Y-51850D02*
X25400Y-51675D01*
X24800Y-42400D02*
X25575Y-41625D01*
X28800Y-37125D02*
X31750Y-37125D01*
X26900Y-51625D02*
X26675Y-51850D01*
X24588Y-46887D02*
X24800Y-46675D01*
X28175Y-37750D02*
X28800Y-37125D01*
X24800Y-46675D02*
X24800Y-42400D01*
X28175Y-37750D02*
X28175Y-41625D01*
X26700Y-49150D02*
X25275Y-49150D01*
X26900Y-51625D02*
X26900Y-49350D01*
X26675Y-51850D02*
X25575Y-51850D01*
X29850Y-45350D02*
X29850Y-45075D01*
X29775Y-45425D02*
X29850Y-45350D01*
X29775Y-45950D02*
X29775Y-45425D01*
X30400Y-47975D02*
X30400Y-47325D01*
X29775Y-46700D02*
X29775Y-45950D01*
X30400Y-47325D02*
X29775Y-46700D01*
X29400Y-47225D02*
X28875Y-46700D01*
X28800Y-45350D02*
X28800Y-45075D01*
X28875Y-45425D02*
X28800Y-45350D01*
X28875Y-46700D02*
X28875Y-45950D01*
X29400Y-47975D02*
X29400Y-47225D01*
X28875Y-45950D02*
X28875Y-45425D01*
X35975Y-54525D02*
X35975Y-52750D01*
X35975Y-54525D02*
X36575Y-55125D01*
X35975Y-52750D02*
X35825Y-52600D01*
X35825Y-52600D02*
X33650Y-52600D01*
X33400Y-50975D02*
X33400Y-52350D01*
X33650Y-52600D02*
X33400Y-52350D01*
X37075Y-54625D02*
X37075Y-52550D01*
X37075Y-52550D02*
X36900Y-52375D01*
X34550Y-52375D02*
X34400Y-52225D01*
X34400Y-50975D02*
X34400Y-52225D01*
X36900Y-52375D02*
X34550Y-52375D01*
X37075Y-54625D02*
X37575Y-55125D01*
X35625Y-52150D02*
X35400Y-51925D01*
X35400Y-50975D02*
X35400Y-51925D01*
X38075Y-52350D02*
X38075Y-54625D01*
X38075Y-52350D02*
X37875Y-52150D01*
X38075Y-54625D02*
X38575Y-55125D01*
X37875Y-52150D02*
X35625Y-52150D01*
X39075Y-54625D02*
X39075Y-52125D01*
X39075Y-54625D02*
X39575Y-55125D01*
X36600Y-51925D02*
X36400Y-51725D01*
X39075Y-52125D02*
X38875Y-51925D01*
X38875Y-51925D02*
X36600Y-51925D01*
X36400Y-50975D02*
X36400Y-51725D01*
X35825Y-37675D02*
X38402Y-37675D01*
X35600Y-41425D02*
X35600Y-46775D01*
X39575Y-36502D02*
X38402Y-37675D01*
X41675Y-39925D02*
X40350Y-39925D01*
X39575Y-36125D02*
X39575Y-36502D01*
X35400Y-46975D02*
X35600Y-46775D01*
X35400Y-40825D02*
X35400Y-38100D01*
X35400Y-41225D02*
X35600Y-41425D01*
X35400Y-40825D02*
X35400Y-41225D01*
X35400Y-38100D02*
X35825Y-37675D01*
X35400Y-47975D02*
X35400Y-46975D01*
X34000Y-43425D02*
X34000Y-46825D01*
X34225Y-43200D02*
X34000Y-43425D01*
X34225Y-37800D02*
X34825Y-37200D01*
X34000Y-46825D02*
X33400Y-47425D01*
X37575Y-36523D02*
X37575Y-36125D01*
X36898Y-37200D02*
X37575Y-36523D01*
X34825Y-37200D02*
X36898Y-37200D01*
X34225Y-37800D02*
X34225Y-43200D01*
X33400Y-47425D02*
X33400Y-47975D01*
X28400Y-48500D02*
X28900Y-49000D01*
X36125Y-36975D02*
X36575Y-36525D01*
X36575Y-36525D02*
X36575Y-36125D01*
X34000Y-37673D02*
X34000Y-43125D01*
X28400Y-47975D02*
X28400Y-48500D01*
X34698Y-36975D02*
X36125Y-36975D01*
X34698Y-36975D02*
X34000Y-37673D01*
X34000Y-43125D02*
X33775Y-43350D01*
X33775Y-43350D02*
X33775Y-45800D01*
X28900Y-49000D02*
X28900Y-52225D01*
X33775Y-45800D02*
X33400Y-46175D01*
X33775Y-37525D02*
X33775Y-43000D01*
X34550Y-36750D02*
X35300Y-36750D01*
X35575Y-36475D02*
X35575Y-36125D01*
X30900Y-51825D02*
X30900Y-50525D01*
X33550Y-45500D02*
X32900Y-46150D01*
X33775Y-37525D02*
X34550Y-36750D01*
X32750Y-50200D02*
X32900Y-50050D01*
X35300Y-36750D02*
X35575Y-36475D01*
X33550Y-43225D02*
X33550Y-45500D01*
X32900Y-46150D02*
X32900Y-50050D01*
X33775Y-43000D02*
X33550Y-43225D01*
X31225Y-50200D02*
X32750Y-50200D01*
X30900Y-50525D02*
X31225Y-50200D01*
X28752Y-42223D02*
X27700Y-43275D01*
X26900Y-43675D02*
X27300Y-43275D01*
X27300Y-43275D02*
X27700Y-43275D01*
X26400Y-47375D02*
X26900Y-46875D01*
X26900Y-46875D02*
X26900Y-43675D01*
X26400Y-47975D02*
X26400Y-47375D01*
X28975Y-37575D02*
X33375Y-37575D01*
X28752Y-42223D02*
X28752Y-37798D01*
X28752Y-37798D02*
X28975Y-37575D01*
X33974Y-36125D02*
X34575Y-36125D01*
X33700Y-37250D02*
X33700Y-36399D01*
X33700Y-36399D02*
X33974Y-36125D01*
X33375Y-37575D02*
X33700Y-37250D01*
X35825Y-45075D02*
X35825Y-38350D01*
X27900Y-47525D02*
X27175Y-46800D01*
X28975Y-42325D02*
X27800Y-43500D01*
X36050Y-45300D02*
X35825Y-45075D01*
X29425Y-38050D02*
X29425Y-38400D01*
X28400Y-48950D02*
X27900Y-48450D01*
X27175Y-46800D02*
X27175Y-43700D01*
X32975Y-38050D02*
X29425Y-38050D01*
X15500Y-38825D02*
X19550Y-38825D01*
X27900Y-48450D02*
X27900Y-47525D01*
X27175Y-43700D02*
X27375Y-43500D01*
X29425Y-38400D02*
X28975Y-38850D01*
X14515Y-40865D02*
X14225Y-40575D01*
X14515Y-41302D02*
X14515Y-40865D01*
X37075Y-45300D02*
X37575Y-45800D01*
X27375Y-43500D02*
X27800Y-43500D01*
X37075Y-45300D02*
X36050Y-45300D01*
X28400Y-50975D02*
X28400Y-48950D01*
X28975Y-38850D02*
X28975Y-42325D01*
X27400Y-49125D02*
X27200Y-48925D01*
X18350Y-40048D02*
X18523Y-39875D01*
X20550Y-39325D02*
X20000Y-39875D01*
X27400Y-50975D02*
X27400Y-49125D01*
X25025Y-42825D02*
X25400Y-42450D01*
X24791Y-47009D02*
X25025Y-46775D01*
X24791Y-48341D02*
X24791Y-47009D01*
X25400Y-42450D02*
X25925Y-41925D01*
X17575Y-41800D02*
X18150Y-41225D01*
X25925Y-38450D02*
X25925Y-41925D01*
X18350Y-41025D02*
X18150Y-41225D01*
X27200Y-48925D02*
X25375Y-48925D01*
X20000Y-39875D02*
X18523Y-39875D01*
X20550Y-38675D02*
X20550Y-39325D01*
X25025Y-46775D02*
X25025Y-42825D01*
X14375Y-41800D02*
X17575Y-41800D01*
X14259Y-41684D02*
X14375Y-41800D01*
X25375Y-48925D02*
X24791Y-48341D01*
X18350Y-40048D02*
X18350Y-41025D01*
X14259Y-41302D02*
X14259Y-41684D01*
X19775Y-43150D02*
X19775Y-43600D01*
X32950Y-39725D02*
X32725Y-39500D01*
X20025Y-42900D02*
X23425Y-42900D01*
X20025Y-42900D02*
X19775Y-43150D01*
X23425Y-42900D02*
X23800Y-42525D01*
X32950Y-39850D02*
X32950Y-39725D01*
X29575Y-39500D02*
X29350Y-39725D01*
X14975Y-43500D02*
X14003Y-42528D01*
X17775Y-43500D02*
X14975Y-43500D01*
X32725Y-39500D02*
X29575Y-39500D01*
X14003Y-42528D02*
X14003Y-41302D01*
X29350Y-41975D02*
X29350Y-39725D01*
X42075Y-37525D02*
X42375Y-37825D01*
X38875Y-38125D02*
X39575Y-38125D01*
X38450Y-46575D02*
X38100Y-46925D01*
X39575Y-38125D02*
X40175Y-37525D01*
X41075Y-37525D02*
X42075Y-37525D01*
X38575Y-38800D02*
X38575Y-38425D01*
X20573Y-37675D02*
X19899Y-38349D01*
X38650Y-41100D02*
X41925Y-41100D01*
X38575Y-38425D02*
X38875Y-38125D01*
X37400Y-47975D02*
X37400Y-47275D01*
X22200Y-37350D02*
X22200Y-35350D01*
X21875Y-37675D02*
X22200Y-37350D01*
X41575Y-36600D02*
X41575Y-36125D01*
X19727Y-39423D02*
X15891Y-39423D01*
X37400Y-47275D02*
X37750Y-46925D01*
X14202Y-39823D02*
X15491Y-39823D01*
X41075Y-37525D02*
X41075Y-37100D01*
X13491Y-40534D02*
X13491Y-41302D01*
X38450Y-41300D02*
X38650Y-41100D01*
X37750Y-46925D02*
X38100Y-46925D01*
X38450Y-46575D02*
X38450Y-41300D01*
X21875Y-37675D02*
X20573Y-37675D01*
X13491Y-40534D02*
X14202Y-39823D01*
X19899Y-39251D02*
X19727Y-39423D01*
X42375Y-40650D02*
X41925Y-41100D01*
X15491Y-39823D02*
X15891Y-39423D01*
X41075Y-37100D02*
X41575Y-36600D01*
X19899Y-38349D02*
X19899Y-39251D01*
X42375Y-37825D02*
X42375Y-40650D01*
G54D43*
X11950Y-40000D02*
X10300Y-40000D01*
X10300Y-37300D02*
X10700Y-36900D01*
G54D45*
X11450Y-45675D02*
X10950Y-45675D01*
X15027Y-39548D02*
X14975Y-39600D01*
G54D43*
X10300Y-40000D02*
X10300Y-37300D01*
G54D45*
X12979Y-39471D02*
X12979Y-39098D01*
X12475Y-40400D02*
X10825Y-40400D01*
G54D43*
X10950Y-45675D02*
X10950Y-45075D01*
G54D45*
X15027Y-39098D02*
X15027Y-39548D01*
G54D43*
X10950Y-43725D02*
X10300Y-43075D01*
G54D45*
X11450Y-45675D02*
X11450Y-44050D01*
X11450Y-44025D02*
X12075Y-44025D01*
X11450Y-43650D02*
X10550Y-42750D01*
G54D43*
X12375Y-39600D02*
X12375Y-39575D01*
G54D45*
X14975Y-39600D02*
X13275Y-39600D01*
X11450Y-44050D02*
X11450Y-44025D01*
G54D43*
X11825Y-38250D02*
X12125Y-38250D01*
G54D45*
X13275Y-39600D02*
X12475Y-40400D01*
X10825Y-40400D02*
X10550Y-40675D01*
G54D43*
X11950Y-40000D02*
X12375Y-39575D01*
G54D44*
X10300Y-40000D02*
X10300Y-43075D01*
G54D43*
X12125Y-38250D02*
X12375Y-38500D01*
X10950Y-45075D02*
X10950Y-43725D01*
G54D45*
X10550Y-40675D02*
X10550Y-42750D01*
G54D43*
X12375Y-39600D02*
X12850Y-39600D01*
G54D44*
X12850Y-39600D02*
X12979Y-39471D01*
G54D45*
X11450Y-44050D02*
X11450Y-43650D01*
G54D43*
X12375Y-39575D02*
X12375Y-38500D01*
G54D45*
X11450Y-46275D02*
X11450Y-45675D01*
X14515Y-39098D02*
X14515Y-38185D01*
X14515Y-38185D02*
X14625Y-38075D01*
X14625Y-38075D02*
X19525Y-38075D01*
X19525Y-38075D02*
X20700Y-36900D01*
X18750Y-37850D02*
X19700Y-36900D01*
X14259Y-39098D02*
X14259Y-38116D01*
X14525Y-37850D02*
X18750Y-37850D01*
X14259Y-38116D02*
X14525Y-37850D01*
X14003Y-37972D02*
X14375Y-37600D01*
X14003Y-39098D02*
X14003Y-37972D01*
X15200Y-37350D02*
X15200Y-36400D01*
X14950Y-37600D02*
X15200Y-37350D01*
X15200Y-36400D02*
X15700Y-35900D01*
X14375Y-37600D02*
X14950Y-37600D01*
X14200Y-36400D02*
X14700Y-35900D01*
X13747Y-39098D02*
X13747Y-37853D01*
X13747Y-37853D02*
X14200Y-37400D01*
X14200Y-37400D02*
X14200Y-36400D01*
X20473Y-37452D02*
X19450Y-38475D01*
X14771Y-38679D02*
X14975Y-38475D01*
X14771Y-39098D02*
X14771Y-38679D01*
X14975Y-38475D02*
X19450Y-38475D01*
X21148Y-37452D02*
X21700Y-36900D01*
X21148Y-37452D02*
X20473Y-37452D01*
X13235Y-39098D02*
X13235Y-38085D01*
X12700Y-36900D02*
X12700Y-37550D01*
X12700Y-37550D02*
X13235Y-38085D01*
X12723Y-39098D02*
X12723Y-37923D01*
X12723Y-37923D02*
X11700Y-36900D01*
X13491Y-39098D02*
X13491Y-37791D01*
X13491Y-37791D02*
X13200Y-37500D01*
X13200Y-36400D02*
X13700Y-35900D01*
X13200Y-37500D02*
X13200Y-36400D01*
X19188Y-41487D02*
X20200Y-40475D01*
X20200Y-40475D02*
X20300Y-40375D01*
X20200Y-40475D02*
X20200Y-40475D01*
X18350Y-42325D02*
X19188Y-41487D01*
X35350Y-41575D02*
X34925Y-41150D01*
X13235Y-41300D02*
X13235Y-40560D01*
X21275Y-40375D02*
X20300Y-40375D01*
X41075Y-54625D02*
X41575Y-55125D01*
X13225Y-40550D02*
X13225Y-40200D01*
X13235Y-40560D02*
X13225Y-40550D01*
X35200Y-50025D02*
X34900Y-49725D01*
X38400Y-50975D02*
X38400Y-50025D01*
X41075Y-54625D02*
X41075Y-51450D01*
X23975Y-36125D02*
X23975Y-36450D01*
X23975Y-36450D02*
X24125Y-36600D01*
X38400Y-50025D02*
X35200Y-50025D01*
X39075Y-49350D02*
X38400Y-50025D01*
X34900Y-49725D02*
X34900Y-47000D01*
X42050Y-49350D02*
X39075Y-49350D01*
X42250Y-49550D02*
X42050Y-49350D01*
X42250Y-51175D02*
X42250Y-49550D01*
X24625Y-36600D02*
X24125Y-36600D01*
X35350Y-46550D02*
X34900Y-47000D01*
X35350Y-46550D02*
X35350Y-41575D01*
X17950Y-44750D02*
X16300Y-44750D01*
X18350Y-44350D02*
X18350Y-42325D01*
X34925Y-41150D02*
X34925Y-38500D01*
X16125Y-44925D02*
X16125Y-46294D01*
X17950Y-44750D02*
X18350Y-44350D01*
X25275Y-37250D02*
X24625Y-36600D01*
X25275Y-39300D02*
X25275Y-37250D01*
X16300Y-44750D02*
X16125Y-44925D01*
X41975Y-51450D02*
X42250Y-51175D01*
X41075Y-51450D02*
X41975Y-51450D01*
X18125Y-42525D02*
X18125Y-42250D01*
X18125Y-42250D02*
X20950Y-39425D01*
X20950Y-39425D02*
X20950Y-39325D01*
X37400Y-51525D02*
X37575Y-51700D01*
X39550Y-51450D02*
X39300Y-51700D01*
X17838Y-44512D02*
X16038Y-44512D01*
X24975Y-36575D02*
X24975Y-36125D01*
X37575Y-51700D02*
X39300Y-51700D01*
X13550Y-41925D02*
X13750Y-42125D01*
X27900Y-48950D02*
X27650Y-48700D01*
X26275Y-37450D02*
X26050Y-37225D01*
X27650Y-48700D02*
X26100Y-48700D01*
X30450Y-53150D02*
X28050Y-53150D01*
X40075Y-51450D02*
X39550Y-51450D01*
X25900Y-48500D02*
X25900Y-47475D01*
X27900Y-53000D02*
X28050Y-53150D01*
X25900Y-47475D02*
X25475Y-47050D01*
X26100Y-48700D02*
X25900Y-48500D01*
X12875Y-41925D02*
X13550Y-41925D01*
X25475Y-47050D02*
X25475Y-43879D01*
X26275Y-43079D02*
X26275Y-37450D01*
X26050Y-37225D02*
X25625Y-37225D01*
X27900Y-48950D02*
X27900Y-53000D01*
X40075Y-54625D02*
X40575Y-55125D01*
X37400Y-50975D02*
X37400Y-51525D01*
X25475Y-43879D02*
X26275Y-43079D01*
X13750Y-42650D02*
X14813Y-43713D01*
X25625Y-37225D02*
X24975Y-36575D01*
X40075Y-51450D02*
X40075Y-54625D01*
X24450Y-37075D02*
X24450Y-38325D01*
X18125Y-44225D02*
X18125Y-43950D01*
X15625Y-46294D02*
X15625Y-44925D01*
X15625Y-44925D02*
X16038Y-44512D01*
X18125Y-42525D02*
X18125Y-43950D01*
X13750Y-42125D02*
X13750Y-42650D01*
X20950Y-38325D02*
X20950Y-39325D01*
X17838Y-44512D02*
X18125Y-44225D01*
X17675Y-43950D02*
X18125Y-43950D01*
X14813Y-43713D02*
X17438Y-43713D01*
X12723Y-41302D02*
X12723Y-41773D01*
X17438Y-43713D02*
X17675Y-43950D01*
X12723Y-41773D02*
X12875Y-41925D01*
X37800Y-37900D02*
X39175Y-37900D01*
X41825Y-40875D02*
X38550Y-40875D01*
X37876Y-46425D02*
X38200Y-46101D01*
X40575Y-37750D02*
X40825Y-38000D01*
X40575Y-37100D02*
X39975Y-37100D01*
X23075Y-37900D02*
X23375Y-37600D01*
X40575Y-36125D02*
X40575Y-37100D01*
X39175Y-37900D02*
X39975Y-37100D01*
X36677Y-46425D02*
X37876Y-46425D01*
X38200Y-41225D02*
X38550Y-40875D01*
X42150Y-40550D02*
X41825Y-40875D01*
X37575Y-38800D02*
X37575Y-38125D01*
X42150Y-38275D02*
X42150Y-40550D01*
X38200Y-46101D02*
X38200Y-41225D01*
X37575Y-38125D02*
X37800Y-37900D01*
X40575Y-37100D02*
X40575Y-37750D01*
X41875Y-38000D02*
X42150Y-38275D01*
X15950Y-39650D02*
X15575Y-40025D01*
X36400Y-46702D02*
X36677Y-46425D01*
X23075Y-37900D02*
X20675Y-37900D01*
X23375Y-37600D02*
X23375Y-35375D01*
X40425Y-35200D02*
X40575Y-35350D01*
X14300Y-40025D02*
X13747Y-40578D01*
X20675Y-37900D02*
X20150Y-38425D01*
X20150Y-39375D02*
X19875Y-39650D01*
X15575Y-40025D02*
X14300Y-40025D01*
X40825Y-38000D02*
X41875Y-38000D01*
X40575Y-35350D02*
X40575Y-36125D01*
X23550Y-35200D02*
X40425Y-35200D01*
X19875Y-39650D02*
X15950Y-39650D01*
X20150Y-38425D02*
X20150Y-39375D01*
X13747Y-41302D02*
X13747Y-40578D01*
X23375Y-35375D02*
X23550Y-35200D01*
X36400Y-47975D02*
X36400Y-46702D01*
X17325Y-43025D02*
X15025Y-43025D01*
X17525Y-42675D02*
X17525Y-42825D01*
X17525Y-42825D02*
X17325Y-43025D01*
X24385Y-48560D02*
X24385Y-46765D01*
X26400Y-50975D02*
X26400Y-49525D01*
X27825Y-41275D02*
X27825Y-37800D01*
X27825Y-37800D02*
X28725Y-36900D01*
X28725Y-36900D02*
X30800Y-36900D01*
X24575Y-41800D02*
X25100Y-41275D01*
X24575Y-41800D02*
X21450Y-41800D01*
X24385Y-46765D02*
X24575Y-46575D01*
X30975Y-36725D02*
X30975Y-36125D01*
X21300Y-42525D02*
X21300Y-41950D01*
X30800Y-36900D02*
X30975Y-36725D01*
X24575Y-46575D02*
X24575Y-41800D01*
X21450Y-41800D02*
X21300Y-41950D01*
X26250Y-49375D02*
X25200Y-49375D01*
X24385Y-48560D02*
X25200Y-49375D01*
X26400Y-49525D02*
X26250Y-49375D01*
G54D43*
X15275Y-51225D02*
X15275Y-51025D01*
X15625Y-50675D02*
X15625Y-50700D01*
X23500Y-55500D02*
X24225Y-56225D01*
X11100Y-47475D02*
X10350Y-46725D01*
X30400Y-52400D02*
X31575Y-53575D01*
G54D45*
X12983Y-41300D02*
X12983Y-40808D01*
G54D43*
X30400Y-50100D02*
X30600Y-49900D01*
X32400Y-49300D02*
X32400Y-47975D01*
X20675Y-46975D02*
X18200Y-46975D01*
X17350Y-47825D02*
X18200Y-46975D01*
X17350Y-47825D02*
X17350Y-50125D01*
X23150Y-47475D02*
X23150Y-46850D01*
X14875Y-44125D02*
X14700Y-44300D01*
X28575Y-55125D02*
X28575Y-56225D01*
X30400Y-50975D02*
X30400Y-52400D01*
X31575Y-55125D02*
X31575Y-56225D01*
X11825Y-41300D02*
X12350Y-41300D01*
X17075Y-44125D02*
X14875Y-44125D01*
X31575Y-55125D02*
X31575Y-53575D01*
X41525Y-56225D02*
X42275Y-55475D01*
X12350Y-42850D02*
X12350Y-41300D01*
X20800Y-48700D02*
X20800Y-52475D01*
X21275Y-52950D02*
X23150Y-52950D01*
X41575Y-54125D02*
X42050Y-54125D01*
X23150Y-52950D02*
X23500Y-53300D01*
X12625Y-47475D02*
X11100Y-47475D01*
X12983Y-40808D02*
X12925Y-40750D01*
X10825Y-56075D02*
X10825Y-54225D01*
X30600Y-49900D02*
X32300Y-49900D01*
X32400Y-49300D02*
X32400Y-49800D01*
X10350Y-46725D02*
X10350Y-43700D01*
X20800Y-52475D02*
X21275Y-52950D01*
X23500Y-55500D02*
X23500Y-53300D01*
X22675Y-46375D02*
X21275Y-46375D01*
X41075Y-50700D02*
X40075Y-50700D01*
X12350Y-40925D02*
X12525Y-40750D01*
X23150Y-46850D02*
X22675Y-46375D01*
X32300Y-49900D02*
X32400Y-49800D01*
X30400Y-50975D02*
X30400Y-50100D01*
X28575Y-56225D02*
X31575Y-56225D01*
X15625Y-49200D02*
X15625Y-49956D01*
X21275Y-46375D02*
X20675Y-46975D01*
X15275Y-51025D02*
X15625Y-50675D01*
X41075Y-50175D02*
X41300Y-49950D01*
X41075Y-50700D02*
X41075Y-50175D01*
X41300Y-49950D02*
X41575Y-49950D01*
X12925Y-40750D02*
X12525Y-40750D01*
X31575Y-56225D02*
X41525Y-56225D01*
X16775Y-51700D02*
X16775Y-50700D01*
X42050Y-54125D02*
X42275Y-54350D01*
X42275Y-54350D02*
X42275Y-55475D01*
X15625Y-49956D02*
X15625Y-50675D01*
X12350Y-41300D02*
X12350Y-40925D01*
X15625Y-50700D02*
X16775Y-50700D01*
X24225Y-56225D02*
X28575Y-56225D01*
X17350Y-50125D02*
X16775Y-50700D01*
G54D45*
X28200Y-45350D02*
X28200Y-47000D01*
X28900Y-48475D02*
X28900Y-47375D01*
X28900Y-47375D02*
X28725Y-47200D01*
X20000Y-44575D02*
X23175Y-44575D01*
X32875Y-43675D02*
X32700Y-43500D01*
X30075Y-43300D02*
X30275Y-43500D01*
X29400Y-48975D02*
X28900Y-48475D01*
X30275Y-43500D02*
X32700Y-43500D01*
X15075Y-40250D02*
X18000Y-40250D01*
X28725Y-47200D02*
X28400Y-47200D01*
X28200Y-43949D02*
X28200Y-45350D01*
X29400Y-50975D02*
X29400Y-48975D01*
X29700Y-43300D02*
X30075Y-43300D01*
X27975Y-36125D02*
X27975Y-37350D01*
X14771Y-40554D02*
X15075Y-40250D01*
X27275Y-42925D02*
X27275Y-38050D01*
X28200Y-43949D02*
X28849Y-43300D01*
X32875Y-45325D02*
X32875Y-43675D01*
X28200Y-47000D02*
X28400Y-47200D01*
X14771Y-41302D02*
X14771Y-40554D01*
X27925Y-45350D02*
X28200Y-45350D01*
X23375Y-44775D02*
X23175Y-44575D01*
X27275Y-38050D02*
X27975Y-37350D01*
X29700Y-43300D02*
X28849Y-43300D01*
X23375Y-45950D02*
X23375Y-44775D01*
G54D43*
X16975Y-45525D02*
X18125Y-45525D01*
X20175Y-41475D02*
X18929Y-42721D01*
X24225Y-41198D02*
X23948Y-41475D01*
X23948Y-41475D02*
X20175Y-41475D01*
X18929Y-42721D02*
X18929Y-44721D01*
X24600Y-40300D02*
X24225Y-40675D01*
X25275Y-40300D02*
X24600Y-40300D01*
X24225Y-40675D02*
X24225Y-41198D01*
X18125Y-45525D02*
X18929Y-44721D01*
X12013Y-52512D02*
X12300Y-52225D01*
G54D45*
X12013Y-52512D02*
X11625Y-52512D01*
G54D43*
X12300Y-52225D02*
X13800Y-52225D01*
X18075Y-46550D02*
X17000Y-47625D01*
X20400Y-46000D02*
X20575Y-45825D01*
X17000Y-47625D02*
X17000Y-48900D01*
X24625Y-51850D02*
X26250Y-53475D01*
X20400Y-46550D02*
X20400Y-46000D01*
X24625Y-49500D02*
X24625Y-51850D01*
X26250Y-53475D02*
X26850Y-53475D01*
X20575Y-45825D02*
X22600Y-45825D01*
X23725Y-47475D02*
X23725Y-46950D01*
X22600Y-45825D02*
X23725Y-46950D01*
X18075Y-46550D02*
X20400Y-46550D01*
X17000Y-48900D02*
X16650Y-49250D01*
G54D45*
X10375Y-48825D02*
X10675Y-48525D01*
X15900Y-48525D02*
X10675Y-48525D01*
X16125Y-48750D02*
X15900Y-48525D01*
X10375Y-49500D02*
X10375Y-48825D01*
X16125Y-49956D02*
X16125Y-48750D01*
G54D43*
X18614Y-44564D02*
X18614Y-42486D01*
X15445Y-47220D02*
X16230Y-47220D01*
X15125Y-46294D02*
X15125Y-44950D01*
X15125Y-46294D02*
X15125Y-46900D01*
X23350Y-40875D02*
X22600Y-40875D01*
X22600Y-38850D02*
X22600Y-40875D01*
X15125Y-46900D02*
X15445Y-47220D01*
X16686Y-45014D02*
X16575Y-45125D01*
X20225Y-40875D02*
X22600Y-40875D01*
X15125Y-44950D02*
X15100Y-44925D01*
X18164Y-45014D02*
X16686Y-45014D01*
X16575Y-45125D02*
X16575Y-46875D01*
X16230Y-47220D02*
X16575Y-46875D01*
X18614Y-44564D02*
X18164Y-45014D01*
X18614Y-42486D02*
X20225Y-40875D01*
G54D45*
X15125Y-49956D02*
X15125Y-48975D01*
X14900Y-48750D02*
X11200Y-48750D01*
X34975Y-37425D02*
X34550Y-37850D01*
X35100Y-41675D02*
X34550Y-41125D01*
X34975Y-37425D02*
X37672Y-37425D01*
X35100Y-46375D02*
X34400Y-47075D01*
X37672Y-37425D02*
X38575Y-36522D01*
X15125Y-48975D02*
X14900Y-48750D01*
X14900Y-50850D02*
X14900Y-51400D01*
X16025Y-51700D02*
X15200Y-51700D01*
X38575Y-36522D02*
X38575Y-36125D01*
X15125Y-50625D02*
X14900Y-50850D01*
X34550Y-41125D02*
X34550Y-37850D01*
X11200Y-48750D02*
X11025Y-48925D01*
X15200Y-51700D02*
X14900Y-51400D01*
X35100Y-41675D02*
X35100Y-46375D01*
X34400Y-47975D02*
X34400Y-47075D01*
X16725Y-52625D02*
X16725Y-55400D01*
X19500Y-55750D02*
X20000Y-56250D01*
X16725Y-52625D02*
X16025Y-51925D01*
X16725Y-55400D02*
X17075Y-55750D01*
X17075Y-55750D02*
X19500Y-55750D01*
X16025Y-51700D02*
X16025Y-51925D01*
X11025Y-49500D02*
X11025Y-48925D01*
X15125Y-49956D02*
X15125Y-50625D01*
X11675Y-49500D02*
X11675Y-49075D01*
X14625Y-49956D02*
X14625Y-49100D01*
X11775Y-48975D02*
X11675Y-49075D01*
X14500Y-48975D02*
X11775Y-48975D01*
X14625Y-49100D02*
X14500Y-48975D01*
G54D43*
X12825Y-44025D02*
X12825Y-44500D01*
X33575Y-55125D02*
X33075Y-55125D01*
X13125Y-46294D02*
X12625Y-46294D01*
X12300Y-46750D02*
X12575Y-47025D01*
X13700Y-45075D02*
X13850Y-44925D01*
X36575Y-39925D02*
X36575Y-43800D01*
X37025Y-39475D02*
X36575Y-39925D01*
X13125Y-45075D02*
X13700Y-45075D01*
X13125Y-44800D02*
X13125Y-45075D01*
X14625Y-46294D02*
X14125Y-46294D01*
X11025Y-37600D02*
X11200Y-37425D01*
X11950Y-45075D02*
X11950Y-45675D01*
X18000Y-56250D02*
X16875Y-56250D01*
X12950Y-55025D02*
X12325Y-55025D01*
X30075Y-54300D02*
X26850Y-54300D01*
X32400Y-50975D02*
X32400Y-53125D01*
X12200Y-50625D02*
X12475Y-50900D01*
X12300Y-46300D02*
X12300Y-46750D01*
X14125Y-46294D02*
X13625Y-46294D01*
X11950Y-45075D02*
X13125Y-45075D01*
X25950Y-54500D02*
X26650Y-54500D01*
X31400Y-47975D02*
X31400Y-47375D01*
X14300Y-44925D02*
X13850Y-44925D01*
X11025Y-38250D02*
X11025Y-39100D01*
X18000Y-53250D02*
X18000Y-54250D01*
X26850Y-54300D02*
X26650Y-54500D01*
G54D44*
X11325Y-36400D02*
X12200Y-36400D01*
G54D43*
X31600Y-49300D02*
X31600Y-48900D01*
X14350Y-51700D02*
X13550Y-50900D01*
X22600Y-49050D02*
X22600Y-47025D01*
X11200Y-36525D02*
X11325Y-36400D01*
X10575Y-53300D02*
X10575Y-52475D01*
X13625Y-46294D02*
X13125Y-46294D01*
X12575Y-47025D02*
X13700Y-47025D01*
X12475Y-50900D02*
X13550Y-50900D01*
X12200Y-50050D02*
X12200Y-50625D01*
X13125Y-46294D02*
X13125Y-45075D01*
X11025Y-41300D02*
X11025Y-42425D01*
X14350Y-53450D02*
X14350Y-51700D01*
X18000Y-54250D02*
X18000Y-55250D01*
X33075Y-55125D02*
X32575Y-55125D01*
X11025Y-38250D02*
X11025Y-37600D01*
X29325Y-43775D02*
X29325Y-44275D01*
G54D44*
X11625Y-51488D02*
X11625Y-51275D01*
G54D43*
X40300Y-39475D02*
X37025Y-39475D01*
X14125Y-49956D02*
X13625Y-49956D01*
X13700Y-47025D02*
X14700Y-48025D01*
X25950Y-54500D02*
X25950Y-55200D01*
X33075Y-53800D02*
X33075Y-55125D01*
X14350Y-55450D02*
X14350Y-53450D01*
X10625Y-53250D02*
X10575Y-53300D01*
X31400Y-47975D02*
X31400Y-48700D01*
X12625Y-49956D02*
X12294Y-49956D01*
X11025Y-39100D02*
X11050Y-39125D01*
X10575Y-51525D02*
X10575Y-50700D01*
X29325Y-44275D02*
X29300Y-44275D01*
X12294Y-49956D02*
X12200Y-50050D01*
X25575Y-54500D02*
X25950Y-54500D01*
X12325Y-56075D02*
X12325Y-55025D01*
X13125Y-49956D02*
X13625Y-49956D01*
X33075Y-53800D02*
X32400Y-53125D01*
X18000Y-50250D02*
X18000Y-51250D01*
X20900Y-47375D02*
X18275Y-47375D01*
X31600Y-48900D02*
X31400Y-48700D01*
X13375Y-55450D02*
X12950Y-55025D01*
X11525Y-53250D02*
X11525Y-54225D01*
X18000Y-52250D02*
X18000Y-53250D01*
G54D44*
X11200Y-37425D02*
X11200Y-36525D01*
G54D43*
X12325Y-55025D02*
X11525Y-54225D01*
X13100Y-53450D02*
X14350Y-53450D01*
X18275Y-47375D02*
X18000Y-47650D01*
X18000Y-47650D02*
X18000Y-49250D01*
X31400Y-47375D02*
X30550Y-46525D01*
X26025Y-44150D02*
X26025Y-46175D01*
X40575Y-38800D02*
X40575Y-39200D01*
X22600Y-47025D02*
X21250Y-47025D01*
X12825Y-43325D02*
X11925Y-43325D01*
X16600Y-48025D02*
X14700Y-48025D01*
X13350Y-43325D02*
X12825Y-43325D01*
G54D45*
X15027Y-41302D02*
X15548Y-41302D01*
G54D43*
X15700Y-40725D02*
X15575Y-40600D01*
X11525Y-51175D02*
X11525Y-50750D01*
X16075Y-55450D02*
X14350Y-55450D01*
X16875Y-56250D02*
X16075Y-55450D01*
X26975Y-37125D02*
X26875Y-37225D01*
X15548Y-41302D02*
X15700Y-41150D01*
X15700Y-41150D02*
X15700Y-40725D01*
X26975Y-36125D02*
X26975Y-37125D01*
X15575Y-40600D02*
X15200Y-40600D01*
X12625Y-49956D02*
X13125Y-49956D01*
X12825Y-44500D02*
X13125Y-44800D01*
X10625Y-50750D02*
X10575Y-50700D01*
X26875Y-37225D02*
X26875Y-43300D01*
X11625Y-51275D02*
X11525Y-51175D01*
X26025Y-46175D02*
X26550Y-46700D01*
X10575Y-51525D02*
X10575Y-52475D01*
X11525Y-50750D02*
X10625Y-50750D01*
X40575Y-39200D02*
X40300Y-39475D01*
X12306Y-46294D02*
X12625Y-46294D01*
X11925Y-43325D02*
X11025Y-42425D01*
X28800Y-44275D02*
X29300Y-44275D01*
X18000Y-51250D02*
X18000Y-52250D01*
X18000Y-49250D02*
X18000Y-50250D01*
X12200Y-36400D02*
X12700Y-35900D01*
X29300Y-44275D02*
X29850Y-44275D01*
X26875Y-43300D02*
X26025Y-44150D01*
X41575Y-38800D02*
X40575Y-38800D01*
X12825Y-44025D02*
X12825Y-43325D01*
X21250Y-47025D02*
X20900Y-47375D01*
X11525Y-53250D02*
X10625Y-53250D01*
X12300Y-46300D02*
X12306Y-46294D01*
X14350Y-55450D02*
X13375Y-55450D01*
G54D45*
X22200Y-43725D02*
X20350Y-43725D01*
X20350Y-43725D02*
X19500Y-44575D01*
G54D10*
G36*
X10630Y-52530D02*
X10520Y-52530D01*
X10520Y-52420D01*
X10520Y-52370D01*
X10520Y-52125D01*
X10520Y-51875D01*
X10520Y-51630D01*
X10520Y-51580D01*
X10520Y-51470D01*
X10630Y-51470D01*
X10630Y-51580D01*
X10630Y-51630D01*
X10630Y-51875D01*
X10630Y-52125D01*
X10630Y-52370D01*
X10630Y-52420D01*
X10630Y-52530D01*
X10630Y-52530D01*
G37*
G54D45*
X10630Y-52530D02*
X10520Y-52530D01*
X10520Y-52420D01*
X10520Y-52370D01*
X10520Y-52125D01*
X10520Y-51875D01*
X10520Y-51630D01*
X10520Y-51580D01*
X10520Y-51470D01*
X10630Y-51470D01*
X10630Y-51580D01*
X10630Y-51630D01*
X10630Y-51875D01*
X10630Y-52125D01*
X10630Y-52370D01*
X10630Y-52420D01*
X10630Y-52530D01*
G54D10*
G36*
X10653Y-50700D02*
X10575Y-50778D01*
X10497Y-50700D01*
X10575Y-50622D01*
X10653Y-50700D01*
X10653Y-50700D01*
G37*
G54D45*
X10653Y-50700D02*
X10575Y-50778D01*
X10497Y-50700D01*
X10575Y-50622D01*
X10653Y-50700D01*
G54D10*
G36*
X10653Y-53300D02*
X10575Y-53378D01*
X10497Y-53300D01*
X10575Y-53222D01*
X10653Y-53300D01*
X10653Y-53300D01*
G37*
G54D45*
X10653Y-53300D02*
X10575Y-53378D01*
X10497Y-53300D01*
X10575Y-53222D01*
X10653Y-53300D01*
G54D10*
G36*
X11473Y-36400D02*
X11389Y-36435D01*
X11235Y-36589D01*
X11200Y-36673D01*
X11165Y-36589D01*
X11011Y-36435D01*
X10926Y-36400D01*
X11011Y-36365D01*
X11165Y-36211D01*
X11200Y-36126D01*
X11235Y-36211D01*
X11389Y-36365D01*
X11473Y-36400D01*
X11473Y-36400D01*
G37*
G54D45*
X11473Y-36400D02*
X11389Y-36435D01*
X11235Y-36589D01*
X11200Y-36673D01*
X11165Y-36589D01*
X11011Y-36435D01*
X10926Y-36400D01*
X11011Y-36365D01*
X11165Y-36211D01*
X11200Y-36126D01*
X11235Y-36211D01*
X11389Y-36365D01*
X11473Y-36400D01*
G54D10*
G36*
X12104Y-37729D02*
X12085Y-37721D01*
X11986Y-37721D01*
X11566Y-37721D01*
X11474Y-37759D01*
X11460Y-37772D01*
X11404Y-37716D01*
X11294Y-37671D01*
X11155Y-37670D01*
X11080Y-37745D01*
X11080Y-38145D01*
X11080Y-38195D01*
X11080Y-38305D01*
X11080Y-38355D01*
X11080Y-38755D01*
X11155Y-38830D01*
X11294Y-38829D01*
X11404Y-38784D01*
X11460Y-38727D01*
X11474Y-38741D01*
X11565Y-38779D01*
X11574Y-38779D01*
X11531Y-38797D01*
X11398Y-38931D01*
X11325Y-39105D01*
X11325Y-39294D01*
X11397Y-39469D01*
X11531Y-39602D01*
X11645Y-39650D01*
X10650Y-39650D01*
X10650Y-38785D01*
X10756Y-38829D01*
X10895Y-38830D01*
X10970Y-38755D01*
X10970Y-38355D01*
X10970Y-38305D01*
X10970Y-38195D01*
X10970Y-38145D01*
X10970Y-37745D01*
X10895Y-37670D01*
X10756Y-37671D01*
X10650Y-37714D01*
X10650Y-37449D01*
X10809Y-37449D01*
X11011Y-37365D01*
X11165Y-37211D01*
X11200Y-37126D01*
X11235Y-37211D01*
X11389Y-37365D01*
X11591Y-37449D01*
X11809Y-37449D01*
X11820Y-37444D01*
X12104Y-37729D01*
X12104Y-37729D01*
G37*
G54D45*
X12104Y-37729D02*
X12085Y-37721D01*
X11986Y-37721D01*
X11566Y-37721D01*
X11474Y-37759D01*
X11460Y-37772D01*
X11404Y-37716D01*
X11294Y-37671D01*
X11155Y-37670D01*
X11080Y-37745D01*
X11080Y-38145D01*
X11080Y-38195D01*
X11080Y-38305D01*
X11080Y-38355D01*
X11080Y-38755D01*
X11155Y-38830D01*
X11294Y-38829D01*
X11404Y-38784D01*
X11460Y-38727D01*
X11474Y-38741D01*
X11565Y-38779D01*
X11574Y-38779D01*
X11531Y-38797D01*
X11398Y-38931D01*
X11325Y-39105D01*
X11325Y-39294D01*
X11397Y-39469D01*
X11531Y-39602D01*
X11645Y-39650D01*
X10650Y-39650D01*
X10650Y-38785D01*
X10756Y-38829D01*
X10895Y-38830D01*
X10970Y-38755D01*
X10970Y-38355D01*
X10970Y-38305D01*
X10970Y-38195D01*
X10970Y-38145D01*
X10970Y-37745D01*
X10895Y-37670D01*
X10756Y-37671D01*
X10650Y-37714D01*
X10650Y-37449D01*
X10809Y-37449D01*
X11011Y-37365D01*
X11165Y-37211D01*
X11200Y-37126D01*
X11235Y-37211D01*
X11389Y-37365D01*
X11591Y-37449D01*
X11809Y-37449D01*
X11820Y-37444D01*
X12104Y-37729D01*
G54D10*
G36*
X18050Y-40806D02*
X17910Y-40864D01*
X17790Y-40984D01*
X17725Y-41140D01*
X17725Y-41226D01*
X17451Y-41500D01*
X15408Y-41500D01*
X15409Y-41432D01*
X15334Y-41357D01*
X15132Y-41357D01*
X15102Y-41357D01*
X15102Y-41247D01*
X15132Y-41247D01*
X15334Y-41247D01*
X15409Y-41172D01*
X15408Y-41072D01*
X15408Y-40953D01*
X15362Y-40843D01*
X15278Y-40759D01*
X15168Y-40714D01*
X15143Y-40713D01*
X15132Y-40724D01*
X15132Y-40713D01*
X15071Y-40713D01*
X15071Y-40678D01*
X15199Y-40550D01*
X17699Y-40550D01*
X17759Y-40610D01*
X17915Y-40675D01*
X18050Y-40675D01*
X18050Y-40806D01*
X18050Y-40806D01*
G37*
G54D45*
X18050Y-40806D02*
X17910Y-40864D01*
X17790Y-40984D01*
X17725Y-41140D01*
X17725Y-41226D01*
X17451Y-41500D01*
X15408Y-41500D01*
X15409Y-41432D01*
X15334Y-41357D01*
X15132Y-41357D01*
X15102Y-41357D01*
X15102Y-41247D01*
X15132Y-41247D01*
X15334Y-41247D01*
X15409Y-41172D01*
X15408Y-41072D01*
X15408Y-40953D01*
X15362Y-40843D01*
X15278Y-40759D01*
X15168Y-40714D01*
X15143Y-40713D01*
X15132Y-40724D01*
X15132Y-40713D01*
X15071Y-40713D01*
X15071Y-40678D01*
X15199Y-40550D01*
X17699Y-40550D01*
X17759Y-40610D01*
X17915Y-40675D01*
X18050Y-40675D01*
X18050Y-40806D01*
G54D10*
G36*
X18055Y-56305D02*
X17945Y-56305D01*
X17895Y-56305D01*
X17475Y-56305D01*
X17400Y-56380D01*
X17401Y-56609D01*
X17446Y-56719D01*
X17452Y-56725D01*
X15528Y-56725D01*
X15528Y-55645D01*
X15473Y-55505D01*
X14405Y-55505D01*
X14405Y-56350D01*
X14745Y-56350D01*
X15082Y-56245D01*
X15353Y-56019D01*
X15517Y-55707D01*
X15528Y-55645D01*
X15528Y-56725D01*
X14295Y-56725D01*
X14295Y-56350D01*
X14295Y-55505D01*
X14295Y-55395D01*
X14295Y-54550D01*
X14000Y-54550D01*
X14000Y-53845D01*
X14000Y-53505D01*
X13155Y-53505D01*
X13155Y-54573D01*
X13295Y-54628D01*
X13357Y-54617D01*
X13669Y-54453D01*
X13895Y-54182D01*
X14000Y-53845D01*
X14000Y-54550D01*
X13955Y-54550D01*
X13618Y-54655D01*
X13347Y-54881D01*
X13183Y-55193D01*
X13172Y-55255D01*
X13227Y-55395D01*
X14295Y-55395D01*
X14295Y-55505D01*
X13227Y-55505D01*
X13172Y-55645D01*
X13183Y-55707D01*
X13347Y-56019D01*
X13618Y-56245D01*
X13955Y-56350D01*
X14295Y-56350D01*
X14295Y-56725D01*
X13045Y-56725D01*
X13045Y-54573D01*
X13045Y-53505D01*
X12200Y-53505D01*
X12200Y-53845D01*
X12305Y-54182D01*
X12531Y-54453D01*
X12843Y-54617D01*
X12905Y-54628D01*
X13045Y-54573D01*
X13045Y-56725D01*
X12885Y-56725D01*
X12928Y-56682D01*
X12974Y-56572D01*
X12974Y-56453D01*
X12975Y-56205D01*
X12975Y-55945D01*
X12974Y-55697D01*
X12974Y-55578D01*
X12928Y-55468D01*
X12844Y-55384D01*
X12734Y-55339D01*
X12455Y-55338D01*
X12380Y-55413D01*
X12380Y-56020D01*
X12900Y-56020D01*
X12975Y-55945D01*
X12975Y-56205D01*
X12900Y-56130D01*
X12430Y-56130D01*
X12380Y-56130D01*
X12270Y-56130D01*
X12270Y-56020D01*
X12270Y-55413D01*
X12195Y-55338D01*
X12105Y-55338D01*
X12105Y-53380D01*
X12030Y-53305D01*
X11580Y-53305D01*
X11580Y-53790D01*
X11655Y-53865D01*
X11864Y-53864D01*
X11974Y-53819D01*
X12058Y-53735D01*
X12104Y-53625D01*
X12104Y-53506D01*
X12105Y-53380D01*
X12105Y-55338D01*
X11916Y-55339D01*
X11806Y-55384D01*
X11722Y-55468D01*
X11676Y-55578D01*
X11676Y-55697D01*
X11675Y-55945D01*
X11750Y-56020D01*
X12270Y-56020D01*
X12270Y-56130D01*
X12220Y-56130D01*
X11750Y-56130D01*
X11675Y-56205D01*
X11676Y-56453D01*
X11676Y-56572D01*
X11722Y-56682D01*
X11765Y-56725D01*
X11311Y-56725D01*
X11316Y-56723D01*
X11386Y-56653D01*
X11424Y-56562D01*
X11424Y-56463D01*
X11424Y-55589D01*
X11386Y-55497D01*
X11316Y-55427D01*
X11225Y-55389D01*
X11175Y-55389D01*
X11175Y-54476D01*
X11185Y-54466D01*
X11250Y-54310D01*
X11250Y-54141D01*
X11186Y-53985D01*
X11066Y-53865D01*
X11006Y-53840D01*
X11052Y-53795D01*
X11076Y-53819D01*
X11186Y-53864D01*
X11395Y-53865D01*
X11470Y-53790D01*
X11470Y-53355D01*
X11470Y-53305D01*
X11470Y-53195D01*
X11580Y-53195D01*
X11630Y-53195D01*
X12030Y-53195D01*
X12105Y-53120D01*
X12104Y-52994D01*
X12104Y-52875D01*
X12091Y-52845D01*
X12147Y-52835D01*
X12260Y-52759D01*
X12323Y-52695D01*
X12305Y-52718D01*
X12200Y-53055D01*
X12200Y-53395D01*
X12995Y-53395D01*
X13045Y-53395D01*
X13155Y-53395D01*
X13205Y-53395D01*
X14000Y-53395D01*
X14000Y-53055D01*
X13895Y-52718D01*
X13838Y-52650D01*
X13884Y-52650D01*
X14040Y-52586D01*
X14160Y-52466D01*
X14225Y-52310D01*
X14225Y-52141D01*
X14161Y-51985D01*
X14070Y-51894D01*
X14070Y-50574D01*
X14070Y-50011D01*
X13968Y-50011D01*
X13782Y-50011D01*
X13680Y-50011D01*
X13680Y-50574D01*
X13755Y-50649D01*
X13802Y-50648D01*
X13875Y-50618D01*
X13948Y-50648D01*
X13995Y-50649D01*
X14070Y-50574D01*
X14070Y-51894D01*
X14041Y-51865D01*
X13885Y-51800D01*
X13716Y-51800D01*
X13570Y-51859D01*
X13570Y-50574D01*
X13570Y-50011D01*
X13468Y-50011D01*
X13282Y-50011D01*
X13180Y-50011D01*
X13180Y-50574D01*
X13255Y-50649D01*
X13302Y-50648D01*
X13375Y-50618D01*
X13448Y-50648D01*
X13495Y-50649D01*
X13570Y-50574D01*
X13570Y-51859D01*
X13560Y-51864D01*
X13549Y-51875D01*
X13070Y-51875D01*
X13070Y-50574D01*
X13070Y-50011D01*
X12968Y-50011D01*
X12782Y-50011D01*
X12680Y-50011D01*
X12680Y-50574D01*
X12755Y-50649D01*
X12802Y-50648D01*
X12875Y-50618D01*
X12948Y-50648D01*
X12995Y-50649D01*
X13070Y-50574D01*
X13070Y-51875D01*
X12570Y-51875D01*
X12570Y-50574D01*
X12570Y-50011D01*
X12282Y-50011D01*
X12207Y-50086D01*
X12208Y-50290D01*
X12208Y-50409D01*
X12254Y-50519D01*
X12338Y-50603D01*
X12448Y-50648D01*
X12495Y-50649D01*
X12570Y-50574D01*
X12570Y-51875D01*
X12300Y-51875D01*
X12166Y-51902D01*
X12144Y-51916D01*
X12144Y-51874D01*
X12144Y-51871D01*
X12144Y-51775D01*
X12144Y-51742D01*
X12148Y-51738D01*
X12194Y-51628D01*
X12194Y-51602D01*
X12120Y-51528D01*
X12108Y-51528D01*
X12106Y-51523D01*
X12036Y-51453D01*
X12024Y-51448D01*
X12120Y-51448D01*
X12194Y-51374D01*
X12194Y-51348D01*
X12148Y-51238D01*
X12083Y-51173D01*
X12104Y-51125D01*
X12104Y-51006D01*
X12105Y-50880D01*
X12105Y-50620D01*
X12104Y-50494D01*
X12104Y-50375D01*
X12058Y-50265D01*
X11974Y-50181D01*
X11864Y-50136D01*
X11655Y-50135D01*
X11580Y-50210D01*
X11580Y-50695D01*
X12030Y-50695D01*
X12105Y-50620D01*
X12105Y-50880D01*
X12030Y-50805D01*
X11630Y-50805D01*
X11580Y-50805D01*
X11470Y-50805D01*
X11470Y-50695D01*
X11470Y-50645D01*
X11470Y-50210D01*
X11395Y-50135D01*
X11186Y-50136D01*
X11076Y-50181D01*
X11052Y-50205D01*
X10987Y-50140D01*
X10942Y-50184D01*
X10926Y-50124D01*
X10678Y-50034D01*
X10415Y-50045D01*
X10275Y-50102D01*
X10275Y-49944D01*
X10285Y-49949D01*
X10464Y-49949D01*
X10629Y-49881D01*
X10700Y-49810D01*
X10770Y-49880D01*
X10935Y-49949D01*
X11114Y-49949D01*
X11279Y-49881D01*
X11350Y-49810D01*
X11420Y-49880D01*
X11585Y-49949D01*
X11764Y-49949D01*
X11929Y-49881D01*
X12055Y-49755D01*
X12124Y-49590D01*
X12124Y-49411D01*
X12067Y-49275D01*
X12421Y-49275D01*
X12338Y-49309D01*
X12254Y-49393D01*
X12208Y-49503D01*
X12208Y-49622D01*
X12207Y-49826D01*
X12282Y-49901D01*
X12520Y-49901D01*
X12570Y-49901D01*
X12680Y-49901D01*
X12730Y-49901D01*
X12782Y-49901D01*
X12968Y-49901D01*
X13020Y-49901D01*
X13070Y-49901D01*
X13180Y-49901D01*
X13230Y-49901D01*
X13282Y-49901D01*
X13468Y-49901D01*
X13520Y-49901D01*
X13570Y-49901D01*
X13680Y-49901D01*
X13730Y-49901D01*
X13782Y-49901D01*
X13968Y-49901D01*
X14020Y-49901D01*
X14070Y-49901D01*
X14180Y-49901D01*
X14180Y-50011D01*
X14180Y-50061D01*
X14180Y-50574D01*
X14255Y-50649D01*
X14302Y-50648D01*
X14412Y-50603D01*
X14428Y-50586D01*
X14457Y-50598D01*
X14556Y-50598D01*
X14728Y-50598D01*
X14688Y-50638D01*
X14623Y-50735D01*
X14600Y-50850D01*
X14600Y-51400D01*
X14623Y-51515D01*
X14688Y-51612D01*
X14988Y-51912D01*
X15085Y-51977D01*
X15200Y-52000D01*
X15520Y-52000D01*
X15520Y-52044D01*
X15558Y-52136D01*
X15628Y-52206D01*
X15719Y-52244D01*
X15818Y-52244D01*
X15920Y-52244D01*
X15977Y-52301D01*
X14851Y-52301D01*
X14759Y-52339D01*
X14689Y-52409D01*
X14651Y-52500D01*
X14651Y-52599D01*
X14651Y-54399D01*
X14689Y-54491D01*
X14749Y-54551D01*
X14745Y-54550D01*
X14405Y-54550D01*
X14405Y-55395D01*
X15473Y-55395D01*
X15528Y-55255D01*
X15517Y-55193D01*
X15353Y-54881D01*
X15082Y-54655D01*
X14902Y-54599D01*
X14949Y-54599D01*
X16149Y-54599D01*
X16241Y-54561D01*
X16311Y-54491D01*
X16349Y-54400D01*
X16349Y-54301D01*
X16349Y-52673D01*
X16425Y-52749D01*
X16425Y-55400D01*
X16448Y-55515D01*
X16513Y-55612D01*
X16862Y-55961D01*
X16863Y-55962D01*
X16960Y-56027D01*
X17074Y-56049D01*
X17075Y-56050D01*
X17400Y-56050D01*
X17400Y-56120D01*
X17475Y-56195D01*
X17895Y-56195D01*
X17945Y-56195D01*
X18055Y-56195D01*
X18055Y-56305D01*
X18055Y-56305D01*
G37*
G54D45*
X18055Y-56305D02*
X17945Y-56305D01*
X17895Y-56305D01*
X17475Y-56305D01*
X17400Y-56380D01*
X17401Y-56609D01*
X17446Y-56719D01*
X17452Y-56725D01*
X15528Y-56725D01*
X15528Y-55645D01*
X15473Y-55505D01*
X14405Y-55505D01*
X14405Y-56350D01*
X14745Y-56350D01*
X15082Y-56245D01*
X15353Y-56019D01*
X15517Y-55707D01*
X15528Y-55645D01*
X15528Y-56725D01*
X14295Y-56725D01*
X14295Y-56350D01*
X14295Y-55505D01*
X14295Y-55395D01*
X14295Y-54550D01*
X14000Y-54550D01*
X14000Y-53845D01*
X14000Y-53505D01*
X13155Y-53505D01*
X13155Y-54573D01*
X13295Y-54628D01*
X13357Y-54617D01*
X13669Y-54453D01*
X13895Y-54182D01*
X14000Y-53845D01*
X14000Y-54550D01*
X13955Y-54550D01*
X13618Y-54655D01*
X13347Y-54881D01*
X13183Y-55193D01*
X13172Y-55255D01*
X13227Y-55395D01*
X14295Y-55395D01*
X14295Y-55505D01*
X13227Y-55505D01*
X13172Y-55645D01*
X13183Y-55707D01*
X13347Y-56019D01*
X13618Y-56245D01*
X13955Y-56350D01*
X14295Y-56350D01*
X14295Y-56725D01*
X13045Y-56725D01*
X13045Y-54573D01*
X13045Y-53505D01*
X12200Y-53505D01*
X12200Y-53845D01*
X12305Y-54182D01*
X12531Y-54453D01*
X12843Y-54617D01*
X12905Y-54628D01*
X13045Y-54573D01*
X13045Y-56725D01*
X12885Y-56725D01*
X12928Y-56682D01*
X12974Y-56572D01*
X12974Y-56453D01*
X12975Y-56205D01*
X12975Y-55945D01*
X12974Y-55697D01*
X12974Y-55578D01*
X12928Y-55468D01*
X12844Y-55384D01*
X12734Y-55339D01*
X12455Y-55338D01*
X12380Y-55413D01*
X12380Y-56020D01*
X12900Y-56020D01*
X12975Y-55945D01*
X12975Y-56205D01*
X12900Y-56130D01*
X12430Y-56130D01*
X12380Y-56130D01*
X12270Y-56130D01*
X12270Y-56020D01*
X12270Y-55413D01*
X12195Y-55338D01*
X12105Y-55338D01*
X12105Y-53380D01*
X12030Y-53305D01*
X11580Y-53305D01*
X11580Y-53790D01*
X11655Y-53865D01*
X11864Y-53864D01*
X11974Y-53819D01*
X12058Y-53735D01*
X12104Y-53625D01*
X12104Y-53506D01*
X12105Y-53380D01*
X12105Y-55338D01*
X11916Y-55339D01*
X11806Y-55384D01*
X11722Y-55468D01*
X11676Y-55578D01*
X11676Y-55697D01*
X11675Y-55945D01*
X11750Y-56020D01*
X12270Y-56020D01*
X12270Y-56130D01*
X12220Y-56130D01*
X11750Y-56130D01*
X11675Y-56205D01*
X11676Y-56453D01*
X11676Y-56572D01*
X11722Y-56682D01*
X11765Y-56725D01*
X11311Y-56725D01*
X11316Y-56723D01*
X11386Y-56653D01*
X11424Y-56562D01*
X11424Y-56463D01*
X11424Y-55589D01*
X11386Y-55497D01*
X11316Y-55427D01*
X11225Y-55389D01*
X11175Y-55389D01*
X11175Y-54476D01*
X11185Y-54466D01*
X11250Y-54310D01*
X11250Y-54141D01*
X11186Y-53985D01*
X11066Y-53865D01*
X11006Y-53840D01*
X11052Y-53795D01*
X11076Y-53819D01*
X11186Y-53864D01*
X11395Y-53865D01*
X11470Y-53790D01*
X11470Y-53355D01*
X11470Y-53305D01*
X11470Y-53195D01*
X11580Y-53195D01*
X11630Y-53195D01*
X12030Y-53195D01*
X12105Y-53120D01*
X12104Y-52994D01*
X12104Y-52875D01*
X12091Y-52845D01*
X12147Y-52835D01*
X12260Y-52759D01*
X12323Y-52695D01*
X12305Y-52718D01*
X12200Y-53055D01*
X12200Y-53395D01*
X12995Y-53395D01*
X13045Y-53395D01*
X13155Y-53395D01*
X13205Y-53395D01*
X14000Y-53395D01*
X14000Y-53055D01*
X13895Y-52718D01*
X13838Y-52650D01*
X13884Y-52650D01*
X14040Y-52586D01*
X14160Y-52466D01*
X14225Y-52310D01*
X14225Y-52141D01*
X14161Y-51985D01*
X14070Y-51894D01*
X14070Y-50574D01*
X14070Y-50011D01*
X13968Y-50011D01*
X13782Y-50011D01*
X13680Y-50011D01*
X13680Y-50574D01*
X13755Y-50649D01*
X13802Y-50648D01*
X13875Y-50618D01*
X13948Y-50648D01*
X13995Y-50649D01*
X14070Y-50574D01*
X14070Y-51894D01*
X14041Y-51865D01*
X13885Y-51800D01*
X13716Y-51800D01*
X13570Y-51859D01*
X13570Y-50574D01*
X13570Y-50011D01*
X13468Y-50011D01*
X13282Y-50011D01*
X13180Y-50011D01*
X13180Y-50574D01*
X13255Y-50649D01*
X13302Y-50648D01*
X13375Y-50618D01*
X13448Y-50648D01*
X13495Y-50649D01*
X13570Y-50574D01*
X13570Y-51859D01*
X13560Y-51864D01*
X13549Y-51875D01*
X13070Y-51875D01*
X13070Y-50574D01*
X13070Y-50011D01*
X12968Y-50011D01*
X12782Y-50011D01*
X12680Y-50011D01*
X12680Y-50574D01*
X12755Y-50649D01*
X12802Y-50648D01*
X12875Y-50618D01*
X12948Y-50648D01*
X12995Y-50649D01*
X13070Y-50574D01*
X13070Y-51875D01*
X12570Y-51875D01*
X12570Y-50574D01*
X12570Y-50011D01*
X12282Y-50011D01*
X12207Y-50086D01*
X12208Y-50290D01*
X12208Y-50409D01*
X12254Y-50519D01*
X12338Y-50603D01*
X12448Y-50648D01*
X12495Y-50649D01*
X12570Y-50574D01*
X12570Y-51875D01*
X12300Y-51875D01*
X12166Y-51902D01*
X12144Y-51916D01*
X12144Y-51874D01*
X12144Y-51871D01*
X12144Y-51775D01*
X12144Y-51742D01*
X12148Y-51738D01*
X12194Y-51628D01*
X12194Y-51602D01*
X12120Y-51528D01*
X12108Y-51528D01*
X12106Y-51523D01*
X12036Y-51453D01*
X12024Y-51448D01*
X12120Y-51448D01*
X12194Y-51374D01*
X12194Y-51348D01*
X12148Y-51238D01*
X12083Y-51173D01*
X12104Y-51125D01*
X12104Y-51006D01*
X12105Y-50880D01*
X12105Y-50620D01*
X12104Y-50494D01*
X12104Y-50375D01*
X12058Y-50265D01*
X11974Y-50181D01*
X11864Y-50136D01*
X11655Y-50135D01*
X11580Y-50210D01*
X11580Y-50695D01*
X12030Y-50695D01*
X12105Y-50620D01*
X12105Y-50880D01*
X12030Y-50805D01*
X11630Y-50805D01*
X11580Y-50805D01*
X11470Y-50805D01*
X11470Y-50695D01*
X11470Y-50645D01*
X11470Y-50210D01*
X11395Y-50135D01*
X11186Y-50136D01*
X11076Y-50181D01*
X11052Y-50205D01*
X10987Y-50140D01*
X10942Y-50184D01*
X10926Y-50124D01*
X10678Y-50034D01*
X10415Y-50045D01*
X10275Y-50102D01*
X10275Y-49944D01*
X10285Y-49949D01*
X10464Y-49949D01*
X10629Y-49881D01*
X10700Y-49810D01*
X10770Y-49880D01*
X10935Y-49949D01*
X11114Y-49949D01*
X11279Y-49881D01*
X11350Y-49810D01*
X11420Y-49880D01*
X11585Y-49949D01*
X11764Y-49949D01*
X11929Y-49881D01*
X12055Y-49755D01*
X12124Y-49590D01*
X12124Y-49411D01*
X12067Y-49275D01*
X12421Y-49275D01*
X12338Y-49309D01*
X12254Y-49393D01*
X12208Y-49503D01*
X12208Y-49622D01*
X12207Y-49826D01*
X12282Y-49901D01*
X12520Y-49901D01*
X12570Y-49901D01*
X12680Y-49901D01*
X12730Y-49901D01*
X12782Y-49901D01*
X12968Y-49901D01*
X13020Y-49901D01*
X13070Y-49901D01*
X13180Y-49901D01*
X13230Y-49901D01*
X13282Y-49901D01*
X13468Y-49901D01*
X13520Y-49901D01*
X13570Y-49901D01*
X13680Y-49901D01*
X13730Y-49901D01*
X13782Y-49901D01*
X13968Y-49901D01*
X14020Y-49901D01*
X14070Y-49901D01*
X14180Y-49901D01*
X14180Y-50011D01*
X14180Y-50061D01*
X14180Y-50574D01*
X14255Y-50649D01*
X14302Y-50648D01*
X14412Y-50603D01*
X14428Y-50586D01*
X14457Y-50598D01*
X14556Y-50598D01*
X14728Y-50598D01*
X14688Y-50638D01*
X14623Y-50735D01*
X14600Y-50850D01*
X14600Y-51400D01*
X14623Y-51515D01*
X14688Y-51612D01*
X14988Y-51912D01*
X15085Y-51977D01*
X15200Y-52000D01*
X15520Y-52000D01*
X15520Y-52044D01*
X15558Y-52136D01*
X15628Y-52206D01*
X15719Y-52244D01*
X15818Y-52244D01*
X15920Y-52244D01*
X15977Y-52301D01*
X14851Y-52301D01*
X14759Y-52339D01*
X14689Y-52409D01*
X14651Y-52500D01*
X14651Y-52599D01*
X14651Y-54399D01*
X14689Y-54491D01*
X14749Y-54551D01*
X14745Y-54550D01*
X14405Y-54550D01*
X14405Y-55395D01*
X15473Y-55395D01*
X15528Y-55255D01*
X15517Y-55193D01*
X15353Y-54881D01*
X15082Y-54655D01*
X14902Y-54599D01*
X14949Y-54599D01*
X16149Y-54599D01*
X16241Y-54561D01*
X16311Y-54491D01*
X16349Y-54400D01*
X16349Y-54301D01*
X16349Y-52673D01*
X16425Y-52749D01*
X16425Y-55400D01*
X16448Y-55515D01*
X16513Y-55612D01*
X16862Y-55961D01*
X16863Y-55962D01*
X16960Y-56027D01*
X17074Y-56049D01*
X17075Y-56050D01*
X17400Y-56050D01*
X17400Y-56120D01*
X17475Y-56195D01*
X17895Y-56195D01*
X17945Y-56195D01*
X18055Y-56195D01*
X18055Y-56305D01*
G54D10*
G36*
X21775Y-35351D02*
X21591Y-35351D01*
X21389Y-35435D01*
X21235Y-35589D01*
X21200Y-35673D01*
X21165Y-35589D01*
X21011Y-35435D01*
X20809Y-35351D01*
X20591Y-35351D01*
X20389Y-35435D01*
X20235Y-35589D01*
X20200Y-35673D01*
X20165Y-35589D01*
X20011Y-35435D01*
X19809Y-35351D01*
X19591Y-35351D01*
X19389Y-35435D01*
X19235Y-35589D01*
X19200Y-35673D01*
X19165Y-35589D01*
X19011Y-35435D01*
X18809Y-35351D01*
X18591Y-35351D01*
X18389Y-35435D01*
X18235Y-35589D01*
X18200Y-35673D01*
X18165Y-35589D01*
X18011Y-35435D01*
X17809Y-35351D01*
X17591Y-35351D01*
X17389Y-35435D01*
X17235Y-35589D01*
X17200Y-35673D01*
X17165Y-35589D01*
X17011Y-35435D01*
X16809Y-35351D01*
X16591Y-35351D01*
X16389Y-35435D01*
X16235Y-35589D01*
X16200Y-35673D01*
X16165Y-35589D01*
X16011Y-35435D01*
X15809Y-35351D01*
X15591Y-35351D01*
X15389Y-35435D01*
X15235Y-35589D01*
X15200Y-35673D01*
X15165Y-35589D01*
X15011Y-35435D01*
X14809Y-35351D01*
X14591Y-35351D01*
X14389Y-35435D01*
X14235Y-35589D01*
X14200Y-35673D01*
X14165Y-35589D01*
X14011Y-35435D01*
X13809Y-35351D01*
X13591Y-35351D01*
X13389Y-35435D01*
X13294Y-35529D01*
X13253Y-35430D01*
X13169Y-35346D01*
X13059Y-35301D01*
X12830Y-35300D01*
X12755Y-35375D01*
X12755Y-35795D01*
X12755Y-35845D01*
X12755Y-35955D01*
X12645Y-35955D01*
X12645Y-35845D01*
X12645Y-35795D01*
X12645Y-35375D01*
X12570Y-35300D01*
X12341Y-35301D01*
X12231Y-35346D01*
X12147Y-35430D01*
X12105Y-35529D01*
X12011Y-35435D01*
X11809Y-35351D01*
X11591Y-35351D01*
X11389Y-35435D01*
X11235Y-35589D01*
X11200Y-35673D01*
X11165Y-35589D01*
X11011Y-35435D01*
X10809Y-35351D01*
X10591Y-35351D01*
X10389Y-35435D01*
X10275Y-35549D01*
X10275Y-35275D01*
X21775Y-35275D01*
X21775Y-35351D01*
X21775Y-35351D01*
G37*
G54D45*
X21775Y-35351D02*
X21591Y-35351D01*
X21389Y-35435D01*
X21235Y-35589D01*
X21200Y-35673D01*
X21165Y-35589D01*
X21011Y-35435D01*
X20809Y-35351D01*
X20591Y-35351D01*
X20389Y-35435D01*
X20235Y-35589D01*
X20200Y-35673D01*
X20165Y-35589D01*
X20011Y-35435D01*
X19809Y-35351D01*
X19591Y-35351D01*
X19389Y-35435D01*
X19235Y-35589D01*
X19200Y-35673D01*
X19165Y-35589D01*
X19011Y-35435D01*
X18809Y-35351D01*
X18591Y-35351D01*
X18389Y-35435D01*
X18235Y-35589D01*
X18200Y-35673D01*
X18165Y-35589D01*
X18011Y-35435D01*
X17809Y-35351D01*
X17591Y-35351D01*
X17389Y-35435D01*
X17235Y-35589D01*
X17200Y-35673D01*
X17165Y-35589D01*
X17011Y-35435D01*
X16809Y-35351D01*
X16591Y-35351D01*
X16389Y-35435D01*
X16235Y-35589D01*
X16200Y-35673D01*
X16165Y-35589D01*
X16011Y-35435D01*
X15809Y-35351D01*
X15591Y-35351D01*
X15389Y-35435D01*
X15235Y-35589D01*
X15200Y-35673D01*
X15165Y-35589D01*
X15011Y-35435D01*
X14809Y-35351D01*
X14591Y-35351D01*
X14389Y-35435D01*
X14235Y-35589D01*
X14200Y-35673D01*
X14165Y-35589D01*
X14011Y-35435D01*
X13809Y-35351D01*
X13591Y-35351D01*
X13389Y-35435D01*
X13294Y-35529D01*
X13253Y-35430D01*
X13169Y-35346D01*
X13059Y-35301D01*
X12830Y-35300D01*
X12755Y-35375D01*
X12755Y-35795D01*
X12755Y-35845D01*
X12755Y-35955D01*
X12645Y-35955D01*
X12645Y-35845D01*
X12645Y-35795D01*
X12645Y-35375D01*
X12570Y-35300D01*
X12341Y-35301D01*
X12231Y-35346D01*
X12147Y-35430D01*
X12105Y-35529D01*
X12011Y-35435D01*
X11809Y-35351D01*
X11591Y-35351D01*
X11389Y-35435D01*
X11235Y-35589D01*
X11200Y-35673D01*
X11165Y-35589D01*
X11011Y-35435D01*
X10809Y-35351D01*
X10591Y-35351D01*
X10389Y-35435D01*
X10275Y-35549D01*
X10275Y-35275D01*
X21775Y-35275D01*
X21775Y-35351D01*
G54D10*
G36*
X23075Y-45649D02*
X23015Y-45709D01*
X23004Y-45735D01*
X22847Y-45578D01*
X22734Y-45502D01*
X22600Y-45475D01*
X20575Y-45475D01*
X20441Y-45502D01*
X20327Y-45578D01*
X20153Y-45753D01*
X20077Y-45866D01*
X20050Y-46000D01*
X20050Y-46200D01*
X18075Y-46200D01*
X17941Y-46227D01*
X17827Y-46303D01*
X16753Y-47378D01*
X16677Y-47491D01*
X16650Y-47625D01*
X16650Y-48755D01*
X16580Y-48825D01*
X16566Y-48825D01*
X16425Y-48882D01*
X16425Y-48750D01*
X16402Y-48635D01*
X16337Y-48538D01*
X16112Y-48313D01*
X16015Y-48248D01*
X15900Y-48225D01*
X14570Y-48225D01*
X14570Y-46912D01*
X14570Y-46349D01*
X14570Y-46239D01*
X14570Y-45676D01*
X14495Y-45601D01*
X14448Y-45602D01*
X14375Y-45631D01*
X14302Y-45602D01*
X14255Y-45601D01*
X14245Y-45611D01*
X14245Y-45430D01*
X14245Y-44980D01*
X13865Y-44980D01*
X13790Y-45055D01*
X13791Y-45146D01*
X13791Y-45265D01*
X13837Y-45375D01*
X13921Y-45459D01*
X14031Y-45504D01*
X14170Y-45505D01*
X14245Y-45430D01*
X14245Y-45611D01*
X14180Y-45676D01*
X14180Y-46239D01*
X14282Y-46239D01*
X14468Y-46239D01*
X14570Y-46239D01*
X14570Y-46349D01*
X14468Y-46349D01*
X14282Y-46349D01*
X14180Y-46349D01*
X14180Y-46912D01*
X14255Y-46987D01*
X14302Y-46986D01*
X14375Y-46956D01*
X14448Y-46986D01*
X14495Y-46987D01*
X14570Y-46912D01*
X14570Y-48225D01*
X14070Y-48225D01*
X14070Y-46912D01*
X14070Y-46349D01*
X14070Y-46239D01*
X14070Y-45676D01*
X13995Y-45601D01*
X13948Y-45602D01*
X13875Y-45631D01*
X13802Y-45602D01*
X13755Y-45601D01*
X13680Y-45676D01*
X13680Y-46239D01*
X13782Y-46239D01*
X13968Y-46239D01*
X14070Y-46239D01*
X14070Y-46349D01*
X13968Y-46349D01*
X13782Y-46349D01*
X13680Y-46349D01*
X13680Y-46912D01*
X13755Y-46987D01*
X13802Y-46986D01*
X13875Y-46956D01*
X13948Y-46986D01*
X13995Y-46987D01*
X14070Y-46912D01*
X14070Y-48225D01*
X13570Y-48225D01*
X13570Y-46912D01*
X13570Y-46349D01*
X13570Y-46239D01*
X13570Y-45676D01*
X13495Y-45601D01*
X13448Y-45602D01*
X13381Y-45628D01*
X13381Y-44155D01*
X13381Y-43895D01*
X13380Y-43789D01*
X13380Y-43670D01*
X13334Y-43560D01*
X13250Y-43476D01*
X13140Y-43431D01*
X12955Y-43430D01*
X12880Y-43505D01*
X12880Y-43970D01*
X13306Y-43970D01*
X13381Y-43895D01*
X13381Y-44155D01*
X13306Y-44080D01*
X12880Y-44080D01*
X12880Y-44545D01*
X12955Y-44620D01*
X13140Y-44619D01*
X13250Y-44574D01*
X13334Y-44490D01*
X13380Y-44380D01*
X13380Y-44261D01*
X13381Y-44155D01*
X13381Y-45628D01*
X13375Y-45631D01*
X13302Y-45602D01*
X13255Y-45601D01*
X13180Y-45676D01*
X13180Y-46239D01*
X13282Y-46239D01*
X13468Y-46239D01*
X13570Y-46239D01*
X13570Y-46349D01*
X13468Y-46349D01*
X13282Y-46349D01*
X13180Y-46349D01*
X13180Y-46912D01*
X13255Y-46987D01*
X13302Y-46986D01*
X13375Y-46956D01*
X13448Y-46986D01*
X13495Y-46987D01*
X13570Y-46912D01*
X13570Y-48225D01*
X13070Y-48225D01*
X13070Y-46912D01*
X13070Y-46349D01*
X13070Y-46239D01*
X13070Y-45676D01*
X12995Y-45601D01*
X12948Y-45602D01*
X12875Y-45631D01*
X12802Y-45602D01*
X12755Y-45601D01*
X12680Y-45676D01*
X12680Y-46239D01*
X12782Y-46239D01*
X12968Y-46239D01*
X13070Y-46239D01*
X13070Y-46349D01*
X12968Y-46349D01*
X12782Y-46349D01*
X12680Y-46349D01*
X12680Y-46912D01*
X12755Y-46987D01*
X12802Y-46986D01*
X12875Y-46956D01*
X12948Y-46986D01*
X12995Y-46987D01*
X13070Y-46912D01*
X13070Y-48225D01*
X10675Y-48225D01*
X10560Y-48248D01*
X10463Y-48313D01*
X10275Y-48501D01*
X10275Y-47144D01*
X10852Y-47722D01*
X10853Y-47722D01*
X10966Y-47798D01*
X11100Y-47825D01*
X12374Y-47825D01*
X12384Y-47835D01*
X12540Y-47900D01*
X12709Y-47900D01*
X12865Y-47836D01*
X12985Y-47716D01*
X13050Y-47560D01*
X13050Y-47391D01*
X12986Y-47235D01*
X12866Y-47115D01*
X12710Y-47050D01*
X12570Y-47050D01*
X12570Y-46912D01*
X12570Y-46349D01*
X12570Y-46239D01*
X12570Y-45676D01*
X12495Y-45601D01*
X12448Y-45602D01*
X12400Y-45621D01*
X12400Y-45570D01*
X12375Y-45570D01*
X12399Y-45546D01*
X12399Y-45465D01*
X12374Y-45405D01*
X12400Y-45320D01*
X12400Y-45130D01*
X12005Y-45130D01*
X12005Y-45300D01*
X12005Y-45570D01*
X12005Y-45620D01*
X12005Y-45645D01*
X12005Y-45730D01*
X12005Y-45780D01*
X12005Y-46050D01*
X12080Y-46125D01*
X12159Y-46124D01*
X12207Y-46104D01*
X12207Y-46164D01*
X12282Y-46239D01*
X12570Y-46239D01*
X12570Y-46349D01*
X12282Y-46349D01*
X12207Y-46424D01*
X12208Y-46628D01*
X12208Y-46747D01*
X12254Y-46857D01*
X12338Y-46941D01*
X12448Y-46986D01*
X12495Y-46987D01*
X12570Y-46912D01*
X12570Y-47050D01*
X12541Y-47050D01*
X12385Y-47114D01*
X12374Y-47125D01*
X11244Y-47125D01*
X10700Y-46580D01*
X10700Y-46053D01*
X10750Y-46074D01*
X10849Y-46074D01*
X11058Y-46074D01*
X11058Y-46142D01*
X11058Y-46564D01*
X11118Y-46708D01*
X11228Y-46818D01*
X11372Y-46878D01*
X11528Y-46878D01*
X11672Y-46818D01*
X11782Y-46708D01*
X11842Y-46564D01*
X11842Y-46408D01*
X11842Y-46103D01*
X11895Y-46050D01*
X11895Y-45780D01*
X11895Y-45730D01*
X11895Y-45645D01*
X11895Y-45620D01*
X11895Y-45570D01*
X11895Y-45300D01*
X11895Y-45180D01*
X11895Y-45130D01*
X11895Y-45020D01*
X12005Y-45020D01*
X12055Y-45020D01*
X12400Y-45020D01*
X12400Y-44830D01*
X12349Y-44661D01*
X12273Y-44569D01*
X12380Y-44569D01*
X12390Y-44564D01*
X12400Y-44574D01*
X12510Y-44619D01*
X12695Y-44620D01*
X12770Y-44545D01*
X12770Y-44130D01*
X12770Y-44080D01*
X12770Y-43970D01*
X12770Y-43920D01*
X12770Y-43505D01*
X12695Y-43430D01*
X12510Y-43431D01*
X12400Y-43476D01*
X12390Y-43485D01*
X12381Y-43481D01*
X12282Y-43481D01*
X11770Y-43481D01*
X11708Y-43506D01*
X11707Y-43506D01*
X11662Y-43438D01*
X11662Y-43437D01*
X10850Y-42625D01*
X10850Y-41879D01*
X10895Y-41880D01*
X10970Y-41805D01*
X10970Y-41405D01*
X10970Y-41355D01*
X10970Y-41245D01*
X10970Y-41195D01*
X10970Y-40795D01*
X10912Y-40737D01*
X10949Y-40700D01*
X12088Y-40700D01*
X12040Y-40771D01*
X11986Y-40771D01*
X11566Y-40771D01*
X11474Y-40809D01*
X11460Y-40822D01*
X11404Y-40766D01*
X11294Y-40721D01*
X11155Y-40720D01*
X11080Y-40795D01*
X11080Y-41195D01*
X11080Y-41245D01*
X11080Y-41355D01*
X11080Y-41405D01*
X11080Y-41805D01*
X11155Y-41880D01*
X11294Y-41879D01*
X11404Y-41834D01*
X11460Y-41777D01*
X11474Y-41791D01*
X11565Y-41829D01*
X11664Y-41829D01*
X12000Y-41829D01*
X12000Y-41919D01*
X11895Y-41875D01*
X11706Y-41875D01*
X11531Y-41947D01*
X11398Y-42081D01*
X11325Y-42255D01*
X11325Y-42444D01*
X11397Y-42619D01*
X11531Y-42752D01*
X11705Y-42825D01*
X11894Y-42825D01*
X11925Y-42812D01*
X11925Y-42934D01*
X11989Y-43090D01*
X12109Y-43210D01*
X12265Y-43275D01*
X12434Y-43275D01*
X12590Y-43211D01*
X12710Y-43091D01*
X12775Y-42935D01*
X12775Y-42766D01*
X12711Y-42610D01*
X12700Y-42599D01*
X12700Y-42161D01*
X12760Y-42202D01*
X12874Y-42224D01*
X12875Y-42225D01*
X13425Y-42225D01*
X13450Y-42249D01*
X13450Y-42650D01*
X13473Y-42765D01*
X13538Y-42862D01*
X14569Y-43893D01*
X14460Y-43939D01*
X14340Y-44059D01*
X14275Y-44215D01*
X14275Y-44345D01*
X14195Y-44345D01*
X14195Y-44370D01*
X14170Y-44345D01*
X14031Y-44346D01*
X13921Y-44391D01*
X13837Y-44475D01*
X13791Y-44585D01*
X13791Y-44704D01*
X13790Y-44795D01*
X13865Y-44870D01*
X14195Y-44870D01*
X14245Y-44870D01*
X14355Y-44870D01*
X14355Y-44980D01*
X14355Y-45030D01*
X14355Y-45430D01*
X14430Y-45505D01*
X14569Y-45504D01*
X14679Y-45459D01*
X14735Y-45402D01*
X14749Y-45416D01*
X14775Y-45426D01*
X14775Y-45601D01*
X14755Y-45601D01*
X14680Y-45676D01*
X14680Y-46189D01*
X14680Y-46239D01*
X14680Y-46349D01*
X14680Y-46399D01*
X14680Y-46912D01*
X14755Y-46987D01*
X14792Y-46986D01*
X14802Y-47034D01*
X14878Y-47147D01*
X15197Y-47467D01*
X15198Y-47467D01*
X15311Y-47543D01*
X15445Y-47570D01*
X16230Y-47570D01*
X16230Y-47569D01*
X16364Y-47543D01*
X16477Y-47467D01*
X16822Y-47123D01*
X16822Y-47122D01*
X16898Y-47009D01*
X16924Y-46876D01*
X16925Y-46875D01*
X16925Y-45950D01*
X17059Y-45950D01*
X17215Y-45886D01*
X17226Y-45875D01*
X18125Y-45875D01*
X18125Y-45874D01*
X18259Y-45848D01*
X18372Y-45772D01*
X19176Y-44969D01*
X19176Y-44968D01*
X19222Y-44898D01*
X19259Y-44935D01*
X19415Y-45000D01*
X19584Y-45000D01*
X19740Y-44936D01*
X19750Y-44926D01*
X19759Y-44935D01*
X19915Y-45000D01*
X20084Y-45000D01*
X20240Y-44936D01*
X20301Y-44875D01*
X23050Y-44875D01*
X23075Y-44899D01*
X23075Y-45649D01*
X23075Y-45649D01*
G37*
G54D45*
X23075Y-45649D02*
X23015Y-45709D01*
X23004Y-45735D01*
X22847Y-45578D01*
X22734Y-45502D01*
X22600Y-45475D01*
X20575Y-45475D01*
X20441Y-45502D01*
X20327Y-45578D01*
X20153Y-45753D01*
X20077Y-45866D01*
X20050Y-46000D01*
X20050Y-46200D01*
X18075Y-46200D01*
X17941Y-46227D01*
X17827Y-46303D01*
X16753Y-47378D01*
X16677Y-47491D01*
X16650Y-47625D01*
X16650Y-48755D01*
X16580Y-48825D01*
X16566Y-48825D01*
X16425Y-48882D01*
X16425Y-48750D01*
X16402Y-48635D01*
X16337Y-48538D01*
X16112Y-48313D01*
X16015Y-48248D01*
X15900Y-48225D01*
X14570Y-48225D01*
X14570Y-46912D01*
X14570Y-46349D01*
X14570Y-46239D01*
X14570Y-45676D01*
X14495Y-45601D01*
X14448Y-45602D01*
X14375Y-45631D01*
X14302Y-45602D01*
X14255Y-45601D01*
X14245Y-45611D01*
X14245Y-45430D01*
X14245Y-44980D01*
X13865Y-44980D01*
X13790Y-45055D01*
X13791Y-45146D01*
X13791Y-45265D01*
X13837Y-45375D01*
X13921Y-45459D01*
X14031Y-45504D01*
X14170Y-45505D01*
X14245Y-45430D01*
X14245Y-45611D01*
X14180Y-45676D01*
X14180Y-46239D01*
X14282Y-46239D01*
X14468Y-46239D01*
X14570Y-46239D01*
X14570Y-46349D01*
X14468Y-46349D01*
X14282Y-46349D01*
X14180Y-46349D01*
X14180Y-46912D01*
X14255Y-46987D01*
X14302Y-46986D01*
X14375Y-46956D01*
X14448Y-46986D01*
X14495Y-46987D01*
X14570Y-46912D01*
X14570Y-48225D01*
X14070Y-48225D01*
X14070Y-46912D01*
X14070Y-46349D01*
X14070Y-46239D01*
X14070Y-45676D01*
X13995Y-45601D01*
X13948Y-45602D01*
X13875Y-45631D01*
X13802Y-45602D01*
X13755Y-45601D01*
X13680Y-45676D01*
X13680Y-46239D01*
X13782Y-46239D01*
X13968Y-46239D01*
X14070Y-46239D01*
X14070Y-46349D01*
X13968Y-46349D01*
X13782Y-46349D01*
X13680Y-46349D01*
X13680Y-46912D01*
X13755Y-46987D01*
X13802Y-46986D01*
X13875Y-46956D01*
X13948Y-46986D01*
X13995Y-46987D01*
X14070Y-46912D01*
X14070Y-48225D01*
X13570Y-48225D01*
X13570Y-46912D01*
X13570Y-46349D01*
X13570Y-46239D01*
X13570Y-45676D01*
X13495Y-45601D01*
X13448Y-45602D01*
X13381Y-45628D01*
X13381Y-44155D01*
X13381Y-43895D01*
X13380Y-43789D01*
X13380Y-43670D01*
X13334Y-43560D01*
X13250Y-43476D01*
X13140Y-43431D01*
X12955Y-43430D01*
X12880Y-43505D01*
X12880Y-43970D01*
X13306Y-43970D01*
X13381Y-43895D01*
X13381Y-44155D01*
X13306Y-44080D01*
X12880Y-44080D01*
X12880Y-44545D01*
X12955Y-44620D01*
X13140Y-44619D01*
X13250Y-44574D01*
X13334Y-44490D01*
X13380Y-44380D01*
X13380Y-44261D01*
X13381Y-44155D01*
X13381Y-45628D01*
X13375Y-45631D01*
X13302Y-45602D01*
X13255Y-45601D01*
X13180Y-45676D01*
X13180Y-46239D01*
X13282Y-46239D01*
X13468Y-46239D01*
X13570Y-46239D01*
X13570Y-46349D01*
X13468Y-46349D01*
X13282Y-46349D01*
X13180Y-46349D01*
X13180Y-46912D01*
X13255Y-46987D01*
X13302Y-46986D01*
X13375Y-46956D01*
X13448Y-46986D01*
X13495Y-46987D01*
X13570Y-46912D01*
X13570Y-48225D01*
X13070Y-48225D01*
X13070Y-46912D01*
X13070Y-46349D01*
X13070Y-46239D01*
X13070Y-45676D01*
X12995Y-45601D01*
X12948Y-45602D01*
X12875Y-45631D01*
X12802Y-45602D01*
X12755Y-45601D01*
X12680Y-45676D01*
X12680Y-46239D01*
X12782Y-46239D01*
X12968Y-46239D01*
X13070Y-46239D01*
X13070Y-46349D01*
X12968Y-46349D01*
X12782Y-46349D01*
X12680Y-46349D01*
X12680Y-46912D01*
X12755Y-46987D01*
X12802Y-46986D01*
X12875Y-46956D01*
X12948Y-46986D01*
X12995Y-46987D01*
X13070Y-46912D01*
X13070Y-48225D01*
X10675Y-48225D01*
X10560Y-48248D01*
X10463Y-48313D01*
X10275Y-48501D01*
X10275Y-47144D01*
X10852Y-47722D01*
X10853Y-47722D01*
X10966Y-47798D01*
X11100Y-47825D01*
X12374Y-47825D01*
X12384Y-47835D01*
X12540Y-47900D01*
X12709Y-47900D01*
X12865Y-47836D01*
X12985Y-47716D01*
X13050Y-47560D01*
X13050Y-47391D01*
X12986Y-47235D01*
X12866Y-47115D01*
X12710Y-47050D01*
X12570Y-47050D01*
X12570Y-46912D01*
X12570Y-46349D01*
X12570Y-46239D01*
X12570Y-45676D01*
X12495Y-45601D01*
X12448Y-45602D01*
X12400Y-45621D01*
X12400Y-45570D01*
X12375Y-45570D01*
X12399Y-45546D01*
X12399Y-45465D01*
X12374Y-45405D01*
X12400Y-45320D01*
X12400Y-45130D01*
X12005Y-45130D01*
X12005Y-45300D01*
X12005Y-45570D01*
X12005Y-45620D01*
X12005Y-45645D01*
X12005Y-45730D01*
X12005Y-45780D01*
X12005Y-46050D01*
X12080Y-46125D01*
X12159Y-46124D01*
X12207Y-46104D01*
X12207Y-46164D01*
X12282Y-46239D01*
X12570Y-46239D01*
X12570Y-46349D01*
X12282Y-46349D01*
X12207Y-46424D01*
X12208Y-46628D01*
X12208Y-46747D01*
X12254Y-46857D01*
X12338Y-46941D01*
X12448Y-46986D01*
X12495Y-46987D01*
X12570Y-46912D01*
X12570Y-47050D01*
X12541Y-47050D01*
X12385Y-47114D01*
X12374Y-47125D01*
X11244Y-47125D01*
X10700Y-46580D01*
X10700Y-46053D01*
X10750Y-46074D01*
X10849Y-46074D01*
X11058Y-46074D01*
X11058Y-46142D01*
X11058Y-46564D01*
X11118Y-46708D01*
X11228Y-46818D01*
X11372Y-46878D01*
X11528Y-46878D01*
X11672Y-46818D01*
X11782Y-46708D01*
X11842Y-46564D01*
X11842Y-46408D01*
X11842Y-46103D01*
X11895Y-46050D01*
X11895Y-45780D01*
X11895Y-45730D01*
X11895Y-45645D01*
X11895Y-45620D01*
X11895Y-45570D01*
X11895Y-45300D01*
X11895Y-45180D01*
X11895Y-45130D01*
X11895Y-45020D01*
X12005Y-45020D01*
X12055Y-45020D01*
X12400Y-45020D01*
X12400Y-44830D01*
X12349Y-44661D01*
X12273Y-44569D01*
X12380Y-44569D01*
X12390Y-44564D01*
X12400Y-44574D01*
X12510Y-44619D01*
X12695Y-44620D01*
X12770Y-44545D01*
X12770Y-44130D01*
X12770Y-44080D01*
X12770Y-43970D01*
X12770Y-43920D01*
X12770Y-43505D01*
X12695Y-43430D01*
X12510Y-43431D01*
X12400Y-43476D01*
X12390Y-43485D01*
X12381Y-43481D01*
X12282Y-43481D01*
X11770Y-43481D01*
X11708Y-43506D01*
X11707Y-43506D01*
X11662Y-43438D01*
X11662Y-43437D01*
X10850Y-42625D01*
X10850Y-41879D01*
X10895Y-41880D01*
X10970Y-41805D01*
X10970Y-41405D01*
X10970Y-41355D01*
X10970Y-41245D01*
X10970Y-41195D01*
X10970Y-40795D01*
X10912Y-40737D01*
X10949Y-40700D01*
X12088Y-40700D01*
X12040Y-40771D01*
X11986Y-40771D01*
X11566Y-40771D01*
X11474Y-40809D01*
X11460Y-40822D01*
X11404Y-40766D01*
X11294Y-40721D01*
X11155Y-40720D01*
X11080Y-40795D01*
X11080Y-41195D01*
X11080Y-41245D01*
X11080Y-41355D01*
X11080Y-41405D01*
X11080Y-41805D01*
X11155Y-41880D01*
X11294Y-41879D01*
X11404Y-41834D01*
X11460Y-41777D01*
X11474Y-41791D01*
X11565Y-41829D01*
X11664Y-41829D01*
X12000Y-41829D01*
X12000Y-41919D01*
X11895Y-41875D01*
X11706Y-41875D01*
X11531Y-41947D01*
X11398Y-42081D01*
X11325Y-42255D01*
X11325Y-42444D01*
X11397Y-42619D01*
X11531Y-42752D01*
X11705Y-42825D01*
X11894Y-42825D01*
X11925Y-42812D01*
X11925Y-42934D01*
X11989Y-43090D01*
X12109Y-43210D01*
X12265Y-43275D01*
X12434Y-43275D01*
X12590Y-43211D01*
X12710Y-43091D01*
X12775Y-42935D01*
X12775Y-42766D01*
X12711Y-42610D01*
X12700Y-42599D01*
X12700Y-42161D01*
X12760Y-42202D01*
X12874Y-42224D01*
X12875Y-42225D01*
X13425Y-42225D01*
X13450Y-42249D01*
X13450Y-42650D01*
X13473Y-42765D01*
X13538Y-42862D01*
X14569Y-43893D01*
X14460Y-43939D01*
X14340Y-44059D01*
X14275Y-44215D01*
X14275Y-44345D01*
X14195Y-44345D01*
X14195Y-44370D01*
X14170Y-44345D01*
X14031Y-44346D01*
X13921Y-44391D01*
X13837Y-44475D01*
X13791Y-44585D01*
X13791Y-44704D01*
X13790Y-44795D01*
X13865Y-44870D01*
X14195Y-44870D01*
X14245Y-44870D01*
X14355Y-44870D01*
X14355Y-44980D01*
X14355Y-45030D01*
X14355Y-45430D01*
X14430Y-45505D01*
X14569Y-45504D01*
X14679Y-45459D01*
X14735Y-45402D01*
X14749Y-45416D01*
X14775Y-45426D01*
X14775Y-45601D01*
X14755Y-45601D01*
X14680Y-45676D01*
X14680Y-46189D01*
X14680Y-46239D01*
X14680Y-46349D01*
X14680Y-46399D01*
X14680Y-46912D01*
X14755Y-46987D01*
X14792Y-46986D01*
X14802Y-47034D01*
X14878Y-47147D01*
X15197Y-47467D01*
X15198Y-47467D01*
X15311Y-47543D01*
X15445Y-47570D01*
X16230Y-47570D01*
X16230Y-47569D01*
X16364Y-47543D01*
X16477Y-47467D01*
X16822Y-47123D01*
X16822Y-47122D01*
X16898Y-47009D01*
X16924Y-46876D01*
X16925Y-46875D01*
X16925Y-45950D01*
X17059Y-45950D01*
X17215Y-45886D01*
X17226Y-45875D01*
X18125Y-45875D01*
X18125Y-45874D01*
X18259Y-45848D01*
X18372Y-45772D01*
X19176Y-44969D01*
X19176Y-44968D01*
X19222Y-44898D01*
X19259Y-44935D01*
X19415Y-45000D01*
X19584Y-45000D01*
X19740Y-44936D01*
X19750Y-44926D01*
X19759Y-44935D01*
X19915Y-45000D01*
X20084Y-45000D01*
X20240Y-44936D01*
X20301Y-44875D01*
X23050Y-44875D01*
X23075Y-44899D01*
X23075Y-45649D01*
G54D10*
G36*
X23775Y-50725D02*
X21719Y-50725D01*
X21600Y-50605D01*
X21600Y-50032D01*
X21640Y-50049D01*
X21759Y-50049D01*
X22470Y-50050D01*
X22545Y-49975D01*
X22545Y-49155D01*
X22545Y-49105D01*
X22545Y-48995D01*
X22545Y-48945D01*
X22545Y-48125D01*
X22470Y-48050D01*
X21759Y-48051D01*
X21640Y-48051D01*
X21598Y-48068D01*
X21573Y-47941D01*
X21497Y-47828D01*
X21497Y-47827D01*
X21197Y-47528D01*
X21084Y-47452D01*
X20950Y-47425D01*
X19800Y-47425D01*
X19666Y-47452D01*
X19552Y-47528D01*
X19430Y-47650D01*
X19416Y-47650D01*
X19260Y-47714D01*
X19140Y-47834D01*
X19075Y-47990D01*
X19075Y-48159D01*
X19139Y-48315D01*
X19259Y-48435D01*
X19415Y-48500D01*
X19584Y-48500D01*
X19740Y-48436D01*
X19860Y-48316D01*
X19925Y-48160D01*
X19925Y-48144D01*
X19944Y-48125D01*
X20805Y-48125D01*
X20900Y-48219D01*
X20900Y-48281D01*
X20885Y-48275D01*
X20716Y-48275D01*
X20560Y-48339D01*
X20440Y-48459D01*
X20375Y-48615D01*
X20375Y-48784D01*
X20420Y-48894D01*
X20311Y-48785D01*
X20109Y-48701D01*
X19891Y-48701D01*
X19689Y-48785D01*
X19535Y-48939D01*
X19500Y-49023D01*
X19465Y-48939D01*
X19311Y-48785D01*
X19109Y-48701D01*
X18891Y-48701D01*
X18689Y-48785D01*
X18594Y-48879D01*
X18554Y-48781D01*
X18470Y-48697D01*
X18360Y-48651D01*
X18241Y-48651D01*
X18130Y-48650D01*
X18055Y-48725D01*
X18055Y-49145D01*
X18055Y-49195D01*
X18055Y-49305D01*
X18055Y-49355D01*
X18055Y-49725D01*
X18055Y-49775D01*
X18055Y-50145D01*
X18055Y-50195D01*
X18055Y-50305D01*
X18055Y-50355D01*
X18055Y-50725D01*
X18055Y-50775D01*
X18055Y-51145D01*
X18055Y-51195D01*
X18055Y-51305D01*
X18055Y-51355D01*
X18055Y-51725D01*
X18055Y-51775D01*
X18055Y-52145D01*
X18055Y-52195D01*
X18055Y-52305D01*
X18055Y-52355D01*
X18055Y-52725D01*
X18055Y-52775D01*
X18055Y-53145D01*
X18055Y-53195D01*
X18055Y-53305D01*
X18055Y-53355D01*
X18055Y-53725D01*
X18055Y-53775D01*
X18055Y-54145D01*
X18055Y-54195D01*
X18055Y-54305D01*
X18055Y-54355D01*
X18055Y-54725D01*
X18055Y-54775D01*
X18055Y-55145D01*
X18055Y-55195D01*
X18055Y-55305D01*
X17945Y-55305D01*
X17945Y-55195D01*
X17945Y-54775D01*
X17945Y-54725D01*
X17945Y-54305D01*
X17945Y-54195D01*
X17945Y-53775D01*
X17945Y-53725D01*
X17945Y-53305D01*
X17945Y-53195D01*
X17945Y-52775D01*
X17945Y-52725D01*
X17945Y-52305D01*
X17945Y-52195D01*
X17945Y-51775D01*
X17945Y-51725D01*
X17945Y-51305D01*
X17475Y-51305D01*
X17400Y-51380D01*
X17401Y-51609D01*
X17446Y-51719D01*
X17477Y-51750D01*
X17446Y-51781D01*
X17401Y-51891D01*
X17400Y-52120D01*
X17475Y-52195D01*
X17945Y-52195D01*
X17945Y-52305D01*
X17475Y-52305D01*
X17400Y-52380D01*
X17401Y-52609D01*
X17446Y-52719D01*
X17477Y-52750D01*
X17446Y-52781D01*
X17401Y-52891D01*
X17400Y-53120D01*
X17475Y-53195D01*
X17945Y-53195D01*
X17945Y-53305D01*
X17475Y-53305D01*
X17400Y-53380D01*
X17401Y-53609D01*
X17446Y-53719D01*
X17477Y-53750D01*
X17446Y-53781D01*
X17401Y-53891D01*
X17400Y-54120D01*
X17475Y-54195D01*
X17945Y-54195D01*
X17945Y-54305D01*
X17475Y-54305D01*
X17400Y-54380D01*
X17401Y-54609D01*
X17446Y-54719D01*
X17477Y-54750D01*
X17446Y-54781D01*
X17401Y-54891D01*
X17400Y-55120D01*
X17475Y-55195D01*
X17945Y-55195D01*
X17945Y-55305D01*
X17895Y-55305D01*
X17475Y-55305D01*
X17400Y-55380D01*
X17400Y-55450D01*
X17199Y-55450D01*
X17025Y-55276D01*
X17025Y-52625D01*
X17024Y-52624D01*
X17002Y-52510D01*
X16937Y-52413D01*
X16936Y-52412D01*
X16768Y-52244D01*
X17080Y-52244D01*
X17172Y-52206D01*
X17242Y-52136D01*
X17280Y-52045D01*
X17280Y-51946D01*
X17280Y-51356D01*
X17242Y-51264D01*
X17172Y-51194D01*
X17125Y-51174D01*
X17125Y-50844D01*
X17400Y-50568D01*
X17401Y-50609D01*
X17446Y-50719D01*
X17477Y-50750D01*
X17446Y-50781D01*
X17401Y-50891D01*
X17400Y-51120D01*
X17475Y-51195D01*
X17945Y-51195D01*
X17945Y-50775D01*
X17945Y-50725D01*
X17945Y-50355D01*
X17945Y-50305D01*
X17945Y-50195D01*
X17945Y-50145D01*
X17945Y-49775D01*
X17945Y-49725D01*
X17945Y-49355D01*
X17945Y-49305D01*
X17945Y-49195D01*
X17945Y-49145D01*
X17945Y-48725D01*
X17870Y-48650D01*
X17759Y-48651D01*
X17700Y-48651D01*
X17700Y-47969D01*
X18344Y-47325D01*
X20675Y-47325D01*
X20675Y-47324D01*
X20809Y-47298D01*
X20922Y-47222D01*
X21419Y-46725D01*
X22530Y-46725D01*
X22800Y-46994D01*
X22800Y-47224D01*
X22790Y-47234D01*
X22725Y-47390D01*
X22725Y-47559D01*
X22789Y-47715D01*
X22909Y-47835D01*
X23065Y-47900D01*
X23234Y-47900D01*
X23390Y-47836D01*
X23437Y-47788D01*
X23484Y-47835D01*
X23640Y-47900D01*
X23775Y-47900D01*
X23775Y-48232D01*
X23754Y-48181D01*
X23670Y-48097D01*
X23560Y-48051D01*
X23441Y-48051D01*
X22730Y-48050D01*
X22655Y-48125D01*
X22655Y-48945D01*
X22655Y-48995D01*
X22655Y-49105D01*
X22655Y-49155D01*
X22655Y-49975D01*
X22730Y-50050D01*
X23441Y-50049D01*
X23560Y-50049D01*
X23670Y-50003D01*
X23754Y-49919D01*
X23775Y-49867D01*
X23775Y-50725D01*
X23775Y-50725D01*
G37*
G54D45*
X23775Y-50725D02*
X21719Y-50725D01*
X21600Y-50605D01*
X21600Y-50032D01*
X21640Y-50049D01*
X21759Y-50049D01*
X22470Y-50050D01*
X22545Y-49975D01*
X22545Y-49155D01*
X22545Y-49105D01*
X22545Y-48995D01*
X22545Y-48945D01*
X22545Y-48125D01*
X22470Y-48050D01*
X21759Y-48051D01*
X21640Y-48051D01*
X21598Y-48068D01*
X21573Y-47941D01*
X21497Y-47828D01*
X21497Y-47827D01*
X21197Y-47528D01*
X21084Y-47452D01*
X20950Y-47425D01*
X19800Y-47425D01*
X19666Y-47452D01*
X19552Y-47528D01*
X19430Y-47650D01*
X19416Y-47650D01*
X19260Y-47714D01*
X19140Y-47834D01*
X19075Y-47990D01*
X19075Y-48159D01*
X19139Y-48315D01*
X19259Y-48435D01*
X19415Y-48500D01*
X19584Y-48500D01*
X19740Y-48436D01*
X19860Y-48316D01*
X19925Y-48160D01*
X19925Y-48144D01*
X19944Y-48125D01*
X20805Y-48125D01*
X20900Y-48219D01*
X20900Y-48281D01*
X20885Y-48275D01*
X20716Y-48275D01*
X20560Y-48339D01*
X20440Y-48459D01*
X20375Y-48615D01*
X20375Y-48784D01*
X20420Y-48894D01*
X20311Y-48785D01*
X20109Y-48701D01*
X19891Y-48701D01*
X19689Y-48785D01*
X19535Y-48939D01*
X19500Y-49023D01*
X19465Y-48939D01*
X19311Y-48785D01*
X19109Y-48701D01*
X18891Y-48701D01*
X18689Y-48785D01*
X18594Y-48879D01*
X18554Y-48781D01*
X18470Y-48697D01*
X18360Y-48651D01*
X18241Y-48651D01*
X18130Y-48650D01*
X18055Y-48725D01*
X18055Y-49145D01*
X18055Y-49195D01*
X18055Y-49305D01*
X18055Y-49355D01*
X18055Y-49725D01*
X18055Y-49775D01*
X18055Y-50145D01*
X18055Y-50195D01*
X18055Y-50305D01*
X18055Y-50355D01*
X18055Y-50725D01*
X18055Y-50775D01*
X18055Y-51145D01*
X18055Y-51195D01*
X18055Y-51305D01*
X18055Y-51355D01*
X18055Y-51725D01*
X18055Y-51775D01*
X18055Y-52145D01*
X18055Y-52195D01*
X18055Y-52305D01*
X18055Y-52355D01*
X18055Y-52725D01*
X18055Y-52775D01*
X18055Y-53145D01*
X18055Y-53195D01*
X18055Y-53305D01*
X18055Y-53355D01*
X18055Y-53725D01*
X18055Y-53775D01*
X18055Y-54145D01*
X18055Y-54195D01*
X18055Y-54305D01*
X18055Y-54355D01*
X18055Y-54725D01*
X18055Y-54775D01*
X18055Y-55145D01*
X18055Y-55195D01*
X18055Y-55305D01*
X17945Y-55305D01*
X17945Y-55195D01*
X17945Y-54775D01*
X17945Y-54725D01*
X17945Y-54305D01*
X17945Y-54195D01*
X17945Y-53775D01*
X17945Y-53725D01*
X17945Y-53305D01*
X17945Y-53195D01*
X17945Y-52775D01*
X17945Y-52725D01*
X17945Y-52305D01*
X17945Y-52195D01*
X17945Y-51775D01*
X17945Y-51725D01*
X17945Y-51305D01*
X17475Y-51305D01*
X17400Y-51380D01*
X17401Y-51609D01*
X17446Y-51719D01*
X17477Y-51750D01*
X17446Y-51781D01*
X17401Y-51891D01*
X17400Y-52120D01*
X17475Y-52195D01*
X17945Y-52195D01*
X17945Y-52305D01*
X17475Y-52305D01*
X17400Y-52380D01*
X17401Y-52609D01*
X17446Y-52719D01*
X17477Y-52750D01*
X17446Y-52781D01*
X17401Y-52891D01*
X17400Y-53120D01*
X17475Y-53195D01*
X17945Y-53195D01*
X17945Y-53305D01*
X17475Y-53305D01*
X17400Y-53380D01*
X17401Y-53609D01*
X17446Y-53719D01*
X17477Y-53750D01*
X17446Y-53781D01*
X17401Y-53891D01*
X17400Y-54120D01*
X17475Y-54195D01*
X17945Y-54195D01*
X17945Y-54305D01*
X17475Y-54305D01*
X17400Y-54380D01*
X17401Y-54609D01*
X17446Y-54719D01*
X17477Y-54750D01*
X17446Y-54781D01*
X17401Y-54891D01*
X17400Y-55120D01*
X17475Y-55195D01*
X17945Y-55195D01*
X17945Y-55305D01*
X17895Y-55305D01*
X17475Y-55305D01*
X17400Y-55380D01*
X17400Y-55450D01*
X17199Y-55450D01*
X17025Y-55276D01*
X17025Y-52625D01*
X17024Y-52624D01*
X17002Y-52510D01*
X16937Y-52413D01*
X16936Y-52412D01*
X16768Y-52244D01*
X17080Y-52244D01*
X17172Y-52206D01*
X17242Y-52136D01*
X17280Y-52045D01*
X17280Y-51946D01*
X17280Y-51356D01*
X17242Y-51264D01*
X17172Y-51194D01*
X17125Y-51174D01*
X17125Y-50844D01*
X17400Y-50568D01*
X17401Y-50609D01*
X17446Y-50719D01*
X17477Y-50750D01*
X17446Y-50781D01*
X17401Y-50891D01*
X17400Y-51120D01*
X17475Y-51195D01*
X17945Y-51195D01*
X17945Y-50775D01*
X17945Y-50725D01*
X17945Y-50355D01*
X17945Y-50305D01*
X17945Y-50195D01*
X17945Y-50145D01*
X17945Y-49775D01*
X17945Y-49725D01*
X17945Y-49355D01*
X17945Y-49305D01*
X17945Y-49195D01*
X17945Y-49145D01*
X17945Y-48725D01*
X17870Y-48650D01*
X17759Y-48651D01*
X17700Y-48651D01*
X17700Y-47969D01*
X18344Y-47325D01*
X20675Y-47325D01*
X20675Y-47324D01*
X20809Y-47298D01*
X20922Y-47222D01*
X21419Y-46725D01*
X22530Y-46725D01*
X22800Y-46994D01*
X22800Y-47224D01*
X22790Y-47234D01*
X22725Y-47390D01*
X22725Y-47559D01*
X22789Y-47715D01*
X22909Y-47835D01*
X23065Y-47900D01*
X23234Y-47900D01*
X23390Y-47836D01*
X23437Y-47788D01*
X23484Y-47835D01*
X23640Y-47900D01*
X23775Y-47900D01*
X23775Y-48232D01*
X23754Y-48181D01*
X23670Y-48097D01*
X23560Y-48051D01*
X23441Y-48051D01*
X22730Y-48050D01*
X22655Y-48125D01*
X22655Y-48945D01*
X22655Y-48995D01*
X22655Y-49105D01*
X22655Y-49155D01*
X22655Y-49975D01*
X22730Y-50050D01*
X23441Y-50049D01*
X23560Y-50049D01*
X23670Y-50003D01*
X23754Y-49919D01*
X23775Y-49867D01*
X23775Y-50725D01*
G54D10*
G36*
X26622Y-43561D02*
X26600Y-43675D01*
X26600Y-46751D01*
X26469Y-46881D01*
X26461Y-46860D01*
X26341Y-46740D01*
X26185Y-46675D01*
X26135Y-46675D01*
X26050Y-46590D01*
X26050Y-44134D01*
X26622Y-43561D01*
X26622Y-43561D01*
G37*
G54D45*
X26622Y-43561D02*
X26600Y-43675D01*
X26600Y-46751D01*
X26469Y-46881D01*
X26461Y-46860D01*
X26341Y-46740D01*
X26185Y-46675D01*
X26135Y-46675D01*
X26050Y-46590D01*
X26050Y-44134D01*
X26622Y-43561D01*
G54D10*
G36*
X30143Y-43766D02*
X30071Y-43766D01*
X29980Y-43765D01*
X29905Y-43840D01*
X29905Y-44170D01*
X29905Y-44220D01*
X29905Y-44330D01*
X29795Y-44330D01*
X29745Y-44330D01*
X29345Y-44330D01*
X29325Y-44350D01*
X29305Y-44330D01*
X28905Y-44330D01*
X28855Y-44330D01*
X28745Y-44330D01*
X28745Y-44220D01*
X28855Y-44220D01*
X28905Y-44220D01*
X29305Y-44220D01*
X29325Y-44200D01*
X29345Y-44220D01*
X29795Y-44220D01*
X29795Y-43840D01*
X29720Y-43765D01*
X29629Y-43766D01*
X29510Y-43766D01*
X29400Y-43812D01*
X29325Y-43887D01*
X29250Y-43812D01*
X29140Y-43766D01*
X29021Y-43766D01*
X28930Y-43765D01*
X28905Y-43790D01*
X28905Y-43765D01*
X28808Y-43765D01*
X28973Y-43600D01*
X29399Y-43600D01*
X29459Y-43660D01*
X29615Y-43725D01*
X29784Y-43725D01*
X29940Y-43661D01*
X29975Y-43625D01*
X30062Y-43712D01*
X30063Y-43712D01*
X30143Y-43766D01*
X30143Y-43766D01*
G37*
G54D45*
X30143Y-43766D02*
X30071Y-43766D01*
X29980Y-43765D01*
X29905Y-43840D01*
X29905Y-44170D01*
X29905Y-44220D01*
X29905Y-44330D01*
X29795Y-44330D01*
X29745Y-44330D01*
X29345Y-44330D01*
X29325Y-44350D01*
X29305Y-44330D01*
X28905Y-44330D01*
X28855Y-44330D01*
X28745Y-44330D01*
X28745Y-44220D01*
X28855Y-44220D01*
X28905Y-44220D01*
X29305Y-44220D01*
X29325Y-44200D01*
X29345Y-44220D01*
X29795Y-44220D01*
X29795Y-43840D01*
X29720Y-43765D01*
X29629Y-43766D01*
X29510Y-43766D01*
X29400Y-43812D01*
X29325Y-43887D01*
X29250Y-43812D01*
X29140Y-43766D01*
X29021Y-43766D01*
X28930Y-43765D01*
X28905Y-43790D01*
X28905Y-43765D01*
X28808Y-43765D01*
X28973Y-43600D01*
X29399Y-43600D01*
X29459Y-43660D01*
X29615Y-43725D01*
X29784Y-43725D01*
X29940Y-43661D01*
X29975Y-43625D01*
X30062Y-43712D01*
X30063Y-43712D01*
X30143Y-43766D01*
G54D10*
G36*
X30225Y-54699D02*
X30110Y-54814D01*
X30075Y-54898D01*
X30040Y-54814D01*
X29886Y-54660D01*
X29684Y-54576D01*
X29466Y-54576D01*
X29264Y-54660D01*
X29110Y-54814D01*
X29075Y-54898D01*
X29040Y-54814D01*
X28886Y-54660D01*
X28684Y-54576D01*
X28466Y-54576D01*
X28264Y-54660D01*
X28110Y-54814D01*
X28075Y-54898D01*
X28040Y-54814D01*
X27886Y-54660D01*
X27684Y-54576D01*
X27466Y-54576D01*
X27264Y-54660D01*
X27110Y-54814D01*
X27026Y-55016D01*
X27026Y-55234D01*
X27110Y-55436D01*
X27264Y-55590D01*
X27466Y-55674D01*
X27684Y-55674D01*
X27886Y-55590D01*
X28040Y-55436D01*
X28075Y-55351D01*
X28110Y-55436D01*
X28225Y-55551D01*
X28225Y-55875D01*
X26025Y-55875D01*
X26025Y-54630D01*
X25950Y-54555D01*
X25630Y-54555D01*
X25630Y-54975D01*
X25705Y-55050D01*
X25784Y-55049D01*
X25894Y-55004D01*
X25978Y-54920D01*
X26024Y-54810D01*
X26024Y-54691D01*
X26025Y-54630D01*
X26025Y-55875D01*
X24369Y-55875D01*
X23850Y-55355D01*
X23850Y-53300D01*
X23849Y-53299D01*
X23823Y-53166D01*
X23777Y-53097D01*
X23747Y-53053D01*
X23747Y-53052D01*
X23397Y-52703D01*
X23284Y-52627D01*
X23150Y-52600D01*
X21419Y-52600D01*
X21150Y-52330D01*
X21150Y-51144D01*
X21327Y-51322D01*
X21328Y-51322D01*
X21441Y-51398D01*
X21575Y-51425D01*
X23775Y-51425D01*
X23775Y-52075D01*
X23802Y-52209D01*
X23878Y-52322D01*
X24730Y-53175D01*
X24566Y-53175D01*
X24410Y-53239D01*
X24290Y-53359D01*
X24225Y-53515D01*
X24225Y-53684D01*
X24252Y-53751D01*
X24076Y-53751D01*
X23984Y-53789D01*
X23914Y-53859D01*
X23876Y-53950D01*
X23876Y-54049D01*
X23876Y-55049D01*
X23914Y-55141D01*
X23984Y-55211D01*
X24075Y-55249D01*
X24174Y-55249D01*
X25224Y-55249D01*
X25316Y-55211D01*
X25386Y-55141D01*
X25424Y-55050D01*
X25424Y-55049D01*
X25445Y-55050D01*
X25520Y-54975D01*
X25520Y-54605D01*
X25520Y-54555D01*
X25520Y-54445D01*
X25630Y-54445D01*
X25680Y-54445D01*
X25950Y-54445D01*
X26025Y-54370D01*
X26024Y-54309D01*
X26024Y-54225D01*
X30180Y-54225D01*
X30225Y-54269D01*
X30225Y-54699D01*
X30225Y-54699D01*
G37*
G54D45*
X30225Y-54699D02*
X30110Y-54814D01*
X30075Y-54898D01*
X30040Y-54814D01*
X29886Y-54660D01*
X29684Y-54576D01*
X29466Y-54576D01*
X29264Y-54660D01*
X29110Y-54814D01*
X29075Y-54898D01*
X29040Y-54814D01*
X28886Y-54660D01*
X28684Y-54576D01*
X28466Y-54576D01*
X28264Y-54660D01*
X28110Y-54814D01*
X28075Y-54898D01*
X28040Y-54814D01*
X27886Y-54660D01*
X27684Y-54576D01*
X27466Y-54576D01*
X27264Y-54660D01*
X27110Y-54814D01*
X27026Y-55016D01*
X27026Y-55234D01*
X27110Y-55436D01*
X27264Y-55590D01*
X27466Y-55674D01*
X27684Y-55674D01*
X27886Y-55590D01*
X28040Y-55436D01*
X28075Y-55351D01*
X28110Y-55436D01*
X28225Y-55551D01*
X28225Y-55875D01*
X26025Y-55875D01*
X26025Y-54630D01*
X25950Y-54555D01*
X25630Y-54555D01*
X25630Y-54975D01*
X25705Y-55050D01*
X25784Y-55049D01*
X25894Y-55004D01*
X25978Y-54920D01*
X26024Y-54810D01*
X26024Y-54691D01*
X26025Y-54630D01*
X26025Y-55875D01*
X24369Y-55875D01*
X23850Y-55355D01*
X23850Y-53300D01*
X23849Y-53299D01*
X23823Y-53166D01*
X23777Y-53097D01*
X23747Y-53053D01*
X23747Y-53052D01*
X23397Y-52703D01*
X23284Y-52627D01*
X23150Y-52600D01*
X21419Y-52600D01*
X21150Y-52330D01*
X21150Y-51144D01*
X21327Y-51322D01*
X21328Y-51322D01*
X21441Y-51398D01*
X21575Y-51425D01*
X23775Y-51425D01*
X23775Y-52075D01*
X23802Y-52209D01*
X23878Y-52322D01*
X24730Y-53175D01*
X24566Y-53175D01*
X24410Y-53239D01*
X24290Y-53359D01*
X24225Y-53515D01*
X24225Y-53684D01*
X24252Y-53751D01*
X24076Y-53751D01*
X23984Y-53789D01*
X23914Y-53859D01*
X23876Y-53950D01*
X23876Y-54049D01*
X23876Y-55049D01*
X23914Y-55141D01*
X23984Y-55211D01*
X24075Y-55249D01*
X24174Y-55249D01*
X25224Y-55249D01*
X25316Y-55211D01*
X25386Y-55141D01*
X25424Y-55050D01*
X25424Y-55049D01*
X25445Y-55050D01*
X25520Y-54975D01*
X25520Y-54605D01*
X25520Y-54555D01*
X25520Y-54445D01*
X25630Y-54445D01*
X25680Y-54445D01*
X25950Y-54445D01*
X26025Y-54370D01*
X26024Y-54309D01*
X26024Y-54225D01*
X30180Y-54225D01*
X30225Y-54269D01*
X30225Y-54699D01*
G54D10*
G36*
X31655Y-49355D02*
X31545Y-49355D01*
X31495Y-49355D01*
X31165Y-49355D01*
X31090Y-49430D01*
X31091Y-49521D01*
X31091Y-49550D01*
X30600Y-49550D01*
X30466Y-49577D01*
X30352Y-49653D01*
X30153Y-49853D01*
X30077Y-49966D01*
X30050Y-50100D01*
X30050Y-50398D01*
X29943Y-50506D01*
X29900Y-50608D01*
X29858Y-50506D01*
X29706Y-50355D01*
X29700Y-50352D01*
X29700Y-48975D01*
X29677Y-48860D01*
X29612Y-48763D01*
X29521Y-48672D01*
X29706Y-48596D01*
X29857Y-48444D01*
X29899Y-48341D01*
X29942Y-48444D01*
X30094Y-48595D01*
X30292Y-48678D01*
X30507Y-48678D01*
X30706Y-48596D01*
X30805Y-48495D01*
X30847Y-48595D01*
X30931Y-48679D01*
X31041Y-48724D01*
X31270Y-48725D01*
X31295Y-48700D01*
X31295Y-48725D01*
X31321Y-48725D01*
X31221Y-48766D01*
X31137Y-48850D01*
X31091Y-48960D01*
X31091Y-49079D01*
X31090Y-49170D01*
X31165Y-49245D01*
X31495Y-49245D01*
X31545Y-49245D01*
X31655Y-49245D01*
X31655Y-49355D01*
X31655Y-49355D01*
G37*
G54D45*
X31655Y-49355D02*
X31545Y-49355D01*
X31495Y-49355D01*
X31165Y-49355D01*
X31090Y-49430D01*
X31091Y-49521D01*
X31091Y-49550D01*
X30600Y-49550D01*
X30466Y-49577D01*
X30352Y-49653D01*
X30153Y-49853D01*
X30077Y-49966D01*
X30050Y-50100D01*
X30050Y-50398D01*
X29943Y-50506D01*
X29900Y-50608D01*
X29858Y-50506D01*
X29706Y-50355D01*
X29700Y-50352D01*
X29700Y-48975D01*
X29677Y-48860D01*
X29612Y-48763D01*
X29521Y-48672D01*
X29706Y-48596D01*
X29857Y-48444D01*
X29899Y-48341D01*
X29942Y-48444D01*
X30094Y-48595D01*
X30292Y-48678D01*
X30507Y-48678D01*
X30706Y-48596D01*
X30805Y-48495D01*
X30847Y-48595D01*
X30931Y-48679D01*
X31041Y-48724D01*
X31270Y-48725D01*
X31295Y-48700D01*
X31295Y-48725D01*
X31321Y-48725D01*
X31221Y-48766D01*
X31137Y-48850D01*
X31091Y-48960D01*
X31091Y-49079D01*
X31090Y-49170D01*
X31165Y-49245D01*
X31495Y-49245D01*
X31545Y-49245D01*
X31655Y-49245D01*
X31655Y-49355D01*
G54D10*
G36*
X32876Y-45750D02*
X32688Y-45938D01*
X32652Y-45991D01*
X32652Y-45903D01*
X32578Y-45723D01*
X32440Y-45585D01*
X32260Y-45510D01*
X32065Y-45510D01*
X31741Y-45510D01*
X31561Y-45584D01*
X31500Y-45645D01*
X31440Y-45585D01*
X31260Y-45510D01*
X31065Y-45510D01*
X30741Y-45510D01*
X30561Y-45584D01*
X30423Y-45722D01*
X30348Y-45902D01*
X30348Y-46097D01*
X30422Y-46277D01*
X30560Y-46415D01*
X30740Y-46490D01*
X30935Y-46490D01*
X31259Y-46490D01*
X31439Y-46416D01*
X31500Y-46355D01*
X31560Y-46415D01*
X31740Y-46490D01*
X31935Y-46490D01*
X32259Y-46490D01*
X32439Y-46416D01*
X32577Y-46278D01*
X32600Y-46222D01*
X32600Y-47310D01*
X32508Y-47272D01*
X32293Y-47272D01*
X32094Y-47354D01*
X31994Y-47454D01*
X31953Y-47355D01*
X31869Y-47271D01*
X31759Y-47226D01*
X31530Y-47225D01*
X31455Y-47300D01*
X31455Y-47870D01*
X31455Y-47920D01*
X31455Y-48030D01*
X31345Y-48030D01*
X31345Y-47920D01*
X31345Y-47870D01*
X31345Y-47300D01*
X31270Y-47225D01*
X31041Y-47226D01*
X30931Y-47271D01*
X30847Y-47355D01*
X30805Y-47453D01*
X30706Y-47355D01*
X30700Y-47352D01*
X30700Y-47325D01*
X30699Y-47324D01*
X30677Y-47210D01*
X30612Y-47113D01*
X30612Y-47112D01*
X30280Y-46780D01*
X30280Y-46445D01*
X30242Y-46353D01*
X30214Y-46325D01*
X30242Y-46297D01*
X30280Y-46206D01*
X30280Y-46107D01*
X30280Y-45695D01*
X30242Y-45603D01*
X30173Y-45534D01*
X30179Y-45534D01*
X30271Y-45496D01*
X30341Y-45426D01*
X30379Y-45335D01*
X30379Y-45236D01*
X30379Y-45172D01*
X30422Y-45277D01*
X30560Y-45415D01*
X30740Y-45490D01*
X30935Y-45490D01*
X31259Y-45490D01*
X31439Y-45416D01*
X31500Y-45355D01*
X31560Y-45415D01*
X31740Y-45490D01*
X31935Y-45490D01*
X32259Y-45490D01*
X32439Y-45416D01*
X32450Y-45405D01*
X32450Y-45409D01*
X32514Y-45565D01*
X32634Y-45685D01*
X32790Y-45750D01*
X32876Y-45750D01*
X32876Y-45750D01*
G37*
G54D45*
X32876Y-45750D02*
X32688Y-45938D01*
X32652Y-45991D01*
X32652Y-45903D01*
X32578Y-45723D01*
X32440Y-45585D01*
X32260Y-45510D01*
X32065Y-45510D01*
X31741Y-45510D01*
X31561Y-45584D01*
X31500Y-45645D01*
X31440Y-45585D01*
X31260Y-45510D01*
X31065Y-45510D01*
X30741Y-45510D01*
X30561Y-45584D01*
X30423Y-45722D01*
X30348Y-45902D01*
X30348Y-46097D01*
X30422Y-46277D01*
X30560Y-46415D01*
X30740Y-46490D01*
X30935Y-46490D01*
X31259Y-46490D01*
X31439Y-46416D01*
X31500Y-46355D01*
X31560Y-46415D01*
X31740Y-46490D01*
X31935Y-46490D01*
X32259Y-46490D01*
X32439Y-46416D01*
X32577Y-46278D01*
X32600Y-46222D01*
X32600Y-47310D01*
X32508Y-47272D01*
X32293Y-47272D01*
X32094Y-47354D01*
X31994Y-47454D01*
X31953Y-47355D01*
X31869Y-47271D01*
X31759Y-47226D01*
X31530Y-47225D01*
X31455Y-47300D01*
X31455Y-47870D01*
X31455Y-47920D01*
X31455Y-48030D01*
X31345Y-48030D01*
X31345Y-47920D01*
X31345Y-47870D01*
X31345Y-47300D01*
X31270Y-47225D01*
X31041Y-47226D01*
X30931Y-47271D01*
X30847Y-47355D01*
X30805Y-47453D01*
X30706Y-47355D01*
X30700Y-47352D01*
X30700Y-47325D01*
X30699Y-47324D01*
X30677Y-47210D01*
X30612Y-47113D01*
X30612Y-47112D01*
X30280Y-46780D01*
X30280Y-46445D01*
X30242Y-46353D01*
X30214Y-46325D01*
X30242Y-46297D01*
X30280Y-46206D01*
X30280Y-46107D01*
X30280Y-45695D01*
X30242Y-45603D01*
X30173Y-45534D01*
X30179Y-45534D01*
X30271Y-45496D01*
X30341Y-45426D01*
X30379Y-45335D01*
X30379Y-45236D01*
X30379Y-45172D01*
X30422Y-45277D01*
X30560Y-45415D01*
X30740Y-45490D01*
X30935Y-45490D01*
X31259Y-45490D01*
X31439Y-45416D01*
X31500Y-45355D01*
X31560Y-45415D01*
X31740Y-45490D01*
X31935Y-45490D01*
X32259Y-45490D01*
X32439Y-45416D01*
X32450Y-45405D01*
X32450Y-45409D01*
X32514Y-45565D01*
X32634Y-45685D01*
X32790Y-45750D01*
X32876Y-45750D01*
G54D10*
G36*
X36630Y-53180D02*
X36520Y-53180D01*
X36520Y-53070D01*
X36630Y-53070D01*
X36630Y-53180D01*
X36630Y-53180D01*
G37*
G54D45*
X36630Y-53180D02*
X36520Y-53180D01*
X36520Y-53070D01*
X36630Y-53070D01*
X36630Y-53180D01*
G54D10*
G36*
X37775Y-52525D02*
X37705Y-52525D01*
X37630Y-52600D01*
X37630Y-53020D01*
X37630Y-53070D01*
X37630Y-53180D01*
X37520Y-53180D01*
X37520Y-53070D01*
X37520Y-53020D01*
X37520Y-52600D01*
X37445Y-52525D01*
X37370Y-52525D01*
X37355Y-52450D01*
X37750Y-52450D01*
X37775Y-52474D01*
X37775Y-52525D01*
X37775Y-52525D01*
G37*
G54D45*
X37775Y-52525D02*
X37705Y-52525D01*
X37630Y-52600D01*
X37630Y-53020D01*
X37630Y-53070D01*
X37630Y-53180D01*
X37520Y-53180D01*
X37520Y-53070D01*
X37520Y-53020D01*
X37520Y-52600D01*
X37445Y-52525D01*
X37370Y-52525D01*
X37355Y-52450D01*
X37750Y-52450D01*
X37775Y-52474D01*
X37775Y-52525D01*
G54D10*
G36*
X38775Y-52525D02*
X38705Y-52525D01*
X38630Y-52600D01*
X38630Y-53020D01*
X38630Y-53070D01*
X38630Y-53180D01*
X38520Y-53180D01*
X38520Y-53070D01*
X38520Y-53020D01*
X38520Y-52600D01*
X38445Y-52525D01*
X38375Y-52525D01*
X38375Y-52350D01*
X38374Y-52349D01*
X38352Y-52235D01*
X38345Y-52225D01*
X38750Y-52225D01*
X38775Y-52249D01*
X38775Y-52525D01*
X38775Y-52525D01*
G37*
G54D45*
X38775Y-52525D02*
X38705Y-52525D01*
X38630Y-52600D01*
X38630Y-53020D01*
X38630Y-53070D01*
X38630Y-53180D01*
X38520Y-53180D01*
X38520Y-53070D01*
X38520Y-53020D01*
X38520Y-52600D01*
X38445Y-52525D01*
X38375Y-52525D01*
X38375Y-52350D01*
X38374Y-52349D01*
X38352Y-52235D01*
X38345Y-52225D01*
X38750Y-52225D01*
X38775Y-52249D01*
X38775Y-52525D01*
G54D10*
G36*
X39775Y-52525D02*
X39705Y-52525D01*
X39630Y-52600D01*
X39630Y-53020D01*
X39630Y-53070D01*
X39630Y-53180D01*
X39520Y-53180D01*
X39520Y-53070D01*
X39520Y-53020D01*
X39520Y-52600D01*
X39445Y-52525D01*
X39375Y-52525D01*
X39375Y-52125D01*
X39374Y-52124D01*
X39352Y-52010D01*
X39340Y-51991D01*
X39415Y-51977D01*
X39512Y-51912D01*
X39573Y-51851D01*
X39639Y-51917D01*
X39730Y-51955D01*
X39775Y-51955D01*
X39775Y-52525D01*
X39775Y-52525D01*
G37*
G54D45*
X39775Y-52525D02*
X39705Y-52525D01*
X39630Y-52600D01*
X39630Y-53020D01*
X39630Y-53070D01*
X39630Y-53180D01*
X39520Y-53180D01*
X39520Y-53070D01*
X39520Y-53020D01*
X39520Y-52600D01*
X39445Y-52525D01*
X39375Y-52525D01*
X39375Y-52125D01*
X39374Y-52124D01*
X39352Y-52010D01*
X39340Y-51991D01*
X39415Y-51977D01*
X39512Y-51912D01*
X39573Y-51851D01*
X39639Y-51917D01*
X39730Y-51955D01*
X39775Y-51955D01*
X39775Y-52525D01*
G54D10*
G36*
X40275Y-35655D02*
X40264Y-35660D01*
X40110Y-35814D01*
X40075Y-35898D01*
X40040Y-35814D01*
X39886Y-35660D01*
X39684Y-35576D01*
X39466Y-35576D01*
X39264Y-35660D01*
X39110Y-35814D01*
X39075Y-35898D01*
X39040Y-35814D01*
X38886Y-35660D01*
X38684Y-35576D01*
X38466Y-35576D01*
X38264Y-35660D01*
X38110Y-35814D01*
X38075Y-35898D01*
X38040Y-35814D01*
X37886Y-35660D01*
X37684Y-35576D01*
X37466Y-35576D01*
X37264Y-35660D01*
X37110Y-35814D01*
X37075Y-35898D01*
X37040Y-35814D01*
X36886Y-35660D01*
X36684Y-35576D01*
X36466Y-35576D01*
X36264Y-35660D01*
X36110Y-35814D01*
X36075Y-35898D01*
X36040Y-35814D01*
X35886Y-35660D01*
X35684Y-35576D01*
X35466Y-35576D01*
X35264Y-35660D01*
X35110Y-35814D01*
X35075Y-35898D01*
X35040Y-35814D01*
X34886Y-35660D01*
X34684Y-35576D01*
X34466Y-35576D01*
X34264Y-35660D01*
X34110Y-35814D01*
X34105Y-35825D01*
X33974Y-35825D01*
X33859Y-35848D01*
X33762Y-35913D01*
X33524Y-36151D01*
X33524Y-36016D01*
X33440Y-35814D01*
X33286Y-35660D01*
X33084Y-35576D01*
X32866Y-35576D01*
X32664Y-35660D01*
X32510Y-35814D01*
X32475Y-35898D01*
X32440Y-35814D01*
X32286Y-35660D01*
X32084Y-35576D01*
X31866Y-35576D01*
X31664Y-35660D01*
X31510Y-35814D01*
X31475Y-35898D01*
X31440Y-35814D01*
X31286Y-35660D01*
X31084Y-35576D01*
X30866Y-35576D01*
X30664Y-35660D01*
X30510Y-35814D01*
X30475Y-35898D01*
X30440Y-35814D01*
X30286Y-35660D01*
X30084Y-35576D01*
X29866Y-35576D01*
X29664Y-35660D01*
X29510Y-35814D01*
X29475Y-35898D01*
X29440Y-35814D01*
X29286Y-35660D01*
X29084Y-35576D01*
X28866Y-35576D01*
X28664Y-35660D01*
X28510Y-35814D01*
X28475Y-35898D01*
X28440Y-35814D01*
X28286Y-35660D01*
X28084Y-35576D01*
X27866Y-35576D01*
X27664Y-35660D01*
X27569Y-35754D01*
X27529Y-35656D01*
X27445Y-35572D01*
X27335Y-35526D01*
X27216Y-35526D01*
X27105Y-35525D01*
X27030Y-35600D01*
X27030Y-36020D01*
X27030Y-36070D01*
X27030Y-36180D01*
X27030Y-36230D01*
X27030Y-36650D01*
X27105Y-36725D01*
X27216Y-36724D01*
X27335Y-36724D01*
X27445Y-36678D01*
X27529Y-36594D01*
X27569Y-36495D01*
X27664Y-36590D01*
X27675Y-36594D01*
X27675Y-37226D01*
X27063Y-37838D01*
X26998Y-37935D01*
X26975Y-38050D01*
X26975Y-42624D01*
X26915Y-42684D01*
X26900Y-42720D01*
X26900Y-37175D01*
X26873Y-37041D01*
X26797Y-36928D01*
X26797Y-36927D01*
X26577Y-36708D01*
X26615Y-36724D01*
X26734Y-36724D01*
X26845Y-36725D01*
X26920Y-36650D01*
X26920Y-36230D01*
X26920Y-36180D01*
X26920Y-36070D01*
X26920Y-36020D01*
X26920Y-35600D01*
X26845Y-35525D01*
X26734Y-35526D01*
X26615Y-35526D01*
X26505Y-35572D01*
X26421Y-35656D01*
X26380Y-35754D01*
X26286Y-35660D01*
X26084Y-35576D01*
X25866Y-35576D01*
X25664Y-35660D01*
X25510Y-35814D01*
X25475Y-35898D01*
X25440Y-35814D01*
X25286Y-35660D01*
X25084Y-35576D01*
X24866Y-35576D01*
X24664Y-35660D01*
X24510Y-35814D01*
X24475Y-35898D01*
X24440Y-35814D01*
X24286Y-35660D01*
X24084Y-35576D01*
X23866Y-35576D01*
X23675Y-35655D01*
X23675Y-35500D01*
X40275Y-35500D01*
X40275Y-35655D01*
X40275Y-35655D01*
G37*
G54D45*
X40275Y-35655D02*
X40264Y-35660D01*
X40110Y-35814D01*
X40075Y-35898D01*
X40040Y-35814D01*
X39886Y-35660D01*
X39684Y-35576D01*
X39466Y-35576D01*
X39264Y-35660D01*
X39110Y-35814D01*
X39075Y-35898D01*
X39040Y-35814D01*
X38886Y-35660D01*
X38684Y-35576D01*
X38466Y-35576D01*
X38264Y-35660D01*
X38110Y-35814D01*
X38075Y-35898D01*
X38040Y-35814D01*
X37886Y-35660D01*
X37684Y-35576D01*
X37466Y-35576D01*
X37264Y-35660D01*
X37110Y-35814D01*
X37075Y-35898D01*
X37040Y-35814D01*
X36886Y-35660D01*
X36684Y-35576D01*
X36466Y-35576D01*
X36264Y-35660D01*
X36110Y-35814D01*
X36075Y-35898D01*
X36040Y-35814D01*
X35886Y-35660D01*
X35684Y-35576D01*
X35466Y-35576D01*
X35264Y-35660D01*
X35110Y-35814D01*
X35075Y-35898D01*
X35040Y-35814D01*
X34886Y-35660D01*
X34684Y-35576D01*
X34466Y-35576D01*
X34264Y-35660D01*
X34110Y-35814D01*
X34105Y-35825D01*
X33974Y-35825D01*
X33859Y-35848D01*
X33762Y-35913D01*
X33524Y-36151D01*
X33524Y-36016D01*
X33440Y-35814D01*
X33286Y-35660D01*
X33084Y-35576D01*
X32866Y-35576D01*
X32664Y-35660D01*
X32510Y-35814D01*
X32475Y-35898D01*
X32440Y-35814D01*
X32286Y-35660D01*
X32084Y-35576D01*
X31866Y-35576D01*
X31664Y-35660D01*
X31510Y-35814D01*
X31475Y-35898D01*
X31440Y-35814D01*
X31286Y-35660D01*
X31084Y-35576D01*
X30866Y-35576D01*
X30664Y-35660D01*
X30510Y-35814D01*
X30475Y-35898D01*
X30440Y-35814D01*
X30286Y-35660D01*
X30084Y-35576D01*
X29866Y-35576D01*
X29664Y-35660D01*
X29510Y-35814D01*
X29475Y-35898D01*
X29440Y-35814D01*
X29286Y-35660D01*
X29084Y-35576D01*
X28866Y-35576D01*
X28664Y-35660D01*
X28510Y-35814D01*
X28475Y-35898D01*
X28440Y-35814D01*
X28286Y-35660D01*
X28084Y-35576D01*
X27866Y-35576D01*
X27664Y-35660D01*
X27569Y-35754D01*
X27529Y-35656D01*
X27445Y-35572D01*
X27335Y-35526D01*
X27216Y-35526D01*
X27105Y-35525D01*
X27030Y-35600D01*
X27030Y-36020D01*
X27030Y-36070D01*
X27030Y-36180D01*
X27030Y-36230D01*
X27030Y-36650D01*
X27105Y-36725D01*
X27216Y-36724D01*
X27335Y-36724D01*
X27445Y-36678D01*
X27529Y-36594D01*
X27569Y-36495D01*
X27664Y-36590D01*
X27675Y-36594D01*
X27675Y-37226D01*
X27063Y-37838D01*
X26998Y-37935D01*
X26975Y-38050D01*
X26975Y-42624D01*
X26915Y-42684D01*
X26900Y-42720D01*
X26900Y-37175D01*
X26873Y-37041D01*
X26797Y-36928D01*
X26797Y-36927D01*
X26577Y-36708D01*
X26615Y-36724D01*
X26734Y-36724D01*
X26845Y-36725D01*
X26920Y-36650D01*
X26920Y-36230D01*
X26920Y-36180D01*
X26920Y-36070D01*
X26920Y-36020D01*
X26920Y-35600D01*
X26845Y-35525D01*
X26734Y-35526D01*
X26615Y-35526D01*
X26505Y-35572D01*
X26421Y-35656D01*
X26380Y-35754D01*
X26286Y-35660D01*
X26084Y-35576D01*
X25866Y-35576D01*
X25664Y-35660D01*
X25510Y-35814D01*
X25475Y-35898D01*
X25440Y-35814D01*
X25286Y-35660D01*
X25084Y-35576D01*
X24866Y-35576D01*
X24664Y-35660D01*
X24510Y-35814D01*
X24475Y-35898D01*
X24440Y-35814D01*
X24286Y-35660D01*
X24084Y-35576D01*
X23866Y-35576D01*
X23675Y-35655D01*
X23675Y-35500D01*
X40275Y-35500D01*
X40275Y-35655D01*
G54D10*
G36*
X40775Y-52525D02*
X40705Y-52525D01*
X40630Y-52600D01*
X40630Y-53020D01*
X40630Y-53070D01*
X40630Y-53180D01*
X40520Y-53180D01*
X40520Y-53070D01*
X40520Y-53020D01*
X40520Y-52600D01*
X40445Y-52525D01*
X40375Y-52525D01*
X40375Y-51955D01*
X40419Y-51955D01*
X40511Y-51917D01*
X40575Y-51853D01*
X40639Y-51917D01*
X40730Y-51955D01*
X40775Y-51955D01*
X40775Y-52525D01*
X40775Y-52525D01*
G37*
G54D45*
X40775Y-52525D02*
X40705Y-52525D01*
X40630Y-52600D01*
X40630Y-53020D01*
X40630Y-53070D01*
X40630Y-53180D01*
X40520Y-53180D01*
X40520Y-53070D01*
X40520Y-53020D01*
X40520Y-52600D01*
X40445Y-52525D01*
X40375Y-52525D01*
X40375Y-51955D01*
X40419Y-51955D01*
X40511Y-51917D01*
X40575Y-51853D01*
X40639Y-51917D01*
X40730Y-51955D01*
X40775Y-51955D01*
X40775Y-52525D01*
G54D10*
G36*
X41581Y-55674D02*
X41380Y-55875D01*
X35124Y-55875D01*
X35124Y-55234D01*
X35124Y-55016D01*
X35040Y-54814D01*
X34886Y-54660D01*
X34684Y-54576D01*
X34466Y-54576D01*
X34264Y-54660D01*
X34169Y-54754D01*
X34129Y-54656D01*
X34045Y-54572D01*
X33935Y-54526D01*
X33816Y-54526D01*
X33705Y-54525D01*
X33630Y-54600D01*
X33630Y-55020D01*
X33630Y-55070D01*
X33630Y-55180D01*
X33630Y-55230D01*
X33630Y-55650D01*
X33705Y-55725D01*
X33816Y-55724D01*
X33935Y-55724D01*
X34045Y-55678D01*
X34129Y-55594D01*
X34169Y-55495D01*
X34264Y-55590D01*
X34466Y-55674D01*
X34684Y-55674D01*
X34886Y-55590D01*
X35040Y-55436D01*
X35124Y-55234D01*
X35124Y-55875D01*
X33520Y-55875D01*
X33520Y-55650D01*
X33520Y-55180D01*
X33520Y-55070D01*
X33520Y-54600D01*
X33445Y-54525D01*
X33334Y-54526D01*
X33215Y-54526D01*
X33105Y-54572D01*
X33075Y-54602D01*
X33045Y-54572D01*
X32935Y-54526D01*
X32816Y-54526D01*
X32705Y-54525D01*
X32630Y-54600D01*
X32630Y-55070D01*
X33050Y-55070D01*
X33100Y-55070D01*
X33520Y-55070D01*
X33520Y-55180D01*
X33100Y-55180D01*
X33050Y-55180D01*
X32630Y-55180D01*
X32630Y-55650D01*
X32705Y-55725D01*
X32816Y-55724D01*
X32935Y-55724D01*
X33045Y-55678D01*
X33075Y-55648D01*
X33105Y-55678D01*
X33215Y-55724D01*
X33334Y-55724D01*
X33445Y-55725D01*
X33520Y-55650D01*
X33520Y-55875D01*
X31925Y-55875D01*
X31925Y-55551D01*
X31980Y-55495D01*
X32021Y-55594D01*
X32105Y-55678D01*
X32215Y-55724D01*
X32334Y-55724D01*
X32445Y-55725D01*
X32520Y-55650D01*
X32520Y-55230D01*
X32520Y-55180D01*
X32520Y-55070D01*
X32520Y-55020D01*
X32520Y-54600D01*
X32445Y-54525D01*
X32334Y-54526D01*
X32215Y-54526D01*
X32105Y-54572D01*
X32021Y-54656D01*
X31980Y-54754D01*
X31925Y-54699D01*
X31925Y-53575D01*
X31898Y-53441D01*
X31822Y-53328D01*
X31822Y-53327D01*
X30750Y-52255D01*
X30750Y-52222D01*
X30815Y-52250D01*
X30984Y-52250D01*
X31140Y-52186D01*
X31260Y-52066D01*
X31325Y-51910D01*
X31325Y-51741D01*
X31299Y-51678D01*
X31507Y-51678D01*
X31706Y-51596D01*
X31805Y-51495D01*
X31847Y-51595D01*
X31931Y-51679D01*
X32041Y-51724D01*
X32270Y-51725D01*
X32345Y-51650D01*
X32345Y-51080D01*
X32345Y-51030D01*
X32345Y-50920D01*
X32455Y-50920D01*
X32455Y-51030D01*
X32455Y-51080D01*
X32455Y-51650D01*
X32530Y-51725D01*
X32759Y-51724D01*
X32869Y-51679D01*
X32953Y-51595D01*
X32994Y-51496D01*
X33094Y-51595D01*
X33100Y-51597D01*
X33100Y-52350D01*
X33123Y-52465D01*
X33188Y-52562D01*
X33437Y-52812D01*
X33438Y-52812D01*
X33535Y-52877D01*
X33611Y-52892D01*
X33550Y-53040D01*
X33550Y-53209D01*
X33614Y-53365D01*
X33734Y-53485D01*
X33890Y-53550D01*
X34059Y-53550D01*
X34215Y-53486D01*
X34226Y-53475D01*
X35105Y-53475D01*
X35325Y-53694D01*
X35325Y-54900D01*
X35352Y-55034D01*
X35400Y-55105D01*
X35400Y-55134D01*
X35464Y-55290D01*
X35584Y-55410D01*
X35740Y-55475D01*
X35909Y-55475D01*
X36065Y-55411D01*
X36089Y-55386D01*
X36110Y-55436D01*
X36264Y-55590D01*
X36466Y-55674D01*
X36684Y-55674D01*
X36886Y-55590D01*
X37040Y-55436D01*
X37075Y-55351D01*
X37110Y-55436D01*
X37264Y-55590D01*
X37466Y-55674D01*
X37684Y-55674D01*
X37886Y-55590D01*
X38040Y-55436D01*
X38075Y-55351D01*
X38110Y-55436D01*
X38264Y-55590D01*
X38466Y-55674D01*
X38684Y-55674D01*
X38886Y-55590D01*
X39040Y-55436D01*
X39075Y-55351D01*
X39110Y-55436D01*
X39264Y-55590D01*
X39466Y-55674D01*
X39684Y-55674D01*
X39886Y-55590D01*
X40040Y-55436D01*
X40075Y-55351D01*
X40110Y-55436D01*
X40264Y-55590D01*
X40466Y-55674D01*
X40684Y-55674D01*
X40886Y-55590D01*
X41040Y-55436D01*
X41075Y-55351D01*
X41110Y-55436D01*
X41264Y-55590D01*
X41466Y-55674D01*
X41581Y-55674D01*
X41581Y-55674D01*
G37*
G54D45*
X41581Y-55674D02*
X41380Y-55875D01*
X35124Y-55875D01*
X35124Y-55234D01*
X35124Y-55016D01*
X35040Y-54814D01*
X34886Y-54660D01*
X34684Y-54576D01*
X34466Y-54576D01*
X34264Y-54660D01*
X34169Y-54754D01*
X34129Y-54656D01*
X34045Y-54572D01*
X33935Y-54526D01*
X33816Y-54526D01*
X33705Y-54525D01*
X33630Y-54600D01*
X33630Y-55020D01*
X33630Y-55070D01*
X33630Y-55180D01*
X33630Y-55230D01*
X33630Y-55650D01*
X33705Y-55725D01*
X33816Y-55724D01*
X33935Y-55724D01*
X34045Y-55678D01*
X34129Y-55594D01*
X34169Y-55495D01*
X34264Y-55590D01*
X34466Y-55674D01*
X34684Y-55674D01*
X34886Y-55590D01*
X35040Y-55436D01*
X35124Y-55234D01*
X35124Y-55875D01*
X33520Y-55875D01*
X33520Y-55650D01*
X33520Y-55180D01*
X33520Y-55070D01*
X33520Y-54600D01*
X33445Y-54525D01*
X33334Y-54526D01*
X33215Y-54526D01*
X33105Y-54572D01*
X33075Y-54602D01*
X33045Y-54572D01*
X32935Y-54526D01*
X32816Y-54526D01*
X32705Y-54525D01*
X32630Y-54600D01*
X32630Y-55070D01*
X33050Y-55070D01*
X33100Y-55070D01*
X33520Y-55070D01*
X33520Y-55180D01*
X33100Y-55180D01*
X33050Y-55180D01*
X32630Y-55180D01*
X32630Y-55650D01*
X32705Y-55725D01*
X32816Y-55724D01*
X32935Y-55724D01*
X33045Y-55678D01*
X33075Y-55648D01*
X33105Y-55678D01*
X33215Y-55724D01*
X33334Y-55724D01*
X33445Y-55725D01*
X33520Y-55650D01*
X33520Y-55875D01*
X31925Y-55875D01*
X31925Y-55551D01*
X31980Y-55495D01*
X32021Y-55594D01*
X32105Y-55678D01*
X32215Y-55724D01*
X32334Y-55724D01*
X32445Y-55725D01*
X32520Y-55650D01*
X32520Y-55230D01*
X32520Y-55180D01*
X32520Y-55070D01*
X32520Y-55020D01*
X32520Y-54600D01*
X32445Y-54525D01*
X32334Y-54526D01*
X32215Y-54526D01*
X32105Y-54572D01*
X32021Y-54656D01*
X31980Y-54754D01*
X31925Y-54699D01*
X31925Y-53575D01*
X31898Y-53441D01*
X31822Y-53328D01*
X31822Y-53327D01*
X30750Y-52255D01*
X30750Y-52222D01*
X30815Y-52250D01*
X30984Y-52250D01*
X31140Y-52186D01*
X31260Y-52066D01*
X31325Y-51910D01*
X31325Y-51741D01*
X31299Y-51678D01*
X31507Y-51678D01*
X31706Y-51596D01*
X31805Y-51495D01*
X31847Y-51595D01*
X31931Y-51679D01*
X32041Y-51724D01*
X32270Y-51725D01*
X32345Y-51650D01*
X32345Y-51080D01*
X32345Y-51030D01*
X32345Y-50920D01*
X32455Y-50920D01*
X32455Y-51030D01*
X32455Y-51080D01*
X32455Y-51650D01*
X32530Y-51725D01*
X32759Y-51724D01*
X32869Y-51679D01*
X32953Y-51595D01*
X32994Y-51496D01*
X33094Y-51595D01*
X33100Y-51597D01*
X33100Y-52350D01*
X33123Y-52465D01*
X33188Y-52562D01*
X33437Y-52812D01*
X33438Y-52812D01*
X33535Y-52877D01*
X33611Y-52892D01*
X33550Y-53040D01*
X33550Y-53209D01*
X33614Y-53365D01*
X33734Y-53485D01*
X33890Y-53550D01*
X34059Y-53550D01*
X34215Y-53486D01*
X34226Y-53475D01*
X35105Y-53475D01*
X35325Y-53694D01*
X35325Y-54900D01*
X35352Y-55034D01*
X35400Y-55105D01*
X35400Y-55134D01*
X35464Y-55290D01*
X35584Y-55410D01*
X35740Y-55475D01*
X35909Y-55475D01*
X36065Y-55411D01*
X36089Y-55386D01*
X36110Y-55436D01*
X36264Y-55590D01*
X36466Y-55674D01*
X36684Y-55674D01*
X36886Y-55590D01*
X37040Y-55436D01*
X37075Y-55351D01*
X37110Y-55436D01*
X37264Y-55590D01*
X37466Y-55674D01*
X37684Y-55674D01*
X37886Y-55590D01*
X38040Y-55436D01*
X38075Y-55351D01*
X38110Y-55436D01*
X38264Y-55590D01*
X38466Y-55674D01*
X38684Y-55674D01*
X38886Y-55590D01*
X39040Y-55436D01*
X39075Y-55351D01*
X39110Y-55436D01*
X39264Y-55590D01*
X39466Y-55674D01*
X39684Y-55674D01*
X39886Y-55590D01*
X40040Y-55436D01*
X40075Y-55351D01*
X40110Y-55436D01*
X40264Y-55590D01*
X40466Y-55674D01*
X40684Y-55674D01*
X40886Y-55590D01*
X41040Y-55436D01*
X41075Y-55351D01*
X41110Y-55436D01*
X41264Y-55590D01*
X41466Y-55674D01*
X41581Y-55674D01*
G54D10*
G36*
X41850Y-39537D02*
X41760Y-39500D01*
X41591Y-39500D01*
X41520Y-39529D01*
X41520Y-39325D01*
X41520Y-38855D01*
X41100Y-38855D01*
X41050Y-38855D01*
X40630Y-38855D01*
X40630Y-39325D01*
X40705Y-39400D01*
X40934Y-39399D01*
X41044Y-39354D01*
X41075Y-39323D01*
X41106Y-39354D01*
X41216Y-39399D01*
X41445Y-39400D01*
X41520Y-39325D01*
X41520Y-39529D01*
X41435Y-39564D01*
X41374Y-39625D01*
X40651Y-39625D01*
X40591Y-39565D01*
X40435Y-39500D01*
X40266Y-39500D01*
X40110Y-39564D01*
X39990Y-39684D01*
X39925Y-39840D01*
X39925Y-40009D01*
X39989Y-40165D01*
X40049Y-40225D01*
X39990Y-40284D01*
X39925Y-40440D01*
X39925Y-40575D01*
X38550Y-40575D01*
X38435Y-40598D01*
X38338Y-40663D01*
X38337Y-40663D01*
X38337Y-40664D01*
X37988Y-41013D01*
X37923Y-41110D01*
X37900Y-41225D01*
X37900Y-43349D01*
X37886Y-43335D01*
X37684Y-43251D01*
X37466Y-43251D01*
X37264Y-43335D01*
X37169Y-43429D01*
X37129Y-43331D01*
X37045Y-43247D01*
X36935Y-43201D01*
X36816Y-43201D01*
X36705Y-43200D01*
X36630Y-43275D01*
X36630Y-43695D01*
X36630Y-43745D01*
X36630Y-43855D01*
X36520Y-43855D01*
X36520Y-43745D01*
X36520Y-43695D01*
X36520Y-43275D01*
X36445Y-43200D01*
X36334Y-43201D01*
X36215Y-43201D01*
X36125Y-43238D01*
X36125Y-39126D01*
X36264Y-39265D01*
X36466Y-39349D01*
X36684Y-39349D01*
X36886Y-39265D01*
X37040Y-39111D01*
X37075Y-39026D01*
X37110Y-39111D01*
X37264Y-39265D01*
X37466Y-39349D01*
X37684Y-39349D01*
X37886Y-39265D01*
X38040Y-39111D01*
X38075Y-39026D01*
X38110Y-39111D01*
X38264Y-39265D01*
X38466Y-39349D01*
X38684Y-39349D01*
X38886Y-39265D01*
X39040Y-39111D01*
X39075Y-39026D01*
X39110Y-39111D01*
X39264Y-39265D01*
X39466Y-39349D01*
X39684Y-39349D01*
X39886Y-39265D01*
X39980Y-39170D01*
X40022Y-39270D01*
X40106Y-39354D01*
X40216Y-39399D01*
X40445Y-39400D01*
X40520Y-39325D01*
X40520Y-38905D01*
X40520Y-38855D01*
X40520Y-38745D01*
X40520Y-38695D01*
X40520Y-38275D01*
X40445Y-38200D01*
X40216Y-38201D01*
X40106Y-38246D01*
X40022Y-38330D01*
X39980Y-38429D01*
X39886Y-38335D01*
X39817Y-38306D01*
X40174Y-37950D01*
X40259Y-37950D01*
X40334Y-37919D01*
X40363Y-37962D01*
X40612Y-38212D01*
X40613Y-38212D01*
X40660Y-38244D01*
X40630Y-38275D01*
X40630Y-38745D01*
X41050Y-38745D01*
X41100Y-38745D01*
X41470Y-38745D01*
X41520Y-38745D01*
X41630Y-38745D01*
X41630Y-38855D01*
X41630Y-38905D01*
X41630Y-39325D01*
X41705Y-39400D01*
X41850Y-39399D01*
X41850Y-39537D01*
X41850Y-39537D01*
G37*
G54D45*
X41850Y-39537D02*
X41760Y-39500D01*
X41591Y-39500D01*
X41520Y-39529D01*
X41520Y-39325D01*
X41520Y-38855D01*
X41100Y-38855D01*
X41050Y-38855D01*
X40630Y-38855D01*
X40630Y-39325D01*
X40705Y-39400D01*
X40934Y-39399D01*
X41044Y-39354D01*
X41075Y-39323D01*
X41106Y-39354D01*
X41216Y-39399D01*
X41445Y-39400D01*
X41520Y-39325D01*
X41520Y-39529D01*
X41435Y-39564D01*
X41374Y-39625D01*
X40651Y-39625D01*
X40591Y-39565D01*
X40435Y-39500D01*
X40266Y-39500D01*
X40110Y-39564D01*
X39990Y-39684D01*
X39925Y-39840D01*
X39925Y-40009D01*
X39989Y-40165D01*
X40049Y-40225D01*
X39990Y-40284D01*
X39925Y-40440D01*
X39925Y-40575D01*
X38550Y-40575D01*
X38435Y-40598D01*
X38338Y-40663D01*
X38337Y-40663D01*
X38337Y-40664D01*
X37988Y-41013D01*
X37923Y-41110D01*
X37900Y-41225D01*
X37900Y-43349D01*
X37886Y-43335D01*
X37684Y-43251D01*
X37466Y-43251D01*
X37264Y-43335D01*
X37169Y-43429D01*
X37129Y-43331D01*
X37045Y-43247D01*
X36935Y-43201D01*
X36816Y-43201D01*
X36705Y-43200D01*
X36630Y-43275D01*
X36630Y-43695D01*
X36630Y-43745D01*
X36630Y-43855D01*
X36520Y-43855D01*
X36520Y-43745D01*
X36520Y-43695D01*
X36520Y-43275D01*
X36445Y-43200D01*
X36334Y-43201D01*
X36215Y-43201D01*
X36125Y-43238D01*
X36125Y-39126D01*
X36264Y-39265D01*
X36466Y-39349D01*
X36684Y-39349D01*
X36886Y-39265D01*
X37040Y-39111D01*
X37075Y-39026D01*
X37110Y-39111D01*
X37264Y-39265D01*
X37466Y-39349D01*
X37684Y-39349D01*
X37886Y-39265D01*
X38040Y-39111D01*
X38075Y-39026D01*
X38110Y-39111D01*
X38264Y-39265D01*
X38466Y-39349D01*
X38684Y-39349D01*
X38886Y-39265D01*
X39040Y-39111D01*
X39075Y-39026D01*
X39110Y-39111D01*
X39264Y-39265D01*
X39466Y-39349D01*
X39684Y-39349D01*
X39886Y-39265D01*
X39980Y-39170D01*
X40022Y-39270D01*
X40106Y-39354D01*
X40216Y-39399D01*
X40445Y-39400D01*
X40520Y-39325D01*
X40520Y-38905D01*
X40520Y-38855D01*
X40520Y-38745D01*
X40520Y-38695D01*
X40520Y-38275D01*
X40445Y-38200D01*
X40216Y-38201D01*
X40106Y-38246D01*
X40022Y-38330D01*
X39980Y-38429D01*
X39886Y-38335D01*
X39817Y-38306D01*
X40174Y-37950D01*
X40259Y-37950D01*
X40334Y-37919D01*
X40363Y-37962D01*
X40612Y-38212D01*
X40613Y-38212D01*
X40660Y-38244D01*
X40630Y-38275D01*
X40630Y-38745D01*
X41050Y-38745D01*
X41100Y-38745D01*
X41470Y-38745D01*
X41520Y-38745D01*
X41630Y-38745D01*
X41630Y-38855D01*
X41630Y-38905D01*
X41630Y-39325D01*
X41705Y-39400D01*
X41850Y-39399D01*
X41850Y-39537D01*
G54D10*
G36*
X43005Y-38105D02*
X42895Y-38105D01*
X42895Y-37995D01*
X43005Y-37995D01*
X43005Y-38105D01*
X43005Y-38105D01*
G37*
G54D45*
X43005Y-38105D02*
X42895Y-38105D01*
X42895Y-37995D01*
X43005Y-37995D01*
X43005Y-38105D01*
G54D10*
G36*
X43225Y-52738D02*
X43210Y-52702D01*
X43000Y-52491D01*
X42725Y-52376D01*
X42427Y-52376D01*
X42152Y-52490D01*
X42057Y-52584D01*
X42044Y-52571D01*
X41934Y-52526D01*
X41705Y-52525D01*
X41630Y-52600D01*
X41630Y-53020D01*
X41630Y-53070D01*
X41630Y-53180D01*
X41520Y-53180D01*
X41520Y-53070D01*
X41520Y-53020D01*
X41520Y-52600D01*
X41445Y-52525D01*
X41375Y-52525D01*
X41375Y-51955D01*
X41419Y-51955D01*
X41511Y-51917D01*
X41581Y-51847D01*
X41619Y-51756D01*
X41619Y-51750D01*
X41975Y-51750D01*
X42090Y-51727D01*
X42187Y-51662D01*
X42461Y-51388D01*
X42461Y-51387D01*
X42462Y-51387D01*
X42527Y-51290D01*
X42549Y-51176D01*
X42550Y-51175D01*
X42550Y-49550D01*
X42549Y-49549D01*
X42527Y-49435D01*
X42462Y-49338D01*
X42462Y-49337D01*
X42262Y-49138D01*
X42165Y-49073D01*
X42050Y-49050D01*
X39075Y-49050D01*
X38960Y-49073D01*
X38862Y-49138D01*
X38275Y-49725D01*
X35324Y-49725D01*
X35200Y-49601D01*
X35200Y-48639D01*
X35292Y-48678D01*
X35507Y-48678D01*
X35706Y-48596D01*
X35857Y-48444D01*
X35899Y-48341D01*
X35942Y-48444D01*
X36094Y-48595D01*
X36292Y-48678D01*
X36507Y-48678D01*
X36706Y-48596D01*
X36857Y-48444D01*
X36899Y-48341D01*
X36942Y-48444D01*
X37094Y-48595D01*
X37292Y-48678D01*
X37507Y-48678D01*
X37706Y-48596D01*
X37857Y-48444D01*
X37899Y-48341D01*
X37942Y-48444D01*
X38094Y-48595D01*
X38292Y-48678D01*
X38507Y-48678D01*
X38706Y-48596D01*
X38857Y-48444D01*
X38940Y-48246D01*
X38940Y-48031D01*
X38940Y-47975D01*
X43225Y-47975D01*
X43225Y-52738D01*
X43225Y-52738D01*
G37*
G54D45*
X43225Y-52738D02*
X43210Y-52702D01*
X43000Y-52491D01*
X42725Y-52376D01*
X42427Y-52376D01*
X42152Y-52490D01*
X42057Y-52584D01*
X42044Y-52571D01*
X41934Y-52526D01*
X41705Y-52525D01*
X41630Y-52600D01*
X41630Y-53020D01*
X41630Y-53070D01*
X41630Y-53180D01*
X41520Y-53180D01*
X41520Y-53070D01*
X41520Y-53020D01*
X41520Y-52600D01*
X41445Y-52525D01*
X41375Y-52525D01*
X41375Y-51955D01*
X41419Y-51955D01*
X41511Y-51917D01*
X41581Y-51847D01*
X41619Y-51756D01*
X41619Y-51750D01*
X41975Y-51750D01*
X42090Y-51727D01*
X42187Y-51662D01*
X42461Y-51388D01*
X42461Y-51387D01*
X42462Y-51387D01*
X42527Y-51290D01*
X42549Y-51176D01*
X42550Y-51175D01*
X42550Y-49550D01*
X42549Y-49549D01*
X42527Y-49435D01*
X42462Y-49338D01*
X42462Y-49337D01*
X42262Y-49138D01*
X42165Y-49073D01*
X42050Y-49050D01*
X39075Y-49050D01*
X38960Y-49073D01*
X38862Y-49138D01*
X38275Y-49725D01*
X35324Y-49725D01*
X35200Y-49601D01*
X35200Y-48639D01*
X35292Y-48678D01*
X35507Y-48678D01*
X35706Y-48596D01*
X35857Y-48444D01*
X35899Y-48341D01*
X35942Y-48444D01*
X36094Y-48595D01*
X36292Y-48678D01*
X36507Y-48678D01*
X36706Y-48596D01*
X36857Y-48444D01*
X36899Y-48341D01*
X36942Y-48444D01*
X37094Y-48595D01*
X37292Y-48678D01*
X37507Y-48678D01*
X37706Y-48596D01*
X37857Y-48444D01*
X37899Y-48341D01*
X37942Y-48444D01*
X38094Y-48595D01*
X38292Y-48678D01*
X38507Y-48678D01*
X38706Y-48596D01*
X38857Y-48444D01*
X38940Y-48246D01*
X38940Y-48031D01*
X38940Y-47975D01*
X43225Y-47975D01*
X43225Y-52738D01*
M02*
