G04 (created by PCBNEW-RS274X (2011-12-28 BZR 3254)-stable) date 8/23/2012 6:26:50 PM*
G01*
G70*
G90*
%MOIN*%
G04 Gerber Fmt 3.4, Leading zero omitted, Abs format*
%FSLAX34Y34*%
G04 APERTURE LIST*
%ADD10C,0.006000*%
%ADD11C,0.005000*%
%ADD12R,0.080000X0.080000*%
%ADD13C,0.080000*%
%ADD14R,0.090000X0.107500*%
%ADD15R,0.036500X0.077900*%
%ADD16R,0.071200X0.079000*%
%ADD17R,0.062000X0.076000*%
%ADD18R,0.076000X0.062000*%
%ADD19R,0.079000X0.071200*%
%ADD20C,0.060000*%
%ADD21R,0.071200X0.061300*%
%ADD22R,0.043600X0.098700*%
%ADD23R,0.200000X0.160000*%
%ADD24R,0.100000X0.070000*%
%ADD25O,0.100000X0.070000*%
%ADD26R,0.074000X0.036000*%
%ADD27R,0.076000X0.083000*%
%ADD28R,0.095000X0.095000*%
%ADD29C,0.095000*%
%ADD30C,0.065000*%
%ADD31R,0.125000X0.120000*%
%ADD32R,0.050000X0.070000*%
%ADD33O,0.140000X0.200000*%
%ADD34R,0.140000X0.200000*%
%ADD35O,0.200000X0.140000*%
%ADD36O,0.050000X0.090000*%
%ADD37R,0.050000X0.050000*%
%ADD38C,0.200000*%
%ADD39C,0.120000*%
%ADD40O,0.080000X0.110000*%
%ADD41R,0.080000X0.110000*%
G04 APERTURE END LIST*
G54D10*
G54D11*
X43500Y-57000D02*
X43500Y-35000D01*
X10000Y-35000D02*
X43500Y-35000D01*
X43500Y-57000D02*
X10000Y-57000D01*
X10000Y-57000D02*
X10000Y-35000D01*
G54D12*
X18000Y-56250D03*
X18000Y-55250D03*
X18000Y-54250D03*
X18000Y-53250D03*
X18000Y-52250D03*
X18000Y-51250D03*
X18000Y-50250D03*
X18000Y-49250D03*
G54D13*
X19000Y-56250D03*
X19000Y-55250D03*
X19000Y-54250D03*
X19000Y-53250D03*
X19000Y-52250D03*
X19000Y-51250D03*
X19000Y-50250D03*
X19000Y-49250D03*
G54D14*
X12325Y-56075D03*
X10825Y-56075D03*
G54D15*
X13747Y-39098D03*
X14003Y-39098D03*
X14259Y-39098D03*
X14515Y-39098D03*
X12983Y-41300D03*
X12979Y-39098D03*
X13235Y-39098D03*
X13491Y-39098D03*
X14771Y-41302D03*
X14515Y-41302D03*
X14259Y-41302D03*
X14003Y-41302D03*
X13747Y-41302D03*
X13491Y-41302D03*
X14771Y-39098D03*
X13235Y-41300D03*
X12723Y-39098D03*
X15027Y-39098D03*
X15027Y-41302D03*
X12723Y-41302D03*
G54D16*
X12075Y-44025D03*
X12825Y-44025D03*
G54D17*
X11025Y-38250D03*
X11825Y-38250D03*
X11025Y-41300D03*
X11825Y-41300D03*
G54D18*
X28800Y-45075D03*
X28800Y-44275D03*
G54D17*
X32400Y-49300D03*
X31600Y-49300D03*
X15100Y-44925D03*
X14300Y-44925D03*
G54D18*
X29850Y-45075D03*
X29850Y-44275D03*
G54D19*
X41075Y-50700D03*
X41075Y-51450D03*
X40075Y-50700D03*
X40075Y-51450D03*
G54D20*
X11675Y-49500D03*
X11025Y-49500D03*
X10375Y-49500D03*
G54D21*
X29775Y-46700D03*
X28875Y-45950D03*
X29775Y-45950D03*
X28875Y-46700D03*
G54D22*
X16125Y-49956D03*
X15625Y-49956D03*
X15125Y-49956D03*
X14625Y-49956D03*
X14125Y-49956D03*
X13625Y-49956D03*
X13125Y-49956D03*
X12625Y-49956D03*
X12625Y-46294D03*
X13125Y-46294D03*
X13625Y-46294D03*
X14125Y-46294D03*
X14625Y-46294D03*
X15125Y-46294D03*
X15625Y-46294D03*
X16125Y-46294D03*
G54D16*
X16775Y-51700D03*
X16025Y-51700D03*
G54D23*
X22600Y-49050D03*
X22600Y-38850D03*
G54D13*
X20000Y-56250D03*
X20000Y-55250D03*
X20000Y-54250D03*
X20000Y-53250D03*
X20000Y-52250D03*
X20000Y-51250D03*
X20000Y-50250D03*
X20000Y-49250D03*
X42950Y-36050D03*
X42950Y-37050D03*
G54D12*
X42950Y-38050D03*
G54D13*
X42950Y-39050D03*
X42950Y-40050D03*
X42950Y-41050D03*
G54D24*
X31000Y-39000D03*
G54D25*
X31000Y-40000D03*
X31000Y-41000D03*
X31000Y-42000D03*
X31000Y-43000D03*
X31000Y-44000D03*
X31000Y-45000D03*
X31000Y-46000D03*
G54D24*
X32000Y-39000D03*
G54D25*
X32000Y-40000D03*
X32000Y-41000D03*
X32000Y-42000D03*
X32000Y-43000D03*
X32000Y-44000D03*
X32000Y-45000D03*
X32000Y-46000D03*
G54D26*
X11625Y-52000D03*
X11625Y-51744D03*
X11625Y-51488D03*
X11625Y-52256D03*
X11625Y-52512D03*
G54D27*
X11525Y-53250D03*
X11525Y-50750D03*
G54D28*
X10575Y-52475D03*
X10575Y-51525D03*
G54D29*
X10575Y-53300D03*
X10575Y-50700D03*
G54D13*
X37575Y-45800D03*
X36575Y-45800D03*
X37575Y-44800D03*
X36575Y-44800D03*
X37575Y-43800D03*
G54D12*
X36575Y-43800D03*
G54D30*
X11800Y-39200D03*
X11800Y-42350D03*
G54D31*
X24650Y-54500D03*
G54D32*
X25575Y-54500D03*
G54D33*
X13100Y-53450D03*
G54D34*
X15500Y-53450D03*
G54D35*
X14350Y-55450D03*
G54D13*
X10700Y-36900D03*
X10700Y-35900D03*
X11700Y-36900D03*
X11700Y-35900D03*
X12700Y-36900D03*
G54D12*
X12700Y-35900D03*
G54D13*
X13700Y-36900D03*
X13700Y-35900D03*
X14700Y-36900D03*
X14700Y-35900D03*
X15700Y-36900D03*
X15700Y-35900D03*
X16700Y-36900D03*
X16700Y-35900D03*
X17700Y-36900D03*
X17700Y-35900D03*
X18700Y-36900D03*
X18700Y-35900D03*
X19700Y-36900D03*
X19700Y-35900D03*
X20700Y-36900D03*
X20700Y-35900D03*
X21700Y-36900D03*
X21700Y-35900D03*
X22700Y-36900D03*
X22700Y-35900D03*
X34575Y-43800D03*
X34575Y-44800D03*
X34575Y-45800D03*
X41575Y-54125D03*
X40575Y-54125D03*
X39575Y-54125D03*
X38575Y-54125D03*
X37575Y-54125D03*
X36575Y-54125D03*
G54D12*
X41575Y-53125D03*
X40575Y-53125D03*
X39575Y-53125D03*
X38575Y-53125D03*
X37575Y-53125D03*
X36575Y-53125D03*
G54D36*
X11950Y-45075D03*
X10950Y-45075D03*
X11450Y-46275D03*
G54D37*
X10950Y-45675D03*
X11450Y-45675D03*
X11950Y-45675D03*
G54D12*
X41575Y-38800D03*
X40575Y-38800D03*
G54D13*
X39575Y-38800D03*
X38575Y-38800D03*
X37575Y-38800D03*
X36575Y-38800D03*
X41575Y-55125D03*
X40575Y-55125D03*
X39575Y-55125D03*
X36575Y-55125D03*
X37575Y-55125D03*
X38575Y-55125D03*
X34575Y-55125D03*
G54D12*
X33575Y-55125D03*
X32575Y-55125D03*
G54D13*
X30575Y-55125D03*
X29575Y-55125D03*
X41575Y-36125D03*
X40575Y-36125D03*
X39575Y-36125D03*
X38575Y-36125D03*
X37575Y-36125D03*
X36575Y-36125D03*
X35575Y-36125D03*
X34575Y-36125D03*
X32975Y-36125D03*
X31975Y-36125D03*
X30975Y-36125D03*
X29975Y-36125D03*
X28975Y-36125D03*
X27975Y-36125D03*
G54D12*
X26975Y-36125D03*
G54D13*
X25975Y-36125D03*
X31575Y-55125D03*
G54D38*
X22075Y-55125D03*
G54D39*
X42575Y-53125D03*
G54D13*
X28575Y-55125D03*
X27575Y-55125D03*
X24975Y-36125D03*
X23975Y-36125D03*
G54D40*
X37400Y-47975D03*
X36400Y-47975D03*
X35400Y-47975D03*
X34400Y-47975D03*
X33400Y-47975D03*
X32400Y-47975D03*
G54D41*
X31400Y-47975D03*
G54D40*
X30400Y-47975D03*
X29400Y-47975D03*
X28400Y-47975D03*
X27400Y-47975D03*
X26400Y-47975D03*
X25400Y-47975D03*
X38400Y-47975D03*
X25400Y-50975D03*
X26400Y-50975D03*
X27400Y-50975D03*
X28400Y-50975D03*
X29400Y-50975D03*
X30400Y-50975D03*
X31400Y-50975D03*
G54D41*
X32400Y-50975D03*
G54D40*
X33400Y-50975D03*
X34400Y-50975D03*
X35400Y-50975D03*
X36400Y-50975D03*
X37400Y-50975D03*
X38400Y-50975D03*
M02*
