M48
INCH,TZ
T1C0.025
T2C0.035
T3C0.040
T4C0.046
T5C0.050
T6C0.080
T7C0.120
%
G90
G05
T1
X10350Y-43700
X10375Y-49500
X10825Y-54225
X11025Y-49500
X11050Y-39125
X11675Y-49500
X12300Y-46300
X12350Y-42850
X12625Y-47475
X13225Y-40200
X13350Y-43325
X13800Y-52225
X14225Y-40575
X14499Y-42135
X14700Y-44300
X15025Y-43025
X15200Y-40600
X15275Y-51225
X15500Y-38825
X15625Y-49200
X16600Y-48025
X16650Y-49250
X16975Y-45525
X17025Y-42675
X17075Y-44125
X17525Y-42675
X17775Y-43500
X18000Y-40250
X18150Y-41225
X18750Y-40225
X19500Y-44575
X19500Y-48075
X19550Y-38825
X19775Y-43600
X20000Y-44575
X20400Y-46550
X20550Y-38675
X20800Y-48700
X20950Y-38325
X21275Y-40375
X21300Y-42525
X21300Y-43275
X22200Y-35350
X22200Y-43725
X22600Y-47025
X23025Y-53600
X23150Y-47475
X23350Y-40875
X23375Y-45950
X23725Y-47475
X23800Y-42525
X24125Y-46300
X24450Y-37075
X24450Y-38325
X24625Y-49500
X24650Y-53600
X25100Y-41275
X25275Y-39300
X25275Y-40300
X25400Y-42450
X25575Y-41625
X25925Y-38450
X25925Y-42550
X25950Y-55200
X26100Y-47100
X26550Y-46700
X26850Y-53475
X27275Y-42925
X27625Y-42550
X27800Y-44500
X27825Y-41275
X27925Y-45350
X28175Y-41625
X28900Y-52225
X29325Y-43775
X29350Y-41975
X29425Y-38050
X29700Y-43300
X30075Y-54300
X30450Y-53150
X30550Y-46525
X30900Y-51825
X32400Y-53125
X32875Y-45325
X32950Y-39850
X32975Y-38050
X33375Y-42300
X33400Y-46175
X33975Y-53125
X34575Y-42300
X34925Y-38500
X35400Y-40825
X35825Y-38350
X35825Y-55050
X40175Y-37525
X40350Y-39925
X40350Y-40525
X41075Y-37525
X41575Y-49950
X41675Y-39925
X41675Y-40525
T2
X11800Y-39200
X11800Y-42350
X25400Y-47975
X25400Y-50975
X26400Y-47975
X26400Y-50975
X27400Y-47975
X27400Y-50975
X28400Y-47975
X28400Y-50975
X29400Y-47975
X29400Y-50975
X30400Y-47975
X30400Y-50975
X31400Y-47975
X31400Y-50975
X32400Y-47975
X32400Y-50975
X33400Y-47975
X33400Y-50975
X34400Y-47975
X34400Y-50975
X35400Y-47975
X35400Y-50975
X36400Y-47975
X36400Y-50975
X37400Y-47975
X37400Y-50975
X38400Y-47975
X38400Y-50975
T3
X10700Y-35900
X10700Y-36900
X11700Y-35900
X11700Y-36900
X12700Y-35900
X12700Y-36900
X13700Y-35900
X13700Y-36900
X14700Y-35900
X14700Y-36900
X15700Y-35900
X15700Y-36900
X16700Y-35900
X16700Y-36900
X17700Y-35900
X17700Y-36900
X18000Y-49250
X18000Y-50250
X18000Y-51250
X18000Y-52250
X18000Y-53250
X18000Y-54250
X18000Y-55250
X18000Y-56250
X18700Y-35900
X18700Y-36900
X19000Y-49250
X19000Y-50250
X19000Y-51250
X19000Y-52250
X19000Y-53250
X19000Y-54250
X19000Y-55250
X19000Y-56250
X19700Y-35900
X19700Y-36900
X20000Y-49250
X20000Y-50250
X20000Y-51250
X20000Y-52250
X20000Y-53250
X20000Y-54250
X20000Y-55250
X20000Y-56250
X20700Y-35900
X20700Y-36900
X21700Y-35900
X21700Y-36900
X22700Y-35900
X22700Y-36900
X23975Y-36125
X24975Y-36125
X25975Y-36125
X26975Y-36125
X27575Y-55125
X27975Y-36125
X28575Y-55125
X28975Y-36125
X29575Y-55125
X29975Y-36125
X30575Y-55125
X30975Y-36125
X31000Y-39000
X31000Y-40000
X31000Y-41000
X31000Y-42000
X31000Y-43000
X31000Y-44000
X31000Y-45000
X31000Y-46000
X31575Y-55125
X31975Y-36125
X32000Y-39000
X32000Y-40000
X32000Y-41000
X32000Y-42000
X32000Y-43000
X32000Y-44000
X32000Y-45000
X32000Y-46000
X32575Y-55125
X32975Y-36125
X33575Y-55125
X34575Y-36125
X34575Y-43800
X34575Y-44800
X34575Y-45800
X34575Y-55125
X35575Y-36125
X36575Y-36125
X36575Y-38800
X36575Y-43800
X36575Y-44800
X36575Y-45800
X36575Y-53125
X36575Y-54125
X36575Y-55125
X37575Y-36125
X37575Y-38800
X37575Y-43800
X37575Y-44800
X37575Y-45800
X37575Y-53125
X37575Y-54125
X37575Y-55125
X38575Y-36125
X38575Y-38800
X38575Y-53125
X38575Y-54125
X38575Y-55125
X39575Y-36125
X39575Y-38800
X39575Y-53125
X39575Y-54125
X39575Y-55125
X40575Y-36125
X40575Y-38800
X40575Y-53125
X40575Y-54125
X40575Y-55125
X41575Y-36125
X41575Y-38800
X41575Y-53125
X41575Y-54125
X41575Y-55125
X42950Y-36050
X42950Y-37050
X42950Y-38050
X42950Y-39050
X42950Y-40050
X42950Y-41050
T5
X10575Y-50700
X10575Y-53300
T6
X42575Y-53125
T7
X22075Y-55125
T4
X13100Y-52980G85X13100Y-53920
G05
X13880Y-55450G85X14820Y-55450
G05
X15500Y-52880G85X15500Y-54020
G05
T0
M30
