<?xml version="1.0" standalone="no"?>
 <!DOCTYPE svg PUBLIC "-//W3C//DTD SVG 1.1//EN" 
 "http://www.w3.org/Graphics/SVG/1.1/DTD/svg11.dtd"> 
<svg xmlns="http://www.w3.org/2000/svg" version="1.1" 
    width="29.7002cm" height="21.0007cm" viewBox="0 0 116930 82680 ">
<title>SVG Picture created as uControl_v2_tjs-F_Cu.svg date 2013/08/21 19:13:31 </title>
  <desc>Picture generated by PCBNEW </desc>
<g style="fill:#000000; fill-opacity:1;stroke:#000000; stroke-opacity:1;
stroke-linecap:round; stroke-linejoin:round; "
 transform="translate(0 0) scale(1 1)">
</g>
<g style="fill:#000000; fill-opacity:0.0; 
stroke:#000000; stroke-width:39.3701; stroke-opacity:1; 
stroke-linecap:round; stroke-linejoin:round;">
<rect x="-845466" y="-845466" width="0" height="0" rx="0" />
<rect x="-845466" y="-845466" width="0" height="0" rx="0" />
<path d="M-845466 -845466
L-845466 -845466
" />
<path d="M-845466 -845466
L-845466 -845466
" />
<path d="M-845466 -845466
L-845466 -845466
" />
<path d="M-845466 -845466
L-845466 -845466
" />
<path d="M-845466 -845466
L-845466 -845466
" />
<path d="M-845353 -845227
L-845269 -845199
L-845128 -845199
L-845072 -845227
L-845044 -845255
L-845016 -845311
L-845016 -845367
L-845044 -845423
L-845072 -845451
L-845128 845451
L-845241 845423
L-845297 845395
L-845325 845367
L-845353 845311
L-845353 845255
L-845325 845199
L-845297 845171
L-845241 845142
L-845100 845142
L-845016 845171
" />
<path d="M-844763 -845199
L-844763 845142
" />
<path d="M-844510 -845199
L-844510 845423
L-844538 845367
L-844595 845339
L-844679 845339
L-844735 845367
L-844763 845395
" />
<path d="M-844005 -845227
L-844061 -845199
L-844173 -845199
L-844229 -845227
L-844257 -845283
L-844257 845423
L-844229 845367
L-844173 845339
L-844061 845339
L-844005 845367
L-843976 845423
L-843976 -845451
L-844257 -845395
" />
<path d="M-843499 -845227
L-843555 -845199
L-843667 -845199
L-843724 -845227
L-843752 -845283
L-843752 845423
L-843724 845367
L-843667 845339
L-843555 845339
L-843499 845367
L-843471 845423
L-843471 -845451
L-843752 -845395
" />
<path d="M-843302 845339
L-843077 845339
" />
<path d="M-843218 845142
L-843218 -845283
L-843190 -845227
L-843134 -845199
L-843077 -845199
" />
<path d="M-842881 -845255
L-842853 -845227
L-842881 -845199
L-842909 -845227
L-842881 -845255
L-842881 -845199
" />
<path d="M-842881 845367
L-842853 845395
L-842881 845423
L-842909 845395
L-842881 845367
L-842881 845423
" />
<path d="M-841729 845114
L-842235 -845058
" />
<path d="M-841532 -845199
L-841532 845142
" />
<path d="M-841279 -845199
L-841279 845423
L-841307 845367
L-841364 845339
L-841448 845339
L-841504 845367
L-841532 845395
" />
<path d="M-840914 -845199
L-840970 -845227
L-840998 -845255
L-841026 -845311
L-841026 845451
L-840998 845395
L-840970 845367
L-840914 845339
L-840830 845339
L-840774 845367
L-840746 845395
L-840717 845451
L-840717 -845311
L-840746 -845255
L-840774 -845227
L-840830 -845199
L-840914 -845199
" />
<path d="M-840465 -845199
L-840465 845339
" />
<path d="M-840465 845395
L-840436 845367
L-840380 845339
L-840296 845339
L-840240 845367
L-840212 845423
L-840212 -845199
" />
<path d="M-840212 845423
L-840184 845367
L-840127 845339
L-840043 845339
L-839987 845367
L-839959 845423
L-839959 -845199
" />
<path d="M-839453 -845227
L-839509 -845199
L-839622 -845199
L-839678 -845227
L-839706 -845283
L-839706 845423
L-839678 845367
L-839622 845339
L-839509 845339
L-839453 845367
L-839425 845423
L-839425 -845451
L-839706 -845395
" />
<path d="M-838751 845114
L-839256 -845058
" />
<path d="M-838554 845339
L-838554 -845086
L-838582 -845030
L-838638 -845002
L-838666 -845002
" />
<path d="M-838554 845142
L-838582 845171
L-838554 845199
L-838526 845171
L-838554 845142
L-838554 845199
" />
<path d="M-838020 845339
L-838020 -845199
" />
<path d="M-838273 845339
L-838273 -845283
L-838245 -845227
L-838189 -845199
L-838105 -845199
L-838048 -845227
L-838020 -845255
" />
<path d="M-837767 -845227
L-837711 -845199
L-837599 -845199
L-837543 -845227
L-837515 -845283
L-837515 -845311
L-837543 -845367
L-837599 -845395
L-837683 -845395
L-837739 -845423
L-837767 845451
L-837767 845423
L-837739 845367
L-837683 845339
L-837599 845339
L-837543 845367
" />
<path d="M-837346 845339
L-837121 845339
" />
<path d="M-837262 845142
L-837262 -845283
L-837234 -845227
L-837177 -845199
L-837121 -845199
" />
<path d="M-836925 -845199
L-836925 845339
" />
<path d="M-836925 845142
L-836953 845171
L-836925 845199
L-836896 845171
L-836925 845142
L-836925 845199
" />
<path d="M-836644 845339
L-836644 -845199
" />
<path d="M-836644 845395
L-836616 845367
L-836559 845339
L-836475 845339
L-836419 845367
L-836391 845423
L-836391 -845199
" />
<path d="M-835688 845114
L-836194 -845058
" />
<path d="M-835239 -845227
L-835295 -845199
L-835407 -845199
L-835464 -845227
L-835492 -845255
L-835520 -845311
L-835520 845451
L-835492 845395
L-835464 845367
L-835407 845339
L-835295 845339
L-835239 845367
" />
<path d="M-834902 -845199
L-834958 -845227
L-834986 -845255
L-835014 -845311
L-835014 845451
L-834986 845395
L-834958 845367
L-834902 845339
L-834817 845339
L-834761 845367
L-834733 845395
L-834705 845451
L-834705 -845311
L-834733 -845255
L-834761 -845227
L-834817 -845199
L-834902 -845199
" />
<path d="M-834199 -845199
L-834199 845142
" />
<path d="M-834199 -845227
L-834256 -845199
L-834368 -845199
L-834424 -845227
L-834452 -845255
L-834480 -845311
L-834480 845451
L-834452 845395
L-834424 845367
L-834368 845339
L-834256 845339
L-834199 845367
" />
<path d="M-833694 -845227
L-833750 -845199
L-833862 -845199
L-833918 -845227
L-833946 -845283
L-833946 845423
L-833918 845367
L-833862 845339
L-833750 845339
L-833694 845367
L-833666 845423
L-833666 -845451
L-833946 -845395
" />
<path d="M-832991 845114
L-833497 -845058
" />
<path d="M-832542 -845227
L-832598 -845199
L-832710 -845199
L-832766 -845227
L-832795 -845255
L-832823 -845311
L-832823 845451
L-832795 845395
L-832766 845367
L-832710 845339
L-832598 845339
L-832542 845367
" />
<path d="M-832205 -845199
L-832261 -845227
L-832289 -845283
L-832289 845142
" />
<path d="M-831896 -845199
L-831952 -845227
L-831980 -845255
L-832008 -845311
L-832008 845451
L-831980 845395
L-831952 845367
L-831896 845339
L-831811 845339
L-831755 845367
L-831727 845395
L-831699 845451
L-831699 -845311
L-831727 -845255
L-831755 -845227
L-831811 -845199
L-831896 -845199
" />
<path d="M-831193 -845227
L-831249 -845199
L-831362 -845199
L-831418 -845227
L-831446 -845255
L-831474 -845311
L-831474 845451
L-831446 845395
L-831418 845367
L-831362 845339
L-831249 845339
L-831193 845367
" />
<path d="M-830940 -845199
L-830940 845142
" />
<path d="M-830884 -845423
L-830716 -845199
" />
<path d="M-830716 845339
L-830940 -845367
" />
<path d="M-830547 845339
L-830322 845339
" />
<path d="M-830463 845142
L-830463 -845283
L-830435 -845227
L-830378 -845199
L-830322 -845199
" />
<path d="M-830126 -845199
L-830126 845142
" />
<path d="M-829873 -845199
L-829873 845423
L-829901 845367
L-829957 845339
L-830041 845339
L-830097 845367
L-830126 845395
" />
<path d="M-829592 -845199
L-829592 845339
" />
<path d="M-829592 845451
L-829564 845395
L-829536 845367
L-829479 845339
L-829423 845339
" />
<path d="M-829002 -845227
L-829058 -845199
L-829170 -845199
L-829226 -845227
L-829255 -845283
L-829255 845423
L-829226 845367
L-829170 845339
L-829058 845339
L-829002 845367
L-828974 845423
L-828974 -845451
L-829255 -845395
" />
<path d="M-828496 -845227
L-828552 -845199
L-828665 -845199
L-828721 -845227
L-828749 -845283
L-828749 845423
L-828721 845367
L-828665 845339
L-828552 845339
L-828496 845367
L-828468 845423
L-828468 -845451
L-828749 -845395
" />
<path d="M-827794 845114
L-828299 -845058
" />
<path d="M-827597 -845199
L-827597 845142
" />
<path d="M-827260 -845199
L-827513 845395
" />
<path d="M-827260 845142
L-827597 -845451
" />
<path d="M-827007 -845199
L-827007 845339
" />
<path d="M-827007 845142
L-827035 845171
L-827007 845199
L-826979 845171
L-827007 845142
L-827007 845199
" />
<path d="M-826389 -845255
L-826417 -845227
L-826501 -845199
L-826557 -845199
L-826642 -845227
L-826698 -845283
L-826726 -845339
L-826754 -845451
L-826754 845395
L-826726 845283
L-826698 845227
L-826642 845171
L-826557 845142
L-826501 845142
L-826417 845171
L-826389 845199
" />
<path d="M-825883 -845199
L-825883 845423
L-825911 845367
L-825967 845339
L-826080 845339
L-826136 845367
" />
<path d="M-825883 -845227
L-825939 -845199
L-826080 -845199
L-826136 -845227
L-826164 -845283
L-826164 -845339
L-826136 -845395
L-826080 -845423
L-825939 -845423
L-825883 -845451
" />
<path d="M-825349 -845199
L-825349 845142
" />
<path d="M-825349 -845227
L-825406 -845199
L-825518 -845199
L-825574 -845227
L-825602 -845255
L-825630 -845311
L-825630 845451
L-825602 845395
L-825574 845367
L-825518 845339
L-825406 845339
L-825349 845367
" />
<path d="M-824647 845114
L-825153 -845058
" />
<path d="M-824197 845339
L-824197 -845199
" />
<path d="M-824450 845339
L-824450 -845283
L-824422 -845227
L-824366 -845199
L-824282 -845199
L-824226 -845227
L-824197 -845255
" />
<path d="M-823579 -845255
L-823607 -845227
L-823692 -845199
L-823748 -845199
L-823832 -845227
L-823888 -845283
L-823916 -845339
L-823945 -845451
L-823945 845395
L-823916 845283
L-823888 845227
L-823832 845171
L-823748 845142
L-823692 845142
L-823607 845171
L-823579 845199
" />
<path d="M-823242 -845199
L-823298 -845227
L-823326 -845255
L-823355 -845311
L-823355 845451
L-823326 845395
L-823298 845367
L-823242 845339
L-823158 845339
L-823102 845367
L-823074 845395
L-823046 845451
L-823046 -845311
L-823074 -845255
L-823102 -845227
L-823158 -845199
L-823242 -845199
" />
<path d="M-822793 845339
L-822793 -845199
" />
<path d="M-822793 845395
L-822765 845367
L-822708 845339
L-822624 845339
L-822568 845367
L-822540 845423
L-822540 -845199
" />
<path d="M-822343 845339
L-822118 845339
" />
<path d="M-822259 845142
L-822259 -845283
L-822231 -845227
L-822175 -845199
L-822118 -845199
" />
<path d="M-821922 -845199
L-821922 845339
" />
<path d="M-821922 845451
L-821894 845395
L-821866 845367
L-821809 845339
L-821753 845339
" />
<path d="M-821472 -845199
L-821528 -845227
L-821556 -845255
L-821585 -845311
L-821585 845451
L-821556 845395
L-821528 845367
L-821472 845339
L-821388 845339
L-821332 845367
L-821304 845395
L-821276 845451
L-821276 -845311
L-821304 -845255
L-821332 -845227
L-821388 -845199
L-821472 -845199
" />
<path d="M-820938 -845199
L-820995 -845227
L-821023 -845283
L-821023 845142
" />
<path d="M-820854 -845142
L-820405 -845142
" />
<path d="M-820320 845339
L-820180 -845199
L-820039 845339
" />
<path d="M-819843 845199
L-819815 845171
L-819758 845142
L-819618 845142
L-819562 845171
L-819534 845199
L-819506 845255
L-819506 845311
L-819534 845395
L-819871 -845199
L-819506 -845199
" />
<path d="M-818831 845114
L-819337 -845058
" />
<path d="M-818382 845339
L-818382 -845199
" />
<path d="M-818635 845339
L-818635 -845283
L-818606 -845227
L-818550 -845199
L-818466 -845199
L-818410 -845227
L-818382 -845255
" />
<path d="M-817764 -845255
L-817792 -845227
L-817876 -845199
L-817932 -845199
L-818016 -845227
L-818073 -845283
L-818101 -845339
L-818129 -845451
L-818129 845395
L-818101 845283
L-818073 845227
L-818016 845171
L-817932 845142
L-817876 845142
L-817792 845171
L-817764 845199
" />
<path d="M-817426 -845199
L-817483 -845227
L-817511 -845255
L-817539 -845311
L-817539 845451
L-817511 845395
L-817483 845367
L-817426 845339
L-817342 845339
L-817286 845367
L-817258 845395
L-817230 845451
L-817230 -845311
L-817258 -845255
L-817286 -845227
L-817342 -845199
L-817426 -845199
" />
<path d="M-816977 845339
L-816977 -845199
" />
<path d="M-816977 845395
L-816949 845367
L-816893 845339
L-816808 845339
L-816752 845367
L-816724 845423
L-816724 -845199
" />
<path d="M-816527 845339
L-816303 845339
" />
<path d="M-816443 845142
L-816443 -845283
L-816415 -845227
L-816359 -845199
L-816303 -845199
" />
<path d="M-816106 -845199
L-816106 845339
" />
<path d="M-816106 845451
L-816078 845395
L-816050 845367
L-815994 845339
L-815937 845339
" />
<path d="M-815656 -845199
L-815713 -845227
L-815741 -845255
L-815769 -845311
L-815769 845451
L-815741 845395
L-815713 845367
L-815656 845339
L-815572 845339
L-815516 845367
L-815488 845395
L-815460 845451
L-815460 -845311
L-815488 -845255
L-815516 -845227
L-815572 -845199
L-815656 -845199
" />
<path d="M-815123 -845199
L-815179 -845227
L-815207 -845283
L-815207 845142
" />
<path d="M-815038 -845142
L-814589 -845142
" />
<path d="M-814505 845339
L-814364 -845199
L-814224 845339
" />
<path d="M-814027 845199
L-813999 845171
L-813943 845142
L-813802 845142
L-813746 845171
L-813718 845199
L-813690 845255
L-813690 845311
L-813718 845395
L-814055 -845199
L-813690 -845199
" />
<path d="M-813577 -845142
L-813128 -845142
" />
<path d="M-813072 845339
L-812847 845339
" />
<path d="M-812987 845142
L-812987 -845283
L-812959 -845227
L-812903 -845199
L-812847 -845199
" />
<path d="M-812650 845339
L-812650 -845086
L-812678 -845030
L-812735 -845002
L-812763 -845002
" />
<path d="M-812650 845142
L-812678 845171
L-812650 845199
L-812622 845171
L-812650 845142
L-812650 845199
" />
<path d="M-812397 -845227
L-812341 -845199
L-812229 -845199
L-812173 -845227
L-812145 -845283
L-812145 -845311
L-812173 -845367
L-812229 -845395
L-812313 -845395
L-812369 -845423
L-812397 845451
L-812397 845423
L-812369 845367
L-812313 845339
L-812229 845339
L-812173 845367
" />
<path d="M-811892 -845255
L-811864 -845227
L-811892 -845199
L-811920 -845227
L-811892 -845255
L-811892 -845199
" />
<path d="M-811611 -845199
L-811611 845142
" />
<path d="M-811555 -845423
L-811386 -845199
" />
<path d="M-811386 845339
L-811611 -845367
" />
<path d="M-811133 -845199
L-811133 845339
" />
<path d="M-811133 845142
L-811161 845171
L-811133 845199
L-811105 845171
L-811133 845142
L-811133 845199
" />
<path d="M-810599 -845227
L-810656 -845199
L-810768 -845199
L-810824 -845227
L-810852 -845255
L-810880 -845311
L-810880 845451
L-810852 845395
L-810824 845367
L-810768 845339
L-810656 845339
L-810599 845367
" />
<path d="M-810094 -845199
L-810094 845423
L-810122 845367
L-810178 845339
L-810290 845339
L-810346 845367
" />
<path d="M-810094 -845227
L-810150 -845199
L-810290 -845199
L-810346 -845227
L-810375 -845283
L-810375 -845339
L-810346 -845395
L-810290 -845423
L-810150 -845423
L-810094 -845451
" />
<path d="M-809560 -845199
L-809560 845142
" />
<path d="M-809560 -845227
L-809616 -845199
L-809728 -845199
L-809785 -845227
L-809813 -845255
L-809841 -845311
L-809841 845451
L-809813 845395
L-809785 845367
L-809728 845339
L-809616 845339
L-809560 845367
" />
<path d="M-809419 -845142
L-808970 -845142
" />
<path d="M-808829 845339
L-808829 -845002
" />
<path d="M-808829 845367
L-808773 845339
L-808661 845339
L-808605 845367
L-808576 845395
L-808548 845451
L-808548 -845311
L-808576 -845255
L-808605 -845227
L-808661 -845199
L-808773 -845199
L-808829 -845227
" />
<path d="M-808043 -845227
L-808099 -845199
L-808211 -845199
L-808267 -845227
L-808296 -845255
L-808324 -845311
L-808324 845451
L-808296 845395
L-808267 845367
L-808211 845339
L-808099 845339
L-808043 845367
" />
<path d="M-807790 -845199
L-807790 845142
" />
<path d="M-807790 845367
L-807734 845339
L-807621 845339
L-807565 845367
L-807537 845395
L-807509 845451
L-807509 -845311
L-807537 -845255
L-807565 -845227
L-807621 -845199
L-807734 -845199
L-807790 -845227
" />
<path d="M-845128 845423
L-845325 845423
" />
<path d="M-845325 -845199
L-845325 845142
L-845044 845142
" />
<path d="M-844819 -845199
L-844819 845339
" />
<path d="M-844819 845142
L-844847 845171
L-844819 845199
L-844791 845171
L-844819 845142
L-844819 845199
" />
<path d="M-844454 -845199
L-844510 -845227
L-844538 -845283
L-844538 845142
" />
<path d="M-844005 -845227
L-844061 -845199
L-844173 -845199
L-844229 -845227
L-844257 -845283
L-844257 845423
L-844229 845367
L-844173 845339
L-844061 845339
L-844005 845367
L-843976 845423
L-843976 -845451
L-844257 -845395
" />
<path d="M-843724 -845255
L-843696 -845227
L-843724 -845199
L-843752 -845227
L-843724 -845255
L-843724 -845199
" />
<path d="M-843724 845367
L-843696 845395
L-843724 845423
L-843752 845395
L-843724 845367
L-843724 845423
" />
</g>
<g style="fill:#000000; fill-opacity:0.0; 
stroke:#000000; stroke-width:118; stroke-opacity:1; 
stroke-linecap:round; stroke-linejoin:round;">
<path d="M-845409 845142
L-845072 845142
" />
<path d="M-845241 -845199
L-845241 845142
" />
<path d="M-844876 -845199
L-844876 845339
" />
<path d="M-844876 845142
L-844904 845171
L-844876 845199
L-844847 845171
L-844876 845142
L-844876 845199
" />
<path d="M-844679 845339
L-844454 845339
" />
<path d="M-844595 845142
L-844595 -845283
L-844566 -845227
L-844510 -845199
L-844454 -845199
" />
<path d="M-844173 -845199
L-844229 -845227
L-844257 -845283
L-844257 845142
" />
<path d="M-843724 -845227
L-843780 -845199
L-843892 -845199
L-843948 -845227
L-843976 -845283
L-843976 845423
L-843948 845367
L-843892 845339
L-843780 845339
L-843724 845367
L-843696 845423
L-843696 -845451
L-843976 -845395
" />
<path d="M-843443 -845255
L-843415 -845227
L-843443 -845199
L-843471 -845227
L-843443 -845255
L-843443 -845199
" />
<path d="M-843443 845367
L-843415 845395
L-843443 845423
L-843471 845395
L-843443 845367
L-843443 845423
" />
</g>
<g style="fill:#000000; fill-opacity:0.0; 
stroke:#000000; stroke-width:39.3701; stroke-opacity:1; 
stroke-linecap:round; stroke-linejoin:round;">
<path d="M-845325 -845199
L-845325 845142
" />
<path d="M-844791 -845199
L-844791 845142
" />
<path d="M-844791 -845227
L-844847 -845199
L-844960 -845199
L-845016 -845227
L-845044 -845255
L-845072 -845311
L-845072 845451
L-845044 845395
L-845016 845367
L-844960 845339
L-844847 845339
L-844791 845367
" />
<path d="M-844510 -845255
L-844482 -845227
L-844510 -845199
L-844538 -845227
L-844510 -845255
L-844510 -845199
" />
<path d="M-844510 845367
L-844482 845395
L-844510 845423
L-844538 845395
L-844510 845367
L-844510 845423
" />
<path d="M-843471 -845199
L-843808 -845199
" />
<path d="M-843639 -845199
L-843639 845142
L-843696 845227
L-843752 845283
L-843808 845311
" />
<path d="M-842796 845114
L-843302 -845058
" />
<path d="M-842291 -845199
L-842628 -845199
" />
<path d="M-842459 -845199
L-842459 845142
L-842516 845227
L-842572 845283
L-842628 845311
" />
<path d="M-845353 -845227
L-845269 -845199
L-845128 -845199
L-845072 -845227
L-845044 -845255
L-845016 -845311
L-845016 -845367
L-845044 -845423
L-845072 -845451
L-845128 845451
L-845241 845423
L-845297 845395
L-845325 845367
L-845353 845311
L-845353 845255
L-845325 845199
L-845297 845171
L-845241 845142
L-845100 845142
L-845016 845171
" />
<path d="M-844763 -845199
L-844763 845339
" />
<path d="M-844763 845142
L-844791 845171
L-844763 845199
L-844735 845171
L-844763 845142
L-844763 845199
" />
<path d="M-844538 845339
L-844229 845339
L-844538 -845199
L-844229 -845199
" />
<path d="M-843780 -845227
L-843836 -845199
L-843948 -845199
L-844005 -845227
L-844033 -845283
L-844033 845423
L-844005 845367
L-843948 845339
L-843836 845339
L-843780 845367
L-843752 845423
L-843752 -845451
L-844033 -845395
" />
<path d="M-843499 -845255
L-843471 -845227
L-843499 -845199
L-843527 -845227
L-843499 -845255
L-843499 -845199
" />
<path d="M-843499 845367
L-843471 845395
L-843499 845423
L-843527 845395
L-843499 845367
L-843499 845423
" />
<path d="M-842796 -845367
L-842516 -845367
" />
<path d="M-842853 -845199
L-842656 845142
L-842459 -845199
" />
<path d="M-842010 845339
L-842010 -845199
" />
<path d="M-842150 845114
L-842291 -845395
L-841926 -845395
" />
</g>
<g style="fill:#000000; fill-opacity:0.0; 
stroke:#000000; stroke-width:118; stroke-opacity:1; 
stroke-linecap:round; stroke-linejoin:round;">
<path d="M-844988 -845199
L-845185 845451
" />
<path d="M-845325 -845199
L-845325 845142
L-845100 845142
L-845044 845171
L-845016 845199
L-844988 845255
L-844988 845339
L-845016 845395
L-845044 845423
L-845100 845451
L-845325 845451
" />
<path d="M-844510 -845227
L-844566 -845199
L-844679 -845199
L-844735 -845227
L-844763 -845283
L-844763 845423
L-844735 845367
L-844679 845339
L-844566 845339
L-844510 845367
L-844482 845423
L-844482 -845451
L-844763 -845395
" />
<path d="M-844286 845339
L-844145 -845199
L-844005 845339
" />
<path d="M-843780 -845255
L-843752 -845227
L-843780 -845199
L-843808 -845227
L-843780 -845255
L-843780 -845199
" />
<path d="M-843780 845367
L-843752 845395
L-843780 845423
L-843808 845395
L-843780 845367
L-843780 845423
" />
</g>
<g style="fill:#000000; fill-opacity:0.0; 
stroke:#000000; stroke-width:39.3701; stroke-opacity:1; 
stroke-linecap:round; stroke-linejoin:round;">
<path d="M-845325 -845199
L-845325 845142
" />
<path d="M-844988 -845199
L-845241 845395
" />
<path d="M-844988 845142
L-845325 -845451
" />
<path d="M-844735 -845199
L-844735 845339
" />
<path d="M-844735 845142
L-844763 845171
L-844735 845199
L-844707 845171
L-844735 845142
L-844735 845199
" />
<path d="M-844117 -845255
L-844145 -845227
L-844229 -845199
L-844286 -845199
L-844370 -845227
L-844426 -845283
L-844454 -845339
L-844482 -845451
L-844482 845395
L-844454 845283
L-844426 845227
L-844370 845171
L-844286 845142
L-844229 845142
L-844145 845171
L-844117 845199
" />
<path d="M-843611 -845199
L-843611 845423
L-843639 845367
L-843696 845339
L-843808 845339
L-843864 845367
" />
<path d="M-843611 -845227
L-843667 -845199
L-843808 -845199
L-843864 -845227
L-843892 -845283
L-843892 -845339
L-843864 -845395
L-843808 -845423
L-843667 -845423
L-843611 -845451
" />
<path d="M-843077 -845199
L-843077 845142
" />
<path d="M-843077 -845227
L-843134 -845199
L-843246 -845199
L-843302 -845227
L-843330 -845255
L-843358 -845311
L-843358 845451
L-843330 845395
L-843302 845367
L-843246 845339
L-843134 845339
L-843077 845367
" />
<path d="M-842347 845423
L-842150 845423
" />
<path d="M-842066 -845199
L-842347 -845199
L-842347 845142
L-842066 845142
" />
<path d="M-841813 -845255
L-841785 -845227
L-841813 -845199
L-841841 -845227
L-841813 -845255
L-841813 -845199
" />
<path d="M-841532 -845199
L-841532 845142
L-841392 845142
L-841307 845171
L-841251 845227
L-841223 845283
L-841195 845395
L-841195 -845451
L-841223 -845339
L-841251 -845283
L-841307 -845227
L-841392 -845199
L-841532 -845199
" />
<path d="M-840942 -845255
L-840914 -845227
L-840942 -845199
L-840970 -845227
L-840942 -845255
L-840942 -845199
" />
<path d="M-840689 -845367
L-840408 -845367
" />
<path d="M-840746 -845199
L-840549 845142
L-840352 -845199
" />
<path d="M-840156 -845255
L-840127 -845227
L-840156 -845199
L-840184 -845227
L-840156 -845255
L-840156 -845199
" />
<path d="M-838976 845339
L-838976 -845002
" />
<path d="M-838976 845367
L-838919 845339
L-838807 845339
L-838751 845367
L-838723 845395
L-838695 845451
L-838695 -845311
L-838723 -845255
L-838751 -845227
L-838807 -845199
L-838919 -845199
L-838976 -845227
" />
<path d="M-838189 -845227
L-838245 -845199
L-838357 -845199
L-838414 -845227
L-838442 -845255
L-838470 -845311
L-838470 845451
L-838442 845395
L-838414 845367
L-838357 845339
L-838245 845339
L-838189 845367
" />
<path d="M-837936 -845199
L-837936 845142
" />
<path d="M-837936 845367
L-837880 845339
L-837767 845339
L-837711 845367
L-837683 845395
L-837655 845451
L-837655 -845311
L-837683 -845255
L-837711 -845227
L-837767 -845199
L-837880 -845199
L-837936 -845227
" />
<path d="M-837402 845339
L-837402 -845199
" />
<path d="M-837402 845395
L-837374 845367
L-837318 845339
L-837234 845339
L-837177 845367
L-837149 845423
L-837149 -845199
" />
<path d="M-836644 -845227
L-836700 -845199
L-836812 -845199
L-836868 -845227
L-836896 -845283
L-836896 845423
L-836868 845367
L-836812 845339
L-836700 845339
L-836644 845367
L-836616 845423
L-836616 -845451
L-836896 -845395
" />
<path d="M-836419 845339
L-836306 -845199
L-836194 845451
L-836082 -845199
L-835969 845339
" />
<path d="M-835126 -844974
L-835155 -845002
L-835211 -845086
L-835239 -845142
L-835267 -845227
L-835295 -845367
L-835295 845451
L-835267 845311
L-835239 845227
L-835211 845171
L-835155 845086
L-835126 845058
" />
<path d="M-834930 845199
L-834902 845171
L-834846 845142
L-834705 845142
L-834649 845171
L-834621 845199
L-834593 845255
L-834593 845311
L-834621 845395
L-834958 -845199
L-834593 -845199
" />
<path d="M-834227 845142
L-834171 845142
L-834115 845171
L-834087 845199
L-834059 845255
L-834031 845367
L-834031 -845423
L-834059 -845311
L-834087 -845255
L-834115 -845227
L-834171 -845199
L-834227 -845199
L-834284 -845227
L-834312 -845255
L-834340 -845311
L-834368 -845423
L-834368 845367
L-834340 845255
L-834312 845199
L-834284 845171
L-834227 845142
" />
<path d="M-833469 -845199
L-833806 -845199
" />
<path d="M-833637 -845199
L-833637 845142
L-833694 845227
L-833750 845283
L-833806 845311
" />
<path d="M-833272 845142
L-832907 845142
L-833104 845367
L-833019 845367
L-832963 845395
L-832935 845423
L-832907 -845451
L-832907 -845311
L-832935 -845255
L-832963 -845227
L-833019 -845199
L-833188 -845199
L-833244 -845227
L-833272 -845255
" />
<path d="M-832654 -845423
L-832205 -845423
" />
<path d="M-831924 -845199
L-831924 845339
" />
<path d="M-831924 845395
L-831896 845367
L-831839 845339
L-831755 845339
L-831699 845367
L-831671 845423
L-831671 -845199
" />
<path d="M-831671 845423
L-831643 845367
L-831586 845339
L-831502 845339
L-831446 845367
L-831418 845423
L-831418 -845199
" />
<path d="M-830884 -845199
L-830884 845423
L-830912 845367
L-830968 845339
L-831081 845339
L-831137 845367
" />
<path d="M-830884 -845227
L-830940 -845199
L-831081 -845199
L-831137 -845227
L-831165 -845283
L-831165 -845339
L-831137 -845395
L-831081 -845423
L-830940 -845423
L-830884 -845451
" />
<path d="M-830603 -845199
L-830603 845339
" />
<path d="M-830603 845451
L-830575 845395
L-830547 845367
L-830491 845339
L-830435 845339
" />
<path d="M-830238 -845423
L-829788 -845423
" />
<path d="M-829198 -845199
L-829536 -845199
" />
<path d="M-829367 -845199
L-829367 845142
L-829423 845227
L-829479 845283
L-829536 845311
" />
<path d="M-829002 845142
L-828636 845142
L-828833 845367
L-828749 845367
L-828693 845395
L-828665 845423
L-828636 -845451
L-828636 -845311
L-828665 -845255
L-828693 -845227
L-828749 -845199
L-828917 -845199
L-828974 -845227
L-829002 -845255
" />
<path d="M-828440 -844974
L-828412 -845002
L-828356 -845086
L-828327 -845142
L-828299 -845227
L-828271 -845367
L-828271 845451
L-828299 845311
L-828327 845227
L-828356 845171
L-828412 845086
L-828440 845058
" />
<path d="M-827990 -845423
L-827541 -845423
" />
<path d="M-827344 845339
L-827119 845339
" />
<path d="M-827260 845142
L-827260 -845283
L-827232 -845227
L-827176 -845199
L-827119 -845199
" />
<path d="M-826698 -845227
L-826754 -845199
L-826866 -845199
L-826923 -845227
L-826951 -845283
L-826951 845423
L-826923 845367
L-826866 845339
L-826754 845339
L-826698 845367
L-826670 845423
L-826670 -845451
L-826951 -845395
" />
<path d="M-826445 -845227
L-826389 -845199
L-826276 -845199
L-826220 -845227
L-826192 -845283
L-826192 -845311
L-826220 -845367
L-826276 -845395
L-826361 -845395
L-826417 -845423
L-826445 845451
L-826445 845423
L-826417 845367
L-826361 845339
L-826276 845339
L-826220 845367
" />
<path d="M-826024 845339
L-825799 845339
" />
<path d="M-825939 845142
L-825939 -845283
L-825911 -845227
L-825855 -845199
L-825799 -845199
" />
<path d="M-825602 -845199
L-825602 845339
" />
<path d="M-825602 845142
L-825630 845171
L-825602 845199
L-825574 845171
L-825602 845142
L-825602 845199
" />
<path d="M-825321 845339
L-825321 -845199
" />
<path d="M-825321 845395
L-825293 845367
L-825237 845339
L-825153 845339
L-825096 845367
L-825068 845423
L-825068 -845199
" />
<path d="M-824535 845339
L-824535 -845114
L-824563 -845058
L-824591 -845030
L-824647 -845002
L-824731 -845002
L-824787 -845030
" />
<path d="M-824535 -845227
L-824591 -845199
L-824703 -845199
L-824759 -845227
L-824787 -845255
L-824816 -845311
L-824816 845451
L-824787 845395
L-824759 845367
L-824703 845339
L-824591 845339
L-824535 845367
" />
<path d="M-845325 -845199
L-845325 845142
L-845185 845142
L-845100 845171
L-845044 845227
L-845016 845283
L-844988 845395
L-844988 -845451
L-845016 -845339
L-845044 -845283
L-845100 -845227
L-845185 -845199
L-845325 -845199
" />
<path d="M-844482 -845199
L-844482 845423
L-844510 845367
L-844566 845339
L-844679 845339
L-844735 845367
" />
<path d="M-844482 -845227
L-844538 -845199
L-844679 -845199
L-844735 -845227
L-844763 -845283
L-844763 -845339
L-844735 -845395
L-844679 -845423
L-844538 -845423
L-844482 -845451
" />
<path d="M-844286 845339
L-844061 845339
" />
<path d="M-844201 845142
L-844201 -845283
L-844173 -845227
L-844117 -845199
L-844061 -845199
" />
<path d="M-843639 -845227
L-843696 -845199
L-843808 -845199
L-843864 -845227
L-843892 -845283
L-843892 845423
L-843864 845367
L-843808 845339
L-843696 845339
L-843639 845367
L-843611 845423
L-843611 -845451
L-843892 -845395
" />
<path d="M-843358 -845255
L-843330 -845227
L-843358 -845199
L-843386 -845227
L-843358 -845255
L-843358 -845199
" />
<path d="M-843358 845367
L-843330 845395
L-843358 845423
L-843386 845395
L-843358 845367
L-843358 845423
" />
<path d="M-845466 -845466
L-845466 -845466
" />
<path d="M-845466 -845466
L-845466 -845466
" />
<path d="M-845466 -845466
L-845466 -845466
" />
</g>
<g style="fill:#C2C200; fill-opacity:0.0; 
stroke:#C2C200; stroke-width:50; stroke-opacity:1; 
stroke-linecap:round; stroke-linejoin:round;">
<path d="M87500 10000
L87500 70000
" />
<path d="M12500 70000
L87500 70000
" />
<path d="M12500 70000
L12500 10000
" />
<path d="M12500 10000
L87500 10000
" />
</g>
<g style="fill:#840000; fill-opacity:0.0; 
stroke:#840000; stroke-width:39.3701; stroke-opacity:1; 
stroke-linecap:round; stroke-linejoin:round;">
</g>
<g style="fill:#840000; fill-opacity:1.0; 
stroke:#840000; stroke-width:39.3701; stroke-opacity:1; 
stroke-linecap:round; stroke-linejoin:round;">
<circle cx="66299.2" cy="47815" r="180.315" /> 
<circle cx="62775.6" cy="52047.2" r="180.315" /> 
<circle cx="63563" cy="50708.7" r="180.315" /> 
<circle cx="63563" cy="53031.5" r="180.315" /> 
<circle cx="63169.3" cy="52539.4" r="180.315" /> 
<circle cx="70000" cy="59000" r="180.315" /> 
<circle cx="70000" cy="57000" r="180.315" /> 
<circle cx="70000" cy="58000" r="180.315" /> 
<circle cx="58350" cy="67350" r="330.315" /> 
<circle cx="59350" cy="67350" r="330.315" /> 
<circle cx="60350" cy="67350" r="330.315" /> 
<polyline style="fill-rule:evenodd;"
points="61019,67680
61019,67019
61680,67019
61680,67680
61019,67680
" /> 
<circle cx="63350" cy="67350" r="330.315" /> 
<circle cx="64350" cy="67350" r="330.315" /> 
<circle cx="65350" cy="67350" r="330.315" /> 
<polyline style="fill-rule:evenodd;"
points="66019,67680
66019,67019
66680,67019
66680,67680
66019,67680
" /> 
<circle cx="13825" cy="11325" r="1180.31" /> 
<circle cx="37675" cy="11325" r="1180.31" /> 
<circle cx="13825" cy="68675" r="1180.31" /> 
<circle cx="37675" cy="68675" r="1180.31" /> 
<circle cx="13825" cy="40825" r="1180.31" /> 
<circle cx="41325" cy="68675" r="1180.31" /> 
<circle cx="86175" cy="68675" r="1180.31" /> 
<circle cx="86175" cy="40825" r="1180.31" /> 
<circle cx="13825" cy="23075" r="1180.31" /> 
<circle cx="81925" cy="13325" r="1180.31" /> 
<circle cx="86175" cy="11325" r="1180.31" /> 
<circle cx="13825" cy="37175" r="1180.31" /> 
<circle cx="73375" cy="37175" r="1180.31" /> 
<circle cx="73375" cy="26725" r="1180.31" /> 
<circle cx="77025" cy="26725" r="1180.31" /> 
<circle cx="77025" cy="37175" r="1180.31" /> 
<circle cx="86175" cy="37175" r="1180.31" /> 
<circle cx="85925.2" cy="26476.4" r="1180.31" /> 
<circle cx="41325" cy="11325" r="1180.31" /> 
<circle cx="13825" cy="26725" r="1180.31" /> 
</g>
<g style="fill:#840000; fill-opacity:1.0; 
stroke:#840000; stroke-width:1200; stroke-opacity:1; 
stroke-linecap:round; stroke-linejoin:round;">
<path d="M15800 64700
L15800 65300
" />
</g>
<g style="fill:#840000; fill-opacity:1.0; 
stroke:#840000; stroke-width:39.3701; stroke-opacity:1; 
stroke-linecap:round; stroke-linejoin:round;">
<polyline style="fill-rule:evenodd;"
points="17619,65880
17619,64119
18780,64119
18780,65880
17619,65880
" /> 
</g>
<g style="fill:#840000; fill-opacity:1.0; 
stroke:#840000; stroke-width:1200; stroke-opacity:1; 
stroke-linecap:round; stroke-linejoin:round;">
<path d="M16750 67000
L17350 67000
" />
</g>
<g style="fill:#840000; fill-opacity:1.0; 
stroke:#840000; stroke-width:39.3701; stroke-opacity:1; 
stroke-linecap:round; stroke-linejoin:round;">
<polyline style="fill-rule:evenodd;"
points="68229,59073
67482,59073
67482,58876
68229,58876
68229,59073
" /> 
<polyline style="fill-rule:evenodd;"
points="68229,58573
67482,58573
67482,58376
68229,58376
68229,58573
" /> 
<polyline style="fill-rule:evenodd;"
points="68229,58073
67482,58073
67482,57876
68229,57876
68229,58073
" /> 
<polyline style="fill-rule:evenodd;"
points="68229,57573
67482,57573
67482,57376
68229,57376
68229,57573
" /> 
<polyline style="fill-rule:evenodd;"
points="68229,57073
67482,57073
67482,56876
68229,56876
68229,57073
" /> 
<polyline style="fill-rule:evenodd;"
points="68229,56573
67482,56573
67482,56376
68229,56376
68229,56573
" /> 
<polyline style="fill-rule:evenodd;"
points="68229,56073
67482,56073
67482,55876
68229,55876
68229,56073
" /> 
<polyline style="fill-rule:evenodd;"
points="68229,55573
67482,55573
67482,55376
68229,55376
68229,55573
" /> 
<polyline style="fill-rule:evenodd;"
points="64567,55573
63820,55573
63820,55376
64567,55376
64567,55573
" /> 
<polyline style="fill-rule:evenodd;"
points="64567,56073
63820,56073
63820,55876
64567,55876
64567,56073
" /> 
<polyline style="fill-rule:evenodd;"
points="64567,56573
63820,56573
63820,56376
64567,56376
64567,56573
" /> 
<polyline style="fill-rule:evenodd;"
points="64567,57073
63820,57073
63820,56876
64567,56876
64567,57073
" /> 
<polyline style="fill-rule:evenodd;"
points="64567,57573
63820,57573
63820,57376
64567,57376
64567,57573
" /> 
<polyline style="fill-rule:evenodd;"
points="64567,58073
63820,58073
63820,57876
64567,57876
64567,58073
" /> 
<polyline style="fill-rule:evenodd;"
points="64567,58573
63820,58573
63820,58376
64567,58376
64567,58573
" /> 
<polyline style="fill-rule:evenodd;"
points="64567,59073
63820,59073
63820,58876
64567,58876
64567,59073
" /> 
<polyline style="fill-rule:evenodd;"
points="47840,61608
47840,61068
47966,61068
47966,61608
47840,61608
" /> 
<polyline style="fill-rule:evenodd;"
points="48096,61608
48096,61068
48222,61068
48222,61608
48096,61608
" /> 
<polyline style="fill-rule:evenodd;"
points="48352,61608
48352,61068
48478,61068
48478,61608
48352,61608
" /> 
<polyline style="fill-rule:evenodd;"
points="48608,61608
48608,61068
48734,61068
48734,61608
48608,61608
" /> 
<polyline style="fill-rule:evenodd;"
points="47072,59404
47072,58864
47198,58864
47198,59404
47072,59404
" /> 
<polyline style="fill-rule:evenodd;"
points="47072,61608
47072,61068
47198,61068
47198,61608
47072,61608
" /> 
<polyline style="fill-rule:evenodd;"
points="47328,61608
47328,61068
47454,61068
47454,61608
47328,61608
" /> 
<polyline style="fill-rule:evenodd;"
points="47584,61608
47584,61068
47710,61068
47710,61608
47584,61608
" /> 
<polyline style="fill-rule:evenodd;"
points="48864,59404
48864,58864
48990,58864
48990,59404
48864,59404
" /> 
<polyline style="fill-rule:evenodd;"
points="48608,59404
48608,58864
48734,58864
48734,59404
48608,59404
" /> 
<polyline style="fill-rule:evenodd;"
points="48352,59404
48352,58864
48478,58864
48478,59404
48352,59404
" /> 
<polyline style="fill-rule:evenodd;"
points="48096,59404
48096,58864
48222,58864
48222,59404
48096,59404
" /> 
<polyline style="fill-rule:evenodd;"
points="47840,59404
47840,58864
47966,58864
47966,59404
47840,59404
" /> 
<polyline style="fill-rule:evenodd;"
points="47584,59404
47584,58864
47710,58864
47710,59404
47584,59404
" /> 
<polyline style="fill-rule:evenodd;"
points="48864,61608
48864,61068
48990,61068
48990,61608
48864,61608
" /> 
<polyline style="fill-rule:evenodd;"
points="47328,59404
47328,58864
47454,58864
47454,59404
47328,59404
" /> 
<polyline style="fill-rule:evenodd;"
points="46816,61608
46816,61068
46942,61068
46942,61608
46816,61608
" /> 
<polyline style="fill-rule:evenodd;"
points="49120,61608
49120,61068
49246,61068
49246,61608
49120,61608
" /> 
<polyline style="fill-rule:evenodd;"
points="49120,59404
49120,58864
49246,58864
49246,59404
49120,59404
" /> 
<polyline style="fill-rule:evenodd;"
points="46816,59404
46816,58864
46942,58864
46942,59404
46816,59404
" /> 
<polyline style="fill-rule:evenodd;"
points="31149,60230
31149,59069
31350,59069
31350,60230
31149,60230
" /> 
<polyline style="fill-rule:evenodd;"
points="32149,60230
32149,59069
32350,59069
32350,60230
32149,60230
" /> 
<polyline style="fill-rule:evenodd;"
points="33149,60230
33149,59069
33350,59069
33350,60230
33149,60230
" /> 
<polyline style="fill-rule:evenodd;"
points="33149,54430
33149,53269
33350,53269
33350,54430
33149,54430
" /> 
<polyline style="fill-rule:evenodd;"
points="32149,54430
32149,53269
32350,53269
32350,54430
32149,54430
" /> 
<polyline style="fill-rule:evenodd;"
points="31149,54430
31149,53269
31350,53269
31350,54430
31149,54430
" /> 
<polyline style="fill-rule:evenodd;"
points="37302,39145
37302,38574
37497,38574
37497,39145
37302,39145
" /> 
<polyline style="fill-rule:evenodd;"
points="37802,39145
37802,38574
37997,38574
37997,39145
37802,39145
" /> 
<polyline style="fill-rule:evenodd;"
points="38302,39145
38302,38574
38497,38574
38497,39145
38302,39145
" /> 
<polyline style="fill-rule:evenodd;"
points="37302,37025
37302,36454
37497,36454
37497,37025
37302,37025
" /> 
<polyline style="fill-rule:evenodd;"
points="35802,39145
35802,38574
35997,38574
35997,39145
35802,39145
" /> 
<polyline style="fill-rule:evenodd;"
points="36302,39145
36302,38574
36497,38574
36497,39145
36302,39145
" /> 
<polyline style="fill-rule:evenodd;"
points="36802,39145
36802,38574
36997,38574
36997,39145
36802,39145
" /> 
<polyline style="fill-rule:evenodd;"
points="36302,37025
36302,36454
36497,36454
36497,37025
36302,37025
" /> 
<polyline style="fill-rule:evenodd;"
points="35802,37025
35802,36454
35997,36454
35997,37025
35802,37025
" /> 
<polyline style="fill-rule:evenodd;"
points="35302,37025
35302,36454
35497,36454
35497,37025
35302,37025
" /> 
<polyline style="fill-rule:evenodd;"
points="37802,37025
37802,36454
37997,36454
37997,37025
37802,37025
" /> 
<polyline style="fill-rule:evenodd;"
points="35302,39145
35302,38574
35497,38574
35497,39145
35302,39145
" /> 
<polyline style="fill-rule:evenodd;"
points="38302,37025
38302,36454
38497,36454
38497,37025
38302,37025
" /> 
<polyline style="fill-rule:evenodd;"
points="36802,37025
36802,36454
36997,36454
36997,37025
36802,37025
" /> 
<polyline style="fill-rule:evenodd;"
points="73344,55544
73905,55544
73905,56105
73344,56105
73344,55544
" /> 
<polyline style="fill-rule:evenodd;"
points="73344,56544
73905,56544
73905,57105
73344,57105
73344,56544
" /> 
<circle cx="73625" cy="57825" r="280.315" /> 
<circle cx="73625" cy="58825" r="280.315" /> 
<circle cx="73625" cy="59825" r="280.315" /> 
<circle cx="73625" cy="60825" r="280.315" /> 
<circle cx="71475" cy="67350" r="330.315" /> 
<circle cx="73225" cy="67350" r="330.315" /> 
<circle cx="70975" cy="66350" r="380.315" /> 
<circle cx="73725" cy="66350" r="380.315" /> 
<circle cx="73225" cy="64800" r="330.315" /> 
<circle cx="71475" cy="64800" r="330.315" /> 
<circle cx="72850" cy="65550" r="330.315" /> 
<circle cx="71850" cy="65550" r="330.315" /> 
<circle cx="83917.3" cy="58897.6" r="2736.22" /> 
<circle cx="76425" cy="13325" r="1180.31" /> 
<circle cx="80675" cy="37175" r="1180.31" /> 
<circle cx="65452.8" cy="26476.4" r="1180.31" /> 
<circle cx="80675" cy="40825" r="1180.31" /> 
<circle cx="76475" cy="67350" r="330.315" /> 
<circle cx="78225" cy="67350" r="330.315" /> 
<circle cx="75975" cy="66350" r="380.315" /> 
<circle cx="78725" cy="66350" r="380.315" /> 
<circle cx="78225" cy="64800" r="330.315" /> 
<circle cx="76475" cy="64800" r="330.315" /> 
<circle cx="77850" cy="65550" r="330.315" /> 
<circle cx="76850" cy="65550" r="330.315" /> 
<circle cx="81475" cy="67350" r="330.315" /> 
<circle cx="83225" cy="67350" r="330.315" /> 
<circle cx="80975" cy="66350" r="380.315" /> 
<circle cx="83725" cy="66350" r="380.315" /> 
<circle cx="83225" cy="64800" r="330.315" /> 
<circle cx="81475" cy="64800" r="330.315" /> 
<circle cx="82850" cy="65550" r="330.315" /> 
<circle cx="81850" cy="65550" r="330.315" /> 
<circle cx="52673.2" cy="55511.8" r="330.315" /> 
<circle cx="49673.2" cy="55511.8" r="330.315" /> 
<circle cx="50673.2" cy="55511.8" r="330.315" /> 
<circle cx="53673.2" cy="55511.8" r="330.315" /> 
<circle cx="51673.2" cy="55511.8" r="330.315" /> 
<polyline style="fill-rule:evenodd;"
points="69458,52755
69458,53149
69045,53149
69045,52755
69458,52755
" /> 
<polyline style="fill-rule:evenodd;"
points="70167,52755
70167,53149
69753,53149
69753,52755
70167,52755
" /> 
<polyline style="fill-rule:evenodd;"
points="69458,54330
69458,54724
69045,54724
69045,54330
69458,54330
" /> 
<polyline style="fill-rule:evenodd;"
points="70167,54330
70167,54724
69753,54724
69753,54330
70167,54330
" /> 
<polyline style="fill-rule:evenodd;"
points="60930,40606
60930,41766
60329,41766
60329,40606
60930,40606
" /> 
<polyline style="fill-rule:evenodd;"
points="60955,42406
60955,43566
60354,43566
60354,42406
60955,42406
" /> 
<polyline style="fill-rule:evenodd;"
points="22385,68194
21225,68194
21225,67593
22385,67593
22385,68194
" /> 
<polyline style="fill-rule:evenodd;"
points="20585,68219
19425,68219
19425,67618
20585,67618
20585,68219
" /> 
<polyline style="fill-rule:evenodd;"
points="22385,61658
21225,61658
21225,61057
22385,61057
22385,61658
" /> 
<polyline style="fill-rule:evenodd;"
points="20585,61683
19425,61683
19425,61082
20585,61082
20585,61683
" /> 
<polyline style="fill-rule:evenodd;"
points="68818,58474
69212,58474
69212,58887
68818,58887
68818,58474
" /> 
<polyline style="fill-rule:evenodd;"
points="68818,57765
69212,57765
69212,58179
68818,58179
68818,57765
" /> 
<polyline style="fill-rule:evenodd;"
points="69458,53543
69458,53937
69045,53937
69045,53543
69458,53543
" /> 
<polyline style="fill-rule:evenodd;"
points="70167,53543
70167,53937
69753,53937
69753,53543
70167,53543
" /> 
<polyline style="fill-rule:evenodd;"
points="30502,53003
30502,53396
30088,53396
30088,53003
30502,53003
" /> 
<polyline style="fill-rule:evenodd;"
points="31211,53003
31211,53396
30797,53396
30797,53003
31211,53003
" /> 
<polyline style="fill-rule:evenodd;"
points="33497,53396
33497,53003
33911,53003
33911,53396
33497,53396
" /> 
<polyline style="fill-rule:evenodd;"
points="32788,53396
32788,53003
33202,53003
33202,53396
32788,53396
" /> 
<polyline style="fill-rule:evenodd;"
points="37902,35603
37902,35996
37488,35996
37488,35603
37902,35603
" /> 
<polyline style="fill-rule:evenodd;"
points="38611,35603
38611,35996
38197,35996
38197,35603
38611,35603
" /> 
<polyline style="fill-rule:evenodd;"
points="49862,49852
49468,49852
49468,49438
49862,49438
49862,49852
" /> 
<polyline style="fill-rule:evenodd;"
points="49862,50561
49468,50561
49468,50147
49862,50147
49862,50561
" /> 
<polyline style="fill-rule:evenodd;"
points="17470,61614
17470,61220
17883,61220
17883,61614
17470,61614
" /> 
<polyline style="fill-rule:evenodd;"
points="16761,61614
16761,61220
17175,61220
17175,61614
16761,61614
" /> 
<polyline style="fill-rule:evenodd;"
points="17470,60826
17470,60433
17883,60433
17883,60826
17470,60826
" /> 
<polyline style="fill-rule:evenodd;"
points="16761,60826
16761,60433
17175,60433
17175,60826
16761,60826
" /> 
<polyline style="fill-rule:evenodd;"
points="17470,60039
17470,59645
17883,59645
17883,60039
17470,60039
" /> 
<polyline style="fill-rule:evenodd;"
points="16761,60039
16761,59645
17175,59645
17175,60039
16761,60039
" /> 
<polyline style="fill-rule:evenodd;"
points="27342,64360
27736,64360
27736,64773
27342,64773
27342,64360
" /> 
<polyline style="fill-rule:evenodd;"
points="27342,63651
27736,63651
27736,64064
27342,64064
27342,63651
" /> 
<polyline style="fill-rule:evenodd;"
points="17470,62401
17470,62007
17883,62007
17883,62401
17470,62401
" /> 
<polyline style="fill-rule:evenodd;"
points="16761,62401
16761,62007
17175,62007
17175,62401
16761,62401
" /> 
<polyline style="fill-rule:evenodd;"
points="54803,43838
54803,45059
54370,45059
54370,43838
54803,43838
" /> 
<polyline style="fill-rule:evenodd;"
points="54013,43838
54013,45059
53580,45059
53580,43838
54013,43838
" /> 
<polyline style="fill-rule:evenodd;"
points="53223,43838
53223,45059
52790,45059
52790,43838
53223,43838
" /> 
<polyline style="fill-rule:evenodd;"
points="52433,43838
52433,45059
52000,45059
52000,43838
52433,43838
" /> 
<polyline style="fill-rule:evenodd;"
points="55905,41259
55905,43307
55275,43307
55275,41259
55905,41259
" /> 
<polyline style="fill-rule:evenodd;"
points="51535,41259
51535,43307
50905,43307
50905,41259
51535,41259
" /> 
<polyline style="fill-rule:evenodd;"
points="15967,62435
15967,61974
16328,61974
16328,62435
15967,62435
" /> 
<polyline style="fill-rule:evenodd;"
points="15167,62435
15167,61974
15528,61974
15528,62435
15167,62435
" /> 
<polyline style="fill-rule:evenodd;"
points="22985,56953
22985,56432
23365,56432
23365,56953
22985,56953
" /> 
<polyline style="fill-rule:evenodd;"
points="22185,56953
22185,56432
22565,56432
22565,56953
22185,56953
" /> 
<polyline style="fill-rule:evenodd;"
points="22985,63213
22985,62692
23365,62692
23365,63213
22985,63213
" /> 
<polyline style="fill-rule:evenodd;"
points="22185,63213
22185,62692
22565,62692
22565,63213
22185,63213
" /> 
<polyline style="fill-rule:evenodd;"
points="19704,65462
20295,65462
20295,66309
19704,66309
19704,65462
" /> 
<polyline style="fill-rule:evenodd;"
points="19704,63848
20295,63848
20295,64694
19704,64694
19704,63848
" /> 
<polyline style="fill-rule:evenodd;"
points="37598,44084
38188,44084
38188,44931
37598,44931
37598,44084
" /> 
<polyline style="fill-rule:evenodd;"
points="37598,42470
38188,42470
38188,43316
37598,43316
37598,42470
" /> 
<polyline style="fill-rule:evenodd;"
points="51259,49163
50669,49163
50669,48316
51259,48316
51259,49163
" /> 
<polyline style="fill-rule:evenodd;"
points="51259,50777
50669,50777
50669,49931
51259,49931
51259,50777
" /> 
<polyline style="fill-rule:evenodd;"
points="58956,41702
58366,41702
58366,40856
58956,40856
58956,41702
" /> 
<polyline style="fill-rule:evenodd;"
points="58956,43316
58366,43316
58366,42470
58956,42470
58956,43316
" /> 
<circle cx="44094.5" cy="44700.8" r="280.315" /> 
<circle cx="44094.5" cy="43700.8" r="280.315" /> 
<circle cx="44094.5" cy="42700.8" r="280.315" /> 
<circle cx="57082.1" cy="41575" r="280.315" /> 
<circle cx="57082.1" cy="42575" r="280.315" /> 
<polyline style="fill-rule:evenodd;"
points="68149,50010
68149,50147
67401,50147
67401,50010
68149,50010
" /> 
<polyline style="fill-rule:evenodd;"
points="68149,50325
68149,50462
67401,50462
67401,50325
68149,50325
" /> 
<polyline style="fill-rule:evenodd;"
points="68149,50640
68149,50777
67401,50777
67401,50640
68149,50640
" /> 
<polyline style="fill-rule:evenodd;"
points="68149,50955
68149,51092
67401,51092
67401,50955
68149,50955
" /> 
<polyline style="fill-rule:evenodd;"
points="68149,51269
68149,51406
67401,51406
67401,51269
68149,51269
" /> 
<polyline style="fill-rule:evenodd;"
points="68149,51584
68149,51721
67401,51721
67401,51584
68149,51584
" /> 
<polyline style="fill-rule:evenodd;"
points="68149,51899
68149,52036
67401,52036
67401,51899
68149,51899
" /> 
<polyline style="fill-rule:evenodd;"
points="68149,52214
68149,52351
67401,52351
67401,52214
68149,52214
" /> 
<polyline style="fill-rule:evenodd;"
points="64881,52214
64881,52351
64133,52351
64133,52214
64881,52214
" /> 
<polyline style="fill-rule:evenodd;"
points="64881,50010
64881,50147
64133,50147
64133,50010
64881,50010
" /> 
<polyline style="fill-rule:evenodd;"
points="64881,50325
64881,50462
64133,50462
64133,50325
64881,50325
" /> 
<polyline style="fill-rule:evenodd;"
points="64881,50640
64881,50777
64133,50777
64133,50640
64881,50640
" /> 
<polyline style="fill-rule:evenodd;"
points="64881,50955
64881,51092
64133,51092
64133,50955
64881,50955
" /> 
<polyline style="fill-rule:evenodd;"
points="64881,51269
64881,51406
64133,51406
64133,51269
64881,51269
" /> 
<polyline style="fill-rule:evenodd;"
points="64881,51584
64881,51721
64133,51721
64133,51584
64881,51584
" /> 
<polyline style="fill-rule:evenodd;"
points="64881,51899
64881,52036
64133,52036
64133,51899
64881,51899
" /> 
<polyline style="fill-rule:evenodd;"
points="67174,52441
67312,52441
67312,53188
67174,53188
67174,52441
" /> 
<polyline style="fill-rule:evenodd;"
points="66859,52441
66997,52441
66997,53188
66859,53188
66859,52441
" /> 
<polyline style="fill-rule:evenodd;"
points="66544,52441
66682,52441
66682,53188
66544,53188
66544,52441
" /> 
<polyline style="fill-rule:evenodd;"
points="66229,52441
66367,52441
66367,53188
66229,53188
66229,52441
" /> 
<polyline style="fill-rule:evenodd;"
points="65915,52441
66053,52441
66053,53188
65915,53188
65915,52441
" /> 
<polyline style="fill-rule:evenodd;"
points="65600,52441
65738,52441
65738,53188
65600,53188
65600,52441
" /> 
<polyline style="fill-rule:evenodd;"
points="65285,52441
65423,52441
65423,53188
65285,53188
65285,52441
" /> 
<polyline style="fill-rule:evenodd;"
points="64970,52441
65108,52441
65108,53188
64970,53188
64970,52441
" /> 
<polyline style="fill-rule:evenodd;"
points="67174,49173
67312,49173
67312,49920
67174,49920
67174,49173
" /> 
<polyline style="fill-rule:evenodd;"
points="66859,49173
66997,49173
66997,49920
66859,49920
66859,49173
" /> 
<polyline style="fill-rule:evenodd;"
points="66544,49173
66682,49173
66682,49920
66544,49920
66544,49173
" /> 
<polyline style="fill-rule:evenodd;"
points="66229,49173
66367,49173
66367,49920
66229,49920
66229,49173
" /> 
<polyline style="fill-rule:evenodd;"
points="65915,49173
66053,49173
66053,49920
65915,49920
65915,49173
" /> 
<polyline style="fill-rule:evenodd;"
points="65600,49173
65738,49173
65738,49920
65600,49920
65600,49173
" /> 
<polyline style="fill-rule:evenodd;"
points="65285,49173
65423,49173
65423,49920
65285,49920
65285,49173
" /> 
<polyline style="fill-rule:evenodd;"
points="64970,49173
65108,49173
65108,49920
64970,49920
64970,49173
" /> 
<polyline style="fill-rule:evenodd;"
points="62952,50226
62559,50226
62559,49812
62952,49812
62952,50226
" /> 
<polyline style="fill-rule:evenodd;"
points="62952,50935
62559,50935
62559,50521
62952,50521
62952,50935
" /> 
<polyline style="fill-rule:evenodd;"
points="69458,51181
69458,51574
69045,51574
69045,51181
69458,51181
" /> 
<polyline style="fill-rule:evenodd;"
points="70167,51181
70167,51574
69753,51574
69753,51181
70167,51181
" /> 
<polyline style="fill-rule:evenodd;"
points="69753,49370
69753,48976
70167,48976
70167,49370
69753,49370
" /> 
<polyline style="fill-rule:evenodd;"
points="69045,49370
69045,48976
69458,48976
69458,49370
69045,49370
" /> 
<polyline style="fill-rule:evenodd;"
points="72222,61021
72222,60628
72636,60628
72636,61021
72222,61021
" /> 
<polyline style="fill-rule:evenodd;"
points="71513,61021
71513,60628
71927,60628
71927,61021
71513,61021
" /> 
<polyline style="fill-rule:evenodd;"
points="31702,61953
31702,62346
31288,62346
31288,61953
31702,61953
" /> 
<polyline style="fill-rule:evenodd;"
points="32411,61953
32411,62346
31997,62346
31997,61953
32411,61953
" /> 
<polyline style="fill-rule:evenodd;"
points="35602,35603
35602,35996
35188,35996
35188,35603
35602,35603
" /> 
<polyline style="fill-rule:evenodd;"
points="36311,35603
36311,35996
35897,35996
35897,35603
36311,35603
" /> 
<polyline style="fill-rule:evenodd;"
points="35602,39653
35602,40046
35188,40046
35188,39653
35602,39653
" /> 
<polyline style="fill-rule:evenodd;"
points="36311,39653
36311,40046
35897,40046
35897,39653
36311,39653
" /> 
<polyline style="fill-rule:evenodd;"
points="64702,65953
64702,66346
64288,66346
64288,65953
64702,65953
" /> 
<polyline style="fill-rule:evenodd;"
points="65411,65953
65411,66346
64997,66346
64997,65953
65411,65953
" /> 
<polyline style="fill-rule:evenodd;"
points="33297,32746
33297,32353
33711,32353
33711,32746
33297,32746
" /> 
<polyline style="fill-rule:evenodd;"
points="32588,32746
32588,32353
33002,32353
33002,32746
32588,32746
" /> 
<polyline style="fill-rule:evenodd;"
points="59702,65953
59702,66346
59288,66346
59288,65953
59702,65953
" /> 
<polyline style="fill-rule:evenodd;"
points="60411,65953
60411,66346
59997,66346
59997,65953
60411,65953
" /> 
<polyline style="fill-rule:evenodd;"
points="38976,44301
39370,44301
39370,44714
38976,44714
38976,44301
" /> 
<polyline style="fill-rule:evenodd;"
points="38976,43592
39370,43592
39370,44005
38976,44005
38976,43592
" /> 
<polyline style="fill-rule:evenodd;"
points="62598,41938
62204,41938
62204,41525
62598,41525
62598,41938
" /> 
<polyline style="fill-rule:evenodd;"
points="62598,42647
62204,42647
62204,42234
62598,42234
62598,42647
" /> 
<polyline style="fill-rule:evenodd;"
points="21082,64793
21476,64793
21476,65206
21082,65206
21082,64793
" /> 
<polyline style="fill-rule:evenodd;"
points="21082,64084
21476,64084
21476,64498
21082,64498
21082,64084
" /> 
<polyline style="fill-rule:evenodd;"
points="21082,58494
21476,58494
21476,58907
21082,58907
21082,58494
" /> 
<polyline style="fill-rule:evenodd;"
points="21082,57785
21476,57785
21476,58198
21082,58198
21082,57785
" /> 
<polyline style="fill-rule:evenodd;"
points="62716,57765
63110,57765
63110,58179
62716,58179
62716,57765
" /> 
<polyline style="fill-rule:evenodd;"
points="62716,57057
63110,57057
63110,57470
62716,57470
62716,57057
" /> 
<polyline style="fill-rule:evenodd;"
points="45561,59586
45561,59980
45147,59980
45147,59586
45561,59586
" /> 
<polyline style="fill-rule:evenodd;"
points="46269,59586
46269,59980
45856,59980
45856,59586
46269,59586
" /> 
<polyline style="fill-rule:evenodd;"
points="45561,60492
45561,60885
45147,60885
45147,60492
45561,60492
" /> 
<polyline style="fill-rule:evenodd;"
points="46269,60492
46269,60885
45856,60885
45856,60492
46269,60492
" /> 
<polyline style="fill-rule:evenodd;"
points="15967,61647
15967,61187
16328,61187
16328,61647
15967,61647
" /> 
<polyline style="fill-rule:evenodd;"
points="15167,61647
15167,61187
15528,61187
15528,61647
15167,61647
" /> 
<polyline style="fill-rule:evenodd;"
points="15967,60860
15967,60399
16328,60399
16328,60860
15967,60860
" /> 
<polyline style="fill-rule:evenodd;"
points="15167,60860
15167,60399
15528,60399
15528,60860
15167,60860
" /> 
<polyline style="fill-rule:evenodd;"
points="15967,60072
15967,59612
16328,59612
16328,60072
15967,60072
" /> 
<polyline style="fill-rule:evenodd;"
points="15167,60072
15167,59612
15528,59612
15528,60072
15167,60072
" /> 
<polyline style="fill-rule:evenodd;"
points="52667,59597
52844,59597
52844,60008
52667,60008
52667,59597
" /> 
<polyline style="fill-rule:evenodd;"
points="52982,59597
53159,59597
53159,60008
52982,60008
52982,59597
" /> 
<polyline style="fill-rule:evenodd;"
points="54242,59597
54419,59597
54419,60008
54242,60008
54242,59597
" /> 
<polyline style="fill-rule:evenodd;"
points="53927,59597
54104,59597
54104,60008
53927,60008
53927,59597
" /> 
<polyline style="fill-rule:evenodd;"
points="53612,59597
53789,59597
53789,60008
53612,60008
53612,59597
" /> 
<polyline style="fill-rule:evenodd;"
points="53297,59597
53474,59597
53474,60008
53297,60008
53297,59597
" /> 
<polyline style="fill-rule:evenodd;"
points="53297,60463
53474,60463
53474,60875
53297,60875
53297,60463
" /> 
<polyline style="fill-rule:evenodd;"
points="53612,60463
53789,60463
53789,60875
53612,60875
53612,60463
" /> 
<polyline style="fill-rule:evenodd;"
points="53927,60463
54104,60463
54104,60875
53927,60875
53927,60463
" /> 
<polyline style="fill-rule:evenodd;"
points="54242,60463
54419,60463
54419,60875
54242,60875
54242,60463
" /> 
<polyline style="fill-rule:evenodd;"
points="52982,60463
53159,60463
53159,60875
52982,60875
52982,60463
" /> 
<polyline style="fill-rule:evenodd;"
points="52667,60463
52844,60463
52844,60875
52667,60875
52667,60463
" /> 
<polyline style="fill-rule:evenodd;"
points="52510,60147
52922,60147
52922,60324
52510,60324
52510,60147
" /> 
<polyline style="fill-rule:evenodd;"
points="54164,60147
54575,60147
54575,60324
54164,60324
54164,60147
" /> 
<polyline style="fill-rule:evenodd;"
points="54242,48228
54242,48622
53828,48622
53828,48228
54242,48228
" /> 
<polyline style="fill-rule:evenodd;"
points="54950,48228
54950,48622
54537,48622
54537,48228
54950,48228
" /> 
<polyline style="fill-rule:evenodd;"
points="51683,60039
51683,59645
52096,59645
52096,60039
51683,60039
" /> 
<polyline style="fill-rule:evenodd;"
points="50974,60039
50974,59645
51387,59645
51387,60039
50974,60039
" /> 
<polyline style="fill-rule:evenodd;"
points="51683,60807
51683,60413
52096,60413
52096,60807
51683,60807
" /> 
<polyline style="fill-rule:evenodd;"
points="50974,60807
50974,60413
51387,60413
51387,60807
50974,60807
" /> 
<polyline style="fill-rule:evenodd;"
points="38976,49812
39370,49812
39370,50226
38976,50226
38976,49812
" /> 
<polyline style="fill-rule:evenodd;"
points="38976,49104
39370,49104
39370,49517
38976,49517
38976,49104
" /> 
<polyline style="fill-rule:evenodd;"
points="69458,51968
69458,52362
69045,52362
69045,51968
69458,51968
" /> 
<polyline style="fill-rule:evenodd;"
points="70167,51968
70167,52362
69753,52362
69753,51968
70167,51968
" /> 
<polyline style="fill-rule:evenodd;"
points="53257,45590
53257,45984
52844,45984
52844,45590
53257,45590
" /> 
<polyline style="fill-rule:evenodd;"
points="53966,45590
53966,45984
53553,45984
53553,45590
53966,45590
" /> 
<polyline style="fill-rule:evenodd;"
points="55664,60377
55664,59217
56264,59217
56264,60377
55664,60377
" /> 
<polyline style="fill-rule:evenodd;"
points="55639,58577
55639,57417
56239,57417
56239,58577
55639,58577
" /> 
<polyline style="fill-rule:evenodd;"
points="37598,49596
38188,49596
38188,50442
37598,50442
37598,49596
" /> 
<polyline style="fill-rule:evenodd;"
points="37598,47982
38188,47982
38188,48828
37598,48828
37598,47982
" /> 
<circle cx="44094.5" cy="50212.6" r="280.315" /> 
<circle cx="44094.5" cy="49212.6" r="280.315" /> 
<circle cx="44094.5" cy="48212.6" r="280.315" /> 
<circle cx="61795.7" cy="31582.9" r="374.016" /> 
<circle cx="61795.7" cy="32567.1" r="374.016" /> 
<circle cx="49197.2" cy="24988.4" r="1161.42" /> 
<circle cx="49197.2" cy="39161.6" r="1161.42" /> 
<circle cx="42110.6" cy="39161.6" r="1161.42" /> 
<circle cx="42110.6" cy="24988.4" r="1161.42" /> 
<polyline style="fill-rule:evenodd;"
points="73905,54605
73344,54605
73344,54044
73905,54044
73905,54605
" /> 
<circle cx="72625" cy="54325" r="280.315" /> 
<circle cx="73625" cy="53325" r="280.315" /> 
<circle cx="72625" cy="53325" r="280.315" /> 
<circle cx="73625" cy="52325" r="280.315" /> 
<circle cx="72625" cy="52325" r="280.315" /> 
<circle cx="37878" cy="64500" r="280.315" /> 
<circle cx="37878" cy="65500" r="280.315" /> 
<circle cx="38878" cy="64500" r="280.315" /> 
<circle cx="38878" cy="65500" r="280.315" /> 
<circle cx="39878" cy="64500" r="280.315" /> 
<polyline style="fill-rule:evenodd;"
points="39597,65780
39597,65219
40158,65219
40158,65780
39597,65780
" /> 
<circle cx="40878" cy="64500" r="280.315" /> 
<circle cx="40878" cy="65500" r="280.315" /> 
<circle cx="41878" cy="64500" r="280.315" /> 
<circle cx="41878" cy="65500" r="280.315" /> 
<circle cx="42878" cy="64500" r="280.315" /> 
<circle cx="42878" cy="65500" r="280.315" /> 
<circle cx="43878" cy="64500" r="280.315" /> 
<circle cx="43878" cy="65500" r="280.315" /> 
<circle cx="44878" cy="64500" r="280.315" /> 
<circle cx="44878" cy="65500" r="280.315" /> 
<circle cx="45878" cy="64500" r="280.315" /> 
<circle cx="45878" cy="65500" r="280.315" /> 
<circle cx="46878" cy="64500" r="280.315" /> 
<circle cx="46878" cy="65500" r="280.315" /> 
<circle cx="47878" cy="64500" r="280.315" /> 
<circle cx="47878" cy="65500" r="280.315" /> 
<circle cx="48878" cy="64500" r="280.315" /> 
<circle cx="48878" cy="65500" r="280.315" /> 
<circle cx="49878" cy="64500" r="280.315" /> 
<circle cx="49878" cy="65500" r="280.315" /> 
<circle cx="46978" cy="51500" r="1180.31" /> 
<circle cx="68478" cy="61550" r="1180.31" /> 
<circle cx="75458.9" cy="22293.1" r="964.567" /> 
<circle cx="67191.1" cy="12056.9" r="964.567" /> 
<circle cx="27683.1" cy="50612.6" r="480.315" /> 
<circle cx="27683.1" cy="47812.6" r="480.315" /> 
<circle cx="34083.1" cy="47632.6" r="780.315" /> 
<circle cx="34083.1" cy="50792.6" r="780.315" /> 
<circle cx="35433.1" cy="50000" r="334.646" /> 
<circle cx="35433.1" cy="48425.2" r="334.646" /> 
<circle cx="36433.1" cy="49712.6" r="334.646" /> 
<circle cx="36433.1" cy="48712.6" r="334.646" /> 
<circle cx="27683.1" cy="45100.8" r="480.315" /> 
<circle cx="27683.1" cy="42300.8" r="480.315" /> 
<circle cx="34083.1" cy="42120.8" r="780.315" /> 
<circle cx="34083.1" cy="45280.8" r="780.315" /> 
<circle cx="35433.1" cy="44488.2" r="334.646" /> 
<circle cx="35433.1" cy="42913.4" r="334.646" /> 
<circle cx="36433.1" cy="44200.8" r="334.646" /> 
<circle cx="36433.1" cy="43200.8" r="334.646" /> 
<polyline style="fill-rule:evenodd;"
points="33600,33519
33600,34680
33399,34680
33399,33519
33600,33519
" /> 
<polyline style="fill-rule:evenodd;"
points="32600,33519
32600,34680
32399,34680
32399,33519
32600,33519
" /> 
<polyline style="fill-rule:evenodd;"
points="31600,33519
31600,34680
31399,34680
31399,33519
31600,33519
" /> 
<polyline style="fill-rule:evenodd;"
points="30600,33519
30600,34680
30399,34680
30399,33519
30600,33519
" /> 
<polyline style="fill-rule:evenodd;"
points="30600,39319
30600,40480
30399,40480
30399,39319
30600,39319
" /> 
<polyline style="fill-rule:evenodd;"
points="31600,39319
31600,40480
31399,40480
31399,39319
31600,39319
" /> 
<polyline style="fill-rule:evenodd;"
points="32600,39319
32600,40480
32399,40480
32399,39319
32600,39319
" /> 
<polyline style="fill-rule:evenodd;"
points="33600,39319
33600,40480
33399,40480
33399,39319
33600,39319
" /> 
<polyline style="fill-rule:evenodd;"
points="68799,50807
68799,50374
69311,50374
69311,50807
68799,50807
" /> 
<polyline style="fill-rule:evenodd;"
points="69665,50177
69665,49744
70177,49744
70177,50177
69665,50177
" /> 
<polyline style="fill-rule:evenodd;"
points="68799,50177
68799,49744
69311,49744
69311,50177
68799,50177
" /> 
<polyline style="fill-rule:evenodd;"
points="69665,50807
69665,50374
70177,50374
70177,50807
69665,50807
" /> 
</g>
<g style="fill:#840000; fill-opacity:1.0; 
stroke:#840000; stroke-width:0; stroke-opacity:1; 
stroke-linecap:round; stroke-linejoin:round;">
</g>
<g style="fill:#840000; fill-opacity:1.0; 
stroke:#840000; stroke-width:39.3701; stroke-opacity:1; 
stroke-linecap:round; stroke-linejoin:round;">
<polyline style="fill-rule:evenodd;"
points="26682,63591
26782,63591
26982,64191
26482,64191
26682,63591
" /> 
</g>
<g style="fill:#840000; fill-opacity:1.0; 
stroke:#840000; stroke-width:0; stroke-opacity:1; 
stroke-linecap:round; stroke-linejoin:round;">
</g>
<g style="fill:#840000; fill-opacity:1.0; 
stroke:#840000; stroke-width:39.3701; stroke-opacity:1; 
stroke-linecap:round; stroke-linejoin:round;">
<polyline style="fill-rule:evenodd;"
points="26482,64941
26982,64941
26782,65541
26682,65541
26482,64941
" /> 
<polyline style="fill-rule:evenodd;"
points="26476,64311
26988,64311
26988,64822
26476,64822
26476,64311
" /> 
</g>
<g style="fill:#840000; fill-opacity:1.0; 
stroke:#840000; stroke-width:0; stroke-opacity:1; 
stroke-linecap:round; stroke-linejoin:round;">
</g>
<g style="fill:#840000; fill-opacity:1.0; 
stroke:#840000; stroke-width:39.3701; stroke-opacity:1; 
stroke-linecap:round; stroke-linejoin:round;">
<polyline style="fill-rule:evenodd;"
points="28396,65541
28296,65541
28096,64941
28596,64941
28396,65541
" /> 
</g>
<g style="fill:#840000; fill-opacity:1.0; 
stroke:#840000; stroke-width:0; stroke-opacity:1; 
stroke-linecap:round; stroke-linejoin:round;">
</g>
<g style="fill:#840000; fill-opacity:1.0; 
stroke:#840000; stroke-width:39.3701; stroke-opacity:1; 
stroke-linecap:round; stroke-linejoin:round;">
<polyline style="fill-rule:evenodd;"
points="28596,64191
28096,64191
28296,63591
28396,63591
28596,64191
" /> 
<polyline style="fill-rule:evenodd;"
points="28602,64822
28090,64822
28090,64311
28602,64311
28602,64822
" /> 
</g>
<g style="fill:#840000; fill-opacity:1.0; 
stroke:#840000; stroke-width:0; stroke-opacity:1; 
stroke-linecap:round; stroke-linejoin:round;">
</g>
<g style="fill:#840000; fill-opacity:1.0; 
stroke:#840000; stroke-width:39.3701; stroke-opacity:1; 
stroke-linecap:round; stroke-linejoin:round;">
<polyline style="fill-rule:evenodd;"
points="55168,65541
55068,65541
54868,64941
55368,64941
55168,65541
" /> 
</g>
<g style="fill:#840000; fill-opacity:1.0; 
stroke:#840000; stroke-width:0; stroke-opacity:1; 
stroke-linecap:round; stroke-linejoin:round;">
</g>
<g style="fill:#840000; fill-opacity:1.0; 
stroke:#840000; stroke-width:39.3701; stroke-opacity:1; 
stroke-linecap:round; stroke-linejoin:round;">
<polyline style="fill-rule:evenodd;"
points="55368,64191
54868,64191
55068,63591
55168,63591
55368,64191
" /> 
<polyline style="fill-rule:evenodd;"
points="55374,64822
54862,64822
54862,64311
55374,64311
55374,64822
" /> 
</g>
<g style="fill:#840000; fill-opacity:1.0; 
stroke:#840000; stroke-width:0; stroke-opacity:1; 
stroke-linecap:round; stroke-linejoin:round;">
</g>
<g style="fill:#840000; fill-opacity:1.0; 
stroke:#840000; stroke-width:39.3701; stroke-opacity:1; 
stroke-linecap:round; stroke-linejoin:round;">
<polyline style="fill-rule:evenodd;"
points="52805,65541
52705,65541
52505,64941
53005,64941
52805,65541
" /> 
</g>
<g style="fill:#840000; fill-opacity:1.0; 
stroke:#840000; stroke-width:0; stroke-opacity:1; 
stroke-linecap:round; stroke-linejoin:round;">
</g>
<g style="fill:#840000; fill-opacity:1.0; 
stroke:#840000; stroke-width:39.3701; stroke-opacity:1; 
stroke-linecap:round; stroke-linejoin:round;">
<polyline style="fill-rule:evenodd;"
points="53005,64191
52505,64191
52705,63591
52805,63591
53005,64191
" /> 
<polyline style="fill-rule:evenodd;"
points="53011,64822
52500,64822
52500,64311
53011,64311
53011,64822
" /> 
</g>
<g style="fill:#840000; fill-opacity:1.0; 
stroke:#840000; stroke-width:0; stroke-opacity:1; 
stroke-linecap:round; stroke-linejoin:round;">
</g>
<g style="fill:#840000; fill-opacity:1.0; 
stroke:#840000; stroke-width:39.3701; stroke-opacity:1; 
stroke-linecap:round; stroke-linejoin:round;">
<polyline style="fill-rule:evenodd;"
points="53987,65541
53887,65541
53687,64941
54187,64941
53987,65541
" /> 
</g>
<g style="fill:#840000; fill-opacity:1.0; 
stroke:#840000; stroke-width:0; stroke-opacity:1; 
stroke-linecap:round; stroke-linejoin:round;">
</g>
<g style="fill:#840000; fill-opacity:1.0; 
stroke:#840000; stroke-width:39.3701; stroke-opacity:1; 
stroke-linecap:round; stroke-linejoin:round;">
<polyline style="fill-rule:evenodd;"
points="54187,64191
53687,64191
53887,63591
53987,63591
54187,64191
" /> 
<polyline style="fill-rule:evenodd;"
points="54192,64822
53681,64822
53681,64311
54192,64311
54192,64822
" /> 
<polyline style="fill-rule:evenodd;"
points="52614,51084
51853,51084
51853,49624
52614,49624
52614,51084
" /> 
<polyline style="fill-rule:evenodd;"
points="55114,50634
54353,50634
54353,50074
55114,50074
55114,50634
" /> 
<polyline style="fill-rule:evenodd;"
points="55114,49734
54353,49734
54353,49174
55114,49174
55114,49734
" /> 
<polyline style="fill-rule:evenodd;"
points="55114,51534
54353,51534
54353,50974
55114,50974
55114,51534
" /> 
<polyline style="fill-rule:evenodd;"
points="42167,50515
42167,51275
40706,51275
40706,50515
42167,50515
" /> 
<polyline style="fill-rule:evenodd;"
points="41717,48015
41717,48775
41156,48775
41156,48015
41717,48015
" /> 
<polyline style="fill-rule:evenodd;"
points="40817,48015
40817,48775
40256,48775
40256,48015
40817,48015
" /> 
<polyline style="fill-rule:evenodd;"
points="42617,48015
42617,48775
42056,48775
42056,48015
42617,48015
" /> 
<polyline style="fill-rule:evenodd;"
points="58539,46360
57779,46360
57779,44899
58539,44899
58539,46360
" /> 
<polyline style="fill-rule:evenodd;"
points="61039,45910
60279,45910
60279,45349
61039,45349
61039,45910
" /> 
<polyline style="fill-rule:evenodd;"
points="61039,45010
60279,45010
60279,44449
61039,44449
61039,45010
" /> 
<polyline style="fill-rule:evenodd;"
points="61039,46810
60279,46810
60279,46249
61039,46249
61039,46810
" /> 
<polyline style="fill-rule:evenodd;"
points="42167,45003
42167,45764
40706,45764
40706,45003
42167,45003
" /> 
<polyline style="fill-rule:evenodd;"
points="41717,42503
41717,43264
41156,43264
41156,42503
41717,42503
" /> 
<polyline style="fill-rule:evenodd;"
points="40817,42503
40817,43264
40256,43264
40256,42503
40817,42503
" /> 
<polyline style="fill-rule:evenodd;"
points="42617,42503
42617,43264
42056,43264
42056,42503
42617,42503
" /> 
<polyline style="fill-rule:evenodd;"
points="24491,64269
25252,64269
25252,65730
24491,65730
24491,64269
" /> 
<polyline style="fill-rule:evenodd;"
points="21991,64719
22752,64719
22752,65280
21991,65280
21991,64719
" /> 
<polyline style="fill-rule:evenodd;"
points="21991,65619
22752,65619
22752,66180
21991,66180
21991,65619
" /> 
<polyline style="fill-rule:evenodd;"
points="21991,63819
22752,63819
22752,64380
21991,64380
21991,63819
" /> 
<polyline style="fill-rule:evenodd;"
points="24491,57970
25252,57970
25252,59431
24491,59431
24491,57970
" /> 
<polyline style="fill-rule:evenodd;"
points="21991,58420
22752,58420
22752,58981
21991,58981
21991,58420
" /> 
<polyline style="fill-rule:evenodd;"
points="21991,59320
22752,59320
22752,59881
21991,59881
21991,59320
" /> 
<polyline style="fill-rule:evenodd;"
points="21991,57520
22752,57520
22752,58081
21991,58081
21991,57520
" /> 
</g>
<g style="fill:#840000; fill-opacity:1.0; 
stroke:#840000; stroke-width:0; stroke-opacity:1; 
stroke-linecap:round; stroke-linejoin:round;">
</g>
<g style="fill:#840000; fill-opacity:1.0; 
stroke:#840000; stroke-width:39.3701; stroke-opacity:1; 
stroke-linecap:round; stroke-linejoin:round;">
<polyline style="fill-rule:evenodd;"
points="61723,51998
61623,51998
61423,51398
61923,51398
61723,51998
" /> 
</g>
<g style="fill:#840000; fill-opacity:1.0; 
stroke:#840000; stroke-width:0; stroke-opacity:1; 
stroke-linecap:round; stroke-linejoin:round;">
</g>
<g style="fill:#840000; fill-opacity:1.0; 
stroke:#840000; stroke-width:39.3701; stroke-opacity:1; 
stroke-linecap:round; stroke-linejoin:round;">
<polyline style="fill-rule:evenodd;"
points="61923,50648
61423,50648
61623,50048
61723,50048
61923,50648
" /> 
<polyline style="fill-rule:evenodd;"
points="61929,51279
61417,51279
61417,50767
61929,50767
61929,51279
" /> 
<circle cx="66614.2" cy="48464.6" r="180.315" /> 
</g>
<g style="fill:#FFFFFF; fill-opacity:1.0; 
stroke:#FFFFFF; stroke-width:39.3701; stroke-opacity:1; 
stroke-linecap:round; stroke-linejoin:round;">
<circle cx="66299.2" cy="47815" r="105.315" /> 
<circle cx="62775.6" cy="52047.2" r="105.315" /> 
<circle cx="63563" cy="50708.7" r="105.315" /> 
<circle cx="63563" cy="53031.5" r="105.315" /> 
<circle cx="63169.3" cy="52539.4" r="105.315" /> 
<circle cx="70000" cy="59000" r="105.315" /> 
<circle cx="70000" cy="57000" r="105.315" /> 
<circle cx="70000" cy="58000" r="105.315" /> 
<circle cx="58350" cy="67350" r="180.315" /> 
<circle cx="59350" cy="67350" r="180.315" /> 
<circle cx="60350" cy="67350" r="180.315" /> 
<circle cx="61350" cy="67350" r="180.315" /> 
<circle cx="63350" cy="67350" r="180.315" /> 
<circle cx="64350" cy="67350" r="180.315" /> 
<circle cx="65350" cy="67350" r="180.315" /> 
<circle cx="66350" cy="67350" r="180.315" /> 
<circle cx="13825" cy="11325" r="580.315" /> 
<circle cx="37675" cy="11325" r="580.315" /> 
<circle cx="13825" cy="68675" r="580.315" /> 
<circle cx="37675" cy="68675" r="580.315" /> 
<circle cx="13825" cy="40825" r="580.315" /> 
<circle cx="41325" cy="68675" r="580.315" /> 
<circle cx="86175" cy="68675" r="580.315" /> 
<circle cx="86175" cy="40825" r="580.315" /> 
<circle cx="13825" cy="23075" r="580.315" /> 
<circle cx="81925" cy="13325" r="580.315" /> 
<circle cx="86175" cy="11325" r="580.315" /> 
<circle cx="13825" cy="37175" r="580.315" /> 
<circle cx="73375" cy="37175" r="580.315" /> 
<circle cx="73375" cy="26725" r="580.315" /> 
<circle cx="77025" cy="26725" r="580.315" /> 
<circle cx="77025" cy="37175" r="580.315" /> 
<circle cx="86175" cy="37175" r="580.315" /> 
<circle cx="85925.2" cy="26476.4" r="580.315" /> 
<circle cx="41325" cy="11325" r="580.315" /> 
<circle cx="13825" cy="26725" r="580.315" /> 
</g>
<g style="fill:#FFFFFF; fill-opacity:1.0; 
stroke:#FFFFFF; stroke-width:460; stroke-opacity:1; 
stroke-linecap:round; stroke-linejoin:round;">
<path d="M15800 64530
L15800 65470
" />
<path d="M18200 64430
L18200 65570
" />
<path d="M16580 67000
L17520 67000
" />
</g>
<g style="fill:#FFFFFF; fill-opacity:1.0; 
stroke:#FFFFFF; stroke-width:39.3701; stroke-opacity:1; 
stroke-linecap:round; stroke-linejoin:round;">
<circle cx="73625" cy="55825" r="180.315" /> 
<circle cx="73625" cy="56825" r="180.315" /> 
<circle cx="73625" cy="57825" r="180.315" /> 
<circle cx="73625" cy="58825" r="180.315" /> 
<circle cx="73625" cy="59825" r="180.315" /> 
<circle cx="73625" cy="60825" r="180.315" /> 
<circle cx="71475" cy="67350" r="180.315" /> 
<circle cx="73225" cy="67350" r="180.315" /> 
<circle cx="70975" cy="66350" r="230.315" /> 
<circle cx="73725" cy="66350" r="230.315" /> 
<circle cx="73225" cy="64800" r="180.315" /> 
<circle cx="71475" cy="64800" r="180.315" /> 
<circle cx="72850" cy="65550" r="180.315" /> 
<circle cx="71850" cy="65550" r="180.315" /> 
<circle cx="83917.3" cy="54747.6" r="380.315" /> 
<circle cx="83917.3" cy="63047.6" r="380.315" /> 
<circle cx="76425" cy="13325" r="580.315" /> 
<circle cx="80675" cy="37175" r="580.315" /> 
<circle cx="65452.8" cy="26476.4" r="580.315" /> 
<circle cx="80675" cy="40825" r="580.315" /> 
<circle cx="76475" cy="67350" r="180.315" /> 
<circle cx="78225" cy="67350" r="180.315" /> 
<circle cx="75975" cy="66350" r="230.315" /> 
<circle cx="78725" cy="66350" r="230.315" /> 
<circle cx="78225" cy="64800" r="180.315" /> 
<circle cx="76475" cy="64800" r="180.315" /> 
<circle cx="77850" cy="65550" r="180.315" /> 
<circle cx="76850" cy="65550" r="180.315" /> 
<circle cx="81475" cy="67350" r="180.315" /> 
<circle cx="83225" cy="67350" r="180.315" /> 
<circle cx="80975" cy="66350" r="230.315" /> 
<circle cx="83725" cy="66350" r="230.315" /> 
<circle cx="83225" cy="64800" r="180.315" /> 
<circle cx="81475" cy="64800" r="180.315" /> 
<circle cx="82850" cy="65550" r="180.315" /> 
<circle cx="81850" cy="65550" r="180.315" /> 
<circle cx="52673.2" cy="55511.8" r="180.315" /> 
<circle cx="49673.2" cy="55511.8" r="180.315" /> 
<circle cx="50673.2" cy="55511.8" r="180.315" /> 
<circle cx="53673.2" cy="55511.8" r="180.315" /> 
<circle cx="51673.2" cy="55511.8" r="180.315" /> 
<circle cx="44094.5" cy="44700.8" r="180.315" /> 
<circle cx="44094.5" cy="43700.8" r="180.315" /> 
<circle cx="44094.5" cy="42700.8" r="180.315" /> 
<circle cx="57082.1" cy="41575" r="180.315" /> 
<circle cx="57082.1" cy="42575" r="180.315" /> 
<circle cx="44094.5" cy="50212.6" r="180.315" /> 
<circle cx="44094.5" cy="49212.6" r="180.315" /> 
<circle cx="44094.5" cy="48212.6" r="180.315" /> 
<circle cx="61795.7" cy="31582.9" r="177.165" /> 
<circle cx="61795.7" cy="32567.1" r="177.165" /> 
<circle cx="49197.2" cy="24988.4" r="570.866" /> 
<circle cx="49197.2" cy="39161.6" r="570.866" /> 
<circle cx="42110.6" cy="39161.6" r="570.866" /> 
<circle cx="42110.6" cy="24988.4" r="570.866" /> 
<circle cx="73625" cy="54325" r="180.315" /> 
<circle cx="72625" cy="54325" r="180.315" /> 
<circle cx="73625" cy="53325" r="180.315" /> 
<circle cx="72625" cy="53325" r="180.315" /> 
<circle cx="73625" cy="52325" r="180.315" /> 
<circle cx="72625" cy="52325" r="180.315" /> 
<circle cx="37878" cy="64500" r="180.315" /> 
<circle cx="37878" cy="65500" r="180.315" /> 
<circle cx="38878" cy="64500" r="180.315" /> 
<circle cx="38878" cy="65500" r="180.315" /> 
<circle cx="39878" cy="64500" r="180.315" /> 
<circle cx="39878" cy="65500" r="180.315" /> 
<circle cx="40878" cy="64500" r="180.315" /> 
<circle cx="40878" cy="65500" r="180.315" /> 
<circle cx="41878" cy="64500" r="180.315" /> 
<circle cx="41878" cy="65500" r="180.315" /> 
<circle cx="42878" cy="64500" r="180.315" /> 
<circle cx="42878" cy="65500" r="180.315" /> 
<circle cx="43878" cy="64500" r="180.315" /> 
<circle cx="43878" cy="65500" r="180.315" /> 
<circle cx="44878" cy="64500" r="180.315" /> 
<circle cx="44878" cy="65500" r="180.315" /> 
<circle cx="45878" cy="64500" r="180.315" /> 
<circle cx="45878" cy="65500" r="180.315" /> 
<circle cx="46878" cy="64500" r="180.315" /> 
<circle cx="46878" cy="65500" r="180.315" /> 
<circle cx="47878" cy="64500" r="180.315" /> 
<circle cx="47878" cy="65500" r="180.315" /> 
<circle cx="48878" cy="64500" r="180.315" /> 
<circle cx="48878" cy="65500" r="180.315" /> 
<circle cx="49878" cy="64500" r="180.315" /> 
<circle cx="49878" cy="65500" r="180.315" /> 
<circle cx="46978" cy="51500" r="580.315" /> 
<circle cx="68478" cy="61550" r="580.315" /> 
<circle cx="75458.9" cy="22293.1" r="669.291" /> 
<circle cx="67191.1" cy="12056.9" r="669.291" /> 
<circle cx="27683.1" cy="50612.6" r="180.315" /> 
<circle cx="27683.1" cy="47812.6" r="180.315" /> 
<circle cx="34083.1" cy="47632.6" r="580.315" /> 
<circle cx="34083.1" cy="50792.6" r="580.315" /> 
<circle cx="35433.1" cy="50000" r="177.165" /> 
<circle cx="35433.1" cy="48425.2" r="177.165" /> 
<circle cx="36433.1" cy="49712.6" r="177.165" /> 
<circle cx="36433.1" cy="48712.6" r="177.165" /> 
<circle cx="27683.1" cy="45100.8" r="180.315" /> 
<circle cx="27683.1" cy="42300.8" r="180.315" /> 
<circle cx="34083.1" cy="42120.8" r="580.315" /> 
<circle cx="34083.1" cy="45280.8" r="580.315" /> 
<circle cx="35433.1" cy="44488.2" r="177.165" /> 
<circle cx="35433.1" cy="42913.4" r="177.165" /> 
<circle cx="36433.1" cy="44200.8" r="177.165" /> 
<circle cx="36433.1" cy="43200.8" r="177.165" /> 
<circle cx="66614.2" cy="48464.6" r="105.315" /> 
</g> 
</svg>
