G04 (created by PCBNEW (2010-05-05 BZR 2356)-stable) date 12/20/10 19:08:25*
G01*
G70*
G90*
%MOIN*%
G04 Gerber Fmt 3.4, Leading zero omitted, Abs format*
%FSLAX34Y34*%
G04 APERTURE LIST*
%ADD10C,0.001000*%
%ADD11C,0.012000*%
%ADD12C,0.010000*%
%ADD13C,0.008000*%
G04 APERTURE END LIST*
G54D10*
G54D11*
X20065Y-16658D02*
X20065Y-16315D01*
X20065Y-16487D02*
X20865Y-16487D01*
X20751Y-16430D01*
X20675Y-16372D01*
X20637Y-16315D01*
X20141Y-16915D02*
X20103Y-16943D01*
X20065Y-16915D01*
X20103Y-16886D01*
X20141Y-16915D01*
X20065Y-16915D01*
X20865Y-17458D02*
X20865Y-17344D01*
X20827Y-17287D01*
X20789Y-17258D01*
X20675Y-17201D01*
X20522Y-17172D01*
X20218Y-17172D01*
X20141Y-17201D01*
X20103Y-17229D01*
X20065Y-17287D01*
X20065Y-17401D01*
X20103Y-17458D01*
X20141Y-17487D01*
X20218Y-17515D01*
X20408Y-17515D01*
X20484Y-17487D01*
X20522Y-17458D01*
X20560Y-17401D01*
X20560Y-17287D01*
X20522Y-17229D01*
X20484Y-17201D01*
X20408Y-17172D01*
X20865Y-17886D02*
X20865Y-17943D01*
X20827Y-18000D01*
X20789Y-18029D01*
X20713Y-18058D01*
X20560Y-18086D01*
X20370Y-18086D01*
X20218Y-18058D01*
X20141Y-18029D01*
X20103Y-18000D01*
X20065Y-17943D01*
X20065Y-17886D01*
X20103Y-17829D01*
X20141Y-17800D01*
X20218Y-17772D01*
X20370Y-17743D01*
X20560Y-17743D01*
X20713Y-17772D01*
X20789Y-17800D01*
X20827Y-17829D01*
X20865Y-17886D01*
X20865Y-18457D02*
X20865Y-18514D01*
X20827Y-18571D01*
X20789Y-18600D01*
X20713Y-18629D01*
X20560Y-18657D01*
X20370Y-18657D01*
X20218Y-18629D01*
X20141Y-18600D01*
X20103Y-18571D01*
X20065Y-18514D01*
X20065Y-18457D01*
X20103Y-18400D01*
X20141Y-18371D01*
X20218Y-18343D01*
X20370Y-18314D01*
X20560Y-18314D01*
X20713Y-18343D01*
X20789Y-18371D01*
X20827Y-18400D01*
X20865Y-18457D01*
X20865Y-19028D02*
X20865Y-19085D01*
X20827Y-19142D01*
X20789Y-19171D01*
X20713Y-19200D01*
X20560Y-19228D01*
X20370Y-19228D01*
X20218Y-19200D01*
X20141Y-19171D01*
X20103Y-19142D01*
X20065Y-19085D01*
X20065Y-19028D01*
X20103Y-18971D01*
X20141Y-18942D01*
X20218Y-18914D01*
X20370Y-18885D01*
X20560Y-18885D01*
X20713Y-18914D01*
X20789Y-18942D01*
X20827Y-18971D01*
X20865Y-19028D01*
X19749Y-10000D02*
X19749Y-26000D01*
X18750Y-10000D02*
X21029Y-10000D01*
X18750Y-26000D02*
X21029Y-26000D01*
X19749Y-26000D02*
X19519Y-25557D01*
X19749Y-26000D02*
X19979Y-25557D01*
X19749Y-10000D02*
X19519Y-10443D01*
X19749Y-10000D02*
X19979Y-10443D01*
X12458Y-07635D02*
X12515Y-07635D01*
X12572Y-07673D01*
X12601Y-07711D01*
X12630Y-07787D01*
X12658Y-07940D01*
X12658Y-08130D01*
X12630Y-08282D01*
X12601Y-08359D01*
X12572Y-08397D01*
X12515Y-08435D01*
X12458Y-08435D01*
X12401Y-08397D01*
X12372Y-08359D01*
X12344Y-08282D01*
X12315Y-08130D01*
X12315Y-07940D01*
X12344Y-07787D01*
X12372Y-07711D01*
X12401Y-07673D01*
X12458Y-07635D01*
X12915Y-08359D02*
X12943Y-08397D01*
X12915Y-08435D01*
X12886Y-08397D01*
X12915Y-08359D01*
X12915Y-08435D01*
X13287Y-07978D02*
X13229Y-07940D01*
X13201Y-07901D01*
X13172Y-07825D01*
X13172Y-07787D01*
X13201Y-07711D01*
X13229Y-07673D01*
X13287Y-07635D01*
X13401Y-07635D01*
X13458Y-07673D01*
X13487Y-07711D01*
X13515Y-07787D01*
X13515Y-07825D01*
X13487Y-07901D01*
X13458Y-07940D01*
X13401Y-07978D01*
X13287Y-07978D01*
X13229Y-08016D01*
X13201Y-08054D01*
X13172Y-08130D01*
X13172Y-08282D01*
X13201Y-08359D01*
X13229Y-08397D01*
X13287Y-08435D01*
X13401Y-08435D01*
X13458Y-08397D01*
X13487Y-08359D01*
X13515Y-08282D01*
X13515Y-08130D01*
X13487Y-08054D01*
X13458Y-08016D01*
X13401Y-07978D01*
X13886Y-07635D02*
X13943Y-07635D01*
X14000Y-07673D01*
X14029Y-07711D01*
X14058Y-07787D01*
X14086Y-07940D01*
X14086Y-08130D01*
X14058Y-08282D01*
X14029Y-08359D01*
X14000Y-08397D01*
X13943Y-08435D01*
X13886Y-08435D01*
X13829Y-08397D01*
X13800Y-08359D01*
X13772Y-08282D01*
X13743Y-08130D01*
X13743Y-07940D01*
X13772Y-07787D01*
X13800Y-07711D01*
X13829Y-07673D01*
X13886Y-07635D01*
X14457Y-07635D02*
X14514Y-07635D01*
X14571Y-07673D01*
X14600Y-07711D01*
X14629Y-07787D01*
X14657Y-07940D01*
X14657Y-08130D01*
X14629Y-08282D01*
X14600Y-08359D01*
X14571Y-08397D01*
X14514Y-08435D01*
X14457Y-08435D01*
X14400Y-08397D01*
X14371Y-08359D01*
X14343Y-08282D01*
X14314Y-08130D01*
X14314Y-07940D01*
X14343Y-07787D01*
X14371Y-07711D01*
X14400Y-07673D01*
X14457Y-07635D01*
X15028Y-07635D02*
X15085Y-07635D01*
X15142Y-07673D01*
X15171Y-07711D01*
X15200Y-07787D01*
X15228Y-07940D01*
X15228Y-08130D01*
X15200Y-08282D01*
X15171Y-08359D01*
X15142Y-08397D01*
X15085Y-08435D01*
X15028Y-08435D01*
X14971Y-08397D01*
X14942Y-08359D01*
X14914Y-08282D01*
X14885Y-08130D01*
X14885Y-07940D01*
X14914Y-07787D01*
X14942Y-07711D01*
X14971Y-07673D01*
X15028Y-07635D01*
X10000Y-08751D02*
X18000Y-08751D01*
X10000Y-09250D02*
X10000Y-07471D01*
X18000Y-09250D02*
X18000Y-07471D01*
X18000Y-08751D02*
X17557Y-08981D01*
X18000Y-08751D02*
X17557Y-08521D01*
X10000Y-08751D02*
X10443Y-08981D01*
X10000Y-08751D02*
X10443Y-08521D01*
G54D12*
X10000Y-26000D02*
X10000Y-10000D01*
X18000Y-26000D02*
X10000Y-26000D01*
X18000Y-10000D02*
X18000Y-26000D01*
X10000Y-10000D02*
X18000Y-10000D01*
G54D10*
X12400Y-24150D02*
X12600Y-24350D01*
X12600Y-24150D02*
X12400Y-24350D01*
X12650Y-15900D02*
X12850Y-16100D01*
X12850Y-15900D02*
X12650Y-16100D01*
X13150Y-16400D02*
X13350Y-16600D01*
X13350Y-16400D02*
X13150Y-16600D01*
X13150Y-23150D02*
X13350Y-23350D01*
X13350Y-23150D02*
X13150Y-23350D01*
X13650Y-16900D02*
X13850Y-17100D01*
X13850Y-16900D02*
X13650Y-17100D01*
X13650Y-21900D02*
X13850Y-22100D01*
X13850Y-21900D02*
X13650Y-22100D01*
X14150Y-17400D02*
X14350Y-17600D01*
X14350Y-17400D02*
X14150Y-17600D01*
X14150Y-22400D02*
X14350Y-22600D01*
X14350Y-22400D02*
X14150Y-22600D01*
X14650Y-16650D02*
X14850Y-16850D01*
X14850Y-16650D02*
X14650Y-16850D01*
X14650Y-23150D02*
X14850Y-23350D01*
X14850Y-23150D02*
X14650Y-23350D01*
X15400Y-24150D02*
X15600Y-24350D01*
X15600Y-24150D02*
X15400Y-24350D01*
X12660Y-14250D02*
X12656Y-14281D01*
X12647Y-14310D01*
X12633Y-14338D01*
X12613Y-14362D01*
X12589Y-14382D01*
X12562Y-14397D01*
X12532Y-14406D01*
X12501Y-14409D01*
X12471Y-14407D01*
X12441Y-14398D01*
X12413Y-14383D01*
X12389Y-14364D01*
X12368Y-14340D01*
X12353Y-14313D01*
X12344Y-14283D01*
X12341Y-14252D01*
X12343Y-14222D01*
X12352Y-14192D01*
X12366Y-14164D01*
X12385Y-14139D01*
X12409Y-14119D01*
X12436Y-14104D01*
X12466Y-14094D01*
X12497Y-14091D01*
X12527Y-14093D01*
X12557Y-14101D01*
X12585Y-14115D01*
X12610Y-14135D01*
X12630Y-14158D01*
X12646Y-14185D01*
X12656Y-14215D01*
X12659Y-14246D01*
X12660Y-14250D01*
X13160Y-15250D02*
X13156Y-15281D01*
X13147Y-15310D01*
X13133Y-15338D01*
X13113Y-15362D01*
X13089Y-15382D01*
X13062Y-15397D01*
X13032Y-15406D01*
X13001Y-15409D01*
X12971Y-15407D01*
X12941Y-15398D01*
X12913Y-15383D01*
X12889Y-15364D01*
X12868Y-15340D01*
X12853Y-15313D01*
X12844Y-15283D01*
X12841Y-15252D01*
X12843Y-15222D01*
X12852Y-15192D01*
X12866Y-15164D01*
X12885Y-15139D01*
X12909Y-15119D01*
X12936Y-15104D01*
X12966Y-15094D01*
X12997Y-15091D01*
X13027Y-15093D01*
X13057Y-15101D01*
X13085Y-15115D01*
X13110Y-15135D01*
X13130Y-15158D01*
X13146Y-15185D01*
X13156Y-15215D01*
X13159Y-15246D01*
X13160Y-15250D01*
X15160Y-15250D02*
X15156Y-15281D01*
X15147Y-15310D01*
X15133Y-15338D01*
X15113Y-15362D01*
X15089Y-15382D01*
X15062Y-15397D01*
X15032Y-15406D01*
X15001Y-15409D01*
X14971Y-15407D01*
X14941Y-15398D01*
X14913Y-15383D01*
X14889Y-15364D01*
X14868Y-15340D01*
X14853Y-15313D01*
X14844Y-15283D01*
X14841Y-15252D01*
X14843Y-15222D01*
X14852Y-15192D01*
X14866Y-15164D01*
X14885Y-15139D01*
X14909Y-15119D01*
X14936Y-15104D01*
X14966Y-15094D01*
X14997Y-15091D01*
X15027Y-15093D01*
X15057Y-15101D01*
X15085Y-15115D01*
X15110Y-15135D01*
X15130Y-15158D01*
X15146Y-15185D01*
X15156Y-15215D01*
X15159Y-15246D01*
X15160Y-15250D01*
X15660Y-14250D02*
X15656Y-14281D01*
X15647Y-14310D01*
X15633Y-14338D01*
X15613Y-14362D01*
X15589Y-14382D01*
X15562Y-14397D01*
X15532Y-14406D01*
X15501Y-14409D01*
X15471Y-14407D01*
X15441Y-14398D01*
X15413Y-14383D01*
X15389Y-14364D01*
X15368Y-14340D01*
X15353Y-14313D01*
X15344Y-14283D01*
X15341Y-14252D01*
X15343Y-14222D01*
X15352Y-14192D01*
X15366Y-14164D01*
X15385Y-14139D01*
X15409Y-14119D01*
X15436Y-14104D01*
X15466Y-14094D01*
X15497Y-14091D01*
X15527Y-14093D01*
X15557Y-14101D01*
X15585Y-14115D01*
X15610Y-14135D01*
X15630Y-14158D01*
X15646Y-14185D01*
X15656Y-14215D01*
X15659Y-14246D01*
X15660Y-14250D01*
X10500Y-10800D02*
X10500Y-11200D01*
X10700Y-11000D02*
X10300Y-11000D01*
X10500Y-11800D02*
X10500Y-12200D01*
X10700Y-12000D02*
X10300Y-12000D01*
X10500Y-12800D02*
X10500Y-13200D01*
X10700Y-13000D02*
X10300Y-13000D01*
X11000Y-14050D02*
X11000Y-14450D01*
X11200Y-14250D02*
X10800Y-14250D01*
X11000Y-15050D02*
X11000Y-15450D01*
X11200Y-15250D02*
X10800Y-15250D01*
X11000Y-16050D02*
X11000Y-16450D01*
X11200Y-16250D02*
X10800Y-16250D01*
X11000Y-17050D02*
X11000Y-17450D01*
X11200Y-17250D02*
X10800Y-17250D01*
X11000Y-18050D02*
X11000Y-18450D01*
X11200Y-18250D02*
X10800Y-18250D01*
X11000Y-19050D02*
X11000Y-19450D01*
X11200Y-19250D02*
X10800Y-19250D01*
X11000Y-20050D02*
X11000Y-20450D01*
X11200Y-20250D02*
X10800Y-20250D01*
X11000Y-21050D02*
X11000Y-21450D01*
X11200Y-21250D02*
X10800Y-21250D01*
X11000Y-22050D02*
X11000Y-22450D01*
X11200Y-22250D02*
X10800Y-22250D01*
X11000Y-23050D02*
X11000Y-23450D01*
X11200Y-23250D02*
X10800Y-23250D01*
X11000Y-24050D02*
X11000Y-24450D01*
X11200Y-24250D02*
X10800Y-24250D01*
X11000Y-25050D02*
X11000Y-25450D01*
X11200Y-25250D02*
X10800Y-25250D01*
X11500Y-11800D02*
X11500Y-12200D01*
X11700Y-12000D02*
X11300Y-12000D01*
X12500Y-10800D02*
X12500Y-11200D01*
X12700Y-11000D02*
X12300Y-11000D01*
X12500Y-11800D02*
X12500Y-12200D01*
X12700Y-12000D02*
X12300Y-12000D01*
X12500Y-12800D02*
X12500Y-13200D01*
X12700Y-13000D02*
X12300Y-13000D01*
X13500Y-10800D02*
X13500Y-11200D01*
X13700Y-11000D02*
X13300Y-11000D01*
X13500Y-11800D02*
X13500Y-12200D01*
X13700Y-12000D02*
X13300Y-12000D01*
X13500Y-12800D02*
X13500Y-13200D01*
X13700Y-13000D02*
X13300Y-13000D01*
X14500Y-10800D02*
X14500Y-11200D01*
X14700Y-11000D02*
X14300Y-11000D01*
X14500Y-11800D02*
X14500Y-12200D01*
X14700Y-12000D02*
X14300Y-12000D01*
X14500Y-12800D02*
X14500Y-13200D01*
X14700Y-13000D02*
X14300Y-13000D01*
X14500Y-14050D02*
X14500Y-14450D01*
X14700Y-14250D02*
X14300Y-14250D01*
X15500Y-10800D02*
X15500Y-11200D01*
X15700Y-11000D02*
X15300Y-11000D01*
X15500Y-11800D02*
X15500Y-12200D01*
X15700Y-12000D02*
X15300Y-12000D01*
X15500Y-12800D02*
X15500Y-13200D01*
X15700Y-13000D02*
X15300Y-13000D01*
X16500Y-11800D02*
X16500Y-12200D01*
X16700Y-12000D02*
X16300Y-12000D01*
X17000Y-14050D02*
X17000Y-14450D01*
X17200Y-14250D02*
X16800Y-14250D01*
X17000Y-15050D02*
X17000Y-15450D01*
X17200Y-15250D02*
X16800Y-15250D01*
X17000Y-16050D02*
X17000Y-16450D01*
X17200Y-16250D02*
X16800Y-16250D01*
X17000Y-17050D02*
X17000Y-17450D01*
X17200Y-17250D02*
X16800Y-17250D01*
X17000Y-18050D02*
X17000Y-18450D01*
X17200Y-18250D02*
X16800Y-18250D01*
X17000Y-19050D02*
X17000Y-19450D01*
X17200Y-19250D02*
X16800Y-19250D01*
X17000Y-20050D02*
X17000Y-20450D01*
X17200Y-20250D02*
X16800Y-20250D01*
X17000Y-21050D02*
X17000Y-21450D01*
X17200Y-21250D02*
X16800Y-21250D01*
X17000Y-22050D02*
X17000Y-22450D01*
X17200Y-22250D02*
X16800Y-22250D01*
X17000Y-23050D02*
X17000Y-23450D01*
X17200Y-23250D02*
X16800Y-23250D01*
X17000Y-24050D02*
X17000Y-24450D01*
X17200Y-24250D02*
X16800Y-24250D01*
X17000Y-25050D02*
X17000Y-25450D01*
X17200Y-25250D02*
X16800Y-25250D01*
X17500Y-10800D02*
X17500Y-11200D01*
X17700Y-11000D02*
X17300Y-11000D01*
X17500Y-11800D02*
X17500Y-12200D01*
X17700Y-12000D02*
X17300Y-12000D01*
X17500Y-12800D02*
X17500Y-13200D01*
X17700Y-13000D02*
X17300Y-13000D01*
X14600Y-24750D02*
X14588Y-24866D01*
X14554Y-24978D01*
X14499Y-25082D01*
X14425Y-25172D01*
X14335Y-25247D01*
X14232Y-25303D01*
X14120Y-25337D01*
X14004Y-25349D01*
X13888Y-25339D01*
X13776Y-25306D01*
X13672Y-25252D01*
X13581Y-25178D01*
X13505Y-25088D01*
X13449Y-24986D01*
X13414Y-24874D01*
X13401Y-24758D01*
X13410Y-24642D01*
X13443Y-24530D01*
X13496Y-24425D01*
X13569Y-24334D01*
X13658Y-24258D01*
X13760Y-24201D01*
X13872Y-24164D01*
X13988Y-24151D01*
X14104Y-24160D01*
X14216Y-24191D01*
X14321Y-24244D01*
X14413Y-24316D01*
X14490Y-24405D01*
X14548Y-24506D01*
X14585Y-24618D01*
X14599Y-24734D01*
X14600Y-24750D01*
X13400Y-24150D02*
X14600Y-25350D01*
X14600Y-24150D02*
X13400Y-25350D01*
G54D13*
X10339Y-27255D02*
X10339Y-26455D01*
X10530Y-26455D01*
X10644Y-26493D01*
X10720Y-26569D01*
X10759Y-26645D01*
X10797Y-26798D01*
X10797Y-26912D01*
X10759Y-27064D01*
X10720Y-27141D01*
X10644Y-27217D01*
X10530Y-27255D01*
X10339Y-27255D01*
X11139Y-27255D02*
X11139Y-26721D01*
X11139Y-26874D02*
X11178Y-26798D01*
X11216Y-26760D01*
X11292Y-26721D01*
X11368Y-26721D01*
X11634Y-27255D02*
X11634Y-26721D01*
X11634Y-26455D02*
X11596Y-26493D01*
X11634Y-26531D01*
X11673Y-26493D01*
X11634Y-26455D01*
X11634Y-26531D01*
X12130Y-27255D02*
X12054Y-27217D01*
X12015Y-27141D01*
X12015Y-26455D01*
X12549Y-27255D02*
X12473Y-27217D01*
X12434Y-27141D01*
X12434Y-26455D01*
X13463Y-27255D02*
X13463Y-26455D01*
X13730Y-27026D01*
X13997Y-26455D01*
X13997Y-27255D01*
X14720Y-27255D02*
X14720Y-26836D01*
X14682Y-26760D01*
X14606Y-26721D01*
X14454Y-26721D01*
X14377Y-26760D01*
X14720Y-27217D02*
X14644Y-27255D01*
X14454Y-27255D01*
X14377Y-27217D01*
X14339Y-27141D01*
X14339Y-27064D01*
X14377Y-26988D01*
X14454Y-26950D01*
X14644Y-26950D01*
X14720Y-26912D01*
X15101Y-26721D02*
X15101Y-27521D01*
X15101Y-26760D02*
X15178Y-26721D01*
X15330Y-26721D01*
X15406Y-26760D01*
X15444Y-26798D01*
X15482Y-26874D01*
X15482Y-27102D01*
X15444Y-27179D01*
X15406Y-27217D01*
X15330Y-27255D01*
X15178Y-27255D01*
X15101Y-27217D01*
X15825Y-27179D02*
X15864Y-27217D01*
X15825Y-27255D01*
X15787Y-27217D01*
X15825Y-27179D01*
X15825Y-27255D01*
X15825Y-26760D02*
X15864Y-26798D01*
X15825Y-26836D01*
X15787Y-26798D01*
X15825Y-26760D01*
X15825Y-26836D01*
X09749Y-28511D02*
X09949Y-28711D01*
X09949Y-28511D02*
X09749Y-28711D01*
X10492Y-28135D02*
X10568Y-28135D01*
X10644Y-28173D01*
X10682Y-28211D01*
X10720Y-28287D01*
X10759Y-28440D01*
X10759Y-28630D01*
X10720Y-28782D01*
X10682Y-28859D01*
X10644Y-28897D01*
X10568Y-28935D01*
X10492Y-28935D01*
X10416Y-28897D01*
X10378Y-28859D01*
X10339Y-28782D01*
X10301Y-28630D01*
X10301Y-28440D01*
X10339Y-28287D01*
X10378Y-28211D01*
X10416Y-28173D01*
X10492Y-28135D01*
X11101Y-28859D02*
X11140Y-28897D01*
X11101Y-28935D01*
X11063Y-28897D01*
X11101Y-28859D01*
X11101Y-28935D01*
X11635Y-28135D02*
X11711Y-28135D01*
X11787Y-28173D01*
X11825Y-28211D01*
X11863Y-28287D01*
X11902Y-28440D01*
X11902Y-28630D01*
X11863Y-28782D01*
X11825Y-28859D01*
X11787Y-28897D01*
X11711Y-28935D01*
X11635Y-28935D01*
X11559Y-28897D01*
X11521Y-28859D01*
X11482Y-28782D01*
X11444Y-28630D01*
X11444Y-28440D01*
X11482Y-28287D01*
X11521Y-28211D01*
X11559Y-28173D01*
X11635Y-28135D01*
X12206Y-28211D02*
X12244Y-28173D01*
X12321Y-28135D01*
X12511Y-28135D01*
X12587Y-28173D01*
X12625Y-28211D01*
X12664Y-28287D01*
X12664Y-28363D01*
X12625Y-28478D01*
X12168Y-28935D01*
X12664Y-28935D01*
X13159Y-28135D02*
X13235Y-28135D01*
X13311Y-28173D01*
X13349Y-28211D01*
X13387Y-28287D01*
X13426Y-28440D01*
X13426Y-28630D01*
X13387Y-28782D01*
X13349Y-28859D01*
X13311Y-28897D01*
X13235Y-28935D01*
X13159Y-28935D01*
X13083Y-28897D01*
X13045Y-28859D01*
X13006Y-28782D01*
X12968Y-28630D01*
X12968Y-28440D01*
X13006Y-28287D01*
X13045Y-28211D01*
X13083Y-28173D01*
X13159Y-28135D01*
X13730Y-28135D02*
X13730Y-28287D01*
X14035Y-28135D02*
X14035Y-28287D01*
X15560Y-28097D02*
X14874Y-29125D01*
X16589Y-28135D02*
X16665Y-28135D01*
X16741Y-28173D01*
X16779Y-28211D01*
X16817Y-28287D01*
X16856Y-28440D01*
X16856Y-28630D01*
X16817Y-28782D01*
X16779Y-28859D01*
X16741Y-28897D01*
X16665Y-28935D01*
X16589Y-28935D01*
X16513Y-28897D01*
X16475Y-28859D01*
X16436Y-28782D01*
X16398Y-28630D01*
X16398Y-28440D01*
X16436Y-28287D01*
X16475Y-28211D01*
X16513Y-28173D01*
X16589Y-28135D01*
X17198Y-28859D02*
X17237Y-28897D01*
X17198Y-28935D01*
X17160Y-28897D01*
X17198Y-28859D01*
X17198Y-28935D01*
X17960Y-28135D02*
X17579Y-28135D01*
X17541Y-28516D01*
X17579Y-28478D01*
X17656Y-28440D01*
X17846Y-28440D01*
X17922Y-28478D01*
X17960Y-28516D01*
X17999Y-28592D01*
X17999Y-28782D01*
X17960Y-28859D01*
X17922Y-28897D01*
X17846Y-28935D01*
X17656Y-28935D01*
X17579Y-28897D01*
X17541Y-28859D01*
X18761Y-28935D02*
X18303Y-28935D01*
X18532Y-28935D02*
X18532Y-28135D01*
X18456Y-28249D01*
X18380Y-28325D01*
X18303Y-28363D01*
X19103Y-28935D02*
X19103Y-28401D01*
X19103Y-28478D02*
X19142Y-28440D01*
X19218Y-28401D01*
X19332Y-28401D01*
X19408Y-28440D01*
X19446Y-28516D01*
X19446Y-28935D01*
X19446Y-28516D02*
X19484Y-28440D01*
X19561Y-28401D01*
X19675Y-28401D01*
X19751Y-28440D01*
X19789Y-28516D01*
X19789Y-28935D01*
X20170Y-28935D02*
X20170Y-28401D01*
X20170Y-28478D02*
X20209Y-28440D01*
X20285Y-28401D01*
X20399Y-28401D01*
X20475Y-28440D01*
X20513Y-28516D01*
X20513Y-28935D01*
X20513Y-28516D02*
X20551Y-28440D01*
X20628Y-28401D01*
X20742Y-28401D01*
X20818Y-28440D01*
X20856Y-28516D01*
X20856Y-28935D01*
X22076Y-29240D02*
X22038Y-29201D01*
X21962Y-29087D01*
X21924Y-29011D01*
X21886Y-28897D01*
X21847Y-28706D01*
X21847Y-28554D01*
X21886Y-28363D01*
X21924Y-28249D01*
X21962Y-28173D01*
X22038Y-28059D01*
X22076Y-28021D01*
X22800Y-28935D02*
X22342Y-28935D01*
X22571Y-28935D02*
X22571Y-28135D01*
X22495Y-28249D01*
X22419Y-28325D01*
X22342Y-28363D01*
X23562Y-28935D02*
X23104Y-28935D01*
X23333Y-28935D02*
X23333Y-28135D01*
X23257Y-28249D01*
X23181Y-28325D01*
X23104Y-28363D01*
X24514Y-28935D02*
X24514Y-28135D01*
X24857Y-28935D02*
X24857Y-28516D01*
X24819Y-28440D01*
X24743Y-28401D01*
X24629Y-28401D01*
X24553Y-28440D01*
X24514Y-28478D01*
X25353Y-28935D02*
X25277Y-28897D01*
X25238Y-28859D01*
X25200Y-28782D01*
X25200Y-28554D01*
X25238Y-28478D01*
X25277Y-28440D01*
X25353Y-28401D01*
X25467Y-28401D01*
X25543Y-28440D01*
X25581Y-28478D01*
X25619Y-28554D01*
X25619Y-28782D01*
X25581Y-28859D01*
X25543Y-28897D01*
X25467Y-28935D01*
X25353Y-28935D01*
X26077Y-28935D02*
X26001Y-28897D01*
X25962Y-28821D01*
X25962Y-28135D01*
X26686Y-28897D02*
X26610Y-28935D01*
X26458Y-28935D01*
X26381Y-28897D01*
X26343Y-28821D01*
X26343Y-28516D01*
X26381Y-28440D01*
X26458Y-28401D01*
X26610Y-28401D01*
X26686Y-28440D01*
X26724Y-28516D01*
X26724Y-28592D01*
X26343Y-28668D01*
X27029Y-28897D02*
X27106Y-28935D01*
X27258Y-28935D01*
X27334Y-28897D01*
X27372Y-28821D01*
X27372Y-28782D01*
X27334Y-28706D01*
X27258Y-28668D01*
X27144Y-28668D01*
X27067Y-28630D01*
X27029Y-28554D01*
X27029Y-28516D01*
X27067Y-28440D01*
X27144Y-28401D01*
X27258Y-28401D01*
X27334Y-28440D01*
X27639Y-29240D02*
X27677Y-29201D01*
X27754Y-29087D01*
X27792Y-29011D01*
X27830Y-28897D01*
X27868Y-28706D01*
X27868Y-28554D01*
X27830Y-28363D01*
X27792Y-28249D01*
X27754Y-28173D01*
X27677Y-28059D01*
X27639Y-28021D01*
G54D10*
X09949Y-29666D02*
X09945Y-29697D01*
X09936Y-29726D01*
X09922Y-29754D01*
X09902Y-29778D01*
X09878Y-29798D01*
X09851Y-29813D01*
X09821Y-29822D01*
X09790Y-29825D01*
X09760Y-29823D01*
X09730Y-29814D01*
X09702Y-29799D01*
X09678Y-29780D01*
X09657Y-29756D01*
X09642Y-29729D01*
X09633Y-29699D01*
X09630Y-29668D01*
X09632Y-29638D01*
X09641Y-29608D01*
X09655Y-29580D01*
X09674Y-29555D01*
X09698Y-29535D01*
X09725Y-29520D01*
X09755Y-29510D01*
X09786Y-29507D01*
X09816Y-29509D01*
X09846Y-29517D01*
X09874Y-29531D01*
X09899Y-29551D01*
X09919Y-29574D01*
X09935Y-29601D01*
X09945Y-29631D01*
X09948Y-29662D01*
X09949Y-29666D01*
G54D13*
X10492Y-29190D02*
X10568Y-29190D01*
X10644Y-29228D01*
X10682Y-29266D01*
X10720Y-29342D01*
X10759Y-29495D01*
X10759Y-29685D01*
X10720Y-29837D01*
X10682Y-29914D01*
X10644Y-29952D01*
X10568Y-29990D01*
X10492Y-29990D01*
X10416Y-29952D01*
X10378Y-29914D01*
X10339Y-29837D01*
X10301Y-29685D01*
X10301Y-29495D01*
X10339Y-29342D01*
X10378Y-29266D01*
X10416Y-29228D01*
X10492Y-29190D01*
X11101Y-29914D02*
X11140Y-29952D01*
X11101Y-29990D01*
X11063Y-29952D01*
X11101Y-29914D01*
X11101Y-29990D01*
X11635Y-29190D02*
X11711Y-29190D01*
X11787Y-29228D01*
X11825Y-29266D01*
X11863Y-29342D01*
X11902Y-29495D01*
X11902Y-29685D01*
X11863Y-29837D01*
X11825Y-29914D01*
X11787Y-29952D01*
X11711Y-29990D01*
X11635Y-29990D01*
X11559Y-29952D01*
X11521Y-29914D01*
X11482Y-29837D01*
X11444Y-29685D01*
X11444Y-29495D01*
X11482Y-29342D01*
X11521Y-29266D01*
X11559Y-29228D01*
X11635Y-29190D01*
X12168Y-29190D02*
X12664Y-29190D01*
X12397Y-29495D01*
X12511Y-29495D01*
X12587Y-29533D01*
X12625Y-29571D01*
X12664Y-29647D01*
X12664Y-29837D01*
X12625Y-29914D01*
X12587Y-29952D01*
X12511Y-29990D01*
X12283Y-29990D01*
X12206Y-29952D01*
X12168Y-29914D01*
X12968Y-29266D02*
X13006Y-29228D01*
X13083Y-29190D01*
X13273Y-29190D01*
X13349Y-29228D01*
X13387Y-29266D01*
X13426Y-29342D01*
X13426Y-29418D01*
X13387Y-29533D01*
X12930Y-29990D01*
X13426Y-29990D01*
X13730Y-29190D02*
X13730Y-29342D01*
X14035Y-29190D02*
X14035Y-29342D01*
X15560Y-29152D02*
X14874Y-30180D01*
X16589Y-29190D02*
X16665Y-29190D01*
X16741Y-29228D01*
X16779Y-29266D01*
X16817Y-29342D01*
X16856Y-29495D01*
X16856Y-29685D01*
X16817Y-29837D01*
X16779Y-29914D01*
X16741Y-29952D01*
X16665Y-29990D01*
X16589Y-29990D01*
X16513Y-29952D01*
X16475Y-29914D01*
X16436Y-29837D01*
X16398Y-29685D01*
X16398Y-29495D01*
X16436Y-29342D01*
X16475Y-29266D01*
X16513Y-29228D01*
X16589Y-29190D01*
X17198Y-29914D02*
X17237Y-29952D01*
X17198Y-29990D01*
X17160Y-29952D01*
X17198Y-29914D01*
X17198Y-29990D01*
X17694Y-29533D02*
X17618Y-29495D01*
X17579Y-29456D01*
X17541Y-29380D01*
X17541Y-29342D01*
X17579Y-29266D01*
X17618Y-29228D01*
X17694Y-29190D01*
X17846Y-29190D01*
X17922Y-29228D01*
X17960Y-29266D01*
X17999Y-29342D01*
X17999Y-29380D01*
X17960Y-29456D01*
X17922Y-29495D01*
X17846Y-29533D01*
X17694Y-29533D01*
X17618Y-29571D01*
X17579Y-29609D01*
X17541Y-29685D01*
X17541Y-29837D01*
X17579Y-29914D01*
X17618Y-29952D01*
X17694Y-29990D01*
X17846Y-29990D01*
X17922Y-29952D01*
X17960Y-29914D01*
X17999Y-29837D01*
X17999Y-29685D01*
X17960Y-29609D01*
X17922Y-29571D01*
X17846Y-29533D01*
X18761Y-29990D02*
X18303Y-29990D01*
X18532Y-29990D02*
X18532Y-29190D01*
X18456Y-29304D01*
X18380Y-29380D01*
X18303Y-29418D01*
X19103Y-29990D02*
X19103Y-29456D01*
X19103Y-29533D02*
X19142Y-29495D01*
X19218Y-29456D01*
X19332Y-29456D01*
X19408Y-29495D01*
X19446Y-29571D01*
X19446Y-29990D01*
X19446Y-29571D02*
X19484Y-29495D01*
X19561Y-29456D01*
X19675Y-29456D01*
X19751Y-29495D01*
X19789Y-29571D01*
X19789Y-29990D01*
X20170Y-29990D02*
X20170Y-29456D01*
X20170Y-29533D02*
X20209Y-29495D01*
X20285Y-29456D01*
X20399Y-29456D01*
X20475Y-29495D01*
X20513Y-29571D01*
X20513Y-29990D01*
X20513Y-29571D02*
X20551Y-29495D01*
X20628Y-29456D01*
X20742Y-29456D01*
X20818Y-29495D01*
X20856Y-29571D01*
X20856Y-29990D01*
X22076Y-30295D02*
X22038Y-30256D01*
X21962Y-30142D01*
X21924Y-30066D01*
X21886Y-29952D01*
X21847Y-29761D01*
X21847Y-29609D01*
X21886Y-29418D01*
X21924Y-29304D01*
X21962Y-29228D01*
X22038Y-29114D01*
X22076Y-29076D01*
X22723Y-29456D02*
X22723Y-29990D01*
X22533Y-29152D02*
X22342Y-29723D01*
X22838Y-29723D01*
X23752Y-29990D02*
X23752Y-29190D01*
X24095Y-29990D02*
X24095Y-29571D01*
X24057Y-29495D01*
X23981Y-29456D01*
X23867Y-29456D01*
X23791Y-29495D01*
X23752Y-29533D01*
X24591Y-29990D02*
X24515Y-29952D01*
X24476Y-29914D01*
X24438Y-29837D01*
X24438Y-29609D01*
X24476Y-29533D01*
X24515Y-29495D01*
X24591Y-29456D01*
X24705Y-29456D01*
X24781Y-29495D01*
X24819Y-29533D01*
X24857Y-29609D01*
X24857Y-29837D01*
X24819Y-29914D01*
X24781Y-29952D01*
X24705Y-29990D01*
X24591Y-29990D01*
X25315Y-29990D02*
X25239Y-29952D01*
X25200Y-29876D01*
X25200Y-29190D01*
X25924Y-29952D02*
X25848Y-29990D01*
X25696Y-29990D01*
X25619Y-29952D01*
X25581Y-29876D01*
X25581Y-29571D01*
X25619Y-29495D01*
X25696Y-29456D01*
X25848Y-29456D01*
X25924Y-29495D01*
X25962Y-29571D01*
X25962Y-29647D01*
X25581Y-29723D01*
X26267Y-29952D02*
X26344Y-29990D01*
X26496Y-29990D01*
X26572Y-29952D01*
X26610Y-29876D01*
X26610Y-29837D01*
X26572Y-29761D01*
X26496Y-29723D01*
X26382Y-29723D01*
X26305Y-29685D01*
X26267Y-29609D01*
X26267Y-29571D01*
X26305Y-29495D01*
X26382Y-29456D01*
X26496Y-29456D01*
X26572Y-29495D01*
X26877Y-30295D02*
X26915Y-30256D01*
X26992Y-30142D01*
X27030Y-30066D01*
X27068Y-29952D01*
X27106Y-29761D01*
X27106Y-29609D01*
X27068Y-29418D01*
X27030Y-29304D01*
X26992Y-29228D01*
X26915Y-29114D01*
X26877Y-29076D01*
X09749Y-30521D02*
X09749Y-30921D01*
X09949Y-30721D02*
X09549Y-30721D01*
X10492Y-30245D02*
X10568Y-30245D01*
X10644Y-30283D01*
X10682Y-30321D01*
X10720Y-30397D01*
X10759Y-30550D01*
X10759Y-30740D01*
X10720Y-30892D01*
X10682Y-30969D01*
X10644Y-31007D01*
X10568Y-31045D01*
X10492Y-31045D01*
X10416Y-31007D01*
X10378Y-30969D01*
X10339Y-30892D01*
X10301Y-30740D01*
X10301Y-30550D01*
X10339Y-30397D01*
X10378Y-30321D01*
X10416Y-30283D01*
X10492Y-30245D01*
X11101Y-30969D02*
X11140Y-31007D01*
X11101Y-31045D01*
X11063Y-31007D01*
X11101Y-30969D01*
X11101Y-31045D01*
X11635Y-30245D02*
X11711Y-30245D01*
X11787Y-30283D01*
X11825Y-30321D01*
X11863Y-30397D01*
X11902Y-30550D01*
X11902Y-30740D01*
X11863Y-30892D01*
X11825Y-30969D01*
X11787Y-31007D01*
X11711Y-31045D01*
X11635Y-31045D01*
X11559Y-31007D01*
X11521Y-30969D01*
X11482Y-30892D01*
X11444Y-30740D01*
X11444Y-30550D01*
X11482Y-30397D01*
X11521Y-30321D01*
X11559Y-30283D01*
X11635Y-30245D01*
X12587Y-30511D02*
X12587Y-31045D01*
X12397Y-30207D02*
X12206Y-30778D01*
X12702Y-30778D01*
X13159Y-30245D02*
X13235Y-30245D01*
X13311Y-30283D01*
X13349Y-30321D01*
X13387Y-30397D01*
X13426Y-30550D01*
X13426Y-30740D01*
X13387Y-30892D01*
X13349Y-30969D01*
X13311Y-31007D01*
X13235Y-31045D01*
X13159Y-31045D01*
X13083Y-31007D01*
X13045Y-30969D01*
X13006Y-30892D01*
X12968Y-30740D01*
X12968Y-30550D01*
X13006Y-30397D01*
X13045Y-30321D01*
X13083Y-30283D01*
X13159Y-30245D01*
X13730Y-30245D02*
X13730Y-30397D01*
X14035Y-30245D02*
X14035Y-30397D01*
X15560Y-30207D02*
X14874Y-31235D01*
X16856Y-31045D02*
X16398Y-31045D01*
X16627Y-31045D02*
X16627Y-30245D01*
X16551Y-30359D01*
X16475Y-30435D01*
X16398Y-30473D01*
X17198Y-30969D02*
X17237Y-31007D01*
X17198Y-31045D01*
X17160Y-31007D01*
X17198Y-30969D01*
X17198Y-31045D01*
X17732Y-30245D02*
X17808Y-30245D01*
X17884Y-30283D01*
X17922Y-30321D01*
X17960Y-30397D01*
X17999Y-30550D01*
X17999Y-30740D01*
X17960Y-30892D01*
X17922Y-30969D01*
X17884Y-31007D01*
X17808Y-31045D01*
X17732Y-31045D01*
X17656Y-31007D01*
X17618Y-30969D01*
X17579Y-30892D01*
X17541Y-30740D01*
X17541Y-30550D01*
X17579Y-30397D01*
X17618Y-30321D01*
X17656Y-30283D01*
X17732Y-30245D01*
X18303Y-30321D02*
X18341Y-30283D01*
X18418Y-30245D01*
X18608Y-30245D01*
X18684Y-30283D01*
X18722Y-30321D01*
X18761Y-30397D01*
X18761Y-30473D01*
X18722Y-30588D01*
X18265Y-31045D01*
X18761Y-31045D01*
X19103Y-31045D02*
X19103Y-30511D01*
X19103Y-30588D02*
X19142Y-30550D01*
X19218Y-30511D01*
X19332Y-30511D01*
X19408Y-30550D01*
X19446Y-30626D01*
X19446Y-31045D01*
X19446Y-30626D02*
X19484Y-30550D01*
X19561Y-30511D01*
X19675Y-30511D01*
X19751Y-30550D01*
X19789Y-30626D01*
X19789Y-31045D01*
X20170Y-31045D02*
X20170Y-30511D01*
X20170Y-30588D02*
X20209Y-30550D01*
X20285Y-30511D01*
X20399Y-30511D01*
X20475Y-30550D01*
X20513Y-30626D01*
X20513Y-31045D01*
X20513Y-30626D02*
X20551Y-30550D01*
X20628Y-30511D01*
X20742Y-30511D01*
X20818Y-30550D01*
X20856Y-30626D01*
X20856Y-31045D01*
X22076Y-31350D02*
X22038Y-31311D01*
X21962Y-31197D01*
X21924Y-31121D01*
X21886Y-31007D01*
X21847Y-30816D01*
X21847Y-30664D01*
X21886Y-30473D01*
X21924Y-30359D01*
X21962Y-30283D01*
X22038Y-30169D01*
X22076Y-30131D01*
X22723Y-30511D02*
X22723Y-31045D01*
X22533Y-30207D02*
X22342Y-30778D01*
X22838Y-30778D01*
X23523Y-30245D02*
X23142Y-30245D01*
X23104Y-30626D01*
X23142Y-30588D01*
X23219Y-30550D01*
X23409Y-30550D01*
X23485Y-30588D01*
X23523Y-30626D01*
X23562Y-30702D01*
X23562Y-30892D01*
X23523Y-30969D01*
X23485Y-31007D01*
X23409Y-31045D01*
X23219Y-31045D01*
X23142Y-31007D01*
X23104Y-30969D01*
X24514Y-31045D02*
X24514Y-30245D01*
X24857Y-31045D02*
X24857Y-30626D01*
X24819Y-30550D01*
X24743Y-30511D01*
X24629Y-30511D01*
X24553Y-30550D01*
X24514Y-30588D01*
X25353Y-31045D02*
X25277Y-31007D01*
X25238Y-30969D01*
X25200Y-30892D01*
X25200Y-30664D01*
X25238Y-30588D01*
X25277Y-30550D01*
X25353Y-30511D01*
X25467Y-30511D01*
X25543Y-30550D01*
X25581Y-30588D01*
X25619Y-30664D01*
X25619Y-30892D01*
X25581Y-30969D01*
X25543Y-31007D01*
X25467Y-31045D01*
X25353Y-31045D01*
X26077Y-31045D02*
X26001Y-31007D01*
X25962Y-30931D01*
X25962Y-30245D01*
X26686Y-31007D02*
X26610Y-31045D01*
X26458Y-31045D01*
X26381Y-31007D01*
X26343Y-30931D01*
X26343Y-30626D01*
X26381Y-30550D01*
X26458Y-30511D01*
X26610Y-30511D01*
X26686Y-30550D01*
X26724Y-30626D01*
X26724Y-30702D01*
X26343Y-30778D01*
X27029Y-31007D02*
X27106Y-31045D01*
X27258Y-31045D01*
X27334Y-31007D01*
X27372Y-30931D01*
X27372Y-30892D01*
X27334Y-30816D01*
X27258Y-30778D01*
X27144Y-30778D01*
X27067Y-30740D01*
X27029Y-30664D01*
X27029Y-30626D01*
X27067Y-30550D01*
X27144Y-30511D01*
X27258Y-30511D01*
X27334Y-30550D01*
X27639Y-31350D02*
X27677Y-31311D01*
X27754Y-31197D01*
X27792Y-31121D01*
X27830Y-31007D01*
X27868Y-30816D01*
X27868Y-30664D01*
X27830Y-30473D01*
X27792Y-30359D01*
X27754Y-30283D01*
X27677Y-30169D01*
X27639Y-30131D01*
G54D10*
X09949Y-31776D02*
X09937Y-31892D01*
X09903Y-32004D01*
X09848Y-32108D01*
X09774Y-32198D01*
X09684Y-32273D01*
X09581Y-32329D01*
X09469Y-32363D01*
X09353Y-32375D01*
X09237Y-32365D01*
X09125Y-32332D01*
X09021Y-32278D01*
X08930Y-32204D01*
X08854Y-32114D01*
X08798Y-32012D01*
X08763Y-31900D01*
X08750Y-31784D01*
X08759Y-31668D01*
X08792Y-31556D01*
X08845Y-31451D01*
X08918Y-31360D01*
X09007Y-31284D01*
X09109Y-31227D01*
X09221Y-31190D01*
X09337Y-31177D01*
X09453Y-31186D01*
X09565Y-31217D01*
X09670Y-31270D01*
X09762Y-31342D01*
X09839Y-31431D01*
X09897Y-31532D01*
X09934Y-31644D01*
X09948Y-31760D01*
X09949Y-31776D01*
X08749Y-31176D02*
X09949Y-32376D01*
X09949Y-31176D02*
X08749Y-32376D01*
G54D13*
X10492Y-31300D02*
X10568Y-31300D01*
X10644Y-31338D01*
X10682Y-31376D01*
X10720Y-31452D01*
X10759Y-31605D01*
X10759Y-31795D01*
X10720Y-31947D01*
X10682Y-32024D01*
X10644Y-32062D01*
X10568Y-32100D01*
X10492Y-32100D01*
X10416Y-32062D01*
X10378Y-32024D01*
X10339Y-31947D01*
X10301Y-31795D01*
X10301Y-31605D01*
X10339Y-31452D01*
X10378Y-31376D01*
X10416Y-31338D01*
X10492Y-31300D01*
X11101Y-32024D02*
X11140Y-32062D01*
X11101Y-32100D01*
X11063Y-32062D01*
X11101Y-32024D01*
X11101Y-32100D01*
X11902Y-32100D02*
X11444Y-32100D01*
X11673Y-32100D02*
X11673Y-31300D01*
X11597Y-31414D01*
X11521Y-31490D01*
X11444Y-31528D01*
X12206Y-31376D02*
X12244Y-31338D01*
X12321Y-31300D01*
X12511Y-31300D01*
X12587Y-31338D01*
X12625Y-31376D01*
X12664Y-31452D01*
X12664Y-31528D01*
X12625Y-31643D01*
X12168Y-32100D01*
X12664Y-32100D01*
X13159Y-31300D02*
X13235Y-31300D01*
X13311Y-31338D01*
X13349Y-31376D01*
X13387Y-31452D01*
X13426Y-31605D01*
X13426Y-31795D01*
X13387Y-31947D01*
X13349Y-32024D01*
X13311Y-32062D01*
X13235Y-32100D01*
X13159Y-32100D01*
X13083Y-32062D01*
X13045Y-32024D01*
X13006Y-31947D01*
X12968Y-31795D01*
X12968Y-31605D01*
X13006Y-31452D01*
X13045Y-31376D01*
X13083Y-31338D01*
X13159Y-31300D01*
X13730Y-31300D02*
X13730Y-31452D01*
X14035Y-31300D02*
X14035Y-31452D01*
X15560Y-31262D02*
X14874Y-32290D01*
X16360Y-31300D02*
X16856Y-31300D01*
X16589Y-31605D01*
X16703Y-31605D01*
X16779Y-31643D01*
X16817Y-31681D01*
X16856Y-31757D01*
X16856Y-31947D01*
X16817Y-32024D01*
X16779Y-32062D01*
X16703Y-32100D01*
X16475Y-32100D01*
X16398Y-32062D01*
X16360Y-32024D01*
X17198Y-32024D02*
X17237Y-32062D01*
X17198Y-32100D01*
X17160Y-32062D01*
X17198Y-32024D01*
X17198Y-32100D01*
X17732Y-31300D02*
X17808Y-31300D01*
X17884Y-31338D01*
X17922Y-31376D01*
X17960Y-31452D01*
X17999Y-31605D01*
X17999Y-31795D01*
X17960Y-31947D01*
X17922Y-32024D01*
X17884Y-32062D01*
X17808Y-32100D01*
X17732Y-32100D01*
X17656Y-32062D01*
X17618Y-32024D01*
X17579Y-31947D01*
X17541Y-31795D01*
X17541Y-31605D01*
X17579Y-31452D01*
X17618Y-31376D01*
X17656Y-31338D01*
X17732Y-31300D01*
X18722Y-31300D02*
X18341Y-31300D01*
X18303Y-31681D01*
X18341Y-31643D01*
X18418Y-31605D01*
X18608Y-31605D01*
X18684Y-31643D01*
X18722Y-31681D01*
X18761Y-31757D01*
X18761Y-31947D01*
X18722Y-32024D01*
X18684Y-32062D01*
X18608Y-32100D01*
X18418Y-32100D01*
X18341Y-32062D01*
X18303Y-32024D01*
X19103Y-32100D02*
X19103Y-31566D01*
X19103Y-31643D02*
X19142Y-31605D01*
X19218Y-31566D01*
X19332Y-31566D01*
X19408Y-31605D01*
X19446Y-31681D01*
X19446Y-32100D01*
X19446Y-31681D02*
X19484Y-31605D01*
X19561Y-31566D01*
X19675Y-31566D01*
X19751Y-31605D01*
X19789Y-31681D01*
X19789Y-32100D01*
X20170Y-32100D02*
X20170Y-31566D01*
X20170Y-31643D02*
X20209Y-31605D01*
X20285Y-31566D01*
X20399Y-31566D01*
X20475Y-31605D01*
X20513Y-31681D01*
X20513Y-32100D01*
X20513Y-31681D02*
X20551Y-31605D01*
X20628Y-31566D01*
X20742Y-31566D01*
X20818Y-31605D01*
X20856Y-31681D01*
X20856Y-32100D01*
X22076Y-32405D02*
X22038Y-32366D01*
X21962Y-32252D01*
X21924Y-32176D01*
X21886Y-32062D01*
X21847Y-31871D01*
X21847Y-31719D01*
X21886Y-31528D01*
X21924Y-31414D01*
X21962Y-31338D01*
X22038Y-31224D01*
X22076Y-31186D01*
X22800Y-32100D02*
X22342Y-32100D01*
X22571Y-32100D02*
X22571Y-31300D01*
X22495Y-31414D01*
X22419Y-31490D01*
X22342Y-31528D01*
X23752Y-32100D02*
X23752Y-31300D01*
X24095Y-32100D02*
X24095Y-31681D01*
X24057Y-31605D01*
X23981Y-31566D01*
X23867Y-31566D01*
X23791Y-31605D01*
X23752Y-31643D01*
X24591Y-32100D02*
X24515Y-32062D01*
X24476Y-32024D01*
X24438Y-31947D01*
X24438Y-31719D01*
X24476Y-31643D01*
X24515Y-31605D01*
X24591Y-31566D01*
X24705Y-31566D01*
X24781Y-31605D01*
X24819Y-31643D01*
X24857Y-31719D01*
X24857Y-31947D01*
X24819Y-32024D01*
X24781Y-32062D01*
X24705Y-32100D01*
X24591Y-32100D01*
X25315Y-32100D02*
X25239Y-32062D01*
X25200Y-31986D01*
X25200Y-31300D01*
X25924Y-32062D02*
X25848Y-32100D01*
X25696Y-32100D01*
X25619Y-32062D01*
X25581Y-31986D01*
X25581Y-31681D01*
X25619Y-31605D01*
X25696Y-31566D01*
X25848Y-31566D01*
X25924Y-31605D01*
X25962Y-31681D01*
X25962Y-31757D01*
X25581Y-31833D01*
X26229Y-32405D02*
X26267Y-32366D01*
X26344Y-32252D01*
X26382Y-32176D01*
X26420Y-32062D01*
X26458Y-31871D01*
X26458Y-31719D01*
X26420Y-31528D01*
X26382Y-31414D01*
X26344Y-31338D01*
X26267Y-31224D01*
X26229Y-31186D01*
M02*
