<?xml version="1.0" encoding="utf-8"?>
<!-- Generator: Adobe Illustrator 14.0.0, SVG Export Plug-In . SVG Version: 6.00 Build 43363)  -->
<!DOCTYPE svg PUBLIC "-//W3C//DTD SVG 1.0//EN" "http://www.w3.org/TR/2001/REC-SVG-20010904/DTD/svg10.dtd">
<svg version="1.0" id="Layer_1" xmlns="http://www.w3.org/2000/svg" xmlns:xlink="http://www.w3.org/1999/xlink" x="0px" y="0px"
	 width="91.14px" height="100px" viewBox="0 0 91.14 100" enable-background="new 0 0 91.14 100" xml:space="preserve">
<path d="M29.742,53.299c0,7.658,6.148,13.864,13.731,13.864c4.081,0,7.735-1.808,10.251-4.661L29.742,38.521
	C29.742,44.933,29.742,51.183,29.742,53.299z"/>
<path d="M57.204,48.604c0-4.833,0-25.27,0-31.075c0-7.657-6.147-13.864-13.73-13.864S29.742,9.872,29.742,17.529
	c0,0.767,0,2.042,0,3.641l27.46,27.46C57.203,48.621,57.204,48.613,57.204,48.604z"/>
<polygon points="48.093,88.41 48.093,88.412 48.093,88.41 "/>
<path d="M71.423,51.657v-11.84h-9.241v11.84c0,0.622-0.047,1.231-0.117,1.835l7.525,7.524
	C70.771,58.128,71.423,54.967,71.423,51.657z"/>
<path d="M64.625,73.403l-6.546-6.546c-2.853,3.116-6.939,5.086-11.488,5.086h-6.237c-8.597,0-15.591-6.993-15.591-15.59V44.513
	h-9.241v11.841c0,13.188,10.334,24.002,23.33,24.781v9.625H24.991V100h36.963v-9.24h-13.86h-0.001l0,0l0,0h-0.002v-0.002
	c0,0,0,0.002-0.001,0.002v-0.002c0.001,0,0.001,0,0.001,0h0.002l0,0l0,0v-9.623C54.588,80.745,60.417,77.85,64.625,73.403z"/>
<polygon points="48.094,88.41 48.093,88.41 48.093,88.412 "/>
<rect x="48.091" y="88.41" width="0.002" height="0.002"/>
<polygon points="48.09,88.412 48.091,88.41 48.09,88.41 "/>
<polygon points="48.093,88.412 48.093,88.412 48.093,88.412 48.093,88.41 48.093,88.41 "/>
<rect x="41.096" y="-14.402" transform="matrix(-0.7071 0.7071 -0.7071 -0.7071 110.0152 45.5709)" width="8.949" height="119.941"/>
</svg>
