<?xml version="1.0" encoding="utf-8"?>
<!-- Generator: Adobe Illustrator 14.0.0, SVG Export Plug-In . SVG Version: 6.00 Build 43363)  -->
<!DOCTYPE svg PUBLIC "-//W3C//DTD SVG 1.0//EN" "http://www.w3.org/TR/2001/REC-SVG-20010904/DTD/svg10.dtd">
<svg version="1.0" id="Layer_1" xmlns="http://www.w3.org/2000/svg" xmlns:xlink="http://www.w3.org/1999/xlink" x="0px" y="0px"
	 width="100px" height="54.25px" viewBox="0 0 100 54.25" enable-background="new 0 0 100 54.25" xml:space="preserve">
<path d="M99.408,26.427c-3.65,0.774-7.669-3.131-10.7-7.011l5.513-6.738c0,0-5.442-1.604-10.032,0.131
	c-0.03-0.047-0.06-0.092-0.086-0.131C73.207-3.751,33.228,0.028,25.216,1.264C15.35,2.786,10.18,6.763,7.797,11.623
	C-2.463,14.598,4.61,23.679,0.446,26.34c-0.983,0.629-0.189,1.966,0.917,1.568c4.652-1.673,0.34-11.325,5.353-13.387
	c-3.055,11.4,5.789,25.655,5.789,25.655l-3.441,5.701l3.117,8.372h5.513l-1.124-6.767c0,0,7.762-2.285,12.737-7.689
	c0.021,0.039,5.105,3.545,32.599,2.539l0.439,11.917h5.771c0,0,0.051-6.849,2.568-12.265c10.448-0.174,11.367-4.447,13.678-4.619
	c7.962-0.591,15.046-5.491,15.046-5.491S100.74,26.145,99.408,26.427z"/>
</svg>
