<?xml version="1.0" encoding="utf-8"?>
<!-- Generator: Adobe Illustrator 14.0.0, SVG Export Plug-In . SVG Version: 6.00 Build 43363)  -->
<!DOCTYPE svg PUBLIC "-//W3C//DTD SVG 1.0//EN" "http://www.w3.org/TR/2001/REC-SVG-20010904/DTD/svg10.dtd">
<svg version="1.0" id="Layer_1" xmlns="http://www.w3.org/2000/svg" xmlns:xlink="http://www.w3.org/1999/xlink" x="0px" y="0px"
	 width="100px" height="79.69px" viewBox="0 0 100 79.69" enable-background="new 0 0 100 79.69" xml:space="preserve">
<path d="M35.829,59.805c-7.136-7.138-14.273-14.273-21.411-21.411c-2.817-2.817-7.183,1.549-4.366,4.367
	c7.864,7.864,15.729,15.729,23.595,23.594c1.188,1.189,3.176,1.189,4.364,0c20.36-20.36,40.719-40.719,61.079-61.079
	c2.818-2.817-1.549-7.184-4.366-4.366c-6.17,6.168-12.338,12.338-18.508,18.508V7.003c0-1.948-1.579-3.527-3.529-3.527H3.53
	C1.581,3.476,0,5.055,0,7.003v69.157c0,1.95,1.581,3.529,3.53,3.529h69.156c1.95,0,3.529-1.579,3.529-3.529V32.766
	c-1.986,1.986-3.971,3.972-5.958,5.958v35.008H5.958V9.433h64.299v15.943C58.782,36.853,47.306,48.329,35.829,59.805z"/>
</svg>
