<?xml version="1.0" encoding="utf-8"?>
<!-- Generator: Adobe Illustrator 14.0.0, SVG Export Plug-In . SVG Version: 6.00 Build 43363)  -->
<!DOCTYPE svg PUBLIC "-//W3C//DTD SVG 1.0//EN" "http://www.w3.org/TR/2001/REC-SVG-20010904/DTD/svg10.dtd">
<svg version="1.0" id="Layer_1" xmlns="http://www.w3.org/2000/svg" xmlns:xlink="http://www.w3.org/1999/xlink" x="0px" y="0px"
	 width="100px" height="86.276px" viewBox="0 0 100 86.276" enable-background="new 0 0 100 86.276" xml:space="preserve">
<g>
	<path d="M88.595,48.665L88.595,48.665L88.595,48.665L88.595,48.665L88.595,48.665L88.595,48.665L88.595,48.665L88.595,48.665
		L88.595,48.665L88.595,48.665L88.595,48.665L88.595,48.665L88.595,48.665L88.595,48.665L88.595,48.665L88.595,48.665L88.595,48.665
		L88.595,48.665L88.595,48.665L88.595,48.665z M88.595,48.665L88.595,48.665L88.595,48.665L88.595,48.665L88.595,48.665
		L88.595,48.665L88.595,48.665L88.595,48.665L88.595,48.665L88.595,48.665L88.595,48.665z M88.595,48.665L88.595,48.665
		L88.595,48.665L88.595,48.665L88.595,48.665L88.595,48.665L88.595,48.665z M88.595,48.665L88.595,48.665L88.595,48.665
		L88.595,48.665L88.595,48.665z M88.595,48.665L88.595,48.665L88.595,48.665L88.595,48.665L88.595,48.665z"/>
	<g>
		<path d="M88.595,48.665c2.457,8.945,5.833,12.116,10.082,20.77c4.122,8.399-1.987,16.842-10.082,16.842
			c-8.09,0-14.2-8.442-10.076-16.842C82.763,60.781,86.142,57.61,88.595,48.665z"/>
	</g>
</g>
<path d="M65.794,16.046H37.748V7.277c4.196,0,8.389,0,12.583,0c4.692,0,4.692-7.277,0-7.277C38.708,0,27.086,0,15.463,0
	c-4.692,0-4.692,7.277,0,7.277c4.194,0,8.387,0,12.583,0v8.769H0v19.405h65.794c4.259,0,8.154,1.556,11.17,4.119h23.034
	C94.692,25.833,81.381,16.046,65.794,16.046z"/>
</svg>
