G04 (created by PCBNEW-RS274X (2011-05-25)-stable) date Friday 24 February 2012 09:49:16 PM IST*
G01*
G70*
G90*
%MOIN*%
G04 Gerber Fmt 3.4, Leading zero omitted, Abs format*
%FSLAX34Y34*%
G04 APERTURE LIST*
%ADD10C,0.006000*%
%ADD11C,0.012000*%
%ADD12C,0.015000*%
G04 APERTURE END LIST*
G54D10*
G54D11*
X71865Y-23913D02*
X71827Y-23884D01*
X71789Y-23827D01*
X71789Y-23684D01*
X71827Y-23627D01*
X71865Y-23598D01*
X71941Y-23570D01*
X72017Y-23570D01*
X72132Y-23598D01*
X72589Y-23941D01*
X72589Y-23570D01*
X72513Y-23313D02*
X72551Y-23285D01*
X72589Y-23313D01*
X72551Y-23342D01*
X72513Y-23313D01*
X72589Y-23313D01*
X72589Y-22713D02*
X72589Y-23056D01*
X72589Y-22884D02*
X71789Y-22884D01*
X71903Y-22941D01*
X71979Y-22999D01*
X72017Y-23056D01*
X71789Y-22342D02*
X71789Y-22285D01*
X71827Y-22228D01*
X71865Y-22199D01*
X71941Y-22170D01*
X72094Y-22142D01*
X72284Y-22142D01*
X72436Y-22170D01*
X72513Y-22199D01*
X72551Y-22228D01*
X72589Y-22285D01*
X72589Y-22342D01*
X72551Y-22399D01*
X72513Y-22428D01*
X72436Y-22456D01*
X72284Y-22485D01*
X72094Y-22485D01*
X71941Y-22456D01*
X71865Y-22428D01*
X71827Y-22399D01*
X71789Y-22342D01*
X71789Y-21771D02*
X71789Y-21714D01*
X71827Y-21657D01*
X71865Y-21628D01*
X71941Y-21599D01*
X72094Y-21571D01*
X72284Y-21571D01*
X72436Y-21599D01*
X72513Y-21628D01*
X72551Y-21657D01*
X72589Y-21714D01*
X72589Y-21771D01*
X72551Y-21828D01*
X72513Y-21857D01*
X72436Y-21885D01*
X72284Y-21914D01*
X72094Y-21914D01*
X71941Y-21885D01*
X71865Y-21857D01*
X71827Y-21828D01*
X71789Y-21771D01*
X71789Y-21200D02*
X71789Y-21143D01*
X71827Y-21086D01*
X71865Y-21057D01*
X71941Y-21028D01*
X72094Y-21000D01*
X72284Y-21000D01*
X72436Y-21028D01*
X72513Y-21057D01*
X72551Y-21086D01*
X72589Y-21143D01*
X72589Y-21200D01*
X72551Y-21257D01*
X72513Y-21286D01*
X72436Y-21314D01*
X72284Y-21343D01*
X72094Y-21343D01*
X71941Y-21314D01*
X71865Y-21286D01*
X71827Y-21257D01*
X71789Y-21200D01*
X71789Y-20315D02*
X71941Y-20315D01*
X71789Y-20086D02*
X71941Y-20086D01*
X71625Y-32500D02*
X71625Y-11500D01*
X69475Y-32500D02*
X72905Y-32500D01*
X69475Y-11500D02*
X72905Y-11500D01*
X71625Y-11500D02*
X71855Y-11943D01*
X71625Y-11500D02*
X71395Y-11943D01*
X71625Y-32500D02*
X71855Y-32057D01*
X71625Y-32500D02*
X71395Y-32057D01*
X38402Y-35664D02*
X38116Y-35664D01*
X38087Y-36045D01*
X38116Y-36007D01*
X38173Y-35969D01*
X38316Y-35969D01*
X38373Y-36007D01*
X38402Y-36045D01*
X38430Y-36121D01*
X38430Y-36311D01*
X38402Y-36388D01*
X38373Y-36426D01*
X38316Y-36464D01*
X38173Y-36464D01*
X38116Y-36426D01*
X38087Y-36388D01*
X38687Y-36388D02*
X38715Y-36426D01*
X38687Y-36464D01*
X38658Y-36426D01*
X38687Y-36388D01*
X38687Y-36464D01*
X38916Y-35664D02*
X39316Y-35664D01*
X39059Y-36464D01*
X39658Y-35664D02*
X39715Y-35664D01*
X39772Y-35702D01*
X39801Y-35740D01*
X39830Y-35816D01*
X39858Y-35969D01*
X39858Y-36159D01*
X39830Y-36311D01*
X39801Y-36388D01*
X39772Y-36426D01*
X39715Y-36464D01*
X39658Y-36464D01*
X39601Y-36426D01*
X39572Y-36388D01*
X39544Y-36311D01*
X39515Y-36159D01*
X39515Y-35969D01*
X39544Y-35816D01*
X39572Y-35740D01*
X39601Y-35702D01*
X39658Y-35664D01*
X40229Y-35664D02*
X40286Y-35664D01*
X40343Y-35702D01*
X40372Y-35740D01*
X40401Y-35816D01*
X40429Y-35969D01*
X40429Y-36159D01*
X40401Y-36311D01*
X40372Y-36388D01*
X40343Y-36426D01*
X40286Y-36464D01*
X40229Y-36464D01*
X40172Y-36426D01*
X40143Y-36388D01*
X40115Y-36311D01*
X40086Y-36159D01*
X40086Y-35969D01*
X40115Y-35816D01*
X40143Y-35740D01*
X40172Y-35702D01*
X40229Y-35664D01*
X40800Y-35664D02*
X40857Y-35664D01*
X40914Y-35702D01*
X40943Y-35740D01*
X40972Y-35816D01*
X41000Y-35969D01*
X41000Y-36159D01*
X40972Y-36311D01*
X40943Y-36388D01*
X40914Y-36426D01*
X40857Y-36464D01*
X40800Y-36464D01*
X40743Y-36426D01*
X40714Y-36388D01*
X40686Y-36311D01*
X40657Y-36159D01*
X40657Y-35969D01*
X40686Y-35816D01*
X40714Y-35740D01*
X40743Y-35702D01*
X40800Y-35664D01*
X41685Y-35664D02*
X41685Y-35816D01*
X41914Y-35664D02*
X41914Y-35816D01*
X11500Y-35500D02*
X68500Y-35500D01*
X11500Y-33475D02*
X11500Y-36780D01*
X68500Y-33475D02*
X68500Y-36780D01*
X68500Y-35500D02*
X68057Y-35730D01*
X68500Y-35500D02*
X68057Y-35270D01*
X11500Y-35500D02*
X11943Y-35730D01*
X11500Y-35500D02*
X11943Y-35270D01*
X08385Y-20087D02*
X08423Y-20116D01*
X08461Y-20173D01*
X08461Y-20316D01*
X08423Y-20373D01*
X08385Y-20402D01*
X08309Y-20430D01*
X08233Y-20430D01*
X08118Y-20402D01*
X07661Y-20059D01*
X07661Y-20430D01*
X07737Y-20687D02*
X07699Y-20715D01*
X07661Y-20687D01*
X07699Y-20658D01*
X07737Y-20687D01*
X07661Y-20687D01*
X08195Y-21230D02*
X07661Y-21230D01*
X08499Y-21087D02*
X07928Y-20944D01*
X07928Y-21316D01*
X08461Y-21658D02*
X08461Y-21715D01*
X08423Y-21772D01*
X08385Y-21801D01*
X08309Y-21830D01*
X08156Y-21858D01*
X07966Y-21858D01*
X07814Y-21830D01*
X07737Y-21801D01*
X07699Y-21772D01*
X07661Y-21715D01*
X07661Y-21658D01*
X07699Y-21601D01*
X07737Y-21572D01*
X07814Y-21544D01*
X07966Y-21515D01*
X08156Y-21515D01*
X08309Y-21544D01*
X08385Y-21572D01*
X08423Y-21601D01*
X08461Y-21658D01*
X08461Y-22229D02*
X08461Y-22286D01*
X08423Y-22343D01*
X08385Y-22372D01*
X08309Y-22401D01*
X08156Y-22429D01*
X07966Y-22429D01*
X07814Y-22401D01*
X07737Y-22372D01*
X07699Y-22343D01*
X07661Y-22286D01*
X07661Y-22229D01*
X07699Y-22172D01*
X07737Y-22143D01*
X07814Y-22115D01*
X07966Y-22086D01*
X08156Y-22086D01*
X08309Y-22115D01*
X08385Y-22143D01*
X08423Y-22172D01*
X08461Y-22229D01*
X08461Y-22800D02*
X08461Y-22857D01*
X08423Y-22914D01*
X08385Y-22943D01*
X08309Y-22972D01*
X08156Y-23000D01*
X07966Y-23000D01*
X07814Y-22972D01*
X07737Y-22943D01*
X07699Y-22914D01*
X07661Y-22857D01*
X07661Y-22800D01*
X07699Y-22743D01*
X07737Y-22714D01*
X07814Y-22686D01*
X07966Y-22657D01*
X08156Y-22657D01*
X08309Y-22686D01*
X08385Y-22714D01*
X08423Y-22743D01*
X08461Y-22800D01*
X08461Y-23685D02*
X08309Y-23685D01*
X08461Y-23914D02*
X08309Y-23914D01*
X08625Y-10000D02*
X08625Y-34000D01*
X10000Y-10000D02*
X07345Y-10000D01*
X10000Y-34000D02*
X07345Y-34000D01*
X08625Y-34000D02*
X08395Y-33557D01*
X08625Y-34000D02*
X08855Y-33557D01*
X08625Y-10000D02*
X08395Y-10443D01*
X08625Y-10000D02*
X08855Y-10443D01*
X38373Y-07360D02*
X38259Y-07360D01*
X38202Y-07398D01*
X38173Y-07436D01*
X38116Y-07550D01*
X38087Y-07703D01*
X38087Y-08007D01*
X38116Y-08084D01*
X38144Y-08122D01*
X38202Y-08160D01*
X38316Y-08160D01*
X38373Y-08122D01*
X38402Y-08084D01*
X38430Y-08007D01*
X38430Y-07817D01*
X38402Y-07741D01*
X38373Y-07703D01*
X38316Y-07665D01*
X38202Y-07665D01*
X38144Y-07703D01*
X38116Y-07741D01*
X38087Y-07817D01*
X38687Y-08084D02*
X38715Y-08122D01*
X38687Y-08160D01*
X38658Y-08122D01*
X38687Y-08084D01*
X38687Y-08160D01*
X39087Y-07360D02*
X39144Y-07360D01*
X39201Y-07398D01*
X39230Y-07436D01*
X39259Y-07512D01*
X39287Y-07665D01*
X39287Y-07855D01*
X39259Y-08007D01*
X39230Y-08084D01*
X39201Y-08122D01*
X39144Y-08160D01*
X39087Y-08160D01*
X39030Y-08122D01*
X39001Y-08084D01*
X38973Y-08007D01*
X38944Y-07855D01*
X38944Y-07665D01*
X38973Y-07512D01*
X39001Y-07436D01*
X39030Y-07398D01*
X39087Y-07360D01*
X39658Y-07360D02*
X39715Y-07360D01*
X39772Y-07398D01*
X39801Y-07436D01*
X39830Y-07512D01*
X39858Y-07665D01*
X39858Y-07855D01*
X39830Y-08007D01*
X39801Y-08084D01*
X39772Y-08122D01*
X39715Y-08160D01*
X39658Y-08160D01*
X39601Y-08122D01*
X39572Y-08084D01*
X39544Y-08007D01*
X39515Y-07855D01*
X39515Y-07665D01*
X39544Y-07512D01*
X39572Y-07436D01*
X39601Y-07398D01*
X39658Y-07360D01*
X40229Y-07360D02*
X40286Y-07360D01*
X40343Y-07398D01*
X40372Y-07436D01*
X40401Y-07512D01*
X40429Y-07665D01*
X40429Y-07855D01*
X40401Y-08007D01*
X40372Y-08084D01*
X40343Y-08122D01*
X40286Y-08160D01*
X40229Y-08160D01*
X40172Y-08122D01*
X40143Y-08084D01*
X40115Y-08007D01*
X40086Y-07855D01*
X40086Y-07665D01*
X40115Y-07512D01*
X40143Y-07436D01*
X40172Y-07398D01*
X40229Y-07360D01*
X40800Y-07360D02*
X40857Y-07360D01*
X40914Y-07398D01*
X40943Y-07436D01*
X40972Y-07512D01*
X41000Y-07665D01*
X41000Y-07855D01*
X40972Y-08007D01*
X40943Y-08084D01*
X40914Y-08122D01*
X40857Y-08160D01*
X40800Y-08160D01*
X40743Y-08122D01*
X40714Y-08084D01*
X40686Y-08007D01*
X40657Y-07855D01*
X40657Y-07665D01*
X40686Y-07512D01*
X40714Y-07436D01*
X40743Y-07398D01*
X40800Y-07360D01*
X41685Y-07360D02*
X41685Y-07512D01*
X41914Y-07360D02*
X41914Y-07512D01*
X10000Y-08476D02*
X70000Y-08476D01*
X10000Y-10000D02*
X10000Y-07196D01*
X70000Y-10000D02*
X70000Y-07196D01*
X70000Y-08476D02*
X69557Y-08706D01*
X70000Y-08476D02*
X69557Y-08246D01*
X10000Y-08476D02*
X10443Y-08706D01*
X10000Y-08476D02*
X10443Y-08246D01*
G54D12*
X10000Y-34000D02*
X10000Y-10000D01*
X70000Y-34000D02*
X10000Y-34000D01*
X70000Y-10000D02*
X70000Y-34000D01*
X10000Y-10000D02*
X70000Y-10000D01*
M02*
