<?xml version="1.0" encoding="UTF-8"?>
<!DOCTYPE svg PUBLIC "-//W3C//DTD SVG 1.1//EN" "http://www.w3.org/Graphics/SVG/1.1/DTD/svg11.dtd"><svg version="1.1" viewBox="0 0 50800 30480" preserveAspectRatio="xMidYMid" fill-rule="evenodd" xmlns="http://www.w3.org/2000/svg" xmlns:xlink="http://www.w3.org/1999/xlink"><g visibility="visible" id="Default"><desc>Master slide</desc><g style="stroke:none;fill:none"><rect x="0" y="0" width="50800" height="30480"/></g></g><g visibility="visible" id="page4"><desc>Slide</desc><g><desc>Drawing</desc><g><g style="stroke:rgb(0,0,255);fill:none"><path style="fill:none" d="M 0,18138 L 634,18138 634,14607 0,14607 0,10035 634,10035 634,6479 C 422,6480 212,6478 0,6479 L 0,1907 634,1907 634,637 3174,637 3174,1 C 4444,-1 5712,3 6983,1 6983,253 6984,385 6984,637 8000,636 9016,638 10032,637 L 10032,1 13842,1 13842,637 16382,637 16382,1907 17018,1907 17018,6479 16382,6479 16382,10035 17018,10035 C 17018,11538 17017,13104 17017,14607 L 16382,14607 16382,18138 17018,18138 17018,22710 16382,22710 16382,24005 13842,24005 13842,24638 10031,24638 C 10031,24387 10032,24255 10032,24005 L 6984,24005 C 6984,24256 6983,24388 6983,24639 L 3174,24639 3174,24005 C 2328,24006 1480,24004 634,24005 L 634,22710 0,22710 0,18138"/></g><g/></g></g><g><desc>Group</desc><g><desc>Drawing</desc><g><g style="stroke:rgb(0,0,255);fill:none"><path style="fill:none" d="M 18296,14706 L 18296,13640 C 18296,13444 18456,13284 18652,13284 L 19718,13284 C 19914,13284 20074,13444 20074,13640 L 20074,14706 C 20074,14902 19914,15062 19718,15062 L 18652,15062 C 18456,15062 18296,14902 18296,14706"/></g><g/></g></g><g><desc>Drawing</desc><g><g style="stroke:rgb(0,0,255);fill:none"><path style="fill:none" d="M 18994,12903 C 18994,12868 19002,12838 19020,12807 19038,12776 19059,12755 19089,12738 19119,12721 19150,12712 19185,12712 19220,12712 19250,12720 19280,12738 19311,12755 19333,12777 19350,12807 19367,12837 19376,12868 19376,12903 19376,12938 19368,12968 19350,12998 19332,13028 19311,13051 19280,13068 19249,13085 19220,13094 19185,13094 19150,13094 19120,13086 19089,13068 19059,13051 19037,13029 19020,12998 19003,12967 18994,12938 18994,12903"/></g><g/></g></g><g><desc>Drawing</desc><g><g style="stroke:rgb(0,0,255);fill:none"><path style="fill:none" d="M 18994,15443 C 18994,15408 19002,15378 19020,15347 19038,15316 19059,15295 19089,15278 19119,15261 19150,15252 19185,15252 19220,15252 19250,15260 19280,15278 19311,15295 19333,15317 19350,15347 19367,15377 19376,15408 19376,15443 19376,15478 19368,15508 19350,15538 19332,15568 19311,15591 19280,15608 19249,15625 19220,15634 19185,15634 19150,15634 19120,15626 19089,15608 19059,15591 19037,15569 19020,15538 19003,15507 18994,15478 18994,15443"/></g><g/></g></g><g><desc>Drawing</desc><g><g style="stroke:rgb(0,0,255);fill:none"><path style="fill:none" d="M 24772,20429 C 24772,20392 24781,20360 24799,20327 24817,20294 24841,20272 24873,20253 24905,20234 24938,20226 24975,20226 25012,20226 25044,20235 25076,20253 25108,20271 25132,20295 25151,20327 25170,20359 25178,20392 25178,20429 25178,20466 25169,20498 25151,20530 25133,20562 25109,20586 25076,20605 25043,20624 25012,20632 24975,20632 24938,20632 24906,20623 24873,20605 24840,20587 24818,20563 24799,20530 24780,20497 24772,20466 24772,20429"/></g><g/></g></g><g><desc>Drawing</desc><g><g style="stroke:rgb(0,0,255);fill:none"><path style="fill:none" d="M 24772,4204 C 24772,4167 24781,4135 24799,4102 24817,4069 24841,4047 24873,4028 24905,4009 24938,4001 24975,4001 25012,4001 25044,4010 25076,4028 25108,4046 25132,4070 25151,4102 25170,4134 25178,4167 25178,4204 25178,4241 25169,4272 25151,4304 25133,4336 25109,4360 25076,4379 25043,4398 25012,4406 24975,4406 24938,4406 24906,4397 24873,4379 24840,4361 24818,4337 24799,4304 24780,4271 24772,4241 24772,4204"/></g><g/></g></g><g><desc>Drawing</desc><g><g style="stroke:rgb(0,0,255);fill:none"><path style="fill:none" d="M 21849,14171 C 21849,14054 21876,13955 21934,13853 21992,13751 22065,13680 22166,13621 22267,13562 22367,13536 22484,13536 22601,13536 22700,13563 22801,13621 22902,13679 22975,13752 23034,13853 23093,13954 23119,14054 23119,14171 23119,14288 23092,14387 23034,14488 22976,14589 22903,14662 22801,14721 22699,14780 22601,14806 22484,14806 22367,14806 22268,14779 22166,14721 22064,14663 21993,14590 21934,14488 21875,14386 21849,14288 21849,14171"/></g><g/></g></g><g><desc>Drawing</desc><g><g style="stroke:rgb(0,0,255);fill:none"><path style="fill:none" d="M 21216,9548 L 21216,5688 C 21216,5492 21376,5332 21572,5332 L 23400,5332 C 23596,5332 23756,5492 23756,5688 L 23756,9548 C 23756,9744 23596,9904 23400,9904 L 21572,9904 C 21376,9904 21216,9744 21216,9548"/></g><g/></g></g><g><desc>Drawing</desc><g><g style="stroke:rgb(0,0,255);fill:none"><path style="fill:none" d="M 22574,20930 C 22433,20826 22273,20802 22098,20802"/></g><g/></g></g><g><desc>Drawing</desc><g><g style="stroke:rgb(0,0,255);fill:none"><path style="fill:none" d="M 22098,20802 C 21923,20802 21772,20843 21621,20930"/></g><g/></g></g><g><desc>Drawing</desc><g><g style="stroke:rgb(0,0,255);fill:none"><path style="fill:none" d="M 21621,20930 C 21470,21017 21361,21126 21273,21278"/></g><g/></g></g><g><desc>Drawing</desc><g><g style="stroke:rgb(0,0,255);fill:none"><path style="fill:none" d="M 21273,21278 C 21185,21430 21145,21580 21145,21755"/></g><g/></g></g><g><desc>Drawing</desc><g><g style="stroke:rgb(0,0,255);fill:none"><path style="fill:none" d="M 21145,21755 C 21145,21930 21186,22079 21273,22231"/></g><g/></g></g><g><desc>Drawing</desc><g><g style="stroke:rgb(0,0,255);fill:none"><path style="fill:none" d="M 21273,22231 C 21360,22383 21469,22492 21621,22580"/></g><g/></g></g><g><desc>Drawing</desc><g><g style="stroke:rgb(0,0,255);fill:none"><path style="fill:none" d="M 21621,22580 C 21773,22668 21923,22708 22098,22708"/></g><g/></g></g><g><desc>Drawing</desc><g><g style="stroke:rgb(0,0,255);fill:none"><path style="fill:none" d="M 22098,22708 L 22098,22708"/></g><g/></g></g><g><desc>Drawing</desc><g><g style="stroke:rgb(0,0,255);fill:none"><path style="fill:none" d="M 22098,22708 L 24638,22708 22098,22708"/><path style="fill:none" d="M 24638,22708 L 25273,22708 24638,22708"/><path style="fill:none" d="M 25273,24003 L 22733,24003 25273,24003"/><path style="fill:none" d="M 22733,24003 L 22733,24638 22733,24003"/><path style="fill:none" d="M 22733,24638 C 21886,24638 21047,24636 20200,24636 L 22733,24638"/><path style="fill:none" d="M 20200,24636 C 20200,24386 20196,24253 20196,24003 L 20200,24636"/><path style="fill:none" d="M 20196,24003 L 16383,24003 20196,24003"/><path style="fill:none" d="M 16383,635 L 20196,635 16383,635"/><path style="fill:none" d="M 20196,635 L 20196,0 20196,635"/><path style="fill:none" d="M 20196,0 L 22733,0 20196,0"/><path style="fill:none" d="M 22733,0 L 22733,635 22733,0"/><path style="fill:none" d="M 22733,635 L 25273,635 22733,635"/><path style="fill:none" d="M 25273,1905 L 24638,1905 25273,1905"/><path style="fill:none" d="M 24638,1905 L 24638,3429 24638,1905"/><path style="fill:none" d="M 24638,3429 L 25273,3429 24638,3429"/><path style="fill:none" d="M 25273,3429 L 25273,4959 25273,3429"/><path style="fill:none" d="M 25273,4959 L 24638,4959 25273,4959"/><path style="fill:none" d="M 24638,4959 L 24638,6477 24638,4959"/><path style="fill:none" d="M 24638,6477 L 25273,6477 24638,6477"/><path style="fill:none" d="M 25273,10033 L 24638,10033 25273,10033"/><path style="fill:none" d="M 24638,10033 L 24638,14605 24638,10033"/><path style="fill:none" d="M 24638,14605 C 24850,14606 25061,14604 25273,14605 L 24638,14605"/><path style="fill:none" d="M 25273,18136 L 24638,18136 25273,18136"/><path style="fill:none" d="M 24638,18136 L 24638,19660 24638,18136"/><path style="fill:none" d="M 24638,19660 C 24850,19660 25061,19659 25273,19660 L 24638,19660"/><path style="fill:none" d="M 25273,19660 L 25273,21184 25273,19660"/><path style="fill:none" d="M 25273,21184 L 24638,21184 25273,21184"/><path style="fill:none" d="M 24638,21184 C 24129,21185 23632,21188 23111,21186 L 24638,21184"/></g><g/></g></g><g><desc>Drawing</desc><g><g style="stroke:rgb(0,0,255);fill:none"><path style="fill:none" d="M 23111,21186 C 22829,21197 22675,21004 22574,20930"/></g><g/></g></g></g><g><desc>Drawing</desc><g><g style="stroke:rgb(0,0,255);fill:none"><path style="fill:none" d="M 27186,14706 L 27186,13640 C 27186,13444 27346,13284 27542,13284 L 28608,13284 C 28804,13284 28964,13444 28964,13640 L 28964,14706 C 28964,14902 28804,15062 28608,15062 L 27542,15062 C 27346,15062 27186,14902 27186,14706"/><path style="fill:none" d="M 27884,12903 C 27884,12868 27892,12838 27910,12807 27928,12776 27949,12755 27979,12738 28009,12721 28040,12712 28075,12712 28110,12712 28140,12720 28170,12738 28201,12755 28223,12777 28240,12807 28257,12837 28266,12868 28266,12903 28266,12938 28258,12968 28240,12998 28222,13028 28201,13051 28170,13068 28139,13085 28110,13094 28075,13094 28040,13094 28010,13086 27979,13068 27949,13051 27927,13029 27910,12998 27893,12967 27884,12938 27884,12903"/><path style="fill:none" d="M 27884,15443 C 27884,15408 27892,15378 27910,15347 27928,15316 27949,15295 27979,15278 28009,15261 28040,15252 28075,15252 28110,15252 28140,15260 28170,15278 28201,15295 28223,15317 28240,15347 28257,15377 28266,15408 28266,15443 28266,15478 28258,15508 28240,15538 28222,15568 28201,15591 28170,15608 28139,15625 28110,15634 28075,15634 28040,15634 28010,15626 27979,15608 27949,15591 27927,15569 27910,15538 27893,15507 27884,15478 27884,15443"/><path style="fill:none" d="M 33662,20429 C 33662,20392 33671,20360 33689,20327 33707,20294 33731,20272 33763,20253 33795,20234 33828,20226 33865,20226 33902,20226 33934,20235 33966,20253 33998,20271 34022,20295 34041,20327 34060,20359 34068,20392 34068,20429 34068,20466 34059,20498 34041,20530 34023,20562 33999,20586 33966,20605 33933,20624 33902,20632 33865,20632 33828,20632 33796,20623 33763,20605 33730,20587 33708,20563 33689,20530 33670,20497 33662,20466 33662,20429"/><path style="fill:none" d="M 33662,4204 C 33662,4167 33671,4135 33689,4102 33707,4069 33731,4047 33763,4028 33795,4009 33828,4001 33865,4001 33902,4001 33934,4010 33966,4028 33998,4046 34022,4070 34041,4102 34060,4134 34068,4167 34068,4204 34068,4241 34059,4272 34041,4304 34023,4336 33999,4360 33966,4379 33933,4398 33902,4406 33865,4406 33828,4406 33796,4397 33763,4379 33730,4361 33708,4337 33689,4304 33670,4271 33662,4241 33662,4204"/><path style="fill:none" d="M 30739,14171 C 30739,14054 30766,13955 30824,13853 30882,13751 30955,13680 31056,13621 31157,13562 31257,13536 31374,13536 31491,13536 31590,13563 31691,13621 31792,13679 31865,13752 31924,13853 31983,13954 32009,14054 32009,14171 32009,14288 31982,14387 31924,14488 31866,14589 31793,14662 31691,14721 31589,14780 31491,14806 31374,14806 31257,14806 31158,14779 31056,14721 30954,14663 30883,14590 30824,14488 30765,14386 30739,14288 30739,14171"/><path style="fill:none" d="M 30106,9548 L 30106,5688 C 30106,5492 30266,5332 30462,5332 L 32290,5332 C 32486,5332 32646,5492 32646,5688 L 32646,9548 C 32646,9744 32486,9904 32290,9904 L 30462,9904 C 30266,9904 30106,9744 30106,9548"/><path style="fill:none" d="M 31464,20930 C 31323,20826 31163,20802 30988,20802 30813,20802 30662,20843 30511,20930 30360,21017 30251,21126 30163,21278 30075,21430 30035,21580 30035,21755 30035,21930 30076,22079 30163,22231 30250,22383 30359,22492 30511,22580 30663,22668 30813,22708 30988,22708 L 30988,22708 33528,22708 34163,22708 34163,24003 31623,24003 31623,24638 C 30776,24638 29937,24636 29090,24636 29090,24386 29086,24253 29086,24003 L 25273,24003 25273,22708 25908,22708 25908,18136 25273,18136 25273,14605 25908,14605 25908,10033 25273,10033 25273,6477 25908,6477 25908,1905 25273,1905 25273,635 29086,635 29086,0 31623,0 31623,635 34163,635 34163,1905 33528,1905 33528,3429 34163,3429 34163,4959 33528,4959 33528,6477 34163,6477 34163,10033 33528,10033 33528,14605 C 33740,14606 33951,14604 34163,14605 L 34163,18136 33528,18136 33528,19660 C 33740,19660 33951,19659 34163,19660 L 34163,21184 33528,21184 C 33019,21185 32522,21188 32001,21186 31719,21197 31565,21004 31464,20930"/></g><g/></g></g><g><desc>Group</desc><g><desc>Drawing</desc><g><g style="stroke:rgb(0,0,255);fill:none"><path style="fill:none" d="M 42551,20429 C 42551,20392 42560,20360 42578,20327 42596,20294 42620,20272 42652,20253 42684,20234 42717,20226 42754,20226 42791,20226 42823,20235 42855,20253 42887,20271 42911,20295 42930,20327 42949,20359 42957,20392 42957,20429 42957,20466 42948,20498 42930,20530 42912,20562 42888,20586 42855,20605 42822,20624 42791,20632 42754,20632 42717,20632 42685,20623 42652,20605 42619,20587 42597,20563 42578,20530 42559,20497 42551,20466 42551,20429"/></g><g/></g></g><g><desc>Drawing</desc><g><g style="stroke:rgb(0,0,255);fill:none"><path style="fill:none" d="M 42551,4204 C 42551,4167 42560,4135 42578,4102 42596,4069 42620,4047 42652,4028 42684,4009 42717,4001 42754,4001 42791,4001 42823,4010 42855,4028 42887,4046 42911,4070 42930,4102 42949,4134 42957,4167 42957,4204 42957,4241 42948,4272 42930,4304 42912,4336 42888,4360 42855,4379 42822,4398 42791,4406 42754,4406 42717,4406 42685,4397 42652,4379 42619,4361 42597,4337 42578,4304 42559,4271 42551,4241 42551,4204"/></g><g/></g></g><g><desc>Drawing</desc><g><g style="stroke:rgb(0,0,255);fill:none"><path style="fill:none" d="M 34798,22708 L 34163,22708 34798,22708"/><path style="fill:none" d="M 34163,24003 L 37976,24003 34163,24003"/><path style="fill:none" d="M 37976,24003 C 37976,24253 37979,24386 37979,24636 L 37976,24003"/><path style="fill:none" d="M 37979,24636 C 38826,24636 39666,24638 40513,24638 L 37979,24636"/><path style="fill:none" d="M 40513,24638 L 40513,24003 40513,24638"/><path style="fill:none" d="M 40513,24003 L 43053,24003 40513,24003"/><path style="fill:none" d="M 43053,24003 L 43053,22708 43053,24003"/><path style="fill:none" d="M 43053,22708 L 42418,22708 43053,22708"/><path style="fill:none" d="M 42418,22708 L 42418,21184 42418,22708"/><path style="fill:none" d="M 42418,21184 L 43053,21184 42418,21184"/><path style="fill:none" d="M 43053,21184 L 43053,19660 43053,21184"/><path style="fill:none" d="M 43053,19660 C 42841,19659 42630,19660 42418,19660 L 43053,19660"/><path style="fill:none" d="M 42418,19660 L 42418,18136 42418,19660"/><path style="fill:none" d="M 42418,18136 L 43053,18136 42418,18136"/><path style="fill:none" d="M 43053,18136 L 43053,14605 43053,18136"/><path style="fill:none" d="M 43053,14605 C 42841,14604 42630,14606 42418,14605 L 43053,14605"/><path style="fill:none" d="M 42418,14605 L 42418,10033 42418,14605"/><path style="fill:none" d="M 42418,10033 L 43053,10033 42418,10033"/><path style="fill:none" d="M 43053,10033 C 43053,8830 43060,7680 43060,6477 L 43053,10033"/><path style="fill:none" d="M 43060,6477 L 42418,6477 43060,6477"/><path style="fill:none" d="M 42418,6477 L 42418,4959 42418,6477"/><path style="fill:none" d="M 42418,4959 L 43053,4959 42418,4959"/><path style="fill:none" d="M 43053,4959 L 43053,3426 43053,4959"/><path style="fill:none" d="M 43053,3426 C 42841,3426 42630,3433 42418,3433 L 43053,3426"/><path style="fill:none" d="M 42418,3433 L 42418,1905 42418,3433"/><path style="fill:none" d="M 42418,1905 L 43053,1905 42418,1905"/><path style="fill:none" d="M 43053,1905 L 43053,635 43053,1905"/><path style="fill:none" d="M 43053,635 L 40513,635 43053,635"/><path style="fill:none" d="M 40513,635 L 40513,0 40513,635"/><path style="fill:none" d="M 40513,0 L 37976,0 40513,0"/><path style="fill:none" d="M 37976,0 L 37976,635 37976,0"/><path style="fill:none" d="M 37976,635 L 34163,635 37976,635"/><path style="fill:none" d="M 34163,1905 L 34798,1905 34163,1905"/><path style="fill:none" d="M 34798,1905 L 34798,6477 34798,1905"/><path style="fill:none" d="M 34798,6477 L 34163,6477 34798,6477"/><path style="fill:none" d="M 34163,10033 L 34798,10033 34163,10033"/><path style="fill:none" d="M 34798,10033 L 34798,14605 34798,10033"/><path style="fill:none" d="M 34798,14605 L 34163,14605 34798,14605"/><path style="fill:none" d="M 34163,18136 L 34798,18136 34163,18136"/><path style="fill:none" d="M 34798,18136 L 34798,22708 34798,18136"/></g><g/></g></g></g></g></svg>