<?xml version="1.0" encoding="UTF-8"?>
<!DOCTYPE svg PUBLIC "-//W3C//DTD SVG 1.1//EN" "http://www.w3.org/Graphics/SVG/1.1/DTD/svg11.dtd"><svg version="1.1" viewBox="0 0 50800 30480" preserveAspectRatio="xMidYMid" fill-rule="evenodd" xmlns="http://www.w3.org/2000/svg" xmlns:xlink="http://www.w3.org/1999/xlink"><g visibility="visible" id="Default"><desc>Master slide</desc><g style="stroke:none;fill:none"><rect x="0" y="0" width="50800" height="30480"/></g></g><g visibility="visible" id="page3"><desc>Slide</desc><g><desc>Drawing</desc><g><g style="stroke:rgb(0,0,255);fill:none"><path style="fill:none" d="M 17018,18138 L 17652,18138 17018,18138"/><path style="fill:none" d="M 17652,18138 L 17652,14607 17652,18138"/><path style="fill:none" d="M 17652,14607 L 17018,14607 17652,14607"/><path style="fill:none" d="M 17018,14607 L 17018,10035 17018,14607"/><path style="fill:none" d="M 17018,10035 L 17652,10035 17018,10035"/><path style="fill:none" d="M 17652,10035 L 17652,6479 17652,10035"/><path style="fill:none" d="M 17652,6479 C 17440,6480 17230,6478 17018,6479 L 17652,6479"/><path style="fill:none" d="M 17018,4955 L 17018,3431 17018,4955"/><path style="fill:none" d="M 17018,1907 L 17652,1907 17018,1907"/><path style="fill:none" d="M 17652,1907 L 17652,637 17652,1907"/><path style="fill:none" d="M 17652,637 L 20192,637 17652,637"/><path style="fill:none" d="M 20192,637 L 20192,1 20192,637"/><path style="fill:none" d="M 20192,1 C 21462,-1 22730,3 24001,1 L 20192,1"/><path style="fill:none" d="M 24001,1 C 24001,253 24002,385 24002,637 L 24001,1"/><path style="fill:none" d="M 24002,637 C 25018,636 26034,638 27050,637 L 24002,637"/><path style="fill:none" d="M 27050,637 L 27050,1 27050,637"/><path style="fill:none" d="M 27050,1 L 30860,1 27050,1"/><path style="fill:none" d="M 30860,1 L 30860,637 30860,1"/><path style="fill:none" d="M 30860,637 L 33400,637 30860,637"/><path style="fill:none" d="M 33400,24005 L 30860,24005 33400,24005"/><path style="fill:none" d="M 30860,24005 L 30860,24638 30860,24005"/><path style="fill:none" d="M 30860,24638 L 27049,24638 30860,24638"/><path style="fill:none" d="M 27049,24638 C 27049,24387 27050,24255 27050,24005 L 27049,24638"/><path style="fill:none" d="M 27050,24005 L 24002,24005 27050,24005"/><path style="fill:none" d="M 24002,24005 C 24002,24256 24001,24388 24001,24639 L 24002,24005"/><path style="fill:none" d="M 24001,24639 L 20192,24639 24001,24639"/><path style="fill:none" d="M 20192,24639 L 20192,24005 20192,24639"/><path style="fill:none" d="M 20192,24005 C 19346,24006 18498,24004 17652,24005 L 20192,24005"/><path style="fill:none" d="M 17652,24005 L 17652,22710 17652,24005"/><path style="fill:none" d="M 17652,22710 L 17018,22710 17652,22710"/><path style="fill:none" d="M 17018,21186 L 17018,19662 17018,21186"/></g><g/></g></g><g><desc>Drawing</desc><g><g style="stroke:rgb(0,0,255);fill:none"><path style="fill:none" d="M 41789,20429 C 41789,20392 41798,20360 41816,20327 41834,20294 41858,20272 41890,20253 41922,20234 41955,20226 41992,20226 42029,20226 42061,20235 42093,20253 42125,20271 42149,20295 42168,20327 42187,20359 42195,20392 42195,20429 42195,20466 42186,20498 42168,20530 42150,20562 42126,20586 42093,20605 42060,20624 42029,20632 41992,20632 41955,20632 41923,20623 41890,20605 41857,20587 41835,20563 41816,20530 41797,20497 41789,20466 41789,20429"/><path style="fill:none" d="M 41789,4204 C 41789,4167 41798,4135 41816,4102 41834,4069 41858,4047 41890,4028 41922,4009 41955,4001 41992,4001 42029,4001 42061,4010 42093,4028 42125,4046 42149,4070 42168,4102 42187,4134 42195,4167 42195,4204 42195,4241 42186,4272 42168,4304 42150,4336 42126,4360 42093,4379 42060,4398 42029,4406 41992,4406 41955,4406 41923,4397 41890,4379 41857,4361 41835,4337 41816,4304 41797,4271 41789,4241 41789,4204"/><path style="fill:none" d="M 34036,22708 L 33401,22708 33401,24003 37214,24003 C 37214,24253 37217,24386 37217,24636 38064,24636 38904,24638 39751,24638 L 39751,24003 42291,24003 42291,22708 41656,22708 41656,21184 42291,21184 42291,19660 C 42079,19659 41868,19660 41656,19660 L 41656,18136 42291,18136 42291,14605 C 42079,14604 41868,14606 41656,14605 L 41656,10033 42291,10033 C 42291,8830 42298,7680 42298,6477 L 41656,6477 41656,4959 42291,4959 42291,3426 C 42079,3426 41868,3433 41656,3433 L 41656,1905 42291,1905 42291,635 39751,635 39751,0 37214,0 37214,635 33401,635 33401,1905 34036,1905 34036,6477 33401,6477 33401,10033 34036,10033 34036,14605 33401,14605 33401,18136 34036,18136 34036,22708"/></g><g/></g></g><g><desc>Drawing</desc><g><g style="stroke:rgb(0,0,255);fill:none"><path style="fill:none" d="M 1383,23408 C 1383,23380 1377,23356 1363,23331 1349,23307 1331,23290 1307,23275 1282,23261 1259,23255 1230,23255 1201,23255 1179,23261 1154,23275 1130,23290 1112,23307 1098,23331 1084,23355 1078,23380 1078,23408 1078,23436 1084,23460 1098,23484 1112,23508 1130,23526 1154,23541 1178,23556 1202,23561 1231,23561 1260,23561 1282,23555 1307,23541 1332,23527 1349,23509 1363,23484 1377,23459 1383,23436 1383,23408"/><path style="fill:none" d="M 15937,23408 C 15937,23380 15931,23356 15917,23331 15903,23307 15885,23290 15861,23275 15837,23260 15813,23255 15785,23255 15757,23255 15733,23261 15708,23275 15683,23289 15666,23307 15652,23331 15638,23355 15632,23380 15632,23408 15632,23436 15638,23460 15652,23484 15666,23508 15684,23526 15708,23541 15732,23556 15756,23561 15785,23561 15814,23561 15836,23555 15861,23541 15886,23527 15903,23509 15917,23484 15931,23459 15937,23436 15937,23408"/><path style="fill:none" d="M 1383,5044 C 1383,5016 1377,4992 1363,4967 1349,4942 1331,4926 1307,4911 1282,4897 1259,4891 1230,4891 1201,4891 1179,4897 1154,4911 1130,4926 1112,4943 1098,4967 1084,4991 1078,5016 1078,5044 1078,5072 1084,5096 1098,5120 1112,5144 1130,5162 1154,5177 1178,5192 1202,5197 1231,5197 1260,5197 1282,5191 1307,5177 1332,5163 1349,5145 1363,5120 1377,5095 1383,5072 1383,5044"/><path style="fill:none" d="M 15937,5044 C 15937,5016 15931,4992 15917,4967 15903,4942 15885,4926 15861,4911 15837,4896 15813,4891 15785,4891 15757,4891 15733,4897 15708,4911 15683,4925 15666,4943 15652,4967 15638,4991 15632,5016 15632,5044 15632,5072 15638,5096 15652,5120 15666,5144 15684,5162 15708,5177 15732,5192 15756,5197 15785,5197 15814,5197 15836,5191 15861,5177 15886,5163 15903,5145 15917,5120 15931,5095 15937,5072 15937,5044"/><path style="fill:none" d="M 1383,16436 C 1383,16408 1377,16384 1363,16359 1349,16334 1331,16318 1307,16303 1282,16289 1259,16283 1230,16283 1201,16283 1179,16289 1154,16303 1130,16318 1112,16335 1098,16359 1084,16383 1078,16408 1078,16436 1078,16464 1084,16488 1098,16512 1112,16536 1130,16554 1154,16569 1178,16584 1202,16589 1231,16589 1260,16589 1282,16583 1307,16569 1332,16555 1349,16537 1363,16512 1377,16487 1383,16464 1383,16436"/><path style="fill:none" d="M 15937,16436 C 15937,16408 15931,16384 15917,16359 15903,16334 15885,16318 15861,16303 15837,16288 15813,16283 15785,16283 15757,16283 15733,16289 15708,16303 15683,16317 15666,16335 15652,16359 15638,16383 15632,16408 15632,16436 15632,16464 15638,16488 15652,16512 15666,16536 15684,16554 15708,16569 15732,16584 15756,16589 15785,16589 15814,16589 15836,16583 15861,16569 15886,16555 15903,16537 15917,16512 15931,16487 15937,16464 15937,16436"/><path style="fill:none" d="M 1396,17350 C 1396,17322 1390,17298 1376,17273 1362,17248 1344,17232 1320,17217 1295,17203 1272,17197 1243,17197 1214,17197 1192,17203 1167,17217 1143,17232 1125,17249 1111,17273 1097,17297 1091,17322 1091,17350 1091,17378 1097,17402 1111,17426 1125,17450 1143,17468 1167,17483 1191,17498 1215,17503 1244,17503 1273,17503 1295,17497 1320,17483 1345,17469 1362,17451 1376,17426 1390,17401 1396,17378 1396,17350"/><path style="fill:none" d="M 15950,17350 C 15950,17322 15944,17298 15930,17273 15916,17248 15898,17232 15874,17217 15850,17202 15826,17197 15798,17197 15770,17197 15746,17203 15721,17217 15696,17231 15679,17249 15665,17273 15651,17297 15645,17322 15645,17350 15645,17378 15651,17402 15665,17426 15679,17450 15697,17468 15721,17483 15745,17498 15769,17503 15798,17503 15827,17503 15849,17497 15874,17483 15899,17469 15916,17451 15930,17426 15944,17401 15950,17378 15950,17350"/><path style="fill:none" d="M 8889,5050 C 8889,5022 8883,4998 8869,4973 8855,4948 8837,4932 8813,4917 8789,4902 8765,4897 8737,4897 8709,4897 8685,4903 8660,4917 8635,4931 8618,4949 8604,4973 8590,4997 8584,5022 8584,5050 8584,5078 8590,5102 8604,5126 8618,5150 8636,5168 8660,5183 8684,5198 8708,5203 8737,5203 8766,5203 8788,5197 8813,5183 8838,5169 8855,5151 8869,5126 8883,5101 8889,5078 8889,5050"/><path style="fill:none" d="M 8889,16442 C 8889,16414 8883,16390 8869,16365 8855,16340 8837,16324 8813,16309 8789,16294 8765,16289 8737,16289 8709,16289 8685,16295 8660,16309 8635,16323 8618,16341 8604,16365 8590,16389 8584,16414 8584,16442 8584,16470 8590,16494 8604,16518 8618,16542 8636,16560 8660,16575 8684,16590 8708,16595 8737,16595 8766,16595 8788,16589 8813,16575 8838,16561 8855,16543 8869,16518 8883,16493 8889,16470 8889,16442"/><path style="fill:none" d="M 7949,5050 C 7949,5022 7943,4998 7929,4973 7915,4948 7897,4932 7873,4917 7849,4902 7825,4897 7797,4897 7769,4897 7745,4903 7720,4917 7695,4931 7678,4949 7664,4973 7650,4997 7644,5022 7644,5050 7644,5078 7650,5102 7664,5126 7678,5150 7696,5168 7720,5183 7744,5198 7768,5203 7797,5203 7826,5203 7848,5197 7873,5183 7898,5169 7915,5151 7929,5126 7943,5101 7949,5078 7949,5050"/><path style="fill:none" d="M 7949,16442 C 7949,16414 7943,16390 7929,16365 7915,16340 7897,16324 7873,16309 7849,16294 7825,16289 7797,16289 7769,16289 7745,16295 7720,16309 7695,16323 7678,16341 7664,16365 7650,16389 7644,16414 7644,16442 7644,16470 7650,16494 7664,16518 7678,16542 7696,16560 7720,16575 7744,16590 7768,16595 7797,16595 7826,16595 7848,16589 7873,16575 7898,16561 7915,16543 7929,16518 7943,16493 7949,16470 7949,16442"/><path style="fill:none" d="M 5307,16442 C 5307,16414 5301,16390 5287,16365 5273,16340 5255,16324 5231,16309 5207,16294 5183,16289 5155,16289 5127,16289 5103,16295 5078,16309 5053,16323 5036,16341 5022,16365 5008,16389 5002,16414 5002,16442 5002,16470 5008,16494 5022,16518 5036,16542 5054,16560 5078,16575 5102,16590 5126,16595 5155,16595 5184,16595 5206,16589 5231,16575 5256,16561 5273,16543 5287,16518 5301,16493 5307,16470 5307,16442"/><path style="fill:none" d="M 4367,5050 C 4367,5022 4361,4998 4347,4973 4333,4948 4315,4932 4291,4917 4267,4902 4243,4897 4215,4897 4187,4897 4163,4903 4138,4917 4113,4931 4096,4949 4082,4973 4068,4998 4062,5022 4062,5050 4062,5078 4068,5102 4082,5126 4096,5151 4114,5168 4138,5183 4162,5198 4186,5203 4215,5203 4244,5203 4266,5197 4291,5183 4316,5169 4333,5151 4347,5126 4361,5101 4367,5078 4367,5050"/><path style="fill:none" d="M 4367,16442 C 4367,16414 4361,16390 4347,16365 4333,16340 4315,16324 4291,16309 4267,16294 4243,16289 4215,16289 4187,16289 4163,16295 4138,16309 4113,16323 4096,16341 4082,16365 4068,16390 4062,16414 4062,16442 4062,16470 4068,16494 4082,16518 4096,16543 4114,16560 4138,16575 4162,16590 4186,16595 4215,16595 4244,16595 4266,16589 4291,16575 4316,16561 4333,16543 4347,16518 4361,16493 4367,16470 4367,16442"/><path style="fill:none" d="M 7949,7343 C 7949,7315 7943,7291 7929,7266 7915,7241 7897,7225 7873,7210 7849,7195 7825,7190 7797,7190 7769,7190 7745,7196 7720,7210 7695,7224 7678,7242 7664,7266 7650,7290 7644,7315 7644,7343 7644,7371 7650,7395 7664,7419 7678,7443 7696,7461 7720,7476 7744,7491 7768,7496 7797,7496 7826,7496 7848,7490 7873,7476 7898,7462 7915,7444 7929,7419 7943,7394 7949,7371 7949,7343"/><path style="fill:none" d="M 5307,7343 C 5307,7315 5301,7291 5287,7266 5273,7241 5255,7225 5231,7210 5207,7195 5183,7190 5155,7190 5127,7190 5103,7196 5078,7210 5053,7224 5036,7242 5022,7266 5008,7290 5002,7315 5002,7343 5002,7371 5008,7395 5022,7419 5036,7443 5054,7461 5078,7476 5102,7491 5126,7496 5155,7496 5184,7496 5206,7490 5231,7476 5256,7462 5273,7444 5287,7419 5301,7394 5307,7371 5307,7343"/><path style="fill:none" d="M 7949,8282 C 7949,8254 7943,8230 7929,8205 7915,8180 7897,8164 7873,8149 7849,8134 7825,8129 7797,8129 7769,8129 7745,8135 7720,8149 7695,8163 7678,8181 7664,8205 7650,8229 7644,8254 7644,8282 7644,8310 7650,8334 7664,8358 7678,8382 7696,8400 7720,8415 7744,8430 7768,8435 7797,8435 7826,8435 7848,8429 7873,8415 7898,8401 7915,8383 7929,8358 7943,8333 7949,8310 7949,8282"/><path style="fill:none" d="M 5307,8282 C 5307,8254 5301,8230 5287,8205 5273,8180 5255,8164 5231,8149 5207,8134 5183,8129 5155,8129 5127,8129 5103,8135 5078,8149 5053,8163 5036,8181 5022,8205 5008,8229 5002,8254 5002,8282 5002,8310 5008,8334 5022,8358 5036,8382 5054,8400 5078,8415 5102,8430 5126,8435 5155,8435 5184,8435 5206,8429 5231,8415 5256,8401 5273,8383 5287,8358 5301,8333 5307,8310 5307,8282"/><path style="fill:none" d="M 1269,20601 L 1269,20805 1626,20805 1626,20601 1880,20601 1880,20246 C 1796,20246 1711,20247 1626,20246 L 1626,20043 1269,20043 1269,20246 634,20246 634,19662 0,19662 0,18138 635,18138 635,14607 0,14607 0,10035 635,10035 635,6479 C 423,6480 212,6478 0,6479 L 0,4962 635,4962 C 635,4793 634,4540 634,4371 L 1269,4371 1269,4574 1626,4574 1626,4371 C 1711,4369 1796,4372 1880,4371 L 1880,4015 C 1796,4016 1711,4015 1626,4015 L 1626,3812 1269,3812 1269,4015 634,4015 634,3431 0,3431 0,1907 635,1907 635,637 3175,637 3175,0 C 3598,0 3895,1 4318,1 L 4318,637 C 4463,637 4757,636 4902,637 L 4902,1509 4699,1509 4699,1931 4902,1931 4902,2259 5258,2259 5258,1931 5461,1931 5461,1509 5258,1509 5258,637 C 5401,636 5699,637 5842,637 L 5842,1 C 6266,-1 6559,3 6983,1 6983,253 6985,385 6985,637 8001,636 9017,638 10033,637 L 10033,0 C 10459,0 10750,2 11176,2 L 11176,637 C 11319,637 11616,636 11760,637 L 11760,1509 11557,1509 11557,1931 11760,1931 C 11760,2685 11759,1499 11760,2259 L 12116,2259 C 12115,1499 12116,2685 12116,1931 L 12319,1931 12319,1509 12116,1509 12116,637 C 12259,636 12557,637 12700,637 L 12700,0 C 13123,0 13420,2 13843,2 L 13843,637 16383,637 16383,1907 17018,1907 17018,3431 C 16808,3431 16593,3429 16383,3429 L 16383,4017 C 16171,4017 15961,4015 15750,4015 L 15750,3812 15396,3812 15396,4015 C 15311,4016 15228,4014 15144,4015 L 15144,4371 C 15228,4370 15311,4372 15396,4371 L 15396,4574 15750,4574 15750,4371 16383,4371 16383,4961 C 16595,4961 16808,4962 17018,4962 L 17018,6479 16383,6479 16383,10035 17018,10035 17018,14607 16383,14607 16383,18138 17018,18138 17018,19662 16383,19662 16383,20246 15750,20246 15750,20043 15396,20043 15396,20246 C 15311,20247 15228,20245 15144,20246 L 15144,20601 15396,20601 15396,20805 15750,20805 15750,20601 16383,20601 16383,21186 17018,21186 17018,22710 16383,22710 16383,24005 13843,24005 C 13843,24216 13842,24387 13842,24638 13419,24638 13123,24640 12700,24640 L 12700,24005 C 12558,24004 12258,24005 12116,24005 L 12116,23134 12319,23134 12319,22714 12116,22714 12116,22417 11760,22417 C 11759,22517 11760,22614 11760,22714 L 11557,22714 11557,23134 11760,23134 11760,24005 C 11613,24006 11322,24004 11176,24005 L 11176,24640 C 10752,24640 10455,24638 10031,24638 10031,24387 10033,24255 10033,24005 L 6985,24005 C 6985,24256 6983,24388 6983,24639 6559,24639 6266,24640 5842,24640 L 5842,24005 5258,24005 5258,23134 5461,23134 5461,22714 5258,22714 5258,22417 4902,22417 4902,22714 4699,22714 4699,23134 4902,23134 4902,24005 4318,24005 4318,24640 3175,24640 3175,24005 C 2329,24006 1481,24004 635,24005 L 635,22710 0,22710 0,21183 635,21183 C 635,21013 634,20772 634,20601 L 1269,20601"/><path style="fill:none" d="M 12116,10149 C 12116,10296 12036,10416 11938,10416 11840,10416 11760,10296 11760,10149 L 11760,3063 C 11760,2916 11840,2796 11938,2796 12036,2796 12116,2916 12116,3063 L 12116,10149"/></g><g/></g></g></g></svg>