G04 (created by PCBNEW (2010-05-05 BZR 2356)-stable) date 12/18/10 15:03:14*
G01*
G70*
G90*
%MOIN*%
G04 Gerber Fmt 3.4, Leading zero omitted, Abs format*
%FSLAX34Y34*%
G04 APERTURE LIST*
%ADD10C,0.001000*%
%ADD11C,0.012000*%
%ADD12C,0.015000*%
%ADD13C,0.008000*%
G04 APERTURE END LIST*
G54D10*
G54D11*
X20065Y-16430D02*
X20065Y-16087D01*
X20065Y-16259D02*
X20865Y-16259D01*
X20751Y-16202D01*
X20675Y-16144D01*
X20637Y-16087D01*
X20141Y-16687D02*
X20103Y-16715D01*
X20065Y-16687D01*
X20103Y-16658D01*
X20141Y-16687D01*
X20065Y-16687D01*
X20865Y-17230D02*
X20865Y-17116D01*
X20827Y-17059D01*
X20789Y-17030D01*
X20675Y-16973D01*
X20522Y-16944D01*
X20218Y-16944D01*
X20141Y-16973D01*
X20103Y-17001D01*
X20065Y-17059D01*
X20065Y-17173D01*
X20103Y-17230D01*
X20141Y-17259D01*
X20218Y-17287D01*
X20408Y-17287D01*
X20484Y-17259D01*
X20522Y-17230D01*
X20560Y-17173D01*
X20560Y-17059D01*
X20522Y-17001D01*
X20484Y-16973D01*
X20408Y-16944D01*
X20865Y-17658D02*
X20865Y-17715D01*
X20827Y-17772D01*
X20789Y-17801D01*
X20713Y-17830D01*
X20560Y-17858D01*
X20370Y-17858D01*
X20218Y-17830D01*
X20141Y-17801D01*
X20103Y-17772D01*
X20065Y-17715D01*
X20065Y-17658D01*
X20103Y-17601D01*
X20141Y-17572D01*
X20218Y-17544D01*
X20370Y-17515D01*
X20560Y-17515D01*
X20713Y-17544D01*
X20789Y-17572D01*
X20827Y-17601D01*
X20865Y-17658D01*
X20865Y-18229D02*
X20865Y-18286D01*
X20827Y-18343D01*
X20789Y-18372D01*
X20713Y-18401D01*
X20560Y-18429D01*
X20370Y-18429D01*
X20218Y-18401D01*
X20141Y-18372D01*
X20103Y-18343D01*
X20065Y-18286D01*
X20065Y-18229D01*
X20103Y-18172D01*
X20141Y-18143D01*
X20218Y-18115D01*
X20370Y-18086D01*
X20560Y-18086D01*
X20713Y-18115D01*
X20789Y-18143D01*
X20827Y-18172D01*
X20865Y-18229D01*
X20865Y-18800D02*
X20865Y-18857D01*
X20827Y-18914D01*
X20789Y-18943D01*
X20713Y-18972D01*
X20560Y-19000D01*
X20370Y-19000D01*
X20218Y-18972D01*
X20141Y-18943D01*
X20103Y-18914D01*
X20065Y-18857D01*
X20065Y-18800D01*
X20103Y-18743D01*
X20141Y-18714D01*
X20218Y-18686D01*
X20370Y-18657D01*
X20560Y-18657D01*
X20713Y-18686D01*
X20789Y-18714D01*
X20827Y-18743D01*
X20865Y-18800D01*
X20865Y-19685D02*
X20713Y-19685D01*
X20865Y-19914D02*
X20713Y-19914D01*
X19749Y-10000D02*
X19749Y-26000D01*
X18750Y-10000D02*
X21029Y-10000D01*
X18750Y-26000D02*
X21029Y-26000D01*
X19749Y-26000D02*
X19519Y-25557D01*
X19749Y-26000D02*
X19979Y-25557D01*
X19749Y-10000D02*
X19519Y-10443D01*
X19749Y-10000D02*
X19979Y-10443D01*
X12230Y-07635D02*
X12287Y-07635D01*
X12344Y-07673D01*
X12373Y-07711D01*
X12402Y-07787D01*
X12430Y-07940D01*
X12430Y-08130D01*
X12402Y-08282D01*
X12373Y-08359D01*
X12344Y-08397D01*
X12287Y-08435D01*
X12230Y-08435D01*
X12173Y-08397D01*
X12144Y-08359D01*
X12116Y-08282D01*
X12087Y-08130D01*
X12087Y-07940D01*
X12116Y-07787D01*
X12144Y-07711D01*
X12173Y-07673D01*
X12230Y-07635D01*
X12687Y-08359D02*
X12715Y-08397D01*
X12687Y-08435D01*
X12658Y-08397D01*
X12687Y-08359D01*
X12687Y-08435D01*
X13059Y-07978D02*
X13001Y-07940D01*
X12973Y-07901D01*
X12944Y-07825D01*
X12944Y-07787D01*
X12973Y-07711D01*
X13001Y-07673D01*
X13059Y-07635D01*
X13173Y-07635D01*
X13230Y-07673D01*
X13259Y-07711D01*
X13287Y-07787D01*
X13287Y-07825D01*
X13259Y-07901D01*
X13230Y-07940D01*
X13173Y-07978D01*
X13059Y-07978D01*
X13001Y-08016D01*
X12973Y-08054D01*
X12944Y-08130D01*
X12944Y-08282D01*
X12973Y-08359D01*
X13001Y-08397D01*
X13059Y-08435D01*
X13173Y-08435D01*
X13230Y-08397D01*
X13259Y-08359D01*
X13287Y-08282D01*
X13287Y-08130D01*
X13259Y-08054D01*
X13230Y-08016D01*
X13173Y-07978D01*
X13658Y-07635D02*
X13715Y-07635D01*
X13772Y-07673D01*
X13801Y-07711D01*
X13830Y-07787D01*
X13858Y-07940D01*
X13858Y-08130D01*
X13830Y-08282D01*
X13801Y-08359D01*
X13772Y-08397D01*
X13715Y-08435D01*
X13658Y-08435D01*
X13601Y-08397D01*
X13572Y-08359D01*
X13544Y-08282D01*
X13515Y-08130D01*
X13515Y-07940D01*
X13544Y-07787D01*
X13572Y-07711D01*
X13601Y-07673D01*
X13658Y-07635D01*
X14229Y-07635D02*
X14286Y-07635D01*
X14343Y-07673D01*
X14372Y-07711D01*
X14401Y-07787D01*
X14429Y-07940D01*
X14429Y-08130D01*
X14401Y-08282D01*
X14372Y-08359D01*
X14343Y-08397D01*
X14286Y-08435D01*
X14229Y-08435D01*
X14172Y-08397D01*
X14143Y-08359D01*
X14115Y-08282D01*
X14086Y-08130D01*
X14086Y-07940D01*
X14115Y-07787D01*
X14143Y-07711D01*
X14172Y-07673D01*
X14229Y-07635D01*
X14800Y-07635D02*
X14857Y-07635D01*
X14914Y-07673D01*
X14943Y-07711D01*
X14972Y-07787D01*
X15000Y-07940D01*
X15000Y-08130D01*
X14972Y-08282D01*
X14943Y-08359D01*
X14914Y-08397D01*
X14857Y-08435D01*
X14800Y-08435D01*
X14743Y-08397D01*
X14714Y-08359D01*
X14686Y-08282D01*
X14657Y-08130D01*
X14657Y-07940D01*
X14686Y-07787D01*
X14714Y-07711D01*
X14743Y-07673D01*
X14800Y-07635D01*
X15685Y-07635D02*
X15685Y-07787D01*
X15914Y-07635D02*
X15914Y-07787D01*
X10000Y-08751D02*
X18000Y-08751D01*
X10000Y-09250D02*
X10000Y-07471D01*
X18000Y-09250D02*
X18000Y-07471D01*
X18000Y-08751D02*
X17557Y-08981D01*
X18000Y-08751D02*
X17557Y-08521D01*
X10000Y-08751D02*
X10443Y-08981D01*
X10000Y-08751D02*
X10443Y-08521D01*
G54D12*
X10000Y-26000D02*
X10000Y-10000D01*
X18000Y-26000D02*
X10000Y-26000D01*
X18000Y-10000D02*
X18000Y-26000D01*
X10000Y-10000D02*
X18000Y-10000D01*
G54D10*
X12400Y-24150D02*
X12600Y-24350D01*
X12600Y-24150D02*
X12400Y-24350D01*
X12650Y-15900D02*
X12850Y-16100D01*
X12850Y-15900D02*
X12650Y-16100D01*
X13150Y-16400D02*
X13350Y-16600D01*
X13350Y-16400D02*
X13150Y-16600D01*
X13150Y-23150D02*
X13350Y-23350D01*
X13350Y-23150D02*
X13150Y-23350D01*
X13650Y-16900D02*
X13850Y-17100D01*
X13850Y-16900D02*
X13650Y-17100D01*
X13650Y-21900D02*
X13850Y-22100D01*
X13850Y-21900D02*
X13650Y-22100D01*
X14150Y-17400D02*
X14350Y-17600D01*
X14350Y-17400D02*
X14150Y-17600D01*
X14150Y-22400D02*
X14350Y-22600D01*
X14350Y-22400D02*
X14150Y-22600D01*
X14400Y-14150D02*
X14600Y-14350D01*
X14600Y-14150D02*
X14400Y-14350D01*
X14650Y-16650D02*
X14850Y-16850D01*
X14850Y-16650D02*
X14650Y-16850D01*
X14650Y-23150D02*
X14850Y-23350D01*
X14850Y-23150D02*
X14650Y-23350D01*
X15400Y-24150D02*
X15600Y-24350D01*
X15600Y-24150D02*
X15400Y-24350D01*
X12660Y-14250D02*
X12656Y-14281D01*
X12647Y-14310D01*
X12633Y-14338D01*
X12613Y-14362D01*
X12589Y-14382D01*
X12562Y-14397D01*
X12532Y-14406D01*
X12501Y-14409D01*
X12471Y-14407D01*
X12441Y-14398D01*
X12413Y-14383D01*
X12389Y-14364D01*
X12368Y-14340D01*
X12353Y-14313D01*
X12344Y-14283D01*
X12341Y-14252D01*
X12343Y-14222D01*
X12352Y-14192D01*
X12366Y-14164D01*
X12385Y-14139D01*
X12409Y-14119D01*
X12436Y-14104D01*
X12466Y-14094D01*
X12497Y-14091D01*
X12527Y-14093D01*
X12557Y-14101D01*
X12585Y-14115D01*
X12610Y-14135D01*
X12630Y-14158D01*
X12646Y-14185D01*
X12656Y-14215D01*
X12659Y-14246D01*
X12660Y-14250D01*
X13160Y-15250D02*
X13156Y-15281D01*
X13147Y-15310D01*
X13133Y-15338D01*
X13113Y-15362D01*
X13089Y-15382D01*
X13062Y-15397D01*
X13032Y-15406D01*
X13001Y-15409D01*
X12971Y-15407D01*
X12941Y-15398D01*
X12913Y-15383D01*
X12889Y-15364D01*
X12868Y-15340D01*
X12853Y-15313D01*
X12844Y-15283D01*
X12841Y-15252D01*
X12843Y-15222D01*
X12852Y-15192D01*
X12866Y-15164D01*
X12885Y-15139D01*
X12909Y-15119D01*
X12936Y-15104D01*
X12966Y-15094D01*
X12997Y-15091D01*
X13027Y-15093D01*
X13057Y-15101D01*
X13085Y-15115D01*
X13110Y-15135D01*
X13130Y-15158D01*
X13146Y-15185D01*
X13156Y-15215D01*
X13159Y-15246D01*
X13160Y-15250D01*
X15160Y-15250D02*
X15156Y-15281D01*
X15147Y-15310D01*
X15133Y-15338D01*
X15113Y-15362D01*
X15089Y-15382D01*
X15062Y-15397D01*
X15032Y-15406D01*
X15001Y-15409D01*
X14971Y-15407D01*
X14941Y-15398D01*
X14913Y-15383D01*
X14889Y-15364D01*
X14868Y-15340D01*
X14853Y-15313D01*
X14844Y-15283D01*
X14841Y-15252D01*
X14843Y-15222D01*
X14852Y-15192D01*
X14866Y-15164D01*
X14885Y-15139D01*
X14909Y-15119D01*
X14936Y-15104D01*
X14966Y-15094D01*
X14997Y-15091D01*
X15027Y-15093D01*
X15057Y-15101D01*
X15085Y-15115D01*
X15110Y-15135D01*
X15130Y-15158D01*
X15146Y-15185D01*
X15156Y-15215D01*
X15159Y-15246D01*
X15160Y-15250D01*
X15660Y-14250D02*
X15656Y-14281D01*
X15647Y-14310D01*
X15633Y-14338D01*
X15613Y-14362D01*
X15589Y-14382D01*
X15562Y-14397D01*
X15532Y-14406D01*
X15501Y-14409D01*
X15471Y-14407D01*
X15441Y-14398D01*
X15413Y-14383D01*
X15389Y-14364D01*
X15368Y-14340D01*
X15353Y-14313D01*
X15344Y-14283D01*
X15341Y-14252D01*
X15343Y-14222D01*
X15352Y-14192D01*
X15366Y-14164D01*
X15385Y-14139D01*
X15409Y-14119D01*
X15436Y-14104D01*
X15466Y-14094D01*
X15497Y-14091D01*
X15527Y-14093D01*
X15557Y-14101D01*
X15585Y-14115D01*
X15610Y-14135D01*
X15630Y-14158D01*
X15646Y-14185D01*
X15656Y-14215D01*
X15659Y-14246D01*
X15660Y-14250D01*
X11000Y-14050D02*
X11000Y-14450D01*
X11200Y-14250D02*
X10800Y-14250D01*
X11000Y-15050D02*
X11000Y-15450D01*
X11200Y-15250D02*
X10800Y-15250D01*
X11000Y-16050D02*
X11000Y-16450D01*
X11200Y-16250D02*
X10800Y-16250D01*
X11000Y-17050D02*
X11000Y-17450D01*
X11200Y-17250D02*
X10800Y-17250D01*
X11000Y-18050D02*
X11000Y-18450D01*
X11200Y-18250D02*
X10800Y-18250D01*
X11000Y-19050D02*
X11000Y-19450D01*
X11200Y-19250D02*
X10800Y-19250D01*
X11000Y-20050D02*
X11000Y-20450D01*
X11200Y-20250D02*
X10800Y-20250D01*
X11000Y-21050D02*
X11000Y-21450D01*
X11200Y-21250D02*
X10800Y-21250D01*
X11000Y-22050D02*
X11000Y-22450D01*
X11200Y-22250D02*
X10800Y-22250D01*
X11000Y-23050D02*
X11000Y-23450D01*
X11200Y-23250D02*
X10800Y-23250D01*
X11000Y-24050D02*
X11000Y-24450D01*
X11200Y-24250D02*
X10800Y-24250D01*
X11000Y-25050D02*
X11000Y-25450D01*
X11200Y-25250D02*
X10800Y-25250D01*
X11500Y-11800D02*
X11500Y-12200D01*
X11700Y-12000D02*
X11300Y-12000D01*
X12500Y-10800D02*
X12500Y-11200D01*
X12700Y-11000D02*
X12300Y-11000D01*
X12500Y-11800D02*
X12500Y-12200D01*
X12700Y-12000D02*
X12300Y-12000D01*
X12500Y-12800D02*
X12500Y-13200D01*
X12700Y-13000D02*
X12300Y-13000D01*
X13500Y-10800D02*
X13500Y-11200D01*
X13700Y-11000D02*
X13300Y-11000D01*
X13500Y-11800D02*
X13500Y-12200D01*
X13700Y-12000D02*
X13300Y-12000D01*
X13500Y-12800D02*
X13500Y-13200D01*
X13700Y-13000D02*
X13300Y-13000D01*
X14500Y-10800D02*
X14500Y-11200D01*
X14700Y-11000D02*
X14300Y-11000D01*
X14500Y-11800D02*
X14500Y-12200D01*
X14700Y-12000D02*
X14300Y-12000D01*
X14500Y-12800D02*
X14500Y-13200D01*
X14700Y-13000D02*
X14300Y-13000D01*
X16500Y-11800D02*
X16500Y-12200D01*
X16700Y-12000D02*
X16300Y-12000D01*
X17000Y-14050D02*
X17000Y-14450D01*
X17200Y-14250D02*
X16800Y-14250D01*
X17000Y-15050D02*
X17000Y-15450D01*
X17200Y-15250D02*
X16800Y-15250D01*
X17000Y-16050D02*
X17000Y-16450D01*
X17200Y-16250D02*
X16800Y-16250D01*
X17000Y-17050D02*
X17000Y-17450D01*
X17200Y-17250D02*
X16800Y-17250D01*
X17000Y-18050D02*
X17000Y-18450D01*
X17200Y-18250D02*
X16800Y-18250D01*
X17000Y-19050D02*
X17000Y-19450D01*
X17200Y-19250D02*
X16800Y-19250D01*
X17000Y-20050D02*
X17000Y-20450D01*
X17200Y-20250D02*
X16800Y-20250D01*
X17000Y-21050D02*
X17000Y-21450D01*
X17200Y-21250D02*
X16800Y-21250D01*
X17000Y-22050D02*
X17000Y-22450D01*
X17200Y-22250D02*
X16800Y-22250D01*
X17000Y-23050D02*
X17000Y-23450D01*
X17200Y-23250D02*
X16800Y-23250D01*
X17000Y-24050D02*
X17000Y-24450D01*
X17200Y-24250D02*
X16800Y-24250D01*
X17000Y-25050D02*
X17000Y-25450D01*
X17200Y-25250D02*
X16800Y-25250D01*
X14600Y-24750D02*
X14588Y-24866D01*
X14554Y-24978D01*
X14499Y-25082D01*
X14425Y-25172D01*
X14335Y-25247D01*
X14232Y-25303D01*
X14120Y-25337D01*
X14004Y-25349D01*
X13888Y-25339D01*
X13776Y-25306D01*
X13672Y-25252D01*
X13581Y-25178D01*
X13505Y-25088D01*
X13449Y-24986D01*
X13414Y-24874D01*
X13401Y-24758D01*
X13410Y-24642D01*
X13443Y-24530D01*
X13496Y-24425D01*
X13569Y-24334D01*
X13658Y-24258D01*
X13760Y-24201D01*
X13872Y-24164D01*
X13988Y-24151D01*
X14104Y-24160D01*
X14216Y-24191D01*
X14321Y-24244D01*
X14413Y-24316D01*
X14490Y-24405D01*
X14548Y-24506D01*
X14585Y-24618D01*
X14599Y-24734D01*
X14600Y-24750D01*
X13400Y-24150D02*
X14600Y-25350D01*
X14600Y-24150D02*
X13400Y-25350D01*
G54D13*
X10314Y-27914D02*
X10314Y-27114D01*
X10505Y-27114D01*
X10619Y-27152D01*
X10695Y-27228D01*
X10734Y-27304D01*
X10772Y-27457D01*
X10772Y-27571D01*
X10734Y-27723D01*
X10695Y-27800D01*
X10619Y-27876D01*
X10505Y-27914D01*
X10314Y-27914D01*
X11114Y-27914D02*
X11114Y-27380D01*
X11114Y-27533D02*
X11153Y-27457D01*
X11191Y-27419D01*
X11267Y-27380D01*
X11343Y-27380D01*
X11609Y-27914D02*
X11609Y-27380D01*
X11609Y-27114D02*
X11571Y-27152D01*
X11609Y-27190D01*
X11648Y-27152D01*
X11609Y-27114D01*
X11609Y-27190D01*
X12105Y-27914D02*
X12029Y-27876D01*
X11990Y-27800D01*
X11990Y-27114D01*
X12524Y-27914D02*
X12448Y-27876D01*
X12409Y-27800D01*
X12409Y-27114D01*
X13438Y-27914D02*
X13438Y-27114D01*
X13705Y-27685D01*
X13972Y-27114D01*
X13972Y-27914D01*
X14695Y-27914D02*
X14695Y-27495D01*
X14657Y-27419D01*
X14581Y-27380D01*
X14429Y-27380D01*
X14352Y-27419D01*
X14695Y-27876D02*
X14619Y-27914D01*
X14429Y-27914D01*
X14352Y-27876D01*
X14314Y-27800D01*
X14314Y-27723D01*
X14352Y-27647D01*
X14429Y-27609D01*
X14619Y-27609D01*
X14695Y-27571D01*
X15076Y-27380D02*
X15076Y-28180D01*
X15076Y-27419D02*
X15153Y-27380D01*
X15305Y-27380D01*
X15381Y-27419D01*
X15419Y-27457D01*
X15457Y-27533D01*
X15457Y-27761D01*
X15419Y-27838D01*
X15381Y-27876D01*
X15305Y-27914D01*
X15153Y-27914D01*
X15076Y-27876D01*
X15800Y-27838D02*
X15839Y-27876D01*
X15800Y-27914D01*
X15762Y-27876D01*
X15800Y-27838D01*
X15800Y-27914D01*
X15800Y-27419D02*
X15839Y-27457D01*
X15800Y-27495D01*
X15762Y-27457D01*
X15800Y-27419D01*
X15800Y-27495D01*
X09724Y-29170D02*
X09924Y-29370D01*
X09924Y-29170D02*
X09724Y-29370D01*
X10467Y-28794D02*
X10543Y-28794D01*
X10619Y-28832D01*
X10657Y-28870D01*
X10695Y-28946D01*
X10734Y-29099D01*
X10734Y-29289D01*
X10695Y-29441D01*
X10657Y-29518D01*
X10619Y-29556D01*
X10543Y-29594D01*
X10467Y-29594D01*
X10391Y-29556D01*
X10353Y-29518D01*
X10314Y-29441D01*
X10276Y-29289D01*
X10276Y-29099D01*
X10314Y-28946D01*
X10353Y-28870D01*
X10391Y-28832D01*
X10467Y-28794D01*
X11076Y-29518D02*
X11115Y-29556D01*
X11076Y-29594D01*
X11038Y-29556D01*
X11076Y-29518D01*
X11076Y-29594D01*
X11610Y-28794D02*
X11686Y-28794D01*
X11762Y-28832D01*
X11800Y-28870D01*
X11838Y-28946D01*
X11877Y-29099D01*
X11877Y-29289D01*
X11838Y-29441D01*
X11800Y-29518D01*
X11762Y-29556D01*
X11686Y-29594D01*
X11610Y-29594D01*
X11534Y-29556D01*
X11496Y-29518D01*
X11457Y-29441D01*
X11419Y-29289D01*
X11419Y-29099D01*
X11457Y-28946D01*
X11496Y-28870D01*
X11534Y-28832D01*
X11610Y-28794D01*
X12181Y-28870D02*
X12219Y-28832D01*
X12296Y-28794D01*
X12486Y-28794D01*
X12562Y-28832D01*
X12600Y-28870D01*
X12639Y-28946D01*
X12639Y-29022D01*
X12600Y-29137D01*
X12143Y-29594D01*
X12639Y-29594D01*
X13134Y-28794D02*
X13210Y-28794D01*
X13286Y-28832D01*
X13324Y-28870D01*
X13362Y-28946D01*
X13401Y-29099D01*
X13401Y-29289D01*
X13362Y-29441D01*
X13324Y-29518D01*
X13286Y-29556D01*
X13210Y-29594D01*
X13134Y-29594D01*
X13058Y-29556D01*
X13020Y-29518D01*
X12981Y-29441D01*
X12943Y-29289D01*
X12943Y-29099D01*
X12981Y-28946D01*
X13020Y-28870D01*
X13058Y-28832D01*
X13134Y-28794D01*
X13705Y-28794D02*
X13705Y-28946D01*
X14010Y-28794D02*
X14010Y-28946D01*
X15535Y-28756D02*
X14849Y-29784D01*
X16564Y-28794D02*
X16640Y-28794D01*
X16716Y-28832D01*
X16754Y-28870D01*
X16792Y-28946D01*
X16831Y-29099D01*
X16831Y-29289D01*
X16792Y-29441D01*
X16754Y-29518D01*
X16716Y-29556D01*
X16640Y-29594D01*
X16564Y-29594D01*
X16488Y-29556D01*
X16450Y-29518D01*
X16411Y-29441D01*
X16373Y-29289D01*
X16373Y-29099D01*
X16411Y-28946D01*
X16450Y-28870D01*
X16488Y-28832D01*
X16564Y-28794D01*
X17173Y-29518D02*
X17212Y-29556D01*
X17173Y-29594D01*
X17135Y-29556D01*
X17173Y-29518D01*
X17173Y-29594D01*
X17935Y-28794D02*
X17554Y-28794D01*
X17516Y-29175D01*
X17554Y-29137D01*
X17631Y-29099D01*
X17821Y-29099D01*
X17897Y-29137D01*
X17935Y-29175D01*
X17974Y-29251D01*
X17974Y-29441D01*
X17935Y-29518D01*
X17897Y-29556D01*
X17821Y-29594D01*
X17631Y-29594D01*
X17554Y-29556D01*
X17516Y-29518D01*
X18736Y-29594D02*
X18278Y-29594D01*
X18507Y-29594D02*
X18507Y-28794D01*
X18431Y-28908D01*
X18355Y-28984D01*
X18278Y-29022D01*
X19078Y-29594D02*
X19078Y-29060D01*
X19078Y-29137D02*
X19117Y-29099D01*
X19193Y-29060D01*
X19307Y-29060D01*
X19383Y-29099D01*
X19421Y-29175D01*
X19421Y-29594D01*
X19421Y-29175D02*
X19459Y-29099D01*
X19536Y-29060D01*
X19650Y-29060D01*
X19726Y-29099D01*
X19764Y-29175D01*
X19764Y-29594D01*
X20145Y-29594D02*
X20145Y-29060D01*
X20145Y-29137D02*
X20184Y-29099D01*
X20260Y-29060D01*
X20374Y-29060D01*
X20450Y-29099D01*
X20488Y-29175D01*
X20488Y-29594D01*
X20488Y-29175D02*
X20526Y-29099D01*
X20603Y-29060D01*
X20717Y-29060D01*
X20793Y-29099D01*
X20831Y-29175D01*
X20831Y-29594D01*
X22051Y-29899D02*
X22013Y-29860D01*
X21937Y-29746D01*
X21899Y-29670D01*
X21861Y-29556D01*
X21822Y-29365D01*
X21822Y-29213D01*
X21861Y-29022D01*
X21899Y-28908D01*
X21937Y-28832D01*
X22013Y-28718D01*
X22051Y-28680D01*
X22775Y-29594D02*
X22317Y-29594D01*
X22546Y-29594D02*
X22546Y-28794D01*
X22470Y-28908D01*
X22394Y-28984D01*
X22317Y-29022D01*
X23079Y-28870D02*
X23117Y-28832D01*
X23194Y-28794D01*
X23384Y-28794D01*
X23460Y-28832D01*
X23498Y-28870D01*
X23537Y-28946D01*
X23537Y-29022D01*
X23498Y-29137D01*
X23041Y-29594D01*
X23537Y-29594D01*
X24489Y-29594D02*
X24489Y-28794D01*
X24832Y-29594D02*
X24832Y-29175D01*
X24794Y-29099D01*
X24718Y-29060D01*
X24604Y-29060D01*
X24528Y-29099D01*
X24489Y-29137D01*
X25328Y-29594D02*
X25252Y-29556D01*
X25213Y-29518D01*
X25175Y-29441D01*
X25175Y-29213D01*
X25213Y-29137D01*
X25252Y-29099D01*
X25328Y-29060D01*
X25442Y-29060D01*
X25518Y-29099D01*
X25556Y-29137D01*
X25594Y-29213D01*
X25594Y-29441D01*
X25556Y-29518D01*
X25518Y-29556D01*
X25442Y-29594D01*
X25328Y-29594D01*
X26052Y-29594D02*
X25976Y-29556D01*
X25937Y-29480D01*
X25937Y-28794D01*
X26661Y-29556D02*
X26585Y-29594D01*
X26433Y-29594D01*
X26356Y-29556D01*
X26318Y-29480D01*
X26318Y-29175D01*
X26356Y-29099D01*
X26433Y-29060D01*
X26585Y-29060D01*
X26661Y-29099D01*
X26699Y-29175D01*
X26699Y-29251D01*
X26318Y-29327D01*
X27004Y-29556D02*
X27081Y-29594D01*
X27233Y-29594D01*
X27309Y-29556D01*
X27347Y-29480D01*
X27347Y-29441D01*
X27309Y-29365D01*
X27233Y-29327D01*
X27119Y-29327D01*
X27042Y-29289D01*
X27004Y-29213D01*
X27004Y-29175D01*
X27042Y-29099D01*
X27119Y-29060D01*
X27233Y-29060D01*
X27309Y-29099D01*
X27614Y-29899D02*
X27652Y-29860D01*
X27729Y-29746D01*
X27767Y-29670D01*
X27805Y-29556D01*
X27843Y-29365D01*
X27843Y-29213D01*
X27805Y-29022D01*
X27767Y-28908D01*
X27729Y-28832D01*
X27652Y-28718D01*
X27614Y-28680D01*
G54D10*
X09924Y-30326D02*
X09920Y-30357D01*
X09911Y-30386D01*
X09897Y-30414D01*
X09877Y-30438D01*
X09853Y-30458D01*
X09826Y-30473D01*
X09796Y-30482D01*
X09765Y-30485D01*
X09735Y-30483D01*
X09705Y-30474D01*
X09677Y-30459D01*
X09653Y-30440D01*
X09632Y-30416D01*
X09617Y-30389D01*
X09608Y-30359D01*
X09605Y-30328D01*
X09607Y-30298D01*
X09616Y-30268D01*
X09630Y-30240D01*
X09649Y-30215D01*
X09673Y-30195D01*
X09700Y-30180D01*
X09730Y-30170D01*
X09761Y-30167D01*
X09791Y-30169D01*
X09821Y-30177D01*
X09849Y-30191D01*
X09874Y-30211D01*
X09894Y-30234D01*
X09910Y-30261D01*
X09920Y-30291D01*
X09923Y-30322D01*
X09924Y-30326D01*
G54D13*
X10467Y-29850D02*
X10543Y-29850D01*
X10619Y-29888D01*
X10657Y-29926D01*
X10695Y-30002D01*
X10734Y-30155D01*
X10734Y-30345D01*
X10695Y-30497D01*
X10657Y-30574D01*
X10619Y-30612D01*
X10543Y-30650D01*
X10467Y-30650D01*
X10391Y-30612D01*
X10353Y-30574D01*
X10314Y-30497D01*
X10276Y-30345D01*
X10276Y-30155D01*
X10314Y-30002D01*
X10353Y-29926D01*
X10391Y-29888D01*
X10467Y-29850D01*
X11076Y-30574D02*
X11115Y-30612D01*
X11076Y-30650D01*
X11038Y-30612D01*
X11076Y-30574D01*
X11076Y-30650D01*
X11610Y-29850D02*
X11686Y-29850D01*
X11762Y-29888D01*
X11800Y-29926D01*
X11838Y-30002D01*
X11877Y-30155D01*
X11877Y-30345D01*
X11838Y-30497D01*
X11800Y-30574D01*
X11762Y-30612D01*
X11686Y-30650D01*
X11610Y-30650D01*
X11534Y-30612D01*
X11496Y-30574D01*
X11457Y-30497D01*
X11419Y-30345D01*
X11419Y-30155D01*
X11457Y-30002D01*
X11496Y-29926D01*
X11534Y-29888D01*
X11610Y-29850D01*
X12143Y-29850D02*
X12639Y-29850D01*
X12372Y-30155D01*
X12486Y-30155D01*
X12562Y-30193D01*
X12600Y-30231D01*
X12639Y-30307D01*
X12639Y-30497D01*
X12600Y-30574D01*
X12562Y-30612D01*
X12486Y-30650D01*
X12258Y-30650D01*
X12181Y-30612D01*
X12143Y-30574D01*
X12943Y-29926D02*
X12981Y-29888D01*
X13058Y-29850D01*
X13248Y-29850D01*
X13324Y-29888D01*
X13362Y-29926D01*
X13401Y-30002D01*
X13401Y-30078D01*
X13362Y-30193D01*
X12905Y-30650D01*
X13401Y-30650D01*
X13705Y-29850D02*
X13705Y-30002D01*
X14010Y-29850D02*
X14010Y-30002D01*
X15535Y-29812D02*
X14849Y-30840D01*
X16564Y-29850D02*
X16640Y-29850D01*
X16716Y-29888D01*
X16754Y-29926D01*
X16792Y-30002D01*
X16831Y-30155D01*
X16831Y-30345D01*
X16792Y-30497D01*
X16754Y-30574D01*
X16716Y-30612D01*
X16640Y-30650D01*
X16564Y-30650D01*
X16488Y-30612D01*
X16450Y-30574D01*
X16411Y-30497D01*
X16373Y-30345D01*
X16373Y-30155D01*
X16411Y-30002D01*
X16450Y-29926D01*
X16488Y-29888D01*
X16564Y-29850D01*
X17173Y-30574D02*
X17212Y-30612D01*
X17173Y-30650D01*
X17135Y-30612D01*
X17173Y-30574D01*
X17173Y-30650D01*
X17669Y-30193D02*
X17593Y-30155D01*
X17554Y-30116D01*
X17516Y-30040D01*
X17516Y-30002D01*
X17554Y-29926D01*
X17593Y-29888D01*
X17669Y-29850D01*
X17821Y-29850D01*
X17897Y-29888D01*
X17935Y-29926D01*
X17974Y-30002D01*
X17974Y-30040D01*
X17935Y-30116D01*
X17897Y-30155D01*
X17821Y-30193D01*
X17669Y-30193D01*
X17593Y-30231D01*
X17554Y-30269D01*
X17516Y-30345D01*
X17516Y-30497D01*
X17554Y-30574D01*
X17593Y-30612D01*
X17669Y-30650D01*
X17821Y-30650D01*
X17897Y-30612D01*
X17935Y-30574D01*
X17974Y-30497D01*
X17974Y-30345D01*
X17935Y-30269D01*
X17897Y-30231D01*
X17821Y-30193D01*
X18736Y-30650D02*
X18278Y-30650D01*
X18507Y-30650D02*
X18507Y-29850D01*
X18431Y-29964D01*
X18355Y-30040D01*
X18278Y-30078D01*
X19078Y-30650D02*
X19078Y-30116D01*
X19078Y-30193D02*
X19117Y-30155D01*
X19193Y-30116D01*
X19307Y-30116D01*
X19383Y-30155D01*
X19421Y-30231D01*
X19421Y-30650D01*
X19421Y-30231D02*
X19459Y-30155D01*
X19536Y-30116D01*
X19650Y-30116D01*
X19726Y-30155D01*
X19764Y-30231D01*
X19764Y-30650D01*
X20145Y-30650D02*
X20145Y-30116D01*
X20145Y-30193D02*
X20184Y-30155D01*
X20260Y-30116D01*
X20374Y-30116D01*
X20450Y-30155D01*
X20488Y-30231D01*
X20488Y-30650D01*
X20488Y-30231D02*
X20526Y-30155D01*
X20603Y-30116D01*
X20717Y-30116D01*
X20793Y-30155D01*
X20831Y-30231D01*
X20831Y-30650D01*
X22051Y-30955D02*
X22013Y-30916D01*
X21937Y-30802D01*
X21899Y-30726D01*
X21861Y-30612D01*
X21822Y-30421D01*
X21822Y-30269D01*
X21861Y-30078D01*
X21899Y-29964D01*
X21937Y-29888D01*
X22013Y-29774D01*
X22051Y-29736D01*
X22698Y-30116D02*
X22698Y-30650D01*
X22508Y-29812D02*
X22317Y-30383D01*
X22813Y-30383D01*
X23727Y-30650D02*
X23727Y-29850D01*
X24070Y-30650D02*
X24070Y-30231D01*
X24032Y-30155D01*
X23956Y-30116D01*
X23842Y-30116D01*
X23766Y-30155D01*
X23727Y-30193D01*
X24566Y-30650D02*
X24490Y-30612D01*
X24451Y-30574D01*
X24413Y-30497D01*
X24413Y-30269D01*
X24451Y-30193D01*
X24490Y-30155D01*
X24566Y-30116D01*
X24680Y-30116D01*
X24756Y-30155D01*
X24794Y-30193D01*
X24832Y-30269D01*
X24832Y-30497D01*
X24794Y-30574D01*
X24756Y-30612D01*
X24680Y-30650D01*
X24566Y-30650D01*
X25290Y-30650D02*
X25214Y-30612D01*
X25175Y-30536D01*
X25175Y-29850D01*
X25899Y-30612D02*
X25823Y-30650D01*
X25671Y-30650D01*
X25594Y-30612D01*
X25556Y-30536D01*
X25556Y-30231D01*
X25594Y-30155D01*
X25671Y-30116D01*
X25823Y-30116D01*
X25899Y-30155D01*
X25937Y-30231D01*
X25937Y-30307D01*
X25556Y-30383D01*
X26242Y-30612D02*
X26319Y-30650D01*
X26471Y-30650D01*
X26547Y-30612D01*
X26585Y-30536D01*
X26585Y-30497D01*
X26547Y-30421D01*
X26471Y-30383D01*
X26357Y-30383D01*
X26280Y-30345D01*
X26242Y-30269D01*
X26242Y-30231D01*
X26280Y-30155D01*
X26357Y-30116D01*
X26471Y-30116D01*
X26547Y-30155D01*
X26852Y-30955D02*
X26890Y-30916D01*
X26967Y-30802D01*
X27005Y-30726D01*
X27043Y-30612D01*
X27081Y-30421D01*
X27081Y-30269D01*
X27043Y-30078D01*
X27005Y-29964D01*
X26967Y-29888D01*
X26890Y-29774D01*
X26852Y-29736D01*
X09724Y-31182D02*
X09724Y-31582D01*
X09924Y-31382D02*
X09524Y-31382D01*
X10467Y-30906D02*
X10543Y-30906D01*
X10619Y-30944D01*
X10657Y-30982D01*
X10695Y-31058D01*
X10734Y-31211D01*
X10734Y-31401D01*
X10695Y-31553D01*
X10657Y-31630D01*
X10619Y-31668D01*
X10543Y-31706D01*
X10467Y-31706D01*
X10391Y-31668D01*
X10353Y-31630D01*
X10314Y-31553D01*
X10276Y-31401D01*
X10276Y-31211D01*
X10314Y-31058D01*
X10353Y-30982D01*
X10391Y-30944D01*
X10467Y-30906D01*
X11076Y-31630D02*
X11115Y-31668D01*
X11076Y-31706D01*
X11038Y-31668D01*
X11076Y-31630D01*
X11076Y-31706D01*
X11610Y-30906D02*
X11686Y-30906D01*
X11762Y-30944D01*
X11800Y-30982D01*
X11838Y-31058D01*
X11877Y-31211D01*
X11877Y-31401D01*
X11838Y-31553D01*
X11800Y-31630D01*
X11762Y-31668D01*
X11686Y-31706D01*
X11610Y-31706D01*
X11534Y-31668D01*
X11496Y-31630D01*
X11457Y-31553D01*
X11419Y-31401D01*
X11419Y-31211D01*
X11457Y-31058D01*
X11496Y-30982D01*
X11534Y-30944D01*
X11610Y-30906D01*
X12562Y-31172D02*
X12562Y-31706D01*
X12372Y-30868D02*
X12181Y-31439D01*
X12677Y-31439D01*
X13134Y-30906D02*
X13210Y-30906D01*
X13286Y-30944D01*
X13324Y-30982D01*
X13362Y-31058D01*
X13401Y-31211D01*
X13401Y-31401D01*
X13362Y-31553D01*
X13324Y-31630D01*
X13286Y-31668D01*
X13210Y-31706D01*
X13134Y-31706D01*
X13058Y-31668D01*
X13020Y-31630D01*
X12981Y-31553D01*
X12943Y-31401D01*
X12943Y-31211D01*
X12981Y-31058D01*
X13020Y-30982D01*
X13058Y-30944D01*
X13134Y-30906D01*
X13705Y-30906D02*
X13705Y-31058D01*
X14010Y-30906D02*
X14010Y-31058D01*
X15535Y-30868D02*
X14849Y-31896D01*
X16831Y-31706D02*
X16373Y-31706D01*
X16602Y-31706D02*
X16602Y-30906D01*
X16526Y-31020D01*
X16450Y-31096D01*
X16373Y-31134D01*
X17173Y-31630D02*
X17212Y-31668D01*
X17173Y-31706D01*
X17135Y-31668D01*
X17173Y-31630D01*
X17173Y-31706D01*
X17707Y-30906D02*
X17783Y-30906D01*
X17859Y-30944D01*
X17897Y-30982D01*
X17935Y-31058D01*
X17974Y-31211D01*
X17974Y-31401D01*
X17935Y-31553D01*
X17897Y-31630D01*
X17859Y-31668D01*
X17783Y-31706D01*
X17707Y-31706D01*
X17631Y-31668D01*
X17593Y-31630D01*
X17554Y-31553D01*
X17516Y-31401D01*
X17516Y-31211D01*
X17554Y-31058D01*
X17593Y-30982D01*
X17631Y-30944D01*
X17707Y-30906D01*
X18278Y-30982D02*
X18316Y-30944D01*
X18393Y-30906D01*
X18583Y-30906D01*
X18659Y-30944D01*
X18697Y-30982D01*
X18736Y-31058D01*
X18736Y-31134D01*
X18697Y-31249D01*
X18240Y-31706D01*
X18736Y-31706D01*
X19078Y-31706D02*
X19078Y-31172D01*
X19078Y-31249D02*
X19117Y-31211D01*
X19193Y-31172D01*
X19307Y-31172D01*
X19383Y-31211D01*
X19421Y-31287D01*
X19421Y-31706D01*
X19421Y-31287D02*
X19459Y-31211D01*
X19536Y-31172D01*
X19650Y-31172D01*
X19726Y-31211D01*
X19764Y-31287D01*
X19764Y-31706D01*
X20145Y-31706D02*
X20145Y-31172D01*
X20145Y-31249D02*
X20184Y-31211D01*
X20260Y-31172D01*
X20374Y-31172D01*
X20450Y-31211D01*
X20488Y-31287D01*
X20488Y-31706D01*
X20488Y-31287D02*
X20526Y-31211D01*
X20603Y-31172D01*
X20717Y-31172D01*
X20793Y-31211D01*
X20831Y-31287D01*
X20831Y-31706D01*
X22051Y-32011D02*
X22013Y-31972D01*
X21937Y-31858D01*
X21899Y-31782D01*
X21861Y-31668D01*
X21822Y-31477D01*
X21822Y-31325D01*
X21861Y-31134D01*
X21899Y-31020D01*
X21937Y-30944D01*
X22013Y-30830D01*
X22051Y-30792D01*
X22279Y-30906D02*
X22775Y-30906D01*
X22508Y-31211D01*
X22622Y-31211D01*
X22698Y-31249D01*
X22736Y-31287D01*
X22775Y-31363D01*
X22775Y-31553D01*
X22736Y-31630D01*
X22698Y-31668D01*
X22622Y-31706D01*
X22394Y-31706D01*
X22317Y-31668D01*
X22279Y-31630D01*
X23498Y-30906D02*
X23117Y-30906D01*
X23079Y-31287D01*
X23117Y-31249D01*
X23194Y-31211D01*
X23384Y-31211D01*
X23460Y-31249D01*
X23498Y-31287D01*
X23537Y-31363D01*
X23537Y-31553D01*
X23498Y-31630D01*
X23460Y-31668D01*
X23384Y-31706D01*
X23194Y-31706D01*
X23117Y-31668D01*
X23079Y-31630D01*
X24489Y-31706D02*
X24489Y-30906D01*
X24832Y-31706D02*
X24832Y-31287D01*
X24794Y-31211D01*
X24718Y-31172D01*
X24604Y-31172D01*
X24528Y-31211D01*
X24489Y-31249D01*
X25328Y-31706D02*
X25252Y-31668D01*
X25213Y-31630D01*
X25175Y-31553D01*
X25175Y-31325D01*
X25213Y-31249D01*
X25252Y-31211D01*
X25328Y-31172D01*
X25442Y-31172D01*
X25518Y-31211D01*
X25556Y-31249D01*
X25594Y-31325D01*
X25594Y-31553D01*
X25556Y-31630D01*
X25518Y-31668D01*
X25442Y-31706D01*
X25328Y-31706D01*
X26052Y-31706D02*
X25976Y-31668D01*
X25937Y-31592D01*
X25937Y-30906D01*
X26661Y-31668D02*
X26585Y-31706D01*
X26433Y-31706D01*
X26356Y-31668D01*
X26318Y-31592D01*
X26318Y-31287D01*
X26356Y-31211D01*
X26433Y-31172D01*
X26585Y-31172D01*
X26661Y-31211D01*
X26699Y-31287D01*
X26699Y-31363D01*
X26318Y-31439D01*
X27004Y-31668D02*
X27081Y-31706D01*
X27233Y-31706D01*
X27309Y-31668D01*
X27347Y-31592D01*
X27347Y-31553D01*
X27309Y-31477D01*
X27233Y-31439D01*
X27119Y-31439D01*
X27042Y-31401D01*
X27004Y-31325D01*
X27004Y-31287D01*
X27042Y-31211D01*
X27119Y-31172D01*
X27233Y-31172D01*
X27309Y-31211D01*
X27614Y-32011D02*
X27652Y-31972D01*
X27729Y-31858D01*
X27767Y-31782D01*
X27805Y-31668D01*
X27843Y-31477D01*
X27843Y-31325D01*
X27805Y-31134D01*
X27767Y-31020D01*
X27729Y-30944D01*
X27652Y-30830D01*
X27614Y-30792D01*
G54D10*
X09924Y-32438D02*
X09912Y-32554D01*
X09878Y-32666D01*
X09823Y-32770D01*
X09749Y-32860D01*
X09659Y-32935D01*
X09556Y-32991D01*
X09444Y-33025D01*
X09328Y-33037D01*
X09212Y-33027D01*
X09100Y-32994D01*
X08996Y-32940D01*
X08905Y-32866D01*
X08829Y-32776D01*
X08773Y-32674D01*
X08738Y-32562D01*
X08725Y-32446D01*
X08734Y-32330D01*
X08767Y-32218D01*
X08820Y-32113D01*
X08893Y-32022D01*
X08982Y-31946D01*
X09084Y-31889D01*
X09196Y-31852D01*
X09312Y-31839D01*
X09428Y-31848D01*
X09540Y-31879D01*
X09645Y-31932D01*
X09737Y-32004D01*
X09814Y-32093D01*
X09872Y-32194D01*
X09909Y-32306D01*
X09923Y-32422D01*
X09924Y-32438D01*
X08724Y-31838D02*
X09924Y-33038D01*
X09924Y-31838D02*
X08724Y-33038D01*
G54D13*
X10467Y-31962D02*
X10543Y-31962D01*
X10619Y-32000D01*
X10657Y-32038D01*
X10695Y-32114D01*
X10734Y-32267D01*
X10734Y-32457D01*
X10695Y-32609D01*
X10657Y-32686D01*
X10619Y-32724D01*
X10543Y-32762D01*
X10467Y-32762D01*
X10391Y-32724D01*
X10353Y-32686D01*
X10314Y-32609D01*
X10276Y-32457D01*
X10276Y-32267D01*
X10314Y-32114D01*
X10353Y-32038D01*
X10391Y-32000D01*
X10467Y-31962D01*
X11076Y-32686D02*
X11115Y-32724D01*
X11076Y-32762D01*
X11038Y-32724D01*
X11076Y-32686D01*
X11076Y-32762D01*
X11877Y-32762D02*
X11419Y-32762D01*
X11648Y-32762D02*
X11648Y-31962D01*
X11572Y-32076D01*
X11496Y-32152D01*
X11419Y-32190D01*
X12181Y-32038D02*
X12219Y-32000D01*
X12296Y-31962D01*
X12486Y-31962D01*
X12562Y-32000D01*
X12600Y-32038D01*
X12639Y-32114D01*
X12639Y-32190D01*
X12600Y-32305D01*
X12143Y-32762D01*
X12639Y-32762D01*
X13134Y-31962D02*
X13210Y-31962D01*
X13286Y-32000D01*
X13324Y-32038D01*
X13362Y-32114D01*
X13401Y-32267D01*
X13401Y-32457D01*
X13362Y-32609D01*
X13324Y-32686D01*
X13286Y-32724D01*
X13210Y-32762D01*
X13134Y-32762D01*
X13058Y-32724D01*
X13020Y-32686D01*
X12981Y-32609D01*
X12943Y-32457D01*
X12943Y-32267D01*
X12981Y-32114D01*
X13020Y-32038D01*
X13058Y-32000D01*
X13134Y-31962D01*
X13705Y-31962D02*
X13705Y-32114D01*
X14010Y-31962D02*
X14010Y-32114D01*
X15535Y-31924D02*
X14849Y-32952D01*
X16335Y-31962D02*
X16831Y-31962D01*
X16564Y-32267D01*
X16678Y-32267D01*
X16754Y-32305D01*
X16792Y-32343D01*
X16831Y-32419D01*
X16831Y-32609D01*
X16792Y-32686D01*
X16754Y-32724D01*
X16678Y-32762D01*
X16450Y-32762D01*
X16373Y-32724D01*
X16335Y-32686D01*
X17173Y-32686D02*
X17212Y-32724D01*
X17173Y-32762D01*
X17135Y-32724D01*
X17173Y-32686D01*
X17173Y-32762D01*
X17707Y-31962D02*
X17783Y-31962D01*
X17859Y-32000D01*
X17897Y-32038D01*
X17935Y-32114D01*
X17974Y-32267D01*
X17974Y-32457D01*
X17935Y-32609D01*
X17897Y-32686D01*
X17859Y-32724D01*
X17783Y-32762D01*
X17707Y-32762D01*
X17631Y-32724D01*
X17593Y-32686D01*
X17554Y-32609D01*
X17516Y-32457D01*
X17516Y-32267D01*
X17554Y-32114D01*
X17593Y-32038D01*
X17631Y-32000D01*
X17707Y-31962D01*
X18697Y-31962D02*
X18316Y-31962D01*
X18278Y-32343D01*
X18316Y-32305D01*
X18393Y-32267D01*
X18583Y-32267D01*
X18659Y-32305D01*
X18697Y-32343D01*
X18736Y-32419D01*
X18736Y-32609D01*
X18697Y-32686D01*
X18659Y-32724D01*
X18583Y-32762D01*
X18393Y-32762D01*
X18316Y-32724D01*
X18278Y-32686D01*
X19078Y-32762D02*
X19078Y-32228D01*
X19078Y-32305D02*
X19117Y-32267D01*
X19193Y-32228D01*
X19307Y-32228D01*
X19383Y-32267D01*
X19421Y-32343D01*
X19421Y-32762D01*
X19421Y-32343D02*
X19459Y-32267D01*
X19536Y-32228D01*
X19650Y-32228D01*
X19726Y-32267D01*
X19764Y-32343D01*
X19764Y-32762D01*
X20145Y-32762D02*
X20145Y-32228D01*
X20145Y-32305D02*
X20184Y-32267D01*
X20260Y-32228D01*
X20374Y-32228D01*
X20450Y-32267D01*
X20488Y-32343D01*
X20488Y-32762D01*
X20488Y-32343D02*
X20526Y-32267D01*
X20603Y-32228D01*
X20717Y-32228D01*
X20793Y-32267D01*
X20831Y-32343D01*
X20831Y-32762D01*
X22051Y-33067D02*
X22013Y-33028D01*
X21937Y-32914D01*
X21899Y-32838D01*
X21861Y-32724D01*
X21822Y-32533D01*
X21822Y-32381D01*
X21861Y-32190D01*
X21899Y-32076D01*
X21937Y-32000D01*
X22013Y-31886D01*
X22051Y-31848D01*
X22775Y-32762D02*
X22317Y-32762D01*
X22546Y-32762D02*
X22546Y-31962D01*
X22470Y-32076D01*
X22394Y-32152D01*
X22317Y-32190D01*
X23727Y-32762D02*
X23727Y-31962D01*
X24070Y-32762D02*
X24070Y-32343D01*
X24032Y-32267D01*
X23956Y-32228D01*
X23842Y-32228D01*
X23766Y-32267D01*
X23727Y-32305D01*
X24566Y-32762D02*
X24490Y-32724D01*
X24451Y-32686D01*
X24413Y-32609D01*
X24413Y-32381D01*
X24451Y-32305D01*
X24490Y-32267D01*
X24566Y-32228D01*
X24680Y-32228D01*
X24756Y-32267D01*
X24794Y-32305D01*
X24832Y-32381D01*
X24832Y-32609D01*
X24794Y-32686D01*
X24756Y-32724D01*
X24680Y-32762D01*
X24566Y-32762D01*
X25290Y-32762D02*
X25214Y-32724D01*
X25175Y-32648D01*
X25175Y-31962D01*
X25899Y-32724D02*
X25823Y-32762D01*
X25671Y-32762D01*
X25594Y-32724D01*
X25556Y-32648D01*
X25556Y-32343D01*
X25594Y-32267D01*
X25671Y-32228D01*
X25823Y-32228D01*
X25899Y-32267D01*
X25937Y-32343D01*
X25937Y-32419D01*
X25556Y-32495D01*
X26204Y-33067D02*
X26242Y-33028D01*
X26319Y-32914D01*
X26357Y-32838D01*
X26395Y-32724D01*
X26433Y-32533D01*
X26433Y-32381D01*
X26395Y-32190D01*
X26357Y-32076D01*
X26319Y-32000D01*
X26242Y-31886D01*
X26204Y-31848D01*
M02*
