G04 (created by PCBNEW-RS274X (2011-12-28 BZR 3254)-stable) date 8/23/2012 6:26:50 PM*
G01*
G70*
G90*
%MOIN*%
G04 Gerber Fmt 3.4, Leading zero omitted, Abs format*
%FSLAX34Y34*%
G04 APERTURE LIST*
%ADD10C,0.006000*%
%ADD11C,0.005000*%
%ADD12R,0.080000X0.080000*%
%ADD13C,0.080000*%
%ADD14R,0.076000X0.062000*%
%ADD15R,0.070000X0.060000*%
%ADD16R,0.081000X0.039700*%
%ADD17R,0.059400X0.079100*%
%ADD18R,0.062000X0.076000*%
%ADD19R,0.071200X0.079000*%
%ADD20R,0.079000X0.071200*%
%ADD21C,0.060000*%
%ADD22R,0.054000X0.033600*%
%ADD23R,0.100000X0.170000*%
%ADD24R,0.100000X0.080000*%
%ADD25R,0.051500X0.067200*%
%ADD26R,0.044000X0.100000*%
%ADD27R,0.140000X0.084000*%
%ADD28R,0.100000X0.070000*%
%ADD29O,0.100000X0.070000*%
%ADD30C,0.095000*%
%ADD31R,0.080000X0.050000*%
%ADD32R,0.080000X0.060000*%
%ADD33C,0.065000*%
%ADD34R,0.050000X0.050000*%
%ADD35R,0.080000X0.100000*%
%ADD36R,0.120000X0.125000*%
%ADD37R,0.070000X0.050000*%
%ADD38O,0.140000X0.200000*%
%ADD39R,0.140000X0.200000*%
%ADD40O,0.200000X0.140000*%
%ADD41O,0.090000X0.050000*%
%ADD42C,0.200000*%
%ADD43C,0.120000*%
%ADD44O,0.080000X0.110000*%
%ADD45R,0.080000X0.110000*%
G04 APERTURE END LIST*
G54D10*
G54D11*
X43500Y-57000D02*
X43500Y-35000D01*
X10000Y-35000D02*
X43500Y-35000D01*
X43500Y-57000D02*
X10000Y-57000D01*
X10000Y-57000D02*
X10000Y-35000D01*
G54D12*
X18000Y-56250D03*
X18000Y-55250D03*
X18000Y-54250D03*
X18000Y-53250D03*
X18000Y-52250D03*
X18000Y-51250D03*
X18000Y-50250D03*
X18000Y-49250D03*
G54D13*
X19000Y-56250D03*
X19000Y-55250D03*
X19000Y-54250D03*
X19000Y-53250D03*
X19000Y-52250D03*
X19000Y-51250D03*
X19000Y-50250D03*
X19000Y-49250D03*
G54D14*
X11925Y-51225D03*
X11925Y-50425D03*
X17400Y-46525D03*
X17400Y-47325D03*
G54D15*
X23225Y-44475D03*
X23225Y-45275D03*
X26175Y-45275D03*
X26175Y-44475D03*
X25175Y-45275D03*
X25175Y-44475D03*
G54D14*
X20550Y-41650D03*
X20550Y-40850D03*
G54D16*
X17325Y-39225D03*
X17325Y-39725D03*
X17325Y-40225D03*
X17325Y-40725D03*
X17325Y-41225D03*
X17325Y-41725D03*
X17325Y-42225D03*
X19425Y-42225D03*
X19425Y-41725D03*
X19425Y-41225D03*
X19425Y-40725D03*
X19425Y-40225D03*
X19425Y-39725D03*
X19425Y-39225D03*
G54D17*
X22075Y-39425D03*
X22075Y-41475D03*
X22775Y-41475D03*
X22775Y-39425D03*
G54D14*
X34875Y-39050D03*
X34875Y-39850D03*
G54D18*
X15475Y-48525D03*
X16275Y-48525D03*
X16275Y-44875D03*
X15475Y-44875D03*
X15475Y-47525D03*
X16275Y-47525D03*
G54D19*
X18750Y-38150D03*
X18000Y-38150D03*
G54D20*
X20550Y-39950D03*
X20550Y-39200D03*
X20550Y-43275D03*
X20550Y-42525D03*
X23225Y-43275D03*
X23225Y-42525D03*
X24200Y-44500D03*
X24200Y-45250D03*
X27175Y-44500D03*
X27175Y-45250D03*
G54D21*
X11675Y-49500D03*
X11025Y-49500D03*
X10375Y-49500D03*
G54D20*
X20875Y-46550D03*
X20875Y-47300D03*
X21850Y-47300D03*
X21850Y-46550D03*
X22200Y-44500D03*
X22200Y-45250D03*
G54D22*
X15225Y-45775D03*
X15225Y-46525D03*
X15225Y-46150D03*
X16275Y-46525D03*
X16275Y-45775D03*
G54D23*
X13300Y-47475D03*
G54D24*
X10800Y-47475D03*
X10800Y-48375D03*
X10800Y-46575D03*
G54D25*
X17825Y-44575D03*
X17450Y-45525D03*
X17075Y-44575D03*
G54D26*
X18500Y-45250D03*
X18500Y-47150D03*
X19000Y-45250D03*
X19500Y-45250D03*
X20000Y-45250D03*
X19000Y-47150D03*
X19500Y-47150D03*
X20000Y-47150D03*
G54D14*
X21150Y-44475D03*
X21150Y-45275D03*
G54D27*
X23925Y-54525D03*
X25725Y-54500D03*
X15025Y-50425D03*
X13225Y-50450D03*
G54D13*
X20000Y-56250D03*
X20000Y-55250D03*
X20000Y-54250D03*
X20000Y-53250D03*
X20000Y-52250D03*
X20000Y-51250D03*
X20000Y-50250D03*
X20000Y-49250D03*
X42950Y-36050D03*
X42950Y-37050D03*
G54D12*
X42950Y-38050D03*
G54D13*
X42950Y-39050D03*
X42950Y-40050D03*
X42950Y-41050D03*
G54D28*
X31000Y-39000D03*
G54D29*
X31000Y-40000D03*
X31000Y-41000D03*
X31000Y-42000D03*
X31000Y-43000D03*
X31000Y-44000D03*
X31000Y-45000D03*
X31000Y-46000D03*
G54D28*
X32000Y-39000D03*
G54D29*
X32000Y-40000D03*
X32000Y-41000D03*
X32000Y-42000D03*
X32000Y-43000D03*
X32000Y-44000D03*
X32000Y-45000D03*
X32000Y-46000D03*
G54D30*
X10575Y-53300D03*
X10575Y-50700D03*
G54D13*
X37575Y-45800D03*
X36575Y-45800D03*
X37575Y-44800D03*
X36575Y-44800D03*
X37575Y-43800D03*
G54D12*
X36575Y-43800D03*
G54D31*
X16100Y-40225D03*
X16100Y-39792D03*
X16100Y-39359D03*
X16100Y-38926D03*
X16100Y-38493D03*
X16100Y-40658D03*
X16100Y-41091D03*
X16100Y-41524D03*
X16100Y-41957D03*
G54D32*
X15864Y-37963D03*
G54D24*
X12016Y-38099D03*
G54D32*
X12016Y-44162D03*
G54D12*
X15946Y-43840D03*
G54D33*
X11800Y-39200D03*
X11800Y-42350D03*
G54D34*
X37825Y-42100D03*
X37825Y-41625D03*
X37025Y-42100D03*
X37025Y-41625D03*
G54D35*
X12325Y-56075D03*
X10825Y-56075D03*
G54D24*
X21725Y-48725D03*
X21725Y-50225D03*
G54D36*
X16650Y-50425D03*
G54D37*
X16650Y-51350D03*
G54D38*
X13100Y-53450D03*
G54D39*
X15500Y-53450D03*
G54D40*
X14350Y-55450D03*
G54D13*
X10700Y-36900D03*
X10700Y-35900D03*
X11700Y-36900D03*
X11700Y-35900D03*
X12700Y-36900D03*
G54D12*
X12700Y-35900D03*
G54D13*
X13700Y-36900D03*
X13700Y-35900D03*
X14700Y-36900D03*
X14700Y-35900D03*
X15700Y-36900D03*
X15700Y-35900D03*
X16700Y-36900D03*
X16700Y-35900D03*
X17700Y-36900D03*
X17700Y-35900D03*
X18700Y-36900D03*
X18700Y-35900D03*
X19700Y-36900D03*
X19700Y-35900D03*
X20700Y-36900D03*
X20700Y-35900D03*
X21700Y-36900D03*
X21700Y-35900D03*
X22700Y-36900D03*
X22700Y-35900D03*
X34575Y-43800D03*
X34575Y-44800D03*
X34575Y-45800D03*
X41575Y-54125D03*
X40575Y-54125D03*
X39575Y-54125D03*
X38575Y-54125D03*
X37575Y-54125D03*
X36575Y-54125D03*
G54D12*
X41575Y-53125D03*
X40575Y-53125D03*
X39575Y-53125D03*
X38575Y-53125D03*
X37575Y-53125D03*
X36575Y-53125D03*
G54D41*
X13550Y-44675D03*
X13550Y-45675D03*
X12350Y-45175D03*
G54D34*
X12950Y-45675D03*
X12950Y-45175D03*
X12950Y-44675D03*
G54D20*
X11900Y-48375D03*
X11900Y-47625D03*
G54D12*
X41575Y-38800D03*
X40575Y-38800D03*
G54D13*
X39575Y-38800D03*
X38575Y-38800D03*
X37575Y-38800D03*
X36575Y-38800D03*
X41575Y-55125D03*
X40575Y-55125D03*
X39575Y-55125D03*
X36575Y-55125D03*
X37575Y-55125D03*
X38575Y-55125D03*
X34575Y-55125D03*
G54D12*
X33575Y-55125D03*
X32575Y-55125D03*
G54D13*
X30575Y-55125D03*
X29575Y-55125D03*
X41575Y-36125D03*
X40575Y-36125D03*
X39575Y-36125D03*
X38575Y-36125D03*
X37575Y-36125D03*
X36575Y-36125D03*
X35575Y-36125D03*
X34575Y-36125D03*
X32975Y-36125D03*
X31975Y-36125D03*
X30975Y-36125D03*
X29975Y-36125D03*
X28975Y-36125D03*
X27975Y-36125D03*
G54D12*
X26975Y-36125D03*
G54D13*
X25975Y-36125D03*
X31575Y-55125D03*
G54D42*
X22075Y-55125D03*
G54D43*
X42575Y-53125D03*
G54D13*
X28575Y-55125D03*
X27575Y-55125D03*
X24975Y-36125D03*
X23975Y-36125D03*
G54D44*
X37400Y-47975D03*
X36400Y-47975D03*
X35400Y-47975D03*
X34400Y-47975D03*
X33400Y-47975D03*
X32400Y-47975D03*
G54D45*
X31400Y-47975D03*
G54D44*
X30400Y-47975D03*
X29400Y-47975D03*
X28400Y-47975D03*
X27400Y-47975D03*
X26400Y-47975D03*
X25400Y-47975D03*
X38400Y-47975D03*
X25400Y-50975D03*
X26400Y-50975D03*
X27400Y-50975D03*
X28400Y-50975D03*
X29400Y-50975D03*
X30400Y-50975D03*
X31400Y-50975D03*
G54D45*
X32400Y-50975D03*
G54D44*
X33400Y-50975D03*
X34400Y-50975D03*
X35400Y-50975D03*
X36400Y-50975D03*
X37400Y-50975D03*
X38400Y-50975D03*
M02*
