G04 (created by PCBNEW-RS274X (2011-12-28 BZR 3254)-stable) date 7/28/2012 11:33:44 AM*
G01*
G70*
G90*
%MOIN*%
G04 Gerber Fmt 3.4, Leading zero omitted, Abs format*
%FSLAX34Y34*%
G04 APERTURE LIST*
%ADD10C,0.006000*%
%ADD11C,0.005000*%
%ADD12R,0.070000X0.087500*%
%ADD13R,0.016500X0.057900*%
%ADD14R,0.051200X0.059000*%
%ADD15R,0.042000X0.056000*%
%ADD16R,0.056000X0.042000*%
%ADD17R,0.059000X0.051200*%
%ADD18R,0.051200X0.041300*%
%ADD19R,0.023600X0.078700*%
%ADD20R,0.180000X0.140000*%
%ADD21R,0.054000X0.016000*%
%ADD22R,0.056000X0.063000*%
%ADD23R,0.075000X0.075000*%
%ADD24C,0.075000*%
%ADD25R,0.105000X0.100000*%
%ADD26R,0.030000X0.050000*%
%ADD27O,0.030000X0.070000*%
%ADD28R,0.030000X0.030000*%
%ADD29C,0.180000*%
%ADD30C,0.100000*%
G04 APERTURE END LIST*
G54D10*
G54D11*
X43500Y-22700D02*
X43500Y-32000D01*
X43500Y-16600D02*
X43500Y-10000D01*
X38850Y-22700D02*
X43500Y-22700D01*
X38850Y-16600D02*
X38850Y-22700D01*
X43500Y-16600D02*
X38850Y-16600D01*
X10000Y-10000D02*
X43500Y-10000D01*
X43500Y-32000D02*
X10000Y-32000D01*
X10000Y-32000D02*
X10000Y-10000D01*
G54D12*
X12325Y-31075D03*
X10825Y-31075D03*
G54D13*
X13747Y-14098D03*
X14003Y-14098D03*
X14259Y-14098D03*
X14515Y-14098D03*
X12983Y-16300D03*
X12979Y-14098D03*
X13235Y-14098D03*
X13491Y-14098D03*
X14771Y-16302D03*
X14515Y-16302D03*
X14259Y-16302D03*
X14003Y-16302D03*
X13747Y-16302D03*
X13491Y-16302D03*
X14771Y-14098D03*
X13235Y-16300D03*
X12723Y-14098D03*
X15027Y-14098D03*
X15027Y-16302D03*
X12723Y-16302D03*
G54D14*
X12075Y-19025D03*
X12825Y-19025D03*
G54D15*
X11025Y-13250D03*
X11825Y-13250D03*
X11025Y-16300D03*
X11825Y-16300D03*
G54D16*
X28800Y-20075D03*
X28800Y-19275D03*
G54D15*
X32400Y-24300D03*
X31600Y-24300D03*
X15100Y-19925D03*
X14300Y-19925D03*
G54D16*
X29850Y-20075D03*
X29850Y-19275D03*
G54D17*
X41075Y-25700D03*
X41075Y-26450D03*
X40075Y-25700D03*
X40075Y-26450D03*
G54D18*
X29775Y-21700D03*
X28875Y-20950D03*
X29775Y-20950D03*
X28875Y-21700D03*
G54D19*
X16125Y-24956D03*
X15625Y-24956D03*
X15125Y-24956D03*
X14625Y-24956D03*
X14125Y-24956D03*
X13625Y-24956D03*
X13125Y-24956D03*
X12625Y-24956D03*
X12625Y-21294D03*
X13125Y-21294D03*
X13625Y-21294D03*
X14125Y-21294D03*
X14625Y-21294D03*
X15125Y-21294D03*
X15625Y-21294D03*
X16125Y-21294D03*
G54D14*
X16775Y-26700D03*
X16025Y-26700D03*
G54D20*
X22600Y-24875D03*
X22600Y-14675D03*
G54D21*
X11625Y-27000D03*
X11625Y-26744D03*
X11625Y-26488D03*
X11625Y-27256D03*
X11625Y-27512D03*
G54D22*
X11525Y-28250D03*
X11525Y-25750D03*
G54D23*
X10575Y-27475D03*
X10575Y-26525D03*
G54D24*
X10575Y-28300D03*
X10575Y-25700D03*
G54D25*
X24650Y-29500D03*
G54D26*
X25575Y-29500D03*
G54D27*
X11950Y-20075D03*
X10950Y-20075D03*
X11450Y-21275D03*
G54D28*
X10950Y-20675D03*
X11450Y-20675D03*
X11950Y-20675D03*
G54D29*
X22075Y-30125D03*
G54D30*
X42575Y-28125D03*
M02*
