G04 (created by PCBNEW-RS274X (2011-12-28 BZR 3254)-stable) date 8/23/2012 6:26:50 PM*
G01*
G70*
G90*
%MOIN*%
G04 Gerber Fmt 3.4, Leading zero omitted, Abs format*
%FSLAX34Y34*%
G04 APERTURE LIST*
%ADD10C,0.006000*%
%ADD11C,0.005000*%
%ADD12R,0.060000X0.060000*%
%ADD13C,0.060000*%
%ADD14R,0.056000X0.042000*%
%ADD15R,0.050000X0.040000*%
%ADD16R,0.061000X0.019700*%
%ADD17R,0.039400X0.059100*%
%ADD18R,0.042000X0.056000*%
%ADD19R,0.051200X0.059000*%
%ADD20R,0.059000X0.051200*%
%ADD21C,0.040000*%
%ADD22R,0.044000X0.023600*%
%ADD23R,0.080000X0.150000*%
%ADD24R,0.080000X0.060000*%
%ADD25R,0.031500X0.047200*%
%ADD26R,0.024000X0.080000*%
%ADD27R,0.120000X0.064000*%
%ADD28R,0.080000X0.050000*%
%ADD29O,0.080000X0.050000*%
%ADD30C,0.075000*%
%ADD31R,0.060000X0.030000*%
%ADD32R,0.060000X0.040000*%
%ADD33C,0.045000*%
%ADD34R,0.030000X0.030000*%
%ADD35R,0.060000X0.080000*%
%ADD36R,0.100000X0.105000*%
%ADD37R,0.050000X0.030000*%
%ADD38O,0.120000X0.180000*%
%ADD39R,0.120000X0.180000*%
%ADD40O,0.180000X0.120000*%
%ADD41O,0.070000X0.030000*%
%ADD42C,0.180000*%
%ADD43C,0.100000*%
%ADD44O,0.060000X0.090000*%
%ADD45R,0.060000X0.090000*%
%ADD46C,0.035000*%
%ADD47C,0.020000*%
%ADD48C,0.015000*%
%ADD49C,0.010000*%
G04 APERTURE END LIST*
G54D10*
G54D11*
X43500Y-57000D02*
X43500Y-35000D01*
X10000Y-35000D02*
X43500Y-35000D01*
X43500Y-57000D02*
X10000Y-57000D01*
X10000Y-57000D02*
X10000Y-35000D01*
G54D12*
X18000Y-56250D03*
X18000Y-55250D03*
X18000Y-54250D03*
X18000Y-53250D03*
X18000Y-52250D03*
X18000Y-51250D03*
X18000Y-50250D03*
X18000Y-49250D03*
G54D13*
X19000Y-56250D03*
X19000Y-55250D03*
X19000Y-54250D03*
X19000Y-53250D03*
X19000Y-52250D03*
X19000Y-51250D03*
X19000Y-50250D03*
X19000Y-49250D03*
G54D14*
X11925Y-51225D03*
X11925Y-50425D03*
X17400Y-46525D03*
X17400Y-47325D03*
G54D15*
X23225Y-44475D03*
X23225Y-45275D03*
X26175Y-45275D03*
X26175Y-44475D03*
X25175Y-45275D03*
X25175Y-44475D03*
G54D14*
X20550Y-41650D03*
X20550Y-40850D03*
G54D16*
X17325Y-39225D03*
X17325Y-39725D03*
X17325Y-40225D03*
X17325Y-40725D03*
X17325Y-41225D03*
X17325Y-41725D03*
X17325Y-42225D03*
X19425Y-42225D03*
X19425Y-41725D03*
X19425Y-41225D03*
X19425Y-40725D03*
X19425Y-40225D03*
X19425Y-39725D03*
X19425Y-39225D03*
G54D17*
X22075Y-39425D03*
X22075Y-41475D03*
X22775Y-41475D03*
X22775Y-39425D03*
G54D14*
X34875Y-39050D03*
X34875Y-39850D03*
G54D18*
X15475Y-48525D03*
X16275Y-48525D03*
X16275Y-44875D03*
X15475Y-44875D03*
X15475Y-47525D03*
X16275Y-47525D03*
G54D19*
X18750Y-38150D03*
X18000Y-38150D03*
G54D20*
X20550Y-39950D03*
X20550Y-39200D03*
X20550Y-43275D03*
X20550Y-42525D03*
X23225Y-43275D03*
X23225Y-42525D03*
X24200Y-44500D03*
X24200Y-45250D03*
X27175Y-44500D03*
X27175Y-45250D03*
G54D21*
X11675Y-49500D03*
X11025Y-49500D03*
X10375Y-49500D03*
G54D20*
X20875Y-46550D03*
X20875Y-47300D03*
X21850Y-47300D03*
X21850Y-46550D03*
X22200Y-44500D03*
X22200Y-45250D03*
G54D22*
X15225Y-45775D03*
X15225Y-46525D03*
X15225Y-46150D03*
X16275Y-46525D03*
X16275Y-45775D03*
G54D23*
X13300Y-47475D03*
G54D24*
X10800Y-47475D03*
X10800Y-48375D03*
X10800Y-46575D03*
G54D25*
X17825Y-44575D03*
X17450Y-45525D03*
X17075Y-44575D03*
G54D26*
X18500Y-45250D03*
X18500Y-47150D03*
X19000Y-45250D03*
X19500Y-45250D03*
X20000Y-45250D03*
X19000Y-47150D03*
X19500Y-47150D03*
X20000Y-47150D03*
G54D14*
X21150Y-44475D03*
X21150Y-45275D03*
G54D27*
X23925Y-54525D03*
X25725Y-54500D03*
X15025Y-50425D03*
X13225Y-50450D03*
G54D13*
X20000Y-56250D03*
X20000Y-55250D03*
X20000Y-54250D03*
X20000Y-53250D03*
X20000Y-52250D03*
X20000Y-51250D03*
X20000Y-50250D03*
X20000Y-49250D03*
X42950Y-36050D03*
X42950Y-37050D03*
G54D12*
X42950Y-38050D03*
G54D13*
X42950Y-39050D03*
X42950Y-40050D03*
X42950Y-41050D03*
G54D28*
X31000Y-39000D03*
G54D29*
X31000Y-40000D03*
X31000Y-41000D03*
X31000Y-42000D03*
X31000Y-43000D03*
X31000Y-44000D03*
X31000Y-45000D03*
X31000Y-46000D03*
G54D28*
X32000Y-39000D03*
G54D29*
X32000Y-40000D03*
X32000Y-41000D03*
X32000Y-42000D03*
X32000Y-43000D03*
X32000Y-44000D03*
X32000Y-45000D03*
X32000Y-46000D03*
G54D30*
X10575Y-53300D03*
X10575Y-50700D03*
G54D13*
X37575Y-45800D03*
X36575Y-45800D03*
X37575Y-44800D03*
X36575Y-44800D03*
X37575Y-43800D03*
G54D12*
X36575Y-43800D03*
G54D31*
X16100Y-40225D03*
X16100Y-39792D03*
X16100Y-39359D03*
X16100Y-38926D03*
X16100Y-38493D03*
X16100Y-40658D03*
X16100Y-41091D03*
X16100Y-41524D03*
X16100Y-41957D03*
G54D32*
X15864Y-37963D03*
G54D24*
X12016Y-38099D03*
G54D32*
X12016Y-44162D03*
G54D12*
X15946Y-43840D03*
G54D33*
X11800Y-39200D03*
X11800Y-42350D03*
G54D34*
X37825Y-42100D03*
X37825Y-41625D03*
X37025Y-42100D03*
X37025Y-41625D03*
G54D35*
X12325Y-56075D03*
X10825Y-56075D03*
G54D24*
X21725Y-48725D03*
X21725Y-50225D03*
G54D36*
X16650Y-50425D03*
G54D37*
X16650Y-51350D03*
G54D38*
X13100Y-53450D03*
G54D39*
X15500Y-53450D03*
G54D40*
X14350Y-55450D03*
G54D13*
X10700Y-36900D03*
X10700Y-35900D03*
X11700Y-36900D03*
X11700Y-35900D03*
X12700Y-36900D03*
G54D12*
X12700Y-35900D03*
G54D13*
X13700Y-36900D03*
X13700Y-35900D03*
X14700Y-36900D03*
X14700Y-35900D03*
X15700Y-36900D03*
X15700Y-35900D03*
X16700Y-36900D03*
X16700Y-35900D03*
X17700Y-36900D03*
X17700Y-35900D03*
X18700Y-36900D03*
X18700Y-35900D03*
X19700Y-36900D03*
X19700Y-35900D03*
X20700Y-36900D03*
X20700Y-35900D03*
X21700Y-36900D03*
X21700Y-35900D03*
X22700Y-36900D03*
X22700Y-35900D03*
X34575Y-43800D03*
X34575Y-44800D03*
X34575Y-45800D03*
X41575Y-54125D03*
X40575Y-54125D03*
X39575Y-54125D03*
X38575Y-54125D03*
X37575Y-54125D03*
X36575Y-54125D03*
G54D12*
X41575Y-53125D03*
X40575Y-53125D03*
X39575Y-53125D03*
X38575Y-53125D03*
X37575Y-53125D03*
X36575Y-53125D03*
G54D41*
X13550Y-44675D03*
X13550Y-45675D03*
X12350Y-45175D03*
G54D34*
X12950Y-45675D03*
X12950Y-45175D03*
X12950Y-44675D03*
G54D20*
X11900Y-48375D03*
X11900Y-47625D03*
G54D12*
X41575Y-38800D03*
X40575Y-38800D03*
G54D13*
X39575Y-38800D03*
X38575Y-38800D03*
X37575Y-38800D03*
X36575Y-38800D03*
X41575Y-55125D03*
X40575Y-55125D03*
X39575Y-55125D03*
X36575Y-55125D03*
X37575Y-55125D03*
X38575Y-55125D03*
X34575Y-55125D03*
G54D12*
X33575Y-55125D03*
X32575Y-55125D03*
G54D13*
X30575Y-55125D03*
X29575Y-55125D03*
X41575Y-36125D03*
X40575Y-36125D03*
X39575Y-36125D03*
X38575Y-36125D03*
X37575Y-36125D03*
X36575Y-36125D03*
X35575Y-36125D03*
X34575Y-36125D03*
X32975Y-36125D03*
X31975Y-36125D03*
X30975Y-36125D03*
X29975Y-36125D03*
X28975Y-36125D03*
X27975Y-36125D03*
G54D12*
X26975Y-36125D03*
G54D13*
X25975Y-36125D03*
X31575Y-55125D03*
G54D42*
X22075Y-55125D03*
G54D43*
X42575Y-53125D03*
G54D13*
X28575Y-55125D03*
X27575Y-55125D03*
X24975Y-36125D03*
X23975Y-36125D03*
G54D44*
X37400Y-47975D03*
X36400Y-47975D03*
X35400Y-47975D03*
X34400Y-47975D03*
X33400Y-47975D03*
X32400Y-47975D03*
G54D45*
X31400Y-47975D03*
G54D44*
X30400Y-47975D03*
X29400Y-47975D03*
X28400Y-47975D03*
X27400Y-47975D03*
X26400Y-47975D03*
X25400Y-47975D03*
X38400Y-47975D03*
X25400Y-50975D03*
X26400Y-50975D03*
X27400Y-50975D03*
X28400Y-50975D03*
X29400Y-50975D03*
X30400Y-50975D03*
X31400Y-50975D03*
G54D45*
X32400Y-50975D03*
G54D44*
X33400Y-50975D03*
X34400Y-50975D03*
X35400Y-50975D03*
X36400Y-50975D03*
X37400Y-50975D03*
X38400Y-50975D03*
G54D46*
X18750Y-40225D03*
X33375Y-42300D03*
X34575Y-42300D03*
X27800Y-44500D03*
X24125Y-46300D03*
X21300Y-43275D03*
X19500Y-48075D03*
X14499Y-42135D03*
X35825Y-55050D03*
X33975Y-53125D03*
X17025Y-42675D03*
X23025Y-53600D03*
X24650Y-53600D03*
X26100Y-47100D03*
X41675Y-40525D03*
X40350Y-40525D03*
X25925Y-42550D03*
X27625Y-42550D03*
X28175Y-41625D03*
X25575Y-41625D03*
X40350Y-39925D03*
X35400Y-40825D03*
X41675Y-39925D03*
X28900Y-52225D03*
X33400Y-46175D03*
X30900Y-51825D03*
X35825Y-38350D03*
X32975Y-38050D03*
X14225Y-40575D03*
X19550Y-38825D03*
X29425Y-38050D03*
X15500Y-38825D03*
X25925Y-38450D03*
X18150Y-41225D03*
X25400Y-42450D03*
X20550Y-38675D03*
X32950Y-39850D03*
X23800Y-42525D03*
X29350Y-41975D03*
X19775Y-43600D03*
X17775Y-43500D03*
X22200Y-35350D03*
X40175Y-37525D03*
X41075Y-37525D03*
X25275Y-39300D03*
X21275Y-40375D03*
X13225Y-40200D03*
X34925Y-38500D03*
X24450Y-38325D03*
X30450Y-53150D03*
X24450Y-37075D03*
X20950Y-38325D03*
X15025Y-43025D03*
X17525Y-42675D03*
X25100Y-41275D03*
X21300Y-42525D03*
X27825Y-41275D03*
X12625Y-47475D03*
X15275Y-51225D03*
X10350Y-43700D03*
X15625Y-49200D03*
X20800Y-48700D03*
X10825Y-54225D03*
X12350Y-42850D03*
X17075Y-44125D03*
X23150Y-47475D03*
X14700Y-44300D03*
X41575Y-49950D03*
X23375Y-45950D03*
X20000Y-44575D03*
X27925Y-45350D03*
X29700Y-43300D03*
X32875Y-45325D03*
X27275Y-42925D03*
X18000Y-40250D03*
X16975Y-45525D03*
X25275Y-40300D03*
X13800Y-52225D03*
X26850Y-53475D03*
X16650Y-49250D03*
X24625Y-49500D03*
X20400Y-46550D03*
X23725Y-47475D03*
X23350Y-40875D03*
X30075Y-54300D03*
X22600Y-47025D03*
X15200Y-40600D03*
X13350Y-43325D03*
X29325Y-43775D03*
X30550Y-46525D03*
X32400Y-53125D03*
X26550Y-46700D03*
X11050Y-39125D03*
X12300Y-46300D03*
X25950Y-55200D03*
X16600Y-48025D03*
X22200Y-43725D03*
X19500Y-44575D03*
G54D47*
X20050Y-40425D02*
X20550Y-40425D01*
X24125Y-46300D02*
X27872Y-46300D01*
X14675Y-41675D02*
X14675Y-41672D01*
X34575Y-42300D02*
X33375Y-42300D01*
X34575Y-42300D02*
X36350Y-42300D01*
X21300Y-43275D02*
X20550Y-43275D01*
X32575Y-53575D02*
X31575Y-53575D01*
X19425Y-40225D02*
X18750Y-40225D01*
X30575Y-54575D02*
X30575Y-55125D01*
X16575Y-43525D02*
X17025Y-43075D01*
X16575Y-44350D02*
X16575Y-43525D01*
X15689Y-40658D02*
X16100Y-40658D01*
X27872Y-46300D02*
X28375Y-45797D01*
X14499Y-41848D02*
X14675Y-41672D01*
X42038Y-39512D02*
X41163Y-39512D01*
X20550Y-43275D02*
X20225Y-43275D01*
X16275Y-45775D02*
X16275Y-44875D01*
X28375Y-45025D02*
X28375Y-45797D01*
X38375Y-41625D02*
X38375Y-41300D01*
X38125Y-42625D02*
X38375Y-42375D01*
X36675Y-42625D02*
X36350Y-42300D01*
X27850Y-44500D02*
X28375Y-45025D01*
X15499Y-40848D02*
X15499Y-41176D01*
X37825Y-41625D02*
X38375Y-41625D01*
X15000Y-41675D02*
X14675Y-41675D01*
X33025Y-53125D02*
X32575Y-53575D01*
X20025Y-43075D02*
X17025Y-43075D01*
X19425Y-39725D02*
X19425Y-40225D01*
X19425Y-39225D02*
X19425Y-39725D01*
X42500Y-39050D02*
X42038Y-39512D01*
X40625Y-40925D02*
X38750Y-40925D01*
X42950Y-39050D02*
X42500Y-39050D01*
X41163Y-39512D02*
X40850Y-39825D01*
X40850Y-39825D02*
X40850Y-40700D01*
X40850Y-40700D02*
X40625Y-40925D01*
X16275Y-44650D02*
X16575Y-44350D01*
X37575Y-54125D02*
X38575Y-54125D01*
X36575Y-54125D02*
X36375Y-54125D01*
X38125Y-42625D02*
X36675Y-42625D01*
X15499Y-41176D02*
X15000Y-41675D01*
X19000Y-47150D02*
X19000Y-47575D01*
X20550Y-40425D02*
X20550Y-39950D01*
X36375Y-54125D02*
X35825Y-54675D01*
X33975Y-53125D02*
X33025Y-53125D01*
X17025Y-43075D02*
X17025Y-42675D01*
X19000Y-47575D02*
X19500Y-48075D01*
X20225Y-43275D02*
X20025Y-43075D01*
X18750Y-40225D02*
X18750Y-38150D01*
X19425Y-40225D02*
X19850Y-40225D01*
X20550Y-40850D02*
X20550Y-40425D01*
X14499Y-42135D02*
X14499Y-41848D01*
X19850Y-40225D02*
X20050Y-40425D01*
X16275Y-44875D02*
X16275Y-44650D01*
X27800Y-44500D02*
X27175Y-44500D01*
X35825Y-54675D02*
X35825Y-55050D01*
X38375Y-42375D02*
X38375Y-41625D01*
X27175Y-44500D02*
X27850Y-44500D01*
X38375Y-41300D02*
X38750Y-40925D01*
X31575Y-53575D02*
X30575Y-54575D01*
X36575Y-54125D02*
X37575Y-54125D01*
X15499Y-40848D02*
X15689Y-40658D01*
X20675Y-50250D02*
X20000Y-50250D01*
X20700Y-50225D02*
X20675Y-50250D01*
X21725Y-50225D02*
X20700Y-50225D01*
X24650Y-53600D02*
X23925Y-53600D01*
X19000Y-55250D02*
X19000Y-56250D01*
X23925Y-53600D02*
X23025Y-53600D01*
X23925Y-54525D02*
X23925Y-53600D01*
X28350Y-46950D02*
X28200Y-47100D01*
X27900Y-47100D02*
X27875Y-47100D01*
X26100Y-47100D02*
X27875Y-47100D01*
X27875Y-47100D02*
X28200Y-47100D01*
X30425Y-49100D02*
X28200Y-49100D01*
X34100Y-44800D02*
X34575Y-44800D01*
X28350Y-46950D02*
X31950Y-46950D01*
X31400Y-50975D02*
X31400Y-50075D01*
X31400Y-50075D02*
X30425Y-49100D01*
G54D48*
X27900Y-48800D02*
X27900Y-47100D01*
G54D47*
X28200Y-49100D02*
X27900Y-48800D01*
X31950Y-46950D02*
X34100Y-44800D01*
G54D49*
X42950Y-40050D02*
X42150Y-40050D01*
X37025Y-42100D02*
X37825Y-42100D01*
X37425Y-42100D02*
X37825Y-42100D01*
X37775Y-40525D02*
X37425Y-40875D01*
X37425Y-40875D02*
X37425Y-42100D01*
X40350Y-40525D02*
X37775Y-40525D01*
X42150Y-40050D02*
X41675Y-40525D01*
X25925Y-42550D02*
X27625Y-42550D01*
X25200Y-51975D02*
X21275Y-51975D01*
X28175Y-41625D02*
X25575Y-41625D01*
X21275Y-51975D02*
X20000Y-53250D01*
X25400Y-50975D02*
X25400Y-51775D01*
X25400Y-51775D02*
X25200Y-51975D01*
X40350Y-39925D02*
X36900Y-39925D01*
X41275Y-40325D02*
X41675Y-39925D01*
X41275Y-40875D02*
X41275Y-40325D01*
X36000Y-40825D02*
X36900Y-39925D01*
X41450Y-41050D02*
X41275Y-40875D01*
X42950Y-41050D02*
X41450Y-41050D01*
X35400Y-40825D02*
X36000Y-40825D01*
X42550Y-36050D02*
X41800Y-36800D01*
X37850Y-36800D02*
X37575Y-36525D01*
X37575Y-36525D02*
X37575Y-36125D01*
X41800Y-36800D02*
X37850Y-36800D01*
X42950Y-36050D02*
X42550Y-36050D01*
X20575Y-54675D02*
X20000Y-55250D01*
X27825Y-52550D02*
X28150Y-52225D01*
X28575Y-47275D02*
X32300Y-47275D01*
X28150Y-52225D02*
X28900Y-52225D01*
X32300Y-47275D02*
X33400Y-46175D01*
X27825Y-52550D02*
X22275Y-52550D01*
X28400Y-47450D02*
X28400Y-47975D01*
X20575Y-54250D02*
X20575Y-54675D01*
X28575Y-47275D02*
X28400Y-47450D01*
X22275Y-52550D02*
X20575Y-54250D01*
X35575Y-36775D02*
X35575Y-36125D01*
X35850Y-37050D02*
X35575Y-36775D01*
X27400Y-47975D02*
X27400Y-49150D01*
X27950Y-51825D02*
X30900Y-51825D01*
X22050Y-52200D02*
X20000Y-54250D01*
X27900Y-49650D02*
X27400Y-49150D01*
X27900Y-49650D02*
X27900Y-51875D01*
X27575Y-52200D02*
X27950Y-51825D01*
X27575Y-52200D02*
X22050Y-52200D01*
X42950Y-37050D02*
X35850Y-37050D01*
X27575Y-52200D02*
X27900Y-51875D01*
X35525Y-38050D02*
X35825Y-38350D01*
X15500Y-39200D02*
X15500Y-38825D01*
X29425Y-38050D02*
X28975Y-38050D01*
X19550Y-38825D02*
X19550Y-37950D01*
X16100Y-39359D02*
X15659Y-39359D01*
X14975Y-38825D02*
X15500Y-38825D01*
X14750Y-39050D02*
X14750Y-40050D01*
X14750Y-39050D02*
X14975Y-38825D01*
X14750Y-40050D02*
X14225Y-40575D01*
X15659Y-39359D02*
X15500Y-39200D01*
X28975Y-38050D02*
X25250Y-38050D01*
X24950Y-37750D02*
X25250Y-38050D01*
X19750Y-37750D02*
X24950Y-37750D01*
X28975Y-38050D02*
X28975Y-36125D01*
X32975Y-38050D02*
X35525Y-38050D01*
X19550Y-37950D02*
X19750Y-37750D01*
X36075Y-42900D02*
X36325Y-43150D01*
X30075Y-42400D02*
X30250Y-42575D01*
X32450Y-43500D02*
X30425Y-43500D01*
X27400Y-50125D02*
X27250Y-49975D01*
X28575Y-42200D02*
X28775Y-42400D01*
X28775Y-42400D02*
X30075Y-42400D01*
X30425Y-43500D02*
X30250Y-43325D01*
X33050Y-42900D02*
X32450Y-43500D01*
X33050Y-42900D02*
X36075Y-42900D01*
X30250Y-43325D02*
X30250Y-42575D01*
X25525Y-42200D02*
X28575Y-42200D01*
X36950Y-43150D02*
X37075Y-43275D01*
X37075Y-44300D02*
X36575Y-44800D01*
X24750Y-37975D02*
X25225Y-38450D01*
X25400Y-42325D02*
X25525Y-42200D01*
X29975Y-38100D02*
X29625Y-38450D01*
X37075Y-43275D02*
X37075Y-44300D01*
X20550Y-38675D02*
X20550Y-38200D01*
X36325Y-43150D02*
X36950Y-43150D01*
X20775Y-37975D02*
X24750Y-37975D01*
X20550Y-38200D02*
X20775Y-37975D01*
X20550Y-39200D02*
X20550Y-38675D01*
X29625Y-38450D02*
X25925Y-38450D01*
X25400Y-42450D02*
X25400Y-42325D01*
X29975Y-36125D02*
X29975Y-38100D01*
X17325Y-41225D02*
X18150Y-41225D01*
X22850Y-50850D02*
X20400Y-50850D01*
X27400Y-50975D02*
X27400Y-50125D01*
X23725Y-49975D02*
X22850Y-50850D01*
X27250Y-49975D02*
X23725Y-49975D01*
X25925Y-38450D02*
X25225Y-38450D01*
X20400Y-50850D02*
X20000Y-51250D01*
X29350Y-41975D02*
X24350Y-41975D01*
X30000Y-52425D02*
X29575Y-52850D01*
X23225Y-42125D02*
X23225Y-42525D01*
X30000Y-52425D02*
X33675Y-52425D01*
X22775Y-41675D02*
X23225Y-42125D01*
X30600Y-42500D02*
X32775Y-42500D01*
X32950Y-39850D02*
X34875Y-39850D01*
X37575Y-43800D02*
X37575Y-43075D01*
X34125Y-49675D02*
X38175Y-49675D01*
X38400Y-44075D02*
X38125Y-43800D01*
X33900Y-52200D02*
X33675Y-52425D01*
X37575Y-43075D02*
X37400Y-42900D01*
X29350Y-41975D02*
X30075Y-41975D01*
X19150Y-43500D02*
X19250Y-43600D01*
X29575Y-52850D02*
X29575Y-55125D01*
X32950Y-42675D02*
X32775Y-42500D01*
X38400Y-47975D02*
X38400Y-49450D01*
X33900Y-49900D02*
X33900Y-52200D01*
X24350Y-41975D02*
X23800Y-42525D01*
X19250Y-43600D02*
X19775Y-43600D01*
X22775Y-41475D02*
X22775Y-39425D01*
X38400Y-47975D02*
X38400Y-44075D01*
X33900Y-49900D02*
X34125Y-49675D01*
X23800Y-42525D02*
X23225Y-42525D01*
X17775Y-43500D02*
X19150Y-43500D01*
X38175Y-49675D02*
X38400Y-49450D01*
X32950Y-42675D02*
X36350Y-42675D01*
X22775Y-41475D02*
X22775Y-41675D01*
X36350Y-42675D02*
X36575Y-42900D01*
X30075Y-41975D02*
X30600Y-42500D01*
X37400Y-42900D02*
X36575Y-42900D01*
X38125Y-43800D02*
X37575Y-43800D01*
X40175Y-37525D02*
X41075Y-37525D01*
X22350Y-35200D02*
X22200Y-35350D01*
X41350Y-35200D02*
X41575Y-35425D01*
X41350Y-35200D02*
X22350Y-35200D01*
X41575Y-35425D02*
X41575Y-36125D01*
G54D47*
X12950Y-45175D02*
X12350Y-45175D01*
X12675Y-41725D02*
X11200Y-41725D01*
X11050Y-41000D02*
X11050Y-41575D01*
X11325Y-43725D02*
X11600Y-43450D01*
X10300Y-37375D02*
X10300Y-40250D01*
X10300Y-40250D02*
X11050Y-41000D01*
X12625Y-43450D02*
X12950Y-43125D01*
X10150Y-37225D02*
X10300Y-37375D01*
X10150Y-36450D02*
X10700Y-35900D01*
X11325Y-44925D02*
X11325Y-43725D01*
X10150Y-37225D02*
X10150Y-36450D01*
X12950Y-42000D02*
X12675Y-41725D01*
X11575Y-45175D02*
X11325Y-44925D01*
X11600Y-43450D02*
X12625Y-43450D01*
X12350Y-45175D02*
X11575Y-45175D01*
X12950Y-43125D02*
X12950Y-42000D01*
X11200Y-41725D02*
X11050Y-41575D01*
G54D49*
X15200Y-37275D02*
X15200Y-36600D01*
X10900Y-40200D02*
X10600Y-39900D01*
X14950Y-37525D02*
X11275Y-37525D01*
X23450Y-36125D02*
X23975Y-36125D01*
X23850Y-38700D02*
X21450Y-38700D01*
X24450Y-39300D02*
X23850Y-38700D01*
X21275Y-38875D02*
X21275Y-40375D01*
X25275Y-39300D02*
X24450Y-39300D01*
X21450Y-38700D02*
X21275Y-38875D01*
X11275Y-37525D02*
X10600Y-38200D01*
X15200Y-36600D02*
X15400Y-36400D01*
X10600Y-39900D02*
X10600Y-38200D01*
X13225Y-40200D02*
X10900Y-40200D01*
X23175Y-36400D02*
X23450Y-36125D01*
X30050Y-38500D02*
X29250Y-39300D01*
X34925Y-38500D02*
X30050Y-38500D01*
X23175Y-36400D02*
X15400Y-36400D01*
X29250Y-39300D02*
X25275Y-39300D01*
X14950Y-37525D02*
X15200Y-37275D01*
X37400Y-50975D02*
X37400Y-51725D01*
X35052Y-51925D02*
X34900Y-52077D01*
X37200Y-51925D02*
X35052Y-51925D01*
X37400Y-51725D02*
X37200Y-51925D01*
X30450Y-52775D02*
X30450Y-53150D01*
X34900Y-52077D02*
X34327Y-52650D01*
X30575Y-52650D02*
X34327Y-52650D01*
X24450Y-38325D02*
X20950Y-38325D01*
X24975Y-36125D02*
X24975Y-36875D01*
X24450Y-37075D02*
X24775Y-37075D01*
X24775Y-37075D02*
X24975Y-36875D01*
X30575Y-52650D02*
X30450Y-52775D01*
X16100Y-40225D02*
X17325Y-40225D01*
X18425Y-42675D02*
X18875Y-42225D01*
X18875Y-42225D02*
X19425Y-42225D01*
X15601Y-41524D02*
X15475Y-41650D01*
X15475Y-42575D02*
X15025Y-43025D01*
X15475Y-41650D02*
X15475Y-42575D01*
X17525Y-42675D02*
X18425Y-42675D01*
X16100Y-41524D02*
X15601Y-41524D01*
X16825Y-41725D02*
X16725Y-41625D01*
X16725Y-41175D02*
X16641Y-41091D01*
X16641Y-41091D02*
X16100Y-41091D01*
X16725Y-41625D02*
X16725Y-41175D01*
X17325Y-41725D02*
X16825Y-41725D01*
X20550Y-42525D02*
X21300Y-42525D01*
X19750Y-41725D02*
X20550Y-42525D01*
X26400Y-50350D02*
X26275Y-50225D01*
X20850Y-51400D02*
X20000Y-52250D01*
X23850Y-50225D02*
X22675Y-51400D01*
X26400Y-50975D02*
X26400Y-50350D01*
X27825Y-41275D02*
X25100Y-41275D01*
X22675Y-51400D02*
X20850Y-51400D01*
X26275Y-50225D02*
X23850Y-50225D01*
X19425Y-41725D02*
X19750Y-41725D01*
G54D47*
X19950Y-44125D02*
X20225Y-43850D01*
X21150Y-44475D02*
X21150Y-43850D01*
X14325Y-45775D02*
X14225Y-45675D01*
X18475Y-44125D02*
X17075Y-44125D01*
X22025Y-43275D02*
X21450Y-43850D01*
X15475Y-47050D02*
X15225Y-46800D01*
X10575Y-42850D02*
X10350Y-43075D01*
X33350Y-53700D02*
X32975Y-54075D01*
X15475Y-49000D02*
X15625Y-49200D01*
X22875Y-48725D02*
X21725Y-48725D01*
X35425Y-52525D02*
X34250Y-53700D01*
X15475Y-48025D02*
X14600Y-48025D01*
X12350Y-42850D02*
X10575Y-42850D01*
X14700Y-45775D02*
X14700Y-45675D01*
X11525Y-47625D02*
X11375Y-47475D01*
X14700Y-44300D02*
X14700Y-45675D01*
X23825Y-43275D02*
X23225Y-43275D01*
X11250Y-52425D02*
X11925Y-51750D01*
X21150Y-43850D02*
X20225Y-43850D01*
X23150Y-48450D02*
X22875Y-48725D01*
X15475Y-47525D02*
X15475Y-48025D01*
X39575Y-54125D02*
X40575Y-54125D01*
X15225Y-45775D02*
X14700Y-45775D01*
X14700Y-45775D02*
X14325Y-45775D01*
X14050Y-47475D02*
X13300Y-47475D01*
X13550Y-45675D02*
X12950Y-45675D01*
X12475Y-47625D02*
X12625Y-47475D01*
X11900Y-47625D02*
X11525Y-47625D01*
X23150Y-47475D02*
X23150Y-48450D01*
X32400Y-47975D02*
X32400Y-47673D01*
X19950Y-44125D02*
X18475Y-44125D01*
X11250Y-53800D02*
X10825Y-54225D01*
X11375Y-47475D02*
X10800Y-47475D01*
X15225Y-46525D02*
X14700Y-46525D01*
X33048Y-47025D02*
X34125Y-47025D01*
X23225Y-43275D02*
X22025Y-43275D01*
X11900Y-47625D02*
X12475Y-47625D01*
X13300Y-47475D02*
X12625Y-47475D01*
X18500Y-44125D02*
X18475Y-44125D01*
X32975Y-54075D02*
X32100Y-54075D01*
X36575Y-45800D02*
X34575Y-45800D01*
X34575Y-46575D02*
X34575Y-45800D01*
X11925Y-51225D02*
X15275Y-51225D01*
X31575Y-55125D02*
X31575Y-54600D01*
X32100Y-54075D02*
X31575Y-54600D01*
X10350Y-43075D02*
X10350Y-43700D01*
X15475Y-48025D02*
X15475Y-48525D01*
X15225Y-46800D02*
X15225Y-46525D01*
X32400Y-47673D02*
X33048Y-47025D01*
X17075Y-44575D02*
X17075Y-44125D01*
X18500Y-45250D02*
X18500Y-44125D01*
X14225Y-45675D02*
X13550Y-45675D01*
X10825Y-56075D02*
X10825Y-54225D01*
X21725Y-48725D02*
X20825Y-48725D01*
X14050Y-47475D02*
X14600Y-48025D01*
X41575Y-49950D02*
X41575Y-52200D01*
X41575Y-52200D02*
X41250Y-52525D01*
X34250Y-53700D02*
X33350Y-53700D01*
X11925Y-51750D02*
X11925Y-51225D01*
X14700Y-46525D02*
X14700Y-45675D01*
X34125Y-47025D02*
X34575Y-46575D01*
X40575Y-54125D02*
X41575Y-54125D01*
X15475Y-47525D02*
X15475Y-47050D01*
X24200Y-43650D02*
X23825Y-43275D01*
X24200Y-44500D02*
X24200Y-43650D01*
X15475Y-48525D02*
X15475Y-49000D01*
X21450Y-43850D02*
X21150Y-43850D01*
X11250Y-52425D02*
X11250Y-53800D01*
X35425Y-52525D02*
X41250Y-52525D01*
X20825Y-48725D02*
X20800Y-48700D01*
G54D49*
X20875Y-47300D02*
X20875Y-47650D01*
X19725Y-47825D02*
X20700Y-47825D01*
X19500Y-47600D02*
X19725Y-47825D01*
X20875Y-47650D02*
X20700Y-47825D01*
X19500Y-47150D02*
X19500Y-47600D01*
X20875Y-47300D02*
X21850Y-47300D01*
X18500Y-46300D02*
X18025Y-45825D01*
X18025Y-45825D02*
X18025Y-45050D01*
X17825Y-44850D02*
X18025Y-45050D01*
X17825Y-44575D02*
X17825Y-44850D01*
X18500Y-47150D02*
X18500Y-46300D01*
G54D47*
X15700Y-51975D02*
X15500Y-52175D01*
X16650Y-51750D02*
X16425Y-51975D01*
X16650Y-51350D02*
X16650Y-51750D01*
X15500Y-52175D02*
X15500Y-53450D01*
X16425Y-51975D02*
X15700Y-51975D01*
G54D49*
X27925Y-45700D02*
X27925Y-45350D01*
X23375Y-45950D02*
X27675Y-45950D01*
X37075Y-45300D02*
X37575Y-44800D01*
X27275Y-42925D02*
X29325Y-42925D01*
X18000Y-40250D02*
X18000Y-39725D01*
X27675Y-45950D02*
X27925Y-45700D01*
X17325Y-39725D02*
X18000Y-39725D01*
X18200Y-37525D02*
X18000Y-37725D01*
X35400Y-45125D02*
X35575Y-45300D01*
X32875Y-44700D02*
X33275Y-44300D01*
X35175Y-44300D02*
X35400Y-44525D01*
X33275Y-44300D02*
X35175Y-44300D01*
X27975Y-37425D02*
X27975Y-36125D01*
X32875Y-45325D02*
X32875Y-44700D01*
X29325Y-42925D02*
X29700Y-43300D01*
X35400Y-44525D02*
X35400Y-45125D01*
X27700Y-37700D02*
X27975Y-37425D01*
X20000Y-45250D02*
X20000Y-44575D01*
X18200Y-37525D02*
X25150Y-37525D01*
X37075Y-45300D02*
X35575Y-45300D01*
X25325Y-37700D02*
X27700Y-37700D01*
X18000Y-38150D02*
X18000Y-39725D01*
X18000Y-37725D02*
X18000Y-38150D01*
X25150Y-37525D02*
X25325Y-37700D01*
G54D47*
X32650Y-40300D02*
X32450Y-40500D01*
X38975Y-39400D02*
X39575Y-38800D01*
X16975Y-45525D02*
X17450Y-45525D01*
X35750Y-40300D02*
X35900Y-40150D01*
X32450Y-40500D02*
X30450Y-40500D01*
X36200Y-39400D02*
X38975Y-39400D01*
X36200Y-39400D02*
X35900Y-39700D01*
X25275Y-40300D02*
X30250Y-40300D01*
X30450Y-40500D02*
X30250Y-40300D01*
X35750Y-40300D02*
X32650Y-40300D01*
X35900Y-40150D02*
X35900Y-39700D01*
X12325Y-54750D02*
X12325Y-56075D01*
X13625Y-52050D02*
X12400Y-52050D01*
X13800Y-52225D02*
X13625Y-52050D01*
X12050Y-52400D02*
X12050Y-54475D01*
X12050Y-54475D02*
X12325Y-54750D01*
X12400Y-52050D02*
X12050Y-52400D01*
X24625Y-49500D02*
X24625Y-47875D01*
X24625Y-47875D02*
X24225Y-47475D01*
X15025Y-50425D02*
X15025Y-49875D01*
X26850Y-55725D02*
X26850Y-53475D01*
X34575Y-55500D02*
X34575Y-55125D01*
X33975Y-56100D02*
X27225Y-56100D01*
X27225Y-56100D02*
X26850Y-55725D01*
X34575Y-55500D02*
X33975Y-56100D01*
X11025Y-49000D02*
X11925Y-49000D01*
X11900Y-48375D02*
X10800Y-48375D01*
X11925Y-49000D02*
X12525Y-49600D01*
X24225Y-47475D02*
X23725Y-47475D01*
X14750Y-49600D02*
X12525Y-49600D01*
X10800Y-48775D02*
X11025Y-49000D01*
X15025Y-50425D02*
X16650Y-50425D01*
X16650Y-50425D02*
X16650Y-49250D01*
X20875Y-46550D02*
X20400Y-46550D01*
X10800Y-48375D02*
X10800Y-48775D01*
X15025Y-49875D02*
X14750Y-49600D01*
X33000Y-41625D02*
X32875Y-41500D01*
X30625Y-41500D02*
X32875Y-41500D01*
X23350Y-40875D02*
X30000Y-40875D01*
X30000Y-40875D02*
X30625Y-41500D01*
X37025Y-41625D02*
X33000Y-41625D01*
G54D49*
X32750Y-52200D02*
X32900Y-52050D01*
X28875Y-52925D02*
X22549Y-52925D01*
X22549Y-52925D02*
X20850Y-54624D01*
X20850Y-55400D02*
X20000Y-56250D01*
X20850Y-54624D02*
X20850Y-55400D01*
X32900Y-49550D02*
X33100Y-49350D01*
X29600Y-52200D02*
X28875Y-52925D01*
X32750Y-52200D02*
X29600Y-52200D01*
X32900Y-49550D02*
X32900Y-52050D01*
X34225Y-49350D02*
X34400Y-49175D01*
X34400Y-47975D02*
X34400Y-49175D01*
X33100Y-49350D02*
X34225Y-49350D01*
X35925Y-38800D02*
X35675Y-39050D01*
X35675Y-39050D02*
X34875Y-39050D01*
X36575Y-38800D02*
X35925Y-38800D01*
G54D47*
X21150Y-45275D02*
X21150Y-45975D01*
X13650Y-41050D02*
X13850Y-41250D01*
X13035Y-43840D02*
X12713Y-44162D01*
X33675Y-43200D02*
X34875Y-43200D01*
X15475Y-43840D02*
X14350Y-43840D01*
X15475Y-44875D02*
X15475Y-43840D01*
X16600Y-48025D02*
X17375Y-48025D01*
X16275Y-48025D02*
X16275Y-48525D01*
X29300Y-46525D02*
X28176Y-46525D01*
X13650Y-39950D02*
X13650Y-41050D01*
X35325Y-53125D02*
X34400Y-54050D01*
X36575Y-53125D02*
X37575Y-53125D01*
X11925Y-50425D02*
X11375Y-50425D01*
X16750Y-42225D02*
X16525Y-42450D01*
X17325Y-42225D02*
X16750Y-42225D01*
X21150Y-45975D02*
X21900Y-45975D01*
X25950Y-54725D02*
X25725Y-54500D01*
X20000Y-46350D02*
X20375Y-45975D01*
X36575Y-43800D02*
X35475Y-43800D01*
X12016Y-38099D02*
X11426Y-38099D01*
X11426Y-38099D02*
X11050Y-38475D01*
X21850Y-45975D02*
X21900Y-45975D01*
X18375Y-40725D02*
X18600Y-40950D01*
X14350Y-43840D02*
X13035Y-43840D01*
X15946Y-43840D02*
X15946Y-42579D01*
X29325Y-43775D02*
X26400Y-43775D01*
X17375Y-48025D02*
X17650Y-48025D01*
X25175Y-44475D02*
X26175Y-44475D01*
X35475Y-43800D02*
X34875Y-43200D01*
X29325Y-43775D02*
X29325Y-44500D01*
X26400Y-43775D02*
X26175Y-44000D01*
X17325Y-39225D02*
X16925Y-39225D01*
X16925Y-39225D02*
X16692Y-39458D01*
X18600Y-41225D02*
X18600Y-40950D01*
X32400Y-50025D02*
X31400Y-49025D01*
X14100Y-41250D02*
X14550Y-41250D01*
X18600Y-41225D02*
X19425Y-41225D01*
X14100Y-43325D02*
X14100Y-43840D01*
X14100Y-41250D02*
X14100Y-43325D01*
X16075Y-42450D02*
X16525Y-42450D01*
X30550Y-46525D02*
X29300Y-46525D01*
X16692Y-39458D02*
X16692Y-39608D01*
X32400Y-50975D02*
X32400Y-50025D01*
X20550Y-41650D02*
X20225Y-41650D01*
X18000Y-48375D02*
X17650Y-48025D01*
X18375Y-42225D02*
X18600Y-42000D01*
X11050Y-38475D02*
X11050Y-39125D01*
X15946Y-43840D02*
X15475Y-43840D01*
X23225Y-45275D02*
X23225Y-45350D01*
X17400Y-47325D02*
X17400Y-48025D01*
X13550Y-50425D02*
X13225Y-50450D01*
X20375Y-45975D02*
X21150Y-45975D01*
X33575Y-54325D02*
X33575Y-55125D01*
X31250Y-53125D02*
X30075Y-54300D01*
X19800Y-41225D02*
X19425Y-41225D01*
X28001Y-46700D02*
X28176Y-46525D01*
X22600Y-47025D02*
X22600Y-45975D01*
X14550Y-41250D02*
X15200Y-40600D01*
X15946Y-42579D02*
X16075Y-42450D01*
X14100Y-43325D02*
X13350Y-43325D01*
X13650Y-39950D02*
X14100Y-39500D01*
X14676Y-38099D02*
X14812Y-37963D01*
X10800Y-46575D02*
X12025Y-46575D01*
X16100Y-39792D02*
X16508Y-39792D01*
X25450Y-46700D02*
X26550Y-46700D01*
X23225Y-45350D02*
X22600Y-45975D01*
X17325Y-42225D02*
X18375Y-42225D01*
X42950Y-38050D02*
X42325Y-38050D01*
X25950Y-55200D02*
X25950Y-54725D01*
X22600Y-47025D02*
X25125Y-47025D01*
X42325Y-38050D02*
X41575Y-38800D01*
X15225Y-46150D02*
X15625Y-46150D01*
X16508Y-39792D02*
X16692Y-39608D01*
X26550Y-46700D02*
X28001Y-46700D01*
X16600Y-48025D02*
X16275Y-48025D01*
X21275Y-41475D02*
X21100Y-41650D01*
X14100Y-38099D02*
X14100Y-39500D01*
X22600Y-45975D02*
X21900Y-45975D01*
X29325Y-46525D02*
X29300Y-46525D01*
X21850Y-46550D02*
X21850Y-45975D01*
X11375Y-50425D02*
X11100Y-50700D01*
X15750Y-46025D02*
X15750Y-45575D01*
X32375Y-44500D02*
X29325Y-44500D01*
X15558Y-39792D02*
X15200Y-40150D01*
X25450Y-46700D02*
X25125Y-47025D01*
X14812Y-37963D02*
X15864Y-37963D01*
X12713Y-44162D02*
X12016Y-44162D01*
X17325Y-40725D02*
X18375Y-40725D01*
X20225Y-41650D02*
X19800Y-41225D01*
X17400Y-48025D02*
X17375Y-48025D01*
X22075Y-41475D02*
X21275Y-41475D01*
X34400Y-54050D02*
X33850Y-54050D01*
X12016Y-38099D02*
X14100Y-38099D01*
X12025Y-46575D02*
X12300Y-46300D01*
X36575Y-53125D02*
X35325Y-53125D01*
X15625Y-46150D02*
X15750Y-46025D01*
X22075Y-39425D02*
X22075Y-41475D01*
X21100Y-41650D02*
X20550Y-41650D01*
X14100Y-43840D02*
X14350Y-43840D01*
X18600Y-42000D02*
X18600Y-41225D01*
X13850Y-41250D02*
X14100Y-41250D01*
X39575Y-53125D02*
X40575Y-53125D01*
X11100Y-50700D02*
X10575Y-50700D01*
X15750Y-45575D02*
X15475Y-45300D01*
X37575Y-53125D02*
X38575Y-53125D01*
X20000Y-47150D02*
X20000Y-46350D01*
X15200Y-40150D02*
X15200Y-40600D01*
X15475Y-45300D02*
X15475Y-44875D01*
X31400Y-49025D02*
X31400Y-47975D01*
X32400Y-53125D02*
X31250Y-53125D01*
X38575Y-53125D02*
X39575Y-53125D01*
X18000Y-49250D02*
X18000Y-48375D01*
X40575Y-53125D02*
X41575Y-53125D01*
X26175Y-44475D02*
X26175Y-44000D01*
X33675Y-43200D02*
X32375Y-44500D01*
X29325Y-44500D02*
X29325Y-46525D01*
X18000Y-55250D02*
X18000Y-56250D01*
X16100Y-39792D02*
X15558Y-39792D01*
X16275Y-47525D02*
X16275Y-48025D01*
X11925Y-50425D02*
X13550Y-50425D01*
X14100Y-38099D02*
X14676Y-38099D01*
X33850Y-54050D02*
X33575Y-54325D01*
G54D49*
X17400Y-46525D02*
X16275Y-46525D01*
X25150Y-45250D02*
X25175Y-45275D01*
X24200Y-45250D02*
X25150Y-45250D01*
X22200Y-45250D02*
X22450Y-45250D01*
X22450Y-45250D02*
X23225Y-44475D01*
X22200Y-44500D02*
X22200Y-43725D01*
X19500Y-44575D02*
X19500Y-45250D01*
X19000Y-45250D02*
X19500Y-45250D01*
X27175Y-45250D02*
X26200Y-45250D01*
X26200Y-45250D02*
X26175Y-45275D01*
G54D10*
G36*
X15750Y-49325D02*
X15420Y-49325D01*
X15420Y-49030D01*
X15420Y-48580D01*
X15420Y-48470D01*
X15420Y-48030D01*
X15420Y-48020D01*
X15420Y-47580D01*
X15420Y-47470D01*
X15420Y-47020D01*
X15345Y-46945D01*
X15206Y-46946D01*
X15096Y-46991D01*
X15012Y-47075D01*
X14966Y-47185D01*
X14966Y-47304D01*
X14965Y-47395D01*
X15040Y-47470D01*
X15420Y-47470D01*
X15420Y-47580D01*
X15040Y-47580D01*
X14965Y-47655D01*
X14966Y-47746D01*
X14966Y-47865D01*
X15012Y-47975D01*
X15062Y-48025D01*
X15012Y-48075D01*
X14966Y-48185D01*
X14966Y-48304D01*
X14965Y-48395D01*
X15040Y-48470D01*
X15420Y-48470D01*
X15420Y-48580D01*
X15040Y-48580D01*
X14965Y-48655D01*
X14966Y-48746D01*
X14966Y-48865D01*
X15012Y-48975D01*
X15096Y-49059D01*
X15206Y-49104D01*
X15345Y-49105D01*
X15420Y-49030D01*
X15420Y-49325D01*
X14955Y-49325D01*
X14884Y-49277D01*
X14750Y-49250D01*
X14182Y-49250D01*
X14182Y-45799D01*
X14182Y-45551D01*
X14100Y-45388D01*
X13964Y-45276D01*
X13795Y-45225D01*
X13605Y-45225D01*
X13605Y-45620D01*
X14120Y-45620D01*
X14182Y-45551D01*
X14182Y-45799D01*
X14120Y-45730D01*
X13605Y-45730D01*
X13605Y-46125D01*
X13795Y-46125D01*
X13964Y-46074D01*
X14100Y-45962D01*
X14182Y-45799D01*
X14182Y-49250D01*
X14000Y-49250D01*
X14000Y-47605D01*
X14000Y-47345D01*
X13999Y-46666D01*
X13954Y-46556D01*
X13870Y-46472D01*
X13760Y-46426D01*
X13641Y-46426D01*
X13495Y-46425D01*
X13495Y-46125D01*
X13495Y-45730D01*
X13325Y-45730D01*
X13005Y-45730D01*
X12980Y-45730D01*
X12918Y-45799D01*
X13000Y-45962D01*
X13005Y-45966D01*
X13005Y-46050D01*
X13079Y-46124D01*
X13160Y-46124D01*
X13219Y-46099D01*
X13305Y-46125D01*
X13495Y-46125D01*
X13495Y-46425D01*
X13430Y-46425D01*
X13355Y-46500D01*
X13355Y-47420D01*
X13925Y-47420D01*
X14000Y-47345D01*
X14000Y-47605D01*
X13925Y-47530D01*
X13355Y-47530D01*
X13355Y-48450D01*
X13430Y-48525D01*
X13641Y-48524D01*
X13760Y-48524D01*
X13870Y-48478D01*
X13954Y-48394D01*
X13999Y-48284D01*
X14000Y-47605D01*
X14000Y-49250D01*
X13245Y-49250D01*
X13245Y-48450D01*
X13245Y-47530D01*
X12675Y-47530D01*
X12600Y-47605D01*
X12601Y-48284D01*
X12646Y-48394D01*
X12730Y-48478D01*
X12840Y-48524D01*
X12959Y-48524D01*
X13170Y-48525D01*
X13245Y-48450D01*
X13245Y-49250D01*
X12669Y-49250D01*
X12283Y-48863D01*
X12336Y-48842D01*
X12406Y-48772D01*
X12444Y-48681D01*
X12444Y-48582D01*
X12444Y-48070D01*
X12439Y-48059D01*
X12449Y-48050D01*
X12494Y-47940D01*
X12495Y-47755D01*
X12495Y-47495D01*
X12494Y-47310D01*
X12449Y-47200D01*
X12365Y-47116D01*
X12255Y-47070D01*
X12136Y-47070D01*
X12030Y-47069D01*
X11955Y-47144D01*
X11955Y-47570D01*
X12420Y-47570D01*
X12495Y-47495D01*
X12495Y-47755D01*
X12420Y-47680D01*
X12005Y-47680D01*
X11955Y-47680D01*
X11845Y-47680D01*
X11845Y-47570D01*
X11845Y-47520D01*
X11845Y-47144D01*
X11770Y-47069D01*
X11664Y-47070D01*
X11545Y-47070D01*
X11489Y-47093D01*
X11454Y-47006D01*
X11426Y-46978D01*
X11449Y-46925D01*
X12025Y-46925D01*
X12025Y-46924D01*
X12159Y-46898D01*
X12272Y-46822D01*
X12369Y-46725D01*
X12384Y-46725D01*
X12540Y-46661D01*
X12660Y-46541D01*
X12646Y-46556D01*
X12601Y-46666D01*
X12600Y-47345D01*
X12675Y-47420D01*
X13245Y-47420D01*
X13245Y-46500D01*
X13170Y-46425D01*
X12959Y-46426D01*
X12840Y-46426D01*
X12730Y-46472D01*
X12660Y-46541D01*
X12725Y-46385D01*
X12725Y-46216D01*
X12676Y-46097D01*
X12740Y-46124D01*
X12821Y-46124D01*
X12895Y-46050D01*
X12895Y-45730D01*
X12575Y-45730D01*
X12500Y-45805D01*
X12501Y-45884D01*
X12520Y-45931D01*
X12385Y-45875D01*
X12216Y-45875D01*
X12060Y-45939D01*
X11940Y-46059D01*
X11875Y-46215D01*
X11875Y-46225D01*
X11448Y-46225D01*
X11411Y-46134D01*
X11350Y-46073D01*
X11350Y-45575D01*
X12530Y-45575D01*
X12575Y-45620D01*
X12845Y-45620D01*
X12895Y-45620D01*
X12980Y-45620D01*
X13005Y-45620D01*
X13055Y-45620D01*
X13325Y-45620D01*
X13495Y-45620D01*
X13495Y-45225D01*
X13349Y-45225D01*
X13349Y-45067D01*
X13417Y-45067D01*
X13839Y-45067D01*
X13983Y-45007D01*
X14093Y-44897D01*
X14153Y-44753D01*
X14153Y-44597D01*
X14093Y-44453D01*
X13983Y-44343D01*
X13839Y-44283D01*
X13683Y-44283D01*
X13261Y-44283D01*
X13250Y-44287D01*
X13250Y-44190D01*
X14100Y-44190D01*
X14350Y-44190D01*
X14900Y-44190D01*
X14900Y-45376D01*
X14835Y-45404D01*
X14751Y-45488D01*
X14706Y-45598D01*
X14705Y-45645D01*
X14780Y-45720D01*
X14900Y-45720D01*
X14900Y-45806D01*
X14864Y-45821D01*
X14855Y-45830D01*
X14780Y-45830D01*
X14705Y-45905D01*
X14706Y-45952D01*
X14751Y-46062D01*
X14756Y-46067D01*
X14756Y-46081D01*
X14756Y-46233D01*
X14751Y-46238D01*
X14706Y-46348D01*
X14705Y-46395D01*
X14780Y-46470D01*
X14855Y-46470D01*
X14864Y-46479D01*
X14900Y-46494D01*
X14900Y-46580D01*
X14780Y-46580D01*
X14705Y-46655D01*
X14706Y-46702D01*
X14751Y-46812D01*
X14835Y-46896D01*
X14945Y-46942D01*
X15064Y-46942D01*
X15095Y-46943D01*
X15170Y-46868D01*
X15170Y-46750D01*
X15280Y-46750D01*
X15280Y-46868D01*
X15355Y-46943D01*
X15386Y-46942D01*
X15505Y-46942D01*
X15615Y-46896D01*
X15699Y-46812D01*
X15724Y-46750D01*
X15750Y-46750D01*
X15750Y-46948D01*
X15744Y-46946D01*
X15605Y-46945D01*
X15530Y-47020D01*
X15530Y-47420D01*
X15530Y-47470D01*
X15530Y-47580D01*
X15530Y-47630D01*
X15530Y-48020D01*
X15530Y-48030D01*
X15530Y-48420D01*
X15530Y-48470D01*
X15530Y-48580D01*
X15530Y-48630D01*
X15530Y-49030D01*
X15605Y-49105D01*
X15744Y-49104D01*
X15750Y-49101D01*
X15750Y-49325D01*
X15750Y-49325D01*
G37*
G54D49*
X15750Y-49325D02*
X15420Y-49325D01*
X15420Y-49030D01*
X15420Y-48580D01*
X15420Y-48470D01*
X15420Y-48030D01*
X15420Y-48020D01*
X15420Y-47580D01*
X15420Y-47470D01*
X15420Y-47020D01*
X15345Y-46945D01*
X15206Y-46946D01*
X15096Y-46991D01*
X15012Y-47075D01*
X14966Y-47185D01*
X14966Y-47304D01*
X14965Y-47395D01*
X15040Y-47470D01*
X15420Y-47470D01*
X15420Y-47580D01*
X15040Y-47580D01*
X14965Y-47655D01*
X14966Y-47746D01*
X14966Y-47865D01*
X15012Y-47975D01*
X15062Y-48025D01*
X15012Y-48075D01*
X14966Y-48185D01*
X14966Y-48304D01*
X14965Y-48395D01*
X15040Y-48470D01*
X15420Y-48470D01*
X15420Y-48580D01*
X15040Y-48580D01*
X14965Y-48655D01*
X14966Y-48746D01*
X14966Y-48865D01*
X15012Y-48975D01*
X15096Y-49059D01*
X15206Y-49104D01*
X15345Y-49105D01*
X15420Y-49030D01*
X15420Y-49325D01*
X14955Y-49325D01*
X14884Y-49277D01*
X14750Y-49250D01*
X14182Y-49250D01*
X14182Y-45799D01*
X14182Y-45551D01*
X14100Y-45388D01*
X13964Y-45276D01*
X13795Y-45225D01*
X13605Y-45225D01*
X13605Y-45620D01*
X14120Y-45620D01*
X14182Y-45551D01*
X14182Y-45799D01*
X14120Y-45730D01*
X13605Y-45730D01*
X13605Y-46125D01*
X13795Y-46125D01*
X13964Y-46074D01*
X14100Y-45962D01*
X14182Y-45799D01*
X14182Y-49250D01*
X14000Y-49250D01*
X14000Y-47605D01*
X14000Y-47345D01*
X13999Y-46666D01*
X13954Y-46556D01*
X13870Y-46472D01*
X13760Y-46426D01*
X13641Y-46426D01*
X13495Y-46425D01*
X13495Y-46125D01*
X13495Y-45730D01*
X13325Y-45730D01*
X13005Y-45730D01*
X12980Y-45730D01*
X12918Y-45799D01*
X13000Y-45962D01*
X13005Y-45966D01*
X13005Y-46050D01*
X13079Y-46124D01*
X13160Y-46124D01*
X13219Y-46099D01*
X13305Y-46125D01*
X13495Y-46125D01*
X13495Y-46425D01*
X13430Y-46425D01*
X13355Y-46500D01*
X13355Y-47420D01*
X13925Y-47420D01*
X14000Y-47345D01*
X14000Y-47605D01*
X13925Y-47530D01*
X13355Y-47530D01*
X13355Y-48450D01*
X13430Y-48525D01*
X13641Y-48524D01*
X13760Y-48524D01*
X13870Y-48478D01*
X13954Y-48394D01*
X13999Y-48284D01*
X14000Y-47605D01*
X14000Y-49250D01*
X13245Y-49250D01*
X13245Y-48450D01*
X13245Y-47530D01*
X12675Y-47530D01*
X12600Y-47605D01*
X12601Y-48284D01*
X12646Y-48394D01*
X12730Y-48478D01*
X12840Y-48524D01*
X12959Y-48524D01*
X13170Y-48525D01*
X13245Y-48450D01*
X13245Y-49250D01*
X12669Y-49250D01*
X12283Y-48863D01*
X12336Y-48842D01*
X12406Y-48772D01*
X12444Y-48681D01*
X12444Y-48582D01*
X12444Y-48070D01*
X12439Y-48059D01*
X12449Y-48050D01*
X12494Y-47940D01*
X12495Y-47755D01*
X12495Y-47495D01*
X12494Y-47310D01*
X12449Y-47200D01*
X12365Y-47116D01*
X12255Y-47070D01*
X12136Y-47070D01*
X12030Y-47069D01*
X11955Y-47144D01*
X11955Y-47570D01*
X12420Y-47570D01*
X12495Y-47495D01*
X12495Y-47755D01*
X12420Y-47680D01*
X12005Y-47680D01*
X11955Y-47680D01*
X11845Y-47680D01*
X11845Y-47570D01*
X11845Y-47520D01*
X11845Y-47144D01*
X11770Y-47069D01*
X11664Y-47070D01*
X11545Y-47070D01*
X11489Y-47093D01*
X11454Y-47006D01*
X11426Y-46978D01*
X11449Y-46925D01*
X12025Y-46925D01*
X12025Y-46924D01*
X12159Y-46898D01*
X12272Y-46822D01*
X12369Y-46725D01*
X12384Y-46725D01*
X12540Y-46661D01*
X12660Y-46541D01*
X12646Y-46556D01*
X12601Y-46666D01*
X12600Y-47345D01*
X12675Y-47420D01*
X13245Y-47420D01*
X13245Y-46500D01*
X13170Y-46425D01*
X12959Y-46426D01*
X12840Y-46426D01*
X12730Y-46472D01*
X12660Y-46541D01*
X12725Y-46385D01*
X12725Y-46216D01*
X12676Y-46097D01*
X12740Y-46124D01*
X12821Y-46124D01*
X12895Y-46050D01*
X12895Y-45730D01*
X12575Y-45730D01*
X12500Y-45805D01*
X12501Y-45884D01*
X12520Y-45931D01*
X12385Y-45875D01*
X12216Y-45875D01*
X12060Y-45939D01*
X11940Y-46059D01*
X11875Y-46215D01*
X11875Y-46225D01*
X11448Y-46225D01*
X11411Y-46134D01*
X11350Y-46073D01*
X11350Y-45575D01*
X12530Y-45575D01*
X12575Y-45620D01*
X12845Y-45620D01*
X12895Y-45620D01*
X12980Y-45620D01*
X13005Y-45620D01*
X13055Y-45620D01*
X13325Y-45620D01*
X13495Y-45620D01*
X13495Y-45225D01*
X13349Y-45225D01*
X13349Y-45067D01*
X13417Y-45067D01*
X13839Y-45067D01*
X13983Y-45007D01*
X14093Y-44897D01*
X14153Y-44753D01*
X14153Y-44597D01*
X14093Y-44453D01*
X13983Y-44343D01*
X13839Y-44283D01*
X13683Y-44283D01*
X13261Y-44283D01*
X13250Y-44287D01*
X13250Y-44190D01*
X14100Y-44190D01*
X14350Y-44190D01*
X14900Y-44190D01*
X14900Y-45376D01*
X14835Y-45404D01*
X14751Y-45488D01*
X14706Y-45598D01*
X14705Y-45645D01*
X14780Y-45720D01*
X14900Y-45720D01*
X14900Y-45806D01*
X14864Y-45821D01*
X14855Y-45830D01*
X14780Y-45830D01*
X14705Y-45905D01*
X14706Y-45952D01*
X14751Y-46062D01*
X14756Y-46067D01*
X14756Y-46081D01*
X14756Y-46233D01*
X14751Y-46238D01*
X14706Y-46348D01*
X14705Y-46395D01*
X14780Y-46470D01*
X14855Y-46470D01*
X14864Y-46479D01*
X14900Y-46494D01*
X14900Y-46580D01*
X14780Y-46580D01*
X14705Y-46655D01*
X14706Y-46702D01*
X14751Y-46812D01*
X14835Y-46896D01*
X14945Y-46942D01*
X15064Y-46942D01*
X15095Y-46943D01*
X15170Y-46868D01*
X15170Y-46750D01*
X15280Y-46750D01*
X15280Y-46868D01*
X15355Y-46943D01*
X15386Y-46942D01*
X15505Y-46942D01*
X15615Y-46896D01*
X15699Y-46812D01*
X15724Y-46750D01*
X15750Y-46750D01*
X15750Y-46948D01*
X15744Y-46946D01*
X15605Y-46945D01*
X15530Y-47020D01*
X15530Y-47420D01*
X15530Y-47470D01*
X15530Y-47580D01*
X15530Y-47630D01*
X15530Y-48020D01*
X15530Y-48030D01*
X15530Y-48420D01*
X15530Y-48470D01*
X15530Y-48580D01*
X15530Y-48630D01*
X15530Y-49030D01*
X15605Y-49105D01*
X15744Y-49104D01*
X15750Y-49101D01*
X15750Y-49325D01*
M02*
